<?xml version="1.0" encoding="UTF-8" standalone="no"?>
<!DOCTYPE svg PUBLIC "-//W3C//DTD SVG 1.1//EN"
 "http://www.w3.org/Graphics/SVG/1.1/DTD/svg11.dtd">
<!-- Generated by graphviz version 2.43.0 (0)
 -->
<!-- Title: HoTT_Algebra_AbGroups_AbelianGroup Pages: 1 -->
<svg width="1957pt" height="976pt"
 viewBox="0.00 0.00 1957.50 976.00" xmlns="http://www.w3.org/2000/svg" xmlns:xlink="http://www.w3.org/1999/xlink">
<g id="graph0" class="graph" transform="scale(1 1) rotate(0) translate(4 972)">
<title>HoTT_Algebra_AbGroups_AbelianGroup</title>
<polygon fill="white" stroke="transparent" points="-4,4 -4,-972 1953.5,-972 1953.5,4 -4,4"/>
<g id="clust1" class="cluster">
<title>cluster_AbelianGroup</title>
<polygon fill="#ffffc3" stroke="black" points="8,-12.51 8,-955.49 1928,-955.49 1928,-12.51 8,-12.51"/>
<text text-anchor="middle" x="65" y="-940.29" font-family="Times,serif" font-size="14.00">AbelianGroup</text>
</g>
<!-- AbelianGroup_ab_homo_negation -->
<g id="node1" class="node">
<title>AbelianGroup_ab_homo_negation</title>
<g id="a_node1"><a xlink:href="AbelianGroup.html#ab_homo_negation" xlink:title="ab_homo_negation">
<ellipse fill="#f070d1" stroke="black" cx="795" cy="-315.51" rx="96.7" ry="18"/>
<ellipse fill="none" stroke="black" cx="795" cy="-315.51" rx="100.69" ry="22"/>
<ellipse fill="none" stroke="black" cx="795" cy="-315.51" rx="104.68" ry="26"/>
<text text-anchor="middle" x="795" y="-311.81" font-family="Times,serif" font-size="14.00">ab_homo_negation</text>
</a>
</g>
</g>
<!-- AbelianGroup_group_abgroup -->
<g id="node31" class="node">
<title>AbelianGroup_group_abgroup</title>
<g id="a_node31"><a xlink:href="AbelianGroup.html#group_abgroup" xlink:title="group_abgroup">
<ellipse fill="#f070d1" stroke="black" cx="1270" cy="-178.51" rx="81.49" ry="18"/>
<text text-anchor="middle" x="1270" y="-174.81" font-family="Times,serif" font-size="14.00">group_abgroup</text>
</a>
</g>
</g>
<!-- AbelianGroup_ab_homo_negation&#45;&gt;AbelianGroup_group_abgroup -->
<g id="edge1" class="edge">
<title>AbelianGroup_ab_homo_negation&#45;&gt;AbelianGroup_group_abgroup</title>
<path fill="none" stroke="black" d="M862.05,-295.45C955.62,-268.86 1123.8,-221.06 1212.16,-195.95"/>
<polygon fill="black" stroke="black" points="1213.35,-199.25 1222.01,-193.15 1211.44,-192.52 1213.35,-199.25"/>
</g>
<!-- AbelianGroup_ab_biprod_corec -->
<g id="node2" class="node">
<title>AbelianGroup_ab_biprod_corec</title>
<g id="a_node2"><a xlink:href="AbelianGroup.html#ab_biprod_corec" xlink:title="ab_biprod_corec">
<ellipse fill="#f070d1" stroke="black" cx="1004" cy="-453.51" rx="85.6" ry="18"/>
<ellipse fill="none" stroke="black" cx="1004" cy="-453.51" rx="89.59" ry="22"/>
<ellipse fill="none" stroke="black" cx="1004" cy="-453.51" rx="93.59" ry="26"/>
<text text-anchor="middle" x="1004" y="-449.81" font-family="Times,serif" font-size="14.00">ab_biprod_corec</text>
</a>
</g>
</g>
<!-- AbelianGroup_ab_biprod -->
<g id="node14" class="node">
<title>AbelianGroup_ab_biprod</title>
<g id="a_node14"><a xlink:href="AbelianGroup.html#ab_biprod" xlink:title="ab_biprod">
<ellipse fill="#f070d1" stroke="black" cx="1171" cy="-315.51" rx="56.59" ry="18"/>
<text text-anchor="middle" x="1171" y="-311.81" font-family="Times,serif" font-size="14.00">ab_biprod</text>
</a>
</g>
</g>
<!-- AbelianGroup_ab_biprod_corec&#45;&gt;AbelianGroup_ab_biprod -->
<g id="edge2" class="edge">
<title>AbelianGroup_ab_biprod_corec&#45;&gt;AbelianGroup_ab_biprod</title>
<path fill="none" stroke="black" d="M1033.47,-428.51C1064.46,-403.28 1112.83,-363.88 1143.18,-339.17"/>
<polygon fill="black" stroke="black" points="1145.69,-341.64 1151.23,-332.61 1141.27,-336.21 1145.69,-341.64"/>
</g>
<!-- AbelianGroup_isgraph_abgroup -->
<g id="node25" class="node">
<title>AbelianGroup_isgraph_abgroup</title>
<g id="a_node25"><a xlink:href="AbelianGroup.html#isgraph_abgroup" xlink:title="isgraph_abgroup">
<ellipse fill="#f070d1" stroke="black" cx="1007" cy="-315.51" rx="89.08" ry="18"/>
<text text-anchor="middle" x="1007" y="-311.81" font-family="Times,serif" font-size="14.00">isgraph_abgroup</text>
</a>
</g>
</g>
<!-- AbelianGroup_ab_biprod_corec&#45;&gt;AbelianGroup_isgraph_abgroup -->
<g id="edge3" class="edge">
<title>AbelianGroup_ab_biprod_corec&#45;&gt;AbelianGroup_isgraph_abgroup</title>
<path fill="none" stroke="black" d="M1004.56,-427.25C1005.08,-403.56 1005.86,-368.24 1006.4,-343.89"/>
<polygon fill="black" stroke="black" points="1009.9,-343.94 1006.62,-333.87 1002.9,-343.79 1009.9,-343.94"/>
</g>
<!-- AbelianGroup_isequiv_ab_biprod_rec -->
<g id="node3" class="node">
<title>AbelianGroup_isequiv_ab_biprod_rec</title>
<g id="a_node3"><a xlink:href="AbelianGroup.html#isequiv_ab_biprod_rec" xlink:title="isequiv_ab_biprod_rec">
<ellipse fill="#f070d1" stroke="black" cx="946" cy="-866.51" rx="113.17" ry="18"/>
<ellipse fill="none" stroke="black" cx="946" cy="-866.51" rx="117.18" ry="22"/>
<ellipse fill="none" stroke="black" cx="946" cy="-866.51" rx="121.18" ry="26"/>
<text text-anchor="middle" x="946" y="-862.81" font-family="Times,serif" font-size="14.00">isequiv_ab_biprod_rec</text>
</a>
</g>
</g>
<!-- AbelianGroup_ab_biprod_rec_inr_beta -->
<g id="node4" class="node">
<title>AbelianGroup_ab_biprod_rec_inr_beta</title>
<g id="a_node4"><a xlink:href="AbelianGroup.html#ab_biprod_rec_inr_beta" xlink:title="ab_biprod_rec_inr_beta">
<ellipse fill="#f070d1" stroke="black" cx="918" cy="-591.51" rx="118.08" ry="18"/>
<text text-anchor="middle" x="918" y="-587.81" font-family="Times,serif" font-size="14.00">ab_biprod_rec_inr_beta</text>
</a>
</g>
</g>
<!-- AbelianGroup_isequiv_ab_biprod_rec&#45;&gt;AbelianGroup_ab_biprod_rec_inr_beta -->
<g id="edge4" class="edge">
<title>AbelianGroup_isequiv_ab_biprod_rec&#45;&gt;AbelianGroup_ab_biprod_rec_inr_beta</title>
<path fill="none" stroke="black" d="M931.05,-840.56C918.89,-818.73 902.7,-785.71 896,-754.51 885.89,-707.44 898.84,-651.61 908.73,-619.31"/>
<polygon fill="black" stroke="black" points="912.09,-620.28 911.8,-609.69 905.42,-618.15 912.09,-620.28"/>
</g>
<!-- AbelianGroup_ab_biprod_rec_inl_beta -->
<g id="node5" class="node">
<title>AbelianGroup_ab_biprod_rec_inl_beta</title>
<g id="a_node5"><a xlink:href="AbelianGroup.html#ab_biprod_rec_inl_beta" xlink:title="ab_biprod_rec_inl_beta">
<ellipse fill="#f070d1" stroke="black" cx="665" cy="-591.51" rx="116.18" ry="18"/>
<text text-anchor="middle" x="665" y="-587.81" font-family="Times,serif" font-size="14.00">ab_biprod_rec_inl_beta</text>
</a>
</g>
</g>
<!-- AbelianGroup_isequiv_ab_biprod_rec&#45;&gt;AbelianGroup_ab_biprod_rec_inl_beta -->
<g id="edge5" class="edge">
<title>AbelianGroup_isequiv_ab_biprod_rec&#45;&gt;AbelianGroup_ab_biprod_rec_inl_beta</title>
<path fill="none" stroke="black" d="M920.57,-840.8C866.87,-788.64 742.54,-667.84 689.59,-616.4"/>
<polygon fill="black" stroke="black" points="691.92,-613.79 682.31,-609.33 687.05,-618.81 691.92,-613.79"/>
</g>
<!-- AbelianGroup_ab_biprod_rec_beta -->
<g id="node6" class="node">
<title>AbelianGroup_ab_biprod_rec_beta</title>
<g id="a_node6"><a xlink:href="AbelianGroup.html#ab_biprod_rec_beta" xlink:title="ab_biprod_rec_beta">
<ellipse fill="#f070d1" stroke="black" cx="1006" cy="-728.51" rx="100.98" ry="18"/>
<text text-anchor="middle" x="1006" y="-724.81" font-family="Times,serif" font-size="14.00">ab_biprod_rec_beta</text>
</a>
</g>
</g>
<!-- AbelianGroup_isequiv_ab_biprod_rec&#45;&gt;AbelianGroup_ab_biprod_rec_beta -->
<g id="edge6" class="edge">
<title>AbelianGroup_isequiv_ab_biprod_rec&#45;&gt;AbelianGroup_ab_biprod_rec_beta</title>
<path fill="none" stroke="black" d="M957,-840.57C967.59,-816.57 983.54,-780.43 994.34,-755.95"/>
<polygon fill="black" stroke="black" points="997.65,-757.12 998.48,-746.55 991.24,-754.29 997.65,-757.12"/>
</g>
<!-- AbelianGroup_ab_biprod_rec_uncurried -->
<g id="node8" class="node">
<title>AbelianGroup_ab_biprod_rec_uncurried</title>
<g id="a_node8"><a xlink:href="AbelianGroup.html#ab_biprod_rec_uncurried" xlink:title="ab_biprod_rec_uncurried">
<ellipse fill="#f070d1" stroke="black" cx="1250" cy="-728.51" rx="125.38" ry="18"/>
<text text-anchor="middle" x="1250" y="-724.81" font-family="Times,serif" font-size="14.00">ab_biprod_rec_uncurried</text>
</a>
</g>
</g>
<!-- AbelianGroup_isequiv_ab_biprod_rec&#45;&gt;AbelianGroup_ab_biprod_rec_uncurried -->
<g id="edge7" class="edge">
<title>AbelianGroup_isequiv_ab_biprod_rec&#45;&gt;AbelianGroup_ab_biprod_rec_uncurried</title>
<path fill="none" stroke="black" d="M996.88,-842.75C1054.72,-816.87 1148.32,-775 1204.03,-750.07"/>
<polygon fill="black" stroke="black" points="1205.61,-753.2 1213.31,-745.92 1202.75,-746.81 1205.61,-753.2"/>
</g>
<!-- AbelianGroup_ab_biprod_rec -->
<g id="node11" class="node">
<title>AbelianGroup_ab_biprod_rec</title>
<g id="a_node11"><a xlink:href="AbelianGroup.html#ab_biprod_rec" xlink:title="ab_biprod_rec">
<ellipse fill="#f070d1" stroke="black" cx="1357" cy="-453.51" rx="75.29" ry="18"/>
<text text-anchor="middle" x="1357" y="-449.81" font-family="Times,serif" font-size="14.00">ab_biprod_rec</text>
</a>
</g>
</g>
<!-- AbelianGroup_ab_biprod_rec_inr_beta&#45;&gt;AbelianGroup_ab_biprod_rec -->
<g id="edge8" class="edge">
<title>AbelianGroup_ab_biprod_rec_inr_beta&#45;&gt;AbelianGroup_ab_biprod_rec</title>
<path fill="none" stroke="black" d="M967.93,-575.04C1051.05,-549.29 1217.11,-497.85 1302.91,-471.27"/>
<polygon fill="black" stroke="black" points="1304.19,-474.53 1312.71,-468.23 1302.12,-467.85 1304.19,-474.53"/>
</g>
<!-- AbelianGroup_ab_biprod_inr -->
<g id="node12" class="node">
<title>AbelianGroup_ab_biprod_inr</title>
<g id="a_node12"><a xlink:href="AbelianGroup.html#ab_biprod_inr" xlink:title="ab_biprod_inr">
<ellipse fill="#f070d1" stroke="black" cx="1190" cy="-453.51" rx="74.19" ry="18"/>
<text text-anchor="middle" x="1190" y="-449.81" font-family="Times,serif" font-size="14.00">ab_biprod_inr</text>
</a>
</g>
</g>
<!-- AbelianGroup_ab_biprod_rec_inr_beta&#45;&gt;AbelianGroup_ab_biprod_inr -->
<g id="edge9" class="edge">
<title>AbelianGroup_ab_biprod_rec_inr_beta&#45;&gt;AbelianGroup_ab_biprod_inr</title>
<path fill="none" stroke="black" d="M950.81,-574.11C1000.79,-549.11 1095.89,-501.56 1149.9,-474.56"/>
<polygon fill="black" stroke="black" points="1151.79,-477.53 1159.17,-469.93 1148.66,-471.27 1151.79,-477.53"/>
</g>
<!-- AbelianGroup_is01cat_AbGroup -->
<g id="node24" class="node">
<title>AbelianGroup_is01cat_AbGroup</title>
<g id="a_node24"><a xlink:href="AbelianGroup.html#is01cat_AbGroup" xlink:title="is01cat_AbGroup">
<ellipse fill="#f070d1" stroke="black" cx="639" cy="-453.51" rx="89.88" ry="18"/>
<text text-anchor="middle" x="639" y="-449.81" font-family="Times,serif" font-size="14.00">is01cat_AbGroup</text>
</a>
</g>
</g>
<!-- AbelianGroup_ab_biprod_rec_inr_beta&#45;&gt;AbelianGroup_is01cat_AbGroup -->
<g id="edge10" class="edge">
<title>AbelianGroup_ab_biprod_rec_inr_beta&#45;&gt;AbelianGroup_is01cat_AbGroup</title>
<path fill="none" stroke="black" d="M884.62,-574.24C833.62,-549.38 736.38,-501.98 680.77,-474.87"/>
<polygon fill="black" stroke="black" points="682.07,-471.61 671.55,-470.38 679.01,-477.91 682.07,-471.61"/>
</g>
<!-- AbelianGroup_ab_biprod_rec_inl_beta&#45;&gt;AbelianGroup_ab_biprod_rec -->
<g id="edge11" class="edge">
<title>AbelianGroup_ab_biprod_rec_inl_beta&#45;&gt;AbelianGroup_ab_biprod_rec</title>
<path fill="none" stroke="black" d="M732.63,-576.84C751.51,-573.09 772.04,-569.08 791,-565.51 1004.84,-525.22 1061.27,-529.74 1273,-479.51 1283.1,-477.12 1293.78,-474.22 1304.01,-471.27"/>
<polygon fill="black" stroke="black" points="1305.05,-474.61 1313.65,-468.43 1303.07,-467.89 1305.05,-474.61"/>
</g>
<!-- AbelianGroup_ab_biprod_inl -->
<g id="node13" class="node">
<title>AbelianGroup_ab_biprod_inl</title>
<g id="a_node13"><a xlink:href="AbelianGroup.html#ab_biprod_inl" xlink:title="ab_biprod_inl">
<ellipse fill="#f070d1" stroke="black" cx="819" cy="-453.51" rx="72.59" ry="18"/>
<text text-anchor="middle" x="819" y="-449.81" font-family="Times,serif" font-size="14.00">ab_biprod_inl</text>
</a>
</g>
</g>
<!-- AbelianGroup_ab_biprod_rec_inl_beta&#45;&gt;AbelianGroup_ab_biprod_inl -->
<g id="edge12" class="edge">
<title>AbelianGroup_ab_biprod_rec_inl_beta&#45;&gt;AbelianGroup_ab_biprod_inl</title>
<path fill="none" stroke="black" d="M684.19,-573.56C711.43,-549.51 761.41,-505.37 792.27,-478.12"/>
<polygon fill="black" stroke="black" points="794.87,-480.49 800.05,-471.25 790.24,-475.24 794.87,-480.49"/>
</g>
<!-- AbelianGroup_ab_biprod_rec_inl_beta&#45;&gt;AbelianGroup_is01cat_AbGroup -->
<g id="edge13" class="edge">
<title>AbelianGroup_ab_biprod_rec_inl_beta&#45;&gt;AbelianGroup_is01cat_AbGroup</title>
<path fill="none" stroke="black" d="M661.71,-573.29C657.29,-550.19 649.41,-508.94 644.19,-481.65"/>
<polygon fill="black" stroke="black" points="647.58,-480.76 642.27,-471.6 640.71,-482.07 647.58,-480.76"/>
</g>
<!-- AbelianGroup_ab_biprod_rec_beta_ -->
<g id="node7" class="node">
<title>AbelianGroup_ab_biprod_rec_beta_</title>
<g id="a_node7"><a xlink:href="AbelianGroup.html#ab_biprod_rec_beta'" xlink:title="ab_biprod_rec_beta&#39;">
<ellipse fill="#f070d1" stroke="black" cx="1157" cy="-591.51" rx="102.88" ry="18"/>
<text text-anchor="middle" x="1157" y="-587.81" font-family="Times,serif" font-size="14.00">ab_biprod_rec_beta&#39;</text>
</a>
</g>
</g>
<!-- AbelianGroup_ab_biprod_rec_beta&#45;&gt;AbelianGroup_ab_biprod_rec_beta_ -->
<g id="edge14" class="edge">
<title>AbelianGroup_ab_biprod_rec_beta&#45;&gt;AbelianGroup_ab_biprod_rec_beta_</title>
<path fill="none" stroke="black" d="M1024.82,-710.69C1051.38,-686.94 1100,-643.47 1130.29,-616.39"/>
<polygon fill="black" stroke="black" points="1132.82,-618.82 1137.94,-609.55 1128.16,-613.6 1132.82,-618.82"/>
</g>
<!-- AbelianGroup_ab_biprod_rec_beta_&#45;&gt;AbelianGroup_ab_biprod_rec -->
<g id="edge15" class="edge">
<title>AbelianGroup_ab_biprod_rec_beta_&#45;&gt;AbelianGroup_ab_biprod_rec</title>
<path fill="none" stroke="black" d="M1181.52,-573.83C1217.58,-549.32 1284.92,-503.52 1324.88,-476.35"/>
<polygon fill="black" stroke="black" points="1326.91,-479.2 1333.21,-470.69 1322.97,-473.42 1326.91,-479.2"/>
</g>
<!-- AbelianGroup_ab_biprod_rec_beta_&#45;&gt;AbelianGroup_ab_biprod_inr -->
<g id="edge16" class="edge">
<title>AbelianGroup_ab_biprod_rec_beta_&#45;&gt;AbelianGroup_ab_biprod_inr</title>
<path fill="none" stroke="black" d="M1161.18,-573.29C1166.78,-550.19 1176.79,-508.94 1183.41,-481.65"/>
<polygon fill="black" stroke="black" points="1186.9,-482.14 1185.85,-471.6 1180.1,-480.49 1186.9,-482.14"/>
</g>
<!-- AbelianGroup_ab_biprod_rec_beta_&#45;&gt;AbelianGroup_ab_biprod_inl -->
<g id="edge17" class="edge">
<title>AbelianGroup_ab_biprod_rec_beta_&#45;&gt;AbelianGroup_ab_biprod_inl</title>
<path fill="none" stroke="black" d="M1117.9,-574.78C1055.04,-549.49 931.82,-499.9 864.89,-472.98"/>
<polygon fill="black" stroke="black" points="866.03,-469.66 855.44,-469.17 863.41,-476.15 866.03,-469.66"/>
</g>
<!-- AbelianGroup_ab_biprod_rec_beta_&#45;&gt;AbelianGroup_is01cat_AbGroup -->
<g id="edge18" class="edge">
<title>AbelianGroup_ab_biprod_rec_beta_&#45;&gt;AbelianGroup_is01cat_AbGroup</title>
<path fill="none" stroke="black" d="M1102.54,-576.21C1005.51,-550.74 803.31,-497.65 701.06,-470.8"/>
<polygon fill="black" stroke="black" points="701.75,-467.37 691.19,-468.21 699.97,-474.14 701.75,-467.37"/>
</g>
<!-- AbelianGroup_ab_biprod_rec_uncurried&#45;&gt;AbelianGroup_ab_biprod_rec -->
<g id="edge19" class="edge">
<title>AbelianGroup_ab_biprod_rec_uncurried&#45;&gt;AbelianGroup_ab_biprod_rec</title>
<path fill="none" stroke="black" d="M1317.69,-713.35C1425.44,-690.15 1625.9,-643.96 1646,-617.51 1659.99,-599.11 1659.09,-584.56 1646,-565.51 1632.06,-545.23 1490.12,-497.14 1410.48,-471.43"/>
<polygon fill="black" stroke="black" points="1411.21,-467.98 1400.62,-468.25 1409.07,-474.65 1411.21,-467.98"/>
</g>
<!-- AbelianGroup_ab_biprod_pr2 -->
<g id="node9" class="node">
<title>AbelianGroup_ab_biprod_pr2</title>
<g id="a_node9"><a xlink:href="AbelianGroup.html#ab_biprod_pr2" xlink:title="ab_biprod_pr2">
<ellipse fill="#f070d1" stroke="black" cx="1363" cy="-591.51" rx="77.2" ry="18"/>
<ellipse fill="none" stroke="black" cx="1363" cy="-591.51" rx="81.19" ry="22"/>
<ellipse fill="none" stroke="black" cx="1363" cy="-591.51" rx="85.19" ry="26"/>
<text text-anchor="middle" x="1363" y="-587.81" font-family="Times,serif" font-size="14.00">ab_biprod_pr2</text>
</a>
</g>
</g>
<!-- AbelianGroup_ab_biprod_pr2&#45;&gt;AbelianGroup_ab_biprod_rec -->
<g id="edge20" class="edge">
<title>AbelianGroup_ab_biprod_pr2&#45;&gt;AbelianGroup_ab_biprod_rec</title>
<path fill="none" stroke="black" d="M1361.89,-565.25C1360.84,-541.56 1359.28,-506.24 1358.21,-481.89"/>
<polygon fill="black" stroke="black" points="1361.7,-481.71 1357.77,-471.87 1354.71,-482.01 1361.7,-481.71"/>
</g>
<!-- AbelianGroup_ab_biprod_pr1 -->
<g id="node10" class="node">
<title>AbelianGroup_ab_biprod_pr1</title>
<g id="a_node10"><a xlink:href="AbelianGroup.html#ab_biprod_pr1" xlink:title="ab_biprod_pr1">
<ellipse fill="#f070d1" stroke="black" cx="1552" cy="-591.51" rx="77.2" ry="18"/>
<ellipse fill="none" stroke="black" cx="1552" cy="-591.51" rx="81.19" ry="22"/>
<ellipse fill="none" stroke="black" cx="1552" cy="-591.51" rx="85.19" ry="26"/>
<text text-anchor="middle" x="1552" y="-587.81" font-family="Times,serif" font-size="14.00">ab_biprod_pr1</text>
</a>
</g>
</g>
<!-- AbelianGroup_ab_biprod_pr1&#45;&gt;AbelianGroup_ab_biprod_rec -->
<g id="edge21" class="edge">
<title>AbelianGroup_ab_biprod_pr1&#45;&gt;AbelianGroup_ab_biprod_rec</title>
<path fill="none" stroke="black" d="M1518.92,-567.44C1482.56,-542.08 1424.56,-501.63 1388.74,-476.65"/>
<polygon fill="black" stroke="black" points="1390.34,-473.5 1380.14,-470.65 1386.34,-479.24 1390.34,-473.5"/>
</g>
<!-- AbelianGroup_ab_biprod_rec&#45;&gt;AbelianGroup_ab_biprod -->
<g id="edge22" class="edge">
<title>AbelianGroup_ab_biprod_rec&#45;&gt;AbelianGroup_ab_biprod</title>
<path fill="none" stroke="black" d="M1334.56,-436.11C1301.2,-411.71 1238.44,-365.82 1201.11,-338.53"/>
<polygon fill="black" stroke="black" points="1202.79,-335.42 1192.65,-332.34 1198.66,-341.07 1202.79,-335.42"/>
</g>
<!-- AbelianGroup_ab_biprod_rec&#45;&gt;AbelianGroup_isgraph_abgroup -->
<g id="edge23" class="edge">
<title>AbelianGroup_ab_biprod_rec&#45;&gt;AbelianGroup_isgraph_abgroup</title>
<path fill="none" stroke="black" d="M1319.21,-437.83C1255.4,-413.03 1126.35,-362.89 1055.79,-335.47"/>
<polygon fill="black" stroke="black" points="1056.82,-332.11 1046.23,-331.76 1054.29,-338.64 1056.82,-332.11"/>
</g>
<!-- AbelianGroup_ab_biprod_inr&#45;&gt;AbelianGroup_ab_biprod -->
<g id="edge24" class="edge">
<title>AbelianGroup_ab_biprod_inr&#45;&gt;AbelianGroup_ab_biprod</title>
<path fill="none" stroke="black" d="M1187.59,-435.29C1184.37,-412.19 1178.6,-370.94 1174.79,-343.65"/>
<polygon fill="black" stroke="black" points="1178.24,-343.01 1173.39,-333.6 1171.3,-343.98 1178.24,-343.01"/>
</g>
<!-- AbelianGroup_ab_biprod_inr&#45;&gt;AbelianGroup_isgraph_abgroup -->
<g id="edge25" class="edge">
<title>AbelianGroup_ab_biprod_inr&#45;&gt;AbelianGroup_isgraph_abgroup</title>
<path fill="none" stroke="black" d="M1167.93,-436.11C1135.36,-411.91 1074.34,-366.56 1037.52,-339.19"/>
<polygon fill="black" stroke="black" points="1039.27,-336.13 1029.15,-332.97 1035.09,-341.75 1039.27,-336.13"/>
</g>
<!-- AbelianGroup_ab_biprod_inl&#45;&gt;AbelianGroup_ab_biprod -->
<g id="edge26" class="edge">
<title>AbelianGroup_ab_biprod_inl&#45;&gt;AbelianGroup_ab_biprod</title>
<path fill="none" stroke="black" d="M856.67,-437.96C922.31,-412.6 1057.29,-360.44 1127.07,-333.48"/>
<polygon fill="black" stroke="black" points="1128.41,-336.72 1136.47,-329.85 1125.88,-330.19 1128.41,-336.72"/>
</g>
<!-- AbelianGroup_ab_biprod_inl&#45;&gt;AbelianGroup_isgraph_abgroup -->
<g id="edge27" class="edge">
<title>AbelianGroup_ab_biprod_inl&#45;&gt;AbelianGroup_isgraph_abgroup</title>
<path fill="none" stroke="black" d="M841.3,-436.38C874.76,-412.17 938.05,-366.39 975.99,-338.94"/>
<polygon fill="black" stroke="black" points="978.09,-341.75 984.14,-333.05 973.98,-336.07 978.09,-341.75"/>
</g>
<!-- AbelianGroup_ab_biprod&#45;&gt;AbelianGroup_group_abgroup -->
<g id="edge28" class="edge">
<title>AbelianGroup_ab_biprod&#45;&gt;AbelianGroup_group_abgroup</title>
<path fill="none" stroke="black" d="M1183.34,-297.69C1200.46,-274.34 1231.55,-231.94 1251.46,-204.79"/>
<polygon fill="black" stroke="black" points="1254.42,-206.68 1257.51,-196.55 1248.77,-202.54 1254.42,-206.68"/>
</g>
<!-- AbelianGroup_Build_AbGroup_ -->
<g id="node32" class="node">
<title>AbelianGroup_Build_AbGroup_</title>
<g id="a_node32"><a xlink:href="AbelianGroup.html#Build_AbGroup'" xlink:title="Build_AbGroup&#39;">
<ellipse fill="#f070d1" stroke="black" cx="1088" cy="-178.51" rx="83.39" ry="18"/>
<text text-anchor="middle" x="1088" y="-174.81" font-family="Times,serif" font-size="14.00">Build_AbGroup&#39;</text>
</a>
</g>
</g>
<!-- AbelianGroup_ab_biprod&#45;&gt;AbelianGroup_Build_AbGroup_ -->
<g id="edge29" class="edge">
<title>AbelianGroup_ab_biprod&#45;&gt;AbelianGroup_Build_AbGroup_</title>
<path fill="none" stroke="black" d="M1160.66,-297.69C1146.37,-274.44 1120.46,-232.31 1103.76,-205.14"/>
<polygon fill="black" stroke="black" points="1106.69,-203.23 1098.47,-196.55 1100.73,-206.9 1106.69,-203.23"/>
</g>
<!-- AbelianGroup_abgroup_first_iso -->
<g id="node15" class="node">
<title>AbelianGroup_abgroup_first_iso</title>
<g id="a_node15"><a xlink:href="AbelianGroup.html#abgroup_first_iso" xlink:title="abgroup_first_iso">
<ellipse fill="#f070d1" stroke="black" cx="1492" cy="-728.51" rx="90.2" ry="18"/>
<ellipse fill="none" stroke="black" cx="1492" cy="-728.51" rx="94.19" ry="22"/>
<ellipse fill="none" stroke="black" cx="1492" cy="-728.51" rx="98.18" ry="26"/>
<text text-anchor="middle" x="1492" y="-724.81" font-family="Times,serif" font-size="14.00">abgroup_first_iso</text>
</a>
</g>
</g>
<!-- AbelianGroup_abgroup_image -->
<g id="node16" class="node">
<title>AbelianGroup_abgroup_image</title>
<g id="a_node16"><a xlink:href="AbelianGroup.html#abgroup_image" xlink:title="abgroup_image">
<ellipse fill="#f070d1" stroke="black" cx="1532" cy="-453.51" rx="81.79" ry="18"/>
<text text-anchor="middle" x="1532" y="-449.81" font-family="Times,serif" font-size="14.00">abgroup_image</text>
</a>
</g>
</g>
<!-- AbelianGroup_abgroup_first_iso&#45;&gt;AbelianGroup_abgroup_image -->
<g id="edge30" class="edge">
<title>AbelianGroup_abgroup_first_iso&#45;&gt;AbelianGroup_abgroup_image</title>
<path fill="none" stroke="black" d="M1549.01,-707.31C1588.24,-690.07 1637.39,-661.06 1661,-617.51 1691.37,-561.51 1618.53,-505.24 1570.37,-475.7"/>
<polygon fill="black" stroke="black" points="1572.07,-472.64 1561.69,-470.5 1568.47,-478.64 1572.07,-472.64"/>
</g>
<!-- AbelianGroup_QuotientAbGroup -->
<g id="node27" class="node">
<title>AbelianGroup_QuotientAbGroup</title>
<g id="a_node27"><a xlink:href="AbelianGroup.html#QuotientAbGroup" xlink:title="QuotientAbGroup">
<ellipse fill="#f070d1" stroke="black" cx="1787" cy="-591.51" rx="92.08" ry="18"/>
<text text-anchor="middle" x="1787" y="-587.81" font-family="Times,serif" font-size="14.00">QuotientAbGroup</text>
</a>
</g>
</g>
<!-- AbelianGroup_abgroup_first_iso&#45;&gt;AbelianGroup_QuotientAbGroup -->
<g id="edge31" class="edge">
<title>AbelianGroup_abgroup_first_iso&#45;&gt;AbelianGroup_QuotientAbGroup</title>
<path fill="none" stroke="black" d="M1539.72,-705.67C1595.87,-679.98 1688.34,-637.66 1742.88,-612.7"/>
<polygon fill="black" stroke="black" points="1744.64,-615.75 1752.27,-608.4 1741.72,-609.38 1744.64,-615.75"/>
</g>
<!-- AbelianGroup_abgroup_image&#45;&gt;AbelianGroup_isgraph_abgroup -->
<g id="edge32" class="edge">
<title>AbelianGroup_abgroup_image&#45;&gt;AbelianGroup_isgraph_abgroup</title>
<path fill="none" stroke="black" d="M1483.4,-438.99C1469.7,-435.22 1454.78,-431.16 1441,-427.51 1422.88,-422.7 1185.7,-362.13 1069.84,-332.55"/>
<polygon fill="black" stroke="black" points="1070.58,-329.13 1060.03,-330.05 1068.85,-335.91 1070.58,-329.13"/>
</g>
<!-- AbelianGroup_isabgroup_subgroup -->
<g id="node30" class="node">
<title>AbelianGroup_isabgroup_subgroup</title>
<g id="a_node30"><a xlink:href="AbelianGroup.html#isabgroup_subgroup" xlink:title="isabgroup_subgroup">
<ellipse fill="#f070d1" stroke="black" cx="1351" cy="-315.51" rx="105.08" ry="18"/>
<text text-anchor="middle" x="1351" y="-311.81" font-family="Times,serif" font-size="14.00">isabgroup_subgroup</text>
</a>
</g>
</g>
<!-- AbelianGroup_abgroup_image&#45;&gt;AbelianGroup_isabgroup_subgroup -->
<g id="edge33" class="edge">
<title>AbelianGroup_abgroup_image&#45;&gt;AbelianGroup_isabgroup_subgroup</title>
<path fill="none" stroke="black" d="M1510.17,-436.11C1478.05,-411.97 1417.93,-366.8 1381.48,-339.41"/>
<polygon fill="black" stroke="black" points="1383.29,-336.4 1373.19,-333.19 1379.09,-341.99 1383.29,-336.4"/>
</g>
<!-- AbelianGroup_Build_AbGroup -->
<g id="node42" class="node">
<title>AbelianGroup_Build_AbGroup</title>
<g id="a_node42"><a xlink:href="AbelianGroup.html#Build_AbGroup" xlink:title="Build_AbGroup">
<ellipse fill="#7faaff" stroke="black" cx="1682" cy="-53.51" rx="80.69" ry="18"/>
<text text-anchor="middle" x="1682" y="-49.81" font-family="Times,serif" font-size="14.00">Build_AbGroup</text>
</a>
</g>
</g>
<!-- AbelianGroup_abgroup_image&#45;&gt;AbelianGroup_Build_AbGroup -->
<g id="edge34" class="edge">
<title>AbelianGroup_abgroup_image&#45;&gt;AbelianGroup_Build_AbGroup</title>
<path fill="none" stroke="black" d="M1518.56,-435.72C1495.18,-404.33 1452.49,-335.78 1485,-289.51 1549.1,-198.3 1656.9,-295.73 1721,-204.51 1747.61,-166.64 1720.85,-111.94 1700.43,-80.12"/>
<polygon fill="black" stroke="black" points="1703.08,-77.79 1694.62,-71.41 1697.26,-81.67 1703.08,-77.79"/>
</g>
<!-- AbelianGroup_ispointedcat_abgroup -->
<g id="node17" class="node">
<title>AbelianGroup_ispointedcat_abgroup</title>
<g id="a_node17"><a xlink:href="AbelianGroup.html#ispointedcat_abgroup" xlink:title="ispointedcat_abgroup">
<ellipse fill="#f070d1" stroke="black" cx="643" cy="-728.51" rx="110.48" ry="18"/>
<ellipse fill="none" stroke="black" cx="643" cy="-728.51" rx="114.48" ry="22"/>
<ellipse fill="none" stroke="black" cx="643" cy="-728.51" rx="118.48" ry="26"/>
<text text-anchor="middle" x="643" y="-724.81" font-family="Times,serif" font-size="14.00">ispointedcat_abgroup</text>
</a>
</g>
</g>
<!-- AbelianGroup_abgroup_trivial -->
<g id="node18" class="node">
<title>AbelianGroup_abgroup_trivial</title>
<g id="a_node18"><a xlink:href="AbelianGroup.html#abgroup_trivial" xlink:title="abgroup_trivial">
<ellipse fill="#f070d1" stroke="black" cx="560" cy="-315.51" rx="81.49" ry="18"/>
<text text-anchor="middle" x="560" y="-311.81" font-family="Times,serif" font-size="14.00">abgroup_trivial</text>
</a>
</g>
</g>
<!-- AbelianGroup_ispointedcat_abgroup&#45;&gt;AbelianGroup_abgroup_trivial -->
<g id="edge35" class="edge">
<title>AbelianGroup_ispointedcat_abgroup&#45;&gt;AbelianGroup_abgroup_trivial</title>
<path fill="none" stroke="black" d="M609.81,-703.51C585.35,-683.61 553.99,-652.91 540,-617.51 502.4,-522.33 533.85,-397.08 550.85,-343.12"/>
<polygon fill="black" stroke="black" points="554.18,-344.19 553.93,-333.6 547.52,-342.04 554.18,-344.19"/>
</g>
<!-- AbelianGroup_is1cat_abgroup -->
<g id="node21" class="node">
<title>AbelianGroup_is1cat_abgroup</title>
<g id="a_node21"><a xlink:href="AbelianGroup.html#is1cat_abgroup" xlink:title="is1cat_abgroup">
<ellipse fill="#f070d1" stroke="black" cx="430" cy="-591.51" rx="81.49" ry="18"/>
<text text-anchor="middle" x="430" y="-587.81" font-family="Times,serif" font-size="14.00">is1cat_abgroup</text>
</a>
</g>
</g>
<!-- AbelianGroup_ispointedcat_abgroup&#45;&gt;AbelianGroup_is1cat_abgroup -->
<g id="edge36" class="edge">
<title>AbelianGroup_ispointedcat_abgroup&#45;&gt;AbelianGroup_is1cat_abgroup</title>
<path fill="none" stroke="black" d="M605.41,-703.69C565.5,-678.39 502.95,-638.75 464.33,-614.27"/>
<polygon fill="black" stroke="black" points="465.84,-611.08 455.52,-608.69 462.09,-617 465.84,-611.08"/>
</g>
<!-- AbelianGroup_abgroup_trivial&#45;&gt;AbelianGroup_Build_AbGroup_ -->
<g id="edge37" class="edge">
<title>AbelianGroup_abgroup_trivial&#45;&gt;AbelianGroup_Build_AbGroup_</title>
<path fill="none" stroke="black" d="M612.09,-301.69C693.94,-281.48 857.61,-240.77 996,-204.51 1006.66,-201.72 1018.01,-198.68 1028.96,-195.73"/>
<polygon fill="black" stroke="black" points="1030.13,-199.03 1038.87,-193.04 1028.3,-192.28 1030.13,-199.03"/>
</g>
<!-- AbelianGroup_hasequivs_abgroup -->
<g id="node19" class="node">
<title>AbelianGroup_hasequivs_abgroup</title>
<g id="a_node19"><a xlink:href="AbelianGroup.html#hasequivs_abgroup" xlink:title="hasequivs_abgroup">
<ellipse fill="#f070d1" stroke="black" cx="159" cy="-728.51" rx="100.18" ry="18"/>
<ellipse fill="none" stroke="black" cx="159" cy="-728.51" rx="104.18" ry="22"/>
<ellipse fill="none" stroke="black" cx="159" cy="-728.51" rx="108.18" ry="26"/>
<text text-anchor="middle" x="159" y="-724.81" font-family="Times,serif" font-size="14.00">hasequivs_abgroup</text>
</a>
</g>
</g>
<!-- AbelianGroup_hasequivs_abgroup&#45;&gt;AbelianGroup_is1cat_abgroup -->
<g id="edge38" class="edge">
<title>AbelianGroup_hasequivs_abgroup&#45;&gt;AbelianGroup_is1cat_abgroup</title>
<path fill="none" stroke="black" d="M204.67,-704.76C256.39,-679 339.9,-637.39 389.42,-612.72"/>
<polygon fill="black" stroke="black" points="391.17,-615.77 398.56,-608.17 388.05,-609.5 391.17,-615.77"/>
</g>
<!-- AbelianGroup_hasmorext_abgroup -->
<g id="node20" class="node">
<title>AbelianGroup_hasmorext_abgroup</title>
<g id="a_node20"><a xlink:href="AbelianGroup.html#hasmorext_abgroup" xlink:title="hasmorext_abgroup">
<ellipse fill="#f070d1" stroke="black" cx="396" cy="-728.51" rx="102.87" ry="18"/>
<ellipse fill="none" stroke="black" cx="396" cy="-728.51" rx="106.88" ry="22"/>
<ellipse fill="none" stroke="black" cx="396" cy="-728.51" rx="110.88" ry="26"/>
<text text-anchor="middle" x="396" y="-724.81" font-family="Times,serif" font-size="14.00">hasmorext_abgroup</text>
</a>
</g>
</g>
<!-- AbelianGroup_hasmorext_abgroup&#45;&gt;AbelianGroup_is1cat_abgroup -->
<g id="edge39" class="edge">
<title>AbelianGroup_hasmorext_abgroup&#45;&gt;AbelianGroup_is1cat_abgroup</title>
<path fill="none" stroke="black" d="M402.32,-702.43C408.24,-678.92 417.07,-643.86 423.16,-619.68"/>
<polygon fill="black" stroke="black" points="426.61,-620.29 425.66,-609.74 419.82,-618.58 426.61,-620.29"/>
</g>
<!-- AbelianGroup_is1cat_abgroup&#45;&gt;AbelianGroup_is01cat_AbGroup -->
<g id="edge40" class="edge">
<title>AbelianGroup_is1cat_abgroup&#45;&gt;AbelianGroup_is01cat_AbGroup</title>
<path fill="none" stroke="black" d="M455.21,-574.11C492.71,-549.7 563.27,-503.79 605.21,-476.5"/>
<polygon fill="black" stroke="black" points="607.23,-479.36 613.7,-470.97 603.41,-473.49 607.23,-479.36"/>
</g>
<!-- AbelianGroup_is0gpd_GroupHomomorphism -->
<g id="node22" class="node">
<title>AbelianGroup_is0gpd_GroupHomomorphism</title>
<g id="a_node22"><a xlink:href="AbelianGroup.html#is0gpd_GroupHomomorphism" xlink:title="is0gpd_GroupHomomorphism">
<ellipse fill="#f070d1" stroke="black" cx="173" cy="-591.51" rx="149.47" ry="18"/>
<ellipse fill="none" stroke="black" cx="173" cy="-591.51" rx="153.47" ry="22"/>
<ellipse fill="none" stroke="black" cx="173" cy="-591.51" rx="157.47" ry="26"/>
<text text-anchor="middle" x="173" y="-587.81" font-family="Times,serif" font-size="14.00">is0gpd_GroupHomomorphism</text>
</a>
</g>
</g>
<!-- AbelianGroup_is01cat_GroupHomomorphism -->
<g id="node23" class="node">
<title>AbelianGroup_is01cat_GroupHomomorphism</title>
<g id="a_node23"><a xlink:href="AbelianGroup.html#is01cat_GroupHomomorphism" xlink:title="is01cat_GroupHomomorphism">
<ellipse fill="#f070d1" stroke="black" cx="266" cy="-453.51" rx="151.37" ry="18"/>
<text text-anchor="middle" x="266" y="-449.81" font-family="Times,serif" font-size="14.00">is01cat_GroupHomomorphism</text>
</a>
</g>
</g>
<!-- AbelianGroup_is0gpd_GroupHomomorphism&#45;&gt;AbelianGroup_is01cat_GroupHomomorphism -->
<g id="edge41" class="edge">
<title>AbelianGroup_is0gpd_GroupHomomorphism&#45;&gt;AbelianGroup_is01cat_GroupHomomorphism</title>
<path fill="none" stroke="black" d="M190.06,-565.57C206.68,-541.25 231.84,-504.46 248.59,-479.97"/>
<polygon fill="black" stroke="black" points="251.59,-481.78 254.35,-471.55 245.81,-477.83 251.59,-481.78"/>
</g>
<!-- AbelianGroup_is01cat_GroupHomomorphism&#45;&gt;AbelianGroup_isgraph_abgroup -->
<g id="edge42" class="edge">
<title>AbelianGroup_is01cat_GroupHomomorphism&#45;&gt;AbelianGroup_isgraph_abgroup</title>
<path fill="none" stroke="black" d="M357.21,-439.08C482.23,-420.15 713.6,-383.23 909,-341.51 921.13,-338.92 934.02,-335.86 946.34,-332.78"/>
<polygon fill="black" stroke="black" points="947.23,-336.16 956.06,-330.32 945.51,-329.38 947.23,-336.16"/>
</g>
<!-- AbelianGroup_is01cat_AbGroup&#45;&gt;AbelianGroup_isgraph_abgroup -->
<g id="edge43" class="edge">
<title>AbelianGroup_is01cat_AbGroup&#45;&gt;AbelianGroup_isgraph_abgroup</title>
<path fill="none" stroke="black" d="M679.79,-437.44C747.58,-412.38 883.23,-362.25 956.79,-335.07"/>
<polygon fill="black" stroke="black" points="958.14,-338.3 966.31,-331.55 955.72,-331.73 958.14,-338.3"/>
</g>
<!-- AbelianGroup_isgraph_abgroup&#45;&gt;AbelianGroup_group_abgroup -->
<g id="edge44" class="edge">
<title>AbelianGroup_isgraph_abgroup&#45;&gt;AbelianGroup_group_abgroup</title>
<path fill="none" stroke="black" d="M1037.94,-298.63C1085.72,-274.1 1177.43,-227.03 1230.12,-199.98"/>
<polygon fill="black" stroke="black" points="1231.88,-203.01 1239.17,-195.33 1228.68,-196.79 1231.88,-203.01"/>
</g>
<!-- AbelianGroup_equiv_quotient_abgroup_ump -->
<g id="node26" class="node">
<title>AbelianGroup_equiv_quotient_abgroup_ump</title>
<g id="a_node26"><a xlink:href="AbelianGroup.html#equiv_quotient_abgroup_ump" xlink:title="equiv_quotient_abgroup_ump">
<ellipse fill="#f070d1" stroke="black" cx="1764" cy="-728.51" rx="147.57" ry="18"/>
<ellipse fill="none" stroke="black" cx="1764" cy="-728.51" rx="151.57" ry="22"/>
<ellipse fill="none" stroke="black" cx="1764" cy="-728.51" rx="155.57" ry="26"/>
<text text-anchor="middle" x="1764" y="-724.81" font-family="Times,serif" font-size="14.00">equiv_quotient_abgroup_ump</text>
</a>
</g>
</g>
<!-- AbelianGroup_equiv_quotient_abgroup_ump&#45;&gt;AbelianGroup_QuotientAbGroup -->
<g id="edge45" class="edge">
<title>AbelianGroup_equiv_quotient_abgroup_ump&#45;&gt;AbelianGroup_QuotientAbGroup</title>
<path fill="none" stroke="black" d="M1768.27,-702.43C1772.28,-678.92 1778.25,-643.86 1782.37,-619.68"/>
<polygon fill="black" stroke="black" points="1785.83,-620.19 1784.06,-609.74 1778.93,-619.01 1785.83,-620.19"/>
</g>
<!-- AbelianGroup_isabgroup_quotient -->
<g id="node28" class="node">
<title>AbelianGroup_isabgroup_quotient</title>
<g id="a_node28"><a xlink:href="AbelianGroup.html#isabgroup_quotient" xlink:title="isabgroup_quotient">
<ellipse fill="#f070d1" stroke="black" cx="1760" cy="-453.51" rx="100.98" ry="18"/>
<text text-anchor="middle" x="1760" y="-449.81" font-family="Times,serif" font-size="14.00">isabgroup_quotient</text>
</a>
</g>
</g>
<!-- AbelianGroup_QuotientAbGroup&#45;&gt;AbelianGroup_isabgroup_quotient -->
<g id="edge46" class="edge">
<title>AbelianGroup_QuotientAbGroup&#45;&gt;AbelianGroup_isabgroup_quotient</title>
<path fill="none" stroke="black" d="M1783.58,-573.29C1779,-550.19 1770.81,-508.94 1765.39,-481.65"/>
<polygon fill="black" stroke="black" points="1768.77,-480.72 1763.39,-471.6 1761.91,-482.09 1768.77,-480.72"/>
</g>
<!-- AbelianGroup_QuotientAbGroup&#45;&gt;AbelianGroup_Build_AbGroup -->
<g id="edge47" class="edge">
<title>AbelianGroup_QuotientAbGroup&#45;&gt;AbelianGroup_Build_AbGroup</title>
<path fill="none" stroke="black" d="M1802.67,-573.76C1821.23,-553.1 1851.89,-516.19 1870,-479.51 1934.81,-348.28 1989.41,-274.81 1909,-152.51 1875.93,-102.22 1810.99,-77.62 1759.01,-65.66"/>
<polygon fill="black" stroke="black" points="1759.65,-62.21 1749.14,-63.5 1758.16,-69.05 1759.65,-62.21"/>
</g>
<!-- AbelianGroup_isnormal_ab_subgroup -->
<g id="node29" class="node">
<title>AbelianGroup_isnormal_ab_subgroup</title>
<g id="a_node29"><a xlink:href="AbelianGroup.html#isnormal_ab_subgroup" xlink:title="isnormal_ab_subgroup">
<ellipse fill="#f070d1" stroke="black" cx="1609" cy="-315.51" rx="115.08" ry="18"/>
<text text-anchor="middle" x="1609" y="-311.81" font-family="Times,serif" font-size="14.00">isnormal_ab_subgroup</text>
</a>
</g>
</g>
<!-- AbelianGroup_isabgroup_quotient&#45;&gt;AbelianGroup_isnormal_ab_subgroup -->
<g id="edge48" class="edge">
<title>AbelianGroup_isabgroup_quotient&#45;&gt;AbelianGroup_isnormal_ab_subgroup</title>
<path fill="none" stroke="black" d="M1741.18,-435.56C1714.62,-411.64 1666,-367.85 1635.71,-340.57"/>
<polygon fill="black" stroke="black" points="1637.83,-337.77 1628.06,-333.67 1633.14,-342.97 1637.83,-337.77"/>
</g>
<!-- AbelianGroup_isnormal_ab_subgroup&#45;&gt;AbelianGroup_group_abgroup -->
<g id="edge49" class="edge">
<title>AbelianGroup_isnormal_ab_subgroup&#45;&gt;AbelianGroup_group_abgroup</title>
<path fill="none" stroke="black" d="M1568.78,-298.49C1505.76,-273.4 1384.03,-224.92 1317.04,-198.25"/>
<polygon fill="black" stroke="black" points="1318.16,-194.92 1307.57,-194.47 1315.57,-201.42 1318.16,-194.92"/>
</g>
<!-- AbelianGroup_isabgroup_subgroup&#45;&gt;AbelianGroup_group_abgroup -->
<g id="edge50" class="edge">
<title>AbelianGroup_isabgroup_subgroup&#45;&gt;AbelianGroup_group_abgroup</title>
<path fill="none" stroke="black" d="M1340.74,-297.41C1326.8,-274.18 1301.77,-232.45 1285.52,-205.38"/>
<polygon fill="black" stroke="black" points="1288.32,-203.24 1280.18,-196.47 1282.32,-206.85 1288.32,-203.24"/>
</g>
<!-- AbelianGroup_AbGroup -->
<g id="node43" class="node">
<title>AbelianGroup_AbGroup</title>
<g id="a_node43"><a xlink:href="AbelianGroup.html#AbGroup" xlink:title="AbGroup">
<ellipse fill="#e2cdfa" stroke="black" cx="997" cy="-53.51" rx="51.99" ry="18"/>
<text text-anchor="middle" x="997" y="-49.81" font-family="Times,serif" font-size="14.00">AbGroup</text>
</a>
</g>
</g>
<!-- AbelianGroup_group_abgroup&#45;&gt;AbelianGroup_AbGroup -->
<g id="edge51" class="edge">
<title>AbelianGroup_group_abgroup&#45;&gt;AbelianGroup_AbGroup</title>
<path fill="none" stroke="black" d="M1235.7,-162.06C1185.04,-139.23 1090.43,-96.61 1036.79,-72.44"/>
<polygon fill="black" stroke="black" points="1038.15,-69.21 1027.59,-68.29 1035.27,-75.59 1038.15,-69.21"/>
</g>
<!-- AbelianGroup_Build_AbGroup_&#45;&gt;AbelianGroup_Build_AbGroup -->
<g id="edge52" class="edge">
<title>AbelianGroup_Build_AbGroup_&#45;&gt;AbelianGroup_Build_AbGroup</title>
<path fill="none" stroke="black" d="M1136.06,-163.74C1150.16,-159.9 1165.65,-155.86 1180,-152.51 1332.01,-117.07 1511.95,-84.09 1609.79,-66.91"/>
<polygon fill="black" stroke="black" points="1610.62,-70.32 1619.87,-65.14 1609.41,-63.42 1610.62,-70.32"/>
</g>
<!-- AbelianGroup_Build_AbGroup_&#45;&gt;AbelianGroup_AbGroup -->
<g id="edge53" class="edge">
<title>AbelianGroup_Build_AbGroup_&#45;&gt;AbelianGroup_AbGroup</title>
<path fill="none" stroke="black" d="M1075.54,-160.67C1060.02,-139.69 1033.37,-103.67 1015.47,-79.48"/>
<polygon fill="black" stroke="black" points="1018.07,-77.11 1009.31,-71.15 1012.45,-81.27 1018.07,-77.11"/>
</g>
<!-- AbelianGroup_abgroup_isabgroup -->
<g id="node33" class="node">
<title>AbelianGroup_abgroup_isabgroup</title>
<g id="a_node33"><a xlink:href="AbelianGroup.html#abgroup_isabgroup" xlink:title="abgroup_isabgroup">
<ellipse fill="#f070d1" stroke="black" cx="334" cy="-178.51" rx="100.18" ry="18"/>
<ellipse fill="none" stroke="black" cx="334" cy="-178.51" rx="104.18" ry="22"/>
<ellipse fill="none" stroke="black" cx="334" cy="-178.51" rx="108.18" ry="26"/>
<text text-anchor="middle" x="334" y="-174.81" font-family="Times,serif" font-size="14.00">abgroup_isabgroup</text>
</a>
</g>
</g>
<!-- AbelianGroup_abgroup_isabgroup&#45;&gt;AbelianGroup_AbGroup -->
<g id="edge54" class="edge">
<title>AbelianGroup_abgroup_isabgroup&#45;&gt;AbelianGroup_AbGroup</title>
<path fill="none" stroke="black" d="M411.97,-160.48C424.99,-157.74 438.36,-154.99 451,-152.51 629.66,-117.4 842.22,-80.7 941.17,-63.91"/>
<polygon fill="black" stroke="black" points="941.97,-67.32 951.24,-62.2 940.8,-60.42 941.97,-67.32"/>
</g>
<!-- AbelianGroup_abgroup_inverse -->
<g id="node34" class="node">
<title>AbelianGroup_abgroup_inverse</title>
<g id="a_node34"><a xlink:href="AbelianGroup.html#abgroup_inverse" xlink:title="abgroup_inverse">
<ellipse fill="#f070d1" stroke="black" cx="112" cy="-178.51" rx="87.96" ry="18"/>
<ellipse fill="none" stroke="black" cx="112" cy="-178.51" rx="91.97" ry="22"/>
<ellipse fill="none" stroke="black" cx="112" cy="-178.51" rx="95.99" ry="26"/>
<text text-anchor="middle" x="112" y="-174.81" font-family="Times,serif" font-size="14.00">abgroup_inverse</text>
</a>
</g>
</g>
<!-- AbelianGroup_abgroup_inverse&#45;&gt;AbelianGroup_AbGroup -->
<g id="edge55" class="edge">
<title>AbelianGroup_abgroup_inverse&#45;&gt;AbelianGroup_AbGroup</title>
<path fill="none" stroke="black" d="M180.12,-160.16C192.35,-157.36 205.02,-154.68 217,-152.51 483.4,-104.21 805.31,-71.92 936.73,-59.83"/>
<polygon fill="black" stroke="black" points="937.34,-63.29 946.98,-58.89 936.7,-56.32 937.34,-63.29"/>
</g>
<!-- AbelianGroup_abgroup_unit -->
<g id="node35" class="node">
<title>AbelianGroup_abgroup_unit</title>
<g id="a_node35"><a xlink:href="AbelianGroup.html#abgroup_unit" xlink:title="abgroup_unit">
<ellipse fill="#f070d1" stroke="black" cx="907" cy="-178.51" rx="72.27" ry="18"/>
<ellipse fill="none" stroke="black" cx="907" cy="-178.51" rx="76.28" ry="22"/>
<ellipse fill="none" stroke="black" cx="907" cy="-178.51" rx="80.29" ry="26"/>
<text text-anchor="middle" x="907" y="-174.81" font-family="Times,serif" font-size="14.00">abgroup_unit</text>
</a>
</g>
</g>
<!-- AbelianGroup_abgroup_unit&#45;&gt;AbelianGroup_AbGroup -->
<g id="edge56" class="edge">
<title>AbelianGroup_abgroup_unit&#45;&gt;AbelianGroup_AbGroup</title>
<path fill="none" stroke="black" d="M925,-152.92C940.6,-131.6 963.07,-100.89 978.74,-79.46"/>
<polygon fill="black" stroke="black" points="981.72,-81.32 984.8,-71.19 976.07,-77.19 981.72,-81.32"/>
</g>
<!-- AbelianGroup_abgroup_sgop -->
<g id="node36" class="node">
<title>AbelianGroup_abgroup_sgop</title>
<g id="a_node36"><a xlink:href="AbelianGroup.html#abgroup_sgop" xlink:title="abgroup_sgop">
<ellipse fill="#f070d1" stroke="black" cx="725" cy="-178.51" rx="75.3" ry="18"/>
<ellipse fill="none" stroke="black" cx="725" cy="-178.51" rx="79.29" ry="22"/>
<ellipse fill="none" stroke="black" cx="725" cy="-178.51" rx="83.29" ry="26"/>
<text text-anchor="middle" x="725" y="-174.81" font-family="Times,serif" font-size="14.00">abgroup_sgop</text>
</a>
</g>
</g>
<!-- AbelianGroup_abgroup_sgop&#45;&gt;AbelianGroup_AbGroup -->
<g id="edge57" class="edge">
<title>AbelianGroup_abgroup_sgop&#45;&gt;AbelianGroup_AbGroup</title>
<path fill="none" stroke="black" d="M770.83,-156.78C823.18,-133.11 907.95,-94.78 957.49,-72.38"/>
<polygon fill="black" stroke="black" points="958.94,-75.56 966.61,-68.25 956.06,-69.18 958.94,-75.56"/>
</g>
<!-- AbelianGroup_abgroup_type -->
<g id="node37" class="node">
<title>AbelianGroup_abgroup_type</title>
<g id="a_node37"><a xlink:href="AbelianGroup.html#abgroup_type" xlink:title="abgroup_type">
<ellipse fill="#f070d1" stroke="black" cx="542" cy="-178.51" rx="74.18" ry="18"/>
<ellipse fill="none" stroke="black" cx="542" cy="-178.51" rx="78.18" ry="22"/>
<ellipse fill="none" stroke="black" cx="542" cy="-178.51" rx="82.19" ry="26"/>
<text text-anchor="middle" x="542" y="-174.81" font-family="Times,serif" font-size="14.00">abgroup_type</text>
</a>
</g>
</g>
<!-- AbelianGroup_abgroup_type&#45;&gt;AbelianGroup_AbGroup -->
<g id="edge58" class="edge">
<title>AbelianGroup_abgroup_type&#45;&gt;AbelianGroup_AbGroup</title>
<path fill="none" stroke="black" d="M602.69,-160.79C612.81,-158.02 623.2,-155.18 633,-152.51 745.26,-121.98 877.12,-86.6 947.24,-67.82"/>
<polygon fill="black" stroke="black" points="948.37,-71.14 957.12,-65.17 946.56,-64.38 948.37,-71.14"/>
</g>
<!-- AbelianGroup_AbGroup_sind -->
<g id="node38" class="node">
<title>AbelianGroup_AbGroup_sind</title>
<g id="a_node38"><a xlink:href="AbelianGroup.html#AbGroup_sind" xlink:title="AbGroup_sind">
<ellipse fill="#f070d1" stroke="black" cx="1453" cy="-178.51" rx="75.3" ry="18"/>
<ellipse fill="none" stroke="black" cx="1453" cy="-178.51" rx="79.29" ry="22"/>
<ellipse fill="none" stroke="black" cx="1453" cy="-178.51" rx="83.29" ry="26"/>
<text text-anchor="middle" x="1453" y="-174.81" font-family="Times,serif" font-size="14.00">AbGroup_sind</text>
</a>
</g>
</g>
<!-- AbelianGroup_AbGroup_sind&#45;&gt;AbelianGroup_Build_AbGroup -->
<g id="edge59" class="edge">
<title>AbelianGroup_AbGroup_sind&#45;&gt;AbelianGroup_Build_AbGroup</title>
<path fill="none" stroke="black" d="M1493.68,-155.66C1536.1,-132.88 1602.08,-97.44 1643.62,-75.12"/>
<polygon fill="black" stroke="black" points="1645.45,-78.11 1652.61,-70.3 1642.14,-71.95 1645.45,-78.11"/>
</g>
<!-- AbelianGroup_AbGroup_sind&#45;&gt;AbelianGroup_AbGroup -->
<g id="edge60" class="edge">
<title>AbelianGroup_AbGroup_sind&#45;&gt;AbelianGroup_AbGroup</title>
<path fill="none" stroke="black" d="M1391.5,-160.92C1300.16,-136.28 1130.43,-90.5 1046.55,-67.88"/>
<polygon fill="black" stroke="black" points="1047.33,-64.46 1036.76,-65.24 1045.5,-71.22 1047.33,-64.46"/>
</g>
<!-- AbelianGroup_AbGroup_rec -->
<g id="node39" class="node">
<title>AbelianGroup_AbGroup_rec</title>
<g id="a_node39"><a xlink:href="AbelianGroup.html#AbGroup_rec" xlink:title="AbGroup_rec">
<ellipse fill="#f070d1" stroke="black" cx="1821" cy="-315.51" rx="70.7" ry="18"/>
<ellipse fill="none" stroke="black" cx="1821" cy="-315.51" rx="74.7" ry="22"/>
<ellipse fill="none" stroke="black" cx="1821" cy="-315.51" rx="78.69" ry="26"/>
<text text-anchor="middle" x="1821" y="-311.81" font-family="Times,serif" font-size="14.00">AbGroup_rec</text>
</a>
</g>
</g>
<!-- AbelianGroup_AbGroup_rect -->
<g id="node41" class="node">
<title>AbelianGroup_AbGroup_rect</title>
<g id="a_node41"><a xlink:href="AbelianGroup.html#AbGroup_rect" xlink:title="AbGroup_rect">
<ellipse fill="#f070d1" stroke="black" cx="1825" cy="-178.51" rx="74.99" ry="18"/>
<text text-anchor="middle" x="1825" y="-174.81" font-family="Times,serif" font-size="14.00">AbGroup_rect</text>
</a>
</g>
</g>
<!-- AbelianGroup_AbGroup_rec&#45;&gt;AbelianGroup_AbGroup_rect -->
<g id="edge61" class="edge">
<title>AbelianGroup_AbGroup_rec&#45;&gt;AbelianGroup_AbGroup_rect</title>
<path fill="none" stroke="black" d="M1821.74,-289.43C1822.44,-266.03 1823.47,-231.17 1824.19,-207.01"/>
<polygon fill="black" stroke="black" points="1827.69,-206.84 1824.49,-196.74 1820.69,-206.63 1827.69,-206.84"/>
</g>
<!-- AbelianGroup_AbGroup_ind -->
<g id="node40" class="node">
<title>AbelianGroup_AbGroup_ind</title>
<g id="a_node40"><a xlink:href="AbelianGroup.html#AbGroup_ind" xlink:title="AbGroup_ind">
<ellipse fill="#7fffd4" stroke="black" cx="1633" cy="-178.51" rx="70.7" ry="18"/>
<ellipse fill="none" stroke="black" cx="1633" cy="-178.51" rx="74.7" ry="22"/>
<ellipse fill="none" stroke="black" cx="1633" cy="-178.51" rx="78.69" ry="26"/>
<text text-anchor="middle" x="1633" y="-174.81" font-family="Times,serif" font-size="14.00">AbGroup_ind</text>
</a>
</g>
</g>
<!-- AbelianGroup_AbGroup_ind&#45;&gt;AbelianGroup_Build_AbGroup -->
<g id="edge62" class="edge">
<title>AbelianGroup_AbGroup_ind&#45;&gt;AbelianGroup_Build_AbGroup</title>
<path fill="none" stroke="black" d="M1642.92,-152.62C1651.22,-131.77 1663.04,-102.1 1671.5,-80.86"/>
<polygon fill="black" stroke="black" points="1674.8,-82.05 1675.24,-71.47 1668.29,-79.46 1674.8,-82.05"/>
</g>
<!-- AbelianGroup_AbGroup_ind&#45;&gt;AbelianGroup_AbGroup -->
<g id="edge63" class="edge">
<title>AbelianGroup_AbGroup_ind&#45;&gt;AbelianGroup_AbGroup</title>
<path fill="none" stroke="black" d="M1575.94,-160.41C1565.68,-157.59 1555.06,-154.83 1545,-152.51 1367.46,-111.53 1154.22,-77.76 1054.14,-62.8"/>
<polygon fill="black" stroke="black" points="1054.64,-59.34 1044.24,-61.33 1053.61,-66.26 1054.64,-59.34"/>
</g>
<!-- AbelianGroup_AbGroup_rect&#45;&gt;AbelianGroup_Build_AbGroup -->
<g id="edge64" class="edge">
<title>AbelianGroup_AbGroup_rect&#45;&gt;AbelianGroup_Build_AbGroup</title>
<path fill="none" stroke="black" d="M1805.71,-160.92C1780.87,-139.56 1737.55,-102.29 1709.32,-78.01"/>
<polygon fill="black" stroke="black" points="1711.3,-75.1 1701.44,-71.23 1706.74,-80.4 1711.3,-75.1"/>
</g>
<!-- AbelianGroup_AbGroup_rect&#45;&gt;AbelianGroup_AbGroup -->
<g id="edge65" class="edge">
<title>AbelianGroup_AbGroup_rect&#45;&gt;AbelianGroup_AbGroup</title>
<path fill="none" stroke="black" d="M1776.54,-164.78C1759.11,-160.49 1739.25,-155.93 1721,-152.51 1476.05,-106.61 1180.63,-73.44 1056.49,-60.5"/>
<polygon fill="black" stroke="black" points="1056.74,-57 1046.44,-59.45 1056.02,-63.97 1056.74,-57"/>
</g>
</g>
</svg>
