<?xml version="1.0" encoding="UTF-8" standalone="no"?>
<!DOCTYPE svg PUBLIC "-//W3C//DTD SVG 1.1//EN"
 "http://www.w3.org/Graphics/SVG/1.1/DTD/svg11.dtd">
<!-- Generated by graphviz version 2.43.0 (0)
 -->
<!-- Title: HoTT_Types_Forall Pages: 1 -->
<svg width="2306pt" height="1157pt"
 viewBox="0.00 0.00 2306.00 1157.00" xmlns="http://www.w3.org/2000/svg" xmlns:xlink="http://www.w3.org/1999/xlink">
<g id="graph0" class="graph" transform="scale(1 1) rotate(0) translate(4 1153)">
<title>HoTT_Types_Forall</title>
<polygon fill="white" stroke="transparent" points="-4,4 -4,-1153 2302,-1153 2302,4 -4,4"/>
<g id="clust1" class="cluster">
<title>cluster_Forall</title>
<polygon fill="#ffffc3" stroke="black" points="8,-11.8 8,-1137.2 2290,-1137.2 2290,-11.8 8,-11.8"/>
<text text-anchor="middle" x="37" y="-1122" font-family="Times,serif" font-size="14.00">Forall</text>
</g>
<!-- Forall_equiv_flip -->
<g id="node1" class="node">
<title>Forall_equiv_flip</title>
<g id="a_node1"><a xlink:href="Forall.html#equiv_flip" xlink:title="equiv_flip">
<ellipse fill="#f070d1" stroke="black" cx="2219" cy="-1052.8" rx="55.46" ry="18"/>
<ellipse fill="none" stroke="black" cx="2219" cy="-1052.8" rx="59.48" ry="22"/>
<ellipse fill="none" stroke="black" cx="2219" cy="-1052.8" rx="63.49" ry="26"/>
<text text-anchor="middle" x="2219" y="-1049.1" font-family="Times,serif" font-size="14.00">equiv_flip</text>
</a>
</g>
</g>
<!-- Forall_isequiv_flip -->
<g id="node2" class="node">
<title>Forall_isequiv_flip</title>
<g id="a_node2"><a xlink:href="Forall.html#isequiv_flip" xlink:title="isequiv_flip">
<ellipse fill="#f070d1" stroke="black" cx="2219" cy="-923.8" rx="63.09" ry="18"/>
<text text-anchor="middle" x="2219" y="-920.1" font-family="Times,serif" font-size="14.00">isequiv_flip</text>
</a>
</g>
</g>
<!-- Forall_equiv_flip&#45;&gt;Forall_isequiv_flip -->
<g id="edge1" class="edge">
<title>Forall_equiv_flip&#45;&gt;Forall_isequiv_flip</title>
<path fill="none" stroke="black" d="M2219,-1026.71C2219,-1005.21 2219,-974.31 2219,-952.18"/>
<polygon fill="black" stroke="black" points="2222.5,-952.1 2219,-942.1 2215.5,-952.1 2222.5,-952.1"/>
</g>
<!-- Forall_flip -->
<g id="node3" class="node">
<title>Forall_flip</title>
<g id="a_node3"><a xlink:href="Forall.html#flip" xlink:title="flip">
<ellipse fill="#f070d1" stroke="black" cx="2219" cy="-793.8" rx="27" ry="18"/>
<text text-anchor="middle" x="2219" y="-790.1" font-family="Times,serif" font-size="14.00">flip</text>
</a>
</g>
</g>
<!-- Forall_isequiv_flip&#45;&gt;Forall_flip -->
<g id="edge2" class="edge">
<title>Forall_isequiv_flip&#45;&gt;Forall_flip</title>
<path fill="none" stroke="black" d="M2219,-905.54C2219,-884.16 2219,-847.49 2219,-822.24"/>
<polygon fill="black" stroke="black" points="2222.5,-822.2 2219,-812.2 2215.5,-822.2 2222.5,-822.2"/>
</g>
<!-- Forall_equiv_contr_forall -->
<g id="node4" class="node">
<title>Forall_equiv_contr_forall</title>
<g id="a_node4"><a xlink:href="Forall.html#equiv_contr_forall" xlink:title="equiv_contr_forall">
<ellipse fill="#f070d1" stroke="black" cx="2036" cy="-1052.8" rx="93.68" ry="18"/>
<ellipse fill="none" stroke="black" cx="2036" cy="-1052.8" rx="97.68" ry="22"/>
<ellipse fill="none" stroke="black" cx="2036" cy="-1052.8" rx="101.68" ry="26"/>
<text text-anchor="middle" x="2036" y="-1049.1" font-family="Times,serif" font-size="14.00">equiv_contr_forall</text>
</a>
</g>
</g>
<!-- Forall_istrunc_forall -->
<g id="node5" class="node">
<title>Forall_istrunc_forall</title>
<g id="a_node5"><a xlink:href="Forall.html#istrunc_forall" xlink:title="istrunc_forall">
<ellipse fill="#f070d1" stroke="black" cx="1905" cy="-663.8" rx="72.27" ry="18"/>
<ellipse fill="none" stroke="black" cx="1905" cy="-663.8" rx="76.28" ry="22"/>
<ellipse fill="none" stroke="black" cx="1905" cy="-663.8" rx="80.29" ry="26"/>
<text text-anchor="middle" x="1905" y="-660.1" font-family="Times,serif" font-size="14.00">istrunc_forall</text>
</a>
</g>
</g>
<!-- Forall_contr_forall -->
<g id="node6" class="node">
<title>Forall_contr_forall</title>
<g id="a_node6"><a xlink:href="Forall.html#contr_forall" xlink:title="contr_forall">
<ellipse fill="#f070d1" stroke="black" cx="1897" cy="-533.8" rx="63.89" ry="18"/>
<text text-anchor="middle" x="1897" y="-530.1" font-family="Times,serif" font-size="14.00">contr_forall</text>
</a>
</g>
</g>
<!-- Forall_istrunc_forall&#45;&gt;Forall_contr_forall -->
<g id="edge3" class="edge">
<title>Forall_istrunc_forall&#45;&gt;Forall_contr_forall</title>
<path fill="none" stroke="black" d="M1903.42,-637.51C1902.06,-615.72 1900.1,-584.34 1898.7,-562.01"/>
<polygon fill="black" stroke="black" points="1902.18,-561.62 1898.07,-551.86 1895.2,-562.06 1902.18,-561.62"/>
</g>
<!-- Forall_isequiv_path_forall -->
<g id="node39" class="node">
<title>Forall_isequiv_path_forall</title>
<g id="a_node39"><a xlink:href="Forall.html#isequiv_path_forall" xlink:title="isequiv_path_forall">
<ellipse fill="#f070d1" stroke="black" cx="1717" cy="-533.8" rx="98.28" ry="18"/>
<text text-anchor="middle" x="1717" y="-530.1" font-family="Times,serif" font-size="14.00">isequiv_path_forall</text>
</a>
</g>
</g>
<!-- Forall_istrunc_forall&#45;&gt;Forall_isequiv_path_forall -->
<g id="edge4" class="edge">
<title>Forall_istrunc_forall&#45;&gt;Forall_isequiv_path_forall</title>
<path fill="none" stroke="black" d="M1871.39,-639.92C1837.07,-616.55 1784.12,-580.5 1750.02,-557.28"/>
<polygon fill="black" stroke="black" points="1751.59,-554.11 1741.35,-551.38 1747.65,-559.9 1751.59,-554.11"/>
</g>
<!-- Forall_isequiv_path_forall11 -->
<g id="node7" class="node">
<title>Forall_isequiv_path_forall11</title>
<g id="a_node7"><a xlink:href="Forall.html#isequiv_path_forall11" xlink:title="isequiv_path_forall11">
<ellipse fill="#f070d1" stroke="black" cx="1799" cy="-1052.8" rx="109.69" ry="18"/>
<ellipse fill="none" stroke="black" cx="1799" cy="-1052.8" rx="113.69" ry="22"/>
<ellipse fill="none" stroke="black" cx="1799" cy="-1052.8" rx="117.68" ry="26"/>
<text text-anchor="middle" x="1799" y="-1049.1" font-family="Times,serif" font-size="14.00">isequiv_path_forall11</text>
</a>
</g>
</g>
<!-- Forall_path_forall11 -->
<g id="node8" class="node">
<title>Forall_path_forall11</title>
<g id="a_node8"><a xlink:href="Forall.html#path_forall11" xlink:title="path_forall11">
<ellipse fill="#f070d1" stroke="black" cx="1712" cy="-923.8" rx="72.29" ry="18"/>
<text text-anchor="middle" x="1712" y="-920.1" font-family="Times,serif" font-size="14.00">path_forall11</text>
</a>
</g>
</g>
<!-- Forall_isequiv_path_forall11&#45;&gt;Forall_path_forall11 -->
<g id="edge5" class="edge">
<title>Forall_isequiv_path_forall11&#45;&gt;Forall_path_forall11</title>
<path fill="none" stroke="black" d="M1782.02,-1027.01C1766.83,-1004.83 1744.66,-972.47 1729.35,-950.13"/>
<polygon fill="black" stroke="black" points="1732.19,-948.08 1723.65,-941.81 1726.42,-952.04 1732.19,-948.08"/>
</g>
<!-- Forall_equiv_path_forall11 -->
<g id="node9" class="node">
<title>Forall_equiv_path_forall11</title>
<g id="a_node9"><a xlink:href="Forall.html#equiv_path_forall11" xlink:title="equiv_path_forall11">
<ellipse fill="#f070d1" stroke="black" cx="1575" cy="-793.8" rx="102.08" ry="18"/>
<text text-anchor="middle" x="1575" y="-790.1" font-family="Times,serif" font-size="14.00">equiv_path_forall11</text>
</a>
</g>
</g>
<!-- Forall_path_forall11&#45;&gt;Forall_equiv_path_forall11 -->
<g id="edge6" class="edge">
<title>Forall_path_forall11&#45;&gt;Forall_equiv_path_forall11</title>
<path fill="none" stroke="black" d="M1694.37,-906.33C1670.56,-884.08 1627.96,-844.28 1600.62,-818.73"/>
<polygon fill="black" stroke="black" points="1602.69,-815.88 1593,-811.61 1597.91,-821 1602.69,-815.88"/>
</g>
<!-- Forall_equiv_functor_forall_id -->
<g id="node14" class="node">
<title>Forall_equiv_functor_forall_id</title>
<g id="a_node14"><a xlink:href="Forall.html#equiv_functor_forall_id" xlink:title="equiv_functor_forall_id">
<ellipse fill="#f070d1" stroke="black" cx="1492" cy="-663.8" rx="116.18" ry="18"/>
<text text-anchor="middle" x="1492" y="-660.1" font-family="Times,serif" font-size="14.00">equiv_functor_forall_id</text>
</a>
</g>
</g>
<!-- Forall_equiv_path_forall11&#45;&gt;Forall_equiv_functor_forall_id -->
<g id="edge7" class="edge">
<title>Forall_equiv_path_forall11&#45;&gt;Forall_equiv_functor_forall_id</title>
<path fill="none" stroke="black" d="M1563.98,-775.8C1549.78,-753.9 1524.97,-715.64 1508.51,-690.26"/>
<polygon fill="black" stroke="black" points="1511.44,-688.35 1503.07,-681.87 1505.57,-692.16 1511.44,-688.35"/>
</g>
<!-- Forall_equiv_path_forall -->
<g id="node38" class="node">
<title>Forall_equiv_path_forall</title>
<g id="a_node38"><a xlink:href="Forall.html#equiv_path_forall" xlink:title="equiv_path_forall">
<ellipse fill="#f070d1" stroke="black" cx="1717" cy="-663.8" rx="90.18" ry="18"/>
<text text-anchor="middle" x="1717" y="-660.1" font-family="Times,serif" font-size="14.00">equiv_path_forall</text>
</a>
</g>
</g>
<!-- Forall_equiv_path_forall11&#45;&gt;Forall_equiv_path_forall -->
<g id="edge8" class="edge">
<title>Forall_equiv_path_forall11&#45;&gt;Forall_equiv_path_forall</title>
<path fill="none" stroke="black" d="M1593.56,-776.07C1618.44,-753.64 1662.72,-713.73 1690.93,-688.3"/>
<polygon fill="black" stroke="black" points="1693.35,-690.83 1698.43,-681.54 1688.66,-685.63 1693.35,-690.83"/>
</g>
<!-- Forall_iff_functor_forall -->
<g id="node10" class="node">
<title>Forall_iff_functor_forall</title>
<g id="a_node10"><a xlink:href="Forall.html#iff_functor_forall" xlink:title="iff_functor_forall">
<ellipse fill="#f070d1" stroke="black" cx="1568" cy="-1052.8" rx="87.18" ry="18"/>
<ellipse fill="none" stroke="black" cx="1568" cy="-1052.8" rx="91.18" ry="22"/>
<ellipse fill="none" stroke="black" cx="1568" cy="-1052.8" rx="95.18" ry="26"/>
<text text-anchor="middle" x="1568" y="-1049.1" font-family="Times,serif" font-size="14.00">iff_functor_forall</text>
</a>
</g>
</g>
<!-- Forall_equiv_functor_forall_covariant_compose -->
<g id="node11" class="node">
<title>Forall_equiv_functor_forall_covariant_compose</title>
<g id="a_node11"><a xlink:href="Forall.html#equiv_functor_forall_covariant_compose" xlink:title="equiv_functor_forall_covariant_compose">
<ellipse fill="#f070d1" stroke="black" cx="1303" cy="-923.8" rx="195.76" ry="18"/>
<ellipse fill="none" stroke="black" cx="1303" cy="-923.8" rx="199.76" ry="22"/>
<ellipse fill="none" stroke="black" cx="1303" cy="-923.8" rx="203.77" ry="26"/>
<text text-anchor="middle" x="1303" y="-920.1" font-family="Times,serif" font-size="14.00">equiv_functor_forall_covariant_compose</text>
</a>
</g>
</g>
<!-- Forall_equiv_functor_forall_covariant -->
<g id="node12" class="node">
<title>Forall_equiv_functor_forall_covariant</title>
<g id="a_node12"><a xlink:href="Forall.html#equiv_functor_forall_covariant" xlink:title="equiv_functor_forall_covariant">
<ellipse fill="#f070d1" stroke="black" cx="1304" cy="-793.8" rx="150.57" ry="18"/>
<text text-anchor="middle" x="1304" y="-790.1" font-family="Times,serif" font-size="14.00">equiv_functor_forall_covariant</text>
</a>
</g>
</g>
<!-- Forall_equiv_functor_forall_covariant_compose&#45;&gt;Forall_equiv_functor_forall_covariant -->
<g id="edge9" class="edge">
<title>Forall_equiv_functor_forall_covariant_compose&#45;&gt;Forall_equiv_functor_forall_covariant</title>
<path fill="none" stroke="black" d="M1303.2,-897.51C1303.37,-875.72 1303.61,-844.34 1303.79,-822.01"/>
<polygon fill="black" stroke="black" points="1307.29,-821.89 1303.87,-811.86 1300.29,-821.83 1307.29,-821.89"/>
</g>
<!-- Forall_functor_forall_compose -->
<g id="node25" class="node">
<title>Forall_functor_forall_compose</title>
<g id="a_node25"><a xlink:href="Forall.html#functor_forall_compose" xlink:title="functor_forall_compose">
<ellipse fill="#f070d1" stroke="black" cx="876" cy="-415.8" rx="118.08" ry="18"/>
<text text-anchor="middle" x="876" y="-412.1" font-family="Times,serif" font-size="14.00">functor_forall_compose</text>
</a>
</g>
</g>
<!-- Forall_equiv_functor_forall_covariant_compose&#45;&gt;Forall_functor_forall_compose -->
<g id="edge10" class="edge">
<title>Forall_equiv_functor_forall_covariant_compose&#45;&gt;Forall_functor_forall_compose</title>
<path fill="none" stroke="black" d="M1151.36,-906.43C1041.62,-891.09 906.73,-863.81 872,-819.8 782.56,-706.46 839.91,-514 865.51,-443.6"/>
<polygon fill="black" stroke="black" points="868.83,-444.72 869.04,-434.13 862.27,-442.28 868.83,-444.72"/>
</g>
<!-- Forall_equiv_functor_forall_ -->
<g id="node15" class="node">
<title>Forall_equiv_functor_forall_</title>
<g id="a_node15"><a xlink:href="Forall.html#equiv_functor_forall'" xlink:title="equiv_functor_forall&#39;">
<ellipse fill="#f070d1" stroke="black" cx="1252" cy="-663.8" rx="105.08" ry="18"/>
<text text-anchor="middle" x="1252" y="-660.1" font-family="Times,serif" font-size="14.00">equiv_functor_forall&#39;</text>
</a>
</g>
</g>
<!-- Forall_equiv_functor_forall_covariant&#45;&gt;Forall_equiv_functor_forall_ -->
<g id="edge11" class="edge">
<title>Forall_equiv_functor_forall_covariant&#45;&gt;Forall_equiv_functor_forall_</title>
<path fill="none" stroke="black" d="M1297.09,-775.8C1288.31,-754.19 1273.06,-716.64 1262.75,-691.26"/>
<polygon fill="black" stroke="black" points="1265.94,-689.81 1258.93,-681.87 1259.45,-692.45 1265.94,-689.81"/>
</g>
<!-- Forall_equiv_functor_forall_pb -->
<g id="node13" class="node">
<title>Forall_equiv_functor_forall_pb</title>
<g id="a_node13"><a xlink:href="Forall.html#equiv_functor_forall_pb" xlink:title="equiv_functor_forall_pb">
<ellipse fill="#f070d1" stroke="black" cx="1008" cy="-793.8" rx="118.88" ry="18"/>
<ellipse fill="none" stroke="black" cx="1008" cy="-793.8" rx="122.88" ry="22"/>
<ellipse fill="none" stroke="black" cx="1008" cy="-793.8" rx="126.88" ry="26"/>
<text text-anchor="middle" x="1008" y="-790.1" font-family="Times,serif" font-size="14.00">equiv_functor_forall_pb</text>
</a>
</g>
</g>
<!-- Forall_equiv_functor_forall_pb&#45;&gt;Forall_equiv_functor_forall_ -->
<g id="edge12" class="edge">
<title>Forall_equiv_functor_forall_pb&#45;&gt;Forall_equiv_functor_forall_</title>
<path fill="none" stroke="black" d="M1052.75,-769.32C1098.35,-745.4 1168.4,-708.65 1212.15,-685.71"/>
<polygon fill="black" stroke="black" points="1213.83,-688.77 1221.06,-681.03 1210.58,-682.58 1213.83,-688.77"/>
</g>
<!-- Forall_equiv_functor_forall -->
<g id="node16" class="node">
<title>Forall_equiv_functor_forall</title>
<g id="a_node16"><a xlink:href="Forall.html#equiv_functor_forall" xlink:title="equiv_functor_forall">
<ellipse fill="#f070d1" stroke="black" cx="1372" cy="-533.8" rx="102.88" ry="18"/>
<text text-anchor="middle" x="1372" y="-530.1" font-family="Times,serif" font-size="14.00">equiv_functor_forall</text>
</a>
</g>
</g>
<!-- Forall_equiv_functor_forall_id&#45;&gt;Forall_equiv_functor_forall -->
<g id="edge13" class="edge">
<title>Forall_equiv_functor_forall_id&#45;&gt;Forall_equiv_functor_forall</title>
<path fill="none" stroke="black" d="M1476.06,-645.8C1455.26,-623.62 1418.72,-584.63 1394.94,-559.27"/>
<polygon fill="black" stroke="black" points="1397.39,-556.77 1388,-551.87 1392.29,-561.56 1397.39,-556.77"/>
</g>
<!-- Forall_equiv_functor_forall_&#45;&gt;Forall_equiv_functor_forall -->
<g id="edge14" class="edge">
<title>Forall_equiv_functor_forall_&#45;&gt;Forall_equiv_functor_forall</title>
<path fill="none" stroke="black" d="M1267.94,-645.8C1288.74,-623.62 1325.28,-584.63 1349.06,-559.27"/>
<polygon fill="black" stroke="black" points="1351.71,-561.56 1356,-551.87 1346.61,-556.77 1351.71,-561.56"/>
</g>
<!-- Forall_isequiv_functor_forall -->
<g id="node17" class="node">
<title>Forall_isequiv_functor_forall</title>
<g id="a_node17"><a xlink:href="Forall.html#isequiv_functor_forall" xlink:title="isequiv_functor_forall">
<ellipse fill="#f070d1" stroke="black" cx="1372" cy="-415.8" rx="110.48" ry="18"/>
<text text-anchor="middle" x="1372" y="-412.1" font-family="Times,serif" font-size="14.00">isequiv_functor_forall</text>
</a>
</g>
</g>
<!-- Forall_equiv_functor_forall&#45;&gt;Forall_isequiv_functor_forall -->
<g id="edge15" class="edge">
<title>Forall_equiv_functor_forall&#45;&gt;Forall_isequiv_functor_forall</title>
<path fill="none" stroke="black" d="M1372,-515.68C1372,-496.84 1372,-466.27 1372,-444.1"/>
<polygon fill="black" stroke="black" points="1375.5,-443.99 1372,-433.99 1368.5,-443.99 1375.5,-443.99"/>
</g>
<!-- Forall_isequiv_functor_forall_subproof0 -->
<g id="node18" class="node">
<title>Forall_isequiv_functor_forall_subproof0</title>
<g id="a_node18"><a xlink:href="Forall.html#isequiv_functor_forall_subproof0" xlink:title="isequiv_functor_forall_subproof0">
<ellipse fill="#f070d1" stroke="black" cx="1061" cy="-297.8" rx="161.67" ry="18"/>
<text text-anchor="middle" x="1061" y="-294.1" font-family="Times,serif" font-size="14.00">isequiv_functor_forall_subproof0</text>
</a>
</g>
</g>
<!-- Forall_isequiv_functor_forall&#45;&gt;Forall_isequiv_functor_forall_subproof0 -->
<g id="edge16" class="edge">
<title>Forall_isequiv_functor_forall&#45;&gt;Forall_isequiv_functor_forall_subproof0</title>
<path fill="none" stroke="black" d="M1329.73,-399.03C1273.85,-378.19 1175.34,-341.45 1114.38,-318.71"/>
<polygon fill="black" stroke="black" points="1115.52,-315.4 1104.93,-315.19 1113.08,-321.96 1115.52,-315.4"/>
</g>
<!-- Forall_isequiv_functor_forall_subproof -->
<g id="node19" class="node">
<title>Forall_isequiv_functor_forall_subproof</title>
<g id="a_node19"><a xlink:href="Forall.html#isequiv_functor_forall_subproof" xlink:title="isequiv_functor_forall_subproof">
<ellipse fill="#f070d1" stroke="black" cx="1815" cy="-297.8" rx="155.97" ry="18"/>
<text text-anchor="middle" x="1815" y="-294.1" font-family="Times,serif" font-size="14.00">isequiv_functor_forall_subproof</text>
</a>
</g>
</g>
<!-- Forall_isequiv_functor_forall&#45;&gt;Forall_isequiv_functor_forall_subproof -->
<g id="edge17" class="edge">
<title>Forall_isequiv_functor_forall&#45;&gt;Forall_isequiv_functor_forall_subproof</title>
<path fill="none" stroke="black" d="M1427.66,-400.23C1508.21,-379.13 1657.24,-340.11 1745.1,-317.1"/>
<polygon fill="black" stroke="black" points="1746.19,-320.44 1754.97,-314.52 1744.41,-313.66 1746.19,-320.44"/>
</g>
<!-- Forall_functor_forall -->
<g id="node27" class="node">
<title>Forall_functor_forall</title>
<g id="a_node27"><a xlink:href="Forall.html#functor_forall" xlink:title="functor_forall">
<ellipse fill="#f070d1" stroke="black" cx="1335" cy="-167.8" rx="73.39" ry="18"/>
<text text-anchor="middle" x="1335" y="-164.1" font-family="Times,serif" font-size="14.00">functor_forall</text>
</a>
</g>
</g>
<!-- Forall_isequiv_functor_forall_subproof0&#45;&gt;Forall_functor_forall -->
<g id="edge18" class="edge">
<title>Forall_isequiv_functor_forall_subproof0&#45;&gt;Forall_functor_forall</title>
<path fill="none" stroke="black" d="M1096.54,-280.2C1147.08,-256.59 1239.54,-213.4 1293.27,-188.29"/>
<polygon fill="black" stroke="black" points="1294.93,-191.38 1302.51,-183.98 1291.97,-185.04 1294.93,-191.38"/>
</g>
<!-- Forall_isequiv_functor_forall_subproof&#45;&gt;Forall_functor_forall -->
<g id="edge19" class="edge">
<title>Forall_isequiv_functor_forall_subproof&#45;&gt;Forall_functor_forall</title>
<path fill="none" stroke="black" d="M1756.14,-281.1C1663.39,-256.37 1484.35,-208.63 1392.47,-184.12"/>
<polygon fill="black" stroke="black" points="1393.34,-180.74 1382.78,-181.54 1391.54,-187.5 1393.34,-180.74"/>
</g>
<!-- Forall_functor_forall_equiv_pb_beta -->
<g id="node20" class="node">
<title>Forall_functor_forall_equiv_pb_beta</title>
<g id="a_node20"><a xlink:href="Forall.html#functor_forall_equiv_pb_beta" xlink:title="functor_forall_equiv_pb_beta">
<ellipse fill="#f070d1" stroke="black" cx="2130" cy="-533.8" rx="143.77" ry="18"/>
<ellipse fill="none" stroke="black" cx="2130" cy="-533.8" rx="147.77" ry="22"/>
<ellipse fill="none" stroke="black" cx="2130" cy="-533.8" rx="151.77" ry="26"/>
<text text-anchor="middle" x="2130" y="-530.1" font-family="Times,serif" font-size="14.00">functor_forall_equiv_pb_beta</text>
</a>
</g>
</g>
<!-- Forall_functor_forall_equiv_pb -->
<g id="node21" class="node">
<title>Forall_functor_forall_equiv_pb</title>
<g id="a_node21"><a xlink:href="Forall.html#functor_forall_equiv_pb" xlink:title="functor_forall_equiv_pb">
<ellipse fill="#f070d1" stroke="black" cx="2101" cy="-415.8" rx="118.88" ry="18"/>
<text text-anchor="middle" x="2101" y="-412.1" font-family="Times,serif" font-size="14.00">functor_forall_equiv_pb</text>
</a>
</g>
</g>
<!-- Forall_functor_forall_equiv_pb_beta&#45;&gt;Forall_functor_forall_equiv_pb -->
<g id="edge20" class="edge">
<title>Forall_functor_forall_equiv_pb_beta&#45;&gt;Forall_functor_forall_equiv_pb</title>
<path fill="none" stroke="black" d="M2123.71,-507.63C2119.01,-488.85 2112.61,-463.23 2107.8,-443.98"/>
<polygon fill="black" stroke="black" points="2111.13,-442.88 2105.31,-434.03 2104.34,-444.58 2111.13,-442.88"/>
</g>
<!-- Forall_functor_forall_equiv -->
<g id="node22" class="node">
<title>Forall_functor_forall_equiv</title>
<g id="a_node22"><a xlink:href="Forall.html#functor_forall_equiv" xlink:title="functor_forall_equiv">
<ellipse fill="#f070d1" stroke="black" cx="2099" cy="-297.8" rx="102.88" ry="18"/>
<text text-anchor="middle" x="2099" y="-294.1" font-family="Times,serif" font-size="14.00">functor_forall_equiv</text>
</a>
</g>
</g>
<!-- Forall_functor_forall_equiv_pb&#45;&gt;Forall_functor_forall_equiv -->
<g id="edge21" class="edge">
<title>Forall_functor_forall_equiv_pb&#45;&gt;Forall_functor_forall_equiv</title>
<path fill="none" stroke="black" d="M2100.7,-397.68C2100.38,-378.84 2099.85,-348.27 2099.47,-326.1"/>
<polygon fill="black" stroke="black" points="2102.97,-325.92 2099.3,-315.99 2095.97,-326.05 2102.97,-325.92"/>
</g>
<!-- Forall_functor_forall_equiv&#45;&gt;Forall_functor_forall -->
<g id="edge22" class="edge">
<title>Forall_functor_forall_equiv&#45;&gt;Forall_functor_forall</title>
<path fill="none" stroke="black" d="M2037.66,-283.32C2019.16,-279.41 1998.79,-275.27 1980,-271.8 1772.78,-233.51 1526.52,-196.53 1407.1,-179.14"/>
<polygon fill="black" stroke="black" points="1407.39,-175.65 1396.99,-177.67 1406.38,-182.57 1407.39,-175.65"/>
</g>
<!-- Forall_functor_forall_pb -->
<g id="node23" class="node">
<title>Forall_functor_forall_pb</title>
<g id="a_node23"><a xlink:href="Forall.html#functor_forall_pb" xlink:title="functor_forall_pb">
<ellipse fill="#f070d1" stroke="black" cx="1544" cy="-297.8" rx="89.08" ry="18"/>
<ellipse fill="none" stroke="black" cx="1544" cy="-297.8" rx="93.08" ry="22"/>
<ellipse fill="none" stroke="black" cx="1544" cy="-297.8" rx="97.08" ry="26"/>
<text text-anchor="middle" x="1544" y="-294.1" font-family="Times,serif" font-size="14.00">functor_forall_pb</text>
</a>
</g>
</g>
<!-- Forall_functor_forall_pb&#45;&gt;Forall_functor_forall -->
<g id="edge23" class="edge">
<title>Forall_functor_forall_pb&#45;&gt;Forall_functor_forall</title>
<path fill="none" stroke="black" d="M1506.15,-273.62C1467.27,-249.81 1407.27,-213.06 1369.62,-190"/>
<polygon fill="black" stroke="black" points="1371.37,-186.97 1361.01,-184.73 1367.71,-192.94 1371.37,-186.97"/>
</g>
<!-- Forall_functor_forall_id -->
<g id="node24" class="node">
<title>Forall_functor_forall_id</title>
<g id="a_node24"><a xlink:href="Forall.html#functor_forall_id" xlink:title="functor_forall_id">
<ellipse fill="#f070d1" stroke="black" cx="1335" cy="-297.8" rx="86.39" ry="18"/>
<ellipse fill="none" stroke="black" cx="1335" cy="-297.8" rx="90.39" ry="22"/>
<ellipse fill="none" stroke="black" cx="1335" cy="-297.8" rx="94.38" ry="26"/>
<text text-anchor="middle" x="1335" y="-294.1" font-family="Times,serif" font-size="14.00">functor_forall_id</text>
</a>
</g>
</g>
<!-- Forall_functor_forall_id&#45;&gt;Forall_functor_forall -->
<g id="edge24" class="edge">
<title>Forall_functor_forall_id&#45;&gt;Forall_functor_forall</title>
<path fill="none" stroke="black" d="M1335,-271.51C1335,-249.72 1335,-218.34 1335,-196.01"/>
<polygon fill="black" stroke="black" points="1338.5,-195.86 1335,-185.86 1331.5,-195.86 1338.5,-195.86"/>
</g>
<!-- Forall_functor_forall_compose&#45;&gt;Forall_functor_forall -->
<g id="edge25" class="edge">
<title>Forall_functor_forall_compose&#45;&gt;Forall_functor_forall</title>
<path fill="none" stroke="black" d="M875.28,-397.68C874.23,-363.86 873.91,-290.12 890,-271.8 937.67,-217.5 1143,-188.31 1257.35,-176"/>
<polygon fill="black" stroke="black" points="1257.87,-179.46 1267.45,-174.93 1257.14,-172.5 1257.87,-179.46"/>
</g>
<!-- Forall_ap_functor_forall -->
<g id="node26" class="node">
<title>Forall_ap_functor_forall</title>
<g id="a_node26"><a xlink:href="Forall.html#ap_functor_forall" xlink:title="ap_functor_forall">
<ellipse fill="#f070d1" stroke="black" cx="764" cy="-297.8" rx="89.08" ry="18"/>
<ellipse fill="none" stroke="black" cx="764" cy="-297.8" rx="93.08" ry="22"/>
<ellipse fill="none" stroke="black" cx="764" cy="-297.8" rx="97.08" ry="26"/>
<text text-anchor="middle" x="764" y="-294.1" font-family="Times,serif" font-size="14.00">ap_functor_forall</text>
</a>
</g>
</g>
<!-- Forall_ap_functor_forall&#45;&gt;Forall_functor_forall -->
<g id="edge26" class="edge">
<title>Forall_ap_functor_forall&#45;&gt;Forall_functor_forall</title>
<path fill="none" stroke="black" d="M836.54,-280.45C849.36,-277.56 862.57,-274.59 875,-271.8 1017.24,-239.86 1184.26,-202.5 1272.7,-182.72"/>
<polygon fill="black" stroke="black" points="1273.57,-186.12 1282.57,-180.52 1272.04,-179.28 1273.57,-186.12"/>
</g>
<!-- Forall_path_forall_1 -->
<g id="node41" class="node">
<title>Forall_path_forall_1</title>
<g id="a_node41"><a xlink:href="Forall.html#path_forall_1" xlink:title="path_forall_1">
<ellipse fill="#f070d1" stroke="black" cx="668" cy="-167.8" rx="70.69" ry="18"/>
<text text-anchor="middle" x="668" y="-164.1" font-family="Times,serif" font-size="14.00">path_forall_1</text>
</a>
</g>
</g>
<!-- Forall_ap_functor_forall&#45;&gt;Forall_path_forall_1 -->
<g id="edge27" class="edge">
<title>Forall_ap_functor_forall&#45;&gt;Forall_path_forall_1</title>
<path fill="none" stroke="black" d="M745.49,-272.12C728.58,-249.57 703.7,-216.4 686.72,-193.76"/>
<polygon fill="black" stroke="black" points="689.44,-191.55 680.64,-185.65 683.84,-195.75 689.44,-191.55"/>
</g>
<!-- Forall_dpath_forall_constant -->
<g id="node28" class="node">
<title>Forall_dpath_forall_constant</title>
<g id="a_node28"><a xlink:href="Forall.html#dpath_forall_constant" xlink:title="dpath_forall_constant">
<ellipse fill="#f070d1" stroke="black" cx="1980" cy="-793.8" rx="110.48" ry="18"/>
<ellipse fill="none" stroke="black" cx="1980" cy="-793.8" rx="114.48" ry="22"/>
<ellipse fill="none" stroke="black" cx="1980" cy="-793.8" rx="118.48" ry="26"/>
<text text-anchor="middle" x="1980" y="-790.1" font-family="Times,serif" font-size="14.00">dpath_forall_constant</text>
</a>
</g>
</g>
<!-- Forall_dpath_forall_constant&#45;&gt;Forall_equiv_path_forall -->
<g id="edge28" class="edge">
<title>Forall_dpath_forall_constant&#45;&gt;Forall_equiv_path_forall</title>
<path fill="none" stroke="black" d="M1932.98,-769.92C1883.39,-745.78 1806.01,-708.12 1758.58,-685.04"/>
<polygon fill="black" stroke="black" points="1760.03,-681.85 1749.51,-680.62 1756.97,-688.14 1760.03,-681.85"/>
</g>
<!-- Forall_dpath_forall -->
<g id="node29" class="node">
<title>Forall_dpath_forall</title>
<g id="a_node29"><a xlink:href="Forall.html#dpath_forall" xlink:title="dpath_forall">
<ellipse fill="#f070d1" stroke="black" cx="1769" cy="-793.8" rx="66.11" ry="18"/>
<ellipse fill="none" stroke="black" cx="1769" cy="-793.8" rx="70.1" ry="22"/>
<ellipse fill="none" stroke="black" cx="1769" cy="-793.8" rx="74.09" ry="26"/>
<text text-anchor="middle" x="1769" y="-790.1" font-family="Times,serif" font-size="14.00">dpath_forall</text>
</a>
</g>
</g>
<!-- Forall_dpath_forall&#45;&gt;Forall_equiv_path_forall -->
<g id="edge29" class="edge">
<title>Forall_dpath_forall&#45;&gt;Forall_equiv_path_forall</title>
<path fill="none" stroke="black" d="M1758.85,-767.82C1749.89,-745.76 1736.87,-713.71 1727.74,-691.23"/>
<polygon fill="black" stroke="black" points="1730.97,-689.89 1723.96,-681.94 1724.49,-692.53 1730.97,-689.89"/>
</g>
<!-- Forall_ap_lambdaD -->
<g id="node30" class="node">
<title>Forall_ap_lambdaD</title>
<g id="a_node30"><a xlink:href="Forall.html#ap_lambdaD" xlink:title="ap_lambdaD">
<ellipse fill="#f070d1" stroke="black" cx="573" cy="-297.8" rx="67.68" ry="18"/>
<ellipse fill="none" stroke="black" cx="573" cy="-297.8" rx="71.68" ry="22"/>
<ellipse fill="none" stroke="black" cx="573" cy="-297.8" rx="75.69" ry="26"/>
<text text-anchor="middle" x="573" y="-294.1" font-family="Times,serif" font-size="14.00">ap_lambdaD</text>
</a>
</g>
</g>
<!-- Forall_ap_lambdaD&#45;&gt;Forall_path_forall_1 -->
<g id="edge30" class="edge">
<title>Forall_ap_lambdaD&#45;&gt;Forall_path_forall_1</title>
<path fill="none" stroke="black" d="M591.09,-272.42C607.8,-249.91 632.51,-216.62 649.38,-193.88"/>
<polygon fill="black" stroke="black" points="652.28,-195.85 655.43,-185.73 646.66,-191.68 652.28,-195.85"/>
</g>
<!-- Forall_ap_apply_lD2 -->
<g id="node31" class="node">
<title>Forall_ap_apply_lD2</title>
<g id="a_node31"><a xlink:href="Forall.html#ap_apply_lD2" xlink:title="ap_apply_lD2">
<ellipse fill="#f070d1" stroke="black" cx="1375" cy="-1052.8" rx="72.27" ry="18"/>
<ellipse fill="none" stroke="black" cx="1375" cy="-1052.8" rx="76.28" ry="22"/>
<ellipse fill="none" stroke="black" cx="1375" cy="-1052.8" rx="80.29" ry="26"/>
<text text-anchor="middle" x="1375" y="-1049.1" font-family="Times,serif" font-size="14.00">ap_apply_lD2</text>
</a>
</g>
</g>
<!-- Forall_ap_apply_lD -->
<g id="node32" class="node">
<title>Forall_ap_apply_lD</title>
<g id="a_node32"><a xlink:href="Forall.html#ap_apply_lD" xlink:title="ap_apply_lD">
<ellipse fill="#f070d1" stroke="black" cx="1203" cy="-1052.8" rx="66.11" ry="18"/>
<ellipse fill="none" stroke="black" cx="1203" cy="-1052.8" rx="70.1" ry="22"/>
<ellipse fill="none" stroke="black" cx="1203" cy="-1052.8" rx="74.09" ry="26"/>
<text text-anchor="middle" x="1203" y="-1049.1" font-family="Times,serif" font-size="14.00">ap_apply_lD</text>
</a>
</g>
</g>
<!-- Forall_apD_transport_forall_constant -->
<g id="node33" class="node">
<title>Forall_apD_transport_forall_constant</title>
<g id="a_node33"><a xlink:href="Forall.html#apD_transport_forall_constant" xlink:title="apD_transport_forall_constant">
<ellipse fill="#f070d1" stroke="black" cx="952" cy="-1052.8" rx="150.58" ry="18"/>
<ellipse fill="none" stroke="black" cx="952" cy="-1052.8" rx="154.58" ry="22"/>
<ellipse fill="none" stroke="black" cx="952" cy="-1052.8" rx="158.57" ry="26"/>
<text text-anchor="middle" x="952" y="-1049.1" font-family="Times,serif" font-size="14.00">apD_transport_forall_constant</text>
</a>
</g>
</g>
<!-- Forall_transport_forall_constant -->
<g id="node34" class="node">
<title>Forall_transport_forall_constant</title>
<g id="a_node34"><a xlink:href="Forall.html#transport_forall_constant" xlink:title="transport_forall_constant">
<ellipse fill="#f070d1" stroke="black" cx="952" cy="-923.8" rx="128.08" ry="18"/>
<text text-anchor="middle" x="952" y="-920.1" font-family="Times,serif" font-size="14.00">transport_forall_constant</text>
</a>
</g>
</g>
<!-- Forall_apD_transport_forall_constant&#45;&gt;Forall_transport_forall_constant -->
<g id="edge31" class="edge">
<title>Forall_apD_transport_forall_constant&#45;&gt;Forall_transport_forall_constant</title>
<path fill="none" stroke="black" d="M952,-1026.71C952,-1005.21 952,-974.31 952,-952.18"/>
<polygon fill="black" stroke="black" points="955.5,-952.1 952,-942.1 948.5,-952.1 955.5,-952.1"/>
</g>
<!-- Forall_transport_forall -->
<g id="node35" class="node">
<title>Forall_transport_forall</title>
<g id="a_node35"><a xlink:href="Forall.html#transport_forall" xlink:title="transport_forall">
<ellipse fill="#f070d1" stroke="black" cx="684" cy="-1052.8" rx="83.37" ry="18"/>
<ellipse fill="none" stroke="black" cx="684" cy="-1052.8" rx="87.38" ry="22"/>
<ellipse fill="none" stroke="black" cx="684" cy="-1052.8" rx="91.39" ry="26"/>
<text text-anchor="middle" x="684" y="-1049.1" font-family="Times,serif" font-size="14.00">transport_forall</text>
</a>
</g>
</g>
<!-- Forall_path_forall_V -->
<g id="node36" class="node">
<title>Forall_path_forall_V</title>
<g id="a_node36"><a xlink:href="Forall.html#path_forall_V" xlink:title="path_forall_V">
<ellipse fill="#f070d1" stroke="black" cx="495" cy="-1052.8" rx="71.49" ry="18"/>
<ellipse fill="none" stroke="black" cx="495" cy="-1052.8" rx="75.49" ry="22"/>
<ellipse fill="none" stroke="black" cx="495" cy="-1052.8" rx="79.49" ry="26"/>
<text text-anchor="middle" x="495" y="-1049.1" font-family="Times,serif" font-size="14.00">path_forall_V</text>
</a>
</g>
</g>
<!-- Forall_path_forall_pp -->
<g id="node37" class="node">
<title>Forall_path_forall_pp</title>
<g id="a_node37"><a xlink:href="Forall.html#path_forall_pp" xlink:title="path_forall_pp">
<ellipse fill="#f070d1" stroke="black" cx="494" cy="-167.8" rx="76.87" ry="18"/>
<ellipse fill="none" stroke="black" cx="494" cy="-167.8" rx="80.88" ry="22"/>
<ellipse fill="none" stroke="black" cx="494" cy="-167.8" rx="84.89" ry="26"/>
<text text-anchor="middle" x="494" y="-164.1" font-family="Times,serif" font-size="14.00">path_forall_pp</text>
</a>
</g>
</g>
<!-- Forall_eta_path_forall -->
<g id="node42" class="node">
<title>Forall_eta_path_forall</title>
<g id="a_node42"><a xlink:href="Forall.html#eta_path_forall" xlink:title="eta_path_forall">
<ellipse fill="#f070d1" stroke="black" cx="581" cy="-49.8" rx="79.09" ry="18"/>
<text text-anchor="middle" x="581" y="-46.1" font-family="Times,serif" font-size="14.00">eta_path_forall</text>
</a>
</g>
</g>
<!-- Forall_path_forall_pp&#45;&gt;Forall_eta_path_forall -->
<g id="edge32" class="edge">
<title>Forall_path_forall_pp&#45;&gt;Forall_eta_path_forall</title>
<path fill="none" stroke="black" d="M512.45,-142.2C527.05,-122.73 547.36,-95.66 562.08,-76.03"/>
<polygon fill="black" stroke="black" points="565.01,-77.95 568.21,-67.85 559.41,-73.75 565.01,-77.95"/>
</g>
<!-- Forall_equiv_path_forall&#45;&gt;Forall_isequiv_path_forall -->
<g id="edge33" class="edge">
<title>Forall_equiv_path_forall&#45;&gt;Forall_isequiv_path_forall</title>
<path fill="none" stroke="black" d="M1717,-645.54C1717,-624.16 1717,-587.49 1717,-562.24"/>
<polygon fill="black" stroke="black" points="1720.5,-562.2 1717,-552.2 1713.5,-562.2 1720.5,-562.2"/>
</g>
<!-- Forall_equiv_apD10 -->
<g id="node40" class="node">
<title>Forall_equiv_apD10</title>
<g id="a_node40"><a xlink:href="Forall.html#equiv_apD10" xlink:title="equiv_apD10">
<ellipse fill="#f070d1" stroke="black" cx="319" cy="-1052.8" rx="70.7" ry="18"/>
<ellipse fill="none" stroke="black" cx="319" cy="-1052.8" rx="74.7" ry="22"/>
<ellipse fill="none" stroke="black" cx="319" cy="-1052.8" rx="78.69" ry="26"/>
<text text-anchor="middle" x="319" y="-1049.1" font-family="Times,serif" font-size="14.00">equiv_apD10</text>
</a>
</g>
</g>
<!-- Forall_path_forall_1&#45;&gt;Forall_eta_path_forall -->
<g id="edge34" class="edge">
<title>Forall_path_forall_1&#45;&gt;Forall_eta_path_forall</title>
<path fill="none" stroke="black" d="M655.16,-149.68C640.49,-130.12 616.36,-97.94 599.62,-75.63"/>
<polygon fill="black" stroke="black" points="602.41,-73.51 593.61,-67.61 596.81,-77.71 602.41,-73.51"/>
</g>
<!-- Forall_apD10_path_forall -->
<g id="node43" class="node">
<title>Forall_apD10_path_forall</title>
<g id="a_node43"><a xlink:href="Forall.html#apD10_path_forall" xlink:title="apD10_path_forall">
<ellipse fill="#f070d1" stroke="black" cx="119" cy="-1052.8" rx="94.79" ry="18"/>
<ellipse fill="none" stroke="black" cx="119" cy="-1052.8" rx="98.79" ry="22"/>
<ellipse fill="none" stroke="black" cx="119" cy="-1052.8" rx="102.78" ry="26"/>
<text text-anchor="middle" x="119" y="-1049.1" font-family="Times,serif" font-size="14.00">apD10_path_forall</text>
</a>
</g>
</g>
</g>
</svg>
