<?xml version="1.0" encoding="UTF-8" standalone="no"?>
<!DOCTYPE svg PUBLIC "-//W3C//DTD SVG 1.1//EN"
 "http://www.w3.org/Graphics/SVG/1.1/DTD/svg11.dtd">
<!-- Generated by graphviz version 2.43.0 (0)
 -->
<!-- Title: HoTT_HIT_epi Pages: 1 -->
<svg width="686pt" height="347pt"
 viewBox="0.00 0.00 686.00 347.00" xmlns="http://www.w3.org/2000/svg" xmlns:xlink="http://www.w3.org/1999/xlink">
<g id="graph0" class="graph" transform="scale(1 1) rotate(0) translate(4 343)">
<title>HoTT_HIT_epi</title>
<polygon fill="white" stroke="transparent" points="-4,4 -4,-343 682,-343 682,4 -4,4"/>
<g id="clust1" class="cluster">
<title>cluster_epi</title>
<polygon fill="#ffffc3" stroke="black" points="9.55,-8 9.55,-331 668.45,-331 668.45,-8 9.55,-8"/>
<text text-anchor="middle" x="28.55" y="-315.8" font-family="Times,serif" font-size="14.00">epi</text>
</g>
<!-- epi_isepi_isequiv -->
<g id="node1" class="node">
<title>epi_isepi_isequiv</title>
<g id="a_node1"><a xlink:href="epi.html#isepi_isequiv" xlink:title="isepi_isequiv">
<ellipse fill="#f070d1" stroke="black" cx="303.65" cy="-114" rx="70.37" ry="18"/>
<ellipse fill="none" stroke="black" cx="303.65" cy="-114" rx="74.38" ry="22"/>
<ellipse fill="none" stroke="black" cx="303.65" cy="-114" rx="78.39" ry="26"/>
<text text-anchor="middle" x="303.65" y="-110.3" font-family="Times,serif" font-size="14.00">isepi_isequiv</text>
</a>
</g>
</g>
<!-- epi_isepi -->
<g id="node9" class="node">
<title>epi_isepi</title>
<g id="a_node9"><a xlink:href="epi.html#isepi" xlink:title="isepi">
<ellipse fill="#f070d1" stroke="black" cx="303.65" cy="-34" rx="32.49" ry="18"/>
<text text-anchor="middle" x="303.65" y="-30.3" font-family="Times,serif" font-size="14.00">isepi</text>
</a>
</g>
</g>
<!-- epi_isepi_isequiv&#45;&gt;epi_isepi -->
<g id="edge1" class="edge">
<title>epi_isepi_isequiv&#45;&gt;epi_isepi</title>
<path fill="none" stroke="black" d="M303.65,-87.89C303.65,-79.84 303.65,-70.88 303.65,-62.66"/>
<polygon fill="black" stroke="black" points="307.16,-62.41 303.65,-52.41 300.16,-62.41 307.16,-62.41"/>
</g>
<!-- epi_isepi_issurj -->
<g id="node2" class="node">
<title>epi_isepi_issurj</title>
<g id="a_node2"><a xlink:href="epi.html#isepi_issurj" xlink:title="isepi_issurj">
<ellipse fill="#f070d1" stroke="black" cx="388.65" cy="-274" rx="63.08" ry="18"/>
<ellipse fill="none" stroke="black" cx="388.65" cy="-274" rx="67.09" ry="22"/>
<ellipse fill="none" stroke="black" cx="388.65" cy="-274" rx="71.09" ry="26"/>
<text text-anchor="middle" x="388.65" y="-270.3" font-family="Times,serif" font-size="14.00">isepi_issurj</text>
</a>
</g>
</g>
<!-- epi_fam -->
<g id="node3" class="node">
<title>epi_fam</title>
<g id="a_node3"><a xlink:href="epi.html#fam" xlink:title="fam">
<ellipse fill="#f070d1" stroke="black" cx="299.65" cy="-194" rx="28.7" ry="18"/>
<text text-anchor="middle" x="299.65" y="-190.3" font-family="Times,serif" font-size="14.00">fam</text>
</a>
</g>
</g>
<!-- epi_isepi_issurj&#45;&gt;epi_fam -->
<g id="edge2" class="edge">
<title>epi_isepi_issurj&#45;&gt;epi_fam</title>
<path fill="none" stroke="black" d="M361.95,-249.6C349.72,-238.88 335.34,-226.28 323.48,-215.88"/>
<polygon fill="black" stroke="black" points="325.56,-213.05 315.73,-209.09 320.95,-218.31 325.56,-213.05"/>
</g>
<!-- epi_epif -->
<g id="node4" class="node">
<title>epi_epif</title>
<g id="a_node4"><a xlink:href="epi.html#epif" xlink:title="epif">
<ellipse fill="#f070d1" stroke="black" cx="388.65" cy="-194" rx="28.7" ry="18"/>
<text text-anchor="middle" x="388.65" y="-190.3" font-family="Times,serif" font-size="14.00">epif</text>
</a>
</g>
</g>
<!-- epi_isepi_issurj&#45;&gt;epi_epif -->
<g id="edge3" class="edge">
<title>epi_isepi_issurj&#45;&gt;epi_epif</title>
<path fill="none" stroke="black" d="M388.65,-247.89C388.65,-239.84 388.65,-230.88 388.65,-222.66"/>
<polygon fill="black" stroke="black" points="392.16,-222.41 388.65,-212.41 385.16,-222.41 392.16,-222.41"/>
</g>
<!-- epi_isepi__contr_cone -->
<g id="node6" class="node">
<title>epi_isepi__contr_cone</title>
<g id="a_node6"><a xlink:href="epi.html#isepi'_contr_cone" xlink:title="isepi&#39;_contr_cone">
<ellipse fill="#f070d1" stroke="black" cx="551.65" cy="-194" rx="89.88" ry="18"/>
<text text-anchor="middle" x="551.65" y="-190.3" font-family="Times,serif" font-size="14.00">isepi&#39;_contr_cone</text>
</a>
</g>
</g>
<!-- epi_isepi_issurj&#45;&gt;epi_isepi__contr_cone -->
<g id="edge4" class="edge">
<title>epi_isepi_issurj&#45;&gt;epi_isepi__contr_cone</title>
<path fill="none" stroke="black" d="M430.63,-252.91C454.78,-241.36 485.04,-226.88 509.26,-215.29"/>
<polygon fill="black" stroke="black" points="511.05,-218.31 518.56,-210.84 508.02,-212 511.05,-218.31"/>
</g>
<!-- epi_equiv_isepi_isepi_ -->
<g id="node7" class="node">
<title>epi_equiv_isepi_isepi_</title>
<g id="a_node7"><a xlink:href="epi.html#equiv_isepi_isepi'" xlink:title="equiv_isepi_isepi&#39;">
<ellipse fill="#f070d1" stroke="black" cx="526.65" cy="-114" rx="90.98" ry="18"/>
<text text-anchor="middle" x="526.65" y="-110.3" font-family="Times,serif" font-size="14.00">equiv_isepi_isepi&#39;</text>
</a>
</g>
</g>
<!-- epi_epif&#45;&gt;epi_equiv_isepi_isepi_ -->
<g id="edge5" class="edge">
<title>epi_epif&#45;&gt;epi_equiv_isepi_isepi_</title>
<path fill="none" stroke="black" d="M409.31,-181.32C430.43,-169.39 463.7,-150.59 489.42,-136.04"/>
<polygon fill="black" stroke="black" points="491.19,-139.06 498.18,-131.1 487.75,-132.97 491.19,-139.06"/>
</g>
<!-- epi_issurj_isepi -->
<g id="node5" class="node">
<title>epi_issurj_isepi</title>
<g id="a_node5"><a xlink:href="epi.html#issurj_isepi" xlink:title="issurj_isepi">
<ellipse fill="#f070d1" stroke="black" cx="103.65" cy="-114" rx="63.08" ry="18"/>
<ellipse fill="none" stroke="black" cx="103.65" cy="-114" rx="67.09" ry="22"/>
<ellipse fill="none" stroke="black" cx="103.65" cy="-114" rx="71.09" ry="26"/>
<text text-anchor="middle" x="103.65" y="-110.3" font-family="Times,serif" font-size="14.00">issurj_isepi</text>
</a>
</g>
</g>
<!-- epi_issurj_isepi&#45;&gt;epi_isepi -->
<g id="edge6" class="edge">
<title>epi_issurj_isepi&#45;&gt;epi_isepi</title>
<path fill="none" stroke="black" d="M151.05,-94.52C186.96,-80.51 235.51,-61.57 268.13,-48.86"/>
<polygon fill="black" stroke="black" points="269.66,-52.02 277.7,-45.12 267.11,-45.49 269.66,-52.02"/>
</g>
<!-- epi_isepi_ -->
<g id="node8" class="node">
<title>epi_isepi_</title>
<g id="a_node8"><a xlink:href="epi.html#isepi'" xlink:title="isepi&#39;">
<ellipse fill="#f070d1" stroke="black" cx="571.65" cy="-34" rx="35.19" ry="18"/>
<text text-anchor="middle" x="571.65" y="-30.3" font-family="Times,serif" font-size="14.00">isepi&#39;</text>
</a>
</g>
</g>
<!-- epi_isepi__contr_cone&#45;&gt;epi_isepi_ -->
<g id="edge7" class="edge">
<title>epi_isepi__contr_cone&#45;&gt;epi_isepi_</title>
<path fill="none" stroke="black" d="M587.18,-177.29C602.23,-168.63 618.22,-156.28 626.65,-140 637.28,-119.48 635.7,-109.27 626.65,-88 621.17,-75.1 610.83,-63.81 600.59,-55.01"/>
<polygon fill="black" stroke="black" points="602.47,-52.03 592.49,-48.5 598.09,-57.49 602.47,-52.03"/>
</g>
<!-- epi_equiv_isepi_isepi_&#45;&gt;epi_isepi_ -->
<g id="edge8" class="edge">
<title>epi_equiv_isepi_isepi_&#45;&gt;epi_isepi_</title>
<path fill="none" stroke="black" d="M536.42,-96.08C542.46,-85.61 550.32,-71.98 557.08,-60.26"/>
<polygon fill="black" stroke="black" points="560.25,-61.77 562.22,-51.36 554.19,-58.27 560.25,-61.77"/>
</g>
<!-- epi_equiv_isepi_isepi_&#45;&gt;epi_isepi -->
<g id="edge9" class="edge">
<title>epi_equiv_isepi_isepi_&#45;&gt;epi_isepi</title>
<path fill="none" stroke="black" d="M483.92,-98.05C442.18,-83.45 379.35,-61.48 339.96,-47.7"/>
<polygon fill="black" stroke="black" points="341.08,-44.38 330.48,-44.38 338.77,-50.99 341.08,-44.38"/>
</g>
</g>
</svg>
