<?xml version="1.0" encoding="UTF-8" standalone="no"?>
<!DOCTYPE svg PUBLIC "-//W3C//DTD SVG 1.1//EN"
 "http://www.w3.org/Graphics/SVG/1.1/DTD/svg11.dtd">
<!-- Generated by graphviz version 2.43.0 (0)
 -->
<!-- Title: HoTT_Pointed_pSusp Pages: 1 -->
<svg width="1937pt" height="972pt"
 viewBox="0.00 0.00 1937.00 972.50" xmlns="http://www.w3.org/2000/svg" xmlns:xlink="http://www.w3.org/1999/xlink">
<g id="graph0" class="graph" transform="scale(1 1) rotate(0) translate(4 968.5)">
<title>HoTT_Pointed_pSusp</title>
<polygon fill="white" stroke="transparent" points="-4,4 -4,-968.5 1933,-968.5 1933,4 -4,4"/>
<g id="clust1" class="cluster">
<title>cluster_pSusp</title>
<polygon fill="#ffffc3" stroke="black" points="8,-12.73 8,-951.77 1921,-951.77 1921,-12.73 8,-12.73"/>
<text text-anchor="middle" x="38.5" y="-936.57" font-family="Times,serif" font-size="14.00">pSusp</text>
</g>
<g id="clust2" class="cluster">
<title>cluster_pSusp_Book_Loop_Susp_Adjunction</title>
<polygon fill="#ffffa3" stroke="black" points="541,-241.92 541,-386.75 759,-386.75 759,-241.92 541,-241.92"/>
<text text-anchor="middle" x="650" y="-371.55" font-family="Times,serif" font-size="14.00">Book_Loop_Susp_Adjunction</text>
</g>
<!-- pSusp_Book_Loop_Susp_Adjunction_loop_susp_adjoint -->
<g id="node1" class="node">
<title>pSusp_Book_Loop_Susp_Adjunction_loop_susp_adjoint</title>
<g id="a_node1"><a xlink:href="pSusp.html#Book_Loop_Susp_Adjunction.loop_susp_adjoint" xlink:title="loop_susp_adjoint">
<ellipse fill="#f070d1" stroke="black" cx="650" cy="-295.73" rx="92.89" ry="18"/>
<ellipse fill="none" stroke="black" cx="650" cy="-295.73" rx="96.89" ry="22"/>
<ellipse fill="none" stroke="black" cx="650" cy="-295.73" rx="100.88" ry="26"/>
<text text-anchor="middle" x="650" y="-292.03" font-family="Times,serif" font-size="14.00">loop_susp_adjoint</text>
</a>
</g>
</g>
<!-- pSusp_psusp -->
<g id="node20" class="node">
<title>pSusp_psusp</title>
<g id="a_node20"><a xlink:href="pSusp.html#psusp" xlink:title="psusp">
<ellipse fill="#f070d1" stroke="black" cx="754" cy="-168.73" rx="38.19" ry="18"/>
<text text-anchor="middle" x="754" y="-165.03" font-family="Times,serif" font-size="14.00">psusp</text>
</a>
</g>
</g>
<!-- pSusp_Book_Loop_Susp_Adjunction_loop_susp_adjoint&#45;&gt;pSusp_psusp -->
<g id="edge1" class="edge">
<title>pSusp_Book_Loop_Susp_Adjunction_loop_susp_adjoint&#45;&gt;pSusp_psusp</title>
<path fill="none" stroke="black" d="M670.55,-270.04C689.02,-247.83 715.99,-215.42 734.22,-193.5"/>
<polygon fill="black" stroke="black" points="737.04,-195.59 740.75,-185.66 731.66,-191.11 737.04,-195.59"/>
</g>
<!-- pSusp_natequiv_loop_susp_adjoint_r -->
<g id="node2" class="node">
<title>pSusp_natequiv_loop_susp_adjoint_r</title>
<g id="a_node2"><a xlink:href="pSusp.html#natequiv_loop_susp_adjoint_r" xlink:title="natequiv_loop_susp_adjoint_r">
<ellipse fill="#f070d1" stroke="black" cx="1145" cy="-860.73" rx="146.46" ry="18"/>
<ellipse fill="none" stroke="black" cx="1145" cy="-860.73" rx="150.47" ry="22"/>
<ellipse fill="none" stroke="black" cx="1145" cy="-860.73" rx="154.47" ry="26"/>
<text text-anchor="middle" x="1145" y="-857.03" font-family="Times,serif" font-size="14.00">natequiv_loop_susp_adjoint_r</text>
</a>
</g>
</g>
<!-- pSusp_is1natural_loop_susp_adjoint_r -->
<g id="node3" class="node">
<title>pSusp_is1natural_loop_susp_adjoint_r</title>
<g id="a_node3"><a xlink:href="pSusp.html#is1natural_loop_susp_adjoint_r" xlink:title="is1natural_loop_susp_adjoint_r">
<ellipse fill="#f070d1" stroke="black" cx="1145" cy="-720.73" rx="153.27" ry="18"/>
<text text-anchor="middle" x="1145" y="-717.03" font-family="Times,serif" font-size="14.00">is1natural_loop_susp_adjoint_r</text>
</a>
</g>
</g>
<!-- pSusp_natequiv_loop_susp_adjoint_r&#45;&gt;pSusp_is1natural_loop_susp_adjoint_r -->
<g id="edge2" class="edge">
<title>pSusp_natequiv_loop_susp_adjoint_r&#45;&gt;pSusp_is1natural_loop_susp_adjoint_r</title>
<path fill="none" stroke="black" d="M1145,-834.42C1145,-810.29 1145,-774.05 1145,-749.22"/>
<polygon fill="black" stroke="black" points="1148.5,-749.03 1145,-739.03 1141.5,-749.03 1148.5,-749.03"/>
</g>
<!-- pSusp_loop_susp_adjoint -->
<g id="node6" class="node">
<title>pSusp_loop_susp_adjoint</title>
<g id="a_node6"><a xlink:href="pSusp.html#loop_susp_adjoint" xlink:title="loop_susp_adjoint">
<ellipse fill="#f070d1" stroke="black" cx="846" cy="-580.73" rx="92.88" ry="18"/>
<text text-anchor="middle" x="846" y="-577.03" font-family="Times,serif" font-size="14.00">loop_susp_adjoint</text>
</a>
</g>
</g>
<!-- pSusp_is1natural_loop_susp_adjoint_r&#45;&gt;pSusp_loop_susp_adjoint -->
<g id="edge3" class="edge">
<title>pSusp_is1natural_loop_susp_adjoint_r&#45;&gt;pSusp_loop_susp_adjoint</title>
<path fill="none" stroke="black" d="M1109.23,-703.22C1054.2,-677.83 948.93,-629.24 889.55,-601.83"/>
<polygon fill="black" stroke="black" points="890.97,-598.63 880.43,-597.62 888.04,-604.99 890.97,-598.63"/>
</g>
<!-- pSusp_loop_susp_adjoint_nat_l -->
<g id="node4" class="node">
<title>pSusp_loop_susp_adjoint_nat_l</title>
<g id="a_node4"><a xlink:href="pSusp.html#loop_susp_adjoint_nat_l" xlink:title="loop_susp_adjoint_nat_l">
<ellipse fill="#f070d1" stroke="black" cx="846" cy="-720.73" rx="119.67" ry="18"/>
<ellipse fill="none" stroke="black" cx="846" cy="-720.73" rx="123.68" ry="22"/>
<ellipse fill="none" stroke="black" cx="846" cy="-720.73" rx="127.68" ry="26"/>
<text text-anchor="middle" x="846" y="-717.03" font-family="Times,serif" font-size="14.00">loop_susp_adjoint_nat_l</text>
</a>
</g>
</g>
<!-- pSusp_loop_susp_adjoint_nat_l&#45;&gt;pSusp_loop_susp_adjoint -->
<g id="edge4" class="edge">
<title>pSusp_loop_susp_adjoint_nat_l&#45;&gt;pSusp_loop_susp_adjoint</title>
<path fill="none" stroke="black" d="M846,-694.42C846,-670.29 846,-634.05 846,-609.22"/>
<polygon fill="black" stroke="black" points="849.5,-609.03 846,-599.03 842.5,-609.03 849.5,-609.03"/>
</g>
<!-- pSusp_loop_susp_adjoint_nat_r -->
<g id="node5" class="node">
<title>pSusp_loop_susp_adjoint_nat_r</title>
<g id="a_node5"><a xlink:href="pSusp.html#loop_susp_adjoint_nat_r" xlink:title="loop_susp_adjoint_nat_r">
<ellipse fill="#f070d1" stroke="black" cx="572" cy="-720.73" rx="120.79" ry="18"/>
<ellipse fill="none" stroke="black" cx="572" cy="-720.73" rx="124.78" ry="22"/>
<ellipse fill="none" stroke="black" cx="572" cy="-720.73" rx="128.78" ry="26"/>
<text text-anchor="middle" x="572" y="-717.03" font-family="Times,serif" font-size="14.00">loop_susp_adjoint_nat_r</text>
</a>
</g>
</g>
<!-- pSusp_loop_susp_adjoint_nat_r&#45;&gt;pSusp_loop_susp_adjoint -->
<g id="edge5" class="edge">
<title>pSusp_loop_susp_adjoint_nat_r&#45;&gt;pSusp_loop_susp_adjoint</title>
<path fill="none" stroke="black" d="M618.48,-696.32C670.84,-669.95 755.11,-627.51 805.07,-602.35"/>
<polygon fill="black" stroke="black" points="806.93,-605.33 814.29,-597.71 803.78,-599.08 806.93,-605.33"/>
</g>
<!-- pSusp_loop_susp_triangle2 -->
<g id="node7" class="node">
<title>pSusp_loop_susp_triangle2</title>
<g id="a_node7"><a xlink:href="pSusp.html#loop_susp_triangle2" xlink:title="loop_susp_triangle2">
<ellipse fill="#f070d1" stroke="black" cx="608" cy="-440.73" rx="102.88" ry="18"/>
<text text-anchor="middle" x="608" y="-437.03" font-family="Times,serif" font-size="14.00">loop_susp_triangle2</text>
</a>
</g>
</g>
<!-- pSusp_loop_susp_adjoint&#45;&gt;pSusp_loop_susp_triangle2 -->
<g id="edge6" class="edge">
<title>pSusp_loop_susp_adjoint&#45;&gt;pSusp_loop_susp_triangle2</title>
<path fill="none" stroke="black" d="M817.76,-563.36C774.73,-538.41 692.71,-490.85 644.98,-463.18"/>
<polygon fill="black" stroke="black" points="646.61,-460.07 636.2,-458.08 643.09,-466.13 646.61,-460.07"/>
</g>
<!-- pSusp_loop_susp_triangle1 -->
<g id="node8" class="node">
<title>pSusp_loop_susp_triangle1</title>
<g id="a_node8"><a xlink:href="pSusp.html#loop_susp_triangle1" xlink:title="loop_susp_triangle1">
<ellipse fill="#f070d1" stroke="black" cx="385" cy="-440.73" rx="102.88" ry="18"/>
<text text-anchor="middle" x="385" y="-437.03" font-family="Times,serif" font-size="14.00">loop_susp_triangle1</text>
</a>
</g>
</g>
<!-- pSusp_loop_susp_adjoint&#45;&gt;pSusp_loop_susp_triangle1 -->
<g id="edge7" class="edge">
<title>pSusp_loop_susp_adjoint&#45;&gt;pSusp_loop_susp_triangle1</title>
<path fill="none" stroke="black" d="M797.54,-565.23C712.44,-539.75 536.48,-487.08 444.29,-459.48"/>
<polygon fill="black" stroke="black" points="445.14,-456.08 434.55,-456.57 443.13,-462.79 445.14,-456.08"/>
</g>
<!-- pSusp_loop_susp_counit_natural -->
<g id="node9" class="node">
<title>pSusp_loop_susp_counit_natural</title>
<g id="a_node9"><a xlink:href="pSusp.html#loop_susp_counit_natural" xlink:title="loop_susp_counit_natural">
<ellipse fill="#f070d1" stroke="black" cx="1108" cy="-440.73" rx="127.28" ry="18"/>
<text text-anchor="middle" x="1108" y="-437.03" font-family="Times,serif" font-size="14.00">loop_susp_counit_natural</text>
</a>
</g>
</g>
<!-- pSusp_loop_susp_adjoint&#45;&gt;pSusp_loop_susp_counit_natural -->
<g id="edge8" class="edge">
<title>pSusp_loop_susp_adjoint&#45;&gt;pSusp_loop_susp_counit_natural</title>
<path fill="none" stroke="black" d="M876.57,-563.63C923.81,-538.75 1014.61,-490.92 1067.34,-463.15"/>
<polygon fill="black" stroke="black" points="1069.19,-466.13 1076.41,-458.37 1065.93,-459.94 1069.19,-466.13"/>
</g>
<!-- pSusp_loop_susp_unit_natural -->
<g id="node11" class="node">
<title>pSusp_loop_susp_unit_natural</title>
<g id="a_node11"><a xlink:href="pSusp.html#loop_susp_unit_natural" xlink:title="loop_susp_unit_natural">
<ellipse fill="#f070d1" stroke="black" cx="846" cy="-440.73" rx="116.98" ry="18"/>
<text text-anchor="middle" x="846" y="-437.03" font-family="Times,serif" font-size="14.00">loop_susp_unit_natural</text>
</a>
</g>
</g>
<!-- pSusp_loop_susp_adjoint&#45;&gt;pSusp_loop_susp_unit_natural -->
<g id="edge9" class="edge">
<title>pSusp_loop_susp_adjoint&#45;&gt;pSusp_loop_susp_unit_natural</title>
<path fill="none" stroke="black" d="M846,-562.53C846,-539.19 846,-497.2 846,-469.39"/>
<polygon fill="black" stroke="black" points="849.5,-469.15 846,-459.15 842.5,-469.15 849.5,-469.15"/>
</g>
<!-- pSusp_psusp_functor_compose -->
<g id="node18" class="node">
<title>pSusp_psusp_functor_compose</title>
<g id="a_node18"><a xlink:href="pSusp.html#psusp_functor_compose" xlink:title="psusp_functor_compose">
<ellipse fill="#f070d1" stroke="black" cx="1374" cy="-440.73" rx="120.78" ry="18"/>
<text text-anchor="middle" x="1374" y="-437.03" font-family="Times,serif" font-size="14.00">psusp_functor_compose</text>
</a>
</g>
</g>
<!-- pSusp_loop_susp_adjoint&#45;&gt;pSusp_psusp_functor_compose -->
<g id="edge10" class="edge">
<title>pSusp_loop_susp_adjoint&#45;&gt;pSusp_psusp_functor_compose</title>
<path fill="none" stroke="black" d="M899.04,-565.87C995.82,-540.58 1200.82,-487 1307.05,-459.23"/>
<polygon fill="black" stroke="black" points="1308.22,-462.54 1317.01,-456.63 1306.45,-455.77 1308.22,-462.54"/>
</g>
<!-- pSusp_loop_susp_counit -->
<g id="node10" class="node">
<title>pSusp_loop_susp_counit</title>
<g id="a_node10"><a xlink:href="pSusp.html#loop_susp_counit" xlink:title="loop_susp_counit">
<ellipse fill="#f070d1" stroke="black" cx="858" cy="-295.73" rx="89.08" ry="18"/>
<text text-anchor="middle" x="858" y="-292.03" font-family="Times,serif" font-size="14.00">loop_susp_counit</text>
</a>
</g>
</g>
<!-- pSusp_loop_susp_triangle2&#45;&gt;pSusp_loop_susp_counit -->
<g id="edge11" class="edge">
<title>pSusp_loop_susp_triangle2&#45;&gt;pSusp_loop_susp_counit</title>
<path fill="none" stroke="black" d="M637.53,-423.4C668.8,-406.05 719.53,-377.74 763,-352.73 782.5,-341.51 804.12,-328.79 821.8,-318.32"/>
<polygon fill="black" stroke="black" points="823.84,-321.17 830.65,-313.06 820.27,-315.15 823.84,-321.17"/>
</g>
<!-- pSusp_loop_susp_unit -->
<g id="node14" class="node">
<title>pSusp_loop_susp_unit</title>
<g id="a_node14"><a xlink:href="pSusp.html#loop_susp_unit" xlink:title="loop_susp_unit">
<ellipse fill="#f070d1" stroke="black" cx="452" cy="-295.73" rx="79.09" ry="18"/>
<text text-anchor="middle" x="452" y="-292.03" font-family="Times,serif" font-size="14.00">loop_susp_unit</text>
</a>
</g>
</g>
<!-- pSusp_loop_susp_triangle2&#45;&gt;pSusp_loop_susp_unit -->
<g id="edge12" class="edge">
<title>pSusp_loop_susp_triangle2&#45;&gt;pSusp_loop_susp_unit</title>
<path fill="none" stroke="black" d="M589.49,-422.77C561.81,-397.4 509.53,-349.47 478.02,-320.58"/>
<polygon fill="black" stroke="black" points="480.22,-317.85 470.48,-313.68 475.49,-323.01 480.22,-317.85"/>
</g>
<!-- pSusp_psusp_functor -->
<g id="node19" class="node">
<title>pSusp_psusp_functor</title>
<g id="a_node19"><a xlink:href="pSusp.html#psusp_functor" xlink:title="psusp_functor">
<ellipse fill="#f070d1" stroke="black" cx="1108" cy="-295.73" rx="76.09" ry="18"/>
<text text-anchor="middle" x="1108" y="-292.03" font-family="Times,serif" font-size="14.00">psusp_functor</text>
</a>
</g>
</g>
<!-- pSusp_loop_susp_triangle2&#45;&gt;pSusp_psusp_functor -->
<g id="edge13" class="edge">
<title>pSusp_loop_susp_triangle2&#45;&gt;pSusp_psusp_functor</title>
<path fill="none" stroke="black" d="M666.59,-425.9C750.9,-405.85 902.21,-369.31 956,-352.73 992.01,-341.63 1031.97,-326.81 1061.88,-315.2"/>
<polygon fill="black" stroke="black" points="1063.17,-318.45 1071.21,-311.56 1060.63,-311.93 1063.17,-318.45"/>
</g>
<!-- pSusp_loop_susp_triangle1&#45;&gt;pSusp_loop_susp_counit -->
<g id="edge14" class="edge">
<title>pSusp_loop_susp_triangle1&#45;&gt;pSusp_loop_susp_counit</title>
<path fill="none" stroke="black" d="M445.52,-426.05C550.41,-402.31 755.56,-355.7 763,-352.73 785.11,-343.92 808.15,-330.46 826,-318.94"/>
<polygon fill="black" stroke="black" points="828.4,-321.55 834.83,-313.13 824.56,-315.7 828.4,-321.55"/>
</g>
<!-- pSusp_loop_susp_triangle1&#45;&gt;pSusp_loop_susp_unit -->
<g id="edge15" class="edge">
<title>pSusp_loop_susp_triangle1&#45;&gt;pSusp_loop_susp_unit</title>
<path fill="none" stroke="black" d="M392.95,-422.77C404.53,-398.04 426.16,-351.89 439.78,-322.82"/>
<polygon fill="black" stroke="black" points="442.99,-324.22 444.06,-313.68 436.65,-321.25 442.99,-324.22"/>
</g>
<!-- pSusp_loop_susp_counit_natural&#45;&gt;pSusp_loop_susp_counit -->
<g id="edge16" class="edge">
<title>pSusp_loop_susp_counit_natural&#45;&gt;pSusp_loop_susp_counit</title>
<path fill="none" stroke="black" d="M1078.83,-423.05C1033.24,-396.97 945.14,-346.58 895.1,-317.95"/>
<polygon fill="black" stroke="black" points="896.63,-314.8 886.21,-312.87 893.16,-320.87 896.63,-314.8"/>
</g>
<!-- pSusp_loop_susp_counit_natural&#45;&gt;pSusp_psusp_functor -->
<g id="edge17" class="edge">
<title>pSusp_loop_susp_counit_natural&#45;&gt;pSusp_psusp_functor</title>
<path fill="none" stroke="black" d="M1108,-422.48C1108,-398.11 1108,-353.34 1108,-324.32"/>
<polygon fill="black" stroke="black" points="1111.5,-324.04 1108,-314.04 1104.5,-324.04 1111.5,-324.04"/>
</g>
<!-- pSusp_loop_susp_counit&#45;&gt;pSusp_psusp -->
<g id="edge18" class="edge">
<title>pSusp_loop_susp_counit&#45;&gt;pSusp_psusp</title>
<path fill="none" stroke="black" d="M843.97,-277.87C825.94,-256.2 794.51,-218.43 773.98,-193.75"/>
<polygon fill="black" stroke="black" points="776.56,-191.38 767.47,-185.93 771.18,-195.85 776.56,-191.38"/>
</g>
<!-- pSusp_loop_susp_unit_natural&#45;&gt;pSusp_loop_susp_unit -->
<g id="edge19" class="edge">
<title>pSusp_loop_susp_unit_natural&#45;&gt;pSusp_loop_susp_unit</title>
<path fill="none" stroke="black" d="M775.42,-426.35C711.34,-412.71 615.19,-388.45 537,-352.73 517.33,-343.75 497.05,-330.56 481.23,-319.24"/>
<polygon fill="black" stroke="black" points="483.08,-316.25 472.94,-313.18 478.95,-321.91 483.08,-316.25"/>
</g>
<!-- pSusp_loop_susp_unit_natural&#45;&gt;pSusp_psusp_functor -->
<g id="edge20" class="edge">
<title>pSusp_loop_susp_unit_natural&#45;&gt;pSusp_psusp_functor</title>
<path fill="none" stroke="black" d="M876.05,-423.33C923.98,-397.17 1017.66,-346.04 1070.11,-317.41"/>
<polygon fill="black" stroke="black" points="1071.99,-320.37 1079.09,-312.51 1068.64,-314.23 1071.99,-320.37"/>
</g>
<!-- pSusp_pequiv_ptr_loop_psusp -->
<g id="node12" class="node">
<title>pSusp_pequiv_ptr_loop_psusp</title>
<g id="a_node12"><a xlink:href="pSusp.html#pequiv_ptr_loop_psusp" xlink:title="pequiv_ptr_loop_psusp">
<ellipse fill="#f070d1" stroke="black" cx="140" cy="-440.73" rx="116.19" ry="18"/>
<ellipse fill="none" stroke="black" cx="140" cy="-440.73" rx="120.18" ry="22"/>
<ellipse fill="none" stroke="black" cx="140" cy="-440.73" rx="124.18" ry="26"/>
<text text-anchor="middle" x="140" y="-437.03" font-family="Times,serif" font-size="14.00">pequiv_ptr_loop_psusp</text>
</a>
</g>
</g>
<!-- pSusp_conn_map_loop_susp_unit -->
<g id="node13" class="node">
<title>pSusp_conn_map_loop_susp_unit</title>
<g id="a_node13"><a xlink:href="pSusp.html#conn_map_loop_susp_unit" xlink:title="conn_map_loop_susp_unit">
<ellipse fill="#f070d1" stroke="black" cx="146" cy="-295.73" rx="129.98" ry="18"/>
<text text-anchor="middle" x="146" y="-292.03" font-family="Times,serif" font-size="14.00">conn_map_loop_susp_unit</text>
</a>
</g>
</g>
<!-- pSusp_pequiv_ptr_loop_psusp&#45;&gt;pSusp_conn_map_loop_susp_unit -->
<g id="edge21" class="edge">
<title>pSusp_pequiv_ptr_loop_psusp&#45;&gt;pSusp_conn_map_loop_susp_unit</title>
<path fill="none" stroke="black" d="M141.06,-414.5C142.12,-389.24 143.74,-350.49 144.84,-324.4"/>
<polygon fill="black" stroke="black" points="148.35,-324.21 145.27,-314.08 141.36,-323.92 148.35,-324.21"/>
</g>
<!-- pSusp_pequiv_ptr_loop_psusp&#45;&gt;pSusp_loop_susp_unit -->
<g id="edge22" class="edge">
<title>pSusp_pequiv_ptr_loop_psusp&#45;&gt;pSusp_loop_susp_unit</title>
<path fill="none" stroke="black" d="M190.13,-416.76C250.83,-388.94 352.02,-342.56 409.21,-316.34"/>
<polygon fill="black" stroke="black" points="410.71,-319.51 418.34,-312.16 407.79,-313.14 410.71,-319.51"/>
</g>
<!-- pSusp_loop_susp_unit&#45;&gt;pSusp_psusp -->
<g id="edge23" class="edge">
<title>pSusp_loop_susp_unit&#45;&gt;pSusp_psusp</title>
<path fill="none" stroke="black" d="M488.43,-279.65C546.12,-255.78 657.93,-209.5 716.36,-185.31"/>
<polygon fill="black" stroke="black" points="718.05,-188.4 725.95,-181.34 715.37,-181.93 718.05,-188.4"/>
</g>
<!-- pSusp_pequiv_psusp_functor -->
<g id="node15" class="node">
<title>pSusp_pequiv_psusp_functor</title>
<g id="a_node15"><a xlink:href="pSusp.html#pequiv_psusp_functor" xlink:title="pequiv_psusp_functor">
<ellipse fill="#f070d1" stroke="black" cx="1622" cy="-580.73" rx="111.59" ry="18"/>
<ellipse fill="none" stroke="black" cx="1622" cy="-580.73" rx="115.59" ry="22"/>
<ellipse fill="none" stroke="black" cx="1622" cy="-580.73" rx="119.58" ry="26"/>
<text text-anchor="middle" x="1622" y="-577.03" font-family="Times,serif" font-size="14.00">pequiv_psusp_functor</text>
</a>
</g>
</g>
<!-- pSusp_psusp_2functor -->
<g id="node16" class="node">
<title>pSusp_psusp_2functor</title>
<g id="a_node16"><a xlink:href="pSusp.html#psusp_2functor" xlink:title="psusp_2functor">
<ellipse fill="#f070d1" stroke="black" cx="1831" cy="-440.73" rx="81.79" ry="18"/>
<text text-anchor="middle" x="1831" y="-437.03" font-family="Times,serif" font-size="14.00">psusp_2functor</text>
</a>
</g>
</g>
<!-- pSusp_pequiv_psusp_functor&#45;&gt;pSusp_psusp_2functor -->
<g id="edge24" class="edge">
<title>pSusp_pequiv_psusp_functor&#45;&gt;pSusp_psusp_2functor</title>
<path fill="none" stroke="black" d="M1658.41,-555.69C1697.71,-529.74 1759.77,-488.76 1797.79,-463.66"/>
<polygon fill="black" stroke="black" points="1800.03,-466.38 1806.44,-457.95 1796.17,-460.54 1800.03,-466.38"/>
</g>
<!-- pSusp_psusp_functor_idmap -->
<g id="node17" class="node">
<title>pSusp_psusp_functor_idmap</title>
<g id="a_node17"><a xlink:href="pSusp.html#psusp_functor_idmap" xlink:title="psusp_functor_idmap">
<ellipse fill="#f070d1" stroke="black" cx="1622" cy="-440.73" rx="109.38" ry="18"/>
<text text-anchor="middle" x="1622" y="-437.03" font-family="Times,serif" font-size="14.00">psusp_functor_idmap</text>
</a>
</g>
</g>
<!-- pSusp_pequiv_psusp_functor&#45;&gt;pSusp_psusp_functor_idmap -->
<g id="edge25" class="edge">
<title>pSusp_pequiv_psusp_functor&#45;&gt;pSusp_psusp_functor_idmap</title>
<path fill="none" stroke="black" d="M1622,-554.42C1622,-530.29 1622,-494.05 1622,-469.22"/>
<polygon fill="black" stroke="black" points="1625.5,-469.03 1622,-459.03 1618.5,-469.03 1625.5,-469.03"/>
</g>
<!-- pSusp_pequiv_psusp_functor&#45;&gt;pSusp_psusp_functor_compose -->
<g id="edge26" class="edge">
<title>pSusp_pequiv_psusp_functor&#45;&gt;pSusp_psusp_functor_compose</title>
<path fill="none" stroke="black" d="M1579.93,-556.32C1533.13,-530.28 1458.14,-488.55 1412.73,-463.29"/>
<polygon fill="black" stroke="black" points="1414.23,-460.11 1403.79,-458.31 1410.82,-466.23 1414.23,-460.11"/>
</g>
<!-- pSusp_psusp_2functor&#45;&gt;pSusp_psusp_functor -->
<g id="edge27" class="edge">
<title>pSusp_psusp_2functor&#45;&gt;pSusp_psusp_functor</title>
<path fill="none" stroke="black" d="M1783.49,-425.87C1769.54,-422.02 1754.21,-418.01 1740,-414.73 1538.13,-368.24 1296.8,-327.14 1179.31,-308.05"/>
<polygon fill="black" stroke="black" points="1179.79,-304.58 1169.36,-306.44 1178.67,-311.49 1179.79,-304.58"/>
</g>
<!-- pSusp_psusp_functor_idmap&#45;&gt;pSusp_psusp_functor -->
<g id="edge28" class="edge">
<title>pSusp_psusp_functor_idmap&#45;&gt;pSusp_psusp_functor</title>
<path fill="none" stroke="black" d="M1568.93,-424.97C1471.62,-397.9 1265.46,-340.54 1165.18,-312.64"/>
<polygon fill="black" stroke="black" points="1166.09,-309.26 1155.52,-309.95 1164.22,-316.01 1166.09,-309.26"/>
</g>
<!-- pSusp_psusp_functor_compose&#45;&gt;pSusp_psusp_functor -->
<g id="edge29" class="edge">
<title>pSusp_psusp_functor_compose&#45;&gt;pSusp_psusp_functor</title>
<path fill="none" stroke="black" d="M1343.23,-423.19C1294.46,-396.97 1199.52,-345.93 1146.38,-317.37"/>
<polygon fill="black" stroke="black" points="1147.75,-314.13 1137.28,-312.47 1144.43,-320.29 1147.75,-314.13"/>
</g>
<!-- pSusp_psusp_functor&#45;&gt;pSusp_psusp -->
<g id="edge30" class="edge">
<title>pSusp_psusp_functor&#45;&gt;pSusp_psusp</title>
<path fill="none" stroke="black" d="M1067.39,-280.39C998.85,-256.19 861.05,-207.53 793.36,-183.63"/>
<polygon fill="black" stroke="black" points="794.49,-180.32 783.9,-180.29 792.16,-186.92 794.49,-180.32"/>
</g>
<!-- pSusp_ispointed_susp -->
<g id="node23" class="node">
<title>pSusp_ispointed_susp</title>
<g id="a_node23"><a xlink:href="pSusp.html#ispointed_susp" xlink:title="ispointed_susp">
<ellipse fill="#f070d1" stroke="black" cx="754" cy="-53.73" rx="79.09" ry="18"/>
<text text-anchor="middle" x="754" y="-50.03" font-family="Times,serif" font-size="14.00">ispointed_susp</text>
</a>
</g>
</g>
<!-- pSusp_psusp&#45;&gt;pSusp_ispointed_susp -->
<g id="edge31" class="edge">
<title>pSusp_psusp&#45;&gt;pSusp_ispointed_susp</title>
<path fill="none" stroke="black" d="M754,-150.57C754,-132.4 754,-103.46 754,-82.13"/>
<polygon fill="black" stroke="black" points="757.5,-82.06 754,-72.06 750.5,-82.06 757.5,-82.06"/>
</g>
<!-- pSusp_ispointed_path_susp_ -->
<g id="node21" class="node">
<title>pSusp_ispointed_path_susp_</title>
<g id="a_node21"><a xlink:href="pSusp.html#ispointed_path_susp'" xlink:title="ispointed_path_susp&#39;">
<ellipse fill="#f070d1" stroke="black" cx="737" cy="-860.73" rx="107.46" ry="18"/>
<ellipse fill="none" stroke="black" cx="737" cy="-860.73" rx="111.47" ry="22"/>
<ellipse fill="none" stroke="black" cx="737" cy="-860.73" rx="115.48" ry="26"/>
<text text-anchor="middle" x="737" y="-857.03" font-family="Times,serif" font-size="14.00">ispointed_path_susp&#39;</text>
</a>
</g>
</g>
<!-- pSusp_ispointed_path_susp -->
<g id="node22" class="node">
<title>pSusp_ispointed_path_susp</title>
<g id="a_node22"><a xlink:href="pSusp.html#ispointed_path_susp" xlink:title="ispointed_path_susp">
<ellipse fill="#f070d1" stroke="black" cx="250" cy="-860.73" rx="104.77" ry="18"/>
<ellipse fill="none" stroke="black" cx="250" cy="-860.73" rx="108.78" ry="22"/>
<ellipse fill="none" stroke="black" cx="250" cy="-860.73" rx="112.78" ry="26"/>
<text text-anchor="middle" x="250" y="-857.03" font-family="Times,serif" font-size="14.00">ispointed_path_susp</text>
</a>
</g>
</g>
</g>
</svg>
