<?xml version="1.0" encoding="UTF-8" standalone="no"?>
<!DOCTYPE svg PUBLIC "-//W3C//DTD SVG 1.1//EN"
 "http://www.w3.org/Graphics/SVG/1.1/DTD/svg11.dtd">
<!-- Generated by graphviz version 2.43.0 (0)
 -->
<!-- Title: HoTT_Algebra_Groups_QuotientGroup Pages: 1 -->
<svg width="1726pt" height="867pt"
 viewBox="0.00 0.00 1726.00 867.00" xmlns="http://www.w3.org/2000/svg" xmlns:xlink="http://www.w3.org/1999/xlink">
<g id="graph0" class="graph" transform="scale(1 1) rotate(0) translate(4 863)">
<title>HoTT_Algebra_Groups_QuotientGroup</title>
<polygon fill="white" stroke="transparent" points="-4,4 -4,-863 1722,-863 1722,4 -4,4"/>
<g id="clust1" class="cluster">
<title>cluster_QuotientGroup</title>
<polygon fill="#ffffc3" stroke="black" points="10.04,-8 10.04,-851 1707.96,-851 1707.96,-8 10.04,-8"/>
<text text-anchor="middle" x="71.54" y="-835.8" font-family="Times,serif" font-size="14.00">QuotientGroup</text>
</g>
<!-- QuotientGroup_grp_first_iso -->
<g id="node1" class="node">
<title>QuotientGroup_grp_first_iso</title>
<g id="a_node1"><a xlink:href="QuotientGroup.html#grp_first_iso" xlink:title="grp_first_iso">
<ellipse fill="#f070d1" stroke="black" cx="928.3" cy="-794" rx="67.68" ry="18"/>
<ellipse fill="none" stroke="black" cx="928.3" cy="-794" rx="71.68" ry="22"/>
<ellipse fill="none" stroke="black" cx="928.3" cy="-794" rx="75.69" ry="26"/>
<text text-anchor="middle" x="928.3" y="-790.3" font-family="Times,serif" font-size="14.00">grp_first_iso</text>
</a>
</g>
</g>
<!-- QuotientGroup_isequiv_grp_image_quotient -->
<g id="node2" class="node">
<title>QuotientGroup_isequiv_grp_image_quotient</title>
<g id="a_node2"><a xlink:href="QuotientGroup.html#isequiv_grp_image_quotient" xlink:title="isequiv_grp_image_quotient">
<ellipse fill="#f070d1" stroke="black" cx="928.3" cy="-706" rx="140.28" ry="18"/>
<text text-anchor="middle" x="928.3" y="-702.3" font-family="Times,serif" font-size="14.00">isequiv_grp_image_quotient</text>
</a>
</g>
</g>
<!-- QuotientGroup_grp_first_iso&#45;&gt;QuotientGroup_isequiv_grp_image_quotient -->
<g id="edge1" class="edge">
<title>QuotientGroup_grp_first_iso&#45;&gt;QuotientGroup_isequiv_grp_image_quotient</title>
<path fill="none" stroke="black" d="M928.3,-767.66C928.3,-757.11 928.3,-744.84 928.3,-734.1"/>
<polygon fill="black" stroke="black" points="931.8,-734 928.3,-724 924.8,-734 931.8,-734"/>
</g>
<!-- QuotientGroup_grp_image_quotient -->
<g id="node3" class="node">
<title>QuotientGroup_grp_image_quotient</title>
<g id="a_node3"><a xlink:href="QuotientGroup.html#grp_image_quotient" xlink:title="grp_image_quotient">
<ellipse fill="#f070d1" stroke="black" cx="911.3" cy="-618" rx="102.88" ry="18"/>
<text text-anchor="middle" x="911.3" y="-614.3" font-family="Times,serif" font-size="14.00">grp_image_quotient</text>
</a>
</g>
</g>
<!-- QuotientGroup_isequiv_grp_image_quotient&#45;&gt;QuotientGroup_grp_image_quotient -->
<g id="edge2" class="edge">
<title>QuotientGroup_isequiv_grp_image_quotient&#45;&gt;QuotientGroup_grp_image_quotient</title>
<path fill="none" stroke="black" d="M924.86,-687.6C922.52,-675.75 919.37,-659.82 916.7,-646.29"/>
<polygon fill="black" stroke="black" points="920.05,-645.22 914.68,-636.08 913.19,-646.57 920.05,-645.22"/>
</g>
<!-- QuotientGroup_grp_quotient_rec -->
<g id="node8" class="node">
<title>QuotientGroup_grp_quotient_rec</title>
<g id="a_node8"><a xlink:href="QuotientGroup.html#grp_quotient_rec" xlink:title="grp_quotient_rec">
<ellipse fill="#f070d1" stroke="black" cx="792.3" cy="-538" rx="89.08" ry="18"/>
<text text-anchor="middle" x="792.3" y="-534.3" font-family="Times,serif" font-size="14.00">grp_quotient_rec</text>
</a>
</g>
</g>
<!-- QuotientGroup_grp_image_quotient&#45;&gt;QuotientGroup_grp_quotient_rec -->
<g id="edge3" class="edge">
<title>QuotientGroup_grp_image_quotient&#45;&gt;QuotientGroup_grp_quotient_rec</title>
<path fill="none" stroke="black" d="M886.07,-600.46C868.56,-588.98 845.04,-573.56 825.93,-561.04"/>
<polygon fill="black" stroke="black" points="827.79,-558.07 817.51,-555.52 823.95,-563.93 827.79,-558.07"/>
</g>
<!-- QuotientGroup_equiv_grp_quotient_ump -->
<g id="node4" class="node">
<title>QuotientGroup_equiv_grp_quotient_ump</title>
<g id="a_node4"><a xlink:href="QuotientGroup.html#equiv_grp_quotient_ump" xlink:title="equiv_grp_quotient_ump">
<ellipse fill="#f070d1" stroke="black" cx="563.3" cy="-706" rx="124.59" ry="18"/>
<ellipse fill="none" stroke="black" cx="563.3" cy="-706" rx="128.58" ry="22"/>
<ellipse fill="none" stroke="black" cx="563.3" cy="-706" rx="132.58" ry="26"/>
<text text-anchor="middle" x="563.3" y="-702.3" font-family="Times,serif" font-size="14.00">equiv_grp_quotient_ump</text>
</a>
</g>
</g>
<!-- QuotientGroup_grp_quotient_rec_beta -->
<g id="node6" class="node">
<title>QuotientGroup_grp_quotient_rec_beta</title>
<g id="a_node6"><a xlink:href="QuotientGroup.html#grp_quotient_rec_beta" xlink:title="grp_quotient_rec_beta">
<ellipse fill="#f070d1" stroke="black" cx="581.3" cy="-618" rx="114.28" ry="18"/>
<text text-anchor="middle" x="581.3" y="-614.3" font-family="Times,serif" font-size="14.00">grp_quotient_rec_beta</text>
</a>
</g>
</g>
<!-- QuotientGroup_equiv_grp_quotient_ump&#45;&gt;QuotientGroup_grp_quotient_rec_beta -->
<g id="edge4" class="edge">
<title>QuotientGroup_equiv_grp_quotient_ump&#45;&gt;QuotientGroup_grp_quotient_rec_beta</title>
<path fill="none" stroke="black" d="M568.61,-679.66C570.82,-669.11 573.39,-656.84 575.63,-646.1"/>
<polygon fill="black" stroke="black" points="579.12,-646.51 577.75,-636 572.27,-645.07 579.12,-646.51"/>
</g>
<!-- QuotientGroup_grp_iso_quotient_normal -->
<g id="node5" class="node">
<title>QuotientGroup_grp_iso_quotient_normal</title>
<g id="a_node5"><a xlink:href="QuotientGroup.html#grp_iso_quotient_normal" xlink:title="grp_iso_quotient_normal">
<ellipse fill="#f070d1" stroke="black" cx="248.3" cy="-618" rx="124.59" ry="18"/>
<ellipse fill="none" stroke="black" cx="248.3" cy="-618" rx="128.58" ry="22"/>
<ellipse fill="none" stroke="black" cx="248.3" cy="-618" rx="132.58" ry="26"/>
<text text-anchor="middle" x="248.3" y="-614.3" font-family="Times,serif" font-size="14.00">grp_iso_quotient_normal</text>
</a>
</g>
</g>
<!-- QuotientGroup_QuotientGroup_ -->
<g id="node7" class="node">
<title>QuotientGroup_QuotientGroup_</title>
<g id="a_node7"><a xlink:href="QuotientGroup.html#QuotientGroup'" xlink:title="QuotientGroup&#39;">
<ellipse fill="#f070d1" stroke="black" cx="263.3" cy="-538" rx="82.59" ry="18"/>
<text text-anchor="middle" x="263.3" y="-534.3" font-family="Times,serif" font-size="14.00">QuotientGroup&#39;</text>
</a>
</g>
</g>
<!-- QuotientGroup_grp_iso_quotient_normal&#45;&gt;QuotientGroup_QuotientGroup_ -->
<g id="edge5" class="edge">
<title>QuotientGroup_grp_iso_quotient_normal&#45;&gt;QuotientGroup_QuotientGroup_</title>
<path fill="none" stroke="black" d="M253.13,-591.89C254.7,-583.75 256.44,-574.68 258.04,-566.38"/>
<polygon fill="black" stroke="black" points="261.5,-566.89 259.96,-556.41 254.63,-565.57 261.5,-566.89"/>
</g>
<!-- QuotientGroup_grp_quotient_rec_beta&#45;&gt;QuotientGroup_grp_quotient_rec -->
<g id="edge6" class="edge">
<title>QuotientGroup_grp_quotient_rec_beta&#45;&gt;QuotientGroup_grp_quotient_rec</title>
<path fill="none" stroke="black" d="M624,-601.22C658.02,-588.64 705.72,-571.01 741.66,-557.72"/>
<polygon fill="black" stroke="black" points="743.3,-560.85 751.46,-554.1 740.87,-554.28 743.3,-560.85"/>
</g>
<!-- QuotientGroup_grp_quotient_map -->
<g id="node9" class="node">
<title>QuotientGroup_grp_quotient_map</title>
<g id="a_node9"><a xlink:href="QuotientGroup.html#grp_quotient_map" xlink:title="grp_quotient_map">
<ellipse fill="#f070d1" stroke="black" cx="538.3" cy="-538" rx="94.78" ry="18"/>
<text text-anchor="middle" x="538.3" y="-534.3" font-family="Times,serif" font-size="14.00">grp_quotient_map</text>
</a>
</g>
</g>
<!-- QuotientGroup_grp_quotient_rec_beta&#45;&gt;QuotientGroup_grp_quotient_map -->
<g id="edge7" class="edge">
<title>QuotientGroup_grp_quotient_rec_beta&#45;&gt;QuotientGroup_grp_quotient_map</title>
<path fill="none" stroke="black" d="M571.76,-599.69C566.16,-589.52 558.96,-576.47 552.68,-565.07"/>
<polygon fill="black" stroke="black" points="555.57,-563.06 547.67,-555.99 549.44,-566.44 555.57,-563.06"/>
</g>
<!-- QuotientGroup_QuotientGroup -->
<g id="node10" class="node">
<title>QuotientGroup_QuotientGroup</title>
<g id="a_node10"><a xlink:href="QuotientGroup.html#QuotientGroup" xlink:title="QuotientGroup">
<ellipse fill="#f070d1" stroke="black" cx="538.3" cy="-466" rx="79.89" ry="18"/>
<text text-anchor="middle" x="538.3" y="-462.3" font-family="Times,serif" font-size="14.00">QuotientGroup</text>
</a>
</g>
</g>
<!-- QuotientGroup_QuotientGroup_&#45;&gt;QuotientGroup_QuotientGroup -->
<g id="edge8" class="edge">
<title>QuotientGroup_QuotientGroup_&#45;&gt;QuotientGroup_QuotientGroup</title>
<path fill="none" stroke="black" d="M314.71,-523.92C360.81,-512.18 428.53,-494.94 477.35,-482.52"/>
<polygon fill="black" stroke="black" points="478.33,-485.88 487.15,-480.02 476.6,-479.1 478.33,-485.88"/>
</g>
<!-- QuotientGroup_grp_quotient_rec&#45;&gt;QuotientGroup_QuotientGroup -->
<g id="edge9" class="edge">
<title>QuotientGroup_grp_quotient_rec&#45;&gt;QuotientGroup_QuotientGroup</title>
<path fill="none" stroke="black" d="M741.82,-523.09C699.99,-511.56 640.5,-495.16 596.64,-483.08"/>
<polygon fill="black" stroke="black" points="597.54,-479.69 586.97,-480.41 595.68,-486.44 597.54,-479.69"/>
</g>
<!-- QuotientGroup_grp_quotient_map&#45;&gt;QuotientGroup_QuotientGroup -->
<g id="edge10" class="edge">
<title>QuotientGroup_grp_quotient_map&#45;&gt;QuotientGroup_QuotientGroup</title>
<path fill="none" stroke="black" d="M538.3,-519.7C538.3,-511.98 538.3,-502.71 538.3,-494.11"/>
<polygon fill="black" stroke="black" points="541.8,-494.1 538.3,-484.1 534.8,-494.1 541.8,-494.1"/>
</g>
<!-- QuotientGroup_iscongruence_in_cosetL -->
<g id="node12" class="node">
<title>QuotientGroup_iscongruence_in_cosetL</title>
<g id="a_node12"><a xlink:href="QuotientGroup.html#iscongruence_in_cosetL" xlink:title="iscongruence_in_cosetL">
<ellipse fill="#f070d1" stroke="black" cx="234.3" cy="-394" rx="120.48" ry="18"/>
<text text-anchor="middle" x="234.3" y="-390.3" font-family="Times,serif" font-size="14.00">iscongruence_in_cosetL</text>
</a>
</g>
</g>
<!-- QuotientGroup_QuotientGroup&#45;&gt;QuotientGroup_iscongruence_in_cosetL -->
<g id="edge11" class="edge">
<title>QuotientGroup_QuotientGroup&#45;&gt;QuotientGroup_iscongruence_in_cosetL</title>
<path fill="none" stroke="black" d="M484.66,-452.65C435.23,-441.27 361.5,-424.29 306.84,-411.7"/>
<polygon fill="black" stroke="black" points="307.39,-408.24 296.86,-409.4 305.82,-415.06 307.39,-408.24"/>
</g>
<!-- QuotientGroup_isgroup_quotientgroup -->
<g id="node13" class="node">
<title>QuotientGroup_isgroup_quotientgroup</title>
<g id="a_node13"><a xlink:href="QuotientGroup.html#isgroup_quotientgroup" xlink:title="isgroup_quotientgroup">
<ellipse fill="#f070d1" stroke="black" cx="554.3" cy="-394" rx="116.18" ry="18"/>
<text text-anchor="middle" x="554.3" y="-390.3" font-family="Times,serif" font-size="14.00">isgroup_quotientgroup</text>
</a>
</g>
</g>
<!-- QuotientGroup_QuotientGroup&#45;&gt;QuotientGroup_isgroup_quotientgroup -->
<g id="edge12" class="edge">
<title>QuotientGroup_QuotientGroup&#45;&gt;QuotientGroup_isgroup_quotientgroup</title>
<path fill="none" stroke="black" d="M542.26,-447.7C544.02,-439.98 546.14,-430.71 548.11,-422.11"/>
<polygon fill="black" stroke="black" points="551.58,-422.63 550.4,-412.1 544.75,-421.07 551.58,-422.63"/>
</g>
<!-- QuotientGroup_iscongruence_in_cosetR -->
<g id="node11" class="node">
<title>QuotientGroup_iscongruence_in_cosetR</title>
<g id="a_node11"><a xlink:href="QuotientGroup.html#iscongruence_in_cosetR" xlink:title="iscongruence_in_cosetR">
<ellipse fill="#f070d1" stroke="black" cx="473.3" cy="-794" rx="120.79" ry="18"/>
<ellipse fill="none" stroke="black" cx="473.3" cy="-794" rx="124.78" ry="22"/>
<ellipse fill="none" stroke="black" cx="473.3" cy="-794" rx="128.78" ry="26"/>
<text text-anchor="middle" x="473.3" y="-790.3" font-family="Times,serif" font-size="14.00">iscongruence_in_cosetR</text>
</a>
</g>
</g>
<!-- QuotientGroup_quotientgroup_rightinverse -->
<g id="node14" class="node">
<title>QuotientGroup_quotientgroup_rightinverse</title>
<g id="a_node14"><a xlink:href="QuotientGroup.html#quotientgroup_rightinverse" xlink:title="quotientgroup_rightinverse">
<ellipse fill="#f070d1" stroke="black" cx="193.3" cy="-178" rx="138.38" ry="18"/>
<text text-anchor="middle" x="193.3" y="-174.3" font-family="Times,serif" font-size="14.00">quotientgroup_rightinverse</text>
</a>
</g>
</g>
<!-- QuotientGroup_isgroup_quotientgroup&#45;&gt;QuotientGroup_quotientgroup_rightinverse -->
<g id="edge13" class="edge">
<title>QuotientGroup_isgroup_quotientgroup&#45;&gt;QuotientGroup_quotientgroup_rightinverse</title>
<path fill="none" stroke="black" d="M526.28,-376.39C461.78,-338.15 302.82,-243.92 230.37,-200.97"/>
<polygon fill="black" stroke="black" points="231.95,-197.84 221.56,-195.75 228.38,-203.86 231.95,-197.84"/>
</g>
<!-- QuotientGroup_quotientgroup_leftinverse -->
<g id="node15" class="node">
<title>QuotientGroup_quotientgroup_leftinverse</title>
<g id="a_node15"><a xlink:href="QuotientGroup.html#quotientgroup_leftinverse" xlink:title="quotientgroup_leftinverse">
<ellipse fill="#f070d1" stroke="black" cx="554.3" cy="-178" rx="131.08" ry="18"/>
<text text-anchor="middle" x="554.3" y="-174.3" font-family="Times,serif" font-size="14.00">quotientgroup_leftinverse</text>
</a>
</g>
</g>
<!-- QuotientGroup_isgroup_quotientgroup&#45;&gt;QuotientGroup_quotientgroup_leftinverse -->
<g id="edge14" class="edge">
<title>QuotientGroup_isgroup_quotientgroup&#45;&gt;QuotientGroup_quotientgroup_leftinverse</title>
<path fill="none" stroke="black" d="M554.3,-375.85C554.3,-338.83 554.3,-251.18 554.3,-206.39"/>
<polygon fill="black" stroke="black" points="557.8,-206.23 554.3,-196.23 550.8,-206.23 557.8,-206.23"/>
</g>
<!-- QuotientGroup_ismonoid_quotientgroup -->
<g id="node16" class="node">
<title>QuotientGroup_ismonoid_quotientgroup</title>
<g id="a_node16"><a xlink:href="QuotientGroup.html#ismonoid_quotientgroup" xlink:title="ismonoid_quotientgroup">
<ellipse fill="#f070d1" stroke="black" cx="1033.3" cy="-322" rx="123.48" ry="18"/>
<text text-anchor="middle" x="1033.3" y="-318.3" font-family="Times,serif" font-size="14.00">ismonoid_quotientgroup</text>
</a>
</g>
</g>
<!-- QuotientGroup_isgroup_quotientgroup&#45;&gt;QuotientGroup_ismonoid_quotientgroup -->
<g id="edge15" class="edge">
<title>QuotientGroup_isgroup_quotientgroup&#45;&gt;QuotientGroup_ismonoid_quotientgroup</title>
<path fill="none" stroke="black" d="M635.83,-381.09C719.92,-368.8 850.9,-349.66 939.3,-336.74"/>
<polygon fill="black" stroke="black" points="939.94,-340.18 949.33,-335.27 938.93,-333.25 939.94,-340.18"/>
</g>
<!-- QuotientGroup_congquot_negate -->
<g id="node21" class="node">
<title>QuotientGroup_congquot_negate</title>
<g id="a_node21"><a xlink:href="QuotientGroup.html#congquot_negate" xlink:title="congquot_negate">
<ellipse fill="#f070d1" stroke="black" cx="369.3" cy="-106" rx="89.88" ry="18"/>
<text text-anchor="middle" x="369.3" y="-102.3" font-family="Times,serif" font-size="14.00">congquot_negate</text>
</a>
</g>
</g>
<!-- QuotientGroup_quotientgroup_rightinverse&#45;&gt;QuotientGroup_congquot_negate -->
<g id="edge16" class="edge">
<title>QuotientGroup_quotientgroup_rightinverse&#45;&gt;QuotientGroup_congquot_negate</title>
<path fill="none" stroke="black" d="M234.12,-160.76C260.2,-150.4 294.11,-136.91 321.45,-126.03"/>
<polygon fill="black" stroke="black" points="322.82,-129.26 330.82,-122.31 320.23,-122.75 322.82,-129.26"/>
</g>
<!-- QuotientGroup_congquot_mon_unit -->
<g id="node22" class="node">
<title>QuotientGroup_congquot_mon_unit</title>
<g id="a_node22"><a xlink:href="QuotientGroup.html#congquot_mon_unit" xlink:title="congquot_mon_unit">
<ellipse fill="#f070d1" stroke="black" cx="630.3" cy="-106" rx="100.98" ry="18"/>
<text text-anchor="middle" x="630.3" y="-102.3" font-family="Times,serif" font-size="14.00">congquot_mon_unit</text>
</a>
</g>
</g>
<!-- QuotientGroup_quotientgroup_rightinverse&#45;&gt;QuotientGroup_congquot_mon_unit -->
<g id="edge17" class="edge">
<title>QuotientGroup_quotientgroup_rightinverse&#45;&gt;QuotientGroup_congquot_mon_unit</title>
<path fill="none" stroke="black" d="M276.79,-163.63C354.67,-151.15 470.2,-132.65 547.77,-120.22"/>
<polygon fill="black" stroke="black" points="548.67,-123.62 557.99,-118.58 547.56,-116.71 548.67,-123.62"/>
</g>
<!-- QuotientGroup_congquot_sgop -->
<g id="node23" class="node">
<title>QuotientGroup_congquot_sgop</title>
<g id="a_node23"><a xlink:href="QuotientGroup.html#congquot_sgop" xlink:title="congquot_sgop">
<ellipse fill="#f070d1" stroke="black" cx="879.3" cy="-106" rx="79.89" ry="18"/>
<text text-anchor="middle" x="879.3" y="-102.3" font-family="Times,serif" font-size="14.00">congquot_sgop</text>
</a>
</g>
</g>
<!-- QuotientGroup_quotientgroup_rightinverse&#45;&gt;QuotientGroup_congquot_sgop -->
<g id="edge18" class="edge">
<title>QuotientGroup_quotientgroup_rightinverse&#45;&gt;QuotientGroup_congquot_sgop</title>
<path fill="none" stroke="black" d="M303.66,-167.13C414.19,-157.05 589.15,-140.56 740.3,-124 760.15,-121.83 781.57,-119.3 801.51,-116.86"/>
<polygon fill="black" stroke="black" points="801.97,-120.33 811.47,-115.64 801.12,-113.39 801.97,-120.33"/>
</g>
<!-- QuotientGroup_quotientgroup_leftinverse&#45;&gt;QuotientGroup_congquot_negate -->
<g id="edge19" class="edge">
<title>QuotientGroup_quotientgroup_leftinverse&#45;&gt;QuotientGroup_congquot_negate</title>
<path fill="none" stroke="black" d="M511.86,-160.94C484.16,-150.46 447.9,-136.74 418.87,-125.76"/>
<polygon fill="black" stroke="black" points="419.92,-122.41 409.33,-122.15 417.45,-128.96 419.92,-122.41"/>
</g>
<!-- QuotientGroup_quotientgroup_leftinverse&#45;&gt;QuotientGroup_congquot_mon_unit -->
<g id="edge20" class="edge">
<title>QuotientGroup_quotientgroup_leftinverse&#45;&gt;QuotientGroup_congquot_mon_unit</title>
<path fill="none" stroke="black" d="M572.7,-160.05C582.22,-151.28 594.01,-140.43 604.43,-130.83"/>
<polygon fill="black" stroke="black" points="607.09,-133.14 612.08,-123.79 602.35,-127.99 607.09,-133.14"/>
</g>
<!-- QuotientGroup_quotientgroup_leftinverse&#45;&gt;QuotientGroup_congquot_sgop -->
<g id="edge21" class="edge">
<title>QuotientGroup_quotientgroup_leftinverse&#45;&gt;QuotientGroup_congquot_sgop</title>
<path fill="none" stroke="black" d="M621.64,-162.5C678.03,-150.35 758.03,-133.12 813.88,-121.09"/>
<polygon fill="black" stroke="black" points="814.63,-124.51 823.66,-118.98 813.15,-117.67 814.63,-124.51"/>
</g>
<!-- QuotientGroup_congquot_rightidentity -->
<g id="node17" class="node">
<title>QuotientGroup_congquot_rightidentity</title>
<g id="a_node17"><a xlink:href="QuotientGroup.html#congquot_rightidentity" xlink:title="congquot_rightidentity">
<ellipse fill="#f070d1" stroke="black" cx="1187.3" cy="-178" rx="116.98" ry="18"/>
<text text-anchor="middle" x="1187.3" y="-174.3" font-family="Times,serif" font-size="14.00">congquot_rightidentity</text>
</a>
</g>
</g>
<!-- QuotientGroup_ismonoid_quotientgroup&#45;&gt;QuotientGroup_congquot_rightidentity -->
<g id="edge22" class="edge">
<title>QuotientGroup_ismonoid_quotientgroup&#45;&gt;QuotientGroup_congquot_rightidentity</title>
<path fill="none" stroke="black" d="M1051.58,-304.15C1078.9,-278.96 1130.51,-231.37 1161.62,-202.68"/>
<polygon fill="black" stroke="black" points="1164.08,-205.18 1169.06,-195.82 1159.33,-200.03 1164.08,-205.18"/>
</g>
<!-- QuotientGroup_congquot_leftidentity -->
<g id="node18" class="node">
<title>QuotientGroup_congquot_leftidentity</title>
<g id="a_node18"><a xlink:href="QuotientGroup.html#congquot_leftidentity" xlink:title="congquot_leftidentity">
<ellipse fill="#f070d1" stroke="black" cx="879.3" cy="-178" rx="109.68" ry="18"/>
<text text-anchor="middle" x="879.3" y="-174.3" font-family="Times,serif" font-size="14.00">congquot_leftidentity</text>
</a>
</g>
</g>
<!-- QuotientGroup_ismonoid_quotientgroup&#45;&gt;QuotientGroup_congquot_leftidentity -->
<g id="edge23" class="edge">
<title>QuotientGroup_ismonoid_quotientgroup&#45;&gt;QuotientGroup_congquot_leftidentity</title>
<path fill="none" stroke="black" d="M1015.03,-304.15C987.71,-278.96 936.1,-231.37 904.99,-202.68"/>
<polygon fill="black" stroke="black" points="907.28,-200.03 897.55,-195.82 902.53,-205.18 907.28,-200.03"/>
</g>
<!-- QuotientGroup_issemigroup_congquot -->
<g id="node19" class="node">
<title>QuotientGroup_issemigroup_congquot</title>
<g id="a_node19"><a xlink:href="QuotientGroup.html#issemigroup_congquot" xlink:title="issemigroup_congquot">
<ellipse fill="#f070d1" stroke="black" cx="1440.3" cy="-250" rx="115.08" ry="18"/>
<text text-anchor="middle" x="1440.3" y="-246.3" font-family="Times,serif" font-size="14.00">issemigroup_congquot</text>
</a>
</g>
</g>
<!-- QuotientGroup_ismonoid_quotientgroup&#45;&gt;QuotientGroup_issemigroup_congquot -->
<g id="edge24" class="edge">
<title>QuotientGroup_ismonoid_quotientgroup&#45;&gt;QuotientGroup_issemigroup_congquot</title>
<path fill="none" stroke="black" d="M1109.86,-307.83C1179.9,-295.79 1283.36,-277.99 1355.8,-265.53"/>
<polygon fill="black" stroke="black" points="1356.55,-268.96 1365.81,-263.81 1355.36,-262.06 1356.55,-268.96"/>
</g>
<!-- QuotientGroup_congquot_rightidentity&#45;&gt;QuotientGroup_congquot_mon_unit -->
<g id="edge25" class="edge">
<title>QuotientGroup_congquot_rightidentity&#45;&gt;QuotientGroup_congquot_mon_unit</title>
<path fill="none" stroke="black" d="M1099.66,-165.99C996.18,-152.98 824.98,-131.47 720.43,-118.33"/>
<polygon fill="black" stroke="black" points="720.58,-114.82 710.22,-117.04 719.7,-121.76 720.58,-114.82"/>
</g>
<!-- QuotientGroup_congquot_rightidentity&#45;&gt;QuotientGroup_congquot_sgop -->
<g id="edge26" class="edge">
<title>QuotientGroup_congquot_rightidentity&#45;&gt;QuotientGroup_congquot_sgop</title>
<path fill="none" stroke="black" d="M1124.6,-162.75C1071.81,-150.75 996.61,-133.66 943.42,-121.57"/>
<polygon fill="black" stroke="black" points="943.95,-118.1 933.42,-119.3 942.4,-124.93 943.95,-118.1"/>
</g>
<!-- QuotientGroup_congquot_leftidentity&#45;&gt;QuotientGroup_congquot_mon_unit -->
<g id="edge27" class="edge">
<title>QuotientGroup_congquot_leftidentity&#45;&gt;QuotientGroup_congquot_mon_unit</title>
<path fill="none" stroke="black" d="M826.5,-162.15C787.11,-151.08 733.21,-135.93 691.87,-124.31"/>
<polygon fill="black" stroke="black" points="692.76,-120.92 682.18,-121.58 690.86,-127.66 692.76,-120.92"/>
</g>
<!-- QuotientGroup_congquot_leftidentity&#45;&gt;QuotientGroup_congquot_sgop -->
<g id="edge28" class="edge">
<title>QuotientGroup_congquot_leftidentity&#45;&gt;QuotientGroup_congquot_sgop</title>
<path fill="none" stroke="black" d="M879.3,-159.7C879.3,-151.98 879.3,-142.71 879.3,-134.11"/>
<polygon fill="black" stroke="black" points="882.8,-134.1 879.3,-124.1 875.8,-134.1 882.8,-134.1"/>
</g>
<!-- QuotientGroup_congquot_sgop_associative -->
<g id="node20" class="node">
<title>QuotientGroup_congquot_sgop_associative</title>
<g id="a_node20"><a xlink:href="QuotientGroup.html#congquot_sgop_associative" xlink:title="congquot_sgop_associative">
<ellipse fill="#f070d1" stroke="black" cx="1527.3" cy="-178" rx="135.68" ry="18"/>
<text text-anchor="middle" x="1527.3" y="-174.3" font-family="Times,serif" font-size="14.00">congquot_sgop_associative</text>
</a>
</g>
</g>
<!-- QuotientGroup_issemigroup_congquot&#45;&gt;QuotientGroup_congquot_sgop_associative -->
<g id="edge29" class="edge">
<title>QuotientGroup_issemigroup_congquot&#45;&gt;QuotientGroup_congquot_sgop_associative</title>
<path fill="none" stroke="black" d="M1461.36,-232.05C1472.48,-223.11 1486.28,-212.01 1498.39,-202.27"/>
<polygon fill="black" stroke="black" points="1500.84,-204.78 1506.44,-195.79 1496.45,-199.33 1500.84,-204.78"/>
</g>
<!-- QuotientGroup_congquot_sgop_associative&#45;&gt;QuotientGroup_congquot_sgop -->
<g id="edge30" class="edge">
<title>QuotientGroup_congquot_sgop_associative&#45;&gt;QuotientGroup_congquot_sgop</title>
<path fill="none" stroke="black" d="M1425.7,-166.02C1296.95,-152.12 1077.66,-128.43 959.84,-115.7"/>
<polygon fill="black" stroke="black" points="960.12,-112.21 949.8,-114.62 959.37,-119.17 960.12,-112.21"/>
</g>
<!-- QuotientGroup_CongruenceQuotient -->
<g id="node24" class="node">
<title>QuotientGroup_CongruenceQuotient</title>
<g id="a_node24"><a xlink:href="QuotientGroup.html#CongruenceQuotient" xlink:title="CongruenceQuotient">
<ellipse fill="#f070d1" stroke="black" cx="630.3" cy="-34" rx="106.68" ry="18"/>
<text text-anchor="middle" x="630.3" y="-30.3" font-family="Times,serif" font-size="14.00">CongruenceQuotient</text>
</a>
</g>
</g>
<!-- QuotientGroup_congquot_negate&#45;&gt;QuotientGroup_CongruenceQuotient -->
<g id="edge31" class="edge">
<title>QuotientGroup_congquot_negate&#45;&gt;QuotientGroup_CongruenceQuotient</title>
<path fill="none" stroke="black" d="M420.87,-91.17C462.58,-79.98 521.52,-64.17 566.26,-52.18"/>
<polygon fill="black" stroke="black" points="567.4,-55.5 576.15,-49.52 565.59,-48.73 567.4,-55.5"/>
</g>
<!-- QuotientGroup_congquot_mon_unit&#45;&gt;QuotientGroup_CongruenceQuotient -->
<g id="edge32" class="edge">
<title>QuotientGroup_congquot_mon_unit&#45;&gt;QuotientGroup_CongruenceQuotient</title>
<path fill="none" stroke="black" d="M630.3,-87.7C630.3,-79.98 630.3,-70.71 630.3,-62.11"/>
<polygon fill="black" stroke="black" points="633.8,-62.1 630.3,-52.1 626.8,-62.1 633.8,-62.1"/>
</g>
<!-- QuotientGroup_congquot_sgop&#45;&gt;QuotientGroup_CongruenceQuotient -->
<g id="edge33" class="edge">
<title>QuotientGroup_congquot_sgop&#45;&gt;QuotientGroup_CongruenceQuotient</title>
<path fill="none" stroke="black" d="M831.29,-91.5C791.83,-80.41 735.63,-64.61 692.68,-52.54"/>
<polygon fill="black" stroke="black" points="693.48,-49.12 682.9,-49.79 691.58,-55.86 693.48,-49.12"/>
</g>
</g>
</svg>
