<?xml version="1.0" encoding="UTF-8" standalone="no"?>
<!DOCTYPE svg PUBLIC "-//W3C//DTD SVG 1.1//EN"
 "http://www.w3.org/Graphics/SVG/1.1/DTD/svg11.dtd">
<!-- Generated by graphviz version 2.43.0 (0)
 -->
<!-- Title: HoTT_ObjectClassifier Pages: 1 -->
<svg width="1125pt" height="567pt"
 viewBox="0.00 0.00 1125.00 566.50" xmlns="http://www.w3.org/2000/svg" xmlns:xlink="http://www.w3.org/1999/xlink">
<g id="graph0" class="graph" transform="scale(1 1) rotate(0) translate(4 562.5)">
<title>HoTT_ObjectClassifier</title>
<polygon fill="white" stroke="transparent" points="-4,4 -4,-562.5 1121,-562.5 1121,4 -4,4"/>
<g id="clust1" class="cluster">
<title>cluster_ObjectClassifier</title>
<polygon fill="#ffffc3" stroke="black" points="8,-11.31 8,-547.19 1109,-547.19 1109,-11.31 8,-11.31"/>
<text text-anchor="middle" x="73" y="-531.99" font-family="Times,serif" font-size="14.00">ObjectClassifier</text>
</g>
<!-- ObjectClassifier_PowisoPFam -->
<g id="node1" class="node">
<title>ObjectClassifier_PowisoPFam</title>
<g id="a_node1"><a xlink:href="ObjectClassifier.html#PowisoPFam" xlink:title="PowisoPFam">
<ellipse fill="#f070d1" stroke="black" cx="1021" cy="-466.31" rx="69.58" ry="18"/>
<ellipse fill="none" stroke="black" cx="1021" cy="-466.31" rx="73.59" ry="22"/>
<ellipse fill="none" stroke="black" cx="1021" cy="-466.31" rx="77.59" ry="26"/>
<text text-anchor="middle" x="1021" y="-462.61" font-family="Times,serif" font-size="14.00">PowisoPFam</text>
</a>
</g>
</g>
<!-- ObjectClassifier_Pfam2pow -->
<g id="node2" class="node">
<title>ObjectClassifier_Pfam2pow</title>
<g id="a_node2"><a xlink:href="ObjectClassifier.html#Pfam2pow" xlink:title="Pfam2pow">
<ellipse fill="#f070d1" stroke="black" cx="1021" cy="-353.31" rx="59.59" ry="18"/>
<text text-anchor="middle" x="1021" y="-349.61" font-family="Times,serif" font-size="14.00">Pfam2pow</text>
</a>
</g>
</g>
<!-- ObjectClassifier_PowisoPFam&#45;&gt;ObjectClassifier_Pfam2pow -->
<g id="edge1" class="edge">
<title>ObjectClassifier_PowisoPFam&#45;&gt;ObjectClassifier_Pfam2pow</title>
<path fill="none" stroke="black" d="M1021,-440.12C1021,-422.67 1021,-399.44 1021,-381.55"/>
<polygon fill="black" stroke="black" points="1024.5,-381.46 1021,-371.46 1017.5,-381.47 1024.5,-381.46"/>
</g>
<!-- ObjectClassifier_pow2Pfam -->
<g id="node4" class="node">
<title>ObjectClassifier_pow2Pfam</title>
<g id="a_node4"><a xlink:href="ObjectClassifier.html#pow2Pfam" xlink:title="pow2Pfam">
<ellipse fill="#f070d1" stroke="black" cx="883" cy="-353.31" rx="59.59" ry="18"/>
<text text-anchor="middle" x="883" y="-349.61" font-family="Times,serif" font-size="14.00">pow2Pfam</text>
</a>
</g>
</g>
<!-- ObjectClassifier_PowisoPFam&#45;&gt;ObjectClassifier_pow2Pfam -->
<g id="edge2" class="edge">
<title>ObjectClassifier_PowisoPFam&#45;&gt;ObjectClassifier_pow2Pfam</title>
<path fill="none" stroke="black" d="M992.07,-442.04C968.17,-422.82 934.47,-395.71 910.87,-376.73"/>
<polygon fill="black" stroke="black" points="912.96,-373.92 902.97,-370.38 908.57,-379.37 912.96,-373.92"/>
</g>
<!-- ObjectClassifier_FamequivPow -->
<g id="node12" class="node">
<title>ObjectClassifier_FamequivPow</title>
<g id="a_node12"><a xlink:href="ObjectClassifier.html#FamequivPow" xlink:title="FamequivPow">
<ellipse fill="#f070d1" stroke="black" cx="1026" cy="-251.31" rx="75.29" ry="18"/>
<text text-anchor="middle" x="1026" y="-247.61" font-family="Times,serif" font-size="14.00">FamequivPow</text>
</a>
</g>
</g>
<!-- ObjectClassifier_PowisoPFam&#45;&gt;ObjectClassifier_FamequivPow -->
<g id="edge3" class="edge">
<title>ObjectClassifier_PowisoPFam&#45;&gt;ObjectClassifier_FamequivPow</title>
<path fill="none" stroke="black" d="M1045.23,-441.49C1061.37,-423.83 1081.18,-398.24 1090,-371.31 1101.48,-336.26 1074.72,-299.38 1052.36,-276.13"/>
<polygon fill="black" stroke="black" points="1054.56,-273.38 1045.01,-268.8 1049.61,-278.34 1054.56,-273.38"/>
</g>
<!-- ObjectClassifier_Pfam2pow_pf -->
<g id="node3" class="node">
<title>ObjectClassifier_Pfam2pow_pf</title>
<g id="a_node3"><a xlink:href="ObjectClassifier.html#Pfam2pow_pf" xlink:title="Pfam2pow_pf">
<ellipse fill="#f070d1" stroke="black" cx="859" cy="-251.31" rx="73.39" ry="18"/>
<text text-anchor="middle" x="859" y="-247.61" font-family="Times,serif" font-size="14.00">Pfam2pow_pf</text>
</a>
</g>
</g>
<!-- ObjectClassifier_Pfam2pow&#45;&gt;ObjectClassifier_Pfam2pow_pf -->
<g id="edge4" class="edge">
<title>ObjectClassifier_Pfam2pow&#45;&gt;ObjectClassifier_Pfam2pow_pf</title>
<path fill="none" stroke="black" d="M996.04,-336.91C968.58,-319.95 924.25,-292.59 893.48,-273.59"/>
<polygon fill="black" stroke="black" points="895.14,-270.51 884.79,-268.23 891.46,-276.46 895.14,-270.51"/>
</g>
<!-- ObjectClassifier_PFam -->
<g id="node6" class="node">
<title>ObjectClassifier_PFam</title>
<g id="a_node6"><a xlink:href="ObjectClassifier.html#PFam" xlink:title="PFam">
<ellipse fill="#f070d1" stroke="black" cx="750" cy="-150.31" rx="37.09" ry="18"/>
<text text-anchor="middle" x="750" y="-146.61" font-family="Times,serif" font-size="14.00">PFam</text>
</a>
</g>
</g>
<!-- ObjectClassifier_Pfam2pow_pf&#45;&gt;ObjectClassifier_PFam -->
<g id="edge5" class="edge">
<title>ObjectClassifier_Pfam2pow_pf&#45;&gt;ObjectClassifier_PFam</title>
<path fill="none" stroke="black" d="M840.51,-233.52C822.28,-216.96 794.32,-191.56 774.3,-173.38"/>
<polygon fill="black" stroke="black" points="776.54,-170.69 766.79,-166.56 771.84,-175.87 776.54,-170.69"/>
</g>
<!-- ObjectClassifier_f2p -->
<g id="node14" class="node">
<title>ObjectClassifier_f2p</title>
<g id="a_node14"><a xlink:href="ObjectClassifier.html#f2p" xlink:title="f2p">
<ellipse fill="#f070d1" stroke="black" cx="904" cy="-150.31" rx="27" ry="18"/>
<text text-anchor="middle" x="904" y="-146.61" font-family="Times,serif" font-size="14.00">f2p</text>
</a>
</g>
</g>
<!-- ObjectClassifier_Pfam2pow_pf&#45;&gt;ObjectClassifier_f2p -->
<g id="edge6" class="edge">
<title>ObjectClassifier_Pfam2pow_pf&#45;&gt;ObjectClassifier_f2p</title>
<path fill="none" stroke="black" d="M866.84,-233.07C873.89,-217.55 884.35,-194.54 892.38,-176.88"/>
<polygon fill="black" stroke="black" points="895.6,-178.25 896.55,-167.7 889.23,-175.36 895.6,-178.25"/>
</g>
<!-- ObjectClassifier_pow2Pfam_pf -->
<g id="node5" class="node">
<title>ObjectClassifier_pow2Pfam_pf</title>
<g id="a_node5"><a xlink:href="ObjectClassifier.html#pow2Pfam_pf" xlink:title="pow2Pfam_pf">
<ellipse fill="#f070d1" stroke="black" cx="694" cy="-251.31" rx="73.39" ry="18"/>
<text text-anchor="middle" x="694" y="-247.61" font-family="Times,serif" font-size="14.00">pow2Pfam_pf</text>
</a>
</g>
</g>
<!-- ObjectClassifier_pow2Pfam&#45;&gt;ObjectClassifier_pow2Pfam_pf -->
<g id="edge7" class="edge">
<title>ObjectClassifier_pow2Pfam&#45;&gt;ObjectClassifier_pow2Pfam_pf</title>
<path fill="none" stroke="black" d="M854.7,-337.34C822.28,-320.18 768.96,-291.97 732.71,-272.79"/>
<polygon fill="black" stroke="black" points="733.9,-269.46 723.42,-267.88 730.63,-275.65 733.9,-269.46"/>
</g>
<!-- ObjectClassifier_pow2Pfam&#45;&gt;ObjectClassifier_PFam -->
<g id="edge8" class="edge">
<title>ObjectClassifier_pow2Pfam&#45;&gt;ObjectClassifier_PFam</title>
<path fill="none" stroke="black" d="M840.22,-340.64C765.63,-320.09 618.97,-278.73 612,-269.31 578.54,-224.07 658.83,-184.55 710.51,-164.77"/>
<polygon fill="black" stroke="black" points="711.96,-167.97 720.11,-161.19 709.52,-161.41 711.96,-167.97"/>
</g>
<!-- ObjectClassifier_IsPfibered -->
<g id="node7" class="node">
<title>ObjectClassifier_IsPfibered</title>
<g id="a_node7"><a xlink:href="ObjectClassifier.html#IsPfibered" xlink:title="IsPfibered">
<ellipse fill="#f070d1" stroke="black" cx="710" cy="-48.31" rx="57.69" ry="18"/>
<text text-anchor="middle" x="710" y="-44.61" font-family="Times,serif" font-size="14.00">IsPfibered</text>
</a>
</g>
</g>
<!-- ObjectClassifier_pow2Pfam_pf&#45;&gt;ObjectClassifier_IsPfibered -->
<g id="edge9" class="edge">
<title>ObjectClassifier_pow2Pfam_pf&#45;&gt;ObjectClassifier_IsPfibered</title>
<path fill="none" stroke="black" d="M695.36,-233.17C698.14,-198.24 704.49,-118.55 707.84,-76.48"/>
<polygon fill="black" stroke="black" points="711.33,-76.65 708.64,-66.41 704.36,-76.1 711.33,-76.65"/>
</g>
<!-- ObjectClassifier_p2f -->
<g id="node15" class="node">
<title>ObjectClassifier_p2f</title>
<g id="a_node15"><a xlink:href="ObjectClassifier.html#p2f" xlink:title="p2f">
<ellipse fill="#f070d1" stroke="black" cx="832" cy="-150.31" rx="27" ry="18"/>
<text text-anchor="middle" x="832" y="-146.61" font-family="Times,serif" font-size="14.00">p2f</text>
</a>
</g>
</g>
<!-- ObjectClassifier_pow2Pfam_pf&#45;&gt;ObjectClassifier_p2f -->
<g id="edge10" class="edge">
<title>ObjectClassifier_pow2Pfam_pf&#45;&gt;ObjectClassifier_p2f</title>
<path fill="none" stroke="black" d="M716.79,-233.96C741.27,-216.4 780.13,-188.52 805.84,-170.08"/>
<polygon fill="black" stroke="black" points="807.94,-172.88 814.02,-164.21 803.86,-167.19 807.94,-172.88"/>
</g>
<!-- ObjectClassifier_PFam&#45;&gt;ObjectClassifier_IsPfibered -->
<g id="edge11" class="edge">
<title>ObjectClassifier_PFam&#45;&gt;ObjectClassifier_IsPfibered</title>
<path fill="none" stroke="black" d="M743.21,-132.35C737.01,-116.83 727.73,-93.63 720.56,-75.7"/>
<polygon fill="black" stroke="black" points="723.78,-74.34 716.82,-66.36 717.28,-76.94 723.78,-74.34"/>
</g>
<!-- ObjectClassifier_Fam -->
<g id="node16" class="node">
<title>ObjectClassifier_Fam</title>
<g id="a_node16"><a xlink:href="ObjectClassifier.html#Fam" xlink:title="Fam">
<ellipse fill="#f070d1" stroke="black" cx="832" cy="-48.31" rx="30.59" ry="18"/>
<text text-anchor="middle" x="832" y="-44.61" font-family="Times,serif" font-size="14.00">Fam</text>
</a>
</g>
</g>
<!-- ObjectClassifier_PFam&#45;&gt;ObjectClassifier_Fam -->
<g id="edge12" class="edge">
<title>ObjectClassifier_PFam&#45;&gt;ObjectClassifier_Fam</title>
<path fill="none" stroke="black" d="M763.17,-133.24C776.58,-116.89 797.51,-91.37 812.77,-72.76"/>
<polygon fill="black" stroke="black" points="815.49,-74.96 819.13,-65.01 810.08,-70.52 815.49,-74.96"/>
</g>
<!-- ObjectClassifier_objclasspb_is_fibrantreplacement -->
<g id="node8" class="node">
<title>ObjectClassifier_objclasspb_is_fibrantreplacement</title>
<g id="a_node8"><a xlink:href="ObjectClassifier.html#objclasspb_is_fibrantreplacement" xlink:title="objclasspb_is_fibrantreplacement">
<ellipse fill="#f070d1" stroke="black" cx="540" cy="-466.31" rx="165.17" ry="18"/>
<ellipse fill="none" stroke="black" cx="540" cy="-466.31" rx="169.17" ry="22"/>
<ellipse fill="none" stroke="black" cx="540" cy="-466.31" rx="173.17" ry="26"/>
<text text-anchor="middle" x="540" y="-462.61" font-family="Times,serif" font-size="14.00">objclasspb_is_fibrantreplacement</text>
</a>
</g>
</g>
<!-- ObjectClassifier_help_objclasspb_is_fibrantreplacement2 -->
<g id="node9" class="node">
<title>ObjectClassifier_help_objclasspb_is_fibrantreplacement2</title>
<g id="a_node9"><a xlink:href="ObjectClassifier.html#help_objclasspb_is_fibrantreplacement2" xlink:title="help_objclasspb_is_fibrantreplacement2">
<ellipse fill="#f070d1" stroke="black" cx="212" cy="-353.31" rx="195.77" ry="18"/>
<text text-anchor="middle" x="212" y="-349.61" font-family="Times,serif" font-size="14.00">help_objclasspb_is_fibrantreplacement2</text>
</a>
</g>
</g>
<!-- ObjectClassifier_objclasspb_is_fibrantreplacement&#45;&gt;ObjectClassifier_help_objclasspb_is_fibrantreplacement2 -->
<g id="edge13" class="edge">
<title>ObjectClassifier_objclasspb_is_fibrantreplacement&#45;&gt;ObjectClassifier_help_objclasspb_is_fibrantreplacement2</title>
<path fill="none" stroke="black" d="M472.04,-442.31C412.44,-422.14 326.71,-393.13 270.21,-374.01"/>
<polygon fill="black" stroke="black" points="271.3,-370.68 260.71,-370.79 269.06,-377.32 271.3,-370.68"/>
</g>
<!-- ObjectClassifier_help_objclasspb_is_fibrantreplacement -->
<g id="node10" class="node">
<title>ObjectClassifier_help_objclasspb_is_fibrantreplacement</title>
<g id="a_node10"><a xlink:href="ObjectClassifier.html#help_objclasspb_is_fibrantreplacement" xlink:title="help_objclasspb_is_fibrantreplacement">
<ellipse fill="#f070d1" stroke="black" cx="615" cy="-353.31" rx="189.57" ry="18"/>
<text text-anchor="middle" x="615" y="-349.61" font-family="Times,serif" font-size="14.00">help_objclasspb_is_fibrantreplacement</text>
</a>
</g>
</g>
<!-- ObjectClassifier_objclasspb_is_fibrantreplacement&#45;&gt;ObjectClassifier_help_objclasspb_is_fibrantreplacement -->
<g id="edge14" class="edge">
<title>ObjectClassifier_objclasspb_is_fibrantreplacement&#45;&gt;ObjectClassifier_help_objclasspb_is_fibrantreplacement</title>
<path fill="none" stroke="black" d="M556.83,-440.4C569.01,-422.38 585.41,-398.11 597.69,-379.93"/>
<polygon fill="black" stroke="black" points="600.65,-381.8 603.35,-371.55 594.85,-377.88 600.65,-381.8"/>
</g>
<!-- ObjectClassifier_topmap -->
<g id="node11" class="node">
<title>ObjectClassifier_topmap</title>
<g id="a_node11"><a xlink:href="ObjectClassifier.html#topmap" xlink:title="topmap">
<ellipse fill="#f070d1" stroke="black" cx="145" cy="-466.31" rx="46.27" ry="18"/>
<ellipse fill="none" stroke="black" cx="145" cy="-466.31" rx="50.28" ry="22"/>
<ellipse fill="none" stroke="black" cx="145" cy="-466.31" rx="54.29" ry="26"/>
<text text-anchor="middle" x="145" y="-462.61" font-family="Times,serif" font-size="14.00">topmap</text>
</a>
</g>
</g>
<!-- ObjectClassifier_transport_exp -->
<g id="node13" class="node">
<title>ObjectClassifier_transport_exp</title>
<g id="a_node13"><a xlink:href="ObjectClassifier.html#transport_exp" xlink:title="transport_exp">
<ellipse fill="#f070d1" stroke="black" cx="1026" cy="-150.31" rx="75.29" ry="18"/>
<text text-anchor="middle" x="1026" y="-146.61" font-family="Times,serif" font-size="14.00">transport_exp</text>
</a>
</g>
</g>
<!-- ObjectClassifier_FamequivPow&#45;&gt;ObjectClassifier_transport_exp -->
<g id="edge15" class="edge">
<title>ObjectClassifier_FamequivPow&#45;&gt;ObjectClassifier_transport_exp</title>
<path fill="none" stroke="black" d="M1026,-233.07C1026,-218.02 1026,-195.93 1026,-178.5"/>
<polygon fill="black" stroke="black" points="1029.5,-178.36 1026,-168.36 1022.5,-178.36 1029.5,-178.36"/>
</g>
<!-- ObjectClassifier_FamequivPow&#45;&gt;ObjectClassifier_f2p -->
<g id="edge16" class="edge">
<title>ObjectClassifier_FamequivPow&#45;&gt;ObjectClassifier_f2p</title>
<path fill="none" stroke="black" d="M1005.85,-233.96C984.64,-216.75 951.22,-189.63 928.49,-171.18"/>
<polygon fill="black" stroke="black" points="930.61,-168.4 920.64,-164.82 926.2,-173.84 930.61,-168.4"/>
</g>
<!-- ObjectClassifier_FamequivPow&#45;&gt;ObjectClassifier_p2f -->
<g id="edge17" class="edge">
<title>ObjectClassifier_FamequivPow&#45;&gt;ObjectClassifier_p2f</title>
<path fill="none" stroke="black" d="M995.26,-234.62C958.68,-215.96 898.01,-185 861.83,-166.53"/>
<polygon fill="black" stroke="black" points="863.25,-163.33 852.75,-161.9 860.07,-169.57 863.25,-163.33"/>
</g>
<!-- ObjectClassifier_f2p&#45;&gt;ObjectClassifier_Fam -->
<g id="edge18" class="edge">
<title>ObjectClassifier_f2p&#45;&gt;ObjectClassifier_Fam</title>
<path fill="none" stroke="black" d="M892.75,-133.69C881.14,-117.56 862.88,-92.2 849.4,-73.48"/>
<polygon fill="black" stroke="black" points="852.09,-71.23 843.41,-65.16 846.41,-75.32 852.09,-71.23"/>
</g>
<!-- ObjectClassifier_p2f&#45;&gt;ObjectClassifier_Fam -->
<g id="edge19" class="edge">
<title>ObjectClassifier_p2f&#45;&gt;ObjectClassifier_Fam</title>
<path fill="none" stroke="black" d="M832,-131.89C832,-116.69 832,-94.38 832,-76.78"/>
<polygon fill="black" stroke="black" points="835.5,-76.53 832,-66.53 828.5,-76.53 835.5,-76.53"/>
</g>
</g>
</svg>
