<?xml version="1.0" encoding="UTF-8" standalone="no"?>
<!DOCTYPE svg PUBLIC "-//W3C//DTD SVG 1.1//EN"
 "http://www.w3.org/Graphics/SVG/1.1/DTD/svg11.dtd">
<!-- Generated by graphviz version 2.43.0 (0)
 -->
<!-- Title: HoTT_Basics_Tactics Pages: 1 -->
<svg width="1022pt" height="515pt"
 viewBox="0.00 0.00 1022.00 515.00" xmlns="http://www.w3.org/2000/svg" xmlns:xlink="http://www.w3.org/1999/xlink">
<g id="graph0" class="graph" transform="scale(1 1) rotate(0) translate(4 511)">
<title>HoTT_Basics_Tactics</title>
<polygon fill="white" stroke="transparent" points="-4,4 -4,-511 1018,-511 1018,4 -4,4"/>
<g id="clust1" class="cluster">
<title>cluster_Tactics</title>
<polygon fill="#ffffc3" stroke="black" points="8,-15.19 8,-491.81 1006,-491.81 1006,-15.19 8,-15.19"/>
<text text-anchor="middle" x="41" y="-476.61" font-family="Times,serif" font-size="14.00">Tactics</text>
</g>
<!-- Tactics_issig_isequiv -->
<g id="node1" class="node">
<title>Tactics_issig_isequiv</title>
<g id="a_node1"><a xlink:href="Tactics.html#issig_isequiv" xlink:title="issig_isequiv">
<ellipse fill="#f070d1" stroke="black" cx="920" cy="-383.19" rx="69.58" ry="18"/>
<ellipse fill="none" stroke="black" cx="920" cy="-383.19" rx="73.59" ry="22"/>
<ellipse fill="none" stroke="black" cx="920" cy="-383.19" rx="77.59" ry="26"/>
<text text-anchor="middle" x="920" y="-379.49" font-family="Times,serif" font-size="14.00">issig_isequiv</text>
</a>
</g>
</g>
<!-- Tactics_issig_equiv -->
<g id="node2" class="node">
<title>Tactics_issig_equiv</title>
<g id="a_node2"><a xlink:href="Tactics.html#issig_equiv" xlink:title="issig_equiv">
<ellipse fill="#f070d1" stroke="black" cx="755" cy="-383.19" rx="61.96" ry="18"/>
<ellipse fill="none" stroke="black" cx="755" cy="-383.19" rx="65.98" ry="22"/>
<ellipse fill="none" stroke="black" cx="755" cy="-383.19" rx="69.99" ry="26"/>
<text text-anchor="middle" x="755" y="-379.49" font-family="Times,serif" font-size="14.00">issig_equiv</text>
</a>
</g>
</g>
<!-- Tactics_issig_contr -->
<g id="node3" class="node">
<title>Tactics_issig_contr</title>
<g id="a_node3"><a xlink:href="Tactics.html#issig_contr" xlink:title="issig_contr">
<ellipse fill="#f070d1" stroke="black" cx="598" cy="-383.19" rx="61.18" ry="18"/>
<ellipse fill="none" stroke="black" cx="598" cy="-383.19" rx="65.18" ry="22"/>
<ellipse fill="none" stroke="black" cx="598" cy="-383.19" rx="69.19" ry="26"/>
<text text-anchor="middle" x="598" y="-379.49" font-family="Times,serif" font-size="14.00">issig_contr</text>
</a>
</g>
</g>
<!-- Tactics_is_global_axiom_funext -->
<g id="node4" class="node">
<title>Tactics_is_global_axiom_funext</title>
<g id="a_node4"><a xlink:href="Tactics.html#is_global_axiom_funext" xlink:title="is_global_axiom_funext">
<ellipse fill="#7fffd4" stroke="black" cx="872" cy="-216.19" rx="117.77" ry="18"/>
<ellipse fill="none" stroke="black" cx="872" cy="-216.19" rx="121.77" ry="22"/>
<ellipse fill="none" stroke="black" cx="872" cy="-216.19" rx="125.78" ry="26"/>
<text text-anchor="middle" x="872" y="-212.49" font-family="Times,serif" font-size="14.00">is_global_axiom_funext</text>
</a>
</g>
</g>
<!-- Tactics_Build_IsGlobalAxiom -->
<g id="node9" class="node">
<title>Tactics_Build_IsGlobalAxiom</title>
<g id="a_node9"><a xlink:href="Tactics.html#Build_IsGlobalAxiom" xlink:title="Build_IsGlobalAxiom">
<ellipse fill="#7faaff" stroke="black" cx="872" cy="-64.19" rx="106.68" ry="18"/>
<text text-anchor="middle" x="872" y="-60.49" font-family="Times,serif" font-size="14.00">Build_IsGlobalAxiom</text>
</a>
</g>
</g>
<!-- Tactics_is_global_axiom_funext&#45;&gt;Tactics_Build_IsGlobalAxiom -->
<g id="edge1" class="edge">
<title>Tactics_is_global_axiom_funext&#45;&gt;Tactics_Build_IsGlobalAxiom</title>
<path fill="none" stroke="black" d="M872,-190.08C872,-163.14 872,-120.46 872,-92.64"/>
<polygon fill="black" stroke="black" points="875.5,-92.42 872,-82.42 868.5,-92.42 875.5,-92.42"/>
</g>
<!-- Tactics_IsGlobalAxiom -->
<g id="node10" class="node">
<title>Tactics_IsGlobalAxiom</title>
<g id="a_node10"><a xlink:href="Tactics.html#IsGlobalAxiom" xlink:title="IsGlobalAxiom">
<ellipse fill="#e2cdfa" stroke="black" cx="505" cy="-64.19" rx="77.19" ry="18"/>
<text text-anchor="middle" x="505" y="-60.49" font-family="Times,serif" font-size="14.00">IsGlobalAxiom</text>
</a>
</g>
</g>
<!-- Tactics_is_global_axiom_funext&#45;&gt;Tactics_IsGlobalAxiom -->
<g id="edge2" class="edge">
<title>Tactics_is_global_axiom_funext&#45;&gt;Tactics_IsGlobalAxiom</title>
<path fill="none" stroke="black" d="M817.06,-192.73C744.73,-163.17 618.85,-111.72 551.18,-84.07"/>
<polygon fill="black" stroke="black" points="552.21,-80.71 541.63,-80.16 549.57,-87.19 552.21,-80.71"/>
</g>
<!-- Tactics_IsGlobalAxiom_sind -->
<g id="node5" class="node">
<title>Tactics_IsGlobalAxiom_sind</title>
<g id="a_node5"><a xlink:href="Tactics.html#IsGlobalAxiom_sind" xlink:title="IsGlobalAxiom_sind">
<ellipse fill="#f070d1" stroke="black" cx="619" cy="-216.19" rx="101.29" ry="18"/>
<ellipse fill="none" stroke="black" cx="619" cy="-216.19" rx="105.29" ry="22"/>
<ellipse fill="none" stroke="black" cx="619" cy="-216.19" rx="109.28" ry="26"/>
<text text-anchor="middle" x="619" y="-212.49" font-family="Times,serif" font-size="14.00">IsGlobalAxiom_sind</text>
</a>
</g>
</g>
<!-- Tactics_IsGlobalAxiom_sind&#45;&gt;Tactics_IsGlobalAxiom -->
<g id="edge3" class="edge">
<title>Tactics_IsGlobalAxiom_sind&#45;&gt;Tactics_IsGlobalAxiom</title>
<path fill="none" stroke="black" d="M600.18,-190.42C579.08,-162.67 545.09,-117.94 523.95,-90.12"/>
<polygon fill="black" stroke="black" points="526.67,-87.91 517.83,-82.07 521.09,-92.15 526.67,-87.91"/>
</g>
<!-- Tactics_IsGlobalAxiom_rec -->
<g id="node6" class="node">
<title>Tactics_IsGlobalAxiom_rec</title>
<g id="a_node6"><a xlink:href="Tactics.html#IsGlobalAxiom_rec" xlink:title="IsGlobalAxiom_rec">
<ellipse fill="#f070d1" stroke="black" cx="406" cy="-383.19" rx="96.7" ry="18"/>
<ellipse fill="none" stroke="black" cx="406" cy="-383.19" rx="100.69" ry="22"/>
<ellipse fill="none" stroke="black" cx="406" cy="-383.19" rx="104.68" ry="26"/>
<text text-anchor="middle" x="406" y="-379.49" font-family="Times,serif" font-size="14.00">IsGlobalAxiom_rec</text>
</a>
</g>
</g>
<!-- Tactics_IsGlobalAxiom_rect -->
<g id="node8" class="node">
<title>Tactics_IsGlobalAxiom_rect</title>
<g id="a_node8"><a xlink:href="Tactics.html#IsGlobalAxiom_rect" xlink:title="IsGlobalAxiom_rect">
<ellipse fill="#f070d1" stroke="black" cx="391" cy="-216.19" rx="100.98" ry="18"/>
<text text-anchor="middle" x="391" y="-212.49" font-family="Times,serif" font-size="14.00">IsGlobalAxiom_rect</text>
</a>
</g>
</g>
<!-- Tactics_IsGlobalAxiom_rec&#45;&gt;Tactics_IsGlobalAxiom_rect -->
<g id="edge4" class="edge">
<title>Tactics_IsGlobalAxiom_rec&#45;&gt;Tactics_IsGlobalAxiom_rect</title>
<path fill="none" stroke="black" d="M403.72,-357.13C400.97,-326.81 396.34,-275.93 393.49,-244.6"/>
<polygon fill="black" stroke="black" points="396.95,-244.03 392.56,-234.39 389.98,-244.67 396.95,-244.03"/>
</g>
<!-- Tactics_IsGlobalAxiom_ind -->
<g id="node7" class="node">
<title>Tactics_IsGlobalAxiom_ind</title>
<g id="a_node7"><a xlink:href="Tactics.html#IsGlobalAxiom_ind" xlink:title="IsGlobalAxiom_ind">
<ellipse fill="#7fffd4" stroke="black" cx="167" cy="-216.19" rx="96.7" ry="18"/>
<ellipse fill="none" stroke="black" cx="167" cy="-216.19" rx="100.69" ry="22"/>
<ellipse fill="none" stroke="black" cx="167" cy="-216.19" rx="104.68" ry="26"/>
<text text-anchor="middle" x="167" y="-212.49" font-family="Times,serif" font-size="14.00">IsGlobalAxiom_ind</text>
</a>
</g>
</g>
<!-- Tactics_IsGlobalAxiom_ind&#45;&gt;Tactics_IsGlobalAxiom -->
<g id="edge5" class="edge">
<title>Tactics_IsGlobalAxiom_ind&#45;&gt;Tactics_IsGlobalAxiom</title>
<path fill="none" stroke="black" d="M216.51,-193.22C282.61,-163.88 398.65,-112.39 461.53,-84.48"/>
<polygon fill="black" stroke="black" points="463.06,-87.63 470.78,-80.38 460.22,-81.23 463.06,-87.63"/>
</g>
<!-- Tactics_IsGlobalAxiom_rect&#45;&gt;Tactics_IsGlobalAxiom -->
<g id="edge6" class="edge">
<title>Tactics_IsGlobalAxiom_rect&#45;&gt;Tactics_IsGlobalAxiom</title>
<path fill="none" stroke="black" d="M403.86,-198.28C423.87,-171.94 462.59,-121 485.88,-90.34"/>
<polygon fill="black" stroke="black" points="488.75,-92.35 492.02,-82.27 483.18,-88.12 488.75,-92.35"/>
</g>
<!-- Tactics_obligation -->
<g id="node11" class="node">
<title>Tactics_obligation</title>
<g id="a_node11"><a xlink:href="Tactics.html#obligation" xlink:title="obligation">
<ellipse fill="#f070d1" stroke="black" cx="218" cy="-383.19" rx="57.37" ry="18"/>
<ellipse fill="none" stroke="black" cx="218" cy="-383.19" rx="61.38" ry="22"/>
<ellipse fill="none" stroke="black" cx="218" cy="-383.19" rx="65.39" ry="26"/>
<text text-anchor="middle" x="218" y="-379.49" font-family="Times,serif" font-size="14.00">obligation</text>
</a>
</g>
</g>
<!-- Tactics_fix_proto -->
<g id="node12" class="node">
<title>Tactics_fix_proto</title>
<g id="a_node12"><a xlink:href="Tactics.html#fix_proto" xlink:title="fix_proto">
<ellipse fill="#f070d1" stroke="black" cx="75" cy="-383.19" rx="51.21" ry="18"/>
<ellipse fill="none" stroke="black" cx="75" cy="-383.19" rx="55.2" ry="22"/>
<ellipse fill="none" stroke="black" cx="75" cy="-383.19" rx="59.19" ry="26"/>
<text text-anchor="middle" x="75" y="-379.49" font-family="Times,serif" font-size="14.00">fix_proto</text>
</a>
</g>
</g>
</g>
</svg>
