<?xml version="1.0" encoding="UTF-8" standalone="no"?>
<!DOCTYPE svg PUBLIC "-//W3C//DTD SVG 1.1//EN"
 "http://www.w3.org/Graphics/SVG/1.1/DTD/svg11.dtd">
<!-- Generated by graphviz version 2.43.0 (0)
 -->
<!-- Title: HoTT_Cubical_DPath Pages: 1 -->
<svg width="5587pt" height="2798pt"
 viewBox="0.00 0.00 5587.00 2797.50" xmlns="http://www.w3.org/2000/svg" xmlns:xlink="http://www.w3.org/1999/xlink">
<g id="graph0" class="graph" transform="scale(1 1) rotate(0) translate(4 2793.5)">
<title>HoTT_Cubical_DPath</title>
<polygon fill="white" stroke="transparent" points="-4,4 -4,-2793.5 5583,-2793.5 5583,4 -4,4"/>
<g id="clust1" class="cluster">
<title>cluster_DPath</title>
<polygon fill="#ffffc3" stroke="black" points="8,-62.86 8,-2726.64 5571,-2726.64 5571,-62.86 8,-62.86"/>
<text text-anchor="middle" x="38" y="-2711.44" font-family="Times,serif" font-size="14.00">DPath</text>
</g>
<!-- DPath_dp_apD_path_transport -->
<g id="node1" class="node">
<title>DPath_dp_apD_path_transport</title>
<g id="a_node1"><a xlink:href="DPath.html#dp_apD_path_transport" xlink:title="dp_apD_path_transport">
<ellipse fill="#f070d1" stroke="black" cx="2283" cy="-1586.86" rx="118.88" ry="18"/>
<ellipse fill="none" stroke="black" cx="2283" cy="-1586.86" rx="122.88" ry="22"/>
<ellipse fill="none" stroke="black" cx="2283" cy="-1586.86" rx="126.88" ry="26"/>
<text text-anchor="middle" x="2283" y="-1583.16" font-family="Times,serif" font-size="14.00">dp_apD_path_transport</text>
</a>
</g>
</g>
<!-- DPath_dp_apD -->
<g id="node38" class="node">
<title>DPath_dp_apD</title>
<g id="a_node38"><a xlink:href="DPath.html#dp_apD" xlink:title="dp_apD">
<ellipse fill="#f070d1" stroke="black" cx="1963" cy="-895.86" rx="45.49" ry="18"/>
<text text-anchor="middle" x="1963" y="-892.16" font-family="Times,serif" font-size="14.00">dp_apD</text>
</a>
</g>
</g>
<!-- DPath_dp_apD_path_transport&#45;&gt;DPath_dp_apD -->
<g id="edge1" class="edge">
<title>DPath_dp_apD_path_transport&#45;&gt;DPath_dp_apD</title>
<path fill="none" stroke="black" d="M2271.42,-1560.93C2221.66,-1453.78 2026.15,-1032.83 1975.2,-923.12"/>
<polygon fill="black" stroke="black" points="1978.24,-921.37 1970.86,-913.78 1971.89,-924.32 1978.24,-921.37"/>
</g>
<!-- DPath_equiv_dp_path_transport -->
<g id="node43" class="node">
<title>DPath_equiv_dp_path_transport</title>
<g id="a_node43"><a xlink:href="DPath.html#equiv_dp_path_transport" xlink:title="equiv_dp_path_transport">
<ellipse fill="#f070d1" stroke="black" cx="3745" cy="-895.86" rx="126.18" ry="18"/>
<text text-anchor="middle" x="3745" y="-892.16" font-family="Times,serif" font-size="14.00">equiv_dp_path_transport</text>
</a>
</g>
</g>
<!-- DPath_dp_apD_path_transport&#45;&gt;DPath_equiv_dp_path_transport -->
<g id="edge2" class="edge">
<title>DPath_dp_apD_path_transport&#45;&gt;DPath_equiv_dp_path_transport</title>
<path fill="none" stroke="black" d="M2332.06,-1562.74C2556.91,-1456.77 3487.14,-1018.38 3701.02,-917.59"/>
<polygon fill="black" stroke="black" points="3702.81,-920.61 3710.37,-913.18 3699.83,-914.28 3702.81,-920.61"/>
</g>
<!-- DPath_equiv_dp_sigma -->
<g id="node2" class="node">
<title>DPath_equiv_dp_sigma</title>
<g id="a_node2"><a xlink:href="DPath.html#equiv_dp_sigma" xlink:title="equiv_dp_sigma">
<ellipse fill="#f070d1" stroke="black" cx="4410" cy="-2278.86" rx="84.49" ry="18"/>
<ellipse fill="none" stroke="black" cx="4410" cy="-2278.86" rx="88.49" ry="22"/>
<ellipse fill="none" stroke="black" cx="4410" cy="-2278.86" rx="92.49" ry="26"/>
<text text-anchor="middle" x="4410" y="-2275.16" font-family="Times,serif" font-size="14.00">equiv_dp_sigma</text>
</a>
</g>
</g>
<!-- DPath_equiv_path_sigma_dp -->
<g id="node7" class="node">
<title>DPath_equiv_path_sigma_dp</title>
<g id="a_node7"><a xlink:href="DPath.html#equiv_path_sigma_dp" xlink:title="equiv_path_sigma_dp">
<ellipse fill="#f070d1" stroke="black" cx="4528" cy="-1586.86" rx="109.68" ry="18"/>
<text text-anchor="middle" x="4528" y="-1583.16" font-family="Times,serif" font-size="14.00">equiv_path_sigma_dp</text>
</a>
</g>
</g>
<!-- DPath_equiv_dp_sigma&#45;&gt;DPath_equiv_path_sigma_dp -->
<g id="edge3" class="edge">
<title>DPath_equiv_dp_sigma&#45;&gt;DPath_equiv_path_sigma_dp</title>
<path fill="none" stroke="black" d="M4414.34,-2252.49C4432.75,-2144.84 4504.32,-1726.36 4523.34,-1615.14"/>
<polygon fill="black" stroke="black" points="4526.82,-1615.52 4525.06,-1605.07 4519.92,-1614.34 4526.82,-1615.52"/>
</g>
<!-- DPath_equiv_dp_forall_domain -->
<g id="node3" class="node">
<title>DPath_equiv_dp_forall_domain</title>
<g id="a_node3"><a xlink:href="DPath.html#equiv_dp_forall_domain" xlink:title="equiv_dp_forall_domain">
<ellipse fill="#f070d1" stroke="black" cx="4218" cy="-895.86" rx="119.67" ry="18"/>
<ellipse fill="none" stroke="black" cx="4218" cy="-895.86" rx="123.68" ry="22"/>
<ellipse fill="none" stroke="black" cx="4218" cy="-895.86" rx="127.68" ry="26"/>
<text text-anchor="middle" x="4218" y="-892.16" font-family="Times,serif" font-size="14.00">equiv_dp_forall_domain</text>
</a>
</g>
</g>
<!-- DPath_DPath -->
<g id="node44" class="node">
<title>DPath_DPath</title>
<g id="a_node44"><a xlink:href="DPath.html#DPath" xlink:title="DPath">
<ellipse fill="#f070d1" stroke="black" cx="1827" cy="-266.86" rx="38.99" ry="18"/>
<text text-anchor="middle" x="1827" y="-263.16" font-family="Times,serif" font-size="14.00">DPath</text>
</a>
</g>
</g>
<!-- DPath_equiv_dp_forall_domain&#45;&gt;DPath_DPath -->
<g id="edge4" class="edge">
<title>DPath_equiv_dp_forall_domain&#45;&gt;DPath_DPath</title>
<path fill="none" stroke="black" d="M4141.83,-874.89C3770.44,-777.5 2155.91,-354.11 1870.27,-279.21"/>
<polygon fill="black" stroke="black" points="1870.85,-275.74 1860.29,-276.59 1869.08,-282.51 1870.85,-275.74"/>
</g>
<!-- DPath_equiv_dp_arrow -->
<g id="node4" class="node">
<title>DPath_equiv_dp_arrow</title>
<g id="a_node4"><a xlink:href="DPath.html#equiv_dp_arrow" xlink:title="equiv_dp_arrow">
<ellipse fill="#f070d1" stroke="black" cx="3981" cy="-895.86" rx="83.7" ry="18"/>
<ellipse fill="none" stroke="black" cx="3981" cy="-895.86" rx="87.69" ry="22"/>
<ellipse fill="none" stroke="black" cx="3981" cy="-895.86" rx="91.69" ry="26"/>
<text text-anchor="middle" x="3981" y="-892.16" font-family="Times,serif" font-size="14.00">equiv_dp_arrow</text>
</a>
</g>
</g>
<!-- DPath_equiv_dp_arrow&#45;&gt;DPath_DPath -->
<g id="edge5" class="edge">
<title>DPath_equiv_dp_arrow&#45;&gt;DPath_DPath</title>
<path fill="none" stroke="black" d="M3918.57,-876.69C3597.38,-783.2 2135.8,-357.75 1868.9,-280.06"/>
<polygon fill="black" stroke="black" points="1869.79,-276.67 1859.21,-277.24 1867.83,-283.39 1869.79,-276.67"/>
</g>
<!-- DPath_equiv_dp_forall -->
<g id="node5" class="node">
<title>DPath_equiv_dp_forall</title>
<g id="a_node5"><a xlink:href="DPath.html#equiv_dp_forall" xlink:title="equiv_dp_forall">
<ellipse fill="#f070d1" stroke="black" cx="916" cy="-2278.86" rx="81.46" ry="18"/>
<ellipse fill="none" stroke="black" cx="916" cy="-2278.86" rx="85.48" ry="22"/>
<ellipse fill="none" stroke="black" cx="916" cy="-2278.86" rx="89.49" ry="26"/>
<text text-anchor="middle" x="916" y="-2275.16" font-family="Times,serif" font-size="14.00">equiv_dp_forall</text>
</a>
</g>
</g>
<!-- DPath_equiv_dp_forall&#45;&gt;DPath_equiv_path_sigma_dp -->
<g id="edge6" class="edge">
<title>DPath_equiv_dp_forall&#45;&gt;DPath_equiv_path_sigma_dp</title>
<path fill="none" stroke="black" d="M990.15,-2264.28C1359.6,-2196.52 3038.37,-1887.28 4409,-1612.86 4423.55,-1609.95 4439.08,-1606.75 4453.95,-1603.64"/>
<polygon fill="black" stroke="black" points="4455.06,-1606.99 4464.13,-1601.51 4453.62,-1600.14 4455.06,-1606.99"/>
</g>
<!-- DPath_dp_id -->
<g id="node40" class="node">
<title>DPath_dp_id</title>
<g id="a_node40"><a xlink:href="DPath.html#dp_id" xlink:title="dp_id">
<ellipse fill="#f070d1" stroke="black" cx="448" cy="-895.86" rx="36" ry="18"/>
<text text-anchor="middle" x="448" y="-892.16" font-family="Times,serif" font-size="14.00">dp_id</text>
</a>
</g>
</g>
<!-- DPath_equiv_dp_forall&#45;&gt;DPath_dp_id -->
<g id="edge7" class="edge">
<title>DPath_equiv_dp_forall&#45;&gt;DPath_dp_id</title>
<path fill="none" stroke="black" d="M872.64,-2256.06C737.87,-2185.48 326.4,-1948.29 177,-1612.86 58.1,-1345.92 343.33,-1009.37 426.22,-919.68"/>
<polygon fill="black" stroke="black" points="428.89,-921.94 433.15,-912.24 423.77,-917.17 428.89,-921.94"/>
</g>
<!-- DPath_ap_pr1_path_sigma_dp -->
<g id="node6" class="node">
<title>DPath_ap_pr1_path_sigma_dp</title>
<g id="a_node6"><a xlink:href="DPath.html#ap_pr1_path_sigma_dp" xlink:title="ap_pr1_path_sigma_dp">
<ellipse fill="#f070d1" stroke="black" cx="4645" cy="-2278.86" rx="116.19" ry="18"/>
<ellipse fill="none" stroke="black" cx="4645" cy="-2278.86" rx="120.18" ry="22"/>
<ellipse fill="none" stroke="black" cx="4645" cy="-2278.86" rx="124.18" ry="26"/>
<text text-anchor="middle" x="4645" y="-2275.16" font-family="Times,serif" font-size="14.00">ap_pr1_path_sigma_dp</text>
</a>
</g>
</g>
<!-- DPath_ap_pr1_path_sigma_dp&#45;&gt;DPath_equiv_path_sigma_dp -->
<g id="edge8" class="edge">
<title>DPath_ap_pr1_path_sigma_dp&#45;&gt;DPath_equiv_path_sigma_dp</title>
<path fill="none" stroke="black" d="M4640.7,-2252.49C4622.44,-2144.84 4551.48,-1726.36 4532.62,-1615.14"/>
<polygon fill="black" stroke="black" points="4536.04,-1614.34 4530.92,-1605.07 4529.14,-1615.51 4536.04,-1614.34"/>
</g>
<!-- DPath_equiv_path_sigma_dp&#45;&gt;DPath_equiv_dp_path_transport -->
<g id="edge9" class="edge">
<title>DPath_equiv_path_sigma_dp&#45;&gt;DPath_equiv_dp_path_transport</title>
<path fill="none" stroke="black" d="M4508.64,-1568.83C4402.87,-1475.76 3895.03,-1028.88 3771.92,-920.55"/>
<polygon fill="black" stroke="black" points="3774.2,-917.89 3764.38,-913.91 3769.57,-923.15 3774.2,-917.89"/>
</g>
<!-- DPath_dp_apD_compose -->
<g id="node8" class="node">
<title>DPath_dp_apD_compose</title>
<g id="a_node8"><a xlink:href="DPath.html#dp_apD_compose" xlink:title="dp_apD_compose">
<ellipse fill="#f070d1" stroke="black" cx="2293" cy="-2278.86" rx="90.2" ry="18"/>
<ellipse fill="none" stroke="black" cx="2293" cy="-2278.86" rx="94.19" ry="22"/>
<ellipse fill="none" stroke="black" cx="2293" cy="-2278.86" rx="98.18" ry="26"/>
<text text-anchor="middle" x="2293" y="-2275.16" font-family="Times,serif" font-size="14.00">dp_apD_compose</text>
</a>
</g>
</g>
<!-- DPath_dp_apD_compose_ -->
<g id="node9" class="node">
<title>DPath_dp_apD_compose_</title>
<g id="a_node9"><a xlink:href="DPath.html#dp_apD_compose'" xlink:title="dp_apD_compose&#39;">
<ellipse fill="#f070d1" stroke="black" cx="2045" cy="-1586.86" rx="92.88" ry="18"/>
<text text-anchor="middle" x="2045" y="-1583.16" font-family="Times,serif" font-size="14.00">dp_apD_compose&#39;</text>
</a>
</g>
</g>
<!-- DPath_dp_apD_compose&#45;&gt;DPath_dp_apD_compose_ -->
<g id="edge10" class="edge">
<title>DPath_dp_apD_compose&#45;&gt;DPath_dp_apD_compose_</title>
<path fill="none" stroke="black" d="M2284.03,-2252.9C2245.5,-2145.71 2094.27,-1724.95 2054.58,-1614.52"/>
<polygon fill="black" stroke="black" points="2057.87,-1613.33 2051.2,-1605.11 2051.29,-1615.7 2057.87,-1613.33"/>
</g>
<!-- DPath_equiv_dp_compose -->
<g id="node10" class="node">
<title>DPath_equiv_dp_compose</title>
<g id="a_node10"><a xlink:href="DPath.html#equiv_dp_compose" xlink:title="equiv_dp_compose">
<ellipse fill="#f070d1" stroke="black" cx="2525" cy="-1586.86" rx="96.68" ry="18"/>
<text text-anchor="middle" x="2525" y="-1583.16" font-family="Times,serif" font-size="14.00">equiv_dp_compose</text>
</a>
</g>
</g>
<!-- DPath_dp_apD_compose&#45;&gt;DPath_equiv_dp_compose -->
<g id="edge11" class="edge">
<title>DPath_dp_apD_compose&#45;&gt;DPath_equiv_dp_compose</title>
<path fill="none" stroke="black" d="M2301.39,-2252.9C2337.4,-2145.82 2478.62,-1725.8 2515.92,-1614.86"/>
<polygon fill="black" stroke="black" points="2519.33,-1615.7 2519.2,-1605.11 2512.7,-1613.47 2519.33,-1615.7"/>
</g>
<!-- DPath_equiv_dp_compose_ -->
<g id="node11" class="node">
<title>DPath_equiv_dp_compose_</title>
<g id="a_node11"><a xlink:href="DPath.html#equiv_dp_compose'" xlink:title="equiv_dp_compose&#39;">
<ellipse fill="#f070d1" stroke="black" cx="2126" cy="-895.86" rx="99.38" ry="18"/>
<text text-anchor="middle" x="2126" y="-892.16" font-family="Times,serif" font-size="14.00">equiv_dp_compose&#39;</text>
</a>
</g>
</g>
<!-- DPath_dp_apD_compose_&#45;&gt;DPath_equiv_dp_compose_ -->
<g id="edge12" class="edge">
<title>DPath_dp_apD_compose_&#45;&gt;DPath_equiv_dp_compose_</title>
<path fill="none" stroke="black" d="M2047,-1568.83C2057.83,-1476.69 2109.44,-1037.77 2122.82,-923.9"/>
<polygon fill="black" stroke="black" points="2126.3,-924.26 2124,-913.91 2119.35,-923.44 2126.3,-924.26"/>
</g>
<!-- DPath_dp_apD_compose_&#45;&gt;DPath_dp_apD -->
<g id="edge13" class="edge">
<title>DPath_dp_apD_compose_&#45;&gt;DPath_dp_apD</title>
<path fill="none" stroke="black" d="M2042.97,-1568.83C2032.01,-1476.69 1979.77,-1037.77 1966.22,-923.9"/>
<polygon fill="black" stroke="black" points="1969.69,-923.43 1965.03,-913.91 1962.74,-924.26 1969.69,-923.43"/>
</g>
<!-- DPath_equiv_dp_compose&#45;&gt;DPath_equiv_dp_compose_ -->
<g id="edge14" class="edge">
<title>DPath_equiv_dp_compose&#45;&gt;DPath_equiv_dp_compose_</title>
<path fill="none" stroke="black" d="M2515.14,-1568.83C2461.61,-1476.41 2206.06,-1035.11 2141.06,-922.87"/>
<polygon fill="black" stroke="black" points="2143.92,-920.81 2135.88,-913.91 2137.86,-924.32 2143.92,-920.81"/>
</g>
<!-- DPath_equiv_dp_compose_&#45;&gt;DPath_DPath -->
<g id="edge15" class="edge">
<title>DPath_equiv_dp_compose_&#45;&gt;DPath_DPath</title>
<path fill="none" stroke="black" d="M2117.85,-877.77C2076.46,-790.97 1889.58,-399.1 1839.42,-293.91"/>
<polygon fill="black" stroke="black" points="1842.47,-292.17 1835.01,-284.65 1836.15,-295.18 1842.47,-292.17"/>
</g>
<!-- DPath_equiv_dp_paths_FlFr_D -->
<g id="node12" class="node">
<title>DPath_equiv_dp_paths_FlFr_D</title>
<g id="a_node12"><a xlink:href="DPath.html#equiv_dp_paths_FlFr_D" xlink:title="equiv_dp_paths_FlFr_D">
<ellipse fill="#f070d1" stroke="black" cx="3533" cy="-1586.86" rx="118.09" ry="18"/>
<ellipse fill="none" stroke="black" cx="3533" cy="-1586.86" rx="122.09" ry="22"/>
<ellipse fill="none" stroke="black" cx="3533" cy="-1586.86" rx="126.08" ry="26"/>
<text text-anchor="middle" x="3533" y="-1583.16" font-family="Times,serif" font-size="14.00">equiv_dp_paths_FlFr_D</text>
</a>
</g>
</g>
<!-- DPath_equiv_dp_paths_FlFr_D&#45;&gt;DPath_equiv_dp_path_transport -->
<g id="edge16" class="edge">
<title>DPath_equiv_dp_paths_FlFr_D&#45;&gt;DPath_equiv_dp_path_transport</title>
<path fill="none" stroke="black" d="M3540.8,-1560.52C3573.9,-1452.92 3702.71,-1034.31 3736.72,-923.76"/>
<polygon fill="black" stroke="black" points="3740.12,-924.63 3739.71,-914.04 3733.43,-922.57 3740.12,-924.63"/>
</g>
<!-- DPath_equiv_dp_paths_lFFr -->
<g id="node13" class="node">
<title>DPath_equiv_dp_paths_lFFr</title>
<g id="a_node13"><a xlink:href="DPath.html#equiv_dp_paths_lFFr" xlink:title="equiv_dp_paths_lFFr">
<ellipse fill="#f070d1" stroke="black" cx="3274" cy="-1586.86" rx="106.67" ry="18"/>
<ellipse fill="none" stroke="black" cx="3274" cy="-1586.86" rx="110.68" ry="22"/>
<ellipse fill="none" stroke="black" cx="3274" cy="-1586.86" rx="114.68" ry="26"/>
<text text-anchor="middle" x="3274" y="-1583.16" font-family="Times,serif" font-size="14.00">equiv_dp_paths_lFFr</text>
</a>
</g>
</g>
<!-- DPath_equiv_dp_paths_lFFr&#45;&gt;DPath_equiv_dp_path_transport -->
<g id="edge17" class="edge">
<title>DPath_equiv_dp_paths_lFFr&#45;&gt;DPath_equiv_dp_path_transport</title>
<path fill="none" stroke="black" d="M3291.04,-1560.93C3364.43,-1453.58 3653.16,-1031.21 3727.48,-922.49"/>
<polygon fill="black" stroke="black" points="3730.47,-924.31 3733.23,-914.08 3724.7,-920.36 3730.47,-924.31"/>
</g>
<!-- DPath_equiv_dp_paths_FlFr -->
<g id="node14" class="node">
<title>DPath_equiv_dp_paths_FlFr</title>
<g id="a_node14"><a xlink:href="DPath.html#equiv_dp_paths_FlFr" xlink:title="equiv_dp_paths_FlFr">
<ellipse fill="#f070d1" stroke="black" cx="3027" cy="-1586.86" rx="106.67" ry="18"/>
<ellipse fill="none" stroke="black" cx="3027" cy="-1586.86" rx="110.68" ry="22"/>
<ellipse fill="none" stroke="black" cx="3027" cy="-1586.86" rx="114.68" ry="26"/>
<text text-anchor="middle" x="3027" y="-1583.16" font-family="Times,serif" font-size="14.00">equiv_dp_paths_FlFr</text>
</a>
</g>
</g>
<!-- DPath_equiv_dp_paths_FlFr&#45;&gt;DPath_equiv_dp_path_transport -->
<g id="edge18" class="edge">
<title>DPath_equiv_dp_paths_FlFr&#45;&gt;DPath_equiv_dp_path_transport</title>
<path fill="none" stroke="black" d="M3052.55,-1561.34C3164.29,-1454.12 3609.22,-1027.15 3719.95,-920.9"/>
<polygon fill="black" stroke="black" points="3722.54,-923.26 3727.34,-913.81 3717.7,-918.21 3722.54,-923.26"/>
</g>
<!-- DPath_equiv_dp_paths_FFlr -->
<g id="node15" class="node">
<title>DPath_equiv_dp_paths_FFlr</title>
<g id="a_node15"><a xlink:href="DPath.html#equiv_dp_paths_FFlr" xlink:title="equiv_dp_paths_FFlr">
<ellipse fill="#f070d1" stroke="black" cx="5448" cy="-1586.86" rx="106.67" ry="18"/>
<ellipse fill="none" stroke="black" cx="5448" cy="-1586.86" rx="110.68" ry="22"/>
<ellipse fill="none" stroke="black" cx="5448" cy="-1586.86" rx="114.68" ry="26"/>
<text text-anchor="middle" x="5448" y="-1583.16" font-family="Times,serif" font-size="14.00">equiv_dp_paths_FFlr</text>
</a>
</g>
</g>
<!-- DPath_equiv_dp_paths_FFlr&#45;&gt;DPath_equiv_dp_path_transport -->
<g id="edge19" class="edge">
<title>DPath_equiv_dp_paths_FFlr&#45;&gt;DPath_equiv_dp_path_transport</title>
<path fill="none" stroke="black" d="M5393.74,-1563.91C5136.34,-1459.77 4040.53,-1016.43 3794.27,-916.8"/>
<polygon fill="black" stroke="black" points="3795.44,-913.49 3784.86,-912.99 3792.82,-919.98 3795.44,-913.49"/>
</g>
<!-- DPath_equiv_dp_paths_Fr -->
<g id="node16" class="node">
<title>DPath_equiv_dp_paths_Fr</title>
<g id="a_node16"><a xlink:href="DPath.html#equiv_dp_paths_Fr" xlink:title="equiv_dp_paths_Fr">
<ellipse fill="#f070d1" stroke="black" cx="5210" cy="-1586.86" rx="97.48" ry="18"/>
<ellipse fill="none" stroke="black" cx="5210" cy="-1586.86" rx="101.48" ry="22"/>
<ellipse fill="none" stroke="black" cx="5210" cy="-1586.86" rx="105.48" ry="26"/>
<text text-anchor="middle" x="5210" y="-1583.16" font-family="Times,serif" font-size="14.00">equiv_dp_paths_Fr</text>
</a>
</g>
</g>
<!-- DPath_equiv_dp_paths_Fr&#45;&gt;DPath_equiv_dp_path_transport -->
<g id="edge20" class="edge">
<title>DPath_equiv_dp_paths_Fr&#45;&gt;DPath_equiv_dp_path_transport</title>
<path fill="none" stroke="black" d="M5162.5,-1563.52C4940.11,-1458.93 4003.54,-1018.45 3788.94,-917.53"/>
<polygon fill="black" stroke="black" points="3790.39,-914.34 3779.85,-913.25 3787.41,-920.68 3790.39,-914.34"/>
</g>
<!-- DPath_equiv_dp_paths_Fl -->
<g id="node17" class="node">
<title>DPath_equiv_dp_paths_Fl</title>
<g id="a_node17"><a xlink:href="DPath.html#equiv_dp_paths_Fl" xlink:title="equiv_dp_paths_Fl">
<ellipse fill="#f070d1" stroke="black" cx="4982" cy="-1586.86" rx="96.37" ry="18"/>
<ellipse fill="none" stroke="black" cx="4982" cy="-1586.86" rx="100.38" ry="22"/>
<ellipse fill="none" stroke="black" cx="4982" cy="-1586.86" rx="104.38" ry="26"/>
<text text-anchor="middle" x="4982" y="-1583.16" font-family="Times,serif" font-size="14.00">equiv_dp_paths_Fl</text>
</a>
</g>
</g>
<!-- DPath_equiv_dp_paths_Fl&#45;&gt;DPath_equiv_dp_path_transport -->
<g id="edge21" class="edge">
<title>DPath_equiv_dp_paths_Fl&#45;&gt;DPath_equiv_dp_path_transport</title>
<path fill="none" stroke="black" d="M4940.84,-1562.94C4751.72,-1457.6 3967.46,-1020.77 3783.66,-918.4"/>
<polygon fill="black" stroke="black" points="3785.31,-915.31 3774.87,-913.5 3781.91,-921.43 3785.31,-915.31"/>
</g>
<!-- DPath_equiv_dp_paths_lr -->
<g id="node18" class="node">
<title>DPath_equiv_dp_paths_lr</title>
<g id="a_node18"><a xlink:href="DPath.html#equiv_dp_paths_lr" xlink:title="equiv_dp_paths_lr">
<ellipse fill="#f070d1" stroke="black" cx="4758" cy="-1586.86" rx="94.46" ry="18"/>
<ellipse fill="none" stroke="black" cx="4758" cy="-1586.86" rx="98.47" ry="22"/>
<ellipse fill="none" stroke="black" cx="4758" cy="-1586.86" rx="102.48" ry="26"/>
<text text-anchor="middle" x="4758" y="-1583.16" font-family="Times,serif" font-size="14.00">equiv_dp_paths_lr</text>
</a>
</g>
</g>
<!-- DPath_equiv_dp_paths_lr&#45;&gt;DPath_equiv_dp_path_transport -->
<g id="edge22" class="edge">
<title>DPath_equiv_dp_paths_lr&#45;&gt;DPath_equiv_dp_path_transport</title>
<path fill="none" stroke="black" d="M4723.42,-1562.34C4567.54,-1456.32 3931.11,-1023.45 3778.17,-919.42"/>
<polygon fill="black" stroke="black" points="3779.85,-916.33 3769.61,-913.6 3775.91,-922.12 3779.85,-916.33"/>
</g>
<!-- DPath_equiv_dp_paths_r -->
<g id="node19" class="node">
<title>DPath_equiv_dp_paths_r</title>
<g id="a_node19"><a xlink:href="DPath.html#equiv_dp_paths_r" xlink:title="equiv_dp_paths_r">
<ellipse fill="#f070d1" stroke="black" cx="4301" cy="-1586.86" rx="90.98" ry="18"/>
<ellipse fill="none" stroke="black" cx="4301" cy="-1586.86" rx="94.98" ry="22"/>
<ellipse fill="none" stroke="black" cx="4301" cy="-1586.86" rx="98.98" ry="26"/>
<text text-anchor="middle" x="4301" y="-1583.16" font-family="Times,serif" font-size="14.00">equiv_dp_paths_r</text>
</a>
</g>
</g>
<!-- DPath_equiv_dp_paths_r&#45;&gt;DPath_equiv_dp_path_transport -->
<g id="edge23" class="edge">
<title>DPath_equiv_dp_paths_r&#45;&gt;DPath_equiv_dp_path_transport</title>
<path fill="none" stroke="black" d="M4281.21,-1561.34C4194.95,-1454.44 3852.21,-1029.71 3765.18,-921.87"/>
<polygon fill="black" stroke="black" points="3767.68,-919.4 3758.68,-913.81 3762.24,-923.79 3767.68,-919.4"/>
</g>
<!-- DPath_equiv_dp_paths_l -->
<g id="node20" class="node">
<title>DPath_equiv_dp_paths_l</title>
<g id="a_node20"><a xlink:href="DPath.html#equiv_dp_paths_l" xlink:title="equiv_dp_paths_l">
<ellipse fill="#f070d1" stroke="black" cx="4086" cy="-1586.86" rx="89.87" ry="18"/>
<ellipse fill="none" stroke="black" cx="4086" cy="-1586.86" rx="93.88" ry="22"/>
<ellipse fill="none" stroke="black" cx="4086" cy="-1586.86" rx="97.88" ry="26"/>
<text text-anchor="middle" x="4086" y="-1583.16" font-family="Times,serif" font-size="14.00">equiv_dp_paths_l</text>
</a>
</g>
</g>
<!-- DPath_equiv_dp_paths_l&#45;&gt;DPath_equiv_dp_path_transport -->
<g id="edge24" class="edge">
<title>DPath_equiv_dp_paths_l&#45;&gt;DPath_equiv_dp_path_transport</title>
<path fill="none" stroke="black" d="M4073.66,-1560.93C4020.64,-1453.79 3812.33,-1032.91 3758.01,-923.15"/>
<polygon fill="black" stroke="black" points="3761.09,-921.49 3753.52,-914.08 3754.82,-924.6 3761.09,-921.49"/>
</g>
<!-- DPath_dp_concat_p_pp -->
<g id="node21" class="node">
<title>DPath_dp_concat_p_pp</title>
<g id="a_node21"><a xlink:href="DPath.html#dp_concat_p_pp" xlink:title="dp_concat_p_pp">
<ellipse fill="#f070d1" stroke="black" cx="1021" cy="-1586.86" rx="83.37" ry="18"/>
<ellipse fill="none" stroke="black" cx="1021" cy="-1586.86" rx="87.38" ry="22"/>
<ellipse fill="none" stroke="black" cx="1021" cy="-1586.86" rx="91.39" ry="26"/>
<text text-anchor="middle" x="1021" y="-1583.16" font-family="Times,serif" font-size="14.00">dp_concat_p_pp</text>
</a>
</g>
</g>
<!-- DPath_dp_concat -->
<g id="node33" class="node">
<title>DPath_dp_concat</title>
<g id="a_node33"><a xlink:href="DPath.html#dp_concat" xlink:title="dp_concat">
<ellipse fill="#f070d1" stroke="black" cx="1021" cy="-895.86" rx="57.39" ry="18"/>
<text text-anchor="middle" x="1021" y="-892.16" font-family="Times,serif" font-size="14.00">dp_concat</text>
</a>
</g>
</g>
<!-- DPath_dp_concat_p_pp&#45;&gt;DPath_dp_concat -->
<g id="edge25" class="edge">
<title>DPath_dp_concat_p_pp&#45;&gt;DPath_dp_concat</title>
<path fill="none" stroke="black" d="M1021,-1560.52C1021,-1453.03 1021,-1035.16 1021,-924.1"/>
<polygon fill="black" stroke="black" points="1024.5,-924.04 1021,-914.04 1017.5,-924.04 1024.5,-924.04"/>
</g>
<!-- DPath_dp_concat_pp_p -->
<g id="node22" class="node">
<title>DPath_dp_concat_pp_p</title>
<g id="a_node22"><a xlink:href="DPath.html#dp_concat_pp_p" xlink:title="dp_concat_pp_p">
<ellipse fill="#f070d1" stroke="black" cx="639" cy="-1586.86" rx="83.37" ry="18"/>
<ellipse fill="none" stroke="black" cx="639" cy="-1586.86" rx="87.38" ry="22"/>
<ellipse fill="none" stroke="black" cx="639" cy="-1586.86" rx="91.39" ry="26"/>
<text text-anchor="middle" x="639" y="-1583.16" font-family="Times,serif" font-size="14.00">dp_concat_pp_p</text>
</a>
</g>
</g>
<!-- DPath_dp_concat_pp_p&#45;&gt;DPath_dp_concat -->
<g id="edge26" class="edge">
<title>DPath_dp_concat_pp_p&#45;&gt;DPath_dp_concat</title>
<path fill="none" stroke="black" d="M652.82,-1560.93C712.29,-1453.67 946.08,-1031.99 1006.62,-922.79"/>
<polygon fill="black" stroke="black" points="1009.83,-924.22 1011.62,-913.78 1003.71,-920.83 1009.83,-924.22"/>
</g>
<!-- DPath_dp_concat_pV -->
<g id="node23" class="node">
<title>DPath_dp_concat_pV</title>
<g id="a_node23"><a xlink:href="DPath.html#dp_concat_pV" xlink:title="dp_concat_pV">
<ellipse fill="#f070d1" stroke="black" cx="830" cy="-1586.86" rx="73.39" ry="18"/>
<ellipse fill="none" stroke="black" cx="830" cy="-1586.86" rx="77.39" ry="22"/>
<ellipse fill="none" stroke="black" cx="830" cy="-1586.86" rx="81.39" ry="26"/>
<text text-anchor="middle" x="830" y="-1583.16" font-family="Times,serif" font-size="14.00">dp_concat_pV</text>
</a>
</g>
</g>
<!-- DPath_dp_inverse -->
<g id="node30" class="node">
<title>DPath_dp_inverse</title>
<g id="a_node30"><a xlink:href="DPath.html#dp_inverse" xlink:title="dp_inverse">
<ellipse fill="#f070d1" stroke="black" cx="1271" cy="-895.86" rx="61.19" ry="18"/>
<text text-anchor="middle" x="1271" y="-892.16" font-family="Times,serif" font-size="14.00">dp_inverse</text>
</a>
</g>
</g>
<!-- DPath_dp_concat_pV&#45;&gt;DPath_dp_inverse -->
<g id="edge27" class="edge">
<title>DPath_dp_concat_pV&#45;&gt;DPath_dp_inverse</title>
<path fill="none" stroke="black" d="M845.7,-1561.34C913.98,-1454.66 1184.88,-1031.41 1254.58,-922.52"/>
<polygon fill="black" stroke="black" points="1257.71,-924.12 1260.15,-913.81 1251.81,-920.35 1257.71,-924.12"/>
</g>
<!-- DPath_dp_concat_pV&#45;&gt;DPath_dp_concat -->
<g id="edge28" class="edge">
<title>DPath_dp_concat_pV&#45;&gt;DPath_dp_concat</title>
<path fill="none" stroke="black" d="M836.91,-1560.93C866.55,-1454.01 982.82,-1034.6 1013.53,-923.82"/>
<polygon fill="black" stroke="black" points="1016.93,-924.65 1016.23,-914.08 1010.18,-922.78 1016.93,-924.65"/>
</g>
<!-- DPath_dp_concat_pV&#45;&gt;DPath_dp_id -->
<g id="edge29" class="edge">
<title>DPath_dp_concat_pV&#45;&gt;DPath_dp_id</title>
<path fill="none" stroke="black" d="M816.18,-1560.93C756.65,-1453.56 522.41,-1031.06 462.18,-922.44"/>
<polygon fill="black" stroke="black" points="465.12,-920.52 457.21,-913.48 459,-923.92 465.12,-920.52"/>
</g>
<!-- DPath_dp_concat_Vp -->
<g id="node24" class="node">
<title>DPath_dp_concat_Vp</title>
<g id="a_node24"><a xlink:href="DPath.html#dp_concat_Vp" xlink:title="dp_concat_Vp">
<ellipse fill="#f070d1" stroke="black" cx="1212" cy="-1586.86" rx="73.39" ry="18"/>
<ellipse fill="none" stroke="black" cx="1212" cy="-1586.86" rx="77.39" ry="22"/>
<ellipse fill="none" stroke="black" cx="1212" cy="-1586.86" rx="81.39" ry="26"/>
<text text-anchor="middle" x="1212" y="-1583.16" font-family="Times,serif" font-size="14.00">dp_concat_Vp</text>
</a>
</g>
</g>
<!-- DPath_dp_concat_Vp&#45;&gt;DPath_dp_inverse -->
<g id="edge30" class="edge">
<title>DPath_dp_concat_Vp&#45;&gt;DPath_dp_inverse</title>
<path fill="none" stroke="black" d="M1214.17,-1560.52C1223.37,-1453.03 1259.16,-1035.16 1268.67,-924.1"/>
<polygon fill="black" stroke="black" points="1272.16,-924.31 1269.53,-914.04 1265.19,-923.71 1272.16,-924.31"/>
</g>
<!-- DPath_dp_concat_Vp&#45;&gt;DPath_dp_concat -->
<g id="edge31" class="edge">
<title>DPath_dp_concat_Vp&#45;&gt;DPath_dp_concat</title>
<path fill="none" stroke="black" d="M1205.09,-1560.93C1175.45,-1454.01 1059.18,-1034.6 1028.47,-923.82"/>
<polygon fill="black" stroke="black" points="1031.82,-922.78 1025.77,-914.08 1025.07,-924.65 1031.82,-922.78"/>
</g>
<!-- DPath_dp_concat_Vp&#45;&gt;DPath_dp_id -->
<g id="edge32" class="edge">
<title>DPath_dp_concat_Vp&#45;&gt;DPath_dp_id</title>
<path fill="none" stroke="black" d="M1185.7,-1562.15C1067.45,-1455.5 585.79,-1021.12 472.12,-918.61"/>
<polygon fill="black" stroke="black" points="474.35,-915.91 464.58,-911.81 469.66,-921.11 474.35,-915.91"/>
</g>
<!-- DPath_dp_concat_1p -->
<g id="node25" class="node">
<title>DPath_dp_concat_1p</title>
<g id="a_node25"><a xlink:href="DPath.html#dp_concat_1p" xlink:title="dp_concat_1p">
<ellipse fill="#f070d1" stroke="black" cx="448" cy="-1586.86" rx="73.39" ry="18"/>
<ellipse fill="none" stroke="black" cx="448" cy="-1586.86" rx="77.39" ry="22"/>
<ellipse fill="none" stroke="black" cx="448" cy="-1586.86" rx="81.39" ry="26"/>
<text text-anchor="middle" x="448" y="-1583.16" font-family="Times,serif" font-size="14.00">dp_concat_1p</text>
</a>
</g>
</g>
<!-- DPath_dp_concat_1p&#45;&gt;DPath_dp_concat -->
<g id="edge33" class="edge">
<title>DPath_dp_concat_1p&#45;&gt;DPath_dp_concat</title>
<path fill="none" stroke="black" d="M468.39,-1561.34C557.39,-1454.33 911.29,-1028.78 1000.5,-921.51"/>
<polygon fill="black" stroke="black" points="1003.45,-923.44 1007.15,-913.51 998.07,-918.96 1003.45,-923.44"/>
</g>
<!-- DPath_dp_concat_1p&#45;&gt;DPath_dp_id -->
<g id="edge34" class="edge">
<title>DPath_dp_concat_1p&#45;&gt;DPath_dp_id</title>
<path fill="none" stroke="black" d="M448,-1560.52C448,-1453.03 448,-1035.16 448,-924.1"/>
<polygon fill="black" stroke="black" points="451.5,-924.04 448,-914.04 444.5,-924.04 451.5,-924.04"/>
</g>
<!-- DPath_dp_concat_p1 -->
<g id="node26" class="node">
<title>DPath_dp_concat_p1</title>
<g id="a_node26"><a xlink:href="DPath.html#dp_concat_p1" xlink:title="dp_concat_p1">
<ellipse fill="#f070d1" stroke="black" cx="267" cy="-1586.86" rx="73.39" ry="18"/>
<ellipse fill="none" stroke="black" cx="267" cy="-1586.86" rx="77.39" ry="22"/>
<ellipse fill="none" stroke="black" cx="267" cy="-1586.86" rx="81.39" ry="26"/>
<text text-anchor="middle" x="267" y="-1583.16" font-family="Times,serif" font-size="14.00">dp_concat_p1</text>
</a>
</g>
</g>
<!-- DPath_dp_concat_p1&#45;&gt;DPath_dp_concat -->
<g id="edge35" class="edge">
<title>DPath_dp_concat_p1&#45;&gt;DPath_dp_concat</title>
<path fill="none" stroke="black" d="M292.95,-1562.15C409.03,-1456.08 879.88,-1025.82 995.34,-920.31"/>
<polygon fill="black" stroke="black" points="998.01,-922.61 1003.03,-913.28 993.29,-917.44 998.01,-922.61"/>
</g>
<!-- DPath_dp_concat_p1&#45;&gt;DPath_dp_id -->
<g id="edge36" class="edge">
<title>DPath_dp_concat_p1&#45;&gt;DPath_dp_id</title>
<path fill="none" stroke="black" d="M273.55,-1560.93C301.67,-1453.89 412.06,-1033.68 441.01,-923.46"/>
<polygon fill="black" stroke="black" points="444.4,-924.34 443.56,-913.78 437.63,-922.56 444.4,-924.34"/>
</g>
<!-- DPath_dp_const_pp -->
<g id="node27" class="node">
<title>DPath_dp_const_pp</title>
<g id="a_node27"><a xlink:href="DPath.html#dp_const_pp" xlink:title="dp_const_pp">
<ellipse fill="#f070d1" stroke="black" cx="1387" cy="-1586.86" rx="67.68" ry="18"/>
<ellipse fill="none" stroke="black" cx="1387" cy="-1586.86" rx="71.68" ry="22"/>
<ellipse fill="none" stroke="black" cx="1387" cy="-1586.86" rx="75.69" ry="26"/>
<text text-anchor="middle" x="1387" y="-1583.16" font-family="Times,serif" font-size="14.00">dp_const_pp</text>
</a>
</g>
</g>
<!-- DPath_dp_const_pp&#45;&gt;DPath_dp_concat -->
<g id="edge37" class="edge">
<title>DPath_dp_const_pp&#45;&gt;DPath_dp_concat</title>
<path fill="none" stroke="black" d="M1373.76,-1560.93C1316.78,-1453.67 1092.78,-1031.99 1034.77,-922.79"/>
<polygon fill="black" stroke="black" points="1037.77,-920.97 1029.99,-913.78 1031.59,-924.25 1037.77,-920.97"/>
</g>
<!-- DPath_equiv_dp_const -->
<g id="node36" class="node">
<title>DPath_equiv_dp_const</title>
<g id="a_node36"><a xlink:href="DPath.html#equiv_dp_const" xlink:title="equiv_dp_const">
<ellipse fill="#f070d1" stroke="black" cx="1490" cy="-895.86" rx="81.49" ry="18"/>
<text text-anchor="middle" x="1490" y="-892.16" font-family="Times,serif" font-size="14.00">equiv_dp_const</text>
</a>
</g>
</g>
<!-- DPath_dp_const_pp&#45;&gt;DPath_equiv_dp_const -->
<g id="edge38" class="edge">
<title>DPath_dp_const_pp&#45;&gt;DPath_equiv_dp_const</title>
<path fill="none" stroke="black" d="M1390.79,-1560.52C1406.86,-1453.03 1469.33,-1035.16 1485.93,-924.1"/>
<polygon fill="black" stroke="black" points="1489.41,-924.45 1487.43,-914.04 1482.49,-923.42 1489.41,-924.45"/>
</g>
<!-- DPath_dp_apD_V -->
<g id="node28" class="node">
<title>DPath_dp_apD_V</title>
<g id="a_node28"><a xlink:href="DPath.html#dp_apD_V" xlink:title="dp_apD_V">
<ellipse fill="#f070d1" stroke="black" cx="1702" cy="-1586.86" rx="55.8" ry="18"/>
<ellipse fill="none" stroke="black" cx="1702" cy="-1586.86" rx="59.8" ry="22"/>
<ellipse fill="none" stroke="black" cx="1702" cy="-1586.86" rx="63.79" ry="26"/>
<text text-anchor="middle" x="1702" y="-1583.16" font-family="Times,serif" font-size="14.00">dp_apD_V</text>
</a>
</g>
</g>
<!-- DPath_dp_apD_V&#45;&gt;DPath_dp_inverse -->
<g id="edge39" class="edge">
<title>DPath_dp_apD_V&#45;&gt;DPath_dp_inverse</title>
<path fill="none" stroke="black" d="M1686.66,-1561.34C1619.93,-1454.66 1355.17,-1031.41 1287.05,-922.52"/>
<polygon fill="black" stroke="black" points="1289.87,-920.43 1281.6,-913.81 1283.94,-924.15 1289.87,-920.43"/>
</g>
<!-- DPath_dp_apD_V&#45;&gt;DPath_dp_apD -->
<g id="edge40" class="edge">
<title>DPath_dp_apD_V&#45;&gt;DPath_dp_apD</title>
<path fill="none" stroke="black" d="M1711.44,-1560.93C1751.99,-1453.89 1911.17,-1033.68 1952.93,-923.46"/>
<polygon fill="black" stroke="black" points="1956.32,-924.37 1956.59,-913.78 1949.78,-921.89 1956.32,-924.37"/>
</g>
<!-- DPath_dp_apD_pp -->
<g id="node29" class="node">
<title>DPath_dp_apD_pp</title>
<g id="a_node29"><a xlink:href="DPath.html#dp_apD_pp" xlink:title="dp_apD_pp">
<ellipse fill="#f070d1" stroke="black" cx="1550" cy="-1586.86" rx="61.96" ry="18"/>
<ellipse fill="none" stroke="black" cx="1550" cy="-1586.86" rx="65.98" ry="22"/>
<ellipse fill="none" stroke="black" cx="1550" cy="-1586.86" rx="69.99" ry="26"/>
<text text-anchor="middle" x="1550" y="-1583.16" font-family="Times,serif" font-size="14.00">dp_apD_pp</text>
</a>
</g>
</g>
<!-- DPath_dp_apD_pp&#45;&gt;DPath_dp_concat -->
<g id="edge41" class="edge">
<title>DPath_dp_apD_pp&#45;&gt;DPath_dp_concat</title>
<path fill="none" stroke="black" d="M1531.48,-1561.74C1449.85,-1455.42 1122.5,-1029.06 1039.97,-921.57"/>
<polygon fill="black" stroke="black" points="1042.68,-919.35 1033.81,-913.55 1037.12,-923.61 1042.68,-919.35"/>
</g>
<!-- DPath_dp_apD_pp&#45;&gt;DPath_dp_apD -->
<g id="edge42" class="edge">
<title>DPath_dp_apD_pp&#45;&gt;DPath_dp_apD</title>
<path fill="none" stroke="black" d="M1564.7,-1561.34C1628.72,-1454.54 1882.9,-1030.49 1947.83,-922.16"/>
<polygon fill="black" stroke="black" points="1950.88,-923.89 1953.02,-913.51 1944.88,-920.29 1950.88,-923.89"/>
</g>
<!-- DPath_dp_inverse&#45;&gt;DPath_DPath -->
<g id="edge43" class="edge">
<title>DPath_dp_inverse&#45;&gt;DPath_DPath</title>
<path fill="none" stroke="black" d="M1285.87,-878.09C1362.88,-791.25 1716.22,-392.79 1806.14,-291.39"/>
<polygon fill="black" stroke="black" points="1808.84,-293.62 1812.85,-283.82 1803.6,-288.98 1808.84,-293.62"/>
</g>
<!-- DPath_dp_concat_l -->
<g id="node31" class="node">
<title>DPath_dp_concat_l</title>
<g id="a_node31"><a xlink:href="DPath.html#dp_concat_l" xlink:title="dp_concat_l">
<ellipse fill="#f070d1" stroke="black" cx="1827" cy="-895.86" rx="64.21" ry="18"/>
<ellipse fill="none" stroke="black" cx="1827" cy="-895.86" rx="68.2" ry="22"/>
<ellipse fill="none" stroke="black" cx="1827" cy="-895.86" rx="72.19" ry="26"/>
<text text-anchor="middle" x="1827" y="-892.16" font-family="Times,serif" font-size="14.00">dp_concat_l</text>
</a>
</g>
</g>
<!-- DPath_dp_concat_l&#45;&gt;DPath_DPath -->
<g id="edge44" class="edge">
<title>DPath_dp_concat_l&#45;&gt;DPath_DPath</title>
<path fill="none" stroke="black" d="M1827,-869.51C1827,-769.04 1827,-399.32 1827,-295.27"/>
<polygon fill="black" stroke="black" points="1830.5,-294.98 1827,-284.98 1823.5,-294.98 1830.5,-294.98"/>
</g>
<!-- DPath_dp_concat_r -->
<g id="node32" class="node">
<title>DPath_dp_concat_r</title>
<g id="a_node32"><a xlink:href="DPath.html#dp_concat_r" xlink:title="dp_concat_r">
<ellipse fill="#f070d1" stroke="black" cx="1663" cy="-895.86" rx="65.77" ry="18"/>
<ellipse fill="none" stroke="black" cx="1663" cy="-895.86" rx="69.78" ry="22"/>
<ellipse fill="none" stroke="black" cx="1663" cy="-895.86" rx="73.79" ry="26"/>
<text text-anchor="middle" x="1663" y="-892.16" font-family="Times,serif" font-size="14.00">dp_concat_r</text>
</a>
</g>
</g>
<!-- DPath_dp_concat_r&#45;&gt;DPath_DPath -->
<g id="edge45" class="edge">
<title>DPath_dp_concat_r&#45;&gt;DPath_DPath</title>
<path fill="none" stroke="black" d="M1669.53,-869.9C1695.71,-769.81 1792.94,-398.09 1819.98,-294.7"/>
<polygon fill="black" stroke="black" points="1823.37,-295.58 1822.51,-285.02 1816.6,-293.81 1823.37,-295.58"/>
</g>
<!-- DPath_dp_concat&#45;&gt;DPath_DPath -->
<g id="edge46" class="edge">
<title>DPath_dp_concat&#45;&gt;DPath_DPath</title>
<path fill="none" stroke="black" d="M1041.73,-878.73C1152.53,-792.54 1674.42,-386.56 1799.84,-288.99"/>
<polygon fill="black" stroke="black" points="1802.11,-291.66 1807.85,-282.76 1797.81,-286.13 1802.11,-291.66"/>
</g>
<!-- DPath_dp_apD_const_ -->
<g id="node34" class="node">
<title>DPath_dp_apD_const_</title>
<g id="a_node34"><a xlink:href="DPath.html#dp_apD_const'" xlink:title="dp_apD_const&#39;">
<ellipse fill="#f070d1" stroke="black" cx="1859" cy="-2278.86" rx="77.2" ry="18"/>
<ellipse fill="none" stroke="black" cx="1859" cy="-2278.86" rx="81.19" ry="22"/>
<ellipse fill="none" stroke="black" cx="1859" cy="-2278.86" rx="85.19" ry="26"/>
<text text-anchor="middle" x="1859" y="-2275.16" font-family="Times,serif" font-size="14.00">dp_apD_const&#39;</text>
</a>
</g>
</g>
<!-- DPath_dp_apD_const -->
<g id="node35" class="node">
<title>DPath_dp_apD_const</title>
<g id="a_node35"><a xlink:href="DPath.html#dp_apD_const" xlink:title="dp_apD_const">
<ellipse fill="#f070d1" stroke="black" cx="1859" cy="-1586.86" rx="74.99" ry="18"/>
<text text-anchor="middle" x="1859" y="-1583.16" font-family="Times,serif" font-size="14.00">dp_apD_const</text>
</a>
</g>
</g>
<!-- DPath_dp_apD_const_&#45;&gt;DPath_dp_apD_const -->
<g id="edge47" class="edge">
<title>DPath_dp_apD_const_&#45;&gt;DPath_dp_apD_const</title>
<path fill="none" stroke="black" d="M1859,-2252.49C1859,-2144.84 1859,-1726.36 1859,-1615.14"/>
<polygon fill="black" stroke="black" points="1862.5,-1615.07 1859,-1605.07 1855.5,-1615.07 1862.5,-1615.07"/>
</g>
<!-- DPath_dp_apD_const&#45;&gt;DPath_equiv_dp_const -->
<g id="edge48" class="edge">
<title>DPath_dp_apD_const&#45;&gt;DPath_equiv_dp_const</title>
<path fill="none" stroke="black" d="M1849.88,-1568.83C1800.38,-1476.41 1564.04,-1035.11 1503.93,-922.87"/>
<polygon fill="black" stroke="black" points="1506.94,-921.08 1499.13,-913.91 1500.77,-924.38 1506.94,-921.08"/>
</g>
<!-- DPath_dp_apD_const&#45;&gt;DPath_dp_apD -->
<g id="edge49" class="edge">
<title>DPath_dp_apD_const&#45;&gt;DPath_dp_apD</title>
<path fill="none" stroke="black" d="M1861.57,-1568.83C1875.48,-1476.69 1941.73,-1037.77 1958.92,-923.9"/>
<polygon fill="black" stroke="black" points="1962.39,-924.33 1960.43,-913.91 1955.47,-923.28 1962.39,-924.33"/>
</g>
<!-- DPath_equiv_dp_const&#45;&gt;DPath_DPath -->
<g id="edge50" class="edge">
<title>DPath_equiv_dp_const&#45;&gt;DPath_DPath</title>
<path fill="none" stroke="black" d="M1499.19,-877.77C1545.89,-790.88 1756.89,-398.31 1813.17,-293.6"/>
<polygon fill="black" stroke="black" points="1816.33,-295.11 1817.98,-284.65 1810.16,-291.8 1816.33,-295.11"/>
</g>
<!-- DPath_dp_path_transport_apD -->
<g id="node37" class="node">
<title>DPath_dp_path_transport_apD</title>
<g id="a_node37"><a xlink:href="DPath.html#dp_path_transport_apD" xlink:title="dp_path_transport_apD">
<ellipse fill="#f070d1" stroke="black" cx="2767" cy="-1586.86" rx="118.88" ry="18"/>
<ellipse fill="none" stroke="black" cx="2767" cy="-1586.86" rx="122.88" ry="22"/>
<ellipse fill="none" stroke="black" cx="2767" cy="-1586.86" rx="126.88" ry="26"/>
<text text-anchor="middle" x="2767" y="-1583.16" font-family="Times,serif" font-size="14.00">dp_path_transport_apD</text>
</a>
</g>
</g>
<!-- DPath_dp_path_transport_apD&#45;&gt;DPath_dp_apD -->
<g id="edge51" class="edge">
<title>DPath_dp_path_transport_apD&#45;&gt;DPath_dp_apD</title>
<path fill="none" stroke="black" d="M2738.39,-1561.34C2612.6,-1453.54 2109.67,-1022.56 1989.09,-919.22"/>
<polygon fill="black" stroke="black" points="1991.26,-916.47 1981.39,-912.62 1986.7,-921.78 1991.26,-916.47"/>
</g>
<!-- DPath_dp_path_transport_apD&#45;&gt;DPath_equiv_dp_path_transport -->
<g id="edge52" class="edge">
<title>DPath_dp_path_transport_apD&#45;&gt;DPath_equiv_dp_path_transport</title>
<path fill="none" stroke="black" d="M2801.23,-1561.74C2953.22,-1454.67 3565.88,-1023.05 3713.08,-919.35"/>
<polygon fill="black" stroke="black" points="3715.16,-922.17 3721.32,-913.55 3711.13,-916.44 3715.16,-922.17"/>
</g>
<!-- DPath_dp_apD&#45;&gt;DPath_DPath -->
<g id="edge53" class="edge">
<title>DPath_dp_apD&#45;&gt;DPath_DPath</title>
<path fill="none" stroke="black" d="M1959.29,-877.77C1940.52,-791.24 1855.99,-401.53 1832.87,-294.9"/>
<polygon fill="black" stroke="black" points="1836.25,-293.97 1830.7,-284.94 1829.4,-295.46 1836.25,-293.97"/>
</g>
<!-- DPath_DPath_ind -->
<g id="node39" class="node">
<title>DPath_DPath_ind</title>
<g id="a_node39"><a xlink:href="DPath.html#DPath_ind" xlink:title="DPath_ind">
<ellipse fill="#f070d1" stroke="black" cx="82" cy="-1586.86" rx="57.71" ry="18"/>
<ellipse fill="none" stroke="black" cx="82" cy="-1586.86" rx="61.7" ry="22"/>
<ellipse fill="none" stroke="black" cx="82" cy="-1586.86" rx="65.69" ry="26"/>
<text text-anchor="middle" x="82" y="-1583.16" font-family="Times,serif" font-size="14.00">DPath_ind</text>
</a>
</g>
</g>
<!-- DPath_DPath_ind&#45;&gt;DPath_dp_id -->
<g id="edge54" class="edge">
<title>DPath_DPath_ind&#45;&gt;DPath_dp_id</title>
<path fill="none" stroke="black" d="M95.03,-1561.34C151.7,-1454.65 376.56,-1031.34 434.39,-922.49"/>
<polygon fill="black" stroke="black" points="437.56,-923.98 439.16,-913.51 431.37,-920.7 437.56,-923.98"/>
</g>
<!-- DPath_dp_id&#45;&gt;DPath_DPath -->
<g id="edge55" class="edge">
<title>DPath_dp_id&#45;&gt;DPath_DPath</title>
<path fill="none" stroke="black" d="M473.71,-883.17C642.59,-806.39 1592.29,-374.58 1790.67,-284.38"/>
<polygon fill="black" stroke="black" points="1792.42,-287.43 1800.07,-280.11 1789.52,-281.06 1792.42,-287.43"/>
</g>
<!-- DPath_dp_ishprop -->
<g id="node41" class="node">
<title>DPath_dp_ishprop</title>
<g id="a_node41"><a xlink:href="DPath.html#dp_ishprop" xlink:title="dp_ishprop">
<ellipse fill="#f070d1" stroke="black" cx="3901" cy="-1586.86" rx="61.96" ry="18"/>
<ellipse fill="none" stroke="black" cx="3901" cy="-1586.86" rx="65.98" ry="22"/>
<ellipse fill="none" stroke="black" cx="3901" cy="-1586.86" rx="69.99" ry="26"/>
<text text-anchor="middle" x="3901" y="-1583.16" font-family="Times,serif" font-size="14.00">dp_ishprop</text>
</a>
</g>
</g>
<!-- DPath_dp_ishprop&#45;&gt;DPath_equiv_dp_path_transport -->
<g id="edge56" class="edge">
<title>DPath_dp_ishprop&#45;&gt;DPath_equiv_dp_path_transport</title>
<path fill="none" stroke="black" d="M3895.36,-1560.93C3871.17,-1454.12 3776.38,-1035.44 3751.18,-924.15"/>
<polygon fill="black" stroke="black" points="3754.52,-923.06 3748.9,-914.08 3747.69,-924.61 3754.52,-923.06"/>
</g>
<!-- DPath_istrunc_dp -->
<g id="node42" class="node">
<title>DPath_istrunc_dp</title>
<g id="a_node42"><a xlink:href="DPath.html#istrunc_dp" xlink:title="istrunc_dp">
<ellipse fill="#f070d1" stroke="black" cx="3745" cy="-1586.86" rx="59.61" ry="18"/>
<ellipse fill="none" stroke="black" cx="3745" cy="-1586.86" rx="63.6" ry="22"/>
<ellipse fill="none" stroke="black" cx="3745" cy="-1586.86" rx="67.59" ry="26"/>
<text text-anchor="middle" x="3745" y="-1583.16" font-family="Times,serif" font-size="14.00">istrunc_dp</text>
</a>
</g>
</g>
<!-- DPath_istrunc_dp&#45;&gt;DPath_equiv_dp_path_transport -->
<g id="edge57" class="edge">
<title>DPath_istrunc_dp&#45;&gt;DPath_equiv_dp_path_transport</title>
<path fill="none" stroke="black" d="M3745,-1560.52C3745,-1453.03 3745,-1035.16 3745,-924.1"/>
<polygon fill="black" stroke="black" points="3748.5,-924.04 3745,-914.04 3741.5,-924.04 3748.5,-924.04"/>
</g>
<!-- DPath_equiv_dp_path_transport&#45;&gt;DPath_DPath -->
<g id="edge58" class="edge">
<title>DPath_equiv_dp_path_transport&#45;&gt;DPath_DPath</title>
<path fill="none" stroke="black" d="M3697.11,-879.21C3428.87,-791.52 2116.03,-362.35 1867.61,-281.14"/>
<polygon fill="black" stroke="black" points="1868.49,-277.74 1857.9,-277.96 1866.31,-284.4 1868.49,-277.74"/>
</g>
</g>
</svg>
