<?xml version="1.0" encoding="UTF-8" standalone="no"?>
<!DOCTYPE svg PUBLIC "-//W3C//DTD SVG 1.1//EN"
 "http://www.w3.org/Graphics/SVG/1.1/DTD/svg11.dtd">
<!-- Generated by graphviz version 2.43.0 (0)
 -->
<!-- Title: HoTT_Algebra_AbGroups_AbExt Pages: 1 -->
<svg width="2524pt" height="1266pt"
 viewBox="0.00 0.00 2524.00 1266.00" xmlns="http://www.w3.org/2000/svg" xmlns:xlink="http://www.w3.org/1999/xlink">
<g id="graph0" class="graph" transform="scale(1 1) rotate(0) translate(4 1262)">
<title>HoTT_Algebra_AbGroups_AbExt</title>
<polygon fill="white" stroke="transparent" points="-4,4 -4,-1262 2520,-1262 2520,4 -4,4"/>
<g id="clust1" class="cluster">
<title>cluster_AbExt</title>
<polygon fill="#ffffc3" stroke="black" points="8,-17.63 8,-1240.37 2508,-1240.37 2508,-17.63 8,-17.63"/>
<text text-anchor="middle" x="38" y="-1225.17" font-family="Times,serif" font-size="14.00">AbExt</text>
</g>
<!-- AbExt_iff_ab_ext_trivial_split -->
<g id="node1" class="node">
<title>AbExt_iff_ab_ext_trivial_split</title>
<g id="a_node1"><a xlink:href="AbExt.html#iff_ab_ext_trivial_split" xlink:title="iff_ab_ext_trivial_split">
<ellipse fill="#f070d1" stroke="black" cx="765" cy="-1114.63" rx="111.59" ry="18"/>
<ellipse fill="none" stroke="black" cx="765" cy="-1114.63" rx="115.59" ry="22"/>
<ellipse fill="none" stroke="black" cx="765" cy="-1114.63" rx="119.58" ry="26"/>
<text text-anchor="middle" x="765" y="-1110.93" font-family="Times,serif" font-size="14.00">iff_ab_ext_trivial_split</text>
</a>
</g>
</g>
<!-- AbExt_ispointed_ext -->
<g id="node2" class="node">
<title>AbExt_ispointed_ext</title>
<g id="a_node2"><a xlink:href="AbExt.html#ispointed_ext" xlink:title="ispointed_ext">
<ellipse fill="#f070d1" stroke="black" cx="664" cy="-444.63" rx="72.59" ry="18"/>
<text text-anchor="middle" x="664" y="-440.93" font-family="Times,serif" font-size="14.00">ispointed_ext</text>
</a>
</g>
</g>
<!-- AbExt_iff_ab_ext_trivial_split&#45;&gt;AbExt_ispointed_ext -->
<g id="edge1" class="edge">
<title>AbExt_iff_ab_ext_trivial_split&#45;&gt;AbExt_ispointed_ext</title>
<path fill="none" stroke="black" d="M758.88,-1088.46C751.51,-1057.56 739.13,-1003.48 731,-956.63 699.14,-773.03 674.78,-549.97 666.8,-473.16"/>
<polygon fill="black" stroke="black" points="670.25,-472.5 665.74,-462.91 663.28,-473.21 670.25,-472.5"/>
</g>
<!-- AbExt_iff_abext_trivial_split -->
<g id="node4" class="node">
<title>AbExt_iff_abext_trivial_split</title>
<g id="a_node4"><a xlink:href="AbExt.html#iff_abext_trivial_split" xlink:title="iff_abext_trivial_split">
<ellipse fill="#f070d1" stroke="black" cx="847" cy="-938.63" rx="107.48" ry="18"/>
<text text-anchor="middle" x="847" y="-934.93" font-family="Times,serif" font-size="14.00">iff_abext_trivial_split</text>
</a>
</g>
</g>
<!-- AbExt_iff_ab_ext_trivial_split&#45;&gt;AbExt_iff_abext_trivial_split -->
<g id="edge2" class="edge">
<title>AbExt_iff_ab_ext_trivial_split&#45;&gt;AbExt_iff_abext_trivial_split</title>
<path fill="none" stroke="black" d="M776.75,-1088.7C792.15,-1056.02 819.03,-998.98 834.69,-965.74"/>
<polygon fill="black" stroke="black" points="837.89,-967.17 838.98,-956.63 831.56,-964.19 837.89,-967.17"/>
</g>
<!-- AbExt_Ext -->
<g id="node3" class="node">
<title>AbExt_Ext</title>
<g id="a_node3"><a xlink:href="AbExt.html#Ext" xlink:title="Ext">
<ellipse fill="#f070d1" stroke="black" cx="681" cy="-251.63" rx="27" ry="18"/>
<text text-anchor="middle" x="681" y="-247.93" font-family="Times,serif" font-size="14.00">Ext</text>
</a>
</g>
</g>
<!-- AbExt_ispointed_ext&#45;&gt;AbExt_Ext -->
<g id="edge3" class="edge">
<title>AbExt_ispointed_ext&#45;&gt;AbExt_Ext</title>
<path fill="none" stroke="black" d="M665.54,-426.34C668.5,-393.03 675.03,-319.72 678.58,-279.81"/>
<polygon fill="black" stroke="black" points="682.08,-280.01 679.48,-269.74 675.1,-279.39 682.08,-280.01"/>
</g>
<!-- AbExt_ispointed_abext -->
<g id="node11" class="node">
<title>AbExt_ispointed_abext</title>
<g id="a_node11"><a xlink:href="AbExt.html#ispointed_abext" xlink:title="ispointed_abext">
<ellipse fill="#f070d1" stroke="black" cx="242" cy="-251.63" rx="83.69" ry="18"/>
<text text-anchor="middle" x="242" y="-247.93" font-family="Times,serif" font-size="14.00">ispointed_abext</text>
</a>
</g>
</g>
<!-- AbExt_ispointed_ext&#45;&gt;AbExt_ispointed_abext -->
<g id="edge4" class="edge">
<title>AbExt_ispointed_ext&#45;&gt;AbExt_ispointed_abext</title>
<path fill="none" stroke="black" d="M630.53,-428.48C554.79,-394.2 370.27,-310.68 285.68,-272.39"/>
<polygon fill="black" stroke="black" points="286.91,-269.11 276.35,-268.17 284.02,-275.49 286.91,-269.11"/>
</g>
<!-- AbExt_AbExt -->
<g id="node26" class="node">
<title>AbExt_AbExt</title>
<g id="a_node26"><a xlink:href="AbExt.html#AbExt" xlink:title="AbExt">
<ellipse fill="#e2cdfa" stroke="black" cx="1110" cy="-74.63" rx="38.99" ry="18"/>
<text text-anchor="middle" x="1110" y="-70.93" font-family="Times,serif" font-size="14.00">AbExt</text>
</a>
</g>
</g>
<!-- AbExt_Ext&#45;&gt;AbExt_AbExt -->
<g id="edge5" class="edge">
<title>AbExt_Ext&#45;&gt;AbExt_AbExt</title>
<path fill="none" stroke="black" d="M698.04,-237.53C703.86,-233.4 710.54,-229.04 717,-225.63 838.82,-161.31 994.48,-110.33 1067.98,-87.96"/>
<polygon fill="black" stroke="black" points="1069.23,-91.24 1077.79,-84.99 1067.21,-84.54 1069.23,-91.24"/>
</g>
<!-- AbExt_abext_p_split_beta -->
<g id="node5" class="node">
<title>AbExt_abext_p_split_beta</title>
<g id="a_node5"><a xlink:href="AbExt.html#abext_p_split_beta" xlink:title="abext_p_split_beta">
<ellipse fill="#f070d1" stroke="black" cx="1324" cy="-779.63" rx="96.68" ry="18"/>
<text text-anchor="middle" x="1324" y="-775.93" font-family="Times,serif" font-size="14.00">abext_p_split_beta</text>
</a>
</g>
</g>
<!-- AbExt_iff_abext_trivial_split&#45;&gt;AbExt_abext_p_split_beta -->
<g id="edge6" class="edge">
<title>AbExt_iff_abext_trivial_split&#45;&gt;AbExt_abext_p_split_beta</title>
<path fill="none" stroke="black" d="M893.61,-922.29C982.13,-893.15 1174.21,-829.93 1268.92,-798.75"/>
<polygon fill="black" stroke="black" points="1270.2,-802.02 1278.61,-795.57 1268.01,-795.37 1270.2,-802.02"/>
</g>
<!-- AbExt_equiv_path_abext -->
<g id="node10" class="node">
<title>AbExt_equiv_path_abext</title>
<g id="a_node10"><a xlink:href="AbExt.html#equiv_path_abext" xlink:title="equiv_path_abext">
<ellipse fill="#f070d1" stroke="black" cx="867" cy="-779.63" rx="91.78" ry="18"/>
<text text-anchor="middle" x="867" y="-775.93" font-family="Times,serif" font-size="14.00">equiv_path_abext</text>
</a>
</g>
</g>
<!-- AbExt_iff_abext_trivial_split&#45;&gt;AbExt_equiv_path_abext -->
<g id="edge7" class="edge">
<title>AbExt_iff_abext_trivial_split&#45;&gt;AbExt_equiv_path_abext</title>
<path fill="none" stroke="black" d="M849.18,-920.52C852.63,-893.39 859.41,-840.24 863.53,-807.83"/>
<polygon fill="black" stroke="black" points="867.03,-808.07 864.82,-797.7 860.09,-807.18 867.03,-808.07"/>
</g>
<!-- AbExt_iff_abext_trivial_split&#45;&gt;AbExt_ispointed_abext -->
<g id="edge8" class="edge">
<title>AbExt_iff_abext_trivial_split&#45;&gt;AbExt_ispointed_abext</title>
<path fill="none" stroke="black" d="M833.63,-920.75C814.59,-895.61 780.39,-846.08 766,-797.63 717.99,-635.92 848.44,-552.63 746,-418.63 731.91,-400.19 427.75,-307.93 298.88,-269.49"/>
<polygon fill="black" stroke="black" points="299.76,-266.09 289.18,-266.59 297.76,-272.8 299.76,-266.09"/>
</g>
<!-- AbExt_abext_p_split_iso -->
<g id="node6" class="node">
<title>AbExt_abext_p_split_iso</title>
<g id="a_node6"><a xlink:href="AbExt.html#abext_p_split_iso" xlink:title="abext_p_split_iso">
<ellipse fill="#f070d1" stroke="black" cx="1575" cy="-621.63" rx="89.08" ry="18"/>
<text text-anchor="middle" x="1575" y="-617.93" font-family="Times,serif" font-size="14.00">abext_p_split_iso</text>
</a>
</g>
</g>
<!-- AbExt_abext_p_split_beta&#45;&gt;AbExt_abext_p_split_iso -->
<g id="edge9" class="edge">
<title>AbExt_abext_p_split_beta&#45;&gt;AbExt_abext_p_split_iso</title>
<path fill="none" stroke="black" d="M1350.39,-762.23C1395.86,-733.96 1489.01,-676.07 1539.9,-644.44"/>
<polygon fill="black" stroke="black" points="1541.94,-647.29 1548.59,-639.04 1538.25,-641.35 1541.94,-647.29"/>
</g>
<!-- AbExt_abext_p_split_to_kernel_beta -->
<g id="node8" class="node">
<title>AbExt_abext_p_split_to_kernel_beta</title>
<g id="a_node8"><a xlink:href="AbExt.html#abext_p_split_to_kernel_beta" xlink:title="abext_p_split_to_kernel_beta">
<ellipse fill="#f070d1" stroke="black" cx="1324" cy="-621.63" rx="143.77" ry="18"/>
<text text-anchor="middle" x="1324" y="-617.93" font-family="Times,serif" font-size="14.00">abext_p_split_to_kernel_beta</text>
</a>
</g>
</g>
<!-- AbExt_abext_p_split_beta&#45;&gt;AbExt_abext_p_split_to_kernel_beta -->
<g id="edge10" class="edge">
<title>AbExt_abext_p_split_beta&#45;&gt;AbExt_abext_p_split_to_kernel_beta</title>
<path fill="none" stroke="black" d="M1324,-761.33C1324,-734.39 1324,-682.17 1324,-650.05"/>
<polygon fill="black" stroke="black" points="1327.5,-649.99 1324,-639.99 1320.5,-649.99 1327.5,-649.99"/>
</g>
<!-- AbExt_abext_p_split_iso1 -->
<g id="node7" class="node">
<title>AbExt_abext_p_split_iso1</title>
<g id="a_node7"><a xlink:href="AbExt.html#abext_p_split_iso1" xlink:title="abext_p_split_iso1">
<ellipse fill="#f070d1" stroke="black" cx="1575" cy="-444.63" rx="94.78" ry="18"/>
<text text-anchor="middle" x="1575" y="-440.93" font-family="Times,serif" font-size="14.00">abext_p_split_iso1</text>
</a>
</g>
</g>
<!-- AbExt_abext_p_split_iso&#45;&gt;AbExt_abext_p_split_iso1 -->
<g id="edge11" class="edge">
<title>AbExt_abext_p_split_iso&#45;&gt;AbExt_abext_p_split_iso1</title>
<path fill="none" stroke="black" d="M1575,-603.53C1575,-573.21 1575,-509.78 1575,-473.21"/>
<polygon fill="black" stroke="black" points="1578.5,-472.79 1575,-462.79 1571.5,-472.79 1578.5,-472.79"/>
</g>
<!-- AbExt_abext_p_split_to_kernel -->
<g id="node9" class="node">
<title>AbExt_abext_p_split_to_kernel</title>
<g id="a_node9"><a xlink:href="AbExt.html#abext_p_split_to_kernel" xlink:title="abext_p_split_to_kernel">
<ellipse fill="#f070d1" stroke="black" cx="1575" cy="-251.63" rx="118.88" ry="18"/>
<text text-anchor="middle" x="1575" y="-247.93" font-family="Times,serif" font-size="14.00">abext_p_split_to_kernel</text>
</a>
</g>
</g>
<!-- AbExt_abext_p_split_iso1&#45;&gt;AbExt_abext_p_split_to_kernel -->
<g id="edge12" class="edge">
<title>AbExt_abext_p_split_iso1&#45;&gt;AbExt_abext_p_split_to_kernel</title>
<path fill="none" stroke="black" d="M1575,-426.34C1575,-393.03 1575,-319.72 1575,-279.81"/>
<polygon fill="black" stroke="black" points="1578.5,-279.74 1575,-269.74 1571.5,-279.74 1578.5,-279.74"/>
</g>
<!-- AbExt_abext_p_split_to_kernel_beta&#45;&gt;AbExt_abext_p_split_to_kernel -->
<g id="edge13" class="edge">
<title>AbExt_abext_p_split_to_kernel_beta&#45;&gt;AbExt_abext_p_split_to_kernel</title>
<path fill="none" stroke="black" d="M1335.77,-603.37C1376.2,-544.09 1509.56,-348.57 1557.58,-278.17"/>
<polygon fill="black" stroke="black" points="1560.51,-280.08 1563.26,-269.84 1554.73,-276.13 1560.51,-280.08"/>
</g>
<!-- AbExt_abext_p_split_to_kernel&#45;&gt;AbExt_AbExt -->
<g id="edge14" class="edge">
<title>AbExt_abext_p_split_to_kernel&#45;&gt;AbExt_AbExt</title>
<path fill="none" stroke="black" d="M1532.91,-234.79C1443.36,-201.08 1235.08,-122.7 1148.66,-90.17"/>
<polygon fill="black" stroke="black" points="1149.81,-86.87 1139.22,-86.62 1147.35,-93.42 1149.81,-86.87"/>
</g>
<!-- AbExt_issig_abext -->
<g id="node12" class="node">
<title>AbExt_issig_abext</title>
<g id="a_node12"><a xlink:href="AbExt.html#issig_abext" xlink:title="issig_abext">
<ellipse fill="#f070d1" stroke="black" cx="867" cy="-444.63" rx="62.29" ry="18"/>
<text text-anchor="middle" x="867" y="-440.93" font-family="Times,serif" font-size="14.00">issig_abext</text>
</a>
</g>
</g>
<!-- AbExt_equiv_path_abext&#45;&gt;AbExt_issig_abext -->
<g id="edge15" class="edge">
<title>AbExt_equiv_path_abext&#45;&gt;AbExt_issig_abext</title>
<path fill="none" stroke="black" d="M867,-761.19C867,-706.68 867,-539.18 867,-472.97"/>
<polygon fill="black" stroke="black" points="870.5,-472.89 867,-462.89 863.5,-472.89 870.5,-472.89"/>
</g>
<!-- AbExt_Build_AbExt -->
<g id="node25" class="node">
<title>AbExt_Build_AbExt</title>
<g id="a_node25"><a xlink:href="AbExt.html#Build_AbExt" xlink:title="Build_AbExt">
<ellipse fill="#7faaff" stroke="black" cx="415" cy="-74.63" rx="67.69" ry="18"/>
<text text-anchor="middle" x="415" y="-70.93" font-family="Times,serif" font-size="14.00">Build_AbExt</text>
</a>
</g>
</g>
<!-- AbExt_ispointed_abext&#45;&gt;AbExt_Build_AbExt -->
<g id="edge16" class="edge">
<title>AbExt_ispointed_abext&#45;&gt;AbExt_Build_AbExt</title>
<path fill="none" stroke="black" d="M258.59,-233.85C289.54,-202.54 356.16,-135.15 391.64,-99.26"/>
<polygon fill="black" stroke="black" points="394.17,-101.67 398.71,-92.1 389.2,-96.75 394.17,-101.67"/>
</g>
<!-- AbExt_ispointed_abext&#45;&gt;AbExt_AbExt -->
<g id="edge17" class="edge">
<title>AbExt_ispointed_abext&#45;&gt;AbExt_AbExt</title>
<path fill="none" stroke="black" d="M290.58,-236.86C304.84,-233.01 320.5,-228.97 335,-225.63 609.75,-162.19 943.48,-103.83 1063.9,-83.36"/>
<polygon fill="black" stroke="black" points="1064.61,-86.79 1073.88,-81.67 1063.44,-79.89 1064.61,-86.79"/>
</g>
<!-- AbExt_issig_abext_helper -->
<g id="node13" class="node">
<title>AbExt_issig_abext_helper</title>
<g id="a_node13"><a xlink:href="AbExt.html#issig_abext_helper" xlink:title="issig_abext_helper">
<ellipse fill="#f070d1" stroke="black" cx="1341" cy="-251.63" rx="96.68" ry="18"/>
<text text-anchor="middle" x="1341" y="-247.93" font-family="Times,serif" font-size="14.00">issig_abext_helper</text>
</a>
</g>
</g>
<!-- AbExt_issig_abext&#45;&gt;AbExt_issig_abext_helper -->
<g id="edge18" class="edge">
<title>AbExt_issig_abext&#45;&gt;AbExt_issig_abext_helper</title>
<path fill="none" stroke="black" d="M901.85,-429.58C985.46,-395.89 1197.55,-310.43 1293.07,-271.94"/>
<polygon fill="black" stroke="black" points="1294.52,-275.13 1302.49,-268.14 1291.91,-268.63 1294.52,-275.13"/>
</g>
<!-- AbExt_issig_abext_do_not_print -->
<g id="node14" class="node">
<title>AbExt_issig_abext_do_not_print</title>
<g id="a_node14"><a xlink:href="AbExt.html#issig_abext_do_not_print" xlink:title="issig_abext_do_not_print">
<ellipse fill="#f070d1" stroke="black" cx="851" cy="-251.63" rx="124.58" ry="18"/>
<text text-anchor="middle" x="851" y="-247.93" font-family="Times,serif" font-size="14.00">issig_abext_do_not_print</text>
</a>
</g>
</g>
<!-- AbExt_issig_abext&#45;&gt;AbExt_issig_abext_do_not_print -->
<g id="edge19" class="edge">
<title>AbExt_issig_abext&#45;&gt;AbExt_issig_abext_do_not_print</title>
<path fill="none" stroke="black" d="M865.55,-426.34C862.76,-393.03 856.62,-319.72 853.28,-279.81"/>
<polygon fill="black" stroke="black" points="856.76,-279.41 852.43,-269.74 849.78,-279.99 856.76,-279.41"/>
</g>
<!-- AbExt_issig_abext_do_not_print&#45;&gt;AbExt_Build_AbExt -->
<g id="edge20" class="edge">
<title>AbExt_issig_abext_do_not_print&#45;&gt;AbExt_Build_AbExt</title>
<path fill="none" stroke="black" d="M810.76,-234.48C729.37,-201.8 545.66,-128.07 460.24,-93.79"/>
<polygon fill="black" stroke="black" points="461.4,-90.48 450.82,-90 458.8,-96.98 461.4,-90.48"/>
</g>
<!-- AbExt_issig_abext_do_not_print&#45;&gt;AbExt_AbExt -->
<g id="edge21" class="edge">
<title>AbExt_issig_abext_do_not_print&#45;&gt;AbExt_AbExt</title>
<path fill="none" stroke="black" d="M875.83,-233.85C923.83,-201.42 1029.11,-130.28 1080.55,-95.52"/>
<polygon fill="black" stroke="black" points="1082.59,-98.37 1088.91,-89.87 1078.67,-92.57 1082.59,-98.37"/>
</g>
<!-- AbExt_abext_isexact -->
<g id="node15" class="node">
<title>AbExt_abext_isexact</title>
<g id="a_node15"><a xlink:href="AbExt.html#abext_isexact" xlink:title="abext_isexact">
<ellipse fill="#f070d1" stroke="black" cx="2038" cy="-251.63" rx="73.39" ry="18"/>
<ellipse fill="none" stroke="black" cx="2038" cy="-251.63" rx="77.39" ry="22"/>
<ellipse fill="none" stroke="black" cx="2038" cy="-251.63" rx="81.39" ry="26"/>
<text text-anchor="middle" x="2038" y="-247.93" font-family="Times,serif" font-size="14.00">abext_isexact</text>
</a>
</g>
</g>
<!-- AbExt_abext_isexact&#45;&gt;AbExt_AbExt -->
<g id="edge22" class="edge">
<title>AbExt_abext_isexact&#45;&gt;AbExt_AbExt</title>
<path fill="none" stroke="black" d="M1978.97,-233.57C1968.37,-230.75 1957.39,-227.98 1947,-225.63 1648.36,-157.99 1284.18,-101.48 1156.72,-82.47"/>
<polygon fill="black" stroke="black" points="1156.95,-78.97 1146.54,-80.96 1155.92,-85.89 1156.95,-78.97"/>
</g>
<!-- AbExt_abext_issurjection_p -->
<g id="node16" class="node">
<title>AbExt_abext_issurjection_p</title>
<g id="a_node16"><a xlink:href="AbExt.html#abext_issurjection_p" xlink:title="abext_issurjection_p">
<ellipse fill="#f070d1" stroke="black" cx="1825" cy="-251.63" rx="105.1" ry="18"/>
<ellipse fill="none" stroke="black" cx="1825" cy="-251.63" rx="109.09" ry="22"/>
<ellipse fill="none" stroke="black" cx="1825" cy="-251.63" rx="113.08" ry="26"/>
<text text-anchor="middle" x="1825" y="-247.93" font-family="Times,serif" font-size="14.00">abext_issurjection_p</text>
</a>
</g>
</g>
<!-- AbExt_abext_issurjection_p&#45;&gt;AbExt_AbExt -->
<g id="edge23" class="edge">
<title>AbExt_abext_issurjection_p&#45;&gt;AbExt_AbExt</title>
<path fill="none" stroke="black" d="M1749.5,-232.15C1600.21,-195.61 1271.52,-115.16 1153.37,-86.24"/>
<polygon fill="black" stroke="black" points="1154.13,-82.82 1143.58,-83.85 1152.47,-89.62 1154.13,-82.82"/>
</g>
<!-- AbExt_abext_isembedding_i -->
<g id="node17" class="node">
<title>AbExt_abext_isembedding_i</title>
<g id="a_node17"><a xlink:href="AbExt.html#abext_isembedding_i" xlink:title="abext_isembedding_i">
<ellipse fill="#f070d1" stroke="black" cx="1110" cy="-251.63" rx="107.79" ry="18"/>
<ellipse fill="none" stroke="black" cx="1110" cy="-251.63" rx="111.78" ry="22"/>
<ellipse fill="none" stroke="black" cx="1110" cy="-251.63" rx="115.78" ry="26"/>
<text text-anchor="middle" x="1110" y="-247.93" font-family="Times,serif" font-size="14.00">abext_isembedding_i</text>
</a>
</g>
</g>
<!-- AbExt_abext_isembedding_i&#45;&gt;AbExt_AbExt -->
<g id="edge24" class="edge">
<title>AbExt_abext_isembedding_i&#45;&gt;AbExt_AbExt</title>
<path fill="none" stroke="black" d="M1110,-225.55C1110,-192.97 1110,-136.31 1110,-102.75"/>
<polygon fill="black" stroke="black" points="1113.5,-102.73 1110,-92.73 1106.5,-102.73 1113.5,-102.73"/>
</g>
<!-- AbExt_abext_p -->
<g id="node18" class="node">
<title>AbExt_abext_p</title>
<g id="a_node18"><a xlink:href="AbExt.html#abext_p" xlink:title="abext_p">
<ellipse fill="#f070d1" stroke="black" cx="2445" cy="-251.63" rx="46.62" ry="18"/>
<ellipse fill="none" stroke="black" cx="2445" cy="-251.63" rx="50.61" ry="22"/>
<ellipse fill="none" stroke="black" cx="2445" cy="-251.63" rx="54.59" ry="26"/>
<text text-anchor="middle" x="2445" y="-247.93" font-family="Times,serif" font-size="14.00">abext_p</text>
</a>
</g>
</g>
<!-- AbExt_abext_p&#45;&gt;AbExt_AbExt -->
<g id="edge25" class="edge">
<title>AbExt_abext_p&#45;&gt;AbExt_AbExt</title>
<path fill="none" stroke="black" d="M2405.57,-233.42C2397.56,-230.44 2389.1,-227.65 2381,-225.63 1915.18,-109.19 1330.11,-82.44 1159.05,-76.94"/>
<polygon fill="black" stroke="black" points="1158.96,-73.43 1148.86,-76.62 1158.74,-80.43 1158.96,-73.43"/>
</g>
<!-- AbExt_abext_i -->
<g id="node19" class="node">
<title>AbExt_abext_i</title>
<g id="a_node19"><a xlink:href="AbExt.html#abext_i" xlink:title="abext_i">
<ellipse fill="#f070d1" stroke="black" cx="2320" cy="-251.63" rx="44.36" ry="18"/>
<ellipse fill="none" stroke="black" cx="2320" cy="-251.63" rx="48.38" ry="22"/>
<ellipse fill="none" stroke="black" cx="2320" cy="-251.63" rx="52.39" ry="26"/>
<text text-anchor="middle" x="2320" y="-247.93" font-family="Times,serif" font-size="14.00">abext_i</text>
</a>
</g>
</g>
<!-- AbExt_abext_i&#45;&gt;AbExt_AbExt -->
<g id="edge26" class="edge">
<title>AbExt_abext_i&#45;&gt;AbExt_AbExt</title>
<path fill="none" stroke="black" d="M2282.45,-233.46C2274.81,-230.48 2266.74,-227.68 2259,-225.63 1842.8,-115.18 1319.31,-84.56 1158.92,-77.49"/>
<polygon fill="black" stroke="black" points="1159.03,-73.99 1148.89,-77.06 1158.73,-80.99 1159.03,-73.99"/>
</g>
<!-- AbExt_abext_E -->
<g id="node20" class="node">
<title>AbExt_abext_E</title>
<g id="a_node20"><a xlink:href="AbExt.html#abext_E" xlink:title="abext_E">
<ellipse fill="#f070d1" stroke="black" cx="2194" cy="-251.63" rx="48.18" ry="18"/>
<ellipse fill="none" stroke="black" cx="2194" cy="-251.63" rx="52.18" ry="22"/>
<ellipse fill="none" stroke="black" cx="2194" cy="-251.63" rx="56.19" ry="26"/>
<text text-anchor="middle" x="2194" y="-247.93" font-family="Times,serif" font-size="14.00">abext_E</text>
</a>
</g>
</g>
<!-- AbExt_abext_E&#45;&gt;AbExt_AbExt -->
<g id="edge27" class="edge">
<title>AbExt_abext_E&#45;&gt;AbExt_AbExt</title>
<path fill="none" stroke="black" d="M2153.25,-233.63C2145,-230.63 2136.3,-227.78 2128,-225.63 1762.44,-130.65 1306.34,-90.24 1158.59,-79.05"/>
<polygon fill="black" stroke="black" points="1158.73,-75.55 1148.49,-78.29 1158.2,-82.53 1158.73,-75.55"/>
</g>
<!-- AbExt_AbExt_sind -->
<g id="node21" class="node">
<title>AbExt_AbExt_sind</title>
<g id="a_node21"><a xlink:href="AbExt.html#AbExt_sind" xlink:title="AbExt_sind">
<ellipse fill="#f070d1" stroke="black" cx="415" cy="-251.63" rx="63.08" ry="18"/>
<ellipse fill="none" stroke="black" cx="415" cy="-251.63" rx="67.09" ry="22"/>
<ellipse fill="none" stroke="black" cx="415" cy="-251.63" rx="71.09" ry="26"/>
<text text-anchor="middle" x="415" y="-247.93" font-family="Times,serif" font-size="14.00">AbExt_sind</text>
</a>
</g>
</g>
<!-- AbExt_AbExt_sind&#45;&gt;AbExt_Build_AbExt -->
<g id="edge28" class="edge">
<title>AbExt_AbExt_sind&#45;&gt;AbExt_Build_AbExt</title>
<path fill="none" stroke="black" d="M415,-225.55C415,-192.97 415,-136.31 415,-102.75"/>
<polygon fill="black" stroke="black" points="418.5,-102.73 415,-92.73 411.5,-102.73 418.5,-102.73"/>
</g>
<!-- AbExt_AbExt_sind&#45;&gt;AbExt_AbExt -->
<g id="edge29" class="edge">
<title>AbExt_AbExt_sind&#45;&gt;AbExt_AbExt</title>
<path fill="none" stroke="black" d="M466.93,-233.87C476.24,-231.02 485.89,-228.16 495,-225.63 707.17,-166.66 963.96,-108.11 1065.55,-85.44"/>
<polygon fill="black" stroke="black" points="1066.46,-88.83 1075.46,-83.24 1064.94,-81.99 1066.46,-88.83"/>
</g>
<!-- AbExt_AbExt_rec -->
<g id="node22" class="node">
<title>AbExt_AbExt_rec</title>
<g id="a_node22"><a xlink:href="AbExt.html#AbExt_rec" xlink:title="AbExt_rec">
<ellipse fill="#f070d1" stroke="black" cx="82" cy="-444.63" rx="57.71" ry="18"/>
<ellipse fill="none" stroke="black" cx="82" cy="-444.63" rx="61.7" ry="22"/>
<ellipse fill="none" stroke="black" cx="82" cy="-444.63" rx="65.69" ry="26"/>
<text text-anchor="middle" x="82" y="-440.93" font-family="Times,serif" font-size="14.00">AbExt_rec</text>
</a>
</g>
</g>
<!-- AbExt_AbExt_rect -->
<g id="node24" class="node">
<title>AbExt_AbExt_rect</title>
<g id="a_node24"><a xlink:href="AbExt.html#AbExt_rect" xlink:title="AbExt_rect">
<ellipse fill="#f070d1" stroke="black" cx="78" cy="-251.63" rx="61.99" ry="18"/>
<text text-anchor="middle" x="78" y="-247.93" font-family="Times,serif" font-size="14.00">AbExt_rect</text>
</a>
</g>
</g>
<!-- AbExt_AbExt_rec&#45;&gt;AbExt_AbExt_rect -->
<g id="edge30" class="edge">
<title>AbExt_AbExt_rec&#45;&gt;AbExt_AbExt_rect</title>
<path fill="none" stroke="black" d="M81.47,-418.26C80.72,-382.33 79.35,-316.89 78.57,-279.93"/>
<polygon fill="black" stroke="black" points="82.07,-279.8 78.36,-269.88 75.07,-279.95 82.07,-279.8"/>
</g>
<!-- AbExt_AbExt_ind -->
<g id="node23" class="node">
<title>AbExt_AbExt_ind</title>
<g id="a_node23"><a xlink:href="AbExt.html#AbExt_ind" xlink:title="AbExt_ind">
<ellipse fill="#7fffd4" stroke="black" cx="570" cy="-251.63" rx="57.71" ry="18"/>
<ellipse fill="none" stroke="black" cx="570" cy="-251.63" rx="61.7" ry="22"/>
<ellipse fill="none" stroke="black" cx="570" cy="-251.63" rx="65.69" ry="26"/>
<text text-anchor="middle" x="570" y="-247.93" font-family="Times,serif" font-size="14.00">AbExt_ind</text>
</a>
</g>
</g>
<!-- AbExt_AbExt_ind&#45;&gt;AbExt_Build_AbExt -->
<g id="edge31" class="edge">
<title>AbExt_AbExt_ind&#45;&gt;AbExt_Build_AbExt</title>
<path fill="none" stroke="black" d="M548.77,-226.66C519.3,-193.38 466.26,-133.5 436.59,-100"/>
<polygon fill="black" stroke="black" points="439.18,-97.65 429.93,-92.48 433.94,-102.29 439.18,-97.65"/>
</g>
<!-- AbExt_AbExt_ind&#45;&gt;AbExt_AbExt -->
<g id="edge32" class="edge">
<title>AbExt_AbExt_ind&#45;&gt;AbExt_AbExt</title>
<path fill="none" stroke="black" d="M619.2,-234.15C627.79,-231.29 636.65,-228.36 645,-225.63 801.52,-174.29 988.15,-114.52 1069.15,-88.66"/>
<polygon fill="black" stroke="black" points="1070.49,-91.9 1078.95,-85.53 1068.36,-85.23 1070.49,-91.9"/>
</g>
<!-- AbExt_AbExt_rect&#45;&gt;AbExt_Build_AbExt -->
<g id="edge33" class="edge">
<title>AbExt_AbExt_rect&#45;&gt;AbExt_Build_AbExt</title>
<path fill="none" stroke="black" d="M107.02,-235.55C167.71,-204.04 308.04,-131.17 376.31,-95.72"/>
<polygon fill="black" stroke="black" points="378.18,-98.69 385.45,-90.97 374.96,-92.48 378.18,-98.69"/>
</g>
<!-- AbExt_AbExt_rect&#45;&gt;AbExt_AbExt -->
<g id="edge34" class="edge">
<title>AbExt_AbExt_rect&#45;&gt;AbExt_AbExt</title>
<path fill="none" stroke="black" d="M113.36,-236.74C124.62,-232.7 137.21,-228.59 149,-225.63 493.26,-138.93 920.22,-93.46 1061.86,-79.98"/>
<polygon fill="black" stroke="black" points="1062.32,-83.45 1071.95,-79.03 1061.66,-76.48 1062.32,-83.45"/>
</g>
</g>
</svg>
