<?xml version="1.0" encoding="UTF-8" standalone="no"?>
<!DOCTYPE svg PUBLIC "-//W3C//DTD SVG 1.1//EN"
 "http://www.w3.org/Graphics/SVG/1.1/DTD/svg11.dtd">
<!-- Generated by graphviz version 2.43.0 (0)
 -->
<!-- Title: HoTT_Colimits_Colimit_Flattening Pages: 1 -->
<svg width="942pt" height="475pt"
 viewBox="0.00 0.00 942.00 475.00" xmlns="http://www.w3.org/2000/svg" xmlns:xlink="http://www.w3.org/1999/xlink">
<g id="graph0" class="graph" transform="scale(1 1) rotate(0) translate(4 471)">
<title>HoTT_Colimits_Colimit_Flattening</title>
<polygon fill="white" stroke="transparent" points="-4,4 -4,-471 938,-471 938,4 -4,4"/>
<g id="clust1" class="cluster">
<title>cluster_Colimit_Flattening</title>
<polygon fill="#ffffc3" stroke="black" points="23.35,-8 23.35,-459 910.65,-459 910.65,-8 23.35,-8"/>
<text text-anchor="middle" x="97.85" y="-443.8" font-family="Times,serif" font-size="14.00">Colimit_Flattening</text>
</g>
<!-- Colimit_Flattening_flattening_lemma -->
<g id="node1" class="node">
<title>Colimit_Flattening_flattening_lemma</title>
<g id="a_node1"><a xlink:href="Colimit_Flattening.html#flattening_lemma" xlink:title="flattening_lemma">
<ellipse fill="#f070d1" stroke="black" cx="446.74" cy="-402" rx="90.98" ry="18"/>
<ellipse fill="none" stroke="black" cx="446.74" cy="-402" rx="94.98" ry="22"/>
<ellipse fill="none" stroke="black" cx="446.74" cy="-402" rx="98.98" ry="26"/>
<text text-anchor="middle" x="446.74" y="-398.3" font-family="Times,serif" font-size="14.00">flattening_lemma</text>
</a>
</g>
</g>
<!-- Colimit_Flattening_unicocone_cocone_E_ -->
<g id="node2" class="node">
<title>Colimit_Flattening_unicocone_cocone_E_</title>
<g id="a_node2"><a xlink:href="Colimit_Flattening.html#unicocone_cocone_E'" xlink:title="unicocone_cocone_E&#39;">
<ellipse fill="#f070d1" stroke="black" cx="446.74" cy="-322" rx="106.68" ry="18"/>
<text text-anchor="middle" x="446.74" y="-318.3" font-family="Times,serif" font-size="14.00">unicocone_cocone_E&#39;</text>
</a>
</g>
</g>
<!-- Colimit_Flattening_flattening_lemma&#45;&gt;Colimit_Flattening_unicocone_cocone_E_ -->
<g id="edge1" class="edge">
<title>Colimit_Flattening_flattening_lemma&#45;&gt;Colimit_Flattening_unicocone_cocone_E_</title>
<path fill="none" stroke="black" d="M446.74,-375.89C446.74,-367.84 446.74,-358.88 446.74,-350.66"/>
<polygon fill="black" stroke="black" points="450.24,-350.41 446.74,-340.41 443.24,-350.41 450.24,-350.41"/>
</g>
<!-- Colimit_Flattening_cocone_E_ -->
<g id="node3" class="node">
<title>Colimit_Flattening_cocone_E_</title>
<g id="a_node3"><a xlink:href="Colimit_Flattening.html#cocone_E'" xlink:title="cocone_E&#39;">
<ellipse fill="#f070d1" stroke="black" cx="209.74" cy="-178" rx="55.79" ry="18"/>
<text text-anchor="middle" x="209.74" y="-174.3" font-family="Times,serif" font-size="14.00">cocone_E&#39;</text>
</a>
</g>
</g>
<!-- Colimit_Flattening_unicocone_cocone_E_&#45;&gt;Colimit_Flattening_cocone_E_ -->
<g id="edge2" class="edge">
<title>Colimit_Flattening_unicocone_cocone_E_&#45;&gt;Colimit_Flattening_cocone_E_</title>
<path fill="none" stroke="black" d="M419.09,-304.43C375.5,-278.32 290.92,-227.64 243.7,-199.35"/>
<polygon fill="black" stroke="black" points="245.43,-196.31 235.06,-194.17 241.83,-202.31 245.43,-196.31"/>
</g>
<!-- Colimit_Flattening_transport_E__V_E_ -->
<g id="node4" class="node">
<title>Colimit_Flattening_transport_E__V_E_</title>
<g id="a_node4"><a xlink:href="Colimit_Flattening.html#transport_E'_V_E'" xlink:title="transport_E&#39;_V_E&#39;">
<ellipse fill="#f070d1" stroke="black" cx="595.74" cy="-250" rx="92.88" ry="18"/>
<text text-anchor="middle" x="595.74" y="-246.3" font-family="Times,serif" font-size="14.00">transport_E&#39;_V_E&#39;</text>
</a>
</g>
</g>
<!-- Colimit_Flattening_unicocone_cocone_E_&#45;&gt;Colimit_Flattening_transport_E__V_E_ -->
<g id="edge3" class="edge">
<title>Colimit_Flattening_unicocone_cocone_E_&#45;&gt;Colimit_Flattening_transport_E__V_E_</title>
<path fill="none" stroke="black" d="M480.92,-304.94C502.29,-294.9 530,-281.89 552.84,-271.16"/>
<polygon fill="black" stroke="black" points="554.41,-274.28 561.97,-266.86 551.43,-267.95 554.41,-274.28"/>
</g>
<!-- Colimit_Flattening_transport_E_ -->
<g id="node6" class="node">
<title>Colimit_Flattening_transport_E_</title>
<g id="a_node6"><a xlink:href="Colimit_Flattening.html#transport_E'" xlink:title="transport_E&#39;">
<ellipse fill="#f070d1" stroke="black" cx="449.74" cy="-106" rx="68.49" ry="18"/>
<text text-anchor="middle" x="449.74" y="-102.3" font-family="Times,serif" font-size="14.00">transport_E&#39;</text>
</a>
</g>
</g>
<!-- Colimit_Flattening_cocone_E_&#45;&gt;Colimit_Flattening_transport_E_ -->
<g id="edge4" class="edge">
<title>Colimit_Flattening_cocone_E_&#45;&gt;Colimit_Flattening_transport_E_</title>
<path fill="none" stroke="black" d="M249.64,-165.36C289.66,-153.69 351.57,-135.63 395.92,-122.7"/>
<polygon fill="black" stroke="black" points="397.05,-126.01 405.67,-119.85 395.09,-119.29 397.05,-126.01"/>
</g>
<!-- Colimit_Flattening_transport_E__V -->
<g id="node5" class="node">
<title>Colimit_Flattening_transport_E__V</title>
<g id="a_node5"><a xlink:href="Colimit_Flattening.html#transport_E'_V" xlink:title="transport_E&#39;_V">
<ellipse fill="#f070d1" stroke="black" cx="656.74" cy="-178" rx="79.09" ry="18"/>
<text text-anchor="middle" x="656.74" y="-174.3" font-family="Times,serif" font-size="14.00">transport_E&#39;_V</text>
</a>
</g>
</g>
<!-- Colimit_Flattening_transport_E__V_E_&#45;&gt;Colimit_Flattening_transport_E__V -->
<g id="edge5" class="edge">
<title>Colimit_Flattening_transport_E__V_E_&#45;&gt;Colimit_Flattening_transport_E__V</title>
<path fill="none" stroke="black" d="M610.5,-232.05C618,-223.46 627.23,-212.86 635.48,-203.4"/>
<polygon fill="black" stroke="black" points="638.18,-205.63 642.11,-195.79 632.9,-201.03 638.18,-205.63"/>
</g>
<!-- Colimit_Flattening_transport_E__V&#45;&gt;Colimit_Flattening_transport_E_ -->
<g id="edge6" class="edge">
<title>Colimit_Flattening_transport_E__V&#45;&gt;Colimit_Flattening_transport_E_</title>
<path fill="none" stroke="black" d="M614.6,-162.75C581.32,-151.5 534.79,-135.76 499.65,-123.88"/>
<polygon fill="black" stroke="black" points="500.65,-120.52 490.06,-120.63 498.41,-127.15 500.65,-120.52"/>
</g>
<!-- Colimit_Flattening_E_ -->
<g id="node7" class="node">
<title>Colimit_Flattening_E_</title>
<g id="a_node7"><a xlink:href="Colimit_Flattening.html#E'" xlink:title="E&#39;">
<ellipse fill="#f070d1" stroke="black" cx="449.74" cy="-34" rx="27" ry="18"/>
<text text-anchor="middle" x="449.74" y="-30.3" font-family="Times,serif" font-size="14.00">E&#39;</text>
</a>
</g>
</g>
<!-- Colimit_Flattening_transport_E_&#45;&gt;Colimit_Flattening_E_ -->
<g id="edge7" class="edge">
<title>Colimit_Flattening_transport_E_&#45;&gt;Colimit_Flattening_E_</title>
<path fill="none" stroke="black" d="M449.74,-87.7C449.74,-79.98 449.74,-70.71 449.74,-62.11"/>
<polygon fill="black" stroke="black" points="453.24,-62.1 449.74,-52.1 446.24,-62.1 453.24,-62.1"/>
</g>
</g>
</svg>
