<?xml version="1.0" encoding="UTF-8" standalone="no"?>
<!DOCTYPE svg PUBLIC "-//W3C//DTD SVG 1.1//EN"
 "http://www.w3.org/Graphics/SVG/1.1/DTD/svg11.dtd">
<!-- Generated by graphviz version 2.43.0 (0)
 -->
<!-- Title: HoTT_Homotopy_HSpaceS1 Pages: 1 -->
<svg width="798pt" height="403pt"
 viewBox="0.00 0.00 798.00 403.00" xmlns="http://www.w3.org/2000/svg" xmlns:xlink="http://www.w3.org/1999/xlink">
<g id="graph0" class="graph" transform="scale(1 1) rotate(0) translate(4 399)">
<title>HoTT_Homotopy_HSpaceS1</title>
<polygon fill="white" stroke="transparent" points="-4,4 -4,-399 794,-399 794,4 -4,4"/>
<g id="clust1" class="cluster">
<title>cluster_HSpaceS1</title>
<polygon fill="#ffffc3" stroke="black" points="9.53,-8 9.53,-387 780.47,-387 780.47,-8 9.53,-8"/>
<text text-anchor="middle" x="54.53" y="-371.8" font-family="Times,serif" font-size="14.00">HSpaceS1</text>
</g>
<!-- HSpaceS1_commutative_sgop_s1 -->
<g id="node1" class="node">
<title>HSpaceS1_commutative_sgop_s1</title>
<g id="a_node1"><a xlink:href="HSpaceS1.html#commutative_sgop_s1" xlink:title="commutative_sgop_s1">
<ellipse fill="#f070d1" stroke="black" cx="627.52" cy="-330" rx="112.38" ry="18"/>
<ellipse fill="none" stroke="black" cx="627.52" cy="-330" rx="116.38" ry="22"/>
<ellipse fill="none" stroke="black" cx="627.52" cy="-330" rx="120.38" ry="26"/>
<text text-anchor="middle" x="627.52" y="-326.3" font-family="Times,serif" font-size="14.00">commutative_sgop_s1</text>
</a>
</g>
</g>
<!-- HSpaceS1_rightidentity_s1 -->
<g id="node4" class="node">
<title>HSpaceS1_rightidentity_s1</title>
<g id="a_node4"><a xlink:href="HSpaceS1.html#rightidentity_s1" xlink:title="rightidentity_s1">
<ellipse fill="#f070d1" stroke="black" cx="328.52" cy="-250" rx="85.29" ry="18"/>
<text text-anchor="middle" x="328.52" y="-246.3" font-family="Times,serif" font-size="14.00">rightidentity_s1</text>
</a>
</g>
</g>
<!-- HSpaceS1_commutative_sgop_s1&#45;&gt;HSpaceS1_rightidentity_s1 -->
<g id="edge1" class="edge">
<title>HSpaceS1_commutative_sgop_s1&#45;&gt;HSpaceS1_rightidentity_s1</title>
<path fill="none" stroke="black" d="M552.84,-309.52C502.61,-296.42 437.21,-279.36 390,-267.04"/>
<polygon fill="black" stroke="black" points="390.77,-263.62 380.22,-264.49 389.01,-270.4 390.77,-263.62"/>
</g>
<!-- HSpaceS1_associative_sgop_s1 -->
<g id="node2" class="node">
<title>HSpaceS1_associative_sgop_s1</title>
<g id="a_node2"><a xlink:href="HSpaceS1.html#associative_sgop_s1" xlink:title="associative_sgop_s1">
<ellipse fill="#f070d1" stroke="black" cx="330.52" cy="-330" rx="103.19" ry="18"/>
<ellipse fill="none" stroke="black" cx="330.52" cy="-330" rx="107.19" ry="22"/>
<ellipse fill="none" stroke="black" cx="330.52" cy="-330" rx="111.18" ry="26"/>
<text text-anchor="middle" x="330.52" y="-326.3" font-family="Times,serif" font-size="14.00">associative_sgop_s1</text>
</a>
</g>
</g>
<!-- HSpaceS1_associative_sgop_s1&#45;&gt;HSpaceS1_rightidentity_s1 -->
<g id="edge2" class="edge">
<title>HSpaceS1_associative_sgop_s1&#45;&gt;HSpaceS1_rightidentity_s1</title>
<path fill="none" stroke="black" d="M329.87,-303.89C329.67,-295.84 329.44,-286.88 329.23,-278.66"/>
<polygon fill="black" stroke="black" points="332.72,-278.32 328.96,-268.41 325.72,-278.5 332.72,-278.32"/>
</g>
<!-- HSpaceS1_hspace_s1 -->
<g id="node3" class="node">
<title>HSpaceS1_hspace_s1</title>
<g id="a_node3"><a xlink:href="HSpaceS1.html#hspace_s1" xlink:title="hspace_s1">
<ellipse fill="#f070d1" stroke="black" cx="97.52" cy="-330" rx="57.71" ry="18"/>
<ellipse fill="none" stroke="black" cx="97.52" cy="-330" rx="61.7" ry="22"/>
<ellipse fill="none" stroke="black" cx="97.52" cy="-330" rx="65.69" ry="26"/>
<text text-anchor="middle" x="97.52" y="-326.3" font-family="Times,serif" font-size="14.00">hspace_s1</text>
</a>
</g>
</g>
<!-- HSpaceS1_hspace_s1&#45;&gt;HSpaceS1_rightidentity_s1 -->
<g id="edge3" class="edge">
<title>HSpaceS1_hspace_s1&#45;&gt;HSpaceS1_rightidentity_s1</title>
<path fill="none" stroke="black" d="M146.5,-312.46C184.48,-299.64 236.99,-281.9 275.86,-268.78"/>
<polygon fill="black" stroke="black" points="277.08,-272.06 285.43,-265.55 274.84,-265.43 277.08,-272.06"/>
</g>
<!-- HSpaceS1_leftidentity_s1 -->
<g id="node5" class="node">
<title>HSpaceS1_leftidentity_s1</title>
<g id="a_node5"><a xlink:href="HSpaceS1.html#leftidentity_s1" xlink:title="leftidentity_s1">
<ellipse fill="#f070d1" stroke="black" cx="113.52" cy="-250" rx="77.19" ry="18"/>
<text text-anchor="middle" x="113.52" y="-246.3" font-family="Times,serif" font-size="14.00">leftidentity_s1</text>
</a>
</g>
</g>
<!-- HSpaceS1_hspace_s1&#45;&gt;HSpaceS1_leftidentity_s1 -->
<g id="edge4" class="edge">
<title>HSpaceS1_hspace_s1&#45;&gt;HSpaceS1_leftidentity_s1</title>
<path fill="none" stroke="black" d="M102.67,-303.89C104.34,-295.75 106.2,-286.68 107.9,-278.38"/>
<polygon fill="black" stroke="black" points="111.36,-278.91 109.94,-268.41 104.51,-277.5 111.36,-278.91"/>
</g>
<!-- HSpaceS1_sgop_s1 -->
<g id="node6" class="node">
<title>HSpaceS1_sgop_s1</title>
<g id="a_node6"><a xlink:href="HSpaceS1.html#sgop_s1" xlink:title="sgop_s1">
<ellipse fill="#f070d1" stroke="black" cx="127.52" cy="-178" rx="48.19" ry="18"/>
<text text-anchor="middle" x="127.52" y="-174.3" font-family="Times,serif" font-size="14.00">sgop_s1</text>
</a>
</g>
</g>
<!-- HSpaceS1_rightidentity_s1&#45;&gt;HSpaceS1_sgop_s1 -->
<g id="edge5" class="edge">
<title>HSpaceS1_rightidentity_s1&#45;&gt;HSpaceS1_sgop_s1</title>
<path fill="none" stroke="black" d="M286.38,-234.33C252.64,-222.58 205.48,-206.15 171.31,-194.25"/>
<polygon fill="black" stroke="black" points="172.19,-190.85 161.6,-190.87 169.89,-197.46 172.19,-190.85"/>
</g>
<!-- HSpaceS1_Sph1_rec_beta_loop -->
<g id="node8" class="node">
<title>HSpaceS1_Sph1_rec_beta_loop</title>
<g id="a_node8"><a xlink:href="HSpaceS1.html#Sph1_rec_beta_loop" xlink:title="Sph1_rec_beta_loop">
<ellipse fill="#f070d1" stroke="black" cx="328.52" cy="-178" rx="102.88" ry="18"/>
<text text-anchor="middle" x="328.52" y="-174.3" font-family="Times,serif" font-size="14.00">Sph1_rec_beta_loop</text>
</a>
</g>
</g>
<!-- HSpaceS1_rightidentity_s1&#45;&gt;HSpaceS1_Sph1_rec_beta_loop -->
<g id="edge6" class="edge">
<title>HSpaceS1_rightidentity_s1&#45;&gt;HSpaceS1_Sph1_rec_beta_loop</title>
<path fill="none" stroke="black" d="M328.52,-231.7C328.52,-223.98 328.52,-214.71 328.52,-206.11"/>
<polygon fill="black" stroke="black" points="332.02,-206.1 328.52,-196.1 325.02,-206.1 332.02,-206.1"/>
</g>
<!-- HSpaceS1_leftidentity_s1&#45;&gt;HSpaceS1_sgop_s1 -->
<g id="edge7" class="edge">
<title>HSpaceS1_leftidentity_s1&#45;&gt;HSpaceS1_sgop_s1</title>
<path fill="none" stroke="black" d="M116.98,-231.7C118.52,-223.98 120.37,-214.71 122.09,-206.11"/>
<polygon fill="black" stroke="black" points="125.57,-206.6 124.09,-196.1 118.7,-205.22 125.57,-206.6"/>
</g>
<!-- HSpaceS1_s1_turn -->
<g id="node7" class="node">
<title>HSpaceS1_s1_turn</title>
<g id="a_node7"><a xlink:href="HSpaceS1.html#s1_turn" xlink:title="s1_turn">
<ellipse fill="#f070d1" stroke="black" cx="127.52" cy="-106" rx="46.29" ry="18"/>
<text text-anchor="middle" x="127.52" y="-102.3" font-family="Times,serif" font-size="14.00">s1_turn</text>
</a>
</g>
</g>
<!-- HSpaceS1_sgop_s1&#45;&gt;HSpaceS1_s1_turn -->
<g id="edge8" class="edge">
<title>HSpaceS1_sgop_s1&#45;&gt;HSpaceS1_s1_turn</title>
<path fill="none" stroke="black" d="M127.52,-159.7C127.52,-151.98 127.52,-142.71 127.52,-134.11"/>
<polygon fill="black" stroke="black" points="131.02,-134.1 127.52,-124.1 124.02,-134.1 131.02,-134.1"/>
</g>
<!-- HSpaceS1_Sph1_rec -->
<g id="node9" class="node">
<title>HSpaceS1_Sph1_rec</title>
<g id="a_node9"><a xlink:href="HSpaceS1.html#Sph1_rec" xlink:title="Sph1_rec">
<ellipse fill="#f070d1" stroke="black" cx="297.52" cy="-106" rx="53.89" ry="18"/>
<text text-anchor="middle" x="297.52" y="-102.3" font-family="Times,serif" font-size="14.00">Sph1_rec</text>
</a>
</g>
</g>
<!-- HSpaceS1_sgop_s1&#45;&gt;HSpaceS1_Sph1_rec -->
<g id="edge9" class="edge">
<title>HSpaceS1_sgop_s1&#45;&gt;HSpaceS1_Sph1_rec</title>
<path fill="none" stroke="black" d="M158.7,-164.16C185.86,-152.98 225.47,-136.67 255.43,-124.33"/>
<polygon fill="black" stroke="black" points="256.88,-127.52 264.79,-120.47 254.22,-121.04 256.88,-127.52"/>
</g>
<!-- HSpaceS1_Sph1_ind -->
<g id="node10" class="node">
<title>HSpaceS1_Sph1_ind</title>
<g id="a_node10"><a xlink:href="HSpaceS1.html#Sph1_ind" xlink:title="Sph1_ind">
<ellipse fill="#f070d1" stroke="black" cx="127.52" cy="-34" rx="53.89" ry="18"/>
<text text-anchor="middle" x="127.52" y="-30.3" font-family="Times,serif" font-size="14.00">Sph1_ind</text>
</a>
</g>
</g>
<!-- HSpaceS1_s1_turn&#45;&gt;HSpaceS1_Sph1_ind -->
<g id="edge10" class="edge">
<title>HSpaceS1_s1_turn&#45;&gt;HSpaceS1_Sph1_ind</title>
<path fill="none" stroke="black" d="M127.52,-87.7C127.52,-79.98 127.52,-70.71 127.52,-62.11"/>
<polygon fill="black" stroke="black" points="131.02,-62.1 127.52,-52.1 124.02,-62.1 131.02,-62.1"/>
</g>
<!-- HSpaceS1_Sph1_rec_beta_loop&#45;&gt;HSpaceS1_Sph1_rec -->
<g id="edge11" class="edge">
<title>HSpaceS1_Sph1_rec_beta_loop&#45;&gt;HSpaceS1_Sph1_rec</title>
<path fill="none" stroke="black" d="M320.85,-159.7C317.32,-151.73 313.06,-142.1 309.15,-133.26"/>
<polygon fill="black" stroke="black" points="312.34,-131.83 305.09,-124.1 305.94,-134.67 312.34,-131.83"/>
</g>
</g>
</svg>
