<?xml version="1.0" encoding="UTF-8" standalone="no"?>
<!DOCTYPE svg PUBLIC "-//W3C//DTD SVG 1.1//EN"
 "http://www.w3.org/Graphics/SVG/1.1/DTD/svg11.dtd">
<!-- Generated by graphviz version 2.43.0 (0)
 -->
<!-- Title: HoTT_WildCat_FunctorCat Pages: 1 -->
<svg width="2207pt" height="1107pt"
 viewBox="0.00 0.00 2207.00 1107.50" xmlns="http://www.w3.org/2000/svg" xmlns:xlink="http://www.w3.org/1999/xlink">
<g id="graph0" class="graph" transform="scale(1 1) rotate(0) translate(4 1103.5)">
<title>HoTT_WildCat_FunctorCat</title>
<polygon fill="white" stroke="transparent" points="-4,4 -4,-1103.5 2203,-1103.5 2203,4 -4,4"/>
<g id="clust1" class="cluster">
<title>cluster_FunctorCat</title>
<polygon fill="#ffffc3" stroke="black" points="8,-17.63 8,-1081.87 2191,-1081.87 2191,-17.63 8,-17.63"/>
<text text-anchor="middle" x="57" y="-1066.67" font-family="Times,serif" font-size="14.00">FunctorCat</text>
</g>
<!-- FunctorCat_hasequivs_fun11 -->
<g id="node1" class="node">
<title>FunctorCat_hasequivs_fun11</title>
<g id="a_node1"><a xlink:href="FunctorCat.html#hasequivs_fun11" xlink:title="hasequivs_fun11">
<ellipse fill="#f070d1" stroke="black" cx="895" cy="-956.63" rx="88.29" ry="18"/>
<ellipse fill="none" stroke="black" cx="895" cy="-956.63" rx="92.29" ry="22"/>
<ellipse fill="none" stroke="black" cx="895" cy="-956.63" rx="96.28" ry="26"/>
<text text-anchor="middle" x="895" y="-952.93" font-family="Times,serif" font-size="14.00">hasequivs_fun11</text>
</a>
</g>
</g>
<!-- FunctorCat_is1cat_fun11 -->
<g id="node2" class="node">
<title>FunctorCat_is1cat_fun11</title>
<g id="a_node2"><a xlink:href="FunctorCat.html#is1cat_fun11" xlink:title="is1cat_fun11">
<ellipse fill="#f070d1" stroke="black" cx="983" cy="-779.63" rx="69.59" ry="18"/>
<text text-anchor="middle" x="983" y="-775.93" font-family="Times,serif" font-size="14.00">is1cat_fun11</text>
</a>
</g>
</g>
<!-- FunctorCat_hasequivs_fun11&#45;&gt;FunctorCat_is1cat_fun11 -->
<g id="edge1" class="edge">
<title>FunctorCat_hasequivs_fun11&#45;&gt;FunctorCat_is1cat_fun11</title>
<path fill="none" stroke="black" d="M907.61,-930.55C924.13,-897.69 952.98,-840.33 969.79,-806.89"/>
<polygon fill="black" stroke="black" points="973.03,-808.24 974.4,-797.73 966.78,-805.09 973.03,-808.24"/>
</g>
<!-- FunctorCat_hasequivs_fun01 -->
<g id="node15" class="node">
<title>FunctorCat_hasequivs_fun01</title>
<g id="a_node15"><a xlink:href="FunctorCat.html#hasequivs_fun01" xlink:title="hasequivs_fun01">
<ellipse fill="#f070d1" stroke="black" cx="807" cy="-779.63" rx="88.28" ry="18"/>
<text text-anchor="middle" x="807" y="-775.93" font-family="Times,serif" font-size="14.00">hasequivs_fun01</text>
</a>
</g>
</g>
<!-- FunctorCat_hasequivs_fun11&#45;&gt;FunctorCat_hasequivs_fun01 -->
<g id="edge2" class="edge">
<title>FunctorCat_hasequivs_fun11&#45;&gt;FunctorCat_hasequivs_fun01</title>
<path fill="none" stroke="black" d="M882.39,-930.55C865.87,-897.69 837.02,-840.33 820.21,-806.89"/>
<polygon fill="black" stroke="black" points="823.22,-805.09 815.6,-797.73 816.97,-808.24 823.22,-805.09"/>
</g>
<!-- FunctorCat_is01cat_fun11 -->
<g id="node3" class="node">
<title>FunctorCat_is01cat_fun11</title>
<g id="a_node3"><a xlink:href="FunctorCat.html#is01cat_fun11" xlink:title="is01cat_fun11">
<ellipse fill="#f070d1" stroke="black" cx="992" cy="-621.63" rx="75.29" ry="18"/>
<text text-anchor="middle" x="992" y="-617.93" font-family="Times,serif" font-size="14.00">is01cat_fun11</text>
</a>
</g>
</g>
<!-- FunctorCat_is1cat_fun11&#45;&gt;FunctorCat_is01cat_fun11 -->
<g id="edge3" class="edge">
<title>FunctorCat_is1cat_fun11&#45;&gt;FunctorCat_is01cat_fun11</title>
<path fill="none" stroke="black" d="M984,-761.34C985.55,-734.4 988.57,-682.17 990.42,-650.05"/>
<polygon fill="black" stroke="black" points="993.92,-650.18 991,-640 986.93,-649.78 993.92,-650.18"/>
</g>
<!-- FunctorCat_is0coh2cat_fun01 -->
<g id="node16" class="node">
<title>FunctorCat_is0coh2cat_fun01</title>
<g id="a_node16"><a xlink:href="FunctorCat.html#is0coh2cat_fun01" xlink:title="is0coh2cat_fun01">
<ellipse fill="#f070d1" stroke="black" cx="807" cy="-621.63" rx="91.78" ry="18"/>
<text text-anchor="middle" x="807" y="-617.93" font-family="Times,serif" font-size="14.00">is0coh2cat_fun01</text>
</a>
</g>
</g>
<!-- FunctorCat_is1cat_fun11&#45;&gt;FunctorCat_is0coh2cat_fun01 -->
<g id="edge4" class="edge">
<title>FunctorCat_is1cat_fun11&#45;&gt;FunctorCat_is0coh2cat_fun01</title>
<path fill="none" stroke="black" d="M964.5,-762.23C933.15,-734.45 869.52,-678.04 833.46,-646.08"/>
<polygon fill="black" stroke="black" points="835.59,-643.29 825.78,-639.28 830.95,-648.53 835.59,-643.29"/>
</g>
<!-- FunctorCat_isgraph_fun11 -->
<g id="node4" class="node">
<title>FunctorCat_isgraph_fun11</title>
<g id="a_node4"><a xlink:href="FunctorCat.html#isgraph_fun11" xlink:title="isgraph_fun11">
<ellipse fill="#f070d1" stroke="black" cx="992" cy="-444.63" rx="77.19" ry="18"/>
<text text-anchor="middle" x="992" y="-440.93" font-family="Times,serif" font-size="14.00">isgraph_fun11</text>
</a>
</g>
</g>
<!-- FunctorCat_is01cat_fun11&#45;&gt;FunctorCat_isgraph_fun11 -->
<g id="edge5" class="edge">
<title>FunctorCat_is01cat_fun11&#45;&gt;FunctorCat_isgraph_fun11</title>
<path fill="none" stroke="black" d="M992,-603.53C992,-573.21 992,-509.78 992,-473.22"/>
<polygon fill="black" stroke="black" points="995.5,-472.79 992,-462.8 988.5,-472.8 995.5,-472.79"/>
</g>
<!-- FunctorCat_is0cat_fun01 -->
<g id="node17" class="node">
<title>FunctorCat_is0cat_fun01</title>
<g id="a_node17"><a xlink:href="FunctorCat.html#is0cat_fun01" xlink:title="is0cat_fun01">
<ellipse fill="#f070d1" stroke="black" cx="817" cy="-444.63" rx="69.59" ry="18"/>
<text text-anchor="middle" x="817" y="-440.93" font-family="Times,serif" font-size="14.00">is0cat_fun01</text>
</a>
</g>
</g>
<!-- FunctorCat_is01cat_fun11&#45;&gt;FunctorCat_is0cat_fun01 -->
<g id="edge6" class="edge">
<title>FunctorCat_is01cat_fun11&#45;&gt;FunctorCat_is0cat_fun01</title>
<path fill="none" stroke="black" d="M975.22,-603.85C943.99,-572.62 876.87,-505.49 840.91,-469.53"/>
<polygon fill="black" stroke="black" points="843.27,-466.95 833.73,-462.36 838.33,-471.9 843.27,-466.95"/>
</g>
<!-- FunctorCat_fun01_fun11 -->
<g id="node5" class="node">
<title>FunctorCat_fun01_fun11</title>
<g id="a_node5"><a xlink:href="FunctorCat.html#fun01_fun11" xlink:title="fun01_fun11">
<ellipse fill="#f070d1" stroke="black" cx="1080" cy="-251.63" rx="68.79" ry="18"/>
<text text-anchor="middle" x="1080" y="-247.93" font-family="Times,serif" font-size="14.00">fun01_fun11</text>
</a>
</g>
</g>
<!-- FunctorCat_isgraph_fun11&#45;&gt;FunctorCat_fun01_fun11 -->
<g id="edge7" class="edge">
<title>FunctorCat_isgraph_fun11&#45;&gt;FunctorCat_fun01_fun11</title>
<path fill="none" stroke="black" d="M999.81,-426.68C1015.2,-393.26 1049.56,-318.69 1067.91,-278.87"/>
<polygon fill="black" stroke="black" points="1071.2,-280.09 1072.21,-269.54 1064.84,-277.16 1071.2,-280.09"/>
</g>
<!-- FunctorCat_isgraph_fun01 -->
<g id="node18" class="node">
<title>FunctorCat_isgraph_fun01</title>
<g id="a_node18"><a xlink:href="FunctorCat.html#isgraph_fun01" xlink:title="isgraph_fun01">
<ellipse fill="#f070d1" stroke="black" cx="916" cy="-251.63" rx="77.19" ry="18"/>
<text text-anchor="middle" x="916" y="-247.93" font-family="Times,serif" font-size="14.00">isgraph_fun01</text>
</a>
</g>
</g>
<!-- FunctorCat_isgraph_fun11&#45;&gt;FunctorCat_isgraph_fun01 -->
<g id="edge8" class="edge">
<title>FunctorCat_isgraph_fun11&#45;&gt;FunctorCat_isgraph_fun01</title>
<path fill="none" stroke="black" d="M985.26,-426.68C971.99,-393.35 942.43,-319.06 926.56,-279.17"/>
<polygon fill="black" stroke="black" points="929.79,-277.81 922.84,-269.81 923.28,-280.4 929.79,-277.81"/>
</g>
<!-- FunctorCat_Fun11 -->
<g id="node14" class="node">
<title>FunctorCat_Fun11</title>
<g id="a_node14"><a xlink:href="FunctorCat.html#Fun11" xlink:title="Fun11">
<ellipse fill="#e2cdfa" stroke="black" cx="1543" cy="-74.63" rx="40.09" ry="18"/>
<text text-anchor="middle" x="1543" y="-70.93" font-family="Times,serif" font-size="14.00">Fun11</text>
</a>
</g>
</g>
<!-- FunctorCat_fun01_fun11&#45;&gt;FunctorCat_Fun11 -->
<g id="edge9" class="edge">
<title>FunctorCat_fun01_fun11&#45;&gt;FunctorCat_Fun11</title>
<path fill="none" stroke="black" d="M1117.5,-236.45C1203.73,-203.86 1415.47,-123.83 1503.56,-90.53"/>
<polygon fill="black" stroke="black" points="1505.06,-93.71 1513.18,-86.9 1502.59,-87.16 1505.06,-93.71"/>
</g>
<!-- FunctorCat_Build_Fun01 -->
<g id="node25" class="node">
<title>FunctorCat_Build_Fun01</title>
<g id="a_node25"><a xlink:href="FunctorCat.html#Build_Fun01" xlink:title="Build_Fun01">
<ellipse fill="#7faaff" stroke="black" cx="249" cy="-74.63" rx="69.59" ry="18"/>
<text text-anchor="middle" x="249" y="-70.93" font-family="Times,serif" font-size="14.00">Build_Fun01</text>
</a>
</g>
</g>
<!-- FunctorCat_fun01_fun11&#45;&gt;FunctorCat_Build_Fun01 -->
<g id="edge10" class="edge">
<title>FunctorCat_fun01_fun11&#45;&gt;FunctorCat_Build_Fun01</title>
<path fill="none" stroke="black" d="M1040.17,-236.9C1028,-232.97 1014.53,-228.87 1002,-225.63 752.04,-160.9 449.24,-108.24 316.66,-86.45"/>
<polygon fill="black" stroke="black" points="317.09,-82.98 306.65,-84.81 315.96,-89.88 317.09,-82.98"/>
</g>
<!-- FunctorCat_Fun01 -->
<g id="node26" class="node">
<title>FunctorCat_Fun01</title>
<g id="a_node26"><a xlink:href="FunctorCat.html#Fun01" xlink:title="Fun01">
<ellipse fill="#e2cdfa" stroke="black" cx="553" cy="-74.63" rx="40.09" ry="18"/>
<text text-anchor="middle" x="553" y="-70.93" font-family="Times,serif" font-size="14.00">Fun01</text>
</a>
</g>
</g>
<!-- FunctorCat_fun01_fun11&#45;&gt;FunctorCat_Fun01 -->
<g id="edge11" class="edge">
<title>FunctorCat_fun01_fun11&#45;&gt;FunctorCat_Fun01</title>
<path fill="none" stroke="black" d="M1039.09,-237.04C940.77,-204.39 692.12,-121.83 593.86,-89.2"/>
<polygon fill="black" stroke="black" points="594.87,-85.84 584.28,-86.01 592.67,-92.49 594.87,-85.84"/>
</g>
<!-- FunctorCat_is1functor_fun11 -->
<g id="node6" class="node">
<title>FunctorCat_is1functor_fun11</title>
<g id="a_node6"><a xlink:href="FunctorCat.html#is1functor_fun11" xlink:title="is1functor_fun11">
<ellipse fill="#f070d1" stroke="black" cx="1938" cy="-251.63" rx="89.08" ry="18"/>
<ellipse fill="none" stroke="black" cx="1938" cy="-251.63" rx="93.08" ry="22"/>
<ellipse fill="none" stroke="black" cx="1938" cy="-251.63" rx="97.08" ry="26"/>
<text text-anchor="middle" x="1938" y="-247.93" font-family="Times,serif" font-size="14.00">is1functor_fun11</text>
</a>
</g>
</g>
<!-- FunctorCat_is1functor_fun11&#45;&gt;FunctorCat_Fun11 -->
<g id="edge12" class="edge">
<title>FunctorCat_is1functor_fun11&#45;&gt;FunctorCat_Fun11</title>
<path fill="none" stroke="black" d="M1889.17,-228.99C1809.13,-193.53 1651.77,-123.82 1580.12,-92.07"/>
<polygon fill="black" stroke="black" points="1581.15,-88.7 1570.59,-87.85 1578.32,-95.1 1581.15,-88.7"/>
</g>
<!-- FunctorCat_is0functor_fun11 -->
<g id="node7" class="node">
<title>FunctorCat_is0functor_fun11</title>
<g id="a_node7"><a xlink:href="FunctorCat.html#is0functor_fun11" xlink:title="is0functor_fun11">
<ellipse fill="#f070d1" stroke="black" cx="1726" cy="-251.63" rx="89.08" ry="18"/>
<ellipse fill="none" stroke="black" cx="1726" cy="-251.63" rx="93.08" ry="22"/>
<ellipse fill="none" stroke="black" cx="1726" cy="-251.63" rx="97.08" ry="26"/>
<text text-anchor="middle" x="1726" y="-247.93" font-family="Times,serif" font-size="14.00">is0functor_fun11</text>
</a>
</g>
</g>
<!-- FunctorCat_is0functor_fun11&#45;&gt;FunctorCat_Fun11 -->
<g id="edge13" class="edge">
<title>FunctorCat_is0functor_fun11&#45;&gt;FunctorCat_Fun11</title>
<path fill="none" stroke="black" d="M1700.55,-226.29C1665.13,-192.42 1601.42,-131.49 1566.86,-98.44"/>
<polygon fill="black" stroke="black" points="1569.19,-95.83 1559.54,-91.45 1564.35,-100.89 1569.19,-95.83"/>
</g>
<!-- FunctorCat_fun11_fun -->
<g id="node8" class="node">
<title>FunctorCat_fun11_fun</title>
<g id="a_node8"><a xlink:href="FunctorCat.html#fun11_fun" xlink:title="fun11_fun">
<ellipse fill="#f070d1" stroke="black" cx="2118" cy="-251.63" rx="57.37" ry="18"/>
<ellipse fill="none" stroke="black" cx="2118" cy="-251.63" rx="61.38" ry="22"/>
<ellipse fill="none" stroke="black" cx="2118" cy="-251.63" rx="65.39" ry="26"/>
<text text-anchor="middle" x="2118" y="-247.93" font-family="Times,serif" font-size="14.00">fun11_fun</text>
</a>
</g>
</g>
<!-- FunctorCat_fun11_fun&#45;&gt;FunctorCat_Fun11 -->
<g id="edge14" class="edge">
<title>FunctorCat_fun11_fun&#45;&gt;FunctorCat_Fun11</title>
<path fill="none" stroke="black" d="M2069.52,-233.98C2061.03,-231.14 2052.27,-228.26 2044,-225.63 1875.07,-171.82 1672.36,-112.83 1585.69,-87.86"/>
<polygon fill="black" stroke="black" points="1586.53,-84.46 1575.95,-85.06 1584.59,-91.19 1586.53,-84.46"/>
</g>
<!-- FunctorCat_Fun11_sind -->
<g id="node9" class="node">
<title>FunctorCat_Fun11_sind</title>
<g id="a_node9"><a xlink:href="FunctorCat.html#Fun11_sind" xlink:title="Fun11_sind">
<ellipse fill="#f070d1" stroke="black" cx="1385" cy="-251.63" rx="64.21" ry="18"/>
<ellipse fill="none" stroke="black" cx="1385" cy="-251.63" rx="68.2" ry="22"/>
<ellipse fill="none" stroke="black" cx="1385" cy="-251.63" rx="72.19" ry="26"/>
<text text-anchor="middle" x="1385" y="-247.93" font-family="Times,serif" font-size="14.00">Fun11_sind</text>
</a>
</g>
</g>
<!-- FunctorCat_Build_Fun11 -->
<g id="node13" class="node">
<title>FunctorCat_Build_Fun11</title>
<g id="a_node13"><a xlink:href="FunctorCat.html#Build_Fun11" xlink:title="Build_Fun11">
<ellipse fill="#7faaff" stroke="black" cx="1385" cy="-74.63" rx="69.59" ry="18"/>
<text text-anchor="middle" x="1385" y="-70.93" font-family="Times,serif" font-size="14.00">Build_Fun11</text>
</a>
</g>
</g>
<!-- FunctorCat_Fun11_sind&#45;&gt;FunctorCat_Build_Fun11 -->
<g id="edge15" class="edge">
<title>FunctorCat_Fun11_sind&#45;&gt;FunctorCat_Build_Fun11</title>
<path fill="none" stroke="black" d="M1385,-225.55C1385,-192.98 1385,-136.31 1385,-102.76"/>
<polygon fill="black" stroke="black" points="1388.5,-102.73 1385,-92.73 1381.5,-102.73 1388.5,-102.73"/>
</g>
<!-- FunctorCat_Fun11_sind&#45;&gt;FunctorCat_Fun11 -->
<g id="edge16" class="edge">
<title>FunctorCat_Fun11_sind&#45;&gt;FunctorCat_Fun11</title>
<path fill="none" stroke="black" d="M1406.64,-226.66C1437,-193.04 1491.87,-132.25 1521.93,-98.97"/>
<polygon fill="black" stroke="black" points="1524.55,-101.29 1528.65,-91.52 1519.35,-96.6 1524.55,-101.29"/>
</g>
<!-- FunctorCat_Fun11_rec -->
<g id="node10" class="node">
<title>FunctorCat_Fun11_rec</title>
<g id="a_node10"><a xlink:href="FunctorCat.html#Fun11_rec" xlink:title="Fun11_rec">
<ellipse fill="#f070d1" stroke="black" cx="1231" cy="-444.63" rx="59.61" ry="18"/>
<ellipse fill="none" stroke="black" cx="1231" cy="-444.63" rx="63.6" ry="22"/>
<ellipse fill="none" stroke="black" cx="1231" cy="-444.63" rx="67.59" ry="26"/>
<text text-anchor="middle" x="1231" y="-440.93" font-family="Times,serif" font-size="14.00">Fun11_rec</text>
</a>
</g>
</g>
<!-- FunctorCat_Fun11_rect -->
<g id="node12" class="node">
<title>FunctorCat_Fun11_rect</title>
<g id="a_node12"><a xlink:href="FunctorCat.html#Fun11_rect" xlink:title="Fun11_rect">
<ellipse fill="#f070d1" stroke="black" cx="1231" cy="-251.63" rx="63.89" ry="18"/>
<text text-anchor="middle" x="1231" y="-247.93" font-family="Times,serif" font-size="14.00">Fun11_rect</text>
</a>
</g>
</g>
<!-- FunctorCat_Fun11_rec&#45;&gt;FunctorCat_Fun11_rect -->
<g id="edge17" class="edge">
<title>FunctorCat_Fun11_rec&#45;&gt;FunctorCat_Fun11_rect</title>
<path fill="none" stroke="black" d="M1231,-418.26C1231,-382.34 1231,-316.89 1231,-279.93"/>
<polygon fill="black" stroke="black" points="1234.5,-279.88 1231,-269.88 1227.5,-279.88 1234.5,-279.88"/>
</g>
<!-- FunctorCat_Fun11_ind -->
<g id="node11" class="node">
<title>FunctorCat_Fun11_ind</title>
<g id="a_node11"><a xlink:href="FunctorCat.html#Fun11_ind" xlink:title="Fun11_ind">
<ellipse fill="#7fffd4" stroke="black" cx="1543" cy="-251.63" rx="59.61" ry="18"/>
<ellipse fill="none" stroke="black" cx="1543" cy="-251.63" rx="63.6" ry="22"/>
<ellipse fill="none" stroke="black" cx="1543" cy="-251.63" rx="67.59" ry="26"/>
<text text-anchor="middle" x="1543" y="-247.93" font-family="Times,serif" font-size="14.00">Fun11_ind</text>
</a>
</g>
</g>
<!-- FunctorCat_Fun11_ind&#45;&gt;FunctorCat_Build_Fun11 -->
<g id="edge18" class="edge">
<title>FunctorCat_Fun11_ind&#45;&gt;FunctorCat_Build_Fun11</title>
<path fill="none" stroke="black" d="M1521.36,-226.66C1491.32,-193.38 1437.25,-133.5 1407.01,-100.01"/>
<polygon fill="black" stroke="black" points="1409.52,-97.56 1400.22,-92.49 1404.32,-102.25 1409.52,-97.56"/>
</g>
<!-- FunctorCat_Fun11_ind&#45;&gt;FunctorCat_Fun11 -->
<g id="edge19" class="edge">
<title>FunctorCat_Fun11_ind&#45;&gt;FunctorCat_Fun11</title>
<path fill="none" stroke="black" d="M1543,-225.55C1543,-192.98 1543,-136.31 1543,-102.76"/>
<polygon fill="black" stroke="black" points="1546.5,-102.73 1543,-92.73 1539.5,-102.73 1546.5,-102.73"/>
</g>
<!-- FunctorCat_Fun11_rect&#45;&gt;FunctorCat_Build_Fun11 -->
<g id="edge20" class="edge">
<title>FunctorCat_Fun11_rect&#45;&gt;FunctorCat_Build_Fun11</title>
<path fill="none" stroke="black" d="M1245.77,-233.85C1273.13,-202.75 1331.82,-136.06 1363.56,-99.99"/>
<polygon fill="black" stroke="black" points="1366.3,-102.18 1370.28,-92.36 1361.04,-97.55 1366.3,-102.18"/>
</g>
<!-- FunctorCat_Fun11_rect&#45;&gt;FunctorCat_Fun11 -->
<g id="edge21" class="edge">
<title>FunctorCat_Fun11_rect&#45;&gt;FunctorCat_Fun11</title>
<path fill="none" stroke="black" d="M1258.41,-235.25C1315.7,-203.12 1447.88,-128.98 1509.83,-94.23"/>
<polygon fill="black" stroke="black" points="1511.79,-97.15 1518.8,-89.2 1508.36,-91.04 1511.79,-97.15"/>
</g>
<!-- FunctorCat_hasequivs_fun01&#45;&gt;FunctorCat_is0coh2cat_fun01 -->
<g id="edge22" class="edge">
<title>FunctorCat_hasequivs_fun01&#45;&gt;FunctorCat_is0coh2cat_fun01</title>
<path fill="none" stroke="black" d="M807,-761.34C807,-734.4 807,-682.17 807,-650.05"/>
<polygon fill="black" stroke="black" points="810.5,-650 807,-640 803.5,-650 810.5,-650"/>
</g>
<!-- FunctorCat_is0coh2cat_fun01&#45;&gt;FunctorCat_is0cat_fun01 -->
<g id="edge23" class="edge">
<title>FunctorCat_is0coh2cat_fun01&#45;&gt;FunctorCat_is0cat_fun01</title>
<path fill="none" stroke="black" d="M807.98,-603.53C809.71,-573.21 813.33,-509.78 815.42,-473.22"/>
<polygon fill="black" stroke="black" points="818.94,-472.98 816.02,-462.8 811.95,-472.58 818.94,-472.98"/>
</g>
<!-- FunctorCat_is0cat_fun01&#45;&gt;FunctorCat_isgraph_fun01 -->
<g id="edge24" class="edge">
<title>FunctorCat_is0cat_fun01&#45;&gt;FunctorCat_isgraph_fun01</title>
<path fill="none" stroke="black" d="M825.79,-426.68C843.14,-393.19 881.92,-318.37 902.53,-278.62"/>
<polygon fill="black" stroke="black" points="905.74,-280.03 907.23,-269.54 899.52,-276.81 905.74,-280.03"/>
</g>
<!-- FunctorCat_is0cat_fun01&#45;&gt;FunctorCat_Build_Fun01 -->
<g id="edge25" class="edge">
<title>FunctorCat_is0cat_fun01&#45;&gt;FunctorCat_Build_Fun01</title>
<path fill="none" stroke="black" d="M749.73,-439.99C575.74,-429.04 118.14,-389.91 27,-277.63 -35.63,-200.47 118.24,-126.18 200.81,-93.29"/>
<polygon fill="black" stroke="black" points="202.23,-96.49 210.27,-89.58 199.68,-89.98 202.23,-96.49"/>
</g>
<!-- FunctorCat_isgraph_fun01&#45;&gt;FunctorCat_Fun01 -->
<g id="edge26" class="edge">
<title>FunctorCat_isgraph_fun01&#45;&gt;FunctorCat_Fun01</title>
<path fill="none" stroke="black" d="M883.79,-235.1C816.17,-202.5 659.87,-127.15 589.05,-93"/>
<polygon fill="black" stroke="black" points="590.16,-89.66 579.64,-88.47 587.12,-95.96 590.16,-89.66"/>
</g>
<!-- FunctorCat_fun01_is0functor -->
<g id="node19" class="node">
<title>FunctorCat_fun01_is0functor</title>
<g id="a_node19"><a xlink:href="FunctorCat.html#fun01_is0functor" xlink:title="fun01_is0functor">
<ellipse fill="#f070d1" stroke="black" cx="724" cy="-251.63" rx="89.08" ry="18"/>
<ellipse fill="none" stroke="black" cx="724" cy="-251.63" rx="93.08" ry="22"/>
<ellipse fill="none" stroke="black" cx="724" cy="-251.63" rx="97.08" ry="26"/>
<text text-anchor="middle" x="724" y="-247.93" font-family="Times,serif" font-size="14.00">fun01_is0functor</text>
</a>
</g>
</g>
<!-- FunctorCat_fun01_is0functor&#45;&gt;FunctorCat_Fun01 -->
<g id="edge27" class="edge">
<title>FunctorCat_fun01_is0functor&#45;&gt;FunctorCat_Fun01</title>
<path fill="none" stroke="black" d="M700.22,-226.29C667.26,-192.56 608.09,-132 575.7,-98.86"/>
<polygon fill="black" stroke="black" points="577.95,-96.15 568.46,-91.45 572.94,-101.05 577.95,-96.15"/>
</g>
<!-- FunctorCat_fun01_F -->
<g id="node20" class="node">
<title>FunctorCat_fun01_F</title>
<g id="a_node20"><a xlink:href="FunctorCat.html#fun01_F" xlink:title="fun01_F">
<ellipse fill="#f070d1" stroke="black" cx="553" cy="-251.63" rx="48.18" ry="18"/>
<ellipse fill="none" stroke="black" cx="553" cy="-251.63" rx="52.18" ry="22"/>
<ellipse fill="none" stroke="black" cx="553" cy="-251.63" rx="56.19" ry="26"/>
<text text-anchor="middle" x="553" y="-247.93" font-family="Times,serif" font-size="14.00">fun01_F</text>
</a>
</g>
</g>
<!-- FunctorCat_fun01_F&#45;&gt;FunctorCat_Fun01 -->
<g id="edge28" class="edge">
<title>FunctorCat_fun01_F&#45;&gt;FunctorCat_Fun01</title>
<path fill="none" stroke="black" d="M553,-225.55C553,-192.98 553,-136.31 553,-102.76"/>
<polygon fill="black" stroke="black" points="556.5,-102.73 553,-92.73 549.5,-102.73 556.5,-102.73"/>
</g>
<!-- FunctorCat_Fun01_sind -->
<g id="node21" class="node">
<title>FunctorCat_Fun01_sind</title>
<g id="a_node21"><a xlink:href="FunctorCat.html#Fun01_sind" xlink:title="Fun01_sind">
<ellipse fill="#f070d1" stroke="black" cx="407" cy="-251.63" rx="64.21" ry="18"/>
<ellipse fill="none" stroke="black" cx="407" cy="-251.63" rx="68.2" ry="22"/>
<ellipse fill="none" stroke="black" cx="407" cy="-251.63" rx="72.19" ry="26"/>
<text text-anchor="middle" x="407" y="-247.93" font-family="Times,serif" font-size="14.00">Fun01_sind</text>
</a>
</g>
</g>
<!-- FunctorCat_Fun01_sind&#45;&gt;FunctorCat_Build_Fun01 -->
<g id="edge29" class="edge">
<title>FunctorCat_Fun01_sind&#45;&gt;FunctorCat_Build_Fun01</title>
<path fill="none" stroke="black" d="M385.36,-226.66C355.32,-193.38 301.25,-133.5 271.01,-100.01"/>
<polygon fill="black" stroke="black" points="273.52,-97.56 264.22,-92.49 268.32,-102.25 273.52,-97.56"/>
</g>
<!-- FunctorCat_Fun01_sind&#45;&gt;FunctorCat_Fun01 -->
<g id="edge30" class="edge">
<title>FunctorCat_Fun01_sind&#45;&gt;FunctorCat_Fun01</title>
<path fill="none" stroke="black" d="M427.3,-226.29C455.18,-192.87 505.03,-133.13 532.84,-99.8"/>
<polygon fill="black" stroke="black" points="535.69,-101.84 539.4,-91.92 530.31,-97.36 535.69,-101.84"/>
</g>
<!-- FunctorCat_Fun01_rec -->
<g id="node22" class="node">
<title>FunctorCat_Fun01_rec</title>
<g id="a_node22"><a xlink:href="FunctorCat.html#Fun01_rec" xlink:title="Fun01_rec">
<ellipse fill="#f070d1" stroke="black" cx="100" cy="-444.63" rx="59.61" ry="18"/>
<ellipse fill="none" stroke="black" cx="100" cy="-444.63" rx="63.6" ry="22"/>
<ellipse fill="none" stroke="black" cx="100" cy="-444.63" rx="67.59" ry="26"/>
<text text-anchor="middle" x="100" y="-440.93" font-family="Times,serif" font-size="14.00">Fun01_rec</text>
</a>
</g>
</g>
<!-- FunctorCat_Fun01_rect -->
<g id="node24" class="node">
<title>FunctorCat_Fun01_rect</title>
<g id="a_node24"><a xlink:href="FunctorCat.html#Fun01_rect" xlink:title="Fun01_rect">
<ellipse fill="#f070d1" stroke="black" cx="100" cy="-251.63" rx="63.89" ry="18"/>
<text text-anchor="middle" x="100" y="-247.93" font-family="Times,serif" font-size="14.00">Fun01_rect</text>
</a>
</g>
</g>
<!-- FunctorCat_Fun01_rec&#45;&gt;FunctorCat_Fun01_rect -->
<g id="edge31" class="edge">
<title>FunctorCat_Fun01_rec&#45;&gt;FunctorCat_Fun01_rect</title>
<path fill="none" stroke="black" d="M100,-418.26C100,-382.34 100,-316.89 100,-279.93"/>
<polygon fill="black" stroke="black" points="103.5,-279.88 100,-269.88 96.5,-279.88 103.5,-279.88"/>
</g>
<!-- FunctorCat_Fun01_ind -->
<g id="node23" class="node">
<title>FunctorCat_Fun01_ind</title>
<g id="a_node23"><a xlink:href="FunctorCat.html#Fun01_ind" xlink:title="Fun01_ind">
<ellipse fill="#7fffd4" stroke="black" cx="249" cy="-251.63" rx="59.61" ry="18"/>
<ellipse fill="none" stroke="black" cx="249" cy="-251.63" rx="63.6" ry="22"/>
<ellipse fill="none" stroke="black" cx="249" cy="-251.63" rx="67.59" ry="26"/>
<text text-anchor="middle" x="249" y="-247.93" font-family="Times,serif" font-size="14.00">Fun01_ind</text>
</a>
</g>
</g>
<!-- FunctorCat_Fun01_ind&#45;&gt;FunctorCat_Build_Fun01 -->
<g id="edge32" class="edge">
<title>FunctorCat_Fun01_ind&#45;&gt;FunctorCat_Build_Fun01</title>
<path fill="none" stroke="black" d="M249,-225.55C249,-192.98 249,-136.31 249,-102.76"/>
<polygon fill="black" stroke="black" points="252.5,-102.73 249,-92.73 245.5,-102.73 252.5,-102.73"/>
</g>
<!-- FunctorCat_Fun01_ind&#45;&gt;FunctorCat_Fun01 -->
<g id="edge33" class="edge">
<title>FunctorCat_Fun01_ind&#45;&gt;FunctorCat_Fun01</title>
<path fill="none" stroke="black" d="M285.67,-229.52C345.51,-195.07 463.19,-127.33 520.33,-94.43"/>
<polygon fill="black" stroke="black" points="522.37,-97.3 529.29,-89.28 518.88,-91.23 522.37,-97.3"/>
</g>
<!-- FunctorCat_Fun01_rect&#45;&gt;FunctorCat_Build_Fun01 -->
<g id="edge34" class="edge">
<title>FunctorCat_Fun01_rect&#45;&gt;FunctorCat_Build_Fun01</title>
<path fill="none" stroke="black" d="M114.29,-233.85C140.76,-202.75 197.55,-136.06 228.26,-99.99"/>
<polygon fill="black" stroke="black" points="230.94,-102.24 234.76,-92.36 225.61,-97.7 230.94,-102.24"/>
</g>
<!-- FunctorCat_Fun01_rect&#45;&gt;FunctorCat_Fun01 -->
<g id="edge35" class="edge">
<title>FunctorCat_Fun01_rect&#45;&gt;FunctorCat_Fun01</title>
<path fill="none" stroke="black" d="M135.92,-236.75C219.65,-204.41 427.19,-124.23 513.93,-90.72"/>
<polygon fill="black" stroke="black" points="515.34,-93.93 523.4,-87.06 512.81,-87.4 515.34,-93.93"/>
</g>
</g>
</svg>
