<?xml version="1.0" encoding="UTF-8" standalone="no"?>
<!DOCTYPE svg PUBLIC "-//W3C//DTD SVG 1.1//EN"
 "http://www.w3.org/Graphics/SVG/1.1/DTD/svg11.dtd">
<!-- Generated by graphviz version 2.43.0 (0)
 -->
<!-- Title: HoTT_Basics_Logic Pages: 1 -->
<svg width="965pt" height="487pt"
 viewBox="0.00 0.00 965.00 486.50" xmlns="http://www.w3.org/2000/svg" xmlns:xlink="http://www.w3.org/1999/xlink">
<g id="graph0" class="graph" transform="scale(1 1) rotate(0) translate(4 482.5)">
<title>HoTT_Basics_Logic</title>
<polygon fill="white" stroke="transparent" points="-4,4 -4,-482.5 961,-482.5 961,4 -4,4"/>
<g id="clust1" class="cluster">
<title>cluster_Basics</title>
<polygon fill="#ffffc3" stroke="black" points="8,-12.51 8,-465.99 949,-465.99 949,-12.51 8,-12.51"/>
<text text-anchor="middle" x="39" y="-450.79" font-family="Times,serif" font-size="14.00">Basics</text>
</g>
<g id="clust2" class="cluster">
<title>cluster_Basics_Logic</title>
<polygon fill="#ffffa3" stroke="black" points="16,-25.02 16,-417.51 941,-417.51 941,-25.02 16,-25.02"/>
<text text-anchor="middle" x="43.5" y="-402.31" font-family="Times,serif" font-size="14.00">Logic</text>
</g>
<!-- Basics_Logic_not -->
<g id="node1" class="node">
<title>Basics_Logic_not</title>
<g id="a_node1"><a xlink:href="Basics.html#Logic.not" xlink:title="not">
<ellipse fill="#f070d1" stroke="black" cx="898" cy="-190.51" rx="27" ry="18"/>
<ellipse fill="none" stroke="black" cx="898" cy="-190.51" rx="31" ry="22"/>
<ellipse fill="none" stroke="black" cx="898" cy="-190.51" rx="35" ry="26"/>
<text text-anchor="middle" x="898" y="-186.81" font-family="Times,serif" font-size="14.00">not</text>
</a>
</g>
</g>
<!-- Basics_Logic_False -->
<g id="node6" class="node">
<title>Basics_Logic_False</title>
<g id="a_node6"><a xlink:href="Basics.html#Logic.False" xlink:title="False">
<ellipse fill="#e2cdfa" stroke="black" cx="706" cy="-65.51" rx="35.19" ry="18"/>
<text text-anchor="middle" x="706" y="-61.81" font-family="Times,serif" font-size="14.00">False</text>
</a>
</g>
</g>
<!-- Basics_Logic_not&#45;&gt;Basics_Logic_False -->
<g id="edge1" class="edge">
<title>Basics_Logic_not&#45;&gt;Basics_Logic_False</title>
<path fill="none" stroke="black" d="M872.11,-172.92C836.57,-150.16 772.86,-109.34 735.51,-85.42"/>
<polygon fill="black" stroke="black" points="737.38,-82.45 727.07,-80.01 733.6,-88.35 737.38,-82.45"/>
</g>
<!-- Basics_Logic_False_sind -->
<g id="node2" class="node">
<title>Basics_Logic_False_sind</title>
<g id="a_node2"><a xlink:href="Basics.html#Logic.False_sind" xlink:title="False_sind">
<ellipse fill="#f070d1" stroke="black" cx="778" cy="-190.51" rx="59.27" ry="18"/>
<ellipse fill="none" stroke="black" cx="778" cy="-190.51" rx="63.28" ry="22"/>
<ellipse fill="none" stroke="black" cx="778" cy="-190.51" rx="67.29" ry="26"/>
<text text-anchor="middle" x="778" y="-186.81" font-family="Times,serif" font-size="14.00">False_sind</text>
</a>
</g>
</g>
<!-- Basics_Logic_False_sind&#45;&gt;Basics_Logic_False -->
<g id="edge2" class="edge">
<title>Basics_Logic_False_sind&#45;&gt;Basics_Logic_False</title>
<path fill="none" stroke="black" d="M763.6,-164.91C751.23,-143.78 733.47,-113.43 720.94,-92.04"/>
<polygon fill="black" stroke="black" points="723.83,-90.05 715.76,-83.19 717.79,-93.58 723.83,-90.05"/>
</g>
<!-- Basics_Logic_False_rec -->
<g id="node3" class="node">
<title>Basics_Logic_False_rec</title>
<g id="a_node3"><a xlink:href="Basics.html#Logic.False_rec" xlink:title="False_rec">
<ellipse fill="#f070d1" stroke="black" cx="635" cy="-328.51" rx="53.9" ry="18"/>
<ellipse fill="none" stroke="black" cx="635" cy="-328.51" rx="57.89" ry="22"/>
<ellipse fill="none" stroke="black" cx="635" cy="-328.51" rx="61.89" ry="26"/>
<text text-anchor="middle" x="635" y="-324.81" font-family="Times,serif" font-size="14.00">False_rec</text>
</a>
</g>
</g>
<!-- Basics_Logic_False_rect -->
<g id="node5" class="node">
<title>Basics_Logic_False_rect</title>
<g id="a_node5"><a xlink:href="Basics.html#Logic.False_rect" xlink:title="False_rect">
<ellipse fill="#f070d1" stroke="black" cx="635" cy="-190.51" rx="57.69" ry="18"/>
<text text-anchor="middle" x="635" y="-186.81" font-family="Times,serif" font-size="14.00">False_rect</text>
</a>
</g>
</g>
<!-- Basics_Logic_False_rec&#45;&gt;Basics_Logic_False_rect -->
<g id="edge3" class="edge">
<title>Basics_Logic_False_rec&#45;&gt;Basics_Logic_False_rect</title>
<path fill="none" stroke="black" d="M635,-302.25C635,-278.56 635,-243.24 635,-218.89"/>
<polygon fill="black" stroke="black" points="638.5,-218.87 635,-208.87 631.5,-218.87 638.5,-218.87"/>
</g>
<!-- Basics_Logic_False_ind -->
<g id="node4" class="node">
<title>Basics_Logic_False_ind</title>
<g id="a_node4"><a xlink:href="Basics.html#Logic.False_ind" xlink:title="False_ind">
<ellipse fill="#7fffd4" stroke="black" cx="497" cy="-190.51" rx="53.9" ry="18"/>
<ellipse fill="none" stroke="black" cx="497" cy="-190.51" rx="57.89" ry="22"/>
<ellipse fill="none" stroke="black" cx="497" cy="-190.51" rx="61.89" ry="26"/>
<text text-anchor="middle" x="497" y="-186.81" font-family="Times,serif" font-size="14.00">False_ind</text>
</a>
</g>
</g>
<!-- Basics_Logic_False_ind&#45;&gt;Basics_Logic_False -->
<g id="edge4" class="edge">
<title>Basics_Logic_False_ind&#45;&gt;Basics_Logic_False</title>
<path fill="none" stroke="black" d="M531.98,-168.92C572,-145.37 636.92,-107.17 675.13,-84.68"/>
<polygon fill="black" stroke="black" points="676.94,-87.68 683.78,-79.59 673.39,-81.64 676.94,-87.68"/>
</g>
<!-- Basics_Logic_False_rect&#45;&gt;Basics_Logic_False -->
<g id="edge5" class="edge">
<title>Basics_Logic_False_rect&#45;&gt;Basics_Logic_False</title>
<path fill="none" stroke="black" d="M644.72,-172.67C656.73,-151.87 677.26,-116.3 691.22,-92.12"/>
<polygon fill="black" stroke="black" points="694.43,-93.56 696.39,-83.15 688.36,-90.06 694.43,-93.56"/>
</g>
<!-- Basics_Logic_True_sind -->
<g id="node7" class="node">
<title>Basics_Logic_True_sind</title>
<g id="a_node7"><a xlink:href="Basics.html#Logic.True_sind" xlink:title="True_sind">
<ellipse fill="#f070d1" stroke="black" cx="353" cy="-190.51" rx="55.8" ry="18"/>
<ellipse fill="none" stroke="black" cx="353" cy="-190.51" rx="59.8" ry="22"/>
<ellipse fill="none" stroke="black" cx="353" cy="-190.51" rx="63.79" ry="26"/>
<text text-anchor="middle" x="353" y="-186.81" font-family="Times,serif" font-size="14.00">True_sind</text>
</a>
</g>
</g>
<!-- Basics_Logic_I -->
<g id="node11" class="node">
<title>Basics_Logic_I</title>
<g id="a_node11"><a xlink:href="Basics.html#Logic.I" xlink:title="I">
<ellipse fill="#7faaff" stroke="black" cx="177" cy="-65.51" rx="27" ry="18"/>
<text text-anchor="middle" x="177" y="-61.81" font-family="Times,serif" font-size="14.00">I</text>
</a>
</g>
</g>
<!-- Basics_Logic_True_sind&#45;&gt;Basics_Logic_I -->
<g id="edge6" class="edge">
<title>Basics_Logic_True_sind&#45;&gt;Basics_Logic_I</title>
<path fill="none" stroke="black" d="M321.53,-167.52C287.91,-144.02 235.2,-107.18 203.58,-85.09"/>
<polygon fill="black" stroke="black" points="205.46,-82.13 195.26,-79.27 201.45,-87.87 205.46,-82.13"/>
</g>
<!-- Basics_Logic_True -->
<g id="node12" class="node">
<title>Basics_Logic_True</title>
<g id="a_node12"><a xlink:href="Basics.html#Logic.True" xlink:title="True">
<ellipse fill="#e2cdfa" stroke="black" cx="254" cy="-65.51" rx="32.49" ry="18"/>
<text text-anchor="middle" x="254" y="-61.81" font-family="Times,serif" font-size="14.00">True</text>
</a>
</g>
</g>
<!-- Basics_Logic_True_sind&#45;&gt;Basics_Logic_True -->
<g id="edge7" class="edge">
<title>Basics_Logic_True_sind&#45;&gt;Basics_Logic_True</title>
<path fill="none" stroke="black" d="M333.68,-165.5C316.19,-143.78 290.58,-111.96 273.15,-90.3"/>
<polygon fill="black" stroke="black" points="275.67,-87.86 266.68,-82.26 270.22,-92.24 275.67,-87.86"/>
</g>
<!-- Basics_Logic_True_rec -->
<g id="node8" class="node">
<title>Basics_Logic_True_rec</title>
<g id="a_node8"><a xlink:href="Basics.html#Logic.True_rec" xlink:title="True_rec">
<ellipse fill="#f070d1" stroke="black" cx="216" cy="-328.51" rx="51.21" ry="18"/>
<ellipse fill="none" stroke="black" cx="216" cy="-328.51" rx="55.2" ry="22"/>
<ellipse fill="none" stroke="black" cx="216" cy="-328.51" rx="59.19" ry="26"/>
<text text-anchor="middle" x="216" y="-324.81" font-family="Times,serif" font-size="14.00">True_rec</text>
</a>
</g>
</g>
<!-- Basics_Logic_True_rect -->
<g id="node10" class="node">
<title>Basics_Logic_True_rect</title>
<g id="a_node10"><a xlink:href="Basics.html#Logic.True_rect" xlink:title="True_rect">
<ellipse fill="#f070d1" stroke="black" cx="216" cy="-190.51" rx="55.49" ry="18"/>
<text text-anchor="middle" x="216" y="-186.81" font-family="Times,serif" font-size="14.00">True_rect</text>
</a>
</g>
</g>
<!-- Basics_Logic_True_rec&#45;&gt;Basics_Logic_True_rect -->
<g id="edge8" class="edge">
<title>Basics_Logic_True_rec&#45;&gt;Basics_Logic_True_rect</title>
<path fill="none" stroke="black" d="M216,-302.25C216,-278.56 216,-243.24 216,-218.89"/>
<polygon fill="black" stroke="black" points="219.5,-218.87 216,-208.87 212.5,-218.87 219.5,-218.87"/>
</g>
<!-- Basics_Logic_True_ind -->
<g id="node9" class="node">
<title>Basics_Logic_True_ind</title>
<g id="a_node9"><a xlink:href="Basics.html#Logic.True_ind" xlink:title="True_ind">
<ellipse fill="#7fffd4" stroke="black" cx="83" cy="-190.51" rx="51.21" ry="18"/>
<ellipse fill="none" stroke="black" cx="83" cy="-190.51" rx="55.2" ry="22"/>
<ellipse fill="none" stroke="black" cx="83" cy="-190.51" rx="59.19" ry="26"/>
<text text-anchor="middle" x="83" y="-186.81" font-family="Times,serif" font-size="14.00">True_ind</text>
</a>
</g>
</g>
<!-- Basics_Logic_True_ind&#45;&gt;Basics_Logic_I -->
<g id="edge9" class="edge">
<title>Basics_Logic_True_ind&#45;&gt;Basics_Logic_I</title>
<path fill="none" stroke="black" d="M101.35,-165.5C118.04,-143.65 142.54,-111.6 159.1,-89.93"/>
<polygon fill="black" stroke="black" points="161.95,-91.97 165.24,-81.9 156.38,-87.72 161.95,-91.97"/>
</g>
<!-- Basics_Logic_True_ind&#45;&gt;Basics_Logic_True -->
<g id="edge10" class="edge">
<title>Basics_Logic_True_ind&#45;&gt;Basics_Logic_True</title>
<path fill="none" stroke="black" d="M113.18,-167.8C145.25,-144.73 195.54,-108.56 226.54,-86.26"/>
<polygon fill="black" stroke="black" points="228.66,-89.05 234.74,-80.36 224.58,-83.36 228.66,-89.05"/>
</g>
<!-- Basics_Logic_True_rect&#45;&gt;Basics_Logic_I -->
<g id="edge11" class="edge">
<title>Basics_Logic_True_rect&#45;&gt;Basics_Logic_I</title>
<path fill="none" stroke="black" d="M210.58,-172.41C204.06,-151.85 193.04,-117.11 185.42,-93.05"/>
<polygon fill="black" stroke="black" points="188.74,-91.94 182.38,-83.47 182.06,-94.06 188.74,-91.94"/>
</g>
<!-- Basics_Logic_True_rect&#45;&gt;Basics_Logic_True -->
<g id="edge12" class="edge">
<title>Basics_Logic_True_rect&#45;&gt;Basics_Logic_True</title>
<path fill="none" stroke="black" d="M221.28,-172.41C227.64,-151.85 238.37,-117.11 245.8,-93.05"/>
<polygon fill="black" stroke="black" points="249.15,-94.05 248.76,-83.47 242.47,-91.99 249.15,-94.05"/>
</g>
</g>
</svg>
