<?xml version="1.0" encoding="UTF-8" standalone="no"?>
<!DOCTYPE svg PUBLIC "-//W3C//DTD SVG 1.1//EN"
 "http://www.w3.org/Graphics/SVG/1.1/DTD/svg11.dtd">
<!-- Generated by graphviz version 2.43.0 (0)
 -->
<!-- Title: HoTT_Homotopy_Smash Pages: 1 -->
<svg width="1617pt" height="812pt"
 viewBox="0.00 0.00 1617.00 812.50" xmlns="http://www.w3.org/2000/svg" xmlns:xlink="http://www.w3.org/1999/xlink">
<g id="graph0" class="graph" transform="scale(1 1) rotate(0) translate(4 808.5)">
<title>HoTT_Homotopy_Smash</title>
<polygon fill="white" stroke="transparent" points="-4,4 -4,-808.5 1613,-808.5 1613,4 -4,4"/>
<g id="clust1" class="cluster">
<title>cluster_Smash</title>
<polygon fill="#ffffc3" stroke="black" points="8,-9 8,-795.5 1601,-795.5 1601,-9 8,-9"/>
<text text-anchor="middle" x="40.5" y="-780.3" font-family="Times,serif" font-size="14.00">Smash</text>
</g>
<!-- Smash_smash_rec_beta_glue -->
<g id="node1" class="node">
<title>Smash_smash_rec_beta_glue</title>
<g id="a_node1"><a xlink:href="Smash.html#smash_rec_beta_glue" xlink:title="smash_rec_beta_glue">
<ellipse fill="#f070d1" stroke="black" cx="802" cy="-731" rx="108.58" ry="18"/>
<ellipse fill="none" stroke="black" cx="802" cy="-731" rx="112.58" ry="22"/>
<ellipse fill="none" stroke="black" cx="802" cy="-731" rx="116.58" ry="26"/>
<text text-anchor="middle" x="802" y="-727.3" font-family="Times,serif" font-size="14.00">smash_rec_beta_glue</text>
</a>
</g>
</g>
<!-- Smash_Smash_rec_beta_gluer_ -->
<g id="node2" class="node">
<title>Smash_Smash_rec_beta_gluer_</title>
<g id="a_node2"><a xlink:href="Smash.html#Smash_rec_beta_gluer'" xlink:title="Smash_rec_beta_gluer&#39;">
<ellipse fill="#f070d1" stroke="black" cx="1356" cy="-632" rx="116.98" ry="18"/>
<text text-anchor="middle" x="1356" y="-628.3" font-family="Times,serif" font-size="14.00">Smash_rec_beta_gluer&#39;</text>
</a>
</g>
</g>
<!-- Smash_smash_rec_beta_glue&#45;&gt;Smash_Smash_rec_beta_gluer_ -->
<g id="edge1" class="edge">
<title>Smash_smash_rec_beta_glue&#45;&gt;Smash_Smash_rec_beta_gluer_</title>
<path fill="none" stroke="black" d="M894.81,-715.19C981.6,-701.15 1114.75,-679.12 1230,-658 1245.8,-655.1 1262.69,-651.86 1278.8,-648.69"/>
<polygon fill="black" stroke="black" points="1279.59,-652.1 1288.72,-646.73 1278.23,-645.23 1279.59,-652.1"/>
</g>
<!-- Smash_Smash_rec_beta_gluel_ -->
<g id="node3" class="node">
<title>Smash_Smash_rec_beta_gluel_</title>
<g id="a_node3"><a xlink:href="Smash.html#Smash_rec_beta_gluel'" xlink:title="Smash_rec_beta_gluel&#39;">
<ellipse fill="#f070d1" stroke="black" cx="489" cy="-632" rx="115.88" ry="18"/>
<text text-anchor="middle" x="489" y="-628.3" font-family="Times,serif" font-size="14.00">Smash_rec_beta_gluel&#39;</text>
</a>
</g>
</g>
<!-- Smash_smash_rec_beta_glue&#45;&gt;Smash_Smash_rec_beta_gluel_ -->
<g id="edge2" class="edge">
<title>Smash_smash_rec_beta_glue&#45;&gt;Smash_Smash_rec_beta_gluel_</title>
<path fill="none" stroke="black" d="M736,-709.55C680.45,-692.33 601.72,-667.93 548.18,-651.34"/>
<polygon fill="black" stroke="black" points="549.08,-647.96 538.49,-648.34 547.01,-654.64 549.08,-647.96"/>
</g>
<!-- Smash_glue -->
<g id="node18" class="node">
<title>Smash_glue</title>
<g id="a_node18"><a xlink:href="Smash.html#glue" xlink:title="glue">
<ellipse fill="#f070d1" stroke="black" cx="876" cy="-533" rx="30.59" ry="18"/>
<text text-anchor="middle" x="876" y="-529.3" font-family="Times,serif" font-size="14.00">glue</text>
</a>
</g>
</g>
<!-- Smash_smash_rec_beta_glue&#45;&gt;Smash_glue -->
<g id="edge3" class="edge">
<title>Smash_smash_rec_beta_glue&#45;&gt;Smash_glue</title>
<path fill="none" stroke="black" d="M799.47,-704.66C797.91,-678.78 798.35,-637.98 812,-606 820.53,-586.02 836.89,-567.77 850.93,-554.65"/>
<polygon fill="black" stroke="black" points="853.34,-557.19 858.43,-547.9 848.66,-551.99 853.34,-557.19"/>
</g>
<!-- Smash_smash_rec_beta_gluer -->
<g id="node4" class="node">
<title>Smash_smash_rec_beta_gluer</title>
<g id="a_node4"><a xlink:href="Smash.html#smash_rec_beta_gluer" xlink:title="smash_rec_beta_gluer">
<ellipse fill="#f070d1" stroke="black" cx="1038" cy="-533" rx="113.18" ry="18"/>
<text text-anchor="middle" x="1038" y="-529.3" font-family="Times,serif" font-size="14.00">smash_rec_beta_gluer</text>
</a>
</g>
</g>
<!-- Smash_Smash_rec_beta_gluer_&#45;&gt;Smash_smash_rec_beta_gluer -->
<g id="edge4" class="edge">
<title>Smash_Smash_rec_beta_gluer_&#45;&gt;Smash_smash_rec_beta_gluer</title>
<path fill="none" stroke="black" d="M1305.61,-615.63C1249.12,-598.4 1157.6,-570.48 1097.61,-552.18"/>
<polygon fill="black" stroke="black" points="1098.48,-548.79 1087.89,-549.22 1096.43,-555.48 1098.48,-548.79"/>
</g>
<!-- Smash_gluer_ -->
<g id="node19" class="node">
<title>Smash_gluer_</title>
<g id="a_node19"><a xlink:href="Smash.html#gluer'" xlink:title="gluer&#39;">
<ellipse fill="#f070d1" stroke="black" cx="1286" cy="-443" rx="37.89" ry="18"/>
<text text-anchor="middle" x="1286" y="-439.3" font-family="Times,serif" font-size="14.00">gluer&#39;</text>
</a>
</g>
</g>
<!-- Smash_Smash_rec_beta_gluer_&#45;&gt;Smash_gluer_ -->
<g id="edge5" class="edge">
<title>Smash_Smash_rec_beta_gluer_&#45;&gt;Smash_gluer_</title>
<path fill="none" stroke="black" d="M1432.32,-618.29C1515.18,-601.21 1629.73,-565.96 1582,-507 1551.25,-469.02 1408.93,-452.98 1333.39,-447.04"/>
<polygon fill="black" stroke="black" points="1333.43,-443.53 1323.2,-446.27 1332.9,-450.51 1333.43,-443.53"/>
</g>
<!-- Smash_Smash_rec_beta_gluel -->
<g id="node5" class="node">
<title>Smash_Smash_rec_beta_gluel</title>
<g id="a_node5"><a xlink:href="Smash.html#Smash_rec_beta_gluel" xlink:title="Smash_rec_beta_gluel">
<ellipse fill="#f070d1" stroke="black" cx="553" cy="-533" rx="113.18" ry="18"/>
<text text-anchor="middle" x="553" y="-529.3" font-family="Times,serif" font-size="14.00">Smash_rec_beta_gluel</text>
</a>
</g>
</g>
<!-- Smash_Smash_rec_beta_gluel_&#45;&gt;Smash_Smash_rec_beta_gluel -->
<g id="edge6" class="edge">
<title>Smash_Smash_rec_beta_gluel_&#45;&gt;Smash_Smash_rec_beta_gluel</title>
<path fill="none" stroke="black" d="M500.44,-613.66C510.36,-598.62 524.85,-576.66 536.11,-559.6"/>
<polygon fill="black" stroke="black" points="539.07,-561.47 541.66,-551.19 533.23,-557.61 539.07,-561.47"/>
</g>
<!-- Smash_gluel_ -->
<g id="node20" class="node">
<title>Smash_gluel_</title>
<g id="a_node20"><a xlink:href="Smash.html#gluel'" xlink:title="gluel&#39;">
<ellipse fill="#f070d1" stroke="black" cx="306" cy="-443" rx="36.29" ry="18"/>
<text text-anchor="middle" x="306" y="-439.3" font-family="Times,serif" font-size="14.00">gluel&#39;</text>
</a>
</g>
</g>
<!-- Smash_Smash_rec_beta_gluel_&#45;&gt;Smash_gluel_ -->
<g id="edge7" class="edge">
<title>Smash_Smash_rec_beta_gluel_&#45;&gt;Smash_gluel_</title>
<path fill="none" stroke="black" d="M394.18,-621.65C313.74,-611.52 207.32,-592.18 181,-559 166.64,-540.89 168.88,-526.68 181,-507 198.78,-478.13 234.32,-462.01 262.97,-453.32"/>
<polygon fill="black" stroke="black" points="264.11,-456.64 272.78,-450.55 262.21,-449.9 264.11,-456.64"/>
</g>
<!-- Smash_Smash_rec -->
<g id="node7" class="node">
<title>Smash_Smash_rec</title>
<g id="a_node7"><a xlink:href="Smash.html#Smash_rec" xlink:title="Smash_rec">
<ellipse fill="#f070d1" stroke="black" cx="756" cy="-443" rx="61.19" ry="18"/>
<text text-anchor="middle" x="756" y="-439.3" font-family="Times,serif" font-size="14.00">Smash_rec</text>
</a>
</g>
</g>
<!-- Smash_smash_rec_beta_gluer&#45;&gt;Smash_Smash_rec -->
<g id="edge8" class="edge">
<title>Smash_smash_rec_beta_gluer&#45;&gt;Smash_Smash_rec</title>
<path fill="none" stroke="black" d="M988.88,-516.67C937.59,-500.67 857.56,-475.69 805.96,-459.59"/>
<polygon fill="black" stroke="black" points="806.94,-456.23 796.35,-456.59 804.85,-462.91 806.94,-456.23"/>
</g>
<!-- Smash_Smash_ind_beta_gluer -->
<g id="node11" class="node">
<title>Smash_Smash_ind_beta_gluer</title>
<g id="a_node11"><a xlink:href="Smash.html#Smash_ind_beta_gluer" xlink:title="Smash_ind_beta_gluer">
<ellipse fill="#f070d1" stroke="black" cx="1038" cy="-443" rx="114.28" ry="18"/>
<text text-anchor="middle" x="1038" y="-439.3" font-family="Times,serif" font-size="14.00">Smash_ind_beta_gluer</text>
</a>
</g>
</g>
<!-- Smash_smash_rec_beta_gluer&#45;&gt;Smash_Smash_ind_beta_gluer -->
<g id="edge9" class="edge">
<title>Smash_smash_rec_beta_gluer&#45;&gt;Smash_Smash_ind_beta_gluer</title>
<path fill="none" stroke="black" d="M1038,-514.62C1038,-502.24 1038,-485.37 1038,-471.22"/>
<polygon fill="black" stroke="black" points="1041.5,-471.05 1038,-461.05 1034.5,-471.05 1041.5,-471.05"/>
</g>
<!-- Smash_Smash_rec_beta_gluel&#45;&gt;Smash_Smash_rec -->
<g id="edge10" class="edge">
<title>Smash_Smash_rec_beta_gluel&#45;&gt;Smash_Smash_rec</title>
<path fill="none" stroke="black" d="M590.23,-515.86C625.12,-500.74 677.21,-478.16 713.66,-462.36"/>
<polygon fill="black" stroke="black" points="715.25,-465.48 723.03,-458.29 712.46,-459.06 715.25,-465.48"/>
</g>
<!-- Smash_Smash_ind_beta_gluel -->
<g id="node12" class="node">
<title>Smash_Smash_ind_beta_gluel</title>
<g id="a_node12"><a xlink:href="Smash.html#Smash_ind_beta_gluel" xlink:title="Smash_ind_beta_gluel">
<ellipse fill="#f070d1" stroke="black" cx="553" cy="-443" rx="113.18" ry="18"/>
<text text-anchor="middle" x="553" y="-439.3" font-family="Times,serif" font-size="14.00">Smash_ind_beta_gluel</text>
</a>
</g>
</g>
<!-- Smash_Smash_rec_beta_gluel&#45;&gt;Smash_Smash_ind_beta_gluel -->
<g id="edge11" class="edge">
<title>Smash_Smash_rec_beta_gluel&#45;&gt;Smash_Smash_ind_beta_gluel</title>
<path fill="none" stroke="black" d="M553,-514.62C553,-502.24 553,-485.37 553,-471.22"/>
<polygon fill="black" stroke="black" points="556.5,-471.05 553,-461.05 549.5,-471.05 556.5,-471.05"/>
</g>
<!-- Smash_Smash_rec_ -->
<g id="node6" class="node">
<title>Smash_Smash_rec_</title>
<g id="a_node6"><a xlink:href="Smash.html#Smash_rec'" xlink:title="Smash_rec&#39;">
<ellipse fill="#f070d1" stroke="black" cx="756" cy="-533" rx="63.87" ry="18"/>
<ellipse fill="none" stroke="black" cx="756" cy="-533" rx="67.88" ry="22"/>
<ellipse fill="none" stroke="black" cx="756" cy="-533" rx="71.89" ry="26"/>
<text text-anchor="middle" x="756" y="-529.3" font-family="Times,serif" font-size="14.00">Smash_rec&#39;</text>
</a>
</g>
</g>
<!-- Smash_Smash_rec_&#45;&gt;Smash_Smash_rec -->
<g id="edge12" class="edge">
<title>Smash_Smash_rec_&#45;&gt;Smash_Smash_rec</title>
<path fill="none" stroke="black" d="M756,-506.55C756,-495.47 756,-482.47 756,-471.2"/>
<polygon fill="black" stroke="black" points="759.5,-471.05 756,-461.05 752.5,-471.05 759.5,-471.05"/>
</g>
<!-- Smash_Smash_ind -->
<g id="node13" class="node">
<title>Smash_Smash_ind</title>
<g id="a_node13"><a xlink:href="Smash.html#Smash_ind" xlink:title="Smash_ind">
<ellipse fill="#f070d1" stroke="black" cx="756" cy="-362" rx="61.19" ry="18"/>
<text text-anchor="middle" x="756" y="-358.3" font-family="Times,serif" font-size="14.00">Smash_ind</text>
</a>
</g>
</g>
<!-- Smash_Smash_rec&#45;&gt;Smash_Smash_ind -->
<g id="edge13" class="edge">
<title>Smash_Smash_rec&#45;&gt;Smash_Smash_ind</title>
<path fill="none" stroke="black" d="M756,-424.86C756,-414.71 756,-401.63 756,-390.12"/>
<polygon fill="black" stroke="black" points="759.5,-390.11 756,-380.11 752.5,-390.11 759.5,-390.11"/>
</g>
<!-- Smash_Smash_ind_beta_glue -->
<g id="node8" class="node">
<title>Smash_Smash_ind_beta_glue</title>
<g id="a_node8"><a xlink:href="Smash.html#Smash_ind_beta_glue" xlink:title="Smash_ind_beta_glue">
<ellipse fill="#f070d1" stroke="black" cx="939" cy="-632" rx="110.48" ry="18"/>
<ellipse fill="none" stroke="black" cx="939" cy="-632" rx="114.48" ry="22"/>
<ellipse fill="none" stroke="black" cx="939" cy="-632" rx="118.48" ry="26"/>
<text text-anchor="middle" x="939" y="-628.3" font-family="Times,serif" font-size="14.00">Smash_ind_beta_glue</text>
</a>
</g>
</g>
<!-- Smash_Smash_ind_beta_gluer_ -->
<g id="node9" class="node">
<title>Smash_Smash_ind_beta_gluer_</title>
<g id="a_node9"><a xlink:href="Smash.html#Smash_ind_beta_gluer'" xlink:title="Smash_ind_beta_gluer&#39;">
<ellipse fill="#f070d1" stroke="black" cx="1286" cy="-533" rx="116.98" ry="18"/>
<text text-anchor="middle" x="1286" y="-529.3" font-family="Times,serif" font-size="14.00">Smash_ind_beta_gluer&#39;</text>
</a>
</g>
</g>
<!-- Smash_Smash_ind_beta_glue&#45;&gt;Smash_Smash_ind_beta_gluer_ -->
<g id="edge14" class="edge">
<title>Smash_Smash_ind_beta_glue&#45;&gt;Smash_Smash_ind_beta_gluer_</title>
<path fill="none" stroke="black" d="M1010.06,-611.14C1072.51,-593.68 1162.55,-568.51 1222.6,-551.72"/>
<polygon fill="black" stroke="black" points="1223.65,-555.06 1232.34,-549 1221.77,-548.32 1223.65,-555.06"/>
</g>
<!-- Smash_Smash_ind_beta_gluel_ -->
<g id="node10" class="node">
<title>Smash_Smash_ind_beta_gluel_</title>
<g id="a_node10"><a xlink:href="Smash.html#Smash_ind_beta_gluel'" xlink:title="Smash_ind_beta_gluel&#39;">
<ellipse fill="#f070d1" stroke="black" cx="306" cy="-533" rx="115.88" ry="18"/>
<text text-anchor="middle" x="306" y="-529.3" font-family="Times,serif" font-size="14.00">Smash_ind_beta_gluel&#39;</text>
</a>
</g>
</g>
<!-- Smash_Smash_ind_beta_glue&#45;&gt;Smash_Smash_ind_beta_gluel_ -->
<g id="edge15" class="edge">
<title>Smash_Smash_ind_beta_glue&#45;&gt;Smash_Smash_ind_beta_gluel_</title>
<path fill="none" stroke="black" d="M848.91,-615.11C830.12,-611.96 810.43,-608.77 792,-606 631.99,-581.99 590.64,-585.33 431,-559 414.91,-556.35 397.72,-553.15 381.4,-549.94"/>
<polygon fill="black" stroke="black" points="381.86,-546.46 371.37,-547.95 380.49,-553.33 381.86,-546.46"/>
</g>
<!-- Smash_Smash_ind_beta_glue&#45;&gt;Smash_glue -->
<g id="edge16" class="edge">
<title>Smash_Smash_ind_beta_glue&#45;&gt;Smash_glue</title>
<path fill="none" stroke="black" d="M922.78,-606.02C913.3,-591.42 901.38,-573.08 891.95,-558.56"/>
<polygon fill="black" stroke="black" points="894.82,-556.56 886.44,-550.08 888.95,-560.37 894.82,-556.56"/>
</g>
<!-- Smash_Smash_ind_beta_gluer_&#45;&gt;Smash_Smash_ind_beta_gluer -->
<g id="edge17" class="edge">
<title>Smash_Smash_ind_beta_gluer_&#45;&gt;Smash_Smash_ind_beta_gluer</title>
<path fill="none" stroke="black" d="M1241.66,-516.27C1199.74,-501.39 1136.74,-479.04 1091.93,-463.14"/>
<polygon fill="black" stroke="black" points="1092.97,-459.79 1082.37,-459.75 1090.62,-466.39 1092.97,-459.79"/>
</g>
<!-- Smash_Smash_ind_beta_gluer_&#45;&gt;Smash_gluer_ -->
<g id="edge18" class="edge">
<title>Smash_Smash_ind_beta_gluer_&#45;&gt;Smash_gluer_</title>
<path fill="none" stroke="black" d="M1286,-514.62C1286,-502.24 1286,-485.37 1286,-471.22"/>
<polygon fill="black" stroke="black" points="1289.5,-471.05 1286,-461.05 1282.5,-471.05 1289.5,-471.05"/>
</g>
<!-- Smash_Smash_ind_beta_gluel_&#45;&gt;Smash_Smash_ind_beta_gluel -->
<g id="edge19" class="edge">
<title>Smash_Smash_ind_beta_gluel_&#45;&gt;Smash_Smash_ind_beta_gluel</title>
<path fill="none" stroke="black" d="M350.16,-516.27C391.91,-501.39 454.66,-479.04 499.29,-463.14"/>
<polygon fill="black" stroke="black" points="500.56,-466.4 508.81,-459.75 498.21,-459.81 500.56,-466.4"/>
</g>
<!-- Smash_Smash_ind_beta_gluel_&#45;&gt;Smash_gluel_ -->
<g id="edge20" class="edge">
<title>Smash_Smash_ind_beta_gluel_&#45;&gt;Smash_gluel_</title>
<path fill="none" stroke="black" d="M306,-514.62C306,-502.24 306,-485.37 306,-471.22"/>
<polygon fill="black" stroke="black" points="309.5,-471.05 306,-461.05 302.5,-471.05 309.5,-471.05"/>
</g>
<!-- Smash_Smash_ind_beta_gluer&#45;&gt;Smash_Smash_ind -->
<g id="edge21" class="edge">
<title>Smash_Smash_ind_beta_gluer&#45;&gt;Smash_Smash_ind</title>
<path fill="none" stroke="black" d="M984.63,-427.05C934.03,-412.87 858.49,-391.71 808.26,-377.64"/>
<polygon fill="black" stroke="black" points="809.14,-374.25 798.57,-374.93 807.25,-380.99 809.14,-374.25"/>
</g>
<!-- Smash_Smash_ind_beta_gluel&#45;&gt;Smash_Smash_ind -->
<g id="edge22" class="edge">
<title>Smash_Smash_ind_beta_gluel&#45;&gt;Smash_Smash_ind</title>
<path fill="none" stroke="black" d="M594.08,-426.01C628.07,-412.79 676.28,-394.02 711.25,-380.42"/>
<polygon fill="black" stroke="black" points="712.69,-383.61 720.74,-376.72 710.15,-377.09 712.69,-383.61"/>
</g>
<!-- Smash_gluer -->
<g id="node21" class="node">
<title>Smash_gluer</title>
<g id="a_node21"><a xlink:href="Smash.html#gluer" xlink:title="gluer">
<ellipse fill="#f070d1" stroke="black" cx="796" cy="-281" rx="35.19" ry="18"/>
<text text-anchor="middle" x="796" y="-277.3" font-family="Times,serif" font-size="14.00">gluer</text>
</a>
</g>
</g>
<!-- Smash_Smash_ind&#45;&gt;Smash_gluer -->
<g id="edge23" class="edge">
<title>Smash_Smash_ind&#45;&gt;Smash_gluer</title>
<path fill="none" stroke="black" d="M764.68,-343.86C770.05,-333.26 777.03,-319.46 783.05,-307.58"/>
<polygon fill="black" stroke="black" points="786.22,-309.07 787.61,-298.57 779.97,-305.91 786.22,-309.07"/>
</g>
<!-- Smash_gluel -->
<g id="node22" class="node">
<title>Smash_gluel</title>
<g id="a_node22"><a xlink:href="Smash.html#gluel" xlink:title="gluel">
<ellipse fill="#f070d1" stroke="black" cx="693" cy="-281" rx="33.6" ry="18"/>
<text text-anchor="middle" x="693" y="-277.3" font-family="Times,serif" font-size="14.00">gluel</text>
</a>
</g>
</g>
<!-- Smash_Smash_ind&#45;&gt;Smash_gluel -->
<g id="edge24" class="edge">
<title>Smash_Smash_ind&#45;&gt;Smash_gluel</title>
<path fill="none" stroke="black" d="M742.64,-344.25C733.78,-333.13 722.01,-318.38 712.15,-306.02"/>
<polygon fill="black" stroke="black" points="714.67,-303.56 705.7,-297.92 709.2,-307.92 714.67,-303.56"/>
</g>
<!-- Smash_ap_sm_right -->
<g id="node14" class="node">
<title>Smash_ap_sm_right</title>
<g id="a_node14"><a xlink:href="Smash.html#ap_sm_right" xlink:title="ap_sm_right">
<ellipse fill="#f070d1" stroke="black" cx="1497" cy="-533" rx="67.68" ry="18"/>
<ellipse fill="none" stroke="black" cx="1497" cy="-533" rx="71.68" ry="22"/>
<ellipse fill="none" stroke="black" cx="1497" cy="-533" rx="75.69" ry="26"/>
<text text-anchor="middle" x="1497" y="-529.3" font-family="Times,serif" font-size="14.00">ap_sm_right</text>
</a>
</g>
</g>
<!-- Smash_ap_sm_right&#45;&gt;Smash_gluer_ -->
<g id="edge25" class="edge">
<title>Smash_ap_sm_right&#45;&gt;Smash_gluer_</title>
<path fill="none" stroke="black" d="M1450.17,-512.47C1411.77,-496.46 1358.17,-474.1 1322.8,-459.35"/>
<polygon fill="black" stroke="black" points="1323.91,-456.02 1313.33,-455.4 1321.22,-462.48 1323.91,-456.02"/>
</g>
<!-- Smash_ap_sm_left -->
<g id="node15" class="node">
<title>Smash_ap_sm_left</title>
<g id="a_node15"><a xlink:href="Smash.html#ap_sm_left" xlink:title="ap_sm_left">
<ellipse fill="#f070d1" stroke="black" cx="84" cy="-533" rx="59.61" ry="18"/>
<ellipse fill="none" stroke="black" cx="84" cy="-533" rx="63.6" ry="22"/>
<ellipse fill="none" stroke="black" cx="84" cy="-533" rx="67.59" ry="26"/>
<text text-anchor="middle" x="84" y="-529.3" font-family="Times,serif" font-size="14.00">ap_sm_left</text>
</a>
</g>
</g>
<!-- Smash_ap_sm_left&#45;&gt;Smash_gluel_ -->
<g id="edge26" class="edge">
<title>Smash_ap_sm_left&#45;&gt;Smash_gluel_</title>
<path fill="none" stroke="black" d="M130,-513.77C171.15,-497.45 230.71,-473.84 268.9,-458.71"/>
<polygon fill="black" stroke="black" points="270.59,-461.8 278.59,-454.87 268.01,-455.3 270.59,-461.8"/>
</g>
<!-- Smash_glue_pt_right -->
<g id="node16" class="node">
<title>Smash_glue_pt_right</title>
<g id="a_node16"><a xlink:href="Smash.html#glue_pt_right" xlink:title="glue_pt_right">
<ellipse fill="#f070d1" stroke="black" cx="703" cy="-632" rx="72.27" ry="18"/>
<ellipse fill="none" stroke="black" cx="703" cy="-632" rx="76.28" ry="22"/>
<ellipse fill="none" stroke="black" cx="703" cy="-632" rx="80.29" ry="26"/>
<text text-anchor="middle" x="703" y="-628.3" font-family="Times,serif" font-size="14.00">glue_pt_right</text>
</a>
</g>
</g>
<!-- Smash_glue_pt_right&#45;&gt;Smash_glue -->
<g id="edge27" class="edge">
<title>Smash_glue_pt_right&#45;&gt;Smash_glue</title>
<path fill="none" stroke="black" d="M744.51,-609.75C771.21,-595.82 806.49,-576.94 837,-559 840.49,-556.95 844.11,-554.74 847.68,-552.51"/>
<polygon fill="black" stroke="black" points="849.77,-555.33 856.34,-547.02 846.02,-549.42 849.77,-555.33"/>
</g>
<!-- Smash_glue_pt_left -->
<g id="node17" class="node">
<title>Smash_glue_pt_left</title>
<g id="a_node17"><a xlink:href="Smash.html#glue_pt_left" xlink:title="glue_pt_left">
<ellipse fill="#f070d1" stroke="black" cx="1148" cy="-632" rx="64.99" ry="18"/>
<ellipse fill="none" stroke="black" cx="1148" cy="-632" rx="68.99" ry="22"/>
<ellipse fill="none" stroke="black" cx="1148" cy="-632" rx="72.99" ry="26"/>
<text text-anchor="middle" x="1148" y="-628.3" font-family="Times,serif" font-size="14.00">glue_pt_left</text>
</a>
</g>
</g>
<!-- Smash_glue_pt_left&#45;&gt;Smash_glue -->
<g id="edge28" class="edge">
<title>Smash_glue_pt_left&#45;&gt;Smash_glue</title>
<path fill="none" stroke="black" d="M1093.99,-614.43C1026.76,-593.77 920.19,-560.92 916,-559 911.87,-557.11 907.65,-554.86 903.57,-552.5"/>
<polygon fill="black" stroke="black" points="905.33,-549.47 894.97,-547.25 901.68,-555.45 905.33,-549.47"/>
</g>
<!-- Smash_glue&#45;&gt;Smash_gluer_ -->
<g id="edge29" class="edge">
<title>Smash_glue&#45;&gt;Smash_gluer_</title>
<path fill="none" stroke="black" d="M894.33,-518.45C900.88,-514.19 908.5,-509.86 916,-507 945.94,-495.61 1148.25,-464.54 1240.42,-450.75"/>
<polygon fill="black" stroke="black" points="1241.19,-454.17 1250.57,-449.23 1240.16,-447.25 1241.19,-454.17"/>
</g>
<!-- Smash_glue&#45;&gt;Smash_gluel_ -->
<g id="edge30" class="edge">
<title>Smash_glue&#45;&gt;Smash_gluel_</title>
<path fill="none" stroke="black" d="M858.26,-518.2C851.88,-513.92 844.43,-509.64 837,-507 665.88,-446.2 611.2,-483.46 431,-461 404.31,-457.67 374.45,-453.63 350.62,-450.32"/>
<polygon fill="black" stroke="black" points="350.85,-446.81 340.46,-448.9 349.88,-453.75 350.85,-446.81"/>
</g>
<!-- Smash_gluer_&#45;&gt;Smash_gluer -->
<g id="edge31" class="edge">
<title>Smash_gluer_&#45;&gt;Smash_gluer</title>
<path fill="none" stroke="black" d="M1255.72,-432.11C1170.56,-404.31 929.06,-325.45 834.57,-294.6"/>
<polygon fill="black" stroke="black" points="835.44,-291.2 824.84,-291.42 833.26,-297.85 835.44,-291.2"/>
</g>
<!-- Smash_gluel_&#45;&gt;Smash_gluel -->
<g id="edge32" class="edge">
<title>Smash_gluel_&#45;&gt;Smash_gluel</title>
<path fill="none" stroke="black" d="M332.91,-430.88C401.07,-402.7 580.56,-328.49 657.34,-296.75"/>
<polygon fill="black" stroke="black" points="659.13,-299.79 667.04,-292.74 656.46,-293.32 659.13,-299.79"/>
</g>
<!-- Smash_auxr -->
<g id="node23" class="node">
<title>Smash_auxr</title>
<g id="a_node23"><a xlink:href="Smash.html#auxr" xlink:title="auxr">
<ellipse fill="#f070d1" stroke="black" cx="829" cy="-200" rx="31.7" ry="18"/>
<text text-anchor="middle" x="829" y="-196.3" font-family="Times,serif" font-size="14.00">auxr</text>
</a>
</g>
</g>
<!-- Smash_gluer&#45;&gt;Smash_auxr -->
<g id="edge33" class="edge">
<title>Smash_gluer&#45;&gt;Smash_auxr</title>
<path fill="none" stroke="black" d="M803,-263.25C807.37,-252.77 813.1,-239.06 818.07,-227.18"/>
<polygon fill="black" stroke="black" points="821.39,-228.31 822.01,-217.73 814.93,-225.61 821.39,-228.31"/>
</g>
<!-- Smash_sm -->
<g id="node25" class="node">
<title>Smash_sm</title>
<g id="a_node25"><a xlink:href="Smash.html#sm" xlink:title="sm">
<ellipse fill="#f070d1" stroke="black" cx="752" cy="-200" rx="27" ry="18"/>
<text text-anchor="middle" x="752" y="-196.3" font-family="Times,serif" font-size="14.00">sm</text>
</a>
</g>
</g>
<!-- Smash_gluer&#45;&gt;Smash_sm -->
<g id="edge34" class="edge">
<title>Smash_gluer&#45;&gt;Smash_sm</title>
<path fill="none" stroke="black" d="M786.67,-263.25C780.64,-252.42 772.68,-238.13 765.91,-225.98"/>
<polygon fill="black" stroke="black" points="768.94,-224.22 761.02,-217.19 762.83,-227.63 768.94,-224.22"/>
</g>
<!-- Smash_auxl -->
<g id="node24" class="node">
<title>Smash_auxl</title>
<g id="a_node24"><a xlink:href="Smash.html#auxl" xlink:title="auxl">
<ellipse fill="#f070d1" stroke="black" cx="676" cy="-200" rx="30.59" ry="18"/>
<text text-anchor="middle" x="676" y="-196.3" font-family="Times,serif" font-size="14.00">auxl</text>
</a>
</g>
</g>
<!-- Smash_gluel&#45;&gt;Smash_auxl -->
<g id="edge35" class="edge">
<title>Smash_gluel&#45;&gt;Smash_auxl</title>
<path fill="none" stroke="black" d="M689.31,-262.86C687.13,-252.71 684.31,-239.63 681.84,-228.12"/>
<polygon fill="black" stroke="black" points="685.21,-227.15 679.68,-218.11 678.36,-228.62 685.21,-227.15"/>
</g>
<!-- Smash_gluel&#45;&gt;Smash_sm -->
<g id="edge36" class="edge">
<title>Smash_gluel&#45;&gt;Smash_sm</title>
<path fill="none" stroke="black" d="M704.94,-264.01C713.37,-252.73 724.8,-237.42 734.28,-224.72"/>
<polygon fill="black" stroke="black" points="737.3,-226.53 740.48,-216.43 731.69,-222.34 737.3,-226.53"/>
</g>
<!-- Smash_Smash -->
<g id="node26" class="node">
<title>Smash_Smash</title>
<g id="a_node26"><a xlink:href="Smash.html#Smash" xlink:title="Smash">
<ellipse fill="#f070d1" stroke="black" cx="752" cy="-119" rx="42.49" ry="18"/>
<text text-anchor="middle" x="752" y="-115.3" font-family="Times,serif" font-size="14.00">Smash</text>
</a>
</g>
</g>
<!-- Smash_auxr&#45;&gt;Smash_Smash -->
<g id="edge37" class="edge">
<title>Smash_auxr&#45;&gt;Smash_Smash</title>
<path fill="none" stroke="black" d="M814.15,-183.77C802.97,-172.3 787.45,-156.37 774.72,-143.31"/>
<polygon fill="black" stroke="black" points="777.08,-140.72 767.59,-136 772.07,-145.6 777.08,-140.72"/>
</g>
<!-- Smash_auxl&#45;&gt;Smash_Smash -->
<g id="edge38" class="edge">
<title>Smash_auxl&#45;&gt;Smash_Smash</title>
<path fill="none" stroke="black" d="M690.65,-183.77C701.69,-172.3 717.01,-156.37 729.58,-143.31"/>
<polygon fill="black" stroke="black" points="732.2,-145.63 736.61,-136 727.15,-140.78 732.2,-145.63"/>
</g>
<!-- Smash_sm&#45;&gt;Smash_Smash -->
<g id="edge39" class="edge">
<title>Smash_sm&#45;&gt;Smash_Smash</title>
<path fill="none" stroke="black" d="M752,-181.86C752,-171.71 752,-158.63 752,-147.12"/>
<polygon fill="black" stroke="black" points="755.5,-147.11 752,-137.11 748.5,-147.11 755.5,-147.11"/>
</g>
<!-- Smash_sum_to_bool -->
<g id="node27" class="node">
<title>Smash_sum_to_bool</title>
<g id="a_node27"><a xlink:href="Smash.html#sum_to_bool" xlink:title="sum_to_bool">
<ellipse fill="#f070d1" stroke="black" cx="675" cy="-38" rx="67.69" ry="18"/>
<text text-anchor="middle" x="675" y="-34.3" font-family="Times,serif" font-size="14.00">sum_to_bool</text>
</a>
</g>
</g>
<!-- Smash_Smash&#45;&gt;Smash_sum_to_bool -->
<g id="edge40" class="edge">
<title>Smash_Smash&#45;&gt;Smash_sum_to_bool</title>
<path fill="none" stroke="black" d="M736.42,-102.01C725.5,-90.81 710.72,-75.65 698.39,-63"/>
<polygon fill="black" stroke="black" points="700.58,-60.23 691.09,-55.51 695.56,-65.11 700.58,-60.23"/>
</g>
<!-- Smash_sum_to_prod -->
<g id="node28" class="node">
<title>Smash_sum_to_prod</title>
<g id="a_node28"><a xlink:href="Smash.html#sum_to_prod" xlink:title="sum_to_prod">
<ellipse fill="#f070d1" stroke="black" cx="830" cy="-38" rx="69.59" ry="18"/>
<text text-anchor="middle" x="830" y="-34.3" font-family="Times,serif" font-size="14.00">sum_to_prod</text>
</a>
</g>
</g>
<!-- Smash_Smash&#45;&gt;Smash_sum_to_prod -->
<g id="edge41" class="edge">
<title>Smash_Smash&#45;&gt;Smash_sum_to_prod</title>
<path fill="none" stroke="black" d="M767.78,-102.01C778.95,-90.71 794.1,-75.36 806.66,-62.64"/>
<polygon fill="black" stroke="black" points="809.17,-65.08 813.7,-55.51 804.19,-60.17 809.17,-65.08"/>
</g>
</g>
</svg>
