<?xml version="1.0" encoding="UTF-8" standalone="no"?>
<!DOCTYPE svg PUBLIC "-//W3C//DTD SVG 1.1//EN"
 "http://www.w3.org/Graphics/SVG/1.1/DTD/svg11.dtd">
<!-- Generated by graphviz version 2.43.0 (0)
 -->
<!-- Title: HoTT_Pointed_Loops Pages: 1 -->
<svg width="2403pt" height="1206pt"
 viewBox="0.00 0.00 2403.00 1205.50" xmlns="http://www.w3.org/2000/svg" xmlns:xlink="http://www.w3.org/1999/xlink">
<g id="graph0" class="graph" transform="scale(1 1) rotate(0) translate(4 1201.5)">
<title>HoTT_Pointed_Loops</title>
<polygon fill="white" stroke="transparent" points="-4,4 -4,-1201.5 2399,-1201.5 2399,4 -4,4"/>
<g id="clust1" class="cluster">
<title>cluster_Loops</title>
<polygon fill="#ffffc3" stroke="black" points="8,-15.89 8,-1181.61 2387,-1181.61 2387,-15.89 8,-15.89"/>
<text text-anchor="middle" x="37.5" y="-1166.41" font-family="Times,serif" font-size="14.00">Loops</text>
</g>
<!-- Loops_equiv_loops_ppforall -->
<g id="node1" class="node">
<title>Loops_equiv_loops_ppforall</title>
<g id="a_node1"><a xlink:href="Loops.html#equiv_loops_ppforall" xlink:title="equiv_loops_ppforall">
<ellipse fill="#f070d1" stroke="black" cx="2266" cy="-368.89" rx="105.1" ry="18"/>
<ellipse fill="none" stroke="black" cx="2266" cy="-368.89" rx="109.09" ry="22"/>
<ellipse fill="none" stroke="black" cx="2266" cy="-368.89" rx="113.08" ry="26"/>
<text text-anchor="middle" x="2266" y="-365.19" font-family="Times,serif" font-size="14.00">equiv_loops_ppforall</text>
</a>
</g>
</g>
<!-- Loops_loops -->
<g id="node39" class="node">
<title>Loops_loops</title>
<g id="a_node39"><a xlink:href="Loops.html#loops" xlink:title="loops">
<ellipse fill="#f070d1" stroke="black" cx="1438" cy="-210.89" rx="35.19" ry="18"/>
<text text-anchor="middle" x="1438" y="-207.19" font-family="Times,serif" font-size="14.00">loops</text>
</a>
</g>
</g>
<!-- Loops_equiv_loops_ppforall&#45;&gt;Loops_loops -->
<g id="edge1" class="edge">
<title>Loops_equiv_loops_ppforall&#45;&gt;Loops_loops</title>
<path fill="none" stroke="black" d="M2184.01,-350.87C2170.65,-348.16 2156.94,-345.41 2144,-342.89 1893.02,-293.89 1590.95,-239.3 1480.82,-219.54"/>
<polygon fill="black" stroke="black" points="1481.23,-216.06 1470.77,-217.74 1479.99,-222.95 1481.23,-216.06"/>
</g>
<!-- Loops_is1natural_loops_inv -->
<g id="node2" class="node">
<title>Loops_is1natural_loops_inv</title>
<g id="a_node2"><a xlink:href="Loops.html#is1natural_loops_inv" xlink:title="is1natural_loops_inv">
<ellipse fill="#f070d1" stroke="black" cx="1246" cy="-543.89" rx="105.1" ry="18"/>
<ellipse fill="none" stroke="black" cx="1246" cy="-543.89" rx="109.09" ry="22"/>
<ellipse fill="none" stroke="black" cx="1246" cy="-543.89" rx="113.08" ry="26"/>
<text text-anchor="middle" x="1246" y="-540.19" font-family="Times,serif" font-size="14.00">is1natural_loops_inv</text>
</a>
</g>
</g>
<!-- Loops_loops_inv -->
<g id="node19" class="node">
<title>Loops_loops_inv</title>
<g id="a_node19"><a xlink:href="Loops.html#loops_inv" xlink:title="loops_inv">
<ellipse fill="#f070d1" stroke="black" cx="1306" cy="-368.89" rx="53.89" ry="18"/>
<text text-anchor="middle" x="1306" y="-365.19" font-family="Times,serif" font-size="14.00">loops_inv</text>
</a>
</g>
</g>
<!-- Loops_is1natural_loops_inv&#45;&gt;Loops_loops_inv -->
<g id="edge2" class="edge">
<title>Loops_is1natural_loops_inv&#45;&gt;Loops_loops_inv</title>
<path fill="none" stroke="black" d="M1254.72,-517.73C1265.92,-485.46 1285.25,-429.72 1296.71,-396.67"/>
<polygon fill="black" stroke="black" points="1300.03,-397.79 1300,-387.2 1293.41,-395.5 1300.03,-397.79"/>
</g>
<!-- Loops_is0functor_loops -->
<g id="node33" class="node">
<title>Loops_is0functor_loops</title>
<g id="a_node33"><a xlink:href="Loops.html#is0functor_loops" xlink:title="is0functor_loops">
<ellipse fill="#f070d1" stroke="black" cx="1087" cy="-368.89" rx="87.18" ry="18"/>
<text text-anchor="middle" x="1087" y="-365.19" font-family="Times,serif" font-size="14.00">is0functor_loops</text>
</a>
</g>
</g>
<!-- Loops_is1natural_loops_inv&#45;&gt;Loops_is0functor_loops -->
<g id="edge3" class="edge">
<title>Loops_is1natural_loops_inv&#45;&gt;Loops_is0functor_loops</title>
<path fill="none" stroke="black" d="M1223.22,-518.1C1192.85,-485.06 1139.45,-426.95 1109.32,-394.17"/>
<polygon fill="black" stroke="black" points="1111.89,-391.79 1102.54,-386.8 1106.73,-396.53 1111.89,-391.79"/>
</g>
<!-- Loops_equiv_istrunc_contr_iterated_loops -->
<g id="node3" class="node">
<title>Loops_equiv_istrunc_contr_iterated_loops</title>
<g id="a_node3"><a xlink:href="Loops.html#equiv_istrunc_contr_iterated_loops" xlink:title="equiv_istrunc_contr_iterated_loops">
<ellipse fill="#f070d1" stroke="black" cx="2066" cy="-1068.89" rx="172.46" ry="18"/>
<ellipse fill="none" stroke="black" cx="2066" cy="-1068.89" rx="176.46" ry="22"/>
<ellipse fill="none" stroke="black" cx="2066" cy="-1068.89" rx="180.47" ry="26"/>
<text text-anchor="middle" x="2066" y="-1065.19" font-family="Times,serif" font-size="14.00">equiv_istrunc_contr_iterated_loops</text>
</a>
</g>
</g>
<!-- Loops_equiv_istrunc_istrunc_loops -->
<g id="node4" class="node">
<title>Loops_equiv_istrunc_istrunc_loops</title>
<g id="a_node4"><a xlink:href="Loops.html#equiv_istrunc_istrunc_loops" xlink:title="equiv_istrunc_istrunc_loops">
<ellipse fill="#f070d1" stroke="black" cx="1996" cy="-368.89" rx="139.18" ry="18"/>
<text text-anchor="middle" x="1996" y="-365.19" font-family="Times,serif" font-size="14.00">equiv_istrunc_istrunc_loops</text>
</a>
</g>
</g>
<!-- Loops_equiv_istrunc_contr_iterated_loops&#45;&gt;Loops_equiv_istrunc_istrunc_loops -->
<g id="edge4" class="edge">
<title>Loops_equiv_istrunc_contr_iterated_loops&#45;&gt;Loops_equiv_istrunc_istrunc_loops</title>
<path fill="none" stroke="black" d="M2167.7,-1047.41C2237.25,-1027.55 2324.44,-989.75 2368,-919.89 2380.23,-900.28 2371.33,-890.76 2368,-867.89 2356.32,-787.59 2357.35,-762.7 2316,-692.89 2237.07,-559.64 2091.18,-440.92 2027.31,-392.72"/>
<polygon fill="black" stroke="black" points="2029.32,-389.85 2019.22,-386.66 2025.13,-395.46 2029.32,-389.85"/>
</g>
<!-- Loops_is1functor_iterated_loops -->
<g id="node27" class="node">
<title>Loops_is1functor_iterated_loops</title>
<g id="a_node27"><a xlink:href="Loops.html#is1functor_iterated_loops" xlink:title="is1functor_iterated_loops">
<ellipse fill="#f070d1" stroke="black" cx="1501" cy="-893.89" rx="128.08" ry="18"/>
<text text-anchor="middle" x="1501" y="-890.19" font-family="Times,serif" font-size="14.00">is1functor_iterated_loops</text>
</a>
</g>
</g>
<!-- Loops_equiv_istrunc_contr_iterated_loops&#45;&gt;Loops_is1functor_iterated_loops -->
<g id="edge5" class="edge">
<title>Loops_equiv_istrunc_contr_iterated_loops&#45;&gt;Loops_is1functor_iterated_loops</title>
<path fill="none" stroke="black" d="M1991.85,-1045.18C1878.88,-1010.59 1665.83,-945.36 1561.57,-913.43"/>
<polygon fill="black" stroke="black" points="1562.41,-910.03 1551.82,-910.45 1560.36,-916.72 1562.41,-910.03"/>
</g>
<!-- Loops_unfold_iterated_loops -->
<g id="node37" class="node">
<title>Loops_unfold_iterated_loops</title>
<g id="a_node37"><a xlink:href="Loops.html#unfold_iterated_loops" xlink:title="unfold_iterated_loops">
<ellipse fill="#f070d1" stroke="black" cx="1758" cy="-893.89" rx="110.48" ry="18"/>
<text text-anchor="middle" x="1758" y="-890.19" font-family="Times,serif" font-size="14.00">unfold_iterated_loops</text>
</a>
</g>
</g>
<!-- Loops_equiv_istrunc_contr_iterated_loops&#45;&gt;Loops_unfold_iterated_loops -->
<g id="edge6" class="edge">
<title>Loops_equiv_istrunc_contr_iterated_loops&#45;&gt;Loops_unfold_iterated_loops</title>
<path fill="none" stroke="black" d="M2022.52,-1043.47C1962.08,-1009.52 1853.63,-948.6 1796.16,-916.32"/>
<polygon fill="black" stroke="black" points="1797.83,-913.24 1787.39,-911.4 1794.4,-919.35 1797.83,-913.24"/>
</g>
<!-- Loops_equiv_istrunc_istrunc_loops&#45;&gt;Loops_loops -->
<g id="edge7" class="edge">
<title>Loops_equiv_istrunc_istrunc_loops&#45;&gt;Loops_loops</title>
<path fill="none" stroke="black" d="M1940.46,-352.36C1827.97,-320.91 1575.63,-250.36 1477.81,-223.02"/>
<polygon fill="black" stroke="black" points="1478.59,-219.6 1468.02,-220.28 1476.7,-226.34 1478.59,-219.6"/>
</g>
<!-- Loops_local_global_looping -->
<g id="node5" class="node">
<title>Loops_local_global_looping</title>
<g id="a_node5"><a xlink:href="Loops.html#local_global_looping" xlink:title="local_global_looping">
<ellipse fill="#f070d1" stroke="black" cx="2093" cy="-718.89" rx="103.19" ry="18"/>
<ellipse fill="none" stroke="black" cx="2093" cy="-718.89" rx="107.19" ry="22"/>
<ellipse fill="none" stroke="black" cx="2093" cy="-718.89" rx="111.18" ry="26"/>
<text text-anchor="middle" x="2093" y="-715.19" font-family="Times,serif" font-size="14.00">local_global_looping</text>
</a>
</g>
</g>
<!-- Loops_loops_type -->
<g id="node6" class="node">
<title>Loops_loops_type</title>
<g id="a_node6"><a xlink:href="Loops.html#loops_type" xlink:title="loops_type">
<ellipse fill="#f070d1" stroke="black" cx="1726" cy="-368.89" rx="59.59" ry="18"/>
<text text-anchor="middle" x="1726" y="-365.19" font-family="Times,serif" font-size="14.00">loops_type</text>
</a>
</g>
</g>
<!-- Loops_local_global_looping&#45;&gt;Loops_loops_type -->
<g id="edge8" class="edge">
<title>Loops_local_global_looping&#45;&gt;Loops_loops_type</title>
<path fill="none" stroke="black" d="M2071.76,-693.35C2047.71,-664.87 2008.22,-615.91 1980,-569.89 1966.59,-548.03 1971.96,-537.12 1955,-517.89 1901.77,-457.51 1818.22,-412.04 1768.11,-388.32"/>
<polygon fill="black" stroke="black" points="1769.4,-385.06 1758.86,-384 1766.44,-391.4 1769.4,-385.06"/>
</g>
<!-- Loops_loops_pproduct_commute -->
<g id="node9" class="node">
<title>Loops_loops_pproduct_commute</title>
<g id="a_node9"><a xlink:href="Loops.html#loops_pproduct_commute" xlink:title="loops_pproduct_commute">
<ellipse fill="#f070d1" stroke="black" cx="1817" cy="-543.89" rx="128.88" ry="18"/>
<text text-anchor="middle" x="1817" y="-540.19" font-family="Times,serif" font-size="14.00">loops_pproduct_commute</text>
</a>
</g>
</g>
<!-- Loops_local_global_looping&#45;&gt;Loops_loops_pproduct_commute -->
<g id="edge9" class="edge">
<title>Loops_local_global_looping&#45;&gt;Loops_loops_pproduct_commute</title>
<path fill="none" stroke="black" d="M2055.49,-694.38C2001.99,-660.84 1904.47,-599.71 1852.24,-566.98"/>
<polygon fill="black" stroke="black" points="1853.98,-563.94 1843.65,-561.59 1850.27,-569.87 1853.98,-563.94"/>
</g>
<!-- Loops_is1functor_loops -->
<g id="node32" class="node">
<title>Loops_is1functor_loops</title>
<g id="a_node32"><a xlink:href="Loops.html#is1functor_loops" xlink:title="is1functor_loops">
<ellipse fill="#f070d1" stroke="black" cx="1028" cy="-543.89" rx="87.18" ry="18"/>
<text text-anchor="middle" x="1028" y="-540.19" font-family="Times,serif" font-size="14.00">is1functor_loops</text>
</a>
</g>
</g>
<!-- Loops_local_global_looping&#45;&gt;Loops_is1functor_loops -->
<g id="edge10" class="edge">
<title>Loops_local_global_looping&#45;&gt;Loops_is1functor_loops</title>
<path fill="none" stroke="black" d="M2013.07,-700.67C1999.4,-697.93 1985.31,-695.23 1972,-692.89 1596.91,-627 1497.29,-645.32 1124,-569.89 1112,-567.46 1099.26,-564.46 1087.12,-561.38"/>
<polygon fill="black" stroke="black" points="1087.65,-557.9 1077.09,-558.79 1085.89,-564.68 1087.65,-557.9"/>
</g>
<!-- Loops_iterated_loops -->
<g id="node38" class="node">
<title>Loops_iterated_loops</title>
<g id="a_node38"><a xlink:href="Loops.html#iterated_loops" xlink:title="iterated_loops">
<ellipse fill="#f070d1" stroke="black" cx="1594" cy="-543.89" rx="76.89" ry="18"/>
<text text-anchor="middle" x="1594" y="-540.19" font-family="Times,serif" font-size="14.00">iterated_loops</text>
</a>
</g>
</g>
<!-- Loops_local_global_looping&#45;&gt;Loops_iterated_loops -->
<g id="edge11" class="edge">
<title>Loops_local_global_looping&#45;&gt;Loops_iterated_loops</title>
<path fill="none" stroke="black" d="M2032.31,-696.85C1932.95,-662.4 1737.37,-594.59 1644.83,-562.51"/>
<polygon fill="black" stroke="black" points="1645.72,-559.12 1635.13,-559.15 1643.43,-565.73 1645.72,-559.12"/>
</g>
<!-- Loops_loops_type&#45;&gt;Loops_loops -->
<g id="edge12" class="edge">
<title>Loops_loops_type&#45;&gt;Loops_loops</title>
<path fill="none" stroke="black" d="M1698.12,-352.79C1644.5,-323.74 1527.27,-260.24 1470.32,-229.4"/>
<polygon fill="black" stroke="black" points="1471.86,-226.24 1461.4,-224.56 1468.52,-232.4 1471.86,-226.24"/>
</g>
<!-- Loops_loops_psigma_trunc -->
<g id="node7" class="node">
<title>Loops_loops_psigma_trunc</title>
<g id="a_node7"><a xlink:href="Loops.html#loops_psigma_trunc" xlink:title="loops_psigma_trunc">
<ellipse fill="#f070d1" stroke="black" cx="1757" cy="-1068.89" rx="102.87" ry="18"/>
<ellipse fill="none" stroke="black" cx="1757" cy="-1068.89" rx="106.88" ry="22"/>
<ellipse fill="none" stroke="black" cx="1757" cy="-1068.89" rx="110.88" ry="26"/>
<text text-anchor="middle" x="1757" y="-1065.19" font-family="Times,serif" font-size="14.00">loops_psigma_trunc</text>
</a>
</g>
</g>
<!-- Loops_loops_psigma_commute -->
<g id="node10" class="node">
<title>Loops_loops_psigma_commute</title>
<g id="a_node10"><a xlink:href="Loops.html#loops_psigma_commute" xlink:title="loops_psigma_commute">
<ellipse fill="#f070d1" stroke="black" cx="2239" cy="-893.89" rx="120.48" ry="18"/>
<text text-anchor="middle" x="2239" y="-890.19" font-family="Times,serif" font-size="14.00">loops_psigma_commute</text>
</a>
</g>
</g>
<!-- Loops_loops_psigma_trunc&#45;&gt;Loops_loops_psigma_commute -->
<g id="edge13" class="edge">
<title>Loops_loops_psigma_trunc&#45;&gt;Loops_loops_psigma_commute</title>
<path fill="none" stroke="black" d="M1816.1,-1046.67C1910.57,-1012.77 2094.2,-946.86 2185.2,-914.2"/>
<polygon fill="black" stroke="black" points="2186.54,-917.43 2194.77,-910.76 2184.18,-910.85 2186.54,-917.43"/>
</g>
<!-- Loops_istrunc_pfam_loopsD -->
<g id="node11" class="node">
<title>Loops_istrunc_pfam_loopsD</title>
<g id="a_node11"><a xlink:href="Loops.html#istrunc_pfam_loopsD" xlink:title="istrunc_pfam_loopsD">
<ellipse fill="#f070d1" stroke="black" cx="1994" cy="-893.89" rx="107.48" ry="18"/>
<text text-anchor="middle" x="1994" y="-890.19" font-family="Times,serif" font-size="14.00">istrunc_pfam_loopsD</text>
</a>
</g>
</g>
<!-- Loops_loops_psigma_trunc&#45;&gt;Loops_istrunc_pfam_loopsD -->
<g id="edge14" class="edge">
<title>Loops_loops_psigma_trunc&#45;&gt;Loops_istrunc_pfam_loopsD</title>
<path fill="none" stroke="black" d="M1789.95,-1043.83C1835.72,-1010.43 1917.93,-950.41 1962.76,-917.69"/>
<polygon fill="black" stroke="black" points="1964.93,-920.44 1970.95,-911.72 1960.8,-914.79 1964.93,-920.44"/>
</g>
<!-- Loops_unfold_iterated_loops_ -->
<g id="node17" class="node">
<title>Loops_unfold_iterated_loops_</title>
<g id="a_node17"><a xlink:href="Loops.html#unfold_iterated_loops'" xlink:title="unfold_iterated_loops&#39;">
<ellipse fill="#f070d1" stroke="black" cx="1243" cy="-893.89" rx="112.38" ry="18"/>
<text text-anchor="middle" x="1243" y="-890.19" font-family="Times,serif" font-size="14.00">unfold_iterated_loops&#39;</text>
</a>
</g>
</g>
<!-- Loops_loops_psigma_trunc&#45;&gt;Loops_unfold_iterated_loops_ -->
<g id="edge15" class="edge">
<title>Loops_loops_psigma_trunc&#45;&gt;Loops_unfold_iterated_loops_</title>
<path fill="none" stroke="black" d="M1695.51,-1047.19C1594.65,-1013.24 1395.62,-946.25 1298.68,-913.63"/>
<polygon fill="black" stroke="black" points="1299.65,-910.26 1289.06,-910.39 1297.42,-916.9 1299.65,-910.26"/>
</g>
<!-- Loops_loops_psigma_trunc&#45;&gt;Loops_is1functor_iterated_loops -->
<g id="edge16" class="edge">
<title>Loops_loops_psigma_trunc&#45;&gt;Loops_is1functor_iterated_loops</title>
<path fill="none" stroke="black" d="M1721.94,-1044.2C1672.44,-1010.74 1582.7,-950.1 1534.22,-917.33"/>
<polygon fill="black" stroke="black" points="1535.91,-914.25 1525.66,-911.55 1531.99,-920.05 1535.91,-914.25"/>
</g>
<!-- Loops_iterated_loops_pproduct_commute -->
<g id="node8" class="node">
<title>Loops_iterated_loops_pproduct_commute</title>
<g id="a_node8"><a xlink:href="Loops.html#iterated_loops_pproduct_commute" xlink:title="iterated_loops_pproduct_commute">
<ellipse fill="#f070d1" stroke="black" cx="1785" cy="-718.89" rx="170.08" ry="18"/>
<ellipse fill="none" stroke="black" cx="1785" cy="-718.89" rx="174.07" ry="22"/>
<ellipse fill="none" stroke="black" cx="1785" cy="-718.89" rx="178.07" ry="26"/>
<text text-anchor="middle" x="1785" y="-715.19" font-family="Times,serif" font-size="14.00">iterated_loops_pproduct_commute</text>
</a>
</g>
</g>
<!-- Loops_iterated_loops_pproduct_commute&#45;&gt;Loops_loops_pproduct_commute -->
<g id="edge17" class="edge">
<title>Loops_iterated_loops_pproduct_commute&#45;&gt;Loops_loops_pproduct_commute</title>
<path fill="none" stroke="black" d="M1789.65,-692.73C1795.6,-660.6 1805.84,-605.2 1811.97,-572.1"/>
<polygon fill="black" stroke="black" points="1815.42,-572.67 1813.8,-562.2 1808.54,-571.4 1815.42,-572.67"/>
</g>
<!-- Loops_iterated_loops_pproduct_commute&#45;&gt;Loops_is1functor_loops -->
<g id="edge18" class="edge">
<title>Loops_iterated_loops_pproduct_commute&#45;&gt;Loops_is1functor_loops</title>
<path fill="none" stroke="black" d="M1687.32,-697.12C1558.12,-669.4 1323.45,-618.17 1124,-569.89 1112.74,-567.16 1100.76,-564.14 1089.23,-561.17"/>
<polygon fill="black" stroke="black" points="1089.79,-557.7 1079.23,-558.58 1088.04,-564.48 1089.79,-557.7"/>
</g>
<!-- Loops_iterated_loops_pproduct_commute&#45;&gt;Loops_iterated_loops -->
<g id="edge19" class="edge">
<title>Loops_iterated_loops_pproduct_commute&#45;&gt;Loops_iterated_loops</title>
<path fill="none" stroke="black" d="M1757.63,-693.1C1720.91,-659.83 1656.12,-601.15 1620.07,-568.5"/>
<polygon fill="black" stroke="black" points="1622.17,-565.68 1612.4,-561.56 1617.47,-570.86 1622.17,-565.68"/>
</g>
<!-- Loops_loops_pproduct_commute&#45;&gt;Loops_loops -->
<g id="edge20" class="edge">
<title>Loops_loops_pproduct_commute&#45;&gt;Loops_loops</title>
<path fill="none" stroke="black" d="M1797.68,-526.02C1734.36,-470.71 1533.05,-294.9 1462.62,-233.39"/>
<polygon fill="black" stroke="black" points="1464.91,-230.74 1455.08,-226.8 1460.3,-236.01 1464.91,-230.74"/>
</g>
<!-- Loops_loopsD -->
<g id="node12" class="node">
<title>Loops_loopsD</title>
<g id="a_node12"><a xlink:href="Loops.html#loopsD" xlink:title="loopsD">
<ellipse fill="#f070d1" stroke="black" cx="2265" cy="-718.89" rx="42.49" ry="18"/>
<text text-anchor="middle" x="2265" y="-715.19" font-family="Times,serif" font-size="14.00">loopsD</text>
</a>
</g>
</g>
<!-- Loops_loops_psigma_commute&#45;&gt;Loops_loopsD -->
<g id="edge21" class="edge">
<title>Loops_loops_psigma_commute&#45;&gt;Loops_loopsD</title>
<path fill="none" stroke="black" d="M2241.59,-875.67C2246.1,-845.62 2255.46,-783.37 2260.88,-747.32"/>
<polygon fill="black" stroke="black" points="2264.4,-747.45 2262.42,-737.04 2257.48,-746.41 2264.4,-747.45"/>
</g>
<!-- Loops_istrunc_pfam_loopsD&#45;&gt;Loops_loopsD -->
<g id="edge22" class="edge">
<title>Loops_istrunc_pfam_loopsD&#45;&gt;Loops_loopsD</title>
<path fill="none" stroke="black" d="M2019.98,-876.3C2070.18,-844.25 2180.27,-773.98 2234.11,-739.6"/>
<polygon fill="black" stroke="black" points="2236.02,-742.54 2242.56,-734.21 2232.25,-736.64 2236.02,-742.54"/>
</g>
<!-- Loops_loopsD&#45;&gt;Loops_loops -->
<g id="edge23" class="edge">
<title>Loops_loopsD&#45;&gt;Loops_loops</title>
<path fill="none" stroke="black" d="M2243.93,-702.91C2181.57,-658.33 1993.24,-521.62 1848,-394.89 1823.14,-373.19 1822.89,-360.52 1795,-342.89 1690.97,-277.11 1549.13,-237.66 1479.72,-221.08"/>
<polygon fill="black" stroke="black" points="1480.15,-217.59 1469.62,-218.71 1478.55,-224.4 1480.15,-217.59"/>
</g>
<!-- Loops_iterated_loops_prod -->
<g id="node13" class="node">
<title>Loops_iterated_loops_prod</title>
<g id="a_node13"><a xlink:href="Loops.html#iterated_loops_prod" xlink:title="iterated_loops_prod">
<ellipse fill="#f070d1" stroke="black" cx="1438" cy="-718.89" rx="102.87" ry="18"/>
<ellipse fill="none" stroke="black" cx="1438" cy="-718.89" rx="106.88" ry="22"/>
<ellipse fill="none" stroke="black" cx="1438" cy="-718.89" rx="110.88" ry="26"/>
<text text-anchor="middle" x="1438" y="-715.19" font-family="Times,serif" font-size="14.00">iterated_loops_prod</text>
</a>
</g>
</g>
<!-- Loops_loops_prod -->
<g id="node14" class="node">
<title>Loops_loops_prod</title>
<g id="a_node14"><a xlink:href="Loops.html#loops_prod" xlink:title="loops_prod">
<ellipse fill="#f070d1" stroke="black" cx="1438" cy="-543.89" rx="61.19" ry="18"/>
<text text-anchor="middle" x="1438" y="-540.19" font-family="Times,serif" font-size="14.00">loops_prod</text>
</a>
</g>
</g>
<!-- Loops_iterated_loops_prod&#45;&gt;Loops_loops_prod -->
<g id="edge24" class="edge">
<title>Loops_iterated_loops_prod&#45;&gt;Loops_loops_prod</title>
<path fill="none" stroke="black" d="M1438,-692.73C1438,-660.74 1438,-605.67 1438,-572.53"/>
<polygon fill="black" stroke="black" points="1441.5,-572.2 1438,-562.2 1434.5,-572.2 1441.5,-572.2"/>
</g>
<!-- Loops_iterated_loops_prod&#45;&gt;Loops_is1functor_loops -->
<g id="edge25" class="edge">
<title>Loops_iterated_loops_prod&#45;&gt;Loops_is1functor_loops</title>
<path fill="none" stroke="black" d="M1385.66,-695.8C1304.81,-661.69 1150.9,-596.74 1074.05,-564.32"/>
<polygon fill="black" stroke="black" points="1075.2,-561 1064.62,-560.34 1072.47,-567.45 1075.2,-561"/>
</g>
<!-- Loops_iterated_loops_prod&#45;&gt;Loops_iterated_loops -->
<g id="edge26" class="edge">
<title>Loops_iterated_loops_prod&#45;&gt;Loops_iterated_loops</title>
<path fill="none" stroke="black" d="M1460.35,-693.1C1490.02,-660.2 1542.1,-602.44 1571.73,-569.58"/>
<polygon fill="black" stroke="black" points="1574.65,-571.57 1578.75,-561.8 1569.46,-566.88 1574.65,-571.57"/>
</g>
<!-- Loops_loops_prod&#45;&gt;Loops_loops -->
<g id="edge27" class="edge">
<title>Loops_loops_prod&#45;&gt;Loops_loops</title>
<path fill="none" stroke="black" d="M1438,-525.56C1438,-471.38 1438,-304.88 1438,-239.06"/>
<polygon fill="black" stroke="black" points="1441.5,-239.05 1438,-229.05 1434.5,-239.05 1441.5,-239.05"/>
</g>
<!-- Loops_pequiv_fmap_iterated_loops -->
<g id="node15" class="node">
<title>Loops_pequiv_fmap_iterated_loops</title>
<g id="a_node15"><a xlink:href="Loops.html#pequiv_fmap_iterated_loops" xlink:title="pequiv_fmap_iterated_loops">
<ellipse fill="#f070d1" stroke="black" cx="1481" cy="-1068.89" rx="139.96" ry="18"/>
<ellipse fill="none" stroke="black" cx="1481" cy="-1068.89" rx="143.97" ry="22"/>
<ellipse fill="none" stroke="black" cx="1481" cy="-1068.89" rx="147.98" ry="26"/>
<text text-anchor="middle" x="1481" y="-1065.19" font-family="Times,serif" font-size="14.00">pequiv_fmap_iterated_loops</text>
</a>
</g>
</g>
<!-- Loops_pequiv_fmap_iterated_loops&#45;&gt;Loops_is1functor_iterated_loops -->
<g id="edge28" class="edge">
<title>Loops_pequiv_fmap_iterated_loops&#45;&gt;Loops_is1functor_iterated_loops</title>
<path fill="none" stroke="black" d="M1483.91,-1042.73C1487.61,-1010.74 1493.97,-955.67 1497.8,-922.53"/>
<polygon fill="black" stroke="black" points="1501.33,-922.54 1499,-912.2 1494.37,-921.73 1501.33,-922.54"/>
</g>
<!-- Loops_unfold_iterated_fmap_loops -->
<g id="node16" class="node">
<title>Loops_unfold_iterated_fmap_loops</title>
<g id="a_node16"><a xlink:href="Loops.html#unfold_iterated_fmap_loops" xlink:title="unfold_iterated_fmap_loops">
<ellipse fill="#f070d1" stroke="black" cx="1131" cy="-1068.89" rx="137.59" ry="18"/>
<ellipse fill="none" stroke="black" cx="1131" cy="-1068.89" rx="141.58" ry="22"/>
<ellipse fill="none" stroke="black" cx="1131" cy="-1068.89" rx="145.58" ry="26"/>
<text text-anchor="middle" x="1131" y="-1065.19" font-family="Times,serif" font-size="14.00">unfold_iterated_fmap_loops</text>
</a>
</g>
</g>
<!-- Loops_unfold_iterated_fmap_loops&#45;&gt;Loops_unfold_iterated_loops_ -->
<g id="edge29" class="edge">
<title>Loops_unfold_iterated_fmap_loops&#45;&gt;Loops_unfold_iterated_loops_</title>
<path fill="none" stroke="black" d="M1147.29,-1042.73C1168.36,-1010.18 1204.89,-953.75 1226.21,-920.82"/>
<polygon fill="black" stroke="black" points="1229.3,-922.5 1231.79,-912.2 1223.42,-918.69 1229.3,-922.5"/>
</g>
<!-- Loops_is0functor_iterated_loops -->
<g id="node28" class="node">
<title>Loops_is0functor_iterated_loops</title>
<g id="a_node28"><a xlink:href="Loops.html#is0functor_iterated_loops" xlink:title="is0functor_iterated_loops">
<ellipse fill="#f070d1" stroke="black" cx="945" cy="-718.89" rx="128.08" ry="18"/>
<text text-anchor="middle" x="945" y="-715.19" font-family="Times,serif" font-size="14.00">is0functor_iterated_loops</text>
</a>
</g>
</g>
<!-- Loops_unfold_iterated_fmap_loops&#45;&gt;Loops_is0functor_iterated_loops -->
<g id="edge30" class="edge">
<title>Loops_unfold_iterated_fmap_loops&#45;&gt;Loops_is0functor_iterated_loops</title>
<path fill="none" stroke="black" d="M1132.49,-1042.59C1133.72,-1003 1131.7,-925.01 1102,-867.89 1073.69,-813.43 1017.29,-768.05 980.37,-742.44"/>
<polygon fill="black" stroke="black" points="982.12,-739.4 971.89,-736.66 978.19,-745.19 982.12,-739.4"/>
</g>
<!-- Loops_pequiv_fmap_loops -->
<g id="node18" class="node">
<title>Loops_pequiv_fmap_loops</title>
<g id="a_node18"><a xlink:href="Loops.html#pequiv_fmap_loops" xlink:title="pequiv_fmap_loops">
<ellipse fill="#f070d1" stroke="black" cx="1190" cy="-718.89" rx="98.58" ry="18"/>
<text text-anchor="middle" x="1190" y="-715.19" font-family="Times,serif" font-size="14.00">pequiv_fmap_loops</text>
</a>
</g>
</g>
<!-- Loops_unfold_iterated_loops_&#45;&gt;Loops_pequiv_fmap_loops -->
<g id="edge31" class="edge">
<title>Loops_unfold_iterated_loops_&#45;&gt;Loops_pequiv_fmap_loops</title>
<path fill="none" stroke="black" d="M1237.72,-875.67C1228.48,-845.49 1209.28,-782.83 1198.26,-746.85"/>
<polygon fill="black" stroke="black" points="1201.53,-745.57 1195.25,-737.04 1194.84,-747.62 1201.53,-745.57"/>
</g>
<!-- Loops_unfold_iterated_loops_&#45;&gt;Loops_iterated_loops -->
<g id="edge32" class="edge">
<title>Loops_unfold_iterated_loops_&#45;&gt;Loops_iterated_loops</title>
<path fill="none" stroke="black" d="M1312.76,-879.65C1385.69,-862 1497.74,-823.36 1558,-744.89 1578.48,-718.22 1588.42,-620.41 1592.16,-572.17"/>
<polygon fill="black" stroke="black" points="1595.66,-572.35 1592.91,-562.12 1588.68,-571.84 1595.66,-572.35"/>
</g>
<!-- Loops_pequiv_fmap_loops&#45;&gt;Loops_is1functor_loops -->
<g id="edge33" class="edge">
<title>Loops_pequiv_fmap_loops&#45;&gt;Loops_is1functor_loops</title>
<path fill="none" stroke="black" d="M1174.17,-700.98C1145.3,-670.16 1084.02,-604.71 1050.71,-569.14"/>
<polygon fill="black" stroke="black" points="1053.04,-566.51 1043.65,-561.6 1047.93,-571.3 1053.04,-566.51"/>
</g>
<!-- Loops_loops_inv&#45;&gt;Loops_loops -->
<g id="edge34" class="edge">
<title>Loops_loops_inv&#45;&gt;Loops_loops</title>
<path fill="none" stroke="black" d="M1319.88,-351.49C1343.33,-323.77 1390.9,-267.55 1417.97,-235.56"/>
<polygon fill="black" stroke="black" points="1420.91,-237.5 1424.7,-227.6 1415.57,-232.98 1420.91,-237.5"/>
</g>
<!-- Loops_equiv_loops_image -->
<g id="node20" class="node">
<title>Loops_equiv_loops_image</title>
<g id="a_node20"><a xlink:href="Loops.html#equiv_loops_image" xlink:title="equiv_loops_image">
<ellipse fill="#f070d1" stroke="black" cx="352" cy="-893.89" rx="97.48" ry="18"/>
<ellipse fill="none" stroke="black" cx="352" cy="-893.89" rx="101.48" ry="22"/>
<ellipse fill="none" stroke="black" cx="352" cy="-893.89" rx="105.48" ry="26"/>
<text text-anchor="middle" x="352" y="-890.19" font-family="Times,serif" font-size="14.00">equiv_loops_image</text>
</a>
</g>
</g>
<!-- Loops_equiv_loops_image_subproof -->
<g id="node21" class="node">
<title>Loops_equiv_loops_image_subproof</title>
<g id="a_node21"><a xlink:href="Loops.html#equiv_loops_image_subproof" xlink:title="equiv_loops_image_subproof">
<ellipse fill="#f070d1" stroke="black" cx="839" cy="-368.89" rx="142.97" ry="18"/>
<text text-anchor="middle" x="839" y="-365.19" font-family="Times,serif" font-size="14.00">equiv_loops_image_subproof</text>
</a>
</g>
</g>
<!-- Loops_equiv_loops_image&#45;&gt;Loops_equiv_loops_image_subproof -->
<g id="edge35" class="edge">
<title>Loops_equiv_loops_image&#45;&gt;Loops_equiv_loops_image_subproof</title>
<path fill="none" stroke="black" d="M332.21,-868.2C303.71,-829.42 257.68,-752.52 288,-692.89 382.04,-507.93 633,-420.79 761.23,-387.28"/>
<polygon fill="black" stroke="black" points="762.18,-390.65 771,-384.77 760.44,-383.87 762.18,-390.65"/>
</g>
<!-- Loops_isconnected_fmap_loops -->
<g id="node23" class="node">
<title>Loops_isconnected_fmap_loops</title>
<g id="a_node23"><a xlink:href="Loops.html#isconnected_fmap_loops" xlink:title="isconnected_fmap_loops">
<ellipse fill="#f070d1" stroke="black" cx="637" cy="-718.89" rx="122.38" ry="18"/>
<text text-anchor="middle" x="637" y="-715.19" font-family="Times,serif" font-size="14.00">isconnected_fmap_loops</text>
</a>
</g>
</g>
<!-- Loops_equiv_loops_image&#45;&gt;Loops_isconnected_fmap_loops -->
<g id="edge36" class="edge">
<title>Loops_equiv_loops_image&#45;&gt;Loops_isconnected_fmap_loops</title>
<path fill="none" stroke="black" d="M390.44,-869.56C445.7,-836.01 546.89,-774.58 600.86,-741.83"/>
<polygon fill="black" stroke="black" points="602.68,-744.81 609.41,-736.63 599.05,-738.83 602.68,-744.81"/>
</g>
<!-- Loops_istrunc_fmap_loops -->
<g id="node24" class="node">
<title>Loops_istrunc_fmap_loops</title>
<g id="a_node24"><a xlink:href="Loops.html#istrunc_fmap_loops" xlink:title="istrunc_fmap_loops">
<ellipse fill="#f070d1" stroke="black" cx="397" cy="-718.89" rx="100.18" ry="18"/>
<text text-anchor="middle" x="397" y="-715.19" font-family="Times,serif" font-size="14.00">istrunc_fmap_loops</text>
</a>
</g>
</g>
<!-- Loops_equiv_loops_image&#45;&gt;Loops_istrunc_fmap_loops -->
<g id="edge37" class="edge">
<title>Loops_equiv_loops_image&#45;&gt;Loops_istrunc_fmap_loops</title>
<path fill="none" stroke="black" d="M358.54,-867.73C366.9,-835.6 381.31,-780.2 389.92,-747.1"/>
<polygon fill="black" stroke="black" points="393.37,-747.76 392.5,-737.2 386.59,-746 393.37,-747.76"/>
</g>
<!-- Loops_equiv_loops_image&#45;&gt;Loops_is1functor_loops -->
<g id="edge38" class="edge">
<title>Loops_equiv_loops_image&#45;&gt;Loops_is1functor_loops</title>
<path fill="none" stroke="black" d="M419.93,-873.83C522.55,-844.19 711.18,-786.18 768,-744.89 791.59,-727.75 786.74,-712.84 808,-692.89 864.96,-639.44 943.07,-591.82 989.26,-565.79"/>
<polygon fill="black" stroke="black" points="991.04,-568.8 998.06,-560.87 987.62,-562.69 991.04,-568.8"/>
</g>
<!-- Loops_equiv_loops_image_subproof&#45;&gt;Loops_loops -->
<g id="edge39" class="edge">
<title>Loops_equiv_loops_image_subproof&#45;&gt;Loops_loops</title>
<path fill="none" stroke="black" d="M898.35,-352.43C1019.9,-320.77 1294.42,-249.28 1397.69,-222.38"/>
<polygon fill="black" stroke="black" points="1398.64,-225.76 1407.43,-219.85 1396.87,-218.98 1398.64,-225.76"/>
</g>
<!-- Loops_isconnected_iterated_fmap_loops -->
<g id="node22" class="node">
<title>Loops_isconnected_iterated_fmap_loops</title>
<g id="a_node22"><a xlink:href="Loops.html#isconnected_iterated_fmap_loops" xlink:title="isconnected_iterated_fmap_loops">
<ellipse fill="#f070d1" stroke="black" cx="647" cy="-893.89" rx="163.58" ry="18"/>
<ellipse fill="none" stroke="black" cx="647" cy="-893.89" rx="167.58" ry="22"/>
<ellipse fill="none" stroke="black" cx="647" cy="-893.89" rx="171.57" ry="26"/>
<text text-anchor="middle" x="647" y="-890.19" font-family="Times,serif" font-size="14.00">isconnected_iterated_fmap_loops</text>
</a>
</g>
</g>
<!-- Loops_isconnected_iterated_fmap_loops&#45;&gt;Loops_isconnected_fmap_loops -->
<g id="edge40" class="edge">
<title>Loops_isconnected_iterated_fmap_loops&#45;&gt;Loops_isconnected_fmap_loops</title>
<path fill="none" stroke="black" d="M645.55,-867.73C643.7,-835.74 640.51,-780.67 638.6,-747.53"/>
<polygon fill="black" stroke="black" points="642.07,-746.98 638,-737.2 635.08,-747.39 642.07,-746.98"/>
</g>
<!-- Loops_isconnected_iterated_fmap_loops&#45;&gt;Loops_is0functor_iterated_loops -->
<g id="edge41" class="edge">
<title>Loops_isconnected_iterated_fmap_loops&#45;&gt;Loops_is0functor_iterated_loops</title>
<path fill="none" stroke="black" d="M688.75,-868.65C747.02,-834.82 851.83,-773.98 907.64,-741.57"/>
<polygon fill="black" stroke="black" points="909.6,-744.48 916.49,-736.44 906.09,-738.43 909.6,-744.48"/>
</g>
<!-- Loops_hfiber_fmap_loops -->
<g id="node25" class="node">
<title>Loops_hfiber_fmap_loops</title>
<g id="a_node25"><a xlink:href="Loops.html#hfiber_fmap_loops" xlink:title="hfiber_fmap_loops">
<ellipse fill="#f070d1" stroke="black" cx="632" cy="-543.89" rx="94.78" ry="18"/>
<text text-anchor="middle" x="632" y="-540.19" font-family="Times,serif" font-size="14.00">hfiber_fmap_loops</text>
</a>
</g>
</g>
<!-- Loops_isconnected_fmap_loops&#45;&gt;Loops_hfiber_fmap_loops -->
<g id="edge42" class="edge">
<title>Loops_isconnected_fmap_loops&#45;&gt;Loops_hfiber_fmap_loops</title>
<path fill="none" stroke="black" d="M636.5,-700.67C635.63,-670.62 633.83,-608.37 632.79,-572.32"/>
<polygon fill="black" stroke="black" points="636.28,-571.93 632.5,-562.04 629.29,-572.13 636.28,-571.93"/>
</g>
<!-- Loops_istrunc_fmap_loops&#45;&gt;Loops_hfiber_fmap_loops -->
<g id="edge43" class="edge">
<title>Loops_istrunc_fmap_loops&#45;&gt;Loops_hfiber_fmap_loops</title>
<path fill="none" stroke="black" d="M419.53,-701.3C461.91,-670.1 553.5,-602.68 601.4,-567.41"/>
<polygon fill="black" stroke="black" points="603.56,-570.17 609.54,-561.42 599.41,-564.53 603.56,-570.17"/>
</g>
<!-- Loops_hfiber_fmap_loops&#45;&gt;Loops_is0functor_loops -->
<g id="edge44" class="edge">
<title>Loops_hfiber_fmap_loops&#45;&gt;Loops_is0functor_loops</title>
<path fill="none" stroke="black" d="M672.38,-527.53C755.9,-495.78 947.37,-422.98 1037.88,-388.56"/>
<polygon fill="black" stroke="black" points="1039.26,-391.78 1047.36,-384.96 1036.77,-385.24 1039.26,-391.78"/>
</g>
<!-- Loops_fmap_iterated_loops_pp -->
<g id="node26" class="node">
<title>Loops_fmap_iterated_loops_pp</title>
<g id="a_node26"><a xlink:href="Loops.html#fmap_iterated_loops_pp" xlink:title="fmap_iterated_loops_pp">
<ellipse fill="#f070d1" stroke="black" cx="965" cy="-893.89" rx="120.46" ry="18"/>
<ellipse fill="none" stroke="black" cx="965" cy="-893.89" rx="124.47" ry="22"/>
<ellipse fill="none" stroke="black" cx="965" cy="-893.89" rx="128.48" ry="26"/>
<text text-anchor="middle" x="965" y="-890.19" font-family="Times,serif" font-size="14.00">fmap_iterated_loops_pp</text>
</a>
</g>
</g>
<!-- Loops_fmap_iterated_loops_pp&#45;&gt;Loops_is0functor_iterated_loops -->
<g id="edge45" class="edge">
<title>Loops_fmap_iterated_loops_pp&#45;&gt;Loops_is0functor_iterated_loops</title>
<path fill="none" stroke="black" d="M962.09,-867.73C958.39,-835.74 952.03,-780.67 948.2,-747.53"/>
<polygon fill="black" stroke="black" points="951.63,-746.73 947,-737.2 944.67,-747.54 951.63,-746.73"/>
</g>
<!-- Loops_fmap_loops_pp -->
<g id="node31" class="node">
<title>Loops_fmap_loops_pp</title>
<g id="a_node31"><a xlink:href="Loops.html#fmap_loops_pp" xlink:title="fmap_loops_pp">
<ellipse fill="#f070d1" stroke="black" cx="824" cy="-543.89" rx="79.09" ry="18"/>
<text text-anchor="middle" x="824" y="-540.19" font-family="Times,serif" font-size="14.00">fmap_loops_pp</text>
</a>
</g>
</g>
<!-- Loops_fmap_iterated_loops_pp&#45;&gt;Loops_fmap_loops_pp -->
<g id="edge46" class="edge">
<title>Loops_fmap_iterated_loops_pp&#45;&gt;Loops_fmap_loops_pp</title>
<path fill="none" stroke="black" d="M924.99,-869.04C886.79,-843.69 831.68,-799.74 808,-744.89 783.05,-687.08 801.31,-611.19 814.2,-571.58"/>
<polygon fill="black" stroke="black" points="817.52,-572.69 817.41,-562.09 810.89,-570.44 817.52,-572.69"/>
</g>
<!-- Loops_is1functor_iterated_loops&#45;&gt;Loops_is0functor_iterated_loops -->
<g id="edge47" class="edge">
<title>Loops_is1functor_iterated_loops&#45;&gt;Loops_is0functor_iterated_loops</title>
<path fill="none" stroke="black" d="M1450.68,-877.23C1348.05,-845.3 1115.02,-772.79 1004.84,-738.51"/>
<polygon fill="black" stroke="black" points="1005.8,-735.14 995.21,-735.51 1003.72,-741.82 1005.8,-735.14"/>
</g>
<!-- Loops_is1functor_iterated_loops&#45;&gt;Loops_is1functor_loops -->
<g id="edge48" class="edge">
<title>Loops_is1functor_iterated_loops&#45;&gt;Loops_is1functor_loops</title>
<path fill="none" stroke="black" d="M1471.97,-876.22C1432.14,-852.01 1360.67,-803.54 1318,-744.89 1303.43,-724.86 1314.3,-711.53 1298,-692.89 1240.02,-626.55 1144.77,-584.28 1084.29,-562.59"/>
<polygon fill="black" stroke="black" points="1085.11,-559.17 1074.52,-559.16 1082.79,-565.78 1085.11,-559.17"/>
</g>
<!-- Loops_is0functor_iterated_loops&#45;&gt;Loops_is0functor_loops -->
<g id="edge49" class="edge">
<title>Loops_is0functor_iterated_loops&#45;&gt;Loops_is0functor_loops</title>
<path fill="none" stroke="black" d="M938.86,-700.68C927.16,-664.94 905.11,-580.75 932,-517.89 956.05,-461.67 1013.09,-416.65 1050.86,-391.61"/>
<polygon fill="black" stroke="black" points="1053.06,-394.35 1059.54,-385.97 1049.25,-388.48 1053.06,-394.35"/>
</g>
<!-- Loops_is0functor_iterated_loops&#45;&gt;Loops_iterated_loops -->
<g id="edge50" class="edge">
<title>Loops_is0functor_iterated_loops&#45;&gt;Loops_iterated_loops</title>
<path fill="none" stroke="black" d="M1004.31,-702.83C1107.09,-676.63 1324.88,-620.56 1508,-569.89 1517.78,-567.18 1528.16,-564.23 1538.2,-561.34"/>
<polygon fill="black" stroke="black" points="1539.46,-564.61 1548.09,-558.47 1537.51,-557.89 1539.46,-564.61"/>
</g>
<!-- Loops_fmap_loops_pconst -->
<g id="node29" class="node">
<title>Loops_fmap_loops_pconst</title>
<g id="a_node29"><a xlink:href="Loops.html#fmap_loops_pconst" xlink:title="fmap_loops_pconst">
<ellipse fill="#f070d1" stroke="black" cx="122" cy="-893.89" rx="98.27" ry="18"/>
<ellipse fill="none" stroke="black" cx="122" cy="-893.89" rx="102.28" ry="22"/>
<ellipse fill="none" stroke="black" cx="122" cy="-893.89" rx="106.28" ry="26"/>
<text text-anchor="middle" x="122" y="-890.19" font-family="Times,serif" font-size="14.00">fmap_loops_pconst</text>
</a>
</g>
</g>
<!-- Loops_ispointedfunctor_loops -->
<g id="node30" class="node">
<title>Loops_ispointedfunctor_loops</title>
<g id="a_node30"><a xlink:href="Loops.html#ispointedfunctor_loops" xlink:title="ispointedfunctor_loops">
<ellipse fill="#f070d1" stroke="black" cx="143" cy="-718.89" rx="116.18" ry="18"/>
<text text-anchor="middle" x="143" y="-715.19" font-family="Times,serif" font-size="14.00">ispointedfunctor_loops</text>
</a>
</g>
</g>
<!-- Loops_fmap_loops_pconst&#45;&gt;Loops_ispointedfunctor_loops -->
<g id="edge51" class="edge">
<title>Loops_fmap_loops_pconst&#45;&gt;Loops_ispointedfunctor_loops</title>
<path fill="none" stroke="black" d="M125.05,-867.73C128.94,-835.74 135.62,-780.67 139.64,-747.53"/>
<polygon fill="black" stroke="black" points="143.17,-747.55 140.9,-737.2 136.22,-746.71 143.17,-747.55"/>
</g>
<!-- Loops_ispointedfunctor_loops&#45;&gt;Loops_is1functor_loops -->
<g id="edge52" class="edge">
<title>Loops_ispointedfunctor_loops&#45;&gt;Loops_is1functor_loops</title>
<path fill="none" stroke="black" d="M214.67,-704.64C350.76,-679.37 655.9,-622.12 912,-569.89 927.88,-566.65 944.96,-563.04 960.99,-559.59"/>
<polygon fill="black" stroke="black" points="961.78,-563 970.82,-557.47 960.31,-556.16 961.78,-563"/>
</g>
<!-- Loops_pequiv_loops_punit -->
<g id="node34" class="node">
<title>Loops_pequiv_loops_punit</title>
<g id="a_node34"><a xlink:href="Loops.html#pequiv_loops_punit" xlink:title="pequiv_loops_punit">
<ellipse fill="#f070d1" stroke="black" cx="151" cy="-543.89" rx="99.38" ry="18"/>
<text text-anchor="middle" x="151" y="-540.19" font-family="Times,serif" font-size="14.00">pequiv_loops_punit</text>
</a>
</g>
</g>
<!-- Loops_ispointedfunctor_loops&#45;&gt;Loops_pequiv_loops_punit -->
<g id="edge53" class="edge">
<title>Loops_ispointedfunctor_loops&#45;&gt;Loops_pequiv_loops_punit</title>
<path fill="none" stroke="black" d="M143.8,-700.67C145.19,-670.62 148.06,-608.37 149.73,-572.32"/>
<polygon fill="black" stroke="black" points="153.24,-572.19 150.21,-562.04 146.25,-571.87 153.24,-572.19"/>
</g>
<!-- Loops_fmap_loops_pp&#45;&gt;Loops_is0functor_loops -->
<g id="edge54" class="edge">
<title>Loops_fmap_loops_pp&#45;&gt;Loops_is0functor_loops</title>
<path fill="none" stroke="black" d="M848.74,-526.61C896.22,-495.38 1000.15,-427.01 1053.68,-391.81"/>
<polygon fill="black" stroke="black" points="1055.7,-394.67 1062.13,-386.25 1051.85,-388.82 1055.7,-394.67"/>
</g>
<!-- Loops_is1functor_loops&#45;&gt;Loops_is0functor_loops -->
<g id="edge55" class="edge">
<title>Loops_is1functor_loops&#45;&gt;Loops_is0functor_loops</title>
<path fill="none" stroke="black" d="M1033.87,-525.67C1044.17,-495.49 1065.53,-432.83 1077.8,-396.85"/>
<polygon fill="black" stroke="black" points="1081.24,-397.63 1081.15,-387.04 1074.61,-395.37 1081.24,-397.63"/>
</g>
<!-- Loops_is0functor_loops&#45;&gt;Loops_loops -->
<g id="edge56" class="edge">
<title>Loops_is0functor_loops&#45;&gt;Loops_loops</title>
<path fill="none" stroke="black" d="M1121.94,-352.36C1189.04,-322.54 1335.25,-257.55 1402.67,-227.59"/>
<polygon fill="black" stroke="black" points="1404.3,-230.69 1412.02,-223.43 1401.46,-224.3 1404.3,-230.69"/>
</g>
<!-- Loops_pequiv_loops_punit&#45;&gt;Loops_loops -->
<g id="edge57" class="edge">
<title>Loops_pequiv_loops_punit&#45;&gt;Loops_loops</title>
<path fill="none" stroke="black" d="M209.34,-529.26C337.02,-498.99 632.64,-426.36 667,-394.89 685.26,-378.16 667.87,-358.61 687,-342.89 796.33,-252.99 1247.25,-221.86 1392.61,-214.06"/>
<polygon fill="black" stroke="black" points="1393.14,-217.53 1402.94,-213.51 1392.77,-210.54 1393.14,-217.53"/>
</g>
<!-- Loops_isconnected_loops -->
<g id="node35" class="node">
<title>Loops_isconnected_loops</title>
<g id="a_node35"><a xlink:href="Loops.html#isconnected_loops" xlink:title="isconnected_loops">
<ellipse fill="#f070d1" stroke="black" cx="555" cy="-368.89" rx="94.79" ry="18"/>
<ellipse fill="none" stroke="black" cx="555" cy="-368.89" rx="98.79" ry="22"/>
<ellipse fill="none" stroke="black" cx="555" cy="-368.89" rx="102.78" ry="26"/>
<text text-anchor="middle" x="555" y="-365.19" font-family="Times,serif" font-size="14.00">isconnected_loops</text>
</a>
</g>
</g>
<!-- Loops_isconnected_loops&#45;&gt;Loops_loops -->
<g id="edge58" class="edge">
<title>Loops_isconnected_loops&#45;&gt;Loops_loops</title>
<path fill="none" stroke="black" d="M630.75,-351.23C644.46,-348.35 658.64,-345.46 672,-342.89 946.26,-290.16 1277.83,-237.05 1394.7,-218.65"/>
<polygon fill="black" stroke="black" points="1395.35,-222.09 1404.69,-217.08 1394.27,-215.18 1395.35,-222.09"/>
</g>
<!-- Loops_istrunc_loops -->
<g id="node36" class="node">
<title>Loops_istrunc_loops</title>
<g id="a_node36"><a xlink:href="Loops.html#istrunc_loops" xlink:title="istrunc_loops">
<ellipse fill="#f070d1" stroke="black" cx="354" cy="-368.89" rx="72.27" ry="18"/>
<ellipse fill="none" stroke="black" cx="354" cy="-368.89" rx="76.28" ry="22"/>
<ellipse fill="none" stroke="black" cx="354" cy="-368.89" rx="80.29" ry="26"/>
<text text-anchor="middle" x="354" y="-365.19" font-family="Times,serif" font-size="14.00">istrunc_loops</text>
</a>
</g>
</g>
<!-- Loops_istrunc_loops&#45;&gt;Loops_loops -->
<g id="edge59" class="edge">
<title>Loops_istrunc_loops&#45;&gt;Loops_loops</title>
<path fill="none" stroke="black" d="M411.16,-350.53C421.68,-347.71 432.62,-345.02 443,-342.89 805.99,-268.41 1252.59,-227.27 1393.35,-215.47"/>
<polygon fill="black" stroke="black" points="1393.66,-218.96 1403.33,-214.64 1393.08,-211.98 1393.66,-218.96"/>
</g>
<!-- Loops_unfold_iterated_loops&#45;&gt;Loops_iterated_loops -->
<g id="edge60" class="edge">
<title>Loops_unfold_iterated_loops&#45;&gt;Loops_iterated_loops</title>
<path fill="none" stroke="black" d="M1728.88,-876.36C1690.68,-852.81 1625.29,-805.64 1598,-744.89 1572.32,-687.72 1580.86,-611.77 1588.13,-571.92"/>
<polygon fill="black" stroke="black" points="1591.6,-572.4 1590.07,-561.92 1584.73,-571.07 1591.6,-572.4"/>
</g>
<!-- Loops_iterated_loops&#45;&gt;Loops_loops -->
<g id="edge61" class="edge">
<title>Loops_iterated_loops&#45;&gt;Loops_loops</title>
<path fill="none" stroke="black" d="M1585.83,-525.56C1560.13,-471.03 1480.81,-302.72 1450.21,-237.8"/>
<polygon fill="black" stroke="black" points="1453.33,-236.2 1445.9,-228.65 1447,-239.19 1453.33,-236.2"/>
</g>
<!-- Loops_ispointed_loops -->
<g id="node40" class="node">
<title>Loops_ispointed_loops</title>
<g id="a_node40"><a xlink:href="Loops.html#ispointed_loops" xlink:title="ispointed_loops">
<ellipse fill="#f070d1" stroke="black" cx="1438" cy="-67.89" rx="82.59" ry="18"/>
<text text-anchor="middle" x="1438" y="-64.19" font-family="Times,serif" font-size="14.00">ispointed_loops</text>
</a>
</g>
</g>
<!-- Loops_loops&#45;&gt;Loops_ispointed_loops -->
<g id="edge62" class="edge">
<title>Loops_loops&#45;&gt;Loops_ispointed_loops</title>
<path fill="none" stroke="black" d="M1438,-192.88C1438,-168.85 1438,-124.7 1438,-96.09"/>
<polygon fill="black" stroke="black" points="1441.5,-95.96 1438,-85.96 1434.5,-95.96 1441.5,-95.96"/>
</g>
</g>
</svg>
