<?xml version="1.0" encoding="UTF-8" standalone="no"?>
<!DOCTYPE svg PUBLIC "-//W3C//DTD SVG 1.1//EN"
 "http://www.w3.org/Graphics/SVG/1.1/DTD/svg11.dtd">
<!-- Generated by graphviz version 2.43.0 (0)
 -->
<!-- Title: HoTT_Spaces_No_Negation Pages: 1 -->
<svg width="738pt" height="373pt"
 viewBox="0.00 0.00 738.00 373.00" xmlns="http://www.w3.org/2000/svg" xmlns:xlink="http://www.w3.org/1999/xlink">
<g id="graph0" class="graph" transform="scale(1 1) rotate(0) translate(4 369)">
<title>HoTT_Spaces_No_Negation</title>
<polygon fill="white" stroke="transparent" points="-4,4 -4,-369 734,-369 734,4 -4,4"/>
<g id="clust1" class="cluster">
<title>cluster_Negation</title>
<polygon fill="#ffffc3" stroke="black" points="8,-8.61 8,-356.39 722,-356.39 722,-8.61 8,-8.61"/>
<text text-anchor="middle" x="49" y="-341.19" font-family="Times,serif" font-size="14.00">Negation</text>
</g>
<!-- Negation_negate_cut -->
<g id="node1" class="node">
<title>Negation_negate_cut</title>
<g id="a_node1"><a xlink:href="Negation.html#negate_cut" xlink:title="negate_cut">
<ellipse fill="#f070d1" stroke="black" cx="630" cy="-294.61" rx="61.96" ry="18"/>
<ellipse fill="none" stroke="black" cx="630" cy="-294.61" rx="65.98" ry="22"/>
<ellipse fill="none" stroke="black" cx="630" cy="-294.61" rx="69.99" ry="26"/>
<text text-anchor="middle" x="630" y="-290.91" font-family="Times,serif" font-size="14.00">negate_cut</text>
</a>
</g>
</g>
<!-- Negation_negate -->
<g id="node3" class="node">
<title>Negation_negate</title>
<g id="a_node3"><a xlink:href="Negation.html#negate" xlink:title="negate">
<ellipse fill="#f070d1" stroke="black" cx="615" cy="-208.61" rx="42.49" ry="18"/>
<text text-anchor="middle" x="615" y="-204.91" font-family="Times,serif" font-size="14.00">negate</text>
</a>
</g>
</g>
<!-- Negation_negate_cut&#45;&gt;Negation_negate -->
<g id="edge1" class="edge">
<title>Negation_negate_cut&#45;&gt;Negation_negate</title>
<path fill="none" stroke="black" d="M625.5,-268.41C623.72,-258.44 621.67,-246.96 619.85,-236.8"/>
<polygon fill="black" stroke="black" points="623.27,-236.04 618.07,-226.81 616.38,-237.27 623.27,-236.04"/>
</g>
<!-- Negation_Unnamed_thm -->
<g id="node2" class="node">
<title>Negation_Unnamed_thm</title>
<g id="a_node2"><a xlink:href="Negation.html#Unnamed_thm" xlink:title="Unnamed_thm">
<ellipse fill="#f070d1" stroke="black" cx="456" cy="-294.61" rx="78.77" ry="18"/>
<ellipse fill="none" stroke="black" cx="456" cy="-294.61" rx="82.78" ry="22"/>
<ellipse fill="none" stroke="black" cx="456" cy="-294.61" rx="86.79" ry="26"/>
<text text-anchor="middle" x="456" y="-290.91" font-family="Times,serif" font-size="14.00">Unnamed_thm</text>
</a>
</g>
</g>
<!-- Negation_Unnamed_thm&#45;&gt;Negation_negate -->
<g id="edge2" class="edge">
<title>Negation_Unnamed_thm&#45;&gt;Negation_negate</title>
<path fill="none" stroke="black" d="M497.36,-271.76C523.14,-258.14 555.94,-240.82 580.35,-227.92"/>
<polygon fill="black" stroke="black" points="582.06,-230.98 589.26,-223.21 578.79,-224.79 582.06,-230.98"/>
</g>
<!-- Negation_symmetric_options -->
<g id="node6" class="node">
<title>Negation_symmetric_options</title>
<g id="a_node6"><a xlink:href="Negation.html#symmetric_options" xlink:title="symmetric_options">
<ellipse fill="#f070d1" stroke="black" cx="615" cy="-122.61" rx="98.58" ry="18"/>
<text text-anchor="middle" x="615" y="-118.91" font-family="Times,serif" font-size="14.00">symmetric_options</text>
</a>
</g>
</g>
<!-- Negation_negate&#45;&gt;Negation_symmetric_options -->
<g id="edge3" class="edge">
<title>Negation_negate&#45;&gt;Negation_symmetric_options</title>
<path fill="none" stroke="black" d="M615,-190.21C615,-178.87 615,-163.84 615,-150.93"/>
<polygon fill="black" stroke="black" points="618.5,-150.71 615,-140.71 611.5,-150.71 618.5,-150.71"/>
</g>
<!-- Negation_hasnegation_decsort -->
<g id="node4" class="node">
<title>Negation_hasnegation_decsort</title>
<g id="a_node4"><a xlink:href="Negation.html#hasnegation_decsort" xlink:title="hasnegation_decsort">
<ellipse fill="#f070d1" stroke="black" cx="384" cy="-122.61" rx="106.67" ry="18"/>
<ellipse fill="none" stroke="black" cx="384" cy="-122.61" rx="110.68" ry="22"/>
<ellipse fill="none" stroke="black" cx="384" cy="-122.61" rx="114.68" ry="26"/>
<text text-anchor="middle" x="384" y="-118.91" font-family="Times,serif" font-size="14.00">hasnegation_decsort</text>
</a>
</g>
</g>
<!-- Negation_HasNegation -->
<g id="node7" class="node">
<title>Negation_HasNegation</title>
<g id="a_node7"><a xlink:href="Negation.html#HasNegation" xlink:title="HasNegation">
<ellipse fill="#f070d1" stroke="black" cx="384" cy="-36.61" rx="71.49" ry="18"/>
<text text-anchor="middle" x="384" y="-32.91" font-family="Times,serif" font-size="14.00">HasNegation</text>
</a>
</g>
</g>
<!-- Negation_hasnegation_decsort&#45;&gt;Negation_HasNegation -->
<g id="edge4" class="edge">
<title>Negation_hasnegation_decsort&#45;&gt;Negation_HasNegation</title>
<path fill="none" stroke="black" d="M384,-96.41C384,-86.54 384,-75.2 384,-65.12"/>
<polygon fill="black" stroke="black" points="387.5,-64.81 384,-54.81 380.5,-64.81 387.5,-64.81"/>
</g>
<!-- Negation_hasnegation_maxsort -->
<g id="node5" class="node">
<title>Negation_hasnegation_maxsort</title>
<g id="a_node5"><a xlink:href="Negation.html#hasnegation_maxsort" xlink:title="hasnegation_maxsort">
<ellipse fill="#f070d1" stroke="black" cx="134" cy="-122.61" rx="109.69" ry="18"/>
<ellipse fill="none" stroke="black" cx="134" cy="-122.61" rx="113.69" ry="22"/>
<ellipse fill="none" stroke="black" cx="134" cy="-122.61" rx="117.68" ry="26"/>
<text text-anchor="middle" x="134" y="-118.91" font-family="Times,serif" font-size="14.00">hasnegation_maxsort</text>
</a>
</g>
</g>
<!-- Negation_hasnegation_maxsort&#45;&gt;Negation_HasNegation -->
<g id="edge5" class="edge">
<title>Negation_hasnegation_maxsort&#45;&gt;Negation_HasNegation</title>
<path fill="none" stroke="black" d="M196.76,-100.53C238.9,-86.37 293.7,-67.95 333.11,-54.71"/>
<polygon fill="black" stroke="black" points="334.42,-57.96 342.79,-51.46 332.19,-51.33 334.42,-57.96"/>
</g>
<!-- Negation_symmetric_options&#45;&gt;Negation_HasNegation -->
<g id="edge6" class="edge">
<title>Negation_symmetric_options&#45;&gt;Negation_HasNegation</title>
<path fill="none" stroke="black" d="M572.9,-106.3C533.38,-91.93 474.3,-70.45 432.75,-55.34"/>
<polygon fill="black" stroke="black" points="433.71,-51.97 423.12,-51.84 431.32,-58.54 433.71,-51.97"/>
</g>
</g>
</svg>
