<?xml version="1.0" encoding="UTF-8" standalone="no"?>
<!DOCTYPE svg PUBLIC "-//W3C//DTD SVG 1.1//EN"
 "http://www.w3.org/Graphics/SVG/1.1/DTD/svg11.dtd">
<!-- Generated by graphviz version 2.43.0 (0)
 -->
<!-- Title: HoTT_WildCat_Yoneda Pages: 1 -->
<svg width="1536pt" height="772pt"
 viewBox="0.00 0.00 1536.00 772.00" xmlns="http://www.w3.org/2000/svg" xmlns:xlink="http://www.w3.org/1999/xlink">
<g id="graph0" class="graph" transform="scale(1 1) rotate(0) translate(4 768)">
<title>HoTT_WildCat_Yoneda</title>
<polygon fill="white" stroke="transparent" points="-4,4 -4,-768 1532,-768 1532,4 -4,4"/>
<g id="clust1" class="cluster">
<title>cluster_Yoneda</title>
<polygon fill="#ffffc3" stroke="black" points="8,-14.31 8,-749.69 1520,-749.69 1520,-14.31 8,-14.31"/>
<text text-anchor="middle" x="42" y="-734.49" font-family="Times,serif" font-size="14.00">Yoneda</text>
</g>
<!-- Yoneda_natequiv_yon_equiv -->
<g id="node1" class="node">
<title>Yoneda_natequiv_yon_equiv</title>
<g id="a_node1"><a xlink:href="Yoneda.html#natequiv_yon_equiv" xlink:title="natequiv_yon_equiv">
<ellipse fill="#f070d1" stroke="black" cx="1183" cy="-647.31" rx="102.08" ry="18"/>
<ellipse fill="none" stroke="black" cx="1183" cy="-647.31" rx="106.08" ry="22"/>
<ellipse fill="none" stroke="black" cx="1183" cy="-647.31" rx="110.08" ry="26"/>
<text text-anchor="middle" x="1183" y="-643.61" font-family="Times,serif" font-size="14.00">natequiv_yon_equiv</text>
</a>
</g>
</g>
<!-- Yoneda_yon1 -->
<g id="node3" class="node">
<title>Yoneda_yon1</title>
<g id="a_node3"><a xlink:href="Yoneda.html#yon1" xlink:title="yon1">
<ellipse fill="#f070d1" stroke="black" cx="1325" cy="-490.31" rx="33.29" ry="18"/>
<text text-anchor="middle" x="1325" y="-486.61" font-family="Times,serif" font-size="14.00">yon1</text>
</a>
</g>
</g>
<!-- Yoneda_natequiv_yon_equiv&#45;&gt;Yoneda_yon1 -->
<g id="edge1" class="edge">
<title>Yoneda_natequiv_yon_equiv&#45;&gt;Yoneda_yon1</title>
<path fill="none" stroke="black" d="M1205.5,-621.75C1232.52,-592.26 1277.49,-543.17 1303.88,-514.36"/>
<polygon fill="black" stroke="black" points="1306.63,-516.55 1310.8,-506.81 1301.47,-511.82 1306.63,-516.55"/>
</g>
<!-- Yoneda_natequiv_opyon_equiv -->
<g id="node12" class="node">
<title>Yoneda_natequiv_opyon_equiv</title>
<g id="a_node12"><a xlink:href="Yoneda.html#natequiv_opyon_equiv" xlink:title="natequiv_opyon_equiv">
<ellipse fill="#f070d1" stroke="black" cx="1161" cy="-490.31" rx="113.18" ry="18"/>
<text text-anchor="middle" x="1161" y="-486.61" font-family="Times,serif" font-size="14.00">natequiv_opyon_equiv</text>
</a>
</g>
</g>
<!-- Yoneda_natequiv_yon_equiv&#45;&gt;Yoneda_natequiv_opyon_equiv -->
<g id="edge2" class="edge">
<title>Yoneda_natequiv_yon_equiv&#45;&gt;Yoneda_natequiv_opyon_equiv</title>
<path fill="none" stroke="black" d="M1179.42,-621.07C1175.42,-592.92 1168.98,-547.57 1164.88,-518.62"/>
<polygon fill="black" stroke="black" points="1168.3,-517.8 1163.42,-508.39 1161.36,-518.79 1168.3,-517.8"/>
</g>
<!-- Yoneda_yon_equiv -->
<g id="node2" class="node">
<title>Yoneda_yon_equiv</title>
<g id="a_node2"><a xlink:href="Yoneda.html#yon_equiv" xlink:title="yon_equiv">
<ellipse fill="#f070d1" stroke="black" cx="1421" cy="-647.31" rx="57.37" ry="18"/>
<ellipse fill="none" stroke="black" cx="1421" cy="-647.31" rx="61.38" ry="22"/>
<ellipse fill="none" stroke="black" cx="1421" cy="-647.31" rx="65.39" ry="26"/>
<text text-anchor="middle" x="1421" y="-643.61" font-family="Times,serif" font-size="14.00">yon_equiv</text>
</a>
</g>
</g>
<!-- Yoneda_yon_equiv&#45;&gt;Yoneda_yon1 -->
<g id="edge3" class="edge">
<title>Yoneda_yon_equiv&#45;&gt;Yoneda_yon1</title>
<path fill="none" stroke="black" d="M1405.79,-621.75C1387.95,-592.95 1358.53,-545.44 1340.54,-516.41"/>
<polygon fill="black" stroke="black" points="1343.37,-514.33 1335.13,-507.68 1337.42,-518.02 1343.37,-514.33"/>
</g>
<!-- Yoneda_opyon_equiv -->
<g id="node13" class="node">
<title>Yoneda_opyon_equiv</title>
<g id="a_node13"><a xlink:href="Yoneda.html#opyon_equiv" xlink:title="opyon_equiv">
<ellipse fill="#f070d1" stroke="black" cx="1444" cy="-490.31" rx="68.49" ry="18"/>
<text text-anchor="middle" x="1444" y="-486.61" font-family="Times,serif" font-size="14.00">opyon_equiv</text>
</a>
</g>
</g>
<!-- Yoneda_yon_equiv&#45;&gt;Yoneda_opyon_equiv -->
<g id="edge4" class="edge">
<title>Yoneda_yon_equiv&#45;&gt;Yoneda_opyon_equiv</title>
<path fill="none" stroke="black" d="M1424.75,-621.07C1428.92,-592.92 1435.65,-547.57 1439.95,-518.62"/>
<polygon fill="black" stroke="black" points="1443.46,-518.8 1441.47,-508.39 1436.54,-517.77 1443.46,-518.8"/>
</g>
<!-- Yoneda_opyon1 -->
<g id="node14" class="node">
<title>Yoneda_opyon1</title>
<g id="a_node14"><a xlink:href="Yoneda.html#opyon1" xlink:title="opyon1">
<ellipse fill="#f070d1" stroke="black" cx="1468" cy="-332.31" rx="44.39" ry="18"/>
<text text-anchor="middle" x="1468" y="-328.61" font-family="Times,serif" font-size="14.00">opyon1</text>
</a>
</g>
</g>
<!-- Yoneda_yon1&#45;&gt;Yoneda_opyon1 -->
<g id="edge5" class="edge">
<title>Yoneda_yon1&#45;&gt;Yoneda_opyon1</title>
<path fill="none" stroke="black" d="M1339.23,-473.79C1364.24,-446.5 1416.22,-389.8 1445.93,-357.39"/>
<polygon fill="black" stroke="black" points="1448.79,-359.45 1452.97,-349.71 1443.63,-354.72 1448.79,-359.45"/>
</g>
<!-- Yoneda_yon_cancel -->
<g id="node4" class="node">
<title>Yoneda_yon_cancel</title>
<g id="a_node4"><a xlink:href="Yoneda.html#yon_cancel" xlink:title="yon_cancel">
<ellipse fill="#f070d1" stroke="black" cx="689" cy="-490.31" rx="61.18" ry="18"/>
<ellipse fill="none" stroke="black" cx="689" cy="-490.31" rx="65.18" ry="22"/>
<ellipse fill="none" stroke="black" cx="689" cy="-490.31" rx="69.19" ry="26"/>
<text text-anchor="middle" x="689" y="-486.61" font-family="Times,serif" font-size="14.00">yon_cancel</text>
</a>
</g>
</g>
<!-- Yoneda_un_yoneda -->
<g id="node8" class="node">
<title>Yoneda_un_yoneda</title>
<g id="a_node8"><a xlink:href="Yoneda.html#un_yoneda" xlink:title="un_yoneda">
<ellipse fill="#f070d1" stroke="black" cx="561" cy="-332.31" rx="59.59" ry="18"/>
<text text-anchor="middle" x="561" y="-328.61" font-family="Times,serif" font-size="14.00">un_yoneda</text>
</a>
</g>
</g>
<!-- Yoneda_yon_cancel&#45;&gt;Yoneda_un_yoneda -->
<g id="edge6" class="edge">
<title>Yoneda_yon_cancel&#45;&gt;Yoneda_un_yoneda</title>
<path fill="none" stroke="black" d="M669.28,-465.28C645.41,-436.19 605.42,-387.45 581.29,-358.05"/>
<polygon fill="black" stroke="black" points="583.69,-355.45 574.64,-349.94 578.28,-359.89 583.69,-355.45"/>
</g>
<!-- Yoneda_is0functor_yon -->
<g id="node10" class="node">
<title>Yoneda_is0functor_yon</title>
<g id="a_node10"><a xlink:href="Yoneda.html#is0functor_yon" xlink:title="is0functor_yon">
<ellipse fill="#f070d1" stroke="black" cx="896" cy="-332.31" rx="79.09" ry="18"/>
<text text-anchor="middle" x="896" y="-328.61" font-family="Times,serif" font-size="14.00">is0functor_yon</text>
</a>
</g>
</g>
<!-- Yoneda_yon_cancel&#45;&gt;Yoneda_is0functor_yon -->
<g id="edge7" class="edge">
<title>Yoneda_yon_cancel&#45;&gt;Yoneda_is0functor_yon</title>
<path fill="none" stroke="black" d="M719.1,-466.63C758.3,-437.09 826.43,-385.74 865.72,-356.14"/>
<polygon fill="black" stroke="black" points="868.23,-358.62 874.11,-349.81 864.02,-353.03 868.23,-358.62"/>
</g>
<!-- Yoneda_yoneda_isretr -->
<g id="node5" class="node">
<title>Yoneda_yoneda_isretr</title>
<g id="a_node5"><a xlink:href="Yoneda.html#yoneda_isretr" xlink:title="yoneda_isretr">
<ellipse fill="#f070d1" stroke="black" cx="487" cy="-490.31" rx="74.18" ry="18"/>
<ellipse fill="none" stroke="black" cx="487" cy="-490.31" rx="78.18" ry="22"/>
<ellipse fill="none" stroke="black" cx="487" cy="-490.31" rx="82.19" ry="26"/>
<text text-anchor="middle" x="487" y="-486.61" font-family="Times,serif" font-size="14.00">yoneda_isretr</text>
</a>
</g>
</g>
<!-- Yoneda_yoneda_isretr&#45;&gt;Yoneda_un_yoneda -->
<g id="edge8" class="edge">
<title>Yoneda_yoneda_isretr&#45;&gt;Yoneda_un_yoneda</title>
<path fill="none" stroke="black" d="M498.89,-464.25C512.47,-435.62 534.6,-388.97 548.45,-359.77"/>
<polygon fill="black" stroke="black" points="551.68,-361.12 552.81,-350.59 545.36,-358.12 551.68,-361.12"/>
</g>
<!-- Yoneda_yoneda -->
<g id="node9" class="node">
<title>Yoneda_yoneda</title>
<g id="a_node9"><a xlink:href="Yoneda.html#yoneda" xlink:title="yoneda">
<ellipse fill="#f070d1" stroke="black" cx="251" cy="-332.31" rx="44.39" ry="18"/>
<text text-anchor="middle" x="251" y="-328.61" font-family="Times,serif" font-size="14.00">yoneda</text>
</a>
</g>
</g>
<!-- Yoneda_yoneda_isretr&#45;&gt;Yoneda_yoneda -->
<g id="edge9" class="edge">
<title>Yoneda_yoneda_isretr&#45;&gt;Yoneda_yoneda</title>
<path fill="none" stroke="black" d="M452.68,-466.63C406.76,-436.27 325.99,-382.88 281.88,-353.73"/>
<polygon fill="black" stroke="black" points="283.58,-350.65 273.31,-348.06 279.72,-356.49 283.58,-350.65"/>
</g>
<!-- Yoneda_yoneda_isretr&#45;&gt;Yoneda_is0functor_yon -->
<g id="edge10" class="edge">
<title>Yoneda_yoneda_isretr&#45;&gt;Yoneda_is0functor_yon</title>
<path fill="none" stroke="black" d="M537.97,-469.87C617.45,-439.56 769.82,-381.44 847.65,-351.75"/>
<polygon fill="black" stroke="black" points="849.12,-354.94 857.22,-348.11 846.63,-348.4 849.12,-354.94"/>
</g>
<!-- Yoneda_opyoneda_isretr -->
<g id="node16" class="node">
<title>Yoneda_opyoneda_isretr</title>
<g id="a_node16"><a xlink:href="Yoneda.html#opyoneda_isretr" xlink:title="opyoneda_isretr">
<ellipse fill="#f070d1" stroke="black" cx="398" cy="-332.31" rx="85.29" ry="18"/>
<text text-anchor="middle" x="398" y="-328.61" font-family="Times,serif" font-size="14.00">opyoneda_isretr</text>
</a>
</g>
</g>
<!-- Yoneda_yoneda_isretr&#45;&gt;Yoneda_opyoneda_isretr -->
<g id="edge11" class="edge">
<title>Yoneda_yoneda_isretr&#45;&gt;Yoneda_opyoneda_isretr</title>
<path fill="none" stroke="black" d="M472.9,-464.6C456.44,-435.76 429.37,-388.3 412.68,-359.04"/>
<polygon fill="black" stroke="black" points="415.64,-357.18 407.65,-350.22 409.56,-360.64 415.64,-357.18"/>
</g>
<!-- Yoneda_yoneda_issect -->
<g id="node6" class="node">
<title>Yoneda_yoneda_issect</title>
<g id="a_node6"><a xlink:href="Yoneda.html#yoneda_issect" xlink:title="yoneda_issect">
<ellipse fill="#f070d1" stroke="black" cx="287" cy="-490.31" rx="75.3" ry="18"/>
<ellipse fill="none" stroke="black" cx="287" cy="-490.31" rx="79.29" ry="22"/>
<ellipse fill="none" stroke="black" cx="287" cy="-490.31" rx="83.29" ry="26"/>
<text text-anchor="middle" x="287" y="-486.61" font-family="Times,serif" font-size="14.00">yoneda_issect</text>
</a>
</g>
</g>
<!-- Yoneda_yoneda_issect&#45;&gt;Yoneda_un_yoneda -->
<g id="edge12" class="edge">
<title>Yoneda_yoneda_issect&#45;&gt;Yoneda_un_yoneda</title>
<path fill="none" stroke="black" d="M325.97,-467.13C379.21,-436.82 473.94,-382.88 525.37,-353.6"/>
<polygon fill="black" stroke="black" points="527.19,-356.59 534.15,-348.6 523.73,-350.5 527.19,-356.59"/>
</g>
<!-- Yoneda_yoneda_issect&#45;&gt;Yoneda_yoneda -->
<g id="edge13" class="edge">
<title>Yoneda_yoneda_issect&#45;&gt;Yoneda_yoneda</title>
<path fill="none" stroke="black" d="M281.22,-464.25C274.67,-435.87 264.03,-389.78 257.28,-360.54"/>
<polygon fill="black" stroke="black" points="260.65,-359.55 254.99,-350.59 253.82,-361.12 260.65,-359.55"/>
</g>
<!-- Yoneda_opyoneda_issect -->
<g id="node17" class="node">
<title>Yoneda_opyoneda_issect</title>
<g id="a_node17"><a xlink:href="Yoneda.html#opyoneda_issect" xlink:title="opyoneda_issect">
<ellipse fill="#f070d1" stroke="black" cx="102" cy="-332.31" rx="86.38" ry="18"/>
<text text-anchor="middle" x="102" y="-328.61" font-family="Times,serif" font-size="14.00">opyoneda_issect</text>
</a>
</g>
</g>
<!-- Yoneda_yoneda_issect&#45;&gt;Yoneda_opyoneda_issect -->
<g id="edge14" class="edge">
<title>Yoneda_yoneda_issect&#45;&gt;Yoneda_opyoneda_issect</title>
<path fill="none" stroke="black" d="M258.9,-465.62C223.9,-436.11 164.49,-386.01 129.68,-356.66"/>
<polygon fill="black" stroke="black" points="131.71,-353.79 121.81,-350.02 127.2,-359.14 131.71,-353.79"/>
</g>
<!-- Yoneda_is1natural_yoneda -->
<g id="node7" class="node">
<title>Yoneda_is1natural_yoneda</title>
<g id="a_node7"><a xlink:href="Yoneda.html#is1natural_yoneda" xlink:title="is1natural_yoneda">
<ellipse fill="#f070d1" stroke="black" cx="896" cy="-490.31" rx="95.58" ry="18"/>
<ellipse fill="none" stroke="black" cx="896" cy="-490.31" rx="99.58" ry="22"/>
<ellipse fill="none" stroke="black" cx="896" cy="-490.31" rx="103.58" ry="26"/>
<text text-anchor="middle" x="896" y="-486.61" font-family="Times,serif" font-size="14.00">is1natural_yoneda</text>
</a>
</g>
</g>
<!-- Yoneda_is1natural_yoneda&#45;&gt;Yoneda_yoneda -->
<g id="edge15" class="edge">
<title>Yoneda_is1natural_yoneda&#45;&gt;Yoneda_yoneda</title>
<path fill="none" stroke="black" d="M815.74,-473.86C677.05,-446.78 398.32,-390.54 304,-358.31 298.2,-356.33 292.2,-353.9 286.41,-351.34"/>
<polygon fill="black" stroke="black" points="287.48,-347.98 276.94,-346.96 284.55,-354.33 287.48,-347.98"/>
</g>
<!-- Yoneda_is1natural_yoneda&#45;&gt;Yoneda_is0functor_yon -->
<g id="edge16" class="edge">
<title>Yoneda_is1natural_yoneda&#45;&gt;Yoneda_is0functor_yon</title>
<path fill="none" stroke="black" d="M896,-464.25C896,-435.99 896,-390.18 896,-360.92"/>
<polygon fill="black" stroke="black" points="899.5,-360.59 896,-350.59 892.5,-360.59 899.5,-360.59"/>
</g>
<!-- Yoneda_is1natural_opyoneda -->
<g id="node18" class="node">
<title>Yoneda_is1natural_opyoneda</title>
<g id="a_node18"><a xlink:href="Yoneda.html#is1natural_opyoneda" xlink:title="is1natural_opyoneda">
<ellipse fill="#f070d1" stroke="black" cx="1100" cy="-332.31" rx="106.68" ry="18"/>
<text text-anchor="middle" x="1100" y="-328.61" font-family="Times,serif" font-size="14.00">is1natural_opyoneda</text>
</a>
</g>
</g>
<!-- Yoneda_is1natural_yoneda&#45;&gt;Yoneda_is1natural_opyoneda -->
<g id="edge17" class="edge">
<title>Yoneda_is1natural_yoneda&#45;&gt;Yoneda_is1natural_opyoneda</title>
<path fill="none" stroke="black" d="M927.43,-465.28C966.29,-435.56 1031.96,-385.35 1070.1,-356.18"/>
<polygon fill="black" stroke="black" points="1072.44,-358.8 1078.26,-349.94 1068.19,-353.23 1072.44,-358.8"/>
</g>
<!-- Yoneda_yon -->
<g id="node11" class="node">
<title>Yoneda_yon</title>
<g id="a_node11"><a xlink:href="Yoneda.html#yon" xlink:title="yon">
<ellipse fill="#f070d1" stroke="black" cx="610" cy="-189.31" rx="27.1" ry="18"/>
<text text-anchor="middle" x="610" y="-185.61" font-family="Times,serif" font-size="14.00">yon</text>
</a>
</g>
</g>
<!-- Yoneda_un_yoneda&#45;&gt;Yoneda_yon -->
<g id="edge18" class="edge">
<title>Yoneda_un_yoneda&#45;&gt;Yoneda_yon</title>
<path fill="none" stroke="black" d="M566.91,-314.31C575.34,-290.04 590.91,-245.26 600.84,-216.67"/>
<polygon fill="black" stroke="black" points="604.24,-217.54 604.22,-206.94 597.63,-215.24 604.24,-217.54"/>
</g>
<!-- Yoneda_un_opyoneda -->
<g id="node19" class="node">
<title>Yoneda_un_opyoneda</title>
<g id="a_node19"><a xlink:href="Yoneda.html#un_opyoneda" xlink:title="un_opyoneda">
<ellipse fill="#f070d1" stroke="black" cx="493" cy="-189.31" rx="71.49" ry="18"/>
<text text-anchor="middle" x="493" y="-185.61" font-family="Times,serif" font-size="14.00">un_opyoneda</text>
</a>
</g>
</g>
<!-- Yoneda_un_yoneda&#45;&gt;Yoneda_un_opyoneda -->
<g id="edge19" class="edge">
<title>Yoneda_un_yoneda&#45;&gt;Yoneda_un_opyoneda</title>
<path fill="none" stroke="black" d="M552.8,-314.31C541.11,-290.06 519.54,-245.35 505.75,-216.76"/>
<polygon fill="black" stroke="black" points="508.73,-214.87 501.23,-207.38 502.42,-217.91 508.73,-214.87"/>
</g>
<!-- Yoneda_yoneda&#45;&gt;Yoneda_yon -->
<g id="edge20" class="edge">
<title>Yoneda_yoneda&#45;&gt;Yoneda_yon</title>
<path fill="none" stroke="black" d="M278.03,-318C286.3,-314.08 295.46,-309.89 304,-306.31 421.5,-257.09 455.25,-255.94 573,-207.31 574.86,-206.54 576.77,-205.74 578.69,-204.91"/>
<polygon fill="black" stroke="black" points="580.5,-207.93 588.21,-200.67 577.65,-201.54 580.5,-207.93"/>
</g>
<!-- Yoneda_opyoneda -->
<g id="node20" class="node">
<title>Yoneda_opyoneda</title>
<g id="a_node20"><a xlink:href="Yoneda.html#opyoneda" xlink:title="opyoneda">
<ellipse fill="#f070d1" stroke="black" cx="348" cy="-189.31" rx="55.49" ry="18"/>
<text text-anchor="middle" x="348" y="-185.61" font-family="Times,serif" font-size="14.00">opyoneda</text>
</a>
</g>
</g>
<!-- Yoneda_yoneda&#45;&gt;Yoneda_opyoneda -->
<g id="edge21" class="edge">
<title>Yoneda_yoneda&#45;&gt;Yoneda_opyoneda</title>
<path fill="none" stroke="black" d="M262.32,-314.86C279.17,-290.37 310.97,-244.14 330.74,-215.41"/>
<polygon fill="black" stroke="black" points="333.67,-217.32 336.45,-207.1 327.9,-213.35 333.67,-217.32"/>
</g>
<!-- Yoneda_is0functor_yon&#45;&gt;Yoneda_yon -->
<g id="edge22" class="edge">
<title>Yoneda_is0functor_yon&#45;&gt;Yoneda_yon</title>
<path fill="none" stroke="black" d="M864.3,-315.69C808.87,-288.36 695.06,-232.25 640.49,-205.35"/>
<polygon fill="black" stroke="black" points="641.85,-202.11 631.33,-200.83 638.75,-208.39 641.85,-202.11"/>
</g>
<!-- Yoneda_is0functor_opyon -->
<g id="node22" class="node">
<title>Yoneda_is0functor_opyon</title>
<g id="a_node22"><a xlink:href="Yoneda.html#is0functor_opyon" xlink:title="is0functor_opyon">
<ellipse fill="#f070d1" stroke="black" cx="896" cy="-189.31" rx="90.18" ry="18"/>
<text text-anchor="middle" x="896" y="-185.61" font-family="Times,serif" font-size="14.00">is0functor_opyon</text>
</a>
</g>
</g>
<!-- Yoneda_is0functor_yon&#45;&gt;Yoneda_is0functor_opyon -->
<g id="edge23" class="edge">
<title>Yoneda_is0functor_yon&#45;&gt;Yoneda_is0functor_opyon</title>
<path fill="none" stroke="black" d="M896,-314.31C896,-290.28 896,-246.13 896,-217.51"/>
<polygon fill="black" stroke="black" points="899.5,-217.38 896,-207.38 892.5,-217.38 899.5,-217.38"/>
</g>
<!-- Yoneda_opyon -->
<g id="node23" class="node">
<title>Yoneda_opyon</title>
<g id="a_node23"><a xlink:href="Yoneda.html#opyon" xlink:title="opyon">
<ellipse fill="#f070d1" stroke="black" cx="551" cy="-61.31" rx="38.19" ry="18"/>
<text text-anchor="middle" x="551" y="-57.61" font-family="Times,serif" font-size="14.00">opyon</text>
</a>
</g>
</g>
<!-- Yoneda_yon&#45;&gt;Yoneda_opyon -->
<g id="edge24" class="edge">
<title>Yoneda_yon&#45;&gt;Yoneda_opyon</title>
<path fill="none" stroke="black" d="M602.29,-171.84C592.36,-150.64 575,-113.56 563.25,-88.48"/>
<polygon fill="black" stroke="black" points="566.31,-86.76 558.9,-79.19 559.97,-89.73 566.31,-86.76"/>
</g>
<!-- Yoneda_natequiv_opyon_equiv&#45;&gt;Yoneda_opyon1 -->
<g id="edge25" class="edge">
<title>Yoneda_natequiv_opyon_equiv&#45;&gt;Yoneda_opyon1</title>
<path fill="none" stroke="black" d="M1193.27,-472.91C1251.14,-443.51 1372.12,-382.04 1432.35,-351.43"/>
<polygon fill="black" stroke="black" points="1434.14,-354.44 1441.47,-346.79 1430.97,-348.2 1434.14,-354.44"/>
</g>
<!-- Yoneda_natequiv_opyon_equiv&#45;&gt;Yoneda_is1natural_opyoneda -->
<g id="edge26" class="edge">
<title>Yoneda_natequiv_opyon_equiv&#45;&gt;Yoneda_is1natural_opyoneda</title>
<path fill="none" stroke="black" d="M1154.36,-472.32C1143.77,-445.24 1122.98,-392.09 1110.41,-359.93"/>
<polygon fill="black" stroke="black" points="1113.54,-358.32 1106.64,-350.28 1107.02,-360.87 1113.54,-358.32"/>
</g>
<!-- Yoneda_is1functor_opyon -->
<g id="node21" class="node">
<title>Yoneda_is1functor_opyon</title>
<g id="a_node21"><a xlink:href="Yoneda.html#is1functor_opyon" xlink:title="is1functor_opyon">
<ellipse fill="#f070d1" stroke="black" cx="1315" cy="-332.31" rx="90.18" ry="18"/>
<text text-anchor="middle" x="1315" y="-328.61" font-family="Times,serif" font-size="14.00">is1functor_opyon</text>
</a>
</g>
</g>
<!-- Yoneda_natequiv_opyon_equiv&#45;&gt;Yoneda_is1functor_opyon -->
<g id="edge27" class="edge">
<title>Yoneda_natequiv_opyon_equiv&#45;&gt;Yoneda_is1functor_opyon</title>
<path fill="none" stroke="black" d="M1177.77,-472.32C1205.2,-444.54 1259.72,-389.31 1291.16,-357.47"/>
<polygon fill="black" stroke="black" points="1293.71,-359.86 1298.25,-350.28 1288.73,-354.94 1293.71,-359.86"/>
</g>
<!-- Yoneda_opyon_equiv&#45;&gt;Yoneda_opyon1 -->
<g id="edge28" class="edge">
<title>Yoneda_opyon_equiv&#45;&gt;Yoneda_opyon1</title>
<path fill="none" stroke="black" d="M1446.61,-472.32C1450.76,-445.36 1458.89,-392.55 1463.84,-360.35"/>
<polygon fill="black" stroke="black" points="1467.33,-360.7 1465.39,-350.28 1460.41,-359.64 1467.33,-360.7"/>
</g>
<!-- Yoneda_opyon1&#45;&gt;Yoneda_is0functor_opyon -->
<g id="edge29" class="edge">
<title>Yoneda_opyon1&#45;&gt;Yoneda_is0functor_opyon</title>
<path fill="none" stroke="black" d="M1441.54,-317.7C1432.92,-313.63 1423.2,-309.43 1414,-306.31 1262.39,-254.9 1078.02,-219.85 975.16,-202.63"/>
<polygon fill="black" stroke="black" points="975.59,-199.15 965.16,-200.97 974.45,-206.06 975.59,-199.15"/>
</g>
<!-- Yoneda_opyon_cancel -->
<g id="node15" class="node">
<title>Yoneda_opyon_cancel</title>
<g id="a_node15"><a xlink:href="Yoneda.html#opyon_cancel" xlink:title="opyon_cancel">
<ellipse fill="#f070d1" stroke="black" cx="719" cy="-332.31" rx="72.27" ry="18"/>
<ellipse fill="none" stroke="black" cx="719" cy="-332.31" rx="76.28" ry="22"/>
<ellipse fill="none" stroke="black" cx="719" cy="-332.31" rx="80.29" ry="26"/>
<text text-anchor="middle" x="719" y="-328.61" font-family="Times,serif" font-size="14.00">opyon_cancel</text>
</a>
</g>
</g>
<!-- Yoneda_opyon_cancel&#45;&gt;Yoneda_un_opyoneda -->
<g id="edge30" class="edge">
<title>Yoneda_opyon_cancel&#45;&gt;Yoneda_un_opyoneda</title>
<path fill="none" stroke="black" d="M683.19,-308.97C640.31,-282.22 569.03,-237.75 526.98,-211.51"/>
<polygon fill="black" stroke="black" points="528.81,-208.53 518.47,-206.21 525.1,-214.47 528.81,-208.53"/>
</g>
<!-- Yoneda_opyon_cancel&#45;&gt;Yoneda_is0functor_opyon -->
<g id="edge31" class="edge">
<title>Yoneda_opyon_cancel&#45;&gt;Yoneda_is0functor_opyon</title>
<path fill="none" stroke="black" d="M748.23,-308.03C781.18,-281.78 834.41,-239.38 867.19,-213.27"/>
<polygon fill="black" stroke="black" points="869.41,-215.97 875.06,-207 865.05,-210.49 869.41,-215.97"/>
</g>
<!-- Yoneda_opyoneda_isretr&#45;&gt;Yoneda_un_opyoneda -->
<g id="edge32" class="edge">
<title>Yoneda_opyoneda_isretr&#45;&gt;Yoneda_un_opyoneda</title>
<path fill="none" stroke="black" d="M409.46,-314.31C425.94,-289.85 456.45,-244.57 475.68,-216.02"/>
<polygon fill="black" stroke="black" points="478.82,-217.63 481.5,-207.38 473.01,-213.72 478.82,-217.63"/>
</g>
<!-- Yoneda_opyoneda_isretr&#45;&gt;Yoneda_opyoneda -->
<g id="edge33" class="edge">
<title>Yoneda_opyoneda_isretr&#45;&gt;Yoneda_opyoneda</title>
<path fill="none" stroke="black" d="M391.97,-314.31C383.41,-290.17 367.65,-245.74 357.51,-217.14"/>
<polygon fill="black" stroke="black" points="360.69,-215.64 354.05,-207.38 354.1,-217.98 360.69,-215.64"/>
</g>
<!-- Yoneda_opyoneda_isretr&#45;&gt;Yoneda_is0functor_opyon -->
<g id="edge34" class="edge">
<title>Yoneda_opyoneda_isretr&#45;&gt;Yoneda_is0functor_opyon</title>
<path fill="none" stroke="black" d="M446.66,-317.54C538.35,-291.58 736.43,-235.49 836.12,-207.27"/>
<polygon fill="black" stroke="black" points="837.37,-210.55 846.04,-204.46 835.46,-203.82 837.37,-210.55"/>
</g>
<!-- Yoneda_opyoneda_issect&#45;&gt;Yoneda_un_opyoneda -->
<g id="edge35" class="edge">
<title>Yoneda_opyoneda_issect&#45;&gt;Yoneda_un_opyoneda</title>
<path fill="none" stroke="black" d="M143.47,-316.36C216.23,-290.12 366.48,-235.94 444.14,-207.93"/>
<polygon fill="black" stroke="black" points="445.48,-211.17 453.7,-204.49 443.1,-204.59 445.48,-211.17"/>
</g>
<!-- Yoneda_opyoneda_issect&#45;&gt;Yoneda_opyoneda -->
<g id="edge36" class="edge">
<title>Yoneda_opyoneda_issect&#45;&gt;Yoneda_opyoneda</title>
<path fill="none" stroke="black" d="M130.22,-315.14C175.49,-289.19 264.21,-238.34 313.29,-210.21"/>
<polygon fill="black" stroke="black" points="315.03,-213.24 321.97,-205.23 311.55,-207.17 315.03,-213.24"/>
</g>
<!-- Yoneda_is1natural_opyoneda&#45;&gt;Yoneda_opyoneda -->
<g id="edge37" class="edge">
<title>Yoneda_is1natural_opyoneda&#45;&gt;Yoneda_opyoneda</title>
<path fill="none" stroke="black" d="M1038.39,-317.55C1020.85,-313.76 1001.69,-309.75 984,-306.31 731.17,-257.17 664.7,-261.95 413,-207.31 408.33,-206.3 403.49,-205.18 398.65,-204"/>
<polygon fill="black" stroke="black" points="399.34,-200.57 388.79,-201.54 397.65,-207.36 399.34,-200.57"/>
</g>
<!-- Yoneda_is1natural_opyoneda&#45;&gt;Yoneda_is0functor_opyon -->
<g id="edge38" class="edge">
<title>Yoneda_is1natural_opyoneda&#45;&gt;Yoneda_is0functor_opyon</title>
<path fill="none" stroke="black" d="M1075.8,-314.59C1039.04,-289.18 969.11,-240.85 928.14,-212.53"/>
<polygon fill="black" stroke="black" points="930.07,-209.61 919.86,-206.8 926.09,-215.37 930.07,-209.61"/>
</g>
<!-- Yoneda_un_opyoneda&#45;&gt;Yoneda_opyon -->
<g id="edge39" class="edge">
<title>Yoneda_un_opyoneda&#45;&gt;Yoneda_opyon</title>
<path fill="none" stroke="black" d="M500.82,-171.32C510.65,-149.97 527.61,-113.13 539.06,-88.25"/>
<polygon fill="black" stroke="black" points="542.3,-89.58 543.3,-79.04 535.94,-86.66 542.3,-89.58"/>
</g>
<!-- Yoneda_opyoneda&#45;&gt;Yoneda_opyon -->
<g id="edge40" class="edge">
<title>Yoneda_opyoneda&#45;&gt;Yoneda_opyon</title>
<path fill="none" stroke="black" d="M372.49,-173.12C409.45,-150.17 479.46,-106.72 519.95,-81.59"/>
<polygon fill="black" stroke="black" points="521.95,-84.46 528.6,-76.21 518.26,-78.51 521.95,-84.46"/>
</g>
<!-- Yoneda_is1functor_opyon&#45;&gt;Yoneda_is0functor_opyon -->
<g id="edge41" class="edge">
<title>Yoneda_is1functor_opyon&#45;&gt;Yoneda_is0functor_opyon</title>
<path fill="none" stroke="black" d="M1270.95,-316.49C1193.54,-290.44 1033.4,-236.55 949.66,-208.37"/>
<polygon fill="black" stroke="black" points="950.68,-205.02 940.09,-205.15 948.45,-211.66 950.68,-205.02"/>
</g>
<!-- Yoneda_is0functor_opyon&#45;&gt;Yoneda_opyon -->
<g id="edge42" class="edge">
<title>Yoneda_is0functor_opyon&#45;&gt;Yoneda_opyon</title>
<path fill="none" stroke="black" d="M854.73,-173.24C787.53,-148.7 655.4,-100.44 589.82,-76.49"/>
<polygon fill="black" stroke="black" points="590.86,-73.14 580.27,-73 588.46,-79.72 590.86,-73.14"/>
</g>
<!-- Yoneda_is1functor_hom -->
<g id="node24" class="node">
<title>Yoneda_is1functor_hom</title>
<g id="a_node24"><a xlink:href="Yoneda.html#is1functor_hom" xlink:title="is1functor_hom">
<ellipse fill="#f070d1" stroke="black" cx="107" cy="-647.31" rx="82.58" ry="18"/>
<ellipse fill="none" stroke="black" cx="107" cy="-647.31" rx="86.58" ry="22"/>
<ellipse fill="none" stroke="black" cx="107" cy="-647.31" rx="90.59" ry="26"/>
<text text-anchor="middle" x="107" y="-643.61" font-family="Times,serif" font-size="14.00">is1functor_hom</text>
</a>
</g>
</g>
<!-- Yoneda_is0functor_hom -->
<g id="node25" class="node">
<title>Yoneda_is0functor_hom</title>
<g id="a_node25"><a xlink:href="Yoneda.html#is0functor_hom" xlink:title="is0functor_hom">
<ellipse fill="#f070d1" stroke="black" cx="103" cy="-490.31" rx="82.59" ry="18"/>
<text text-anchor="middle" x="103" y="-486.61" font-family="Times,serif" font-size="14.00">is0functor_hom</text>
</a>
</g>
</g>
<!-- Yoneda_is1functor_hom&#45;&gt;Yoneda_is0functor_hom -->
<g id="edge43" class="edge">
<title>Yoneda_is1functor_hom&#45;&gt;Yoneda_is0functor_hom</title>
<path fill="none" stroke="black" d="M106.35,-621.07C105.62,-592.92 104.45,-547.57 103.7,-518.62"/>
<polygon fill="black" stroke="black" points="107.2,-518.3 103.44,-508.39 100.2,-518.48 107.2,-518.3"/>
</g>
</g>
</svg>
