<?xml version="1.0" encoding="UTF-8" standalone="no"?>
<!DOCTYPE svg PUBLIC "-//W3C//DTD SVG 1.1//EN"
 "http://www.w3.org/Graphics/SVG/1.1/DTD/svg11.dtd">
<!-- Generated by graphviz version 2.43.0 (0)
 -->
<!-- Title: HoTT_Basics_Contractible Pages: 1 -->
<svg width="1415pt" height="712pt"
 viewBox="0.00 0.00 1415.00 711.50" xmlns="http://www.w3.org/2000/svg" xmlns:xlink="http://www.w3.org/1999/xlink">
<g id="graph0" class="graph" transform="scale(1 1) rotate(0) translate(4 707.5)">
<title>HoTT_Basics_Contractible</title>
<polygon fill="white" stroke="transparent" points="-4,4 -4,-707.5 1411,-707.5 1411,4 -4,4"/>
<g id="clust1" class="cluster">
<title>cluster_Contractible</title>
<polygon fill="#ffffc3" stroke="black" points="8,-15.85 8,-687.65 1399,-687.65 1399,-15.85 8,-15.85"/>
<text text-anchor="middle" x="60.5" y="-672.45" font-family="Times,serif" font-size="14.00">Contractible</text>
</g>
<!-- Contractible_contr_contr -->
<g id="node1" class="node">
<title>Contractible_contr_contr</title>
<g id="a_node1"><a xlink:href="Contractible.html#contr_contr" xlink:title="contr_contr">
<ellipse fill="#f070d1" stroke="black" cx="1020" cy="-574.85" rx="63.87" ry="18"/>
<ellipse fill="none" stroke="black" cx="1020" cy="-574.85" rx="67.88" ry="22"/>
<ellipse fill="none" stroke="black" cx="1020" cy="-574.85" rx="71.89" ry="26"/>
<text text-anchor="middle" x="1020" y="-571.15" font-family="Times,serif" font-size="14.00">contr_contr</text>
</a>
</g>
</g>
<!-- Contractible_path2_contr -->
<g id="node15" class="node">
<title>Contractible_path2_contr</title>
<g id="a_node15"><a xlink:href="Contractible.html#path2_contr" xlink:title="path2_contr">
<ellipse fill="#f070d1" stroke="black" cx="730" cy="-399.85" rx="66.09" ry="18"/>
<text text-anchor="middle" x="730" y="-396.15" font-family="Times,serif" font-size="14.00">path2_contr</text>
</a>
</g>
</g>
<!-- Contractible_contr_contr&#45;&gt;Contractible_path2_contr -->
<g id="edge1" class="edge">
<title>Contractible_contr_contr&#45;&gt;Contractible_path2_contr</title>
<path fill="none" stroke="black" d="M983.86,-552.29C927.76,-518.83 820.45,-454.81 765.04,-421.76"/>
<polygon fill="black" stroke="black" points="766.67,-418.65 756.29,-416.53 763.08,-424.66 766.67,-418.65"/>
</g>
<!-- Contractible_contr_change_center -->
<g id="node2" class="node">
<title>Contractible_contr_change_center</title>
<g id="a_node2"><a xlink:href="Contractible.html#contr_change_center" xlink:title="contr_change_center">
<ellipse fill="#f070d1" stroke="black" cx="929" cy="-399.85" rx="106.67" ry="18"/>
<ellipse fill="none" stroke="black" cx="929" cy="-399.85" rx="110.68" ry="22"/>
<ellipse fill="none" stroke="black" cx="929" cy="-399.85" rx="114.68" ry="26"/>
<text text-anchor="middle" x="929" y="-396.15" font-family="Times,serif" font-size="14.00">contr_change_center</text>
</a>
</g>
</g>
<!-- Contractible_path_contr -->
<g id="node16" class="node">
<title>Contractible_path_contr</title>
<g id="a_node16"><a xlink:href="Contractible.html#path_contr" xlink:title="path_contr">
<ellipse fill="#f070d1" stroke="black" cx="548" cy="-225.85" rx="60.39" ry="18"/>
<text text-anchor="middle" x="548" y="-222.15" font-family="Times,serif" font-size="14.00">path_contr</text>
</a>
</g>
</g>
<!-- Contractible_contr_change_center&#45;&gt;Contractible_path_contr -->
<g id="edge2" class="edge">
<title>Contractible_contr_change_center&#45;&gt;Contractible_path_contr</title>
<path fill="none" stroke="black" d="M879.19,-376.37C803.19,-342.06 659.69,-277.28 589.2,-245.45"/>
<polygon fill="black" stroke="black" points="590.3,-242.11 579.75,-241.19 587.42,-248.49 590.3,-242.11"/>
</g>
<!-- Contractible_contr_retract -->
<g id="node3" class="node">
<title>Contractible_contr_retract</title>
<g id="a_node3"><a xlink:href="Contractible.html#contr_retract" xlink:title="contr_retract">
<ellipse fill="#f070d1" stroke="black" cx="851" cy="-574.85" rx="71.49" ry="18"/>
<ellipse fill="none" stroke="black" cx="851" cy="-574.85" rx="75.49" ry="22"/>
<ellipse fill="none" stroke="black" cx="851" cy="-574.85" rx="79.49" ry="26"/>
<text text-anchor="middle" x="851" y="-571.15" font-family="Times,serif" font-size="14.00">contr_retract</text>
</a>
</g>
</g>
<!-- Contractible_contr_dom_equiv -->
<g id="node4" class="node">
<title>Contractible_contr_dom_equiv</title>
<g id="a_node4"><a xlink:href="Contractible.html#contr_dom_equiv" xlink:title="contr_dom_equiv">
<ellipse fill="#f070d1" stroke="black" cx="656" cy="-574.85" rx="89.08" ry="18"/>
<ellipse fill="none" stroke="black" cx="656" cy="-574.85" rx="93.08" ry="22"/>
<ellipse fill="none" stroke="black" cx="656" cy="-574.85" rx="97.08" ry="26"/>
<text text-anchor="middle" x="656" y="-571.15" font-family="Times,serif" font-size="14.00">contr_dom_equiv</text>
</a>
</g>
</g>
<!-- Contractible_ap_pr1_path_basedpaths_ -->
<g id="node5" class="node">
<title>Contractible_ap_pr1_path_basedpaths_</title>
<g id="a_node5"><a xlink:href="Contractible.html#ap_pr1_path_basedpaths'" xlink:title="ap_pr1_path_basedpaths&#39;">
<ellipse fill="#f070d1" stroke="black" cx="1255" cy="-225.85" rx="128.08" ry="18"/>
<ellipse fill="none" stroke="black" cx="1255" cy="-225.85" rx="132.08" ry="22"/>
<ellipse fill="none" stroke="black" cx="1255" cy="-225.85" rx="136.08" ry="26"/>
<text text-anchor="middle" x="1255" y="-222.15" font-family="Times,serif" font-size="14.00">ap_pr1_path_basedpaths&#39;</text>
</a>
</g>
</g>
<!-- Contractible_path_basedpaths_ -->
<g id="node10" class="node">
<title>Contractible_path_basedpaths_</title>
<g id="a_node10"><a xlink:href="Contractible.html#path_basedpaths'" xlink:title="path_basedpaths&#39;">
<ellipse fill="#f070d1" stroke="black" cx="1130" cy="-67.85" rx="91.78" ry="18"/>
<text text-anchor="middle" x="1130" y="-64.15" font-family="Times,serif" font-size="14.00">path_basedpaths&#39;</text>
</a>
</g>
</g>
<!-- Contractible_ap_pr1_path_basedpaths_&#45;&gt;Contractible_path_basedpaths_ -->
<g id="edge3" class="edge">
<title>Contractible_ap_pr1_path_basedpaths_&#45;&gt;Contractible_path_basedpaths_</title>
<path fill="none" stroke="black" d="M1234.92,-199.79C1211.55,-170.63 1173.21,-122.78 1149.91,-93.71"/>
<polygon fill="black" stroke="black" points="1152.47,-91.3 1143.48,-85.68 1147.01,-95.67 1152.47,-91.3"/>
</g>
<!-- Contractible_ap_pr1_path_basedpaths -->
<g id="node6" class="node">
<title>Contractible_ap_pr1_path_basedpaths</title>
<g id="a_node6"><a xlink:href="Contractible.html#ap_pr1_path_basedpaths" xlink:title="ap_pr1_path_basedpaths">
<ellipse fill="#f070d1" stroke="black" cx="760" cy="-225.85" rx="125.38" ry="18"/>
<ellipse fill="none" stroke="black" cx="760" cy="-225.85" rx="129.38" ry="22"/>
<ellipse fill="none" stroke="black" cx="760" cy="-225.85" rx="133.38" ry="26"/>
<text text-anchor="middle" x="760" y="-222.15" font-family="Times,serif" font-size="14.00">ap_pr1_path_basedpaths</text>
</a>
</g>
</g>
<!-- Contractible_path_basedpaths -->
<g id="node13" class="node">
<title>Contractible_path_basedpaths</title>
<g id="a_node13"><a xlink:href="Contractible.html#path_basedpaths" xlink:title="path_basedpaths">
<ellipse fill="#f070d1" stroke="black" cx="568" cy="-67.85" rx="89.08" ry="18"/>
<text text-anchor="middle" x="568" y="-64.15" font-family="Times,serif" font-size="14.00">path_basedpaths</text>
</a>
</g>
</g>
<!-- Contractible_ap_pr1_path_basedpaths&#45;&gt;Contractible_path_basedpaths -->
<g id="edge4" class="edge">
<title>Contractible_ap_pr1_path_basedpaths&#45;&gt;Contractible_path_basedpaths</title>
<path fill="none" stroke="black" d="M730,-200.48C693.48,-170.81 632.27,-121.07 596.46,-91.98"/>
<polygon fill="black" stroke="black" points="598.33,-88.99 588.37,-85.4 593.92,-94.42 598.33,-88.99"/>
</g>
<!-- Contractible_ap_pr1_path_contr_basedpaths_ -->
<g id="node7" class="node">
<title>Contractible_ap_pr1_path_contr_basedpaths_</title>
<g id="a_node7"><a xlink:href="Contractible.html#ap_pr1_path_contr_basedpaths'" xlink:title="ap_pr1_path_contr_basedpaths&#39;">
<ellipse fill="#f070d1" stroke="black" cx="1226" cy="-399.85" rx="156.77" ry="18"/>
<ellipse fill="none" stroke="black" cx="1226" cy="-399.85" rx="160.77" ry="22"/>
<ellipse fill="none" stroke="black" cx="1226" cy="-399.85" rx="164.77" ry="26"/>
<text text-anchor="middle" x="1226" y="-396.15" font-family="Times,serif" font-size="14.00">ap_pr1_path_contr_basedpaths&#39;</text>
</a>
</g>
</g>
<!-- Contractible_contr_basedpaths_ -->
<g id="node9" class="node">
<title>Contractible_contr_basedpaths_</title>
<g id="a_node9"><a xlink:href="Contractible.html#contr_basedpaths'" xlink:title="contr_basedpaths&#39;">
<ellipse fill="#f070d1" stroke="black" cx="1006" cy="-225.85" rx="94.78" ry="18"/>
<text text-anchor="middle" x="1006" y="-222.15" font-family="Times,serif" font-size="14.00">contr_basedpaths&#39;</text>
</a>
</g>
</g>
<!-- Contractible_ap_pr1_path_contr_basedpaths_&#45;&gt;Contractible_contr_basedpaths_ -->
<g id="edge5" class="edge">
<title>Contractible_ap_pr1_path_contr_basedpaths_&#45;&gt;Contractible_contr_basedpaths_</title>
<path fill="none" stroke="black" d="M1194.48,-374.21C1151.91,-340.93 1076.61,-282.06 1035.24,-249.72"/>
<polygon fill="black" stroke="black" points="1037.23,-246.83 1027.2,-243.43 1032.92,-252.34 1037.23,-246.83"/>
</g>
<!-- Contractible_ap_pr1_path_contr_basedpaths_&#45;&gt;Contractible_path_contr -->
<g id="edge6" class="edge">
<title>Contractible_ap_pr1_path_contr_basedpaths_&#45;&gt;Contractible_path_contr</title>
<path fill="none" stroke="black" d="M1129.33,-378.79C1008.68,-353 796.46,-305.13 618,-251.85 609.91,-249.44 601.39,-246.63 593.18,-243.78"/>
<polygon fill="black" stroke="black" points="594.32,-240.47 583.73,-240.44 591.99,-247.07 594.32,-240.47"/>
</g>
<!-- Contractible_ap_pr1_path_contr_basedpaths -->
<g id="node8" class="node">
<title>Contractible_ap_pr1_path_contr_basedpaths</title>
<g id="a_node8"><a xlink:href="Contractible.html#ap_pr1_path_contr_basedpaths" xlink:title="ap_pr1_path_contr_basedpaths">
<ellipse fill="#f070d1" stroke="black" cx="484" cy="-399.85" rx="154.07" ry="18"/>
<ellipse fill="none" stroke="black" cx="484" cy="-399.85" rx="158.07" ry="22"/>
<ellipse fill="none" stroke="black" cx="484" cy="-399.85" rx="162.07" ry="26"/>
<text text-anchor="middle" x="484" y="-396.15" font-family="Times,serif" font-size="14.00">ap_pr1_path_contr_basedpaths</text>
</a>
</g>
</g>
<!-- Contractible_contr_basedpaths -->
<g id="node12" class="node">
<title>Contractible_contr_basedpaths</title>
<g id="a_node12"><a xlink:href="Contractible.html#contr_basedpaths" xlink:title="contr_basedpaths">
<ellipse fill="#f070d1" stroke="black" cx="377" cy="-225.85" rx="92.88" ry="18"/>
<text text-anchor="middle" x="377" y="-222.15" font-family="Times,serif" font-size="14.00">contr_basedpaths</text>
</a>
</g>
</g>
<!-- Contractible_ap_pr1_path_contr_basedpaths&#45;&gt;Contractible_contr_basedpaths -->
<g id="edge7" class="edge">
<title>Contractible_ap_pr1_path_contr_basedpaths&#45;&gt;Contractible_contr_basedpaths</title>
<path fill="none" stroke="black" d="M468.44,-373.84C448.31,-341.48 413.41,-285.38 393.04,-252.64"/>
<polygon fill="black" stroke="black" points="395.96,-250.71 387.71,-244.07 390.02,-254.41 395.96,-250.71"/>
</g>
<!-- Contractible_ap_pr1_path_contr_basedpaths&#45;&gt;Contractible_path_contr -->
<g id="edge8" class="edge">
<title>Contractible_ap_pr1_path_contr_basedpaths&#45;&gt;Contractible_path_contr</title>
<path fill="none" stroke="black" d="M493.31,-373.84C505.25,-341.76 525.87,-286.34 538.09,-253.49"/>
<polygon fill="black" stroke="black" points="541.39,-254.66 541.6,-244.07 534.83,-252.22 541.39,-254.66"/>
</g>
<!-- Contractible_contr_basedpaths_&#45;&gt;Contractible_path_basedpaths_ -->
<g id="edge9" class="edge">
<title>Contractible_contr_basedpaths_&#45;&gt;Contractible_path_basedpaths_</title>
<path fill="none" stroke="black" d="M1019.51,-207.86C1041.4,-180.32 1084.75,-125.78 1110.16,-93.82"/>
<polygon fill="black" stroke="black" points="1113.03,-95.83 1116.51,-85.82 1107.55,-91.47 1113.03,-95.83"/>
</g>
<!-- Contractible_contr_basedpaths_etashort -->
<g id="node11" class="node">
<title>Contractible_contr_basedpaths_etashort</title>
<g id="a_node11"><a xlink:href="Contractible.html#contr_basedpaths_etashort" xlink:title="contr_basedpaths_etashort">
<ellipse fill="#f070d1" stroke="black" cx="160" cy="-399.85" rx="135.69" ry="18"/>
<ellipse fill="none" stroke="black" cx="160" cy="-399.85" rx="139.68" ry="22"/>
<ellipse fill="none" stroke="black" cx="160" cy="-399.85" rx="143.68" ry="26"/>
<text text-anchor="middle" x="160" y="-396.15" font-family="Times,serif" font-size="14.00">contr_basedpaths_etashort</text>
</a>
</g>
</g>
<!-- Contractible_contr_basedpaths_etashort&#45;&gt;Contractible_contr_basedpaths -->
<g id="edge10" class="edge">
<title>Contractible_contr_basedpaths_etashort&#45;&gt;Contractible_contr_basedpaths</title>
<path fill="none" stroke="black" d="M191.09,-374.21C233.08,-340.93 307.35,-282.06 348.15,-249.72"/>
<polygon fill="black" stroke="black" points="350.43,-252.38 356.09,-243.43 346.08,-246.9 350.43,-252.38"/>
</g>
<!-- Contractible_contr_basedpaths&#45;&gt;Contractible_path_basedpaths -->
<g id="edge11" class="edge">
<title>Contractible_contr_basedpaths&#45;&gt;Contractible_path_basedpaths</title>
<path fill="none" stroke="black" d="M397.44,-208.16C431.76,-180.13 501.02,-123.56 539.9,-91.81"/>
<polygon fill="black" stroke="black" points="542.18,-94.46 547.71,-85.43 537.75,-89.04 542.18,-94.46"/>
</g>
<!-- Contractible_contr_paths_contr -->
<g id="node14" class="node">
<title>Contractible_contr_paths_contr</title>
<g id="a_node14"><a xlink:href="Contractible.html#contr_paths_contr" xlink:title="contr_paths_contr">
<ellipse fill="#f070d1" stroke="black" cx="439" cy="-574.85" rx="94.46" ry="18"/>
<ellipse fill="none" stroke="black" cx="439" cy="-574.85" rx="98.47" ry="22"/>
<ellipse fill="none" stroke="black" cx="439" cy="-574.85" rx="102.48" ry="26"/>
<text text-anchor="middle" x="439" y="-571.15" font-family="Times,serif" font-size="14.00">contr_paths_contr</text>
</a>
</g>
</g>
<!-- Contractible_contr_paths_contr&#45;&gt;Contractible_path2_contr -->
<g id="edge12" class="edge">
<title>Contractible_contr_paths_contr&#45;&gt;Contractible_path2_contr</title>
<path fill="none" stroke="black" d="M477.94,-550.7C535.01,-516.77 640.49,-454.07 695.14,-421.58"/>
<polygon fill="black" stroke="black" points="696.97,-424.56 703.78,-416.44 693.4,-418.54 696.97,-424.56"/>
</g>
<!-- Contractible_path2_contr&#45;&gt;Contractible_path_contr -->
<g id="edge13" class="edge">
<title>Contractible_path2_contr&#45;&gt;Contractible_path_contr</title>
<path fill="none" stroke="black" d="M712.55,-382.36C680.07,-351.67 610.26,-285.69 572.86,-250.35"/>
<polygon fill="black" stroke="black" points="575.07,-247.62 565.4,-243.3 570.26,-252.71 575.07,-247.62"/>
</g>
</g>
</svg>
