<?xml version="1.0" encoding="UTF-8" standalone="no"?>
<!DOCTYPE svg PUBLIC "-//W3C//DTD SVG 1.1//EN"
 "http://www.w3.org/Graphics/SVG/1.1/DTD/svg11.dtd">
<!-- Generated by graphviz version 2.43.0 (0)
 -->
<!-- Title: HoTT_Types_Unit Pages: 1 -->
<svg width="1166pt" height="587pt"
 viewBox="0.00 0.00 1166.00 587.00" xmlns="http://www.w3.org/2000/svg" xmlns:xlink="http://www.w3.org/1999/xlink">
<g id="graph0" class="graph" transform="scale(1 1) rotate(0) translate(4 583)">
<title>HoTT_Types_Unit</title>
<polygon fill="white" stroke="transparent" points="-4,4 -4,-583 1162,-583 1162,4 -4,4"/>
<g id="clust1" class="cluster">
<title>cluster_Unit</title>
<polygon fill="#ffffc3" stroke="black" points="8,-13.66 8,-565.34 1150,-565.34 1150,-13.66 8,-13.66"/>
<text text-anchor="middle" x="32" y="-550.14" font-family="Times,serif" font-size="14.00">Unit</text>
</g>
<!-- Unit_contr_equiv_unit -->
<g id="node1" class="node">
<title>Unit_contr_equiv_unit</title>
<g id="a_node1"><a xlink:href="Unit.html#contr_equiv_unit" xlink:title="contr_equiv_unit">
<ellipse fill="#f070d1" stroke="black" cx="1046" cy="-467.66" rx="87.96" ry="18"/>
<ellipse fill="none" stroke="black" cx="1046" cy="-467.66" rx="91.97" ry="22"/>
<ellipse fill="none" stroke="black" cx="1046" cy="-467.66" rx="95.99" ry="26"/>
<text text-anchor="middle" x="1046" y="-463.96" font-family="Times,serif" font-size="14.00">contr_equiv_unit</text>
</a>
</g>
</g>
<!-- Unit_contr_unit -->
<g id="node3" class="node">
<title>Unit_contr_unit</title>
<g id="a_node3"><a xlink:href="Unit.html#contr_unit" xlink:title="contr_unit">
<ellipse fill="#f070d1" stroke="black" cx="1084" cy="-317.66" rx="57.69" ry="18"/>
<text text-anchor="middle" x="1084" y="-313.96" font-family="Times,serif" font-size="14.00">contr_unit</text>
</a>
</g>
</g>
<!-- Unit_contr_equiv_unit&#45;&gt;Unit_contr_unit -->
<g id="edge1" class="edge">
<title>Unit_contr_equiv_unit&#45;&gt;Unit_contr_unit</title>
<path fill="none" stroke="black" d="M1052.45,-441.56C1059.28,-414.94 1070.04,-373.04 1077.06,-345.71"/>
<polygon fill="black" stroke="black" points="1080.45,-346.56 1079.55,-336.01 1073.67,-344.82 1080.45,-346.56"/>
</g>
<!-- Unit_equiv_contr_unit -->
<g id="node2" class="node">
<title>Unit_equiv_contr_unit</title>
<g id="a_node2"><a xlink:href="Unit.html#equiv_contr_unit" xlink:title="equiv_contr_unit">
<ellipse fill="#f070d1" stroke="black" cx="837" cy="-467.66" rx="87.96" ry="18"/>
<ellipse fill="none" stroke="black" cx="837" cy="-467.66" rx="91.97" ry="22"/>
<ellipse fill="none" stroke="black" cx="837" cy="-467.66" rx="95.99" ry="26"/>
<text text-anchor="middle" x="837" y="-463.96" font-family="Times,serif" font-size="14.00">equiv_contr_unit</text>
</a>
</g>
</g>
<!-- Unit_equiv_unit_coind -->
<g id="node4" class="node">
<title>Unit_equiv_unit_coind</title>
<g id="a_node4"><a xlink:href="Unit.html#equiv_unit_coind" xlink:title="equiv_unit_coind">
<ellipse fill="#f070d1" stroke="black" cx="627" cy="-467.66" rx="88.29" ry="18"/>
<ellipse fill="none" stroke="black" cx="627" cy="-467.66" rx="92.29" ry="22"/>
<ellipse fill="none" stroke="black" cx="627" cy="-467.66" rx="96.28" ry="26"/>
<text text-anchor="middle" x="627" y="-463.96" font-family="Times,serif" font-size="14.00">equiv_unit_coind</text>
</a>
</g>
</g>
<!-- Unit_isequiv_unit_coind -->
<g id="node5" class="node">
<title>Unit_isequiv_unit_coind</title>
<g id="a_node5"><a xlink:href="Unit.html#isequiv_unit_coind" xlink:title="isequiv_unit_coind">
<ellipse fill="#f070d1" stroke="black" cx="912" cy="-317.66" rx="96.38" ry="18"/>
<text text-anchor="middle" x="912" y="-313.96" font-family="Times,serif" font-size="14.00">isequiv_unit_coind</text>
</a>
</g>
</g>
<!-- Unit_equiv_unit_coind&#45;&gt;Unit_isequiv_unit_coind -->
<g id="edge2" class="edge">
<title>Unit_equiv_unit_coind&#45;&gt;Unit_isequiv_unit_coind</title>
<path fill="none" stroke="black" d="M669.98,-444.35C724.69,-415.93 818.51,-367.21 871.84,-339.52"/>
<polygon fill="black" stroke="black" points="873.73,-342.48 881,-334.76 870.51,-336.27 873.73,-342.48"/>
</g>
<!-- Unit_unit_coind -->
<g id="node6" class="node">
<title>Unit_unit_coind</title>
<g id="a_node6"><a xlink:href="Unit.html#unit_coind" xlink:title="unit_coind">
<ellipse fill="#f070d1" stroke="black" cx="912" cy="-180.66" rx="58.49" ry="18"/>
<text text-anchor="middle" x="912" y="-176.96" font-family="Times,serif" font-size="14.00">unit_coind</text>
</a>
</g>
</g>
<!-- Unit_isequiv_unit_coind&#45;&gt;Unit_unit_coind -->
<g id="edge3" class="edge">
<title>Unit_isequiv_unit_coind&#45;&gt;Unit_unit_coind</title>
<path fill="none" stroke="black" d="M912,-299.57C912,-276.77 912,-236.14 912,-209.05"/>
<polygon fill="black" stroke="black" points="915.5,-209.05 912,-199.05 908.5,-209.05 915.5,-209.05"/>
</g>
<!-- Unit_path_unit -->
<g id="node14" class="node">
<title>Unit_path_unit</title>
<g id="a_node14"><a xlink:href="Unit.html#path_unit" xlink:title="path_unit">
<ellipse fill="#f070d1" stroke="black" cx="591" cy="-180.66" rx="54.69" ry="18"/>
<text text-anchor="middle" x="591" y="-176.96" font-family="Times,serif" font-size="14.00">path_unit</text>
</a>
</g>
</g>
<!-- Unit_isequiv_unit_coind&#45;&gt;Unit_path_unit -->
<g id="edge4" class="edge">
<title>Unit_isequiv_unit_coind&#45;&gt;Unit_path_unit</title>
<path fill="none" stroke="black" d="M874.86,-301.05C814.59,-275.69 695.85,-225.76 632.74,-199.22"/>
<polygon fill="black" stroke="black" points="634.05,-195.97 623.47,-195.32 631.33,-202.42 634.05,-195.97"/>
</g>
<!-- Unit_isequiv_unit_name -->
<g id="node7" class="node">
<title>Unit_isequiv_unit_name</title>
<g id="a_node7"><a xlink:href="Unit.html#isequiv_unit_name" xlink:title="isequiv_unit_name">
<ellipse fill="#f070d1" stroke="black" cx="693" cy="-317.66" rx="96.7" ry="18"/>
<ellipse fill="none" stroke="black" cx="693" cy="-317.66" rx="100.69" ry="22"/>
<ellipse fill="none" stroke="black" cx="693" cy="-317.66" rx="104.68" ry="26"/>
<text text-anchor="middle" x="693" y="-313.96" font-family="Times,serif" font-size="14.00">isequiv_unit_name</text>
</a>
</g>
</g>
<!-- Unit_isequiv_unit_name&#45;&gt;Unit_path_unit -->
<g id="edge5" class="edge">
<title>Unit_isequiv_unit_name&#45;&gt;Unit_path_unit</title>
<path fill="none" stroke="black" d="M674.29,-291.9C655.87,-267.53 627.91,-230.52 609.55,-206.21"/>
<polygon fill="black" stroke="black" points="612.31,-204.06 603.48,-198.19 606.72,-208.28 612.31,-204.06"/>
</g>
<!-- Unit_equiv_unit_rec -->
<g id="node8" class="node">
<title>Unit_equiv_unit_rec</title>
<g id="a_node8"><a xlink:href="Unit.html#equiv_unit_rec" xlink:title="equiv_unit_rec">
<ellipse fill="#f070d1" stroke="black" cx="304" cy="-467.66" rx="77.99" ry="18"/>
<ellipse fill="none" stroke="black" cx="304" cy="-467.66" rx="81.99" ry="22"/>
<ellipse fill="none" stroke="black" cx="304" cy="-467.66" rx="85.99" ry="26"/>
<text text-anchor="middle" x="304" y="-463.96" font-family="Times,serif" font-size="14.00">equiv_unit_rec</text>
</a>
</g>
</g>
<!-- Unit_isequiv_unit_rec -->
<g id="node9" class="node">
<title>Unit_isequiv_unit_rec</title>
<g id="a_node9"><a xlink:href="Unit.html#isequiv_unit_rec" xlink:title="isequiv_unit_rec">
<ellipse fill="#f070d1" stroke="black" cx="304" cy="-317.66" rx="85.59" ry="18"/>
<text text-anchor="middle" x="304" y="-313.96" font-family="Times,serif" font-size="14.00">isequiv_unit_rec</text>
</a>
</g>
</g>
<!-- Unit_equiv_unit_rec&#45;&gt;Unit_isequiv_unit_rec -->
<g id="edge6" class="edge">
<title>Unit_equiv_unit_rec&#45;&gt;Unit_isequiv_unit_rec</title>
<path fill="none" stroke="black" d="M304,-441.56C304,-415.06 304,-373.41 304,-346.07"/>
<polygon fill="black" stroke="black" points="307.5,-346.01 304,-336.01 300.5,-346.01 307.5,-346.01"/>
</g>
<!-- Unit_isequiv_unit_ind -->
<g id="node10" class="node">
<title>Unit_isequiv_unit_ind</title>
<g id="a_node10"><a xlink:href="Unit.html#isequiv_unit_ind" xlink:title="isequiv_unit_ind">
<ellipse fill="#f070d1" stroke="black" cx="304" cy="-180.66" rx="85.59" ry="18"/>
<text text-anchor="middle" x="304" y="-176.96" font-family="Times,serif" font-size="14.00">isequiv_unit_ind</text>
</a>
</g>
</g>
<!-- Unit_isequiv_unit_rec&#45;&gt;Unit_isequiv_unit_ind -->
<g id="edge7" class="edge">
<title>Unit_isequiv_unit_rec&#45;&gt;Unit_isequiv_unit_ind</title>
<path fill="none" stroke="black" d="M304,-299.57C304,-276.77 304,-236.14 304,-209.05"/>
<polygon fill="black" stroke="black" points="307.5,-209.05 304,-199.05 300.5,-209.05 307.5,-209.05"/>
</g>
<!-- Unit_equiv_path_unit -->
<g id="node11" class="node">
<title>Unit_equiv_path_unit</title>
<g id="a_node11"><a xlink:href="Unit.html#equiv_path_unit" xlink:title="equiv_path_unit">
<ellipse fill="#f070d1" stroke="black" cx="108" cy="-317.66" rx="84.49" ry="18"/>
<ellipse fill="none" stroke="black" cx="108" cy="-317.66" rx="88.49" ry="22"/>
<ellipse fill="none" stroke="black" cx="108" cy="-317.66" rx="92.49" ry="26"/>
<text text-anchor="middle" x="108" y="-313.96" font-family="Times,serif" font-size="14.00">equiv_path_unit</text>
</a>
</g>
</g>
<!-- Unit_isequiv_path_unit -->
<g id="node12" class="node">
<title>Unit_isequiv_path_unit</title>
<g id="a_node12"><a xlink:href="Unit.html#isequiv_path_unit" xlink:title="isequiv_path_unit">
<ellipse fill="#f070d1" stroke="black" cx="108" cy="-180.66" rx="92.08" ry="18"/>
<text text-anchor="middle" x="108" y="-176.96" font-family="Times,serif" font-size="14.00">isequiv_path_unit</text>
</a>
</g>
</g>
<!-- Unit_equiv_path_unit&#45;&gt;Unit_isequiv_path_unit -->
<g id="edge8" class="edge">
<title>Unit_equiv_path_unit&#45;&gt;Unit_isequiv_path_unit</title>
<path fill="none" stroke="black" d="M108,-291.59C108,-268.18 108,-233.32 108,-209.16"/>
<polygon fill="black" stroke="black" points="111.5,-208.9 108,-198.9 104.5,-208.9 111.5,-208.9"/>
</g>
<!-- Unit_path_unit_uncurried -->
<g id="node15" class="node">
<title>Unit_path_unit_uncurried</title>
<g id="a_node15"><a xlink:href="Unit.html#path_unit_uncurried" xlink:title="path_unit_uncurried">
<ellipse fill="#f070d1" stroke="black" cx="305" cy="-57.66" rx="104.78" ry="18"/>
<text text-anchor="middle" x="305" y="-53.96" font-family="Times,serif" font-size="14.00">path_unit_uncurried</text>
</a>
</g>
</g>
<!-- Unit_isequiv_path_unit&#45;&gt;Unit_path_unit_uncurried -->
<g id="edge9" class="edge">
<title>Unit_isequiv_path_unit&#45;&gt;Unit_path_unit_uncurried</title>
<path fill="none" stroke="black" d="M134.57,-163.35C169.38,-141.97 230.54,-104.4 269.35,-80.56"/>
<polygon fill="black" stroke="black" points="271.53,-83.33 278.22,-75.11 267.87,-77.36 271.53,-83.33"/>
</g>
<!-- Unit_eta_path_unit -->
<g id="node13" class="node">
<title>Unit_eta_path_unit</title>
<g id="a_node13"><a xlink:href="Unit.html#eta_path_unit" xlink:title="eta_path_unit">
<ellipse fill="#f070d1" stroke="black" cx="489" cy="-317.66" rx="73.39" ry="18"/>
<ellipse fill="none" stroke="black" cx="489" cy="-317.66" rx="77.39" ry="22"/>
<ellipse fill="none" stroke="black" cx="489" cy="-317.66" rx="81.39" ry="26"/>
<text text-anchor="middle" x="489" y="-313.96" font-family="Times,serif" font-size="14.00">eta_path_unit</text>
</a>
</g>
</g>
<!-- Unit_eta_path_unit&#45;&gt;Unit_path_unit -->
<g id="edge10" class="edge">
<title>Unit_eta_path_unit&#45;&gt;Unit_path_unit</title>
<path fill="none" stroke="black" d="M507.47,-292.22C525.86,-267.88 553.92,-230.74 572.36,-206.33"/>
<polygon fill="black" stroke="black" points="575.22,-208.36 578.45,-198.27 569.63,-204.14 575.22,-208.36"/>
</g>
<!-- Unit_path_unit&#45;&gt;Unit_path_unit_uncurried -->
<g id="edge11" class="edge">
<title>Unit_path_unit&#45;&gt;Unit_path_unit_uncurried</title>
<path fill="none" stroke="black" d="M558.75,-166.02C508.24,-144.65 410.23,-103.18 351.91,-78.51"/>
<polygon fill="black" stroke="black" points="353.13,-75.22 342.55,-74.55 350.4,-81.67 353.13,-75.22"/>
</g>
<!-- Unit_eta_unit -->
<g id="node16" class="node">
<title>Unit_eta_unit</title>
<g id="a_node16"><a xlink:href="Unit.html#eta_unit" xlink:title="eta_unit">
<ellipse fill="#f070d1" stroke="black" cx="108" cy="-467.66" rx="48.18" ry="18"/>
<ellipse fill="none" stroke="black" cx="108" cy="-467.66" rx="52.18" ry="22"/>
<ellipse fill="none" stroke="black" cx="108" cy="-467.66" rx="56.19" ry="26"/>
<text text-anchor="middle" x="108" y="-463.96" font-family="Times,serif" font-size="14.00">eta_unit</text>
</a>
</g>
</g>
</g>
</svg>
