<?xml version="1.0" encoding="UTF-8" standalone="no"?>
<!DOCTYPE svg PUBLIC "-//W3C//DTD SVG 1.1//EN"
 "http://www.w3.org/Graphics/SVG/1.1/DTD/svg11.dtd">
<!-- Generated by graphviz version 2.43.0 (0)
 -->
<!-- Title: HoTT_Pointed_pMap Pages: 1 -->
<svg width="1926pt" height="967pt"
 viewBox="0.00 0.00 1926.00 967.00" xmlns="http://www.w3.org/2000/svg" xmlns:xlink="http://www.w3.org/1999/xlink">
<g id="graph0" class="graph" transform="scale(1 1) rotate(0) translate(4 963)">
<title>HoTT_Pointed_pMap</title>
<polygon fill="white" stroke="transparent" points="-4,4 -4,-963 1922,-963 1922,4 -4,4"/>
<g id="clust1" class="cluster">
<title>cluster_pMap</title>
<polygon fill="#ffffc3" stroke="black" points="8,-17.97 8,-941.03 1910,-941.03 1910,-17.97 8,-17.97"/>
<text text-anchor="middle" x="36.5" y="-925.83" font-family="Times,serif" font-size="14.00">pMap</text>
</g>
<!-- pMap_pmap_compose_ppforall_path_pforall -->
<g id="node1" class="node">
<title>pMap_pmap_compose_ppforall_path_pforall</title>
<g id="a_node1"><a xlink:href="pMap.html#pmap_compose_ppforall_path_pforall" xlink:title="pmap_compose_ppforall_path_pforall">
<ellipse fill="#f070d1" stroke="black" cx="1711" cy="-812.97" rx="181.97" ry="18"/>
<ellipse fill="none" stroke="black" cx="1711" cy="-812.97" rx="185.97" ry="22"/>
<ellipse fill="none" stroke="black" cx="1711" cy="-812.97" rx="189.97" ry="26"/>
<text text-anchor="middle" x="1711" y="-809.27" font-family="Times,serif" font-size="14.00">pmap_compose_ppforall_path_pforall</text>
</a>
</g>
</g>
<!-- pMap_pmap_compose_ppforall2_refl -->
<g id="node3" class="node">
<title>pMap_pmap_compose_ppforall2_refl</title>
<g id="a_node3"><a xlink:href="pMap.html#pmap_compose_ppforall2_refl" xlink:title="pmap_compose_ppforall2_refl">
<ellipse fill="#f070d1" stroke="black" cx="1722" cy="-614.97" rx="147.57" ry="18"/>
<text text-anchor="middle" x="1722" y="-611.27" font-family="Times,serif" font-size="14.00">pmap_compose_ppforall2_refl</text>
</a>
</g>
</g>
<!-- pMap_pmap_compose_ppforall_path_pforall&#45;&gt;pMap_pmap_compose_ppforall2_refl -->
<g id="edge1" class="edge">
<title>pMap_pmap_compose_ppforall_path_pforall&#45;&gt;pMap_pmap_compose_ppforall2_refl</title>
<path fill="none" stroke="black" d="M1712.42,-786.74C1714.49,-749.86 1718.32,-681.45 1720.46,-643.37"/>
<polygon fill="black" stroke="black" points="1723.98,-643.21 1721.04,-633.03 1716.99,-642.82 1723.98,-643.21"/>
</g>
<!-- pMap_pmap_compose_ppforall2_right -->
<g id="node4" class="node">
<title>pMap_pmap_compose_ppforall2_right</title>
<g id="a_node4"><a xlink:href="pMap.html#pmap_compose_ppforall2_right" xlink:title="pmap_compose_ppforall2_right">
<ellipse fill="#f070d1" stroke="black" cx="1401" cy="-614.97" rx="155.17" ry="18"/>
<text text-anchor="middle" x="1401" y="-611.27" font-family="Times,serif" font-size="14.00">pmap_compose_ppforall2_right</text>
</a>
</g>
</g>
<!-- pMap_pmap_compose_ppforall_path_pforall&#45;&gt;pMap_pmap_compose_ppforall2_right -->
<g id="edge2" class="edge">
<title>pMap_pmap_compose_ppforall_path_pforall&#45;&gt;pMap_pmap_compose_ppforall2_right</title>
<path fill="none" stroke="black" d="M1672.05,-787.34C1611.26,-748.91 1494.76,-675.25 1436.29,-638.28"/>
<polygon fill="black" stroke="black" points="1438.09,-635.27 1427.76,-632.89 1434.35,-641.19 1438.09,-635.27"/>
</g>
<!-- pMap_pmap_compose_ppforall_pid_left -->
<g id="node2" class="node">
<title>pMap_pmap_compose_ppforall_pid_left</title>
<g id="a_node2"><a xlink:href="pMap.html#pmap_compose_ppforall_pid_left" xlink:title="pmap_compose_ppforall_pid_left">
<ellipse fill="#f070d1" stroke="black" cx="887" cy="-417.97" rx="161.36" ry="18"/>
<ellipse fill="none" stroke="black" cx="887" cy="-417.97" rx="165.37" ry="22"/>
<ellipse fill="none" stroke="black" cx="887" cy="-417.97" rx="169.37" ry="26"/>
<text text-anchor="middle" x="887" y="-414.27" font-family="Times,serif" font-size="14.00">pmap_compose_ppforall_pid_left</text>
</a>
</g>
</g>
<!-- pMap_pmap_compose_ppforall -->
<g id="node9" class="node">
<title>pMap_pmap_compose_ppforall</title>
<g id="a_node9"><a xlink:href="pMap.html#pmap_compose_ppforall" xlink:title="pmap_compose_ppforall">
<ellipse fill="#f070d1" stroke="black" cx="887" cy="-237.97" rx="122.38" ry="18"/>
<text text-anchor="middle" x="887" y="-234.27" font-family="Times,serif" font-size="14.00">pmap_compose_ppforall</text>
</a>
</g>
</g>
<!-- pMap_pmap_compose_ppforall_pid_left&#45;&gt;pMap_pmap_compose_ppforall -->
<g id="edge3" class="edge">
<title>pMap_pmap_compose_ppforall_pid_left&#45;&gt;pMap_pmap_compose_ppforall</title>
<path fill="none" stroke="black" d="M887,-391.84C887,-358.72 887,-300.66 887,-266.42"/>
<polygon fill="black" stroke="black" points="890.5,-266.2 887,-256.2 883.5,-266.2 890.5,-266.2"/>
</g>
<!-- pMap_pmap_compose_ppforall2 -->
<g id="node6" class="node">
<title>pMap_pmap_compose_ppforall2</title>
<g id="a_node6"><a xlink:href="pMap.html#pmap_compose_ppforall2" xlink:title="pmap_compose_ppforall2">
<ellipse fill="#f070d1" stroke="black" cx="1202" cy="-417.97" rx="128.08" ry="18"/>
<text text-anchor="middle" x="1202" y="-414.27" font-family="Times,serif" font-size="14.00">pmap_compose_ppforall2</text>
</a>
</g>
</g>
<!-- pMap_pmap_compose_ppforall2_refl&#45;&gt;pMap_pmap_compose_ppforall2 -->
<g id="edge4" class="edge">
<title>pMap_pmap_compose_ppforall2_refl&#45;&gt;pMap_pmap_compose_ppforall2</title>
<path fill="none" stroke="black" d="M1678.56,-597.68C1583.5,-562.03 1357.34,-477.22 1254.51,-438.66"/>
<polygon fill="black" stroke="black" points="1255.54,-435.31 1244.95,-435.07 1253.09,-441.86 1255.54,-435.31"/>
</g>
<!-- pMap_functor2_pforall_right_refl -->
<g id="node10" class="node">
<title>pMap_functor2_pforall_right_refl</title>
<g id="a_node10"><a xlink:href="pMap.html#functor2_pforall_right_refl" xlink:title="functor2_pforall_right_refl">
<ellipse fill="#f070d1" stroke="black" cx="1480" cy="-417.97" rx="131.88" ry="18"/>
<text text-anchor="middle" x="1480" y="-414.27" font-family="Times,serif" font-size="14.00">functor2_pforall_right_refl</text>
</a>
</g>
</g>
<!-- pMap_pmap_compose_ppforall2_refl&#45;&gt;pMap_functor2_pforall_right_refl -->
<g id="edge5" class="edge">
<title>pMap_pmap_compose_ppforall2_refl&#45;&gt;pMap_functor2_pforall_right_refl</title>
<path fill="none" stroke="black" d="M1700.95,-597C1657.57,-562.05 1558.2,-481.98 1508.87,-442.23"/>
<polygon fill="black" stroke="black" points="1510.81,-439.3 1500.83,-435.75 1506.42,-444.75 1510.81,-439.3"/>
</g>
<!-- pMap_fiberwise_pointed_map_rec -->
<g id="node14" class="node">
<title>pMap_fiberwise_pointed_map_rec</title>
<g id="a_node14"><a xlink:href="pMap.html#fiberwise_pointed_map_rec" xlink:title="fiberwise_pointed_map_rec">
<ellipse fill="#f070d1" stroke="black" cx="1766" cy="-417.97" rx="135.68" ry="18"/>
<text text-anchor="middle" x="1766" y="-414.27" font-family="Times,serif" font-size="14.00">fiberwise_pointed_map_rec</text>
</a>
</g>
</g>
<!-- pMap_pmap_compose_ppforall2_refl&#45;&gt;pMap_fiberwise_pointed_map_rec -->
<g id="edge6" class="edge">
<title>pMap_pmap_compose_ppforall2_refl&#45;&gt;pMap_fiberwise_pointed_map_rec</title>
<path fill="none" stroke="black" d="M1725.9,-596.66C1733.59,-562.62 1750.71,-486.73 1759.9,-446.02"/>
<polygon fill="black" stroke="black" points="1763.32,-446.76 1762.1,-436.23 1756.49,-445.22 1763.32,-446.76"/>
</g>
<!-- pMap_pmap_compose_ppforall2_right&#45;&gt;pMap_pmap_compose_ppforall2 -->
<g id="edge7" class="edge">
<title>pMap_pmap_compose_ppforall2_right&#45;&gt;pMap_pmap_compose_ppforall2</title>
<path fill="none" stroke="black" d="M1383.69,-597C1348.33,-562.36 1267.72,-483.37 1226.81,-443.28"/>
<polygon fill="black" stroke="black" points="1229.01,-440.53 1219.41,-436.03 1224.11,-445.53 1229.01,-440.53"/>
</g>
<!-- pMap_pmap_compose_ppforall2_left -->
<g id="node5" class="node">
<title>pMap_pmap_compose_ppforall2_left</title>
<g id="a_node5"><a xlink:href="pMap.html#pmap_compose_ppforall2_left" xlink:title="pmap_compose_ppforall2_left">
<ellipse fill="#f070d1" stroke="black" cx="1072" cy="-614.97" rx="147.57" ry="18"/>
<ellipse fill="none" stroke="black" cx="1072" cy="-614.97" rx="151.57" ry="22"/>
<ellipse fill="none" stroke="black" cx="1072" cy="-614.97" rx="155.57" ry="26"/>
<text text-anchor="middle" x="1072" y="-611.27" font-family="Times,serif" font-size="14.00">pmap_compose_ppforall2_left</text>
</a>
</g>
</g>
<!-- pMap_pmap_compose_ppforall2_left&#45;&gt;pMap_pmap_compose_ppforall2 -->
<g id="edge8" class="edge">
<title>pMap_pmap_compose_ppforall2_left&#45;&gt;pMap_pmap_compose_ppforall2</title>
<path fill="none" stroke="black" d="M1088.73,-588.87C1113.62,-551.54 1160.13,-481.77 1185.11,-444.3"/>
<polygon fill="black" stroke="black" points="1188.05,-446.21 1190.68,-435.95 1182.22,-442.33 1188.05,-446.21"/>
</g>
<!-- pMap_pmap_compose_ppforall2&#45;&gt;pMap_pmap_compose_ppforall -->
<g id="edge9" class="edge">
<title>pMap_pmap_compose_ppforall2&#45;&gt;pMap_pmap_compose_ppforall</title>
<path fill="none" stroke="black" d="M1172.65,-400.38C1115.44,-368.05 989.05,-296.63 925.32,-260.62"/>
<polygon fill="black" stroke="black" points="926.82,-257.45 916.39,-255.58 923.38,-263.54 926.82,-257.45"/>
</g>
<!-- pMap_functor2_pforall_right -->
<g id="node11" class="node">
<title>pMap_functor2_pforall_right</title>
<g id="a_node11"><a xlink:href="pMap.html#functor2_pforall_right" xlink:title="functor2_pforall_right">
<ellipse fill="#f070d1" stroke="black" cx="1202" cy="-237.97" rx="112.38" ry="18"/>
<text text-anchor="middle" x="1202" y="-234.27" font-family="Times,serif" font-size="14.00">functor2_pforall_right</text>
</a>
</g>
</g>
<!-- pMap_pmap_compose_ppforall2&#45;&gt;pMap_functor2_pforall_right -->
<g id="edge10" class="edge">
<title>pMap_pmap_compose_ppforall2&#45;&gt;pMap_functor2_pforall_right</title>
<path fill="none" stroke="black" d="M1202,-399.9C1202,-368.93 1202,-303.27 1202,-266.1"/>
<polygon fill="black" stroke="black" points="1205.5,-265.98 1202,-255.98 1198.5,-265.98 1205.5,-265.98"/>
</g>
<!-- pMap_pmap_compose_ppforall_compose -->
<g id="node7" class="node">
<title>pMap_pmap_compose_ppforall_compose</title>
<g id="a_node7"><a xlink:href="pMap.html#pmap_compose_ppforall_compose" xlink:title="pmap_compose_ppforall_compose">
<ellipse fill="#f070d1" stroke="black" cx="525" cy="-417.97" rx="167.07" ry="18"/>
<ellipse fill="none" stroke="black" cx="525" cy="-417.97" rx="171.07" ry="22"/>
<ellipse fill="none" stroke="black" cx="525" cy="-417.97" rx="175.07" ry="26"/>
<text text-anchor="middle" x="525" y="-414.27" font-family="Times,serif" font-size="14.00">pmap_compose_ppforall_compose</text>
</a>
</g>
</g>
<!-- pMap_pmap_compose_ppforall_compose&#45;&gt;pMap_pmap_compose_ppforall -->
<g id="edge11" class="edge">
<title>pMap_pmap_compose_ppforall_compose&#45;&gt;pMap_pmap_compose_ppforall</title>
<path fill="none" stroke="black" d="M573.82,-392.96C645.15,-357.89 776.71,-293.2 844.36,-259.93"/>
<polygon fill="black" stroke="black" points="846.04,-263.01 853.47,-255.45 842.95,-256.73 846.04,-263.01"/>
</g>
<!-- pMap_pmap_compose_ppforall_point -->
<g id="node8" class="node">
<title>pMap_pmap_compose_ppforall_point</title>
<g id="a_node8"><a xlink:href="pMap.html#pmap_compose_ppforall_point" xlink:title="pmap_compose_ppforall_point">
<ellipse fill="#f070d1" stroke="black" cx="174" cy="-417.97" rx="150.27" ry="18"/>
<ellipse fill="none" stroke="black" cx="174" cy="-417.97" rx="154.27" ry="22"/>
<ellipse fill="none" stroke="black" cx="174" cy="-417.97" rx="158.27" ry="26"/>
<text text-anchor="middle" x="174" y="-414.27" font-family="Times,serif" font-size="14.00">pmap_compose_ppforall_point</text>
</a>
</g>
</g>
<!-- pMap_pmap_compose_ppforall_point&#45;&gt;pMap_pmap_compose_ppforall -->
<g id="edge12" class="edge">
<title>pMap_pmap_compose_ppforall_point&#45;&gt;pMap_pmap_compose_ppforall</title>
<path fill="none" stroke="black" d="M258.24,-395.94C400.64,-360.39 686.26,-289.08 817.79,-256.25"/>
<polygon fill="black" stroke="black" points="818.9,-259.58 827.75,-253.76 817.2,-252.79 818.9,-259.58"/>
</g>
<!-- pMap_functor_pforall_right -->
<g id="node12" class="node">
<title>pMap_functor_pforall_right</title>
<g id="a_node12"><a xlink:href="pMap.html#functor_pforall_right" xlink:title="functor_pforall_right">
<ellipse fill="#f070d1" stroke="black" cx="1044" cy="-75.97" rx="106.68" ry="18"/>
<text text-anchor="middle" x="1044" y="-72.27" font-family="Times,serif" font-size="14.00">functor_pforall_right</text>
</a>
</g>
</g>
<!-- pMap_pmap_compose_ppforall&#45;&gt;pMap_functor_pforall_right -->
<g id="edge13" class="edge">
<title>pMap_pmap_compose_ppforall&#45;&gt;pMap_functor_pforall_right</title>
<path fill="none" stroke="black" d="M903.8,-219.84C931.78,-191.33 987.99,-134.04 1020.09,-101.33"/>
<polygon fill="black" stroke="black" points="1022.81,-103.56 1027.32,-93.97 1017.82,-98.65 1022.81,-103.56"/>
</g>
<!-- pMap_functor2_pforall_right_refl&#45;&gt;pMap_functor2_pforall_right -->
<g id="edge14" class="edge">
<title>pMap_functor2_pforall_right_refl&#45;&gt;pMap_functor2_pforall_right</title>
<path fill="none" stroke="black" d="M1453.85,-400.22C1403.42,-367.94 1292.78,-297.09 1236.44,-261.02"/>
<polygon fill="black" stroke="black" points="1238.19,-257.98 1227.88,-255.54 1234.42,-263.88 1238.19,-257.98"/>
</g>
<!-- pMap_functor2_pforall_right&#45;&gt;pMap_functor_pforall_right -->
<g id="edge15" class="edge">
<title>pMap_functor2_pforall_right&#45;&gt;pMap_functor_pforall_right</title>
<path fill="none" stroke="black" d="M1185.39,-220.15C1157.37,-191.77 1100.6,-134.29 1068.17,-101.44"/>
<polygon fill="black" stroke="black" points="1070.38,-98.7 1060.86,-94.04 1065.4,-103.62 1070.38,-98.7"/>
</g>
<!-- pMap_Build_pHomotopy_pForall -->
<g id="node13" class="node">
<title>pMap_Build_pHomotopy_pForall</title>
<g id="a_node13"><a xlink:href="pMap.html#Build_pHomotopy_pForall" xlink:title="Build_pHomotopy_pForall">
<ellipse fill="#f070d1" stroke="black" cx="1364" cy="-812.97" rx="129.98" ry="18"/>
<ellipse fill="none" stroke="black" cx="1364" cy="-812.97" rx="133.98" ry="22"/>
<ellipse fill="none" stroke="black" cx="1364" cy="-812.97" rx="137.98" ry="26"/>
<text text-anchor="middle" x="1364" y="-809.27" font-family="Times,serif" font-size="14.00">Build_pHomotopy_pForall</text>
</a>
</g>
</g>
<!-- pMap_pmap_from_pointed -->
<g id="node20" class="node">
<title>pMap_pmap_from_pointed</title>
<g id="a_node20"><a xlink:href="pMap.html#pmap_from_pointed" xlink:title="pmap_from_pointed">
<ellipse fill="#f070d1" stroke="black" cx="1766" cy="-237.97" rx="102.88" ry="18"/>
<text text-anchor="middle" x="1766" y="-234.27" font-family="Times,serif" font-size="14.00">pmap_from_pointed</text>
</a>
</g>
</g>
<!-- pMap_fiberwise_pointed_map_rec&#45;&gt;pMap_pmap_from_pointed -->
<g id="edge16" class="edge">
<title>pMap_fiberwise_pointed_map_rec&#45;&gt;pMap_pmap_from_pointed</title>
<path fill="none" stroke="black" d="M1766,-399.9C1766,-368.93 1766,-303.27 1766,-266.1"/>
<polygon fill="black" stroke="black" points="1769.5,-265.98 1766,-255.98 1762.5,-265.98 1769.5,-265.98"/>
</g>
<!-- pMap_equiv_inverse_path_pmap_1 -->
<g id="node15" class="node">
<title>pMap_equiv_inverse_path_pmap_1</title>
<g id="a_node15"><a xlink:href="pMap.html#equiv_inverse_path_pmap_1" xlink:title="equiv_inverse_path_pmap_1">
<ellipse fill="#f070d1" stroke="black" cx="1059" cy="-812.97" rx="140.28" ry="18"/>
<ellipse fill="none" stroke="black" cx="1059" cy="-812.97" rx="144.28" ry="22"/>
<ellipse fill="none" stroke="black" cx="1059" cy="-812.97" rx="148.28" ry="26"/>
<text text-anchor="middle" x="1059" y="-809.27" font-family="Times,serif" font-size="14.00">equiv_inverse_path_pmap_1</text>
</a>
</g>
</g>
<!-- pMap_pconst_factor -->
<g id="node16" class="node">
<title>pMap_pconst_factor</title>
<g id="a_node16"><a xlink:href="pMap.html#pconst_factor" xlink:title="pconst_factor">
<ellipse fill="#f070d1" stroke="black" cx="808" cy="-812.97" rx="73.39" ry="18"/>
<ellipse fill="none" stroke="black" cx="808" cy="-812.97" rx="77.39" ry="22"/>
<ellipse fill="none" stroke="black" cx="808" cy="-812.97" rx="81.39" ry="26"/>
<text text-anchor="middle" x="808" y="-809.27" font-family="Times,serif" font-size="14.00">pconst_factor</text>
</a>
</g>
</g>
<!-- pMap_precompose_pconst -->
<g id="node18" class="node">
<title>pMap_precompose_pconst</title>
<g id="a_node18"><a xlink:href="pMap.html#precompose_pconst" xlink:title="precompose_pconst">
<ellipse fill="#f070d1" stroke="black" cx="796" cy="-614.97" rx="102.08" ry="18"/>
<text text-anchor="middle" x="796" y="-611.27" font-family="Times,serif" font-size="14.00">precompose_pconst</text>
</a>
</g>
</g>
<!-- pMap_pconst_factor&#45;&gt;pMap_precompose_pconst -->
<g id="edge17" class="edge">
<title>pMap_pconst_factor&#45;&gt;pMap_precompose_pconst</title>
<path fill="none" stroke="black" d="M806.46,-786.74C804.2,-749.86 800.01,-681.45 797.68,-643.37"/>
<polygon fill="black" stroke="black" points="801.15,-642.8 797.04,-633.03 794.16,-643.23 801.15,-642.8"/>
</g>
<!-- pMap_postcompose_pconst -->
<g id="node17" class="node">
<title>pMap_postcompose_pconst</title>
<g id="a_node17"><a xlink:href="pMap.html#postcompose_pconst" xlink:title="postcompose_pconst">
<ellipse fill="#f070d1" stroke="black" cx="594" cy="-812.97" rx="106.67" ry="18"/>
<ellipse fill="none" stroke="black" cx="594" cy="-812.97" rx="110.68" ry="22"/>
<ellipse fill="none" stroke="black" cx="594" cy="-812.97" rx="114.68" ry="26"/>
<text text-anchor="middle" x="594" y="-809.27" font-family="Times,serif" font-size="14.00">postcompose_pconst</text>
</a>
</g>
</g>
<!-- pMap_pforall_from_pointed -->
<g id="node19" class="node">
<title>pMap_pforall_from_pointed</title>
<g id="a_node19"><a xlink:href="pMap.html#pforall_from_pointed" xlink:title="pforall_from_pointed">
<ellipse fill="#f070d1" stroke="black" cx="347" cy="-812.97" rx="106.67" ry="18"/>
<ellipse fill="none" stroke="black" cx="347" cy="-812.97" rx="110.68" ry="22"/>
<ellipse fill="none" stroke="black" cx="347" cy="-812.97" rx="114.68" ry="26"/>
<text text-anchor="middle" x="347" y="-809.27" font-family="Times,serif" font-size="14.00">pforall_from_pointed</text>
</a>
</g>
</g>
<!-- pMap_pmap_from_point -->
<g id="node21" class="node">
<title>pMap_pmap_from_point</title>
<g id="a_node21"><a xlink:href="pMap.html#pmap_from_point" xlink:title="pmap_from_point">
<ellipse fill="#f070d1" stroke="black" cx="115" cy="-812.97" rx="90.98" ry="18"/>
<ellipse fill="none" stroke="black" cx="115" cy="-812.97" rx="94.98" ry="22"/>
<ellipse fill="none" stroke="black" cx="115" cy="-812.97" rx="98.98" ry="26"/>
<text text-anchor="middle" x="115" y="-809.27" font-family="Times,serif" font-size="14.00">pmap_from_point</text>
</a>
</g>
</g>
</g>
</svg>
