<?xml version="1.0" encoding="UTF-8" standalone="no"?>
<!DOCTYPE svg PUBLIC "-//W3C//DTD SVG 1.1//EN"
 "http://www.w3.org/Graphics/SVG/1.1/DTD/svg11.dtd">
<!-- Generated by graphviz version 2.43.0 (0)
 -->
<!-- Title: HoTT_WildCat_Opposite Pages: 1 -->
<svg width="1038pt" height="523pt"
 viewBox="0.00 0.00 1038.00 523.00" xmlns="http://www.w3.org/2000/svg" xmlns:xlink="http://www.w3.org/1999/xlink">
<g id="graph0" class="graph" transform="scale(1 1) rotate(0) translate(4 519)">
<title>HoTT_WildCat_Opposite</title>
<polygon fill="white" stroke="transparent" points="-4,4 -4,-519 1034,-519 1034,4 -4,4"/>
<g id="clust1" class="cluster">
<title>cluster_Opposite</title>
<polygon fill="#ffffc3" stroke="black" points="9.17,-8 9.17,-507 1020.83,-507 1020.83,-8 9.17,-8"/>
<text text-anchor="middle" x="49.17" y="-491.8" font-family="Times,serif" font-size="14.00">Opposite</text>
</g>
<!-- Opposite_hasmorext_op -->
<g id="node1" class="node">
<title>Opposite_hasmorext_op</title>
<g id="a_node1"><a xlink:href="Opposite.html#hasmorext_op" xlink:title="hasmorext_op">
<ellipse fill="#f070d1" stroke="black" cx="916.68" cy="-362" rx="75.3" ry="18"/>
<ellipse fill="none" stroke="black" cx="916.68" cy="-362" rx="79.29" ry="22"/>
<ellipse fill="none" stroke="black" cx="916.68" cy="-362" rx="83.29" ry="26"/>
<text text-anchor="middle" x="916.68" y="-358.3" font-family="Times,serif" font-size="14.00">hasmorext_op</text>
</a>
</g>
</g>
<!-- Opposite_is1cat_op -->
<g id="node11" class="node">
<title>Opposite_is1cat_op</title>
<g id="a_node11"><a xlink:href="Opposite.html#is1cat_op" xlink:title="is1cat_op">
<ellipse fill="#f070d1" stroke="black" cx="501.68" cy="-274" rx="53.89" ry="18"/>
<text text-anchor="middle" x="501.68" y="-270.3" font-family="Times,serif" font-size="14.00">is1cat_op</text>
</a>
</g>
</g>
<!-- Opposite_hasmorext_op&#45;&gt;Opposite_is1cat_op -->
<g id="edge1" class="edge">
<title>Opposite_hasmorext_op&#45;&gt;Opposite_is1cat_op</title>
<path fill="none" stroke="black" d="M849.57,-346.56C833.25,-343.07 815.84,-339.38 799.68,-336 714.9,-318.27 616.43,-298.22 556.62,-286.1"/>
<polygon fill="black" stroke="black" points="557.13,-282.63 546.63,-284.08 555.74,-289.49 557.13,-282.63"/>
</g>
<!-- Opposite_isequivs_op -->
<g id="node2" class="node">
<title>Opposite_isequivs_op</title>
<g id="a_node2"><a xlink:href="Opposite.html#isequivs_op" xlink:title="isequivs_op">
<ellipse fill="#f070d1" stroke="black" cx="717.68" cy="-450" rx="64.21" ry="18"/>
<ellipse fill="none" stroke="black" cx="717.68" cy="-450" rx="68.2" ry="22"/>
<ellipse fill="none" stroke="black" cx="717.68" cy="-450" rx="72.19" ry="26"/>
<text text-anchor="middle" x="717.68" y="-446.3" font-family="Times,serif" font-size="14.00">isequivs_op</text>
</a>
</g>
</g>
<!-- Opposite_hasequivs_op -->
<g id="node3" class="node">
<title>Opposite_hasequivs_op</title>
<g id="a_node3"><a xlink:href="Opposite.html#hasequivs_op" xlink:title="hasequivs_op">
<ellipse fill="#f070d1" stroke="black" cx="717.68" cy="-362" rx="72.59" ry="18"/>
<text text-anchor="middle" x="717.68" y="-358.3" font-family="Times,serif" font-size="14.00">hasequivs_op</text>
</a>
</g>
</g>
<!-- Opposite_isequivs_op&#45;&gt;Opposite_hasequivs_op -->
<g id="edge2" class="edge">
<title>Opposite_isequivs_op&#45;&gt;Opposite_hasequivs_op</title>
<path fill="none" stroke="black" d="M717.68,-423.66C717.68,-413.11 717.68,-400.84 717.68,-390.1"/>
<polygon fill="black" stroke="black" points="721.18,-390 717.68,-380 714.18,-390 721.18,-390"/>
</g>
<!-- Opposite_hasequivs_op&#45;&gt;Opposite_is1cat_op -->
<g id="edge3" class="edge">
<title>Opposite_hasequivs_op&#45;&gt;Opposite_is1cat_op</title>
<path fill="none" stroke="black" d="M681.04,-346.41C643.23,-331.36 584.31,-307.9 544.41,-292.01"/>
<polygon fill="black" stroke="black" points="545.53,-288.69 534.95,-288.25 542.94,-295.2 545.53,-288.69"/>
</g>
<!-- Opposite_is1nat_op -->
<g id="node4" class="node">
<title>Opposite_is1nat_op</title>
<g id="a_node4"><a xlink:href="Opposite.html#is1nat_op" xlink:title="is1nat_op">
<ellipse fill="#f070d1" stroke="black" cx="90.68" cy="-362" rx="55.46" ry="18"/>
<ellipse fill="none" stroke="black" cx="90.68" cy="-362" rx="59.48" ry="22"/>
<ellipse fill="none" stroke="black" cx="90.68" cy="-362" rx="63.49" ry="26"/>
<text text-anchor="middle" x="90.68" y="-358.3" font-family="Times,serif" font-size="14.00">is1nat_op</text>
</a>
</g>
</g>
<!-- Opposite_transformation_op -->
<g id="node5" class="node">
<title>Opposite_transformation_op</title>
<g id="a_node5"><a xlink:href="Opposite.html#transformation_op" xlink:title="transformation_op">
<ellipse fill="#f070d1" stroke="black" cx="579.68" cy="-186" rx="96.38" ry="18"/>
<text text-anchor="middle" x="579.68" y="-182.3" font-family="Times,serif" font-size="14.00">transformation_op</text>
</a>
</g>
</g>
<!-- Opposite_is1nat_op&#45;&gt;Opposite_transformation_op -->
<g id="edge4" class="edge">
<title>Opposite_is1nat_op&#45;&gt;Opposite_transformation_op</title>
<path fill="none" stroke="black" d="M142.68,-347.16C157.21,-343.42 173.03,-339.44 187.68,-336 262.43,-318.41 285.58,-329.02 356.68,-300 396.63,-283.69 400.53,-268.19 438.68,-248 468.2,-232.38 502.58,-217.44 530,-206.26"/>
<polygon fill="black" stroke="black" points="531.43,-209.46 539.39,-202.47 528.81,-202.97 531.43,-209.46"/>
</g>
<!-- Opposite_is0functor_op -->
<g id="node7" class="node">
<title>Opposite_is0functor_op</title>
<g id="a_node7"><a xlink:href="Opposite.html#is0functor_op" xlink:title="is0functor_op">
<ellipse fill="#f070d1" stroke="black" cx="101.68" cy="-274" rx="73.39" ry="18"/>
<text text-anchor="middle" x="101.68" y="-270.3" font-family="Times,serif" font-size="14.00">is0functor_op</text>
</a>
</g>
</g>
<!-- Opposite_is1nat_op&#45;&gt;Opposite_is0functor_op -->
<g id="edge5" class="edge">
<title>Opposite_is1nat_op&#45;&gt;Opposite_is0functor_op</title>
<path fill="none" stroke="black" d="M93.92,-335.66C95.27,-325.11 96.84,-312.84 98.21,-302.1"/>
<polygon fill="black" stroke="black" points="101.71,-302.37 99.5,-292 94.76,-301.48 101.71,-302.37"/>
</g>
<!-- Opposite_is1nat_op&#45;&gt;Opposite_is1cat_op -->
<g id="edge6" class="edge">
<title>Opposite_is1nat_op&#45;&gt;Opposite_is1cat_op</title>
<path fill="none" stroke="black" d="M142.33,-346.8C156.93,-343.03 172.88,-339.13 187.68,-336 282.89,-315.84 308.44,-320.05 403.68,-300 419.32,-296.71 436.24,-292.59 451.54,-288.66"/>
<polygon fill="black" stroke="black" points="452.53,-292.02 461.33,-286.11 450.77,-285.24 452.53,-292.02"/>
</g>
<!-- Opposite_isgraph_op -->
<g id="node14" class="node">
<title>Opposite_isgraph_op</title>
<g id="a_node14"><a xlink:href="Opposite.html#isgraph_op" xlink:title="isgraph_op">
<ellipse fill="#f070d1" stroke="black" cx="365.68" cy="-106" rx="61.99" ry="18"/>
<text text-anchor="middle" x="365.68" y="-102.3" font-family="Times,serif" font-size="14.00">isgraph_op</text>
</a>
</g>
</g>
<!-- Opposite_transformation_op&#45;&gt;Opposite_isgraph_op -->
<g id="edge7" class="edge">
<title>Opposite_transformation_op&#45;&gt;Opposite_isgraph_op</title>
<path fill="none" stroke="black" d="M537.91,-169.78C501.84,-156.63 449.79,-137.66 412.36,-124.01"/>
<polygon fill="black" stroke="black" points="413.29,-120.63 402.7,-120.49 410.89,-127.21 413.29,-120.63"/>
</g>
<!-- Opposite_is1functor_op -->
<g id="node6" class="node">
<title>Opposite_is1functor_op</title>
<g id="a_node6"><a xlink:href="Opposite.html#is1functor_op" xlink:title="is1functor_op">
<ellipse fill="#f070d1" stroke="black" cx="277.68" cy="-362" rx="73.39" ry="18"/>
<ellipse fill="none" stroke="black" cx="277.68" cy="-362" rx="77.39" ry="22"/>
<ellipse fill="none" stroke="black" cx="277.68" cy="-362" rx="81.39" ry="26"/>
<text text-anchor="middle" x="277.68" y="-358.3" font-family="Times,serif" font-size="14.00">is1functor_op</text>
</a>
</g>
</g>
<!-- Opposite_is1functor_op&#45;&gt;Opposite_is0functor_op -->
<g id="edge8" class="edge">
<title>Opposite_is1functor_op&#45;&gt;Opposite_is0functor_op</title>
<path fill="none" stroke="black" d="M234.17,-339.74C206.13,-326.04 169.9,-308.33 142.41,-294.91"/>
<polygon fill="black" stroke="black" points="143.61,-291.59 133.09,-290.35 140.53,-297.88 143.61,-291.59"/>
</g>
<!-- Opposite_is1functor_op&#45;&gt;Opposite_is1cat_op -->
<g id="edge9" class="edge">
<title>Opposite_is1functor_op&#45;&gt;Opposite_is1cat_op</title>
<path fill="none" stroke="black" d="M328.23,-341.59C367.32,-326.59 420.87,-306.02 458.09,-291.74"/>
<polygon fill="black" stroke="black" points="459.57,-294.92 467.65,-288.06 457.06,-288.38 459.57,-294.92"/>
</g>
<!-- Opposite_is0functor_op&#45;&gt;Opposite_isgraph_op -->
<g id="edge10" class="edge">
<title>Opposite_is0functor_op&#45;&gt;Opposite_isgraph_op</title>
<path fill="none" stroke="black" d="M99.7,-255.84C97.87,-231.14 98.54,-185.73 123.68,-160 147.52,-135.59 234.77,-121.08 297.67,-113.57"/>
<polygon fill="black" stroke="black" points="298.4,-117.01 307.93,-112.38 297.6,-110.06 298.4,-117.01"/>
</g>
<!-- Opposite_op0gpd_fun -->
<g id="node8" class="node">
<title>Opposite_op0gpd_fun</title>
<g id="a_node8"><a xlink:href="Opposite.html#op0gpd_fun" xlink:title="op0gpd_fun">
<ellipse fill="#f070d1" stroke="black" cx="365.68" cy="-186" rx="64.99" ry="18"/>
<ellipse fill="none" stroke="black" cx="365.68" cy="-186" rx="68.99" ry="22"/>
<ellipse fill="none" stroke="black" cx="365.68" cy="-186" rx="72.99" ry="26"/>
<text text-anchor="middle" x="365.68" y="-182.3" font-family="Times,serif" font-size="14.00">op0gpd_fun</text>
</a>
</g>
</g>
<!-- Opposite_op0gpd_fun&#45;&gt;Opposite_isgraph_op -->
<g id="edge11" class="edge">
<title>Opposite_op0gpd_fun&#45;&gt;Opposite_isgraph_op</title>
<path fill="none" stroke="black" d="M365.68,-159.89C365.68,-151.84 365.68,-142.88 365.68,-134.66"/>
<polygon fill="black" stroke="black" points="369.18,-134.41 365.68,-124.41 362.18,-134.41 369.18,-134.41"/>
</g>
<!-- Opposite_is0gpd_op -->
<g id="node9" class="node">
<title>Opposite_is0gpd_op</title>
<g id="a_node9"><a xlink:href="Opposite.html#is0gpd_op" xlink:title="is0gpd_op">
<ellipse fill="#f070d1" stroke="black" cx="281.68" cy="-274" rx="57.71" ry="18"/>
<ellipse fill="none" stroke="black" cx="281.68" cy="-274" rx="61.7" ry="22"/>
<ellipse fill="none" stroke="black" cx="281.68" cy="-274" rx="65.69" ry="26"/>
<text text-anchor="middle" x="281.68" y="-270.3" font-family="Times,serif" font-size="14.00">is0gpd_op</text>
</a>
</g>
</g>
<!-- Opposite_is01cat_op -->
<g id="node13" class="node">
<title>Opposite_is01cat_op</title>
<g id="a_node13"><a xlink:href="Opposite.html#is01cat_op" xlink:title="is01cat_op">
<ellipse fill="#f070d1" stroke="black" cx="192.68" cy="-186" rx="59.59" ry="18"/>
<text text-anchor="middle" x="192.68" y="-182.3" font-family="Times,serif" font-size="14.00">is01cat_op</text>
</a>
</g>
</g>
<!-- Opposite_is0gpd_op&#45;&gt;Opposite_is01cat_op -->
<g id="edge12" class="edge">
<title>Opposite_is0gpd_op&#45;&gt;Opposite_is01cat_op</title>
<path fill="none" stroke="black" d="M257.36,-249.5C244.83,-237.39 229.59,-222.67 217.05,-210.55"/>
<polygon fill="black" stroke="black" points="219.26,-207.82 209.64,-203.39 214.4,-212.86 219.26,-207.82"/>
</g>
<!-- Opposite_is1cat_strong_op -->
<g id="node10" class="node">
<title>Opposite_is1cat_strong_op</title>
<g id="a_node10"><a xlink:href="Opposite.html#is1cat_strong_op" xlink:title="is1cat_strong_op">
<ellipse fill="#f070d1" stroke="black" cx="501.68" cy="-362" rx="89.08" ry="18"/>
<ellipse fill="none" stroke="black" cx="501.68" cy="-362" rx="93.08" ry="22"/>
<ellipse fill="none" stroke="black" cx="501.68" cy="-362" rx="97.08" ry="26"/>
<text text-anchor="middle" x="501.68" y="-358.3" font-family="Times,serif" font-size="14.00">is1cat_strong_op</text>
</a>
</g>
</g>
<!-- Opposite_is1cat_strong_op&#45;&gt;Opposite_is1cat_op -->
<g id="edge13" class="edge">
<title>Opposite_is1cat_strong_op&#45;&gt;Opposite_is1cat_op</title>
<path fill="none" stroke="black" d="M501.68,-335.66C501.68,-325.11 501.68,-312.84 501.68,-302.1"/>
<polygon fill="black" stroke="black" points="505.18,-302 501.68,-292 498.18,-302 505.18,-302"/>
</g>
<!-- Opposite_is2graph_op -->
<g id="node12" class="node">
<title>Opposite_is2graph_op</title>
<g id="a_node12"><a xlink:href="Opposite.html#is2graph_op" xlink:title="is2graph_op">
<ellipse fill="#f070d1" stroke="black" cx="788.68" cy="-186" rx="67.69" ry="18"/>
<text text-anchor="middle" x="788.68" y="-182.3" font-family="Times,serif" font-size="14.00">is2graph_op</text>
</a>
</g>
</g>
<!-- Opposite_is1cat_op&#45;&gt;Opposite_is2graph_op -->
<g id="edge14" class="edge">
<title>Opposite_is1cat_op&#45;&gt;Opposite_is2graph_op</title>
<path fill="none" stroke="black" d="M540.38,-261.4C590.76,-246.31 679.01,-219.86 735.61,-202.9"/>
<polygon fill="black" stroke="black" points="736.87,-206.18 745.44,-199.96 734.86,-199.47 736.87,-206.18"/>
</g>
<!-- Opposite_is1cat_op&#45;&gt;Opposite_is01cat_op -->
<g id="edge15" class="edge">
<title>Opposite_is1cat_op&#45;&gt;Opposite_is01cat_op</title>
<path fill="none" stroke="black" d="M461.6,-261.85C406.22,-246.43 306.23,-218.6 245.01,-201.57"/>
<polygon fill="black" stroke="black" points="245.73,-198.13 235.16,-198.82 243.86,-204.88 245.73,-198.13"/>
</g>
<!-- Opposite_is2graph_op&#45;&gt;Opposite_isgraph_op -->
<g id="edge16" class="edge">
<title>Opposite_is2graph_op&#45;&gt;Opposite_isgraph_op</title>
<path fill="none" stroke="black" d="M741.72,-172.96C723.92,-168.6 703.42,-163.81 684.68,-160 596.81,-142.16 494.42,-125.95 429.83,-116.28"/>
<polygon fill="black" stroke="black" points="430.2,-112.8 419.8,-114.79 429.17,-119.72 430.2,-112.8"/>
</g>
<!-- Opposite_is01cat_op&#45;&gt;Opposite_isgraph_op -->
<g id="edge17" class="edge">
<title>Opposite_is01cat_op&#45;&gt;Opposite_isgraph_op</title>
<path fill="none" stroke="black" d="M224.41,-170.69C252.52,-158.02 293.74,-139.43 324.41,-125.61"/>
<polygon fill="black" stroke="black" points="325.88,-128.78 333.56,-121.48 323.01,-122.4 325.88,-128.78"/>
</g>
<!-- Opposite_op -->
<g id="node15" class="node">
<title>Opposite_op</title>
<g id="a_node15"><a xlink:href="Opposite.html#op" xlink:title="op">
<ellipse fill="#f070d1" stroke="black" cx="365.68" cy="-34" rx="27" ry="18"/>
<text text-anchor="middle" x="365.68" y="-30.3" font-family="Times,serif" font-size="14.00">op</text>
</a>
</g>
</g>
<!-- Opposite_isgraph_op&#45;&gt;Opposite_op -->
<g id="edge18" class="edge">
<title>Opposite_isgraph_op&#45;&gt;Opposite_op</title>
<path fill="none" stroke="black" d="M365.68,-87.7C365.68,-79.98 365.68,-70.71 365.68,-62.11"/>
<polygon fill="black" stroke="black" points="369.18,-62.1 365.68,-52.1 362.18,-62.1 369.18,-62.1"/>
</g>
</g>
</svg>
