<?xml version="1.0" encoding="UTF-8" standalone="no"?>
<!DOCTYPE svg PUBLIC "-//W3C//DTD SVG 1.1//EN"
 "http://www.w3.org/Graphics/SVG/1.1/DTD/svg11.dtd">
<!-- Generated by graphviz version 2.43.0 (0)
 -->
<!-- Title: HoTT_WildCat_Induced Pages: 1 -->
<svg width="766pt" height="387pt"
 viewBox="0.00 0.00 766.00 387.00" xmlns="http://www.w3.org/2000/svg" xmlns:xlink="http://www.w3.org/1999/xlink">
<g id="graph0" class="graph" transform="scale(1 1) rotate(0) translate(4 383)">
<title>HoTT_WildCat_Induced</title>
<polygon fill="white" stroke="transparent" points="-4,4 -4,-383 762,-383 762,4 -4,4"/>
<g id="clust1" class="cluster">
<title>cluster_Induced</title>
<polygon fill="#ffffc3" stroke="black" points="8,-8.94 8,-370.06 750,-370.06 750,-8.94 8,-8.94"/>
<text text-anchor="middle" x="45" y="-354.86" font-family="Times,serif" font-size="14.00">Induced</text>
</g>
<!-- Induced_induced_hasequivs -->
<g id="node1" class="node">
<title>Induced_induced_hasequivs</title>
<g id="a_node1"><a xlink:href="Induced.html#induced_hasequivs" xlink:title="induced_hasequivs">
<ellipse fill="#f070d1" stroke="black" cx="358" cy="-305.94" rx="98.27" ry="18"/>
<ellipse fill="none" stroke="black" cx="358" cy="-305.94" rx="102.28" ry="22"/>
<ellipse fill="none" stroke="black" cx="358" cy="-305.94" rx="106.28" ry="26"/>
<text text-anchor="middle" x="358" y="-302.24" font-family="Times,serif" font-size="14.00">induced_hasequivs</text>
</a>
</g>
</g>
<!-- Induced_induced_1cat -->
<g id="node4" class="node">
<title>Induced_induced_1cat</title>
<g id="a_node4"><a xlink:href="Induced.html#induced_1cat" xlink:title="induced_1cat">
<ellipse fill="#f070d1" stroke="black" cx="358" cy="-207.94" rx="71.49" ry="18"/>
<text text-anchor="middle" x="358" y="-204.24" font-family="Times,serif" font-size="14.00">induced_1cat</text>
</a>
</g>
</g>
<!-- Induced_induced_hasequivs&#45;&gt;Induced_induced_1cat -->
<g id="edge1" class="edge">
<title>Induced_induced_hasequivs&#45;&gt;Induced_induced_1cat</title>
<path fill="none" stroke="black" d="M358,-279.72C358,-266.4 358,-250.02 358,-236.38"/>
<polygon fill="black" stroke="black" points="361.5,-236.13 358,-226.13 354.5,-236.13 361.5,-236.13"/>
</g>
<!-- Induced_inducingmap_is0functor -->
<g id="node5" class="node">
<title>Induced_inducingmap_is0functor</title>
<g id="a_node5"><a xlink:href="Induced.html#inducingmap_is0functor" xlink:title="inducingmap_is0functor">
<ellipse fill="#f070d1" stroke="black" cx="570" cy="-207.94" rx="122.38" ry="18"/>
<text text-anchor="middle" x="570" y="-204.24" font-family="Times,serif" font-size="14.00">inducingmap_is0functor</text>
</a>
</g>
</g>
<!-- Induced_induced_hasequivs&#45;&gt;Induced_inducingmap_is0functor -->
<g id="edge2" class="edge">
<title>Induced_induced_hasequivs&#45;&gt;Induced_inducingmap_is0functor</title>
<path fill="none" stroke="black" d="M406.9,-282.8C442.34,-266.75 489.9,-245.22 524.52,-229.54"/>
<polygon fill="black" stroke="black" points="526.25,-232.6 533.92,-225.28 523.36,-226.22 526.25,-232.6"/>
</g>
<!-- Induced_induced_hasmorext -->
<g id="node2" class="node">
<title>Induced_induced_hasmorext</title>
<g id="a_node2"><a xlink:href="Induced.html#induced_hasmorext" xlink:title="induced_hasmorext">
<ellipse fill="#f070d1" stroke="black" cx="125" cy="-305.94" rx="100.96" ry="18"/>
<ellipse fill="none" stroke="black" cx="125" cy="-305.94" rx="104.97" ry="22"/>
<ellipse fill="none" stroke="black" cx="125" cy="-305.94" rx="108.98" ry="26"/>
<text text-anchor="middle" x="125" y="-302.24" font-family="Times,serif" font-size="14.00">induced_hasmorext</text>
</a>
</g>
</g>
<!-- Induced_induced_hasmorext&#45;&gt;Induced_induced_1cat -->
<g id="edge3" class="edge">
<title>Induced_induced_hasmorext&#45;&gt;Induced_induced_1cat</title>
<path fill="none" stroke="black" d="M177.87,-283.16C218.59,-266.38 274.28,-243.44 312.91,-227.52"/>
<polygon fill="black" stroke="black" points="314.43,-230.68 322.34,-223.63 311.77,-224.21 314.43,-230.68"/>
</g>
<!-- Induced_inducingmap_is1functor -->
<g id="node3" class="node">
<title>Induced_inducingmap_is1functor</title>
<g id="a_node3"><a xlink:href="Induced.html#inducingmap_is1functor" xlink:title="inducingmap_is1functor">
<ellipse fill="#f070d1" stroke="black" cx="612" cy="-305.94" rx="122.37" ry="18"/>
<ellipse fill="none" stroke="black" cx="612" cy="-305.94" rx="126.37" ry="22"/>
<ellipse fill="none" stroke="black" cx="612" cy="-305.94" rx="130.38" ry="26"/>
<text text-anchor="middle" x="612" y="-302.24" font-family="Times,serif" font-size="14.00">inducingmap_is1functor</text>
</a>
</g>
</g>
<!-- Induced_inducingmap_is1functor&#45;&gt;Induced_induced_1cat -->
<g id="edge4" class="edge">
<title>Induced_inducingmap_is1functor&#45;&gt;Induced_induced_1cat</title>
<path fill="none" stroke="black" d="M553.09,-282.68C508.22,-265.72 447.26,-242.68 405.49,-226.89"/>
<polygon fill="black" stroke="black" points="406.69,-223.6 396.1,-223.34 404.21,-230.15 406.69,-223.6"/>
</g>
<!-- Induced_inducingmap_is1functor&#45;&gt;Induced_inducingmap_is0functor -->
<g id="edge5" class="edge">
<title>Induced_inducingmap_is1functor&#45;&gt;Induced_inducingmap_is0functor</title>
<path fill="none" stroke="black" d="M601.07,-279.97C595.09,-266.29 587.67,-249.34 581.59,-235.43"/>
<polygon fill="black" stroke="black" points="584.65,-233.69 577.43,-225.93 578.23,-236.49 584.65,-233.69"/>
</g>
<!-- Induced_induced_01cat -->
<g id="node7" class="node">
<title>Induced_induced_01cat</title>
<g id="a_node7"><a xlink:href="Induced.html#induced_01cat" xlink:title="induced_01cat">
<ellipse fill="#f070d1" stroke="black" cx="358" cy="-118.94" rx="77.19" ry="18"/>
<text text-anchor="middle" x="358" y="-115.24" font-family="Times,serif" font-size="14.00">induced_01cat</text>
</a>
</g>
</g>
<!-- Induced_induced_1cat&#45;&gt;Induced_induced_01cat -->
<g id="edge6" class="edge">
<title>Induced_induced_1cat&#45;&gt;Induced_induced_01cat</title>
<path fill="none" stroke="black" d="M358,-189.76C358,-177.6 358,-161.06 358,-147.13"/>
<polygon fill="black" stroke="black" points="361.5,-147.1 358,-137.1 354.5,-147.1 361.5,-147.1"/>
</g>
<!-- Induced_induced_graph -->
<g id="node8" class="node">
<title>Induced_induced_graph</title>
<g id="a_node8"><a xlink:href="Induced.html#induced_graph" xlink:title="induced_graph">
<ellipse fill="#f070d1" stroke="black" cx="406" cy="-37.94" rx="79.09" ry="18"/>
<text text-anchor="middle" x="406" y="-34.24" font-family="Times,serif" font-size="14.00">induced_graph</text>
</a>
</g>
</g>
<!-- Induced_inducingmap_is0functor&#45;&gt;Induced_induced_graph -->
<g id="edge7" class="edge">
<title>Induced_inducingmap_is0functor&#45;&gt;Induced_induced_graph</title>
<path fill="none" stroke="black" d="M553.37,-189.91C524.15,-159.98 463.49,-97.84 429.82,-63.35"/>
<polygon fill="black" stroke="black" points="432.16,-60.73 422.67,-56.02 427.15,-65.62 432.16,-60.73"/>
</g>
<!-- Induced_induced_0gpd -->
<g id="node6" class="node">
<title>Induced_induced_0gpd</title>
<g id="a_node6"><a xlink:href="Induced.html#induced_0gpd" xlink:title="induced_0gpd">
<ellipse fill="#f070d1" stroke="black" cx="185" cy="-207.94" rx="75.3" ry="18"/>
<ellipse fill="none" stroke="black" cx="185" cy="-207.94" rx="79.29" ry="22"/>
<ellipse fill="none" stroke="black" cx="185" cy="-207.94" rx="83.29" ry="26"/>
<text text-anchor="middle" x="185" y="-204.24" font-family="Times,serif" font-size="14.00">induced_0gpd</text>
</a>
</g>
</g>
<!-- Induced_induced_0gpd&#45;&gt;Induced_induced_01cat -->
<g id="edge8" class="edge">
<title>Induced_induced_0gpd&#45;&gt;Induced_induced_01cat</title>
<path fill="none" stroke="black" d="M227.76,-185.44C255.33,-171.57 290.94,-153.67 317.96,-140.08"/>
<polygon fill="black" stroke="black" points="319.77,-143.09 327.13,-135.47 316.62,-136.84 319.77,-143.09"/>
</g>
<!-- Induced_induced_01cat&#45;&gt;Induced_induced_graph -->
<g id="edge9" class="edge">
<title>Induced_induced_01cat&#45;&gt;Induced_induced_graph</title>
<path fill="none" stroke="black" d="M368.42,-100.8C374.83,-90.24 383.18,-76.5 390.38,-64.66"/>
<polygon fill="black" stroke="black" points="393.4,-66.42 395.61,-56.05 387.42,-62.78 393.4,-66.42"/>
</g>
</g>
</svg>
