<?xml version="1.0" encoding="UTF-8" standalone="no"?>
<!DOCTYPE svg PUBLIC "-//W3C//DTD SVG 1.1//EN"
 "http://www.w3.org/Graphics/SVG/1.1/DTD/svg11.dtd">
<!-- Generated by graphviz version 2.43.0 (0)
 -->
<!-- Title: HoTT_Algebra_Groups_FreeGroup_LoopSusp Pages: 1 -->
<svg width="654pt" height="331pt"
 viewBox="0.00 0.00 654.00 331.00" xmlns="http://www.w3.org/2000/svg" xmlns:xlink="http://www.w3.org/1999/xlink">
<g id="graph0" class="graph" transform="scale(1 1) rotate(0) translate(4 327)">
<title>HoTT_Algebra_Groups_FreeGroup_LoopSusp</title>
<polygon fill="white" stroke="transparent" points="-4,4 -4,-327 650,-327 650,4 -4,4"/>
<g id="clust1" class="cluster">
<title>cluster_LoopSusp</title>
<polygon fill="#ffffc3" stroke="black" points="9.21,-8 9.21,-315 636.79,-315 636.79,-8 9.21,-8"/>
<text text-anchor="middle" x="52.21" y="-299.8" font-family="Times,serif" font-size="14.00">LoopSusp</text>
</g>
<!-- LoopSusp_freegroup_incl -->
<g id="node1" class="node">
<title>LoopSusp_freegroup_incl</title>
<g id="a_node1"><a xlink:href="LoopSusp.html#freegroup_incl" xlink:title="freegroup_incl">
<ellipse fill="#f070d1" stroke="black" cx="530.18" cy="-258" rx="77.2" ry="18"/>
<ellipse fill="none" stroke="black" cx="530.18" cy="-258" rx="81.19" ry="22"/>
<ellipse fill="none" stroke="black" cx="530.18" cy="-258" rx="85.19" ry="26"/>
<text text-anchor="middle" x="530.18" y="-254.3" font-family="Times,serif" font-size="14.00">freegroup_incl</text>
</a>
</g>
</g>
<!-- LoopSusp_equiv_freegroup_rec -->
<g id="node2" class="node">
<title>LoopSusp_equiv_freegroup_rec</title>
<g id="a_node2"><a xlink:href="LoopSusp.html#equiv_freegroup_rec" xlink:title="equiv_freegroup_rec">
<ellipse fill="#f070d1" stroke="black" cx="506.18" cy="-178" rx="105.08" ry="18"/>
<text text-anchor="middle" x="506.18" y="-174.3" font-family="Times,serif" font-size="14.00">equiv_freegroup_rec</text>
</a>
</g>
</g>
<!-- LoopSusp_freegroup_incl&#45;&gt;LoopSusp_equiv_freegroup_rec -->
<g id="edge1" class="edge">
<title>LoopSusp_freegroup_incl&#45;&gt;LoopSusp_equiv_freegroup_rec</title>
<path fill="none" stroke="black" d="M522.46,-231.89C519.92,-223.66 517.1,-214.48 514.52,-206.1"/>
<polygon fill="black" stroke="black" points="517.83,-204.94 511.54,-196.41 511.13,-207 517.83,-204.94"/>
</g>
<!-- LoopSusp_FreeGroup -->
<g id="node3" class="node">
<title>LoopSusp_FreeGroup</title>
<g id="a_node3"><a xlink:href="LoopSusp.html#FreeGroup" xlink:title="FreeGroup">
<ellipse fill="#f070d1" stroke="black" cx="302.18" cy="-106" rx="61.19" ry="18"/>
<text text-anchor="middle" x="302.18" y="-102.3" font-family="Times,serif" font-size="14.00">FreeGroup</text>
</a>
</g>
</g>
<!-- LoopSusp_equiv_freegroup_rec&#45;&gt;LoopSusp_FreeGroup -->
<g id="edge2" class="edge">
<title>LoopSusp_equiv_freegroup_rec&#45;&gt;LoopSusp_FreeGroup</title>
<path fill="none" stroke="black" d="M461.41,-161.64C428.43,-150.32 383.64,-134.95 349.96,-123.39"/>
<polygon fill="black" stroke="black" points="350.93,-120.03 340.33,-120.09 348.66,-126.65 350.93,-120.03"/>
</g>
<!-- LoopSusp_equiv_pointify_map -->
<g id="node5" class="node">
<title>LoopSusp_equiv_pointify_map</title>
<g id="a_node5"><a xlink:href="LoopSusp.html#equiv_pointify_map" xlink:title="equiv_pointify_map">
<ellipse fill="#f070d1" stroke="black" cx="509.18" cy="-106" rx="100.98" ry="18"/>
<text text-anchor="middle" x="509.18" y="-102.3" font-family="Times,serif" font-size="14.00">equiv_pointify_map</text>
</a>
</g>
</g>
<!-- LoopSusp_equiv_freegroup_rec&#45;&gt;LoopSusp_equiv_pointify_map -->
<g id="edge3" class="edge">
<title>LoopSusp_equiv_freegroup_rec&#45;&gt;LoopSusp_equiv_pointify_map</title>
<path fill="none" stroke="black" d="M506.92,-159.7C507.25,-151.98 507.65,-142.71 508.02,-134.11"/>
<polygon fill="black" stroke="black" points="511.52,-134.25 508.45,-124.1 504.52,-133.95 511.52,-134.25"/>
</g>
<!-- LoopSusp_pointify -->
<g id="node6" class="node">
<title>LoopSusp_pointify</title>
<g id="a_node6"><a xlink:href="LoopSusp.html#pointify" xlink:title="pointify">
<ellipse fill="#f070d1" stroke="black" cx="405.18" cy="-34" rx="46.29" ry="18"/>
<text text-anchor="middle" x="405.18" y="-30.3" font-family="Times,serif" font-size="14.00">pointify</text>
</a>
</g>
</g>
<!-- LoopSusp_FreeGroup&#45;&gt;LoopSusp_pointify -->
<g id="edge4" class="edge">
<title>LoopSusp_FreeGroup&#45;&gt;LoopSusp_pointify</title>
<path fill="none" stroke="black" d="M325.3,-89.29C339.91,-79.36 358.96,-66.41 374.79,-55.66"/>
<polygon fill="black" stroke="black" points="376.9,-58.45 383.2,-49.94 372.96,-52.66 376.9,-58.45"/>
</g>
<!-- LoopSusp_isfreegroupon_isequiv_postcomp -->
<g id="node4" class="node">
<title>LoopSusp_isfreegroupon_isequiv_postcomp</title>
<g id="a_node4"><a xlink:href="LoopSusp.html#isfreegroupon_isequiv_postcomp" xlink:title="isfreegroupon_isequiv_postcomp">
<ellipse fill="#f070d1" stroke="black" cx="214.18" cy="-258" rx="162.47" ry="18"/>
<ellipse fill="none" stroke="black" cx="214.18" cy="-258" rx="166.47" ry="22"/>
<ellipse fill="none" stroke="black" cx="214.18" cy="-258" rx="170.47" ry="26"/>
<text text-anchor="middle" x="214.18" y="-254.3" font-family="Times,serif" font-size="14.00">isfreegroupon_isequiv_postcomp</text>
</a>
</g>
</g>
<!-- LoopSusp_equiv_pointify_map&#45;&gt;LoopSusp_pointify -->
<g id="edge5" class="edge">
<title>LoopSusp_equiv_pointify_map&#45;&gt;LoopSusp_pointify</title>
<path fill="none" stroke="black" d="M484.54,-88.41C470.07,-78.68 451.67,-66.29 436.22,-55.89"/>
<polygon fill="black" stroke="black" points="437.77,-52.72 427.52,-50.04 433.87,-58.53 437.77,-52.72"/>
</g>
</g>
</svg>
