<?xml version="1.0" encoding="UTF-8" standalone="no"?>
<!DOCTYPE svg PUBLIC "-//W3C//DTD SVG 1.1//EN"
 "http://www.w3.org/Graphics/SVG/1.1/DTD/svg11.dtd">
<!-- Generated by graphviz version 2.43.0 (0)
 -->
<!-- Title: HoTT_Limits_Pullback Pages: 1 -->
<svg width="2401pt" height="1205pt"
 viewBox="0.00 0.00 2401.00 1204.50" xmlns="http://www.w3.org/2000/svg" xmlns:xlink="http://www.w3.org/1999/xlink">
<g id="graph0" class="graph" transform="scale(1 1) rotate(0) translate(4 1200.5)">
<title>HoTT_Limits_Pullback</title>
<polygon fill="white" stroke="transparent" points="-4,4 -4,-1200.5 2397,-1200.5 2397,4 -4,4"/>
<g id="clust1" class="cluster">
<title>cluster_Pullback</title>
<polygon fill="#ffffc3" stroke="black" points="8,-21.61 8,-1174.89 2385,-1174.89 2385,-21.61 8,-21.61"/>
<text text-anchor="middle" x="46.5" y="-1159.69" font-family="Times,serif" font-size="14.00">Pullback</text>
</g>
<!-- Pullback_ispullback_pasting_outer -->
<g id="node1" class="node">
<title>Pullback_ispullback_pasting_outer</title>
<g id="a_node1"><a xlink:href="Pullback.html#ispullback_pasting_outer" xlink:title="ispullback_pasting_outer">
<ellipse fill="#f070d1" stroke="black" cx="804" cy="-1020.61" rx="126.17" ry="18"/>
<ellipse fill="none" stroke="black" cx="804" cy="-1020.61" rx="130.18" ry="22"/>
<ellipse fill="none" stroke="black" cx="804" cy="-1020.61" rx="134.18" ry="26"/>
<text text-anchor="middle" x="804" y="-1016.91" font-family="Times,serif" font-size="14.00">ispullback_pasting_outer</text>
</a>
</g>
</g>
<!-- Pullback_isequiv_functor_hfiber_ispullback -->
<g id="node14" class="node">
<title>Pullback_isequiv_functor_hfiber_ispullback</title>
<g id="a_node14"><a xlink:href="Pullback.html#isequiv_functor_hfiber_ispullback" xlink:title="isequiv_functor_hfiber_ispullback">
<ellipse fill="#f070d1" stroke="black" cx="944" cy="-783.61" rx="165.17" ry="18"/>
<text text-anchor="middle" x="944" y="-779.91" font-family="Times,serif" font-size="14.00">isequiv_functor_hfiber_ispullback</text>
</a>
</g>
</g>
<!-- Pullback_ispullback_pasting_outer&#45;&gt;Pullback_isequiv_functor_hfiber_ispullback -->
<g id="edge1" class="edge">
<title>Pullback_ispullback_pasting_outer&#45;&gt;Pullback_isequiv_functor_hfiber_ispullback</title>
<path fill="none" stroke="black" d="M818.98,-994.46C845.78,-949.48 901.62,-855.75 928.66,-810.35"/>
<polygon fill="black" stroke="black" points="931.71,-812.07 933.83,-801.69 925.7,-808.48 931.71,-812.07"/>
</g>
<!-- Pullback_ispullback_isequiv_functor_hfiber -->
<g id="node15" class="node">
<title>Pullback_ispullback_isequiv_functor_hfiber</title>
<g id="a_node15"><a xlink:href="Pullback.html#ispullback_isequiv_functor_hfiber" xlink:title="ispullback_isequiv_functor_hfiber">
<ellipse fill="#f070d1" stroke="black" cx="388" cy="-783.61" rx="165.17" ry="18"/>
<text text-anchor="middle" x="388" y="-779.91" font-family="Times,serif" font-size="14.00">ispullback_isequiv_functor_hfiber</text>
</a>
</g>
</g>
<!-- Pullback_ispullback_pasting_outer&#45;&gt;Pullback_ispullback_isequiv_functor_hfiber -->
<g id="edge2" class="edge">
<title>Pullback_ispullback_pasting_outer&#45;&gt;Pullback_ispullback_isequiv_functor_hfiber</title>
<path fill="none" stroke="black" d="M761.82,-995.78C680.94,-950.09 505.11,-850.77 426.88,-806.57"/>
<polygon fill="black" stroke="black" points="428.27,-803.34 417.84,-801.46 424.83,-809.43 428.27,-803.34"/>
</g>
<!-- Pullback_ispullback_pasting_left -->
<g id="node2" class="node">
<title>Pullback_ispullback_pasting_left</title>
<g id="a_node2"><a xlink:href="Pullback.html#ispullback_pasting_left" xlink:title="ispullback_pasting_left">
<ellipse fill="#f070d1" stroke="black" cx="458" cy="-1020.61" rx="116.19" ry="18"/>
<ellipse fill="none" stroke="black" cx="458" cy="-1020.61" rx="120.18" ry="22"/>
<ellipse fill="none" stroke="black" cx="458" cy="-1020.61" rx="124.18" ry="26"/>
<text text-anchor="middle" x="458" y="-1016.91" font-family="Times,serif" font-size="14.00">ispullback_pasting_left</text>
</a>
</g>
</g>
<!-- Pullback_ispullback_pasting_left&#45;&gt;Pullback_isequiv_functor_hfiber_ispullback -->
<g id="edge3" class="edge">
<title>Pullback_ispullback_pasting_left&#45;&gt;Pullback_isequiv_functor_hfiber_ispullback</title>
<path fill="none" stroke="black" d="M505.93,-996.43C600.41,-950.75 809.41,-849.69 900.33,-805.72"/>
<polygon fill="black" stroke="black" points="902.05,-808.78 909.53,-801.28 899,-802.48 902.05,-808.78"/>
</g>
<!-- Pullback_ispullback_pasting_left&#45;&gt;Pullback_ispullback_isequiv_functor_hfiber -->
<g id="edge4" class="edge">
<title>Pullback_ispullback_pasting_left&#45;&gt;Pullback_ispullback_isequiv_functor_hfiber</title>
<path fill="none" stroke="black" d="M450.51,-994.46C437.22,-949.86 409.66,-857.31 396.01,-811.5"/>
<polygon fill="black" stroke="black" points="399.3,-810.27 393.09,-801.69 392.59,-812.27 399.3,-810.27"/>
</g>
<!-- Pullback_pullback3x3 -->
<g id="node3" class="node">
<title>Pullback_pullback3x3</title>
<g id="a_node3"><a xlink:href="Pullback.html#pullback3x3" xlink:title="pullback3x3">
<ellipse fill="#f070d1" stroke="black" cx="2046" cy="-545.61" rx="66.89" ry="18"/>
<ellipse fill="none" stroke="black" cx="2046" cy="-545.61" rx="70.89" ry="22"/>
<ellipse fill="none" stroke="black" cx="2046" cy="-545.61" rx="74.89" ry="26"/>
<text text-anchor="middle" x="2046" y="-541.91" font-family="Times,serif" font-size="14.00">pullback3x3</text>
</a>
</g>
</g>
<!-- Pullback_equiv_path_pullback -->
<g id="node4" class="node">
<title>Pullback_equiv_path_pullback</title>
<g id="a_node4"><a xlink:href="Pullback.html#equiv_path_pullback" xlink:title="equiv_path_pullback">
<ellipse fill="#f070d1" stroke="black" cx="2252" cy="-307.61" rx="104.78" ry="18"/>
<text text-anchor="middle" x="2252" y="-303.91" font-family="Times,serif" font-size="14.00">equiv_path_pullback</text>
</a>
</g>
</g>
<!-- Pullback_pullback3x3&#45;&gt;Pullback_equiv_path_pullback -->
<g id="edge5" class="edge">
<title>Pullback_pullback3x3&#45;&gt;Pullback_equiv_path_pullback</title>
<path fill="none" stroke="black" d="M2067.27,-520.24C2106.74,-475.02 2190.89,-378.61 2230.52,-333.21"/>
<polygon fill="black" stroke="black" points="2233.22,-335.45 2237.16,-325.61 2227.94,-330.84 2233.22,-335.45"/>
</g>
<!-- Pullback_functor_pullback -->
<g id="node9" class="node">
<title>Pullback_functor_pullback</title>
<g id="a_node9"><a xlink:href="Pullback.html#functor_pullback" xlink:title="functor_pullback">
<ellipse fill="#f070d1" stroke="black" cx="2042" cy="-307.61" rx="87.99" ry="18"/>
<text text-anchor="middle" x="2042" y="-303.91" font-family="Times,serif" font-size="14.00">functor_pullback</text>
</a>
</g>
</g>
<!-- Pullback_pullback3x3&#45;&gt;Pullback_functor_pullback -->
<g id="edge6" class="edge">
<title>Pullback_pullback3x3&#45;&gt;Pullback_functor_pullback</title>
<path fill="none" stroke="black" d="M2045.57,-519.35C2044.81,-474.66 2043.24,-382.01 2042.46,-335.9"/>
<polygon fill="black" stroke="black" points="2045.96,-335.7 2042.29,-325.76 2038.96,-335.82 2045.96,-335.7"/>
</g>
<!-- Pullback_Pullback -->
<g id="node28" class="node">
<title>Pullback_Pullback</title>
<g id="a_node28"><a xlink:href="Pullback.html#Pullback" xlink:title="Pullback">
<ellipse fill="#f070d1" stroke="black" cx="1084" cy="-91.61" rx="50.09" ry="18"/>
<text text-anchor="middle" x="1084" y="-87.91" font-family="Times,serif" font-size="14.00">Pullback</text>
</a>
</g>
</g>
<!-- Pullback_equiv_path_pullback&#45;&gt;Pullback_Pullback -->
<g id="edge7" class="edge">
<title>Pullback_equiv_path_pullback&#45;&gt;Pullback_Pullback</title>
<path fill="none" stroke="black" d="M2191.99,-292.86C2174.89,-289.07 2156.24,-285.06 2139,-281.61 1757.53,-205.27 1295.49,-127.56 1138.9,-101.64"/>
<polygon fill="black" stroke="black" points="1139.04,-98.11 1128.6,-99.93 1137.89,-105.02 1139.04,-98.11"/>
</g>
<!-- Pullback_equiv_sigma_pullback -->
<g id="node5" class="node">
<title>Pullback_equiv_sigma_pullback</title>
<g id="a_node5"><a xlink:href="Pullback.html#equiv_sigma_pullback" xlink:title="equiv_sigma_pullback">
<ellipse fill="#f070d1" stroke="black" cx="1816" cy="-307.61" rx="111.59" ry="18"/>
<ellipse fill="none" stroke="black" cx="1816" cy="-307.61" rx="115.59" ry="22"/>
<ellipse fill="none" stroke="black" cx="1816" cy="-307.61" rx="119.58" ry="26"/>
<text text-anchor="middle" x="1816" y="-303.91" font-family="Times,serif" font-size="14.00">equiv_sigma_pullback</text>
</a>
</g>
</g>
<!-- Pullback_equiv_sigma_pullback&#45;&gt;Pullback_Pullback -->
<g id="edge8" class="edge">
<title>Pullback_equiv_sigma_pullback&#45;&gt;Pullback_Pullback</title>
<path fill="none" stroke="black" d="M1746.81,-286.38C1599.33,-243.27 1257.31,-143.27 1131.52,-106.5"/>
<polygon fill="black" stroke="black" points="1132.37,-103.1 1121.79,-103.65 1130.4,-109.82 1132.37,-103.1"/>
</g>
<!-- Pullback_equiv_pullback -->
<g id="node6" class="node">
<title>Pullback_equiv_pullback</title>
<g id="a_node6"><a xlink:href="Pullback.html#equiv_pullback" xlink:title="equiv_pullback">
<ellipse fill="#f070d1" stroke="black" cx="619" cy="-307.61" rx="79.11" ry="18"/>
<ellipse fill="none" stroke="black" cx="619" cy="-307.61" rx="83.1" ry="22"/>
<ellipse fill="none" stroke="black" cx="619" cy="-307.61" rx="87.09" ry="26"/>
<text text-anchor="middle" x="619" y="-303.91" font-family="Times,serif" font-size="14.00">equiv_pullback</text>
</a>
</g>
</g>
<!-- Pullback_equiv_pullback&#45;&gt;Pullback_Pullback -->
<g id="edge9" class="edge">
<title>Pullback_equiv_pullback&#45;&gt;Pullback_Pullback</title>
<path fill="none" stroke="black" d="M665.29,-285.31C756.86,-243.16 959.66,-149.83 1044.98,-110.57"/>
<polygon fill="black" stroke="black" points="1046.68,-113.63 1054.3,-106.27 1043.76,-107.27 1046.68,-113.63"/>
</g>
<!-- Pullback_hfiber_functor_pullback -->
<g id="node7" class="node">
<title>Pullback_hfiber_functor_pullback</title>
<g id="a_node7"><a xlink:href="Pullback.html#hfiber_functor_pullback" xlink:title="hfiber_functor_pullback">
<ellipse fill="#f070d1" stroke="black" cx="1673" cy="-545.61" rx="119.67" ry="18"/>
<ellipse fill="none" stroke="black" cx="1673" cy="-545.61" rx="123.68" ry="22"/>
<ellipse fill="none" stroke="black" cx="1673" cy="-545.61" rx="127.68" ry="26"/>
<text text-anchor="middle" x="1673" y="-541.91" font-family="Times,serif" font-size="14.00">hfiber_functor_pullback</text>
</a>
</g>
</g>
<!-- Pullback_hfiber_functor_pullback_subproof -->
<g id="node8" class="node">
<title>Pullback_hfiber_functor_pullback_subproof</title>
<g id="a_node8"><a xlink:href="Pullback.html#hfiber_functor_pullback_subproof" xlink:title="hfiber_functor_pullback_subproof">
<ellipse fill="#f070d1" stroke="black" cx="1513" cy="-307.61" rx="165.17" ry="18"/>
<text text-anchor="middle" x="1513" y="-303.91" font-family="Times,serif" font-size="14.00">hfiber_functor_pullback_subproof</text>
</a>
</g>
</g>
<!-- Pullback_hfiber_functor_pullback&#45;&gt;Pullback_hfiber_functor_pullback_subproof -->
<g id="edge10" class="edge">
<title>Pullback_hfiber_functor_pullback&#45;&gt;Pullback_hfiber_functor_pullback_subproof</title>
<path fill="none" stroke="black" d="M1656.18,-519.8C1625.64,-474.75 1561.38,-379.97 1530.41,-334.29"/>
<polygon fill="black" stroke="black" points="1533.19,-332.15 1524.68,-325.84 1527.4,-336.08 1533.19,-332.15"/>
</g>
<!-- Pullback_hfiber_functor_pullback&#45;&gt;Pullback_functor_pullback -->
<g id="edge11" class="edge">
<title>Pullback_hfiber_functor_pullback&#45;&gt;Pullback_functor_pullback</title>
<path fill="none" stroke="black" d="M1710.41,-520.68C1782.13,-474.81 1937.99,-375.13 2007.43,-330.72"/>
<polygon fill="black" stroke="black" points="2009.7,-333.42 2016.24,-325.08 2005.93,-327.52 2009.7,-333.42"/>
</g>
<!-- Pullback_functor_pullback&#45;&gt;Pullback_Pullback -->
<g id="edge12" class="edge">
<title>Pullback_functor_pullback&#45;&gt;Pullback_Pullback</title>
<path fill="none" stroke="black" d="M1990.49,-292.96C1975.82,-289.18 1959.8,-285.14 1945,-281.61 1639.6,-208.76 1270.74,-131.29 1136.26,-103.39"/>
<polygon fill="black" stroke="black" points="1136.73,-99.92 1126.23,-101.31 1135.31,-106.77 1136.73,-99.92"/>
</g>
<!-- Pullback_hfiber_pullback_along_ -->
<g id="node10" class="node">
<title>Pullback_hfiber_pullback_along_</title>
<g id="a_node10"><a xlink:href="Pullback.html#hfiber_pullback_along'" xlink:title="hfiber_pullback_along&#39;">
<ellipse fill="#f070d1" stroke="black" cx="138" cy="-545.61" rx="113.96" ry="18"/>
<ellipse fill="none" stroke="black" cx="138" cy="-545.61" rx="117.97" ry="22"/>
<ellipse fill="none" stroke="black" cx="138" cy="-545.61" rx="121.98" ry="26"/>
<text text-anchor="middle" x="138" y="-541.91" font-family="Times,serif" font-size="14.00">hfiber_pullback_along&#39;</text>
</a>
</g>
</g>
<!-- Pullback_pullback_along_ -->
<g id="node11" class="node">
<title>Pullback_pullback_along_</title>
<g id="a_node11"><a xlink:href="Pullback.html#pullback_along'" xlink:title="pullback_along&#39;">
<ellipse fill="#f070d1" stroke="black" cx="98" cy="-307.61" rx="81.79" ry="18"/>
<text text-anchor="middle" x="98" y="-303.91" font-family="Times,serif" font-size="14.00">pullback_along&#39;</text>
</a>
</g>
</g>
<!-- Pullback_hfiber_pullback_along_&#45;&gt;Pullback_pullback_along_ -->
<g id="edge13" class="edge">
<title>Pullback_hfiber_pullback_along_&#45;&gt;Pullback_pullback_along_</title>
<path fill="none" stroke="black" d="M133.72,-519.35C126.14,-474.66 110.44,-382.01 102.63,-335.9"/>
<polygon fill="black" stroke="black" points="106.03,-335.03 100.91,-325.76 99.13,-336.2 106.03,-335.03"/>
</g>
<!-- Pullback_pullback_along_&#45;&gt;Pullback_Pullback -->
<g id="edge14" class="edge">
<title>Pullback_pullback_along_&#45;&gt;Pullback_Pullback</title>
<path fill="none" stroke="black" d="M146.03,-292.83C159.86,-289.02 174.99,-285.01 189,-281.61 506.31,-204.59 891.24,-129.37 1030.49,-102.74"/>
<polygon fill="black" stroke="black" points="1031.32,-106.15 1040.48,-100.84 1030,-99.27 1031.32,-106.15"/>
</g>
<!-- Pullback_hfiber_pullback_along -->
<g id="node12" class="node">
<title>Pullback_hfiber_pullback_along</title>
<g id="a_node12"><a xlink:href="Pullback.html#hfiber_pullback_along" xlink:title="hfiber_pullback_along">
<ellipse fill="#f070d1" stroke="black" cx="1251" cy="-545.61" rx="111.27" ry="18"/>
<ellipse fill="none" stroke="black" cx="1251" cy="-545.61" rx="115.28" ry="22"/>
<ellipse fill="none" stroke="black" cx="1251" cy="-545.61" rx="119.28" ry="26"/>
<text text-anchor="middle" x="1251" y="-541.91" font-family="Times,serif" font-size="14.00">hfiber_pullback_along</text>
</a>
</g>
</g>
<!-- Pullback_pullback_along -->
<g id="node13" class="node">
<title>Pullback_pullback_along</title>
<g id="a_node13"><a xlink:href="Pullback.html#pullback_along" xlink:title="pullback_along">
<ellipse fill="#f070d1" stroke="black" cx="1251" cy="-307.61" rx="79.09" ry="18"/>
<text text-anchor="middle" x="1251" y="-303.91" font-family="Times,serif" font-size="14.00">pullback_along</text>
</a>
</g>
</g>
<!-- Pullback_hfiber_pullback_along&#45;&gt;Pullback_pullback_along -->
<g id="edge15" class="edge">
<title>Pullback_hfiber_pullback_along&#45;&gt;Pullback_pullback_along</title>
<path fill="none" stroke="black" d="M1251,-519.35C1251,-474.66 1251,-382.01 1251,-335.9"/>
<polygon fill="black" stroke="black" points="1254.5,-335.76 1251,-325.76 1247.5,-335.76 1254.5,-335.76"/>
</g>
<!-- Pullback_pullback_along&#45;&gt;Pullback_Pullback -->
<g id="edge16" class="edge">
<title>Pullback_pullback_along&#45;&gt;Pullback_Pullback</title>
<path fill="none" stroke="black" d="M1237.9,-289.82C1208.56,-252.22 1137.48,-161.13 1103.16,-117.16"/>
<polygon fill="black" stroke="black" points="1105.73,-114.76 1096.81,-109.03 1100.21,-119.06 1105.73,-114.76"/>
</g>
<!-- Pullback_IsPullback -->
<g id="node21" class="node">
<title>Pullback_IsPullback</title>
<g id="a_node21"><a xlink:href="Pullback.html#IsPullback" xlink:title="IsPullback">
<ellipse fill="#f070d1" stroke="black" cx="709" cy="-545.61" rx="58.49" ry="18"/>
<text text-anchor="middle" x="709" y="-541.91" font-family="Times,serif" font-size="14.00">IsPullback</text>
</a>
</g>
</g>
<!-- Pullback_isequiv_functor_hfiber_ispullback&#45;&gt;Pullback_IsPullback -->
<g id="edge17" class="edge">
<title>Pullback_isequiv_functor_hfiber_ispullback&#45;&gt;Pullback_IsPullback</title>
<path fill="none" stroke="black" d="M927.1,-765.63C885.84,-724.2 779.9,-617.81 732.52,-570.22"/>
<polygon fill="black" stroke="black" points="734.97,-567.73 725.43,-563.11 730.01,-572.67 734.97,-567.73"/>
</g>
<!-- Pullback_hfiber_pullback_corec -->
<g id="node16" class="node">
<title>Pullback_hfiber_pullback_corec</title>
<g id="a_node16"><a xlink:href="Pullback.html#hfiber_pullback_corec" xlink:title="hfiber_pullback_corec">
<ellipse fill="#f070d1" stroke="black" cx="388" cy="-545.61" rx="110.48" ry="18"/>
<text text-anchor="middle" x="388" y="-541.91" font-family="Times,serif" font-size="14.00">hfiber_pullback_corec</text>
</a>
</g>
</g>
<!-- Pullback_ispullback_isequiv_functor_hfiber&#45;&gt;Pullback_hfiber_pullback_corec -->
<g id="edge18" class="edge">
<title>Pullback_ispullback_isequiv_functor_hfiber&#45;&gt;Pullback_hfiber_pullback_corec</title>
<path fill="none" stroke="black" d="M388,-765.25C388,-724.58 388,-622.84 388,-573.83"/>
<polygon fill="black" stroke="black" points="391.5,-573.67 388,-563.67 384.5,-573.67 391.5,-573.67"/>
</g>
<!-- Pullback_ispullback_isequiv_functor_hfiber&#45;&gt;Pullback_IsPullback -->
<g id="edge19" class="edge">
<title>Pullback_ispullback_isequiv_functor_hfiber&#45;&gt;Pullback_IsPullback</title>
<path fill="none" stroke="black" d="M411.09,-765.63C468.06,-723.74 615.36,-615.45 678.99,-568.67"/>
<polygon fill="black" stroke="black" points="681.41,-571.23 687.4,-562.49 677.27,-565.59 681.41,-571.23"/>
</g>
<!-- Pullback_pullback_corec -->
<g id="node24" class="node">
<title>Pullback_pullback_corec</title>
<g id="a_node24"><a xlink:href="Pullback.html#pullback_corec" xlink:title="pullback_corec">
<ellipse fill="#f070d1" stroke="black" cx="277" cy="-307.61" rx="79.09" ry="18"/>
<text text-anchor="middle" x="277" y="-303.91" font-family="Times,serif" font-size="14.00">pullback_corec</text>
</a>
</g>
</g>
<!-- Pullback_hfiber_pullback_corec&#45;&gt;Pullback_pullback_corec -->
<g id="edge20" class="edge">
<title>Pullback_hfiber_pullback_corec&#45;&gt;Pullback_pullback_corec</title>
<path fill="none" stroke="black" d="M380.02,-527.63C360.9,-487 312.4,-383.87 289.43,-335.03"/>
<polygon fill="black" stroke="black" points="292.48,-333.3 285.06,-325.74 286.15,-336.28 292.48,-333.3"/>
</g>
<!-- Pullback_equiv_sigprod_pullback -->
<g id="node17" class="node">
<title>Pullback_equiv_sigprod_pullback</title>
<g id="a_node17"><a xlink:href="Pullback.html#equiv_sigprod_pullback" xlink:title="equiv_sigprod_pullback">
<ellipse fill="#f070d1" stroke="black" cx="1224" cy="-1020.61" rx="118.88" ry="18"/>
<ellipse fill="none" stroke="black" cx="1224" cy="-1020.61" rx="122.88" ry="22"/>
<ellipse fill="none" stroke="black" cx="1224" cy="-1020.61" rx="126.88" ry="26"/>
<text text-anchor="middle" x="1224" y="-1016.91" font-family="Times,serif" font-size="14.00">equiv_sigprod_pullback</text>
</a>
</g>
</g>
<!-- Pullback_ispullback_sigprod -->
<g id="node18" class="node">
<title>Pullback_ispullback_sigprod</title>
<g id="a_node18"><a xlink:href="Pullback.html#ispullback_sigprod" xlink:title="ispullback_sigprod">
<ellipse fill="#f070d1" stroke="black" cx="1224" cy="-783.61" rx="96.68" ry="18"/>
<text text-anchor="middle" x="1224" y="-779.91" font-family="Times,serif" font-size="14.00">ispullback_sigprod</text>
</a>
</g>
</g>
<!-- Pullback_equiv_sigprod_pullback&#45;&gt;Pullback_ispullback_sigprod -->
<g id="edge21" class="edge">
<title>Pullback_equiv_sigprod_pullback&#45;&gt;Pullback_ispullback_sigprod</title>
<path fill="none" stroke="black" d="M1224,-994.46C1224,-949.95 1224,-857.7 1224,-811.79"/>
<polygon fill="black" stroke="black" points="1227.5,-811.69 1224,-801.69 1220.5,-811.69 1227.5,-811.69"/>
</g>
<!-- Pullback_ispullback_sigprod&#45;&gt;Pullback_IsPullback -->
<g id="edge22" class="edge">
<title>Pullback_ispullback_sigprod&#45;&gt;Pullback_IsPullback</title>
<path fill="none" stroke="black" d="M1189.41,-766.76C1097.52,-724.65 847.66,-610.15 749.43,-565.14"/>
<polygon fill="black" stroke="black" points="750.68,-561.86 740.14,-560.88 747.77,-568.22 750.68,-561.86"/>
</g>
<!-- Pullback_ispullback_symm -->
<g id="node19" class="node">
<title>Pullback_ispullback_symm</title>
<g id="a_node19"><a xlink:href="Pullback.html#ispullback_symm" xlink:title="ispullback_symm">
<ellipse fill="#f070d1" stroke="black" cx="1842" cy="-783.61" rx="89.87" ry="18"/>
<ellipse fill="none" stroke="black" cx="1842" cy="-783.61" rx="93.88" ry="22"/>
<ellipse fill="none" stroke="black" cx="1842" cy="-783.61" rx="97.88" ry="26"/>
<text text-anchor="middle" x="1842" y="-779.91" font-family="Times,serif" font-size="14.00">ispullback_symm</text>
</a>
</g>
</g>
<!-- Pullback_ispullback_symm&#45;&gt;Pullback_IsPullback -->
<g id="edge23" class="edge">
<title>Pullback_ispullback_symm&#45;&gt;Pullback_IsPullback</title>
<path fill="none" stroke="black" d="M1766.78,-766.94C1554.46,-722.71 953.75,-597.59 765.88,-558.46"/>
<polygon fill="black" stroke="black" points="766.44,-555 755.94,-556.38 765.01,-561.85 766.44,-555"/>
</g>
<!-- Pullback_equiv_pullback_symm -->
<g id="node23" class="node">
<title>Pullback_equiv_pullback_symm</title>
<g id="a_node23"><a xlink:href="Pullback.html#equiv_pullback_symm" xlink:title="equiv_pullback_symm">
<ellipse fill="#f070d1" stroke="black" cx="2260" cy="-545.61" rx="111.58" ry="18"/>
<text text-anchor="middle" x="2260" y="-541.91" font-family="Times,serif" font-size="14.00">equiv_pullback_symm</text>
</a>
</g>
</g>
<!-- Pullback_ispullback_symm&#45;&gt;Pullback_equiv_pullback_symm -->
<g id="edge24" class="edge">
<title>Pullback_ispullback_symm&#45;&gt;Pullback_equiv_pullback_symm</title>
<path fill="none" stroke="black" d="M1882.46,-759.76C1963.08,-714.24 2142.79,-612.78 2221.65,-568.26"/>
<polygon fill="black" stroke="black" points="2223.77,-571.08 2230.75,-563.12 2220.32,-564.99 2223.77,-571.08"/>
</g>
<!-- Pullback_equiv_ispullback -->
<g id="node20" class="node">
<title>Pullback_equiv_ispullback</title>
<g id="a_node20"><a xlink:href="Pullback.html#equiv_ispullback" xlink:title="equiv_ispullback">
<ellipse fill="#f070d1" stroke="black" cx="666" cy="-783.61" rx="87.18" ry="18"/>
<ellipse fill="none" stroke="black" cx="666" cy="-783.61" rx="91.18" ry="22"/>
<ellipse fill="none" stroke="black" cx="666" cy="-783.61" rx="95.18" ry="26"/>
<text text-anchor="middle" x="666" y="-779.91" font-family="Times,serif" font-size="14.00">equiv_ispullback</text>
</a>
</g>
</g>
<!-- Pullback_equiv_ispullback&#45;&gt;Pullback_IsPullback -->
<g id="edge25" class="edge">
<title>Pullback_equiv_ispullback&#45;&gt;Pullback_IsPullback</title>
<path fill="none" stroke="black" d="M670.6,-757.35C678.76,-712.56 695.7,-619.62 704.08,-573.61"/>
<polygon fill="black" stroke="black" points="707.53,-574.22 705.88,-563.76 700.64,-572.97 707.53,-574.22"/>
</g>
<!-- Pullback_IsPullback&#45;&gt;Pullback_pullback_corec -->
<g id="edge26" class="edge">
<title>Pullback_IsPullback&#45;&gt;Pullback_pullback_corec</title>
<path fill="none" stroke="black" d="M681.65,-529.67C607.11,-488.95 400.3,-375.97 314.77,-329.24"/>
<polygon fill="black" stroke="black" points="316.37,-326.13 305.92,-324.41 313.02,-332.27 316.37,-326.13"/>
</g>
<!-- Pullback_equiv_pullback_unit_prod -->
<g id="node22" class="node">
<title>Pullback_equiv_pullback_unit_prod</title>
<g id="a_node22"><a xlink:href="Pullback.html#equiv_pullback_unit_prod" xlink:title="equiv_pullback_unit_prod">
<ellipse fill="#f070d1" stroke="black" cx="860" cy="-307.61" rx="128.08" ry="18"/>
<ellipse fill="none" stroke="black" cx="860" cy="-307.61" rx="132.08" ry="22"/>
<ellipse fill="none" stroke="black" cx="860" cy="-307.61" rx="136.08" ry="26"/>
<text text-anchor="middle" x="860" y="-303.91" font-family="Times,serif" font-size="14.00">equiv_pullback_unit_prod</text>
</a>
</g>
</g>
<!-- Pullback_equiv_pullback_unit_prod&#45;&gt;Pullback_Pullback -->
<g id="edge27" class="edge">
<title>Pullback_equiv_pullback_unit_prod&#45;&gt;Pullback_Pullback</title>
<path fill="none" stroke="black" d="M885.7,-282.06C929.29,-240.41 1017.16,-156.46 1059.76,-115.77"/>
<polygon fill="black" stroke="black" points="1062.35,-118.13 1067.16,-108.69 1057.51,-113.07 1062.35,-118.13"/>
</g>
<!-- Pullback_equiv_pullback_symm&#45;&gt;Pullback_Pullback -->
<g id="edge28" class="edge">
<title>Pullback_equiv_pullback_symm&#45;&gt;Pullback_Pullback</title>
<path fill="none" stroke="black" d="M2277.81,-527.54C2322.72,-482.49 2432.43,-358.55 2366,-281.61 2284.56,-187.28 1383.65,-114.65 1142.87,-96.82"/>
<polygon fill="black" stroke="black" points="1142.81,-93.31 1132.58,-96.06 1142.29,-100.29 1142.81,-93.31"/>
</g>
<!-- Pullback_pullback_corec&#45;&gt;Pullback_Pullback -->
<g id="edge29" class="edge">
<title>Pullback_pullback_corec&#45;&gt;Pullback_Pullback</title>
<path fill="none" stroke="black" d="M323.99,-293.07C337.24,-289.31 351.67,-285.25 365,-281.61 616.01,-212.97 917.63,-135.21 1034.44,-105.28"/>
<polygon fill="black" stroke="black" points="1035.36,-108.65 1044.17,-102.78 1033.62,-101.87 1035.36,-108.65"/>
</g>
<!-- Pullback_pullback_commsq -->
<g id="node25" class="node">
<title>Pullback_pullback_commsq</title>
<g id="a_node25"><a xlink:href="Pullback.html#pullback_commsq" xlink:title="pullback_commsq">
<ellipse fill="#f070d1" stroke="black" cx="971" cy="-545.61" rx="92.89" ry="18"/>
<ellipse fill="none" stroke="black" cx="971" cy="-545.61" rx="96.89" ry="22"/>
<ellipse fill="none" stroke="black" cx="971" cy="-545.61" rx="100.88" ry="26"/>
<text text-anchor="middle" x="971" y="-541.91" font-family="Times,serif" font-size="14.00">pullback_commsq</text>
</a>
</g>
</g>
<!-- Pullback_pullback_pr2 -->
<g id="node26" class="node">
<title>Pullback_pullback_pr2</title>
<g id="a_node26"><a xlink:href="Pullback.html#pullback_pr2" xlink:title="pullback_pr2">
<ellipse fill="#f070d1" stroke="black" cx="444" cy="-307.61" rx="70.39" ry="18"/>
<text text-anchor="middle" x="444" y="-303.91" font-family="Times,serif" font-size="14.00">pullback_pr2</text>
</a>
</g>
</g>
<!-- Pullback_pullback_commsq&#45;&gt;Pullback_pullback_pr2 -->
<g id="edge30" class="edge">
<title>Pullback_pullback_commsq&#45;&gt;Pullback_pullback_pr2</title>
<path fill="none" stroke="black" d="M921.89,-522.62C819.15,-476.6 583.02,-370.86 486.39,-327.59"/>
<polygon fill="black" stroke="black" points="487.77,-324.37 477.22,-323.48 484.91,-330.76 487.77,-324.37"/>
</g>
<!-- Pullback_pullback_pr1 -->
<g id="node27" class="node">
<title>Pullback_pullback_pr1</title>
<g id="a_node27"><a xlink:href="Pullback.html#pullback_pr1" xlink:title="pullback_pr1">
<ellipse fill="#f070d1" stroke="black" cx="1084" cy="-307.61" rx="70.39" ry="18"/>
<text text-anchor="middle" x="1084" y="-303.91" font-family="Times,serif" font-size="14.00">pullback_pr1</text>
</a>
</g>
</g>
<!-- Pullback_pullback_commsq&#45;&gt;Pullback_pullback_pr1 -->
<g id="edge31" class="edge">
<title>Pullback_pullback_commsq&#45;&gt;Pullback_pullback_pr1</title>
<path fill="none" stroke="black" d="M983.09,-519.35C1004.63,-474.37 1049.42,-380.83 1071.35,-335.03"/>
<polygon fill="black" stroke="black" points="1074.63,-336.29 1075.79,-325.76 1068.31,-333.27 1074.63,-336.29"/>
</g>
<!-- Pullback_pullback_pr2&#45;&gt;Pullback_Pullback -->
<g id="edge32" class="edge">
<title>Pullback_pullback_pr2&#45;&gt;Pullback_Pullback</title>
<path fill="none" stroke="black" d="M485.01,-292.9C599.19,-254.72 920.16,-147.39 1039,-107.65"/>
<polygon fill="black" stroke="black" points="1040.16,-110.96 1048.54,-104.46 1037.94,-104.32 1040.16,-110.96"/>
</g>
<!-- Pullback_pullback_pr1&#45;&gt;Pullback_Pullback -->
<g id="edge33" class="edge">
<title>Pullback_pullback_pr1&#45;&gt;Pullback_Pullback</title>
<path fill="none" stroke="black" d="M1084,-289.46C1084,-252.44 1084,-164.79 1084,-119.99"/>
<polygon fill="black" stroke="black" points="1087.5,-119.84 1084,-109.84 1080.5,-119.84 1087.5,-119.84"/>
</g>
</g>
</svg>
