<?xml version="1.0" encoding="UTF-8" standalone="no"?>
<!DOCTYPE svg PUBLIC "-//W3C//DTD SVG 1.1//EN"
 "http://www.w3.org/Graphics/SVG/1.1/DTD/svg11.dtd">
<!-- Generated by graphviz version 2.43.0 (0)
 -->
<!-- Title: HoTT_Homotopy_Join Pages: 1 -->
<svg width="1400pt" height="704pt"
 viewBox="0.00 0.00 1400.00 704.00" xmlns="http://www.w3.org/2000/svg" xmlns:xlink="http://www.w3.org/1999/xlink">
<g id="graph0" class="graph" transform="scale(1 1) rotate(0) translate(4 700)">
<title>HoTT_Homotopy_Join</title>
<polygon fill="white" stroke="transparent" points="-4,4 -4,-700 1396,-700 1396,4 -4,4"/>
<g id="clust1" class="cluster">
<title>cluster_Join</title>
<polygon fill="#ffffc3" stroke="black" points="8,-9.49 8,-686.51 1384,-686.51 1384,-9.49 8,-9.49"/>
<text text-anchor="middle" x="30" y="-671.31" font-family="Times,serif" font-size="14.00">Join</text>
</g>
<!-- Join_diamond_twist -->
<g id="node1" class="node">
<title>Join_diamond_twist</title>
<g id="a_node1"><a xlink:href="Join.html#diamond_twist" xlink:title="diamond_twist">
<ellipse fill="#f070d1" stroke="black" cx="1062" cy="-618.49" rx="78.77" ry="18"/>
<ellipse fill="none" stroke="black" cx="1062" cy="-618.49" rx="82.78" ry="22"/>
<ellipse fill="none" stroke="black" cx="1062" cy="-618.49" rx="86.79" ry="26"/>
<text text-anchor="middle" x="1062" y="-614.79" font-family="Times,serif" font-size="14.00">diamond_twist</text>
</a>
</g>
</g>
<!-- Join_diamond_symm -->
<g id="node2" class="node">
<title>Join_diamond_symm</title>
<g id="a_node2"><a xlink:href="Join.html#diamond_symm" xlink:title="diamond_symm">
<ellipse fill="#f070d1" stroke="black" cx="1062" cy="-514.49" rx="83.39" ry="18"/>
<text text-anchor="middle" x="1062" y="-510.79" font-family="Times,serif" font-size="14.00">diamond_symm</text>
</a>
</g>
</g>
<!-- Join_diamond_twist&#45;&gt;Join_diamond_symm -->
<g id="edge1" class="edge">
<title>Join_diamond_twist&#45;&gt;Join_diamond_symm</title>
<path fill="none" stroke="black" d="M1062,-592.27C1062,-577.37 1062,-558.47 1062,-543.16"/>
<polygon fill="black" stroke="black" points="1065.5,-542.74 1062,-532.74 1058.5,-542.74 1065.5,-542.74"/>
</g>
<!-- Join_diamond_v -->
<g id="node3" class="node">
<title>Join_diamond_v</title>
<g id="a_node3"><a xlink:href="Join.html#diamond_v" xlink:title="diamond_v">
<ellipse fill="#f070d1" stroke="black" cx="1021" cy="-410.49" rx="60.39" ry="18"/>
<text text-anchor="middle" x="1021" y="-406.79" font-family="Times,serif" font-size="14.00">diamond_v</text>
</a>
</g>
</g>
<!-- Join_diamond_symm&#45;&gt;Join_diamond_v -->
<g id="edge2" class="edge">
<title>Join_diamond_symm&#45;&gt;Join_diamond_v</title>
<path fill="none" stroke="black" d="M1055.04,-496.18C1048.62,-480.19 1038.97,-456.19 1031.58,-437.81"/>
<polygon fill="black" stroke="black" points="1034.83,-436.51 1027.85,-428.53 1028.33,-439.12 1034.83,-436.51"/>
</g>
<!-- Join_diamond_h -->
<g id="node4" class="node">
<title>Join_diamond_h</title>
<g id="a_node4"><a xlink:href="Join.html#diamond_h" xlink:title="diamond_h">
<ellipse fill="#f070d1" stroke="black" cx="1161" cy="-410.49" rx="61.19" ry="18"/>
<text text-anchor="middle" x="1161" y="-406.79" font-family="Times,serif" font-size="14.00">diamond_h</text>
</a>
</g>
</g>
<!-- Join_diamond_symm&#45;&gt;Join_diamond_h -->
<g id="edge3" class="edge">
<title>Join_diamond_symm&#45;&gt;Join_diamond_h</title>
<path fill="none" stroke="black" d="M1078.35,-496.64C1094.49,-480.01 1119.35,-454.4 1137.59,-435.61"/>
<polygon fill="black" stroke="black" points="1140.5,-437.63 1144.96,-428.02 1135.48,-432.75 1140.5,-437.63"/>
</g>
<!-- Join_Diamond -->
<g id="node5" class="node">
<title>Join_Diamond</title>
<g id="a_node5"><a xlink:href="Join.html#Diamond" xlink:title="Diamond">
<ellipse fill="#f070d1" stroke="black" cx="964" cy="-305.49" rx="51.99" ry="18"/>
<text text-anchor="middle" x="964" y="-301.79" font-family="Times,serif" font-size="14.00">Diamond</text>
</a>
</g>
</g>
<!-- Join_diamond_v&#45;&gt;Join_Diamond -->
<g id="edge4" class="edge">
<title>Join_diamond_v&#45;&gt;Join_Diamond</title>
<path fill="none" stroke="black" d="M1011.59,-392.48C1002.55,-376.15 988.78,-351.27 978.37,-332.46"/>
<polygon fill="black" stroke="black" points="981.33,-330.57 973.43,-323.52 975.21,-333.96 981.33,-330.57"/>
</g>
<!-- Join_diamond_h&#45;&gt;Join_Diamond -->
<g id="edge5" class="edge">
<title>Join_diamond_h&#45;&gt;Join_Diamond</title>
<path fill="none" stroke="black" d="M1132.35,-394.51C1097.53,-376.3 1038.7,-345.54 1000.62,-325.63"/>
<polygon fill="black" stroke="black" points="1001.89,-322.35 991.41,-320.82 998.65,-328.55 1001.89,-322.35"/>
</g>
<!-- Join_jglue -->
<g id="node22" class="node">
<title>Join_jglue</title>
<g id="a_node22"><a xlink:href="Join.html#jglue" xlink:title="jglue">
<ellipse fill="#f070d1" stroke="black" cx="745" cy="-211.49" rx="33.6" ry="18"/>
<text text-anchor="middle" x="745" y="-207.79" font-family="Times,serif" font-size="14.00">jglue</text>
</a>
</g>
</g>
<!-- Join_Diamond&#45;&gt;Join_jglue -->
<g id="edge6" class="edge">
<title>Join_Diamond&#45;&gt;Join_jglue</title>
<path fill="none" stroke="black" d="M932.16,-291.11C891.65,-274.09 821.95,-244.81 780,-227.19"/>
<polygon fill="black" stroke="black" points="781.3,-223.94 770.73,-223.29 778.59,-230.39 781.3,-223.94"/>
</g>
<!-- Join_isconnected_join -->
<g id="node6" class="node">
<title>Join_isconnected_join</title>
<g id="a_node6"><a xlink:href="Join.html#isconnected_join" xlink:title="isconnected_join">
<ellipse fill="#f070d1" stroke="black" cx="1129" cy="-305.49" rx="87.18" ry="18"/>
<ellipse fill="none" stroke="black" cx="1129" cy="-305.49" rx="91.18" ry="22"/>
<ellipse fill="none" stroke="black" cx="1129" cy="-305.49" rx="95.18" ry="26"/>
<text text-anchor="middle" x="1129" y="-301.79" font-family="Times,serif" font-size="14.00">isconnected_join</text>
</a>
</g>
</g>
<!-- Join_isconnected_join&#45;&gt;Join_jglue -->
<g id="edge7" class="edge">
<title>Join_isconnected_join&#45;&gt;Join_jglue</title>
<path fill="none" stroke="black" d="M1059.35,-287.73C1047.88,-284.98 1036.11,-282.15 1025,-279.49 939.61,-259.01 839.56,-235.08 785.18,-222.09"/>
<polygon fill="black" stroke="black" points="785.79,-218.63 775.25,-219.71 784.16,-225.44 785.79,-218.63"/>
</g>
<!-- Join_equiv_join_hor -->
<g id="node7" class="node">
<title>Join_equiv_join_hor</title>
<g id="a_node7"><a xlink:href="Join.html#equiv_join_hor" xlink:title="equiv_join_hor">
<ellipse fill="#f070d1" stroke="black" cx="1291" cy="-514.49" rx="77.2" ry="18"/>
<ellipse fill="none" stroke="black" cx="1291" cy="-514.49" rx="81.19" ry="22"/>
<ellipse fill="none" stroke="black" cx="1291" cy="-514.49" rx="85.19" ry="26"/>
<text text-anchor="middle" x="1291" y="-510.79" font-family="Times,serif" font-size="14.00">equiv_join_hor</text>
</a>
</g>
</g>
<!-- Join_ishprop_join -->
<g id="node8" class="node">
<title>Join_ishprop_join</title>
<g id="a_node8"><a xlink:href="Join.html#ishprop_join" xlink:title="ishprop_join">
<ellipse fill="#f070d1" stroke="black" cx="1308" cy="-410.49" rx="67.69" ry="18"/>
<text text-anchor="middle" x="1308" y="-406.79" font-family="Times,serif" font-size="14.00">ishprop_join</text>
</a>
</g>
</g>
<!-- Join_equiv_join_hor&#45;&gt;Join_ishprop_join -->
<g id="edge8" class="edge">
<title>Join_equiv_join_hor&#45;&gt;Join_ishprop_join</title>
<path fill="none" stroke="black" d="M1295.2,-488.27C1297.71,-473.22 1300.9,-454.1 1303.46,-438.71"/>
<polygon fill="black" stroke="black" points="1306.93,-439.18 1305.12,-428.74 1300.03,-438.03 1306.93,-439.18"/>
</g>
<!-- Join_join_sym -->
<g id="node16" class="node">
<title>Join_join_sym</title>
<g id="a_node16"><a xlink:href="Join.html#join_sym" xlink:title="join_sym">
<ellipse fill="#f070d1" stroke="black" cx="1127" cy="-211.49" rx="51.19" ry="18"/>
<text text-anchor="middle" x="1127" y="-207.79" font-family="Times,serif" font-size="14.00">join_sym</text>
</a>
</g>
</g>
<!-- Join_ishprop_join&#45;&gt;Join_join_sym -->
<g id="edge9" class="edge">
<title>Join_ishprop_join&#45;&gt;Join_join_sym</title>
<path fill="none" stroke="black" d="M1325.49,-393C1350.95,-366.98 1392.38,-315.63 1365,-279.49 1343.21,-250.72 1247.38,-230.84 1184.16,-220.58"/>
<polygon fill="black" stroke="black" points="1184.35,-217.06 1173.92,-218.95 1183.25,-223.98 1184.35,-217.06"/>
</g>
<!-- Join_contr_join -->
<g id="node17" class="node">
<title>Join_contr_join</title>
<g id="a_node17"><a xlink:href="Join.html#contr_join" xlink:title="contr_join">
<ellipse fill="#f070d1" stroke="black" cx="1299" cy="-305.49" rx="56.59" ry="18"/>
<text text-anchor="middle" x="1299" y="-301.79" font-family="Times,serif" font-size="14.00">contr_join</text>
</a>
</g>
</g>
<!-- Join_ishprop_join&#45;&gt;Join_contr_join -->
<g id="edge10" class="edge">
<title>Join_ishprop_join&#45;&gt;Join_contr_join</title>
<path fill="none" stroke="black" d="M1306.51,-392.48C1305.11,-376.45 1302.99,-352.17 1301.36,-333.5"/>
<polygon fill="black" stroke="black" points="1304.85,-333.18 1300.49,-323.52 1297.87,-333.79 1304.85,-333.18"/>
</g>
<!-- Join_equiv_functor_join -->
<g id="node9" class="node">
<title>Join_equiv_functor_join</title>
<g id="a_node9"><a xlink:href="Join.html#equiv_functor_join" xlink:title="equiv_functor_join">
<ellipse fill="#f070d1" stroke="black" cx="606" cy="-514.49" rx="95.58" ry="18"/>
<ellipse fill="none" stroke="black" cx="606" cy="-514.49" rx="99.58" ry="22"/>
<ellipse fill="none" stroke="black" cx="606" cy="-514.49" rx="103.58" ry="26"/>
<text text-anchor="middle" x="606" y="-510.79" font-family="Times,serif" font-size="14.00">equiv_functor_join</text>
</a>
</g>
</g>
<!-- Join_isequiv_functor_join -->
<g id="node10" class="node">
<title>Join_isequiv_functor_join</title>
<g id="a_node10"><a xlink:href="Join.html#isequiv_functor_join" xlink:title="isequiv_functor_join">
<ellipse fill="#f070d1" stroke="black" cx="606" cy="-410.49" rx="103.18" ry="18"/>
<text text-anchor="middle" x="606" y="-406.79" font-family="Times,serif" font-size="14.00">isequiv_functor_join</text>
</a>
</g>
</g>
<!-- Join_equiv_functor_join&#45;&gt;Join_isequiv_functor_join -->
<g id="edge11" class="edge">
<title>Join_equiv_functor_join&#45;&gt;Join_isequiv_functor_join</title>
<path fill="none" stroke="black" d="M606,-488.27C606,-473.37 606,-454.47 606,-439.16"/>
<polygon fill="black" stroke="black" points="609.5,-438.74 606,-428.74 602.5,-438.74 609.5,-438.74"/>
</g>
<!-- Join_functor_join -->
<g id="node13" class="node">
<title>Join_functor_join</title>
<g id="a_node13"><a xlink:href="Join.html#functor_join" xlink:title="functor_join">
<ellipse fill="#f070d1" stroke="black" cx="391" cy="-305.49" rx="65.79" ry="18"/>
<text text-anchor="middle" x="391" y="-301.79" font-family="Times,serif" font-size="14.00">functor_join</text>
</a>
</g>
</g>
<!-- Join_isequiv_functor_join&#45;&gt;Join_functor_join -->
<g id="edge12" class="edge">
<title>Join_isequiv_functor_join&#45;&gt;Join_functor_join</title>
<path fill="none" stroke="black" d="M572.41,-393.39C534.28,-375.12 472.1,-345.34 431.37,-325.83"/>
<polygon fill="black" stroke="black" points="432.79,-322.63 422.26,-321.46 429.77,-328.94 432.79,-322.63"/>
</g>
<!-- Join_join_natsq_v -->
<g id="node15" class="node">
<title>Join_join_natsq_v</title>
<g id="a_node15"><a xlink:href="Join.html#join_natsq_v" xlink:title="join_natsq_v">
<ellipse fill="#f070d1" stroke="black" cx="826" cy="-305.49" rx="67.69" ry="18"/>
<text text-anchor="middle" x="826" y="-301.79" font-family="Times,serif" font-size="14.00">join_natsq_v</text>
</a>
</g>
</g>
<!-- Join_isequiv_functor_join&#45;&gt;Join_join_natsq_v -->
<g id="edge13" class="edge">
<title>Join_isequiv_functor_join&#45;&gt;Join_join_natsq_v</title>
<path fill="none" stroke="black" d="M640.38,-393.39C679.39,-375.12 743.01,-345.34 784.69,-325.83"/>
<polygon fill="black" stroke="black" points="786.44,-328.87 794.01,-321.46 783.47,-322.53 786.44,-328.87"/>
</g>
<!-- Join_Join_rec_beta_jglue -->
<g id="node18" class="node">
<title>Join_Join_rec_beta_jglue</title>
<g id="a_node18"><a xlink:href="Join.html#Join_rec_beta_jglue" xlink:title="Join_rec_beta_jglue">
<ellipse fill="#f070d1" stroke="black" cx="208" cy="-305.49" rx="99.38" ry="18"/>
<text text-anchor="middle" x="208" y="-301.79" font-family="Times,serif" font-size="14.00">Join_rec_beta_jglue</text>
</a>
</g>
</g>
<!-- Join_isequiv_functor_join&#45;&gt;Join_Join_rec_beta_jglue -->
<g id="edge14" class="edge">
<title>Join_isequiv_functor_join&#45;&gt;Join_Join_rec_beta_jglue</title>
<path fill="none" stroke="black" d="M550.66,-395.16C477.79,-376.3 349.88,-343.2 272.64,-323.21"/>
<polygon fill="black" stroke="black" points="273.11,-319.72 262.55,-320.6 271.36,-326.5 273.11,-319.72"/>
</g>
<!-- Join_Join_ind -->
<g id="node21" class="node">
<title>Join_Join_ind</title>
<g id="a_node21"><a xlink:href="Join.html#Join_ind" xlink:title="Join_ind">
<ellipse fill="#f070d1" stroke="black" cx="522" cy="-305.49" rx="47.39" ry="18"/>
<text text-anchor="middle" x="522" y="-301.79" font-family="Times,serif" font-size="14.00">Join_ind</text>
</a>
</g>
</g>
<!-- Join_isequiv_functor_join&#45;&gt;Join_Join_ind -->
<g id="edge15" class="edge">
<title>Join_isequiv_functor_join&#45;&gt;Join_Join_ind</title>
<path fill="none" stroke="black" d="M592.13,-392.48C578.41,-375.65 557.28,-349.74 541.8,-330.76"/>
<polygon fill="black" stroke="black" points="544.37,-328.38 535.34,-322.84 538.94,-332.8 544.37,-328.38"/>
</g>
<!-- Join_functor_join_idmap -->
<g id="node11" class="node">
<title>Join_functor_join_idmap</title>
<g id="a_node11"><a xlink:href="Join.html#functor_join_idmap" xlink:title="functor_join_idmap">
<ellipse fill="#f070d1" stroke="black" cx="123" cy="-410.49" rx="98.6" ry="18"/>
<ellipse fill="none" stroke="black" cx="123" cy="-410.49" rx="102.59" ry="22"/>
<ellipse fill="none" stroke="black" cx="123" cy="-410.49" rx="106.58" ry="26"/>
<text text-anchor="middle" x="123" y="-406.79" font-family="Times,serif" font-size="14.00">functor_join_idmap</text>
</a>
</g>
</g>
<!-- Join_functor_join_idmap&#45;&gt;Join_functor_join -->
<g id="edge16" class="edge">
<title>Join_functor_join_idmap&#45;&gt;Join_functor_join</title>
<path fill="none" stroke="black" d="M178.53,-388.14C227.77,-369.22 298.83,-341.91 344.97,-324.18"/>
<polygon fill="black" stroke="black" points="346.34,-327.4 354.42,-320.54 343.83,-320.86 346.34,-327.4"/>
</g>
<!-- Join_functor_join_idmap&#45;&gt;Join_Join_rec_beta_jglue -->
<g id="edge17" class="edge">
<title>Join_functor_join_idmap&#45;&gt;Join_Join_rec_beta_jglue</title>
<path fill="none" stroke="black" d="M143.36,-384.81C156.66,-368.7 173.97,-347.72 187.33,-331.53"/>
<polygon fill="black" stroke="black" points="190.25,-333.49 193.92,-323.55 184.85,-329.03 190.25,-333.49"/>
</g>
<!-- Join_functor_join_idmap&#45;&gt;Join_Join_ind -->
<g id="edge18" class="edge">
<title>Join_functor_join_idmap&#45;&gt;Join_Join_ind</title>
<path fill="none" stroke="black" d="M201.1,-392.57C294.39,-372.24 441.05,-339.8 466,-331.49 472.16,-329.43 478.57,-326.93 484.76,-324.32"/>
<polygon fill="black" stroke="black" points="486.47,-327.4 494.23,-320.18 483.66,-320.98 486.47,-327.4"/>
</g>
<!-- Join_functor_join_compose -->
<g id="node12" class="node">
<title>Join_functor_join_compose</title>
<g id="a_node12"><a xlink:href="Join.html#functor_join_compose" xlink:title="functor_join_compose">
<ellipse fill="#f070d1" stroke="black" cx="366" cy="-410.49" rx="110.48" ry="18"/>
<ellipse fill="none" stroke="black" cx="366" cy="-410.49" rx="114.48" ry="22"/>
<ellipse fill="none" stroke="black" cx="366" cy="-410.49" rx="118.48" ry="26"/>
<text text-anchor="middle" x="366" y="-406.79" font-family="Times,serif" font-size="14.00">functor_join_compose</text>
</a>
</g>
</g>
<!-- Join_functor_join_compose&#45;&gt;Join_functor_join -->
<g id="edge19" class="edge">
<title>Join_functor_join_compose&#45;&gt;Join_functor_join</title>
<path fill="none" stroke="black" d="M372.12,-384.29C375.83,-369 380.57,-349.48 384.37,-333.81"/>
<polygon fill="black" stroke="black" points="387.87,-334.23 386.82,-323.69 381.06,-332.58 387.87,-334.23"/>
</g>
<!-- Join_functor_join_compose&#45;&gt;Join_Join_rec_beta_jglue -->
<g id="edge20" class="edge">
<title>Join_functor_join_compose&#45;&gt;Join_Join_rec_beta_jglue</title>
<path fill="none" stroke="black" d="M329.35,-385.6C303.1,-368.48 267.97,-345.58 242.27,-328.83"/>
<polygon fill="black" stroke="black" points="243.89,-325.71 233.61,-323.18 240.07,-331.57 243.89,-325.71"/>
</g>
<!-- Join_functor_join_compose&#45;&gt;Join_Join_ind -->
<g id="edge21" class="edge">
<title>Join_functor_join_compose&#45;&gt;Join_Join_ind</title>
<path fill="none" stroke="black" d="M402.18,-385.6C428.91,-367.95 464.95,-344.16 490.5,-327.29"/>
<polygon fill="black" stroke="black" points="492.65,-330.06 499.07,-321.63 488.79,-324.22 492.65,-330.06"/>
</g>
<!-- Join_Join_rec -->
<g id="node19" class="node">
<title>Join_Join_rec</title>
<g id="a_node19"><a xlink:href="Join.html#Join_rec" xlink:title="Join_rec">
<ellipse fill="#f070d1" stroke="black" cx="391" cy="-211.49" rx="47.39" ry="18"/>
<text text-anchor="middle" x="391" y="-207.79" font-family="Times,serif" font-size="14.00">Join_rec</text>
</a>
</g>
</g>
<!-- Join_functor_join&#45;&gt;Join_Join_rec -->
<g id="edge22" class="edge">
<title>Join_functor_join&#45;&gt;Join_Join_rec</title>
<path fill="none" stroke="black" d="M391,-287.18C391,-273.95 391,-255.43 391,-240.15"/>
<polygon fill="black" stroke="black" points="394.5,-239.71 391,-229.71 387.5,-239.71 394.5,-239.71"/>
</g>
<!-- Join_functor_join&#45;&gt;Join_jglue -->
<g id="edge23" class="edge">
<title>Join_functor_join&#45;&gt;Join_jglue</title>
<path fill="none" stroke="black" d="M429.73,-290.87C441.33,-286.98 454.12,-282.88 466,-279.49 549.91,-255.47 649.65,-232.95 704.25,-221.12"/>
<polygon fill="black" stroke="black" points="705.19,-224.5 714.22,-218.97 703.71,-217.65 705.19,-224.5"/>
</g>
<!-- Join_join_natsq_h -->
<g id="node14" class="node">
<title>Join_join_natsq_h</title>
<g id="a_node14"><a xlink:href="Join.html#join_natsq_h" xlink:title="join_natsq_h">
<ellipse fill="#f070d1" stroke="black" cx="664" cy="-305.49" rx="68.46" ry="18"/>
<ellipse fill="none" stroke="black" cx="664" cy="-305.49" rx="72.48" ry="22"/>
<ellipse fill="none" stroke="black" cx="664" cy="-305.49" rx="76.49" ry="26"/>
<text text-anchor="middle" x="664" y="-301.79" font-family="Times,serif" font-size="14.00">join_natsq_h</text>
</a>
</g>
</g>
<!-- Join_join_natsq_h&#45;&gt;Join_jglue -->
<g id="edge24" class="edge">
<title>Join_join_natsq_h&#45;&gt;Join_jglue</title>
<path fill="none" stroke="black" d="M685.28,-280.31C697.43,-266.52 712.58,-249.31 724.58,-235.68"/>
<polygon fill="black" stroke="black" points="727.25,-237.94 731.23,-228.12 722,-233.31 727.25,-237.94"/>
</g>
<!-- Join_join_natsq_v&#45;&gt;Join_jglue -->
<g id="edge25" class="edge">
<title>Join_join_natsq_v&#45;&gt;Join_jglue</title>
<path fill="none" stroke="black" d="M811.14,-287.61C798.39,-273.12 779.86,-252.08 765.66,-235.95"/>
<polygon fill="black" stroke="black" points="767.92,-233.22 758.68,-228.03 762.66,-237.85 767.92,-233.22"/>
</g>
<!-- Join_Join -->
<g id="node25" class="node">
<title>Join_Join</title>
<g id="a_node25"><a xlink:href="Join.html#Join" xlink:title="Join">
<ellipse fill="#f070d1" stroke="black" cx="744" cy="-40.49" rx="28.7" ry="18"/>
<text text-anchor="middle" x="744" y="-36.79" font-family="Times,serif" font-size="14.00">Join</text>
</a>
</g>
</g>
<!-- Join_join_sym&#45;&gt;Join_Join -->
<g id="edge26" class="edge">
<title>Join_join_sym&#45;&gt;Join_Join</title>
<path fill="none" stroke="black" d="M1096.3,-196.94C1025.1,-165.52 849.22,-87.91 776.39,-55.78"/>
<polygon fill="black" stroke="black" points="777.38,-52.39 766.82,-51.55 774.55,-58.79 777.38,-52.39"/>
</g>
<!-- Join_contr_join&#45;&gt;Join_jglue -->
<g id="edge27" class="edge">
<title>Join_contr_join&#45;&gt;Join_jglue</title>
<path fill="none" stroke="black" d="M1266.57,-290.54C1256.03,-286.45 1244.16,-282.33 1233,-279.49 1072.1,-238.53 874.57,-221.16 788.51,-215.16"/>
<polygon fill="black" stroke="black" points="788.55,-211.65 778.34,-214.46 788.08,-218.63 788.55,-211.65"/>
</g>
<!-- Join_Join_rec_beta_jglue&#45;&gt;Join_Join_rec -->
<g id="edge28" class="edge">
<title>Join_Join_rec_beta_jglue&#45;&gt;Join_Join_rec</title>
<path fill="none" stroke="black" d="M240.3,-288.25C272.28,-272.17 321.17,-247.59 354.54,-230.82"/>
<polygon fill="black" stroke="black" points="356.14,-233.93 363.51,-226.31 353,-227.67 356.14,-233.93"/>
</g>
<!-- Join_Join_rec_beta_jglue&#45;&gt;Join_jglue -->
<g id="edge29" class="edge">
<title>Join_Join_rec_beta_jglue&#45;&gt;Join_jglue</title>
<path fill="none" stroke="black" d="M264.45,-290.61C281.01,-286.75 299.18,-282.74 316,-279.49 456.66,-252.26 624.92,-228.53 702.27,-218.11"/>
<polygon fill="black" stroke="black" points="703.12,-221.53 712.57,-216.73 702.19,-214.59 703.12,-221.53"/>
</g>
<!-- Join_Join_rec&#45;&gt;Join_Join -->
<g id="edge30" class="edge">
<title>Join_Join_rec&#45;&gt;Join_Join</title>
<path fill="none" stroke="black" d="M419.29,-196.94C484.32,-165.81 644.06,-89.33 712.28,-56.67"/>
<polygon fill="black" stroke="black" points="714.15,-59.66 721.66,-52.18 711.13,-53.34 714.15,-59.66"/>
</g>
<!-- Join_Join_ind_beta_jglue -->
<g id="node20" class="node">
<title>Join_Join_ind_beta_jglue</title>
<g id="a_node20"><a xlink:href="Join.html#Join_ind_beta_jglue" xlink:title="Join_ind_beta_jglue">
<ellipse fill="#f070d1" stroke="black" cx="835" cy="-410.49" rx="99.39" ry="18"/>
<ellipse fill="none" stroke="black" cx="835" cy="-410.49" rx="103.38" ry="22"/>
<ellipse fill="none" stroke="black" cx="835" cy="-410.49" rx="107.38" ry="26"/>
<text text-anchor="middle" x="835" y="-406.79" font-family="Times,serif" font-size="14.00">Join_ind_beta_jglue</text>
</a>
</g>
</g>
<!-- Join_Join_ind_beta_jglue&#45;&gt;Join_Join_ind -->
<g id="edge31" class="edge">
<title>Join_Join_ind_beta_jglue&#45;&gt;Join_Join_ind</title>
<path fill="none" stroke="black" d="M765.27,-390.64C713.38,-376.03 641.09,-354.47 579,-331.49 572.88,-329.22 566.48,-326.63 560.27,-324"/>
<polygon fill="black" stroke="black" points="561.3,-320.63 550.73,-319.87 558.51,-327.06 561.3,-320.63"/>
</g>
<!-- Join_Join_ind&#45;&gt;Join_jglue -->
<g id="edge32" class="edge">
<title>Join_Join_ind&#45;&gt;Join_jglue</title>
<path fill="none" stroke="black" d="M551.51,-291.34C560.33,-287.47 570.04,-283.26 579,-279.49 623.58,-260.72 675.31,-240.01 709.02,-226.65"/>
<polygon fill="black" stroke="black" points="710.44,-229.85 718.45,-222.92 707.86,-223.34 710.44,-229.85"/>
</g>
<!-- Join_joinr -->
<g id="node23" class="node">
<title>Join_joinr</title>
<g id="a_node23"><a xlink:href="Join.html#joinr" xlink:title="joinr">
<ellipse fill="#f070d1" stroke="black" cx="704" cy="-125.49" rx="32.49" ry="18"/>
<text text-anchor="middle" x="704" y="-121.79" font-family="Times,serif" font-size="14.00">joinr</text>
</a>
</g>
</g>
<!-- Join_jglue&#45;&gt;Join_joinr -->
<g id="edge33" class="edge">
<title>Join_jglue&#45;&gt;Join_joinr</title>
<path fill="none" stroke="black" d="M736.9,-193.89C731.12,-182.04 723.22,-165.87 716.62,-152.33"/>
<polygon fill="black" stroke="black" points="719.62,-150.5 712.08,-143.05 713.32,-153.57 719.62,-150.5"/>
</g>
<!-- Join_joinl -->
<g id="node24" class="node">
<title>Join_joinl</title>
<g id="a_node24"><a xlink:href="Join.html#joinl" xlink:title="joinl">
<ellipse fill="#f070d1" stroke="black" cx="785" cy="-125.49" rx="30.59" ry="18"/>
<text text-anchor="middle" x="785" y="-121.79" font-family="Times,serif" font-size="14.00">joinl</text>
</a>
</g>
</g>
<!-- Join_jglue&#45;&gt;Join_joinl -->
<g id="edge34" class="edge">
<title>Join_jglue&#45;&gt;Join_joinl</title>
<path fill="none" stroke="black" d="M752.9,-193.89C758.55,-182.04 766.25,-165.87 772.69,-152.33"/>
<polygon fill="black" stroke="black" points="775.97,-153.58 777.11,-143.05 769.65,-150.57 775.97,-153.58"/>
</g>
<!-- Join_joinr&#45;&gt;Join_Join -->
<g id="edge35" class="edge">
<title>Join_joinr&#45;&gt;Join_Join</title>
<path fill="none" stroke="black" d="M712.09,-107.69C717.72,-96.03 725.31,-80.27 731.68,-67.05"/>
<polygon fill="black" stroke="black" points="734.87,-68.5 736.05,-57.97 728.56,-65.46 734.87,-68.5"/>
</g>
<!-- Join_joinl&#45;&gt;Join_Join -->
<g id="edge36" class="edge">
<title>Join_joinl&#45;&gt;Join_Join</title>
<path fill="none" stroke="black" d="M776.9,-108.09C771.12,-96.38 763.22,-80.4 756.62,-67.03"/>
<polygon fill="black" stroke="black" points="759.65,-65.27 752.08,-57.85 753.37,-68.37 759.65,-65.27"/>
</g>
</g>
</svg>
