<?xml version="1.0" encoding="UTF-8" standalone="no"?>
<!DOCTYPE svg PUBLIC "-//W3C//DTD SVG 1.1//EN"
 "http://www.w3.org/Graphics/SVG/1.1/DTD/svg11.dtd">
<!-- Generated by graphviz version 2.43.0 (0)
 -->
<!-- Title: HoTT_WildCat_Type Pages: 1 -->
<svg width="1262pt" height="635pt"
 viewBox="0.00 0.00 1262.00 635.00" xmlns="http://www.w3.org/2000/svg" xmlns:xlink="http://www.w3.org/1999/xlink">
<g id="graph0" class="graph" transform="scale(1 1) rotate(0) translate(4 631)">
<title>HoTT_WildCat_Type</title>
<polygon fill="white" stroke="transparent" points="-4,4 -4,-631 1258,-631 1258,4 -4,4"/>
<g id="clust1" class="cluster">
<title>cluster_Type</title>
<polygon fill="#ffffc3" stroke="black" points="13.05,-8 13.05,-619 1240.95,-619 1240.95,-8 13.05,-8"/>
<text text-anchor="middle" x="38.55" y="-603.8" font-family="Times,serif" font-size="14.00">Type</text>
</g>
<!-- Type_isterminal_unit -->
<g id="node1" class="node">
<title>Type_isterminal_unit</title>
<g id="a_node1"><a xlink:href="Type.html#isterminal_unit" xlink:title="isterminal_unit">
<ellipse fill="#f070d1" stroke="black" cx="1082.28" cy="-474" rx="81.46" ry="18"/>
<ellipse fill="none" stroke="black" cx="1082.28" cy="-474" rx="85.48" ry="22"/>
<ellipse fill="none" stroke="black" cx="1082.28" cy="-474" rx="89.49" ry="26"/>
<text text-anchor="middle" x="1082.28" y="-470.3" font-family="Times,serif" font-size="14.00">isterminal_unit</text>
</a>
</g>
</g>
<!-- Type_is1cat_strong_type -->
<g id="node6" class="node">
<title>Type_is1cat_strong_type</title>
<g id="a_node6"><a xlink:href="Type.html#is1cat_strong_type" xlink:title="is1cat_strong_type">
<ellipse fill="#f070d1" stroke="black" cx="711.28" cy="-394" rx="98.28" ry="18"/>
<text text-anchor="middle" x="711.28" y="-390.3" font-family="Times,serif" font-size="14.00">is1cat_strong_type</text>
</a>
</g>
</g>
<!-- Type_isterminal_unit&#45;&gt;Type_is1cat_strong_type -->
<g id="edge1" class="edge">
<title>Type_isterminal_unit&#45;&gt;Type_is1cat_strong_type</title>
<path fill="none" stroke="black" d="M1011.19,-458.05C945.65,-444.27 848.84,-423.92 783.08,-410.09"/>
<polygon fill="black" stroke="black" points="783.71,-406.65 773.21,-408.02 782.27,-413.5 783.71,-406.65"/>
</g>
<!-- Type_isinitial_zero -->
<g id="node2" class="node">
<title>Type_isinitial_zero</title>
<g id="a_node2"><a xlink:href="Type.html#isinitial_zero" xlink:title="isinitial_zero">
<ellipse fill="#f070d1" stroke="black" cx="781.28" cy="-474" rx="69.58" ry="18"/>
<ellipse fill="none" stroke="black" cx="781.28" cy="-474" rx="73.59" ry="22"/>
<ellipse fill="none" stroke="black" cx="781.28" cy="-474" rx="77.59" ry="26"/>
<text text-anchor="middle" x="781.28" y="-470.3" font-family="Times,serif" font-size="14.00">isinitial_zero</text>
</a>
</g>
</g>
<!-- Type_isinitial_zero&#45;&gt;Type_is1cat_strong_type -->
<g id="edge2" class="edge">
<title>Type_isinitial_zero&#45;&gt;Type_is1cat_strong_type</title>
<path fill="none" stroke="black" d="M759.52,-448.75C751.12,-439.38 741.52,-428.69 733.11,-419.32"/>
<polygon fill="black" stroke="black" points="735.66,-416.92 726.38,-411.82 730.45,-421.6 735.66,-416.92"/>
</g>
<!-- Type_catie_isequiv -->
<g id="node3" class="node">
<title>Type_catie_isequiv</title>
<g id="a_node3"><a xlink:href="Type.html#catie_isequiv" xlink:title="catie_isequiv">
<ellipse fill="#f070d1" stroke="black" cx="492.28" cy="-562" rx="70.7" ry="18"/>
<ellipse fill="none" stroke="black" cx="492.28" cy="-562" rx="74.7" ry="22"/>
<ellipse fill="none" stroke="black" cx="492.28" cy="-562" rx="78.69" ry="26"/>
<text text-anchor="middle" x="492.28" y="-558.3" font-family="Times,serif" font-size="14.00">catie_isequiv</text>
</a>
</g>
</g>
<!-- Type_hasequivs_type -->
<g id="node4" class="node">
<title>Type_hasequivs_type</title>
<g id="a_node4"><a xlink:href="Type.html#hasequivs_type" xlink:title="hasequivs_type">
<ellipse fill="#f070d1" stroke="black" cx="492.28" cy="-474" rx="81.79" ry="18"/>
<text text-anchor="middle" x="492.28" y="-470.3" font-family="Times,serif" font-size="14.00">hasequivs_type</text>
</a>
</g>
</g>
<!-- Type_catie_isequiv&#45;&gt;Type_hasequivs_type -->
<g id="edge3" class="edge">
<title>Type_catie_isequiv&#45;&gt;Type_hasequivs_type</title>
<path fill="none" stroke="black" d="M492.28,-535.66C492.28,-525.11 492.28,-512.84 492.28,-502.1"/>
<polygon fill="black" stroke="black" points="495.78,-502 492.28,-492 488.78,-502 495.78,-502"/>
</g>
<!-- Type_hasequivs_type&#45;&gt;Type_is1cat_strong_type -->
<g id="edge4" class="edge">
<title>Type_hasequivs_type&#45;&gt;Type_is1cat_strong_type</title>
<path fill="none" stroke="black" d="M533.48,-458.33C569,-445.68 620.49,-427.34 658.93,-413.65"/>
<polygon fill="black" stroke="black" points="660.16,-416.92 668.41,-410.27 657.81,-410.33 660.16,-416.92"/>
</g>
<!-- Type_hasmorext_type -->
<g id="node5" class="node">
<title>Type_hasmorext_type</title>
<g id="a_node5"><a xlink:href="Type.html#hasmorext_type" xlink:title="hasmorext_type">
<ellipse fill="#f070d1" stroke="black" cx="177.28" cy="-474" rx="85.27" ry="18"/>
<ellipse fill="none" stroke="black" cx="177.28" cy="-474" rx="89.28" ry="22"/>
<ellipse fill="none" stroke="black" cx="177.28" cy="-474" rx="93.29" ry="26"/>
<text text-anchor="middle" x="177.28" y="-470.3" font-family="Times,serif" font-size="14.00">hasmorext_type</text>
</a>
</g>
</g>
<!-- Type_hasmorext_type&#45;&gt;Type_is1cat_strong_type -->
<g id="edge5" class="edge">
<title>Type_hasmorext_type&#45;&gt;Type_is1cat_strong_type</title>
<path fill="none" stroke="black" d="M258.39,-461.15C357.96,-446.61 526.02,-422.06 627.02,-407.31"/>
<polygon fill="black" stroke="black" points="627.79,-410.73 637.18,-405.82 626.78,-403.81 627.79,-410.73"/>
</g>
<!-- Type_is0functor_type_precomp -->
<g id="node7" class="node">
<title>Type_is0functor_type_precomp</title>
<g id="a_node7"><a xlink:href="Type.html#is0functor_type_precomp" xlink:title="is0functor_type_precomp">
<ellipse fill="#f070d1" stroke="black" cx="257.28" cy="-250" rx="128.08" ry="18"/>
<text text-anchor="middle" x="257.28" y="-246.3" font-family="Times,serif" font-size="14.00">is0functor_type_precomp</text>
</a>
</g>
</g>
<!-- Type_is1cat_strong_type&#45;&gt;Type_is0functor_type_precomp -->
<g id="edge6" class="edge">
<title>Type_is1cat_strong_type&#45;&gt;Type_is0functor_type_precomp</title>
<path fill="none" stroke="black" d="M663.98,-378.21C580.72,-352.16 408.15,-298.19 316.88,-269.64"/>
<polygon fill="black" stroke="black" points="317.82,-266.27 307.23,-266.62 315.73,-272.95 317.82,-266.27"/>
</g>
<!-- Type_is0functor_type_postcomp -->
<g id="node8" class="node">
<title>Type_is0functor_type_postcomp</title>
<g id="a_node8"><a xlink:href="Type.html#is0functor_type_postcomp" xlink:title="is0functor_type_postcomp">
<ellipse fill="#f070d1" stroke="black" cx="711.28" cy="-250" rx="131.88" ry="18"/>
<text text-anchor="middle" x="711.28" y="-246.3" font-family="Times,serif" font-size="14.00">is0functor_type_postcomp</text>
</a>
</g>
</g>
<!-- Type_is1cat_strong_type&#45;&gt;Type_is0functor_type_postcomp -->
<g id="edge7" class="edge">
<title>Type_is1cat_strong_type&#45;&gt;Type_is0functor_type_postcomp</title>
<path fill="none" stroke="black" d="M711.28,-375.87C711.28,-351.67 711.28,-307.21 711.28,-278.39"/>
<polygon fill="black" stroke="black" points="714.78,-278.19 711.28,-268.19 707.78,-278.19 714.78,-278.19"/>
</g>
<!-- Type_is0gpd_arrow -->
<g id="node9" class="node">
<title>Type_is0gpd_arrow</title>
<g id="a_node9"><a xlink:href="Type.html#is0gpd_arrow" xlink:title="is0gpd_arrow">
<ellipse fill="#f070d1" stroke="black" cx="970.28" cy="-322" rx="73.39" ry="18"/>
<text text-anchor="middle" x="970.28" y="-318.3" font-family="Times,serif" font-size="14.00">is0gpd_arrow</text>
</a>
</g>
</g>
<!-- Type_is1cat_strong_type&#45;&gt;Type_is0gpd_arrow -->
<g id="edge8" class="edge">
<title>Type_is1cat_strong_type&#45;&gt;Type_is0gpd_arrow</title>
<path fill="none" stroke="black" d="M764.01,-378.75C807.32,-367.04 868.57,-350.49 913.07,-338.46"/>
<polygon fill="black" stroke="black" points="914.12,-341.8 922.86,-335.82 912.3,-335.05 914.12,-341.8"/>
</g>
<!-- Type_isgraph_arrow -->
<g id="node11" class="node">
<title>Type_isgraph_arrow</title>
<g id="a_node11"><a xlink:href="Type.html#isgraph_arrow" xlink:title="isgraph_arrow">
<ellipse fill="#f070d1" stroke="black" cx="711.28" cy="-178" rx="77.19" ry="18"/>
<text text-anchor="middle" x="711.28" y="-174.3" font-family="Times,serif" font-size="14.00">isgraph_arrow</text>
</a>
</g>
</g>
<!-- Type_is0functor_type_precomp&#45;&gt;Type_isgraph_arrow -->
<g id="edge9" class="edge">
<title>Type_is0functor_type_precomp&#45;&gt;Type_isgraph_arrow</title>
<path fill="none" stroke="black" d="M340.03,-236.24C425.38,-223.08 557.2,-202.76 638.64,-190.2"/>
<polygon fill="black" stroke="black" points="639.46,-193.62 648.81,-188.63 638.39,-186.7 639.46,-193.62"/>
</g>
<!-- Type_is01cat_type -->
<g id="node13" class="node">
<title>Type_is01cat_type</title>
<g id="a_node13"><a xlink:href="Type.html#is01cat_type" xlink:title="is01cat_type">
<ellipse fill="#f070d1" stroke="black" cx="442.28" cy="-178" rx="69.59" ry="18"/>
<text text-anchor="middle" x="442.28" y="-174.3" font-family="Times,serif" font-size="14.00">is01cat_type</text>
</a>
</g>
</g>
<!-- Type_is0functor_type_precomp&#45;&gt;Type_is01cat_type -->
<g id="edge10" class="edge">
<title>Type_is0functor_type_precomp&#45;&gt;Type_is01cat_type</title>
<path fill="none" stroke="black" d="M299.73,-232.94C328.19,-222.17 365.71,-207.98 395.11,-196.85"/>
<polygon fill="black" stroke="black" points="396.63,-200.02 404.74,-193.2 394.15,-193.47 396.63,-200.02"/>
</g>
<!-- Type_is0functor_type_postcomp&#45;&gt;Type_isgraph_arrow -->
<g id="edge11" class="edge">
<title>Type_is0functor_type_postcomp&#45;&gt;Type_isgraph_arrow</title>
<path fill="none" stroke="black" d="M711.28,-231.7C711.28,-223.98 711.28,-214.71 711.28,-206.11"/>
<polygon fill="black" stroke="black" points="714.78,-206.1 711.28,-196.1 707.78,-206.1 714.78,-206.1"/>
</g>
<!-- Type_is0functor_type_postcomp&#45;&gt;Type_is01cat_type -->
<g id="edge12" class="edge">
<title>Type_is0functor_type_postcomp&#45;&gt;Type_is01cat_type</title>
<path fill="none" stroke="black" d="M652.92,-233.81C607.52,-222 544.87,-205.7 499.72,-193.95"/>
<polygon fill="black" stroke="black" points="500.35,-190.49 489.79,-191.36 498.58,-197.27 500.35,-190.49"/>
</g>
<!-- Type_is01cat_arrow -->
<g id="node10" class="node">
<title>Type_is01cat_arrow</title>
<g id="a_node10"><a xlink:href="Type.html#is01cat_arrow" xlink:title="is01cat_arrow">
<ellipse fill="#f070d1" stroke="black" cx="1079.28" cy="-250" rx="76.09" ry="18"/>
<text text-anchor="middle" x="1079.28" y="-246.3" font-family="Times,serif" font-size="14.00">is01cat_arrow</text>
</a>
</g>
</g>
<!-- Type_is0gpd_arrow&#45;&gt;Type_is01cat_arrow -->
<g id="edge13" class="edge">
<title>Type_is0gpd_arrow&#45;&gt;Type_is01cat_arrow</title>
<path fill="none" stroke="black" d="M995.29,-304.94C1010.14,-295.4 1029.17,-283.18 1045.36,-272.79"/>
<polygon fill="black" stroke="black" points="1047.49,-275.58 1054.02,-267.23 1043.71,-269.69 1047.49,-275.58"/>
</g>
<!-- Type_is01cat_arrow&#45;&gt;Type_isgraph_arrow -->
<g id="edge14" class="edge">
<title>Type_is01cat_arrow&#45;&gt;Type_isgraph_arrow</title>
<path fill="none" stroke="black" d="M1021.78,-238.06C956.18,-225.58 848.99,-205.19 779.29,-191.94"/>
<polygon fill="black" stroke="black" points="779.77,-188.46 769.29,-190.03 778.46,-195.34 779.77,-188.46"/>
</g>
<!-- Type_is2graph_type -->
<g id="node12" class="node">
<title>Type_is2graph_type</title>
<g id="a_node12"><a xlink:href="Type.html#is2graph_type" xlink:title="is2graph_type">
<ellipse fill="#f070d1" stroke="black" cx="681.28" cy="-106" rx="76.89" ry="18"/>
<text text-anchor="middle" x="681.28" y="-102.3" font-family="Times,serif" font-size="14.00">is2graph_type</text>
</a>
</g>
</g>
<!-- Type_isgraph_arrow&#45;&gt;Type_is2graph_type -->
<g id="edge15" class="edge">
<title>Type_isgraph_arrow&#45;&gt;Type_is2graph_type</title>
<path fill="none" stroke="black" d="M704.02,-160.05C700.61,-152.09 696.46,-142.41 692.65,-133.51"/>
<polygon fill="black" stroke="black" points="695.84,-132.09 688.69,-124.28 689.41,-134.85 695.84,-132.09"/>
</g>
<!-- Type_isgraph_type -->
<g id="node14" class="node">
<title>Type_isgraph_type</title>
<g id="a_node14"><a xlink:href="Type.html#isgraph_type" xlink:title="isgraph_type">
<ellipse fill="#f070d1" stroke="black" cx="548.28" cy="-34" rx="70.69" ry="18"/>
<text text-anchor="middle" x="548.28" y="-30.3" font-family="Times,serif" font-size="14.00">isgraph_type</text>
</a>
</g>
</g>
<!-- Type_is2graph_type&#45;&gt;Type_isgraph_type -->
<g id="edge16" class="edge">
<title>Type_is2graph_type&#45;&gt;Type_isgraph_type</title>
<path fill="none" stroke="black" d="M651.44,-89.29C632.31,-79.22 607.3,-66.06 586.69,-55.22"/>
<polygon fill="black" stroke="black" points="588.05,-51.98 577.58,-50.42 584.79,-58.17 588.05,-51.98"/>
</g>
<!-- Type_is01cat_type&#45;&gt;Type_isgraph_type -->
<g id="edge17" class="edge">
<title>Type_is01cat_type&#45;&gt;Type_isgraph_type</title>
<path fill="none" stroke="black" d="M454.86,-160.15C473.35,-135.39 507.99,-88.97 529.5,-60.16"/>
<polygon fill="black" stroke="black" points="532.55,-61.93 535.73,-51.82 526.94,-57.74 532.55,-61.93"/>
</g>
</g>
</svg>
