<?xml version="1.0" encoding="UTF-8" standalone="no"?>
<!DOCTYPE svg PUBLIC "-//W3C//DTD SVG 1.1//EN"
 "http://www.w3.org/Graphics/SVG/1.1/DTD/svg11.dtd">
<!-- Generated by graphviz version 2.43.0 (0)
 -->
<!-- Title: HoTT_HSet Pages: 1 -->
<svg width="1850pt" height="929pt"
 viewBox="0.00 0.00 1850.00 929.00" xmlns="http://www.w3.org/2000/svg" xmlns:xlink="http://www.w3.org/1999/xlink">
<g id="graph0" class="graph" transform="scale(1 1) rotate(0) translate(4 925)">
<title>HoTT_HSet</title>
<polygon fill="white" stroke="transparent" points="-4,4 -4,-925 1846,-925 1846,4 -4,4"/>
<g id="clust1" class="cluster">
<title>cluster_HSet</title>
<polygon fill="#ffffc3" stroke="black" points="8,-22.81 8,-898.19 1834,-898.19 1834,-22.81 8,-22.81"/>
<text text-anchor="middle" x="34.5" y="-882.99" font-family="Times,serif" font-size="14.00">HSet</text>
</g>
<!-- HSet_ismono_isequiv -->
<g id="node1" class="node">
<title>HSet_ismono_isequiv</title>
<g id="a_node1"><a xlink:href="HSet.html#ismono_isequiv" xlink:title="ismono_isequiv">
<ellipse fill="#f070d1" stroke="black" cx="1737" cy="-735.81" rx="81.46" ry="18"/>
<ellipse fill="none" stroke="black" cx="1737" cy="-735.81" rx="85.48" ry="22"/>
<ellipse fill="none" stroke="black" cx="1737" cy="-735.81" rx="89.49" ry="26"/>
<text text-anchor="middle" x="1737" y="-732.11" font-family="Times,serif" font-size="14.00">ismono_isequiv</text>
</a>
</g>
</g>
<!-- HSet_ismono -->
<g id="node8" class="node">
<title>HSet_ismono</title>
<g id="a_node8"><a xlink:href="HSet.html#ismono" xlink:title="ismono">
<ellipse fill="#f070d1" stroke="black" cx="1554" cy="-507.81" rx="44.39" ry="18"/>
<text text-anchor="middle" x="1554" y="-504.11" font-family="Times,serif" font-size="14.00">ismono</text>
</a>
</g>
</g>
<!-- HSet_ismono_isequiv&#45;&gt;HSet_ismono -->
<g id="edge1" class="edge">
<title>HSet_ismono_isequiv&#45;&gt;HSet_ismono</title>
<path fill="none" stroke="black" d="M1717.07,-710.19C1681.81,-666.65 1608.85,-576.55 1573.73,-533.18"/>
<polygon fill="black" stroke="black" points="1576.25,-530.73 1567.24,-525.16 1570.81,-535.13 1576.25,-530.73"/>
</g>
<!-- HSet_isinj_ismono -->
<g id="node2" class="node">
<title>HSet_isinj_ismono</title>
<g id="a_node2"><a xlink:href="HSet.html#isinj_ismono" xlink:title="isinj_ismono">
<ellipse fill="#f070d1" stroke="black" cx="1554" cy="-735.81" rx="67.68" ry="18"/>
<ellipse fill="none" stroke="black" cx="1554" cy="-735.81" rx="71.68" ry="22"/>
<ellipse fill="none" stroke="black" cx="1554" cy="-735.81" rx="75.69" ry="26"/>
<text text-anchor="middle" x="1554" y="-732.11" font-family="Times,serif" font-size="14.00">isinj_ismono</text>
</a>
</g>
</g>
<!-- HSet_isinj -->
<g id="node7" class="node">
<title>HSet_isinj</title>
<g id="a_node7"><a xlink:href="HSet.html#isinj" xlink:title="isinj">
<ellipse fill="#f070d1" stroke="black" cx="1165" cy="-507.81" rx="30.59" ry="18"/>
<text text-anchor="middle" x="1165" y="-504.11" font-family="Times,serif" font-size="14.00">isinj</text>
</a>
</g>
</g>
<!-- HSet_isinj_ismono&#45;&gt;HSet_isinj -->
<g id="edge2" class="edge">
<title>HSet_isinj_ismono&#45;&gt;HSet_isinj</title>
<path fill="none" stroke="black" d="M1516.7,-713.14C1439.72,-668.42 1264.6,-566.68 1194.66,-526.04"/>
<polygon fill="black" stroke="black" points="1196.3,-522.95 1185.89,-520.95 1192.78,-529 1196.3,-522.95"/>
</g>
<!-- HSet_isinj_ismono&#45;&gt;HSet_ismono -->
<g id="edge3" class="edge">
<title>HSet_isinj_ismono&#45;&gt;HSet_ismono</title>
<path fill="none" stroke="black" d="M1554,-709.76C1554,-666.97 1554,-580.16 1554,-535.97"/>
<polygon fill="black" stroke="black" points="1557.5,-535.96 1554,-525.96 1550.5,-535.96 1557.5,-535.96"/>
</g>
<!-- HSet_ismono_isinj -->
<g id="node3" class="node">
<title>HSet_ismono_isinj</title>
<g id="a_node3"><a xlink:href="HSet.html#ismono_isinj" xlink:title="ismono_isinj">
<ellipse fill="#f070d1" stroke="black" cx="1385" cy="-735.81" rx="67.68" ry="18"/>
<ellipse fill="none" stroke="black" cx="1385" cy="-735.81" rx="71.68" ry="22"/>
<ellipse fill="none" stroke="black" cx="1385" cy="-735.81" rx="75.69" ry="26"/>
<text text-anchor="middle" x="1385" y="-732.11" font-family="Times,serif" font-size="14.00">ismono_isinj</text>
</a>
</g>
</g>
<!-- HSet_ismono_isinj&#45;&gt;HSet_isinj -->
<g id="edge4" class="edge">
<title>HSet_ismono_isinj&#45;&gt;HSet_isinj</title>
<path fill="none" stroke="black" d="M1361.87,-711.05C1319.19,-667.2 1228.59,-574.13 1186.87,-531.27"/>
<polygon fill="black" stroke="black" points="1189.15,-528.6 1179.67,-523.88 1184.13,-533.49 1189.15,-528.6"/>
</g>
<!-- HSet_ismono_isinj&#45;&gt;HSet_ismono -->
<g id="edge5" class="edge">
<title>HSet_ismono_isinj&#45;&gt;HSet_ismono</title>
<path fill="none" stroke="black" d="M1403.41,-710.19C1435.97,-666.65 1503.34,-576.55 1535.78,-533.18"/>
<polygon fill="black" stroke="black" points="1538.59,-535.26 1541.77,-525.16 1532.98,-531.07 1538.59,-535.26"/>
</g>
<!-- HSet_isembedding_isinj_hset -->
<g id="node4" class="node">
<title>HSet_isembedding_isinj_hset</title>
<g id="a_node4"><a xlink:href="HSet.html#isembedding_isinj_hset" xlink:title="isembedding_isinj_hset">
<ellipse fill="#f070d1" stroke="black" cx="1165" cy="-735.81" rx="118.09" ry="18"/>
<ellipse fill="none" stroke="black" cx="1165" cy="-735.81" rx="122.09" ry="22"/>
<ellipse fill="none" stroke="black" cx="1165" cy="-735.81" rx="126.08" ry="26"/>
<text text-anchor="middle" x="1165" y="-732.11" font-family="Times,serif" font-size="14.00">isembedding_isinj_hset</text>
</a>
</g>
</g>
<!-- HSet_isembedding_isinj_hset&#45;&gt;HSet_isinj -->
<g id="edge6" class="edge">
<title>HSet_isembedding_isinj_hset&#45;&gt;HSet_isinj</title>
<path fill="none" stroke="black" d="M1165,-709.76C1165,-666.97 1165,-580.16 1165,-535.97"/>
<polygon fill="black" stroke="black" points="1168.5,-535.96 1165,-525.96 1161.5,-535.96 1168.5,-535.96"/>
</g>
<!-- HSet_isinj_section -->
<g id="node5" class="node">
<title>HSet_isinj_section</title>
<g id="a_node5"><a xlink:href="HSet.html#isinj_section" xlink:title="isinj_section">
<ellipse fill="#f070d1" stroke="black" cx="945" cy="-735.81" rx="67.68" ry="18"/>
<ellipse fill="none" stroke="black" cx="945" cy="-735.81" rx="71.68" ry="22"/>
<ellipse fill="none" stroke="black" cx="945" cy="-735.81" rx="75.69" ry="26"/>
<text text-anchor="middle" x="945" y="-732.11" font-family="Times,serif" font-size="14.00">isinj_section</text>
</a>
</g>
</g>
<!-- HSet_isinj_section&#45;&gt;HSet_isinj -->
<g id="edge7" class="edge">
<title>HSet_isinj_section&#45;&gt;HSet_isinj</title>
<path fill="none" stroke="black" d="M968.13,-711.05C1010.81,-667.2 1101.41,-574.13 1143.13,-531.27"/>
<polygon fill="black" stroke="black" points="1145.87,-533.49 1150.33,-523.88 1140.85,-528.6 1145.87,-533.49"/>
</g>
<!-- HSet_isinj_embedding -->
<g id="node6" class="node">
<title>HSet_isinj_embedding</title>
<g id="a_node6"><a xlink:href="HSet.html#isinj_embedding" xlink:title="isinj_embedding">
<ellipse fill="#f070d1" stroke="black" cx="757" cy="-735.81" rx="86.39" ry="18"/>
<ellipse fill="none" stroke="black" cx="757" cy="-735.81" rx="90.39" ry="22"/>
<ellipse fill="none" stroke="black" cx="757" cy="-735.81" rx="94.38" ry="26"/>
<text text-anchor="middle" x="757" y="-732.11" font-family="Times,serif" font-size="14.00">isinj_embedding</text>
</a>
</g>
</g>
<!-- HSet_isinj_embedding&#45;&gt;HSet_isinj -->
<g id="edge8" class="edge">
<title>HSet_isinj_embedding&#45;&gt;HSet_isinj</title>
<path fill="none" stroke="black" d="M797.61,-712.32C879.21,-667.12 1061.45,-566.17 1134.17,-525.89"/>
<polygon fill="black" stroke="black" points="1136.23,-528.75 1143.28,-520.84 1132.84,-522.62 1136.23,-528.75"/>
</g>
<!-- HSet_isequiv_hrel_subpaths -->
<g id="node9" class="node">
<title>HSet_isequiv_hrel_subpaths</title>
<g id="a_node9"><a xlink:href="HSet.html#isequiv_hrel_subpaths" xlink:title="isequiv_hrel_subpaths">
<ellipse fill="#f070d1" stroke="black" cx="523" cy="-735.81" rx="113.96" ry="18"/>
<ellipse fill="none" stroke="black" cx="523" cy="-735.81" rx="117.97" ry="22"/>
<ellipse fill="none" stroke="black" cx="523" cy="-735.81" rx="121.98" ry="26"/>
<text text-anchor="middle" x="523" y="-732.11" font-family="Times,serif" font-size="14.00">isequiv_hrel_subpaths</text>
</a>
</g>
</g>
<!-- HSet_ishset_hrel_subpaths -->
<g id="node10" class="node">
<title>HSet_ishset_hrel_subpaths</title>
<g id="a_node10"><a xlink:href="HSet.html#ishset_hrel_subpaths" xlink:title="ishset_hrel_subpaths">
<ellipse fill="#f070d1" stroke="black" cx="514" cy="-507.81" rx="108.58" ry="18"/>
<text text-anchor="middle" x="514" y="-504.11" font-family="Times,serif" font-size="14.00">ishset_hrel_subpaths</text>
</a>
</g>
</g>
<!-- HSet_isequiv_hrel_subpaths&#45;&gt;HSet_ishset_hrel_subpaths -->
<g id="edge9" class="edge">
<title>HSet_isequiv_hrel_subpaths&#45;&gt;HSet_ishset_hrel_subpaths</title>
<path fill="none" stroke="black" d="M522,-709.76C520.3,-666.97 516.84,-580.16 515.08,-535.97"/>
<polygon fill="black" stroke="black" points="518.58,-535.81 514.68,-525.96 511.58,-536.09 518.58,-535.81"/>
</g>
<!-- HSet_hset_axiomK -->
<g id="node15" class="node">
<title>HSet_hset_axiomK</title>
<g id="a_node15"><a xlink:href="HSet.html#hset_axiomK" xlink:title="hset_axiomK">
<ellipse fill="#f070d1" stroke="black" cx="376" cy="-301.81" rx="69.59" ry="18"/>
<text text-anchor="middle" x="376" y="-298.11" font-family="Times,serif" font-size="14.00">hset_axiomK</text>
</a>
</g>
</g>
<!-- HSet_ishset_hrel_subpaths&#45;&gt;HSet_hset_axiomK -->
<g id="edge10" class="edge">
<title>HSet_ishset_hrel_subpaths&#45;&gt;HSet_hset_axiomK</title>
<path fill="none" stroke="black" d="M502.47,-489.77C478.16,-453.83 421.53,-370.12 393.03,-327.99"/>
<polygon fill="black" stroke="black" points="395.9,-325.98 387.4,-319.66 390.1,-329.91 395.9,-325.98"/>
</g>
<!-- HSet_axiomK_idpath -->
<g id="node11" class="node">
<title>HSet_axiomK_idpath</title>
<g id="a_node11"><a xlink:href="HSet.html#axiomK_idpath" xlink:title="axiomK_idpath">
<ellipse fill="#f070d1" stroke="black" cx="296" cy="-735.81" rx="79.11" ry="18"/>
<ellipse fill="none" stroke="black" cx="296" cy="-735.81" rx="83.1" ry="22"/>
<ellipse fill="none" stroke="black" cx="296" cy="-735.81" rx="87.09" ry="26"/>
<text text-anchor="middle" x="296" y="-732.11" font-family="Times,serif" font-size="14.00">axiomK_idpath</text>
</a>
</g>
</g>
<!-- HSet_hset_path2 -->
<g id="node12" class="node">
<title>HSet_hset_path2</title>
<g id="a_node12"><a xlink:href="HSet.html#hset_path2" xlink:title="hset_path2">
<ellipse fill="#f070d1" stroke="black" cx="295" cy="-507.81" rx="61.99" ry="18"/>
<text text-anchor="middle" x="295" y="-504.11" font-family="Times,serif" font-size="14.00">hset_path2</text>
</a>
</g>
</g>
<!-- HSet_axiomK_idpath&#45;&gt;HSet_hset_path2 -->
<g id="edge11" class="edge">
<title>HSet_axiomK_idpath&#45;&gt;HSet_hset_path2</title>
<path fill="none" stroke="black" d="M295.89,-709.76C295.7,-666.97 295.32,-580.16 295.12,-535.97"/>
<polygon fill="black" stroke="black" points="298.62,-535.94 295.08,-525.96 291.62,-535.97 298.62,-535.94"/>
</g>
<!-- HSet_axiomK_idpath&#45;&gt;HSet_hset_axiomK -->
<g id="edge12" class="edge">
<title>HSet_axiomK_idpath&#45;&gt;HSet_hset_axiomK</title>
<path fill="none" stroke="black" d="M306.84,-710C323.09,-671.45 353.22,-594.47 366,-525.81 378.95,-456.24 378.51,-372.46 377.2,-330.13"/>
<polygon fill="black" stroke="black" points="380.69,-329.93 376.84,-320.06 373.7,-330.18 380.69,-329.93"/>
</g>
<!-- HSet_axiomK_hset -->
<g id="node16" class="node">
<title>HSet_axiomK_hset</title>
<g id="a_node16"><a xlink:href="HSet.html#axiomK_hset" xlink:title="axiomK_hset">
<ellipse fill="#f070d1" stroke="black" cx="219" cy="-301.81" rx="69.59" ry="18"/>
<text text-anchor="middle" x="219" y="-298.11" font-family="Times,serif" font-size="14.00">axiomK_hset</text>
</a>
</g>
</g>
<!-- HSet_hset_path2&#45;&gt;HSet_axiomK_hset -->
<g id="edge13" class="edge">
<title>HSet_hset_path2&#45;&gt;HSet_axiomK_hset</title>
<path fill="none" stroke="black" d="M288.65,-489.77C275.41,-454.22 244.75,-371.93 228.9,-329.37"/>
<polygon fill="black" stroke="black" points="232.16,-328.1 225.38,-319.95 225.6,-330.54 232.16,-328.1"/>
</g>
<!-- HSet_axiomK_isprop -->
<g id="node13" class="node">
<title>HSet_axiomK_isprop</title>
<g id="a_node13"><a xlink:href="HSet.html#axiomK_isprop" xlink:title="axiomK_isprop">
<ellipse fill="#f070d1" stroke="black" cx="103" cy="-735.81" rx="79.11" ry="18"/>
<ellipse fill="none" stroke="black" cx="103" cy="-735.81" rx="83.1" ry="22"/>
<ellipse fill="none" stroke="black" cx="103" cy="-735.81" rx="87.09" ry="26"/>
<text text-anchor="middle" x="103" y="-732.11" font-family="Times,serif" font-size="14.00">axiomK_isprop</text>
</a>
</g>
</g>
<!-- HSet_equiv_hset_axiomK -->
<g id="node14" class="node">
<title>HSet_equiv_hset_axiomK</title>
<g id="a_node14"><a xlink:href="HSet.html#equiv_hset_axiomK" xlink:title="equiv_hset_axiomK">
<ellipse fill="#f070d1" stroke="black" cx="116" cy="-507.81" rx="99.38" ry="18"/>
<text text-anchor="middle" x="116" y="-504.11" font-family="Times,serif" font-size="14.00">equiv_hset_axiomK</text>
</a>
</g>
</g>
<!-- HSet_axiomK_isprop&#45;&gt;HSet_equiv_hset_axiomK -->
<g id="edge14" class="edge">
<title>HSet_axiomK_isprop&#45;&gt;HSet_equiv_hset_axiomK</title>
<path fill="none" stroke="black" d="M104.44,-709.76C106.9,-666.97 111.9,-580.16 114.44,-535.97"/>
<polygon fill="black" stroke="black" points="117.93,-536.14 115.01,-525.96 110.95,-535.74 117.93,-536.14"/>
</g>
<!-- HSet_equiv_hset_axiomK&#45;&gt;HSet_hset_axiomK -->
<g id="edge15" class="edge">
<title>HSet_equiv_hset_axiomK&#45;&gt;HSet_hset_axiomK</title>
<path fill="none" stroke="black" d="M137.28,-490.12C183.79,-453.63 294.55,-366.72 347.22,-325.39"/>
<polygon fill="black" stroke="black" points="349.45,-328.09 355.16,-319.17 345.13,-322.59 349.45,-328.09"/>
</g>
<!-- HSet_equiv_hset_axiomK&#45;&gt;HSet_axiomK_hset -->
<g id="edge16" class="edge">
<title>HSet_equiv_hset_axiomK&#45;&gt;HSet_axiomK_hset</title>
<path fill="none" stroke="black" d="M124.6,-489.77C142.59,-454.14 184.28,-371.58 205.72,-329.1"/>
<polygon fill="black" stroke="black" points="208.96,-330.45 210.35,-319.95 202.72,-327.3 208.96,-330.45"/>
</g>
<!-- HSet_axiomK -->
<g id="node17" class="node">
<title>HSet_axiomK</title>
<g id="a_node17"><a xlink:href="HSet.html#axiomK" xlink:title="axiomK">
<ellipse fill="#f070d1" stroke="black" cx="297" cy="-96.81" rx="45.49" ry="18"/>
<text text-anchor="middle" x="297" y="-93.11" font-family="Times,serif" font-size="14.00">axiomK</text>
</a>
</g>
</g>
<!-- HSet_hset_axiomK&#45;&gt;HSet_axiomK -->
<g id="edge17" class="edge">
<title>HSet_hset_axiomK&#45;&gt;HSet_axiomK</title>
<path fill="none" stroke="black" d="M369.4,-283.85C355.63,-248.48 323.77,-166.59 307.29,-124.24"/>
<polygon fill="black" stroke="black" points="310.52,-122.91 303.64,-114.86 304,-125.45 310.52,-122.91"/>
</g>
<!-- HSet_axiomK_hset&#45;&gt;HSet_axiomK -->
<g id="edge18" class="edge">
<title>HSet_axiomK_hset&#45;&gt;HSet_axiomK</title>
<path fill="none" stroke="black" d="M225.52,-283.85C239.11,-248.48 270.57,-166.59 286.84,-124.24"/>
<polygon fill="black" stroke="black" points="290.13,-125.45 290.45,-114.86 283.59,-122.94 290.13,-125.45"/>
</g>
</g>
</svg>
