<?xml version="1.0" encoding="UTF-8" standalone="no"?>
<!DOCTYPE svg PUBLIC "-//W3C//DTD SVG 1.1//EN"
 "http://www.w3.org/Graphics/SVG/1.1/DTD/svg11.dtd">
<!-- Generated by graphviz version 2.43.0 (0)
 -->
<!-- Title: HoTT_Homotopy_Wedge Pages: 1 -->
<svg width="366pt" height="187pt"
 viewBox="0.00 0.00 366.00 187.00" xmlns="http://www.w3.org/2000/svg" xmlns:xlink="http://www.w3.org/1999/xlink">
<g id="graph0" class="graph" transform="scale(1 1) rotate(0) translate(4 183)">
<title>HoTT_Homotopy_Wedge</title>
<polygon fill="white" stroke="transparent" points="-4,4 -4,-183 362,-183 362,4 -4,4"/>
<g id="clust1" class="cluster">
<title>cluster_Wedge</title>
<polygon fill="#ffffc3" stroke="black" points="10.16,-8 10.16,-171 347.84,-171 347.84,-8 10.16,-8"/>
<text text-anchor="middle" x="42.66" y="-155.8" font-family="Times,serif" font-size="14.00">Wedge</text>
</g>
<!-- Wedge_wedge_incl -->
<g id="node1" class="node">
<title>Wedge_wedge_incl</title>
<g id="a_node1"><a xlink:href="Wedge.html#wedge_incl" xlink:title="wedge_incl">
<ellipse fill="#f070d1" stroke="black" cx="248.36" cy="-114" rx="61.96" ry="18"/>
<ellipse fill="none" stroke="black" cx="248.36" cy="-114" rx="65.98" ry="22"/>
<ellipse fill="none" stroke="black" cx="248.36" cy="-114" rx="69.99" ry="26"/>
<text text-anchor="middle" x="248.36" y="-110.3" font-family="Times,serif" font-size="14.00">wedge_incl</text>
</a>
</g>
</g>
<!-- Wedge_Wedge -->
<g id="node3" class="node">
<title>Wedge_Wedge</title>
<g id="a_node3"><a xlink:href="Wedge.html#Wedge" xlink:title="Wedge">
<ellipse fill="#f070d1" stroke="black" cx="163.36" cy="-34" rx="42.49" ry="18"/>
<text text-anchor="middle" x="163.36" y="-30.3" font-family="Times,serif" font-size="14.00">Wedge</text>
</a>
</g>
</g>
<!-- Wedge_wedge_incl&#45;&gt;Wedge_Wedge -->
<g id="edge1" class="edge">
<title>Wedge_wedge_incl&#45;&gt;Wedge_Wedge</title>
<path fill="none" stroke="black" d="M222.86,-89.6C211.84,-79.49 199,-67.7 188.07,-57.67"/>
<polygon fill="black" stroke="black" points="190.24,-54.91 180.51,-50.73 185.51,-60.07 190.24,-54.91"/>
</g>
<!-- Wedge_wglue -->
<g id="node2" class="node">
<title>Wedge_wglue</title>
<g id="a_node2"><a xlink:href="Wedge.html#wglue" xlink:title="wglue">
<ellipse fill="#f070d1" stroke="black" cx="78.36" cy="-114" rx="38.22" ry="18"/>
<ellipse fill="none" stroke="black" cx="78.36" cy="-114" rx="42.21" ry="22"/>
<ellipse fill="none" stroke="black" cx="78.36" cy="-114" rx="46.19" ry="26"/>
<text text-anchor="middle" x="78.36" y="-110.3" font-family="Times,serif" font-size="14.00">wglue</text>
</a>
</g>
</g>
<!-- Wedge_wglue&#45;&gt;Wedge_Wedge -->
<g id="edge2" class="edge">
<title>Wedge_wglue&#45;&gt;Wedge_Wedge</title>
<path fill="none" stroke="black" d="M102.04,-91.27C113.45,-80.8 127.14,-68.24 138.68,-57.65"/>
<polygon fill="black" stroke="black" points="141.28,-60.02 146.28,-50.68 136.54,-54.86 141.28,-60.02"/>
</g>
</g>
</svg>
