<?xml version="1.0" encoding="UTF-8" standalone="no"?>
<!DOCTYPE svg PUBLIC "-//W3C//DTD SVG 1.1//EN"
 "http://www.w3.org/Graphics/SVG/1.1/DTD/svg11.dtd">
<!-- Generated by graphviz version 2.43.0 (0)
 -->
<!-- Title: HoTT_Types_Bool Pages: 1 -->
<svg width="1246pt" height="627pt"
 viewBox="0.00 0.00 1246.00 627.00" xmlns="http://www.w3.org/2000/svg" xmlns:xlink="http://www.w3.org/1999/xlink">
<g id="graph0" class="graph" transform="scale(1 1) rotate(0) translate(4 623)">
<title>HoTT_Types_Bool</title>
<polygon fill="white" stroke="transparent" points="-4,4 -4,-623 1242,-623 1242,4 -4,4"/>
<g id="clust1" class="cluster">
<title>cluster_Bool</title>
<polygon fill="#ffffc3" stroke="black" points="8.09,-8 8.09,-611 1229.91,-611 1229.91,-8 8.09,-8"/>
<text text-anchor="middle" x="32.09" y="-595.8" font-family="Times,serif" font-size="14.00">Bool</text>
</g>
<!-- Bool_abelian_aut_bool -->
<g id="node1" class="node">
<title>Bool_abelian_aut_bool</title>
<g id="a_node1"><a xlink:href="Bool.html#abelian_aut_bool" xlink:title="abelian_aut_bool">
<ellipse fill="#f070d1" stroke="black" cx="470.35" cy="-466" rx="87.96" ry="18"/>
<ellipse fill="none" stroke="black" cx="470.35" cy="-466" rx="91.97" ry="22"/>
<ellipse fill="none" stroke="black" cx="470.35" cy="-466" rx="95.99" ry="26"/>
<text text-anchor="middle" x="470.35" y="-462.3" font-family="Times,serif" font-size="14.00">abelian_aut_bool</text>
</a>
</g>
</g>
<!-- Bool_aut_bool_canonical -->
<g id="node5" class="node">
<title>Bool_aut_bool_canonical</title>
<g id="a_node5"><a xlink:href="Bool.html#aut_bool_canonical" xlink:title="aut_bool_canonical">
<ellipse fill="#f070d1" stroke="black" cx="352.35" cy="-378" rx="97.48" ry="18"/>
<text text-anchor="middle" x="352.35" y="-374.3" font-family="Times,serif" font-size="14.00">aut_bool_canonical</text>
</a>
</g>
</g>
<!-- Bool_abelian_aut_bool&#45;&gt;Bool_aut_bool_canonical -->
<g id="edge1" class="edge">
<title>Bool_abelian_aut_bool&#45;&gt;Bool_aut_bool_canonical</title>
<path fill="none" stroke="black" d="M438.11,-441.5C421.14,-429.13 400.42,-414.04 383.61,-401.78"/>
<polygon fill="black" stroke="black" points="385.35,-398.72 375.21,-395.66 381.23,-404.38 385.35,-398.72"/>
</g>
<!-- Bool_idmap_bool_ne_negb -->
<g id="node2" class="node">
<title>Bool_idmap_bool_ne_negb</title>
<g id="a_node2"><a xlink:href="Bool.html#idmap_bool_ne_negb" xlink:title="idmap_bool_ne_negb">
<ellipse fill="#f070d1" stroke="black" cx="718.35" cy="-378" rx="106.67" ry="18"/>
<ellipse fill="none" stroke="black" cx="718.35" cy="-378" rx="110.68" ry="22"/>
<ellipse fill="none" stroke="black" cx="718.35" cy="-378" rx="114.68" ry="26"/>
<text text-anchor="middle" x="718.35" y="-374.3" font-family="Times,serif" font-size="14.00">idmap_bool_ne_negb</text>
</a>
</g>
</g>
<!-- Bool_equiv_negb -->
<g id="node7" class="node">
<title>Bool_equiv_negb</title>
<g id="a_node7"><a xlink:href="Bool.html#equiv_negb" xlink:title="equiv_negb">
<ellipse fill="#f070d1" stroke="black" cx="465.35" cy="-290" rx="63.89" ry="18"/>
<text text-anchor="middle" x="465.35" y="-286.3" font-family="Times,serif" font-size="14.00">equiv_negb</text>
</a>
</g>
</g>
<!-- Bool_idmap_bool_ne_negb&#45;&gt;Bool_equiv_negb -->
<g id="edge2" class="edge">
<title>Bool_idmap_bool_ne_negb&#45;&gt;Bool_equiv_negb</title>
<path fill="none" stroke="black" d="M656.46,-355.96C612.67,-341.08 554.77,-321.39 514.21,-307.61"/>
<polygon fill="black" stroke="black" points="515.15,-304.23 504.56,-304.33 512.9,-310.86 515.15,-304.23"/>
</g>
<!-- Bool_true_ne_false -->
<g id="node14" class="node">
<title>Bool_true_ne_false</title>
<g id="a_node14"><a xlink:href="Bool.html#true_ne_false" xlink:title="true_ne_false">
<ellipse fill="#f070d1" stroke="black" cx="1109.35" cy="-202" rx="72.29" ry="18"/>
<text text-anchor="middle" x="1109.35" y="-198.3" font-family="Times,serif" font-size="14.00">true_ne_false</text>
</a>
</g>
</g>
<!-- Bool_idmap_bool_ne_negb&#45;&gt;Bool_true_ne_false -->
<g id="edge3" class="edge">
<title>Bool_idmap_bool_ne_negb&#45;&gt;Bool_true_ne_false</title>
<path fill="none" stroke="black" d="M768.67,-354.61C846.14,-320.13 993.31,-254.64 1066.21,-222.2"/>
<polygon fill="black" stroke="black" points="1067.85,-225.3 1075.57,-218.03 1065.01,-218.9 1067.85,-225.3"/>
</g>
<!-- Bool_aut_bool_idmap_or_negb -->
<g id="node3" class="node">
<title>Bool_aut_bool_idmap_or_negb</title>
<g id="a_node3"><a xlink:href="Bool.html#aut_bool_idmap_or_negb" xlink:title="aut_bool_idmap_or_negb">
<ellipse fill="#f070d1" stroke="black" cx="250.35" cy="-554" rx="124.27" ry="18"/>
<ellipse fill="none" stroke="black" cx="250.35" cy="-554" rx="128.27" ry="22"/>
<ellipse fill="none" stroke="black" cx="250.35" cy="-554" rx="132.28" ry="26"/>
<text text-anchor="middle" x="250.35" y="-550.3" font-family="Times,serif" font-size="14.00">aut_bool_idmap_or_negb</text>
</a>
</g>
</g>
<!-- Bool_equiv_bool_aut_bool -->
<g id="node4" class="node">
<title>Bool_equiv_bool_aut_bool</title>
<g id="a_node4"><a xlink:href="Bool.html#equiv_bool_aut_bool" xlink:title="equiv_bool_aut_bool">
<ellipse fill="#f070d1" stroke="black" cx="250.35" cy="-466" rx="103.18" ry="18"/>
<text text-anchor="middle" x="250.35" y="-462.3" font-family="Times,serif" font-size="14.00">equiv_bool_aut_bool</text>
</a>
</g>
</g>
<!-- Bool_aut_bool_idmap_or_negb&#45;&gt;Bool_equiv_bool_aut_bool -->
<g id="edge4" class="edge">
<title>Bool_aut_bool_idmap_or_negb&#45;&gt;Bool_equiv_bool_aut_bool</title>
<path fill="none" stroke="black" d="M250.35,-527.66C250.35,-517.11 250.35,-504.84 250.35,-494.1"/>
<polygon fill="black" stroke="black" points="253.85,-494 250.35,-484 246.85,-494 253.85,-494"/>
</g>
<!-- Bool_equiv_bool_aut_bool&#45;&gt;Bool_aut_bool_canonical -->
<g id="edge5" class="edge">
<title>Bool_equiv_bool_aut_bool&#45;&gt;Bool_aut_bool_canonical</title>
<path fill="none" stroke="black" d="M270.5,-448.01C285.97,-434.97 307.5,-416.81 324.6,-402.4"/>
<polygon fill="black" stroke="black" points="327.2,-404.78 332.59,-395.66 322.69,-399.43 327.2,-404.78"/>
</g>
<!-- Bool_eval_bool_isequiv -->
<g id="node6" class="node">
<title>Bool_eval_bool_isequiv</title>
<g id="a_node6"><a xlink:href="Bool.html#eval_bool_isequiv" xlink:title="eval_bool_isequiv">
<ellipse fill="#f070d1" stroke="black" cx="265.35" cy="-290" rx="90.98" ry="18"/>
<text text-anchor="middle" x="265.35" y="-286.3" font-family="Times,serif" font-size="14.00">eval_bool_isequiv</text>
</a>
</g>
</g>
<!-- Bool_aut_bool_canonical&#45;&gt;Bool_eval_bool_isequiv -->
<g id="edge6" class="edge">
<title>Bool_aut_bool_canonical&#45;&gt;Bool_eval_bool_isequiv</title>
<path fill="none" stroke="black" d="M335.16,-360.01C322.17,-347.17 304.17,-329.38 289.7,-315.07"/>
<polygon fill="black" stroke="black" points="292.07,-312.5 282.5,-307.96 287.15,-317.47 292.07,-312.5"/>
</g>
<!-- Bool_aut_bool_canonical&#45;&gt;Bool_equiv_negb -->
<g id="edge7" class="edge">
<title>Bool_aut_bool_canonical&#45;&gt;Bool_equiv_negb</title>
<path fill="none" stroke="black" d="M374.14,-360.42C391.68,-347.07 416.51,-328.17 435.84,-313.46"/>
<polygon fill="black" stroke="black" points="438.17,-316.08 444.01,-307.24 433.93,-310.51 438.17,-316.08"/>
</g>
<!-- Bool_negb -->
<g id="node20" class="node">
<title>Bool_negb</title>
<g id="a_node20"><a xlink:href="Bool.html#negb" xlink:title="negb">
<ellipse fill="#f070d1" stroke="black" cx="402.35" cy="-114" rx="33.6" ry="18"/>
<text text-anchor="middle" x="402.35" y="-110.3" font-family="Times,serif" font-size="14.00">negb</text>
</a>
</g>
</g>
<!-- Bool_eval_bool_isequiv&#45;&gt;Bool_negb -->
<g id="edge8" class="edge">
<title>Bool_eval_bool_isequiv&#45;&gt;Bool_negb</title>
<path fill="none" stroke="black" d="M256.28,-271.88C245.05,-248.05 229.75,-204.58 250.35,-176 279.93,-134.95 312.13,-160.6 358.35,-140 362.83,-138 367.45,-135.69 371.93,-133.29"/>
<polygon fill="black" stroke="black" points="373.82,-136.25 380.85,-128.32 370.41,-130.13 373.82,-136.25"/>
</g>
<!-- Bool_isequiv_negb -->
<g id="node8" class="node">
<title>Bool_isequiv_negb</title>
<g id="a_node8"><a xlink:href="Bool.html#isequiv_negb" xlink:title="isequiv_negb">
<ellipse fill="#f070d1" stroke="black" cx="465.35" cy="-202" rx="71.49" ry="18"/>
<text text-anchor="middle" x="465.35" y="-198.3" font-family="Times,serif" font-size="14.00">isequiv_negb</text>
</a>
</g>
</g>
<!-- Bool_equiv_negb&#45;&gt;Bool_isequiv_negb -->
<g id="edge9" class="edge">
<title>Bool_equiv_negb&#45;&gt;Bool_isequiv_negb</title>
<path fill="none" stroke="black" d="M465.35,-271.6C465.35,-259.75 465.35,-243.82 465.35,-230.29"/>
<polygon fill="black" stroke="black" points="468.85,-230.08 465.35,-220.08 461.85,-230.08 468.85,-230.08"/>
</g>
<!-- Bool_isequiv_negb&#45;&gt;Bool_negb -->
<g id="edge10" class="edge">
<title>Bool_isequiv_negb&#45;&gt;Bool_negb</title>
<path fill="none" stroke="black" d="M452.9,-184.01C443.58,-171.28 430.69,-153.68 420.25,-139.44"/>
<polygon fill="black" stroke="black" points="422.86,-137.08 414.13,-131.08 417.22,-141.22 422.86,-137.08"/>
</g>
<!-- Bool_equiv_bool_forall_prod -->
<g id="node9" class="node">
<title>Bool_equiv_bool_forall_prod</title>
<g id="a_node9"><a xlink:href="Bool.html#equiv_bool_forall_prod" xlink:title="equiv_bool_forall_prod">
<ellipse fill="#f070d1" stroke="black" cx="671.35" cy="-114" rx="114.29" ry="18"/>
<ellipse fill="none" stroke="black" cx="671.35" cy="-114" rx="118.28" ry="22"/>
<ellipse fill="none" stroke="black" cx="671.35" cy="-114" rx="122.28" ry="26"/>
<text text-anchor="middle" x="671.35" y="-110.3" font-family="Times,serif" font-size="14.00">equiv_bool_forall_prod</text>
</a>
</g>
</g>
<!-- Bool_false -->
<g id="node26" class="node">
<title>Bool_false</title>
<g id="a_node26"><a xlink:href="Bool.html#false" xlink:title="false">
<ellipse fill="#7faaff" stroke="black" cx="967.35" cy="-34" rx="32.49" ry="18"/>
<text text-anchor="middle" x="967.35" y="-30.3" font-family="Times,serif" font-size="14.00">false</text>
</a>
</g>
</g>
<!-- Bool_equiv_bool_forall_prod&#45;&gt;Bool_false -->
<g id="edge11" class="edge">
<title>Bool_equiv_bool_forall_prod&#45;&gt;Bool_false</title>
<path fill="none" stroke="black" d="M746.04,-93.32C804.16,-78 882.45,-57.37 928.65,-45.2"/>
<polygon fill="black" stroke="black" points="929.78,-48.52 938.56,-42.59 927.99,-41.75 929.78,-48.52"/>
</g>
<!-- Bool_true -->
<g id="node27" class="node">
<title>Bool_true</title>
<g id="a_node27"><a xlink:href="Bool.html#true" xlink:title="true">
<ellipse fill="#7faaff" stroke="black" cx="623.35" cy="-34" rx="30.59" ry="18"/>
<text text-anchor="middle" x="623.35" y="-30.3" font-family="Times,serif" font-size="14.00">true</text>
</a>
</g>
</g>
<!-- Bool_equiv_bool_forall_prod&#45;&gt;Bool_true -->
<g id="edge12" class="edge">
<title>Bool_equiv_bool_forall_prod&#45;&gt;Bool_true</title>
<path fill="none" stroke="black" d="M655.9,-87.89C650.45,-79.03 644.32,-69.07 638.86,-60.21"/>
<polygon fill="black" stroke="black" points="641.7,-58.14 633.48,-51.46 635.74,-61.81 641.7,-58.14"/>
</g>
<!-- Bool_Bool -->
<g id="node28" class="node">
<title>Bool_Bool</title>
<g id="a_node28"><a xlink:href="Bool.html#Bool" xlink:title="Bool">
<ellipse fill="#e2cdfa" stroke="black" cx="492.35" cy="-34" rx="31.4" ry="18"/>
<text text-anchor="middle" x="492.35" y="-30.3" font-family="Times,serif" font-size="14.00">Bool</text>
</a>
</g>
</g>
<!-- Bool_equiv_bool_forall_prod&#45;&gt;Bool_Bool -->
<g id="edge13" class="edge">
<title>Bool_equiv_bool_forall_prod&#45;&gt;Bool_Bool</title>
<path fill="none" stroke="black" d="M619.58,-90.44C589.41,-77.3 552.25,-61.1 525.9,-49.62"/>
<polygon fill="black" stroke="black" points="527.28,-46.4 516.71,-45.62 524.48,-52.82 527.28,-46.4"/>
</g>
<!-- Bool_negb_ne -->
<g id="node10" class="node">
<title>Bool_negb_ne</title>
<g id="a_node10"><a xlink:href="Bool.html#negb_ne" xlink:title="negb_ne">
<ellipse fill="#f070d1" stroke="black" cx="316.35" cy="-202" rx="49.31" ry="18"/>
<ellipse fill="none" stroke="black" cx="316.35" cy="-202" rx="53.3" ry="22"/>
<ellipse fill="none" stroke="black" cx="316.35" cy="-202" rx="57.29" ry="26"/>
<text text-anchor="middle" x="316.35" y="-198.3" font-family="Times,serif" font-size="14.00">negb_ne</text>
</a>
</g>
</g>
<!-- Bool_negb_ne&#45;&gt;Bool_negb -->
<g id="edge14" class="edge">
<title>Bool_negb_ne&#45;&gt;Bool_negb</title>
<path fill="none" stroke="black" d="M339.4,-177.95C351.92,-165.43 367.35,-150 379.8,-137.55"/>
<polygon fill="black" stroke="black" points="382.51,-139.78 387.11,-130.24 377.56,-134.84 382.51,-139.78"/>
</g>
<!-- Bool_not_fixed_negb -->
<g id="node11" class="node">
<title>Bool_not_fixed_negb</title>
<g id="a_node11"><a xlink:href="Bool.html#not_fixed_negb" xlink:title="not_fixed_negb">
<ellipse fill="#f070d1" stroke="black" cx="696.35" cy="-290" rx="79.89" ry="18"/>
<ellipse fill="none" stroke="black" cx="696.35" cy="-290" rx="83.89" ry="22"/>
<ellipse fill="none" stroke="black" cx="696.35" cy="-290" rx="87.89" ry="26"/>
<text text-anchor="middle" x="696.35" y="-286.3" font-family="Times,serif" font-size="14.00">not_fixed_negb</text>
</a>
</g>
</g>
<!-- Bool_not_fixed_negb&#45;&gt;Bool_true_ne_false -->
<g id="edge15" class="edge">
<title>Bool_not_fixed_negb&#45;&gt;Bool_true_ne_false</title>
<path fill="none" stroke="black" d="M773.2,-277.25C840.41,-266.39 940.42,-248.82 1026.35,-228 1036.44,-225.56 1047.11,-222.62 1057.33,-219.62"/>
<polygon fill="black" stroke="black" points="1058.36,-222.97 1066.94,-216.75 1056.36,-216.26 1058.36,-222.97"/>
</g>
<!-- Bool_not_fixed_negb&#45;&gt;Bool_negb -->
<g id="edge16" class="edge">
<title>Bool_not_fixed_negb&#45;&gt;Bool_negb</title>
<path fill="none" stroke="black" d="M636.09,-271.03C612.21,-261.44 586.04,-247.49 567.35,-228 549.98,-209.89 563.54,-193.28 545.35,-176 511.4,-143.76 488.85,-159.63 446.35,-140 441.9,-137.94 437.3,-135.6 432.82,-133.18"/>
<polygon fill="black" stroke="black" points="434.34,-130.02 423.9,-128.2 430.93,-136.13 434.34,-130.02"/>
</g>
<!-- Bool_hset_bool -->
<g id="node12" class="node">
<title>Bool_hset_bool</title>
<g id="a_node12"><a xlink:href="Bool.html#hset_bool" xlink:title="hset_bool">
<ellipse fill="#f070d1" stroke="black" cx="1109.35" cy="-378" rx="54.68" ry="18"/>
<ellipse fill="none" stroke="black" cx="1109.35" cy="-378" rx="58.68" ry="22"/>
<ellipse fill="none" stroke="black" cx="1109.35" cy="-378" rx="62.69" ry="26"/>
<text text-anchor="middle" x="1109.35" y="-374.3" font-family="Times,serif" font-size="14.00">hset_bool</text>
</a>
</g>
</g>
<!-- Bool_decidable_paths_bool -->
<g id="node13" class="node">
<title>Bool_decidable_paths_bool</title>
<g id="a_node13"><a xlink:href="Bool.html#decidable_paths_bool" xlink:title="decidable_paths_bool">
<ellipse fill="#f070d1" stroke="black" cx="1109.35" cy="-290" rx="109.38" ry="18"/>
<text text-anchor="middle" x="1109.35" y="-286.3" font-family="Times,serif" font-size="14.00">decidable_paths_bool</text>
</a>
</g>
</g>
<!-- Bool_hset_bool&#45;&gt;Bool_decidable_paths_bool -->
<g id="edge17" class="edge">
<title>Bool_hset_bool&#45;&gt;Bool_decidable_paths_bool</title>
<path fill="none" stroke="black" d="M1109.35,-351.66C1109.35,-341.11 1109.35,-328.84 1109.35,-318.1"/>
<polygon fill="black" stroke="black" points="1112.85,-318 1109.35,-308 1105.85,-318 1112.85,-318"/>
</g>
<!-- Bool_decidable_paths_bool&#45;&gt;Bool_true_ne_false -->
<g id="edge18" class="edge">
<title>Bool_decidable_paths_bool&#45;&gt;Bool_true_ne_false</title>
<path fill="none" stroke="black" d="M1109.35,-271.6C1109.35,-259.75 1109.35,-243.82 1109.35,-230.29"/>
<polygon fill="black" stroke="black" points="1112.85,-230.08 1109.35,-220.08 1105.85,-230.08 1112.85,-230.08"/>
</g>
<!-- Bool_false_ne_true -->
<g id="node15" class="node">
<title>Bool_false_ne_true</title>
<g id="a_node15"><a xlink:href="Bool.html#false_ne_true" xlink:title="false_ne_true">
<ellipse fill="#f070d1" stroke="black" cx="1108.35" cy="-114" rx="72.29" ry="18"/>
<text text-anchor="middle" x="1108.35" y="-110.3" font-family="Times,serif" font-size="14.00">false_ne_true</text>
</a>
</g>
</g>
<!-- Bool_true_ne_false&#45;&gt;Bool_false_ne_true -->
<g id="edge19" class="edge">
<title>Bool_true_ne_false&#45;&gt;Bool_false_ne_true</title>
<path fill="none" stroke="black" d="M1109.15,-183.6C1109.01,-171.75 1108.82,-155.82 1108.67,-142.29"/>
<polygon fill="black" stroke="black" points="1112.16,-142.04 1108.55,-132.08 1105.16,-142.12 1112.16,-142.04"/>
</g>
<!-- Bool_false_ne_true&#45;&gt;Bool_false -->
<g id="edge20" class="edge">
<title>Bool_false_ne_true&#45;&gt;Bool_false</title>
<path fill="none" stroke="black" d="M1080.16,-97.4C1056.5,-84.32 1022.75,-65.65 998.34,-52.14"/>
<polygon fill="black" stroke="black" points="999.92,-49.02 989.48,-47.24 996.54,-55.15 999.92,-49.02"/>
</g>
<!-- Bool_false_ne_true&#45;&gt;Bool_true -->
<g id="edge21" class="edge">
<title>Bool_false_ne_true&#45;&gt;Bool_true</title>
<path fill="none" stroke="black" d="M1067.4,-99.07C1054.4,-95.03 1039.88,-90.93 1026.35,-88 895.21,-59.59 736.55,-44.14 663.6,-38.08"/>
<polygon fill="black" stroke="black" points="663.72,-34.58 653.47,-37.25 663.15,-41.55 663.72,-34.58"/>
</g>
<!-- Bool_false_ne_true&#45;&gt;Bool_Bool -->
<g id="edge22" class="edge">
<title>Bool_false_ne_true&#45;&gt;Bool_Bool</title>
<path fill="none" stroke="black" d="M1068.33,-98.92C1055.11,-94.78 1040.24,-90.65 1026.35,-88 832.31,-50.98 779.15,-78.17 583.35,-52 566.23,-49.71 547.45,-46.35 531.42,-43.22"/>
<polygon fill="black" stroke="black" points="531.82,-39.73 521.32,-41.21 530.45,-46.59 531.82,-39.73"/>
</g>
<!-- Bool_trunc_if -->
<g id="node16" class="node">
<title>Bool_trunc_if</title>
<g id="a_node16"><a xlink:href="Bool.html#trunc_if" xlink:title="trunc_if">
<ellipse fill="#f070d1" stroke="black" cx="206.35" cy="-114" rx="46.27" ry="18"/>
<ellipse fill="none" stroke="black" cx="206.35" cy="-114" rx="50.28" ry="22"/>
<ellipse fill="none" stroke="black" cx="206.35" cy="-114" rx="54.29" ry="26"/>
<text text-anchor="middle" x="206.35" y="-110.3" font-family="Times,serif" font-size="14.00">trunc_if</text>
</a>
</g>
</g>
<!-- Bool_trunc_if&#45;&gt;Bool_Bool -->
<g id="edge23" class="edge">
<title>Bool_trunc_if&#45;&gt;Bool_Bool</title>
<path fill="none" stroke="black" d="M246.33,-96.41C254.22,-93.41 262.49,-90.46 270.35,-88 333.5,-68.23 408.73,-51.7 453.4,-42.6"/>
<polygon fill="black" stroke="black" points="454.16,-46.02 463.27,-40.61 452.77,-39.15 454.16,-46.02"/>
</g>
<!-- Bool_implb_impl -->
<g id="node17" class="node">
<title>Bool_implb_impl</title>
<g id="a_node17"><a xlink:href="Bool.html#implb_impl" xlink:title="implb_impl">
<ellipse fill="#f070d1" stroke="black" cx="804.35" cy="-202" rx="61.96" ry="18"/>
<ellipse fill="none" stroke="black" cx="804.35" cy="-202" rx="65.98" ry="22"/>
<ellipse fill="none" stroke="black" cx="804.35" cy="-202" rx="69.99" ry="26"/>
<text text-anchor="middle" x="804.35" y="-198.3" font-family="Times,serif" font-size="14.00">implb_impl</text>
</a>
</g>
</g>
<!-- Bool_implb -->
<g id="node19" class="node">
<title>Bool_implb</title>
<g id="a_node19"><a xlink:href="Bool.html#implb" xlink:title="implb">
<ellipse fill="#f070d1" stroke="black" cx="492.35" cy="-114" rx="37.09" ry="18"/>
<text text-anchor="middle" x="492.35" y="-110.3" font-family="Times,serif" font-size="14.00">implb</text>
</a>
</g>
</g>
<!-- Bool_implb_impl&#45;&gt;Bool_implb -->
<g id="edge24" class="edge">
<title>Bool_implb_impl&#45;&gt;Bool_implb</title>
<path fill="none" stroke="black" d="M753.16,-184.31C743.32,-181.35 733.05,-178.44 723.35,-176 642.97,-155.75 618.57,-167.43 540.35,-140 535.03,-138.13 529.57,-135.77 524.32,-133.24"/>
<polygon fill="black" stroke="black" points="525.69,-130.01 515.19,-128.59 522.51,-136.25 525.69,-130.01"/>
</g>
<!-- Bool_implb_impl&#45;&gt;Bool_false -->
<g id="edge25" class="edge">
<title>Bool_implb_impl&#45;&gt;Bool_false</title>
<path fill="none" stroke="black" d="M854.32,-183.78C864.18,-180.83 874.52,-178.07 884.35,-176 954.59,-161.23 1157.51,-193.51 1205.35,-140 1220.75,-122.77 1219.81,-106.03 1205.35,-88 1181.26,-57.95 1071.16,-43.84 1009.5,-38.19"/>
<polygon fill="black" stroke="black" points="1009.58,-34.69 999.31,-37.3 1008.97,-41.66 1009.58,-34.69"/>
</g>
<!-- Bool_implb_true -->
<g id="node18" class="node">
<title>Bool_implb_true</title>
<g id="a_node18"><a xlink:href="Bool.html#implb_true" xlink:title="implb_true">
<ellipse fill="#f070d1" stroke="black" cx="645.35" cy="-202" rx="61.18" ry="18"/>
<ellipse fill="none" stroke="black" cx="645.35" cy="-202" rx="65.18" ry="22"/>
<ellipse fill="none" stroke="black" cx="645.35" cy="-202" rx="69.19" ry="26"/>
<text text-anchor="middle" x="645.35" y="-198.3" font-family="Times,serif" font-size="14.00">implb_true</text>
</a>
</g>
</g>
<!-- Bool_implb_true&#45;&gt;Bool_implb -->
<g id="edge26" class="edge">
<title>Bool_implb_true&#45;&gt;Bool_implb</title>
<path fill="none" stroke="black" d="M607.92,-179.96C582.35,-165.59 548.81,-146.74 524.46,-133.05"/>
<polygon fill="black" stroke="black" points="526.04,-129.92 515.61,-128.07 522.61,-136.02 526.04,-129.92"/>
</g>
<!-- Bool_implb_true&#45;&gt;Bool_false -->
<g id="edge27" class="edge">
<title>Bool_implb_true&#45;&gt;Bool_false</title>
<path fill="none" stroke="black" d="M694.84,-183.63C704.83,-180.67 715.35,-177.93 725.35,-176 776.13,-166.23 1154.23,-177.95 1189.35,-140 1205.05,-123.04 1203.67,-106.14 1189.35,-88 1167.35,-60.13 1067.33,-45.3 1009.33,-38.92"/>
<polygon fill="black" stroke="black" points="1009.67,-35.44 999.36,-37.86 1008.93,-42.4 1009.67,-35.44"/>
</g>
<!-- Bool_implb&#45;&gt;Bool_true -->
<g id="edge28" class="edge">
<title>Bool_implb&#45;&gt;Bool_true</title>
<path fill="none" stroke="black" d="M514.87,-99.59C536.66,-86.61 569.83,-66.87 593.75,-52.63"/>
<polygon fill="black" stroke="black" points="595.62,-55.59 602.42,-47.46 592.04,-49.57 595.62,-55.59"/>
</g>
<!-- Bool_implb&#45;&gt;Bool_Bool -->
<g id="edge29" class="edge">
<title>Bool_implb&#45;&gt;Bool_Bool</title>
<path fill="none" stroke="black" d="M492.35,-95.69C492.35,-85.89 492.35,-73.42 492.35,-62.33"/>
<polygon fill="black" stroke="black" points="495.85,-62.26 492.35,-52.26 488.85,-62.26 495.85,-62.26"/>
</g>
<!-- Bool_negb&#45;&gt;Bool_false -->
<g id="edge30" class="edge">
<title>Bool_negb&#45;&gt;Bool_false</title>
<path fill="none" stroke="black" d="M422.57,-99.18C429.78,-94.9 438.15,-90.62 446.35,-88 535.3,-59.6 816.94,-42.65 924.77,-37.06"/>
<polygon fill="black" stroke="black" points="925.15,-40.55 934.95,-36.54 924.79,-33.56 925.15,-40.55"/>
</g>
<!-- Bool_negb&#45;&gt;Bool_true -->
<g id="edge31" class="edge">
<title>Bool_negb&#45;&gt;Bool_true</title>
<path fill="none" stroke="black" d="M423.34,-99.79C430.47,-95.66 438.59,-91.31 446.35,-88 492.86,-68.13 549.22,-52.63 585.66,-43.65"/>
<polygon fill="black" stroke="black" points="586.49,-47.05 595.38,-41.3 584.84,-40.25 586.49,-47.05"/>
</g>
<!-- Bool_negb&#45;&gt;Bool_Bool -->
<g id="edge32" class="edge">
<title>Bool_negb&#45;&gt;Bool_Bool</title>
<path fill="none" stroke="black" d="M419.28,-98.33C433.07,-86.38 452.71,-69.35 468.16,-55.97"/>
<polygon fill="black" stroke="black" points="470.54,-58.54 475.8,-49.34 465.95,-53.25 470.54,-58.54"/>
</g>
<!-- Bool_orb -->
<g id="node21" class="node">
<title>Bool_orb</title>
<g id="a_node21"><a xlink:href="Bool.html#orb" xlink:title="orb">
<ellipse fill="#f070d1" stroke="black" cx="314.35" cy="-114" rx="27" ry="18"/>
<ellipse fill="none" stroke="black" cx="314.35" cy="-114" rx="31" ry="22"/>
<ellipse fill="none" stroke="black" cx="314.35" cy="-114" rx="35" ry="26"/>
<text text-anchor="middle" x="314.35" y="-110.3" font-family="Times,serif" font-size="14.00">orb</text>
</a>
</g>
</g>
<!-- Bool_orb&#45;&gt;Bool_true -->
<g id="edge33" class="edge">
<title>Bool_orb&#45;&gt;Bool_true</title>
<path fill="none" stroke="black" d="M340.83,-96.52C346.76,-93.34 353.14,-90.28 359.35,-88 369.91,-84.11 513.91,-56.1 584.66,-42.44"/>
<polygon fill="black" stroke="black" points="585.39,-45.87 594.54,-40.54 584.06,-38.99 585.39,-45.87"/>
</g>
<!-- Bool_orb&#45;&gt;Bool_Bool -->
<g id="edge34" class="edge">
<title>Bool_orb&#45;&gt;Bool_Bool</title>
<path fill="none" stroke="black" d="M341.66,-97.1C347.43,-93.94 353.54,-90.76 359.35,-88 391.75,-72.62 429.87,-57.74 456.98,-47.69"/>
<polygon fill="black" stroke="black" points="458.26,-50.94 466.44,-44.21 455.84,-44.37 458.26,-50.94"/>
</g>
<!-- Bool_andb -->
<g id="node22" class="node">
<title>Bool_andb</title>
<g id="a_node22"><a xlink:href="Bool.html#andb" xlink:title="andb">
<ellipse fill="#f070d1" stroke="black" cx="855.35" cy="-114" rx="33.63" ry="18"/>
<ellipse fill="none" stroke="black" cx="855.35" cy="-114" rx="37.61" ry="22"/>
<ellipse fill="none" stroke="black" cx="855.35" cy="-114" rx="41.59" ry="26"/>
<text text-anchor="middle" x="855.35" y="-110.3" font-family="Times,serif" font-size="14.00">andb</text>
</a>
</g>
</g>
<!-- Bool_andb&#45;&gt;Bool_false -->
<g id="edge35" class="edge">
<title>Bool_andb&#45;&gt;Bool_false</title>
<path fill="none" stroke="black" d="M882.46,-94.12C899.66,-82.14 921.87,-66.67 939.26,-54.57"/>
<polygon fill="black" stroke="black" points="941.65,-57.16 947.86,-48.58 937.65,-51.42 941.65,-57.16"/>
</g>
<!-- Bool_andb&#45;&gt;Bool_Bool -->
<g id="edge36" class="edge">
<title>Bool_andb&#45;&gt;Bool_Bool</title>
<path fill="none" stroke="black" d="M824.26,-96.58C817.2,-93.35 809.63,-90.27 802.35,-88 708.17,-58.68 680.5,-69.06 583.35,-52 566.34,-49.01 547.57,-45.54 531.53,-42.51"/>
<polygon fill="black" stroke="black" points="531.89,-39.02 521.42,-40.6 530.59,-45.9 531.89,-39.02"/>
</g>
<!-- Bool_Bool_rect -->
<g id="node23" class="node">
<title>Bool_Bool_rect</title>
<g id="a_node23"><a xlink:href="Bool.html#Bool_rect" xlink:title="Bool_rect">
<ellipse fill="#f070d1" stroke="black" cx="955.35" cy="-202" rx="53.9" ry="18"/>
<ellipse fill="none" stroke="black" cx="955.35" cy="-202" rx="57.89" ry="22"/>
<ellipse fill="none" stroke="black" cx="955.35" cy="-202" rx="61.89" ry="26"/>
<text text-anchor="middle" x="955.35" y="-198.3" font-family="Times,serif" font-size="14.00">Bool_rect</text>
</a>
</g>
</g>
<!-- Bool_Bool_ind -->
<g id="node25" class="node">
<title>Bool_Bool_ind</title>
<g id="a_node25"><a xlink:href="Bool.html#Bool_ind" xlink:title="Bool_ind">
<ellipse fill="#f070d1" stroke="black" cx="967.35" cy="-114" rx="50.09" ry="18"/>
<text text-anchor="middle" x="967.35" y="-110.3" font-family="Times,serif" font-size="14.00">Bool_ind</text>
</a>
</g>
</g>
<!-- Bool_Bool_rect&#45;&gt;Bool_Bool_ind -->
<g id="edge37" class="edge">
<title>Bool_Bool_rect&#45;&gt;Bool_Bool_ind</title>
<path fill="none" stroke="black" d="M958.89,-175.66C960.36,-165.11 962.07,-152.84 963.57,-142.1"/>
<polygon fill="black" stroke="black" points="967.06,-142.39 964.98,-132 960.13,-141.42 967.06,-142.39"/>
</g>
<!-- Bool_Bool_rec -->
<g id="node24" class="node">
<title>Bool_Bool_rec</title>
<g id="a_node24"><a xlink:href="Bool.html#Bool_rec" xlink:title="Bool_rec">
<ellipse fill="#f070d1" stroke="black" cx="74.35" cy="-114" rx="50.08" ry="18"/>
<ellipse fill="none" stroke="black" cx="74.35" cy="-114" rx="54.09" ry="22"/>
<ellipse fill="none" stroke="black" cx="74.35" cy="-114" rx="58.09" ry="26"/>
<text text-anchor="middle" x="74.35" y="-110.3" font-family="Times,serif" font-size="14.00">Bool_rec</text>
</a>
</g>
</g>
<!-- Bool_Bool_rec&#45;&gt;Bool_Bool -->
<g id="edge38" class="edge">
<title>Bool_Bool_rec&#45;&gt;Bool_Bool</title>
<path fill="none" stroke="black" d="M117.01,-96.07C125.63,-93.07 134.71,-90.2 143.35,-88 252.78,-60.16 385.47,-44.94 451.25,-38.6"/>
<polygon fill="black" stroke="black" points="451.98,-42.04 461.6,-37.62 451.32,-35.07 451.98,-42.04"/>
</g>
<!-- Bool_Bool_ind&#45;&gt;Bool_false -->
<g id="edge39" class="edge">
<title>Bool_Bool_ind&#45;&gt;Bool_false</title>
<path fill="none" stroke="black" d="M967.35,-95.69C967.35,-85.89 967.35,-73.42 967.35,-62.33"/>
<polygon fill="black" stroke="black" points="970.85,-62.26 967.35,-52.26 963.85,-62.26 970.85,-62.26"/>
</g>
<!-- Bool_Bool_ind&#45;&gt;Bool_true -->
<g id="edge40" class="edge">
<title>Bool_Bool_ind&#45;&gt;Bool_true</title>
<path fill="none" stroke="black" d="M937.69,-99.43C927.87,-95.31 916.78,-91.08 906.35,-88 821.45,-62.94 718.59,-47.19 663.24,-39.86"/>
<polygon fill="black" stroke="black" points="663.52,-36.37 653.15,-38.55 662.62,-43.31 663.52,-36.37"/>
</g>
<!-- Bool_Bool_ind&#45;&gt;Bool_Bool -->
<g id="edge41" class="edge">
<title>Bool_Bool_ind&#45;&gt;Bool_Bool</title>
<path fill="none" stroke="black" d="M938.43,-99.23C928.47,-95 917.11,-90.75 906.35,-88 766.39,-52.27 726.22,-73.28 583.35,-52 566.27,-49.46 547.49,-46.05 531.45,-42.96"/>
<polygon fill="black" stroke="black" points="531.84,-39.47 521.36,-40.98 530.5,-46.34 531.84,-39.47"/>
</g>
</g>
</svg>
