<?xml version="1.0" encoding="UTF-8" standalone="no"?>
<!DOCTYPE svg PUBLIC "-//W3C//DTD SVG 1.1//EN"
 "http://www.w3.org/Graphics/SVG/1.1/DTD/svg11.dtd">
<!-- Generated by graphviz version 2.43.0 (0)
 -->
<!-- Title: HoTT_Sets_GCHtoAC Pages: 1 -->
<svg width="1866pt" height="937pt"
 viewBox="0.00 0.00 1866.00 937.00" xmlns="http://www.w3.org/2000/svg" xmlns:xlink="http://www.w3.org/1999/xlink">
<g id="graph0" class="graph" transform="scale(1 1) rotate(0) translate(4 933)">
<title>HoTT_Sets_GCHtoAC</title>
<polygon fill="white" stroke="transparent" points="-4,4 -4,-933 1862,-933 1862,4 -4,4"/>
<g id="clust1" class="cluster">
<title>cluster_GCHtoAC</title>
<polygon fill="#ffffc3" stroke="black" points="8,-13.39 8,-915.61 1850,-915.61 1850,-13.39 8,-13.39"/>
<text text-anchor="middle" x="50.5" y="-900.41" font-family="Times,serif" font-size="14.00">GCHtoAC</text>
</g>
<!-- GCHtoAC_GCH_AC -->
<g id="node1" class="node">
<title>GCHtoAC_GCH_AC</title>
<g id="a_node1"><a xlink:href="GCHtoAC.html#GCH_AC" xlink:title="GCH_AC">
<ellipse fill="#f070d1" stroke="black" cx="984" cy="-820.39" rx="50.08" ry="18"/>
<ellipse fill="none" stroke="black" cx="984" cy="-820.39" rx="54.09" ry="22"/>
<ellipse fill="none" stroke="black" cx="984" cy="-820.39" rx="58.09" ry="26"/>
<text text-anchor="middle" x="984" y="-816.69" font-family="Times,serif" font-size="14.00">GCH_AC</text>
</a>
</g>
</g>
<!-- GCHtoAC_GCH_injects -->
<g id="node2" class="node">
<title>GCHtoAC_GCH_injects</title>
<g id="a_node2"><a xlink:href="GCHtoAC.html#GCH_injects" xlink:title="GCH_injects">
<ellipse fill="#f070d1" stroke="black" cx="984" cy="-686.39" rx="67.69" ry="18"/>
<text text-anchor="middle" x="984" y="-682.69" font-family="Times,serif" font-size="14.00">GCH_injects</text>
</a>
</g>
</g>
<!-- GCHtoAC_GCH_AC&#45;&gt;GCHtoAC_GCH_injects -->
<g id="edge1" class="edge">
<title>GCHtoAC_GCH_AC&#45;&gt;GCHtoAC_GCH_injects</title>
<path fill="none" stroke="black" d="M984,-794.25C984,-771.52 984,-738.13 984,-714.74"/>
<polygon fill="black" stroke="black" points="987.5,-714.46 984,-704.46 980.5,-714.46 987.5,-714.46"/>
</g>
<!-- GCHtoAC_GCH_injects_ -->
<g id="node3" class="node">
<title>GCHtoAC_GCH_injects_</title>
<g id="a_node3"><a xlink:href="GCHtoAC.html#GCH_injects'" xlink:title="GCH_injects&#39;">
<ellipse fill="#f070d1" stroke="black" cx="984" cy="-565.39" rx="70.39" ry="18"/>
<text text-anchor="middle" x="984" y="-561.69" font-family="Times,serif" font-size="14.00">GCH_injects&#39;</text>
</a>
</g>
</g>
<!-- GCHtoAC_GCH_injects&#45;&gt;GCHtoAC_GCH_injects_ -->
<g id="edge2" class="edge">
<title>GCHtoAC_GCH_injects&#45;&gt;GCHtoAC_GCH_injects_</title>
<path fill="none" stroke="black" d="M984,-668.34C984,-648.81 984,-616.55 984,-593.55"/>
<polygon fill="black" stroke="black" points="987.5,-593.41 984,-583.41 980.5,-593.41 987.5,-593.41"/>
</g>
<!-- GCHtoAC_Sierpinski_step -->
<g id="node4" class="node">
<title>GCHtoAC_Sierpinski_step</title>
<g id="a_node4"><a xlink:href="GCHtoAC.html#Sierpinski_step" xlink:title="Sierpinski_step">
<ellipse fill="#f070d1" stroke="black" cx="841" cy="-445.39" rx="81.79" ry="18"/>
<text text-anchor="middle" x="841" y="-441.69" font-family="Times,serif" font-size="14.00">Sierpinski_step</text>
</a>
</g>
</g>
<!-- GCHtoAC_GCH_injects_&#45;&gt;GCHtoAC_Sierpinski_step -->
<g id="edge3" class="edge">
<title>GCHtoAC_GCH_injects_&#45;&gt;GCHtoAC_Sierpinski_step</title>
<path fill="none" stroke="black" d="M964.12,-547.98C939.39,-527.58 897.03,-492.62 869.02,-469.51"/>
<polygon fill="black" stroke="black" points="871.12,-466.7 861.18,-463.04 866.66,-472.1 871.12,-466.7"/>
</g>
<!-- GCHtoAC_path_infinite_power -->
<g id="node14" class="node">
<title>GCHtoAC_path_infinite_power</title>
<g id="a_node14"><a xlink:href="GCHtoAC.html#path_infinite_power" xlink:title="path_infinite_power">
<ellipse fill="#f070d1" stroke="black" cx="1127" cy="-445.39" rx="102.08" ry="18"/>
<text text-anchor="middle" x="1127" y="-441.69" font-family="Times,serif" font-size="14.00">path_infinite_power</text>
</a>
</g>
</g>
<!-- GCHtoAC_GCH_injects_&#45;&gt;GCHtoAC_path_infinite_power -->
<g id="edge4" class="edge">
<title>GCHtoAC_GCH_injects_&#45;&gt;GCHtoAC_path_infinite_power</title>
<path fill="none" stroke="black" d="M1003.88,-547.98C1028.61,-527.58 1070.97,-492.62 1098.98,-469.51"/>
<polygon fill="black" stroke="black" points="1101.34,-472.1 1106.82,-463.04 1096.88,-466.7 1101.34,-472.1"/>
</g>
<!-- GCHtoAC_InjectsInto_sum -->
<g id="node5" class="node">
<title>GCHtoAC_InjectsInto_sum</title>
<g id="a_node5"><a xlink:href="GCHtoAC.html#InjectsInto_sum" xlink:title="InjectsInto_sum">
<ellipse fill="#f070d1" stroke="black" cx="913" cy="-311.39" rx="84.49" ry="18"/>
<text text-anchor="middle" x="913" y="-307.69" font-family="Times,serif" font-size="14.00">InjectsInto_sum</text>
</a>
</g>
</g>
<!-- GCHtoAC_Sierpinski_step&#45;&gt;GCHtoAC_InjectsInto_sum -->
<g id="edge5" class="edge">
<title>GCHtoAC_Sierpinski_step&#45;&gt;GCHtoAC_InjectsInto_sum</title>
<path fill="none" stroke="black" d="M850.27,-427.4C862.58,-404.83 884.45,-364.73 898.84,-338.35"/>
<polygon fill="black" stroke="black" points="902.05,-339.77 903.77,-329.31 895.91,-336.42 902.05,-339.77"/>
</g>
<!-- GCHtoAC_powfix -->
<g id="node6" class="node">
<title>GCHtoAC_powfix</title>
<g id="a_node6"><a xlink:href="GCHtoAC.html#powfix" xlink:title="powfix">
<ellipse fill="#f070d1" stroke="black" cx="770" cy="-311.39" rx="40.89" ry="18"/>
<text text-anchor="middle" x="770" y="-307.69" font-family="Times,serif" font-size="14.00">powfix</text>
</a>
</g>
</g>
<!-- GCHtoAC_Sierpinski_step&#45;&gt;GCHtoAC_powfix -->
<g id="edge6" class="edge">
<title>GCHtoAC_Sierpinski_step&#45;&gt;GCHtoAC_powfix</title>
<path fill="none" stroke="black" d="M831.86,-427.4C819.72,-404.83 798.15,-364.73 783.96,-338.35"/>
<polygon fill="black" stroke="black" points="786.92,-336.46 779.1,-329.31 780.76,-339.78 786.92,-336.46"/>
</g>
<!-- GCHtoAC_Cantor_injects_injects -->
<g id="node7" class="node">
<title>GCHtoAC_Cantor_injects_injects</title>
<g id="a_node7"><a xlink:href="GCHtoAC.html#Cantor_injects_injects" xlink:title="Cantor_injects_injects">
<ellipse fill="#f070d1" stroke="black" cx="599" cy="-311.39" rx="112.38" ry="18"/>
<text text-anchor="middle" x="599" y="-307.69" font-family="Times,serif" font-size="14.00">Cantor_injects_injects</text>
</a>
</g>
</g>
<!-- GCHtoAC_Sierpinski_step&#45;&gt;GCHtoAC_Cantor_injects_injects -->
<g id="edge7" class="edge">
<title>GCHtoAC_Sierpinski_step&#45;&gt;GCHtoAC_Cantor_injects_injects</title>
<path fill="none" stroke="black" d="M811.81,-428.47C768.35,-404.76 686.55,-360.15 638.01,-333.67"/>
<polygon fill="black" stroke="black" points="639.51,-330.5 629.05,-328.78 636.16,-336.65 639.51,-330.5"/>
</g>
<!-- GCHtoAC_InjectsInto_power_morph -->
<g id="node8" class="node">
<title>GCHtoAC_InjectsInto_power_morph</title>
<g id="a_node8"><a xlink:href="GCHtoAC.html#InjectsInto_power_morph" xlink:title="InjectsInto_power_morph">
<ellipse fill="#f070d1" stroke="black" cx="394" cy="-177.39" rx="128.08" ry="18"/>
<text text-anchor="middle" x="394" y="-173.69" font-family="Times,serif" font-size="14.00">InjectsInto_power_morph</text>
</a>
</g>
</g>
<!-- GCHtoAC_Cantor_injects_injects&#45;&gt;GCHtoAC_InjectsInto_power_morph -->
<g id="edge8" class="edge">
<title>GCHtoAC_Cantor_injects_injects&#45;&gt;GCHtoAC_InjectsInto_power_morph</title>
<path fill="none" stroke="black" d="M573.04,-293.67C536.4,-270.08 469.45,-226.98 428.62,-200.68"/>
<polygon fill="black" stroke="black" points="430.38,-197.65 420.08,-195.18 426.59,-203.54 430.38,-197.65"/>
</g>
<!-- GCHtoAC_Cantor_rel -->
<g id="node9" class="node">
<title>GCHtoAC_Cantor_rel</title>
<g id="a_node9"><a xlink:href="GCHtoAC.html#Cantor_rel" xlink:title="Cantor_rel">
<ellipse fill="#f070d1" stroke="black" cx="600" cy="-177.39" rx="59.59" ry="18"/>
<text text-anchor="middle" x="600" y="-173.69" font-family="Times,serif" font-size="14.00">Cantor_rel</text>
</a>
</g>
</g>
<!-- GCHtoAC_Cantor_injects_injects&#45;&gt;GCHtoAC_Cantor_rel -->
<g id="edge9" class="edge">
<title>GCHtoAC_Cantor_injects_injects&#45;&gt;GCHtoAC_Cantor_rel</title>
<path fill="none" stroke="black" d="M599.13,-293.13C599.3,-270.9 599.59,-231.99 599.79,-205.72"/>
<polygon fill="black" stroke="black" points="603.29,-205.68 599.87,-195.65 596.29,-205.63 603.29,-205.68"/>
</g>
<!-- GCHtoAC_clean_sum -->
<g id="node11" class="node">
<title>GCHtoAC_clean_sum</title>
<g id="a_node11"><a xlink:href="GCHtoAC.html#clean_sum" xlink:title="clean_sum">
<ellipse fill="#f070d1" stroke="black" cx="189" cy="-177.39" rx="59.29" ry="18"/>
<text text-anchor="middle" x="189" y="-173.69" font-family="Times,serif" font-size="14.00">clean_sum</text>
</a>
</g>
</g>
<!-- GCHtoAC_Cantor_injects_injects&#45;&gt;GCHtoAC_clean_sum -->
<g id="edge10" class="edge">
<title>GCHtoAC_Cantor_injects_injects&#45;&gt;GCHtoAC_clean_sum</title>
<path fill="none" stroke="black" d="M551.17,-294.99C472.57,-269.69 316.94,-219.58 237.75,-194.08"/>
<polygon fill="black" stroke="black" points="238.61,-190.69 228.02,-190.95 236.46,-197.35 238.61,-190.69"/>
</g>
<!-- GCHtoAC_path_sum_prod -->
<g id="node26" class="node">
<title>GCHtoAC_path_sum_prod</title>
<g id="a_node26"><a xlink:href="GCHtoAC.html#path_sum_prod" xlink:title="path_sum_prod">
<ellipse fill="#f070d1" stroke="black" cx="759" cy="-177.39" rx="81.49" ry="18"/>
<text text-anchor="middle" x="759" y="-173.69" font-family="Times,serif" font-size="14.00">path_sum_prod</text>
</a>
</g>
</g>
<!-- GCHtoAC_Cantor_injects_injects&#45;&gt;GCHtoAC_path_sum_prod -->
<g id="edge11" class="edge">
<title>GCHtoAC_Cantor_injects_injects&#45;&gt;GCHtoAC_path_sum_prod</title>
<path fill="none" stroke="black" d="M619.26,-293.67C647.52,-270.37 698.86,-228.01 730.83,-201.63"/>
<polygon fill="black" stroke="black" points="733.41,-204.04 738.9,-194.97 728.96,-198.64 733.41,-204.04"/>
</g>
<!-- GCHtoAC_PE -->
<g id="node21" class="node">
<title>GCHtoAC_PE</title>
<g id="a_node21"><a xlink:href="GCHtoAC.html#PE" xlink:title="PE">
<ellipse fill="#f070d1" stroke="black" cx="800" cy="-57.39" rx="27" ry="18"/>
<text text-anchor="middle" x="800" y="-53.69" font-family="Times,serif" font-size="14.00">PE</text>
</a>
</g>
</g>
<!-- GCHtoAC_InjectsInto_power_morph&#45;&gt;GCHtoAC_PE -->
<g id="edge12" class="edge">
<title>GCHtoAC_InjectsInto_power_morph&#45;&gt;GCHtoAC_PE</title>
<path fill="none" stroke="black" d="M447.08,-160.96C531.69,-136.37 694.81,-88.96 765.7,-68.36"/>
<polygon fill="black" stroke="black" points="766.85,-71.67 775.47,-65.52 764.9,-64.95 766.85,-71.67"/>
</g>
<!-- GCHtoAC_Cantor_path_injection -->
<g id="node10" class="node">
<title>GCHtoAC_Cantor_path_injection</title>
<g id="a_node10"><a xlink:href="GCHtoAC.html#Cantor_path_injection" xlink:title="Cantor_path_injection">
<ellipse fill="#f070d1" stroke="black" cx="189" cy="-311.39" rx="112.38" ry="18"/>
<ellipse fill="none" stroke="black" cx="189" cy="-311.39" rx="116.38" ry="22"/>
<ellipse fill="none" stroke="black" cx="189" cy="-311.39" rx="120.38" ry="26"/>
<text text-anchor="middle" x="189" y="-307.69" font-family="Times,serif" font-size="14.00">Cantor_path_injection</text>
</a>
</g>
</g>
<!-- GCHtoAC_Cantor_path_injection&#45;&gt;GCHtoAC_clean_sum -->
<g id="edge13" class="edge">
<title>GCHtoAC_Cantor_path_injection&#45;&gt;GCHtoAC_clean_sum</title>
<path fill="none" stroke="black" d="M189,-285.25C189,-262.52 189,-229.13 189,-205.74"/>
<polygon fill="black" stroke="black" points="192.5,-205.46 189,-195.46 185.5,-205.46 192.5,-205.46"/>
</g>
<!-- GCHtoAC_hCantor -->
<g id="node12" class="node">
<title>GCHtoAC_hCantor</title>
<g id="a_node12"><a xlink:href="GCHtoAC.html#hCantor" xlink:title="hCantor">
<ellipse fill="#f070d1" stroke="black" cx="64" cy="-177.39" rx="48.19" ry="18"/>
<text text-anchor="middle" x="64" y="-173.69" font-family="Times,serif" font-size="14.00">hCantor</text>
</a>
</g>
</g>
<!-- GCHtoAC_Cantor_path_injection&#45;&gt;GCHtoAC_hCantor -->
<g id="edge14" class="edge">
<title>GCHtoAC_Cantor_path_injection&#45;&gt;GCHtoAC_hCantor</title>
<path fill="none" stroke="black" d="M165.78,-285.87C143.07,-261.89 108.73,-225.62 86.33,-201.97"/>
<polygon fill="black" stroke="black" points="88.64,-199.32 79.22,-194.47 83.56,-204.14 88.64,-199.32"/>
</g>
<!-- GCHtoAC_Cantor_path_injection&#45;&gt;GCHtoAC_path_sum_prod -->
<g id="edge15" class="edge">
<title>GCHtoAC_Cantor_path_injection&#45;&gt;GCHtoAC_path_sum_prod</title>
<path fill="none" stroke="black" d="M268.86,-291.9C382.98,-265.47 590.47,-217.42 695.07,-193.19"/>
<polygon fill="black" stroke="black" points="695.92,-196.59 704.87,-190.93 694.34,-189.77 695.92,-196.59"/>
</g>
<!-- GCHtoAC_Cantor -->
<g id="node13" class="node">
<title>GCHtoAC_Cantor</title>
<g id="a_node13"><a xlink:href="GCHtoAC.html#Cantor" xlink:title="Cantor">
<ellipse fill="#f070d1" stroke="black" cx="569" cy="-820.39" rx="42.45" ry="18"/>
<ellipse fill="none" stroke="black" cx="569" cy="-820.39" rx="46.47" ry="22"/>
<ellipse fill="none" stroke="black" cx="569" cy="-820.39" rx="50.49" ry="26"/>
<text text-anchor="middle" x="569" y="-816.69" font-family="Times,serif" font-size="14.00">Cantor</text>
</a>
</g>
</g>
<!-- GCHtoAC_path_infinite_unit -->
<g id="node15" class="node">
<title>GCHtoAC_path_infinite_unit</title>
<g id="a_node15"><a xlink:href="GCHtoAC.html#path_infinite_unit" xlink:title="path_infinite_unit">
<ellipse fill="#f070d1" stroke="black" cx="1127" cy="-311.39" rx="91.78" ry="18"/>
<text text-anchor="middle" x="1127" y="-307.69" font-family="Times,serif" font-size="14.00">path_infinite_unit</text>
</a>
</g>
</g>
<!-- GCHtoAC_path_infinite_power&#45;&gt;GCHtoAC_path_infinite_unit -->
<g id="edge16" class="edge">
<title>GCHtoAC_path_infinite_power&#45;&gt;GCHtoAC_path_infinite_unit</title>
<path fill="none" stroke="black" d="M1127,-427.13C1127,-404.9 1127,-365.99 1127,-339.72"/>
<polygon fill="black" stroke="black" points="1130.5,-339.65 1127,-329.65 1123.5,-339.65 1130.5,-339.65"/>
</g>
<!-- GCHtoAC_path_bool_subsingleton -->
<g id="node19" class="node">
<title>GCHtoAC_path_bool_subsingleton</title>
<g id="a_node19"><a xlink:href="GCHtoAC.html#path_bool_subsingleton" xlink:title="path_bool_subsingleton">
<ellipse fill="#f070d1" stroke="black" cx="1595" cy="-311.39" rx="119.68" ry="18"/>
<text text-anchor="middle" x="1595" y="-307.69" font-family="Times,serif" font-size="14.00">path_bool_subsingleton</text>
</a>
</g>
</g>
<!-- GCHtoAC_path_infinite_power&#45;&gt;GCHtoAC_path_bool_subsingleton -->
<g id="edge17" class="edge">
<title>GCHtoAC_path_infinite_power&#45;&gt;GCHtoAC_path_bool_subsingleton</title>
<path fill="none" stroke="black" d="M1178.87,-429.76C1265.21,-405.41 1438.12,-356.64 1531.57,-330.28"/>
<polygon fill="black" stroke="black" points="1532.78,-333.58 1541.46,-327.49 1530.88,-326.84 1532.78,-333.58"/>
</g>
<!-- GCHtoAC_path_sum_bool -->
<g id="node24" class="node">
<title>GCHtoAC_path_sum_bool</title>
<g id="a_node24"><a xlink:href="GCHtoAC.html#path_sum_bool" xlink:title="path_sum_bool">
<ellipse fill="#f070d1" stroke="black" cx="1316" cy="-311.39" rx="79.09" ry="18"/>
<text text-anchor="middle" x="1316" y="-307.69" font-family="Times,serif" font-size="14.00">path_sum_bool</text>
</a>
</g>
</g>
<!-- GCHtoAC_path_infinite_power&#45;&gt;GCHtoAC_path_sum_bool -->
<g id="edge18" class="edge">
<title>GCHtoAC_path_infinite_power&#45;&gt;GCHtoAC_path_sum_bool</title>
<path fill="none" stroke="black" d="M1150.94,-427.67C1184.69,-404.1 1246.33,-361.05 1283.99,-334.75"/>
<polygon fill="black" stroke="black" points="1286.36,-337.36 1292.55,-328.77 1282.35,-331.62 1286.36,-337.36"/>
</g>
<!-- GCHtoAC_path_infinite_power&#45;&gt;GCHtoAC_path_sum_prod -->
<g id="edge19" class="edge">
<title>GCHtoAC_path_infinite_power&#45;&gt;GCHtoAC_path_sum_prod</title>
<path fill="none" stroke="black" d="M1107.11,-427.68C1084.78,-408.03 1048.73,-373.49 1026,-337.39 1012.81,-316.44 1023.14,-303.26 1006,-285.39 957.88,-235.23 882.29,-207.23 827.4,-192.58"/>
<polygon fill="black" stroke="black" points="827.96,-189.11 817.41,-190 826.21,-195.89 827.96,-189.11"/>
</g>
<!-- GCHtoAC_path_ran -->
<g id="node16" class="node">
<title>GCHtoAC_path_ran</title>
<g id="a_node16"><a xlink:href="GCHtoAC.html#path_ran" xlink:title="path_ran">
<ellipse fill="#f070d1" stroke="black" cx="1278" cy="-177.39" rx="51.99" ry="18"/>
<text text-anchor="middle" x="1278" y="-173.69" font-family="Times,serif" font-size="14.00">path_ran</text>
</a>
</g>
</g>
<!-- GCHtoAC_path_infinite_unit&#45;&gt;GCHtoAC_path_ran -->
<g id="edge20" class="edge">
<title>GCHtoAC_path_infinite_unit&#45;&gt;GCHtoAC_path_ran</title>
<path fill="none" stroke="black" d="M1146.12,-293.67C1172.93,-270.24 1221.77,-227.54 1251.9,-201.2"/>
<polygon fill="black" stroke="black" points="1254.28,-203.78 1259.5,-194.56 1249.67,-198.51 1254.28,-203.78"/>
</g>
<!-- GCHtoAC_path_pred_sum -->
<g id="node18" class="node">
<title>GCHtoAC_path_pred_sum</title>
<g id="a_node18"><a xlink:href="GCHtoAC.html#path_pred_sum" xlink:title="path_pred_sum">
<ellipse fill="#f070d1" stroke="black" cx="1127" cy="-177.39" rx="81.49" ry="18"/>
<text text-anchor="middle" x="1127" y="-173.69" font-family="Times,serif" font-size="14.00">path_pred_sum</text>
</a>
</g>
</g>
<!-- GCHtoAC_path_infinite_unit&#45;&gt;GCHtoAC_path_pred_sum -->
<g id="edge21" class="edge">
<title>GCHtoAC_path_infinite_unit&#45;&gt;GCHtoAC_path_pred_sum</title>
<path fill="none" stroke="black" d="M1127,-293.13C1127,-270.9 1127,-231.99 1127,-205.72"/>
<polygon fill="black" stroke="black" points="1130.5,-205.65 1127,-195.65 1123.5,-205.65 1130.5,-205.65"/>
</g>
<!-- GCHtoAC_path_unit_nat -->
<g id="node23" class="node">
<title>GCHtoAC_path_unit_nat</title>
<g id="a_node23"><a xlink:href="GCHtoAC.html#path_unit_nat" xlink:title="path_unit_nat">
<ellipse fill="#f070d1" stroke="black" cx="1422" cy="-177.39" rx="74.19" ry="18"/>
<text text-anchor="middle" x="1422" y="-173.69" font-family="Times,serif" font-size="14.00">path_unit_nat</text>
</a>
</g>
</g>
<!-- GCHtoAC_path_infinite_unit&#45;&gt;GCHtoAC_path_unit_nat -->
<g id="edge22" class="edge">
<title>GCHtoAC_path_infinite_unit&#45;&gt;GCHtoAC_path_unit_nat</title>
<path fill="none" stroke="black" d="M1162,-294.73C1216.07,-270.54 1319.8,-224.12 1378.58,-197.82"/>
<polygon fill="black" stroke="black" points="1380.26,-200.9 1387.96,-193.62 1377.4,-194.51 1380.26,-200.9"/>
</g>
<!-- GCHtoAC_path_sum_assoc -->
<g id="node25" class="node">
<title>GCHtoAC_path_sum_assoc</title>
<g id="a_node25"><a xlink:href="GCHtoAC.html#path_sum_assoc" xlink:title="path_sum_assoc">
<ellipse fill="#f070d1" stroke="black" cx="943" cy="-177.39" rx="85.29" ry="18"/>
<text text-anchor="middle" x="943" y="-173.69" font-family="Times,serif" font-size="14.00">path_sum_assoc</text>
</a>
</g>
</g>
<!-- GCHtoAC_path_infinite_unit&#45;&gt;GCHtoAC_path_sum_assoc -->
<g id="edge23" class="edge">
<title>GCHtoAC_path_infinite_unit&#45;&gt;GCHtoAC_path_sum_assoc</title>
<path fill="none" stroke="black" d="M1104.07,-293.94C1071.34,-270.46 1011.12,-227.26 974.31,-200.85"/>
<polygon fill="black" stroke="black" points="976.1,-197.83 965.93,-194.84 972.02,-203.51 976.1,-197.83"/>
</g>
<!-- GCHtoAC_ran -->
<g id="node17" class="node">
<title>GCHtoAC_ran</title>
<g id="a_node17"><a xlink:href="GCHtoAC.html#ran" xlink:title="ran">
<ellipse fill="#f070d1" stroke="black" cx="1278" cy="-57.39" rx="27" ry="18"/>
<text text-anchor="middle" x="1278" y="-53.69" font-family="Times,serif" font-size="14.00">ran</text>
</a>
</g>
</g>
<!-- GCHtoAC_path_ran&#45;&gt;GCHtoAC_ran -->
<g id="edge24" class="edge">
<title>GCHtoAC_path_ran&#45;&gt;GCHtoAC_ran</title>
<path fill="none" stroke="black" d="M1278,-159.23C1278,-139.92 1278,-108.28 1278,-85.59"/>
<polygon fill="black" stroke="black" points="1281.5,-85.57 1278,-75.57 1274.5,-85.57 1281.5,-85.57"/>
</g>
<!-- GCHtoAC_path_bool_prop -->
<g id="node20" class="node">
<title>GCHtoAC_path_bool_prop</title>
<g id="a_node20"><a xlink:href="GCHtoAC.html#path_bool_prop" xlink:title="path_bool_prop">
<ellipse fill="#f070d1" stroke="black" cx="1595" cy="-177.39" rx="81.49" ry="18"/>
<text text-anchor="middle" x="1595" y="-173.69" font-family="Times,serif" font-size="14.00">path_bool_prop</text>
</a>
</g>
</g>
<!-- GCHtoAC_path_bool_subsingleton&#45;&gt;GCHtoAC_path_bool_prop -->
<g id="edge25" class="edge">
<title>GCHtoAC_path_bool_subsingleton&#45;&gt;GCHtoAC_path_bool_prop</title>
<path fill="none" stroke="black" d="M1595,-293.13C1595,-270.9 1595,-231.99 1595,-205.72"/>
<polygon fill="black" stroke="black" points="1598.5,-205.65 1595,-195.65 1591.5,-205.65 1598.5,-205.65"/>
</g>
<!-- GCHtoAC_path_unit_fun -->
<g id="node22" class="node">
<title>GCHtoAC_path_unit_fun</title>
<g id="a_node22"><a xlink:href="GCHtoAC.html#path_unit_fun" xlink:title="path_unit_fun">
<ellipse fill="#f070d1" stroke="black" cx="1768" cy="-177.39" rx="74.19" ry="18"/>
<text text-anchor="middle" x="1768" y="-173.69" font-family="Times,serif" font-size="14.00">path_unit_fun</text>
</a>
</g>
</g>
<!-- GCHtoAC_path_bool_subsingleton&#45;&gt;GCHtoAC_path_unit_fun -->
<g id="edge26" class="edge">
<title>GCHtoAC_path_bool_subsingleton&#45;&gt;GCHtoAC_path_unit_fun</title>
<path fill="none" stroke="black" d="M1616.91,-293.67C1647.67,-270.2 1703.75,-227.41 1738.26,-201.08"/>
<polygon fill="black" stroke="black" points="1740.71,-203.61 1746.54,-194.77 1736.47,-198.05 1740.71,-203.61"/>
</g>
<!-- GCHtoAC_path_bool_prop&#45;&gt;GCHtoAC_PE -->
<g id="edge27" class="edge">
<title>GCHtoAC_path_bool_prop&#45;&gt;GCHtoAC_PE</title>
<path fill="none" stroke="black" d="M1536,-164.86C1525.68,-162.95 1515.04,-161.06 1505,-159.39 1249.69,-117.01 940.58,-76.41 836.32,-63.02"/>
<polygon fill="black" stroke="black" points="836.68,-59.53 826.31,-61.73 835.79,-66.48 836.68,-59.53"/>
</g>
</g>
</svg>
