<?xml version="1.0" encoding="UTF-8" standalone="no"?>
<!DOCTYPE svg PUBLIC "-//W3C//DTD SVG 1.1//EN"
 "http://www.w3.org/Graphics/SVG/1.1/DTD/svg11.dtd">
<!-- Generated by graphviz version 2.43.0 (0)
 -->
<!-- Title: HoTT_Spaces_BAut Pages: 1 -->
<svg width="1614pt" height="811pt"
 viewBox="0.00 0.00 1614.00 811.00" xmlns="http://www.w3.org/2000/svg" xmlns:xlink="http://www.w3.org/1999/xlink">
<g id="graph0" class="graph" transform="scale(1 1) rotate(0) translate(4 807)">
<title>HoTT_Spaces_BAut</title>
<polygon fill="white" stroke="transparent" points="-4,4 -4,-807 1610,-807 1610,4 -4,4"/>
<g id="clust1" class="cluster">
<title>cluster_BAut</title>
<polygon fill="#ffffc3" stroke="black" points="8,-12.87 8,-790.13 1598,-790.13 1598,-12.87 8,-12.87"/>
<text text-anchor="middle" x="34" y="-774.93" font-family="Times,serif" font-size="14.00">BAut</text>
</g>
<!-- BAut_equiv_pmap_pbaut_pfibration_connected -->
<g id="node1" class="node">
<title>BAut_equiv_pmap_pbaut_pfibration_connected</title>
<g id="a_node1"><a xlink:href="BAut.html#equiv_pmap_pbaut_pfibration_connected" xlink:title="equiv_pmap_pbaut_pfibration_connected">
<ellipse fill="#f070d1" stroke="black" cx="1383" cy="-698.87" rx="198.77" ry="18"/>
<ellipse fill="none" stroke="black" cx="1383" cy="-698.87" rx="202.77" ry="22"/>
<ellipse fill="none" stroke="black" cx="1383" cy="-698.87" rx="206.76" ry="26"/>
<text text-anchor="middle" x="1383" y="-695.17" font-family="Times,serif" font-size="14.00">equiv_pmap_pbaut_pfibration_connected</text>
</a>
</g>
</g>
<!-- BAut_equiv_pmap_pbaut_type_p -->
<g id="node2" class="node">
<title>BAut_equiv_pmap_pbaut_type_p</title>
<g id="a_node2"><a xlink:href="BAut.html#equiv_pmap_pbaut_type_p" xlink:title="equiv_pmap_pbaut_type_p">
<ellipse fill="#f070d1" stroke="black" cx="1419" cy="-556.87" rx="132.68" ry="18"/>
<text text-anchor="middle" x="1419" y="-553.17" font-family="Times,serif" font-size="14.00">equiv_pmap_pbaut_type_p</text>
</a>
</g>
</g>
<!-- BAut_equiv_pmap_pbaut_pfibration_connected&#45;&gt;BAut_equiv_pmap_pbaut_type_p -->
<g id="edge1" class="edge">
<title>BAut_equiv_pmap_pbaut_pfibration_connected&#45;&gt;BAut_equiv_pmap_pbaut_type_p</title>
<path fill="none" stroke="black" d="M1389.44,-672.84C1395.8,-648.1 1405.51,-610.35 1412.05,-584.92"/>
<polygon fill="black" stroke="black" points="1415.45,-585.74 1414.55,-575.18 1408.67,-583.99 1415.45,-585.74"/>
</g>
<!-- BAut_pequiv_pbaut_typeOp -->
<g id="node4" class="node">
<title>BAut_pequiv_pbaut_typeOp</title>
<g id="a_node4"><a xlink:href="BAut.html#pequiv_pbaut_typeOp" xlink:title="pequiv_pbaut_typeOp">
<ellipse fill="#f070d1" stroke="black" cx="1185" cy="-414.87" rx="111.28" ry="18"/>
<text text-anchor="middle" x="1185" y="-411.17" font-family="Times,serif" font-size="14.00">pequiv_pbaut_typeOp</text>
</a>
</g>
</g>
<!-- BAut_equiv_pmap_pbaut_type_p&#45;&gt;BAut_pequiv_pbaut_typeOp -->
<g id="edge2" class="edge">
<title>BAut_equiv_pmap_pbaut_type_p&#45;&gt;BAut_pequiv_pbaut_typeOp</title>
<path fill="none" stroke="black" d="M1391.24,-539.26C1348.93,-513.95 1268.29,-465.71 1221.36,-437.63"/>
<polygon fill="black" stroke="black" points="1223.1,-434.59 1212.73,-432.46 1219.51,-440.6 1223.1,-434.59"/>
</g>
<!-- BAut_equiv_pmap_pbaut_pfibration -->
<g id="node3" class="node">
<title>BAut_equiv_pmap_pbaut_pfibration</title>
<g id="a_node3"><a xlink:href="BAut.html#equiv_pmap_pbaut_pfibration" xlink:title="equiv_pmap_pbaut_pfibration">
<ellipse fill="#f070d1" stroke="black" cx="1113" cy="-556.87" rx="147.57" ry="18"/>
<ellipse fill="none" stroke="black" cx="1113" cy="-556.87" rx="151.57" ry="22"/>
<ellipse fill="none" stroke="black" cx="1113" cy="-556.87" rx="155.57" ry="26"/>
<text text-anchor="middle" x="1113" y="-553.17" font-family="Times,serif" font-size="14.00">equiv_pmap_pbaut_pfibration</text>
</a>
</g>
</g>
<!-- BAut_equiv_pmap_pbaut_pfibration&#45;&gt;BAut_pequiv_pbaut_typeOp -->
<g id="edge3" class="edge">
<title>BAut_equiv_pmap_pbaut_pfibration&#45;&gt;BAut_pequiv_pbaut_typeOp</title>
<path fill="none" stroke="black" d="M1125.87,-530.84C1138.71,-505.88 1158.36,-467.67 1171.44,-442.24"/>
<polygon fill="black" stroke="black" points="1174.64,-443.67 1176.1,-433.18 1168.41,-440.47 1174.64,-443.67"/>
</g>
<!-- BAut_equiv_baut_typeO -->
<g id="node6" class="node">
<title>BAut_equiv_baut_typeO</title>
<g id="a_node6"><a xlink:href="BAut.html#equiv_baut_typeO" xlink:title="equiv_baut_typeO">
<ellipse fill="#f070d1" stroke="black" cx="1496" cy="-286.87" rx="93.68" ry="18"/>
<text text-anchor="middle" x="1496" y="-283.17" font-family="Times,serif" font-size="14.00">equiv_baut_typeO</text>
</a>
</g>
</g>
<!-- BAut_pequiv_pbaut_typeOp&#45;&gt;BAut_equiv_baut_typeO -->
<g id="edge4" class="edge">
<title>BAut_pequiv_pbaut_typeOp&#45;&gt;BAut_equiv_baut_typeO</title>
<path fill="none" stroke="black" d="M1224.39,-397.92C1281.33,-374.85 1386.52,-332.23 1447.95,-307.34"/>
<polygon fill="black" stroke="black" points="1449.47,-310.5 1457.42,-303.5 1446.84,-304.02 1449.47,-310.5"/>
</g>
<!-- BAut_pBAut -->
<g id="node23" class="node">
<title>BAut_pBAut</title>
<g id="a_node23"><a xlink:href="BAut.html#pBAut" xlink:title="pBAut">
<ellipse fill="#f070d1" stroke="black" cx="1345" cy="-286.87" rx="39.79" ry="18"/>
<text text-anchor="middle" x="1345" y="-283.17" font-family="Times,serif" font-size="14.00">pBAut</text>
</a>
</g>
</g>
<!-- BAut_pequiv_pbaut_typeOp&#45;&gt;BAut_pBAut -->
<g id="edge5" class="edge">
<title>BAut_pequiv_pbaut_typeOp&#45;&gt;BAut_pBAut</title>
<path fill="none" stroke="black" d="M1206.25,-397.14C1234.96,-374.53 1286.19,-334.19 1317.72,-309.36"/>
<polygon fill="black" stroke="black" points="1319.98,-312.03 1325.67,-303.1 1315.65,-306.53 1319.98,-312.03"/>
</g>
<!-- BAut_equiv_map_baut_fibration -->
<g id="node5" class="node">
<title>BAut_equiv_map_baut_fibration</title>
<g id="a_node5"><a xlink:href="BAut.html#equiv_map_baut_fibration" xlink:title="equiv_map_baut_fibration">
<ellipse fill="#f070d1" stroke="black" cx="1452" cy="-414.87" rx="129.98" ry="18"/>
<ellipse fill="none" stroke="black" cx="1452" cy="-414.87" rx="133.98" ry="22"/>
<ellipse fill="none" stroke="black" cx="1452" cy="-414.87" rx="137.98" ry="26"/>
<text text-anchor="middle" x="1452" y="-411.17" font-family="Times,serif" font-size="14.00">equiv_map_baut_fibration</text>
</a>
</g>
</g>
<!-- BAut_equiv_map_baut_fibration&#45;&gt;BAut_equiv_baut_typeO -->
<g id="edge6" class="edge">
<title>BAut_equiv_map_baut_fibration&#45;&gt;BAut_equiv_baut_typeO</title>
<path fill="none" stroke="black" d="M1460.8,-388.68C1468.29,-367.23 1479.02,-336.5 1486.66,-314.61"/>
<polygon fill="black" stroke="black" points="1490.04,-315.55 1490.03,-304.96 1483.43,-313.24 1490.04,-315.55"/>
</g>
<!-- BAut_subuniverse_merely_equiv -->
<g id="node7" class="node">
<title>BAut_subuniverse_merely_equiv</title>
<g id="a_node7"><a xlink:href="BAut.html#subuniverse_merely_equiv" xlink:title="subuniverse_merely_equiv">
<ellipse fill="#f070d1" stroke="black" cx="1343" cy="-170.87" rx="133.78" ry="18"/>
<text text-anchor="middle" x="1343" y="-167.17" font-family="Times,serif" font-size="14.00">subuniverse_merely_equiv</text>
</a>
</g>
</g>
<!-- BAut_equiv_baut_typeO&#45;&gt;BAut_subuniverse_merely_equiv -->
<g id="edge7" class="edge">
<title>BAut_equiv_baut_typeO&#45;&gt;BAut_subuniverse_merely_equiv</title>
<path fill="none" stroke="black" d="M1473.75,-269.3C1447.5,-249.74 1403.69,-217.09 1374.09,-195.04"/>
<polygon fill="black" stroke="black" points="1375.88,-192.01 1365.77,-188.84 1371.7,-197.62 1375.88,-192.01"/>
</g>
<!-- BAut_BAut -->
<g id="node26" class="node">
<title>BAut_BAut</title>
<g id="a_node26"><a xlink:href="BAut.html#BAut" xlink:title="BAut">
<ellipse fill="#f070d1" stroke="black" cx="613" cy="-54.87" rx="33.6" ry="18"/>
<text text-anchor="middle" x="613" y="-51.17" font-family="Times,serif" font-size="14.00">BAut</text>
</a>
</g>
</g>
<!-- BAut_equiv_baut_typeO&#45;&gt;BAut_BAut -->
<g id="edge8" class="edge">
<title>BAut_equiv_baut_typeO&#45;&gt;BAut_BAut</title>
<path fill="none" stroke="black" d="M1500.77,-268.89C1507.54,-240.64 1516.07,-184.03 1486,-152.87 1427.79,-92.55 825.46,-64.29 656.72,-57.52"/>
<polygon fill="black" stroke="black" points="656.83,-54.02 646.7,-57.12 656.55,-61.01 656.83,-54.02"/>
</g>
<!-- BAut_id_center2_baut -->
<g id="node8" class="node">
<title>BAut_id_center2_baut</title>
<g id="a_node8"><a xlink:href="BAut.html#id_center2_baut" xlink:title="id_center2_baut">
<ellipse fill="#f070d1" stroke="black" cx="846" cy="-556.87" rx="85.27" ry="18"/>
<ellipse fill="none" stroke="black" cx="846" cy="-556.87" rx="89.28" ry="22"/>
<ellipse fill="none" stroke="black" cx="846" cy="-556.87" rx="93.29" ry="26"/>
<text text-anchor="middle" x="846" y="-553.17" font-family="Times,serif" font-size="14.00">id_center2_baut</text>
</a>
</g>
</g>
<!-- BAut_center2_baut -->
<g id="node9" class="node">
<title>BAut_center2_baut</title>
<g id="a_node9"><a xlink:href="BAut.html#center2_baut" xlink:title="center2_baut">
<ellipse fill="#f070d1" stroke="black" cx="984" cy="-414.87" rx="71.49" ry="18"/>
<text text-anchor="middle" x="984" y="-411.17" font-family="Times,serif" font-size="14.00">center2_baut</text>
</a>
</g>
</g>
<!-- BAut_id_center2_baut&#45;&gt;BAut_center2_baut -->
<g id="edge9" class="edge">
<title>BAut_id_center2_baut&#45;&gt;BAut_center2_baut</title>
<path fill="none" stroke="black" d="M870.04,-531.49C895.37,-505.79 935.03,-465.56 960.25,-439.97"/>
<polygon fill="black" stroke="black" points="963.06,-442.11 967.59,-432.53 958.07,-437.19 963.06,-442.11"/>
</g>
<!-- BAut_merely_path_baut -->
<g id="node18" class="node">
<title>BAut_merely_path_baut</title>
<g id="a_node18"><a xlink:href="BAut.html#merely_path_baut" xlink:title="merely_path_baut">
<ellipse fill="#f070d1" stroke="black" cx="110" cy="-414.87" rx="93.68" ry="18"/>
<text text-anchor="middle" x="110" y="-411.17" font-family="Times,serif" font-size="14.00">merely_path_baut</text>
</a>
</g>
</g>
<!-- BAut_id_center2_baut&#45;&gt;BAut_merely_path_baut -->
<g id="edge10" class="edge">
<title>BAut_id_center2_baut&#45;&gt;BAut_merely_path_baut</title>
<path fill="none" stroke="black" d="M778.95,-538.7C767.33,-535.94 755.34,-533.22 744,-530.87 509.17,-482.3 446.83,-489.45 212,-440.87 199.46,-438.28 186.13,-435.23 173.38,-432.16"/>
<polygon fill="black" stroke="black" points="173.84,-428.68 163.3,-429.71 172.19,-435.48 173.84,-428.68"/>
</g>
<!-- BAut_trunc_baut -->
<g id="node19" class="node">
<title>BAut_trunc_baut</title>
<g id="a_node19"><a xlink:href="BAut.html#trunc_baut" xlink:title="trunc_baut">
<ellipse fill="#f070d1" stroke="black" cx="684" cy="-414.87" rx="61.19" ry="18"/>
<text text-anchor="middle" x="684" y="-411.17" font-family="Times,serif" font-size="14.00">trunc_baut</text>
</a>
</g>
</g>
<!-- BAut_id_center2_baut&#45;&gt;BAut_trunc_baut -->
<g id="edge11" class="edge">
<title>BAut_id_center2_baut&#45;&gt;BAut_trunc_baut</title>
<path fill="none" stroke="black" d="M818.15,-531.81C788.05,-505.79 740.42,-464.63 710.75,-438.99"/>
<polygon fill="black" stroke="black" points="712.75,-436.09 702.89,-432.2 708.17,-441.39 712.75,-436.09"/>
</g>
<!-- BAut_center2_baut_subproof0 -->
<g id="node10" class="node">
<title>BAut_center2_baut_subproof0</title>
<g id="a_node10"><a xlink:href="BAut.html#center2_baut_subproof0" xlink:title="center2_baut_subproof0">
<ellipse fill="#f070d1" stroke="black" cx="1165" cy="-286.87" rx="122.68" ry="18"/>
<text text-anchor="middle" x="1165" y="-283.17" font-family="Times,serif" font-size="14.00">center2_baut_subproof0</text>
</a>
</g>
</g>
<!-- BAut_center2_baut&#45;&gt;BAut_center2_baut_subproof0 -->
<g id="edge12" class="edge">
<title>BAut_center2_baut&#45;&gt;BAut_center2_baut_subproof0</title>
<path fill="none" stroke="black" d="M1007.29,-397.66C1039.2,-375.45 1096.65,-335.45 1132.7,-310.36"/>
<polygon fill="black" stroke="black" points="1134.73,-313.21 1140.93,-304.63 1130.73,-307.47 1134.73,-313.21"/>
</g>
<!-- BAut_center2_baut_subproof -->
<g id="node11" class="node">
<title>BAut_center2_baut_subproof</title>
<g id="a_node11"><a xlink:href="BAut.html#center2_baut_subproof" xlink:title="center2_baut_subproof">
<ellipse fill="#f070d1" stroke="black" cx="907" cy="-286.87" rx="116.98" ry="18"/>
<text text-anchor="middle" x="907" y="-283.17" font-family="Times,serif" font-size="14.00">center2_baut_subproof</text>
</a>
</g>
</g>
<!-- BAut_center2_baut&#45;&gt;BAut_center2_baut_subproof -->
<g id="edge13" class="edge">
<title>BAut_center2_baut&#45;&gt;BAut_center2_baut_subproof</title>
<path fill="none" stroke="black" d="M973.62,-396.88C960.53,-375.46 937.91,-338.45 922.7,-313.57"/>
<polygon fill="black" stroke="black" points="925.67,-311.71 917.47,-305 919.69,-315.36 925.67,-311.71"/>
</g>
<!-- BAut_baut_ind_hset -->
<g id="node14" class="node">
<title>BAut_baut_ind_hset</title>
<g id="a_node14"><a xlink:href="BAut.html#baut_ind_hset" xlink:title="baut_ind_hset">
<ellipse fill="#f070d1" stroke="black" cx="697" cy="-286.87" rx="75.29" ry="18"/>
<text text-anchor="middle" x="697" y="-283.17" font-family="Times,serif" font-size="14.00">baut_ind_hset</text>
</a>
</g>
</g>
<!-- BAut_center2_baut&#45;&gt;BAut_baut_ind_hset -->
<g id="edge14" class="edge">
<title>BAut_center2_baut&#45;&gt;BAut_baut_ind_hset</title>
<path fill="none" stroke="black" d="M949.95,-398.93C897.77,-376.02 798.05,-332.24 740.63,-307.03"/>
<polygon fill="black" stroke="black" points="742.02,-303.81 731.45,-303 739.2,-310.22 742.02,-303.81"/>
</g>
<!-- BAut_trunc_el_baut -->
<g id="node17" class="node">
<title>BAut_trunc_el_baut</title>
<g id="a_node17"><a xlink:href="BAut.html#trunc_el_baut" xlink:title="trunc_el_baut">
<ellipse fill="#f070d1" stroke="black" cx="530" cy="-286.87" rx="73.39" ry="18"/>
<text text-anchor="middle" x="530" y="-283.17" font-family="Times,serif" font-size="14.00">trunc_el_baut</text>
</a>
</g>
</g>
<!-- BAut_center2_baut&#45;&gt;BAut_trunc_el_baut -->
<g id="edge15" class="edge">
<title>BAut_center2_baut&#45;&gt;BAut_trunc_el_baut</title>
<path fill="none" stroke="black" d="M941.74,-400.33C929.59,-396.53 916.29,-392.45 904,-388.87 793.14,-356.6 662.77,-322.19 588.92,-303.02"/>
<polygon fill="black" stroke="black" points="589.44,-299.54 578.88,-300.42 587.68,-306.32 589.44,-299.54"/>
</g>
<!-- BAut_id_center_baut -->
<g id="node12" class="node">
<title>BAut_id_center_baut</title>
<g id="a_node12"><a xlink:href="BAut.html#id_center_baut" xlink:title="id_center_baut">
<ellipse fill="#f070d1" stroke="black" cx="648" cy="-556.87" rx="79.11" ry="18"/>
<ellipse fill="none" stroke="black" cx="648" cy="-556.87" rx="83.1" ry="22"/>
<ellipse fill="none" stroke="black" cx="648" cy="-556.87" rx="87.09" ry="26"/>
<text text-anchor="middle" x="648" y="-553.17" font-family="Times,serif" font-size="14.00">id_center_baut</text>
</a>
</g>
</g>
<!-- BAut_center_baut -->
<g id="node13" class="node">
<title>BAut_center_baut</title>
<g id="a_node13"><a xlink:href="BAut.html#center_baut" xlink:title="center_baut">
<ellipse fill="#f070d1" stroke="black" cx="829" cy="-414.87" rx="65.79" ry="18"/>
<text text-anchor="middle" x="829" y="-411.17" font-family="Times,serif" font-size="14.00">center_baut</text>
</a>
</g>
</g>
<!-- BAut_id_center_baut&#45;&gt;BAut_center_baut -->
<g id="edge16" class="edge">
<title>BAut_id_center_baut&#45;&gt;BAut_center_baut</title>
<path fill="none" stroke="black" d="M678.3,-532.44C712.25,-506.18 766.9,-463.91 800.22,-438.13"/>
<polygon fill="black" stroke="black" points="802.44,-440.84 808.21,-431.95 798.16,-435.3 802.44,-440.84"/>
</g>
<!-- BAut_id_center_baut&#45;&gt;BAut_merely_path_baut -->
<g id="edge17" class="edge">
<title>BAut_id_center_baut&#45;&gt;BAut_merely_path_baut</title>
<path fill="none" stroke="black" d="M583.91,-539.19C480.09,-512.18 276.4,-459.18 173.18,-432.31"/>
<polygon fill="black" stroke="black" points="173.77,-428.85 163.21,-429.72 172.01,-435.63 173.77,-428.85"/>
</g>
<!-- BAut_id_center_baut&#45;&gt;BAut_trunc_baut -->
<g id="edge18" class="edge">
<title>BAut_id_center_baut&#45;&gt;BAut_trunc_baut</title>
<path fill="none" stroke="black" d="M654.44,-530.84C660.8,-506.1 670.51,-468.35 677.05,-442.92"/>
<polygon fill="black" stroke="black" points="680.45,-443.74 679.55,-433.18 673.67,-441.99 680.45,-443.74"/>
</g>
<!-- BAut_center_baut&#45;&gt;BAut_baut_ind_hset -->
<g id="edge19" class="edge">
<title>BAut_center_baut&#45;&gt;BAut_baut_ind_hset</title>
<path fill="none" stroke="black" d="M811.74,-397.4C788.85,-375.54 748.26,-336.81 722.01,-311.74"/>
<polygon fill="black" stroke="black" points="724.33,-309.13 714.68,-304.75 719.5,-314.19 724.33,-309.13"/>
</g>
<!-- BAut_center_baut&#45;&gt;BAut_trunc_el_baut -->
<g id="edge20" class="edge">
<title>BAut_center_baut&#45;&gt;BAut_trunc_el_baut</title>
<path fill="none" stroke="black" d="M794.7,-399.42C740.39,-376.53 634.61,-331.96 574.52,-306.64"/>
<polygon fill="black" stroke="black" points="575.86,-303.4 565.28,-302.74 573.14,-309.85 575.86,-303.4"/>
</g>
<!-- BAut_ispointed_baut -->
<g id="node24" class="node">
<title>BAut_ispointed_baut</title>
<g id="a_node24"><a xlink:href="BAut.html#ispointed_baut" xlink:title="ispointed_baut">
<ellipse fill="#f070d1" stroke="black" cx="697" cy="-170.87" rx="79.09" ry="18"/>
<text text-anchor="middle" x="697" y="-167.17" font-family="Times,serif" font-size="14.00">ispointed_baut</text>
</a>
</g>
</g>
<!-- BAut_baut_ind_hset&#45;&gt;BAut_ispointed_baut -->
<g id="edge21" class="edge">
<title>BAut_baut_ind_hset&#45;&gt;BAut_ispointed_baut</title>
<path fill="none" stroke="black" d="M697,-268.56C697,-250.12 697,-220.69 697,-199.14"/>
<polygon fill="black" stroke="black" points="700.5,-198.98 697,-188.98 693.5,-198.98 700.5,-198.98"/>
</g>
<!-- BAut_BAut_pr1 -->
<g id="node25" class="node">
<title>BAut_BAut_pr1</title>
<g id="a_node25"><a xlink:href="BAut.html#BAut_pr1" xlink:title="BAut_pr1">
<ellipse fill="#f070d1" stroke="black" cx="530" cy="-170.87" rx="53.89" ry="18"/>
<text text-anchor="middle" x="530" y="-167.17" font-family="Times,serif" font-size="14.00">BAut_pr1</text>
</a>
</g>
</g>
<!-- BAut_baut_ind_hset&#45;&gt;BAut_BAut_pr1 -->
<g id="edge22" class="edge">
<title>BAut_baut_ind_hset&#45;&gt;BAut_BAut_pr1</title>
<path fill="none" stroke="black" d="M673.07,-269.54C643.64,-249.45 593.61,-215.3 561.19,-193.17"/>
<polygon fill="black" stroke="black" points="562.78,-190.01 552.55,-187.26 558.83,-195.79 562.78,-190.01"/>
</g>
<!-- BAut_ap_baut_prod_r -->
<g id="node15" class="node">
<title>BAut_ap_baut_prod_r</title>
<g id="a_node15"><a xlink:href="BAut.html#ap_baut_prod_r" xlink:title="ap_baut_prod_r">
<ellipse fill="#f070d1" stroke="black" cx="311" cy="-414.87" rx="81.8" ry="18"/>
<ellipse fill="none" stroke="black" cx="311" cy="-414.87" rx="85.79" ry="22"/>
<ellipse fill="none" stroke="black" cx="311" cy="-414.87" rx="89.79" ry="26"/>
<text text-anchor="middle" x="311" y="-411.17" font-family="Times,serif" font-size="14.00">ap_baut_prod_r</text>
</a>
</g>
</g>
<!-- BAut_baut_prod_r -->
<g id="node16" class="node">
<title>BAut_baut_prod_r</title>
<g id="a_node16"><a xlink:href="BAut.html#baut_prod_r" xlink:title="baut_prod_r">
<ellipse fill="#f070d1" stroke="black" cx="240" cy="-286.87" rx="66.09" ry="18"/>
<text text-anchor="middle" x="240" y="-283.17" font-family="Times,serif" font-size="14.00">baut_prod_r</text>
</a>
</g>
</g>
<!-- BAut_ap_baut_prod_r&#45;&gt;BAut_baut_prod_r -->
<g id="edge23" class="edge">
<title>BAut_ap_baut_prod_r&#45;&gt;BAut_baut_prod_r</title>
<path fill="none" stroke="black" d="M296.97,-388.98C284.74,-367.27 267.05,-335.88 254.64,-313.85"/>
<polygon fill="black" stroke="black" points="257.63,-312.03 249.67,-305.04 251.53,-315.47 257.63,-312.03"/>
</g>
<!-- BAut_path_baut -->
<g id="node22" class="node">
<title>BAut_path_baut</title>
<g id="a_node22"><a xlink:href="BAut.html#path_baut" xlink:title="path_baut">
<ellipse fill="#f070d1" stroke="black" cx="381" cy="-286.87" rx="57.39" ry="18"/>
<text text-anchor="middle" x="381" y="-283.17" font-family="Times,serif" font-size="14.00">path_baut</text>
</a>
</g>
</g>
<!-- BAut_ap_baut_prod_r&#45;&gt;BAut_path_baut -->
<g id="edge24" class="edge">
<title>BAut_ap_baut_prod_r&#45;&gt;BAut_path_baut</title>
<path fill="none" stroke="black" d="M324.83,-388.98C336.96,-367.14 354.53,-335.52 366.78,-313.47"/>
<polygon fill="black" stroke="black" points="369.87,-315.11 371.67,-304.67 363.75,-311.71 369.87,-315.11"/>
</g>
<!-- BAut_baut_prod_r&#45;&gt;BAut_BAut_pr1 -->
<g id="edge25" class="edge">
<title>BAut_baut_prod_r&#45;&gt;BAut_BAut_pr1</title>
<path fill="none" stroke="black" d="M276.14,-271.67C329.68,-250.62 429.88,-211.23 487.07,-188.75"/>
<polygon fill="black" stroke="black" points="488.52,-191.94 496.55,-185.02 485.96,-185.42 488.52,-191.94"/>
</g>
<!-- BAut_trunc_el_baut&#45;&gt;BAut_BAut_pr1 -->
<g id="edge26" class="edge">
<title>BAut_trunc_el_baut&#45;&gt;BAut_BAut_pr1</title>
<path fill="none" stroke="black" d="M530,-268.56C530,-250.12 530,-220.69 530,-199.14"/>
<polygon fill="black" stroke="black" points="533.5,-198.98 530,-188.98 526.5,-198.98 533.5,-198.98"/>
</g>
<!-- BAut_merely_path_baut&#45;&gt;BAut_BAut -->
<g id="edge27" class="edge">
<title>BAut_merely_path_baut&#45;&gt;BAut_BAut</title>
<path fill="none" stroke="black" d="M112.32,-396.49C117.11,-366.84 130.69,-306.09 165,-268.87 280.53,-143.55 485.19,-84.7 572.12,-64.44"/>
<polygon fill="black" stroke="black" points="572.9,-67.85 581.88,-62.21 571.35,-61.03 572.9,-67.85"/>
</g>
<!-- BAut_trunc_baut&#45;&gt;BAut_path_baut -->
<g id="edge28" class="edge">
<title>BAut_trunc_baut&#45;&gt;BAut_path_baut</title>
<path fill="none" stroke="black" d="M650.12,-399.79C594.57,-376.68 484.22,-330.79 423.5,-305.55"/>
<polygon fill="black" stroke="black" points="424.77,-302.29 414.2,-301.68 422.09,-308.75 424.77,-302.29"/>
</g>
<!-- BAut_transport_path_baut -->
<g id="node20" class="node">
<title>BAut_transport_path_baut</title>
<g id="a_node20"><a xlink:href="BAut.html#transport_path_baut" xlink:title="transport_path_baut">
<ellipse fill="#f070d1" stroke="black" cx="429" cy="-556.87" rx="105.1" ry="18"/>
<ellipse fill="none" stroke="black" cx="429" cy="-556.87" rx="109.09" ry="22"/>
<ellipse fill="none" stroke="black" cx="429" cy="-556.87" rx="113.08" ry="26"/>
<text text-anchor="middle" x="429" y="-553.17" font-family="Times,serif" font-size="14.00">transport_path_baut</text>
</a>
</g>
</g>
<!-- BAut_ap_pr1_path_baut -->
<g id="node21" class="node">
<title>BAut_ap_pr1_path_baut</title>
<g id="a_node21"><a xlink:href="BAut.html#ap_pr1_path_baut" xlink:title="ap_pr1_path_baut">
<ellipse fill="#f070d1" stroke="black" cx="512" cy="-414.87" rx="92.88" ry="18"/>
<text text-anchor="middle" x="512" y="-411.17" font-family="Times,serif" font-size="14.00">ap_pr1_path_baut</text>
</a>
</g>
</g>
<!-- BAut_transport_path_baut&#45;&gt;BAut_ap_pr1_path_baut -->
<g id="edge29" class="edge">
<title>BAut_transport_path_baut&#45;&gt;BAut_ap_pr1_path_baut</title>
<path fill="none" stroke="black" d="M443.84,-530.84C458.79,-505.63 481.74,-466.91 496.82,-441.48"/>
<polygon fill="black" stroke="black" points="499.89,-443.16 501.98,-432.77 493.87,-439.59 499.89,-443.16"/>
</g>
<!-- BAut_ap_pr1_path_baut&#45;&gt;BAut_path_baut -->
<g id="edge30" class="edge">
<title>BAut_ap_pr1_path_baut&#45;&gt;BAut_path_baut</title>
<path fill="none" stroke="black" d="M494.6,-397.14C471.67,-375.09 431.21,-336.17 405.28,-311.22"/>
<polygon fill="black" stroke="black" points="407.68,-308.68 398.05,-304.27 402.83,-313.73 407.68,-308.68"/>
</g>
<!-- BAut_path_baut&#45;&gt;BAut_BAut_pr1 -->
<g id="edge31" class="edge">
<title>BAut_path_baut&#45;&gt;BAut_BAut_pr1</title>
<path fill="none" stroke="black" d="M401.72,-270.02C427.63,-250.2 472.12,-216.16 501.3,-193.83"/>
<polygon fill="black" stroke="black" points="503.64,-196.45 509.46,-187.59 499.39,-190.89 503.64,-196.45"/>
</g>
<!-- BAut_pBAut&#45;&gt;BAut_ispointed_baut -->
<g id="edge32" class="edge">
<title>BAut_pBAut&#45;&gt;BAut_ispointed_baut</title>
<path fill="none" stroke="black" d="M1315.81,-274.6C1309.66,-272.49 1303.17,-270.45 1297,-268.87 1114.16,-222.12 893.94,-193.35 777.81,-180.25"/>
<polygon fill="black" stroke="black" points="777.91,-176.74 767.59,-179.11 777.14,-183.7 777.91,-176.74"/>
</g>
<!-- BAut_ispointed_baut&#45;&gt;BAut_BAut -->
<g id="edge33" class="edge">
<title>BAut_ispointed_baut&#45;&gt;BAut_BAut</title>
<path fill="none" stroke="black" d="M684.61,-153.05C670.42,-133.81 647.08,-102.12 630.92,-80.19"/>
<polygon fill="black" stroke="black" points="633.65,-78 624.9,-72.03 628.02,-82.15 633.65,-78"/>
</g>
<!-- BAut_BAut_pr1&#45;&gt;BAut_BAut -->
<g id="edge34" class="edge">
<title>BAut_BAut_pr1&#45;&gt;BAut_BAut</title>
<path fill="none" stroke="black" d="M542.25,-153.05C556.26,-133.81 579.33,-102.12 595.29,-80.19"/>
<polygon fill="black" stroke="black" points="598.18,-82.17 601.24,-72.03 592.52,-78.05 598.18,-82.17"/>
</g>
</g>
</svg>
