<?xml version="1.0" encoding="UTF-8" standalone="no"?>
<!DOCTYPE svg PUBLIC "-//W3C//DTD SVG 1.1//EN"
 "http://www.w3.org/Graphics/SVG/1.1/DTD/svg11.dtd">
<!-- Generated by graphviz version 2.43.0 (0)
 -->
<!-- Title: HoTT_Algebra_Universal_Homomorphism Pages: 1 -->
<svg width="2419pt" height="1214pt"
 viewBox="0.00 0.00 2419.00 1213.50" xmlns="http://www.w3.org/2000/svg" xmlns:xlink="http://www.w3.org/1999/xlink">
<g id="graph0" class="graph" transform="scale(1 1) rotate(0) translate(4 1209.5)">
<title>HoTT_Algebra_Universal_Homomorphism</title>
<polygon fill="white" stroke="transparent" points="-4,4 -4,-1209.5 2415,-1209.5 2415,4 -4,4"/>
<g id="clust1" class="cluster">
<title>cluster_Homomorphism</title>
<polygon fill="#ffffc3" stroke="black" points="8,-16.43 8,-1189.07 2403,-1189.07 2403,-16.43 8,-16.43"/>
<text text-anchor="middle" x="73.5" y="-1173.87" font-family="Times,serif" font-size="14.00">Homomorphism</text>
</g>
<!-- Homomorphism_isomorphism_to_path -->
<g id="node1" class="node">
<title>Homomorphism_isomorphism_to_path</title>
<g id="a_node1"><a xlink:href="Homomorphism.html#isomorphism_to_path" xlink:title="isomorphism_to_path">
<ellipse fill="#f070d1" stroke="black" cx="387" cy="-1072.43" rx="109.69" ry="18"/>
<ellipse fill="none" stroke="black" cx="387" cy="-1072.43" rx="113.69" ry="22"/>
<ellipse fill="none" stroke="black" cx="387" cy="-1072.43" rx="117.68" ry="26"/>
<text text-anchor="middle" x="387" y="-1068.73" font-family="Times,serif" font-size="14.00">isomorphism_to_path</text>
</a>
</g>
</g>
<!-- Homomorphism_path_operations_isomorphism -->
<g id="node2" class="node">
<title>Homomorphism_path_operations_isomorphism</title>
<g id="a_node2"><a xlink:href="Homomorphism.html#path_operations_isomorphism" xlink:title="path_operations_isomorphism">
<ellipse fill="#f070d1" stroke="black" cx="387" cy="-891.43" rx="149.47" ry="18"/>
<text text-anchor="middle" x="387" y="-887.73" font-family="Times,serif" font-size="14.00">path_operations_isomorphism</text>
</a>
</g>
</g>
<!-- Homomorphism_isomorphism_to_path&#45;&gt;Homomorphism_path_operations_isomorphism -->
<g id="edge1" class="edge">
<title>Homomorphism_isomorphism_to_path&#45;&gt;Homomorphism_path_operations_isomorphism</title>
<path fill="none" stroke="black" d="M387,-1046.16C387,-1012.77 387,-954.17 387,-919.77"/>
<polygon fill="black" stroke="black" points="390.5,-919.51 387,-909.51 383.5,-919.51 390.5,-919.51"/>
</g>
<!-- Homomorphism_path_operations_equiv -->
<g id="node3" class="node">
<title>Homomorphism_path_operations_equiv</title>
<g id="a_node3"><a xlink:href="Homomorphism.html#path_operations_equiv" xlink:title="path_operations_equiv">
<ellipse fill="#f070d1" stroke="black" cx="2031" cy="-217.43" rx="115.08" ry="18"/>
<text text-anchor="middle" x="2031" y="-213.73" font-family="Times,serif" font-size="14.00">path_operations_equiv</text>
</a>
</g>
</g>
<!-- Homomorphism_path_operations_isomorphism&#45;&gt;Homomorphism_path_operations_equiv -->
<g id="edge2" class="edge">
<title>Homomorphism_path_operations_isomorphism&#45;&gt;Homomorphism_path_operations_equiv</title>
<path fill="none" stroke="black" d="M473.65,-876.73C816,-822.18 2058.48,-620.34 2112,-555.43 2141.4,-519.77 2124.79,-391.85 2112,-347.43 2100.5,-307.47 2072.57,-267.94 2052.73,-243.38"/>
<polygon fill="black" stroke="black" points="2055.41,-241.13 2046.35,-235.64 2050.02,-245.58 2055.41,-241.13"/>
</g>
<!-- Homomorphism_equiv_isomorphism -->
<g id="node17" class="node">
<title>Homomorphism_equiv_isomorphism</title>
<g id="a_node17"><a xlink:href="Homomorphism.html#equiv_isomorphism" xlink:title="equiv_isomorphism">
<ellipse fill="#f070d1" stroke="black" cx="387" cy="-710.43" rx="100.98" ry="18"/>
<text text-anchor="middle" x="387" y="-706.73" font-family="Times,serif" font-size="14.00">equiv_isomorphism</text>
</a>
</g>
</g>
<!-- Homomorphism_path_operations_isomorphism&#45;&gt;Homomorphism_equiv_isomorphism -->
<g id="edge3" class="edge">
<title>Homomorphism_path_operations_isomorphism&#45;&gt;Homomorphism_equiv_isomorphism</title>
<path fill="none" stroke="black" d="M387,-873.27C387,-842.13 387,-776.09 387,-738.71"/>
<polygon fill="black" stroke="black" points="390.5,-738.54 387,-728.54 383.5,-738.54 390.5,-738.54"/>
</g>
<!-- Homomorphism_OpPreserving -->
<g id="node33" class="node">
<title>Homomorphism_OpPreserving</title>
<g id="a_node33"><a xlink:href="Homomorphism.html#OpPreserving" xlink:title="OpPreserving">
<ellipse fill="#f070d1" stroke="black" cx="2031" cy="-69.43" rx="74.99" ry="18"/>
<text text-anchor="middle" x="2031" y="-65.73" font-family="Times,serif" font-size="14.00">OpPreserving</text>
</a>
</g>
</g>
<!-- Homomorphism_path_operations_equiv&#45;&gt;Homomorphism_OpPreserving -->
<g id="edge4" class="edge">
<title>Homomorphism_path_operations_equiv&#45;&gt;Homomorphism_OpPreserving</title>
<path fill="none" stroke="black" d="M2031,-199.4C2031,-174.47 2031,-127.8 2031,-97.97"/>
<polygon fill="black" stroke="black" points="2034.5,-97.81 2031,-87.81 2027.5,-97.81 2034.5,-97.81"/>
</g>
<!-- Homomorphism_hom_inv -->
<g id="node4" class="node">
<title>Homomorphism_hom_inv</title>
<g id="a_node4"><a xlink:href="Homomorphism.html#hom_inv" xlink:title="hom_inv">
<ellipse fill="#f070d1" stroke="black" cx="1328" cy="-891.43" rx="49.31" ry="18"/>
<ellipse fill="none" stroke="black" cx="1328" cy="-891.43" rx="53.3" ry="22"/>
<ellipse fill="none" stroke="black" cx="1328" cy="-891.43" rx="57.29" ry="26"/>
<text text-anchor="middle" x="1328" y="-887.73" font-family="Times,serif" font-size="14.00">hom_inv</text>
</a>
</g>
</g>
<!-- Homomorphism_is_homomorphism_inv -->
<g id="node6" class="node">
<title>Homomorphism_is_homomorphism_inv</title>
<g id="a_node6"><a xlink:href="Homomorphism.html#is_homomorphism_inv" xlink:title="is_homomorphism_inv">
<ellipse fill="#f070d1" stroke="black" cx="648" cy="-710.43" rx="113.98" ry="18"/>
<text text-anchor="middle" x="648" y="-706.73" font-family="Times,serif" font-size="14.00">is_homomorphism_inv</text>
</a>
</g>
</g>
<!-- Homomorphism_hom_inv&#45;&gt;Homomorphism_is_homomorphism_inv -->
<g id="edge5" class="edge">
<title>Homomorphism_hom_inv&#45;&gt;Homomorphism_is_homomorphism_inv</title>
<path fill="none" stroke="black" d="M1279.1,-877.56C1159.07,-845.96 849.86,-764.56 713.85,-728.76"/>
<polygon fill="black" stroke="black" points="714.53,-725.32 703.97,-726.16 712.75,-732.09 714.53,-725.32"/>
</g>
<!-- Homomorphism_Build_Homomorphism -->
<g id="node27" class="node">
<title>Homomorphism_Build_Homomorphism</title>
<g id="a_node27"><a xlink:href="Homomorphism.html#Build_Homomorphism" xlink:title="Build_Homomorphism">
<ellipse fill="#7faaff" stroke="black" cx="1771" cy="-365.43" rx="113.98" ry="18"/>
<text text-anchor="middle" x="1771" y="-361.73" font-family="Times,serif" font-size="14.00">Build_Homomorphism</text>
</a>
</g>
</g>
<!-- Homomorphism_hom_inv&#45;&gt;Homomorphism_Build_Homomorphism -->
<g id="edge6" class="edge">
<title>Homomorphism_hom_inv&#45;&gt;Homomorphism_Build_Homomorphism</title>
<path fill="none" stroke="black" d="M1375.12,-876.32C1480.85,-841.79 1735.58,-741.93 1836,-555.43 1865.7,-500.27 1821.19,-428.92 1792.36,-391.64"/>
<polygon fill="black" stroke="black" points="1794.74,-389.01 1785.78,-383.36 1789.26,-393.37 1794.74,-389.01"/>
</g>
<!-- Homomorphism_Homomorphism -->
<g id="node28" class="node">
<title>Homomorphism_Homomorphism</title>
<g id="a_node28"><a xlink:href="Homomorphism.html#Homomorphism" xlink:title="Homomorphism">
<ellipse fill="#e2cdfa" stroke="black" cx="1554" cy="-365.43" rx="85.29" ry="18"/>
<text text-anchor="middle" x="1554" y="-361.73" font-family="Times,serif" font-size="14.00">Homomorphism</text>
</a>
</g>
</g>
<!-- Homomorphism_hom_inv&#45;&gt;Homomorphism_Homomorphism -->
<g id="edge7" class="edge">
<title>Homomorphism_hom_inv&#45;&gt;Homomorphism_Homomorphism</title>
<path fill="none" stroke="black" d="M1325.65,-865.29C1319.03,-789.61 1302.91,-565.33 1338,-503.43 1372.74,-442.15 1447.36,-404.21 1499.1,-384.22"/>
<polygon fill="black" stroke="black" points="1500.35,-387.48 1508.48,-380.69 1497.89,-380.93 1500.35,-387.48"/>
</g>
<!-- Homomorphism_is_isomorphism_inv -->
<g id="node5" class="node">
<title>Homomorphism_is_isomorphism_inv</title>
<g id="a_node5"><a xlink:href="Homomorphism.html#is_isomorphism_inv" xlink:title="is_isomorphism_inv">
<ellipse fill="#f070d1" stroke="black" cx="664" cy="-891.43" rx="101.29" ry="18"/>
<ellipse fill="none" stroke="black" cx="664" cy="-891.43" rx="105.29" ry="22"/>
<ellipse fill="none" stroke="black" cx="664" cy="-891.43" rx="109.28" ry="26"/>
<text text-anchor="middle" x="664" y="-887.73" font-family="Times,serif" font-size="14.00">is_isomorphism_inv</text>
</a>
</g>
</g>
<!-- Homomorphism_is_isomorphism_inv&#45;&gt;Homomorphism_is_homomorphism_inv -->
<g id="edge8" class="edge">
<title>Homomorphism_is_isomorphism_inv&#45;&gt;Homomorphism_is_homomorphism_inv</title>
<path fill="none" stroke="black" d="M661.74,-865.16C658.76,-831.77 653.52,-773.17 650.44,-738.77"/>
<polygon fill="black" stroke="black" points="653.9,-738.16 649.53,-728.51 646.93,-738.78 653.9,-738.16"/>
</g>
<!-- Homomorphism_isequiv_isomorphism -->
<g id="node18" class="node">
<title>Homomorphism_isequiv_isomorphism</title>
<g id="a_node18"><a xlink:href="Homomorphism.html#isequiv_isomorphism" xlink:title="isequiv_isomorphism">
<ellipse fill="#f070d1" stroke="black" cx="387" cy="-529.43" rx="108.58" ry="18"/>
<text text-anchor="middle" x="387" y="-525.73" font-family="Times,serif" font-size="14.00">isequiv_isomorphism</text>
</a>
</g>
</g>
<!-- Homomorphism_is_homomorphism_inv&#45;&gt;Homomorphism_isequiv_isomorphism -->
<g id="edge9" class="edge">
<title>Homomorphism_is_homomorphism_inv&#45;&gt;Homomorphism_isequiv_isomorphism</title>
<path fill="none" stroke="black" d="M623.45,-692.59C576.2,-660.19 472.66,-589.18 419.66,-552.83"/>
<polygon fill="black" stroke="black" points="421.53,-549.86 411.3,-547.09 417.57,-555.64 421.53,-549.86"/>
</g>
<!-- Homomorphism_oppreserving_hom -->
<g id="node30" class="node">
<title>Homomorphism_oppreserving_hom</title>
<g id="a_node30"><a xlink:href="Homomorphism.html#oppreserving_hom" xlink:title="oppreserving_hom">
<ellipse fill="#f070d1" stroke="black" cx="900" cy="-365.43" rx="96.68" ry="18"/>
<text text-anchor="middle" x="900" y="-361.73" font-family="Times,serif" font-size="14.00">oppreserving_hom</text>
</a>
</g>
</g>
<!-- Homomorphism_is_homomorphism_inv&#45;&gt;Homomorphism_oppreserving_hom -->
<g id="edge10" class="edge">
<title>Homomorphism_is_homomorphism_inv&#45;&gt;Homomorphism_oppreserving_hom</title>
<path fill="none" stroke="black" d="M658.2,-692.24C674.64,-664.17 707.54,-606.48 731,-555.43 741.34,-532.93 737.07,-523.9 751,-503.43 783.02,-456.35 834.19,-413.99 867.45,-389.23"/>
<polygon fill="black" stroke="black" points="869.92,-391.76 875.91,-383.02 865.77,-386.12 869.92,-391.76"/>
</g>
<!-- Homomorphism_right_id_hom_compose -->
<g id="node7" class="node">
<title>Homomorphism_right_id_hom_compose</title>
<g id="a_node7"><a xlink:href="Homomorphism.html#right_id_hom_compose" xlink:title="right_id_hom_compose">
<ellipse fill="#f070d1" stroke="black" cx="1858" cy="-891.43" rx="116.19" ry="18"/>
<ellipse fill="none" stroke="black" cx="1858" cy="-891.43" rx="120.18" ry="22"/>
<ellipse fill="none" stroke="black" cx="1858" cy="-891.43" rx="124.18" ry="26"/>
<text text-anchor="middle" x="1858" y="-887.73" font-family="Times,serif" font-size="14.00">right_id_hom_compose</text>
</a>
</g>
</g>
<!-- Homomorphism_hom_compose -->
<g id="node10" class="node">
<title>Homomorphism_hom_compose</title>
<g id="a_node10"><a xlink:href="Homomorphism.html#hom_compose" xlink:title="hom_compose">
<ellipse fill="#f070d1" stroke="black" cx="1836" cy="-710.43" rx="75.29" ry="18"/>
<text text-anchor="middle" x="1836" y="-706.73" font-family="Times,serif" font-size="14.00">hom_compose</text>
</a>
</g>
</g>
<!-- Homomorphism_right_id_hom_compose&#45;&gt;Homomorphism_hom_compose -->
<g id="edge11" class="edge">
<title>Homomorphism_right_id_hom_compose&#45;&gt;Homomorphism_hom_compose</title>
<path fill="none" stroke="black" d="M1854.89,-865.16C1850.79,-831.77 1843.59,-773.17 1839.36,-738.77"/>
<polygon fill="black" stroke="black" points="1842.79,-738.01 1838.1,-728.51 1835.85,-738.86 1842.79,-738.01"/>
</g>
<!-- Homomorphism_hom_id -->
<g id="node13" class="node">
<title>Homomorphism_hom_id</title>
<g id="a_node13"><a xlink:href="Homomorphism.html#hom_id" xlink:title="hom_id">
<ellipse fill="#f070d1" stroke="black" cx="1665" cy="-529.43" rx="44.39" ry="18"/>
<text text-anchor="middle" x="1665" y="-525.73" font-family="Times,serif" font-size="14.00">hom_id</text>
</a>
</g>
</g>
<!-- Homomorphism_right_id_hom_compose&#45;&gt;Homomorphism_hom_id -->
<g id="edge12" class="edge">
<title>Homomorphism_right_id_hom_compose&#45;&gt;Homomorphism_hom_id</title>
<path fill="none" stroke="black" d="M1838.52,-865.56C1815.89,-835.93 1778.28,-784.39 1752,-736.43 1718.19,-674.73 1688.65,-597.15 1674.28,-557.1"/>
<polygon fill="black" stroke="black" points="1677.52,-555.77 1670.88,-547.52 1670.93,-558.12 1677.52,-555.77"/>
</g>
<!-- Homomorphism_path_homomorphism -->
<g id="node20" class="node">
<title>Homomorphism_path_homomorphism</title>
<g id="a_node20"><a xlink:href="Homomorphism.html#path_homomorphism" xlink:title="path_homomorphism">
<ellipse fill="#f070d1" stroke="black" cx="2038" cy="-710.43" rx="108.58" ry="18"/>
<text text-anchor="middle" x="2038" y="-706.73" font-family="Times,serif" font-size="14.00">path_homomorphism</text>
</a>
</g>
</g>
<!-- Homomorphism_right_id_hom_compose&#45;&gt;Homomorphism_path_homomorphism -->
<g id="edge13" class="edge">
<title>Homomorphism_right_id_hom_compose&#45;&gt;Homomorphism_path_homomorphism</title>
<path fill="none" stroke="black" d="M1882.65,-865.92C1917.02,-831.73 1978.99,-770.11 2013.36,-735.93"/>
<polygon fill="black" stroke="black" points="2016.04,-738.21 2020.66,-728.67 2011.1,-733.24 2016.04,-738.21"/>
</g>
<!-- Homomorphism_left_id_hom_compose -->
<g id="node8" class="node">
<title>Homomorphism_left_id_hom_compose</title>
<g id="a_node8"><a xlink:href="Homomorphism.html#left_id_hom_compose" xlink:title="left_id_hom_compose">
<ellipse fill="#f070d1" stroke="black" cx="1599" cy="-891.43" rx="108.58" ry="18"/>
<ellipse fill="none" stroke="black" cx="1599" cy="-891.43" rx="112.58" ry="22"/>
<ellipse fill="none" stroke="black" cx="1599" cy="-891.43" rx="116.58" ry="26"/>
<text text-anchor="middle" x="1599" y="-887.73" font-family="Times,serif" font-size="14.00">left_id_hom_compose</text>
</a>
</g>
</g>
<!-- Homomorphism_left_id_hom_compose&#45;&gt;Homomorphism_hom_compose -->
<g id="edge14" class="edge">
<title>Homomorphism_left_id_hom_compose&#45;&gt;Homomorphism_hom_compose</title>
<path fill="none" stroke="black" d="M1630.96,-866.29C1677.02,-831.5 1761.42,-767.76 1806.22,-733.92"/>
<polygon fill="black" stroke="black" points="1808.5,-736.58 1814.37,-727.76 1804.28,-731 1808.5,-736.58"/>
</g>
<!-- Homomorphism_left_id_hom_compose&#45;&gt;Homomorphism_hom_id -->
<g id="edge15" class="edge">
<title>Homomorphism_left_id_hom_compose&#45;&gt;Homomorphism_hom_id</title>
<path fill="none" stroke="black" d="M1603.59,-865.4C1615.55,-800.17 1647.61,-625.31 1660.01,-557.67"/>
<polygon fill="black" stroke="black" points="1663.46,-558.23 1661.82,-547.77 1656.58,-556.97 1663.46,-558.23"/>
</g>
<!-- Homomorphism_left_id_hom_compose&#45;&gt;Homomorphism_path_homomorphism -->
<g id="edge16" class="edge">
<title>Homomorphism_left_id_hom_compose&#45;&gt;Homomorphism_path_homomorphism</title>
<path fill="none" stroke="black" d="M1653.27,-868.3C1739.66,-833.08 1907.1,-764.8 1989.63,-731.15"/>
<polygon fill="black" stroke="black" points="1991.09,-734.34 1999.02,-727.32 1988.44,-727.86 1991.09,-734.34"/>
</g>
<!-- Homomorphism_assoc_hom_compose -->
<g id="node9" class="node">
<title>Homomorphism_assoc_hom_compose</title>
<g id="a_node9"><a xlink:href="Homomorphism.html#assoc_hom_compose" xlink:title="assoc_hom_compose">
<ellipse fill="#f070d1" stroke="black" cx="2114" cy="-891.43" rx="105.1" ry="18"/>
<ellipse fill="none" stroke="black" cx="2114" cy="-891.43" rx="109.09" ry="22"/>
<ellipse fill="none" stroke="black" cx="2114" cy="-891.43" rx="113.08" ry="26"/>
<text text-anchor="middle" x="2114" y="-887.73" font-family="Times,serif" font-size="14.00">assoc_hom_compose</text>
</a>
</g>
</g>
<!-- Homomorphism_assoc_hom_compose&#45;&gt;Homomorphism_hom_compose -->
<g id="edge17" class="edge">
<title>Homomorphism_assoc_hom_compose&#45;&gt;Homomorphism_hom_compose</title>
<path fill="none" stroke="black" d="M2077.08,-866.66C2022.77,-831.69 1922.12,-766.88 1869.7,-733.13"/>
<polygon fill="black" stroke="black" points="1871.41,-730.07 1861.11,-727.6 1867.62,-735.95 1871.41,-730.07"/>
</g>
<!-- Homomorphism_assoc_hom_compose&#45;&gt;Homomorphism_path_homomorphism -->
<g id="edge18" class="edge">
<title>Homomorphism_assoc_hom_compose&#45;&gt;Homomorphism_path_homomorphism</title>
<path fill="none" stroke="black" d="M2103.43,-865.54C2089.18,-831.97 2063.89,-772.42 2049.28,-738"/>
<polygon fill="black" stroke="black" points="2052.42,-736.43 2045.29,-728.59 2045.97,-739.17 2052.42,-736.43"/>
</g>
<!-- Homomorphism_is_homomorphism_compose -->
<g id="node12" class="node">
<title>Homomorphism_is_homomorphism_compose</title>
<g id="a_node12"><a xlink:href="Homomorphism.html#is_homomorphism_compose" xlink:title="is_homomorphism_compose">
<ellipse fill="#f070d1" stroke="black" cx="900" cy="-529.43" rx="139.98" ry="18"/>
<text text-anchor="middle" x="900" y="-525.73" font-family="Times,serif" font-size="14.00">is_homomorphism_compose</text>
</a>
</g>
</g>
<!-- Homomorphism_hom_compose&#45;&gt;Homomorphism_is_homomorphism_compose -->
<g id="edge19" class="edge">
<title>Homomorphism_hom_compose&#45;&gt;Homomorphism_is_homomorphism_compose</title>
<path fill="none" stroke="black" d="M1779.21,-698.57C1620.64,-668.24 1172.51,-582.54 984.59,-546.61"/>
<polygon fill="black" stroke="black" points="985.23,-543.17 974.76,-544.73 983.92,-550.04 985.23,-543.17"/>
</g>
<!-- Homomorphism_def_hom -->
<g id="node26" class="node">
<title>Homomorphism_def_hom</title>
<g id="a_node26"><a xlink:href="Homomorphism.html#def_hom" xlink:title="def_hom">
<ellipse fill="#f070d1" stroke="black" cx="1777" cy="-529.43" rx="50.09" ry="18"/>
<text text-anchor="middle" x="1777" y="-525.73" font-family="Times,serif" font-size="14.00">def_hom</text>
</a>
</g>
</g>
<!-- Homomorphism_hom_compose&#45;&gt;Homomorphism_def_hom -->
<g id="edge20" class="edge">
<title>Homomorphism_hom_compose&#45;&gt;Homomorphism_def_hom</title>
<path fill="none" stroke="black" d="M1830.34,-692.27C1820.03,-660.99 1798.13,-594.52 1785.83,-557.23"/>
<polygon fill="black" stroke="black" points="1789.09,-555.94 1782.64,-547.54 1782.45,-558.13 1789.09,-555.94"/>
</g>
<!-- Homomorphism_hom_compose&#45;&gt;Homomorphism_Build_Homomorphism -->
<g id="edge21" class="edge">
<title>Homomorphism_hom_compose&#45;&gt;Homomorphism_Build_Homomorphism</title>
<path fill="none" stroke="black" d="M1841.04,-692.24C1850.72,-656.42 1869.4,-571.45 1851,-503.43 1839.49,-460.91 1811.14,-418.05 1791.49,-391.87"/>
<polygon fill="black" stroke="black" points="1794.05,-389.46 1785.19,-383.65 1788.49,-393.72 1794.05,-389.46"/>
</g>
<!-- Homomorphism_is_isomorphism_compose -->
<g id="node11" class="node">
<title>Homomorphism_is_isomorphism_compose</title>
<g id="a_node11"><a xlink:href="Homomorphism.html#is_isomorphism_compose" xlink:title="is_isomorphism_compose">
<ellipse fill="#f070d1" stroke="black" cx="916" cy="-710.43" rx="128.08" ry="18"/>
<ellipse fill="none" stroke="black" cx="916" cy="-710.43" rx="132.08" ry="22"/>
<ellipse fill="none" stroke="black" cx="916" cy="-710.43" rx="136.08" ry="26"/>
<text text-anchor="middle" x="916" y="-706.73" font-family="Times,serif" font-size="14.00">is_isomorphism_compose</text>
</a>
</g>
</g>
<!-- Homomorphism_is_isomorphism_compose&#45;&gt;Homomorphism_is_homomorphism_compose -->
<g id="edge22" class="edge">
<title>Homomorphism_is_isomorphism_compose&#45;&gt;Homomorphism_is_homomorphism_compose</title>
<path fill="none" stroke="black" d="M913.74,-684.16C910.76,-650.77 905.52,-592.17 902.44,-557.77"/>
<polygon fill="black" stroke="black" points="905.9,-557.16 901.53,-547.51 898.93,-557.78 905.9,-557.16"/>
</g>
<!-- Homomorphism_is_isomorphism_compose&#45;&gt;Homomorphism_isequiv_isomorphism -->
<g id="edge23" class="edge">
<title>Homomorphism_is_isomorphism_compose&#45;&gt;Homomorphism_isequiv_isomorphism</title>
<path fill="none" stroke="black" d="M851.13,-687.48C746.17,-651.96 540.94,-582.52 442.4,-549.17"/>
<polygon fill="black" stroke="black" points="443.23,-545.76 432.63,-545.87 440.98,-552.39 443.23,-545.76"/>
</g>
<!-- Homomorphism_is_homomorphism_compose&#45;&gt;Homomorphism_oppreserving_hom -->
<g id="edge24" class="edge">
<title>Homomorphism_is_homomorphism_compose&#45;&gt;Homomorphism_oppreserving_hom</title>
<path fill="none" stroke="black" d="M900,-511.4C900,-483.4 900,-427.39 900,-393.78"/>
<polygon fill="black" stroke="black" points="903.5,-393.72 900,-383.72 896.5,-393.72 903.5,-393.72"/>
</g>
<!-- Homomorphism_is_homomorphism_id -->
<g id="node15" class="node">
<title>Homomorphism_is_homomorphism_id</title>
<g id="a_node15"><a xlink:href="Homomorphism.html#is_homomorphism_id" xlink:title="is_homomorphism_id">
<ellipse fill="#f070d1" stroke="black" cx="1342" cy="-365.43" rx="108.58" ry="18"/>
<text text-anchor="middle" x="1342" y="-361.73" font-family="Times,serif" font-size="14.00">is_homomorphism_id</text>
</a>
</g>
</g>
<!-- Homomorphism_hom_id&#45;&gt;Homomorphism_is_homomorphism_id -->
<g id="edge25" class="edge">
<title>Homomorphism_hom_id&#45;&gt;Homomorphism_is_homomorphism_id</title>
<path fill="none" stroke="black" d="M1638.29,-515.03C1581.99,-486.8 1450.79,-421 1383.47,-387.23"/>
<polygon fill="black" stroke="black" points="1384.92,-384.04 1374.41,-382.68 1381.78,-390.3 1384.92,-384.04"/>
</g>
<!-- Homomorphism_hom_id&#45;&gt;Homomorphism_Build_Homomorphism -->
<g id="edge26" class="edge">
<title>Homomorphism_hom_id&#45;&gt;Homomorphism_Build_Homomorphism</title>
<path fill="none" stroke="black" d="M1675.94,-511.7C1694.49,-483.35 1732.22,-425.69 1754.16,-392.17"/>
<polygon fill="black" stroke="black" points="1757.09,-394.08 1759.64,-383.8 1751.23,-390.25 1757.09,-394.08"/>
</g>
<!-- Homomorphism_hom_id&#45;&gt;Homomorphism_Homomorphism -->
<g id="edge27" class="edge">
<title>Homomorphism_hom_id&#45;&gt;Homomorphism_Homomorphism</title>
<path fill="none" stroke="black" d="M1653.75,-512C1634.32,-483.65 1594.36,-425.34 1571.35,-391.75"/>
<polygon fill="black" stroke="black" points="1574.16,-389.65 1565.62,-383.38 1568.38,-393.61 1574.16,-389.65"/>
</g>
<!-- Homomorphism_is_isomorphism_id -->
<g id="node14" class="node">
<title>Homomorphism_is_isomorphism_id</title>
<g id="a_node14"><a xlink:href="Homomorphism.html#is_isomorphism_id" xlink:title="is_isomorphism_id">
<ellipse fill="#f070d1" stroke="black" cx="618" cy="-529.43" rx="96.37" ry="18"/>
<ellipse fill="none" stroke="black" cx="618" cy="-529.43" rx="100.38" ry="22"/>
<ellipse fill="none" stroke="black" cx="618" cy="-529.43" rx="104.38" ry="26"/>
<text text-anchor="middle" x="618" y="-525.73" font-family="Times,serif" font-size="14.00">is_isomorphism_id</text>
</a>
</g>
</g>
<!-- Homomorphism_is_isomorphism_id&#45;&gt;Homomorphism_is_homomorphism_id -->
<g id="edge28" class="edge">
<title>Homomorphism_is_isomorphism_id&#45;&gt;Homomorphism_is_homomorphism_id</title>
<path fill="none" stroke="black" d="M693.77,-511.47C834.13,-480.07 1132.74,-413.25 1270.11,-382.51"/>
<polygon fill="black" stroke="black" points="1271.13,-385.87 1280.12,-380.28 1269.6,-379.04 1271.13,-385.87"/>
</g>
<!-- Homomorphism_IsIsomorphism -->
<g id="node19" class="node">
<title>Homomorphism_IsIsomorphism</title>
<g id="a_node19"><a xlink:href="Homomorphism.html#IsIsomorphism" xlink:title="IsIsomorphism">
<ellipse fill="#f070d1" stroke="black" cx="503" cy="-365.43" rx="79.09" ry="18"/>
<text text-anchor="middle" x="503" y="-361.73" font-family="Times,serif" font-size="14.00">IsIsomorphism</text>
</a>
</g>
</g>
<!-- Homomorphism_is_isomorphism_id&#45;&gt;Homomorphism_IsIsomorphism -->
<g id="edge29" class="edge">
<title>Homomorphism_is_isomorphism_id&#45;&gt;Homomorphism_IsIsomorphism</title>
<path fill="none" stroke="black" d="M600.28,-503.47C578.72,-473.1 542.52,-422.1 520.88,-391.62"/>
<polygon fill="black" stroke="black" points="523.57,-389.36 514.93,-383.24 517.87,-393.42 523.57,-389.36"/>
</g>
<!-- Homomorphism_IsHomomorphism -->
<g id="node31" class="node">
<title>Homomorphism_IsHomomorphism</title>
<g id="a_node31"><a xlink:href="Homomorphism.html#IsHomomorphism" xlink:title="IsHomomorphism">
<ellipse fill="#f070d1" stroke="black" cx="1662" cy="-217.43" rx="92.88" ry="18"/>
<text text-anchor="middle" x="1662" y="-213.73" font-family="Times,serif" font-size="14.00">IsHomomorphism</text>
</a>
</g>
</g>
<!-- Homomorphism_is_homomorphism_id&#45;&gt;Homomorphism_IsHomomorphism -->
<g id="edge30" class="edge">
<title>Homomorphism_is_homomorphism_id&#45;&gt;Homomorphism_IsHomomorphism</title>
<path fill="none" stroke="black" d="M1377.16,-348.39C1435.84,-321.61 1553.63,-267.87 1617.82,-238.59"/>
<polygon fill="black" stroke="black" points="1619.62,-241.61 1627.27,-234.28 1616.72,-235.24 1619.62,-241.61"/>
</g>
<!-- Homomorphism_hprop_is_isomorphism -->
<g id="node16" class="node">
<title>Homomorphism_hprop_is_isomorphism</title>
<g id="a_node16"><a xlink:href="Homomorphism.html#hprop_is_isomorphism" xlink:title="hprop_is_isomorphism">
<ellipse fill="#f070d1" stroke="black" cx="138" cy="-529.43" rx="114.29" ry="18"/>
<ellipse fill="none" stroke="black" cx="138" cy="-529.43" rx="118.28" ry="22"/>
<ellipse fill="none" stroke="black" cx="138" cy="-529.43" rx="122.28" ry="26"/>
<text text-anchor="middle" x="138" y="-525.73" font-family="Times,serif" font-size="14.00">hprop_is_isomorphism</text>
</a>
</g>
</g>
<!-- Homomorphism_hprop_is_isomorphism&#45;&gt;Homomorphism_IsIsomorphism -->
<g id="edge31" class="edge">
<title>Homomorphism_hprop_is_isomorphism&#45;&gt;Homomorphism_IsIsomorphism</title>
<path fill="none" stroke="black" d="M189.14,-505.73C261.13,-473.78 391.15,-416.07 459.04,-385.94"/>
<polygon fill="black" stroke="black" points="460.87,-388.96 468.59,-381.7 458.03,-382.56 460.87,-388.96"/>
</g>
<!-- Homomorphism_equiv_isomorphism&#45;&gt;Homomorphism_isequiv_isomorphism -->
<g id="edge32" class="edge">
<title>Homomorphism_equiv_isomorphism&#45;&gt;Homomorphism_isequiv_isomorphism</title>
<path fill="none" stroke="black" d="M387,-692.27C387,-661.13 387,-595.09 387,-557.71"/>
<polygon fill="black" stroke="black" points="390.5,-557.54 387,-547.54 383.5,-557.54 390.5,-557.54"/>
</g>
<!-- Homomorphism_isequiv_isomorphism&#45;&gt;Homomorphism_IsIsomorphism -->
<g id="edge33" class="edge">
<title>Homomorphism_isequiv_isomorphism&#45;&gt;Homomorphism_IsIsomorphism</title>
<path fill="none" stroke="black" d="M399.19,-511.4C419.7,-482.76 461.17,-424.84 485.02,-391.53"/>
<polygon fill="black" stroke="black" points="487.99,-393.4 490.97,-383.23 482.3,-389.32 487.99,-393.4"/>
</g>
<!-- Homomorphism_IsIsomorphism&#45;&gt;Homomorphism_IsHomomorphism -->
<g id="edge34" class="edge">
<title>Homomorphism_IsIsomorphism&#45;&gt;Homomorphism_IsHomomorphism</title>
<path fill="none" stroke="black" d="M570.75,-355.9C770.21,-330.77 1355.17,-257.08 1576.14,-229.24"/>
<polygon fill="black" stroke="black" points="1576.9,-232.68 1586.39,-227.95 1576.03,-225.73 1576.9,-232.68"/>
</g>
<!-- Homomorphism_issig_homomorphism -->
<g id="node22" class="node">
<title>Homomorphism_issig_homomorphism</title>
<g id="a_node22"><a xlink:href="Homomorphism.html#issig_homomorphism" xlink:title="issig_homomorphism">
<ellipse fill="#f070d1" stroke="black" cx="1994" cy="-529.43" rx="108.58" ry="18"/>
<text text-anchor="middle" x="1994" y="-525.73" font-family="Times,serif" font-size="14.00">issig_homomorphism</text>
</a>
</g>
</g>
<!-- Homomorphism_path_homomorphism&#45;&gt;Homomorphism_issig_homomorphism -->
<g id="edge35" class="edge">
<title>Homomorphism_path_homomorphism&#45;&gt;Homomorphism_issig_homomorphism</title>
<path fill="none" stroke="black" d="M2033.78,-692.27C2026.13,-661.13 2009.89,-595.09 2000.71,-557.71"/>
<polygon fill="black" stroke="black" points="2003.99,-556.42 1998.21,-547.54 1997.19,-558.09 2003.99,-556.42"/>
</g>
<!-- Homomorphism_hprop_is_homomorphism -->
<g id="node29" class="node">
<title>Homomorphism_hprop_is_homomorphism</title>
<g id="a_node29"><a xlink:href="Homomorphism.html#hprop_is_homomorphism" xlink:title="hprop_is_homomorphism">
<ellipse fill="#f070d1" stroke="black" cx="2268" cy="-529.43" rx="126.98" ry="18"/>
<text text-anchor="middle" x="2268" y="-525.73" font-family="Times,serif" font-size="14.00">hprop_is_homomorphism</text>
</a>
</g>
</g>
<!-- Homomorphism_path_homomorphism&#45;&gt;Homomorphism_hprop_is_homomorphism -->
<g id="edge36" class="edge">
<title>Homomorphism_path_homomorphism&#45;&gt;Homomorphism_hprop_is_homomorphism</title>
<path fill="none" stroke="black" d="M2059.64,-692.59C2100.99,-660.41 2191.3,-590.12 2238.28,-553.56"/>
<polygon fill="black" stroke="black" points="2240.51,-556.26 2246.25,-547.35 2236.21,-550.73 2240.51,-556.26"/>
</g>
<!-- Homomorphism_hset_homomorphism -->
<g id="node21" class="node">
<title>Homomorphism_hset_homomorphism</title>
<g id="a_node21"><a xlink:href="Homomorphism.html#hset_homomorphism" xlink:title="hset_homomorphism">
<ellipse fill="#f070d1" stroke="black" cx="2280" cy="-710.43" rx="107.46" ry="18"/>
<ellipse fill="none" stroke="black" cx="2280" cy="-710.43" rx="111.47" ry="22"/>
<ellipse fill="none" stroke="black" cx="2280" cy="-710.43" rx="115.48" ry="26"/>
<text text-anchor="middle" x="2280" y="-706.73" font-family="Times,serif" font-size="14.00">hset_homomorphism</text>
</a>
</g>
</g>
<!-- Homomorphism_hset_homomorphism&#45;&gt;Homomorphism_issig_homomorphism -->
<g id="edge37" class="edge">
<title>Homomorphism_hset_homomorphism&#45;&gt;Homomorphism_issig_homomorphism</title>
<path fill="none" stroke="black" d="M2242.32,-685.84C2186.71,-651.04 2083.43,-586.4 2029.25,-552.49"/>
<polygon fill="black" stroke="black" points="2031.01,-549.47 2020.68,-547.13 2027.3,-555.4 2031.01,-549.47"/>
</g>
<!-- Homomorphism_hset_homomorphism&#45;&gt;Homomorphism_hprop_is_homomorphism -->
<g id="edge38" class="edge">
<title>Homomorphism_hset_homomorphism&#45;&gt;Homomorphism_hprop_is_homomorphism</title>
<path fill="none" stroke="black" d="M2278.31,-684.16C2276.07,-650.77 2272.14,-592.17 2269.83,-557.77"/>
<polygon fill="black" stroke="black" points="2273.31,-557.25 2269.15,-547.51 2266.32,-557.72 2273.31,-557.25"/>
</g>
<!-- Homomorphism_SigHomomorphism -->
<g id="node23" class="node">
<title>Homomorphism_SigHomomorphism</title>
<g id="a_node23"><a xlink:href="Homomorphism.html#SigHomomorphism" xlink:title="SigHomomorphism">
<ellipse fill="#f070d1" stroke="black" cx="2003" cy="-365.43" rx="100.18" ry="18"/>
<text text-anchor="middle" x="2003" y="-361.73" font-family="Times,serif" font-size="14.00">SigHomomorphism</text>
</a>
</g>
</g>
<!-- Homomorphism_issig_homomorphism&#45;&gt;Homomorphism_SigHomomorphism -->
<g id="edge39" class="edge">
<title>Homomorphism_issig_homomorphism&#45;&gt;Homomorphism_SigHomomorphism</title>
<path fill="none" stroke="black" d="M1994.95,-511.4C1996.5,-483.4 1999.61,-427.39 2001.48,-393.78"/>
<polygon fill="black" stroke="black" points="2004.98,-393.9 2002.04,-383.72 1997.99,-393.51 2004.98,-393.9"/>
</g>
<!-- Homomorphism_issig_homomorphism&#45;&gt;Homomorphism_Build_Homomorphism -->
<g id="edge40" class="edge">
<title>Homomorphism_issig_homomorphism&#45;&gt;Homomorphism_Build_Homomorphism</title>
<path fill="none" stroke="black" d="M1970.98,-511.7C1930.73,-482.46 1847.55,-422.04 1802.18,-389.08"/>
<polygon fill="black" stroke="black" points="1804.05,-386.11 1793.9,-383.06 1799.93,-391.77 1804.05,-386.11"/>
</g>
<!-- Homomorphism_issig_homomorphism&#45;&gt;Homomorphism_Homomorphism -->
<g id="edge41" class="edge">
<title>Homomorphism_issig_homomorphism&#45;&gt;Homomorphism_Homomorphism</title>
<path fill="none" stroke="black" d="M1951.41,-512.75C1869.61,-482.63 1690.92,-416.84 1603.78,-384.76"/>
<polygon fill="black" stroke="black" points="1604.97,-381.46 1594.37,-381.29 1602.55,-388.03 1604.97,-381.46"/>
</g>
<!-- Homomorphism_SigHomomorphism&#45;&gt;Homomorphism_IsHomomorphism -->
<g id="edge42" class="edge">
<title>Homomorphism_SigHomomorphism&#45;&gt;Homomorphism_IsHomomorphism</title>
<path fill="none" stroke="black" d="M1966.18,-348.67C1903.43,-321.8 1775.94,-267.22 1707.64,-237.97"/>
<polygon fill="black" stroke="black" points="1708.98,-234.73 1698.41,-234.02 1706.22,-241.17 1708.98,-234.73"/>
</g>
<!-- Homomorphism_apD10_homomorphism -->
<g id="node24" class="node">
<title>Homomorphism_apD10_homomorphism</title>
<g id="a_node24"><a xlink:href="Homomorphism.html#apD10_homomorphism" xlink:title="apD10_homomorphism">
<ellipse fill="#f070d1" stroke="black" cx="1183" cy="-529.43" rx="117.77" ry="18"/>
<ellipse fill="none" stroke="black" cx="1183" cy="-529.43" rx="121.77" ry="22"/>
<ellipse fill="none" stroke="black" cx="1183" cy="-529.43" rx="125.78" ry="26"/>
<text text-anchor="middle" x="1183" y="-525.73" font-family="Times,serif" font-size="14.00">apD10_homomorphism</text>
</a>
</g>
</g>
<!-- Homomorphism_apD10_homomorphism&#45;&gt;Homomorphism_Homomorphism -->
<g id="edge43" class="edge">
<title>Homomorphism_apD10_homomorphism&#45;&gt;Homomorphism_Homomorphism</title>
<path fill="none" stroke="black" d="M1234.98,-505.73C1308.11,-473.8 1440.16,-416.14 1509.2,-385.99"/>
<polygon fill="black" stroke="black" points="1510.75,-389.14 1518.51,-381.93 1507.95,-382.72 1510.75,-389.14"/>
</g>
<!-- Homomorphism_is_homomorphism_hom -->
<g id="node25" class="node">
<title>Homomorphism_is_homomorphism_hom</title>
<g id="a_node25"><a xlink:href="Homomorphism.html#is_homomorphism_hom" xlink:title="is_homomorphism_hom">
<ellipse fill="#f070d1" stroke="black" cx="1475" cy="-529.43" rx="119.67" ry="18"/>
<ellipse fill="none" stroke="black" cx="1475" cy="-529.43" rx="123.68" ry="22"/>
<ellipse fill="none" stroke="black" cx="1475" cy="-529.43" rx="127.68" ry="26"/>
<text text-anchor="middle" x="1475" y="-525.73" font-family="Times,serif" font-size="14.00">is_homomorphism_hom</text>
</a>
</g>
</g>
<!-- Homomorphism_is_homomorphism_hom&#45;&gt;Homomorphism_Homomorphism -->
<g id="edge44" class="edge">
<title>Homomorphism_is_homomorphism_hom&#45;&gt;Homomorphism_Homomorphism</title>
<path fill="none" stroke="black" d="M1487.17,-503.47C1501.78,-473.52 1526.16,-423.51 1541.09,-392.9"/>
<polygon fill="black" stroke="black" points="1544.34,-394.22 1545.58,-383.7 1538.05,-391.15 1544.34,-394.22"/>
</g>
<!-- Homomorphism_def_hom&#45;&gt;Homomorphism_Homomorphism -->
<g id="edge45" class="edge">
<title>Homomorphism_def_hom&#45;&gt;Homomorphism_Homomorphism</title>
<path fill="none" stroke="black" d="M1755.62,-512.9C1715.9,-484.04 1630.62,-422.09 1584.73,-388.75"/>
<polygon fill="black" stroke="black" points="1586.79,-385.92 1576.64,-382.88 1582.67,-391.59 1586.79,-385.92"/>
</g>
<!-- Homomorphism_Build_Homomorphism&#45;&gt;Homomorphism_IsHomomorphism -->
<g id="edge46" class="edge">
<title>Homomorphism_Build_Homomorphism&#45;&gt;Homomorphism_IsHomomorphism</title>
<path fill="none" stroke="black" d="M1758.28,-347.4C1739.17,-321.79 1702.91,-273.23 1680.75,-243.55"/>
<polygon fill="black" stroke="black" points="1683.42,-241.27 1674.64,-235.35 1677.81,-245.46 1683.42,-241.27"/>
</g>
<!-- Homomorphism_Homomorphism&#45;&gt;Homomorphism_IsHomomorphism -->
<g id="edge47" class="edge">
<title>Homomorphism_Homomorphism&#45;&gt;Homomorphism_IsHomomorphism</title>
<path fill="none" stroke="black" d="M1566.6,-347.4C1585.54,-321.79 1621.46,-273.23 1643.42,-243.55"/>
<polygon fill="black" stroke="black" points="1646.35,-245.48 1649.48,-235.35 1640.72,-241.31 1646.35,-245.48"/>
</g>
<!-- Homomorphism_hprop_is_homomorphism&#45;&gt;Homomorphism_IsHomomorphism -->
<g id="edge48" class="edge">
<title>Homomorphism_hprop_is_homomorphism&#45;&gt;Homomorphism_IsHomomorphism</title>
<path fill="none" stroke="black" d="M2258.1,-511.31C2236.39,-475.34 2181.01,-391.59 2112,-347.43 1999.61,-275.5 1846.28,-242.77 1750.75,-228.55"/>
<polygon fill="black" stroke="black" points="1751.23,-225.08 1740.83,-227.11 1750.23,-232.01 1751.23,-225.08"/>
</g>
<!-- Homomorphism_hprop_oppreserving -->
<g id="node32" class="node">
<title>Homomorphism_hprop_oppreserving</title>
<g id="a_node32"><a xlink:href="Homomorphism.html#hprop_oppreserving" xlink:title="hprop_oppreserving">
<ellipse fill="#f070d1" stroke="black" cx="2268" cy="-217.43" rx="103.98" ry="18"/>
<text text-anchor="middle" x="2268" y="-213.73" font-family="Times,serif" font-size="14.00">hprop_oppreserving</text>
</a>
</g>
</g>
<!-- Homomorphism_hprop_is_homomorphism&#45;&gt;Homomorphism_hprop_oppreserving -->
<g id="edge49" class="edge">
<title>Homomorphism_hprop_is_homomorphism&#45;&gt;Homomorphism_hprop_oppreserving</title>
<path fill="none" stroke="black" d="M2268,-511.32C2268,-460.19 2268,-308.22 2268,-245.73"/>
<polygon fill="black" stroke="black" points="2271.5,-245.48 2268,-235.48 2264.5,-245.48 2271.5,-245.48"/>
</g>
<!-- Homomorphism_oppreserving_hom&#45;&gt;Homomorphism_IsHomomorphism -->
<g id="edge50" class="edge">
<title>Homomorphism_oppreserving_hom&#45;&gt;Homomorphism_IsHomomorphism</title>
<path fill="none" stroke="black" d="M964.97,-351.98C1106.14,-324.93 1440.09,-260.95 1588.6,-232.49"/>
<polygon fill="black" stroke="black" points="1589.38,-235.91 1598.54,-230.59 1588.06,-229.03 1589.38,-235.91"/>
</g>
<!-- Homomorphism_IsHomomorphism&#45;&gt;Homomorphism_OpPreserving -->
<g id="edge51" class="edge">
<title>Homomorphism_IsHomomorphism&#45;&gt;Homomorphism_OpPreserving</title>
<path fill="none" stroke="black" d="M1701.14,-200.94C1769.66,-173.83 1911.02,-117.9 1984.44,-88.85"/>
<polygon fill="black" stroke="black" points="1985.9,-92.04 1993.91,-85.1 1983.32,-85.53 1985.9,-92.04"/>
</g>
<!-- Homomorphism_hprop_oppreserving&#45;&gt;Homomorphism_OpPreserving -->
<g id="edge52" class="edge">
<title>Homomorphism_hprop_oppreserving&#45;&gt;Homomorphism_OpPreserving</title>
<path fill="none" stroke="black" d="M2241.27,-199.97C2198.17,-173.41 2113.33,-121.15 2065.64,-91.77"/>
<polygon fill="black" stroke="black" points="2067.26,-88.65 2056.91,-86.39 2063.59,-94.61 2067.26,-88.65"/>
</g>
</g>
</svg>
