<?xml version="1.0" encoding="UTF-8" standalone="no"?>
<!DOCTYPE svg PUBLIC "-//W3C//DTD SVG 1.1//EN"
 "http://www.w3.org/Graphics/SVG/1.1/DTD/svg11.dtd">
<!-- Generated by graphviz version 2.43.0 (0)
 -->
<!-- Title: HoTT_Metatheory_FunextVarieties Pages: 1 -->
<svg width="1511pt" height="760pt"
 viewBox="0.00 0.00 1511.00 759.50" xmlns="http://www.w3.org/2000/svg" xmlns:xlink="http://www.w3.org/1999/xlink">
<g id="graph0" class="graph" transform="scale(1 1) rotate(0) translate(4 755.5)">
<title>HoTT_Metatheory_FunextVarieties</title>
<polygon fill="white" stroke="transparent" points="-4,4 -4,-755.5 1507,-755.5 1507,4 -4,4"/>
<g id="clust1" class="cluster">
<title>cluster_FunextVarieties</title>
<polygon fill="#ffffc3" stroke="black" points="8,-10.53 8,-740.97 1495,-740.97 1495,-10.53 8,-10.53"/>
<text text-anchor="middle" x="73" y="-725.77" font-family="Times,serif" font-size="14.00">FunextVarieties</text>
</g>
<!-- FunextVarieties_Funext_downward_closed -->
<g id="node1" class="node">
<title>FunextVarieties_Funext_downward_closed</title>
<g id="a_node1"><a xlink:href="FunextVarieties.html#Funext_downward_closed" xlink:title="Funext_downward_closed">
<ellipse fill="#f070d1" stroke="black" cx="292" cy="-665.53" rx="129.98" ry="18"/>
<ellipse fill="none" stroke="black" cx="292" cy="-665.53" rx="133.98" ry="22"/>
<ellipse fill="none" stroke="black" cx="292" cy="-665.53" rx="137.98" ry="26"/>
<text text-anchor="middle" x="292" y="-661.83" font-family="Times,serif" font-size="14.00">Funext_downward_closed</text>
</a>
</g>
</g>
<!-- FunextVarieties_NaiveFunext_implies_Funext -->
<g id="node5" class="node">
<title>FunextVarieties_NaiveFunext_implies_Funext</title>
<g id="a_node5"><a xlink:href="FunextVarieties.html#NaiveFunext_implies_Funext" xlink:title="NaiveFunext_implies_Funext">
<ellipse fill="#f070d1" stroke="black" cx="210" cy="-550.53" rx="145.67" ry="18"/>
<text text-anchor="middle" x="210" y="-546.83" font-family="Times,serif" font-size="14.00">NaiveFunext_implies_Funext</text>
</a>
</g>
</g>
<!-- FunextVarieties_Funext_downward_closed&#45;&gt;FunextVarieties_NaiveFunext_implies_Funext -->
<g id="edge1" class="edge">
<title>FunextVarieties_Funext_downward_closed&#45;&gt;FunextVarieties_NaiveFunext_implies_Funext</title>
<path fill="none" stroke="black" d="M274,-639.73C260.43,-621.03 241.88,-595.47 228.25,-576.68"/>
<polygon fill="black" stroke="black" points="231.07,-574.61 222.37,-568.57 225.41,-578.72 231.07,-574.61"/>
</g>
<!-- FunextVarieties_Funext_implies_NaiveFunext -->
<g id="node12" class="node">
<title>FunextVarieties_Funext_implies_NaiveFunext</title>
<g id="a_node12"><a xlink:href="FunextVarieties.html#Funext_implies_NaiveFunext" xlink:title="Funext_implies_NaiveFunext">
<ellipse fill="#f070d1" stroke="black" cx="375" cy="-444.53" rx="145.67" ry="18"/>
<text text-anchor="middle" x="375" y="-440.83" font-family="Times,serif" font-size="14.00">Funext_implies_NaiveFunext</text>
</a>
</g>
</g>
<!-- FunextVarieties_Funext_downward_closed&#45;&gt;FunextVarieties_Funext_implies_NaiveFunext -->
<g id="edge2" class="edge">
<title>FunextVarieties_Funext_downward_closed&#45;&gt;FunextVarieties_Funext_implies_NaiveFunext</title>
<path fill="none" stroke="black" d="M319.87,-639.69C336.07,-623.46 355.18,-600.82 365,-576.53 378.67,-542.74 379.17,-500.1 377.61,-472.81"/>
<polygon fill="black" stroke="black" points="381.11,-472.55 376.91,-462.82 374.12,-473.04 381.11,-472.55"/>
</g>
<!-- FunextVarieties_NaiveNondepFunext_implies_Funext -->
<g id="node2" class="node">
<title>FunextVarieties_NaiveNondepFunext_implies_Funext</title>
<g id="a_node2"><a xlink:href="FunextVarieties.html#NaiveNondepFunext_implies_Funext" xlink:title="NaiveNondepFunext_implies_Funext">
<ellipse fill="#f070d1" stroke="black" cx="1076" cy="-550.53" rx="181.17" ry="18"/>
<ellipse fill="none" stroke="black" cx="1076" cy="-550.53" rx="185.17" ry="22"/>
<ellipse fill="none" stroke="black" cx="1076" cy="-550.53" rx="189.17" ry="26"/>
<text text-anchor="middle" x="1076" y="-546.83" font-family="Times,serif" font-size="14.00">NaiveNondepFunext_implies_Funext</text>
</a>
</g>
</g>
<!-- FunextVarieties_NaiveNondepFunext_implies_WeakFunext -->
<g id="node3" class="node">
<title>FunextVarieties_NaiveNondepFunext_implies_WeakFunext</title>
<g id="a_node3"><a xlink:href="FunextVarieties.html#NaiveNondepFunext_implies_WeakFunext" xlink:title="NaiveNondepFunext_implies_WeakFunext">
<ellipse fill="#f070d1" stroke="black" cx="1260" cy="-444.53" rx="206.06" ry="18"/>
<text text-anchor="middle" x="1260" y="-440.83" font-family="Times,serif" font-size="14.00">NaiveNondepFunext_implies_WeakFunext</text>
</a>
</g>
</g>
<!-- FunextVarieties_NaiveNondepFunext_implies_Funext&#45;&gt;FunextVarieties_NaiveNondepFunext_implies_WeakFunext -->
<g id="edge3" class="edge">
<title>FunextVarieties_NaiveNondepFunext_implies_Funext&#45;&gt;FunextVarieties_NaiveNondepFunext_implies_WeakFunext</title>
<path fill="none" stroke="black" d="M1119.14,-525.15C1150.04,-507.68 1191.3,-484.36 1221.17,-467.48"/>
<polygon fill="black" stroke="black" points="1223.07,-470.42 1230.05,-462.46 1219.62,-464.33 1223.07,-470.42"/>
</g>
<!-- FunextVarieties_WeakFunext_implies_Funext -->
<g id="node6" class="node">
<title>FunextVarieties_WeakFunext_implies_Funext</title>
<g id="a_node6"><a xlink:href="FunextVarieties.html#WeakFunext_implies_Funext" xlink:title="WeakFunext_implies_Funext">
<ellipse fill="#f070d1" stroke="black" cx="892" cy="-444.53" rx="143.77" ry="18"/>
<text text-anchor="middle" x="892" y="-440.83" font-family="Times,serif" font-size="14.00">WeakFunext_implies_Funext</text>
</a>
</g>
</g>
<!-- FunextVarieties_NaiveNondepFunext_implies_Funext&#45;&gt;FunextVarieties_WeakFunext_implies_Funext -->
<g id="edge4" class="edge">
<title>FunextVarieties_NaiveNondepFunext_implies_Funext&#45;&gt;FunextVarieties_WeakFunext_implies_Funext</title>
<path fill="none" stroke="black" d="M1032.86,-525.15C1001.86,-507.63 960.44,-484.21 930.55,-467.32"/>
<polygon fill="black" stroke="black" points="932.09,-464.17 921.67,-462.3 928.65,-470.26 932.09,-464.17"/>
</g>
<!-- FunextVarieties_equiv_postcompose_from_NaiveNondepFunext -->
<g id="node4" class="node">
<title>FunextVarieties_equiv_postcompose_from_NaiveNondepFunext</title>
<g id="a_node4"><a xlink:href="FunextVarieties.html#equiv_postcompose_from_NaiveNondepFunext" xlink:title="equiv_postcompose_from_NaiveNondepFunext">
<ellipse fill="#f070d1" stroke="black" cx="1240" cy="-339.53" rx="227.46" ry="18"/>
<text text-anchor="middle" x="1240" y="-335.83" font-family="Times,serif" font-size="14.00">equiv_postcompose_from_NaiveNondepFunext</text>
</a>
</g>
</g>
<!-- FunextVarieties_NaiveNondepFunext_implies_WeakFunext&#45;&gt;FunextVarieties_equiv_postcompose_from_NaiveNondepFunext -->
<g id="edge5" class="edge">
<title>FunextVarieties_NaiveNondepFunext_implies_WeakFunext&#45;&gt;FunextVarieties_equiv_postcompose_from_NaiveNondepFunext</title>
<path fill="none" stroke="black" d="M1256.7,-426.52C1253.59,-410.49 1248.87,-386.22 1245.24,-367.54"/>
<polygon fill="black" stroke="black" points="1248.65,-366.71 1243.31,-357.56 1241.78,-368.05 1248.65,-366.71"/>
</g>
<!-- FunextVarieties_WeakFunext -->
<g id="node13" class="node">
<title>FunextVarieties_WeakFunext</title>
<g id="a_node13"><a xlink:href="FunextVarieties.html#WeakFunext" xlink:title="WeakFunext">
<ellipse fill="#f070d1" stroke="black" cx="919" cy="-44.53" rx="68.49" ry="18"/>
<text text-anchor="middle" x="919" y="-40.83" font-family="Times,serif" font-size="14.00">WeakFunext</text>
</a>
</g>
</g>
<!-- FunextVarieties_NaiveNondepFunext_implies_WeakFunext&#45;&gt;FunextVarieties_WeakFunext -->
<g id="edge6" class="edge">
<title>FunextVarieties_NaiveNondepFunext_implies_WeakFunext&#45;&gt;FunextVarieties_WeakFunext</title>
<path fill="none" stroke="black" d="M1373.39,-429.42C1412.44,-418.52 1452.29,-399.3 1476,-365.53 1489.28,-346.61 1488.3,-333.1 1476,-313.53 1367.27,-140.54 1112.17,-76.63 988.56,-55.23"/>
<polygon fill="black" stroke="black" points="988.9,-51.74 978.46,-53.52 987.74,-58.64 988.9,-51.74"/>
</g>
<!-- FunextVarieties_NaiveNondepFunext -->
<g id="node14" class="node">
<title>FunextVarieties_NaiveNondepFunext</title>
<g id="a_node14"><a xlink:href="FunextVarieties.html#NaiveNondepFunext" xlink:title="NaiveNondepFunext">
<ellipse fill="#f070d1" stroke="black" cx="677" cy="-234.53" rx="106.68" ry="18"/>
<text text-anchor="middle" x="677" y="-230.83" font-family="Times,serif" font-size="14.00">NaiveNondepFunext</text>
</a>
</g>
</g>
<!-- FunextVarieties_equiv_postcompose_from_NaiveNondepFunext&#45;&gt;FunextVarieties_NaiveNondepFunext -->
<g id="edge7" class="edge">
<title>FunextVarieties_equiv_postcompose_from_NaiveNondepFunext&#45;&gt;FunextVarieties_NaiveNondepFunext</title>
<path fill="none" stroke="black" d="M1154.19,-322.83C1045.94,-303.03 861.28,-269.24 756.24,-250.03"/>
<polygon fill="black" stroke="black" points="756.79,-246.57 746.33,-248.21 755.53,-253.45 756.79,-246.57"/>
</g>
<!-- FunextVarieties_NaiveFunext_implies_Funext&#45;&gt;FunextVarieties_WeakFunext_implies_Funext -->
<g id="edge8" class="edge">
<title>FunextVarieties_NaiveFunext_implies_Funext&#45;&gt;FunextVarieties_WeakFunext_implies_Funext</title>
<path fill="none" stroke="black" d="M297.76,-536.15C425.39,-516.68 661.44,-480.69 794.4,-460.41"/>
<polygon fill="black" stroke="black" points="795.22,-463.83 804.57,-458.86 794.16,-456.91 795.22,-463.83"/>
</g>
<!-- FunextVarieties_NaiveFunext_implies_WeakFunext -->
<g id="node11" class="node">
<title>FunextVarieties_NaiveFunext_implies_WeakFunext</title>
<g id="a_node11"><a xlink:href="FunextVarieties.html#NaiveFunext_implies_WeakFunext" xlink:title="NaiveFunext_implies_WeakFunext">
<ellipse fill="#f070d1" stroke="black" cx="186" cy="-339.53" rx="170.07" ry="18"/>
<text text-anchor="middle" x="186" y="-335.83" font-family="Times,serif" font-size="14.00">NaiveFunext_implies_WeakFunext</text>
</a>
</g>
</g>
<!-- FunextVarieties_NaiveFunext_implies_Funext&#45;&gt;FunextVarieties_NaiveFunext_implies_WeakFunext -->
<g id="edge9" class="edge">
<title>FunextVarieties_NaiveFunext_implies_Funext&#45;&gt;FunextVarieties_NaiveFunext_implies_WeakFunext</title>
<path fill="none" stroke="black" d="M208.04,-532.43C203.88,-496.21 194.15,-411.51 189.13,-367.76"/>
<polygon fill="black" stroke="black" points="192.58,-367.11 187.96,-357.58 185.62,-367.91 192.58,-367.11"/>
</g>
<!-- FunextVarieties_htpy_ind_beta -->
<g id="node7" class="node">
<title>FunextVarieties_htpy_ind_beta</title>
<g id="a_node7"><a xlink:href="FunextVarieties.html#htpy_ind_beta" xlink:title="htpy_ind_beta">
<ellipse fill="#f070d1" stroke="black" cx="919" cy="-339.53" rx="75.29" ry="18"/>
<text text-anchor="middle" x="919" y="-335.83" font-family="Times,serif" font-size="14.00">htpy_ind_beta</text>
</a>
</g>
</g>
<!-- FunextVarieties_WeakFunext_implies_Funext&#45;&gt;FunextVarieties_htpy_ind_beta -->
<g id="edge10" class="edge">
<title>FunextVarieties_WeakFunext_implies_Funext&#45;&gt;FunextVarieties_htpy_ind_beta</title>
<path fill="none" stroke="black" d="M896.46,-426.52C900.68,-410.42 907.08,-385.99 911.99,-367.28"/>
<polygon fill="black" stroke="black" points="915.38,-368.12 914.53,-357.56 908.61,-366.35 915.38,-368.12"/>
</g>
<!-- FunextVarieties_htpy_ind -->
<g id="node8" class="node">
<title>FunextVarieties_htpy_ind</title>
<g id="a_node8"><a xlink:href="FunextVarieties.html#htpy_ind" xlink:title="htpy_ind">
<ellipse fill="#f070d1" stroke="black" cx="919" cy="-234.53" rx="50.89" ry="18"/>
<text text-anchor="middle" x="919" y="-230.83" font-family="Times,serif" font-size="14.00">htpy_ind</text>
</a>
</g>
</g>
<!-- FunextVarieties_htpy_ind_beta&#45;&gt;FunextVarieties_htpy_ind -->
<g id="edge11" class="edge">
<title>FunextVarieties_htpy_ind_beta&#45;&gt;FunextVarieties_htpy_ind</title>
<path fill="none" stroke="black" d="M919,-321.52C919,-305.57 919,-281.44 919,-262.8"/>
<polygon fill="black" stroke="black" points="922.5,-262.56 919,-252.56 915.5,-262.56 922.5,-262.56"/>
</g>
<!-- FunextVarieties_contr_basedhtpy -->
<g id="node9" class="node">
<title>FunextVarieties_contr_basedhtpy</title>
<g id="a_node9"><a xlink:href="FunextVarieties.html#contr_basedhtpy" xlink:title="contr_basedhtpy">
<ellipse fill="#f070d1" stroke="black" cx="919" cy="-139.53" rx="87.99" ry="18"/>
<text text-anchor="middle" x="919" y="-135.83" font-family="Times,serif" font-size="14.00">contr_basedhtpy</text>
</a>
</g>
</g>
<!-- FunextVarieties_htpy_ind&#45;&gt;FunextVarieties_contr_basedhtpy -->
<g id="edge12" class="edge">
<title>FunextVarieties_htpy_ind&#45;&gt;FunextVarieties_contr_basedhtpy</title>
<path fill="none" stroke="black" d="M919,-216.47C919,-202.92 919,-183.71 919,-168"/>
<polygon fill="black" stroke="black" points="922.5,-167.79 919,-157.79 915.5,-167.79 922.5,-167.79"/>
</g>
<!-- FunextVarieties_contr_basedhtpy&#45;&gt;FunextVarieties_WeakFunext -->
<g id="edge13" class="edge">
<title>FunextVarieties_contr_basedhtpy&#45;&gt;FunextVarieties_WeakFunext</title>
<path fill="none" stroke="black" d="M919,-121.47C919,-107.92 919,-88.71 919,-73"/>
<polygon fill="black" stroke="black" points="922.5,-72.79 919,-62.79 915.5,-72.79 922.5,-72.79"/>
</g>
<!-- FunextVarieties_NaiveFunext_implies_NaiveNondepFunext -->
<g id="node10" class="node">
<title>FunextVarieties_NaiveFunext_implies_NaiveNondepFunext</title>
<g id="a_node10"><a xlink:href="FunextVarieties.html#NaiveFunext_implies_NaiveNondepFunext" xlink:title="NaiveFunext_implies_NaiveNondepFunext">
<ellipse fill="#f070d1" stroke="black" cx="610" cy="-339.53" rx="207.96" ry="18"/>
<ellipse fill="none" stroke="black" cx="610" cy="-339.53" rx="211.96" ry="22"/>
<ellipse fill="none" stroke="black" cx="610" cy="-339.53" rx="215.96" ry="26"/>
<text text-anchor="middle" x="610" y="-335.83" font-family="Times,serif" font-size="14.00">NaiveFunext_implies_NaiveNondepFunext</text>
</a>
</g>
</g>
<!-- FunextVarieties_NaiveFunext_implies_NaiveNondepFunext&#45;&gt;FunextVarieties_NaiveNondepFunext -->
<g id="edge14" class="edge">
<title>FunextVarieties_NaiveFunext_implies_NaiveNondepFunext&#45;&gt;FunextVarieties_NaiveNondepFunext</title>
<path fill="none" stroke="black" d="M626.22,-313.6C636.61,-297.62 650.06,-276.95 660.5,-260.89"/>
<polygon fill="black" stroke="black" points="663.44,-262.8 665.96,-252.5 657.57,-258.98 663.44,-262.8"/>
</g>
<!-- FunextVarieties_NaiveFunext -->
<g id="node15" class="node">
<title>FunextVarieties_NaiveFunext</title>
<g id="a_node15"><a xlink:href="FunextVarieties.html#NaiveFunext" xlink:title="NaiveFunext">
<ellipse fill="#f070d1" stroke="black" cx="375" cy="-234.53" rx="70.39" ry="18"/>
<text text-anchor="middle" x="375" y="-230.83" font-family="Times,serif" font-size="14.00">NaiveFunext</text>
</a>
</g>
</g>
<!-- FunextVarieties_NaiveFunext_implies_NaiveNondepFunext&#45;&gt;FunextVarieties_NaiveFunext -->
<g id="edge15" class="edge">
<title>FunextVarieties_NaiveFunext_implies_NaiveNondepFunext&#45;&gt;FunextVarieties_NaiveFunext</title>
<path fill="none" stroke="black" d="M554.9,-314.38C513.26,-296.13 456.88,-271.42 418.4,-254.55"/>
<polygon fill="black" stroke="black" points="419.59,-251.25 409.03,-250.44 416.78,-257.66 419.59,-251.25"/>
</g>
<!-- FunextVarieties_NaiveFunext_implies_WeakFunext&#45;&gt;FunextVarieties_WeakFunext -->
<g id="edge16" class="edge">
<title>FunextVarieties_NaiveFunext_implies_WeakFunext&#45;&gt;FunextVarieties_WeakFunext</title>
<path fill="none" stroke="black" d="M196.61,-321.54C214.05,-295.04 251.33,-244.07 296,-216.53 473.83,-106.89 722.7,-66.27 845.08,-52.28"/>
<polygon fill="black" stroke="black" points="845.55,-55.75 855.1,-51.16 844.78,-48.79 845.55,-55.75"/>
</g>
<!-- FunextVarieties_NaiveFunext_implies_WeakFunext&#45;&gt;FunextVarieties_NaiveFunext -->
<g id="edge17" class="edge">
<title>FunextVarieties_NaiveFunext_implies_WeakFunext&#45;&gt;FunextVarieties_NaiveFunext</title>
<path fill="none" stroke="black" d="M216.79,-321.75C249.72,-303.8 301.98,-275.32 337.34,-256.05"/>
<polygon fill="black" stroke="black" points="339.29,-258.98 346.39,-251.12 335.94,-252.83 339.29,-258.98"/>
</g>
<!-- FunextVarieties_Funext_implies_NaiveFunext&#45;&gt;FunextVarieties_NaiveFunext -->
<g id="edge18" class="edge">
<title>FunextVarieties_Funext_implies_NaiveFunext&#45;&gt;FunextVarieties_NaiveFunext</title>
<path fill="none" stroke="black" d="M375,-426.51C375,-390.55 375,-306.59 375,-262.96"/>
<polygon fill="black" stroke="black" points="378.5,-262.79 375,-252.79 371.5,-262.79 378.5,-262.79"/>
</g>
</g>
</svg>
