<?xml version="1.0" encoding="UTF-8" standalone="no"?>
<!DOCTYPE svg PUBLIC "-//W3C//DTD SVG 1.1//EN"
 "http://www.w3.org/Graphics/SVG/1.1/DTD/svg11.dtd">
<!-- Generated by graphviz version 2.43.0 (0)
 -->
<!-- Title: HoTT_Types_Empty Pages: 1 -->
<svg width="843pt" height="426pt"
 viewBox="0.00 0.00 843.00 425.50" xmlns="http://www.w3.org/2000/svg" xmlns:xlink="http://www.w3.org/1999/xlink">
<g id="graph0" class="graph" transform="scale(1 1) rotate(0) translate(4 421.5)">
<title>HoTT_Types_Empty</title>
<polygon fill="white" stroke="transparent" points="-4,4 -4,-421.5 839,-421.5 839,4 -4,4"/>
<g id="clust1" class="cluster">
<title>cluster_Empty</title>
<polygon fill="#ffffc3" stroke="black" points="8,-13.31 8,-404.19 827,-404.19 827,-13.31 8,-13.31"/>
<text text-anchor="middle" x="40" y="-388.99" font-family="Times,serif" font-size="14.00">Empty</text>
</g>
<!-- Empty_equiv_to_empty -->
<g id="node1" class="node">
<title>Empty_equiv_to_empty</title>
<g id="a_node1"><a xlink:href="Empty.html#equiv_to_empty" xlink:title="equiv_to_empty">
<ellipse fill="#f070d1" stroke="black" cx="728" cy="-309.31" rx="83.37" ry="18"/>
<ellipse fill="none" stroke="black" cx="728" cy="-309.31" rx="87.38" ry="22"/>
<ellipse fill="none" stroke="black" cx="728" cy="-309.31" rx="91.39" ry="26"/>
<text text-anchor="middle" x="728" y="-305.61" font-family="Times,serif" font-size="14.00">equiv_to_empty</text>
</a>
</g>
</g>
<!-- Empty_all_to_empty_isequiv -->
<g id="node2" class="node">
<title>Empty_all_to_empty_isequiv</title>
<g id="a_node2"><a xlink:href="Empty.html#all_to_empty_isequiv" xlink:title="all_to_empty_isequiv">
<ellipse fill="#f070d1" stroke="black" cx="674" cy="-176.31" rx="106.68" ry="18"/>
<text text-anchor="middle" x="674" y="-172.61" font-family="Times,serif" font-size="14.00">all_to_empty_isequiv</text>
</a>
</g>
</g>
<!-- Empty_equiv_to_empty&#45;&gt;Empty_all_to_empty_isequiv -->
<g id="edge1" class="edge">
<title>Empty_equiv_to_empty&#45;&gt;Empty_all_to_empty_isequiv</title>
<path fill="none" stroke="black" d="M717.72,-283.36C708.34,-260.62 694.54,-227.14 684.96,-203.91"/>
<polygon fill="black" stroke="black" points="688.19,-202.55 681.14,-194.64 681.72,-205.22 688.19,-202.55"/>
</g>
<!-- Empty_Empty_rec -->
<g id="node6" class="node">
<title>Empty_Empty_rec</title>
<g id="a_node6"><a xlink:href="Empty.html#Empty_rec" xlink:title="Empty_rec">
<ellipse fill="#f070d1" stroke="black" cx="526" cy="-56.31" rx="60.39" ry="18"/>
<text text-anchor="middle" x="526" y="-52.61" font-family="Times,serif" font-size="14.00">Empty_rec</text>
</a>
</g>
</g>
<!-- Empty_all_to_empty_isequiv&#45;&gt;Empty_Empty_rec -->
<g id="edge2" class="edge">
<title>Empty_all_to_empty_isequiv&#45;&gt;Empty_Empty_rec</title>
<path fill="none" stroke="black" d="M653.11,-158.65C627.29,-138.07 583.24,-102.95 554.38,-79.94"/>
<polygon fill="black" stroke="black" points="556.31,-77 546.31,-73.5 551.95,-82.47 556.31,-77"/>
</g>
<!-- Empty_hprop_Empty -->
<g id="node3" class="node">
<title>Empty_hprop_Empty</title>
<g id="a_node3"><a xlink:href="Empty.html#hprop_Empty" xlink:title="hprop_Empty">
<ellipse fill="#f070d1" stroke="black" cx="537" cy="-309.31" rx="73.39" ry="18"/>
<ellipse fill="none" stroke="black" cx="537" cy="-309.31" rx="77.39" ry="22"/>
<ellipse fill="none" stroke="black" cx="537" cy="-309.31" rx="81.39" ry="26"/>
<text text-anchor="middle" x="537" y="-305.61" font-family="Times,serif" font-size="14.00">hprop_Empty</text>
</a>
</g>
</g>
<!-- Empty_equiv_empty_rec -->
<g id="node4" class="node">
<title>Empty_equiv_empty_rec</title>
<g id="a_node4"><a xlink:href="Empty.html#equiv_empty_rec" xlink:title="equiv_empty_rec">
<ellipse fill="#f070d1" stroke="black" cx="341" cy="-309.31" rx="89.08" ry="18"/>
<ellipse fill="none" stroke="black" cx="341" cy="-309.31" rx="93.08" ry="22"/>
<ellipse fill="none" stroke="black" cx="341" cy="-309.31" rx="97.08" ry="26"/>
<text text-anchor="middle" x="341" y="-305.61" font-family="Times,serif" font-size="14.00">equiv_empty_rec</text>
</a>
</g>
</g>
<!-- Empty_isequiv_empty_rec -->
<g id="node5" class="node">
<title>Empty_isequiv_empty_rec</title>
<g id="a_node5"><a xlink:href="Empty.html#isequiv_empty_rec" xlink:title="isequiv_empty_rec">
<ellipse fill="#f070d1" stroke="black" cx="378" cy="-176.31" rx="96.68" ry="18"/>
<text text-anchor="middle" x="378" y="-172.61" font-family="Times,serif" font-size="14.00">isequiv_empty_rec</text>
</a>
</g>
</g>
<!-- Empty_equiv_empty_rec&#45;&gt;Empty_isequiv_empty_rec -->
<g id="edge3" class="edge">
<title>Empty_equiv_empty_rec&#45;&gt;Empty_isequiv_empty_rec</title>
<path fill="none" stroke="black" d="M348.05,-283.36C354.41,-260.83 363.76,-227.74 370.31,-204.53"/>
<polygon fill="black" stroke="black" points="373.76,-205.21 373.11,-194.64 367.02,-203.31 373.76,-205.21"/>
</g>
<!-- Empty_isequiv_empty_rec&#45;&gt;Empty_Empty_rec -->
<g id="edge4" class="edge">
<title>Empty_isequiv_empty_rec&#45;&gt;Empty_Empty_rec</title>
<path fill="none" stroke="black" d="M398.89,-158.65C424.71,-138.07 468.76,-102.95 497.62,-79.94"/>
<polygon fill="black" stroke="black" points="500.05,-82.47 505.69,-73.5 495.69,-77 500.05,-82.47"/>
</g>
<!-- Empty_contr_from_Empty -->
<g id="node7" class="node">
<title>Empty_contr_from_Empty</title>
<g id="a_node7"><a xlink:href="Empty.html#contr_from_Empty" xlink:title="contr_from_Empty">
<ellipse fill="#f070d1" stroke="black" cx="121" cy="-309.31" rx="96.7" ry="18"/>
<ellipse fill="none" stroke="black" cx="121" cy="-309.31" rx="100.69" ry="22"/>
<ellipse fill="none" stroke="black" cx="121" cy="-309.31" rx="104.68" ry="26"/>
<text text-anchor="middle" x="121" y="-305.61" font-family="Times,serif" font-size="14.00">contr_from_Empty</text>
</a>
</g>
</g>
</g>
</svg>
