<?xml version="1.0" encoding="UTF-8" standalone="no"?>
<!DOCTYPE svg PUBLIC "-//W3C//DTD SVG 1.1//EN"
 "http://www.w3.org/Graphics/SVG/1.1/DTD/svg11.dtd">
<!-- Generated by graphviz version 2.43.0 (0)
 -->
<!-- Title: HoTT_Spaces_Torus_Torus Pages: 1 -->
<svg width="1204pt" height="606pt"
 viewBox="0.00 0.00 1204.00 606.00" xmlns="http://www.w3.org/2000/svg" xmlns:xlink="http://www.w3.org/1999/xlink">
<g id="graph0" class="graph" transform="scale(1 1) rotate(0) translate(4 602)">
<title>HoTT_Spaces_Torus_Torus</title>
<polygon fill="white" stroke="transparent" points="-4,4 -4,-602 1200,-602 1200,4 -4,4"/>
<g id="clust1" class="cluster">
<title>cluster_Torus</title>
<polygon fill="#ffffc3" stroke="black" points="8,-8.22 8,-589.78 1188,-589.78 1188,-8.22 8,-8.22"/>
<text text-anchor="middle" x="36" y="-574.58" font-family="Times,serif" font-size="14.00">Torus</text>
</g>
<g id="clust2" class="cluster">
<title>cluster_Torus_Torus</title>
<polygon fill="#ffffa3" stroke="black" points="499,-16.44 499,-496.28 990,-496.28 990,-16.44 499,-16.44"/>
<text text-anchor="middle" x="527" y="-481.08" font-family="Times,serif" font-size="14.00">Torus</text>
</g>
<!-- Torus_Torus_Torus_ind_beta_surf -->
<g id="node1" class="node">
<title>Torus_Torus_Torus_ind_beta_surf</title>
<g id="a_node1"><a xlink:href="Torus.html#Torus.Torus_ind_beta_surf" xlink:title="Torus_ind_beta_surf">
<ellipse fill="#facdef" stroke="black" cx="744" cy="-437.22" rx="103.19" ry="18"/>
<ellipse fill="none" stroke="black" cx="744" cy="-437.22" rx="107.19" ry="22"/>
<ellipse fill="none" stroke="black" cx="744" cy="-437.22" rx="111.18" ry="26"/>
<text text-anchor="middle" x="744" y="-433.52" font-family="Times,serif" font-size="14.00">Torus_ind_beta_surf</text>
</a>
</g>
</g>
<!-- Torus_Torus_Torus_ind_beta_loop_b -->
<g id="node2" class="node">
<title>Torus_Torus_Torus_ind_beta_loop_b</title>
<g id="a_node2"><a xlink:href="Torus.html#Torus.Torus_ind_beta_loop_b" xlink:title="Torus_ind_beta_loop_b">
<ellipse fill="#facdef" stroke="black" cx="868" cy="-355.22" rx="114.28" ry="18"/>
<text text-anchor="middle" x="868" y="-351.52" font-family="Times,serif" font-size="14.00">Torus_ind_beta_loop_b</text>
</a>
</g>
</g>
<!-- Torus_Torus_Torus_ind_beta_surf&#45;&gt;Torus_Torus_Torus_ind_beta_loop_b -->
<g id="edge1" class="edge">
<title>Torus_Torus_Torus_ind_beta_surf&#45;&gt;Torus_Torus_Torus_ind_beta_loop_b</title>
<path fill="none" stroke="black" d="M780.53,-412.65C797.29,-401.84 817.05,-389.09 833.55,-378.45"/>
<polygon fill="black" stroke="black" points="835.83,-381.14 842.34,-372.78 832.03,-375.26 835.83,-381.14"/>
</g>
<!-- Torus_Torus_Torus_ind_beta_loop_a -->
<g id="node3" class="node">
<title>Torus_Torus_Torus_ind_beta_loop_a</title>
<g id="a_node3"><a xlink:href="Torus.html#Torus.Torus_ind_beta_loop_a" xlink:title="Torus_ind_beta_loop_a">
<ellipse fill="#facdef" stroke="black" cx="621" cy="-355.22" rx="114.28" ry="18"/>
<text text-anchor="middle" x="621" y="-351.52" font-family="Times,serif" font-size="14.00">Torus_ind_beta_loop_a</text>
</a>
</g>
</g>
<!-- Torus_Torus_Torus_ind_beta_surf&#45;&gt;Torus_Torus_Torus_ind_beta_loop_a -->
<g id="edge2" class="edge">
<title>Torus_Torus_Torus_ind_beta_surf&#45;&gt;Torus_Torus_Torus_ind_beta_loop_a</title>
<path fill="none" stroke="black" d="M707.43,-412.43C690.94,-401.71 671.57,-389.11 655.35,-378.56"/>
<polygon fill="black" stroke="black" points="656.99,-375.46 646.7,-372.94 653.18,-381.32 656.99,-375.46"/>
</g>
<!-- Torus_Torus_Torus_ind -->
<g id="node4" class="node">
<title>Torus_Torus_Torus_ind</title>
<g id="a_node4"><a xlink:href="Torus.html#Torus.Torus_ind" xlink:title="Torus_ind">
<ellipse fill="#f070d1" stroke="black" cx="731" cy="-281.22" rx="55.79" ry="18"/>
<text text-anchor="middle" x="731" y="-277.52" font-family="Times,serif" font-size="14.00">Torus_ind</text>
</a>
</g>
</g>
<!-- Torus_Torus_Torus_ind_beta_loop_b&#45;&gt;Torus_Torus_Torus_ind -->
<g id="edge3" class="edge">
<title>Torus_Torus_Torus_ind_beta_loop_b&#45;&gt;Torus_Torus_Torus_ind</title>
<path fill="none" stroke="black" d="M836.91,-337.88C816.47,-327.14 789.6,-313.02 768.05,-301.69"/>
<polygon fill="black" stroke="black" points="769.65,-298.58 759.17,-297.02 766.39,-304.77 769.65,-298.58"/>
</g>
<!-- Torus_Torus_Torus_ind_beta_loop_a&#45;&gt;Torus_Torus_Torus_ind -->
<g id="edge4" class="edge">
<title>Torus_Torus_Torus_ind_beta_loop_a&#45;&gt;Torus_Torus_Torus_ind</title>
<path fill="none" stroke="black" d="M646.51,-337.52C662.19,-327.26 682.4,-314.03 699.12,-303.09"/>
<polygon fill="black" stroke="black" points="701.05,-306 707.5,-297.6 697.22,-300.15 701.05,-306"/>
</g>
<!-- Torus_Torus_surf -->
<g id="node5" class="node">
<title>Torus_Torus_surf</title>
<g id="a_node5"><a xlink:href="Torus.html#Torus.surf" xlink:title="surf">
<ellipse fill="#facdef" stroke="black" cx="841" cy="-207.22" rx="29.5" ry="18"/>
<text text-anchor="middle" x="841" y="-203.52" font-family="Times,serif" font-size="14.00">surf</text>
</a>
</g>
</g>
<!-- Torus_Torus_Torus_ind&#45;&gt;Torus_Torus_surf -->
<g id="edge5" class="edge">
<title>Torus_Torus_Torus_ind&#45;&gt;Torus_Torus_surf</title>
<path fill="none" stroke="black" d="M754.6,-264.77C771.74,-253.55 795.01,-238.33 813.08,-226.5"/>
<polygon fill="black" stroke="black" points="815.03,-229.4 821.48,-221 811.19,-223.55 815.03,-229.4"/>
</g>
<!-- Torus_Torus_loop_b -->
<g id="node6" class="node">
<title>Torus_Torus_loop_b</title>
<g id="a_node6"><a xlink:href="Torus.html#Torus.loop_b" xlink:title="loop_b">
<ellipse fill="#facdef" stroke="black" cx="841" cy="-125.22" rx="40.09" ry="18"/>
<text text-anchor="middle" x="841" y="-121.52" font-family="Times,serif" font-size="14.00">loop_b</text>
</a>
</g>
</g>
<!-- Torus_Torus_surf&#45;&gt;Torus_Torus_loop_b -->
<g id="edge6" class="edge">
<title>Torus_Torus_surf&#45;&gt;Torus_Torus_loop_b</title>
<path fill="none" stroke="black" d="M841,-188.86C841,-178.52 841,-165.16 841,-153.44"/>
<polygon fill="black" stroke="black" points="844.5,-153.27 841,-143.27 837.5,-153.27 844.5,-153.27"/>
</g>
<!-- Torus_Torus_loop_a -->
<g id="node7" class="node">
<title>Torus_Torus_loop_a</title>
<g id="a_node7"><a xlink:href="Torus.html#Torus.loop_a" xlink:title="loop_a">
<ellipse fill="#facdef" stroke="black" cx="940" cy="-125.22" rx="40.09" ry="18"/>
<text text-anchor="middle" x="940" y="-121.52" font-family="Times,serif" font-size="14.00">loop_a</text>
</a>
</g>
</g>
<!-- Torus_Torus_surf&#45;&gt;Torus_Torus_loop_a -->
<g id="edge7" class="edge">
<title>Torus_Torus_surf&#45;&gt;Torus_Torus_loop_a</title>
<path fill="none" stroke="black" d="M858.24,-192.28C873.38,-180.05 895.65,-162.06 913.13,-147.93"/>
<polygon fill="black" stroke="black" points="915.69,-150.36 921.27,-141.36 911.29,-144.92 915.69,-150.36"/>
</g>
<!-- Torus_Torus_tbase -->
<g id="node8" class="node">
<title>Torus_Torus_tbase</title>
<g id="a_node8"><a xlink:href="Torus.html#Torus.tbase" xlink:title="tbase">
<ellipse fill="#7faaff" stroke="black" cx="852" cy="-43.22" rx="36.29" ry="18"/>
<text text-anchor="middle" x="852" y="-39.52" font-family="Times,serif" font-size="14.00">tbase</text>
</a>
</g>
</g>
<!-- Torus_Torus_loop_b&#45;&gt;Torus_Torus_tbase -->
<g id="edge8" class="edge">
<title>Torus_Torus_loop_b&#45;&gt;Torus_Torus_tbase</title>
<path fill="none" stroke="black" d="M843.39,-106.86C844.81,-96.52 846.65,-83.16 848.26,-71.44"/>
<polygon fill="black" stroke="black" points="851.76,-71.65 849.66,-61.27 844.83,-70.7 851.76,-71.65"/>
</g>
<!-- Torus_Torus_Torus -->
<g id="node9" class="node">
<title>Torus_Torus_Torus</title>
<g id="a_node9"><a xlink:href="Torus.html#Torus.Torus" xlink:title="Torus">
<ellipse fill="#e2cdfa" stroke="black" cx="943" cy="-43.22" rx="36.29" ry="18"/>
<text text-anchor="middle" x="943" y="-39.52" font-family="Times,serif" font-size="14.00">Torus</text>
</a>
</g>
</g>
<!-- Torus_Torus_loop_b&#45;&gt;Torus_Torus_Torus -->
<g id="edge9" class="edge">
<title>Torus_Torus_loop_b&#45;&gt;Torus_Torus_Torus</title>
<path fill="none" stroke="black" d="M860.19,-109.17C875.96,-96.8 898.48,-79.13 916.06,-65.35"/>
<polygon fill="black" stroke="black" points="918.54,-67.85 924.25,-58.93 914.22,-62.35 918.54,-67.85"/>
</g>
<!-- Torus_Torus_loop_a&#45;&gt;Torus_Torus_tbase -->
<g id="edge10" class="edge">
<title>Torus_Torus_loop_a&#45;&gt;Torus_Torus_tbase</title>
<path fill="none" stroke="black" d="M923.03,-108.8C909.8,-96.77 891.24,-79.9 876.41,-66.41"/>
<polygon fill="black" stroke="black" points="878.37,-63.46 868.62,-59.33 873.66,-68.64 878.37,-63.46"/>
</g>
<!-- Torus_Torus_loop_a&#45;&gt;Torus_Torus_Torus -->
<g id="edge11" class="edge">
<title>Torus_Torus_loop_a&#45;&gt;Torus_Torus_Torus</title>
<path fill="none" stroke="black" d="M940.65,-106.86C941.04,-96.52 941.54,-83.16 941.98,-71.44"/>
<polygon fill="black" stroke="black" points="945.48,-71.39 942.36,-61.27 938.49,-71.13 945.48,-71.39"/>
</g>
<!-- Torus_ispointed_torus -->
<g id="node10" class="node">
<title>Torus_ispointed_torus</title>
<g id="a_node10"><a xlink:href="Torus.html#ispointed_torus" xlink:title="ispointed_torus">
<ellipse fill="#f070d1" stroke="black" cx="1089" cy="-125.22" rx="82.58" ry="18"/>
<ellipse fill="none" stroke="black" cx="1089" cy="-125.22" rx="86.58" ry="22"/>
<ellipse fill="none" stroke="black" cx="1089" cy="-125.22" rx="90.59" ry="26"/>
<text text-anchor="middle" x="1089" y="-121.52" font-family="Times,serif" font-size="14.00">ispointed_torus</text>
</a>
</g>
</g>
<!-- Torus_ispointed_torus&#45;&gt;Torus_Torus_tbase -->
<g id="edge12" class="edge">
<title>Torus_ispointed_torus&#45;&gt;Torus_Torus_tbase</title>
<path fill="none" stroke="black" d="M1029.88,-105.32C992.05,-93.07 942,-76.6 898,-61.22 895.29,-60.27 892.49,-59.28 889.68,-58.27"/>
<polygon fill="black" stroke="black" points="890.76,-54.94 880.16,-54.81 888.36,-61.51 890.76,-54.94"/>
</g>
<!-- Torus_ispointed_torus&#45;&gt;Torus_Torus_Torus -->
<g id="edge13" class="edge">
<title>Torus_ispointed_torus&#45;&gt;Torus_Torus_Torus</title>
<path fill="none" stroke="black" d="M1048.33,-101.94C1025.4,-89.37 997.13,-73.88 975.66,-62.11"/>
<polygon fill="black" stroke="black" points="977.06,-58.89 966.61,-57.16 973.7,-65.03 977.06,-58.89"/>
</g>
<!-- Torus_Torus_rec_beta_surf -->
<g id="node11" class="node">
<title>Torus_Torus_rec_beta_surf</title>
<g id="a_node11"><a xlink:href="Torus.html#Torus_rec_beta_surf" xlink:title="Torus_rec_beta_surf">
<ellipse fill="#facdef" stroke="black" cx="253" cy="-531.22" rx="103.19" ry="18"/>
<ellipse fill="none" stroke="black" cx="253" cy="-531.22" rx="107.19" ry="22"/>
<ellipse fill="none" stroke="black" cx="253" cy="-531.22" rx="111.18" ry="26"/>
<text text-anchor="middle" x="253" y="-527.52" font-family="Times,serif" font-size="14.00">Torus_rec_beta_surf</text>
</a>
</g>
</g>
<!-- Torus_Torus_rec_beta_loop_b -->
<g id="node12" class="node">
<title>Torus_Torus_rec_beta_loop_b</title>
<g id="a_node12"><a xlink:href="Torus.html#Torus_rec_beta_loop_b" xlink:title="Torus_rec_beta_loop_b">
<ellipse fill="#f070d1" stroke="black" cx="377" cy="-437.22" rx="114.28" ry="18"/>
<text text-anchor="middle" x="377" y="-433.52" font-family="Times,serif" font-size="14.00">Torus_rec_beta_loop_b</text>
</a>
</g>
</g>
<!-- Torus_Torus_rec_beta_surf&#45;&gt;Torus_Torus_rec_beta_loop_b -->
<g id="edge14" class="edge">
<title>Torus_Torus_rec_beta_surf&#45;&gt;Torus_Torus_rec_beta_loop_b</title>
<path fill="none" stroke="black" d="M285.26,-506.29C304.05,-492.34 327.62,-474.86 346.16,-461.1"/>
<polygon fill="black" stroke="black" points="348.35,-463.83 354.3,-455.06 344.18,-458.21 348.35,-463.83"/>
</g>
<!-- Torus_Torus_rec_beta_loop_a -->
<g id="node13" class="node">
<title>Torus_Torus_rec_beta_loop_a</title>
<g id="a_node13"><a xlink:href="Torus.html#Torus_rec_beta_loop_a" xlink:title="Torus_rec_beta_loop_a">
<ellipse fill="#f070d1" stroke="black" cx="130" cy="-437.22" rx="114.28" ry="18"/>
<text text-anchor="middle" x="130" y="-433.52" font-family="Times,serif" font-size="14.00">Torus_rec_beta_loop_a</text>
</a>
</g>
</g>
<!-- Torus_Torus_rec_beta_surf&#45;&gt;Torus_Torus_rec_beta_loop_a -->
<g id="edge15" class="edge">
<title>Torus_Torus_rec_beta_surf&#45;&gt;Torus_Torus_rec_beta_loop_a</title>
<path fill="none" stroke="black" d="M221,-506.29C202.36,-492.34 178.98,-474.86 160.59,-461.1"/>
<polygon fill="black" stroke="black" points="162.63,-458.25 152.52,-455.06 158.43,-463.86 162.63,-458.25"/>
</g>
<!-- Torus_Torus_rec_beta_loop_b&#45;&gt;Torus_Torus_Torus_ind_beta_loop_b -->
<g id="edge16" class="edge">
<title>Torus_Torus_rec_beta_loop_b&#45;&gt;Torus_Torus_Torus_ind_beta_loop_b</title>
<path fill="none" stroke="black" d="M439.93,-422.13C457.7,-418.36 477.07,-414.44 495,-411.22 547.29,-401.83 683.25,-382.24 775.74,-369.15"/>
<polygon fill="black" stroke="black" points="776.26,-372.61 785.67,-367.75 775.28,-365.68 776.26,-372.61"/>
</g>
<!-- Torus_Torus_rec -->
<g id="node14" class="node">
<title>Torus_Torus_rec</title>
<g id="a_node14"><a xlink:href="Torus.html#Torus_rec" xlink:title="Torus_rec">
<ellipse fill="#f070d1" stroke="black" cx="377" cy="-355.22" rx="55.79" ry="18"/>
<text text-anchor="middle" x="377" y="-351.52" font-family="Times,serif" font-size="14.00">Torus_rec</text>
</a>
</g>
</g>
<!-- Torus_Torus_rec_beta_loop_b&#45;&gt;Torus_Torus_rec -->
<g id="edge17" class="edge">
<title>Torus_Torus_rec_beta_loop_b&#45;&gt;Torus_Torus_rec</title>
<path fill="none" stroke="black" d="M377,-418.86C377,-408.52 377,-395.16 377,-383.44"/>
<polygon fill="black" stroke="black" points="380.5,-383.27 377,-373.27 373.5,-383.27 380.5,-383.27"/>
</g>
<!-- Torus_Torus_rec_beta_loop_a&#45;&gt;Torus_Torus_Torus_ind_beta_loop_a -->
<g id="edge18" class="edge">
<title>Torus_Torus_rec_beta_loop_a&#45;&gt;Torus_Torus_Torus_ind_beta_loop_a</title>
<path fill="none" stroke="black" d="M195.52,-422.37C214.37,-418.56 234.97,-414.56 254,-411.22 305.38,-402.2 438.6,-382.58 529.57,-369.39"/>
<polygon fill="black" stroke="black" points="530.22,-372.83 539.61,-367.93 529.21,-365.9 530.22,-372.83"/>
</g>
<!-- Torus_Torus_rec_beta_loop_a&#45;&gt;Torus_Torus_rec -->
<g id="edge19" class="edge">
<title>Torus_Torus_rec_beta_loop_a&#45;&gt;Torus_Torus_rec</title>
<path fill="none" stroke="black" d="M177.62,-420.8C221.28,-406.65 285.6,-385.82 329.29,-371.67"/>
<polygon fill="black" stroke="black" points="330.39,-374.99 338.83,-368.58 328.24,-368.33 330.39,-374.99"/>
</g>
<!-- Torus_Torus_rec&#45;&gt;Torus_Torus_Torus_ind -->
<g id="edge20" class="edge">
<title>Torus_Torus_rec&#45;&gt;Torus_Torus_Torus_ind</title>
<path fill="none" stroke="black" d="M422.92,-344.88C487.64,-331.72 605.57,-307.73 675.25,-293.56"/>
<polygon fill="black" stroke="black" points="676.06,-296.97 685.16,-291.54 674.67,-290.11 676.06,-296.97"/>
</g>
</g>
</svg>
