<?xml version="1.0" encoding="UTF-8" standalone="no"?>
<!DOCTYPE svg PUBLIC "-//W3C//DTD SVG 1.1//EN"
 "http://www.w3.org/Graphics/SVG/1.1/DTD/svg11.dtd">
<!-- Generated by graphviz version 2.43.0 (0)
 -->
<!-- Title: HoTT_WildCat_FunctorCat Pages: 1 -->
<svg width="2227pt" height="1118pt"
 viewBox="0.00 0.00 2227.00 1117.50" xmlns="http://www.w3.org/2000/svg" xmlns:xlink="http://www.w3.org/1999/xlink">
<g id="graph0" class="graph" transform="scale(1 1) rotate(0) translate(4 1113.5)">
<title>HoTT_WildCat_FunctorCat</title>
<polygon fill="white" stroke="transparent" points="-4,4 -4,-1113.5 2223,-1113.5 2223,4 -4,4"/>
<g id="clust1" class="cluster">
<title>cluster_FunctorCat</title>
<polygon fill="#ffffc3" stroke="black" points="8,-17.79 8,-1091.71 2211,-1091.71 2211,-17.79 8,-17.79"/>
<text text-anchor="middle" x="57" y="-1076.51" font-family="Times,serif" font-size="14.00">FunctorCat</text>
</g>
<!-- FunctorCat_hasequivs_fun11 -->
<g id="node1" class="node">
<title>FunctorCat_hasequivs_fun11</title>
<g id="a_node1"><a xlink:href="FunctorCat.html#hasequivs_fun11" xlink:title="hasequivs_fun11">
<ellipse fill="#f070d1" stroke="black" cx="873" cy="-964.79" rx="88.29" ry="18"/>
<ellipse fill="none" stroke="black" cx="873" cy="-964.79" rx="92.29" ry="22"/>
<ellipse fill="none" stroke="black" cx="873" cy="-964.79" rx="96.28" ry="26"/>
<text text-anchor="middle" x="873" y="-961.09" font-family="Times,serif" font-size="14.00">hasequivs_fun11</text>
</a>
</g>
</g>
<!-- FunctorCat_is1cat_fun11 -->
<g id="node2" class="node">
<title>FunctorCat_is1cat_fun11</title>
<g id="a_node2"><a xlink:href="FunctorCat.html#is1cat_fun11" xlink:title="is1cat_fun11">
<ellipse fill="#f070d1" stroke="black" cx="961" cy="-786.79" rx="69.59" ry="18"/>
<text text-anchor="middle" x="961" y="-783.09" font-family="Times,serif" font-size="14.00">is1cat_fun11</text>
</a>
</g>
</g>
<!-- FunctorCat_hasequivs_fun11&#45;&gt;FunctorCat_is1cat_fun11 -->
<g id="edge1" class="edge">
<title>FunctorCat_hasequivs_fun11&#45;&gt;FunctorCat_is1cat_fun11</title>
<path fill="none" stroke="black" d="M885.42,-938.94C901.89,-906 930.85,-848.1 947.73,-814.32"/>
<polygon fill="black" stroke="black" points="951.02,-815.58 952.36,-805.07 944.75,-812.45 951.02,-815.58"/>
</g>
<!-- FunctorCat_hasequivs_fun01 -->
<g id="node16" class="node">
<title>FunctorCat_hasequivs_fun01</title>
<g id="a_node16"><a xlink:href="FunctorCat.html#hasequivs_fun01" xlink:title="hasequivs_fun01">
<ellipse fill="#f070d1" stroke="black" cx="785" cy="-786.79" rx="88.28" ry="18"/>
<text text-anchor="middle" x="785" y="-783.09" font-family="Times,serif" font-size="14.00">hasequivs_fun01</text>
</a>
</g>
</g>
<!-- FunctorCat_hasequivs_fun11&#45;&gt;FunctorCat_hasequivs_fun01 -->
<g id="edge2" class="edge">
<title>FunctorCat_hasequivs_fun11&#45;&gt;FunctorCat_hasequivs_fun01</title>
<path fill="none" stroke="black" d="M860.58,-938.94C844.11,-906 815.15,-848.1 798.27,-814.32"/>
<polygon fill="black" stroke="black" points="801.25,-812.45 793.64,-805.07 794.98,-815.58 801.25,-812.45"/>
</g>
<!-- FunctorCat_is2graph_fun11 -->
<g id="node3" class="node">
<title>FunctorCat_is2graph_fun11</title>
<g id="a_node3"><a xlink:href="FunctorCat.html#is2graph_fun11" xlink:title="is2graph_fun11">
<ellipse fill="#f070d1" stroke="black" cx="1134" cy="-626.79" rx="83.39" ry="18"/>
<text text-anchor="middle" x="1134" y="-623.09" font-family="Times,serif" font-size="14.00">is2graph_fun11</text>
</a>
</g>
</g>
<!-- FunctorCat_is1cat_fun11&#45;&gt;FunctorCat_is2graph_fun11 -->
<g id="edge3" class="edge">
<title>FunctorCat_is1cat_fun11&#45;&gt;FunctorCat_is2graph_fun11</title>
<path fill="none" stroke="black" d="M979.19,-769.18C1010.08,-740.97 1072.88,-683.61 1108.26,-651.29"/>
<polygon fill="black" stroke="black" points="1110.77,-653.74 1115.8,-644.41 1106.05,-648.57 1110.77,-653.74"/>
</g>
<!-- FunctorCat_is01cat_fun11 -->
<g id="node4" class="node">
<title>FunctorCat_is01cat_fun11</title>
<g id="a_node4"><a xlink:href="FunctorCat.html#is01cat_fun11" xlink:title="is01cat_fun11">
<ellipse fill="#f070d1" stroke="black" cx="957" cy="-626.79" rx="75.29" ry="18"/>
<text text-anchor="middle" x="957" y="-623.09" font-family="Times,serif" font-size="14.00">is01cat_fun11</text>
</a>
</g>
</g>
<!-- FunctorCat_is1cat_fun11&#45;&gt;FunctorCat_is01cat_fun11 -->
<g id="edge4" class="edge">
<title>FunctorCat_is1cat_fun11&#45;&gt;FunctorCat_is01cat_fun11</title>
<path fill="none" stroke="black" d="M960.56,-768.58C959.87,-741.27 958.52,-687.78 957.69,-655.17"/>
<polygon fill="black" stroke="black" points="961.19,-654.88 957.44,-644.98 954.19,-655.06 961.19,-654.88"/>
</g>
<!-- FunctorCat_is1cat_fun01 -->
<g id="node17" class="node">
<title>FunctorCat_is1cat_fun01</title>
<g id="a_node17"><a xlink:href="FunctorCat.html#is1cat_fun01" xlink:title="is1cat_fun01">
<ellipse fill="#f070d1" stroke="black" cx="788" cy="-626.79" rx="69.59" ry="18"/>
<text text-anchor="middle" x="788" y="-623.09" font-family="Times,serif" font-size="14.00">is1cat_fun01</text>
</a>
</g>
</g>
<!-- FunctorCat_is1cat_fun11&#45;&gt;FunctorCat_is1cat_fun01 -->
<g id="edge5" class="edge">
<title>FunctorCat_is1cat_fun11&#45;&gt;FunctorCat_is1cat_fun01</title>
<path fill="none" stroke="black" d="M942.81,-769.18C911.92,-740.97 849.12,-683.61 813.74,-651.29"/>
<polygon fill="black" stroke="black" points="815.95,-648.57 806.2,-644.41 811.23,-653.74 815.95,-648.57"/>
</g>
<!-- FunctorCat_isgraph_fun11 -->
<g id="node5" class="node">
<title>FunctorCat_isgraph_fun11</title>
<g id="a_node5"><a xlink:href="FunctorCat.html#isgraph_fun11" xlink:title="isgraph_fun11">
<ellipse fill="#f070d1" stroke="black" cx="1139" cy="-448.79" rx="77.19" ry="18"/>
<text text-anchor="middle" x="1139" y="-445.09" font-family="Times,serif" font-size="14.00">isgraph_fun11</text>
</a>
</g>
</g>
<!-- FunctorCat_is2graph_fun11&#45;&gt;FunctorCat_isgraph_fun11 -->
<g id="edge6" class="edge">
<title>FunctorCat_is2graph_fun11&#45;&gt;FunctorCat_isgraph_fun11</title>
<path fill="none" stroke="black" d="M1134.49,-608.59C1135.36,-578.02 1137.18,-513.98 1138.22,-477.25"/>
<polygon fill="black" stroke="black" points="1141.73,-476.89 1138.52,-466.79 1134.73,-476.69 1141.73,-476.89"/>
</g>
<!-- FunctorCat_is2graph_fun01 -->
<g id="node18" class="node">
<title>FunctorCat_is2graph_fun01</title>
<g id="a_node18"><a xlink:href="FunctorCat.html#is2graph_fun01" xlink:title="is2graph_fun01">
<ellipse fill="#f070d1" stroke="black" cx="960" cy="-448.79" rx="83.39" ry="18"/>
<text text-anchor="middle" x="960" y="-445.09" font-family="Times,serif" font-size="14.00">is2graph_fun01</text>
</a>
</g>
</g>
<!-- FunctorCat_is2graph_fun11&#45;&gt;FunctorCat_is2graph_fun01 -->
<g id="edge7" class="edge">
<title>FunctorCat_is2graph_fun11&#45;&gt;FunctorCat_is2graph_fun01</title>
<path fill="none" stroke="black" d="M1117.32,-608.91C1086.27,-577.51 1019.53,-510 983.77,-473.83"/>
<polygon fill="black" stroke="black" points="986.15,-471.26 976.63,-466.61 981.17,-476.18 986.15,-471.26"/>
</g>
<!-- FunctorCat_is01cat_fun11&#45;&gt;FunctorCat_isgraph_fun11 -->
<g id="edge8" class="edge">
<title>FunctorCat_is01cat_fun11&#45;&gt;FunctorCat_isgraph_fun11</title>
<path fill="none" stroke="black" d="M974.12,-609.23C1006.51,-577.91 1076.83,-509.9 1114.32,-473.66"/>
<polygon fill="black" stroke="black" points="1117.04,-475.9 1121.79,-466.43 1112.17,-470.87 1117.04,-475.9"/>
</g>
<!-- FunctorCat_is01cat_fun01 -->
<g id="node19" class="node">
<title>FunctorCat_is01cat_fun01</title>
<g id="a_node19"><a xlink:href="FunctorCat.html#is01cat_fun01" xlink:title="is01cat_fun01">
<ellipse fill="#f070d1" stroke="black" cx="783" cy="-448.79" rx="75.29" ry="18"/>
<text text-anchor="middle" x="783" y="-445.09" font-family="Times,serif" font-size="14.00">is01cat_fun01</text>
</a>
</g>
</g>
<!-- FunctorCat_is01cat_fun11&#45;&gt;FunctorCat_is01cat_fun01 -->
<g id="edge9" class="edge">
<title>FunctorCat_is01cat_fun11&#45;&gt;FunctorCat_is01cat_fun01</title>
<path fill="none" stroke="black" d="M940.32,-608.91C909.27,-577.51 842.53,-510 806.77,-473.83"/>
<polygon fill="black" stroke="black" points="809.15,-471.26 799.63,-466.61 804.17,-476.18 809.15,-471.26"/>
</g>
<!-- FunctorCat_fun01_fun11 -->
<g id="node6" class="node">
<title>FunctorCat_fun01_fun11</title>
<g id="a_node6"><a xlink:href="FunctorCat.html#fun01_fun11" xlink:title="fun01_fun11">
<ellipse fill="#f070d1" stroke="black" cx="1101" cy="-253.79" rx="68.79" ry="18"/>
<text text-anchor="middle" x="1101" y="-250.09" font-family="Times,serif" font-size="14.00">fun01_fun11</text>
</a>
</g>
</g>
<!-- FunctorCat_isgraph_fun11&#45;&gt;FunctorCat_fun01_fun11 -->
<g id="edge10" class="edge">
<title>FunctorCat_isgraph_fun11&#45;&gt;FunctorCat_fun01_fun11</title>
<path fill="none" stroke="black" d="M1135.63,-430.66C1129.01,-397.04 1114.27,-322.18 1106.32,-281.82"/>
<polygon fill="black" stroke="black" points="1109.73,-281.01 1104.36,-271.88 1102.86,-282.36 1109.73,-281.01"/>
</g>
<!-- FunctorCat_isgraph_fun01 -->
<g id="node20" class="node">
<title>FunctorCat_isgraph_fun01</title>
<g id="a_node20"><a xlink:href="FunctorCat.html#isgraph_fun01" xlink:title="isgraph_fun01">
<ellipse fill="#f070d1" stroke="black" cx="917" cy="-253.79" rx="77.19" ry="18"/>
<text text-anchor="middle" x="917" y="-250.09" font-family="Times,serif" font-size="14.00">isgraph_fun01</text>
</a>
</g>
</g>
<!-- FunctorCat_isgraph_fun11&#45;&gt;FunctorCat_isgraph_fun01 -->
<g id="edge11" class="edge">
<title>FunctorCat_isgraph_fun11&#45;&gt;FunctorCat_isgraph_fun01</title>
<path fill="none" stroke="black" d="M1120.07,-431.33C1080.6,-397.02 989.42,-317.74 943.88,-278.16"/>
<polygon fill="black" stroke="black" points="946.04,-275.39 936.2,-271.48 941.45,-280.68 946.04,-275.39"/>
</g>
<!-- FunctorCat_Fun11 -->
<g id="node15" class="node">
<title>FunctorCat_Fun11</title>
<g id="a_node15"><a xlink:href="FunctorCat.html#Fun11" xlink:title="Fun11">
<ellipse fill="#e2cdfa" stroke="black" cx="1567" cy="-75.79" rx="40.09" ry="18"/>
<text text-anchor="middle" x="1567" y="-72.09" font-family="Times,serif" font-size="14.00">Fun11</text>
</a>
</g>
</g>
<!-- FunctorCat_fun01_fun11&#45;&gt;FunctorCat_Fun11 -->
<g id="edge12" class="edge">
<title>FunctorCat_fun01_fun11&#45;&gt;FunctorCat_Fun11</title>
<path fill="none" stroke="black" d="M1138.74,-238.53C1225.73,-205.68 1439.59,-124.91 1527.89,-91.56"/>
<polygon fill="black" stroke="black" points="1529.16,-94.82 1537.28,-88.01 1526.69,-88.27 1529.16,-94.82"/>
</g>
<!-- FunctorCat_Build_Fun01 -->
<g id="node27" class="node">
<title>FunctorCat_Build_Fun01</title>
<g id="a_node27"><a xlink:href="FunctorCat.html#Build_Fun01" xlink:title="Build_Fun01">
<ellipse fill="#7faaff" stroke="black" cx="777" cy="-75.79" rx="69.59" ry="18"/>
<text text-anchor="middle" x="777" y="-72.09" font-family="Times,serif" font-size="14.00">Build_Fun01</text>
</a>
</g>
</g>
<!-- FunctorCat_fun01_fun11&#45;&gt;FunctorCat_Build_Fun01 -->
<g id="edge13" class="edge">
<title>FunctorCat_fun01_fun11&#45;&gt;FunctorCat_Build_Fun01</title>
<path fill="none" stroke="black" d="M1072.53,-237.32C1014.1,-205.58 880.62,-133.08 814.93,-97.39"/>
<polygon fill="black" stroke="black" points="816.21,-94.1 805.75,-92.41 812.87,-100.25 816.21,-94.1"/>
</g>
<!-- FunctorCat_Fun01 -->
<g id="node28" class="node">
<title>FunctorCat_Fun01</title>
<g id="a_node28"><a xlink:href="FunctorCat.html#Fun01" xlink:title="Fun01">
<ellipse fill="#e2cdfa" stroke="black" cx="576" cy="-75.79" rx="40.09" ry="18"/>
<text text-anchor="middle" x="576" y="-72.09" font-family="Times,serif" font-size="14.00">Fun01</text>
</a>
</g>
</g>
<!-- FunctorCat_fun01_fun11&#45;&gt;FunctorCat_Fun01 -->
<g id="edge14" class="edge">
<title>FunctorCat_fun01_fun11&#45;&gt;FunctorCat_Fun01</title>
<path fill="none" stroke="black" d="M1060.24,-239.12C962.3,-206.29 714.59,-123.25 616.71,-90.43"/>
<polygon fill="black" stroke="black" points="617.76,-87.09 607.16,-87.23 615.53,-93.73 617.76,-87.09"/>
</g>
<!-- FunctorCat_is1functor_fun11 -->
<g id="node7" class="node">
<title>FunctorCat_is1functor_fun11</title>
<g id="a_node7"><a xlink:href="FunctorCat.html#is1functor_fun11" xlink:title="is1functor_fun11">
<ellipse fill="#f070d1" stroke="black" cx="2106" cy="-253.79" rx="89.08" ry="18"/>
<ellipse fill="none" stroke="black" cx="2106" cy="-253.79" rx="93.08" ry="22"/>
<ellipse fill="none" stroke="black" cx="2106" cy="-253.79" rx="97.08" ry="26"/>
<text text-anchor="middle" x="2106" y="-250.09" font-family="Times,serif" font-size="14.00">is1functor_fun11</text>
</a>
</g>
</g>
<!-- FunctorCat_is1functor_fun11&#45;&gt;FunctorCat_Fun11 -->
<g id="edge15" class="edge">
<title>FunctorCat_is1functor_fun11&#45;&gt;FunctorCat_Fun11</title>
<path fill="none" stroke="black" d="M2046.26,-233.28C1935.98,-197.27 1703.07,-121.22 1608.36,-90.29"/>
<polygon fill="black" stroke="black" points="1609.16,-86.87 1598.57,-87.1 1606.99,-93.53 1609.16,-86.87"/>
</g>
<!-- FunctorCat_is0functor_fun11 -->
<g id="node8" class="node">
<title>FunctorCat_is0functor_fun11</title>
<g id="a_node8"><a xlink:href="FunctorCat.html#is0functor_fun11" xlink:title="is0functor_fun11">
<ellipse fill="#f070d1" stroke="black" cx="1894" cy="-253.79" rx="89.08" ry="18"/>
<ellipse fill="none" stroke="black" cx="1894" cy="-253.79" rx="93.08" ry="22"/>
<ellipse fill="none" stroke="black" cx="1894" cy="-253.79" rx="97.08" ry="26"/>
<text text-anchor="middle" x="1894" y="-250.09" font-family="Times,serif" font-size="14.00">is0functor_fun11</text>
</a>
</g>
</g>
<!-- FunctorCat_is0functor_fun11&#45;&gt;FunctorCat_Fun11 -->
<g id="edge16" class="edge">
<title>FunctorCat_is0functor_fun11&#45;&gt;FunctorCat_Fun11</title>
<path fill="none" stroke="black" d="M1851.92,-230.14C1786.43,-194.89 1661.38,-127.59 1601.13,-95.16"/>
<polygon fill="black" stroke="black" points="1602.5,-91.92 1592.03,-90.26 1599.18,-98.08 1602.5,-91.92"/>
</g>
<!-- FunctorCat_fun11_fun -->
<g id="node9" class="node">
<title>FunctorCat_fun11_fun</title>
<g id="a_node9"><a xlink:href="FunctorCat.html#fun11_fun" xlink:title="fun11_fun">
<ellipse fill="#f070d1" stroke="black" cx="1714" cy="-253.79" rx="57.37" ry="18"/>
<ellipse fill="none" stroke="black" cx="1714" cy="-253.79" rx="61.38" ry="22"/>
<ellipse fill="none" stroke="black" cx="1714" cy="-253.79" rx="65.39" ry="26"/>
<text text-anchor="middle" x="1714" y="-250.09" font-family="Times,serif" font-size="14.00">fun11_fun</text>
</a>
</g>
</g>
<!-- FunctorCat_fun11_fun&#45;&gt;FunctorCat_Fun11 -->
<g id="edge17" class="edge">
<title>FunctorCat_fun11_fun&#45;&gt;FunctorCat_Fun11</title>
<path fill="none" stroke="black" d="M1693.87,-228.68C1665.74,-195.01 1615,-134.25 1586.96,-100.69"/>
<polygon fill="black" stroke="black" points="1589.45,-98.2 1580.35,-92.77 1584.08,-102.69 1589.45,-98.2"/>
</g>
<!-- FunctorCat_Fun11_sind -->
<g id="node10" class="node">
<title>FunctorCat_Fun11_sind</title>
<g id="a_node10"><a xlink:href="FunctorCat.html#Fun11_sind" xlink:title="Fun11_sind">
<ellipse fill="#f070d1" stroke="black" cx="1260" cy="-253.79" rx="64.21" ry="18"/>
<ellipse fill="none" stroke="black" cx="1260" cy="-253.79" rx="68.2" ry="22"/>
<ellipse fill="none" stroke="black" cx="1260" cy="-253.79" rx="72.19" ry="26"/>
<text text-anchor="middle" x="1260" y="-250.09" font-family="Times,serif" font-size="14.00">Fun11_sind</text>
</a>
</g>
</g>
<!-- FunctorCat_Build_Fun11 -->
<g id="node14" class="node">
<title>FunctorCat_Build_Fun11</title>
<g id="a_node14"><a xlink:href="FunctorCat.html#Build_Fun11" xlink:title="Build_Fun11">
<ellipse fill="#7faaff" stroke="black" cx="1418" cy="-75.79" rx="69.59" ry="18"/>
<text text-anchor="middle" x="1418" y="-72.09" font-family="Times,serif" font-size="14.00">Build_Fun11</text>
</a>
</g>
</g>
<!-- FunctorCat_Fun11_sind&#45;&gt;FunctorCat_Build_Fun11 -->
<g id="edge18" class="edge">
<title>FunctorCat_Fun11_sind&#45;&gt;FunctorCat_Build_Fun11</title>
<path fill="none" stroke="black" d="M1281.64,-228.68C1311.68,-195.22 1365.75,-134.99 1395.99,-101.31"/>
<polygon fill="black" stroke="black" points="1398.7,-103.52 1402.78,-93.74 1393.49,-98.85 1398.7,-103.52"/>
</g>
<!-- FunctorCat_Fun11_sind&#45;&gt;FunctorCat_Fun11 -->
<g id="edge19" class="edge">
<title>FunctorCat_Fun11_sind&#45;&gt;FunctorCat_Fun11</title>
<path fill="none" stroke="black" d="M1297.34,-231.38C1357.89,-196.67 1476.5,-128.67 1534.08,-95.66"/>
<polygon fill="black" stroke="black" points="1536.18,-98.49 1543.11,-90.48 1532.69,-92.42 1536.18,-98.49"/>
</g>
<!-- FunctorCat_Fun11_rec -->
<g id="node11" class="node">
<title>FunctorCat_Fun11_rec</title>
<g id="a_node11"><a xlink:href="FunctorCat.html#Fun11_rec" xlink:title="Fun11_rec">
<ellipse fill="#f070d1" stroke="black" cx="1567" cy="-448.79" rx="59.61" ry="18"/>
<ellipse fill="none" stroke="black" cx="1567" cy="-448.79" rx="63.6" ry="22"/>
<ellipse fill="none" stroke="black" cx="1567" cy="-448.79" rx="67.59" ry="26"/>
<text text-anchor="middle" x="1567" y="-445.09" font-family="Times,serif" font-size="14.00">Fun11_rec</text>
</a>
</g>
</g>
<!-- FunctorCat_Fun11_rect -->
<g id="node13" class="node">
<title>FunctorCat_Fun11_rect</title>
<g id="a_node13"><a xlink:href="FunctorCat.html#Fun11_rect" xlink:title="Fun11_rect">
<ellipse fill="#f070d1" stroke="black" cx="1567" cy="-253.79" rx="63.89" ry="18"/>
<text text-anchor="middle" x="1567" y="-250.09" font-family="Times,serif" font-size="14.00">Fun11_rect</text>
</a>
</g>
</g>
<!-- FunctorCat_Fun11_rec&#45;&gt;FunctorCat_Fun11_rect -->
<g id="edge20" class="edge">
<title>FunctorCat_Fun11_rec&#45;&gt;FunctorCat_Fun11_rect</title>
<path fill="none" stroke="black" d="M1567,-422.56C1567,-386.29 1567,-319.67 1567,-282.22"/>
<polygon fill="black" stroke="black" points="1570.5,-282.04 1567,-272.04 1563.5,-282.04 1570.5,-282.04"/>
</g>
<!-- FunctorCat_Fun11_ind -->
<g id="node12" class="node">
<title>FunctorCat_Fun11_ind</title>
<g id="a_node12"><a xlink:href="FunctorCat.html#Fun11_ind" xlink:title="Fun11_ind">
<ellipse fill="#7fffd4" stroke="black" cx="1418" cy="-253.79" rx="59.61" ry="18"/>
<ellipse fill="none" stroke="black" cx="1418" cy="-253.79" rx="63.6" ry="22"/>
<ellipse fill="none" stroke="black" cx="1418" cy="-253.79" rx="67.59" ry="26"/>
<text text-anchor="middle" x="1418" y="-250.09" font-family="Times,serif" font-size="14.00">Fun11_ind</text>
</a>
</g>
</g>
<!-- FunctorCat_Fun11_ind&#45;&gt;FunctorCat_Build_Fun11 -->
<g id="edge21" class="edge">
<title>FunctorCat_Fun11_ind&#45;&gt;FunctorCat_Build_Fun11</title>
<path fill="none" stroke="black" d="M1418,-227.57C1418,-194.81 1418,-137.82 1418,-104.07"/>
<polygon fill="black" stroke="black" points="1421.5,-103.99 1418,-93.99 1414.5,-103.99 1421.5,-103.99"/>
</g>
<!-- FunctorCat_Fun11_ind&#45;&gt;FunctorCat_Fun11 -->
<g id="edge22" class="edge">
<title>FunctorCat_Fun11_ind&#45;&gt;FunctorCat_Fun11</title>
<path fill="none" stroke="black" d="M1438.41,-228.68C1466.91,-195.01 1518.35,-134.25 1546.77,-100.69"/>
<polygon fill="black" stroke="black" points="1549.68,-102.67 1553.47,-92.77 1544.33,-98.14 1549.68,-102.67"/>
</g>
<!-- FunctorCat_Fun11_rect&#45;&gt;FunctorCat_Build_Fun11 -->
<g id="edge23" class="edge">
<title>FunctorCat_Fun11_rect&#45;&gt;FunctorCat_Build_Fun11</title>
<path fill="none" stroke="black" d="M1552.71,-235.91C1526.24,-204.64 1469.45,-137.56 1438.74,-101.29"/>
<polygon fill="black" stroke="black" points="1441.38,-98.98 1432.24,-93.61 1436.03,-103.51 1441.38,-98.98"/>
</g>
<!-- FunctorCat_Fun11_rect&#45;&gt;FunctorCat_Fun11 -->
<g id="edge24" class="edge">
<title>FunctorCat_Fun11_rect&#45;&gt;FunctorCat_Fun11</title>
<path fill="none" stroke="black" d="M1567,-235.59C1567,-205.02 1567,-140.98 1567,-104.25"/>
<polygon fill="black" stroke="black" points="1570.5,-103.79 1567,-93.79 1563.5,-103.79 1570.5,-103.79"/>
</g>
<!-- FunctorCat_hasequivs_fun01&#45;&gt;FunctorCat_is1cat_fun01 -->
<g id="edge25" class="edge">
<title>FunctorCat_hasequivs_fun01&#45;&gt;FunctorCat_is1cat_fun01</title>
<path fill="none" stroke="black" d="M785.33,-768.58C785.85,-741.27 786.86,-687.78 787.48,-655.17"/>
<polygon fill="black" stroke="black" points="790.98,-655.04 787.67,-644.98 783.98,-654.91 790.98,-655.04"/>
</g>
<!-- FunctorCat_is1cat_fun01&#45;&gt;FunctorCat_is2graph_fun01 -->
<g id="edge26" class="edge">
<title>FunctorCat_is1cat_fun01&#45;&gt;FunctorCat_is2graph_fun01</title>
<path fill="none" stroke="black" d="M804.18,-609.23C834.71,-577.99 900.91,-510.25 936.4,-473.94"/>
<polygon fill="black" stroke="black" points="939,-476.29 943.48,-466.69 933.99,-471.39 939,-476.29"/>
</g>
<!-- FunctorCat_is1cat_fun01&#45;&gt;FunctorCat_is01cat_fun01 -->
<g id="edge27" class="edge">
<title>FunctorCat_is1cat_fun01&#45;&gt;FunctorCat_is01cat_fun01</title>
<path fill="none" stroke="black" d="M787.51,-608.59C786.64,-578.02 784.82,-513.98 783.78,-477.25"/>
<polygon fill="black" stroke="black" points="787.27,-476.69 783.48,-466.79 780.27,-476.89 787.27,-476.69"/>
</g>
<!-- FunctorCat_is2graph_fun01&#45;&gt;FunctorCat_isgraph_fun01 -->
<g id="edge28" class="edge">
<title>FunctorCat_is2graph_fun01&#45;&gt;FunctorCat_isgraph_fun01</title>
<path fill="none" stroke="black" d="M956.18,-430.66C948.69,-397.04 932.01,-322.18 923.02,-281.82"/>
<polygon fill="black" stroke="black" points="926.4,-280.88 920.81,-271.88 919.57,-282.4 926.4,-280.88"/>
</g>
<!-- FunctorCat_is2graph_fun01&#45;&gt;FunctorCat_Build_Fun01 -->
<g id="edge29" class="edge">
<title>FunctorCat_is2graph_fun01&#45;&gt;FunctorCat_Build_Fun01</title>
<path fill="none" stroke="black" d="M970.54,-430.67C992.81,-392.1 1039.69,-296.43 1003,-227.79 966.07,-158.69 881.98,-115.71 827.44,-94.03"/>
<polygon fill="black" stroke="black" points="828.54,-90.7 817.95,-90.35 826.01,-97.23 828.54,-90.7"/>
</g>
<!-- FunctorCat_is01cat_fun01&#45;&gt;FunctorCat_isgraph_fun01 -->
<g id="edge30" class="edge">
<title>FunctorCat_is01cat_fun01&#45;&gt;FunctorCat_isgraph_fun01</title>
<path fill="none" stroke="black" d="M794.66,-431C818.22,-397.06 871.62,-320.15 899.43,-280.1"/>
<polygon fill="black" stroke="black" points="902.45,-281.89 905.27,-271.68 896.7,-277.89 902.45,-281.89"/>
</g>
<!-- FunctorCat_is01cat_fun01&#45;&gt;FunctorCat_Build_Fun01 -->
<g id="edge31" class="edge">
<title>FunctorCat_is01cat_fun01&#45;&gt;FunctorCat_Build_Fun01</title>
<path fill="none" stroke="black" d="M787.96,-430.69C798.07,-393.73 819.42,-303.56 811,-227.79 806.09,-183.59 793.32,-133.43 784.9,-103.49"/>
<polygon fill="black" stroke="black" points="788.24,-102.44 782.13,-93.79 781.51,-104.37 788.24,-102.44"/>
</g>
<!-- FunctorCat_isgraph_fun01&#45;&gt;FunctorCat_Fun01 -->
<g id="edge32" class="edge">
<title>FunctorCat_isgraph_fun01&#45;&gt;FunctorCat_Fun01</title>
<path fill="none" stroke="black" d="M886.74,-237.17C823.51,-204.53 677.71,-129.28 610.76,-94.73"/>
<polygon fill="black" stroke="black" points="611.97,-91.41 601.48,-89.94 608.76,-97.63 611.97,-91.41"/>
</g>
<!-- FunctorCat_fun01_is0functor -->
<g id="node21" class="node">
<title>FunctorCat_fun01_is0functor</title>
<g id="a_node21"><a xlink:href="FunctorCat.html#fun01_is0functor" xlink:title="fun01_is0functor">
<ellipse fill="#f070d1" stroke="black" cx="243" cy="-253.79" rx="89.08" ry="18"/>
<ellipse fill="none" stroke="black" cx="243" cy="-253.79" rx="93.08" ry="22"/>
<ellipse fill="none" stroke="black" cx="243" cy="-253.79" rx="97.08" ry="26"/>
<text text-anchor="middle" x="243" y="-250.09" font-family="Times,serif" font-size="14.00">fun01_is0functor</text>
</a>
</g>
</g>
<!-- FunctorCat_fun01_is0functor&#45;&gt;FunctorCat_Fun01 -->
<g id="edge33" class="edge">
<title>FunctorCat_fun01_is0functor&#45;&gt;FunctorCat_Fun01</title>
<path fill="none" stroke="black" d="M285.51,-230.32C352.39,-194.97 480.84,-127.08 542,-94.76"/>
<polygon fill="black" stroke="black" points="543.67,-97.83 550.87,-90.07 540.4,-91.65 543.67,-97.83"/>
</g>
<!-- FunctorCat_fun01_F -->
<g id="node22" class="node">
<title>FunctorCat_fun01_F</title>
<g id="a_node22"><a xlink:href="FunctorCat.html#fun01_F" xlink:title="fun01_F">
<ellipse fill="#f070d1" stroke="black" cx="72" cy="-253.79" rx="48.18" ry="18"/>
<ellipse fill="none" stroke="black" cx="72" cy="-253.79" rx="52.18" ry="22"/>
<ellipse fill="none" stroke="black" cx="72" cy="-253.79" rx="56.19" ry="26"/>
<text text-anchor="middle" x="72" y="-250.09" font-family="Times,serif" font-size="14.00">fun01_F</text>
</a>
</g>
</g>
<!-- FunctorCat_fun01_F&#45;&gt;FunctorCat_Fun01 -->
<g id="edge34" class="edge">
<title>FunctorCat_fun01_F&#45;&gt;FunctorCat_Fun01</title>
<path fill="none" stroke="black" d="M113.88,-236.43C121.55,-233.5 129.5,-230.52 137,-227.79 282.32,-174.87 456.43,-116.44 534.53,-90.5"/>
<polygon fill="black" stroke="black" points="536.07,-93.68 544.46,-87.2 533.86,-87.03 536.07,-93.68"/>
</g>
<!-- FunctorCat_Fun01_sind -->
<g id="node23" class="node">
<title>FunctorCat_Fun01_sind</title>
<g id="a_node23"><a xlink:href="FunctorCat.html#Fun01_sind" xlink:title="Fun01_sind">
<ellipse fill="#f070d1" stroke="black" cx="576" cy="-253.79" rx="64.21" ry="18"/>
<ellipse fill="none" stroke="black" cx="576" cy="-253.79" rx="68.2" ry="22"/>
<ellipse fill="none" stroke="black" cx="576" cy="-253.79" rx="72.19" ry="26"/>
<text text-anchor="middle" x="576" y="-250.09" font-family="Times,serif" font-size="14.00">Fun01_sind</text>
</a>
</g>
</g>
<!-- FunctorCat_Fun01_sind&#45;&gt;FunctorCat_Build_Fun01 -->
<g id="edge35" class="edge">
<title>FunctorCat_Fun01_sind&#45;&gt;FunctorCat_Build_Fun01</title>
<path fill="none" stroke="black" d="M602.69,-229.42C641.27,-195.63 712.2,-133.52 750.61,-99.89"/>
<polygon fill="black" stroke="black" points="753.08,-102.39 758.29,-93.17 748.46,-97.12 753.08,-102.39"/>
</g>
<!-- FunctorCat_Fun01_sind&#45;&gt;FunctorCat_Fun01 -->
<g id="edge36" class="edge">
<title>FunctorCat_Fun01_sind&#45;&gt;FunctorCat_Fun01</title>
<path fill="none" stroke="black" d="M576,-227.57C576,-194.81 576,-137.82 576,-104.07"/>
<polygon fill="black" stroke="black" points="579.5,-103.99 576,-93.99 572.5,-103.99 579.5,-103.99"/>
</g>
<!-- FunctorCat_Fun01_rec -->
<g id="node24" class="node">
<title>FunctorCat_Fun01_rec</title>
<g id="a_node24"><a xlink:href="FunctorCat.html#Fun01_rec" xlink:title="Fun01_rec">
<ellipse fill="#f070d1" stroke="black" cx="422" cy="-448.79" rx="59.61" ry="18"/>
<ellipse fill="none" stroke="black" cx="422" cy="-448.79" rx="63.6" ry="22"/>
<ellipse fill="none" stroke="black" cx="422" cy="-448.79" rx="67.59" ry="26"/>
<text text-anchor="middle" x="422" y="-445.09" font-family="Times,serif" font-size="14.00">Fun01_rec</text>
</a>
</g>
</g>
<!-- FunctorCat_Fun01_rect -->
<g id="node26" class="node">
<title>FunctorCat_Fun01_rect</title>
<g id="a_node26"><a xlink:href="FunctorCat.html#Fun01_rect" xlink:title="Fun01_rect">
<ellipse fill="#f070d1" stroke="black" cx="422" cy="-253.79" rx="63.89" ry="18"/>
<text text-anchor="middle" x="422" y="-250.09" font-family="Times,serif" font-size="14.00">Fun01_rect</text>
</a>
</g>
</g>
<!-- FunctorCat_Fun01_rec&#45;&gt;FunctorCat_Fun01_rect -->
<g id="edge37" class="edge">
<title>FunctorCat_Fun01_rec&#45;&gt;FunctorCat_Fun01_rect</title>
<path fill="none" stroke="black" d="M422,-422.56C422,-386.29 422,-319.67 422,-282.22"/>
<polygon fill="black" stroke="black" points="425.5,-282.04 422,-272.04 418.5,-282.04 425.5,-282.04"/>
</g>
<!-- FunctorCat_Fun01_ind -->
<g id="node25" class="node">
<title>FunctorCat_Fun01_ind</title>
<g id="a_node25"><a xlink:href="FunctorCat.html#Fun01_ind" xlink:title="Fun01_ind">
<ellipse fill="#7fffd4" stroke="black" cx="734" cy="-253.79" rx="59.61" ry="18"/>
<ellipse fill="none" stroke="black" cx="734" cy="-253.79" rx="63.6" ry="22"/>
<ellipse fill="none" stroke="black" cx="734" cy="-253.79" rx="67.59" ry="26"/>
<text text-anchor="middle" x="734" y="-250.09" font-family="Times,serif" font-size="14.00">Fun01_ind</text>
</a>
</g>
</g>
<!-- FunctorCat_Fun01_ind&#45;&gt;FunctorCat_Build_Fun01 -->
<g id="edge38" class="edge">
<title>FunctorCat_Fun01_ind&#45;&gt;FunctorCat_Build_Fun01</title>
<path fill="none" stroke="black" d="M740.16,-227.57C748.17,-194.81 762.09,-137.82 770.33,-104.07"/>
<polygon fill="black" stroke="black" points="773.82,-104.54 772.8,-93.99 767.02,-102.87 773.82,-104.54"/>
</g>
<!-- FunctorCat_Fun01_ind&#45;&gt;FunctorCat_Fun01 -->
<g id="edge39" class="edge">
<title>FunctorCat_Fun01_ind&#45;&gt;FunctorCat_Fun01</title>
<path fill="none" stroke="black" d="M712.69,-229.05C682.43,-195.35 627.35,-133.99 597.17,-100.37"/>
<polygon fill="black" stroke="black" points="599.7,-97.95 590.42,-92.85 594.49,-102.63 599.7,-97.95"/>
</g>
<!-- FunctorCat_Fun01_rect&#45;&gt;FunctorCat_Build_Fun01 -->
<g id="edge40" class="edge">
<title>FunctorCat_Fun01_rect&#45;&gt;FunctorCat_Build_Fun01</title>
<path fill="none" stroke="black" d="M452.27,-237.78C516.29,-206.04 665.44,-132.09 737.13,-96.55"/>
<polygon fill="black" stroke="black" points="738.9,-99.58 746.31,-92.01 735.79,-93.31 738.9,-99.58"/>
</g>
<!-- FunctorCat_Fun01_rect&#45;&gt;FunctorCat_Fun01 -->
<g id="edge41" class="edge">
<title>FunctorCat_Fun01_rect&#45;&gt;FunctorCat_Fun01</title>
<path fill="none" stroke="black" d="M436.49,-236.23C463.91,-204.89 523.5,-136.78 555.2,-100.56"/>
<polygon fill="black" stroke="black" points="557.93,-102.75 561.89,-92.92 552.67,-98.14 557.93,-102.75"/>
</g>
</g>
</svg>
