<?xml version="1.0" encoding="UTF-8" standalone="no"?>
<!DOCTYPE svg PUBLIC "-//W3C//DTD SVG 1.1//EN"
 "http://www.w3.org/Graphics/SVG/1.1/DTD/svg11.dtd">
<!-- Generated by graphviz version 2.43.0 (0)
 -->
<!-- Title: HoTT_Types_Prod Pages: 1 -->
<svg width="2708pt" height="1358pt"
 viewBox="0.00 0.00 2708.00 1358.00" xmlns="http://www.w3.org/2000/svg" xmlns:xlink="http://www.w3.org/1999/xlink">
<g id="graph0" class="graph" transform="scale(1 1) rotate(0) translate(4 1354)">
<title>HoTT_Types_Prod</title>
<polygon fill="white" stroke="transparent" points="-4,4 -4,-1354 2704,-1354 2704,4 -4,4"/>
<g id="clust1" class="cluster">
<title>cluster_Prod</title>
<polygon fill="#ffffc3" stroke="black" points="8,-17.91 8,-1332.09 2692,-1332.09 2692,-17.91 8,-17.91"/>
<text text-anchor="middle" x="33" y="-1316.89" font-family="Times,serif" font-size="14.00">Prod</text>
</g>
<!-- Prod_istruncmap_functor_prod -->
<g id="node1" class="node">
<title>Prod_istruncmap_functor_prod</title>
<g id="a_node1"><a xlink:href="Prod.html#istruncmap_functor_prod" xlink:title="istruncmap_functor_prod">
<ellipse fill="#f070d1" stroke="black" cx="1948" cy="-1204.91" rx="127.28" ry="18"/>
<ellipse fill="none" stroke="black" cx="1948" cy="-1204.91" rx="131.28" ry="22"/>
<ellipse fill="none" stroke="black" cx="1948" cy="-1204.91" rx="135.28" ry="26"/>
<text text-anchor="middle" x="1948" y="-1201.21" font-family="Times,serif" font-size="14.00">istruncmap_functor_prod</text>
</a>
</g>
</g>
<!-- Prod_hfiber_functor_prod -->
<g id="node2" class="node">
<title>Prod_hfiber_functor_prod</title>
<g id="a_node2"><a xlink:href="Prod.html#hfiber_functor_prod" xlink:title="hfiber_functor_prod">
<ellipse fill="#f070d1" stroke="black" cx="2159" cy="-416.91" rx="102.08" ry="18"/>
<text text-anchor="middle" x="2159" y="-413.21" font-family="Times,serif" font-size="14.00">hfiber_functor_prod</text>
</a>
</g>
</g>
<!-- Prod_istruncmap_functor_prod&#45;&gt;Prod_hfiber_functor_prod -->
<g id="edge1" class="edge">
<title>Prod_istruncmap_functor_prod&#45;&gt;Prod_hfiber_functor_prod</title>
<path fill="none" stroke="black" d="M1977.35,-1179.43C2011.39,-1149.15 2066.13,-1094.15 2092,-1033.91 2182.86,-822.3 2168.61,-533.85 2161.51,-445.04"/>
<polygon fill="black" stroke="black" points="2164.99,-444.66 2160.67,-434.99 2158.01,-445.25 2164.99,-444.66"/>
</g>
<!-- Prod_istrunc_prod -->
<g id="node6" class="node">
<title>Prod_istrunc_prod</title>
<g id="a_node6"><a xlink:href="Prod.html#istrunc_prod" xlink:title="istrunc_prod">
<ellipse fill="#f070d1" stroke="black" cx="1513" cy="-1007.91" rx="69.59" ry="18"/>
<text text-anchor="middle" x="1513" y="-1004.21" font-family="Times,serif" font-size="14.00">istrunc_prod</text>
</a>
</g>
</g>
<!-- Prod_istruncmap_functor_prod&#45;&gt;Prod_istrunc_prod -->
<g id="edge2" class="edge">
<title>Prod_istruncmap_functor_prod&#45;&gt;Prod_istrunc_prod</title>
<path fill="none" stroke="black" d="M1896.39,-1180.78C1809.56,-1141.85 1635.89,-1064 1555.56,-1027.99"/>
<polygon fill="black" stroke="black" points="1556.8,-1024.71 1546.24,-1023.81 1553.93,-1031.1 1556.8,-1024.71"/>
</g>
<!-- Prod_functor_prod -->
<g id="node27" class="node">
<title>Prod_functor_prod</title>
<g id="a_node27"><a xlink:href="Prod.html#functor_prod" xlink:title="functor_prod">
<ellipse fill="#f070d1" stroke="black" cx="2159" cy="-236.91" rx="70.39" ry="18"/>
<text text-anchor="middle" x="2159" y="-233.21" font-family="Times,serif" font-size="14.00">functor_prod</text>
</a>
</g>
</g>
<!-- Prod_hfiber_functor_prod&#45;&gt;Prod_functor_prod -->
<g id="edge3" class="edge">
<title>Prod_hfiber_functor_prod&#45;&gt;Prod_functor_prod</title>
<path fill="none" stroke="black" d="M2159,-398.84C2159,-367.88 2159,-302.21 2159,-265.04"/>
<polygon fill="black" stroke="black" points="2162.5,-264.93 2159,-254.93 2155.5,-264.93 2162.5,-264.93"/>
</g>
<!-- Prod_path_prod -->
<g id="node42" class="node">
<title>Prod_path_prod</title>
<g id="a_node42"><a xlink:href="Prod.html#path_prod" xlink:title="path_prod">
<ellipse fill="#f070d1" stroke="black" cx="1242" cy="-236.91" rx="57.69" ry="18"/>
<text text-anchor="middle" x="1242" y="-233.21" font-family="Times,serif" font-size="14.00">path_prod</text>
</a>
</g>
</g>
<!-- Prod_hfiber_functor_prod&#45;&gt;Prod_path_prod -->
<g id="edge4" class="edge">
<title>Prod_hfiber_functor_prod&#45;&gt;Prod_path_prod</title>
<path fill="none" stroke="black" d="M2099.75,-402.17C2083.04,-398.41 2064.83,-394.4 2048,-390.91 1769.37,-333.1 1434.72,-272.34 1301.2,-248.44"/>
<polygon fill="black" stroke="black" points="1301.64,-244.96 1291.18,-246.65 1300.41,-251.85 1301.64,-244.96"/>
</g>
<!-- Prod_ap_uncurry -->
<g id="node3" class="node">
<title>Prod_ap_uncurry</title>
<g id="a_node3"><a xlink:href="Prod.html#ap_uncurry" xlink:title="ap_uncurry">
<ellipse fill="#f070d1" stroke="black" cx="1103" cy="-613.91" rx="63.08" ry="18"/>
<ellipse fill="none" stroke="black" cx="1103" cy="-613.91" rx="67.09" ry="22"/>
<ellipse fill="none" stroke="black" cx="1103" cy="-613.91" rx="71.09" ry="26"/>
<text text-anchor="middle" x="1103" y="-610.21" font-family="Times,serif" font-size="14.00">ap_uncurry</text>
</a>
</g>
</g>
<!-- Prod_path_prod_ -->
<g id="node41" class="node">
<title>Prod_path_prod_</title>
<g id="a_node41"><a xlink:href="Prod.html#path_prod'" xlink:title="path_prod&#39;">
<ellipse fill="#f070d1" stroke="black" cx="1088" cy="-416.91" rx="59.59" ry="18"/>
<text text-anchor="middle" x="1088" y="-413.21" font-family="Times,serif" font-size="14.00">path_prod&#39;</text>
</a>
</g>
</g>
<!-- Prod_ap_uncurry&#45;&gt;Prod_path_prod_ -->
<g id="edge5" class="edge">
<title>Prod_ap_uncurry&#45;&gt;Prod_path_prod_</title>
<path fill="none" stroke="black" d="M1101.07,-587.82C1098.25,-551.21 1093.04,-483.41 1090.12,-445.46"/>
<polygon fill="black" stroke="black" points="1093.58,-444.86 1089.33,-435.15 1086.6,-445.39 1093.58,-444.86"/>
</g>
<!-- Prod_decidable_prod -->
<g id="node4" class="node">
<title>Prod_decidable_prod</title>
<g id="a_node4"><a xlink:href="Prod.html#decidable_prod" xlink:title="decidable_prod">
<ellipse fill="#f070d1" stroke="black" cx="2406" cy="-1204.91" rx="81.46" ry="18"/>
<ellipse fill="none" stroke="black" cx="2406" cy="-1204.91" rx="85.48" ry="22"/>
<ellipse fill="none" stroke="black" cx="2406" cy="-1204.91" rx="89.49" ry="26"/>
<text text-anchor="middle" x="2406" y="-1201.21" font-family="Times,serif" font-size="14.00">decidable_prod</text>
</a>
</g>
</g>
<!-- Prod_contr_prod -->
<g id="node5" class="node">
<title>Prod_contr_prod</title>
<g id="a_node5"><a xlink:href="Prod.html#contr_prod" xlink:title="contr_prod">
<ellipse fill="#f070d1" stroke="black" cx="1726" cy="-1204.91" rx="61.18" ry="18"/>
<ellipse fill="none" stroke="black" cx="1726" cy="-1204.91" rx="65.18" ry="22"/>
<ellipse fill="none" stroke="black" cx="1726" cy="-1204.91" rx="69.19" ry="26"/>
<text text-anchor="middle" x="1726" y="-1201.21" font-family="Times,serif" font-size="14.00">contr_prod</text>
</a>
</g>
</g>
<!-- Prod_contr_prod&#45;&gt;Prod_istrunc_prod -->
<g id="edge6" class="edge">
<title>Prod_contr_prod&#45;&gt;Prod_istrunc_prod</title>
<path fill="none" stroke="black" d="M1700.31,-1180.39C1659.25,-1142.8 1579.31,-1069.62 1538.42,-1032.19"/>
<polygon fill="black" stroke="black" points="1540.77,-1029.58 1531.03,-1025.41 1536.04,-1034.75 1540.77,-1029.58"/>
</g>
<!-- Prod_equiv_path_prod -->
<g id="node32" class="node">
<title>Prod_equiv_path_prod</title>
<g id="a_node32"><a xlink:href="Prod.html#equiv_path_prod" xlink:title="equiv_path_prod">
<ellipse fill="#f070d1" stroke="black" cx="1132" cy="-810.91" rx="87.18" ry="18"/>
<text text-anchor="middle" x="1132" y="-807.21" font-family="Times,serif" font-size="14.00">equiv_path_prod</text>
</a>
</g>
</g>
<!-- Prod_istrunc_prod&#45;&gt;Prod_equiv_path_prod -->
<g id="edge7" class="edge">
<title>Prod_istrunc_prod&#45;&gt;Prod_equiv_path_prod</title>
<path fill="none" stroke="black" d="M1483.1,-991.61C1415.08,-956.8 1248.73,-871.65 1171.98,-832.38"/>
<polygon fill="black" stroke="black" points="1173.58,-829.26 1163.08,-827.82 1170.39,-835.49 1173.58,-829.26"/>
</g>
<!-- Prod_equiv_prod_coind -->
<g id="node7" class="node">
<title>Prod_equiv_prod_coind</title>
<g id="a_node7"><a xlink:href="Prod.html#equiv_prod_coind" xlink:title="equiv_prod_coind">
<ellipse fill="#f070d1" stroke="black" cx="2200" cy="-1204.91" rx="90.98" ry="18"/>
<ellipse fill="none" stroke="black" cx="2200" cy="-1204.91" rx="94.98" ry="22"/>
<ellipse fill="none" stroke="black" cx="2200" cy="-1204.91" rx="98.98" ry="26"/>
<text text-anchor="middle" x="2200" y="-1201.21" font-family="Times,serif" font-size="14.00">equiv_prod_coind</text>
</a>
</g>
</g>
<!-- Prod_isequiv_prod_coind -->
<g id="node8" class="node">
<title>Prod_isequiv_prod_coind</title>
<g id="a_node8"><a xlink:href="Prod.html#isequiv_prod_coind" xlink:title="isequiv_prod_coind">
<ellipse fill="#f070d1" stroke="black" cx="2220" cy="-1007.91" rx="98.58" ry="18"/>
<text text-anchor="middle" x="2220" y="-1004.21" font-family="Times,serif" font-size="14.00">isequiv_prod_coind</text>
</a>
</g>
</g>
<!-- Prod_equiv_prod_coind&#45;&gt;Prod_isequiv_prod_coind -->
<g id="edge8" class="edge">
<title>Prod_equiv_prod_coind&#45;&gt;Prod_isequiv_prod_coind</title>
<path fill="none" stroke="black" d="M2202.57,-1178.82C2206.33,-1142.21 2213.28,-1074.41 2217.17,-1036.46"/>
<polygon fill="black" stroke="black" points="2220.69,-1036.46 2218.23,-1026.15 2213.73,-1035.75 2220.69,-1036.46"/>
</g>
<!-- Prod_prod_coind_uncurried -->
<g id="node10" class="node">
<title>Prod_prod_coind_uncurried</title>
<g id="a_node10"><a xlink:href="Prod.html#prod_coind_uncurried" xlink:title="prod_coind_uncurried">
<ellipse fill="#f070d1" stroke="black" cx="2295" cy="-810.91" rx="111.28" ry="18"/>
<text text-anchor="middle" x="2295" y="-807.21" font-family="Times,serif" font-size="14.00">prod_coind_uncurried</text>
</a>
</g>
</g>
<!-- Prod_isequiv_prod_coind&#45;&gt;Prod_prod_coind_uncurried -->
<g id="edge9" class="edge">
<title>Prod_isequiv_prod_coind&#45;&gt;Prod_prod_coind_uncurried</title>
<path fill="none" stroke="black" d="M2226.52,-989.95C2239.6,-955.95 2269.1,-879.25 2284.77,-838.51"/>
<polygon fill="black" stroke="black" points="2288.11,-839.56 2288.44,-828.97 2281.58,-837.05 2288.11,-839.56"/>
</g>
<!-- Prod_prod_coind -->
<g id="node9" class="node">
<title>Prod_prod_coind</title>
<g id="a_node9"><a xlink:href="Prod.html#prod_coind" xlink:title="prod_coind">
<ellipse fill="#f070d1" stroke="black" cx="2407" cy="-1007.91" rx="61.96" ry="18"/>
<ellipse fill="none" stroke="black" cx="2407" cy="-1007.91" rx="65.98" ry="22"/>
<ellipse fill="none" stroke="black" cx="2407" cy="-1007.91" rx="69.99" ry="26"/>
<text text-anchor="middle" x="2407" y="-1004.21" font-family="Times,serif" font-size="14.00">prod_coind</text>
</a>
</g>
</g>
<!-- Prod_prod_coind&#45;&gt;Prod_prod_coind_uncurried -->
<g id="edge10" class="edge">
<title>Prod_prod_coind&#45;&gt;Prod_prod_coind_uncurried</title>
<path fill="none" stroke="black" d="M2392.82,-982.21C2371.54,-945.18 2331.57,-875.58 2309.89,-837.84"/>
<polygon fill="black" stroke="black" points="2312.81,-835.9 2304.8,-828.97 2306.74,-839.38 2312.81,-835.9"/>
</g>
<!-- Prod_equiv_uncurry -->
<g id="node11" class="node">
<title>Prod_equiv_uncurry</title>
<g id="a_node11"><a xlink:href="Prod.html#equiv_uncurry" xlink:title="equiv_uncurry">
<ellipse fill="#f070d1" stroke="black" cx="2599" cy="-1204.91" rx="77.2" ry="18"/>
<ellipse fill="none" stroke="black" cx="2599" cy="-1204.91" rx="81.19" ry="22"/>
<ellipse fill="none" stroke="black" cx="2599" cy="-1204.91" rx="85.19" ry="26"/>
<text text-anchor="middle" x="2599" y="-1201.21" font-family="Times,serif" font-size="14.00">equiv_uncurry</text>
</a>
</g>
</g>
<!-- Prod_equiv_prod_ind -->
<g id="node12" class="node">
<title>Prod_equiv_prod_ind</title>
<g id="a_node12"><a xlink:href="Prod.html#equiv_prod_ind" xlink:title="equiv_prod_ind">
<ellipse fill="#f070d1" stroke="black" cx="2597" cy="-1007.91" rx="81.49" ry="18"/>
<text text-anchor="middle" x="2597" y="-1004.21" font-family="Times,serif" font-size="14.00">equiv_prod_ind</text>
</a>
</g>
</g>
<!-- Prod_equiv_uncurry&#45;&gt;Prod_equiv_prod_ind -->
<g id="edge11" class="edge">
<title>Prod_equiv_uncurry&#45;&gt;Prod_equiv_prod_ind</title>
<path fill="none" stroke="black" d="M2598.74,-1178.82C2598.37,-1142.21 2597.67,-1074.41 2597.28,-1036.46"/>
<polygon fill="black" stroke="black" points="2600.78,-1036.12 2597.18,-1026.15 2593.78,-1036.19 2600.78,-1036.12"/>
</g>
<!-- Prod_isequiv_prod_ind -->
<g id="node13" class="node">
<title>Prod_isequiv_prod_ind</title>
<g id="a_node13"><a xlink:href="Prod.html#isequiv_prod_ind" xlink:title="isequiv_prod_ind">
<ellipse fill="#f070d1" stroke="black" cx="2595" cy="-810.91" rx="89.08" ry="18"/>
<text text-anchor="middle" x="2595" y="-807.21" font-family="Times,serif" font-size="14.00">isequiv_prod_ind</text>
</a>
</g>
</g>
<!-- Prod_equiv_prod_ind&#45;&gt;Prod_isequiv_prod_ind -->
<g id="edge12" class="edge">
<title>Prod_equiv_prod_ind&#45;&gt;Prod_isequiv_prod_ind</title>
<path fill="none" stroke="black" d="M2596.82,-989.61C2596.47,-955.64 2595.7,-880 2595.28,-839.22"/>
<polygon fill="black" stroke="black" points="2598.78,-839.14 2595.18,-829.18 2591.78,-839.21 2598.78,-839.14"/>
</g>
<!-- Prod_prod_ind -->
<g id="node47" class="node">
<title>Prod_prod_ind</title>
<g id="a_node47"><a xlink:href="Prod.html#prod_ind" xlink:title="prod_ind">
<ellipse fill="#f070d1" stroke="black" cx="2595" cy="-613.91" rx="51.19" ry="18"/>
<text text-anchor="middle" x="2595" y="-610.21" font-family="Times,serif" font-size="14.00">prod_ind</text>
</a>
</g>
</g>
<!-- Prod_isequiv_prod_ind&#45;&gt;Prod_prod_ind -->
<g id="edge13" class="edge">
<title>Prod_isequiv_prod_ind&#45;&gt;Prod_prod_ind</title>
<path fill="none" stroke="black" d="M2595,-792.61C2595,-758.64 2595,-683 2595,-642.22"/>
<polygon fill="black" stroke="black" points="2598.5,-642.18 2595,-632.18 2591.5,-642.18 2598.5,-642.18"/>
</g>
<!-- Prod_prod_unit_l -->
<g id="node14" class="node">
<title>Prod_prod_unit_l</title>
<g id="a_node14"><a xlink:href="Prod.html#prod_unit_l" xlink:title="prod_unit_l">
<ellipse fill="#f070d1" stroke="black" cx="1569" cy="-1204.91" rx="62.3" ry="18"/>
<ellipse fill="none" stroke="black" cx="1569" cy="-1204.91" rx="66.3" ry="22"/>
<ellipse fill="none" stroke="black" cx="1569" cy="-1204.91" rx="70.29" ry="26"/>
<text text-anchor="middle" x="1569" y="-1201.21" font-family="Times,serif" font-size="14.00">prod_unit_l</text>
</a>
</g>
</g>
<!-- Prod_prod_unit_r -->
<g id="node15" class="node">
<title>Prod_prod_unit_r</title>
<g id="a_node15"><a xlink:href="Prod.html#prod_unit_r" xlink:title="prod_unit_r">
<ellipse fill="#f070d1" stroke="black" cx="1409" cy="-1204.91" rx="63.87" ry="18"/>
<ellipse fill="none" stroke="black" cx="1409" cy="-1204.91" rx="67.88" ry="22"/>
<ellipse fill="none" stroke="black" cx="1409" cy="-1204.91" rx="71.89" ry="26"/>
<text text-anchor="middle" x="1409" y="-1201.21" font-family="Times,serif" font-size="14.00">prod_unit_r</text>
</a>
</g>
</g>
<!-- Prod_prod_empty_l -->
<g id="node16" class="node">
<title>Prod_prod_empty_l</title>
<g id="a_node16"><a xlink:href="Prod.html#prod_empty_l" xlink:title="prod_empty_l">
<ellipse fill="#f070d1" stroke="black" cx="1238" cy="-1204.91" rx="73.39" ry="18"/>
<ellipse fill="none" stroke="black" cx="1238" cy="-1204.91" rx="77.39" ry="22"/>
<ellipse fill="none" stroke="black" cx="1238" cy="-1204.91" rx="81.39" ry="26"/>
<text text-anchor="middle" x="1238" y="-1201.21" font-family="Times,serif" font-size="14.00">prod_empty_l</text>
</a>
</g>
</g>
<!-- Prod_prod_empty_r -->
<g id="node17" class="node">
<title>Prod_prod_empty_r</title>
<g id="a_node17"><a xlink:href="Prod.html#prod_empty_r" xlink:title="prod_empty_r">
<ellipse fill="#f070d1" stroke="black" cx="1056" cy="-1204.91" rx="74.96" ry="18"/>
<ellipse fill="none" stroke="black" cx="1056" cy="-1204.91" rx="78.98" ry="22"/>
<ellipse fill="none" stroke="black" cx="1056" cy="-1204.91" rx="82.99" ry="26"/>
<text text-anchor="middle" x="1056" y="-1201.21" font-family="Times,serif" font-size="14.00">prod_empty_r</text>
</a>
</g>
</g>
<!-- Prod_equiv_prod_assoc -->
<g id="node18" class="node">
<title>Prod_equiv_prod_assoc</title>
<g id="a_node18"><a xlink:href="Prod.html#equiv_prod_assoc" xlink:title="equiv_prod_assoc">
<ellipse fill="#f070d1" stroke="black" cx="856" cy="-1204.91" rx="91.77" ry="18"/>
<ellipse fill="none" stroke="black" cx="856" cy="-1204.91" rx="95.78" ry="22"/>
<ellipse fill="none" stroke="black" cx="856" cy="-1204.91" rx="99.78" ry="26"/>
<text text-anchor="middle" x="856" y="-1201.21" font-family="Times,serif" font-size="14.00">equiv_prod_assoc</text>
</a>
</g>
</g>
<!-- Prod_equiv_prod_symm -->
<g id="node19" class="node">
<title>Prod_equiv_prod_symm</title>
<g id="a_node19"><a xlink:href="Prod.html#equiv_prod_symm" xlink:title="equiv_prod_symm">
<ellipse fill="#f070d1" stroke="black" cx="636" cy="-1204.91" rx="94.46" ry="18"/>
<ellipse fill="none" stroke="black" cx="636" cy="-1204.91" rx="98.47" ry="22"/>
<ellipse fill="none" stroke="black" cx="636" cy="-1204.91" rx="102.48" ry="26"/>
<text text-anchor="middle" x="636" y="-1201.21" font-family="Times,serif" font-size="14.00">equiv_prod_symm</text>
</a>
</g>
</g>
<!-- Prod_iff_functor_prod -->
<g id="node20" class="node">
<title>Prod_iff_functor_prod</title>
<g id="a_node20"><a xlink:href="Prod.html#iff_functor_prod" xlink:title="iff_functor_prod">
<ellipse fill="#f070d1" stroke="black" cx="2371" cy="-416.91" rx="83.7" ry="18"/>
<ellipse fill="none" stroke="black" cx="2371" cy="-416.91" rx="87.69" ry="22"/>
<ellipse fill="none" stroke="black" cx="2371" cy="-416.91" rx="91.69" ry="26"/>
<text text-anchor="middle" x="2371" y="-413.21" font-family="Times,serif" font-size="14.00">iff_functor_prod</text>
</a>
</g>
</g>
<!-- Prod_iff_functor_prod&#45;&gt;Prod_functor_prod -->
<g id="edge14" class="edge">
<title>Prod_iff_functor_prod&#45;&gt;Prod_functor_prod</title>
<path fill="none" stroke="black" d="M2342.41,-391.9C2301.49,-357.55 2226.73,-294.78 2186.45,-260.96"/>
<polygon fill="black" stroke="black" points="2188.55,-258.15 2178.64,-254.4 2184.04,-263.51 2188.55,-258.15"/>
</g>
<!-- Prod_equiv_functor_prod_r -->
<g id="node21" class="node">
<title>Prod_equiv_functor_prod_r</title>
<g id="a_node21"><a xlink:href="Prod.html#equiv_functor_prod_r" xlink:title="equiv_functor_prod_r">
<ellipse fill="#f070d1" stroke="black" cx="1966" cy="-1007.91" rx="108.58" ry="18"/>
<ellipse fill="none" stroke="black" cx="1966" cy="-1007.91" rx="112.58" ry="22"/>
<ellipse fill="none" stroke="black" cx="1966" cy="-1007.91" rx="116.58" ry="26"/>
<text text-anchor="middle" x="1966" y="-1004.21" font-family="Times,serif" font-size="14.00">equiv_functor_prod_r</text>
</a>
</g>
</g>
<!-- Prod_equiv_functor_prod_ -->
<g id="node23" class="node">
<title>Prod_equiv_functor_prod_</title>
<g id="a_node23"><a xlink:href="Prod.html#equiv_functor_prod'" xlink:title="equiv_functor_prod&#39;">
<ellipse fill="#f070d1" stroke="black" cx="1910" cy="-810.91" rx="102.88" ry="18"/>
<text text-anchor="middle" x="1910" y="-807.21" font-family="Times,serif" font-size="14.00">equiv_functor_prod&#39;</text>
</a>
</g>
</g>
<!-- Prod_equiv_functor_prod_r&#45;&gt;Prod_equiv_functor_prod_ -->
<g id="edge15" class="edge">
<title>Prod_equiv_functor_prod_r&#45;&gt;Prod_equiv_functor_prod_</title>
<path fill="none" stroke="black" d="M1958.79,-981.82C1948.21,-944.96 1928.54,-876.48 1917.69,-838.68"/>
<polygon fill="black" stroke="black" points="1921,-837.54 1914.88,-828.89 1914.27,-839.47 1921,-837.54"/>
</g>
<!-- Prod_equiv_functor_prod_l -->
<g id="node22" class="node">
<title>Prod_equiv_functor_prod_l</title>
<g id="a_node22"><a xlink:href="Prod.html#equiv_functor_prod_l" xlink:title="equiv_functor_prod_l">
<ellipse fill="#f070d1" stroke="black" cx="1716" cy="-1007.91" rx="107.46" ry="18"/>
<ellipse fill="none" stroke="black" cx="1716" cy="-1007.91" rx="111.47" ry="22"/>
<ellipse fill="none" stroke="black" cx="1716" cy="-1007.91" rx="115.48" ry="26"/>
<text text-anchor="middle" x="1716" y="-1004.21" font-family="Times,serif" font-size="14.00">equiv_functor_prod_l</text>
</a>
</g>
</g>
<!-- Prod_equiv_functor_prod_l&#45;&gt;Prod_equiv_functor_prod_ -->
<g id="edge16" class="edge">
<title>Prod_equiv_functor_prod_l&#45;&gt;Prod_equiv_functor_prod_</title>
<path fill="none" stroke="black" d="M1740.57,-982.21C1777.98,-944.61 1848.78,-873.45 1885.9,-836.13"/>
<polygon fill="black" stroke="black" points="1888.72,-838.26 1893.29,-828.71 1883.76,-833.33 1888.72,-838.26"/>
</g>
<!-- Prod_isequiv_functor_prod -->
<g id="node25" class="node">
<title>Prod_isequiv_functor_prod</title>
<g id="a_node25"><a xlink:href="Prod.html#isequiv_functor_prod" xlink:title="isequiv_functor_prod">
<ellipse fill="#f070d1" stroke="black" cx="1798" cy="-613.91" rx="107.78" ry="18"/>
<text text-anchor="middle" x="1798" y="-610.21" font-family="Times,serif" font-size="14.00">isequiv_functor_prod</text>
</a>
</g>
</g>
<!-- Prod_equiv_functor_prod_&#45;&gt;Prod_isequiv_functor_prod -->
<g id="edge17" class="edge">
<title>Prod_equiv_functor_prod_&#45;&gt;Prod_isequiv_functor_prod</title>
<path fill="none" stroke="black" d="M1900.26,-792.95C1880.61,-758.73 1836.12,-681.27 1812.83,-640.74"/>
<polygon fill="black" stroke="black" points="1815.82,-638.9 1807.8,-631.97 1809.75,-642.39 1815.82,-638.9"/>
</g>
<!-- Prod_equiv_functor_prod -->
<g id="node24" class="node">
<title>Prod_equiv_functor_prod</title>
<g id="a_node24"><a xlink:href="Prod.html#equiv_functor_prod" xlink:title="equiv_functor_prod">
<ellipse fill="#f070d1" stroke="black" cx="1681" cy="-810.91" rx="100.18" ry="18"/>
<ellipse fill="none" stroke="black" cx="1681" cy="-810.91" rx="104.18" ry="22"/>
<ellipse fill="none" stroke="black" cx="1681" cy="-810.91" rx="108.18" ry="26"/>
<text text-anchor="middle" x="1681" y="-807.21" font-family="Times,serif" font-size="14.00">equiv_functor_prod</text>
</a>
</g>
</g>
<!-- Prod_equiv_functor_prod&#45;&gt;Prod_isequiv_functor_prod -->
<g id="edge18" class="edge">
<title>Prod_equiv_functor_prod&#45;&gt;Prod_isequiv_functor_prod</title>
<path fill="none" stroke="black" d="M1696.06,-784.82C1718.36,-747.64 1759.96,-678.3 1782.51,-640.72"/>
<polygon fill="black" stroke="black" points="1785.67,-642.27 1787.81,-631.89 1779.67,-638.66 1785.67,-642.27"/>
</g>
<!-- Prod_ap_functor_prod -->
<g id="node26" class="node">
<title>Prod_ap_functor_prod</title>
<g id="a_node26"><a xlink:href="Prod.html#ap_functor_prod" xlink:title="ap_functor_prod">
<ellipse fill="#f070d1" stroke="black" cx="1953" cy="-416.91" rx="85.59" ry="18"/>
<text text-anchor="middle" x="1953" y="-413.21" font-family="Times,serif" font-size="14.00">ap_functor_prod</text>
</a>
</g>
</g>
<!-- Prod_isequiv_functor_prod&#45;&gt;Prod_ap_functor_prod -->
<g id="edge19" class="edge">
<title>Prod_isequiv_functor_prod&#45;&gt;Prod_ap_functor_prod</title>
<path fill="none" stroke="black" d="M1811.48,-595.95C1838.92,-561.43 1901.34,-482.9 1933.32,-442.67"/>
<polygon fill="black" stroke="black" points="1936.17,-444.7 1939.66,-434.7 1930.7,-440.35 1936.17,-444.7"/>
</g>
<!-- Prod_isequiv_functor_prod&#45;&gt;Prod_path_prod_ -->
<g id="edge20" class="edge">
<title>Prod_isequiv_functor_prod&#45;&gt;Prod_path_prod_</title>
<path fill="none" stroke="black" d="M1737.84,-598.84C1623.7,-571.72 1368.23,-509.05 1157,-442.91 1149.22,-440.47 1141.02,-437.69 1133.09,-434.89"/>
<polygon fill="black" stroke="black" points="1134.2,-431.57 1123.61,-431.49 1131.84,-438.16 1134.2,-431.57"/>
</g>
<!-- Prod_eta_prod -->
<g id="node44" class="node">
<title>Prod_eta_prod</title>
<g id="a_node44"><a xlink:href="Prod.html#eta_prod" xlink:title="eta_prod">
<ellipse fill="#f070d1" stroke="black" cx="1798" cy="-416.91" rx="51.19" ry="18"/>
<text text-anchor="middle" x="1798" y="-413.21" font-family="Times,serif" font-size="14.00">eta_prod</text>
</a>
</g>
</g>
<!-- Prod_isequiv_functor_prod&#45;&gt;Prod_eta_prod -->
<g id="edge21" class="edge">
<title>Prod_isequiv_functor_prod&#45;&gt;Prod_eta_prod</title>
<path fill="none" stroke="black" d="M1798,-595.61C1798,-561.64 1798,-486 1798,-445.22"/>
<polygon fill="black" stroke="black" points="1801.5,-445.18 1798,-435.18 1794.5,-445.18 1801.5,-445.18"/>
</g>
<!-- Prod_ap_functor_prod&#45;&gt;Prod_functor_prod -->
<g id="edge22" class="edge">
<title>Prod_ap_functor_prod&#45;&gt;Prod_functor_prod</title>
<path fill="none" stroke="black" d="M1972.38,-399.16C2009.36,-367.21 2090.05,-297.49 2132.18,-261.09"/>
<polygon fill="black" stroke="black" points="2134.54,-263.67 2139.82,-254.48 2129.97,-258.37 2134.54,-263.67"/>
</g>
<!-- Prod_ap_functor_prod&#45;&gt;Prod_path_prod -->
<g id="edge23" class="edge">
<title>Prod_ap_functor_prod&#45;&gt;Prod_path_prod</title>
<path fill="none" stroke="black" d="M1901.76,-402.29C1887.59,-398.56 1872.21,-394.54 1858,-390.91 1650.64,-337.88 1403.33,-277.24 1296.06,-251.07"/>
<polygon fill="black" stroke="black" points="1296.67,-247.62 1286.12,-248.65 1295.01,-254.42 1296.67,-247.62"/>
</g>
<!-- Prod_transport_prod -->
<g id="node28" class="node">
<title>Prod_transport_prod</title>
<g id="a_node28"><a xlink:href="Prod.html#transport_prod" xlink:title="transport_prod">
<ellipse fill="#f070d1" stroke="black" cx="427" cy="-1204.91" rx="80.68" ry="18"/>
<ellipse fill="none" stroke="black" cx="427" cy="-1204.91" rx="84.68" ry="22"/>
<ellipse fill="none" stroke="black" cx="427" cy="-1204.91" rx="88.69" ry="26"/>
<text text-anchor="middle" x="427" y="-1201.21" font-family="Times,serif" font-size="14.00">transport_prod</text>
</a>
</g>
</g>
<!-- Prod_path_prod_V -->
<g id="node29" class="node">
<title>Prod_path_prod_V</title>
<g id="a_node29"><a xlink:href="Prod.html#path_prod_V" xlink:title="path_prod_V">
<ellipse fill="#f070d1" stroke="black" cx="1242" cy="-416.91" rx="68.46" ry="18"/>
<ellipse fill="none" stroke="black" cx="1242" cy="-416.91" rx="72.48" ry="22"/>
<ellipse fill="none" stroke="black" cx="1242" cy="-416.91" rx="76.49" ry="26"/>
<text text-anchor="middle" x="1242" y="-413.21" font-family="Times,serif" font-size="14.00">path_prod_V</text>
</a>
</g>
</g>
<!-- Prod_path_prod_V&#45;&gt;Prod_path_prod -->
<g id="edge24" class="edge">
<title>Prod_path_prod_V&#45;&gt;Prod_path_prod</title>
<path fill="none" stroke="black" d="M1242,-390.78C1242,-357.67 1242,-299.6 1242,-265.36"/>
<polygon fill="black" stroke="black" points="1245.5,-265.14 1242,-255.14 1238.5,-265.14 1245.5,-265.14"/>
</g>
<!-- Prod_path_prod_pp_p -->
<g id="node30" class="node">
<title>Prod_path_prod_pp_p</title>
<g id="a_node30"><a xlink:href="Prod.html#path_prod_pp_p" xlink:title="path_prod_pp_p">
<ellipse fill="#f070d1" stroke="black" cx="362" cy="-613.91" rx="83.7" ry="18"/>
<ellipse fill="none" stroke="black" cx="362" cy="-613.91" rx="87.69" ry="22"/>
<ellipse fill="none" stroke="black" cx="362" cy="-613.91" rx="91.69" ry="26"/>
<text text-anchor="middle" x="362" y="-610.21" font-family="Times,serif" font-size="14.00">path_prod_pp_p</text>
</a>
</g>
</g>
<!-- Prod_path_prod_pp -->
<g id="node31" class="node">
<title>Prod_path_prod_pp</title>
<g id="a_node31"><a xlink:href="Prod.html#path_prod_pp" xlink:title="path_prod_pp">
<ellipse fill="#f070d1" stroke="black" cx="362" cy="-416.91" rx="73.39" ry="18"/>
<text text-anchor="middle" x="362" y="-413.21" font-family="Times,serif" font-size="14.00">path_prod_pp</text>
</a>
</g>
</g>
<!-- Prod_path_prod_pp_p&#45;&gt;Prod_path_prod_pp -->
<g id="edge25" class="edge">
<title>Prod_path_prod_pp_p&#45;&gt;Prod_path_prod_pp</title>
<path fill="none" stroke="black" d="M362,-587.82C362,-551.21 362,-483.41 362,-445.46"/>
<polygon fill="black" stroke="black" points="365.5,-445.15 362,-435.15 358.5,-445.15 365.5,-445.15"/>
</g>
<!-- Prod_path_prod_pp&#45;&gt;Prod_path_prod -->
<g id="edge26" class="edge">
<title>Prod_path_prod_pp&#45;&gt;Prod_path_prod</title>
<path fill="none" stroke="black" d="M404.85,-402.09C417.68,-398.19 431.85,-394.14 445,-390.91 717.02,-324.02 1047.25,-268.74 1181.19,-247.39"/>
<polygon fill="black" stroke="black" points="1181.93,-250.82 1191.26,-245.79 1180.83,-243.9 1181.93,-250.82"/>
</g>
<!-- Prod_isequiv_path_prod -->
<g id="node33" class="node">
<title>Prod_isequiv_path_prod</title>
<g id="a_node33"><a xlink:href="Prod.html#isequiv_path_prod" xlink:title="isequiv_path_prod">
<ellipse fill="#f070d1" stroke="black" cx="919" cy="-613.91" rx="94.78" ry="18"/>
<text text-anchor="middle" x="919" y="-610.21" font-family="Times,serif" font-size="14.00">isequiv_path_prod</text>
</a>
</g>
</g>
<!-- Prod_equiv_path_prod&#45;&gt;Prod_isequiv_path_prod -->
<g id="edge27" class="edge">
<title>Prod_equiv_path_prod&#45;&gt;Prod_isequiv_path_prod</title>
<path fill="none" stroke="black" d="M1113.84,-793.28C1076.05,-758.69 988.84,-678.85 945.06,-638.77"/>
<polygon fill="black" stroke="black" points="947.16,-635.94 937.42,-631.77 942.43,-641.11 947.16,-635.94"/>
</g>
<!-- Prod_eta_path_prod -->
<g id="node38" class="node">
<title>Prod_eta_path_prod</title>
<g id="a_node38"><a xlink:href="Prod.html#eta_path_prod" xlink:title="eta_path_prod">
<ellipse fill="#f070d1" stroke="black" cx="934" cy="-416.91" rx="76.89" ry="18"/>
<text text-anchor="middle" x="934" y="-413.21" font-family="Times,serif" font-size="14.00">eta_path_prod</text>
</a>
</g>
</g>
<!-- Prod_isequiv_path_prod&#45;&gt;Prod_eta_path_prod -->
<g id="edge28" class="edge">
<title>Prod_isequiv_path_prod&#45;&gt;Prod_eta_path_prod</title>
<path fill="none" stroke="black" d="M920.33,-595.61C922.94,-561.64 928.76,-486 931.9,-445.22"/>
<polygon fill="black" stroke="black" points="935.39,-445.42 932.67,-435.18 928.42,-444.88 935.39,-445.42"/>
</g>
<!-- Prod_ap_snd_path_prod -->
<g id="node39" class="node">
<title>Prod_ap_snd_path_prod</title>
<g id="a_node39"><a xlink:href="Prod.html#ap_snd_path_prod" xlink:title="ap_snd_path_prod">
<ellipse fill="#f070d1" stroke="black" cx="548" cy="-416.91" rx="94.48" ry="18"/>
<text text-anchor="middle" x="548" y="-413.21" font-family="Times,serif" font-size="14.00">ap_snd_path_prod</text>
</a>
</g>
</g>
<!-- Prod_isequiv_path_prod&#45;&gt;Prod_ap_snd_path_prod -->
<g id="edge29" class="edge">
<title>Prod_isequiv_path_prod&#45;&gt;Prod_ap_snd_path_prod</title>
<path fill="none" stroke="black" d="M888.32,-596.79C821.4,-561.61 662.31,-477.99 587.8,-438.83"/>
<polygon fill="black" stroke="black" points="589.19,-435.61 578.71,-434.05 585.94,-441.8 589.19,-435.61"/>
</g>
<!-- Prod_ap_fst_path_prod -->
<g id="node40" class="node">
<title>Prod_ap_fst_path_prod</title>
<g id="a_node40"><a xlink:href="Prod.html#ap_fst_path_prod" xlink:title="ap_fst_path_prod">
<ellipse fill="#f070d1" stroke="black" cx="750" cy="-416.91" rx="89.88" ry="18"/>
<text text-anchor="middle" x="750" y="-413.21" font-family="Times,serif" font-size="14.00">ap_fst_path_prod</text>
</a>
</g>
</g>
<!-- Prod_isequiv_path_prod&#45;&gt;Prod_ap_fst_path_prod -->
<g id="edge30" class="edge">
<title>Prod_isequiv_path_prod&#45;&gt;Prod_ap_fst_path_prod</title>
<path fill="none" stroke="black" d="M904.3,-595.95C874.32,-561.36 806.04,-482.57 771.24,-442.42"/>
<polygon fill="black" stroke="black" points="773.74,-439.96 764.55,-434.7 768.45,-444.55 773.74,-439.96"/>
</g>
<!-- Prod_isequiv_path_prod&#45;&gt;Prod_path_prod_ -->
<g id="edge31" class="edge">
<title>Prod_isequiv_path_prod&#45;&gt;Prod_path_prod_</title>
<path fill="none" stroke="black" d="M933.7,-595.95C963.75,-561.27 1032.3,-482.18 1067.02,-442.12"/>
<polygon fill="black" stroke="black" points="1069.79,-444.27 1073.69,-434.42 1064.5,-439.69 1069.79,-444.27"/>
</g>
<!-- Prod_transport_path_prod_ -->
<g id="node34" class="node">
<title>Prod_transport_path_prod_</title>
<g id="a_node34"><a xlink:href="Prod.html#transport_path_prod'" xlink:title="transport_path_prod&#39;">
<ellipse fill="#f070d1" stroke="black" cx="1425" cy="-613.91" rx="108.58" ry="18"/>
<ellipse fill="none" stroke="black" cx="1425" cy="-613.91" rx="112.58" ry="22"/>
<ellipse fill="none" stroke="black" cx="1425" cy="-613.91" rx="116.58" ry="26"/>
<text text-anchor="middle" x="1425" y="-610.21" font-family="Times,serif" font-size="14.00">transport_path_prod&#39;</text>
</a>
</g>
</g>
<!-- Prod_transport_path_prod -->
<g id="node35" class="node">
<title>Prod_transport_path_prod</title>
<g id="a_node35"><a xlink:href="Prod.html#transport_path_prod" xlink:title="transport_path_prod">
<ellipse fill="#f070d1" stroke="black" cx="1623" cy="-416.91" rx="105.88" ry="18"/>
<text text-anchor="middle" x="1623" y="-413.21" font-family="Times,serif" font-size="14.00">transport_path_prod</text>
</a>
</g>
</g>
<!-- Prod_transport_path_prod_&#45;&gt;Prod_transport_path_prod -->
<g id="edge32" class="edge">
<title>Prod_transport_path_prod_&#45;&gt;Prod_transport_path_prod</title>
<path fill="none" stroke="black" d="M1450.08,-588.21C1488.26,-550.61 1560.52,-479.45 1598.41,-442.13"/>
<polygon fill="black" stroke="black" points="1601.28,-444.22 1605.95,-434.71 1596.37,-439.23 1601.28,-444.22"/>
</g>
<!-- Prod_transport_path_prod_&#45;&gt;Prod_path_prod_ -->
<g id="edge33" class="edge">
<title>Prod_transport_path_prod_&#45;&gt;Prod_path_prod_</title>
<path fill="none" stroke="black" d="M1384.35,-589.39C1317.61,-550.77 1185.94,-474.58 1123.05,-438.19"/>
<polygon fill="black" stroke="black" points="1124.69,-435.1 1114.29,-433.12 1121.19,-441.16 1124.69,-435.1"/>
</g>
<!-- Prod_transport_path_prod_uncurried -->
<g id="node36" class="node">
<title>Prod_transport_path_prod_uncurried</title>
<g id="a_node36"><a xlink:href="Prod.html#transport_path_prod_uncurried" xlink:title="transport_path_prod_uncurried">
<ellipse fill="#f070d1" stroke="black" cx="1548" cy="-236.91" rx="155.17" ry="18"/>
<text text-anchor="middle" x="1548" y="-233.21" font-family="Times,serif" font-size="14.00">transport_path_prod_uncurried</text>
</a>
</g>
</g>
<!-- Prod_transport_path_prod&#45;&gt;Prod_transport_path_prod_uncurried -->
<g id="edge34" class="edge">
<title>Prod_transport_path_prod&#45;&gt;Prod_transport_path_prod_uncurried</title>
<path fill="none" stroke="black" d="M1615.81,-398.84C1602.71,-367.74 1574.85,-301.64 1559.23,-264.56"/>
<polygon fill="black" stroke="black" points="1562.28,-262.78 1555.17,-254.93 1555.83,-265.5 1562.28,-262.78"/>
</g>
<!-- Prod_transport_path_prod&#45;&gt;Prod_path_prod -->
<g id="edge35" class="edge">
<title>Prod_transport_path_prod&#45;&gt;Prod_path_prod</title>
<path fill="none" stroke="black" d="M1588.52,-399.8C1517.81,-366.77 1356.77,-291.53 1281.79,-256.5"/>
<polygon fill="black" stroke="black" points="1283.19,-253.29 1272.65,-252.23 1280.23,-259.63 1283.19,-253.29"/>
</g>
<!-- Prod_path_prod_uncurried -->
<g id="node43" class="node">
<title>Prod_path_prod_uncurried</title>
<g id="a_node43"><a xlink:href="Prod.html#path_prod_uncurried" xlink:title="path_prod_uncurried">
<ellipse fill="#f070d1" stroke="black" cx="1395" cy="-75.91" rx="107.48" ry="18"/>
<text text-anchor="middle" x="1395" y="-72.21" font-family="Times,serif" font-size="14.00">path_prod_uncurried</text>
</a>
</g>
</g>
<!-- Prod_transport_path_prod_uncurried&#45;&gt;Prod_path_prod_uncurried -->
<g id="edge36" class="edge">
<title>Prod_transport_path_prod_uncurried&#45;&gt;Prod_path_prod_uncurried</title>
<path fill="none" stroke="black" d="M1531.63,-218.89C1504.36,-190.56 1449.58,-133.63 1418.3,-101.12"/>
<polygon fill="black" stroke="black" points="1420.71,-98.58 1411.26,-93.8 1415.67,-103.44 1420.71,-98.58"/>
</g>
<!-- Prod_ap_path_prod -->
<g id="node37" class="node">
<title>Prod_ap_path_prod</title>
<g id="a_node37"><a xlink:href="Prod.html#ap_path_prod" xlink:title="ap_path_prod">
<ellipse fill="#f070d1" stroke="black" cx="1418" cy="-416.91" rx="73.39" ry="18"/>
<ellipse fill="none" stroke="black" cx="1418" cy="-416.91" rx="77.39" ry="22"/>
<ellipse fill="none" stroke="black" cx="1418" cy="-416.91" rx="81.39" ry="26"/>
<text text-anchor="middle" x="1418" y="-413.21" font-family="Times,serif" font-size="14.00">ap_path_prod</text>
</a>
</g>
</g>
<!-- Prod_ap_path_prod&#45;&gt;Prod_path_prod -->
<g id="edge37" class="edge">
<title>Prod_ap_path_prod&#45;&gt;Prod_path_prod</title>
<path fill="none" stroke="black" d="M1394.26,-391.9C1360.59,-357.85 1299.32,-295.88 1265.68,-261.86"/>
<polygon fill="black" stroke="black" points="1268.07,-259.29 1258.55,-254.64 1263.09,-264.22 1268.07,-259.29"/>
</g>
<!-- Prod_eta_path_prod&#45;&gt;Prod_path_prod -->
<g id="edge38" class="edge">
<title>Prod_eta_path_prod&#45;&gt;Prod_path_prod</title>
<path fill="none" stroke="black" d="M961.6,-399.96C1017.64,-367.57 1144.67,-294.16 1206.65,-258.34"/>
<polygon fill="black" stroke="black" points="1208.76,-261.16 1215.66,-253.13 1205.25,-255.1 1208.76,-261.16"/>
</g>
<!-- Prod_ap_snd_path_prod&#45;&gt;Prod_path_prod -->
<g id="edge39" class="edge">
<title>Prod_ap_snd_path_prod&#45;&gt;Prod_path_prod</title>
<path fill="none" stroke="black" d="M601.88,-402.09C731.49,-368.85 1059.5,-284.72 1188.61,-251.6"/>
<polygon fill="black" stroke="black" points="1189.84,-254.9 1198.65,-249.03 1188.1,-248.12 1189.84,-254.9"/>
</g>
<!-- Prod_ap_fst_path_prod&#45;&gt;Prod_path_prod -->
<g id="edge40" class="edge">
<title>Prod_ap_fst_path_prod&#45;&gt;Prod_path_prod</title>
<path fill="none" stroke="black" d="M791.52,-400.89C882.93,-367.82 1100.95,-288.94 1196.18,-254.49"/>
<polygon fill="black" stroke="black" points="1197.61,-257.69 1205.82,-251 1195.23,-251.11 1197.61,-257.69"/>
</g>
<!-- Prod_path_prod_&#45;&gt;Prod_path_prod -->
<g id="edge41" class="edge">
<title>Prod_path_prod_&#45;&gt;Prod_path_prod</title>
<path fill="none" stroke="black" d="M1102.49,-399.16C1129.84,-367.54 1189.2,-298.94 1220.96,-262.23"/>
<polygon fill="black" stroke="black" points="1223.77,-264.33 1227.66,-254.48 1218.47,-259.75 1223.77,-264.33"/>
</g>
<!-- Prod_path_prod&#45;&gt;Prod_path_prod_uncurried -->
<g id="edge42" class="edge">
<title>Prod_path_prod&#45;&gt;Prod_path_prod_uncurried</title>
<path fill="none" stroke="black" d="M1257.8,-219.49C1284.8,-191.43 1339.96,-134.11 1371.49,-101.34"/>
<polygon fill="black" stroke="black" points="1374.19,-103.59 1378.6,-93.96 1369.14,-98.74 1374.19,-103.59"/>
</g>
<!-- Prod_pack_prod -->
<g id="node45" class="node">
<title>Prod_pack_prod</title>
<g id="a_node45"><a xlink:href="Prod.html#pack_prod" xlink:title="pack_prod">
<ellipse fill="#f070d1" stroke="black" cx="255" cy="-1204.91" rx="57.71" ry="18"/>
<ellipse fill="none" stroke="black" cx="255" cy="-1204.91" rx="61.7" ry="22"/>
<ellipse fill="none" stroke="black" cx="255" cy="-1204.91" rx="65.69" ry="26"/>
<text text-anchor="middle" x="255" y="-1201.21" font-family="Times,serif" font-size="14.00">pack_prod</text>
</a>
</g>
</g>
<!-- Prod_unpack_prod -->
<g id="node46" class="node">
<title>Prod_unpack_prod</title>
<g id="a_node46"><a xlink:href="Prod.html#unpack_prod" xlink:title="unpack_prod">
<ellipse fill="#f070d1" stroke="black" cx="94" cy="-1204.91" rx="69.58" ry="18"/>
<ellipse fill="none" stroke="black" cx="94" cy="-1204.91" rx="73.59" ry="22"/>
<ellipse fill="none" stroke="black" cx="94" cy="-1204.91" rx="77.59" ry="26"/>
<text text-anchor="middle" x="94" y="-1201.21" font-family="Times,serif" font-size="14.00">unpack_prod</text>
</a>
</g>
</g>
</g>
</svg>
