<?xml version="1.0" encoding="UTF-8" standalone="no"?>
<!DOCTYPE svg PUBLIC "-//W3C//DTD SVG 1.1//EN"
 "http://www.w3.org/Graphics/SVG/1.1/DTD/svg11.dtd">
<!-- Generated by graphviz version 2.43.0 (0)
 -->
<!-- Title: HoTT_WildCat_Opposite Pages: 1 -->
<svg width="1038pt" height="523pt"
 viewBox="0.00 0.00 1038.00 523.00" xmlns="http://www.w3.org/2000/svg" xmlns:xlink="http://www.w3.org/1999/xlink">
<g id="graph0" class="graph" transform="scale(1 1) rotate(0) translate(4 519)">
<title>HoTT_WildCat_Opposite</title>
<polygon fill="white" stroke="transparent" points="-4,4 -4,-519 1034,-519 1034,4 -4,4"/>
<g id="clust1" class="cluster">
<title>cluster_Opposite</title>
<polygon fill="#ffffc3" stroke="black" points="11.52,-8 11.52,-507 1018.48,-507 1018.48,-8 11.52,-8"/>
<text text-anchor="middle" x="51.52" y="-491.8" font-family="Times,serif" font-size="14.00">Opposite</text>
</g>
<!-- Opposite_isequivs_op -->
<g id="node1" class="node">
<title>Opposite_isequivs_op</title>
<g id="a_node1"><a xlink:href="Opposite.html#isequivs_op" xlink:title="isequivs_op">
<ellipse fill="#f070d1" stroke="black" cx="433.33" cy="-450" rx="64.21" ry="18"/>
<ellipse fill="none" stroke="black" cx="433.33" cy="-450" rx="68.2" ry="22"/>
<ellipse fill="none" stroke="black" cx="433.33" cy="-450" rx="72.19" ry="26"/>
<text text-anchor="middle" x="433.33" y="-446.3" font-family="Times,serif" font-size="14.00">isequivs_op</text>
</a>
</g>
</g>
<!-- Opposite_hasequivs_op -->
<g id="node2" class="node">
<title>Opposite_hasequivs_op</title>
<g id="a_node2"><a xlink:href="Opposite.html#hasequivs_op" xlink:title="hasequivs_op">
<ellipse fill="#f070d1" stroke="black" cx="433.33" cy="-362" rx="72.59" ry="18"/>
<text text-anchor="middle" x="433.33" y="-358.3" font-family="Times,serif" font-size="14.00">hasequivs_op</text>
</a>
</g>
</g>
<!-- Opposite_isequivs_op&#45;&gt;Opposite_hasequivs_op -->
<g id="edge1" class="edge">
<title>Opposite_isequivs_op&#45;&gt;Opposite_hasequivs_op</title>
<path fill="none" stroke="black" d="M433.33,-423.66C433.33,-413.11 433.33,-400.84 433.33,-390.1"/>
<polygon fill="black" stroke="black" points="436.83,-390 433.33,-380 429.83,-390 436.83,-390"/>
</g>
<!-- Opposite_is1cat_op -->
<g id="node10" class="node">
<title>Opposite_is1cat_op</title>
<g id="a_node10"><a xlink:href="Opposite.html#is1cat_op" xlink:title="is1cat_op">
<ellipse fill="#f070d1" stroke="black" cx="305.33" cy="-274" rx="53.89" ry="18"/>
<text text-anchor="middle" x="305.33" y="-270.3" font-family="Times,serif" font-size="14.00">is1cat_op</text>
</a>
</g>
</g>
<!-- Opposite_hasequivs_op&#45;&gt;Opposite_is1cat_op -->
<g id="edge2" class="edge">
<title>Opposite_hasequivs_op&#45;&gt;Opposite_is1cat_op</title>
<path fill="none" stroke="black" d="M409.25,-344.82C388.79,-331.08 359.27,-311.24 336.92,-296.23"/>
<polygon fill="black" stroke="black" points="338.69,-293.2 328.43,-290.52 334.78,-299.01 338.69,-293.2"/>
</g>
<!-- Opposite_is1nat_op -->
<g id="node3" class="node">
<title>Opposite_is1nat_op</title>
<g id="a_node3"><a xlink:href="Opposite.html#is1nat_op" xlink:title="is1nat_op">
<ellipse fill="#f070d1" stroke="black" cx="916.33" cy="-362" rx="55.46" ry="18"/>
<ellipse fill="none" stroke="black" cx="916.33" cy="-362" rx="59.48" ry="22"/>
<ellipse fill="none" stroke="black" cx="916.33" cy="-362" rx="63.49" ry="26"/>
<text text-anchor="middle" x="916.33" y="-358.3" font-family="Times,serif" font-size="14.00">is1nat_op</text>
</a>
</g>
</g>
<!-- Opposite_transformation_op -->
<g id="node4" class="node">
<title>Opposite_transformation_op</title>
<g id="a_node4"><a xlink:href="Opposite.html#transformation_op" xlink:title="transformation_op">
<ellipse fill="#f070d1" stroke="black" cx="868.33" cy="-186" rx="96.38" ry="18"/>
<text text-anchor="middle" x="868.33" y="-182.3" font-family="Times,serif" font-size="14.00">transformation_op</text>
</a>
</g>
</g>
<!-- Opposite_is1nat_op&#45;&gt;Opposite_transformation_op -->
<g id="edge3" class="edge">
<title>Opposite_is1nat_op&#45;&gt;Opposite_transformation_op</title>
<path fill="none" stroke="black" d="M909.45,-336.07C900.52,-303.68 884.97,-247.34 875.77,-213.97"/>
<polygon fill="black" stroke="black" points="879.05,-212.72 873.02,-204.01 872.31,-214.58 879.05,-212.72"/>
</g>
<!-- Opposite_is0functor_op -->
<g id="node6" class="node">
<title>Opposite_is0functor_op</title>
<g id="a_node6"><a xlink:href="Opposite.html#is0functor_op" xlink:title="is0functor_op">
<ellipse fill="#f070d1" stroke="black" cx="730.33" cy="-274" rx="73.39" ry="18"/>
<text text-anchor="middle" x="730.33" y="-270.3" font-family="Times,serif" font-size="14.00">is0functor_op</text>
</a>
</g>
</g>
<!-- Opposite_is1nat_op&#45;&gt;Opposite_is0functor_op -->
<g id="edge4" class="edge">
<title>Opposite_is1nat_op&#45;&gt;Opposite_is0functor_op</title>
<path fill="none" stroke="black" d="M875.51,-342.13C844.98,-328.01 803.36,-308.77 772.51,-294.5"/>
<polygon fill="black" stroke="black" points="773.85,-291.27 763.31,-290.25 770.92,-297.62 773.85,-291.27"/>
</g>
<!-- Opposite_is1nat_op&#45;&gt;Opposite_is1cat_op -->
<g id="edge5" class="edge">
<title>Opposite_is1nat_op&#45;&gt;Opposite_is1cat_op</title>
<path fill="none" stroke="black" d="M859.65,-350.34C832.92,-345.54 800.55,-340.05 771.33,-336 619.94,-315 580.41,-323.13 429.33,-300 406.09,-296.44 380.61,-291.49 358.82,-286.93"/>
<polygon fill="black" stroke="black" points="359.27,-283.45 348.76,-284.8 357.82,-290.3 359.27,-283.45"/>
</g>
<!-- Opposite_isgraph_op -->
<g id="node13" class="node">
<title>Opposite_isgraph_op</title>
<g id="a_node13"><a xlink:href="Opposite.html#isgraph_op" xlink:title="isgraph_op">
<ellipse fill="#f070d1" stroke="black" cx="570.33" cy="-106" rx="61.99" ry="18"/>
<text text-anchor="middle" x="570.33" y="-102.3" font-family="Times,serif" font-size="14.00">isgraph_op</text>
</a>
</g>
</g>
<!-- Opposite_transformation_op&#45;&gt;Opposite_isgraph_op -->
<g id="edge6" class="edge">
<title>Opposite_transformation_op&#45;&gt;Opposite_isgraph_op</title>
<path fill="none" stroke="black" d="M814.71,-170.97C760.91,-156.88 678.51,-135.32 624.51,-121.18"/>
<polygon fill="black" stroke="black" points="625.34,-117.78 614.78,-118.63 623.56,-124.55 625.34,-117.78"/>
</g>
<!-- Opposite_is1functor_op -->
<g id="node5" class="node">
<title>Opposite_is1functor_op</title>
<g id="a_node5"><a xlink:href="Opposite.html#is1functor_op" xlink:title="is1functor_op">
<ellipse fill="#f070d1" stroke="black" cx="681.33" cy="-362" rx="73.39" ry="18"/>
<ellipse fill="none" stroke="black" cx="681.33" cy="-362" rx="77.39" ry="22"/>
<ellipse fill="none" stroke="black" cx="681.33" cy="-362" rx="81.39" ry="26"/>
<text text-anchor="middle" x="681.33" y="-358.3" font-family="Times,serif" font-size="14.00">is1functor_op</text>
</a>
</g>
</g>
<!-- Opposite_is1functor_op&#45;&gt;Opposite_is0functor_op -->
<g id="edge7" class="edge">
<title>Opposite_is1functor_op&#45;&gt;Opposite_is0functor_op</title>
<path fill="none" stroke="black" d="M695.5,-336.13C701.82,-325.04 709.25,-311.99 715.63,-300.8"/>
<polygon fill="black" stroke="black" points="718.78,-302.34 720.69,-291.92 712.7,-298.88 718.78,-302.34"/>
</g>
<!-- Opposite_is1functor_op&#45;&gt;Opposite_is1cat_op -->
<g id="edge8" class="edge">
<title>Opposite_is1functor_op&#45;&gt;Opposite_is1cat_op</title>
<path fill="none" stroke="black" d="M616.26,-346.12C543.29,-329.43 426.32,-302.67 358.56,-287.18"/>
<polygon fill="black" stroke="black" points="359.06,-283.7 348.53,-284.88 357.5,-290.52 359.06,-283.7"/>
</g>
<!-- Opposite_is0functor_op&#45;&gt;Opposite_isgraph_op -->
<g id="edge9" class="edge">
<title>Opposite_is0functor_op&#45;&gt;Opposite_isgraph_op</title>
<path fill="none" stroke="black" d="M721.28,-255.75C708.31,-232.15 682.61,-189.38 652.33,-160 639.33,-147.39 622.9,-136.08 608.17,-127.17"/>
<polygon fill="black" stroke="black" points="609.66,-123.99 599.26,-121.95 606.12,-130.03 609.66,-123.99"/>
</g>
<!-- Opposite_op0gpd_fun -->
<g id="node7" class="node">
<title>Opposite_op0gpd_fun</title>
<g id="a_node7"><a xlink:href="Opposite.html#op0gpd_fun" xlink:title="op0gpd_fun">
<ellipse fill="#f070d1" stroke="black" cx="570.33" cy="-186" rx="64.99" ry="18"/>
<ellipse fill="none" stroke="black" cx="570.33" cy="-186" rx="68.99" ry="22"/>
<ellipse fill="none" stroke="black" cx="570.33" cy="-186" rx="72.99" ry="26"/>
<text text-anchor="middle" x="570.33" y="-182.3" font-family="Times,serif" font-size="14.00">op0gpd_fun</text>
</a>
</g>
</g>
<!-- Opposite_op0gpd_fun&#45;&gt;Opposite_isgraph_op -->
<g id="edge10" class="edge">
<title>Opposite_op0gpd_fun&#45;&gt;Opposite_isgraph_op</title>
<path fill="none" stroke="black" d="M570.33,-159.89C570.33,-151.84 570.33,-142.88 570.33,-134.66"/>
<polygon fill="black" stroke="black" points="573.83,-134.41 570.33,-124.41 566.83,-134.41 573.83,-134.41"/>
</g>
<!-- Opposite_is0gpd_op -->
<g id="node8" class="node">
<title>Opposite_is0gpd_op</title>
<g id="a_node8"><a xlink:href="Opposite.html#is0gpd_op" xlink:title="is0gpd_op">
<ellipse fill="#f070d1" stroke="black" cx="504.33" cy="-274" rx="57.71" ry="18"/>
<ellipse fill="none" stroke="black" cx="504.33" cy="-274" rx="61.7" ry="22"/>
<ellipse fill="none" stroke="black" cx="504.33" cy="-274" rx="65.69" ry="26"/>
<text text-anchor="middle" x="504.33" y="-270.3" font-family="Times,serif" font-size="14.00">is0gpd_op</text>
</a>
</g>
</g>
<!-- Opposite_is01cat_op -->
<g id="node12" class="node">
<title>Opposite_is01cat_op</title>
<g id="a_node12"><a xlink:href="Opposite.html#is01cat_op" xlink:title="is01cat_op">
<ellipse fill="#f070d1" stroke="black" cx="353.33" cy="-186" rx="59.59" ry="18"/>
<text text-anchor="middle" x="353.33" y="-182.3" font-family="Times,serif" font-size="14.00">is01cat_op</text>
</a>
</g>
</g>
<!-- Opposite_is0gpd_op&#45;&gt;Opposite_is01cat_op -->
<g id="edge11" class="edge">
<title>Opposite_is0gpd_op&#45;&gt;Opposite_is01cat_op</title>
<path fill="none" stroke="black" d="M467.78,-252.18C443.78,-238.52 412.56,-220.74 388.79,-207.2"/>
<polygon fill="black" stroke="black" points="390.5,-204.14 380.08,-202.24 387.04,-210.23 390.5,-204.14"/>
</g>
<!-- Opposite_is1cat_strong_op -->
<g id="node9" class="node">
<title>Opposite_is1cat_strong_op</title>
<g id="a_node9"><a xlink:href="Opposite.html#is1cat_strong_op" xlink:title="is1cat_strong_op">
<ellipse fill="#f070d1" stroke="black" cx="162.33" cy="-362" rx="89.08" ry="18"/>
<ellipse fill="none" stroke="black" cx="162.33" cy="-362" rx="93.08" ry="22"/>
<ellipse fill="none" stroke="black" cx="162.33" cy="-362" rx="97.08" ry="26"/>
<text text-anchor="middle" x="162.33" y="-358.3" font-family="Times,serif" font-size="14.00">is1cat_strong_op</text>
</a>
</g>
</g>
<!-- Opposite_is1cat_strong_op&#45;&gt;Opposite_is1cat_op -->
<g id="edge12" class="edge">
<title>Opposite_is1cat_strong_op&#45;&gt;Opposite_is1cat_op</title>
<path fill="none" stroke="black" d="M200.65,-337.95C222.8,-324.63 250.41,-308.03 271.71,-295.22"/>
<polygon fill="black" stroke="black" points="273.66,-298.13 280.42,-289.98 270.05,-292.13 273.66,-298.13"/>
</g>
<!-- Opposite_is2graph_op -->
<g id="node11" class="node">
<title>Opposite_is2graph_op</title>
<g id="a_node11"><a xlink:href="Opposite.html#is2graph_op" xlink:title="is2graph_op">
<ellipse fill="#f070d1" stroke="black" cx="144.33" cy="-186" rx="67.69" ry="18"/>
<text text-anchor="middle" x="144.33" y="-182.3" font-family="Times,serif" font-size="14.00">is2graph_op</text>
</a>
</g>
</g>
<!-- Opposite_is1cat_op&#45;&gt;Opposite_is2graph_op -->
<g id="edge13" class="edge">
<title>Opposite_is1cat_op&#45;&gt;Opposite_is2graph_op</title>
<path fill="none" stroke="black" d="M278.02,-258.41C251.71,-244.36 211.68,-222.97 182.28,-207.27"/>
<polygon fill="black" stroke="black" points="183.6,-204.01 173.13,-202.39 180.31,-210.19 183.6,-204.01"/>
</g>
<!-- Opposite_is1cat_op&#45;&gt;Opposite_is01cat_op -->
<g id="edge14" class="edge">
<title>Opposite_is1cat_op&#45;&gt;Opposite_is01cat_op</title>
<path fill="none" stroke="black" d="M314.81,-256.01C321.65,-243.76 331,-227 338.78,-213.06"/>
<polygon fill="black" stroke="black" points="342.05,-214.39 343.87,-203.96 335.94,-210.98 342.05,-214.39"/>
</g>
<!-- Opposite_is2graph_op&#45;&gt;Opposite_isgraph_op -->
<g id="edge15" class="edge">
<title>Opposite_is2graph_op&#45;&gt;Opposite_isgraph_op</title>
<path fill="none" stroke="black" d="M198.28,-175.12C277.8,-160.56 426.04,-133.42 509.38,-118.16"/>
<polygon fill="black" stroke="black" points="510.26,-121.56 519.47,-116.31 509,-114.67 510.26,-121.56"/>
</g>
<!-- Opposite_is01cat_op&#45;&gt;Opposite_isgraph_op -->
<g id="edge16" class="edge">
<title>Opposite_is01cat_op&#45;&gt;Opposite_isgraph_op</title>
<path fill="none" stroke="black" d="M390.14,-171.77C426.89,-158.56 483.51,-138.21 523.45,-123.85"/>
<polygon fill="black" stroke="black" points="524.75,-127.1 532.97,-120.43 522.38,-120.52 524.75,-127.1"/>
</g>
<!-- Opposite_op -->
<g id="node14" class="node">
<title>Opposite_op</title>
<g id="a_node14"><a xlink:href="Opposite.html#op" xlink:title="op">
<ellipse fill="#f070d1" stroke="black" cx="570.33" cy="-34" rx="27" ry="18"/>
<text text-anchor="middle" x="570.33" y="-30.3" font-family="Times,serif" font-size="14.00">op</text>
</a>
</g>
</g>
<!-- Opposite_isgraph_op&#45;&gt;Opposite_op -->
<g id="edge17" class="edge">
<title>Opposite_isgraph_op&#45;&gt;Opposite_op</title>
<path fill="none" stroke="black" d="M570.33,-87.7C570.33,-79.98 570.33,-70.71 570.33,-62.11"/>
<polygon fill="black" stroke="black" points="573.83,-62.1 570.33,-52.1 566.83,-62.1 573.83,-62.1"/>
</g>
</g>
</svg>
