<?xml version="1.0" encoding="UTF-8" standalone="no"?>
<!DOCTYPE svg PUBLIC "-//W3C//DTD SVG 1.1//EN"
 "http://www.w3.org/Graphics/SVG/1.1/DTD/svg11.dtd">
<!-- Generated by graphviz version 2.43.0 (0)
 -->
<!-- Title: HoTT_WildCat_EmptyCat Pages: 1 -->
<svg width="510pt" height="259pt"
 viewBox="0.00 0.00 510.00 259.00" xmlns="http://www.w3.org/2000/svg" xmlns:xlink="http://www.w3.org/1999/xlink">
<g id="graph0" class="graph" transform="scale(1 1) rotate(0) translate(4 255)">
<title>HoTT_WildCat_EmptyCat</title>
<polygon fill="white" stroke="transparent" points="-4,4 -4,-255 506,-255 506,4 -4,4"/>
<g id="clust1" class="cluster">
<title>cluster_EmptyCat</title>
<polygon fill="#ffffc3" stroke="black" points="10.65,-8 10.65,-243 491.35,-243 491.35,-8 10.65,-8"/>
<text text-anchor="middle" x="55.15" y="-227.8" font-family="Times,serif" font-size="14.00">EmptyCat</text>
</g>
<!-- EmptyCat_is1cat_empty -->
<g id="node1" class="node">
<title>EmptyCat_is1cat_empty</title>
<g id="a_node1"><a xlink:href="EmptyCat.html#is1cat_empty" xlink:title="is1cat_empty">
<ellipse fill="#f070d1" stroke="black" cx="373.84" cy="-186" rx="72.27" ry="18"/>
<ellipse fill="none" stroke="black" cx="373.84" cy="-186" rx="76.28" ry="22"/>
<ellipse fill="none" stroke="black" cx="373.84" cy="-186" rx="80.29" ry="26"/>
<text text-anchor="middle" x="373.84" y="-182.3" font-family="Times,serif" font-size="14.00">is1cat_empty</text>
</a>
</g>
</g>
<!-- EmptyCat_is01cat_empty -->
<g id="node3" class="node">
<title>EmptyCat_is01cat_empty</title>
<g id="a_node3"><a xlink:href="EmptyCat.html#is01cat_empty" xlink:title="is01cat_empty">
<ellipse fill="#f070d1" stroke="black" cx="252.84" cy="-106" rx="77.99" ry="18"/>
<text text-anchor="middle" x="252.84" y="-102.3" font-family="Times,serif" font-size="14.00">is01cat_empty</text>
</a>
</g>
</g>
<!-- EmptyCat_is1cat_empty&#45;&gt;EmptyCat_is01cat_empty -->
<g id="edge1" class="edge">
<title>EmptyCat_is1cat_empty&#45;&gt;EmptyCat_is01cat_empty</title>
<path fill="none" stroke="black" d="M338.84,-162.44C322.35,-151.81 302.76,-139.19 286.45,-128.67"/>
<polygon fill="black" stroke="black" points="288.07,-125.55 277.77,-123.07 284.28,-131.43 288.07,-125.55"/>
</g>
<!-- EmptyCat_is0gpd_empty -->
<g id="node2" class="node">
<title>EmptyCat_is0gpd_empty</title>
<g id="a_node2"><a xlink:href="EmptyCat.html#is0gpd_empty" xlink:title="is0gpd_empty">
<ellipse fill="#f070d1" stroke="black" cx="131.84" cy="-186" rx="75.3" ry="18"/>
<ellipse fill="none" stroke="black" cx="131.84" cy="-186" rx="79.29" ry="22"/>
<ellipse fill="none" stroke="black" cx="131.84" cy="-186" rx="83.29" ry="26"/>
<text text-anchor="middle" x="131.84" y="-182.3" font-family="Times,serif" font-size="14.00">is0gpd_empty</text>
</a>
</g>
</g>
<!-- EmptyCat_is0gpd_empty&#45;&gt;EmptyCat_is01cat_empty -->
<g id="edge2" class="edge">
<title>EmptyCat_is0gpd_empty&#45;&gt;EmptyCat_is01cat_empty</title>
<path fill="none" stroke="black" d="M167.16,-162.23C183.52,-151.68 202.87,-139.21 219.04,-128.78"/>
<polygon fill="black" stroke="black" points="221.15,-131.59 227.66,-123.23 217.36,-125.71 221.15,-131.59"/>
</g>
<!-- EmptyCat_isgraph_empty -->
<g id="node4" class="node">
<title>EmptyCat_isgraph_empty</title>
<g id="a_node4"><a xlink:href="EmptyCat.html#isgraph_empty" xlink:title="isgraph_empty">
<ellipse fill="#f070d1" stroke="black" cx="252.84" cy="-34" rx="79.09" ry="18"/>
<text text-anchor="middle" x="252.84" y="-30.3" font-family="Times,serif" font-size="14.00">isgraph_empty</text>
</a>
</g>
</g>
<!-- EmptyCat_is01cat_empty&#45;&gt;EmptyCat_isgraph_empty -->
<g id="edge3" class="edge">
<title>EmptyCat_is01cat_empty&#45;&gt;EmptyCat_isgraph_empty</title>
<path fill="none" stroke="black" d="M252.84,-87.7C252.84,-79.98 252.84,-70.71 252.84,-62.11"/>
<polygon fill="black" stroke="black" points="256.34,-62.1 252.84,-52.1 249.34,-62.1 256.34,-62.1"/>
</g>
</g>
</svg>
