<?xml version="1.0" encoding="UTF-8" standalone="no"?>
<!DOCTYPE svg PUBLIC "-//W3C//DTD SVG 1.1//EN"
 "http://www.w3.org/Graphics/SVG/1.1/DTD/svg11.dtd">
<!-- Generated by graphviz version 2.43.0 (0)
 -->
<!-- Title: HoTT_Homotopy_HSpace Pages: 1 -->
<svg width="1945pt" height="977pt"
 viewBox="0.00 0.00 1945.00 976.50" xmlns="http://www.w3.org/2000/svg" xmlns:xlink="http://www.w3.org/1999/xlink">
<g id="graph0" class="graph" transform="scale(1 1) rotate(0) translate(4 972.5)">
<title>HoTT_Homotopy_HSpace</title>
<polygon fill="white" stroke="transparent" points="-4,4 -4,-972.5 1941,-972.5 1941,4 -4,4"/>
<g id="clust1" class="cluster">
<title>cluster_HSpace</title>
<polygon fill="#ffffc3" stroke="black" points="8,-29.02 8,-939.48 1929,-939.48 1929,-29.02 8,-29.02"/>
<text text-anchor="middle" x="43.5" y="-924.28" font-family="Times,serif" font-size="14.00">HSpace</text>
</g>
<!-- HSpace_equiv_hspace_right_op -->
<g id="node1" class="node">
<title>HSpace_equiv_hspace_right_op</title>
<g id="a_node1"><a xlink:href="HSpace.html#equiv_hspace_right_op" xlink:title="equiv_hspace_right_op">
<ellipse fill="#f070d1" stroke="black" cx="1797" cy="-733.02" rx="115.87" ry="18"/>
<ellipse fill="none" stroke="black" cx="1797" cy="-733.02" rx="119.87" ry="22"/>
<ellipse fill="none" stroke="black" cx="1797" cy="-733.02" rx="123.88" ry="26"/>
<text text-anchor="middle" x="1797" y="-729.32" font-family="Times,serif" font-size="14.00">equiv_hspace_right_op</text>
</a>
</g>
</g>
<!-- HSpace_isequiv_hspace_right_op -->
<g id="node3" class="node">
<title>HSpace_isequiv_hspace_right_op</title>
<g id="a_node3"><a xlink:href="HSpace.html#isequiv_hspace_right_op" xlink:title="isequiv_hspace_right_op">
<ellipse fill="#f070d1" stroke="black" cx="1798" cy="-413.02" rx="123.48" ry="18"/>
<text text-anchor="middle" x="1798" y="-409.32" font-family="Times,serif" font-size="14.00">isequiv_hspace_right_op</text>
</a>
</g>
</g>
<!-- HSpace_equiv_hspace_right_op&#45;&gt;HSpace_isequiv_hspace_right_op -->
<g id="edge1" class="edge">
<title>HSpace_equiv_hspace_right_op&#45;&gt;HSpace_isequiv_hspace_right_op</title>
<path fill="none" stroke="black" d="M1797.08,-706.8C1797.26,-648.02 1797.72,-502.32 1797.91,-441.44"/>
<polygon fill="black" stroke="black" points="1801.41,-441.11 1797.95,-431.1 1794.41,-441.09 1801.41,-441.11"/>
</g>
<!-- HSpace_equiv_hspace_left_op -->
<g id="node2" class="node">
<title>HSpace_equiv_hspace_left_op</title>
<g id="a_node2"><a xlink:href="HSpace.html#equiv_hspace_left_op" xlink:title="equiv_hspace_left_op">
<ellipse fill="#f070d1" stroke="black" cx="1539" cy="-733.02" rx="108.58" ry="18"/>
<ellipse fill="none" stroke="black" cx="1539" cy="-733.02" rx="112.58" ry="22"/>
<ellipse fill="none" stroke="black" cx="1539" cy="-733.02" rx="116.58" ry="26"/>
<text text-anchor="middle" x="1539" y="-729.32" font-family="Times,serif" font-size="14.00">equiv_hspace_left_op</text>
</a>
</g>
</g>
<!-- HSpace_isequiv_hspace_left_op -->
<g id="node4" class="node">
<title>HSpace_isequiv_hspace_left_op</title>
<g id="a_node4"><a xlink:href="HSpace.html#isequiv_hspace_left_op" xlink:title="isequiv_hspace_left_op">
<ellipse fill="#f070d1" stroke="black" cx="1540" cy="-413.02" rx="116.18" ry="18"/>
<text text-anchor="middle" x="1540" y="-409.32" font-family="Times,serif" font-size="14.00">isequiv_hspace_left_op</text>
</a>
</g>
</g>
<!-- HSpace_equiv_hspace_left_op&#45;&gt;HSpace_isequiv_hspace_left_op -->
<g id="edge2" class="edge">
<title>HSpace_equiv_hspace_left_op&#45;&gt;HSpace_isequiv_hspace_left_op</title>
<path fill="none" stroke="black" d="M1539.08,-706.8C1539.26,-648.02 1539.72,-502.32 1539.91,-441.44"/>
<polygon fill="black" stroke="black" points="1543.41,-441.11 1539.95,-431.1 1536.41,-441.09 1543.41,-441.11"/>
</g>
<!-- HSpace_hspace_id -->
<g id="node5" class="node">
<title>HSpace_hspace_id</title>
<g id="a_node5"><a xlink:href="HSpace.html#hspace_id" xlink:title="hspace_id">
<ellipse fill="#f070d1" stroke="black" cx="1669" cy="-123.02" rx="55.79" ry="18"/>
<text text-anchor="middle" x="1669" y="-119.32" font-family="Times,serif" font-size="14.00">hspace_id</text>
</a>
</g>
</g>
<!-- HSpace_isequiv_hspace_right_op&#45;&gt;HSpace_hspace_id -->
<g id="edge3" class="edge">
<title>HSpace_isequiv_hspace_right_op&#45;&gt;HSpace_hspace_id</title>
<path fill="none" stroke="black" d="M1790.32,-394.87C1768.63,-346.44 1706.82,-208.45 1680.79,-150.33"/>
<polygon fill="black" stroke="black" points="1683.93,-148.78 1676.64,-141.08 1677.54,-151.64 1683.93,-148.78"/>
</g>
<!-- HSpace_IsHSpace -->
<g id="node15" class="node">
<title>HSpace_IsHSpace</title>
<g id="a_node15"><a xlink:href="HSpace.html#IsHSpace" xlink:title="IsHSpace">
<ellipse fill="#e2cdfa" stroke="black" cx="824" cy="-123.02" rx="54.69" ry="18"/>
<text text-anchor="middle" x="824" y="-119.32" font-family="Times,serif" font-size="14.00">IsHSpace</text>
</a>
</g>
</g>
<!-- HSpace_isequiv_hspace_right_op&#45;&gt;HSpace_IsHSpace -->
<g id="edge4" class="edge">
<title>HSpace_isequiv_hspace_right_op&#45;&gt;HSpace_IsHSpace</title>
<path fill="none" stroke="black" d="M1745.98,-396.64C1576.08,-346.4 1038.94,-187.57 873.19,-138.57"/>
<polygon fill="black" stroke="black" points="873.86,-135.11 863.28,-135.63 871.88,-141.83 873.86,-135.11"/>
</g>
<!-- HSpace_isequiv_hspace_left_op&#45;&gt;HSpace_hspace_id -->
<g id="edge5" class="edge">
<title>HSpace_isequiv_hspace_left_op&#45;&gt;HSpace_hspace_id</title>
<path fill="none" stroke="black" d="M1547.68,-394.87C1569.37,-346.44 1631.18,-208.45 1657.21,-150.33"/>
<polygon fill="black" stroke="black" points="1660.46,-151.64 1661.36,-141.08 1654.07,-148.78 1660.46,-151.64"/>
</g>
<!-- HSpace_isequiv_hspace_left_op&#45;&gt;HSpace_IsHSpace -->
<g id="edge6" class="edge">
<title>HSpace_isequiv_hspace_left_op&#45;&gt;HSpace_IsHSpace</title>
<path fill="none" stroke="black" d="M1500.23,-396.02C1375.94,-346.03 995.49,-193 866.95,-141.29"/>
<polygon fill="black" stroke="black" points="868.01,-137.95 857.42,-137.46 865.39,-144.44 868.01,-137.95"/>
</g>
<!-- HSpace_hspace_mon_unit -->
<g id="node6" class="node">
<title>HSpace_hspace_mon_unit</title>
<g id="a_node6"><a xlink:href="HSpace.html#hspace_mon_unit" xlink:title="hspace_mon_unit">
<ellipse fill="#f070d1" stroke="black" cx="1307" cy="-413.02" rx="90.2" ry="18"/>
<ellipse fill="none" stroke="black" cx="1307" cy="-413.02" rx="94.19" ry="22"/>
<ellipse fill="none" stroke="black" cx="1307" cy="-413.02" rx="98.18" ry="26"/>
<text text-anchor="middle" x="1307" y="-409.32" font-family="Times,serif" font-size="14.00">hspace_mon_unit</text>
</a>
</g>
</g>
<!-- HSpace_hspace_mon_unit&#45;&gt;HSpace_IsHSpace -->
<g id="edge7" class="edge">
<title>HSpace_hspace_mon_unit&#45;&gt;HSpace_IsHSpace</title>
<path fill="none" stroke="black" d="M1268.29,-388.94C1176.19,-334.02 945.21,-196.29 858.03,-144.31"/>
<polygon fill="black" stroke="black" points="859.7,-141.23 849.32,-139.12 856.12,-147.25 859.7,-141.23"/>
</g>
<!-- HSpace_hspace_right_identity -->
<g id="node7" class="node">
<title>HSpace_hspace_right_identity</title>
<g id="a_node7"><a xlink:href="HSpace.html#hspace_right_identity" xlink:title="hspace_right_identity">
<ellipse fill="#f070d1" stroke="black" cx="1072" cy="-413.02" rx="110.48" ry="18"/>
<ellipse fill="none" stroke="black" cx="1072" cy="-413.02" rx="114.48" ry="22"/>
<ellipse fill="none" stroke="black" cx="1072" cy="-413.02" rx="118.48" ry="26"/>
<text text-anchor="middle" x="1072" y="-409.32" font-family="Times,serif" font-size="14.00">hspace_right_identity</text>
</a>
</g>
</g>
<!-- HSpace_hspace_right_identity&#45;&gt;HSpace_IsHSpace -->
<g id="edge8" class="edge">
<title>HSpace_hspace_right_identity&#45;&gt;HSpace_IsHSpace</title>
<path fill="none" stroke="black" d="M1050.64,-387.21C1003.59,-332.58 891.5,-202.41 844.89,-148.28"/>
<polygon fill="black" stroke="black" points="847.42,-145.86 838.25,-140.56 842.12,-150.42 847.42,-145.86"/>
</g>
<!-- HSpace_hspace_left_identity -->
<g id="node8" class="node">
<title>HSpace_hspace_left_identity</title>
<g id="a_node8"><a xlink:href="HSpace.html#hspace_left_identity" xlink:title="hspace_left_identity">
<ellipse fill="#f070d1" stroke="black" cx="824" cy="-413.02" rx="103.19" ry="18"/>
<ellipse fill="none" stroke="black" cx="824" cy="-413.02" rx="107.19" ry="22"/>
<ellipse fill="none" stroke="black" cx="824" cy="-413.02" rx="111.18" ry="26"/>
<text text-anchor="middle" x="824" y="-409.32" font-family="Times,serif" font-size="14.00">hspace_left_identity</text>
</a>
</g>
</g>
<!-- HSpace_hspace_left_identity&#45;&gt;HSpace_IsHSpace -->
<g id="edge9" class="edge">
<title>HSpace_hspace_left_identity&#45;&gt;HSpace_IsHSpace</title>
<path fill="none" stroke="black" d="M824,-386.96C824,-333.21 824,-207.16 824,-151.39"/>
<polygon fill="black" stroke="black" points="827.5,-151.22 824,-141.22 820.5,-151.22 827.5,-151.22"/>
</g>
<!-- HSpace_hspace_op -->
<g id="node9" class="node">
<title>HSpace_hspace_op</title>
<g id="a_node9"><a xlink:href="HSpace.html#hspace_op" xlink:title="hspace_op">
<ellipse fill="#f070d1" stroke="black" cx="628" cy="-413.02" rx="58.49" ry="18"/>
<ellipse fill="none" stroke="black" cx="628" cy="-413.02" rx="62.49" ry="22"/>
<ellipse fill="none" stroke="black" cx="628" cy="-413.02" rx="66.49" ry="26"/>
<text text-anchor="middle" x="628" y="-409.32" font-family="Times,serif" font-size="14.00">hspace_op</text>
</a>
</g>
</g>
<!-- HSpace_hspace_op&#45;&gt;HSpace_IsHSpace -->
<g id="edge10" class="edge">
<title>HSpace_hspace_op&#45;&gt;HSpace_IsHSpace</title>
<path fill="none" stroke="black" d="M644.71,-387.46C681.54,-333.34 769.39,-204.26 806.73,-149.39"/>
<polygon fill="black" stroke="black" points="809.75,-151.18 812.48,-140.95 803.96,-147.24 809.75,-151.18"/>
</g>
<!-- HSpace_IsHSpace_sind -->
<g id="node10" class="node">
<title>HSpace_IsHSpace_sind</title>
<g id="a_node10"><a xlink:href="HSpace.html#IsHSpace_sind" xlink:title="IsHSpace_sind">
<ellipse fill="#f070d1" stroke="black" cx="103" cy="-413.02" rx="78.77" ry="18"/>
<ellipse fill="none" stroke="black" cx="103" cy="-413.02" rx="82.78" ry="22"/>
<ellipse fill="none" stroke="black" cx="103" cy="-413.02" rx="86.79" ry="26"/>
<text text-anchor="middle" x="103" y="-409.32" font-family="Times,serif" font-size="14.00">IsHSpace_sind</text>
</a>
</g>
</g>
<!-- HSpace_Build_IsHSpace -->
<g id="node14" class="node">
<title>HSpace_Build_IsHSpace</title>
<g id="a_node14"><a xlink:href="HSpace.html#Build_IsHSpace" xlink:title="Build_IsHSpace">
<ellipse fill="#7faaff" stroke="black" cx="289" cy="-123.02" rx="83.39" ry="18"/>
<text text-anchor="middle" x="289" y="-119.32" font-family="Times,serif" font-size="14.00">Build_IsHSpace</text>
</a>
</g>
</g>
<!-- HSpace_IsHSpace_sind&#45;&gt;HSpace_Build_IsHSpace -->
<g id="edge11" class="edge">
<title>HSpace_IsHSpace_sind&#45;&gt;HSpace_Build_IsHSpace</title>
<path fill="none" stroke="black" d="M119.02,-387.21C154.08,-332.93 237.29,-204.09 272.65,-149.34"/>
<polygon fill="black" stroke="black" points="275.61,-151.21 278.09,-140.91 269.73,-147.41 275.61,-151.21"/>
</g>
<!-- HSpace_IsHSpace_sind&#45;&gt;HSpace_IsHSpace -->
<g id="edge12" class="edge">
<title>HSpace_IsHSpace_sind&#45;&gt;HSpace_IsHSpace</title>
<path fill="none" stroke="black" d="M153.7,-391.77C288.81,-337.8 655.78,-191.22 781.26,-141.09"/>
<polygon fill="black" stroke="black" points="782.58,-144.33 790.56,-137.37 779.98,-137.83 782.58,-144.33"/>
</g>
<!-- HSpace_IsHSpace_rec -->
<g id="node11" class="node">
<title>HSpace_IsHSpace_rec</title>
<g id="a_node11"><a xlink:href="HSpace.html#IsHSpace_rec" xlink:title="IsHSpace_rec">
<ellipse fill="#f070d1" stroke="black" cx="466" cy="-733.02" rx="73.39" ry="18"/>
<ellipse fill="none" stroke="black" cx="466" cy="-733.02" rx="77.39" ry="22"/>
<ellipse fill="none" stroke="black" cx="466" cy="-733.02" rx="81.39" ry="26"/>
<text text-anchor="middle" x="466" y="-729.32" font-family="Times,serif" font-size="14.00">IsHSpace_rec</text>
</a>
</g>
</g>
<!-- HSpace_IsHSpace_rect -->
<g id="node13" class="node">
<title>HSpace_IsHSpace_rect</title>
<g id="a_node13"><a xlink:href="HSpace.html#IsHSpace_rect" xlink:title="IsHSpace_rect">
<ellipse fill="#f070d1" stroke="black" cx="466" cy="-413.02" rx="77.19" ry="18"/>
<text text-anchor="middle" x="466" y="-409.32" font-family="Times,serif" font-size="14.00">IsHSpace_rect</text>
</a>
</g>
</g>
<!-- HSpace_IsHSpace_rec&#45;&gt;HSpace_IsHSpace_rect -->
<g id="edge13" class="edge">
<title>HSpace_IsHSpace_rec&#45;&gt;HSpace_IsHSpace_rect</title>
<path fill="none" stroke="black" d="M466,-706.8C466,-648.02 466,-502.32 466,-441.44"/>
<polygon fill="black" stroke="black" points="469.5,-441.1 466,-431.1 462.5,-441.1 469.5,-441.1"/>
</g>
<!-- HSpace_IsHSpace_ind -->
<g id="node12" class="node">
<title>HSpace_IsHSpace_ind</title>
<g id="a_node12"><a xlink:href="HSpace.html#IsHSpace_ind" xlink:title="IsHSpace_ind">
<ellipse fill="#7fffd4" stroke="black" cx="289" cy="-413.02" rx="73.39" ry="18"/>
<ellipse fill="none" stroke="black" cx="289" cy="-413.02" rx="77.39" ry="22"/>
<ellipse fill="none" stroke="black" cx="289" cy="-413.02" rx="81.39" ry="26"/>
<text text-anchor="middle" x="289" y="-409.32" font-family="Times,serif" font-size="14.00">IsHSpace_ind</text>
</a>
</g>
</g>
<!-- HSpace_IsHSpace_ind&#45;&gt;HSpace_Build_IsHSpace -->
<g id="edge14" class="edge">
<title>HSpace_IsHSpace_ind&#45;&gt;HSpace_Build_IsHSpace</title>
<path fill="none" stroke="black" d="M289,-386.96C289,-333.21 289,-207.16 289,-151.39"/>
<polygon fill="black" stroke="black" points="292.5,-151.22 289,-141.22 285.5,-151.22 292.5,-151.22"/>
</g>
<!-- HSpace_IsHSpace_ind&#45;&gt;HSpace_IsHSpace -->
<g id="edge15" class="edge">
<title>HSpace_IsHSpace_ind&#45;&gt;HSpace_IsHSpace</title>
<path fill="none" stroke="black" d="M329.21,-390.37C429.87,-336.19 691.49,-195.35 787.76,-143.53"/>
<polygon fill="black" stroke="black" points="789.67,-146.47 796.81,-138.65 786.35,-140.31 789.67,-146.47"/>
</g>
<!-- HSpace_IsHSpace_rect&#45;&gt;HSpace_Build_IsHSpace -->
<g id="edge16" class="edge">
<title>HSpace_IsHSpace_rect&#45;&gt;HSpace_Build_IsHSpace</title>
<path fill="none" stroke="black" d="M455.46,-394.87C425.58,-346.24 340.19,-207.31 304.73,-149.62"/>
<polygon fill="black" stroke="black" points="307.7,-147.77 299.49,-141.08 301.74,-151.43 307.7,-147.77"/>
</g>
<!-- HSpace_IsHSpace_rect&#45;&gt;HSpace_IsHSpace -->
<g id="edge17" class="edge">
<title>HSpace_IsHSpace_rect&#45;&gt;HSpace_IsHSpace</title>
<path fill="none" stroke="black" d="M486.53,-395.5C547.35,-346.57 726.64,-202.34 796.08,-146.48"/>
<polygon fill="black" stroke="black" points="798.39,-149.11 803.99,-140.11 794.01,-143.66 798.39,-149.11"/>
</g>
</g>
</svg>
