<?xml version="1.0" encoding="UTF-8" standalone="no"?>
<!DOCTYPE svg PUBLIC "-//W3C//DTD SVG 1.1//EN"
 "http://www.w3.org/Graphics/SVG/1.1/DTD/svg11.dtd">
<!-- Generated by graphviz version 2.43.0 (0)
 -->
<!-- Title: HoTT_Spaces_Spheres Pages: 1 -->
<svg width="1324pt" height="666pt"
 viewBox="0.00 0.00 1324.00 666.00" xmlns="http://www.w3.org/2000/svg" xmlns:xlink="http://www.w3.org/1999/xlink">
<g id="graph0" class="graph" transform="scale(1 1) rotate(0) translate(4 662)">
<title>HoTT_Spaces_Spheres</title>
<polygon fill="white" stroke="transparent" points="-4,4 -4,-662 1320,-662 1320,4 -4,4"/>
<g id="clust1" class="cluster">
<title>cluster_Spheres</title>
<polygon fill="#ffffc3" stroke="black" points="8,-9.91 8,-648.09 1308,-648.09 1308,-9.91 8,-9.91"/>
<text text-anchor="middle" x="45.5" y="-632.89" font-family="Times,serif" font-size="14.00">Spheres</text>
</g>
<!-- Spheres_istrunc_allnullhomot -->
<g id="node1" class="node">
<title>Spheres_istrunc_allnullhomot</title>
<g id="a_node1"><a xlink:href="Spheres.html#istrunc_allnullhomot" xlink:title="istrunc_allnullhomot">
<ellipse fill="#f070d1" stroke="black" cx="654" cy="-249.91" rx="105.89" ry="18"/>
<ellipse fill="none" stroke="black" cx="654" cy="-249.91" rx="109.88" ry="22"/>
<ellipse fill="none" stroke="black" cx="654" cy="-249.91" rx="113.88" ry="26"/>
<text text-anchor="middle" x="654" y="-246.21" font-family="Times,serif" font-size="14.00">istrunc_allnullhomot</text>
</a>
</g>
</g>
<!-- Spheres_S0_to_Bool -->
<g id="node20" class="node">
<title>Spheres_S0_to_Bool</title>
<g id="a_node20"><a xlink:href="Spheres.html#S0_to_Bool" xlink:title="S0_to_Bool">
<ellipse fill="#f070d1" stroke="black" cx="404" cy="-140.91" rx="61.99" ry="18"/>
<text text-anchor="middle" x="404" y="-137.21" font-family="Times,serif" font-size="14.00">S0_to_Bool</text>
</a>
</g>
</g>
<!-- Spheres_istrunc_allnullhomot&#45;&gt;Spheres_S0_to_Bool -->
<g id="edge1" class="edge">
<title>Spheres_istrunc_allnullhomot&#45;&gt;Spheres_S0_to_Bool</title>
<path fill="none" stroke="black" d="M602.2,-226.74C556.19,-207.05 489.76,-178.62 446.73,-160.2"/>
<polygon fill="black" stroke="black" points="447.96,-156.92 437.39,-156.2 445.2,-163.36 447.96,-156.92"/>
</g>
<!-- Spheres_allnullhomot_trunc -->
<g id="node2" class="node">
<title>Spheres_allnullhomot_trunc</title>
<g id="a_node2"><a xlink:href="Spheres.html#allnullhomot_trunc" xlink:title="allnullhomot_trunc">
<ellipse fill="#f070d1" stroke="black" cx="1194" cy="-140.91" rx="98.27" ry="18"/>
<ellipse fill="none" stroke="black" cx="1194" cy="-140.91" rx="102.28" ry="22"/>
<ellipse fill="none" stroke="black" cx="1194" cy="-140.91" rx="106.28" ry="26"/>
<text text-anchor="middle" x="1194" y="-137.21" font-family="Times,serif" font-size="14.00">allnullhomot_trunc</text>
</a>
</g>
</g>
<!-- Spheres_Sphere -->
<g id="node22" class="node">
<title>Spheres_Sphere</title>
<g id="a_node22"><a xlink:href="Spheres.html#Sphere" xlink:title="Sphere">
<ellipse fill="#f070d1" stroke="black" cx="577" cy="-41.91" rx="44.39" ry="18"/>
<text text-anchor="middle" x="577" y="-38.21" font-family="Times,serif" font-size="14.00">Sphere</text>
</a>
</g>
</g>
<!-- Spheres_allnullhomot_trunc&#45;&gt;Spheres_Sphere -->
<g id="edge2" class="edge">
<title>Spheres_allnullhomot_trunc&#45;&gt;Spheres_Sphere</title>
<path fill="none" stroke="black" d="M1118.38,-122.67C1105.28,-119.91 1091.77,-117.21 1079,-114.91 915.47,-85.45 720.22,-60.3 628.9,-49.11"/>
<polygon fill="black" stroke="black" points="629.16,-45.62 618.81,-47.88 628.32,-52.57 629.16,-45.62"/>
</g>
<!-- Spheres_isconnected_sn -->
<g id="node3" class="node">
<title>Spheres_isconnected_sn</title>
<g id="a_node3"><a xlink:href="Spheres.html#isconnected_sn" xlink:title="isconnected_sn">
<ellipse fill="#f070d1" stroke="black" cx="981" cy="-140.91" rx="81.46" ry="18"/>
<ellipse fill="none" stroke="black" cx="981" cy="-140.91" rx="85.48" ry="22"/>
<ellipse fill="none" stroke="black" cx="981" cy="-140.91" rx="89.49" ry="26"/>
<text text-anchor="middle" x="981" y="-137.21" font-family="Times,serif" font-size="14.00">isconnected_sn</text>
</a>
</g>
</g>
<!-- Spheres_isconnected_sn&#45;&gt;Spheres_Sphere -->
<g id="edge3" class="edge">
<title>Spheres_isconnected_sn&#45;&gt;Spheres_Sphere</title>
<path fill="none" stroke="black" d="M915.68,-123.07C904.77,-120.31 893.57,-117.51 883,-114.91 791.8,-92.55 684.98,-67.73 624.72,-53.85"/>
<polygon fill="black" stroke="black" points="625.27,-50.39 614.74,-51.55 623.7,-57.21 625.27,-50.39"/>
</g>
<!-- Spheres_istrunc_s1 -->
<g id="node4" class="node">
<title>Spheres_istrunc_s1</title>
<g id="a_node4"><a xlink:href="Spheres.html#istrunc_s1" xlink:title="istrunc_s1">
<ellipse fill="#f070d1" stroke="black" cx="603" cy="-467.91" rx="58.49" ry="18"/>
<ellipse fill="none" stroke="black" cx="603" cy="-467.91" rx="62.49" ry="22"/>
<ellipse fill="none" stroke="black" cx="603" cy="-467.91" rx="66.49" ry="26"/>
<text text-anchor="middle" x="603" y="-464.21" font-family="Times,serif" font-size="14.00">istrunc_s1</text>
</a>
</g>
</g>
<!-- Spheres_isequiv_S1_to_Circle -->
<g id="node14" class="node">
<title>Spheres_isequiv_S1_to_Circle</title>
<g id="a_node14"><a xlink:href="Spheres.html#isequiv_S1_to_Circle" xlink:title="isequiv_S1_to_Circle">
<ellipse fill="#f070d1" stroke="black" cx="461" cy="-358.91" rx="105.88" ry="18"/>
<text text-anchor="middle" x="461" y="-355.21" font-family="Times,serif" font-size="14.00">isequiv_S1_to_Circle</text>
</a>
</g>
</g>
<!-- Spheres_istrunc_s1&#45;&gt;Spheres_isequiv_S1_to_Circle -->
<g id="edge4" class="edge">
<title>Spheres_istrunc_s1&#45;&gt;Spheres_isequiv_S1_to_Circle</title>
<path fill="none" stroke="black" d="M573.23,-444.48C549.23,-426.39 515.59,-401.05 491.42,-382.83"/>
<polygon fill="black" stroke="black" points="493.38,-379.93 483.29,-376.71 489.17,-385.52 493.38,-379.93"/>
</g>
<!-- Spheres_istrunc_s0 -->
<g id="node5" class="node">
<title>Spheres_istrunc_s0</title>
<g id="a_node5"><a xlink:href="Spheres.html#istrunc_s0" xlink:title="istrunc_s0">
<ellipse fill="#f070d1" stroke="black" cx="271" cy="-358.91" rx="58.49" ry="18"/>
<ellipse fill="none" stroke="black" cx="271" cy="-358.91" rx="62.49" ry="22"/>
<ellipse fill="none" stroke="black" cx="271" cy="-358.91" rx="66.49" ry="26"/>
<text text-anchor="middle" x="271" y="-355.21" font-family="Times,serif" font-size="14.00">istrunc_s0</text>
</a>
</g>
</g>
<!-- Spheres_isequiv_S0_to_Bool -->
<g id="node18" class="node">
<title>Spheres_isequiv_S0_to_Bool</title>
<g id="a_node18"><a xlink:href="Spheres.html#isequiv_S0_to_Bool" xlink:title="isequiv_S0_to_Bool">
<ellipse fill="#f070d1" stroke="black" cx="115" cy="-249.91" rx="98.58" ry="18"/>
<text text-anchor="middle" x="115" y="-246.21" font-family="Times,serif" font-size="14.00">isequiv_S0_to_Bool</text>
</a>
</g>
</g>
<!-- Spheres_istrunc_s0&#45;&gt;Spheres_isequiv_S0_to_Bool -->
<g id="edge5" class="edge">
<title>Spheres_istrunc_s0&#45;&gt;Spheres_isequiv_S0_to_Bool</title>
<path fill="none" stroke="black" d="M239.05,-336C212.35,-317.69 174.42,-291.67 147.55,-273.24"/>
<polygon fill="black" stroke="black" points="149.47,-270.31 139.24,-267.54 145.51,-276.08 149.47,-270.31"/>
</g>
<!-- Spheres_equiv_S2_TwoSphere -->
<g id="node6" class="node">
<title>Spheres_equiv_S2_TwoSphere</title>
<g id="a_node6"><a xlink:href="Spheres.html#equiv_S2_TwoSphere" xlink:title="equiv_S2_TwoSphere">
<ellipse fill="#f070d1" stroke="black" cx="1039" cy="-467.91" rx="109.37" ry="18"/>
<ellipse fill="none" stroke="black" cx="1039" cy="-467.91" rx="113.37" ry="22"/>
<ellipse fill="none" stroke="black" cx="1039" cy="-467.91" rx="117.38" ry="26"/>
<text text-anchor="middle" x="1039" y="-464.21" font-family="Times,serif" font-size="14.00">equiv_S2_TwoSphere</text>
</a>
</g>
</g>
<!-- Spheres_isequiv_S2_to_TwoSphere -->
<g id="node7" class="node">
<title>Spheres_isequiv_S2_to_TwoSphere</title>
<g id="a_node7"><a xlink:href="Spheres.html#isequiv_S2_to_TwoSphere" xlink:title="isequiv_S2_to_TwoSphere">
<ellipse fill="#f070d1" stroke="black" cx="1039" cy="-358.91" rx="130.78" ry="18"/>
<text text-anchor="middle" x="1039" y="-355.21" font-family="Times,serif" font-size="14.00">isequiv_S2_to_TwoSphere</text>
</a>
</g>
</g>
<!-- Spheres_equiv_S2_TwoSphere&#45;&gt;Spheres_isequiv_S2_to_TwoSphere -->
<g id="edge6" class="edge">
<title>Spheres_equiv_S2_TwoSphere&#45;&gt;Spheres_isequiv_S2_to_TwoSphere</title>
<path fill="none" stroke="black" d="M1039,-441.83C1039,-425.51 1039,-404.23 1039,-387.45"/>
<polygon fill="black" stroke="black" points="1042.5,-387.17 1039,-377.17 1035.5,-387.17 1042.5,-387.17"/>
</g>
<!-- Spheres_issect_S2_to_TwoSphere -->
<g id="node8" class="node">
<title>Spheres_issect_S2_to_TwoSphere</title>
<g id="a_node8"><a xlink:href="Spheres.html#issect_S2_to_TwoSphere" xlink:title="issect_S2_to_TwoSphere">
<ellipse fill="#f070d1" stroke="black" cx="910" cy="-249.91" rx="124.28" ry="18"/>
<text text-anchor="middle" x="910" y="-246.21" font-family="Times,serif" font-size="14.00">issect_S2_to_TwoSphere</text>
</a>
</g>
</g>
<!-- Spheres_isequiv_S2_to_TwoSphere&#45;&gt;Spheres_issect_S2_to_TwoSphere -->
<g id="edge7" class="edge">
<title>Spheres_isequiv_S2_to_TwoSphere&#45;&gt;Spheres_issect_S2_to_TwoSphere</title>
<path fill="none" stroke="black" d="M1018.56,-340.96C996.86,-322.96 962.41,-294.38 938.15,-274.26"/>
<polygon fill="black" stroke="black" points="940.28,-271.48 930.34,-267.79 935.81,-276.87 940.28,-271.48"/>
</g>
<!-- Spheres_issect_TwoSphere_to_S2 -->
<g id="node9" class="node">
<title>Spheres_issect_TwoSphere_to_S2</title>
<g id="a_node9"><a xlink:href="Spheres.html#issect_TwoSphere_to_S2" xlink:title="issect_TwoSphere_to_S2">
<ellipse fill="#f070d1" stroke="black" cx="1176" cy="-249.91" rx="124.28" ry="18"/>
<text text-anchor="middle" x="1176" y="-246.21" font-family="Times,serif" font-size="14.00">issect_TwoSphere_to_S2</text>
</a>
</g>
</g>
<!-- Spheres_isequiv_S2_to_TwoSphere&#45;&gt;Spheres_issect_TwoSphere_to_S2 -->
<g id="edge8" class="edge">
<title>Spheres_isequiv_S2_to_TwoSphere&#45;&gt;Spheres_issect_TwoSphere_to_S2</title>
<path fill="none" stroke="black" d="M1060.71,-340.96C1083.86,-322.88 1120.66,-294.14 1146.44,-274"/>
<polygon fill="black" stroke="black" points="1148.67,-276.7 1154.39,-267.79 1144.36,-271.19 1148.67,-276.7"/>
</g>
<!-- Spheres_TwoSphere_to_S2 -->
<g id="node10" class="node">
<title>Spheres_TwoSphere_to_S2</title>
<g id="a_node10"><a xlink:href="Spheres.html#TwoSphere_to_S2" xlink:title="TwoSphere_to_S2">
<ellipse fill="#f070d1" stroke="black" cx="781" cy="-140.91" rx="92.88" ry="18"/>
<text text-anchor="middle" x="781" y="-137.21" font-family="Times,serif" font-size="14.00">TwoSphere_to_S2</text>
</a>
</g>
</g>
<!-- Spheres_issect_S2_to_TwoSphere&#45;&gt;Spheres_TwoSphere_to_S2 -->
<g id="edge9" class="edge">
<title>Spheres_issect_S2_to_TwoSphere&#45;&gt;Spheres_TwoSphere_to_S2</title>
<path fill="none" stroke="black" d="M889.56,-231.96C867.86,-213.96 833.41,-185.38 809.15,-165.26"/>
<polygon fill="black" stroke="black" points="811.28,-162.48 801.34,-158.79 806.81,-167.87 811.28,-162.48"/>
</g>
<!-- Spheres_S2_to_TwoSphere -->
<g id="node11" class="node">
<title>Spheres_S2_to_TwoSphere</title>
<g id="a_node11"><a xlink:href="Spheres.html#S2_to_TwoSphere" xlink:title="S2_to_TwoSphere">
<ellipse fill="#f070d1" stroke="black" cx="577" cy="-140.91" rx="92.88" ry="18"/>
<text text-anchor="middle" x="577" y="-137.21" font-family="Times,serif" font-size="14.00">S2_to_TwoSphere</text>
</a>
</g>
</g>
<!-- Spheres_issect_S2_to_TwoSphere&#45;&gt;Spheres_S2_to_TwoSphere -->
<g id="edge10" class="edge">
<title>Spheres_issect_S2_to_TwoSphere&#45;&gt;Spheres_S2_to_TwoSphere</title>
<path fill="none" stroke="black" d="M861.22,-233.24C800.35,-213.68 696.49,-180.31 632.59,-159.78"/>
<polygon fill="black" stroke="black" points="633.29,-156.32 622.69,-156.6 631.14,-162.99 633.29,-156.32"/>
</g>
<!-- Spheres_issect_TwoSphere_to_S2&#45;&gt;Spheres_TwoSphere_to_S2 -->
<g id="edge11" class="edge">
<title>Spheres_issect_TwoSphere_to_S2&#45;&gt;Spheres_TwoSphere_to_S2</title>
<path fill="none" stroke="black" d="M1120.24,-233.81C1046.98,-213.96 918.7,-179.21 842.62,-158.61"/>
<polygon fill="black" stroke="black" points="843.27,-155.16 832.7,-155.92 841.44,-161.91 843.27,-155.16"/>
</g>
<!-- Spheres_issect_TwoSphere_to_S2&#45;&gt;Spheres_S2_to_TwoSphere -->
<g id="edge12" class="edge">
<title>Spheres_issect_TwoSphere_to_S2&#45;&gt;Spheres_S2_to_TwoSphere</title>
<path fill="none" stroke="black" d="M1104.98,-235.15C1084.96,-231.38 1063.14,-227.38 1043,-223.91 881.63,-196.12 839.55,-199.1 679,-166.91 666.18,-164.34 652.54,-161.25 639.54,-158.13"/>
<polygon fill="black" stroke="black" points="640.29,-154.71 629.75,-155.75 638.64,-161.51 640.29,-154.71"/>
</g>
<!-- Spheres_TwoSphere_to_S2&#45;&gt;Spheres_Sphere -->
<g id="edge13" class="edge">
<title>Spheres_TwoSphere_to_S2&#45;&gt;Spheres_Sphere</title>
<path fill="none" stroke="black" d="M747.31,-123.9C710.59,-106.43 652,-78.58 614.02,-60.52"/>
<polygon fill="black" stroke="black" points="615.37,-57.28 604.83,-56.15 612.36,-63.6 615.37,-57.28"/>
</g>
<!-- Spheres_S2_to_TwoSphere&#45;&gt;Spheres_Sphere -->
<g id="edge14" class="edge">
<title>Spheres_S2_to_TwoSphere&#45;&gt;Spheres_Sphere</title>
<path fill="none" stroke="black" d="M577,-122.57C577,-108.09 577,-87.18 577,-70.41"/>
<polygon fill="black" stroke="black" points="580.5,-70.1 577,-60.1 573.5,-70.1 580.5,-70.1"/>
</g>
<!-- Spheres_pequiv_S1_Circle -->
<g id="node12" class="node">
<title>Spheres_pequiv_S1_Circle</title>
<g id="a_node12"><a xlink:href="Spheres.html#pequiv_S1_Circle" xlink:title="pequiv_S1_Circle">
<ellipse fill="#f070d1" stroke="black" cx="394" cy="-577.91" rx="90.2" ry="18"/>
<ellipse fill="none" stroke="black" cx="394" cy="-577.91" rx="94.19" ry="22"/>
<ellipse fill="none" stroke="black" cx="394" cy="-577.91" rx="98.18" ry="26"/>
<text text-anchor="middle" x="394" y="-574.21" font-family="Times,serif" font-size="14.00">pequiv_S1_Circle</text>
</a>
</g>
</g>
<!-- Spheres_equiv_S1_Circle -->
<g id="node13" class="node">
<title>Spheres_equiv_S1_Circle</title>
<g id="a_node13"><a xlink:href="Spheres.html#equiv_S1_Circle" xlink:title="equiv_S1_Circle">
<ellipse fill="#f070d1" stroke="black" cx="319" cy="-467.91" rx="84.49" ry="18"/>
<text text-anchor="middle" x="319" y="-464.21" font-family="Times,serif" font-size="14.00">equiv_S1_Circle</text>
</a>
</g>
</g>
<!-- Spheres_pequiv_S1_Circle&#45;&gt;Spheres_equiv_S1_Circle -->
<g id="edge15" class="edge">
<title>Spheres_pequiv_S1_Circle&#45;&gt;Spheres_equiv_S1_Circle</title>
<path fill="none" stroke="black" d="M376.79,-552.14C364.79,-534.85 348.81,-511.84 336.7,-494.4"/>
<polygon fill="black" stroke="black" points="339.34,-492.06 330.76,-485.84 333.59,-496.06 339.34,-492.06"/>
</g>
<!-- Spheres_psphere -->
<g id="node21" class="node">
<title>Spheres_psphere</title>
<g id="a_node21"><a xlink:href="Spheres.html#psphere" xlink:title="psphere">
<ellipse fill="#f070d1" stroke="black" cx="470" cy="-467.91" rx="48.19" ry="18"/>
<text text-anchor="middle" x="470" y="-464.21" font-family="Times,serif" font-size="14.00">psphere</text>
</a>
</g>
</g>
<!-- Spheres_pequiv_S1_Circle&#45;&gt;Spheres_psphere -->
<g id="edge16" class="edge">
<title>Spheres_pequiv_S1_Circle&#45;&gt;Spheres_psphere</title>
<path fill="none" stroke="black" d="M411.44,-552.14C423.68,-534.74 439.99,-511.56 452.29,-494.08"/>
<polygon fill="black" stroke="black" points="455.42,-495.71 458.31,-485.52 449.7,-491.68 455.42,-495.71"/>
</g>
<!-- Spheres_equiv_S1_Circle&#45;&gt;Spheres_isequiv_S1_to_Circle -->
<g id="edge17" class="edge">
<title>Spheres_equiv_S1_Circle&#45;&gt;Spheres_isequiv_S1_to_Circle</title>
<path fill="none" stroke="black" d="M340.88,-450.43C364.88,-432.34 403.59,-403.17 430.56,-382.85"/>
<polygon fill="black" stroke="black" points="432.98,-385.41 438.86,-376.59 428.77,-379.82 432.98,-385.41"/>
</g>
<!-- Spheres_Circle_to_S1 -->
<g id="node15" class="node">
<title>Spheres_Circle_to_S1</title>
<g id="a_node15"><a xlink:href="Spheres.html#Circle_to_S1" xlink:title="Circle_to_S1">
<ellipse fill="#f070d1" stroke="black" cx="300" cy="-249.91" rx="68.49" ry="18"/>
<text text-anchor="middle" x="300" y="-246.21" font-family="Times,serif" font-size="14.00">Circle_to_S1</text>
</a>
</g>
</g>
<!-- Spheres_isequiv_S1_to_Circle&#45;&gt;Spheres_Circle_to_S1 -->
<g id="edge18" class="edge">
<title>Spheres_isequiv_S1_to_Circle&#45;&gt;Spheres_Circle_to_S1</title>
<path fill="none" stroke="black" d="M435.84,-341.19C407.99,-322.68 363.01,-292.79 332.51,-272.52"/>
<polygon fill="black" stroke="black" points="334.2,-269.44 323.93,-266.82 330.32,-275.27 334.2,-269.44"/>
</g>
<!-- Spheres_S1_to_Circle -->
<g id="node16" class="node">
<title>Spheres_S1_to_Circle</title>
<g id="a_node16"><a xlink:href="Spheres.html#S1_to_Circle" xlink:title="S1_to_Circle">
<ellipse fill="#f070d1" stroke="black" cx="454" cy="-249.91" rx="68.49" ry="18"/>
<text text-anchor="middle" x="454" y="-246.21" font-family="Times,serif" font-size="14.00">S1_to_Circle</text>
</a>
</g>
</g>
<!-- Spheres_isequiv_S1_to_Circle&#45;&gt;Spheres_S1_to_Circle -->
<g id="edge19" class="edge">
<title>Spheres_isequiv_S1_to_Circle&#45;&gt;Spheres_S1_to_Circle</title>
<path fill="none" stroke="black" d="M459.88,-340.72C458.77,-323.87 457.08,-297.93 455.79,-278.25"/>
<polygon fill="black" stroke="black" points="459.27,-277.81 455.12,-268.06 452.28,-278.27 459.27,-277.81"/>
</g>
<!-- Spheres_isequiv_S1_to_Circle&#45;&gt;Spheres_isequiv_S0_to_Bool -->
<g id="edge20" class="edge">
<title>Spheres_isequiv_S1_to_Circle&#45;&gt;Spheres_isequiv_S0_to_Bool</title>
<path fill="none" stroke="black" d="M412.16,-342.81C349.04,-323.29 239.32,-289.36 172.32,-268.64"/>
<polygon fill="black" stroke="black" points="173.34,-265.29 162.76,-265.68 171.28,-271.98 173.34,-265.29"/>
</g>
<!-- Spheres_Circle_to_S1&#45;&gt;Spheres_Sphere -->
<g id="edge21" class="edge">
<title>Spheres_Circle_to_S1&#45;&gt;Spheres_Sphere</title>
<path fill="none" stroke="black" d="M299.15,-231.56C298.74,-203.27 302.21,-147.13 333,-114.91 382.55,-63.06 467.42,-48.02 522.86,-43.95"/>
<polygon fill="black" stroke="black" points="523.1,-47.45 532.86,-43.32 522.65,-40.46 523.1,-47.45"/>
</g>
<!-- Spheres_S1_to_Circle&#45;&gt;Spheres_S0_to_Bool -->
<g id="edge22" class="edge">
<title>Spheres_S1_to_Circle&#45;&gt;Spheres_S0_to_Bool</title>
<path fill="none" stroke="black" d="M445.97,-231.72C437.95,-214.56 425.52,-187.97 416.27,-168.17"/>
<polygon fill="black" stroke="black" points="419.42,-166.64 412.01,-159.06 413.08,-169.6 419.42,-166.64"/>
</g>
<!-- Spheres_equiv_S0_Bool -->
<g id="node17" class="node">
<title>Spheres_equiv_S0_Bool</title>
<g id="a_node17"><a xlink:href="Spheres.html#equiv_S0_Bool" xlink:title="equiv_S0_Bool">
<ellipse fill="#f070d1" stroke="black" cx="101" cy="-358.91" rx="77.2" ry="18"/>
<ellipse fill="none" stroke="black" cx="101" cy="-358.91" rx="81.19" ry="22"/>
<ellipse fill="none" stroke="black" cx="101" cy="-358.91" rx="85.19" ry="26"/>
<text text-anchor="middle" x="101" y="-355.21" font-family="Times,serif" font-size="14.00">equiv_S0_Bool</text>
</a>
</g>
</g>
<!-- Spheres_equiv_S0_Bool&#45;&gt;Spheres_isequiv_S0_to_Bool -->
<g id="edge23" class="edge">
<title>Spheres_equiv_S0_Bool&#45;&gt;Spheres_isequiv_S0_to_Bool</title>
<path fill="none" stroke="black" d="M104.28,-332.83C106.42,-316.51 109.2,-295.23 111.4,-278.45"/>
<polygon fill="black" stroke="black" points="114.92,-278.53 112.74,-268.17 107.97,-277.63 114.92,-278.53"/>
</g>
<!-- Spheres_Bool_to_S0 -->
<g id="node19" class="node">
<title>Spheres_Bool_to_S0</title>
<g id="a_node19"><a xlink:href="Spheres.html#Bool_to_S0" xlink:title="Bool_to_S0">
<ellipse fill="#f070d1" stroke="black" cx="167" cy="-140.91" rx="61.99" ry="18"/>
<text text-anchor="middle" x="167" y="-137.21" font-family="Times,serif" font-size="14.00">Bool_to_S0</text>
</a>
</g>
</g>
<!-- Spheres_isequiv_S0_to_Bool&#45;&gt;Spheres_Bool_to_S0 -->
<g id="edge24" class="edge">
<title>Spheres_isequiv_S0_to_Bool&#45;&gt;Spheres_Bool_to_S0</title>
<path fill="none" stroke="black" d="M123.35,-231.72C131.69,-214.56 144.62,-187.97 154.24,-168.17"/>
<polygon fill="black" stroke="black" points="157.44,-169.59 158.67,-159.06 151.15,-166.53 157.44,-169.59"/>
</g>
<!-- Spheres_isequiv_S0_to_Bool&#45;&gt;Spheres_S0_to_Bool -->
<g id="edge25" class="edge">
<title>Spheres_isequiv_S0_to_Bool&#45;&gt;Spheres_S0_to_Bool</title>
<path fill="none" stroke="black" d="M156.71,-233.47C210.1,-213.71 302.28,-179.58 357.75,-159.04"/>
<polygon fill="black" stroke="black" points="359.17,-162.24 367.33,-155.49 356.74,-155.68 359.17,-162.24"/>
</g>
<!-- Spheres_Bool_to_S0&#45;&gt;Spheres_Sphere -->
<g id="edge26" class="edge">
<title>Spheres_Bool_to_S0&#45;&gt;Spheres_Sphere</title>
<path fill="none" stroke="black" d="M213.24,-128.97C291.7,-110.41 450.13,-72.93 529.47,-54.16"/>
<polygon fill="black" stroke="black" points="530.74,-57.46 539.66,-51.75 529.12,-50.64 530.74,-57.46"/>
</g>
<!-- Spheres_S0_to_Bool&#45;&gt;Spheres_Sphere -->
<g id="edge27" class="edge">
<title>Spheres_S0_to_Bool&#45;&gt;Spheres_Sphere</title>
<path fill="none" stroke="black" d="M431.41,-124.54C461.72,-107.55 510.56,-80.16 543.21,-61.86"/>
<polygon fill="black" stroke="black" points="544.95,-64.9 551.96,-56.95 541.53,-58.79 544.95,-64.9"/>
</g>
</g>
</svg>
