<?xml version="1.0" encoding="UTF-8" standalone="no"?>
<!DOCTYPE svg PUBLIC "-//W3C//DTD SVG 1.1//EN"
 "http://www.w3.org/Graphics/SVG/1.1/DTD/svg11.dtd">
<!-- Generated by graphviz version 2.43.0 (0)
 -->
<!-- Title: HoTT_Pointed_pTrunc Pages: 1 -->
<svg width="2461pt" height="1235pt"
 viewBox="0.00 0.00 2461.00 1234.50" xmlns="http://www.w3.org/2000/svg" xmlns:xlink="http://www.w3.org/1999/xlink">
<g id="graph0" class="graph" transform="scale(1 1) rotate(0) translate(4 1230.5)">
<title>HoTT_Pointed_pTrunc</title>
<polygon fill="white" stroke="transparent" points="-4,4 -4,-1230.5 2457,-1230.5 2457,4 -4,4"/>
<g id="clust1" class="cluster">
<title>cluster_pTrunc</title>
<polygon fill="#ffffc3" stroke="black" points="8,-23.87 8,-1202.63 2445,-1202.63 2445,-23.87 8,-23.87"/>
<text text-anchor="middle" x="41.5" y="-1187.43" font-family="Times,serif" font-size="14.00">pTrunc</text>
</g>
<!-- pTrunc_ptr_loops_commutes -->
<g id="node1" class="node">
<title>pTrunc_ptr_loops_commutes</title>
<g id="a_node1"><a xlink:href="pTrunc.html#ptr_loops_commutes" xlink:title="ptr_loops_commutes">
<ellipse fill="#f070d1" stroke="black" cx="1926" cy="-769.87" rx="105.89" ry="18"/>
<ellipse fill="none" stroke="black" cx="1926" cy="-769.87" rx="109.88" ry="22"/>
<ellipse fill="none" stroke="black" cx="1926" cy="-769.87" rx="113.88" ry="26"/>
<text text-anchor="middle" x="1926" y="-766.17" font-family="Times,serif" font-size="14.00">ptr_loops_commutes</text>
</a>
</g>
</g>
<!-- pTrunc_path_Tr_commutes -->
<g id="node2" class="node">
<title>pTrunc_path_Tr_commutes</title>
<g id="a_node2"><a xlink:href="pTrunc.html#path_Tr_commutes" xlink:title="path_Tr_commutes">
<ellipse fill="#f070d1" stroke="black" cx="1926" cy="-530.87" rx="98.58" ry="18"/>
<text text-anchor="middle" x="1926" y="-527.17" font-family="Times,serif" font-size="14.00">path_Tr_commutes</text>
</a>
</g>
</g>
<!-- pTrunc_ptr_loops_commutes&#45;&gt;pTrunc_path_Tr_commutes -->
<g id="edge1" class="edge">
<title>pTrunc_ptr_loops_commutes&#45;&gt;pTrunc_path_Tr_commutes</title>
<path fill="none" stroke="black" d="M1926,-743.51C1926,-698.63 1926,-605.59 1926,-559.28"/>
<polygon fill="black" stroke="black" points="1929.5,-559.1 1926,-549.1 1922.5,-559.1 1929.5,-559.1"/>
</g>
<!-- pTrunc_ptr_loops -->
<g id="node6" class="node">
<title>pTrunc_ptr_loops</title>
<g id="a_node6"><a xlink:href="pTrunc.html#ptr_loops" xlink:title="ptr_loops">
<ellipse fill="#f070d1" stroke="black" cx="2129" cy="-530.87" rx="53.89" ry="18"/>
<text text-anchor="middle" x="2129" y="-527.17" font-family="Times,serif" font-size="14.00">ptr_loops</text>
</a>
</g>
</g>
<!-- pTrunc_ptr_loops_commutes&#45;&gt;pTrunc_ptr_loops -->
<g id="edge2" class="edge">
<title>pTrunc_ptr_loops_commutes&#45;&gt;pTrunc_ptr_loops</title>
<path fill="none" stroke="black" d="M1947.34,-743.96C1986.54,-698.2 2069.51,-601.32 2108.26,-556.09"/>
<polygon fill="black" stroke="black" points="2111.11,-558.14 2114.96,-548.27 2105.79,-553.59 2111.11,-558.14"/>
</g>
<!-- pTrunc_ptr -->
<g id="node17" class="node">
<title>pTrunc_ptr</title>
<g id="a_node17"><a xlink:href="pTrunc.html#ptr" xlink:title="ptr">
<ellipse fill="#f070d1" stroke="black" cx="1697" cy="-530.87" rx="27" ry="18"/>
<text text-anchor="middle" x="1697" y="-527.17" font-family="Times,serif" font-size="14.00">ptr</text>
</a>
</g>
</g>
<!-- pTrunc_ptr_loops_commutes&#45;&gt;pTrunc_ptr -->
<g id="edge3" class="edge">
<title>pTrunc_ptr_loops_commutes&#45;&gt;pTrunc_ptr</title>
<path fill="none" stroke="black" d="M1902.36,-744.4C1857.51,-697.99 1760.77,-597.87 1718.03,-553.64"/>
<polygon fill="black" stroke="black" points="1720.4,-551.06 1710.94,-546.3 1715.37,-555.92 1720.4,-551.06"/>
</g>
<!-- pTrunc_pequiv_ptr_functor -->
<g id="node3" class="node">
<title>pTrunc_pequiv_ptr_functor</title>
<g id="a_node3"><a xlink:href="pTrunc.html#pequiv_ptr_functor" xlink:title="pequiv_ptr_functor">
<ellipse fill="#f070d1" stroke="black" cx="277" cy="-769.87" rx="98.6" ry="18"/>
<ellipse fill="none" stroke="black" cx="277" cy="-769.87" rx="102.59" ry="22"/>
<ellipse fill="none" stroke="black" cx="277" cy="-769.87" rx="106.58" ry="26"/>
<text text-anchor="middle" x="277" y="-766.17" font-family="Times,serif" font-size="14.00">pequiv_ptr_functor</text>
</a>
</g>
</g>
<!-- pTrunc_ptr_functor -->
<g id="node12" class="node">
<title>pTrunc_ptr_functor</title>
<g id="a_node12"><a xlink:href="pTrunc.html#ptr_functor" xlink:title="ptr_functor">
<ellipse fill="#f070d1" stroke="black" cx="794" cy="-530.87" rx="63.09" ry="18"/>
<text text-anchor="middle" x="794" y="-527.17" font-family="Times,serif" font-size="14.00">ptr_functor</text>
</a>
</g>
</g>
<!-- pTrunc_pequiv_ptr_functor&#45;&gt;pTrunc_ptr_functor -->
<g id="edge4" class="edge">
<title>pTrunc_pequiv_ptr_functor&#45;&gt;pTrunc_ptr_functor</title>
<path fill="none" stroke="black" d="M325.64,-746.58C426.86,-700.18 658.56,-593.96 752.9,-550.71"/>
<polygon fill="black" stroke="black" points="754.49,-553.84 762.12,-546.49 751.57,-547.47 754.49,-553.84"/>
</g>
<!-- pTrunc_ptr_loops_eq -->
<g id="node4" class="node">
<title>pTrunc_ptr_loops_eq</title>
<g id="a_node4"><a xlink:href="pTrunc.html#ptr_loops_eq" xlink:title="ptr_loops_eq">
<ellipse fill="#f070d1" stroke="black" cx="2359" cy="-769.87" rx="69.58" ry="18"/>
<ellipse fill="none" stroke="black" cx="2359" cy="-769.87" rx="73.59" ry="22"/>
<ellipse fill="none" stroke="black" cx="2359" cy="-769.87" rx="77.59" ry="26"/>
<text text-anchor="middle" x="2359" y="-766.17" font-family="Times,serif" font-size="14.00">ptr_loops_eq</text>
</a>
</g>
</g>
<!-- pTrunc_ptr_loops_eq&#45;&gt;pTrunc_ptr_loops -->
<g id="edge5" class="edge">
<title>pTrunc_ptr_loops_eq&#45;&gt;pTrunc_ptr_loops</title>
<path fill="none" stroke="black" d="M2335.68,-744.84C2291.42,-699.23 2195.73,-600.64 2151.84,-555.41"/>
<polygon fill="black" stroke="black" points="2154.24,-552.86 2144.76,-548.12 2149.22,-557.73 2154.24,-552.86"/>
</g>
<!-- pTrunc_ptr_iterated_loops -->
<g id="node5" class="node">
<title>pTrunc_ptr_iterated_loops</title>
<g id="a_node5"><a xlink:href="pTrunc.html#ptr_iterated_loops" xlink:title="ptr_iterated_loops">
<ellipse fill="#f070d1" stroke="black" cx="2161" cy="-769.87" rx="94.79" ry="18"/>
<ellipse fill="none" stroke="black" cx="2161" cy="-769.87" rx="98.79" ry="22"/>
<ellipse fill="none" stroke="black" cx="2161" cy="-769.87" rx="102.78" ry="26"/>
<text text-anchor="middle" x="2161" y="-766.17" font-family="Times,serif" font-size="14.00">ptr_iterated_loops</text>
</a>
</g>
</g>
<!-- pTrunc_ptr_iterated_loops&#45;&gt;pTrunc_ptr_loops -->
<g id="edge6" class="edge">
<title>pTrunc_ptr_iterated_loops&#45;&gt;pTrunc_ptr_loops</title>
<path fill="none" stroke="black" d="M2157.58,-743.51C2151.52,-698.63 2138.95,-605.59 2132.7,-559.28"/>
<polygon fill="black" stroke="black" points="2136.13,-558.54 2131.33,-549.1 2129.2,-559.48 2136.13,-558.54"/>
</g>
<!-- pTrunc_pTr -->
<g id="node18" class="node">
<title>pTrunc_pTr</title>
<g id="a_node18"><a xlink:href="pTrunc.html#pTr" xlink:title="pTr">
<ellipse fill="#f070d1" stroke="black" cx="1651" cy="-315.87" rx="27" ry="18"/>
<text text-anchor="middle" x="1651" y="-312.17" font-family="Times,serif" font-size="14.00">pTr</text>
</a>
</g>
</g>
<!-- pTrunc_ptr_loops&#45;&gt;pTrunc_pTr -->
<g id="edge7" class="edge">
<title>pTrunc_ptr_loops&#45;&gt;pTrunc_pTr</title>
<path fill="none" stroke="black" d="M2098.01,-516.06C2011.65,-477.58 1769,-369.45 1682.29,-330.82"/>
<polygon fill="black" stroke="black" points="1683.54,-327.54 1672.98,-326.67 1680.69,-333.93 1683.54,-327.54"/>
</g>
<!-- pTrunc_ptr_pequiv -->
<g id="node7" class="node">
<title>pTrunc_ptr_pequiv</title>
<g id="a_node7"><a xlink:href="pTrunc.html#ptr_pequiv" xlink:title="ptr_pequiv">
<ellipse fill="#f070d1" stroke="black" cx="84" cy="-769.87" rx="60.4" ry="18"/>
<ellipse fill="none" stroke="black" cx="84" cy="-769.87" rx="64.39" ry="22"/>
<ellipse fill="none" stroke="black" cx="84" cy="-769.87" rx="68.39" ry="26"/>
<text text-anchor="middle" x="84" y="-766.17" font-family="Times,serif" font-size="14.00">ptr_pequiv</text>
</a>
</g>
</g>
<!-- pTrunc_ptr_pequiv&#45;&gt;pTrunc_ptr_functor -->
<g id="edge8" class="edge">
<title>pTrunc_ptr_pequiv&#45;&gt;pTrunc_ptr_functor</title>
<path fill="none" stroke="black" d="M134.21,-752.11C265.04,-708.44 615.24,-591.54 744.86,-548.28"/>
<polygon fill="black" stroke="black" points="746.16,-551.53 754.54,-545.05 743.94,-544.89 746.16,-551.53"/>
</g>
<!-- pTrunc_ptr_functor_homotopy -->
<g id="node8" class="node">
<title>pTrunc_ptr_functor_homotopy</title>
<g id="a_node8"><a xlink:href="pTrunc.html#ptr_functor_homotopy" xlink:title="ptr_functor_homotopy">
<ellipse fill="#f070d1" stroke="black" cx="1349" cy="-769.87" rx="113.17" ry="18"/>
<ellipse fill="none" stroke="black" cx="1349" cy="-769.87" rx="117.18" ry="22"/>
<ellipse fill="none" stroke="black" cx="1349" cy="-769.87" rx="121.18" ry="26"/>
<text text-anchor="middle" x="1349" y="-766.17" font-family="Times,serif" font-size="14.00">ptr_functor_homotopy</text>
</a>
</g>
</g>
<!-- pTrunc_ptr_functor_homotopy&#45;&gt;pTrunc_ptr_functor -->
<g id="edge9" class="edge">
<title>pTrunc_ptr_functor_homotopy&#45;&gt;pTrunc_ptr_functor</title>
<path fill="none" stroke="black" d="M1296.29,-746.36C1186.85,-699.63 936.88,-592.89 836.69,-550.1"/>
<polygon fill="black" stroke="black" points="838.04,-546.88 827.47,-546.17 835.29,-553.31 838.04,-546.88"/>
</g>
<!-- pTrunc_ptr_functor_pmap_compose -->
<g id="node9" class="node">
<title>pTrunc_ptr_functor_pmap_compose</title>
<g id="a_node9"><a xlink:href="pTrunc.html#ptr_functor_pmap_compose" xlink:title="ptr_functor_pmap_compose">
<ellipse fill="#f070d1" stroke="black" cx="1064" cy="-769.87" rx="137.59" ry="18"/>
<ellipse fill="none" stroke="black" cx="1064" cy="-769.87" rx="141.58" ry="22"/>
<ellipse fill="none" stroke="black" cx="1064" cy="-769.87" rx="145.58" ry="26"/>
<text text-anchor="middle" x="1064" y="-766.17" font-family="Times,serif" font-size="14.00">ptr_functor_pmap_compose</text>
</a>
</g>
</g>
<!-- pTrunc_ptr_functor_pmap_compose&#45;&gt;pTrunc_ptr_functor -->
<g id="edge10" class="edge">
<title>pTrunc_ptr_functor_pmap_compose&#45;&gt;pTrunc_ptr_functor</title>
<path fill="none" stroke="black" d="M1035.87,-744.18C983.43,-698.15 871.45,-599.86 820.38,-555.03"/>
<polygon fill="black" stroke="black" points="822.54,-552.27 812.72,-548.31 817.93,-557.53 822.54,-552.27"/>
</g>
<!-- pTrunc_ptr_functor_pconst -->
<g id="node10" class="node">
<title>pTrunc_ptr_functor_pconst</title>
<g id="a_node10"><a xlink:href="pTrunc.html#ptr_functor_pconst" xlink:title="ptr_functor_pconst">
<ellipse fill="#f070d1" stroke="black" cx="794" cy="-769.87" rx="98.27" ry="18"/>
<ellipse fill="none" stroke="black" cx="794" cy="-769.87" rx="102.28" ry="22"/>
<ellipse fill="none" stroke="black" cx="794" cy="-769.87" rx="106.28" ry="26"/>
<text text-anchor="middle" x="794" y="-766.17" font-family="Times,serif" font-size="14.00">ptr_functor_pconst</text>
</a>
</g>
</g>
<!-- pTrunc_ptr_functor_pconst&#45;&gt;pTrunc_ptr_functor -->
<g id="edge11" class="edge">
<title>pTrunc_ptr_functor_pconst&#45;&gt;pTrunc_ptr_functor</title>
<path fill="none" stroke="black" d="M794,-743.51C794,-698.63 794,-605.59 794,-559.28"/>
<polygon fill="black" stroke="black" points="797.5,-559.1 794,-549.1 790.5,-559.1 797.5,-559.1"/>
</g>
<!-- pTrunc_ptr_functor_pmap_idmap -->
<g id="node11" class="node">
<title>pTrunc_ptr_functor_pmap_idmap</title>
<g id="a_node11"><a xlink:href="pTrunc.html#ptr_functor_pmap_idmap" xlink:title="ptr_functor_pmap_idmap">
<ellipse fill="#f070d1" stroke="black" cx="536" cy="-769.87" rx="126.17" ry="18"/>
<ellipse fill="none" stroke="black" cx="536" cy="-769.87" rx="130.18" ry="22"/>
<ellipse fill="none" stroke="black" cx="536" cy="-769.87" rx="134.18" ry="26"/>
<text text-anchor="middle" x="536" y="-766.17" font-family="Times,serif" font-size="14.00">ptr_functor_pmap_idmap</text>
</a>
</g>
</g>
<!-- pTrunc_ptr_functor_pmap_idmap&#45;&gt;pTrunc_ptr_functor -->
<g id="edge12" class="edge">
<title>pTrunc_ptr_functor_pmap_idmap&#45;&gt;pTrunc_ptr_functor</title>
<path fill="none" stroke="black" d="M563.12,-743.96C613.25,-697.91 719.71,-600.11 768.55,-555.25"/>
<polygon fill="black" stroke="black" points="771.16,-557.61 776.15,-548.27 766.42,-552.46 771.16,-557.61"/>
</g>
<!-- pTrunc_ptr_functor&#45;&gt;pTrunc_pTr -->
<g id="edge13" class="edge">
<title>pTrunc_ptr_functor&#45;&gt;pTrunc_pTr</title>
<path fill="none" stroke="black" d="M840.08,-518.42C992.89,-480.44 1480.99,-359.13 1616.06,-325.56"/>
<polygon fill="black" stroke="black" points="1617.03,-328.92 1625.89,-323.11 1615.34,-322.13 1617.03,-328.92"/>
</g>
<!-- pTrunc_equiv_ptr_rec -->
<g id="node13" class="node">
<title>pTrunc_equiv_ptr_rec</title>
<g id="a_node13"><a xlink:href="pTrunc.html#equiv_ptr_rec" xlink:title="equiv_ptr_rec">
<ellipse fill="#f070d1" stroke="black" cx="1570" cy="-769.87" rx="73.39" ry="18"/>
<ellipse fill="none" stroke="black" cx="1570" cy="-769.87" rx="77.39" ry="22"/>
<ellipse fill="none" stroke="black" cx="1570" cy="-769.87" rx="81.39" ry="26"/>
<text text-anchor="middle" x="1570" y="-766.17" font-family="Times,serif" font-size="14.00">equiv_ptr_rec</text>
</a>
</g>
</g>
<!-- pTrunc_pTr_rec -->
<g id="node14" class="node">
<title>pTrunc_pTr_rec</title>
<g id="a_node14"><a xlink:href="pTrunc.html#pTr_rec" xlink:title="pTr_rec">
<ellipse fill="#f070d1" stroke="black" cx="1588" cy="-530.87" rx="46.29" ry="18"/>
<text text-anchor="middle" x="1588" y="-527.17" font-family="Times,serif" font-size="14.00">pTr_rec</text>
</a>
</g>
</g>
<!-- pTrunc_equiv_ptr_rec&#45;&gt;pTrunc_pTr_rec -->
<g id="edge14" class="edge">
<title>pTrunc_equiv_ptr_rec&#45;&gt;pTrunc_pTr_rec</title>
<path fill="none" stroke="black" d="M1571.93,-743.51C1575.34,-698.63 1582.4,-605.59 1585.92,-559.28"/>
<polygon fill="black" stroke="black" points="1589.42,-559.33 1586.69,-549.1 1582.44,-558.8 1589.42,-559.33"/>
</g>
<!-- pTrunc_equiv_ptr_rec&#45;&gt;pTrunc_ptr -->
<g id="edge15" class="edge">
<title>pTrunc_equiv_ptr_rec&#45;&gt;pTrunc_ptr</title>
<path fill="none" stroke="black" d="M1583.35,-743.96C1607.73,-698.47 1659.18,-602.46 1683.59,-556.89"/>
<polygon fill="black" stroke="black" points="1686.74,-558.44 1688.37,-547.97 1680.57,-555.13 1686.74,-558.44"/>
</g>
<!-- pTrunc_pTr_rec&#45;&gt;pTrunc_pTr -->
<g id="edge16" class="edge">
<title>pTrunc_pTr_rec&#45;&gt;pTrunc_pTr</title>
<path fill="none" stroke="black" d="M1593.05,-512.8C1604,-475.79 1629.99,-387.91 1643.12,-343.52"/>
<polygon fill="black" stroke="black" points="1646.53,-344.31 1646.01,-333.73 1639.82,-342.33 1646.53,-344.31"/>
</g>
<!-- pTrunc_pequiv_ptr -->
<g id="node15" class="node">
<title>pTrunc_pequiv_ptr</title>
<g id="a_node15"><a xlink:href="pTrunc.html#pequiv_ptr" xlink:title="pequiv_ptr">
<ellipse fill="#f070d1" stroke="black" cx="1732" cy="-1032.87" rx="60.4" ry="18"/>
<ellipse fill="none" stroke="black" cx="1732" cy="-1032.87" rx="64.39" ry="22"/>
<ellipse fill="none" stroke="black" cx="1732" cy="-1032.87" rx="68.39" ry="26"/>
<text text-anchor="middle" x="1732" y="-1029.17" font-family="Times,serif" font-size="14.00">pequiv_ptr</text>
</a>
</g>
</g>
<!-- pTrunc_isequiv_ptr -->
<g id="node16" class="node">
<title>pTrunc_isequiv_ptr</title>
<g id="a_node16"><a xlink:href="pTrunc.html#isequiv_ptr" xlink:title="isequiv_ptr">
<ellipse fill="#f070d1" stroke="black" cx="1732" cy="-769.87" rx="62.29" ry="18"/>
<text text-anchor="middle" x="1732" y="-766.17" font-family="Times,serif" font-size="14.00">isequiv_ptr</text>
</a>
</g>
</g>
<!-- pTrunc_pequiv_ptr&#45;&gt;pTrunc_isequiv_ptr -->
<g id="edge17" class="edge">
<title>pTrunc_pequiv_ptr&#45;&gt;pTrunc_isequiv_ptr</title>
<path fill="none" stroke="black" d="M1732,-1006.85C1732,-957.76 1732,-849.18 1732,-798.25"/>
<polygon fill="black" stroke="black" points="1735.5,-798.02 1732,-788.02 1728.5,-798.02 1735.5,-798.02"/>
</g>
<!-- pTrunc_isequiv_ptr&#45;&gt;pTrunc_ptr -->
<g id="edge18" class="edge">
<title>pTrunc_isequiv_ptr&#45;&gt;pTrunc_ptr</title>
<path fill="none" stroke="black" d="M1729.48,-751.83C1723.48,-711.19 1708.29,-608.32 1701.01,-559.02"/>
<polygon fill="black" stroke="black" points="1704.46,-558.46 1699.54,-549.08 1697.54,-559.49 1704.46,-558.46"/>
</g>
<!-- pTrunc_ptr&#45;&gt;pTrunc_pTr -->
<g id="edge19" class="edge">
<title>pTrunc_ptr&#45;&gt;pTrunc_pTr</title>
<path fill="none" stroke="black" d="M1693.31,-512.8C1685.32,-475.79 1666.34,-387.91 1656.75,-343.52"/>
<polygon fill="black" stroke="black" points="1660.17,-342.77 1654.64,-333.73 1653.33,-344.24 1660.17,-342.77"/>
</g>
<!-- pTrunc_ispointed_tr -->
<g id="node19" class="node">
<title>pTrunc_ispointed_tr</title>
<g id="a_node19"><a xlink:href="pTrunc.html#ispointed_tr" xlink:title="ispointed_tr">
<ellipse fill="#f070d1" stroke="black" cx="1651" cy="-101.87" rx="66.09" ry="18"/>
<text text-anchor="middle" x="1651" y="-98.17" font-family="Times,serif" font-size="14.00">ispointed_tr</text>
</a>
</g>
</g>
<!-- pTrunc_pTr&#45;&gt;pTrunc_ispointed_tr -->
<g id="edge20" class="edge">
<title>pTrunc_pTr&#45;&gt;pTrunc_ispointed_tr</title>
<path fill="none" stroke="black" d="M1651,-297.52C1651,-260.71 1651,-174.51 1651,-130.22"/>
<polygon fill="black" stroke="black" points="1654.5,-130.16 1651,-120.16 1647.5,-130.16 1654.5,-130.16"/>
</g>
</g>
</svg>
