<?xml version="1.0" encoding="UTF-8" standalone="no"?>
<!DOCTYPE svg PUBLIC "-//W3C//DTD SVG 1.1//EN"
 "http://www.w3.org/Graphics/SVG/1.1/DTD/svg11.dtd">
<!-- Generated by graphviz version 2.43.0 (0)
 -->
<!-- Title: HoTT_Types_Arrow Pages: 1 -->
<svg width="3127pt" height="1568pt"
 viewBox="0.00 0.00 3127.00 1567.50" xmlns="http://www.w3.org/2000/svg" xmlns:xlink="http://www.w3.org/1999/xlink">
<g id="graph0" class="graph" transform="scale(1 1) rotate(0) translate(4 1563.5)">
<title>HoTT_Types_Arrow</title>
<polygon fill="white" stroke="transparent" points="-4,4 -4,-1563.5 3123,-1563.5 3123,4 -4,4"/>
<g id="clust1" class="cluster">
<title>cluster_Arrow</title>
<polygon fill="#ffffc3" stroke="black" points="8,-36.8 8,-1522.7 3111,-1522.7 3111,-36.8 8,-36.8"/>
<text text-anchor="middle" x="38" y="-1507.5" font-family="Times,serif" font-size="14.00">Arrow</text>
</g>
<!-- Arrow_decidable_arrow -->
<g id="node1" class="node">
<title>Arrow_decidable_arrow</title>
<g id="a_node1"><a xlink:href="Arrow.html#decidable_arrow" xlink:title="decidable_arrow">
<ellipse fill="#f070d1" stroke="black" cx="3008" cy="-1260.8" rx="87.18" ry="18"/>
<ellipse fill="none" stroke="black" cx="3008" cy="-1260.8" rx="91.18" ry="22"/>
<ellipse fill="none" stroke="black" cx="3008" cy="-1260.8" rx="95.18" ry="26"/>
<text text-anchor="middle" x="3008" y="-1257.1" font-family="Times,serif" font-size="14.00">decidable_arrow</text>
</a>
</g>
</g>
<!-- Arrow_equiv_functor_arrow_ -->
<g id="node2" class="node">
<title>Arrow_equiv_functor_arrow_</title>
<g id="a_node2"><a xlink:href="Arrow.html#equiv_functor_arrow'" xlink:title="equiv_functor_arrow&#39;">
<ellipse fill="#f070d1" stroke="black" cx="2778" cy="-1260.8" rx="108.58" ry="18"/>
<ellipse fill="none" stroke="black" cx="2778" cy="-1260.8" rx="112.58" ry="22"/>
<ellipse fill="none" stroke="black" cx="2778" cy="-1260.8" rx="116.58" ry="26"/>
<text text-anchor="middle" x="2778" y="-1257.1" font-family="Times,serif" font-size="14.00">equiv_functor_arrow&#39;</text>
</a>
</g>
</g>
<!-- Arrow_equiv_functor_arrow -->
<g id="node3" class="node">
<title>Arrow_equiv_functor_arrow</title>
<g id="a_node3"><a xlink:href="Arrow.html#equiv_functor_arrow" xlink:title="equiv_functor_arrow">
<ellipse fill="#f070d1" stroke="black" cx="2530" cy="-1260.8" rx="105.89" ry="18"/>
<ellipse fill="none" stroke="black" cx="2530" cy="-1260.8" rx="109.88" ry="22"/>
<ellipse fill="none" stroke="black" cx="2530" cy="-1260.8" rx="113.88" ry="26"/>
<text text-anchor="middle" x="2530" y="-1257.1" font-family="Times,serif" font-size="14.00">equiv_functor_arrow</text>
</a>
</g>
</g>
<!-- Arrow_isequiv_functor_arrow -->
<g id="node4" class="node">
<title>Arrow_isequiv_functor_arrow</title>
<g id="a_node4"><a xlink:href="Arrow.html#isequiv_functor_arrow" xlink:title="isequiv_functor_arrow">
<ellipse fill="#f070d1" stroke="black" cx="2182" cy="-524.8" rx="113.96" ry="18"/>
<ellipse fill="none" stroke="black" cx="2182" cy="-524.8" rx="117.97" ry="22"/>
<ellipse fill="none" stroke="black" cx="2182" cy="-524.8" rx="121.98" ry="26"/>
<text text-anchor="middle" x="2182" y="-521.1" font-family="Times,serif" font-size="14.00">isequiv_functor_arrow</text>
</a>
</g>
</g>
<!-- Arrow_functor_arrow -->
<g id="node9" class="node">
<title>Arrow_functor_arrow</title>
<g id="a_node9"><a xlink:href="Arrow.html#functor_arrow" xlink:title="functor_arrow">
<ellipse fill="#f070d1" stroke="black" cx="1937" cy="-156.8" rx="76.09" ry="18"/>
<text text-anchor="middle" x="1937" y="-153.1" font-family="Times,serif" font-size="14.00">functor_arrow</text>
</a>
</g>
</g>
<!-- Arrow_isequiv_functor_arrow&#45;&gt;Arrow_functor_arrow -->
<g id="edge1" class="edge">
<title>Arrow_isequiv_functor_arrow&#45;&gt;Arrow_functor_arrow</title>
<path fill="none" stroke="black" d="M2165.35,-498.93C2120.72,-432.26 1998.75,-250.05 1953.87,-183"/>
<polygon fill="black" stroke="black" points="1956.77,-181.05 1948.3,-174.68 1950.96,-184.94 1956.77,-181.05"/>
</g>
<!-- Arrow_istrunc_arrow -->
<g id="node5" class="node">
<title>Arrow_istrunc_arrow</title>
<g id="a_node5"><a xlink:href="Arrow.html#istrunc_arrow" xlink:title="istrunc_arrow">
<ellipse fill="#f070d1" stroke="black" cx="2315" cy="-1260.8" rx="75.3" ry="18"/>
<ellipse fill="none" stroke="black" cx="2315" cy="-1260.8" rx="79.29" ry="22"/>
<ellipse fill="none" stroke="black" cx="2315" cy="-1260.8" rx="83.29" ry="26"/>
<text text-anchor="middle" x="2315" y="-1257.1" font-family="Times,serif" font-size="14.00">istrunc_arrow</text>
</a>
</g>
</g>
<!-- Arrow_contr_arrow -->
<g id="node6" class="node">
<title>Arrow_contr_arrow</title>
<g id="a_node6"><a xlink:href="Arrow.html#contr_arrow" xlink:title="contr_arrow">
<ellipse fill="#f070d1" stroke="black" cx="2139" cy="-1260.8" rx="66.89" ry="18"/>
<ellipse fill="none" stroke="black" cx="2139" cy="-1260.8" rx="70.89" ry="22"/>
<ellipse fill="none" stroke="black" cx="2139" cy="-1260.8" rx="74.89" ry="26"/>
<text text-anchor="middle" x="2139" y="-1257.1" font-family="Times,serif" font-size="14.00">contr_arrow</text>
</a>
</g>
</g>
<!-- Arrow_ap_functor_arrow -->
<g id="node7" class="node">
<title>Arrow_ap_functor_arrow</title>
<g id="a_node7"><a xlink:href="Arrow.html#ap_functor_arrow" xlink:title="ap_functor_arrow">
<ellipse fill="#f070d1" stroke="black" cx="1715" cy="-524.8" rx="91.77" ry="18"/>
<ellipse fill="none" stroke="black" cx="1715" cy="-524.8" rx="95.78" ry="22"/>
<ellipse fill="none" stroke="black" cx="1715" cy="-524.8" rx="99.78" ry="26"/>
<text text-anchor="middle" x="1715" y="-521.1" font-family="Times,serif" font-size="14.00">ap_functor_arrow</text>
</a>
</g>
</g>
<!-- Arrow_ap_functor_arrow&#45;&gt;Arrow_functor_arrow -->
<g id="edge2" class="edge">
<title>Arrow_ap_functor_arrow&#45;&gt;Arrow_functor_arrow</title>
<path fill="none" stroke="black" d="M1730.08,-498.93C1770.44,-432.4 1880.6,-250.79 1921.47,-183.41"/>
<polygon fill="black" stroke="black" points="1924.57,-185.05 1926.76,-174.68 1918.58,-181.42 1924.57,-185.05"/>
</g>
<!-- Arrow_path_arrow -->
<g id="node30" class="node">
<title>Arrow_path_arrow</title>
<g id="a_node30"><a xlink:href="Arrow.html#path_arrow" xlink:title="path_arrow">
<ellipse fill="#f070d1" stroke="black" cx="1017" cy="-156.8" rx="63.89" ry="18"/>
<text text-anchor="middle" x="1017" y="-153.1" font-family="Times,serif" font-size="14.00">path_arrow</text>
</a>
</g>
</g>
<!-- Arrow_ap_functor_arrow&#45;&gt;Arrow_path_arrow -->
<g id="edge3" class="edge">
<title>Arrow_ap_functor_arrow&#45;&gt;Arrow_path_arrow</title>
<path fill="none" stroke="black" d="M1672.13,-501.32C1545.64,-435 1175.37,-240.84 1055.16,-177.81"/>
<polygon fill="black" stroke="black" points="1056.44,-174.53 1045.96,-172.99 1053.19,-180.73 1056.44,-174.53"/>
</g>
<!-- Arrow_not_contrapositive -->
<g id="node8" class="node">
<title>Arrow_not_contrapositive</title>
<g id="a_node8"><a xlink:href="Arrow.html#not_contrapositive" xlink:title="not_contrapositive">
<ellipse fill="#f070d1" stroke="black" cx="1937" cy="-524.8" rx="96.7" ry="18"/>
<ellipse fill="none" stroke="black" cx="1937" cy="-524.8" rx="100.69" ry="22"/>
<ellipse fill="none" stroke="black" cx="1937" cy="-524.8" rx="104.68" ry="26"/>
<text text-anchor="middle" x="1937" y="-521.1" font-family="Times,serif" font-size="14.00">not_contrapositive</text>
</a>
</g>
</g>
<!-- Arrow_not_contrapositive&#45;&gt;Arrow_functor_arrow -->
<g id="edge4" class="edge">
<title>Arrow_not_contrapositive&#45;&gt;Arrow_functor_arrow</title>
<path fill="none" stroke="black" d="M1937,-498.65C1937,-432.42 1937,-253.64 1937,-185.08"/>
<polygon fill="black" stroke="black" points="1940.5,-185.06 1937,-175.06 1933.5,-185.06 1940.5,-185.06"/>
</g>
<!-- Arrow_ap_lambda -->
<g id="node10" class="node">
<title>Arrow_ap_lambda</title>
<g id="a_node10"><a xlink:href="Arrow.html#ap_lambda" xlink:title="ap_lambda">
<ellipse fill="#f070d1" stroke="black" cx="1978" cy="-1260.8" rx="60.4" ry="18"/>
<ellipse fill="none" stroke="black" cx="1978" cy="-1260.8" rx="64.39" ry="22"/>
<ellipse fill="none" stroke="black" cx="1978" cy="-1260.8" rx="68.39" ry="26"/>
<text text-anchor="middle" x="1978" y="-1257.1" font-family="Times,serif" font-size="14.00">ap_lambda</text>
</a>
</g>
</g>
<!-- Arrow_path_arrow_1 -->
<g id="node25" class="node">
<title>Arrow_path_arrow_1</title>
<g id="a_node25"><a xlink:href="Arrow.html#path_arrow_1" xlink:title="path_arrow_1">
<ellipse fill="#f070d1" stroke="black" cx="1722" cy="-892.8" rx="73.39" ry="18"/>
<text text-anchor="middle" x="1722" y="-889.1" font-family="Times,serif" font-size="14.00">path_arrow_1</text>
</a>
</g>
</g>
<!-- Arrow_ap_lambda&#45;&gt;Arrow_path_arrow_1 -->
<g id="edge5" class="edge">
<title>Arrow_ap_lambda&#45;&gt;Arrow_path_arrow_1</title>
<path fill="none" stroke="black" d="M1961,-1235.5C1914.73,-1169.34 1786.8,-986.44 1739.7,-919.11"/>
<polygon fill="black" stroke="black" points="1742.46,-916.95 1733.86,-910.76 1736.72,-920.96 1742.46,-916.95"/>
</g>
<!-- Arrow_ap_apply_FlFr -->
<g id="node11" class="node">
<title>Arrow_ap_apply_FlFr</title>
<g id="a_node11"><a xlink:href="Arrow.html#ap_apply_FlFr" xlink:title="ap_apply_FlFr">
<ellipse fill="#f070d1" stroke="black" cx="1808" cy="-1260.8" rx="76.08" ry="18"/>
<ellipse fill="none" stroke="black" cx="1808" cy="-1260.8" rx="80.08" ry="22"/>
<ellipse fill="none" stroke="black" cx="1808" cy="-1260.8" rx="84.09" ry="26"/>
<text text-anchor="middle" x="1808" y="-1257.1" font-family="Times,serif" font-size="14.00">ap_apply_FlFr</text>
</a>
</g>
</g>
<!-- Arrow_ap_apply_Fr -->
<g id="node12" class="node">
<title>Arrow_ap_apply_Fr</title>
<g id="a_node12"><a xlink:href="Arrow.html#ap_apply_Fr" xlink:title="ap_apply_Fr">
<ellipse fill="#f070d1" stroke="black" cx="1631" cy="-1260.8" rx="66.89" ry="18"/>
<ellipse fill="none" stroke="black" cx="1631" cy="-1260.8" rx="70.89" ry="22"/>
<ellipse fill="none" stroke="black" cx="1631" cy="-1260.8" rx="74.89" ry="26"/>
<text text-anchor="middle" x="1631" y="-1257.1" font-family="Times,serif" font-size="14.00">ap_apply_Fr</text>
</a>
</g>
</g>
<!-- Arrow_ap_apply_Fl -->
<g id="node13" class="node">
<title>Arrow_ap_apply_Fl</title>
<g id="a_node13"><a xlink:href="Arrow.html#ap_apply_Fl" xlink:title="ap_apply_Fl">
<ellipse fill="#f070d1" stroke="black" cx="1464" cy="-1260.8" rx="65.77" ry="18"/>
<ellipse fill="none" stroke="black" cx="1464" cy="-1260.8" rx="69.78" ry="22"/>
<ellipse fill="none" stroke="black" cx="1464" cy="-1260.8" rx="73.79" ry="26"/>
<text text-anchor="middle" x="1464" y="-1257.1" font-family="Times,serif" font-size="14.00">ap_apply_Fl</text>
</a>
</g>
</g>
<!-- Arrow_ap_apply_l -->
<g id="node14" class="node">
<title>Arrow_ap_apply_l</title>
<g id="a_node14"><a xlink:href="Arrow.html#ap_apply_l" xlink:title="ap_apply_l">
<ellipse fill="#f070d1" stroke="black" cx="1305" cy="-1260.8" rx="59.27" ry="18"/>
<ellipse fill="none" stroke="black" cx="1305" cy="-1260.8" rx="63.28" ry="22"/>
<ellipse fill="none" stroke="black" cx="1305" cy="-1260.8" rx="67.29" ry="26"/>
<text text-anchor="middle" x="1305" y="-1257.1" font-family="Times,serif" font-size="14.00">ap_apply_l</text>
</a>
</g>
</g>
<!-- Arrow_ap10_dpath_arrow -->
<g id="node15" class="node">
<title>Arrow_ap10_dpath_arrow</title>
<g id="a_node15"><a xlink:href="Arrow.html#ap10_dpath_arrow" xlink:title="ap10_dpath_arrow">
<ellipse fill="#f070d1" stroke="black" cx="1115" cy="-1260.8" rx="96.7" ry="18"/>
<ellipse fill="none" stroke="black" cx="1115" cy="-1260.8" rx="100.69" ry="22"/>
<ellipse fill="none" stroke="black" cx="1115" cy="-1260.8" rx="104.68" ry="26"/>
<text text-anchor="middle" x="1115" y="-1257.1" font-family="Times,serif" font-size="14.00">ap10_dpath_arrow</text>
</a>
</g>
</g>
<!-- Arrow_dpath_arrow -->
<g id="node16" class="node">
<title>Arrow_dpath_arrow</title>
<g id="a_node16"><a xlink:href="Arrow.html#dpath_arrow" xlink:title="dpath_arrow">
<ellipse fill="#f070d1" stroke="black" cx="1115" cy="-892.8" rx="69.59" ry="18"/>
<text text-anchor="middle" x="1115" y="-889.1" font-family="Times,serif" font-size="14.00">dpath_arrow</text>
</a>
</g>
</g>
<!-- Arrow_ap10_dpath_arrow&#45;&gt;Arrow_dpath_arrow -->
<g id="edge6" class="edge">
<title>Arrow_ap10_dpath_arrow&#45;&gt;Arrow_dpath_arrow</title>
<path fill="none" stroke="black" d="M1115,-1234.65C1115,-1168.42 1115,-989.64 1115,-921.08"/>
<polygon fill="black" stroke="black" points="1118.5,-921.06 1115,-911.06 1111.5,-921.06 1118.5,-921.06"/>
</g>
<!-- Arrow_transport_arrow -->
<g id="node20" class="node">
<title>Arrow_transport_arrow</title>
<g id="a_node20"><a xlink:href="Arrow.html#transport_arrow" xlink:title="transport_arrow">
<ellipse fill="#f070d1" stroke="black" cx="1289" cy="-892.8" rx="86.38" ry="18"/>
<text text-anchor="middle" x="1289" y="-889.1" font-family="Times,serif" font-size="14.00">transport_arrow</text>
</a>
</g>
</g>
<!-- Arrow_ap10_dpath_arrow&#45;&gt;Arrow_transport_arrow -->
<g id="edge7" class="edge">
<title>Arrow_ap10_dpath_arrow&#45;&gt;Arrow_transport_arrow</title>
<path fill="none" stroke="black" d="M1126.82,-1234.93C1158.32,-1168.69 1244.04,-988.37 1276.4,-920.3"/>
<polygon fill="black" stroke="black" points="1279.65,-921.63 1280.78,-911.09 1273.32,-918.62 1279.65,-921.63"/>
</g>
<!-- Arrow_equiv_path_arrow -->
<g id="node22" class="node">
<title>Arrow_equiv_path_arrow</title>
<g id="a_node22"><a xlink:href="Arrow.html#equiv_path_arrow" xlink:title="equiv_path_arrow">
<ellipse fill="#f070d1" stroke="black" cx="1322" cy="-524.8" rx="92.88" ry="18"/>
<text text-anchor="middle" x="1322" y="-521.1" font-family="Times,serif" font-size="14.00">equiv_path_arrow</text>
</a>
</g>
</g>
<!-- Arrow_dpath_arrow&#45;&gt;Arrow_equiv_path_arrow -->
<g id="edge8" class="edge">
<title>Arrow_dpath_arrow&#45;&gt;Arrow_equiv_path_arrow</title>
<path fill="none" stroke="black" d="M1124.71,-874.64C1157.98,-815.8 1267.58,-622.02 1307.39,-551.64"/>
<polygon fill="black" stroke="black" points="1310.44,-553.35 1312.31,-542.93 1304.35,-549.91 1310.44,-553.35"/>
</g>
<!-- Arrow_ap_transport_arrow_toconst -->
<g id="node17" class="node">
<title>Arrow_ap_transport_arrow_toconst</title>
<g id="a_node17"><a xlink:href="Arrow.html#ap_transport_arrow_toconst" xlink:title="ap_transport_arrow_toconst">
<ellipse fill="#f070d1" stroke="black" cx="844" cy="-1260.8" rx="140.28" ry="18"/>
<ellipse fill="none" stroke="black" cx="844" cy="-1260.8" rx="144.28" ry="22"/>
<ellipse fill="none" stroke="black" cx="844" cy="-1260.8" rx="148.28" ry="26"/>
<text text-anchor="middle" x="844" y="-1257.1" font-family="Times,serif" font-size="14.00">ap_transport_arrow_toconst</text>
</a>
</g>
</g>
<!-- Arrow_transport_arrow_toconst -->
<g id="node19" class="node">
<title>Arrow_transport_arrow_toconst</title>
<g id="a_node19"><a xlink:href="Arrow.html#transport_arrow_toconst" xlink:title="transport_arrow_toconst">
<ellipse fill="#f070d1" stroke="black" cx="844" cy="-892.8" rx="124.58" ry="18"/>
<text text-anchor="middle" x="844" y="-889.1" font-family="Times,serif" font-size="14.00">transport_arrow_toconst</text>
</a>
</g>
</g>
<!-- Arrow_ap_transport_arrow_toconst&#45;&gt;Arrow_transport_arrow_toconst -->
<g id="edge9" class="edge">
<title>Arrow_ap_transport_arrow_toconst&#45;&gt;Arrow_transport_arrow_toconst</title>
<path fill="none" stroke="black" d="M844,-1234.65C844,-1168.42 844,-989.64 844,-921.08"/>
<polygon fill="black" stroke="black" points="847.5,-921.06 844,-911.06 840.5,-921.06 847.5,-921.06"/>
</g>
<!-- Arrow_transport_arrow_fromconst -->
<g id="node18" class="node">
<title>Arrow_transport_arrow_fromconst</title>
<g id="a_node18"><a xlink:href="Arrow.html#transport_arrow_fromconst" xlink:title="transport_arrow_fromconst">
<ellipse fill="#f070d1" stroke="black" cx="532" cy="-1260.8" rx="137.59" ry="18"/>
<ellipse fill="none" stroke="black" cx="532" cy="-1260.8" rx="141.58" ry="22"/>
<ellipse fill="none" stroke="black" cx="532" cy="-1260.8" rx="145.58" ry="26"/>
<text text-anchor="middle" x="532" y="-1257.1" font-family="Times,serif" font-size="14.00">transport_arrow_fromconst</text>
</a>
</g>
</g>
<!-- Arrow_path_arrow_pp -->
<g id="node21" class="node">
<title>Arrow_path_arrow_pp</title>
<g id="a_node21"><a xlink:href="Arrow.html#path_arrow_pp" xlink:title="path_arrow_pp">
<ellipse fill="#f070d1" stroke="black" cx="1124" cy="-524.8" rx="79.11" ry="18"/>
<ellipse fill="none" stroke="black" cx="1124" cy="-524.8" rx="83.1" ry="22"/>
<ellipse fill="none" stroke="black" cx="1124" cy="-524.8" rx="87.09" ry="26"/>
<text text-anchor="middle" x="1124" y="-521.1" font-family="Times,serif" font-size="14.00">path_arrow_pp</text>
</a>
</g>
</g>
<!-- Arrow_path_arrow_pp&#45;&gt;Arrow_path_arrow -->
<g id="edge10" class="edge">
<title>Arrow_path_arrow_pp&#45;&gt;Arrow_path_arrow</title>
<path fill="none" stroke="black" d="M1116.65,-498.65C1097.24,-432.28 1044.8,-252.91 1024.85,-184.66"/>
<polygon fill="black" stroke="black" points="1028.21,-183.67 1022.04,-175.06 1021.49,-185.64 1028.21,-183.67"/>
</g>
<!-- Arrow_isequiv_path_arrow -->
<g id="node23" class="node">
<title>Arrow_isequiv_path_arrow</title>
<g id="a_node23"><a xlink:href="Arrow.html#isequiv_path_arrow" xlink:title="isequiv_path_arrow">
<ellipse fill="#f070d1" stroke="black" cx="910" cy="-524.8" rx="100.96" ry="18"/>
<ellipse fill="none" stroke="black" cx="910" cy="-524.8" rx="104.97" ry="22"/>
<ellipse fill="none" stroke="black" cx="910" cy="-524.8" rx="108.98" ry="26"/>
<text text-anchor="middle" x="910" y="-521.1" font-family="Times,serif" font-size="14.00">isequiv_path_arrow</text>
</a>
</g>
</g>
<!-- Arrow_isequiv_path_arrow&#45;&gt;Arrow_path_arrow -->
<g id="edge11" class="edge">
<title>Arrow_isequiv_path_arrow&#45;&gt;Arrow_path_arrow</title>
<path fill="none" stroke="black" d="M917.35,-498.65C936.76,-432.28 989.2,-252.91 1009.15,-184.66"/>
<polygon fill="black" stroke="black" points="1012.51,-185.64 1011.96,-175.06 1005.79,-183.67 1012.51,-185.64"/>
</g>
<!-- Arrow_equiv_ap10 -->
<g id="node24" class="node">
<title>Arrow_equiv_ap10</title>
<g id="a_node24"><a xlink:href="Arrow.html#equiv_ap10" xlink:title="equiv_ap10">
<ellipse fill="#f070d1" stroke="black" cx="297" cy="-1260.8" rx="63.87" ry="18"/>
<ellipse fill="none" stroke="black" cx="297" cy="-1260.8" rx="67.88" ry="22"/>
<ellipse fill="none" stroke="black" cx="297" cy="-1260.8" rx="71.89" ry="26"/>
<text text-anchor="middle" x="297" y="-1257.1" font-family="Times,serif" font-size="14.00">equiv_ap10</text>
</a>
</g>
</g>
<!-- Arrow_eta_path_arrow -->
<g id="node26" class="node">
<title>Arrow_eta_path_arrow</title>
<g id="a_node26"><a xlink:href="Arrow.html#eta_path_arrow" xlink:title="eta_path_arrow">
<ellipse fill="#f070d1" stroke="black" cx="1515" cy="-524.8" rx="82.59" ry="18"/>
<text text-anchor="middle" x="1515" y="-521.1" font-family="Times,serif" font-size="14.00">eta_path_arrow</text>
</a>
</g>
</g>
<!-- Arrow_path_arrow_1&#45;&gt;Arrow_eta_path_arrow -->
<g id="edge12" class="edge">
<title>Arrow_path_arrow_1&#45;&gt;Arrow_eta_path_arrow</title>
<path fill="none" stroke="black" d="M1712.29,-874.64C1679.02,-815.8 1569.42,-622.02 1529.61,-551.64"/>
<polygon fill="black" stroke="black" points="1532.65,-549.91 1524.69,-542.93 1526.56,-553.35 1532.65,-549.91"/>
</g>
<!-- Arrow_eta_path_arrow&#45;&gt;Arrow_path_arrow -->
<g id="edge13" class="edge">
<title>Arrow_eta_path_arrow&#45;&gt;Arrow_path_arrow</title>
<path fill="none" stroke="black" d="M1492.63,-507.37C1412.33,-448.34 1138.46,-247.07 1047.01,-179.86"/>
<polygon fill="black" stroke="black" points="1048.87,-176.88 1038.74,-173.78 1044.73,-182.52 1048.87,-176.88"/>
</g>
<!-- Arrow_ap10_path_forall -->
<g id="node27" class="node">
<title>Arrow_ap10_path_forall</title>
<g id="a_node27"><a xlink:href="Arrow.html#ap10_path_forall" xlink:title="ap10_path_forall">
<ellipse fill="#f070d1" stroke="black" cx="112" cy="-1260.8" rx="87.96" ry="18"/>
<ellipse fill="none" stroke="black" cx="112" cy="-1260.8" rx="91.97" ry="22"/>
<ellipse fill="none" stroke="black" cx="112" cy="-1260.8" rx="95.99" ry="26"/>
<text text-anchor="middle" x="112" y="-1257.1" font-family="Times,serif" font-size="14.00">ap10_path_forall</text>
</a>
</g>
</g>
<!-- Arrow_apD10_path_arrow -->
<g id="node28" class="node">
<title>Arrow_apD10_path_arrow</title>
<g id="a_node28"><a xlink:href="Arrow.html#apD10_path_arrow" xlink:title="apD10_path_arrow">
<ellipse fill="#f070d1" stroke="black" cx="677" cy="-524.8" rx="98.27" ry="18"/>
<ellipse fill="none" stroke="black" cx="677" cy="-524.8" rx="102.28" ry="22"/>
<ellipse fill="none" stroke="black" cx="677" cy="-524.8" rx="106.28" ry="26"/>
<text text-anchor="middle" x="677" y="-521.1" font-family="Times,serif" font-size="14.00">apD10_path_arrow</text>
</a>
</g>
</g>
<!-- Arrow_apD10_path_arrow&#45;&gt;Arrow_path_arrow -->
<g id="edge14" class="edge">
<title>Arrow_apD10_path_arrow&#45;&gt;Arrow_path_arrow</title>
<path fill="none" stroke="black" d="M699.84,-499.22C761.93,-432.38 933.3,-247.9 994.73,-181.78"/>
<polygon fill="black" stroke="black" points="997.42,-184.03 1001.66,-174.32 992.29,-179.26 997.42,-184.03"/>
</g>
<!-- Arrow_ap10_path_arrow -->
<g id="node29" class="node">
<title>Arrow_ap10_path_arrow</title>
<g id="a_node29"><a xlink:href="Arrow.html#ap10_path_arrow" xlink:title="ap10_path_arrow">
<ellipse fill="#f070d1" stroke="black" cx="454" cy="-524.8" rx="90.98" ry="18"/>
<ellipse fill="none" stroke="black" cx="454" cy="-524.8" rx="94.98" ry="22"/>
<ellipse fill="none" stroke="black" cx="454" cy="-524.8" rx="98.98" ry="26"/>
<text text-anchor="middle" x="454" y="-521.1" font-family="Times,serif" font-size="14.00">ap10_path_arrow</text>
</a>
</g>
</g>
<!-- Arrow_ap10_path_arrow&#45;&gt;Arrow_path_arrow -->
<g id="edge15" class="edge">
<title>Arrow_ap10_path_arrow&#45;&gt;Arrow_path_arrow</title>
<path fill="none" stroke="black" d="M490.07,-500.35C592.69,-433.64 885.15,-243.52 983.94,-179.3"/>
<polygon fill="black" stroke="black" points="986.13,-182.04 992.61,-173.66 982.32,-176.17 986.13,-182.04"/>
</g>
</g>
</svg>
