<?xml version="1.0" encoding="UTF-8" standalone="no"?>
<!DOCTYPE svg PUBLIC "-//W3C//DTD SVG 1.1//EN"
 "http://www.w3.org/Graphics/SVG/1.1/DTD/svg11.dtd">
<!-- Generated by graphviz version 2.43.0 (0)
 -->
<!-- Title: HoTT_Truncations_Core Pages: 1 -->
<svg width="2381pt" height="1186pt"
 viewBox="0.00 0.00 2381.44 1185.50" xmlns="http://www.w3.org/2000/svg" xmlns:xlink="http://www.w3.org/1999/xlink">
<g id="graph0" class="graph" transform="scale(1 1) rotate(0) translate(4 1181.5)">
<title>HoTT_Truncations_Core</title>
<polygon fill="white" stroke="transparent" points="-4,4 -4,-1181.5 2377.44,-1181.5 2377.44,4 -4,4"/>
<g id="clust1" class="cluster">
<title>cluster_Core</title>
<polygon fill="#ffffc3" stroke="black" points="8,-14.06 8,-1163.44 2347,-1163.44 2347,-14.06 8,-14.06"/>
<text text-anchor="middle" x="33" y="-1148.24" font-family="Times,serif" font-size="14.00">Core</text>
</g>
<g id="clust2" class="cluster">
<title>cluster_Core_Trunc</title>
<polygon fill="#ffffa3" stroke="black" points="1212,-28.12 1212,-286.47 1552,-286.47 1552,-28.12 1212,-28.12"/>
<text text-anchor="middle" x="1241" y="-271.27" font-family="Times,serif" font-size="14.00">Trunc</text>
</g>
<!-- Core_Trunc_Trunc_ind -->
<g id="node1" class="node">
<title>Core_Trunc_Trunc_ind</title>
<g id="a_node1"><a xlink:href="Core.html#Trunc.Trunc_ind" xlink:title="Trunc_ind">
<ellipse fill="#f070d1" stroke="black" cx="1487" cy="-200.06" rx="56.59" ry="18"/>
<text text-anchor="middle" x="1487" y="-196.36" font-family="Times,serif" font-size="14.00">Trunc_ind</text>
</a>
</g>
</g>
<!-- Core_Trunc_tr -->
<g id="node3" class="node">
<title>Core_Trunc_tr</title>
<g id="a_node3"><a xlink:href="Core.html#Trunc.tr" xlink:title="tr">
<ellipse fill="#7faaff" stroke="black" cx="1487" cy="-74.06" rx="27" ry="18"/>
<text text-anchor="middle" x="1487" y="-70.36" font-family="Times,serif" font-size="14.00">tr</text>
</a>
</g>
</g>
<!-- Core_Trunc_Trunc_ind&#45;&gt;Core_Trunc_tr -->
<g id="edge1" class="edge">
<title>Core_Trunc_Trunc_ind&#45;&gt;Core_Trunc_tr</title>
<path fill="none" stroke="black" d="M1487,-181.82C1487,-161.27 1487,-126.69 1487,-102.47"/>
<polygon fill="black" stroke="black" points="1490.5,-102.15 1487,-92.15 1483.5,-102.15 1490.5,-102.15"/>
</g>
<!-- Core_Trunc_Trunc -->
<g id="node4" class="node">
<title>Core_Trunc_Trunc</title>
<g id="a_node4"><a xlink:href="Core.html#Trunc.Trunc" xlink:title="Trunc">
<ellipse fill="#e2cdfa" stroke="black" cx="1360" cy="-74.06" rx="37.89" ry="18"/>
<text text-anchor="middle" x="1360" y="-70.36" font-family="Times,serif" font-size="14.00">Trunc</text>
</a>
</g>
</g>
<!-- Core_Trunc_Trunc_ind&#45;&gt;Core_Trunc_Trunc -->
<g id="edge2" class="edge">
<title>Core_Trunc_Trunc_ind&#45;&gt;Core_Trunc_Trunc</title>
<path fill="none" stroke="black" d="M1470.4,-182.85C1448.1,-161.07 1408.36,-122.28 1383.13,-97.65"/>
<polygon fill="black" stroke="black" points="1385.41,-94.98 1375.81,-90.49 1380.52,-99.98 1385.41,-94.98"/>
</g>
<!-- Core_Trunc_istrunc_truncation -->
<g id="node2" class="node">
<title>Core_Trunc_istrunc_truncation</title>
<g id="a_node2"><a xlink:href="Core.html#Trunc.istrunc_truncation" xlink:title="istrunc_truncation">
<ellipse fill="#facdef" stroke="black" cx="1316" cy="-200.06" rx="96.38" ry="18"/>
<text text-anchor="middle" x="1316" y="-196.36" font-family="Times,serif" font-size="14.00">istrunc_truncation</text>
</a>
</g>
</g>
<!-- Core_Trunc_istrunc_truncation&#45;&gt;Core_Trunc_Trunc -->
<g id="edge3" class="edge">
<title>Core_Trunc_istrunc_truncation&#45;&gt;Core_Trunc_Trunc</title>
<path fill="none" stroke="black" d="M1322.03,-182.08C1329.4,-161.3 1341.96,-125.89 1350.61,-101.53"/>
<polygon fill="black" stroke="black" points="1354,-102.43 1354.05,-91.84 1347.4,-100.09 1354,-102.43"/>
</g>
<!-- Core_equiv_path_Tr -->
<g id="node5" class="node">
<title>Core_equiv_path_Tr</title>
<g id="a_node5"><a xlink:href="Core.html#equiv_path_Tr" xlink:title="equiv_path_Tr">
<ellipse fill="#f070d1" stroke="black" cx="921" cy="-1063.06" rx="76.08" ry="18"/>
<ellipse fill="none" stroke="black" cx="921" cy="-1063.06" rx="80.08" ry="22"/>
<ellipse fill="none" stroke="black" cx="921" cy="-1063.06" rx="84.09" ry="26"/>
<text text-anchor="middle" x="921" y="-1059.36" font-family="Times,serif" font-size="14.00">equiv_path_Tr</text>
</a>
</g>
</g>
<!-- Core_O_lex_leq_Tr -->
<g id="node7" class="node">
<title>Core_O_lex_leq_Tr</title>
<g id="a_node7"><a xlink:href="Core.html#O_lex_leq_Tr" xlink:title="O_lex_leq_Tr">
<ellipse fill="#f070d1" stroke="black" cx="1036" cy="-923.06" rx="69.59" ry="18"/>
<text text-anchor="middle" x="1036" y="-919.36" font-family="Times,serif" font-size="14.00">O_lex_leq_Tr</text>
</a>
</g>
</g>
<!-- Core_equiv_path_Tr&#45;&gt;Core_O_lex_leq_Tr -->
<g id="edge4" class="edge">
<title>Core_equiv_path_Tr&#45;&gt;Core_O_lex_leq_Tr</title>
<path fill="none" stroke="black" d="M941.29,-1037.71C962.15,-1012.68 994.45,-973.92 1015.41,-948.77"/>
<polygon fill="black" stroke="black" points="1018.34,-950.72 1022.05,-940.8 1012.96,-946.24 1018.34,-950.72"/>
</g>
<!-- Core_O_eq_Tr -->
<g id="node10" class="node">
<title>Core_O_eq_Tr</title>
<g id="a_node10"><a xlink:href="Core.html#O_eq_Tr" xlink:title="O_eq_Tr">
<ellipse fill="#f070d1" stroke="black" cx="954" cy="-627.06" rx="48.19" ry="18"/>
<text text-anchor="middle" x="954" y="-623.36" font-family="Times,serif" font-size="14.00">O_eq_Tr</text>
</a>
</g>
</g>
<!-- Core_equiv_path_Tr&#45;&gt;Core_O_eq_Tr -->
<g id="edge5" class="edge">
<title>Core_equiv_path_Tr&#45;&gt;Core_O_eq_Tr</title>
<path fill="none" stroke="black" d="M900.26,-1037.75C858.15,-985.31 770.29,-858.01 815,-756.06 836.23,-707.66 885.78,-669.48 919.61,-647.83"/>
<polygon fill="black" stroke="black" points="921.64,-650.69 928.27,-642.43 917.93,-644.75 921.64,-650.69"/>
</g>
<!-- Core_path_Tr -->
<g id="node6" class="node">
<title>Core_path_Tr</title>
<g id="a_node6"><a xlink:href="Core.html#path_Tr" xlink:title="path_Tr">
<ellipse fill="#f070d1" stroke="black" cx="878" cy="-782.06" rx="46.27" ry="18"/>
<ellipse fill="none" stroke="black" cx="878" cy="-782.06" rx="50.28" ry="22"/>
<ellipse fill="none" stroke="black" cx="878" cy="-782.06" rx="54.29" ry="26"/>
<text text-anchor="middle" x="878" y="-778.36" font-family="Times,serif" font-size="14.00">path_Tr</text>
</a>
</g>
</g>
<!-- Core_path_Tr&#45;&gt;Core_O_eq_Tr -->
<g id="edge6" class="edge">
<title>Core_path_Tr&#45;&gt;Core_O_eq_Tr</title>
<path fill="none" stroke="black" d="M890.21,-756.48C904.16,-728.4 926.88,-682.65 941.11,-654.01"/>
<polygon fill="black" stroke="black" points="944.27,-655.51 945.58,-645 938,-652.4 944.27,-655.51"/>
</g>
<!-- Core_O_strong_leq_Tr -->
<g id="node8" class="node">
<title>Core_O_strong_leq_Tr</title>
<g id="a_node8"><a xlink:href="Core.html#O_strong_leq_Tr" xlink:title="O_strong_leq_Tr">
<ellipse fill="#f070d1" stroke="black" cx="1036" cy="-782.06" rx="85.59" ry="18"/>
<text text-anchor="middle" x="1036" y="-778.36" font-family="Times,serif" font-size="14.00">O_strong_leq_Tr</text>
</a>
</g>
</g>
<!-- Core_O_lex_leq_Tr&#45;&gt;Core_O_strong_leq_Tr -->
<g id="edge7" class="edge">
<title>Core_O_lex_leq_Tr&#45;&gt;Core_O_strong_leq_Tr</title>
<path fill="none" stroke="black" d="M1036,-905.02C1036,-881.46 1036,-838.7 1036,-810.59"/>
<polygon fill="black" stroke="black" points="1039.5,-810.24 1036,-800.24 1032.5,-810.24 1039.5,-810.24"/>
</g>
<!-- Core_Trunc_rec -->
<g id="node38" class="node">
<title>Core_Trunc_rec</title>
<g id="a_node38"><a xlink:href="Core.html#Trunc_rec" xlink:title="Trunc_rec">
<ellipse fill="#f070d1" stroke="black" cx="1419" cy="-782.06" rx="56.59" ry="18"/>
<text text-anchor="middle" x="1419" y="-778.36" font-family="Times,serif" font-size="14.00">Trunc_rec</text>
</a>
</g>
</g>
<!-- Core_O_lex_leq_Tr&#45;&gt;Core_Trunc_rec -->
<g id="edge8" class="edge">
<title>Core_O_lex_leq_Tr&#45;&gt;Core_Trunc_rec</title>
<path fill="none" stroke="black" d="M1075.61,-908.06C1135.7,-886.76 1253.42,-844.82 1353,-808.06 1359.95,-805.49 1367.31,-802.74 1374.48,-800.04"/>
<polygon fill="black" stroke="black" points="1375.99,-803.21 1384.1,-796.4 1373.51,-796.66 1375.99,-803.21"/>
</g>
<!-- Core_O_leq_Tr -->
<g id="node9" class="node">
<title>Core_O_leq_Tr</title>
<g id="a_node9"><a xlink:href="Core.html#O_leq_Tr" xlink:title="O_leq_Tr">
<ellipse fill="#f070d1" stroke="black" cx="1071" cy="-627.06" rx="51.19" ry="18"/>
<text text-anchor="middle" x="1071" y="-623.36" font-family="Times,serif" font-size="14.00">O_leq_Tr</text>
</a>
</g>
</g>
<!-- Core_O_strong_leq_Tr&#45;&gt;Core_O_leq_Tr -->
<g id="edge9" class="edge">
<title>Core_O_strong_leq_Tr&#45;&gt;Core_O_leq_Tr</title>
<path fill="none" stroke="black" d="M1039.95,-763.81C1046.02,-737.27 1057.7,-686.21 1064.87,-654.84"/>
<polygon fill="black" stroke="black" points="1068.3,-655.55 1067.12,-645.02 1061.48,-653.98 1068.3,-655.55"/>
</g>
<!-- Core_istrunc_inO_tr -->
<g id="node24" class="node">
<title>Core_istrunc_inO_tr</title>
<g id="a_node24"><a xlink:href="Core.html#istrunc_inO_tr" xlink:title="istrunc_inO_tr">
<ellipse fill="#f070d1" stroke="black" cx="1538" cy="-473.06" rx="76.89" ry="18"/>
<text text-anchor="middle" x="1538" y="-469.36" font-family="Times,serif" font-size="14.00">istrunc_inO_tr</text>
</a>
</g>
</g>
<!-- Core_O_leq_Tr&#45;&gt;Core_istrunc_inO_tr -->
<g id="edge10" class="edge">
<title>Core_O_leq_Tr&#45;&gt;Core_istrunc_inO_tr</title>
<path fill="none" stroke="black" d="M1103.59,-613.08C1113.91,-609.09 1125.39,-604.77 1136,-601.06 1258.73,-558.12 1404.71,-513.61 1482.57,-490.4"/>
<polygon fill="black" stroke="black" points="1483.6,-493.75 1492.18,-487.54 1481.6,-487.04 1483.6,-493.75"/>
</g>
<!-- Core_inO_tr_istrunc -->
<g id="node25" class="node">
<title>Core_inO_tr_istrunc</title>
<g id="a_node25"><a xlink:href="Core.html#inO_tr_istrunc" xlink:title="inO_tr_istrunc">
<ellipse fill="#f070d1" stroke="black" cx="1242" cy="-473.06" rx="76.89" ry="18"/>
<text text-anchor="middle" x="1242" y="-469.36" font-family="Times,serif" font-size="14.00">inO_tr_istrunc</text>
</a>
</g>
</g>
<!-- Core_O_leq_Tr&#45;&gt;Core_inO_tr_istrunc -->
<g id="edge11" class="edge">
<title>Core_O_leq_Tr&#45;&gt;Core_inO_tr_istrunc</title>
<path fill="none" stroke="black" d="M1088.98,-610.08C1119.27,-583.15 1180.61,-528.63 1215.73,-497.41"/>
<polygon fill="black" stroke="black" points="1218.08,-500 1223.23,-490.75 1213.43,-494.77 1218.08,-500"/>
</g>
<!-- Core_O_eq_Tr&#45;&gt;Core_istrunc_inO_tr -->
<g id="edge12" class="edge">
<title>Core_O_eq_Tr&#45;&gt;Core_istrunc_inO_tr</title>
<path fill="none" stroke="black" d="M982.3,-612.41C991.33,-608.39 1001.46,-604.22 1011,-601.06 1201.94,-537.72 1257.34,-549.82 1452,-499.06 1462.03,-496.44 1472.68,-493.49 1482.93,-490.56"/>
<polygon fill="black" stroke="black" points="1483.97,-493.9 1492.61,-487.77 1482.03,-487.18 1483.97,-493.9"/>
</g>
<!-- Core_O_eq_Tr&#45;&gt;Core_inO_tr_istrunc -->
<g id="edge13" class="edge">
<title>Core_O_eq_Tr&#45;&gt;Core_inO_tr_istrunc</title>
<path fill="none" stroke="black" d="M980.58,-612.03C1031.6,-585.1 1143.47,-526.06 1202.98,-494.65"/>
<polygon fill="black" stroke="black" points="1204.85,-497.62 1212.06,-489.86 1201.58,-491.43 1204.85,-497.62"/>
</g>
<!-- Core_Trunc_swap -->
<g id="node11" class="node">
<title>Core_Trunc_swap</title>
<g id="a_node11"><a xlink:href="Core.html#Trunc_swap" xlink:title="Trunc_swap">
<ellipse fill="#f070d1" stroke="black" cx="1419" cy="-1063.06" rx="65.77" ry="18"/>
<ellipse fill="none" stroke="black" cx="1419" cy="-1063.06" rx="69.78" ry="22"/>
<ellipse fill="none" stroke="black" cx="1419" cy="-1063.06" rx="73.79" ry="26"/>
<text text-anchor="middle" x="1419" y="-1059.36" font-family="Times,serif" font-size="14.00">Trunc_swap</text>
</a>
</g>
</g>
<!-- Core_Trunc_min -->
<g id="node12" class="node">
<title>Core_Trunc_min</title>
<g id="a_node12"><a xlink:href="Core.html#Trunc_min" xlink:title="Trunc_min">
<ellipse fill="#f070d1" stroke="black" cx="1419" cy="-923.06" rx="59.59" ry="18"/>
<text text-anchor="middle" x="1419" y="-919.36" font-family="Times,serif" font-size="14.00">Trunc_min</text>
</a>
</g>
</g>
<!-- Core_Trunc_swap&#45;&gt;Core_Trunc_min -->
<g id="edge14" class="edge">
<title>Core_Trunc_swap&#45;&gt;Core_Trunc_min</title>
<path fill="none" stroke="black" d="M1419,-1036.75C1419,-1012.62 1419,-976.38 1419,-951.55"/>
<polygon fill="black" stroke="black" points="1422.5,-951.35 1419,-941.35 1415.5,-951.35 1422.5,-951.35"/>
</g>
<!-- Core_Trunc_min&#45;&gt;Core_istrunc_inO_tr -->
<g id="edge15" class="edge">
<title>Core_Trunc_min&#45;&gt;Core_istrunc_inO_tr</title>
<path fill="none" stroke="black" d="M1363.51,-916.2C1299.83,-906.19 1198.14,-879.33 1151,-808.06 1125.63,-769.69 1124.02,-638.31 1151,-601.06 1161.05,-587.19 1377.56,-521.57 1482.26,-490.48"/>
<polygon fill="black" stroke="black" points="1483.44,-493.78 1492.03,-487.58 1481.45,-487.06 1483.44,-493.78"/>
</g>
<!-- Core_equiv_tr -->
<g id="node34" class="node">
<title>Core_equiv_tr</title>
<g id="a_node34"><a xlink:href="Core.html#equiv_tr" xlink:title="equiv_tr">
<ellipse fill="#f070d1" stroke="black" cx="1542" cy="-782.06" rx="48.99" ry="18"/>
<text text-anchor="middle" x="1542" y="-778.36" font-family="Times,serif" font-size="14.00">equiv_tr</text>
</a>
</g>
</g>
<!-- Core_Trunc_min&#45;&gt;Core_equiv_tr -->
<g id="edge16" class="edge">
<title>Core_Trunc_min&#45;&gt;Core_equiv_tr</title>
<path fill="none" stroke="black" d="M1433.59,-905.57C1455.14,-881.22 1495.59,-835.5 1520.53,-807.32"/>
<polygon fill="black" stroke="black" points="1523.42,-809.34 1527.43,-799.53 1518.18,-804.7 1523.42,-809.34"/>
</g>
<!-- Core_Trunc_min&#45;&gt;Core_Trunc_rec -->
<g id="edge17" class="edge">
<title>Core_Trunc_min&#45;&gt;Core_Trunc_rec</title>
<path fill="none" stroke="black" d="M1419,-905.02C1419,-881.46 1419,-838.7 1419,-810.59"/>
<polygon fill="black" stroke="black" points="1422.5,-810.24 1419,-800.24 1415.5,-810.24 1422.5,-810.24"/>
</g>
<!-- Core_isequiv_surj_emb -->
<g id="node13" class="node">
<title>Core_isequiv_surj_emb</title>
<g id="a_node13"><a xlink:href="Core.html#isequiv_surj_emb" xlink:title="isequiv_surj_emb">
<ellipse fill="#f070d1" stroke="black" cx="1732" cy="-473.06" rx="90.98" ry="18"/>
<ellipse fill="none" stroke="black" cx="1732" cy="-473.06" rx="94.98" ry="22"/>
<ellipse fill="none" stroke="black" cx="1732" cy="-473.06" rx="98.98" ry="26"/>
<text text-anchor="middle" x="1732" y="-469.36" font-family="Times,serif" font-size="14.00">isequiv_surj_emb</text>
</a>
</g>
</g>
<!-- Core_Tr -->
<g id="node37" class="node">
<title>Core_Tr</title>
<g id="a_node37"><a xlink:href="Core.html#Tr" xlink:title="Tr">
<ellipse fill="#f070d1" stroke="black" cx="1316" cy="-332.06" rx="27" ry="18"/>
<text text-anchor="middle" x="1316" y="-328.36" font-family="Times,serif" font-size="14.00">Tr</text>
</a>
</g>
</g>
<!-- Core_isequiv_surj_emb&#45;&gt;Core_Tr -->
<g id="edge18" class="edge">
<title>Core_isequiv_surj_emb&#45;&gt;Core_Tr</title>
<path fill="none" stroke="black" d="M1672.4,-452.14C1583.75,-422.52 1420.05,-367.83 1349.64,-344.3"/>
<polygon fill="black" stroke="black" points="1350.54,-340.91 1339.95,-341.06 1348.33,-347.55 1350.54,-340.91"/>
</g>
<!-- Core_equiv_merely_issurjection -->
<g id="node14" class="node">
<title>Core_equiv_merely_issurjection</title>
<g id="a_node14"><a xlink:href="Core.html#equiv_merely_issurjection" xlink:title="equiv_merely_issurjection">
<ellipse fill="#f070d1" stroke="black" cx="435" cy="-782.06" rx="131.09" ry="18"/>
<ellipse fill="none" stroke="black" cx="435" cy="-782.06" rx="135.08" ry="22"/>
<ellipse fill="none" stroke="black" cx="435" cy="-782.06" rx="139.08" ry="26"/>
<text text-anchor="middle" x="435" y="-778.36" font-family="Times,serif" font-size="14.00">equiv_merely_issurjection</text>
</a>
</g>
</g>
<!-- Core_iff_merely_issurjection -->
<g id="node15" class="node">
<title>Core_iff_merely_issurjection</title>
<g id="a_node15"><a xlink:href="Core.html#iff_merely_issurjection" xlink:title="iff_merely_issurjection">
<ellipse fill="#f070d1" stroke="black" cx="435" cy="-627.06" rx="115.08" ry="18"/>
<text text-anchor="middle" x="435" y="-623.36" font-family="Times,serif" font-size="14.00">iff_merely_issurjection</text>
</a>
</g>
</g>
<!-- Core_equiv_merely_issurjection&#45;&gt;Core_iff_merely_issurjection -->
<g id="edge19" class="edge">
<title>Core_equiv_merely_issurjection&#45;&gt;Core_iff_merely_issurjection</title>
<path fill="none" stroke="black" d="M435,-755.79C435,-728.1 435,-683.82 435,-655.35"/>
<polygon fill="black" stroke="black" points="438.5,-655.28 435,-645.28 431.5,-655.28 438.5,-655.28"/>
</g>
<!-- Core_merely -->
<g id="node21" class="node">
<title>Core_merely</title>
<g id="a_node21"><a xlink:href="Core.html#merely" xlink:title="merely">
<ellipse fill="#f070d1" stroke="black" cx="59" cy="-473.06" rx="42.79" ry="18"/>
<text text-anchor="middle" x="59" y="-469.36" font-family="Times,serif" font-size="14.00">merely</text>
</a>
</g>
</g>
<!-- Core_iff_merely_issurjection&#45;&gt;Core_merely -->
<g id="edge20" class="edge">
<title>Core_iff_merely_issurjection&#45;&gt;Core_merely</title>
<path fill="none" stroke="black" d="M391.87,-610.32C329.38,-587.26 210.28,-542.31 111,-499.06 105.78,-496.78 100.31,-494.29 94.96,-491.78"/>
<polygon fill="black" stroke="black" points="96.08,-488.43 85.54,-487.29 93.07,-494.75 96.08,-488.43"/>
</g>
<!-- Core_BuildIsSurjection -->
<g id="node16" class="node">
<title>Core_BuildIsSurjection</title>
<g id="a_node16"><a xlink:href="Core.html#BuildIsSurjection" xlink:title="BuildIsSurjection">
<ellipse fill="#f070d1" stroke="black" cx="203" cy="-627.06" rx="90.98" ry="18"/>
<ellipse fill="none" stroke="black" cx="203" cy="-627.06" rx="94.98" ry="22"/>
<ellipse fill="none" stroke="black" cx="203" cy="-627.06" rx="98.98" ry="26"/>
<text text-anchor="middle" x="203" y="-623.36" font-family="Times,serif" font-size="14.00">BuildIsSurjection</text>
</a>
</g>
</g>
<!-- Core_BuildIsSurjection&#45;&gt;Core_merely -->
<g id="edge21" class="edge">
<title>Core_BuildIsSurjection&#45;&gt;Core_merely</title>
<path fill="none" stroke="black" d="M179.86,-601.64C152.69,-572.95 107.92,-525.69 81.17,-497.46"/>
<polygon fill="black" stroke="black" points="83.55,-494.88 74.13,-490.03 78.46,-499.69 83.55,-494.88"/>
</g>
<!-- Core_contr_inhab_prop -->
<g id="node17" class="node">
<title>Core_contr_inhab_prop</title>
<g id="a_node17"><a xlink:href="Core.html#contr_inhab_prop" xlink:title="contr_inhab_prop">
<ellipse fill="#f070d1" stroke="black" cx="789" cy="-627.06" rx="90.98" ry="18"/>
<ellipse fill="none" stroke="black" cx="789" cy="-627.06" rx="94.98" ry="22"/>
<ellipse fill="none" stroke="black" cx="789" cy="-627.06" rx="98.98" ry="26"/>
<text text-anchor="middle" x="789" y="-623.36" font-family="Times,serif" font-size="14.00">contr_inhab_prop</text>
</a>
</g>
</g>
<!-- Core_contr_inhab_prop&#45;&gt;Core_merely -->
<g id="edge22" class="edge">
<title>Core_contr_inhab_prop&#45;&gt;Core_merely</title>
<path fill="none" stroke="black" d="M717.66,-609.01C705.45,-606.25 692.88,-603.5 681,-601.06 428.89,-549.36 355.88,-578.21 111,-499.06 105.2,-497.18 99.22,-494.79 93.47,-492.22"/>
<polygon fill="black" stroke="black" points="94.63,-488.9 84.09,-487.81 91.65,-495.24 94.63,-488.9"/>
</g>
<!-- Core_contr_inhab_prop&#45;&gt;Core_inO_tr_istrunc -->
<g id="edge23" class="edge">
<title>Core_contr_inhab_prop&#45;&gt;Core_inO_tr_istrunc</title>
<path fill="none" stroke="black" d="M848.22,-606.19C937.62,-576.19 1105.55,-519.84 1190.29,-491.41"/>
<polygon fill="black" stroke="black" points="1191.59,-494.67 1199.96,-488.17 1189.36,-488.03 1191.59,-494.67"/>
</g>
<!-- Core_himage -->
<g id="node18" class="node">
<title>Core_himage</title>
<g id="a_node18"><a xlink:href="Core.html#himage" xlink:title="himage">
<ellipse fill="#f070d1" stroke="black" cx="1390" cy="-473.06" rx="44.72" ry="18"/>
<ellipse fill="none" stroke="black" cx="1390" cy="-473.06" rx="48.7" ry="22"/>
<ellipse fill="none" stroke="black" cx="1390" cy="-473.06" rx="52.69" ry="26"/>
<text text-anchor="middle" x="1390" y="-469.36" font-family="Times,serif" font-size="14.00">himage</text>
</a>
</g>
</g>
<!-- Core_himage&#45;&gt;Core_Tr -->
<g id="edge24" class="edge">
<title>Core_himage&#45;&gt;Core_Tr</title>
<path fill="none" stroke="black" d="M1376.94,-447.53C1363.62,-422.51 1343.05,-383.87 1329.56,-358.52"/>
<polygon fill="black" stroke="black" points="1332.55,-356.7 1324.76,-349.51 1326.37,-359.98 1332.55,-356.7"/>
</g>
<!-- Core_hor -->
<g id="node19" class="node">
<title>Core_hor</title>
<g id="a_node19"><a xlink:href="Core.html#hor" xlink:title="hor">
<ellipse fill="#f070d1" stroke="black" cx="51" cy="-627.06" rx="27" ry="18"/>
<ellipse fill="none" stroke="black" cx="51" cy="-627.06" rx="31" ry="22"/>
<ellipse fill="none" stroke="black" cx="51" cy="-627.06" rx="35" ry="26"/>
<text text-anchor="middle" x="51" y="-623.36" font-family="Times,serif" font-size="14.00">hor</text>
</a>
</g>
</g>
<!-- Core_hor&#45;&gt;Core_merely -->
<g id="edge25" class="edge">
<title>Core_hor&#45;&gt;Core_merely</title>
<path fill="none" stroke="black" d="M52.32,-600.96C53.77,-573.45 56.08,-529.46 57.57,-501.17"/>
<polygon fill="black" stroke="black" points="61.07,-501.33 58.1,-491.16 54.08,-500.97 61.07,-501.33"/>
</g>
<!-- Core_hexists -->
<g id="node20" class="node">
<title>Core_hexists</title>
<g id="a_node20"><a xlink:href="Core.html#hexists" xlink:title="hexists">
<ellipse fill="#f070d1" stroke="black" cx="620" cy="-627.06" rx="44.36" ry="18"/>
<ellipse fill="none" stroke="black" cx="620" cy="-627.06" rx="48.38" ry="22"/>
<ellipse fill="none" stroke="black" cx="620" cy="-627.06" rx="52.39" ry="26"/>
<text text-anchor="middle" x="620" y="-623.36" font-family="Times,serif" font-size="14.00">hexists</text>
</a>
</g>
</g>
<!-- Core_hexists&#45;&gt;Core_merely -->
<g id="edge26" class="edge">
<title>Core_hexists&#45;&gt;Core_merely</title>
<path fill="none" stroke="black" d="M581.63,-609.21C574.2,-606.27 566.42,-603.41 559,-601.06 364.3,-539.46 303.79,-566.39 111,-499.06 105.31,-497.07 99.41,-494.63 93.73,-492.07"/>
<polygon fill="black" stroke="black" points="94.97,-488.79 84.44,-487.69 91.99,-495.12 94.97,-488.79"/>
</g>
<!-- Core_merely&#45;&gt;Core_Tr -->
<g id="edge27" class="edge">
<title>Core_merely&#45;&gt;Core_Tr</title>
<path fill="none" stroke="black" d="M83.43,-458.12C91.91,-453.88 101.64,-449.66 111,-447.06 339.53,-383.51 1102.14,-343.39 1279.1,-334.8"/>
<polygon fill="black" stroke="black" points="1279.39,-338.29 1289.21,-334.31 1279.05,-331.29 1279.39,-338.29"/>
</g>
<!-- Core_istruncmap_mapinO_tr -->
<g id="node22" class="node">
<title>Core_istruncmap_mapinO_tr</title>
<g id="a_node22"><a xlink:href="Core.html#istruncmap_mapinO_tr" xlink:title="istruncmap_mapinO_tr">
<ellipse fill="#f070d1" stroke="black" cx="1023" cy="-473.06" rx="116.19" ry="18"/>
<ellipse fill="none" stroke="black" cx="1023" cy="-473.06" rx="120.18" ry="22"/>
<ellipse fill="none" stroke="black" cx="1023" cy="-473.06" rx="124.18" ry="26"/>
<text text-anchor="middle" x="1023" y="-469.36" font-family="Times,serif" font-size="14.00">istruncmap_mapinO_tr</text>
</a>
</g>
</g>
<!-- Core_istruncmap_mapinO_tr&#45;&gt;Core_Tr -->
<g id="edge28" class="edge">
<title>Core_istruncmap_mapinO_tr&#45;&gt;Core_Tr</title>
<path fill="none" stroke="black" d="M1071.38,-449.11C1132.16,-420.28 1234.62,-371.67 1285.48,-347.54"/>
<polygon fill="black" stroke="black" points="1287.11,-350.64 1294.64,-343.19 1284.11,-344.32 1287.11,-350.64"/>
</g>
<!-- Core_mapinO_tr_istruncmap -->
<g id="node23" class="node">
<title>Core_mapinO_tr_istruncmap</title>
<g id="a_node23"><a xlink:href="Core.html#mapinO_tr_istruncmap" xlink:title="mapinO_tr_istruncmap">
<ellipse fill="#f070d1" stroke="black" cx="756" cy="-473.06" rx="116.19" ry="18"/>
<ellipse fill="none" stroke="black" cx="756" cy="-473.06" rx="120.18" ry="22"/>
<ellipse fill="none" stroke="black" cx="756" cy="-473.06" rx="124.18" ry="26"/>
<text text-anchor="middle" x="756" y="-469.36" font-family="Times,serif" font-size="14.00">mapinO_tr_istruncmap</text>
</a>
</g>
</g>
<!-- Core_mapinO_tr_istruncmap&#45;&gt;Core_Tr -->
<g id="edge29" class="edge">
<title>Core_mapinO_tr_istruncmap&#45;&gt;Core_Tr</title>
<path fill="none" stroke="black" d="M833.87,-452.73C957.31,-422.09 1192.98,-363.6 1281.37,-341.66"/>
<polygon fill="black" stroke="black" points="1282.3,-345.03 1291.16,-339.23 1280.61,-338.24 1282.3,-345.03"/>
</g>
<!-- Core_istrunc_inO_tr&#45;&gt;Core_Tr -->
<g id="edge30" class="edge">
<title>Core_istrunc_inO_tr&#45;&gt;Core_Tr</title>
<path fill="none" stroke="black" d="M1512.1,-455.84C1469.92,-429.43 1386.77,-377.37 1343.55,-350.31"/>
<polygon fill="black" stroke="black" points="1345.3,-347.27 1334.96,-344.93 1341.58,-353.21 1345.3,-347.27"/>
</g>
<!-- Core_inO_tr_istrunc&#45;&gt;Core_Tr -->
<g id="edge31" class="edge">
<title>Core_inO_tr_istrunc&#45;&gt;Core_Tr</title>
<path fill="none" stroke="black" d="M1251.07,-455.02C1263.92,-430.89 1287.49,-386.61 1302.42,-358.56"/>
<polygon fill="black" stroke="black" points="1305.7,-359.85 1307.31,-349.38 1299.52,-356.56 1305.7,-359.85"/>
</g>
<!-- Core_equiv_Trunc_prod_cmp -->
<g id="node26" class="node">
<title>Core_equiv_Trunc_prod_cmp</title>
<g id="a_node26"><a xlink:href="Core.html#equiv_Trunc_prod_cmp" xlink:title="equiv_Trunc_prod_cmp">
<ellipse fill="#f070d1" stroke="black" cx="489" cy="-473.06" rx="116.98" ry="18"/>
<ellipse fill="none" stroke="black" cx="489" cy="-473.06" rx="120.98" ry="22"/>
<ellipse fill="none" stroke="black" cx="489" cy="-473.06" rx="124.98" ry="26"/>
<text text-anchor="middle" x="489" y="-469.36" font-family="Times,serif" font-size="14.00">equiv_Trunc_prod_cmp</text>
</a>
</g>
</g>
<!-- Core_equiv_Trunc_prod_cmp&#45;&gt;Core_Tr -->
<g id="edge32" class="edge">
<title>Core_equiv_Trunc_prod_cmp&#45;&gt;Core_Tr</title>
<path fill="none" stroke="black" d="M579.05,-454.99C593.73,-452.28 608.78,-449.56 623,-447.06 873.83,-403.04 1176.65,-354.97 1279.67,-338.75"/>
<polygon fill="black" stroke="black" points="1280.51,-342.17 1289.85,-337.15 1279.43,-335.25 1280.51,-342.17"/>
</g>
<!-- Core_isequiv_Trunc_functor -->
<g id="node27" class="node">
<title>Core_isequiv_Trunc_functor</title>
<g id="a_node27"><a xlink:href="Core.html#isequiv_Trunc_functor" xlink:title="isequiv_Trunc_functor">
<ellipse fill="#f070d1" stroke="black" cx="1664" cy="-627.06" rx="113.17" ry="18"/>
<ellipse fill="none" stroke="black" cx="1664" cy="-627.06" rx="117.18" ry="22"/>
<ellipse fill="none" stroke="black" cx="1664" cy="-627.06" rx="121.18" ry="26"/>
<text text-anchor="middle" x="1664" y="-623.36" font-family="Times,serif" font-size="14.00">isequiv_Trunc_functor</text>
</a>
</g>
</g>
<!-- Core_Trunc_functor -->
<g id="node32" class="node">
<title>Core_Trunc_functor</title>
<g id="a_node32"><a xlink:href="Core.html#Trunc_functor" xlink:title="Trunc_functor">
<ellipse fill="#f070d1" stroke="black" cx="2222" cy="-473.06" rx="75.29" ry="18"/>
<text text-anchor="middle" x="2222" y="-469.36" font-family="Times,serif" font-size="14.00">Trunc_functor</text>
</a>
</g>
</g>
<!-- Core_isequiv_Trunc_functor&#45;&gt;Core_Trunc_functor -->
<g id="edge33" class="edge">
<title>Core_isequiv_Trunc_functor&#45;&gt;Core_Trunc_functor</title>
<path fill="none" stroke="black" d="M1739.29,-606.57C1832.94,-582.17 1997.61,-538.75 2138,-499.06 2147.55,-496.36 2157.69,-493.41 2167.5,-490.52"/>
<polygon fill="black" stroke="black" points="2168.57,-493.85 2177.16,-487.65 2166.58,-487.14 2168.57,-493.85"/>
</g>
<!-- Core_Trunc_functor_idmap -->
<g id="node28" class="node">
<title>Core_Trunc_functor_idmap</title>
<g id="a_node28"><a xlink:href="Core.html#Trunc_functor_idmap" xlink:title="Trunc_functor_idmap">
<ellipse fill="#f070d1" stroke="black" cx="1408" cy="-627.06" rx="108.58" ry="18"/>
<ellipse fill="none" stroke="black" cx="1408" cy="-627.06" rx="112.58" ry="22"/>
<ellipse fill="none" stroke="black" cx="1408" cy="-627.06" rx="116.58" ry="26"/>
<text text-anchor="middle" x="1408" y="-623.36" font-family="Times,serif" font-size="14.00">Trunc_functor_idmap</text>
</a>
</g>
</g>
<!-- Core_Trunc_functor_idmap&#45;&gt;Core_Trunc_functor -->
<g id="edge34" class="edge">
<title>Core_Trunc_functor_idmap&#45;&gt;Core_Trunc_functor</title>
<path fill="none" stroke="black" d="M1492.32,-608.98C1506.23,-606.27 1520.51,-603.54 1534,-601.06 1801.77,-551.9 1872.82,-560.67 2138,-499.06 2148.22,-496.69 2159.03,-493.78 2169.37,-490.79"/>
<polygon fill="black" stroke="black" points="2170.5,-494.11 2179.1,-487.92 2168.52,-487.39 2170.5,-494.11"/>
</g>
<!-- Core_Trunc_functor_compose -->
<g id="node29" class="node">
<title>Core_Trunc_functor_compose</title>
<g id="a_node29"><a xlink:href="Core.html#Trunc_functor_compose" xlink:title="Trunc_functor_compose">
<ellipse fill="#f070d1" stroke="black" cx="2191" cy="-627.06" rx="120.46" ry="18"/>
<ellipse fill="none" stroke="black" cx="2191" cy="-627.06" rx="124.47" ry="22"/>
<ellipse fill="none" stroke="black" cx="2191" cy="-627.06" rx="128.48" ry="26"/>
<text text-anchor="middle" x="2191" y="-623.36" font-family="Times,serif" font-size="14.00">Trunc_functor_compose</text>
</a>
</g>
</g>
<!-- Core_Trunc_functor_compose&#45;&gt;Core_Trunc_functor -->
<g id="edge35" class="edge">
<title>Core_Trunc_functor_compose&#45;&gt;Core_Trunc_functor</title>
<path fill="none" stroke="black" d="M2196.12,-600.96C2201.73,-573.45 2210.7,-529.46 2216.47,-501.17"/>
<polygon fill="black" stroke="black" points="2219.94,-501.66 2218.51,-491.16 2213.08,-500.26 2219.94,-501.66"/>
</g>
<!-- Core_Trunc_functor_equiv -->
<g id="node30" class="node">
<title>Core_Trunc_functor_equiv</title>
<g id="a_node30"><a xlink:href="Core.html#Trunc_functor_equiv" xlink:title="Trunc_functor_equiv">
<ellipse fill="#f070d1" stroke="black" cx="233" cy="-473.06" rx="105.1" ry="18"/>
<ellipse fill="none" stroke="black" cx="233" cy="-473.06" rx="109.09" ry="22"/>
<ellipse fill="none" stroke="black" cx="233" cy="-473.06" rx="113.08" ry="26"/>
<text text-anchor="middle" x="233" y="-469.36" font-family="Times,serif" font-size="14.00">Trunc_functor_equiv</text>
</a>
</g>
</g>
<!-- Core_Trunc_functor_equiv&#45;&gt;Core_Tr -->
<g id="edge36" class="edge">
<title>Core_Trunc_functor_equiv&#45;&gt;Core_Tr</title>
<path fill="none" stroke="black" d="M313.21,-454.62C327.11,-451.89 341.45,-449.25 355,-447.06 713.14,-389.23 1150.82,-347.85 1279.06,-336.31"/>
<polygon fill="black" stroke="black" points="1279.49,-339.79 1289.13,-335.41 1278.86,-332.82 1279.49,-339.79"/>
</g>
<!-- Core_Trunc_functor_isequiv -->
<g id="node31" class="node">
<title>Core_Trunc_functor_isequiv</title>
<g id="a_node31"><a xlink:href="Core.html#Trunc_functor_isequiv" xlink:title="Trunc_functor_isequiv">
<ellipse fill="#f070d1" stroke="black" cx="1924" cy="-627.06" rx="113.17" ry="18"/>
<ellipse fill="none" stroke="black" cx="1924" cy="-627.06" rx="117.18" ry="22"/>
<ellipse fill="none" stroke="black" cx="1924" cy="-627.06" rx="121.18" ry="26"/>
<text text-anchor="middle" x="1924" y="-623.36" font-family="Times,serif" font-size="14.00">Trunc_functor_isequiv</text>
</a>
</g>
</g>
<!-- Core_Trunc_functor_isequiv&#45;&gt;Core_Trunc_functor -->
<g id="edge37" class="edge">
<title>Core_Trunc_functor_isequiv&#45;&gt;Core_Trunc_functor</title>
<path fill="none" stroke="black" d="M1969.58,-602.81C2027.69,-573.17 2127.2,-522.41 2182.32,-494.3"/>
<polygon fill="black" stroke="black" points="2184.11,-497.31 2191.43,-489.65 2180.93,-491.08 2184.11,-497.31"/>
</g>
<!-- Core_Trunc_functor&#45;&gt;Core_Tr -->
<g id="edge38" class="edge">
<title>Core_Trunc_functor&#45;&gt;Core_Tr</title>
<path fill="none" stroke="black" d="M2179.59,-458.08C2166.38,-454.09 2151.68,-450.03 2138,-447.06 1838.64,-382.14 1469.54,-346.42 1353.03,-336.18"/>
<polygon fill="black" stroke="black" points="1353.14,-332.68 1342.87,-335.29 1352.53,-339.65 1353.14,-332.68"/>
</g>
<!-- Core_untrunc_istrunc -->
<g id="node33" class="node">
<title>Core_untrunc_istrunc</title>
<g id="a_node33"><a xlink:href="Core.html#untrunc_istrunc" xlink:title="untrunc_istrunc">
<ellipse fill="#f070d1" stroke="black" cx="1252" cy="-782.06" rx="84.49" ry="18"/>
<ellipse fill="none" stroke="black" cx="1252" cy="-782.06" rx="88.49" ry="22"/>
<ellipse fill="none" stroke="black" cx="1252" cy="-782.06" rx="92.49" ry="26"/>
<text text-anchor="middle" x="1252" y="-778.36" font-family="Times,serif" font-size="14.00">untrunc_istrunc</text>
</a>
</g>
</g>
<!-- Core_isequiv_tr -->
<g id="node35" class="node">
<title>Core_isequiv_tr</title>
<g id="a_node35"><a xlink:href="Core.html#isequiv_tr" xlink:title="isequiv_tr">
<ellipse fill="#f070d1" stroke="black" cx="1217" cy="-627.06" rx="56.59" ry="18"/>
<text text-anchor="middle" x="1217" y="-623.36" font-family="Times,serif" font-size="14.00">isequiv_tr</text>
</a>
</g>
</g>
<!-- Core_untrunc_istrunc&#45;&gt;Core_isequiv_tr -->
<g id="edge39" class="edge">
<title>Core_untrunc_istrunc&#45;&gt;Core_isequiv_tr</title>
<path fill="none" stroke="black" d="M1246.22,-755.79C1239.88,-728.1 1229.76,-683.82 1223.24,-655.35"/>
<polygon fill="black" stroke="black" points="1226.58,-654.24 1220.94,-645.28 1219.76,-655.81 1226.58,-654.24"/>
</g>
<!-- Core_equiv_tr&#45;&gt;Core_isequiv_tr -->
<g id="edge40" class="edge">
<title>Core_equiv_tr&#45;&gt;Core_isequiv_tr</title>
<path fill="none" stroke="black" d="M1513.16,-767.48C1454.97,-740.09 1323.41,-678.15 1256.98,-646.88"/>
<polygon fill="black" stroke="black" points="1258.2,-643.59 1247.66,-642.5 1255.22,-649.92 1258.2,-643.59"/>
</g>
<!-- Core_trunc_iff_isequiv_truncation -->
<g id="node36" class="node">
<title>Core_trunc_iff_isequiv_truncation</title>
<g id="a_node36"><a xlink:href="Core.html#trunc_iff_isequiv_truncation" xlink:title="trunc_iff_isequiv_truncation">
<ellipse fill="#f070d1" stroke="black" cx="1989" cy="-473.06" rx="139.98" ry="18"/>
<text text-anchor="middle" x="1989" y="-469.36" font-family="Times,serif" font-size="14.00">trunc_iff_isequiv_truncation</text>
</a>
</g>
</g>
<!-- Core_isequiv_tr&#45;&gt;Core_trunc_iff_isequiv_truncation -->
<g id="edge41" class="edge">
<title>Core_isequiv_tr&#45;&gt;Core_trunc_iff_isequiv_truncation</title>
<path fill="none" stroke="black" d="M1249.33,-612.24C1259.63,-608.21 1271.17,-604.09 1282,-601.06 1340.54,-584.7 1719.98,-519.6 1897.58,-489.49"/>
<polygon fill="black" stroke="black" points="1898.42,-492.89 1907.69,-487.77 1897.25,-485.99 1898.42,-492.89"/>
</g>
<!-- Core_trunc_iff_isequiv_truncation&#45;&gt;Core_Tr -->
<g id="edge42" class="edge">
<title>Core_trunc_iff_isequiv_truncation&#45;&gt;Core_Tr</title>
<path fill="none" stroke="black" d="M1918.57,-457.51C1776.01,-428.07 1457.83,-362.35 1351.43,-340.38"/>
<polygon fill="black" stroke="black" points="1352.02,-336.93 1341.52,-338.33 1350.6,-343.78 1352.02,-336.93"/>
</g>
<!-- Core_Tr&#45;&gt;Core_Trunc_Trunc_ind -->
<g id="edge43" class="edge">
<title>Core_Tr&#45;&gt;Core_Trunc_Trunc_ind</title>
<path fill="none" stroke="black" d="M1333.34,-317.88C1362.66,-295.59 1422.33,-250.23 1458.07,-223.05"/>
<polygon fill="black" stroke="black" points="1460.33,-225.73 1466.18,-216.89 1456.1,-220.16 1460.33,-225.73"/>
</g>
<!-- Core_Tr&#45;&gt;Core_Trunc_istrunc_truncation -->
<g id="edge44" class="edge">
<title>Core_Tr&#45;&gt;Core_Trunc_istrunc_truncation</title>
<path fill="none" stroke="black" d="M1316,-313.8C1316,-292.04 1316,-254.38 1316,-228.62"/>
<polygon fill="black" stroke="black" points="1319.5,-228.39 1316,-218.39 1312.5,-228.39 1319.5,-228.39"/>
</g>
<!-- Core_Trunc_rec&#45;&gt;Core_Trunc_Trunc_ind -->
<g id="edge45" class="edge">
<title>Core_Trunc_rec&#45;&gt;Core_Trunc_Trunc_ind</title>
<path fill="none" stroke="black" d="M1450.9,-767C1461.28,-762.91 1472.97,-758.81 1484,-756.06 1667.34,-710.36 2202.75,-794.53 2328,-653.06 2569.19,-380.65 1778.49,-243.08 1548.12,-209.39"/>
<polygon fill="black" stroke="black" points="1548.3,-205.88 1537.9,-207.91 1547.29,-212.81 1548.3,-205.88"/>
</g>
</g>
</svg>
