<?xml version="1.0" encoding="UTF-8" standalone="no"?>
<!DOCTYPE svg PUBLIC "-//W3C//DTD SVG 1.1//EN"
 "http://www.w3.org/Graphics/SVG/1.1/DTD/svg11.dtd">
<!-- Generated by graphviz version 2.43.0 (0)
 -->
<!-- Title: HoTT_Types_Equiv Pages: 1 -->
<svg width="1246pt" height="627pt"
 viewBox="0.00 0.00 1246.00 627.00" xmlns="http://www.w3.org/2000/svg" xmlns:xlink="http://www.w3.org/1999/xlink">
<g id="graph0" class="graph" transform="scale(1 1) rotate(0) translate(4 623)">
<title>HoTT_Types_Equiv</title>
<polygon fill="white" stroke="transparent" points="-4,4 -4,-623 1242,-623 1242,4 -4,4"/>
<g id="clust1" class="cluster">
<title>cluster_Equiv</title>
<polygon fill="#ffffc3" stroke="black" points="8.15,-8 8.15,-611 1229.85,-611 1229.85,-8 8.15,-8"/>
<text text-anchor="middle" x="37.15" y="-595.8" font-family="Times,serif" font-size="14.00">Equiv</text>
</g>
<!-- Equiv_equiv_total_iff_equiv_fiberwise -->
<g id="node1" class="node">
<title>Equiv_equiv_total_iff_equiv_fiberwise</title>
<g id="a_node1"><a xlink:href="Equiv.html#equiv_total_iff_equiv_fiberwise" xlink:title="equiv_total_iff_equiv_fiberwise">
<ellipse fill="#f070d1" stroke="black" cx="280.02" cy="-202" rx="152.17" ry="18"/>
<ellipse fill="none" stroke="black" cx="280.02" cy="-202" rx="156.17" ry="22"/>
<ellipse fill="none" stroke="black" cx="280.02" cy="-202" rx="160.17" ry="26"/>
<text text-anchor="middle" x="280.02" y="-198.3" font-family="Times,serif" font-size="14.00">equiv_total_iff_equiv_fiberwise</text>
</a>
</g>
</g>
<!-- Equiv_isequiv_from_functor_sigma -->
<g id="node2" class="node">
<title>Equiv_isequiv_from_functor_sigma</title>
<g id="a_node2"><a xlink:href="Equiv.html#isequiv_from_functor_sigma" xlink:title="isequiv_from_functor_sigma">
<ellipse fill="#f070d1" stroke="black" cx="260.02" cy="-114" rx="140.28" ry="18"/>
<text text-anchor="middle" x="260.02" y="-110.3" font-family="Times,serif" font-size="14.00">isequiv_from_functor_sigma</text>
</a>
</g>
</g>
<!-- Equiv_equiv_total_iff_equiv_fiberwise&#45;&gt;Equiv_isequiv_from_functor_sigma -->
<g id="edge1" class="edge">
<title>Equiv_equiv_total_iff_equiv_fiberwise&#45;&gt;Equiv_isequiv_from_functor_sigma</title>
<path fill="none" stroke="black" d="M274.13,-175.66C271.65,-165 268.76,-152.58 266.25,-141.77"/>
<polygon fill="black" stroke="black" points="269.65,-140.95 263.98,-132 262.83,-142.54 269.65,-140.95"/>
</g>
<!-- Equiv_isequiv_contr_map -->
<g id="node19" class="node">
<title>Equiv_isequiv_contr_map</title>
<g id="a_node19"><a xlink:href="Equiv.html#isequiv_contr_map" xlink:title="isequiv_contr_map">
<ellipse fill="#f070d1" stroke="black" cx="260.02" cy="-34" rx="96.68" ry="18"/>
<text text-anchor="middle" x="260.02" y="-30.3" font-family="Times,serif" font-size="14.00">isequiv_contr_map</text>
</a>
</g>
</g>
<!-- Equiv_isequiv_from_functor_sigma&#45;&gt;Equiv_isequiv_contr_map -->
<g id="edge2" class="edge">
<title>Equiv_isequiv_from_functor_sigma&#45;&gt;Equiv_isequiv_contr_map</title>
<path fill="none" stroke="black" d="M260.02,-95.69C260.02,-85.89 260.02,-73.42 260.02,-62.33"/>
<polygon fill="black" stroke="black" points="263.52,-62.26 260.02,-52.26 256.52,-62.26 263.52,-62.26"/>
</g>
<!-- Equiv_contr_map_isequiv -->
<g id="node20" class="node">
<title>Equiv_contr_map_isequiv</title>
<g id="a_node20"><a xlink:href="Equiv.html#contr_map_isequiv" xlink:title="contr_map_isequiv">
<ellipse fill="#f070d1" stroke="black" cx="675.02" cy="-34" rx="96.68" ry="18"/>
<text text-anchor="middle" x="675.02" y="-30.3" font-family="Times,serif" font-size="14.00">contr_map_isequiv</text>
</a>
</g>
</g>
<!-- Equiv_isequiv_from_functor_sigma&#45;&gt;Equiv_contr_map_isequiv -->
<g id="edge3" class="edge">
<title>Equiv_isequiv_from_functor_sigma&#45;&gt;Equiv_contr_map_isequiv</title>
<path fill="none" stroke="black" d="M335.66,-98.78C410.61,-84.7 524.76,-63.24 599.63,-49.17"/>
<polygon fill="black" stroke="black" points="600.29,-52.61 609.47,-47.32 599,-45.73 600.29,-52.61"/>
</g>
<!-- Equiv_equiv_equiv_inverse -->
<g id="node3" class="node">
<title>Equiv_equiv_equiv_inverse</title>
<g id="a_node3"><a xlink:href="Equiv.html#equiv_equiv_inverse" xlink:title="equiv_equiv_inverse">
<ellipse fill="#f070d1" stroke="black" cx="860.02" cy="-554" rx="104.77" ry="18"/>
<ellipse fill="none" stroke="black" cx="860.02" cy="-554" rx="108.78" ry="22"/>
<ellipse fill="none" stroke="black" cx="860.02" cy="-554" rx="112.78" ry="26"/>
<text text-anchor="middle" x="860.02" y="-550.3" font-family="Times,serif" font-size="14.00">equiv_equiv_inverse</text>
</a>
</g>
</g>
<!-- Equiv_isequiv_equiv_inverse -->
<g id="node4" class="node">
<title>Equiv_isequiv_equiv_inverse</title>
<g id="a_node4"><a xlink:href="Equiv.html#isequiv_equiv_inverse" xlink:title="isequiv_equiv_inverse">
<ellipse fill="#f070d1" stroke="black" cx="861.02" cy="-466" rx="112.38" ry="18"/>
<text text-anchor="middle" x="861.02" y="-462.3" font-family="Times,serif" font-size="14.00">isequiv_equiv_inverse</text>
</a>
</g>
</g>
<!-- Equiv_equiv_equiv_inverse&#45;&gt;Equiv_isequiv_equiv_inverse -->
<g id="edge4" class="edge">
<title>Equiv_equiv_equiv_inverse&#45;&gt;Equiv_isequiv_equiv_inverse</title>
<path fill="none" stroke="black" d="M860.32,-527.66C860.44,-517.11 860.58,-504.84 860.71,-494.1"/>
<polygon fill="black" stroke="black" points="864.21,-494.04 860.83,-484 857.21,-493.96 864.21,-494.04"/>
</g>
<!-- Equiv_path_equiv -->
<g id="node12" class="node">
<title>Equiv_path_equiv</title>
<g id="a_node12"><a xlink:href="Equiv.html#path_equiv" xlink:title="path_equiv">
<ellipse fill="#f070d1" stroke="black" cx="619.02" cy="-378" rx="61.99" ry="18"/>
<text text-anchor="middle" x="619.02" y="-374.3" font-family="Times,serif" font-size="14.00">path_equiv</text>
</a>
</g>
</g>
<!-- Equiv_isequiv_equiv_inverse&#45;&gt;Equiv_path_equiv -->
<g id="edge5" class="edge">
<title>Equiv_isequiv_equiv_inverse&#45;&gt;Equiv_path_equiv</title>
<path fill="none" stroke="black" d="M816.92,-449.33C774.33,-434.19 710.05,-411.35 666.39,-395.83"/>
<polygon fill="black" stroke="black" points="667.46,-392.5 656.86,-392.45 665.11,-399.09 667.46,-392.5"/>
</g>
<!-- Equiv_equiv_functor_equiv -->
<g id="node5" class="node">
<title>Equiv_equiv_functor_equiv</title>
<g id="a_node5"><a xlink:href="Equiv.html#equiv_functor_equiv" xlink:title="equiv_functor_equiv">
<ellipse fill="#f070d1" stroke="black" cx="1108.02" cy="-554" rx="103.98" ry="18"/>
<ellipse fill="none" stroke="black" cx="1108.02" cy="-554" rx="107.98" ry="22"/>
<ellipse fill="none" stroke="black" cx="1108.02" cy="-554" rx="111.98" ry="26"/>
<text text-anchor="middle" x="1108.02" y="-550.3" font-family="Times,serif" font-size="14.00">equiv_functor_equiv</text>
</a>
</g>
</g>
<!-- Equiv_isequiv_functor_equiv -->
<g id="node6" class="node">
<title>Equiv_isequiv_functor_equiv</title>
<g id="a_node6"><a xlink:href="Equiv.html#isequiv_functor_equiv" xlink:title="isequiv_functor_equiv">
<ellipse fill="#f070d1" stroke="black" cx="1108.02" cy="-466" rx="111.58" ry="18"/>
<text text-anchor="middle" x="1108.02" y="-462.3" font-family="Times,serif" font-size="14.00">isequiv_functor_equiv</text>
</a>
</g>
</g>
<!-- Equiv_equiv_functor_equiv&#45;&gt;Equiv_isequiv_functor_equiv -->
<g id="edge6" class="edge">
<title>Equiv_equiv_functor_equiv&#45;&gt;Equiv_isequiv_functor_equiv</title>
<path fill="none" stroke="black" d="M1108.02,-527.66C1108.02,-517.11 1108.02,-504.84 1108.02,-494.1"/>
<polygon fill="black" stroke="black" points="1111.52,-494 1108.02,-484 1104.52,-494 1111.52,-494"/>
</g>
<!-- Equiv_functor_equiv -->
<g id="node7" class="node">
<title>Equiv_functor_equiv</title>
<g id="a_node7"><a xlink:href="Equiv.html#functor_equiv" xlink:title="functor_equiv">
<ellipse fill="#f070d1" stroke="black" cx="1108.02" cy="-378" rx="74.19" ry="18"/>
<text text-anchor="middle" x="1108.02" y="-374.3" font-family="Times,serif" font-size="14.00">functor_equiv</text>
</a>
</g>
</g>
<!-- Equiv_isequiv_functor_equiv&#45;&gt;Equiv_functor_equiv -->
<g id="edge7" class="edge">
<title>Equiv_isequiv_functor_equiv&#45;&gt;Equiv_functor_equiv</title>
<path fill="none" stroke="black" d="M1108.02,-447.6C1108.02,-435.75 1108.02,-419.82 1108.02,-406.29"/>
<polygon fill="black" stroke="black" points="1111.52,-406.08 1108.02,-396.08 1104.52,-406.08 1111.52,-406.08"/>
</g>
<!-- Equiv_isequiv_functor_equiv&#45;&gt;Equiv_path_equiv -->
<g id="edge8" class="edge">
<title>Equiv_isequiv_functor_equiv&#45;&gt;Equiv_path_equiv</title>
<path fill="none" stroke="black" d="M1041.72,-451.47C1022.49,-447.64 1001.44,-443.56 982.02,-440 876.96,-420.75 754.35,-400.64 681.9,-388.99"/>
<polygon fill="black" stroke="black" points="682.44,-385.53 672.01,-387.4 681.33,-392.44 682.44,-385.53"/>
</g>
<!-- Equiv_contr_aut_hprop -->
<g id="node8" class="node">
<title>Equiv_contr_aut_hprop</title>
<g id="a_node8"><a xlink:href="Equiv.html#contr_aut_hprop" xlink:title="contr_aut_hprop">
<ellipse fill="#f070d1" stroke="black" cx="396.02" cy="-466" rx="86.39" ry="18"/>
<ellipse fill="none" stroke="black" cx="396.02" cy="-466" rx="90.39" ry="22"/>
<ellipse fill="none" stroke="black" cx="396.02" cy="-466" rx="94.38" ry="26"/>
<text text-anchor="middle" x="396.02" y="-462.3" font-family="Times,serif" font-size="14.00">contr_aut_hprop</text>
</a>
</g>
</g>
<!-- Equiv_contr_aut_hprop&#45;&gt;Equiv_path_equiv -->
<g id="edge9" class="edge">
<title>Equiv_contr_aut_hprop&#45;&gt;Equiv_path_equiv</title>
<path fill="none" stroke="black" d="M449.44,-444.4C487.36,-429.78 537.73,-410.35 573.69,-396.48"/>
<polygon fill="black" stroke="black" points="575.36,-399.59 583.44,-392.72 572.85,-393.06 575.36,-399.59"/>
</g>
<!-- Equiv_contr_equiv_contr_contr -->
<g id="node9" class="node">
<title>Equiv_contr_equiv_contr_contr</title>
<g id="a_node9"><a xlink:href="Equiv.html#contr_equiv_contr_contr" xlink:title="contr_equiv_contr_contr">
<ellipse fill="#f070d1" stroke="black" cx="149.02" cy="-466" rx="122.37" ry="18"/>
<ellipse fill="none" stroke="black" cx="149.02" cy="-466" rx="126.37" ry="22"/>
<ellipse fill="none" stroke="black" cx="149.02" cy="-466" rx="130.38" ry="26"/>
<text text-anchor="middle" x="149.02" y="-462.3" font-family="Times,serif" font-size="14.00">contr_equiv_contr_contr</text>
</a>
</g>
</g>
<!-- Equiv_contr_equiv_contr_contr&#45;&gt;Equiv_path_equiv -->
<g id="edge10" class="edge">
<title>Equiv_contr_equiv_contr_contr&#45;&gt;Equiv_path_equiv</title>
<path fill="none" stroke="black" d="M243.84,-448.12C260.23,-445.32 277.11,-442.52 293.02,-440 404.77,-422.32 434.97,-430.22 545.02,-404 554.32,-401.78 564.12,-398.89 573.42,-395.87"/>
<polygon fill="black" stroke="black" points="574.53,-399.18 582.9,-392.68 572.31,-392.55 574.53,-399.18"/>
</g>
<!-- Equiv_istrunc_equiv -->
<g id="node10" class="node">
<title>Equiv_istrunc_equiv</title>
<g id="a_node10"><a xlink:href="Equiv.html#istrunc_equiv" xlink:title="istrunc_equiv">
<ellipse fill="#f070d1" stroke="black" cx="455.02" cy="-378" rx="73.39" ry="18"/>
<ellipse fill="none" stroke="black" cx="455.02" cy="-378" rx="77.39" ry="22"/>
<ellipse fill="none" stroke="black" cx="455.02" cy="-378" rx="81.39" ry="26"/>
<text text-anchor="middle" x="455.02" y="-374.3" font-family="Times,serif" font-size="14.00">istrunc_equiv</text>
</a>
</g>
</g>
<!-- Equiv_equiv_path_equiv -->
<g id="node13" class="node">
<title>Equiv_equiv_path_equiv</title>
<g id="a_node13"><a xlink:href="Equiv.html#equiv_path_equiv" xlink:title="equiv_path_equiv">
<ellipse fill="#f070d1" stroke="black" cx="579.02" cy="-290" rx="90.98" ry="18"/>
<text text-anchor="middle" x="579.02" y="-286.3" font-family="Times,serif" font-size="14.00">equiv_path_equiv</text>
</a>
</g>
</g>
<!-- Equiv_istrunc_equiv&#45;&gt;Equiv_equiv_path_equiv -->
<g id="edge11" class="edge">
<title>Equiv_istrunc_equiv&#45;&gt;Equiv_equiv_path_equiv</title>
<path fill="none" stroke="black" d="M487.93,-354.18C506.06,-341.61 528.47,-326.06 546.54,-313.53"/>
<polygon fill="black" stroke="black" points="548.79,-316.23 555.01,-307.65 544.8,-310.47 548.79,-316.23"/>
</g>
<!-- Equiv_isequiv_path_equiv -->
<g id="node11" class="node">
<title>Equiv_isequiv_path_equiv</title>
<g id="a_node11"><a xlink:href="Equiv.html#isequiv_path_equiv" xlink:title="isequiv_path_equiv">
<ellipse fill="#f070d1" stroke="black" cx="619.02" cy="-466" rx="98.6" ry="18"/>
<ellipse fill="none" stroke="black" cx="619.02" cy="-466" rx="102.59" ry="22"/>
<ellipse fill="none" stroke="black" cx="619.02" cy="-466" rx="106.58" ry="26"/>
<text text-anchor="middle" x="619.02" y="-462.3" font-family="Times,serif" font-size="14.00">isequiv_path_equiv</text>
</a>
</g>
</g>
<!-- Equiv_isequiv_path_equiv&#45;&gt;Equiv_path_equiv -->
<g id="edge12" class="edge">
<title>Equiv_isequiv_path_equiv&#45;&gt;Equiv_path_equiv</title>
<path fill="none" stroke="black" d="M619.02,-439.66C619.02,-429.11 619.02,-416.84 619.02,-406.1"/>
<polygon fill="black" stroke="black" points="622.52,-406 619.02,-396 615.52,-406 622.52,-406"/>
</g>
<!-- Equiv_path_equiv&#45;&gt;Equiv_equiv_path_equiv -->
<g id="edge13" class="edge">
<title>Equiv_path_equiv&#45;&gt;Equiv_equiv_path_equiv</title>
<path fill="none" stroke="black" d="M611.12,-360.01C605.42,-347.76 597.63,-331 591.14,-317.06"/>
<polygon fill="black" stroke="black" points="594.3,-315.55 586.91,-307.96 587.95,-318.5 594.3,-315.55"/>
</g>
<!-- Equiv_hprop_isequiv -->
<g id="node15" class="node">
<title>Equiv_hprop_isequiv</title>
<g id="a_node15"><a xlink:href="Equiv.html#hprop_isequiv" xlink:title="hprop_isequiv">
<ellipse fill="#f070d1" stroke="black" cx="579.02" cy="-202" rx="75.29" ry="18"/>
<text text-anchor="middle" x="579.02" y="-198.3" font-family="Times,serif" font-size="14.00">hprop_isequiv</text>
</a>
</g>
</g>
<!-- Equiv_equiv_path_equiv&#45;&gt;Equiv_hprop_isequiv -->
<g id="edge14" class="edge">
<title>Equiv_equiv_path_equiv&#45;&gt;Equiv_hprop_isequiv</title>
<path fill="none" stroke="black" d="M579.02,-271.6C579.02,-259.75 579.02,-243.82 579.02,-230.29"/>
<polygon fill="black" stroke="black" points="582.52,-230.08 579.02,-220.08 575.52,-230.08 582.52,-230.08"/>
</g>
<!-- Equiv_equiv_contr_map_isequiv -->
<g id="node14" class="node">
<title>Equiv_equiv_contr_map_isequiv</title>
<g id="a_node14"><a xlink:href="Equiv.html#equiv_contr_map_isequiv" xlink:title="equiv_contr_map_isequiv">
<ellipse fill="#f070d1" stroke="black" cx="222.02" cy="-290" rx="126.96" ry="18"/>
<ellipse fill="none" stroke="black" cx="222.02" cy="-290" rx="130.97" ry="22"/>
<ellipse fill="none" stroke="black" cx="222.02" cy="-290" rx="134.98" ry="26"/>
<text text-anchor="middle" x="222.02" y="-286.3" font-family="Times,serif" font-size="14.00">equiv_contr_map_isequiv</text>
</a>
</g>
</g>
<!-- Equiv_equiv_contr_map_isequiv&#45;&gt;Equiv_hprop_isequiv -->
<g id="edge15" class="edge">
<title>Equiv_equiv_contr_map_isequiv&#45;&gt;Equiv_hprop_isequiv</title>
<path fill="none" stroke="black" d="M303.93,-269.27C369.12,-253.57 458.91,-231.94 517.93,-217.72"/>
<polygon fill="black" stroke="black" points="518.95,-221.07 527.85,-215.33 517.31,-214.27 518.95,-221.07"/>
</g>
<!-- Equiv_equiv_contr_map_isequiv&#45;&gt;Equiv_isequiv_contr_map -->
<g id="edge16" class="edge">
<title>Equiv_equiv_contr_map_isequiv&#45;&gt;Equiv_isequiv_contr_map</title>
<path fill="none" stroke="black" d="M156.12,-267.26C138.37,-258.05 121.27,-245.32 111.02,-228 79.35,-174.45 75.15,-138.84 111.02,-88 125.28,-67.79 147.96,-55.24 171.36,-47.46"/>
<polygon fill="black" stroke="black" points="172.51,-50.77 181.06,-44.51 170.47,-44.08 172.51,-50.77"/>
</g>
<!-- Equiv_contr_sect_equiv -->
<g id="node17" class="node">
<title>Equiv_contr_sect_equiv</title>
<g id="a_node17"><a xlink:href="Equiv.html#contr_sect_equiv" xlink:title="contr_sect_equiv">
<ellipse fill="#f070d1" stroke="black" cx="796.02" cy="-114" rx="88.28" ry="18"/>
<text text-anchor="middle" x="796.02" y="-110.3" font-family="Times,serif" font-size="14.00">contr_sect_equiv</text>
</a>
</g>
</g>
<!-- Equiv_hprop_isequiv&#45;&gt;Equiv_contr_sect_equiv -->
<g id="edge17" class="edge">
<title>Equiv_hprop_isequiv&#45;&gt;Equiv_contr_sect_equiv</title>
<path fill="none" stroke="black" d="M616.33,-186.22C652.71,-171.8 708.22,-149.8 747.91,-134.07"/>
<polygon fill="black" stroke="black" points="749.37,-137.25 757.38,-130.31 746.8,-130.74 749.37,-137.25"/>
</g>
<!-- Equiv_contr_retr_equiv -->
<g id="node16" class="node">
<title>Equiv_contr_retr_equiv</title>
<g id="a_node16"><a xlink:href="Equiv.html#contr_retr_equiv" xlink:title="contr_retr_equiv">
<ellipse fill="#f070d1" stroke="black" cx="1001.02" cy="-114" rx="87.18" ry="18"/>
<ellipse fill="none" stroke="black" cx="1001.02" cy="-114" rx="91.18" ry="22"/>
<ellipse fill="none" stroke="black" cx="1001.02" cy="-114" rx="95.18" ry="26"/>
<text text-anchor="middle" x="1001.02" y="-110.3" font-family="Times,serif" font-size="14.00">contr_retr_equiv</text>
</a>
</g>
</g>
<!-- Equiv_contr_retr_equiv&#45;&gt;Equiv_contr_map_isequiv -->
<g id="edge18" class="edge">
<title>Equiv_contr_retr_equiv&#45;&gt;Equiv_contr_map_isequiv</title>
<path fill="none" stroke="black" d="M931.09,-96.27C875.08,-82.87 797.03,-64.19 741.85,-50.99"/>
<polygon fill="black" stroke="black" points="742.37,-47.51 731.83,-48.59 740.74,-54.32 742.37,-47.51"/>
</g>
<!-- Equiv_contr_sect_equiv&#45;&gt;Equiv_contr_map_isequiv -->
<g id="edge19" class="edge">
<title>Equiv_contr_sect_equiv&#45;&gt;Equiv_contr_map_isequiv</title>
<path fill="none" stroke="black" d="M770.66,-96.65C752.87,-85.18 728.88,-69.72 709.38,-57.15"/>
<polygon fill="black" stroke="black" points="711.07,-54.07 700.77,-51.6 707.28,-59.96 711.07,-54.07"/>
</g>
<!-- Equiv_isequiv_inhab_codomain -->
<g id="node18" class="node">
<title>Equiv_isequiv_inhab_codomain</title>
<g id="a_node18"><a xlink:href="Equiv.html#isequiv_inhab_codomain" xlink:title="isequiv_inhab_codomain">
<ellipse fill="#f070d1" stroke="black" cx="554.02" cy="-114" rx="122.69" ry="18"/>
<ellipse fill="none" stroke="black" cx="554.02" cy="-114" rx="126.68" ry="22"/>
<ellipse fill="none" stroke="black" cx="554.02" cy="-114" rx="130.68" ry="26"/>
<text text-anchor="middle" x="554.02" y="-110.3" font-family="Times,serif" font-size="14.00">isequiv_inhab_codomain</text>
</a>
</g>
</g>
<!-- Equiv_isequiv_inhab_codomain&#45;&gt;Equiv_isequiv_contr_map -->
<g id="edge20" class="edge">
<title>Equiv_isequiv_inhab_codomain&#45;&gt;Equiv_isequiv_contr_map</title>
<path fill="none" stroke="black" d="M477.93,-92.81C429.74,-80.03 368.19,-63.7 322.8,-51.66"/>
<polygon fill="black" stroke="black" points="323.65,-48.26 313.08,-49.08 321.85,-55.02 323.65,-48.26"/>
</g>
<!-- Equiv_isequiv_inhab_codomain&#45;&gt;Equiv_contr_map_isequiv -->
<g id="edge21" class="edge">
<title>Equiv_isequiv_inhab_codomain&#45;&gt;Equiv_contr_map_isequiv</title>
<path fill="none" stroke="black" d="M591.31,-88.96C607.1,-78.78 625.38,-67 640.82,-57.05"/>
<polygon fill="black" stroke="black" points="643.03,-59.79 649.54,-51.43 639.24,-53.91 643.03,-59.79"/>
</g>
</g>
</svg>
