<?xml version="1.0" encoding="UTF-8" standalone="no"?>
<!DOCTYPE svg PUBLIC "-//W3C//DTD SVG 1.1//EN"
 "http://www.w3.org/Graphics/SVG/1.1/DTD/svg11.dtd">
<!-- Generated by graphviz version 2.43.0 (0)
 -->
<!-- Title: HoTT_HIT_Coeq Pages: 1 -->
<svg width="2167pt" height="1088pt"
 viewBox="0.00 0.00 2167.00 1087.50" xmlns="http://www.w3.org/2000/svg" xmlns:xlink="http://www.w3.org/1999/xlink">
<g id="graph0" class="graph" transform="scale(1 1) rotate(0) translate(4 1083.5)">
<title>HoTT_HIT_Coeq</title>
<polygon fill="white" stroke="transparent" points="-4,4 -4,-1083.5 2163,-1083.5 2163,4 -4,4"/>
<g id="clust1" class="cluster">
<title>cluster_Coeq</title>
<polygon fill="#ffffc3" stroke="black" points="8,-9.75 8,-1069.75 2151,-1069.75 2151,-9.75 8,-9.75"/>
<text text-anchor="middle" x="34.5" y="-1054.55" font-family="Times,serif" font-size="14.00">Coeq</text>
</g>
<g id="clust2" class="cluster">
<title>cluster_Coeq_Coeq</title>
<polygon fill="#ffffa3" stroke="black" points="442,-19.49 442,-374.05 672,-374.05 672,-19.49 442,-19.49"/>
<text text-anchor="middle" x="468.5" y="-358.85" font-family="Times,serif" font-size="14.00">Coeq</text>
</g>
<!-- Coeq_Coeq_Coeq_ind_beta_cglue -->
<g id="node1" class="node">
<title>Coeq_Coeq_Coeq_ind_beta_cglue</title>
<g id="a_node1"><a xlink:href="Coeq.html#Coeq.Coeq_ind_beta_cglue" xlink:title="Coeq_ind_beta_cglue">
<ellipse fill="#facdef" stroke="black" cx="557" cy="-314.75" rx="107.48" ry="18"/>
<text text-anchor="middle" x="557" y="-311.05" font-family="Times,serif" font-size="14.00">Coeq_ind_beta_cglue</text>
</a>
</g>
</g>
<!-- Coeq_Coeq_Coeq_ind -->
<g id="node2" class="node">
<title>Coeq_Coeq_Coeq_ind</title>
<g id="a_node2"><a xlink:href="Coeq.html#Coeq.Coeq_ind" xlink:title="Coeq_ind">
<ellipse fill="#f070d1" stroke="black" cx="530" cy="-226.75" rx="53.09" ry="18"/>
<text text-anchor="middle" x="530" y="-223.05" font-family="Times,serif" font-size="14.00">Coeq_ind</text>
</a>
</g>
</g>
<!-- Coeq_Coeq_Coeq_ind_beta_cglue&#45;&gt;Coeq_Coeq_Coeq_ind -->
<g id="edge1" class="edge">
<title>Coeq_Coeq_Coeq_ind_beta_cglue&#45;&gt;Coeq_Coeq_Coeq_ind</title>
<path fill="none" stroke="black" d="M551.67,-296.76C547.89,-284.74 542.76,-268.39 538.44,-254.62"/>
<polygon fill="black" stroke="black" points="541.66,-253.2 535.32,-244.7 534.98,-255.29 541.66,-253.2"/>
</g>
<!-- Coeq_Coeq_cglue -->
<g id="node3" class="node">
<title>Coeq_Coeq_cglue</title>
<g id="a_node3"><a xlink:href="Coeq.html#Coeq.cglue" xlink:title="cglue">
<ellipse fill="#facdef" stroke="black" cx="508" cy="-138.75" rx="36" ry="18"/>
<text text-anchor="middle" x="508" y="-135.05" font-family="Times,serif" font-size="14.00">cglue</text>
</a>
</g>
</g>
<!-- Coeq_Coeq_Coeq_ind&#45;&gt;Coeq_Coeq_cglue -->
<g id="edge2" class="edge">
<title>Coeq_Coeq_Coeq_ind&#45;&gt;Coeq_Coeq_cglue</title>
<path fill="none" stroke="black" d="M525.65,-208.76C522.58,-196.74 518.4,-180.39 514.87,-166.62"/>
<polygon fill="black" stroke="black" points="518.21,-165.52 512.34,-156.7 511.43,-167.26 518.21,-165.52"/>
</g>
<!-- Coeq_Coeq_coeq -->
<g id="node4" class="node">
<title>Coeq_Coeq_coeq</title>
<g id="a_node4"><a xlink:href="Coeq.html#Coeq.coeq" xlink:title="coeq">
<ellipse fill="#7faaff" stroke="black" cx="495" cy="-50.75" rx="32.49" ry="18"/>
<text text-anchor="middle" x="495" y="-47.05" font-family="Times,serif" font-size="14.00">coeq</text>
</a>
</g>
</g>
<!-- Coeq_Coeq_cglue&#45;&gt;Coeq_Coeq_coeq -->
<g id="edge3" class="edge">
<title>Coeq_Coeq_cglue&#45;&gt;Coeq_Coeq_coeq</title>
<path fill="none" stroke="black" d="M505.43,-120.76C503.62,-108.74 501.14,-92.39 499.06,-78.62"/>
<polygon fill="black" stroke="black" points="502.52,-78.07 497.56,-68.7 495.6,-79.11 502.52,-78.07"/>
</g>
<!-- Coeq_Coeq_Coeq -->
<g id="node5" class="node">
<title>Coeq_Coeq_Coeq</title>
<g id="a_node5"><a xlink:href="Coeq.html#Coeq.Coeq" xlink:title="Coeq">
<ellipse fill="#e2cdfa" stroke="black" cx="580" cy="-50.75" rx="34.39" ry="18"/>
<text text-anchor="middle" x="580" y="-47.05" font-family="Times,serif" font-size="14.00">Coeq</text>
</a>
</g>
</g>
<!-- Coeq_Coeq_cglue&#45;&gt;Coeq_Coeq_Coeq -->
<g id="edge4" class="edge">
<title>Coeq_Coeq_cglue&#45;&gt;Coeq_Coeq_Coeq</title>
<path fill="none" stroke="black" d="M521.21,-121.97C532.17,-108.88 547.92,-90.07 560.36,-75.21"/>
<polygon fill="black" stroke="black" points="563.14,-77.34 566.88,-67.42 557.77,-72.84 563.14,-77.34"/>
</g>
<!-- Coeq_Coeq_sym -->
<g id="node6" class="node">
<title>Coeq_Coeq_sym</title>
<g id="a_node6"><a xlink:href="Coeq.html#Coeq_sym" xlink:title="Coeq_sym">
<ellipse fill="#f070d1" stroke="black" cx="1059" cy="-717.75" rx="57.71" ry="18"/>
<ellipse fill="none" stroke="black" cx="1059" cy="-717.75" rx="61.7" ry="22"/>
<ellipse fill="none" stroke="black" cx="1059" cy="-717.75" rx="65.69" ry="26"/>
<text text-anchor="middle" x="1059" y="-714.05" font-family="Times,serif" font-size="14.00">Coeq_sym</text>
</a>
</g>
</g>
<!-- Coeq_sect_Coeq_sym_map -->
<g id="node7" class="node">
<title>Coeq_sect_Coeq_sym_map</title>
<g id="a_node7"><a xlink:href="Coeq.html#sect_Coeq_sym_map" xlink:title="sect_Coeq_sym_map">
<ellipse fill="#f070d1" stroke="black" cx="1059" cy="-610.75" rx="105.08" ry="18"/>
<text text-anchor="middle" x="1059" y="-607.05" font-family="Times,serif" font-size="14.00">sect_Coeq_sym_map</text>
</a>
</g>
</g>
<!-- Coeq_Coeq_sym&#45;&gt;Coeq_sect_Coeq_sym_map -->
<g id="edge5" class="edge">
<title>Coeq_Coeq_sym&#45;&gt;Coeq_sect_Coeq_sym_map</title>
<path fill="none" stroke="black" d="M1059,-691.6C1059,-675.82 1059,-655.48 1059,-639.27"/>
<polygon fill="black" stroke="black" points="1062.5,-638.82 1059,-628.82 1055.5,-638.82 1062.5,-638.82"/>
</g>
<!-- Coeq_sect_Coeq_sym_map_subproof -->
<g id="node8" class="node">
<title>Coeq_sect_Coeq_sym_map_subproof</title>
<g id="a_node8"><a xlink:href="Coeq.html#sect_Coeq_sym_map_subproof" xlink:title="sect_Coeq_sym_map_subproof">
<ellipse fill="#f070d1" stroke="black" cx="967" cy="-512.75" rx="150.57" ry="18"/>
<text text-anchor="middle" x="967" y="-509.05" font-family="Times,serif" font-size="14.00">sect_Coeq_sym_map_subproof</text>
</a>
</g>
</g>
<!-- Coeq_sect_Coeq_sym_map&#45;&gt;Coeq_sect_Coeq_sym_map_subproof -->
<g id="edge6" class="edge">
<title>Coeq_sect_Coeq_sym_map&#45;&gt;Coeq_sect_Coeq_sym_map_subproof</title>
<path fill="none" stroke="black" d="M1042.55,-592.58C1028.03,-577.43 1006.69,-555.17 990.4,-538.16"/>
<polygon fill="black" stroke="black" points="992.75,-535.56 983.31,-530.76 987.7,-540.4 992.75,-535.56"/>
</g>
<!-- Coeq_Coeq_sym_map -->
<g id="node9" class="node">
<title>Coeq_Coeq_sym_map</title>
<g id="a_node9"><a xlink:href="Coeq.html#Coeq_sym_map" xlink:title="Coeq_sym_map">
<ellipse fill="#f070d1" stroke="black" cx="967" cy="-415.75" rx="81.79" ry="18"/>
<text text-anchor="middle" x="967" y="-412.05" font-family="Times,serif" font-size="14.00">Coeq_sym_map</text>
</a>
</g>
</g>
<!-- Coeq_sect_Coeq_sym_map_subproof&#45;&gt;Coeq_Coeq_sym_map -->
<g id="edge7" class="edge">
<title>Coeq_sect_Coeq_sym_map_subproof&#45;&gt;Coeq_Coeq_sym_map</title>
<path fill="none" stroke="black" d="M967,-494.32C967,-480.4 967,-460.61 967,-444.5"/>
<polygon fill="black" stroke="black" points="970.5,-444.06 967,-434.06 963.5,-444.06 970.5,-444.06"/>
</g>
<!-- Coeq_Coeq_rec_beta_cglue -->
<g id="node32" class="node">
<title>Coeq_Coeq_rec_beta_cglue</title>
<g id="a_node32"><a xlink:href="Coeq.html#Coeq_rec_beta_cglue" xlink:title="Coeq_rec_beta_cglue">
<ellipse fill="#f070d1" stroke="black" cx="760" cy="-415.75" rx="107.48" ry="18"/>
<text text-anchor="middle" x="760" y="-412.05" font-family="Times,serif" font-size="14.00">Coeq_rec_beta_cglue</text>
</a>
</g>
</g>
<!-- Coeq_sect_Coeq_sym_map_subproof&#45;&gt;Coeq_Coeq_rec_beta_cglue -->
<g id="edge8" class="edge">
<title>Coeq_sect_Coeq_sym_map_subproof&#45;&gt;Coeq_Coeq_rec_beta_cglue</title>
<path fill="none" stroke="black" d="M930.94,-495.2C895.7,-479.03 841.99,-454.38 804.2,-437.03"/>
<polygon fill="black" stroke="black" points="805.5,-433.78 794.95,-432.79 802.58,-440.14 805.5,-433.78"/>
</g>
<!-- Coeq_Coeq_rec -->
<g id="node33" class="node">
<title>Coeq_Coeq_rec</title>
<g id="a_node33"><a xlink:href="Coeq.html#Coeq_rec" xlink:title="Coeq_rec">
<ellipse fill="#f070d1" stroke="black" cx="863" cy="-314.75" rx="53.09" ry="18"/>
<text text-anchor="middle" x="863" y="-311.05" font-family="Times,serif" font-size="14.00">Coeq_rec</text>
</a>
</g>
</g>
<!-- Coeq_Coeq_sym_map&#45;&gt;Coeq_Coeq_rec -->
<g id="edge9" class="edge">
<title>Coeq_Coeq_sym_map&#45;&gt;Coeq_Coeq_rec</title>
<path fill="none" stroke="black" d="M949.36,-397.95C932.35,-381.76 906.45,-357.11 887.46,-339.03"/>
<polygon fill="black" stroke="black" points="889.69,-336.32 880.04,-331.97 884.87,-341.4 889.69,-336.32"/>
</g>
<!-- Coeq_Coeq_ind2 -->
<g id="node10" class="node">
<title>Coeq_Coeq_ind2</title>
<g id="a_node10"><a xlink:href="Coeq.html#Coeq_ind2" xlink:title="Coeq_ind2">
<ellipse fill="#f070d1" stroke="black" cx="568" cy="-415.75" rx="59.27" ry="18"/>
<ellipse fill="none" stroke="black" cx="568" cy="-415.75" rx="63.28" ry="22"/>
<ellipse fill="none" stroke="black" cx="568" cy="-415.75" rx="67.29" ry="26"/>
<text text-anchor="middle" x="568" y="-412.05" font-family="Times,serif" font-size="14.00">Coeq_ind2</text>
</a>
</g>
</g>
<!-- Coeq_Coeq_ind2&#45;&gt;Coeq_Coeq_Coeq_ind_beta_cglue -->
<g id="edge10" class="edge">
<title>Coeq_Coeq_ind2&#45;&gt;Coeq_Coeq_Coeq_ind_beta_cglue</title>
<path fill="none" stroke="black" d="M565.22,-389.77C563.64,-375.48 561.64,-357.54 560.02,-342.9"/>
<polygon fill="black" stroke="black" points="563.49,-342.48 558.91,-332.93 556.53,-343.25 563.49,-342.48"/>
</g>
<!-- Coeq_Coeq_rec2_beta_cgluer -->
<g id="node11" class="node">
<title>Coeq_Coeq_rec2_beta_cgluer</title>
<g id="a_node11"><a xlink:href="Coeq.html#Coeq_rec2_beta_cgluer" xlink:title="Coeq_rec2_beta_cgluer">
<ellipse fill="#f070d1" stroke="black" cx="342" cy="-610.75" rx="117.77" ry="18"/>
<ellipse fill="none" stroke="black" cx="342" cy="-610.75" rx="121.77" ry="22"/>
<ellipse fill="none" stroke="black" cx="342" cy="-610.75" rx="125.78" ry="26"/>
<text text-anchor="middle" x="342" y="-607.05" font-family="Times,serif" font-size="14.00">Coeq_rec2_beta_cgluer</text>
</a>
</g>
</g>
<!-- Coeq_Coeq_rec2 -->
<g id="node14" class="node">
<title>Coeq_Coeq_rec2</title>
<g id="a_node14"><a xlink:href="Coeq.html#Coeq_rec2" xlink:title="Coeq_rec2">
<ellipse fill="#f070d1" stroke="black" cx="658" cy="-512.75" rx="59.29" ry="18"/>
<text text-anchor="middle" x="658" y="-509.05" font-family="Times,serif" font-size="14.00">Coeq_rec2</text>
</a>
</g>
</g>
<!-- Coeq_Coeq_rec2_beta_cgluer&#45;&gt;Coeq_Coeq_rec2 -->
<g id="edge11" class="edge">
<title>Coeq_Coeq_rec2_beta_cgluer&#45;&gt;Coeq_Coeq_rec2</title>
<path fill="none" stroke="black" d="M410.57,-588.92C470.03,-570.85 554.71,-545.13 607.98,-528.94"/>
<polygon fill="black" stroke="black" points="609,-532.29 617.55,-526.04 606.96,-525.59 609,-532.29"/>
</g>
<!-- Coeq_Coeq_rec2_beta_cgluel -->
<g id="node12" class="node">
<title>Coeq_Coeq_rec2_beta_cgluel</title>
<g id="a_node12"><a xlink:href="Coeq.html#Coeq_rec2_beta_cgluel" xlink:title="Coeq_rec2_beta_cgluel">
<ellipse fill="#f070d1" stroke="black" cx="811" cy="-610.75" rx="116.19" ry="18"/>
<ellipse fill="none" stroke="black" cx="811" cy="-610.75" rx="120.18" ry="22"/>
<ellipse fill="none" stroke="black" cx="811" cy="-610.75" rx="124.18" ry="26"/>
<text text-anchor="middle" x="811" y="-607.05" font-family="Times,serif" font-size="14.00">Coeq_rec2_beta_cgluel</text>
</a>
</g>
</g>
<!-- Coeq_Coeq_rec2_beta_cgluel&#45;&gt;Coeq_Coeq_rec2 -->
<g id="edge12" class="edge">
<title>Coeq_Coeq_rec2_beta_cgluel&#45;&gt;Coeq_Coeq_rec2</title>
<path fill="none" stroke="black" d="M772.79,-585.77C747.83,-570.11 715.55,-549.85 691.58,-534.81"/>
<polygon fill="black" stroke="black" points="693.16,-531.68 682.83,-529.33 689.44,-537.61 693.16,-531.68"/>
</g>
<!-- Coeq_Coeq_rec2_beta -->
<g id="node13" class="node">
<title>Coeq_Coeq_rec2_beta</title>
<g id="a_node13"><a xlink:href="Coeq.html#Coeq_rec2_beta" xlink:title="Coeq_rec2_beta">
<ellipse fill="#f070d1" stroke="black" cx="577" cy="-610.75" rx="83.7" ry="18"/>
<ellipse fill="none" stroke="black" cx="577" cy="-610.75" rx="87.69" ry="22"/>
<ellipse fill="none" stroke="black" cx="577" cy="-610.75" rx="91.69" ry="26"/>
<text text-anchor="middle" x="577" y="-607.05" font-family="Times,serif" font-size="14.00">Coeq_rec2_beta</text>
</a>
</g>
</g>
<!-- Coeq_Coeq_rec2_beta&#45;&gt;Coeq_Coeq_rec2 -->
<g id="edge13" class="edge">
<title>Coeq_Coeq_rec2_beta&#45;&gt;Coeq_Coeq_rec2</title>
<path fill="none" stroke="black" d="M597.65,-585.27C609.8,-570.88 625.11,-552.73 637.27,-538.32"/>
<polygon fill="black" stroke="black" points="640.24,-540.22 644.02,-530.32 634.89,-535.71 640.24,-540.22"/>
</g>
<!-- Coeq_Coeq_rec2&#45;&gt;Coeq_Coeq_rec_beta_cglue -->
<g id="edge14" class="edge">
<title>Coeq_Coeq_rec2&#45;&gt;Coeq_Coeq_rec_beta_cglue</title>
<path fill="none" stroke="black" d="M675.77,-495.2C691.95,-480.13 716.04,-457.69 734.31,-440.67"/>
<polygon fill="black" stroke="black" points="736.82,-443.12 741.75,-433.74 732.05,-438 736.82,-443.12"/>
</g>
<!-- Coeq_equiv_functor_coeq_ -->
<g id="node15" class="node">
<title>Coeq_equiv_functor_coeq_</title>
<g id="a_node15"><a xlink:href="Coeq.html#equiv_functor_coeq'" xlink:title="equiv_functor_coeq&#39;">
<ellipse fill="#f070d1" stroke="black" cx="1918" cy="-1000.75" rx="102.87" ry="18"/>
<ellipse fill="none" stroke="black" cx="1918" cy="-1000.75" rx="106.88" ry="22"/>
<ellipse fill="none" stroke="black" cx="1918" cy="-1000.75" rx="110.88" ry="26"/>
<text text-anchor="middle" x="1918" y="-997.05" font-family="Times,serif" font-size="14.00">equiv_functor_coeq&#39;</text>
</a>
</g>
</g>
<!-- Coeq_equiv_functor_coeq -->
<g id="node16" class="node">
<title>Coeq_equiv_functor_coeq</title>
<g id="a_node16"><a xlink:href="Coeq.html#equiv_functor_coeq" xlink:title="equiv_functor_coeq">
<ellipse fill="#f070d1" stroke="black" cx="1918" cy="-902.75" rx="100.18" ry="18"/>
<text text-anchor="middle" x="1918" y="-899.05" font-family="Times,serif" font-size="14.00">equiv_functor_coeq</text>
</a>
</g>
</g>
<!-- Coeq_equiv_functor_coeq_&#45;&gt;Coeq_equiv_functor_coeq -->
<g id="edge15" class="edge">
<title>Coeq_equiv_functor_coeq_&#45;&gt;Coeq_equiv_functor_coeq</title>
<path fill="none" stroke="black" d="M1918,-974.52C1918,-961.2 1918,-944.82 1918,-931.18"/>
<polygon fill="black" stroke="black" points="1921.5,-930.94 1918,-920.94 1914.5,-930.94 1921.5,-930.94"/>
</g>
<!-- Coeq_isequiv_functor_coeq -->
<g id="node17" class="node">
<title>Coeq_isequiv_functor_coeq</title>
<g id="a_node17"><a xlink:href="Coeq.html#isequiv_functor_coeq" xlink:title="isequiv_functor_coeq">
<ellipse fill="#f070d1" stroke="black" cx="1918" cy="-814.75" rx="107.78" ry="18"/>
<text text-anchor="middle" x="1918" y="-811.05" font-family="Times,serif" font-size="14.00">isequiv_functor_coeq</text>
</a>
</g>
</g>
<!-- Coeq_equiv_functor_coeq&#45;&gt;Coeq_isequiv_functor_coeq -->
<g id="edge16" class="edge">
<title>Coeq_equiv_functor_coeq&#45;&gt;Coeq_isequiv_functor_coeq</title>
<path fill="none" stroke="black" d="M1918,-884.34C1918,-872.49 1918,-856.56 1918,-843.04"/>
<polygon fill="black" stroke="black" points="1921.5,-842.83 1918,-832.83 1914.5,-842.83 1921.5,-842.83"/>
</g>
<!-- Coeq_functor_coeq_eisretr -->
<g id="node18" class="node">
<title>Coeq_functor_coeq_eisretr</title>
<g id="a_node18"><a xlink:href="Coeq.html#functor_coeq_eisretr" xlink:title="functor_coeq_eisretr">
<ellipse fill="#f070d1" stroke="black" cx="2035" cy="-717.75" rx="105.88" ry="18"/>
<text text-anchor="middle" x="2035" y="-714.05" font-family="Times,serif" font-size="14.00">functor_coeq_eisretr</text>
</a>
</g>
</g>
<!-- Coeq_isequiv_functor_coeq&#45;&gt;Coeq_functor_coeq_eisretr -->
<g id="edge17" class="edge">
<title>Coeq_isequiv_functor_coeq&#45;&gt;Coeq_functor_coeq_eisretr</title>
<path fill="none" stroke="black" d="M1938.65,-796.98C1957.41,-781.75 1985.28,-759.12 2006.23,-742.11"/>
<polygon fill="black" stroke="black" points="2008.61,-744.69 2014.16,-735.66 2004.2,-739.25 2008.61,-744.69"/>
</g>
<!-- Coeq_functor_coeq_eissect -->
<g id="node19" class="node">
<title>Coeq_functor_coeq_eissect</title>
<g id="a_node19"><a xlink:href="Coeq.html#functor_coeq_eissect" xlink:title="functor_coeq_eissect">
<ellipse fill="#f070d1" stroke="black" cx="1804" cy="-717.75" rx="106.68" ry="18"/>
<text text-anchor="middle" x="1804" y="-714.05" font-family="Times,serif" font-size="14.00">functor_coeq_eissect</text>
</a>
</g>
</g>
<!-- Coeq_isequiv_functor_coeq&#45;&gt;Coeq_functor_coeq_eissect -->
<g id="edge18" class="edge">
<title>Coeq_isequiv_functor_coeq&#45;&gt;Coeq_functor_coeq_eissect</title>
<path fill="none" stroke="black" d="M1897.88,-796.98C1879.6,-781.75 1852.44,-759.12 1832.03,-742.11"/>
<polygon fill="black" stroke="black" points="1834.22,-739.38 1824.3,-735.66 1829.74,-744.76 1834.22,-739.38"/>
</g>
<!-- Coeq_functor_coeq_inverse -->
<g id="node20" class="node">
<title>Coeq_functor_coeq_inverse</title>
<g id="a_node20"><a xlink:href="Coeq.html#functor_coeq_inverse" xlink:title="functor_coeq_inverse">
<ellipse fill="#f070d1" stroke="black" cx="2034" cy="-610.75" rx="108.58" ry="18"/>
<text text-anchor="middle" x="2034" y="-607.05" font-family="Times,serif" font-size="14.00">functor_coeq_inverse</text>
</a>
</g>
</g>
<!-- Coeq_functor_coeq_eisretr&#45;&gt;Coeq_functor_coeq_inverse -->
<g id="edge19" class="edge">
<title>Coeq_functor_coeq_eisretr&#45;&gt;Coeq_functor_coeq_inverse</title>
<path fill="none" stroke="black" d="M2034.83,-699.41C2034.68,-682.97 2034.44,-658.02 2034.26,-638.94"/>
<polygon fill="black" stroke="black" points="2037.76,-638.73 2034.16,-628.76 2030.76,-638.8 2037.76,-638.73"/>
</g>
<!-- Coeq_functor_coeq_sect -->
<g id="node21" class="node">
<title>Coeq_functor_coeq_sect</title>
<g id="a_node21"><a xlink:href="Coeq.html#functor_coeq_sect" xlink:title="functor_coeq_sect">
<ellipse fill="#f070d1" stroke="black" cx="1814" cy="-610.75" rx="93.68" ry="18"/>
<text text-anchor="middle" x="1814" y="-607.05" font-family="Times,serif" font-size="14.00">functor_coeq_sect</text>
</a>
</g>
</g>
<!-- Coeq_functor_coeq_eisretr&#45;&gt;Coeq_functor_coeq_sect -->
<g id="edge20" class="edge">
<title>Coeq_functor_coeq_eisretr&#45;&gt;Coeq_functor_coeq_sect</title>
<path fill="none" stroke="black" d="M2000.95,-700.57C1962.12,-682.12 1898.57,-651.93 1856.52,-631.95"/>
<polygon fill="black" stroke="black" points="1857.9,-628.73 1847.36,-627.6 1854.89,-635.05 1857.9,-628.73"/>
</g>
<!-- Coeq_functor_coeq_eissect&#45;&gt;Coeq_functor_coeq_inverse -->
<g id="edge21" class="edge">
<title>Coeq_functor_coeq_eissect&#45;&gt;Coeq_functor_coeq_inverse</title>
<path fill="none" stroke="black" d="M1839.18,-700.69C1879.51,-682.27 1945.68,-652.07 1989.55,-632.04"/>
<polygon fill="black" stroke="black" points="1991.18,-635.14 1998.82,-627.81 1988.27,-628.78 1991.18,-635.14"/>
</g>
<!-- Coeq_functor_coeq_eissect&#45;&gt;Coeq_functor_coeq_sect -->
<g id="edge22" class="edge">
<title>Coeq_functor_coeq_eissect&#45;&gt;Coeq_functor_coeq_sect</title>
<path fill="none" stroke="black" d="M1805.65,-699.41C1807.22,-682.97 1809.59,-658.02 1811.41,-638.94"/>
<polygon fill="black" stroke="black" points="1814.92,-639.05 1812.38,-628.76 1807.95,-638.39 1814.92,-639.05"/>
</g>
<!-- Coeq_functor_coeq -->
<g id="node25" class="node">
<title>Coeq_functor_coeq</title>
<g id="a_node25"><a xlink:href="Coeq.html#functor_coeq" xlink:title="functor_coeq">
<ellipse fill="#f070d1" stroke="black" cx="1439" cy="-415.75" rx="70.39" ry="18"/>
<text text-anchor="middle" x="1439" y="-412.05" font-family="Times,serif" font-size="14.00">functor_coeq</text>
</a>
</g>
</g>
<!-- Coeq_functor_coeq_inverse&#45;&gt;Coeq_functor_coeq -->
<g id="edge23" class="edge">
<title>Coeq_functor_coeq_inverse&#45;&gt;Coeq_functor_coeq</title>
<path fill="none" stroke="black" d="M1986.81,-594.44C1876.91,-558.79 1604.56,-470.45 1490.52,-433.46"/>
<polygon fill="black" stroke="black" points="1491.55,-430.11 1480.96,-430.36 1489.39,-436.77 1491.55,-430.11"/>
</g>
<!-- Coeq_functor_coeq_beta_cglue -->
<g id="node24" class="node">
<title>Coeq_functor_coeq_beta_cglue</title>
<g id="a_node24"><a xlink:href="Coeq.html#functor_coeq_beta_cglue" xlink:title="functor_coeq_beta_cglue">
<ellipse fill="#f070d1" stroke="black" cx="1439" cy="-512.75" rx="124.28" ry="18"/>
<text text-anchor="middle" x="1439" y="-509.05" font-family="Times,serif" font-size="14.00">functor_coeq_beta_cglue</text>
</a>
</g>
</g>
<!-- Coeq_functor_coeq_sect&#45;&gt;Coeq_functor_coeq_beta_cglue -->
<g id="edge24" class="edge">
<title>Coeq_functor_coeq_sect&#45;&gt;Coeq_functor_coeq_beta_cglue</title>
<path fill="none" stroke="black" d="M1760.27,-595.99C1693.64,-578.93 1579.97,-549.84 1507.24,-531.22"/>
<polygon fill="black" stroke="black" points="1507.81,-527.75 1497.25,-528.66 1506.07,-534.53 1507.81,-527.75"/>
</g>
<!-- Coeq_functor_coeq_homotopy -->
<g id="node22" class="node">
<title>Coeq_functor_coeq_homotopy</title>
<g id="a_node22"><a xlink:href="Coeq.html#functor_coeq_homotopy" xlink:title="functor_coeq_homotopy">
<ellipse fill="#f070d1" stroke="black" cx="1574" cy="-610.75" rx="120.46" ry="18"/>
<ellipse fill="none" stroke="black" cx="1574" cy="-610.75" rx="124.47" ry="22"/>
<ellipse fill="none" stroke="black" cx="1574" cy="-610.75" rx="128.48" ry="26"/>
<text text-anchor="middle" x="1574" y="-607.05" font-family="Times,serif" font-size="14.00">functor_coeq_homotopy</text>
</a>
</g>
</g>
<!-- Coeq_functor_coeq_homotopy&#45;&gt;Coeq_functor_coeq_beta_cglue -->
<g id="edge25" class="edge">
<title>Coeq_functor_coeq_homotopy&#45;&gt;Coeq_functor_coeq_beta_cglue</title>
<path fill="none" stroke="black" d="M1539.93,-585.52C1518.79,-570.49 1491.79,-551.29 1471.03,-536.53"/>
<polygon fill="black" stroke="black" points="1473.02,-533.65 1462.84,-530.7 1468.97,-539.35 1473.02,-533.65"/>
</g>
<!-- Coeq_functor_coeq_compose -->
<g id="node23" class="node">
<title>Coeq_functor_coeq_compose</title>
<g id="a_node23"><a xlink:href="Coeq.html#functor_coeq_compose" xlink:title="functor_coeq_compose">
<ellipse fill="#f070d1" stroke="black" cx="1305" cy="-610.75" rx="115.08" ry="18"/>
<ellipse fill="none" stroke="black" cx="1305" cy="-610.75" rx="119.08" ry="22"/>
<ellipse fill="none" stroke="black" cx="1305" cy="-610.75" rx="123.08" ry="26"/>
<text text-anchor="middle" x="1305" y="-607.05" font-family="Times,serif" font-size="14.00">functor_coeq_compose</text>
</a>
</g>
</g>
<!-- Coeq_functor_coeq_compose&#45;&gt;Coeq_functor_coeq_beta_cglue -->
<g id="edge26" class="edge">
<title>Coeq_functor_coeq_compose&#45;&gt;Coeq_functor_coeq_beta_cglue</title>
<path fill="none" stroke="black" d="M1338.81,-585.52C1359.8,-570.49 1386.6,-551.29 1407.2,-536.53"/>
<polygon fill="black" stroke="black" points="1409.24,-539.37 1415.33,-530.7 1405.17,-533.68 1409.24,-539.37"/>
</g>
<!-- Coeq_functor_coeq_beta_cglue&#45;&gt;Coeq_functor_coeq -->
<g id="edge27" class="edge">
<title>Coeq_functor_coeq_beta_cglue&#45;&gt;Coeq_functor_coeq</title>
<path fill="none" stroke="black" d="M1439,-494.32C1439,-480.4 1439,-460.61 1439,-444.5"/>
<polygon fill="black" stroke="black" points="1442.5,-444.06 1439,-434.06 1435.5,-444.06 1442.5,-444.06"/>
</g>
<!-- Coeq_functor_coeq_beta_cglue&#45;&gt;Coeq_Coeq_rec_beta_cglue -->
<g id="edge28" class="edge">
<title>Coeq_functor_coeq_beta_cglue&#45;&gt;Coeq_Coeq_rec_beta_cglue</title>
<path fill="none" stroke="black" d="M1339.2,-502.04C1226.35,-490.43 1037.32,-469.1 876,-441.75 861,-439.2 845.01,-436.05 829.84,-432.85"/>
<polygon fill="black" stroke="black" points="830.52,-429.41 820.01,-430.74 829.06,-436.26 830.52,-429.41"/>
</g>
<!-- Coeq_functor_coeq&#45;&gt;Coeq_Coeq_rec -->
<g id="edge29" class="edge">
<title>Coeq_functor_coeq&#45;&gt;Coeq_Coeq_rec</title>
<path fill="none" stroke="black" d="M1382.46,-405.03C1272.24,-386.08 1029.8,-344.42 919.56,-325.47"/>
<polygon fill="black" stroke="black" points="920.08,-322.01 909.63,-323.76 918.89,-328.91 920.08,-322.01"/>
</g>
<!-- Coeq_equiv_Coeq_rec -->
<g id="node26" class="node">
<title>Coeq_equiv_Coeq_rec</title>
<g id="a_node26"><a xlink:href="Coeq.html#equiv_Coeq_rec" xlink:title="equiv_Coeq_rec">
<ellipse fill="#f070d1" stroke="black" cx="107" cy="-717.75" rx="83.37" ry="18"/>
<ellipse fill="none" stroke="black" cx="107" cy="-717.75" rx="87.38" ry="22"/>
<ellipse fill="none" stroke="black" cx="107" cy="-717.75" rx="91.39" ry="26"/>
<text text-anchor="middle" x="107" y="-714.05" font-family="Times,serif" font-size="14.00">equiv_Coeq_rec</text>
</a>
</g>
</g>
<!-- Coeq_isequiv_Coeq_rec -->
<g id="node27" class="node">
<title>Coeq_isequiv_Coeq_rec</title>
<g id="a_node27"><a xlink:href="Coeq.html#isequiv_Coeq_rec" xlink:title="isequiv_Coeq_rec">
<ellipse fill="#f070d1" stroke="black" cx="107" cy="-610.75" rx="90.98" ry="18"/>
<text text-anchor="middle" x="107" y="-607.05" font-family="Times,serif" font-size="14.00">isequiv_Coeq_rec</text>
</a>
</g>
</g>
<!-- Coeq_equiv_Coeq_rec&#45;&gt;Coeq_isequiv_Coeq_rec -->
<g id="edge30" class="edge">
<title>Coeq_equiv_Coeq_rec&#45;&gt;Coeq_isequiv_Coeq_rec</title>
<path fill="none" stroke="black" d="M107,-691.6C107,-675.82 107,-655.48 107,-639.27"/>
<polygon fill="black" stroke="black" points="110.5,-638.82 107,-628.82 103.5,-638.82 110.5,-638.82"/>
</g>
<!-- Coeq_isequiv_Coeq_rec_subproof -->
<g id="node28" class="node">
<title>Coeq_isequiv_Coeq_rec_subproof</title>
<g id="a_node28"><a xlink:href="Coeq.html#isequiv_Coeq_rec_subproof" xlink:title="isequiv_Coeq_rec_subproof">
<ellipse fill="#f070d1" stroke="black" cx="394" cy="-512.75" rx="135.68" ry="18"/>
<text text-anchor="middle" x="394" y="-509.05" font-family="Times,serif" font-size="14.00">isequiv_Coeq_rec_subproof</text>
</a>
</g>
</g>
<!-- Coeq_isequiv_Coeq_rec&#45;&gt;Coeq_isequiv_Coeq_rec_subproof -->
<g id="edge31" class="edge">
<title>Coeq_isequiv_Coeq_rec&#45;&gt;Coeq_isequiv_Coeq_rec_subproof</title>
<path fill="none" stroke="black" d="M151.21,-594.96C201.05,-578.29 282.23,-551.13 336.85,-532.86"/>
<polygon fill="black" stroke="black" points="338.01,-536.17 346.39,-529.67 335.79,-529.53 338.01,-536.17"/>
</g>
<!-- Coeq_Coeq_unrec -->
<g id="node29" class="node">
<title>Coeq_Coeq_unrec</title>
<g id="a_node29"><a xlink:href="Coeq.html#Coeq_unrec" xlink:title="Coeq_unrec">
<ellipse fill="#f070d1" stroke="black" cx="255" cy="-226.75" rx="64.99" ry="18"/>
<text text-anchor="middle" x="255" y="-223.05" font-family="Times,serif" font-size="14.00">Coeq_unrec</text>
</a>
</g>
</g>
<!-- Coeq_isequiv_Coeq_rec&#45;&gt;Coeq_Coeq_unrec -->
<g id="edge32" class="edge">
<title>Coeq_isequiv_Coeq_rec&#45;&gt;Coeq_Coeq_unrec</title>
<path fill="none" stroke="black" d="M113.74,-592.34C137.35,-531.42 216.33,-327.55 244.73,-254.26"/>
<polygon fill="black" stroke="black" points="248.04,-255.41 248.39,-244.82 241.51,-252.88 248.04,-255.41"/>
</g>
<!-- Coeq_isequiv_Coeq_rec_subproof&#45;&gt;Coeq_Coeq_rec_beta_cglue -->
<g id="edge33" class="edge">
<title>Coeq_isequiv_Coeq_rec_subproof&#45;&gt;Coeq_Coeq_rec_beta_cglue</title>
<path fill="none" stroke="black" d="M452.8,-496.48C518.87,-479.34 625.81,-451.58 694.49,-433.75"/>
<polygon fill="black" stroke="black" points="695.54,-437.09 704.34,-431.19 693.78,-430.32 695.54,-437.09"/>
</g>
<!-- Coeq_Coeq_unrec&#45;&gt;Coeq_Coeq_cglue -->
<g id="edge34" class="edge">
<title>Coeq_Coeq_unrec&#45;&gt;Coeq_Coeq_cglue</title>
<path fill="none" stroke="black" d="M294.53,-212.31C342.28,-196.08 422.07,-168.96 469.39,-152.87"/>
<polygon fill="black" stroke="black" points="470.64,-156.14 478.98,-149.61 468.38,-149.52 470.64,-156.14"/>
</g>
<!-- Coeq_Coeq_ind_dp_beta_cglue -->
<g id="node30" class="node">
<title>Coeq_Coeq_ind_dp_beta_cglue</title>
<g id="a_node30"><a xlink:href="Coeq.html#Coeq_ind_dp_beta_cglue" xlink:title="Coeq_ind_dp_beta_cglue">
<ellipse fill="#f070d1" stroke="black" cx="351" cy="-415.75" rx="123.48" ry="18"/>
<ellipse fill="none" stroke="black" cx="351" cy="-415.75" rx="127.48" ry="22"/>
<ellipse fill="none" stroke="black" cx="351" cy="-415.75" rx="131.48" ry="26"/>
<text text-anchor="middle" x="351" y="-412.05" font-family="Times,serif" font-size="14.00">Coeq_ind_dp_beta_cglue</text>
</a>
</g>
</g>
<!-- Coeq_Coeq_ind_dp_beta_cglue&#45;&gt;Coeq_Coeq_Coeq_ind_beta_cglue -->
<g id="edge35" class="edge">
<title>Coeq_Coeq_ind_dp_beta_cglue&#45;&gt;Coeq_Coeq_Coeq_ind_beta_cglue</title>
<path fill="none" stroke="black" d="M399.3,-391.54C434.19,-374.77 480.88,-352.33 514.39,-336.22"/>
<polygon fill="black" stroke="black" points="515.97,-339.35 523.47,-331.86 512.94,-333.04 515.97,-339.35"/>
</g>
<!-- Coeq_Coeq_ind_dp -->
<g id="node31" class="node">
<title>Coeq_Coeq_ind_dp</title>
<g id="a_node31"><a xlink:href="Coeq.html#Coeq_ind_dp" xlink:title="Coeq_ind_dp">
<ellipse fill="#f070d1" stroke="black" cx="356" cy="-314.75" rx="69.59" ry="18"/>
<text text-anchor="middle" x="356" y="-311.05" font-family="Times,serif" font-size="14.00">Coeq_ind_dp</text>
</a>
</g>
</g>
<!-- Coeq_Coeq_ind_dp_beta_cglue&#45;&gt;Coeq_Coeq_ind_dp -->
<g id="edge36" class="edge">
<title>Coeq_Coeq_ind_dp_beta_cglue&#45;&gt;Coeq_Coeq_ind_dp</title>
<path fill="none" stroke="black" d="M352.27,-389.51C352.99,-375.36 353.88,-357.69 354.61,-343.19"/>
<polygon fill="black" stroke="black" points="358.13,-343 355.14,-332.84 351.14,-342.65 358.13,-343"/>
</g>
<!-- Coeq_Coeq_ind_dp&#45;&gt;Coeq_Coeq_Coeq_ind -->
<g id="edge37" class="edge">
<title>Coeq_Coeq_ind_dp&#45;&gt;Coeq_Coeq_Coeq_ind</title>
<path fill="none" stroke="black" d="M386.71,-298.57C415.97,-284.11 460.13,-262.28 491.69,-246.68"/>
<polygon fill="black" stroke="black" points="493.63,-249.63 501.05,-242.06 490.53,-243.35 493.63,-249.63"/>
</g>
<!-- Coeq_Coeq_rec_beta_cglue&#45;&gt;Coeq_Coeq_Coeq_ind_beta_cglue -->
<g id="edge38" class="edge">
<title>Coeq_Coeq_rec_beta_cglue&#45;&gt;Coeq_Coeq_Coeq_ind_beta_cglue</title>
<path fill="none" stroke="black" d="M726.93,-398.62C692.24,-381.7 637.57,-355.04 599.65,-336.55"/>
<polygon fill="black" stroke="black" points="600.91,-333.27 590.39,-332.03 597.84,-339.56 600.91,-333.27"/>
</g>
<!-- Coeq_Coeq_rec_beta_cglue&#45;&gt;Coeq_Coeq_rec -->
<g id="edge39" class="edge">
<title>Coeq_Coeq_rec_beta_cglue&#45;&gt;Coeq_Coeq_rec</title>
<path fill="none" stroke="black" d="M777.47,-397.95C794.25,-381.83 819.74,-357.33 838.53,-339.27"/>
<polygon fill="black" stroke="black" points="841.34,-341.42 846.13,-331.97 836.49,-336.37 841.34,-341.42"/>
</g>
<!-- Coeq_Coeq_rec&#45;&gt;Coeq_Coeq_Coeq_ind -->
<g id="edge40" class="edge">
<title>Coeq_Coeq_rec&#45;&gt;Coeq_Coeq_Coeq_ind</title>
<path fill="none" stroke="black" d="M821.83,-303.12C760.92,-287.39 646.9,-257.94 580.85,-240.88"/>
<polygon fill="black" stroke="black" points="581.63,-237.47 571.07,-238.35 579.88,-244.24 581.63,-237.47"/>
</g>
</g>
</svg>
