<?xml version="1.0" encoding="UTF-8" standalone="no"?>
<!DOCTYPE svg PUBLIC "-//W3C//DTD SVG 1.1//EN"
 "http://www.w3.org/Graphics/SVG/1.1/DTD/svg11.dtd">
<!-- Generated by graphviz version 2.43.0 (0)
 -->
<!-- Title: HoTT_WildCat_Type Pages: 1 -->
<svg width="1118pt" height="563pt"
 viewBox="0.00 0.00 1118.00 563.00" xmlns="http://www.w3.org/2000/svg" xmlns:xlink="http://www.w3.org/1999/xlink">
<g id="graph0" class="graph" transform="scale(1 1) rotate(0) translate(4 559)">
<title>HoTT_WildCat_Type</title>
<polygon fill="white" stroke="transparent" points="-4,4 -4,-559 1114,-559 1114,4 -4,4"/>
<g id="clust1" class="cluster">
<title>cluster_Type</title>
<polygon fill="#ffffc3" stroke="black" points="11.55,-8 11.55,-547 1098.45,-547 1098.45,-8 11.55,-8"/>
<text text-anchor="middle" x="37.05" y="-531.8" font-family="Times,serif" font-size="14.00">Type</text>
</g>
<!-- Type_isterminal_unit -->
<g id="node1" class="node">
<title>Type_isterminal_unit</title>
<g id="a_node1"><a xlink:href="Type.html#isterminal_unit" xlink:title="isterminal_unit">
<ellipse fill="#f070d1" stroke="black" cx="958.68" cy="-402" rx="81.46" ry="18"/>
<ellipse fill="none" stroke="black" cx="958.68" cy="-402" rx="85.48" ry="22"/>
<ellipse fill="none" stroke="black" cx="958.68" cy="-402" rx="89.49" ry="26"/>
<text text-anchor="middle" x="958.68" y="-398.3" font-family="Times,serif" font-size="14.00">isterminal_unit</text>
</a>
</g>
</g>
<!-- Type_is1cat_strong_type -->
<g id="node6" class="node">
<title>Type_is1cat_strong_type</title>
<g id="a_node6"><a xlink:href="Type.html#is1cat_strong_type" xlink:title="is1cat_strong_type">
<ellipse fill="#f070d1" stroke="black" cx="629.68" cy="-322" rx="98.28" ry="18"/>
<text text-anchor="middle" x="629.68" y="-318.3" font-family="Times,serif" font-size="14.00">is1cat_strong_type</text>
</a>
</g>
</g>
<!-- Type_isterminal_unit&#45;&gt;Type_is1cat_strong_type -->
<g id="edge1" class="edge">
<title>Type_isterminal_unit&#45;&gt;Type_is1cat_strong_type</title>
<path fill="none" stroke="black" d="M890.91,-384.93C834.22,-371.49 753.74,-352.41 697.14,-338.99"/>
<polygon fill="black" stroke="black" points="697.75,-335.54 687.21,-336.64 696.13,-342.35 697.75,-335.54"/>
</g>
<!-- Type_isinitial_zero -->
<g id="node2" class="node">
<title>Type_isinitial_zero</title>
<g id="a_node2"><a xlink:href="Type.html#isinitial_zero" xlink:title="isinitial_zero">
<ellipse fill="#f070d1" stroke="black" cx="691.68" cy="-402" rx="69.58" ry="18"/>
<ellipse fill="none" stroke="black" cx="691.68" cy="-402" rx="73.59" ry="22"/>
<ellipse fill="none" stroke="black" cx="691.68" cy="-402" rx="77.59" ry="26"/>
<text text-anchor="middle" x="691.68" y="-398.3" font-family="Times,serif" font-size="14.00">isinitial_zero</text>
</a>
</g>
</g>
<!-- Type_isinitial_zero&#45;&gt;Type_is1cat_strong_type -->
<g id="edge2" class="edge">
<title>Type_isinitial_zero&#45;&gt;Type_is1cat_strong_type</title>
<path fill="none" stroke="black" d="M672.41,-376.75C665.22,-367.71 657.05,-357.43 649.79,-348.3"/>
<polygon fill="black" stroke="black" points="652.4,-345.96 643.44,-340.3 646.92,-350.31 652.4,-345.96"/>
</g>
<!-- Type_catie_isequiv -->
<g id="node3" class="node">
<title>Type_catie_isequiv</title>
<g id="a_node3"><a xlink:href="Type.html#catie_isequiv" xlink:title="catie_isequiv">
<ellipse fill="#f070d1" stroke="black" cx="435.68" cy="-490" rx="70.7" ry="18"/>
<ellipse fill="none" stroke="black" cx="435.68" cy="-490" rx="74.7" ry="22"/>
<ellipse fill="none" stroke="black" cx="435.68" cy="-490" rx="78.69" ry="26"/>
<text text-anchor="middle" x="435.68" y="-486.3" font-family="Times,serif" font-size="14.00">catie_isequiv</text>
</a>
</g>
</g>
<!-- Type_hasequivs_type -->
<g id="node4" class="node">
<title>Type_hasequivs_type</title>
<g id="a_node4"><a xlink:href="Type.html#hasequivs_type" xlink:title="hasequivs_type">
<ellipse fill="#f070d1" stroke="black" cx="435.68" cy="-402" rx="81.79" ry="18"/>
<text text-anchor="middle" x="435.68" y="-398.3" font-family="Times,serif" font-size="14.00">hasequivs_type</text>
</a>
</g>
</g>
<!-- Type_catie_isequiv&#45;&gt;Type_hasequivs_type -->
<g id="edge3" class="edge">
<title>Type_catie_isequiv&#45;&gt;Type_hasequivs_type</title>
<path fill="none" stroke="black" d="M435.68,-463.66C435.68,-453.11 435.68,-440.84 435.68,-430.1"/>
<polygon fill="black" stroke="black" points="439.18,-430 435.68,-420 432.18,-430 439.18,-430"/>
</g>
<!-- Type_hasequivs_type&#45;&gt;Type_is1cat_strong_type -->
<g id="edge4" class="edge">
<title>Type_hasequivs_type&#45;&gt;Type_is1cat_strong_type</title>
<path fill="none" stroke="black" d="M473.09,-385.96C503.85,-373.59 547.68,-355.97 581.14,-342.52"/>
<polygon fill="black" stroke="black" points="582.76,-345.64 590.73,-338.66 580.15,-339.14 582.76,-345.64"/>
</g>
<!-- Type_hasmorext_type -->
<g id="node5" class="node">
<title>Type_hasmorext_type</title>
<g id="a_node5"><a xlink:href="Type.html#hasmorext_type" xlink:title="hasmorext_type">
<ellipse fill="#f070d1" stroke="black" cx="157.68" cy="-402" rx="85.27" ry="18"/>
<ellipse fill="none" stroke="black" cx="157.68" cy="-402" rx="89.28" ry="22"/>
<ellipse fill="none" stroke="black" cx="157.68" cy="-402" rx="93.29" ry="26"/>
<text text-anchor="middle" x="157.68" y="-398.3" font-family="Times,serif" font-size="14.00">hasmorext_type</text>
</a>
</g>
</g>
<!-- Type_hasmorext_type&#45;&gt;Type_is1cat_strong_type -->
<g id="edge5" class="edge">
<title>Type_hasmorext_type&#45;&gt;Type_is1cat_strong_type</title>
<path fill="none" stroke="black" d="M236.42,-387.99C323.17,-373.65 461.96,-350.72 549.34,-336.28"/>
<polygon fill="black" stroke="black" points="549.92,-339.73 559.21,-334.65 548.77,-332.82 549.92,-339.73"/>
</g>
<!-- Type_is0functor_type_precomp -->
<g id="node7" class="node">
<title>Type_is0functor_type_precomp</title>
<g id="a_node7"><a xlink:href="Type.html#is0functor_type_precomp" xlink:title="is0functor_type_precomp">
<ellipse fill="#f070d1" stroke="black" cx="227.68" cy="-178" rx="128.08" ry="18"/>
<text text-anchor="middle" x="227.68" y="-174.3" font-family="Times,serif" font-size="14.00">is0functor_type_precomp</text>
</a>
</g>
</g>
<!-- Type_is1cat_strong_type&#45;&gt;Type_is0functor_type_precomp -->
<g id="edge6" class="edge">
<title>Type_is1cat_strong_type&#45;&gt;Type_is0functor_type_precomp</title>
<path fill="none" stroke="black" d="M586.66,-305.8C513.09,-279.82 363.23,-226.88 282.36,-198.31"/>
<polygon fill="black" stroke="black" points="283.44,-194.98 272.85,-194.95 281.11,-201.58 283.44,-194.98"/>
</g>
<!-- Type_is0functor_type_postcomp -->
<g id="node8" class="node">
<title>Type_is0functor_type_postcomp</title>
<g id="a_node8"><a xlink:href="Type.html#is0functor_type_postcomp" xlink:title="is0functor_type_postcomp">
<ellipse fill="#f070d1" stroke="black" cx="629.68" cy="-178" rx="131.88" ry="18"/>
<text text-anchor="middle" x="629.68" y="-174.3" font-family="Times,serif" font-size="14.00">is0functor_type_postcomp</text>
</a>
</g>
</g>
<!-- Type_is1cat_strong_type&#45;&gt;Type_is0functor_type_postcomp -->
<g id="edge7" class="edge">
<title>Type_is1cat_strong_type&#45;&gt;Type_is0functor_type_postcomp</title>
<path fill="none" stroke="black" d="M629.68,-303.87C629.68,-279.67 629.68,-235.21 629.68,-206.39"/>
<polygon fill="black" stroke="black" points="633.18,-206.19 629.68,-196.19 626.18,-206.19 633.18,-206.19"/>
</g>
<!-- Type_is0gpd_arrow -->
<g id="node9" class="node">
<title>Type_is0gpd_arrow</title>
<g id="a_node9"><a xlink:href="Type.html#is0gpd_arrow" xlink:title="is0gpd_arrow">
<ellipse fill="#f070d1" stroke="black" cx="858.68" cy="-250" rx="73.39" ry="18"/>
<text text-anchor="middle" x="858.68" y="-246.3" font-family="Times,serif" font-size="14.00">is0gpd_arrow</text>
</a>
</g>
</g>
<!-- Type_is1cat_strong_type&#45;&gt;Type_is0gpd_arrow -->
<g id="edge8" class="edge">
<title>Type_is1cat_strong_type&#45;&gt;Type_is0gpd_arrow</title>
<path fill="none" stroke="black" d="M677.97,-306.24C715.07,-294.9 766.3,-279.24 804.75,-267.49"/>
<polygon fill="black" stroke="black" points="806.19,-270.71 814.73,-264.44 804.14,-264.01 806.19,-270.71"/>
</g>
<!-- Type_isgraph_arrow -->
<g id="node11" class="node">
<title>Type_isgraph_arrow</title>
<g id="a_node11"><a xlink:href="Type.html#isgraph_arrow" xlink:title="isgraph_arrow">
<ellipse fill="#f070d1" stroke="black" cx="629.68" cy="-106" rx="77.19" ry="18"/>
<text text-anchor="middle" x="629.68" y="-102.3" font-family="Times,serif" font-size="14.00">isgraph_arrow</text>
</a>
</g>
</g>
<!-- Type_is0functor_type_precomp&#45;&gt;Type_isgraph_arrow -->
<g id="edge9" class="edge">
<title>Type_is0functor_type_precomp&#45;&gt;Type_isgraph_arrow</title>
<path fill="none" stroke="black" d="M304.72,-163.59C378.27,-150.78 488.16,-131.64 559.39,-119.24"/>
<polygon fill="black" stroke="black" points="560.36,-122.62 569.61,-117.46 559.16,-115.73 560.36,-122.62"/>
</g>
<!-- Type_is01cat_type -->
<g id="node12" class="node">
<title>Type_is01cat_type</title>
<g id="a_node12"><a xlink:href="Type.html#is01cat_type" xlink:title="is01cat_type">
<ellipse fill="#f070d1" stroke="black" cx="390.68" cy="-106" rx="69.59" ry="18"/>
<text text-anchor="middle" x="390.68" y="-102.3" font-family="Times,serif" font-size="14.00">is01cat_type</text>
</a>
</g>
</g>
<!-- Type_is0functor_type_precomp&#45;&gt;Type_is01cat_type -->
<g id="edge10" class="edge">
<title>Type_is0functor_type_precomp&#45;&gt;Type_is01cat_type</title>
<path fill="none" stroke="black" d="M265.49,-160.76C289.84,-150.31 321.58,-136.68 347.01,-125.76"/>
<polygon fill="black" stroke="black" points="348.61,-128.88 356.41,-121.72 345.84,-122.45 348.61,-128.88"/>
</g>
<!-- Type_is0functor_type_postcomp&#45;&gt;Type_isgraph_arrow -->
<g id="edge11" class="edge">
<title>Type_is0functor_type_postcomp&#45;&gt;Type_isgraph_arrow</title>
<path fill="none" stroke="black" d="M629.68,-159.7C629.68,-151.98 629.68,-142.71 629.68,-134.11"/>
<polygon fill="black" stroke="black" points="633.18,-134.1 629.68,-124.1 626.18,-134.1 633.18,-134.1"/>
</g>
<!-- Type_is0functor_type_postcomp&#45;&gt;Type_is01cat_type -->
<g id="edge12" class="edge">
<title>Type_is0functor_type_postcomp&#45;&gt;Type_is01cat_type</title>
<path fill="none" stroke="black" d="M576.64,-161.46C537.47,-149.99 484.32,-134.43 444.88,-122.87"/>
<polygon fill="black" stroke="black" points="445.74,-119.48 435.16,-120.03 443.77,-126.2 445.74,-119.48"/>
</g>
<!-- Type_is01cat_arrow -->
<g id="node10" class="node">
<title>Type_is01cat_arrow</title>
<g id="a_node10"><a xlink:href="Type.html#is01cat_arrow" xlink:title="is01cat_arrow">
<ellipse fill="#f070d1" stroke="black" cx="955.68" cy="-178" rx="76.09" ry="18"/>
<text text-anchor="middle" x="955.68" y="-174.3" font-family="Times,serif" font-size="14.00">is01cat_arrow</text>
</a>
</g>
</g>
<!-- Type_is0gpd_arrow&#45;&gt;Type_is01cat_arrow -->
<g id="edge13" class="edge">
<title>Type_is0gpd_arrow&#45;&gt;Type_is01cat_arrow</title>
<path fill="none" stroke="black" d="M881.18,-232.76C894.06,-223.47 910.43,-211.66 924.53,-201.48"/>
<polygon fill="black" stroke="black" points="926.91,-204.08 932.97,-195.39 922.81,-198.4 926.91,-204.08"/>
</g>
<!-- Type_is01cat_arrow&#45;&gt;Type_isgraph_arrow -->
<g id="edge14" class="edge">
<title>Type_is01cat_arrow&#45;&gt;Type_isgraph_arrow</title>
<path fill="none" stroke="black" d="M901.48,-165.36C844.54,-153.14 755.01,-133.91 694.4,-120.9"/>
<polygon fill="black" stroke="black" points="695.07,-117.46 684.56,-118.78 693.6,-124.3 695.07,-117.46"/>
</g>
<!-- Type_isgraph_type -->
<g id="node13" class="node">
<title>Type_isgraph_type</title>
<g id="a_node13"><a xlink:href="Type.html#isgraph_type" xlink:title="isgraph_type">
<ellipse fill="#f070d1" stroke="black" cx="509.68" cy="-34" rx="70.69" ry="18"/>
<text text-anchor="middle" x="509.68" y="-30.3" font-family="Times,serif" font-size="14.00">isgraph_type</text>
</a>
</g>
</g>
<!-- Type_isgraph_arrow&#45;&gt;Type_isgraph_type -->
<g id="edge15" class="edge">
<title>Type_isgraph_arrow&#45;&gt;Type_isgraph_type</title>
<path fill="none" stroke="black" d="M602.45,-89.12C585.58,-79.27 563.71,-66.52 545.44,-55.86"/>
<polygon fill="black" stroke="black" points="547.21,-52.84 536.8,-50.82 543.68,-58.88 547.21,-52.84"/>
</g>
<!-- Type_is01cat_type&#45;&gt;Type_isgraph_type -->
<g id="edge16" class="edge">
<title>Type_is01cat_type&#45;&gt;Type_isgraph_type</title>
<path fill="none" stroke="black" d="M417.39,-89.29C433.96,-79.54 455.47,-66.89 473.55,-56.25"/>
<polygon fill="black" stroke="black" points="475.81,-58.99 482.65,-50.9 472.26,-52.95 475.81,-58.99"/>
</g>
</g>
</svg>
