<?xml version="1.0" encoding="UTF-8" standalone="no"?>
<!DOCTYPE svg PUBLIC "-//W3C//DTD SVG 1.1//EN"
 "http://www.w3.org/Graphics/SVG/1.1/DTD/svg11.dtd">
<!-- Generated by graphviz version 2.43.0 (0)
 -->
<!-- Title: HoTT_Modalities_Lex Pages: 1 -->
<svg width="4371pt" height="2190pt"
 viewBox="0.00 0.00 4371.00 2189.50" xmlns="http://www.w3.org/2000/svg" xmlns:xlink="http://www.w3.org/1999/xlink">
<g id="graph0" class="graph" transform="scale(1 1) rotate(0) translate(4 2185.5)">
<title>HoTT_Modalities_Lex</title>
<polygon fill="white" stroke="transparent" points="-4,4 -4,-2185.5 4367,-2185.5 4367,4 -4,4"/>
<g id="clust1" class="cluster">
<title>cluster_Lex</title>
<polygon fill="#ffffc3" stroke="black" points="8,-42.46 8,-2139.04 4355,-2139.04 4355,-42.46 8,-42.46"/>
<text text-anchor="middle" x="29" y="-2123.84" font-family="Times,serif" font-size="14.00">Lex</text>
</g>
<!-- Lex_lex_gen -->
<g id="node1" class="node">
<title>Lex_lex_gen</title>
<g id="a_node1"><a xlink:href="Lex.html#lex_gen" xlink:title="lex_gen">
<ellipse fill="#f070d1" stroke="black" cx="4293" cy="-1836.46" rx="46.27" ry="18"/>
<ellipse fill="none" stroke="black" cx="4293" cy="-1836.46" rx="50.28" ry="22"/>
<ellipse fill="none" stroke="black" cx="4293" cy="-1836.46" rx="54.29" ry="26"/>
<text text-anchor="middle" x="4293" y="-1832.76" font-family="Times,serif" font-size="14.00">lex_gen</text>
</a>
</g>
</g>
<!-- Lex_lex_from_inO_typeO -->
<g id="node8" class="node">
<title>Lex_lex_from_inO_typeO</title>
<g id="a_node8"><a xlink:href="Lex.html#lex_from_inO_typeO" xlink:title="lex_from_inO_typeO">
<ellipse fill="#f070d1" stroke="black" cx="4244" cy="-1369.46" rx="103.18" ry="18"/>
<text text-anchor="middle" x="4244" y="-1365.76" font-family="Times,serif" font-size="14.00">lex_from_inO_typeO</text>
</a>
</g>
</g>
<!-- Lex_lex_gen&#45;&gt;Lex_lex_from_inO_typeO -->
<g id="edge1" class="edge">
<title>Lex_lex_gen&#45;&gt;Lex_lex_from_inO_typeO</title>
<path fill="none" stroke="black" d="M4290.37,-1810.46C4281.94,-1730.48 4255.68,-1481.26 4246.89,-1397.92"/>
<polygon fill="black" stroke="black" points="4250.35,-1397.31 4245.82,-1387.73 4243.39,-1398.04 4250.35,-1397.31"/>
</g>
<!-- Lex_ismodality_isequiv_O_functor_hfiber -->
<g id="node2" class="node">
<title>Lex_ismodality_isequiv_O_functor_hfiber</title>
<g id="a_node2"><a xlink:href="Lex.html#ismodality_isequiv_O_functor_hfiber" xlink:title="ismodality_isequiv_O_functor_hfiber">
<ellipse fill="#f070d1" stroke="black" cx="4035" cy="-1836.46" rx="178.16" ry="18"/>
<ellipse fill="none" stroke="black" cx="4035" cy="-1836.46" rx="182.17" ry="22"/>
<ellipse fill="none" stroke="black" cx="4035" cy="-1836.46" rx="186.17" ry="26"/>
<text text-anchor="middle" x="4035" y="-1832.76" font-family="Times,serif" font-size="14.00">ismodality_isequiv_O_functor_hfiber</text>
</a>
</g>
</g>
<!-- Lex_lex_from_ispullback_connmap_mapino_commsq -->
<g id="node3" class="node">
<title>Lex_lex_from_ispullback_connmap_mapino_commsq</title>
<g id="a_node3"><a xlink:href="Lex.html#lex_from_ispullback_connmap_mapino_commsq" xlink:title="lex_from_ispullback_connmap_mapino_commsq">
<ellipse fill="#f070d1" stroke="black" cx="3593" cy="-1836.46" rx="229.36" ry="18"/>
<ellipse fill="none" stroke="black" cx="3593" cy="-1836.46" rx="233.36" ry="22"/>
<ellipse fill="none" stroke="black" cx="3593" cy="-1836.46" rx="237.36" ry="26"/>
<text text-anchor="middle" x="3593" y="-1832.76" font-family="Times,serif" font-size="14.00">lex_from_ispullback_connmap_mapino_commsq</text>
</a>
</g>
</g>
<!-- Lex_lex_from_isequiv_ismodal_isconnected_types -->
<g id="node4" class="node">
<title>Lex_lex_from_isequiv_ismodal_isconnected_types</title>
<g id="a_node4"><a xlink:href="Lex.html#lex_from_isequiv_ismodal_isconnected_types" xlink:title="lex_from_isequiv_ismodal_isconnected_types">
<ellipse fill="#f070d1" stroke="black" cx="3736" cy="-1369.46" rx="217.96" ry="18"/>
<text text-anchor="middle" x="3736" y="-1365.76" font-family="Times,serif" font-size="14.00">lex_from_isequiv_ismodal_isconnected_types</text>
</a>
</g>
</g>
<!-- Lex_lex_from_ispullback_connmap_mapino_commsq&#45;&gt;Lex_lex_from_isequiv_ismodal_isconnected_types -->
<g id="edge2" class="edge">
<title>Lex_lex_from_ispullback_connmap_mapino_commsq&#45;&gt;Lex_lex_from_isequiv_ismodal_isconnected_types</title>
<path fill="none" stroke="black" d="M3600.69,-1810.46C3625.33,-1730.32 3702.24,-1480.24 3727.71,-1397.41"/>
<polygon fill="black" stroke="black" points="3731.1,-1398.32 3730.69,-1387.73 3724.41,-1396.26 3731.1,-1398.32"/>
</g>
<!-- Lex_lex_from_conn_map_lex -->
<g id="node6" class="node">
<title>Lex_lex_from_conn_map_lex</title>
<g id="a_node6"><a xlink:href="Lex.html#lex_from_conn_map_lex" xlink:title="lex_from_conn_map_lex">
<ellipse fill="#f070d1" stroke="black" cx="3544" cy="-944.46" rx="119.68" ry="18"/>
<text text-anchor="middle" x="3544" y="-940.76" font-family="Times,serif" font-size="14.00">lex_from_conn_map_lex</text>
</a>
</g>
</g>
<!-- Lex_lex_from_isequiv_ismodal_isconnected_types&#45;&gt;Lex_lex_from_conn_map_lex -->
<g id="edge3" class="edge">
<title>Lex_lex_from_isequiv_ismodal_isconnected_types&#45;&gt;Lex_lex_from_conn_map_lex</title>
<path fill="none" stroke="black" d="M3728.24,-1351.36C3698.57,-1285.99 3592.21,-1051.68 3556.1,-972.12"/>
<polygon fill="black" stroke="black" points="3559.18,-970.44 3551.86,-962.78 3552.81,-973.33 3559.18,-970.44"/>
</g>
<!-- Lex_lex_from_isconnected_paths -->
<g id="node5" class="node">
<title>Lex_lex_from_isconnected_paths</title>
<g id="a_node5"><a xlink:href="Lex.html#lex_from_isconnected_paths" xlink:title="lex_from_isconnected_paths">
<ellipse fill="#f070d1" stroke="black" cx="3352" cy="-1369.46" rx="140.28" ry="18"/>
<ellipse fill="none" stroke="black" cx="3352" cy="-1369.46" rx="144.28" ry="22"/>
<ellipse fill="none" stroke="black" cx="3352" cy="-1369.46" rx="148.28" ry="26"/>
<text text-anchor="middle" x="3352" y="-1365.76" font-family="Times,serif" font-size="14.00">lex_from_isconnected_paths</text>
</a>
</g>
</g>
<!-- Lex_lex_from_isconnected_paths&#45;&gt;Lex_lex_from_conn_map_lex -->
<g id="edge4" class="edge">
<title>Lex_lex_from_isconnected_paths&#45;&gt;Lex_lex_from_conn_map_lex</title>
<path fill="none" stroke="black" d="M3363.44,-1343.27C3397.35,-1268.54 3497.19,-1048.59 3531.92,-972.07"/>
<polygon fill="black" stroke="black" points="3535.25,-973.21 3536.2,-962.65 3528.88,-970.31 3535.25,-973.21"/>
</g>
<!-- Lex_lex_from_cancelL_conn_map -->
<g id="node7" class="node">
<title>Lex_lex_from_cancelL_conn_map</title>
<g id="a_node7"><a xlink:href="Lex.html#lex_from_cancelL_conn_map" xlink:title="lex_from_cancelL_conn_map">
<ellipse fill="#f070d1" stroke="black" cx="3544" cy="-562.46" rx="141.07" ry="18"/>
<text text-anchor="middle" x="3544" y="-558.76" font-family="Times,serif" font-size="14.00">lex_from_cancelL_conn_map</text>
</a>
</g>
</g>
<!-- Lex_lex_from_conn_map_lex&#45;&gt;Lex_lex_from_cancelL_conn_map -->
<g id="edge5" class="edge">
<title>Lex_lex_from_conn_map_lex&#45;&gt;Lex_lex_from_cancelL_conn_map</title>
<path fill="none" stroke="black" d="M3544,-926.15C3544,-865.93 3544,-665.32 3544,-591.25"/>
<polygon fill="black" stroke="black" points="3547.5,-590.88 3544,-580.88 3540.5,-590.88 3547.5,-590.88"/>
</g>
<!-- Lex_lex_from_modal_over_connected_isconst -->
<g id="node9" class="node">
<title>Lex_lex_from_modal_over_connected_isconst</title>
<g id="a_node9"><a xlink:href="Lex.html#lex_from_modal_over_connected_isconst" xlink:title="lex_from_modal_over_connected_isconst">
<ellipse fill="#f070d1" stroke="black" cx="3544" cy="-180.46" rx="196.87" ry="18"/>
<text text-anchor="middle" x="3544" y="-176.76" font-family="Times,serif" font-size="14.00">lex_from_modal_over_connected_isconst</text>
</a>
</g>
</g>
<!-- Lex_lex_from_cancelL_conn_map&#45;&gt;Lex_lex_from_modal_over_connected_isconst -->
<g id="edge6" class="edge">
<title>Lex_lex_from_cancelL_conn_map&#45;&gt;Lex_lex_from_modal_over_connected_isconst</title>
<path fill="none" stroke="black" d="M3544,-544.15C3544,-483.93 3544,-283.32 3544,-209.25"/>
<polygon fill="black" stroke="black" points="3547.5,-208.88 3544,-198.88 3540.5,-208.88 3547.5,-208.88"/>
</g>
<!-- Lex_istrunc_O_lex -->
<g id="node10" class="node">
<title>Lex_istrunc_O_lex</title>
<g id="a_node10"><a xlink:href="Lex.html#istrunc_O_lex" xlink:title="istrunc_O_lex">
<ellipse fill="#f070d1" stroke="black" cx="3256" cy="-1836.46" rx="73.39" ry="18"/>
<ellipse fill="none" stroke="black" cx="3256" cy="-1836.46" rx="77.39" ry="22"/>
<ellipse fill="none" stroke="black" cx="3256" cy="-1836.46" rx="81.39" ry="26"/>
<text text-anchor="middle" x="3256" y="-1832.76" font-family="Times,serif" font-size="14.00">istrunc_O_lex</text>
</a>
</g>
</g>
<!-- Lex_equiv_path_O -->
<g id="node19" class="node">
<title>Lex_equiv_path_O</title>
<g id="a_node19"><a xlink:href="Lex.html#equiv_path_O" xlink:title="equiv_path_O">
<ellipse fill="#f070d1" stroke="black" cx="3112" cy="-1369.46" rx="73.39" ry="18"/>
<text text-anchor="middle" x="3112" y="-1365.76" font-family="Times,serif" font-size="14.00">equiv_path_O</text>
</a>
</g>
</g>
<!-- Lex_istrunc_O_lex&#45;&gt;Lex_equiv_path_O -->
<g id="edge7" class="edge">
<title>Lex_istrunc_O_lex&#45;&gt;Lex_equiv_path_O</title>
<path fill="none" stroke="black" d="M3248.26,-1810.46C3223.44,-1730.32 3146,-1480.24 3120.35,-1397.41"/>
<polygon fill="black" stroke="black" points="3123.65,-1396.25 3117.35,-1387.73 3116.96,-1398.32 3123.65,-1396.25"/>
</g>
<!-- Lex_inO_typeO_lex -->
<g id="node11" class="node">
<title>Lex_inO_typeO_lex</title>
<g id="a_node11"><a xlink:href="Lex.html#inO_typeO_lex" xlink:title="inO_typeO_lex">
<ellipse fill="#f070d1" stroke="black" cx="3071" cy="-1836.46" rx="77.2" ry="18"/>
<ellipse fill="none" stroke="black" cx="3071" cy="-1836.46" rx="81.19" ry="22"/>
<ellipse fill="none" stroke="black" cx="3071" cy="-1836.46" rx="85.19" ry="26"/>
<text text-anchor="middle" x="3071" y="-1832.76" font-family="Times,serif" font-size="14.00">inO_typeO_lex</text>
</a>
</g>
</g>
<!-- Lex_modal_over_connected_isconst_lex -->
<g id="node12" class="node">
<title>Lex_modal_over_connected_isconst_lex</title>
<g id="a_node12"><a xlink:href="Lex.html#modal_over_connected_isconst_lex" xlink:title="modal_over_connected_isconst_lex">
<ellipse fill="#f070d1" stroke="black" cx="2789" cy="-1836.46" rx="170.87" ry="18"/>
<ellipse fill="none" stroke="black" cx="2789" cy="-1836.46" rx="174.87" ry="22"/>
<ellipse fill="none" stroke="black" cx="2789" cy="-1836.46" rx="178.87" ry="26"/>
<text text-anchor="middle" x="2789" y="-1832.76" font-family="Times,serif" font-size="14.00">modal_over_connected_isconst_lex</text>
</a>
</g>
</g>
<!-- Lex_conn_map_O_inverts -->
<g id="node13" class="node">
<title>Lex_conn_map_O_inverts</title>
<g id="a_node13"><a xlink:href="Lex.html#conn_map_O_inverts" xlink:title="conn_map_O_inverts">
<ellipse fill="#f070d1" stroke="black" cx="2478" cy="-1836.46" rx="105.89" ry="18"/>
<ellipse fill="none" stroke="black" cx="2478" cy="-1836.46" rx="109.88" ry="22"/>
<ellipse fill="none" stroke="black" cx="2478" cy="-1836.46" rx="113.88" ry="26"/>
<text text-anchor="middle" x="2478" y="-1832.76" font-family="Times,serif" font-size="14.00">conn_map_O_inverts</text>
</a>
</g>
</g>
<!-- Lex_cancelL_conn_map -->
<g id="node14" class="node">
<title>Lex_cancelL_conn_map</title>
<g id="a_node14"><a xlink:href="Lex.html#cancelL_conn_map" xlink:title="cancelL_conn_map">
<ellipse fill="#f070d1" stroke="black" cx="2241" cy="-1836.46" rx="96.7" ry="18"/>
<ellipse fill="none" stroke="black" cx="2241" cy="-1836.46" rx="100.69" ry="22"/>
<ellipse fill="none" stroke="black" cx="2241" cy="-1836.46" rx="104.68" ry="26"/>
<text text-anchor="middle" x="2241" y="-1832.76" font-family="Times,serif" font-size="14.00">cancelL_conn_map</text>
</a>
</g>
</g>
<!-- Lex_diagonal_O_functor -->
<g id="node15" class="node">
<title>Lex_diagonal_O_functor</title>
<g id="a_node15"><a xlink:href="Lex.html#diagonal_O_functor" xlink:title="diagonal_O_functor">
<ellipse fill="#f070d1" stroke="black" cx="2010" cy="-1836.46" rx="100.18" ry="18"/>
<ellipse fill="none" stroke="black" cx="2010" cy="-1836.46" rx="104.18" ry="22"/>
<ellipse fill="none" stroke="black" cx="2010" cy="-1836.46" rx="108.18" ry="26"/>
<text text-anchor="middle" x="2010" y="-1832.76" font-family="Times,serif" font-size="14.00">diagonal_O_functor</text>
</a>
</g>
</g>
<!-- Lex_equiv_O_pullback -->
<g id="node17" class="node">
<title>Lex_equiv_O_pullback</title>
<g id="a_node17"><a xlink:href="Lex.html#equiv_O_pullback" xlink:title="equiv_O_pullback">
<ellipse fill="#f070d1" stroke="black" cx="2020" cy="-1369.46" rx="90.98" ry="18"/>
<text text-anchor="middle" x="2020" y="-1365.76" font-family="Times,serif" font-size="14.00">equiv_O_pullback</text>
</a>
</g>
</g>
<!-- Lex_diagonal_O_functor&#45;&gt;Lex_equiv_O_pullback -->
<g id="edge8" class="edge">
<title>Lex_diagonal_O_functor&#45;&gt;Lex_equiv_O_pullback</title>
<path fill="none" stroke="black" d="M2010.54,-1810.46C2012.26,-1730.48 2017.62,-1481.26 2019.41,-1397.92"/>
<polygon fill="black" stroke="black" points="2022.91,-1397.8 2019.63,-1387.73 2015.91,-1397.65 2022.91,-1397.8"/>
</g>
<!-- Lex_O_functor_pullback -->
<g id="node16" class="node">
<title>Lex_O_functor_pullback</title>
<g id="a_node16"><a xlink:href="Lex.html#O_functor_pullback" xlink:title="O_functor_pullback">
<ellipse fill="#f070d1" stroke="black" cx="1804" cy="-1369.46" rx="99.39" ry="18"/>
<ellipse fill="none" stroke="black" cx="1804" cy="-1369.46" rx="103.38" ry="22"/>
<ellipse fill="none" stroke="black" cx="1804" cy="-1369.46" rx="107.38" ry="26"/>
<text text-anchor="middle" x="1804" y="-1365.76" font-family="Times,serif" font-size="14.00">O_functor_pullback</text>
</a>
</g>
</g>
<!-- Lex_O_inverts_functor_pullback_to_O -->
<g id="node18" class="node">
<title>Lex_O_inverts_functor_pullback_to_O</title>
<g id="a_node18"><a xlink:href="Lex.html#O_inverts_functor_pullback_to_O" xlink:title="O_inverts_functor_pullback_to_O">
<ellipse fill="#f070d1" stroke="black" cx="1953" cy="-944.46" rx="161.67" ry="18"/>
<text text-anchor="middle" x="1953" y="-940.76" font-family="Times,serif" font-size="14.00">O_inverts_functor_pullback_to_O</text>
</a>
</g>
</g>
<!-- Lex_O_functor_pullback&#45;&gt;Lex_O_inverts_functor_pullback_to_O -->
<g id="edge9" class="edge">
<title>Lex_O_functor_pullback&#45;&gt;Lex_O_inverts_functor_pullback_to_O</title>
<path fill="none" stroke="black" d="M1812.87,-1343.27C1839.14,-1268.7 1916.36,-1049.49 1943.46,-972.54"/>
<polygon fill="black" stroke="black" points="1946.92,-973.25 1946.94,-962.65 1940.32,-970.92 1946.92,-973.25"/>
</g>
<!-- Lex_equiv_O_pullback&#45;&gt;Lex_O_inverts_functor_pullback_to_O -->
<g id="edge10" class="edge">
<title>Lex_equiv_O_pullback&#45;&gt;Lex_O_inverts_functor_pullback_to_O</title>
<path fill="none" stroke="black" d="M2017.29,-1351.36C2006.98,-1286.26 1970.13,-1053.58 1957.38,-973.1"/>
<polygon fill="black" stroke="black" points="1960.76,-972.11 1955.74,-962.78 1953.85,-973.21 1960.76,-972.11"/>
</g>
<!-- Lex_isequiv_path_O -->
<g id="node20" class="node">
<title>Lex_isequiv_path_O</title>
<g id="a_node20"><a xlink:href="Lex.html#isequiv_path_O" xlink:title="isequiv_path_O">
<ellipse fill="#f070d1" stroke="black" cx="1795" cy="-1836.46" rx="81.46" ry="18"/>
<ellipse fill="none" stroke="black" cx="1795" cy="-1836.46" rx="85.48" ry="22"/>
<ellipse fill="none" stroke="black" cx="1795" cy="-1836.46" rx="89.49" ry="26"/>
<text text-anchor="middle" x="1795" y="-1832.76" font-family="Times,serif" font-size="14.00">isequiv_path_O</text>
</a>
</g>
</g>
<!-- Lex_equiv_O_functor_hfiber -->
<g id="node21" class="node">
<title>Lex_equiv_O_functor_hfiber</title>
<g id="a_node21"><a xlink:href="Lex.html#equiv_O_functor_hfiber" xlink:title="equiv_O_functor_hfiber">
<ellipse fill="#f070d1" stroke="black" cx="1562" cy="-1836.46" rx="117.77" ry="18"/>
<ellipse fill="none" stroke="black" cx="1562" cy="-1836.46" rx="121.77" ry="22"/>
<ellipse fill="none" stroke="black" cx="1562" cy="-1836.46" rx="125.78" ry="26"/>
<text text-anchor="middle" x="1562" y="-1832.76" font-family="Times,serif" font-size="14.00">equiv_O_functor_hfiber</text>
</a>
</g>
</g>
<!-- Lex_isequiv_O_functor_hfiber -->
<g id="node22" class="node">
<title>Lex_isequiv_O_functor_hfiber</title>
<g id="a_node22"><a xlink:href="Lex.html#isequiv_O_functor_hfiber" xlink:title="isequiv_O_functor_hfiber">
<ellipse fill="#f070d1" stroke="black" cx="1553" cy="-1369.46" rx="125.38" ry="18"/>
<text text-anchor="middle" x="1553" y="-1365.76" font-family="Times,serif" font-size="14.00">isequiv_O_functor_hfiber</text>
</a>
</g>
</g>
<!-- Lex_equiv_O_functor_hfiber&#45;&gt;Lex_isequiv_O_functor_hfiber -->
<g id="edge11" class="edge">
<title>Lex_equiv_O_functor_hfiber&#45;&gt;Lex_isequiv_O_functor_hfiber</title>
<path fill="none" stroke="black" d="M1561.52,-1810.46C1559.97,-1730.48 1555.14,-1481.26 1553.53,-1397.92"/>
<polygon fill="black" stroke="black" points="1557.03,-1397.66 1553.33,-1387.73 1550.03,-1397.79 1557.03,-1397.66"/>
</g>
<!-- Lex_conn_map_functor_hfiber_to_O -->
<g id="node23" class="node">
<title>Lex_conn_map_functor_hfiber_to_O</title>
<g id="a_node23"><a xlink:href="Lex.html#conn_map_functor_hfiber_to_O" xlink:title="conn_map_functor_hfiber_to_O">
<ellipse fill="#f070d1" stroke="black" cx="1553" cy="-944.46" rx="152.17" ry="18"/>
<text text-anchor="middle" x="1553" y="-940.76" font-family="Times,serif" font-size="14.00">conn_map_functor_hfiber_to_O</text>
</a>
</g>
</g>
<!-- Lex_isequiv_O_functor_hfiber&#45;&gt;Lex_conn_map_functor_hfiber_to_O -->
<g id="edge12" class="edge">
<title>Lex_isequiv_O_functor_hfiber&#45;&gt;Lex_conn_map_functor_hfiber_to_O</title>
<path fill="none" stroke="black" d="M1553,-1351.36C1553,-1286.26 1553,-1053.58 1553,-973.1"/>
<polygon fill="black" stroke="black" points="1556.5,-972.78 1553,-962.78 1549.5,-972.78 1556.5,-972.78"/>
</g>
<!-- Lex_ispullback_connmap_mapino_commsq -->
<g id="node24" class="node">
<title>Lex_ispullback_connmap_mapino_commsq</title>
<g id="a_node24"><a xlink:href="Lex.html#ispullback_connmap_mapino_commsq" xlink:title="ispullback_connmap_mapino_commsq">
<ellipse fill="#f070d1" stroke="black" cx="1225" cy="-1836.46" rx="185.46" ry="18"/>
<ellipse fill="none" stroke="black" cx="1225" cy="-1836.46" rx="189.46" ry="22"/>
<ellipse fill="none" stroke="black" cx="1225" cy="-1836.46" rx="193.47" ry="26"/>
<text text-anchor="middle" x="1225" y="-1832.76" font-family="Times,serif" font-size="14.00">ispullback_connmap_mapino_commsq</text>
</a>
</g>
</g>
<!-- Lex_conn_map_functor_hfiber -->
<g id="node25" class="node">
<title>Lex_conn_map_functor_hfiber</title>
<g id="a_node25"><a xlink:href="Lex.html#conn_map_functor_hfiber" xlink:title="conn_map_functor_hfiber">
<ellipse fill="#f070d1" stroke="black" cx="879" cy="-1836.46" rx="126.96" ry="18"/>
<ellipse fill="none" stroke="black" cx="879" cy="-1836.46" rx="130.97" ry="22"/>
<ellipse fill="none" stroke="black" cx="879" cy="-1836.46" rx="134.98" ry="26"/>
<text text-anchor="middle" x="879" y="-1832.76" font-family="Times,serif" font-size="14.00">conn_map_functor_hfiber</text>
</a>
</g>
</g>
<!-- Lex_isequiv_mapino_isconnected -->
<g id="node26" class="node">
<title>Lex_isequiv_mapino_isconnected</title>
<g id="a_node26"><a xlink:href="Lex.html#isequiv_mapino_isconnected" xlink:title="isequiv_mapino_isconnected">
<ellipse fill="#f070d1" stroke="black" cx="577" cy="-1836.46" rx="141.87" ry="18"/>
<ellipse fill="none" stroke="black" cx="577" cy="-1836.46" rx="145.87" ry="22"/>
<ellipse fill="none" stroke="black" cx="577" cy="-1836.46" rx="149.88" ry="26"/>
<text text-anchor="middle" x="577" y="-1832.76" font-family="Times,serif" font-size="14.00">isequiv_mapino_isconnected</text>
</a>
</g>
</g>
<!-- Lex_conn_map_lex -->
<g id="node27" class="node">
<title>Lex_conn_map_lex</title>
<g id="a_node27"><a xlink:href="Lex.html#conn_map_lex" xlink:title="conn_map_lex">
<ellipse fill="#f070d1" stroke="black" cx="326" cy="-1836.46" rx="75.3" ry="18"/>
<ellipse fill="none" stroke="black" cx="326" cy="-1836.46" rx="79.29" ry="22"/>
<ellipse fill="none" stroke="black" cx="326" cy="-1836.46" rx="83.29" ry="26"/>
<text text-anchor="middle" x="326" y="-1832.76" font-family="Times,serif" font-size="14.00">conn_map_lex</text>
</a>
</g>
</g>
<!-- Lex_isconnected_paths -->
<g id="node28" class="node">
<title>Lex_isconnected_paths</title>
<g id="a_node28"><a xlink:href="Lex.html#isconnected_paths" xlink:title="isconnected_paths">
<ellipse fill="#f070d1" stroke="black" cx="120" cy="-1836.46" rx="96.37" ry="18"/>
<ellipse fill="none" stroke="black" cx="120" cy="-1836.46" rx="100.38" ry="22"/>
<ellipse fill="none" stroke="black" cx="120" cy="-1836.46" rx="104.38" ry="26"/>
<text text-anchor="middle" x="120" y="-1832.76" font-family="Times,serif" font-size="14.00">isconnected_paths</text>
</a>
</g>
</g>
</g>
</svg>
