<?xml version="1.0" encoding="UTF-8" standalone="no"?>
<!DOCTYPE svg PUBLIC "-//W3C//DTD SVG 1.1//EN"
 "http://www.w3.org/Graphics/SVG/1.1/DTD/svg11.dtd">
<!-- Generated by graphviz version 2.43.0 (0)
 -->
<!-- Title: HoTT_Algebra_ooGroup Pages: 1 -->
<svg width="2370pt" height="1189pt"
 viewBox="0.00 0.00 2370.00 1189.00" xmlns="http://www.w3.org/2000/svg" xmlns:xlink="http://www.w3.org/1999/xlink">
<g id="graph0" class="graph" transform="scale(1 1) rotate(0) translate(4 1185)">
<title>HoTT_Algebra_ooGroup</title>
<polygon fill="white" stroke="transparent" points="-4,4 -4,-1185 2366,-1185 2366,4 -4,4"/>
<g id="clust1" class="cluster">
<title>cluster_ooGroup</title>
<polygon fill="#ffffc3" stroke="black" points="8,-17.79 8,-1163.21 2354,-1163.21 2354,-17.79 8,-17.79"/>
<text text-anchor="middle" x="46.5" y="-1148.01" font-family="Times,serif" font-size="14.00">ooGroup</text>
</g>
<!-- ooGroup_is1functor_group_to_oogroup -->
<g id="node1" class="node">
<title>ooGroup_is1functor_group_to_oogroup</title>
<g id="a_node1"><a xlink:href="ooGroup.html#is1functor_group_to_oogroup" xlink:title="is1functor_group_to_oogroup">
<ellipse fill="#f070d1" stroke="black" cx="2178" cy="-1036.79" rx="145.67" ry="18"/>
<ellipse fill="none" stroke="black" cx="2178" cy="-1036.79" rx="149.67" ry="22"/>
<ellipse fill="none" stroke="black" cx="2178" cy="-1036.79" rx="153.67" ry="26"/>
<text text-anchor="middle" x="2178" y="-1033.09" font-family="Times,serif" font-size="14.00">is1functor_group_to_oogroup</text>
</a>
</g>
</g>
<!-- ooGroup_is0functor_group_to_oogroup -->
<g id="node2" class="node">
<title>ooGroup_is0functor_group_to_oogroup</title>
<g id="a_node2"><a xlink:href="ooGroup.html#is0functor_group_to_oogroup" xlink:title="is0functor_group_to_oogroup">
<ellipse fill="#f070d1" stroke="black" cx="1994" cy="-644.79" rx="145.67" ry="18"/>
<text text-anchor="middle" x="1994" y="-641.09" font-family="Times,serif" font-size="14.00">is0functor_group_to_oogroup</text>
</a>
</g>
</g>
<!-- ooGroup_is1functor_group_to_oogroup&#45;&gt;ooGroup_is0functor_group_to_oogroup -->
<g id="edge1" class="edge">
<title>ooGroup_is1functor_group_to_oogroup&#45;&gt;ooGroup_is0functor_group_to_oogroup</title>
<path fill="none" stroke="black" d="M2180.48,-1010.56C2183.57,-968.02 2185.23,-880.29 2155,-814.79 2126.11,-752.2 2064.51,-698.16 2026.44,-668.95"/>
<polygon fill="black" stroke="black" points="2028.32,-665.99 2018.23,-662.76 2024.1,-671.57 2028.32,-665.99"/>
</g>
<!-- ooGroup_is1cat_oogroup -->
<g id="node4" class="node">
<title>ooGroup_is1cat_oogroup</title>
<g id="a_node4"><a xlink:href="ooGroup.html#is1cat_oogroup" xlink:title="is1cat_oogroup">
<ellipse fill="#f070d1" stroke="black" cx="2265" cy="-840.79" rx="81.49" ry="18"/>
<text text-anchor="middle" x="2265" y="-837.09" font-family="Times,serif" font-size="14.00">is1cat_oogroup</text>
</a>
</g>
</g>
<!-- ooGroup_is1functor_group_to_oogroup&#45;&gt;ooGroup_is1cat_oogroup -->
<g id="edge2" class="edge">
<title>ooGroup_is1functor_group_to_oogroup&#45;&gt;ooGroup_is1cat_oogroup</title>
<path fill="none" stroke="black" d="M2189.2,-1010.83C2205.67,-974.1 2236.3,-905.79 2253.14,-868.24"/>
<polygon fill="black" stroke="black" points="2256.41,-869.51 2257.31,-858.95 2250.02,-866.64 2256.41,-869.51"/>
</g>
<!-- ooGroup_group_to_oogroup -->
<g id="node3" class="node">
<title>ooGroup_group_to_oogroup</title>
<g id="a_node3"><a xlink:href="ooGroup.html#group_to_oogroup" xlink:title="group_to_oogroup">
<ellipse fill="#f070d1" stroke="black" cx="2166" cy="-253.79" rx="94.48" ry="18"/>
<text text-anchor="middle" x="2166" y="-250.09" font-family="Times,serif" font-size="14.00">group_to_oogroup</text>
</a>
</g>
</g>
<!-- ooGroup_is0functor_group_to_oogroup&#45;&gt;ooGroup_group_to_oogroup -->
<g id="edge3" class="edge">
<title>ooGroup_is0functor_group_to_oogroup&#45;&gt;ooGroup_group_to_oogroup</title>
<path fill="none" stroke="black" d="M2005.35,-626.62C2024.76,-596.72 2064.79,-532.74 2091,-474.79 2121.51,-407.34 2146.81,-323.59 2158.7,-281.53"/>
<polygon fill="black" stroke="black" points="2162.1,-282.35 2161.42,-271.77 2155.36,-280.46 2162.1,-282.35"/>
</g>
<!-- ooGroup_isgraph_oogroup -->
<g id="node7" class="node">
<title>ooGroup_isgraph_oogroup</title>
<g id="a_node7"><a xlink:href="ooGroup.html#isgraph_oogroup" xlink:title="isgraph_oogroup">
<ellipse fill="#f070d1" stroke="black" cx="1994" cy="-448.79" rx="88.28" ry="18"/>
<text text-anchor="middle" x="1994" y="-445.09" font-family="Times,serif" font-size="14.00">isgraph_oogroup</text>
</a>
</g>
</g>
<!-- ooGroup_is0functor_group_to_oogroup&#45;&gt;ooGroup_isgraph_oogroup -->
<g id="edge4" class="edge">
<title>ooGroup_is0functor_group_to_oogroup&#45;&gt;ooGroup_isgraph_oogroup</title>
<path fill="none" stroke="black" d="M1994,-626.58C1994,-592.85 1994,-517.85 1994,-477.22"/>
<polygon fill="black" stroke="black" points="1997.5,-476.97 1994,-466.97 1990.5,-476.97 1997.5,-476.97"/>
</g>
<!-- ooGroup_Build_ooGroup -->
<g id="node39" class="node">
<title>ooGroup_Build_ooGroup</title>
<g id="a_node39"><a xlink:href="ooGroup.html#Build_ooGroup" xlink:title="Build_ooGroup">
<ellipse fill="#7faaff" stroke="black" cx="836" cy="-75.79" rx="79.09" ry="18"/>
<text text-anchor="middle" x="836" y="-72.09" font-family="Times,serif" font-size="14.00">Build_ooGroup</text>
</a>
</g>
</g>
<!-- ooGroup_group_to_oogroup&#45;&gt;ooGroup_Build_ooGroup -->
<g id="edge5" class="edge">
<title>ooGroup_group_to_oogroup&#45;&gt;ooGroup_Build_ooGroup</title>
<path fill="none" stroke="black" d="M2113.59,-238.83C2097.45,-234.87 2079.56,-230.81 2063,-227.79 1635.98,-149.96 1117.91,-100.87 919.13,-83.68"/>
<polygon fill="black" stroke="black" points="919.31,-80.18 909.05,-82.81 918.71,-87.16 919.31,-80.18"/>
</g>
<!-- ooGroup_ooGroup -->
<g id="node40" class="node">
<title>ooGroup_ooGroup</title>
<g id="a_node40"><a xlink:href="ooGroup.html#ooGroup" xlink:title="ooGroup">
<ellipse fill="#e2cdfa" stroke="black" cx="1541" cy="-75.79" rx="50.09" ry="18"/>
<text text-anchor="middle" x="1541" y="-72.09" font-family="Times,serif" font-size="14.00">ooGroup</text>
</a>
</g>
</g>
<!-- ooGroup_group_to_oogroup&#45;&gt;ooGroup_ooGroup -->
<g id="edge6" class="edge">
<title>ooGroup_group_to_oogroup&#45;&gt;ooGroup_ooGroup</title>
<path fill="none" stroke="black" d="M2115.38,-238.54C1997.21,-205.26 1704.42,-122.81 1588.94,-90.29"/>
<polygon fill="black" stroke="black" points="1589.88,-86.92 1579.3,-87.58 1587.98,-93.66 1589.88,-86.92"/>
</g>
<!-- ooGroup_is2graph_oogroup -->
<g id="node5" class="node">
<title>ooGroup_is2graph_oogroup</title>
<g id="a_node5"><a xlink:href="ooGroup.html#is2graph_oogroup" xlink:title="is2graph_oogroup">
<ellipse fill="#f070d1" stroke="black" cx="2252" cy="-644.79" rx="94.48" ry="18"/>
<text text-anchor="middle" x="2252" y="-641.09" font-family="Times,serif" font-size="14.00">is2graph_oogroup</text>
</a>
</g>
</g>
<!-- ooGroup_is1cat_oogroup&#45;&gt;ooGroup_is2graph_oogroup -->
<g id="edge7" class="edge">
<title>ooGroup_is1cat_oogroup&#45;&gt;ooGroup_is2graph_oogroup</title>
<path fill="none" stroke="black" d="M2263.85,-822.58C2261.58,-788.78 2256.54,-713.53 2253.82,-672.96"/>
<polygon fill="black" stroke="black" points="2257.31,-672.71 2253.15,-662.97 2250.33,-673.18 2257.31,-672.71"/>
</g>
<!-- ooGroup_is01cat_oogroup -->
<g id="node6" class="node">
<title>ooGroup_is01cat_oogroup</title>
<g id="a_node6"><a xlink:href="ooGroup.html#is01cat_oogroup" xlink:title="is01cat_oogroup">
<ellipse fill="#f070d1" stroke="black" cx="1743" cy="-644.79" rx="87.18" ry="18"/>
<text text-anchor="middle" x="1743" y="-641.09" font-family="Times,serif" font-size="14.00">is01cat_oogroup</text>
</a>
</g>
</g>
<!-- ooGroup_is1cat_oogroup&#45;&gt;ooGroup_is01cat_oogroup -->
<g id="edge8" class="edge">
<title>ooGroup_is1cat_oogroup&#45;&gt;ooGroup_is01cat_oogroup</title>
<path fill="none" stroke="black" d="M2225.34,-825.05C2131.53,-790.19 1896.16,-702.72 1792.89,-664.33"/>
<polygon fill="black" stroke="black" points="1793.91,-660.98 1783.32,-660.78 1791.47,-667.54 1793.91,-660.98"/>
</g>
<!-- ooGroup_is2graph_oogroup&#45;&gt;ooGroup_isgraph_oogroup -->
<g id="edge9" class="edge">
<title>ooGroup_is2graph_oogroup&#45;&gt;ooGroup_isgraph_oogroup</title>
<path fill="none" stroke="black" d="M2230,-627.25C2183.83,-592.53 2076.74,-512.01 2024.19,-472.49"/>
<polygon fill="black" stroke="black" points="2026.04,-469.5 2015.94,-466.29 2021.83,-475.1 2026.04,-469.5"/>
</g>
<!-- ooGroup_classifying_space -->
<g id="node34" class="node">
<title>ooGroup_classifying_space</title>
<g id="a_node34"><a xlink:href="ooGroup.html#classifying_space" xlink:title="classifying_space">
<ellipse fill="#f070d1" stroke="black" cx="2253" cy="-448.79" rx="90.98" ry="18"/>
<text text-anchor="middle" x="2253" y="-445.09" font-family="Times,serif" font-size="14.00">classifying_space</text>
</a>
</g>
</g>
<!-- ooGroup_is2graph_oogroup&#45;&gt;ooGroup_classifying_space -->
<g id="edge10" class="edge">
<title>ooGroup_is2graph_oogroup&#45;&gt;ooGroup_classifying_space</title>
<path fill="none" stroke="black" d="M2252.09,-626.58C2252.26,-592.85 2252.65,-517.85 2252.86,-477.22"/>
<polygon fill="black" stroke="black" points="2256.36,-476.99 2252.91,-466.97 2249.36,-476.95 2256.36,-476.99"/>
</g>
<!-- ooGroup_is01cat_oogroup&#45;&gt;ooGroup_isgraph_oogroup -->
<g id="edge11" class="edge">
<title>ooGroup_is01cat_oogroup&#45;&gt;ooGroup_isgraph_oogroup</title>
<path fill="none" stroke="black" d="M1764.4,-627.25C1809.32,-592.53 1913.5,-512.01 1964.63,-472.49"/>
<polygon fill="black" stroke="black" points="1966.88,-475.18 1972.65,-466.29 1962.6,-469.64 1966.88,-475.18"/>
</g>
<!-- ooGroup_grouphom_idmap -->
<g id="node23" class="node">
<title>ooGroup_grouphom_idmap</title>
<g id="a_node23"><a xlink:href="ooGroup.html#grouphom_idmap" xlink:title="grouphom_idmap">
<ellipse fill="#f070d1" stroke="black" cx="1797" cy="-448.79" rx="90.98" ry="18"/>
<text text-anchor="middle" x="1797" y="-445.09" font-family="Times,serif" font-size="14.00">grouphom_idmap</text>
</a>
</g>
</g>
<!-- ooGroup_is01cat_oogroup&#45;&gt;ooGroup_grouphom_idmap -->
<g id="edge12" class="edge">
<title>ooGroup_is01cat_oogroup&#45;&gt;ooGroup_grouphom_idmap</title>
<path fill="none" stroke="black" d="M1747.79,-626.58C1757.22,-592.71 1778.23,-517.21 1789.51,-476.7"/>
<polygon fill="black" stroke="black" points="1792.91,-477.54 1792.22,-466.97 1786.17,-475.67 1792.91,-477.54"/>
</g>
<!-- ooGroup_grouphom_compose -->
<g id="node25" class="node">
<title>ooGroup_grouphom_compose</title>
<g id="a_node25"><a xlink:href="ooGroup.html#grouphom_compose" xlink:title="grouphom_compose">
<ellipse fill="#f070d1" stroke="black" cx="1012" cy="-448.79" rx="102.88" ry="18"/>
<text text-anchor="middle" x="1012" y="-445.09" font-family="Times,serif" font-size="14.00">grouphom_compose</text>
</a>
</g>
</g>
<!-- ooGroup_is01cat_oogroup&#45;&gt;ooGroup_grouphom_compose -->
<g id="edge13" class="edge">
<title>ooGroup_is01cat_oogroup&#45;&gt;ooGroup_grouphom_compose</title>
<path fill="none" stroke="black" d="M1691.6,-630.15C1561.48,-595.62 1219.26,-504.8 1076.25,-466.84"/>
<polygon fill="black" stroke="black" points="1076.87,-463.39 1066.3,-464.2 1075.07,-470.15 1076.87,-463.39"/>
</g>
<!-- ooGroup_ooGroupHom -->
<g id="node29" class="node">
<title>ooGroup_ooGroupHom</title>
<g id="a_node29"><a xlink:href="ooGroup.html#ooGroupHom" xlink:title="ooGroupHom">
<ellipse fill="#f070d1" stroke="black" cx="1982" cy="-253.79" rx="72.29" ry="18"/>
<text text-anchor="middle" x="1982" y="-250.09" font-family="Times,serif" font-size="14.00">ooGroupHom</text>
</a>
</g>
</g>
<!-- ooGroup_isgraph_oogroup&#45;&gt;ooGroup_ooGroupHom -->
<g id="edge14" class="edge">
<title>ooGroup_isgraph_oogroup&#45;&gt;ooGroup_ooGroupHom</title>
<path fill="none" stroke="black" d="M1992.94,-430.67C1990.85,-397.12 1986.21,-322.5 1983.7,-282.08"/>
<polygon fill="black" stroke="black" points="1987.18,-281.65 1983.06,-271.88 1980.19,-282.08 1987.18,-281.65"/>
</g>
<!-- ooGroup_cosets -->
<g id="node8" class="node">
<title>ooGroup_cosets</title>
<g id="a_node8"><a xlink:href="ooGroup.html#cosets" xlink:title="cosets">
<ellipse fill="#f070d1" stroke="black" cx="653" cy="-840.79" rx="40.13" ry="18"/>
<ellipse fill="none" stroke="black" cx="653" cy="-840.79" rx="44.11" ry="22"/>
<ellipse fill="none" stroke="black" cx="653" cy="-840.79" rx="48.09" ry="26"/>
<text text-anchor="middle" x="653" y="-837.09" font-family="Times,serif" font-size="14.00">cosets</text>
</a>
</g>
</g>
<!-- ooGroup_in_coset -->
<g id="node15" class="node">
<title>ooGroup_in_coset</title>
<g id="a_node15"><a xlink:href="ooGroup.html#in_coset" xlink:title="in_coset">
<ellipse fill="#f070d1" stroke="black" cx="644" cy="-644.79" rx="48.19" ry="18"/>
<text text-anchor="middle" x="644" y="-641.09" font-family="Times,serif" font-size="14.00">in_coset</text>
</a>
</g>
</g>
<!-- ooGroup_cosets&#45;&gt;ooGroup_in_coset -->
<g id="edge15" class="edge">
<title>ooGroup_cosets&#45;&gt;ooGroup_in_coset</title>
<path fill="none" stroke="black" d="M651.82,-814.43C650.13,-777.88 647.01,-710.67 645.27,-673.08"/>
<polygon fill="black" stroke="black" points="648.75,-672.7 644.79,-662.87 641.76,-673.02 648.75,-672.7"/>
</g>
<!-- ooGroup_equiv_coset_subgroup -->
<g id="node9" class="node">
<title>ooGroup_equiv_coset_subgroup</title>
<g id="a_node9"><a xlink:href="ooGroup.html#equiv_coset_subgroup" xlink:title="equiv_coset_subgroup">
<ellipse fill="#f070d1" stroke="black" cx="794" cy="-1036.79" rx="113.17" ry="18"/>
<ellipse fill="none" stroke="black" cx="794" cy="-1036.79" rx="117.18" ry="22"/>
<ellipse fill="none" stroke="black" cx="794" cy="-1036.79" rx="121.18" ry="26"/>
<text text-anchor="middle" x="794" y="-1033.09" font-family="Times,serif" font-size="14.00">equiv_coset_subgroup</text>
</a>
</g>
</g>
<!-- ooGroup_equiv_coset_subgroup_subproof -->
<g id="node10" class="node">
<title>ooGroup_equiv_coset_subgroup_subproof</title>
<g id="a_node10"><a xlink:href="ooGroup.html#equiv_coset_subgroup_subproof" xlink:title="equiv_coset_subgroup_subproof">
<ellipse fill="#f070d1" stroke="black" cx="1090" cy="-840.79" rx="158.67" ry="18"/>
<text text-anchor="middle" x="1090" y="-837.09" font-family="Times,serif" font-size="14.00">equiv_coset_subgroup_subproof</text>
</a>
</g>
</g>
<!-- ooGroup_equiv_coset_subgroup&#45;&gt;ooGroup_equiv_coset_subgroup_subproof -->
<g id="edge16" class="edge">
<title>ooGroup_equiv_coset_subgroup&#45;&gt;ooGroup_equiv_coset_subgroup_subproof</title>
<path fill="none" stroke="black" d="M830.59,-1011.81C888.29,-973.99 999.62,-901.03 1055.8,-864.21"/>
<polygon fill="black" stroke="black" points="1057.88,-867.03 1064.33,-858.62 1054.04,-861.17 1057.88,-867.03"/>
</g>
<!-- ooGroup_ishprop_in_coset -->
<g id="node14" class="node">
<title>ooGroup_ishprop_in_coset</title>
<g id="a_node14"><a xlink:href="ooGroup.html#ishprop_in_coset" xlink:title="ishprop_in_coset">
<ellipse fill="#f070d1" stroke="black" cx="499" cy="-840.79" rx="87.99" ry="18"/>
<text text-anchor="middle" x="499" y="-837.09" font-family="Times,serif" font-size="14.00">ishprop_in_coset</text>
</a>
</g>
</g>
<!-- ooGroup_equiv_coset_subgroup&#45;&gt;ooGroup_ishprop_in_coset -->
<g id="edge17" class="edge">
<title>ooGroup_equiv_coset_subgroup&#45;&gt;ooGroup_ishprop_in_coset</title>
<path fill="none" stroke="black" d="M757.53,-1011.81C699.73,-973.8 587.94,-900.28 532.23,-863.65"/>
<polygon fill="black" stroke="black" points="534.07,-860.67 523.79,-858.1 530.22,-866.52 534.07,-860.67"/>
</g>
<!-- ooGroup_grouphom_V -->
<g id="node17" class="node">
<title>ooGroup_grouphom_V</title>
<g id="a_node17"><a xlink:href="ooGroup.html#grouphom_V" xlink:title="grouphom_V">
<ellipse fill="#f070d1" stroke="black" cx="779" cy="-644.79" rx="68.79" ry="18"/>
<text text-anchor="middle" x="779" y="-641.09" font-family="Times,serif" font-size="14.00">grouphom_V</text>
</a>
</g>
</g>
<!-- ooGroup_equiv_coset_subgroup_subproof&#45;&gt;ooGroup_grouphom_V -->
<g id="edge18" class="edge">
<title>ooGroup_equiv_coset_subgroup_subproof&#45;&gt;ooGroup_grouphom_V</title>
<path fill="none" stroke="black" d="M1062.94,-822.92C1006.32,-787.59 875.43,-705.94 813.14,-667.09"/>
<polygon fill="black" stroke="black" points="814.8,-664 804.46,-661.68 811.09,-669.94 814.8,-664"/>
</g>
<!-- ooGroup_transitive_coset -->
<g id="node11" class="node">
<title>ooGroup_transitive_coset</title>
<g id="a_node11"><a xlink:href="ooGroup.html#transitive_coset" xlink:title="transitive_coset">
<ellipse fill="#f070d1" stroke="black" cx="108" cy="-840.79" rx="84.49" ry="18"/>
<ellipse fill="none" stroke="black" cx="108" cy="-840.79" rx="88.49" ry="22"/>
<ellipse fill="none" stroke="black" cx="108" cy="-840.79" rx="92.49" ry="26"/>
<text text-anchor="middle" x="108" y="-837.09" font-family="Times,serif" font-size="14.00">transitive_coset</text>
</a>
</g>
</g>
<!-- ooGroup_transitive_coset&#45;&gt;ooGroup_in_coset -->
<g id="edge19" class="edge">
<title>ooGroup_transitive_coset&#45;&gt;ooGroup_in_coset</title>
<path fill="none" stroke="black" d="M166.77,-820.62C257.62,-790.64 437.32,-729.93 587,-670.79 592.94,-668.45 599.17,-665.85 605.24,-663.25"/>
<polygon fill="black" stroke="black" points="606.81,-666.38 614.59,-659.19 604.02,-659.96 606.81,-666.38"/>
</g>
<!-- ooGroup_grouphom_pp -->
<g id="node18" class="node">
<title>ooGroup_grouphom_pp</title>
<g id="a_node18"><a xlink:href="ooGroup.html#grouphom_pp" xlink:title="grouphom_pp">
<ellipse fill="#f070d1" stroke="black" cx="350" cy="-644.79" rx="74.19" ry="18"/>
<text text-anchor="middle" x="350" y="-641.09" font-family="Times,serif" font-size="14.00">grouphom_pp</text>
</a>
</g>
</g>
<!-- ooGroup_transitive_coset&#45;&gt;ooGroup_grouphom_pp -->
<g id="edge20" class="edge">
<title>ooGroup_transitive_coset&#45;&gt;ooGroup_grouphom_pp</title>
<path fill="none" stroke="black" d="M137.67,-816C184.61,-778.38 275.37,-705.62 321.53,-668.61"/>
<polygon fill="black" stroke="black" points="324,-671.12 329.61,-662.13 319.62,-665.66 324,-671.12"/>
</g>
<!-- ooGroup_symmetric_coset -->
<g id="node12" class="node">
<title>ooGroup_symmetric_coset</title>
<g id="a_node12"><a xlink:href="ooGroup.html#symmetric_coset" xlink:title="symmetric_coset">
<ellipse fill="#f070d1" stroke="black" cx="816" cy="-840.79" rx="89.08" ry="18"/>
<ellipse fill="none" stroke="black" cx="816" cy="-840.79" rx="93.08" ry="22"/>
<ellipse fill="none" stroke="black" cx="816" cy="-840.79" rx="97.08" ry="26"/>
<text text-anchor="middle" x="816" y="-837.09" font-family="Times,serif" font-size="14.00">symmetric_coset</text>
</a>
</g>
</g>
<!-- ooGroup_symmetric_coset&#45;&gt;ooGroup_in_coset -->
<g id="edge21" class="edge">
<title>ooGroup_symmetric_coset&#45;&gt;ooGroup_in_coset</title>
<path fill="none" stroke="black" d="M794.22,-815.22C761.02,-777.78 698.17,-706.89 665.28,-669.79"/>
<polygon fill="black" stroke="black" points="667.61,-667.14 658.35,-661.98 662.37,-671.79 667.61,-667.14"/>
</g>
<!-- ooGroup_symmetric_coset&#45;&gt;ooGroup_grouphom_V -->
<g id="edge22" class="edge">
<title>ooGroup_symmetric_coset&#45;&gt;ooGroup_grouphom_V</title>
<path fill="none" stroke="black" d="M811.16,-814.43C804.19,-777.88 791.37,-710.67 784.2,-673.08"/>
<polygon fill="black" stroke="black" points="787.57,-672.04 782.26,-662.87 780.69,-673.35 787.57,-672.04"/>
</g>
<!-- ooGroup_reflexive_coset -->
<g id="node13" class="node">
<title>ooGroup_reflexive_coset</title>
<g id="a_node13"><a xlink:href="ooGroup.html#reflexive_coset" xlink:title="reflexive_coset">
<ellipse fill="#f070d1" stroke="black" cx="306" cy="-840.79" rx="79.11" ry="18"/>
<ellipse fill="none" stroke="black" cx="306" cy="-840.79" rx="83.1" ry="22"/>
<ellipse fill="none" stroke="black" cx="306" cy="-840.79" rx="87.09" ry="26"/>
<text text-anchor="middle" x="306" y="-837.09" font-family="Times,serif" font-size="14.00">reflexive_coset</text>
</a>
</g>
</g>
<!-- ooGroup_reflexive_coset&#45;&gt;ooGroup_in_coset -->
<g id="edge23" class="edge">
<title>ooGroup_reflexive_coset&#45;&gt;ooGroup_in_coset</title>
<path fill="none" stroke="black" d="M345.1,-817.35C411.85,-779.04 546.67,-701.65 609.86,-665.39"/>
<polygon fill="black" stroke="black" points="611.72,-668.36 618.65,-660.34 608.23,-662.29 611.72,-668.36"/>
</g>
<!-- ooGroup_grouphom_1 -->
<g id="node16" class="node">
<title>ooGroup_grouphom_1</title>
<g id="a_node16"><a xlink:href="ooGroup.html#grouphom_1" xlink:title="grouphom_1">
<ellipse fill="#f070d1" stroke="black" cx="510" cy="-644.79" rx="68.49" ry="18"/>
<text text-anchor="middle" x="510" y="-641.09" font-family="Times,serif" font-size="14.00">grouphom_1</text>
</a>
</g>
</g>
<!-- ooGroup_reflexive_coset&#45;&gt;ooGroup_grouphom_1 -->
<g id="edge24" class="edge">
<title>ooGroup_reflexive_coset&#45;&gt;ooGroup_grouphom_1</title>
<path fill="none" stroke="black" d="M331.42,-815.61C370.88,-778.1 446.35,-706.33 485.33,-669.25"/>
<polygon fill="black" stroke="black" points="487.79,-671.75 492.62,-662.32 482.96,-666.67 487.79,-671.75"/>
</g>
<!-- ooGroup_ishprop_in_coset&#45;&gt;ooGroup_in_coset -->
<g id="edge25" class="edge">
<title>ooGroup_ishprop_in_coset&#45;&gt;ooGroup_in_coset</title>
<path fill="none" stroke="black" d="M511.61,-822.92C537.29,-788.56 595.72,-710.38 625.63,-670.38"/>
<polygon fill="black" stroke="black" points="628.54,-672.32 631.72,-662.22 622.93,-668.13 628.54,-672.32"/>
</g>
<!-- ooGroup_grouphom_fun -->
<g id="node28" class="node">
<title>ooGroup_grouphom_fun</title>
<g id="a_node28"><a xlink:href="ooGroup.html#grouphom_fun" xlink:title="grouphom_fun">
<ellipse fill="#f070d1" stroke="black" cx="794" cy="-448.79" rx="77.19" ry="18"/>
<text text-anchor="middle" x="794" y="-445.09" font-family="Times,serif" font-size="14.00">grouphom_fun</text>
</a>
</g>
</g>
<!-- ooGroup_in_coset&#45;&gt;ooGroup_grouphom_fun -->
<g id="edge26" class="edge">
<title>ooGroup_in_coset&#45;&gt;ooGroup_grouphom_fun</title>
<path fill="none" stroke="black" d="M656.79,-627.25C683.18,-593.12 743.8,-514.72 774.87,-474.53"/>
<polygon fill="black" stroke="black" points="777.68,-476.62 781.03,-466.57 772.14,-472.34 777.68,-476.62"/>
</g>
<!-- ooGroup_grouphom_1&#45;&gt;ooGroup_grouphom_fun -->
<g id="edge27" class="edge">
<title>ooGroup_grouphom_1&#45;&gt;ooGroup_grouphom_fun</title>
<path fill="none" stroke="black" d="M533.73,-627.59C584.57,-592.85 704.11,-511.2 761.77,-471.81"/>
<polygon fill="black" stroke="black" points="763.86,-474.62 770.14,-466.09 759.91,-468.84 763.86,-474.62"/>
</g>
<!-- ooGroup_grouphom_1&#45;&gt;ooGroup_Build_ooGroup -->
<g id="edge28" class="edge">
<title>ooGroup_grouphom_1&#45;&gt;ooGroup_Build_ooGroup</title>
<path fill="none" stroke="black" d="M519.13,-626.56C549.57,-569.3 650.77,-380.3 741,-227.79 767.44,-183.1 799.99,-132.18 819.31,-102.36"/>
<polygon fill="black" stroke="black" points="822.35,-104.11 824.86,-93.82 816.48,-100.3 822.35,-104.11"/>
</g>
<!-- ooGroup_grouphom_V&#45;&gt;ooGroup_grouphom_fun -->
<g id="edge29" class="edge">
<title>ooGroup_grouphom_V&#45;&gt;ooGroup_grouphom_fun</title>
<path fill="none" stroke="black" d="M780.33,-626.58C782.94,-592.78 788.76,-517.53 791.9,-476.96"/>
<polygon fill="black" stroke="black" points="795.39,-477.21 792.67,-466.97 788.41,-476.67 795.39,-477.21"/>
</g>
<!-- ooGroup_grouphom_V&#45;&gt;ooGroup_Build_ooGroup -->
<g id="edge30" class="edge">
<title>ooGroup_grouphom_V&#45;&gt;ooGroup_Build_ooGroup</title>
<path fill="none" stroke="black" d="M769.13,-626.77C752.57,-597.09 719.82,-533.44 708,-474.79 703.43,-452.14 704.72,-445.67 708,-422.79 725.98,-297.23 792.74,-158.87 822.05,-102.66"/>
<polygon fill="black" stroke="black" points="825.18,-104.22 826.75,-93.75 818.99,-100.96 825.18,-104.22"/>
</g>
<!-- ooGroup_grouphom_pp&#45;&gt;ooGroup_grouphom_fun -->
<g id="edge31" class="edge">
<title>ooGroup_grouphom_pp&#45;&gt;ooGroup_grouphom_fun</title>
<path fill="none" stroke="black" d="M384.47,-628.73C464.28,-593.86 661.69,-507.6 750.03,-469"/>
<polygon fill="black" stroke="black" points="751.48,-472.19 759.25,-464.98 748.68,-465.78 751.48,-472.19"/>
</g>
<!-- ooGroup_grouphom_pp&#45;&gt;ooGroup_Build_ooGroup -->
<g id="edge32" class="edge">
<title>ooGroup_grouphom_pp&#45;&gt;ooGroup_Build_ooGroup</title>
<path fill="none" stroke="black" d="M364.55,-626.82C434.06,-545.72 732.5,-197.54 814.87,-101.44"/>
<polygon fill="black" stroke="black" points="817.66,-103.57 821.51,-93.7 812.35,-99.01 817.66,-103.57"/>
</g>
<!-- ooGroup_idmap_grouphom -->
<g id="node19" class="node">
<title>ooGroup_idmap_grouphom</title>
<g id="a_node19"><a xlink:href="ooGroup.html#idmap_grouphom" xlink:title="idmap_grouphom">
<ellipse fill="#f070d1" stroke="black" cx="1265" cy="-644.79" rx="90.98" ry="18"/>
<ellipse fill="none" stroke="black" cx="1265" cy="-644.79" rx="94.98" ry="22"/>
<ellipse fill="none" stroke="black" cx="1265" cy="-644.79" rx="98.98" ry="26"/>
<text text-anchor="middle" x="1265" y="-641.09" font-family="Times,serif" font-size="14.00">idmap_grouphom</text>
</a>
</g>
</g>
<!-- ooGroup_idmap_grouphom&#45;&gt;ooGroup_grouphom_idmap -->
<g id="edge33" class="edge">
<title>ooGroup_idmap_grouphom&#45;&gt;ooGroup_grouphom_idmap</title>
<path fill="none" stroke="black" d="M1321.18,-623.31C1425.09,-585.41 1645.82,-504.92 1745.84,-468.45"/>
<polygon fill="black" stroke="black" points="1747.22,-471.67 1755.42,-464.96 1744.82,-465.09 1747.22,-471.67"/>
</g>
<!-- ooGroup_idmap_grouphom&#45;&gt;ooGroup_grouphom_fun -->
<g id="edge34" class="edge">
<title>ooGroup_idmap_grouphom&#45;&gt;ooGroup_grouphom_fun</title>
<path fill="none" stroke="black" d="M1213.25,-622.48C1120.65,-584.34 928.09,-505.02 839.9,-468.7"/>
<polygon fill="black" stroke="black" points="841.02,-465.37 830.44,-464.8 838.35,-471.85 841.02,-465.37"/>
</g>
<!-- ooGroup_idmap_grouphom&#45;&gt;ooGroup_Build_ooGroup -->
<g id="edge35" class="edge">
<title>ooGroup_idmap_grouphom&#45;&gt;ooGroup_Build_ooGroup</title>
<path fill="none" stroke="black" d="M1244.43,-619.35C1218.46,-587.61 1173.61,-529.75 1144,-474.79 1132.25,-452.99 1141.08,-440.72 1124,-422.79 1015.43,-308.83 885.94,-411.66 800,-279.79 781.29,-251.09 810.7,-151.78 826.72,-103.53"/>
<polygon fill="black" stroke="black" points="830.13,-104.37 830.01,-93.78 823.5,-102.14 830.13,-104.37"/>
</g>
<!-- ooGroup_compose_grouphom -->
<g id="node20" class="node">
<title>ooGroup_compose_grouphom</title>
<g id="a_node20"><a xlink:href="ooGroup.html#compose_grouphom" xlink:title="compose_grouphom">
<ellipse fill="#f070d1" stroke="black" cx="1017" cy="-644.79" rx="102.87" ry="18"/>
<ellipse fill="none" stroke="black" cx="1017" cy="-644.79" rx="106.88" ry="22"/>
<ellipse fill="none" stroke="black" cx="1017" cy="-644.79" rx="110.88" ry="26"/>
<text text-anchor="middle" x="1017" y="-641.09" font-family="Times,serif" font-size="14.00">compose_grouphom</text>
</a>
</g>
</g>
<!-- ooGroup_compose_grouphom&#45;&gt;ooGroup_grouphom_compose -->
<g id="edge36" class="edge">
<title>ooGroup_compose_grouphom&#45;&gt;ooGroup_grouphom_compose</title>
<path fill="none" stroke="black" d="M1016.35,-618.43C1015.4,-581.88 1013.67,-514.67 1012.7,-477.08"/>
<polygon fill="black" stroke="black" points="1016.2,-476.77 1012.44,-466.87 1009.2,-476.96 1016.2,-476.77"/>
</g>
<!-- ooGroup_compose_grouphom&#45;&gt;ooGroup_grouphom_fun -->
<g id="edge37" class="edge">
<title>ooGroup_compose_grouphom&#45;&gt;ooGroup_grouphom_fun</title>
<path fill="none" stroke="black" d="M989.21,-619.61C945.99,-582.02 863.24,-510.03 820.7,-473.02"/>
<polygon fill="black" stroke="black" points="822.84,-470.24 813,-466.32 818.24,-475.52 822.84,-470.24"/>
</g>
<!-- ooGroup_compose_grouphom&#45;&gt;ooGroup_Build_ooGroup -->
<g id="edge38" class="edge">
<title>ooGroup_compose_grouphom&#45;&gt;ooGroup_Build_ooGroup</title>
<path fill="none" stroke="black" d="M996.96,-618.95C971.89,-587.03 928.77,-529.21 900,-474.79 888.43,-452.9 891.36,-444.79 880,-422.79 844.98,-355 807.05,-352.84 785,-279.79 766.02,-216.94 799.24,-141.68 820.43,-102.84"/>
<polygon fill="black" stroke="black" points="823.67,-104.22 825.52,-93.78 817.57,-100.79 823.67,-104.22"/>
</g>
<!-- ooGroup_group_loops_2functor -->
<g id="node21" class="node">
<title>ooGroup_group_loops_2functor</title>
<g id="a_node21"><a xlink:href="ooGroup.html#group_loops_2functor" xlink:title="group_loops_2functor">
<ellipse fill="#f070d1" stroke="black" cx="1385" cy="-840.79" rx="110.48" ry="18"/>
<ellipse fill="none" stroke="black" cx="1385" cy="-840.79" rx="114.48" ry="22"/>
<ellipse fill="none" stroke="black" cx="1385" cy="-840.79" rx="118.48" ry="26"/>
<text text-anchor="middle" x="1385" y="-837.09" font-family="Times,serif" font-size="14.00">group_loops_2functor</text>
</a>
</g>
</g>
<!-- ooGroup_loops_functor_group -->
<g id="node26" class="node">
<title>ooGroup_loops_functor_group</title>
<g id="a_node26"><a xlink:href="ooGroup.html#loops_functor_group" xlink:title="loops_functor_group">
<ellipse fill="#f070d1" stroke="black" cx="1493" cy="-644.79" rx="104.78" ry="18"/>
<text text-anchor="middle" x="1493" y="-641.09" font-family="Times,serif" font-size="14.00">loops_functor_group</text>
</a>
</g>
</g>
<!-- ooGroup_group_loops_2functor&#45;&gt;ooGroup_loops_functor_group -->
<g id="edge39" class="edge">
<title>ooGroup_group_loops_2functor&#45;&gt;ooGroup_loops_functor_group</title>
<path fill="none" stroke="black" d="M1398.9,-814.83C1419.43,-777.94 1457.69,-709.21 1478.54,-671.76"/>
<polygon fill="black" stroke="black" points="1481.64,-673.39 1483.45,-662.95 1475.53,-669.98 1481.64,-673.39"/>
</g>
<!-- ooGroup_group_loops_2functor&#45;&gt;ooGroup_grouphom_fun -->
<g id="edge40" class="edge">
<title>ooGroup_group_loops_2functor&#45;&gt;ooGroup_grouphom_fun</title>
<path fill="none" stroke="black" d="M1304.92,-821.58C1179.33,-791.63 943.93,-729.41 882,-670.79 874.52,-663.71 825.25,-533.43 803.87,-476.28"/>
<polygon fill="black" stroke="black" points="807.11,-474.97 800.33,-466.82 800.55,-477.42 807.11,-474.97"/>
</g>
<!-- ooGroup_group_loops_functor_idmap -->
<g id="node22" class="node">
<title>ooGroup_group_loops_functor_idmap</title>
<g id="a_node22"><a xlink:href="ooGroup.html#group_loops_functor_idmap" xlink:title="group_loops_functor_idmap">
<ellipse fill="#f070d1" stroke="black" cx="2000" cy="-840.79" rx="137.59" ry="18"/>
<ellipse fill="none" stroke="black" cx="2000" cy="-840.79" rx="141.58" ry="22"/>
<ellipse fill="none" stroke="black" cx="2000" cy="-840.79" rx="145.58" ry="26"/>
<text text-anchor="middle" x="2000" y="-837.09" font-family="Times,serif" font-size="14.00">group_loops_functor_idmap</text>
</a>
</g>
</g>
<!-- ooGroup_group_loops_functor_idmap&#45;&gt;ooGroup_grouphom_idmap -->
<g id="edge41" class="edge">
<title>ooGroup_group_loops_functor_idmap&#45;&gt;ooGroup_grouphom_idmap</title>
<path fill="none" stroke="black" d="M1899.4,-821.94C1815.8,-801.23 1701.96,-758.03 1647,-670.79 1600.22,-596.53 1704.62,-511.26 1762.21,-471.87"/>
<polygon fill="black" stroke="black" points="1764.34,-474.65 1770.69,-466.17 1760.44,-468.85 1764.34,-474.65"/>
</g>
<!-- ooGroup_group_loops_functor_idmap&#45;&gt;ooGroup_loops_functor_group -->
<g id="edge42" class="edge">
<title>ooGroup_group_loops_functor_idmap&#45;&gt;ooGroup_loops_functor_group</title>
<path fill="none" stroke="black" d="M1940.35,-816.97C1839.6,-778.42 1637.53,-701.1 1543.4,-665.08"/>
<polygon fill="black" stroke="black" points="1544.42,-661.72 1533.83,-661.41 1541.91,-668.26 1544.42,-661.72"/>
</g>
<!-- ooGroup_group_loops_functor_idmap&#45;&gt;ooGroup_grouphom_fun -->
<g id="edge43" class="edge">
<title>ooGroup_group_loops_functor_idmap&#45;&gt;ooGroup_grouphom_fun</title>
<path fill="none" stroke="black" d="M1915.39,-819.46C1833.47,-795.93 1710.34,-749.9 1631,-670.79 1612.98,-652.82 1626.96,-634.59 1607,-618.79 1355.58,-419.74 1213.2,-543.61 900,-474.79 885.52,-471.61 869.97,-468.03 855.36,-464.6"/>
<polygon fill="black" stroke="black" points="855.95,-461.15 845.42,-462.25 854.34,-467.96 855.95,-461.15"/>
</g>
<!-- ooGroup_grouphom_idmap&#45;&gt;ooGroup_ooGroupHom -->
<g id="edge44" class="edge">
<title>ooGroup_grouphom_idmap&#45;&gt;ooGroup_ooGroupHom</title>
<path fill="none" stroke="black" d="M1813.09,-431C1845.98,-396.7 1920.97,-318.46 1958.99,-278.8"/>
<polygon fill="black" stroke="black" points="1961.68,-281.05 1966.08,-271.41 1956.63,-276.2 1961.68,-281.05"/>
</g>
<!-- ooGroup_group_loops_functor_compose -->
<g id="node24" class="node">
<title>ooGroup_group_loops_functor_compose</title>
<g id="a_node24"><a xlink:href="ooGroup.html#group_loops_functor_compose" xlink:title="group_loops_functor_compose">
<ellipse fill="#f070d1" stroke="black" cx="1679" cy="-840.79" rx="149.47" ry="18"/>
<ellipse fill="none" stroke="black" cx="1679" cy="-840.79" rx="153.47" ry="22"/>
<ellipse fill="none" stroke="black" cx="1679" cy="-840.79" rx="157.47" ry="26"/>
<text text-anchor="middle" x="1679" y="-837.09" font-family="Times,serif" font-size="14.00">group_loops_functor_compose</text>
</a>
</g>
</g>
<!-- ooGroup_group_loops_functor_compose&#45;&gt;ooGroup_grouphom_compose -->
<g id="edge45" class="edge">
<title>ooGroup_group_loops_functor_compose&#45;&gt;ooGroup_grouphom_compose</title>
<path fill="none" stroke="black" d="M1585.86,-819.79C1453.32,-789.68 1219.41,-729.92 1157,-670.79 1139.02,-653.76 1148.91,-640.5 1137,-618.79 1106.86,-563.88 1060.93,-506.62 1033.95,-474.85"/>
<polygon fill="black" stroke="black" points="1036.36,-472.29 1027.19,-466.97 1031.04,-476.84 1036.36,-472.29"/>
</g>
<!-- ooGroup_group_loops_functor_compose&#45;&gt;ooGroup_loops_functor_group -->
<g id="edge46" class="edge">
<title>ooGroup_group_loops_functor_compose&#45;&gt;ooGroup_loops_functor_group</title>
<path fill="none" stroke="black" d="M1655.06,-814.83C1619.16,-777.38 1551.78,-707.1 1516.27,-670.06"/>
<polygon fill="black" stroke="black" points="1518.64,-667.48 1509.2,-662.69 1513.59,-672.33 1518.64,-667.48"/>
</g>
<!-- ooGroup_group_loops_functor_compose&#45;&gt;ooGroup_grouphom_fun -->
<g id="edge47" class="edge">
<title>ooGroup_group_loops_functor_compose&#45;&gt;ooGroup_grouphom_fun</title>
<path fill="none" stroke="black" d="M1570,-821.96C1367.42,-787.98 948.65,-713.57 897,-670.79 877.67,-654.79 885.31,-641.67 875,-618.79 851.99,-567.77 823.33,-509.01 807,-475.95"/>
<polygon fill="black" stroke="black" points="810.12,-474.35 802.55,-466.94 803.85,-477.46 810.12,-474.35"/>
</g>
<!-- ooGroup_grouphom_compose&#45;&gt;ooGroup_ooGroupHom -->
<g id="edge48" class="edge">
<title>ooGroup_grouphom_compose&#45;&gt;ooGroup_ooGroupHom</title>
<path fill="none" stroke="black" d="M1079.15,-435.07C1099.94,-431.13 1122.92,-426.78 1144,-422.79 1480.43,-359.16 1568.67,-362.19 1901,-279.79 1910.75,-277.38 1921.06,-274.47 1930.93,-271.51"/>
<polygon fill="black" stroke="black" points="1932.09,-274.82 1940.63,-268.55 1930.04,-268.12 1932.09,-274.82"/>
</g>
<!-- ooGroup_group_loops_functor -->
<g id="node27" class="node">
<title>ooGroup_group_loops_functor</title>
<g id="a_node27"><a xlink:href="ooGroup.html#group_loops_functor" xlink:title="group_loops_functor">
<ellipse fill="#f070d1" stroke="black" cx="1583" cy="-448.79" rx="104.78" ry="18"/>
<text text-anchor="middle" x="1583" y="-445.09" font-family="Times,serif" font-size="14.00">group_loops_functor</text>
</a>
</g>
</g>
<!-- ooGroup_loops_functor_group&#45;&gt;ooGroup_group_loops_functor -->
<g id="edge49" class="edge">
<title>ooGroup_loops_functor_group&#45;&gt;ooGroup_group_loops_functor</title>
<path fill="none" stroke="black" d="M1500.99,-626.58C1516.77,-592.57 1552.02,-516.57 1570.75,-476.19"/>
<polygon fill="black" stroke="black" points="1574,-477.51 1575.03,-466.97 1567.65,-474.57 1574,-477.51"/>
</g>
<!-- ooGroup_loops_group -->
<g id="node30" class="node">
<title>ooGroup_loops_group</title>
<g id="a_node30"><a xlink:href="ooGroup.html#loops_group" xlink:title="loops_group">
<ellipse fill="#f070d1" stroke="black" cx="1393" cy="-448.79" rx="66.89" ry="18"/>
<text text-anchor="middle" x="1393" y="-445.09" font-family="Times,serif" font-size="14.00">loops_group</text>
</a>
</g>
</g>
<!-- ooGroup_loops_functor_group&#45;&gt;ooGroup_loops_group -->
<g id="edge50" class="edge">
<title>ooGroup_loops_functor_group&#45;&gt;ooGroup_loops_group</title>
<path fill="none" stroke="black" d="M1484.13,-626.58C1466.51,-592.41 1427.06,-515.86 1406.32,-475.63"/>
<polygon fill="black" stroke="black" points="1409.4,-473.98 1401.71,-466.69 1403.18,-477.19 1409.4,-473.98"/>
</g>
<!-- ooGroup_group_loops_functor&#45;&gt;ooGroup_ooGroupHom -->
<g id="edge51" class="edge">
<title>ooGroup_group_loops_functor&#45;&gt;ooGroup_ooGroupHom</title>
<path fill="none" stroke="black" d="M1616.33,-431.67C1689.13,-396.45 1862.15,-312.77 1941.26,-274.5"/>
<polygon fill="black" stroke="black" points="1942.95,-277.57 1950.43,-270.06 1939.9,-271.27 1942.95,-277.57"/>
</g>
<!-- ooGroup_group_loops -->
<g id="node31" class="node">
<title>ooGroup_group_loops</title>
<g id="a_node31"><a xlink:href="ooGroup.html#group_loops" xlink:title="group_loops">
<ellipse fill="#f070d1" stroke="black" cx="1541" cy="-253.79" rx="66.89" ry="18"/>
<text text-anchor="middle" x="1541" y="-250.09" font-family="Times,serif" font-size="14.00">group_loops</text>
</a>
</g>
</g>
<!-- ooGroup_group_loops_functor&#45;&gt;ooGroup_group_loops -->
<g id="edge52" class="edge">
<title>ooGroup_group_loops_functor&#45;&gt;ooGroup_group_loops</title>
<path fill="none" stroke="black" d="M1579.27,-430.67C1571.96,-397.04 1555.66,-322.18 1546.88,-281.82"/>
<polygon fill="black" stroke="black" points="1550.27,-280.91 1544.72,-271.88 1543.43,-282.4 1550.27,-280.91"/>
</g>
<!-- ooGroup_grouphom_fun&#45;&gt;ooGroup_ooGroupHom -->
<g id="edge53" class="edge">
<title>ooGroup_grouphom_fun&#45;&gt;ooGroup_ooGroupHom</title>
<path fill="none" stroke="black" d="M843.95,-435.04C861.59,-430.79 881.61,-426.27 900,-422.79 1341.59,-339.35 1462.49,-378.14 1901,-279.79 1910.91,-277.57 1921.36,-274.73 1931.34,-271.77"/>
<polygon fill="black" stroke="black" points="1932.59,-275.05 1941.13,-268.78 1930.54,-268.35 1932.59,-275.05"/>
</g>
<!-- ooGroup_group_type -->
<g id="node32" class="node">
<title>ooGroup_group_type</title>
<g id="a_node32"><a xlink:href="ooGroup.html#group_type" xlink:title="group_type">
<ellipse fill="#f070d1" stroke="black" cx="1393" cy="-253.79" rx="63.09" ry="18"/>
<text text-anchor="middle" x="1393" y="-250.09" font-family="Times,serif" font-size="14.00">group_type</text>
</a>
</g>
</g>
<!-- ooGroup_grouphom_fun&#45;&gt;ooGroup_group_type -->
<g id="edge54" class="edge">
<title>ooGroup_grouphom_fun&#45;&gt;ooGroup_group_type</title>
<path fill="none" stroke="black" d="M838.54,-434.02C929.46,-405.8 1142.88,-339.1 1321,-279.79 1328.85,-277.18 1337.17,-274.35 1345.25,-271.56"/>
<polygon fill="black" stroke="black" points="1346.64,-274.79 1354.95,-268.21 1344.35,-268.17 1346.64,-274.79"/>
</g>
<!-- ooGroup_ooGroupHom&#45;&gt;ooGroup_ooGroup -->
<g id="edge55" class="edge">
<title>ooGroup_ooGroupHom&#45;&gt;ooGroup_ooGroup</title>
<path fill="none" stroke="black" d="M1945.54,-238.24C1864.27,-205.81 1668.68,-127.75 1582.72,-93.44"/>
<polygon fill="black" stroke="black" points="1583.87,-90.13 1573.28,-89.68 1581.27,-96.63 1583.87,-90.13"/>
</g>
<!-- ooGroup_loops_group&#45;&gt;ooGroup_group_loops -->
<g id="edge56" class="edge">
<title>ooGroup_loops_group&#45;&gt;ooGroup_group_loops</title>
<path fill="none" stroke="black" d="M1405.88,-431C1431.95,-397 1491.13,-319.83 1521.79,-279.85"/>
<polygon fill="black" stroke="black" points="1524.74,-281.75 1528.05,-271.68 1519.19,-277.49 1524.74,-281.75"/>
</g>
<!-- ooGroup_loops_group&#45;&gt;ooGroup_group_type -->
<g id="edge57" class="edge">
<title>ooGroup_loops_group&#45;&gt;ooGroup_group_type</title>
<path fill="none" stroke="black" d="M1393,-430.67C1393,-397.12 1393,-322.5 1393,-282.08"/>
<polygon fill="black" stroke="black" points="1396.5,-281.88 1393,-271.88 1389.5,-281.88 1396.5,-281.88"/>
</g>
<!-- ooGroup_group_loops&#45;&gt;ooGroup_Build_ooGroup -->
<g id="edge58" class="edge">
<title>ooGroup_group_loops&#45;&gt;ooGroup_Build_ooGroup</title>
<path fill="none" stroke="black" d="M1501.74,-239.2C1489.99,-235.31 1477.03,-231.21 1465,-227.79 1261.56,-170.02 1017.06,-115.53 901.99,-90.76"/>
<polygon fill="black" stroke="black" points="902.44,-87.28 891.93,-88.6 900.97,-94.12 902.44,-87.28"/>
</g>
<!-- ooGroup_group_loops&#45;&gt;ooGroup_ooGroup -->
<g id="edge59" class="edge">
<title>ooGroup_group_loops&#45;&gt;ooGroup_ooGroup</title>
<path fill="none" stroke="black" d="M1541,-235.6C1541,-205.03 1541,-140.99 1541,-104.26"/>
<polygon fill="black" stroke="black" points="1544.5,-103.8 1541,-93.8 1537.5,-103.8 1544.5,-103.8"/>
</g>
<!-- ooGroup_group_type&#45;&gt;ooGroup_ooGroup -->
<g id="edge60" class="edge">
<title>ooGroup_group_type&#45;&gt;ooGroup_ooGroup</title>
<path fill="none" stroke="black" d="M1406.92,-236.24C1433.21,-204.97 1490.26,-137.13 1520.78,-100.84"/>
<polygon fill="black" stroke="black" points="1523.46,-103.08 1527.22,-93.18 1518.11,-98.58 1523.46,-103.08"/>
</g>
<!-- ooGroup_isconn_classifying_space -->
<g id="node33" class="node">
<title>ooGroup_isconn_classifying_space</title>
<g id="a_node33"><a xlink:href="ooGroup.html#isconn_classifying_space" xlink:title="isconn_classifying_space">
<ellipse fill="#f070d1" stroke="black" cx="1759" cy="-253.79" rx="124.59" ry="18"/>
<ellipse fill="none" stroke="black" cx="1759" cy="-253.79" rx="128.58" ry="22"/>
<ellipse fill="none" stroke="black" cx="1759" cy="-253.79" rx="132.58" ry="26"/>
<text text-anchor="middle" x="1759" y="-250.09" font-family="Times,serif" font-size="14.00">isconn_classifying_space</text>
</a>
</g>
</g>
<!-- ooGroup_isconn_classifying_space&#45;&gt;ooGroup_ooGroup -->
<g id="edge61" class="edge">
<title>ooGroup_isconn_classifying_space&#45;&gt;ooGroup_ooGroup</title>
<path fill="none" stroke="black" d="M1728.69,-228.32C1686.11,-193.95 1609.24,-131.88 1568.33,-98.86"/>
<polygon fill="black" stroke="black" points="1570.39,-96.02 1560.41,-92.46 1565.99,-101.47 1570.39,-96.02"/>
</g>
<!-- ooGroup_classifying_space&#45;&gt;ooGroup_ooGroup -->
<g id="edge62" class="edge">
<title>ooGroup_classifying_space&#45;&gt;ooGroup_ooGroup</title>
<path fill="none" stroke="black" d="M2261.22,-430.86C2279.45,-390.59 2317.95,-287.94 2269,-227.79 2184.44,-123.89 1758.41,-89.21 1600.23,-79.81"/>
<polygon fill="black" stroke="black" points="1600.39,-76.31 1590.21,-79.22 1599.99,-83.3 1600.39,-76.31"/>
</g>
<!-- ooGroup_ooGroup_sind -->
<g id="node35" class="node">
<title>ooGroup_ooGroup_sind</title>
<g id="a_node35"><a xlink:href="ooGroup.html#ooGroup_sind" xlink:title="ooGroup_sind">
<ellipse fill="#f070d1" stroke="black" cx="1056" cy="-253.79" rx="74.18" ry="18"/>
<ellipse fill="none" stroke="black" cx="1056" cy="-253.79" rx="78.18" ry="22"/>
<ellipse fill="none" stroke="black" cx="1056" cy="-253.79" rx="82.19" ry="26"/>
<text text-anchor="middle" x="1056" y="-250.09" font-family="Times,serif" font-size="14.00">ooGroup_sind</text>
</a>
</g>
</g>
<!-- ooGroup_ooGroup_sind&#45;&gt;ooGroup_Build_ooGroup -->
<g id="edge63" class="edge">
<title>ooGroup_ooGroup_sind&#45;&gt;ooGroup_Build_ooGroup</title>
<path fill="none" stroke="black" d="M1026.79,-229.42C984.49,-195.58 906.67,-133.33 864.68,-99.74"/>
<polygon fill="black" stroke="black" points="866.77,-96.93 856.78,-93.42 862.4,-102.4 866.77,-96.93"/>
</g>
<!-- ooGroup_ooGroup_sind&#45;&gt;ooGroup_ooGroup -->
<g id="edge64" class="edge">
<title>ooGroup_ooGroup_sind&#45;&gt;ooGroup_ooGroup</title>
<path fill="none" stroke="black" d="M1108.83,-233.62C1205.38,-198.59 1408.57,-124.85 1497.63,-92.53"/>
<polygon fill="black" stroke="black" points="1498.94,-95.78 1507.15,-89.08 1496.55,-89.2 1498.94,-95.78"/>
</g>
<!-- ooGroup_ooGroup_rec -->
<g id="node36" class="node">
<title>ooGroup_ooGroup_rec</title>
<g id="a_node36"><a xlink:href="ooGroup.html#ooGroup_rec" xlink:title="ooGroup_rec">
<ellipse fill="#f070d1" stroke="black" cx="1231" cy="-448.79" rx="69.58" ry="18"/>
<ellipse fill="none" stroke="black" cx="1231" cy="-448.79" rx="73.59" ry="22"/>
<ellipse fill="none" stroke="black" cx="1231" cy="-448.79" rx="77.59" ry="26"/>
<text text-anchor="middle" x="1231" y="-445.09" font-family="Times,serif" font-size="14.00">ooGroup_rec</text>
</a>
</g>
</g>
<!-- ooGroup_ooGroup_rect -->
<g id="node38" class="node">
<title>ooGroup_ooGroup_rect</title>
<g id="a_node38"><a xlink:href="ooGroup.html#ooGroup_rect" xlink:title="ooGroup_rect">
<ellipse fill="#f070d1" stroke="black" cx="882" cy="-253.79" rx="73.39" ry="18"/>
<text text-anchor="middle" x="882" y="-250.09" font-family="Times,serif" font-size="14.00">ooGroup_rect</text>
</a>
</g>
</g>
<!-- ooGroup_ooGroup_rec&#45;&gt;ooGroup_ooGroup_rect -->
<g id="edge65" class="edge">
<title>ooGroup_ooGroup_rec&#45;&gt;ooGroup_ooGroup_rect</title>
<path fill="none" stroke="black" d="M1191.98,-426.22C1124.2,-388.73 985.6,-312.08 919.14,-275.33"/>
<polygon fill="black" stroke="black" points="920.71,-272.2 910.26,-270.42 917.32,-278.32 920.71,-272.2"/>
</g>
<!-- ooGroup_ooGroup_ind -->
<g id="node37" class="node">
<title>ooGroup_ooGroup_ind</title>
<g id="a_node37"><a xlink:href="ooGroup.html#ooGroup_ind" xlink:title="ooGroup_ind">
<ellipse fill="#7fffd4" stroke="black" cx="1234" cy="-253.79" rx="69.58" ry="18"/>
<ellipse fill="none" stroke="black" cx="1234" cy="-253.79" rx="73.59" ry="22"/>
<ellipse fill="none" stroke="black" cx="1234" cy="-253.79" rx="77.59" ry="26"/>
<text text-anchor="middle" x="1234" y="-250.09" font-family="Times,serif" font-size="14.00">ooGroup_ind</text>
</a>
</g>
</g>
<!-- ooGroup_ooGroup_ind&#45;&gt;ooGroup_Build_ooGroup -->
<g id="edge66" class="edge">
<title>ooGroup_ooGroup_ind&#45;&gt;ooGroup_Build_ooGroup</title>
<path fill="none" stroke="black" d="M1188.34,-232.6C1111.1,-198.44 955.63,-129.7 879.72,-96.13"/>
<polygon fill="black" stroke="black" points="880.99,-92.86 870.43,-92.02 878.16,-99.26 880.99,-92.86"/>
</g>
<!-- ooGroup_ooGroup_ind&#45;&gt;ooGroup_ooGroup -->
<g id="edge67" class="edge">
<title>ooGroup_ooGroup_ind&#45;&gt;ooGroup_ooGroup</title>
<path fill="none" stroke="black" d="M1271.95,-231.04C1332.25,-196.46 1449.03,-129.52 1506.85,-96.37"/>
<polygon fill="black" stroke="black" points="1508.67,-99.36 1515.61,-91.35 1505.19,-93.29 1508.67,-99.36"/>
</g>
<!-- ooGroup_ooGroup_rect&#45;&gt;ooGroup_Build_ooGroup -->
<g id="edge68" class="edge">
<title>ooGroup_ooGroup_rect&#45;&gt;ooGroup_Build_ooGroup</title>
<path fill="none" stroke="black" d="M877.51,-235.6C869.48,-204.89 852.63,-140.43 843.05,-103.78"/>
<polygon fill="black" stroke="black" points="846.36,-102.59 840.44,-93.8 839.59,-104.36 846.36,-102.59"/>
</g>
<!-- ooGroup_ooGroup_rect&#45;&gt;ooGroup_ooGroup -->
<g id="edge69" class="edge">
<title>ooGroup_ooGroup_rect&#45;&gt;ooGroup_ooGroup</title>
<path fill="none" stroke="black" d="M925.85,-239.26C938.46,-235.46 952.25,-231.38 965,-227.79 1158.85,-173.21 1391.22,-114.26 1491.23,-89.19"/>
<polygon fill="black" stroke="black" points="1492.21,-92.56 1501.06,-86.73 1490.51,-85.77 1492.21,-92.56"/>
</g>
</g>
</svg>
