<?xml version="1.0" encoding="UTF-8" standalone="no"?>
<!DOCTYPE svg PUBLIC "-//W3C//DTD SVG 1.1//EN"
 "http://www.w3.org/Graphics/SVG/1.1/DTD/svg11.dtd">
<!-- Generated by graphviz version 2.43.0 (0)
 -->
<!-- Title: HoTT_HFiber Pages: 1 -->
<svg width="3663pt" height="1836pt"
 viewBox="0.00 0.00 3663.00 1835.50" xmlns="http://www.w3.org/2000/svg" xmlns:xlink="http://www.w3.org/1999/xlink">
<g id="graph0" class="graph" transform="scale(1 1) rotate(0) translate(4 1831.5)">
<title>HoTT_HFiber</title>
<polygon fill="white" stroke="transparent" points="-4,4 -4,-1831.5 3659,-1831.5 3659,4 -4,4"/>
<g id="clust1" class="cluster">
<title>cluster_HFiber</title>
<polygon fill="#ffffc3" stroke="black" points="8,-34.24 8,-1793.26 3647,-1793.26 3647,-34.24 8,-34.24"/>
<text text-anchor="middle" x="41.5" y="-1778.06" font-family="Times,serif" font-size="14.00">HFiber</text>
</g>
<!-- HFiber_equiv_isequiv_ap_isembedding -->
<g id="node1" class="node">
<title>HFiber_equiv_isequiv_ap_isembedding</title>
<g id="a_node1"><a xlink:href="HFiber.html#equiv_isequiv_ap_isembedding" xlink:title="equiv_isequiv_ap_isembedding">
<ellipse fill="#f070d1" stroke="black" cx="3478" cy="-1549.24" rx="153.28" ry="18"/>
<ellipse fill="none" stroke="black" cx="3478" cy="-1549.24" rx="157.28" ry="22"/>
<ellipse fill="none" stroke="black" cx="3478" cy="-1549.24" rx="161.27" ry="26"/>
<text text-anchor="middle" x="3478" y="-1545.54" font-family="Times,serif" font-size="14.00">equiv_isequiv_ap_isembedding</text>
</a>
</g>
</g>
<!-- HFiber_isembedding_isequiv_ap -->
<g id="node2" class="node">
<title>HFiber_isembedding_isequiv_ap</title>
<g id="a_node2"><a xlink:href="HFiber.html#isembedding_isequiv_ap" xlink:title="isembedding_isequiv_ap">
<ellipse fill="#f070d1" stroke="black" cx="3497" cy="-1172.24" rx="123.48" ry="18"/>
<text text-anchor="middle" x="3497" y="-1168.54" font-family="Times,serif" font-size="14.00">isembedding_isequiv_ap</text>
</a>
</g>
</g>
<!-- HFiber_equiv_isequiv_ap_isembedding&#45;&gt;HFiber_isembedding_isequiv_ap -->
<g id="edge1" class="edge">
<title>HFiber_equiv_isequiv_ap_isembedding&#45;&gt;HFiber_isembedding_isequiv_ap</title>
<path fill="none" stroke="black" d="M3479.28,-1523.05C3482.7,-1455.56 3492.05,-1271 3495.6,-1200.82"/>
<polygon fill="black" stroke="black" points="3499.11,-1200.74 3496.12,-1190.57 3492.12,-1200.38 3499.11,-1200.74"/>
</g>
<!-- HFiber_isequiv_ap_isembedding -->
<g id="node4" class="node">
<title>HFiber_isequiv_ap_isembedding</title>
<g id="a_node4"><a xlink:href="HFiber.html#isequiv_ap_isembedding" xlink:title="isequiv_ap_isembedding">
<ellipse fill="#f070d1" stroke="black" cx="2981" cy="-1172.24" rx="123.48" ry="18"/>
<text text-anchor="middle" x="2981" y="-1168.54" font-family="Times,serif" font-size="14.00">isequiv_ap_isembedding</text>
</a>
</g>
</g>
<!-- HFiber_equiv_isequiv_ap_isembedding&#45;&gt;HFiber_isequiv_ap_isembedding -->
<g id="edge2" class="edge">
<title>HFiber_equiv_isequiv_ap_isembedding&#45;&gt;HFiber_isequiv_ap_isembedding</title>
<path fill="none" stroke="black" d="M3445.39,-1523.63C3354.58,-1455.12 3099.7,-1262.8 3011.49,-1196.25"/>
<polygon fill="black" stroke="black" points="3013.34,-1193.26 3003.25,-1190.03 3009.12,-1198.84 3013.34,-1193.26"/>
</g>
<!-- HFiber_istruncmap_from_ap -->
<g id="node6" class="node">
<title>HFiber_istruncmap_from_ap</title>
<g id="a_node6"><a xlink:href="HFiber.html#istruncmap_from_ap" xlink:title="istruncmap_from_ap">
<ellipse fill="#f070d1" stroke="black" cx="3239" cy="-796.24" rx="105.08" ry="18"/>
<text text-anchor="middle" x="3239" y="-792.54" font-family="Times,serif" font-size="14.00">istruncmap_from_ap</text>
</a>
</g>
</g>
<!-- HFiber_isembedding_isequiv_ap&#45;&gt;HFiber_istruncmap_from_ap -->
<g id="edge3" class="edge">
<title>HFiber_isembedding_isequiv_ap&#45;&gt;HFiber_istruncmap_from_ap</title>
<path fill="none" stroke="black" d="M3485.24,-1154.2C3444.03,-1094.45 3305.91,-894.23 3256.64,-822.82"/>
<polygon fill="black" stroke="black" points="3259.38,-820.62 3250.83,-814.38 3253.62,-824.6 3259.38,-820.62"/>
</g>
<!-- HFiber_equiv_ap_isembedding -->
<g id="node3" class="node">
<title>HFiber_equiv_ap_isembedding</title>
<g id="a_node3"><a xlink:href="HFiber.html#equiv_ap_isembedding" xlink:title="equiv_ap_isembedding">
<ellipse fill="#f070d1" stroke="black" cx="3175" cy="-1549.24" rx="115.87" ry="18"/>
<ellipse fill="none" stroke="black" cx="3175" cy="-1549.24" rx="119.87" ry="22"/>
<ellipse fill="none" stroke="black" cx="3175" cy="-1549.24" rx="123.88" ry="26"/>
<text text-anchor="middle" x="3175" y="-1545.54" font-family="Times,serif" font-size="14.00">equiv_ap_isembedding</text>
</a>
</g>
</g>
<!-- HFiber_equiv_ap_isembedding&#45;&gt;HFiber_isequiv_ap_isembedding -->
<g id="edge4" class="edge">
<title>HFiber_equiv_ap_isembedding&#45;&gt;HFiber_isequiv_ap_isembedding</title>
<path fill="none" stroke="black" d="M3162.12,-1523.34C3127.04,-1455.54 3030.05,-1268.06 2994.39,-1199.11"/>
<polygon fill="black" stroke="black" points="2997.48,-1197.47 2989.77,-1190.2 2991.26,-1200.69 2997.48,-1197.47"/>
</g>
<!-- HFiber_istruncmap_ap -->
<g id="node7" class="node">
<title>HFiber_istruncmap_ap</title>
<g id="a_node7"><a xlink:href="HFiber.html#istruncmap_ap" xlink:title="istruncmap_ap">
<ellipse fill="#f070d1" stroke="black" cx="3008" cy="-796.24" rx="79.09" ry="18"/>
<text text-anchor="middle" x="3008" y="-792.54" font-family="Times,serif" font-size="14.00">istruncmap_ap</text>
</a>
</g>
</g>
<!-- HFiber_isequiv_ap_isembedding&#45;&gt;HFiber_istruncmap_ap -->
<g id="edge5" class="edge">
<title>HFiber_isequiv_ap_isembedding&#45;&gt;HFiber_istruncmap_ap</title>
<path fill="none" stroke="black" d="M2982.23,-1154.2C2986.51,-1094.93 3000.76,-897.49 3006.03,-824.59"/>
<polygon fill="black" stroke="black" points="3009.53,-824.61 3006.76,-814.38 3002.55,-824.1 3009.53,-824.61"/>
</g>
<!-- HFiber_equiv_istruncmap_ap -->
<g id="node5" class="node">
<title>HFiber_equiv_istruncmap_ap</title>
<g id="a_node5"><a xlink:href="HFiber.html#equiv_istruncmap_ap" xlink:title="equiv_istruncmap_ap">
<ellipse fill="#f070d1" stroke="black" cx="3239" cy="-1172.24" rx="108.58" ry="18"/>
<ellipse fill="none" stroke="black" cx="3239" cy="-1172.24" rx="112.58" ry="22"/>
<ellipse fill="none" stroke="black" cx="3239" cy="-1172.24" rx="116.58" ry="26"/>
<text text-anchor="middle" x="3239" y="-1168.54" font-family="Times,serif" font-size="14.00">equiv_istruncmap_ap</text>
</a>
</g>
</g>
<!-- HFiber_equiv_istruncmap_ap&#45;&gt;HFiber_istruncmap_from_ap -->
<g id="edge6" class="edge">
<title>HFiber_equiv_istruncmap_ap&#45;&gt;HFiber_istruncmap_from_ap</title>
<path fill="none" stroke="black" d="M3239,-1146.12C3239,-1078.8 3239,-894.74 3239,-824.75"/>
<polygon fill="black" stroke="black" points="3242.5,-824.53 3239,-814.53 3235.5,-824.53 3242.5,-824.53"/>
</g>
<!-- HFiber_equiv_istruncmap_ap&#45;&gt;HFiber_istruncmap_ap -->
<g id="edge7" class="edge">
<title>HFiber_equiv_istruncmap_ap&#45;&gt;HFiber_istruncmap_ap</title>
<path fill="none" stroke="black" d="M3223.66,-1146.41C3181.9,-1078.78 3066.41,-891.8 3023.94,-823.04"/>
<polygon fill="black" stroke="black" points="3026.68,-820.82 3018.45,-814.15 3020.72,-824.5 3026.68,-820.82"/>
</g>
<!-- HFiber_hfiber_ap -->
<g id="node26" class="node">
<title>HFiber_hfiber_ap</title>
<g id="a_node26"><a xlink:href="HFiber.html#hfiber_ap" xlink:title="hfiber_ap">
<ellipse fill="#f070d1" stroke="black" cx="3008" cy="-453.24" rx="53.89" ry="18"/>
<text text-anchor="middle" x="3008" y="-449.54" font-family="Times,serif" font-size="14.00">hfiber_ap</text>
</a>
</g>
</g>
<!-- HFiber_istruncmap_from_ap&#45;&gt;HFiber_hfiber_ap -->
<g id="edge8" class="edge">
<title>HFiber_istruncmap_from_ap&#45;&gt;HFiber_hfiber_ap</title>
<path fill="none" stroke="black" d="M3227.54,-778.33C3189.9,-722.75 3069.84,-545.52 3025.05,-479.41"/>
<polygon fill="black" stroke="black" points="3027.76,-477.17 3019.25,-470.85 3021.96,-481.09 3027.76,-477.17"/>
</g>
<!-- HFiber_istruncmap_ap&#45;&gt;HFiber_hfiber_ap -->
<g id="edge9" class="edge">
<title>HFiber_istruncmap_ap&#45;&gt;HFiber_hfiber_ap</title>
<path fill="none" stroke="black" d="M3008,-777.86C3008,-722.45 3008,-549.63 3008,-481.88"/>
<polygon fill="black" stroke="black" points="3011.5,-481.58 3008,-471.58 3004.5,-481.58 3011.5,-481.58"/>
</g>
<!-- HFiber_istruncmap_const -->
<g id="node8" class="node">
<title>HFiber_istruncmap_const</title>
<g id="a_node8"><a xlink:href="HFiber.html#istruncmap_const" xlink:title="istruncmap_const">
<ellipse fill="#f070d1" stroke="black" cx="2932" cy="-1549.24" rx="92.89" ry="18"/>
<ellipse fill="none" stroke="black" cx="2932" cy="-1549.24" rx="96.89" ry="22"/>
<ellipse fill="none" stroke="black" cx="2932" cy="-1549.24" rx="100.88" ry="26"/>
<text text-anchor="middle" x="2932" y="-1545.54" font-family="Times,serif" font-size="14.00">istruncmap_const</text>
</a>
</g>
</g>
<!-- HFiber_hfiber_const -->
<g id="node9" class="node">
<title>HFiber_hfiber_const</title>
<g id="a_node9"><a xlink:href="HFiber.html#hfiber_const" xlink:title="hfiber_const">
<ellipse fill="#f070d1" stroke="black" cx="2737" cy="-1549.24" rx="67.68" ry="18"/>
<ellipse fill="none" stroke="black" cx="2737" cy="-1549.24" rx="71.68" ry="22"/>
<ellipse fill="none" stroke="black" cx="2737" cy="-1549.24" rx="75.69" ry="26"/>
<text text-anchor="middle" x="2737" y="-1545.54" font-family="Times,serif" font-size="14.00">hfiber_const</text>
</a>
</g>
</g>
<!-- HFiber_istruncmap_compose -->
<g id="node10" class="node">
<title>HFiber_istruncmap_compose</title>
<g id="a_node10"><a xlink:href="HFiber.html#istruncmap_compose" xlink:title="istruncmap_compose">
<ellipse fill="#f070d1" stroke="black" cx="2527" cy="-1549.24" rx="108.58" ry="18"/>
<ellipse fill="none" stroke="black" cx="2527" cy="-1549.24" rx="112.58" ry="22"/>
<ellipse fill="none" stroke="black" cx="2527" cy="-1549.24" rx="116.58" ry="26"/>
<text text-anchor="middle" x="2527" y="-1545.54" font-family="Times,serif" font-size="14.00">istruncmap_compose</text>
</a>
</g>
</g>
<!-- HFiber_hfiber_compose -->
<g id="node11" class="node">
<title>HFiber_hfiber_compose</title>
<g id="a_node11"><a xlink:href="HFiber.html#hfiber_compose" xlink:title="hfiber_compose">
<ellipse fill="#f070d1" stroke="black" cx="2527" cy="-1172.24" rx="83.39" ry="18"/>
<text text-anchor="middle" x="2527" y="-1168.54" font-family="Times,serif" font-size="14.00">hfiber_compose</text>
</a>
</g>
</g>
<!-- HFiber_istruncmap_compose&#45;&gt;HFiber_hfiber_compose -->
<g id="edge10" class="edge">
<title>HFiber_istruncmap_compose&#45;&gt;HFiber_hfiber_compose</title>
<path fill="none" stroke="black" d="M2527,-1523.05C2527,-1455.56 2527,-1271 2527,-1200.82"/>
<polygon fill="black" stroke="black" points="2530.5,-1200.57 2527,-1190.57 2523.5,-1200.57 2530.5,-1200.57"/>
</g>
<!-- HFiber_hfiber_hfiber_compose_map -->
<g id="node12" class="node">
<title>HFiber_hfiber_hfiber_compose_map</title>
<g id="a_node12"><a xlink:href="HFiber.html#hfiber_hfiber_compose_map" xlink:title="hfiber_hfiber_compose_map">
<ellipse fill="#f070d1" stroke="black" cx="2245" cy="-1549.24" rx="139.17" ry="18"/>
<ellipse fill="none" stroke="black" cx="2245" cy="-1549.24" rx="143.17" ry="22"/>
<ellipse fill="none" stroke="black" cx="2245" cy="-1549.24" rx="147.18" ry="26"/>
<text text-anchor="middle" x="2245" y="-1545.54" font-family="Times,serif" font-size="14.00">hfiber_hfiber_compose_map</text>
</a>
</g>
</g>
<!-- HFiber_hfiber_compose_map -->
<g id="node13" class="node">
<title>HFiber_hfiber_compose_map</title>
<g id="a_node13"><a xlink:href="HFiber.html#hfiber_compose_map" xlink:title="hfiber_compose_map">
<ellipse fill="#f070d1" stroke="black" cx="2245" cy="-1172.24" rx="107.48" ry="18"/>
<text text-anchor="middle" x="2245" y="-1168.54" font-family="Times,serif" font-size="14.00">hfiber_compose_map</text>
</a>
</g>
</g>
<!-- HFiber_hfiber_hfiber_compose_map&#45;&gt;HFiber_hfiber_compose_map -->
<g id="edge11" class="edge">
<title>HFiber_hfiber_hfiber_compose_map&#45;&gt;HFiber_hfiber_compose_map</title>
<path fill="none" stroke="black" d="M2245,-1523.05C2245,-1455.56 2245,-1271 2245,-1200.82"/>
<polygon fill="black" stroke="black" points="2248.5,-1200.57 2245,-1190.57 2241.5,-1200.57 2248.5,-1200.57"/>
</g>
<!-- HFiber_hfiber_fibration -->
<g id="node14" class="node">
<title>HFiber_hfiber_fibration</title>
<g id="a_node14"><a xlink:href="HFiber.html#hfiber_fibration" xlink:title="hfiber_fibration">
<ellipse fill="#f070d1" stroke="black" cx="1990" cy="-1549.24" rx="81.8" ry="18"/>
<ellipse fill="none" stroke="black" cx="1990" cy="-1549.24" rx="85.79" ry="22"/>
<ellipse fill="none" stroke="black" cx="1990" cy="-1549.24" rx="89.79" ry="26"/>
<text text-anchor="middle" x="1990" y="-1545.54" font-family="Times,serif" font-size="14.00">hfiber_fibration</text>
</a>
</g>
</g>
<!-- HFiber_equiv_fibration_replacement -->
<g id="node15" class="node">
<title>HFiber_equiv_fibration_replacement</title>
<g id="a_node15"><a xlink:href="HFiber.html#equiv_fibration_replacement" xlink:title="equiv_fibration_replacement">
<ellipse fill="#f070d1" stroke="black" cx="1732" cy="-1549.24" rx="142.18" ry="18"/>
<ellipse fill="none" stroke="black" cx="1732" cy="-1549.24" rx="146.18" ry="22"/>
<ellipse fill="none" stroke="black" cx="1732" cy="-1549.24" rx="150.17" ry="26"/>
<text text-anchor="middle" x="1732" y="-1545.54" font-family="Times,serif" font-size="14.00">equiv_fibration_replacement</text>
</a>
</g>
</g>
<!-- HFiber_hfiber_functor_hfiber -->
<g id="node16" class="node">
<title>HFiber_hfiber_functor_hfiber</title>
<g id="a_node16"><a xlink:href="HFiber.html#hfiber_functor_hfiber" xlink:title="hfiber_functor_hfiber">
<ellipse fill="#f070d1" stroke="black" cx="1190" cy="-1549.24" rx="107.79" ry="18"/>
<ellipse fill="none" stroke="black" cx="1190" cy="-1549.24" rx="111.78" ry="22"/>
<ellipse fill="none" stroke="black" cx="1190" cy="-1549.24" rx="115.78" ry="26"/>
<text text-anchor="middle" x="1190" y="-1545.54" font-family="Times,serif" font-size="14.00">hfiber_functor_hfiber</text>
</a>
</g>
</g>
<!-- HFiber_hfiber_functor_hfiber_subproof -->
<g id="node17" class="node">
<title>HFiber_hfiber_functor_hfiber_subproof</title>
<g id="a_node17"><a xlink:href="HFiber.html#hfiber_functor_hfiber_subproof" xlink:title="hfiber_functor_hfiber_subproof">
<ellipse fill="#f070d1" stroke="black" cx="1190" cy="-1172.24" rx="153.27" ry="18"/>
<text text-anchor="middle" x="1190" y="-1168.54" font-family="Times,serif" font-size="14.00">hfiber_functor_hfiber_subproof</text>
</a>
</g>
</g>
<!-- HFiber_hfiber_functor_hfiber&#45;&gt;HFiber_hfiber_functor_hfiber_subproof -->
<g id="edge12" class="edge">
<title>HFiber_hfiber_functor_hfiber&#45;&gt;HFiber_hfiber_functor_hfiber_subproof</title>
<path fill="none" stroke="black" d="M1190,-1523.05C1190,-1455.56 1190,-1271 1190,-1200.82"/>
<polygon fill="black" stroke="black" points="1193.5,-1200.57 1190,-1190.57 1186.5,-1200.57 1193.5,-1200.57"/>
</g>
<!-- HFiber_functor_hfiber -->
<g id="node24" class="node">
<title>HFiber_functor_hfiber</title>
<g id="a_node24"><a xlink:href="HFiber.html#functor_hfiber" xlink:title="functor_hfiber">
<ellipse fill="#f070d1" stroke="black" cx="815" cy="-1172.24" rx="76.09" ry="18"/>
<text text-anchor="middle" x="815" y="-1168.54" font-family="Times,serif" font-size="14.00">functor_hfiber</text>
</a>
</g>
</g>
<!-- HFiber_hfiber_functor_hfiber&#45;&gt;HFiber_functor_hfiber -->
<g id="edge13" class="edge">
<title>HFiber_hfiber_functor_hfiber&#45;&gt;HFiber_functor_hfiber</title>
<path fill="none" stroke="black" d="M1165.4,-1523.63C1097.14,-1455.38 906.06,-1264.3 838.79,-1197.03"/>
<polygon fill="black" stroke="black" points="841.13,-1194.42 831.58,-1189.82 836.18,-1199.37 841.13,-1194.42"/>
</g>
<!-- HFiber_functor_hfiber_compose -->
<g id="node18" class="node">
<title>HFiber_functor_hfiber_compose</title>
<g id="a_node18"><a xlink:href="HFiber.html#functor_hfiber_compose" xlink:title="functor_hfiber_compose">
<ellipse fill="#f070d1" stroke="black" cx="419" cy="-1549.24" rx="120.79" ry="18"/>
<ellipse fill="none" stroke="black" cx="419" cy="-1549.24" rx="124.78" ry="22"/>
<ellipse fill="none" stroke="black" cx="419" cy="-1549.24" rx="128.78" ry="26"/>
<text text-anchor="middle" x="419" y="-1545.54" font-family="Times,serif" font-size="14.00">functor_hfiber_compose</text>
</a>
</g>
</g>
<!-- HFiber_functor_hfiber_compose&#45;&gt;HFiber_functor_hfiber -->
<g id="edge14" class="edge">
<title>HFiber_functor_hfiber_compose&#45;&gt;HFiber_functor_hfiber</title>
<path fill="none" stroke="black" d="M444.98,-1523.63C517.06,-1455.38 718.84,-1264.3 789.87,-1197.03"/>
<polygon fill="black" stroke="black" points="792.64,-1199.24 797.49,-1189.82 787.82,-1194.16 792.64,-1199.24"/>
</g>
<!-- HFiber_equiv_functor_hfiber2 -->
<g id="node19" class="node">
<title>HFiber_equiv_functor_hfiber2</title>
<g id="a_node19"><a xlink:href="HFiber.html#equiv_functor_hfiber2" xlink:title="equiv_functor_hfiber2">
<ellipse fill="#f070d1" stroke="black" cx="1444" cy="-1549.24" rx="111.59" ry="18"/>
<ellipse fill="none" stroke="black" cx="1444" cy="-1549.24" rx="115.59" ry="22"/>
<ellipse fill="none" stroke="black" cx="1444" cy="-1549.24" rx="119.58" ry="26"/>
<text text-anchor="middle" x="1444" y="-1545.54" font-family="Times,serif" font-size="14.00">equiv_functor_hfiber2</text>
</a>
</g>
</g>
<!-- HFiber_isequiv_functor_hfiber2 -->
<g id="node20" class="node">
<title>HFiber_isequiv_functor_hfiber2</title>
<g id="a_node20"><a xlink:href="HFiber.html#isequiv_functor_hfiber2" xlink:title="isequiv_functor_hfiber2">
<ellipse fill="#f070d1" stroke="black" cx="1741" cy="-1172.24" rx="119.68" ry="18"/>
<text text-anchor="middle" x="1741" y="-1168.54" font-family="Times,serif" font-size="14.00">isequiv_functor_hfiber2</text>
</a>
</g>
</g>
<!-- HFiber_equiv_functor_hfiber2&#45;&gt;HFiber_isequiv_functor_hfiber2 -->
<g id="edge15" class="edge">
<title>HFiber_equiv_functor_hfiber2&#45;&gt;HFiber_isequiv_functor_hfiber2</title>
<path fill="none" stroke="black" d="M1463.72,-1523.34C1517.64,-1455.26 1667.12,-1266.52 1721.17,-1198.27"/>
<polygon fill="black" stroke="black" points="1724.1,-1200.21 1727.57,-1190.2 1718.62,-1195.86 1724.1,-1200.21"/>
</g>
<!-- HFiber_functor_hfiber2 -->
<g id="node21" class="node">
<title>HFiber_functor_hfiber2</title>
<g id="a_node21"><a xlink:href="HFiber.html#functor_hfiber2" xlink:title="functor_hfiber2">
<ellipse fill="#f070d1" stroke="black" cx="2056" cy="-796.24" rx="81.79" ry="18"/>
<text text-anchor="middle" x="2056" y="-792.54" font-family="Times,serif" font-size="14.00">functor_hfiber2</text>
</a>
</g>
</g>
<!-- HFiber_isequiv_functor_hfiber2&#45;&gt;HFiber_functor_hfiber2 -->
<g id="edge16" class="edge">
<title>HFiber_isequiv_functor_hfiber2&#45;&gt;HFiber_functor_hfiber2</title>
<path fill="none" stroke="black" d="M1755.35,-1154.2C1805.78,-1094.33 1975,-893.42 2034.82,-822.38"/>
<polygon fill="black" stroke="black" points="2037.8,-824.28 2041.56,-814.38 2032.44,-819.77 2037.8,-824.28"/>
</g>
<!-- HFiber_equiv_functor_hfiber -->
<g id="node22" class="node">
<title>HFiber_equiv_functor_hfiber</title>
<g id="a_node22"><a xlink:href="HFiber.html#equiv_functor_hfiber" xlink:title="equiv_functor_hfiber">
<ellipse fill="#f070d1" stroke="black" cx="942" cy="-1549.24" rx="105.89" ry="18"/>
<ellipse fill="none" stroke="black" cx="942" cy="-1549.24" rx="109.88" ry="22"/>
<ellipse fill="none" stroke="black" cx="942" cy="-1549.24" rx="113.88" ry="26"/>
<text text-anchor="middle" x="942" y="-1545.54" font-family="Times,serif" font-size="14.00">equiv_functor_hfiber</text>
</a>
</g>
</g>
<!-- HFiber_equiv_functor_hfiber&#45;&gt;HFiber_functor_hfiber -->
<g id="edge17" class="edge">
<title>HFiber_equiv_functor_hfiber&#45;&gt;HFiber_functor_hfiber</title>
<path fill="none" stroke="black" d="M933.47,-1523.05C910.56,-1455.42 847.85,-1270.24 824.19,-1200.39"/>
<polygon fill="black" stroke="black" points="827.39,-1198.92 820.87,-1190.57 820.76,-1201.17 827.39,-1198.92"/>
</g>
<!-- HFiber_isequiv_functor_hfiber -->
<g id="node23" class="node">
<title>HFiber_isequiv_functor_hfiber</title>
<g id="a_node23"><a xlink:href="HFiber.html#isequiv_functor_hfiber" xlink:title="isequiv_functor_hfiber">
<ellipse fill="#f070d1" stroke="black" cx="688" cy="-1549.24" rx="113.96" ry="18"/>
<ellipse fill="none" stroke="black" cx="688" cy="-1549.24" rx="117.97" ry="22"/>
<ellipse fill="none" stroke="black" cx="688" cy="-1549.24" rx="121.98" ry="26"/>
<text text-anchor="middle" x="688" y="-1545.54" font-family="Times,serif" font-size="14.00">isequiv_functor_hfiber</text>
</a>
</g>
</g>
<!-- HFiber_isequiv_functor_hfiber&#45;&gt;HFiber_functor_hfiber -->
<g id="edge18" class="edge">
<title>HFiber_isequiv_functor_hfiber&#45;&gt;HFiber_functor_hfiber</title>
<path fill="none" stroke="black" d="M696.53,-1523.05C719.44,-1455.42 782.15,-1270.24 805.81,-1200.39"/>
<polygon fill="black" stroke="black" points="809.24,-1201.17 809.13,-1190.57 802.61,-1198.92 809.24,-1201.17"/>
</g>
<!-- HFiber_equiv_hfiber_homotopic -->
<g id="node25" class="node">
<title>HFiber_equiv_hfiber_homotopic</title>
<g id="a_node25"><a xlink:href="HFiber.html#equiv_hfiber_homotopic" xlink:title="equiv_hfiber_homotopic">
<ellipse fill="#f070d1" stroke="black" cx="144" cy="-1549.24" rx="120.46" ry="18"/>
<ellipse fill="none" stroke="black" cx="144" cy="-1549.24" rx="124.47" ry="22"/>
<ellipse fill="none" stroke="black" cx="144" cy="-1549.24" rx="128.48" ry="26"/>
<text text-anchor="middle" x="144" y="-1545.54" font-family="Times,serif" font-size="14.00">equiv_hfiber_homotopic</text>
</a>
</g>
</g>
<!-- HFiber_equiv_path_hfiber -->
<g id="node29" class="node">
<title>HFiber_equiv_path_hfiber</title>
<g id="a_node29"><a xlink:href="HFiber.html#equiv_path_hfiber" xlink:title="equiv_path_hfiber">
<ellipse fill="#f070d1" stroke="black" cx="2613" cy="-145.24" rx="92.88" ry="18"/>
<text text-anchor="middle" x="2613" y="-141.54" font-family="Times,serif" font-size="14.00">equiv_path_hfiber</text>
</a>
</g>
</g>
<!-- HFiber_hfiber_ap&#45;&gt;HFiber_equiv_path_hfiber -->
<g id="edge19" class="edge">
<title>HFiber_hfiber_ap&#45;&gt;HFiber_equiv_path_hfiber</title>
<path fill="none" stroke="black" d="M2987.59,-436.43C2922.49,-386 2719.5,-228.74 2642.77,-169.3"/>
<polygon fill="black" stroke="black" points="2644.53,-166.24 2634.48,-162.88 2640.24,-171.77 2644.53,-166.24"/>
</g>
<!-- HFiber_path_hfiber -->
<g id="node27" class="node">
<title>HFiber_path_hfiber</title>
<g id="a_node27"><a xlink:href="HFiber.html#path_hfiber" xlink:title="path_hfiber">
<ellipse fill="#f070d1" stroke="black" cx="1884" cy="-796.24" rx="63.87" ry="18"/>
<ellipse fill="none" stroke="black" cx="1884" cy="-796.24" rx="67.88" ry="22"/>
<ellipse fill="none" stroke="black" cx="1884" cy="-796.24" rx="71.89" ry="26"/>
<text text-anchor="middle" x="1884" y="-792.54" font-family="Times,serif" font-size="14.00">path_hfiber</text>
</a>
</g>
</g>
<!-- HFiber_path_hfiber_uncurried -->
<g id="node28" class="node">
<title>HFiber_path_hfiber_uncurried</title>
<g id="a_node28"><a xlink:href="HFiber.html#path_hfiber_uncurried" xlink:title="path_hfiber_uncurried">
<ellipse fill="#f070d1" stroke="black" cx="2219" cy="-453.24" rx="113.18" ry="18"/>
<text text-anchor="middle" x="2219" y="-449.54" font-family="Times,serif" font-size="14.00">path_hfiber_uncurried</text>
</a>
</g>
</g>
<!-- HFiber_path_hfiber&#45;&gt;HFiber_path_hfiber_uncurried -->
<g id="edge20" class="edge">
<title>HFiber_path_hfiber&#45;&gt;HFiber_path_hfiber_uncurried</title>
<path fill="none" stroke="black" d="M1907.29,-771.53C1968.48,-709.25 2133.3,-541.47 2195.13,-478.53"/>
<polygon fill="black" stroke="black" points="2197.97,-480.64 2202.48,-471.05 2192.98,-475.73 2197.97,-480.64"/>
</g>
<!-- HFiber_path_hfiber_uncurried&#45;&gt;HFiber_equiv_path_hfiber -->
<g id="edge21" class="edge">
<title>HFiber_path_hfiber_uncurried&#45;&gt;HFiber_equiv_path_hfiber</title>
<path fill="none" stroke="black" d="M2240.74,-435.35C2307.07,-383.84 2506.93,-228.62 2583.08,-169.47"/>
<polygon fill="black" stroke="black" points="2585.57,-171.97 2591.32,-163.07 2581.28,-166.44 2585.57,-171.97"/>
</g>
</g>
</svg>
