<?xml version="1.0" encoding="UTF-8" standalone="no"?>
<!DOCTYPE svg PUBLIC "-//W3C//DTD SVG 1.1//EN"
 "http://www.w3.org/Graphics/SVG/1.1/DTD/svg11.dtd">
<!-- Generated by graphviz version 2.43.0 (0)
 -->
<!-- Title: HoTT_Truncations_Connectedness Pages: 1 -->
<svg width="2616pt" height="1312pt"
 viewBox="0.00 0.00 2616.00 1312.00" xmlns="http://www.w3.org/2000/svg" xmlns:xlink="http://www.w3.org/1999/xlink">
<g id="graph0" class="graph" transform="scale(1 1) rotate(0) translate(4 1308)">
<title>HoTT_Truncations_Connectedness</title>
<polygon fill="white" stroke="transparent" points="-4,4 -4,-1308 2612,-1308 2612,4 -4,4"/>
<g id="clust1" class="cluster">
<title>cluster_Connectedness</title>
<polygon fill="#ffffc3" stroke="black" points="8,-25.38 8,-1278.62 2600,-1278.62 2600,-25.38 8,-25.38"/>
<text text-anchor="middle" x="70.5" y="-1263.42" font-family="Times,serif" font-size="14.00">Connectedness</text>
</g>
<!-- Connectedness_issurj_retr -->
<g id="node1" class="node">
<title>Connectedness_issurj_retr</title>
<g id="a_node1"><a xlink:href="Connectedness.html#issurj_retr" xlink:title="issurj_retr">
<ellipse fill="#f070d1" stroke="black" cx="2525" cy="-1097.38" rx="59.27" ry="18"/>
<ellipse fill="none" stroke="black" cx="2525" cy="-1097.38" rx="63.28" ry="22"/>
<ellipse fill="none" stroke="black" cx="2525" cy="-1097.38" rx="67.29" ry="26"/>
<text text-anchor="middle" x="2525" y="-1093.68" font-family="Times,serif" font-size="14.00">issurj_retr</text>
</a>
</g>
</g>
<!-- Connectedness_wedge_incl_elim_uncurried -->
<g id="node2" class="node">
<title>Connectedness_wedge_incl_elim_uncurried</title>
<g id="a_node2"><a xlink:href="Connectedness.html#wedge_incl_elim_uncurried" xlink:title="wedge_incl_elim_uncurried">
<ellipse fill="#f070d1" stroke="black" cx="2448" cy="-818.38" rx="135.69" ry="18"/>
<ellipse fill="none" stroke="black" cx="2448" cy="-818.38" rx="139.68" ry="22"/>
<ellipse fill="none" stroke="black" cx="2448" cy="-818.38" rx="143.68" ry="26"/>
<text text-anchor="middle" x="2448" y="-814.68" font-family="Times,serif" font-size="14.00">wedge_incl_elim_uncurried</text>
</a>
</g>
</g>
<!-- Connectedness_wedge_incl_elim -->
<g id="node6" class="node">
<title>Connectedness_wedge_incl_elim</title>
<g id="a_node6"><a xlink:href="Connectedness.html#wedge_incl_elim" xlink:title="wedge_incl_elim">
<ellipse fill="#f070d1" stroke="black" cx="2189" cy="-564.38" rx="86.38" ry="18"/>
<text text-anchor="middle" x="2189" y="-560.68" font-family="Times,serif" font-size="14.00">wedge_incl_elim</text>
</a>
</g>
</g>
<!-- Connectedness_wedge_incl_elim_uncurried&#45;&gt;Connectedness_wedge_incl_elim -->
<g id="edge1" class="edge">
<title>Connectedness_wedge_incl_elim_uncurried&#45;&gt;Connectedness_wedge_incl_elim</title>
<path fill="none" stroke="black" d="M2422.69,-792.76C2372.92,-744.33 2262.84,-637.22 2213.62,-589.34"/>
<polygon fill="black" stroke="black" points="2215.87,-586.64 2206.26,-582.18 2210.99,-591.66 2215.87,-586.64"/>
</g>
<!-- Connectedness_wedge_incl_comp3 -->
<g id="node3" class="node">
<title>Connectedness_wedge_incl_comp3</title>
<g id="a_node3"><a xlink:href="Connectedness.html#wedge_incl_comp3" xlink:title="wedge_incl_comp3">
<ellipse fill="#f070d1" stroke="black" cx="2335" cy="-1097.38" rx="96.7" ry="18"/>
<ellipse fill="none" stroke="black" cx="2335" cy="-1097.38" rx="100.69" ry="22"/>
<ellipse fill="none" stroke="black" cx="2335" cy="-1097.38" rx="104.68" ry="26"/>
<text text-anchor="middle" x="2335" y="-1093.68" font-family="Times,serif" font-size="14.00">wedge_incl_comp3</text>
</a>
</g>
</g>
<!-- Connectedness_wedge_incl_comp2 -->
<g id="node4" class="node">
<title>Connectedness_wedge_incl_comp2</title>
<g id="a_node4"><a xlink:href="Connectedness.html#wedge_incl_comp2" xlink:title="wedge_incl_comp2">
<ellipse fill="#f070d1" stroke="black" cx="1977" cy="-818.38" rx="96.68" ry="18"/>
<text text-anchor="middle" x="1977" y="-814.68" font-family="Times,serif" font-size="14.00">wedge_incl_comp2</text>
</a>
</g>
</g>
<!-- Connectedness_wedge_incl_comp3&#45;&gt;Connectedness_wedge_incl_comp2 -->
<g id="edge2" class="edge">
<title>Connectedness_wedge_incl_comp3&#45;&gt;Connectedness_wedge_incl_comp2</title>
<path fill="none" stroke="black" d="M2304.17,-1072.53C2236.02,-1019.79 2073.33,-893.92 2006.47,-842.18"/>
<polygon fill="black" stroke="black" points="2008.48,-839.31 1998.43,-835.96 2004.19,-844.85 2008.48,-839.31"/>
</g>
<!-- Connectedness_wedge_incl_comp1 -->
<g id="node5" class="node">
<title>Connectedness_wedge_incl_comp1</title>
<g id="a_node5"><a xlink:href="Connectedness.html#wedge_incl_comp1" xlink:title="wedge_incl_comp1">
<ellipse fill="#f070d1" stroke="black" cx="2189" cy="-818.38" rx="96.68" ry="18"/>
<text text-anchor="middle" x="2189" y="-814.68" font-family="Times,serif" font-size="14.00">wedge_incl_comp1</text>
</a>
</g>
</g>
<!-- Connectedness_wedge_incl_comp3&#45;&gt;Connectedness_wedge_incl_comp1 -->
<g id="edge3" class="edge">
<title>Connectedness_wedge_incl_comp3&#45;&gt;Connectedness_wedge_incl_comp1</title>
<path fill="none" stroke="black" d="M2321.79,-1071.31C2294.23,-1019.03 2230.87,-898.82 2202.81,-845.58"/>
<polygon fill="black" stroke="black" points="2205.75,-843.66 2197.99,-836.45 2199.56,-846.93 2205.75,-843.66"/>
</g>
<!-- Connectedness_wedge_incl_comp2&#45;&gt;Connectedness_wedge_incl_elim -->
<g id="edge4" class="edge">
<title>Connectedness_wedge_incl_comp2&#45;&gt;Connectedness_wedge_incl_elim</title>
<path fill="none" stroke="black" d="M1991.24,-800.46C2027.82,-756.97 2125.24,-641.17 2168.18,-590.13"/>
<polygon fill="black" stroke="black" points="2171.06,-592.14 2174.82,-582.23 2165.71,-587.63 2171.06,-592.14"/>
</g>
<!-- Connectedness_wedge_incl_comp1&#45;&gt;Connectedness_wedge_incl_elim -->
<g id="edge5" class="edge">
<title>Connectedness_wedge_incl_comp1&#45;&gt;Connectedness_wedge_incl_elim</title>
<path fill="none" stroke="black" d="M2189,-800.06C2189,-756.98 2189,-644.71 2189,-592.64"/>
<polygon fill="black" stroke="black" points="2192.5,-592.49 2189,-582.49 2185.5,-592.49 2192.5,-592.49"/>
</g>
<!-- Connectedness_isconn_wedge_incl -->
<g id="node7" class="node">
<title>Connectedness_isconn_wedge_incl</title>
<g id="a_node7"><a xlink:href="Connectedness.html#isconn_wedge_incl" xlink:title="isconn_wedge_incl">
<ellipse fill="#f070d1" stroke="black" cx="2189" cy="-336.38" rx="96.38" ry="18"/>
<text text-anchor="middle" x="2189" y="-332.68" font-family="Times,serif" font-size="14.00">isconn_wedge_incl</text>
</a>
</g>
</g>
<!-- Connectedness_wedge_incl_elim&#45;&gt;Connectedness_isconn_wedge_incl -->
<g id="edge6" class="edge">
<title>Connectedness_wedge_incl_elim&#45;&gt;Connectedness_isconn_wedge_incl</title>
<path fill="none" stroke="black" d="M2189,-546.02C2189,-506.9 2189,-411.59 2189,-364.55"/>
<polygon fill="black" stroke="black" points="2192.5,-364.49 2189,-354.49 2185.5,-364.49 2192.5,-364.49"/>
</g>
<!-- Connectedness_conn_point_incl -->
<g id="node18" class="node">
<title>Connectedness_conn_point_incl</title>
<g id="a_node18"><a xlink:href="Connectedness.html#conn_point_incl" xlink:title="conn_point_incl">
<ellipse fill="#f070d1" stroke="black" cx="2064" cy="-107.38" rx="81.79" ry="18"/>
<text text-anchor="middle" x="2064" y="-103.68" font-family="Times,serif" font-size="14.00">conn_point_incl</text>
</a>
</g>
</g>
<!-- Connectedness_isconn_wedge_incl&#45;&gt;Connectedness_conn_point_incl -->
<g id="edge7" class="edge">
<title>Connectedness_isconn_wedge_incl&#45;&gt;Connectedness_conn_point_incl</title>
<path fill="none" stroke="black" d="M2179.6,-318.32C2157.88,-278.87 2104.06,-181.13 2078.25,-134.26"/>
<polygon fill="black" stroke="black" points="2081.22,-132.4 2073.33,-125.33 2075.09,-135.78 2081.22,-132.4"/>
</g>
<!-- Connectedness_istrunc_extension_along_conn -->
<g id="node21" class="node">
<title>Connectedness_istrunc_extension_along_conn</title>
<g id="a_node21"><a xlink:href="Connectedness.html#istrunc_extension_along_conn" xlink:title="istrunc_extension_along_conn">
<ellipse fill="#f070d1" stroke="black" cx="2313" cy="-107.38" rx="148.67" ry="18"/>
<text text-anchor="middle" x="2313" y="-103.68" font-family="Times,serif" font-size="14.00">istrunc_extension_along_conn</text>
</a>
</g>
</g>
<!-- Connectedness_isconn_wedge_incl&#45;&gt;Connectedness_istrunc_extension_along_conn -->
<g id="edge8" class="edge">
<title>Connectedness_isconn_wedge_incl&#45;&gt;Connectedness_istrunc_extension_along_conn</title>
<path fill="none" stroke="black" d="M2198.32,-318.32C2219.82,-278.96 2273,-181.61 2298.68,-134.6"/>
<polygon fill="black" stroke="black" points="2301.85,-136.1 2303.57,-125.64 2295.71,-132.74 2301.85,-136.1"/>
</g>
<!-- Connectedness_isconnected_trunc -->
<g id="node8" class="node">
<title>Connectedness_isconnected_trunc</title>
<g id="a_node8"><a xlink:href="Connectedness.html#isconnected_trunc" xlink:title="isconnected_trunc">
<ellipse fill="#f070d1" stroke="black" cx="2109" cy="-1097.38" rx="94.79" ry="18"/>
<ellipse fill="none" stroke="black" cx="2109" cy="-1097.38" rx="98.79" ry="22"/>
<ellipse fill="none" stroke="black" cx="2109" cy="-1097.38" rx="102.78" ry="26"/>
<text text-anchor="middle" x="2109" y="-1093.68" font-family="Times,serif" font-size="14.00">isconnected_trunc</text>
</a>
</g>
</g>
<!-- Connectedness_indecomposable_0connected -->
<g id="node9" class="node">
<title>Connectedness_indecomposable_0connected</title>
<g id="a_node9"><a xlink:href="Connectedness.html#indecomposable_0connected" xlink:title="indecomposable_0connected">
<ellipse fill="#f070d1" stroke="black" cx="1837" cy="-1097.38" rx="142.98" ry="18"/>
<ellipse fill="none" stroke="black" cx="1837" cy="-1097.38" rx="146.97" ry="22"/>
<ellipse fill="none" stroke="black" cx="1837" cy="-1097.38" rx="150.97" ry="26"/>
<text text-anchor="middle" x="1837" y="-1093.68" font-family="Times,serif" font-size="14.00">indecomposable_0connected</text>
</a>
</g>
</g>
<!-- Connectedness_merely_path_is0connected -->
<g id="node13" class="node">
<title>Connectedness_merely_path_is0connected</title>
<g id="a_node13"><a xlink:href="Connectedness.html#merely_path_is0connected" xlink:title="merely_path_is0connected">
<ellipse fill="#f070d1" stroke="black" cx="1397" cy="-818.38" rx="133.78" ry="18"/>
<text text-anchor="middle" x="1397" y="-814.68" font-family="Times,serif" font-size="14.00">merely_path_is0connected</text>
</a>
</g>
</g>
<!-- Connectedness_indecomposable_0connected&#45;&gt;Connectedness_merely_path_is0connected -->
<g id="edge9" class="edge">
<title>Connectedness_indecomposable_0connected&#45;&gt;Connectedness_merely_path_is0connected</title>
<path fill="none" stroke="black" d="M1798.34,-1072.04C1713.83,-1018.84 1513.74,-892.88 1432.35,-841.64"/>
<polygon fill="black" stroke="black" points="1433.81,-838.42 1423.48,-836.05 1430.08,-844.34 1433.81,-838.42"/>
</g>
<!-- Connectedness_isconnected_pred -->
<g id="node16" class="node">
<title>Connectedness_isconnected_pred</title>
<g id="a_node16"><a xlink:href="Connectedness.html#isconnected_pred" xlink:title="isconnected_pred">
<ellipse fill="#f070d1" stroke="black" cx="771" cy="-818.38" rx="91.78" ry="18"/>
<text text-anchor="middle" x="771" y="-814.68" font-family="Times,serif" font-size="14.00">isconnected_pred</text>
</a>
</g>
</g>
<!-- Connectedness_indecomposable_0connected&#45;&gt;Connectedness_isconnected_pred -->
<g id="edge10" class="edge">
<title>Connectedness_indecomposable_0connected&#45;&gt;Connectedness_isconnected_pred</title>
<path fill="none" stroke="black" d="M1756,-1075.33C1551.33,-1022.15 1016.68,-883.22 833.58,-835.64"/>
<polygon fill="black" stroke="black" points="834.39,-832.24 823.83,-833.11 832.63,-839.01 834.39,-832.24"/>
</g>
<!-- Connectedness_equiv_component_image_unit -->
<g id="node10" class="node">
<title>Connectedness_equiv_component_image_unit</title>
<g id="a_node10"><a xlink:href="Connectedness.html#equiv_component_image_unit" xlink:title="equiv_component_image_unit">
<ellipse fill="#f070d1" stroke="black" cx="1512" cy="-1097.38" rx="147.57" ry="18"/>
<ellipse fill="none" stroke="black" cx="1512" cy="-1097.38" rx="151.57" ry="22"/>
<ellipse fill="none" stroke="black" cx="1512" cy="-1097.38" rx="155.57" ry="26"/>
<text text-anchor="middle" x="1512" y="-1093.68" font-family="Times,serif" font-size="14.00">equiv_component_image_unit</text>
</a>
</g>
</g>
<!-- Connectedness_is0connected_component -->
<g id="node11" class="node">
<title>Connectedness_is0connected_component</title>
<g id="a_node11"><a xlink:href="Connectedness.html#is0connected_component" xlink:title="is0connected_component">
<ellipse fill="#f070d1" stroke="black" cx="1203" cy="-1097.38" rx="127.28" ry="18"/>
<ellipse fill="none" stroke="black" cx="1203" cy="-1097.38" rx="131.28" ry="22"/>
<ellipse fill="none" stroke="black" cx="1203" cy="-1097.38" rx="135.28" ry="26"/>
<text text-anchor="middle" x="1203" y="-1093.68" font-family="Times,serif" font-size="14.00">is0connected_component</text>
</a>
</g>
</g>
<!-- Connectedness_is0connected_merely_allpath -->
<g id="node12" class="node">
<title>Connectedness_is0connected_merely_allpath</title>
<g id="a_node12"><a xlink:href="Connectedness.html#is0connected_merely_allpath" xlink:title="is0connected_merely_allpath">
<ellipse fill="#f070d1" stroke="black" cx="897" cy="-1097.38" rx="144.88" ry="18"/>
<ellipse fill="none" stroke="black" cx="897" cy="-1097.38" rx="148.88" ry="22"/>
<ellipse fill="none" stroke="black" cx="897" cy="-1097.38" rx="152.87" ry="26"/>
<text text-anchor="middle" x="897" y="-1093.68" font-family="Times,serif" font-size="14.00">is0connected_merely_allpath</text>
</a>
</g>
</g>
<!-- Connectedness_isconnected_paths -->
<g id="node20" class="node">
<title>Connectedness_isconnected_paths</title>
<g id="a_node20"><a xlink:href="Connectedness.html#isconnected_paths" xlink:title="isconnected_paths">
<ellipse fill="#f070d1" stroke="black" cx="734" cy="-564.38" rx="96.38" ry="18"/>
<text text-anchor="middle" x="734" y="-560.68" font-family="Times,serif" font-size="14.00">isconnected_paths</text>
</a>
</g>
</g>
<!-- Connectedness_merely_path_is0connected&#45;&gt;Connectedness_isconnected_paths -->
<g id="edge11" class="edge">
<title>Connectedness_merely_path_is0connected&#45;&gt;Connectedness_isconnected_paths</title>
<path fill="none" stroke="black" d="M1354.52,-801.23C1237.25,-756.66 909.43,-632.06 783.83,-584.32"/>
<polygon fill="black" stroke="black" points="785.03,-581.03 774.43,-580.75 782.54,-587.58 785.03,-581.03"/>
</g>
<!-- Connectedness_isconnected_pred_add -->
<g id="node14" class="node">
<title>Connectedness_isconnected_pred_add</title>
<g id="a_node14"><a xlink:href="Connectedness.html#isconnected_pred_add" xlink:title="isconnected_pred_add">
<ellipse fill="#f070d1" stroke="black" cx="605" cy="-1097.38" rx="113.17" ry="18"/>
<ellipse fill="none" stroke="black" cx="605" cy="-1097.38" rx="117.18" ry="22"/>
<ellipse fill="none" stroke="black" cx="605" cy="-1097.38" rx="121.18" ry="26"/>
<text text-anchor="middle" x="605" y="-1093.68" font-family="Times,serif" font-size="14.00">isconnected_pred_add</text>
</a>
</g>
</g>
<!-- Connectedness_isconnected_pred_add&#45;&gt;Connectedness_isconnected_pred -->
<g id="edge12" class="edge">
<title>Connectedness_isconnected_pred_add&#45;&gt;Connectedness_isconnected_pred</title>
<path fill="none" stroke="black" d="M620.02,-1071.31C651.42,-1018.92 723.7,-898.32 755.5,-845.25"/>
<polygon fill="black" stroke="black" points="758.63,-846.82 760.77,-836.45 752.63,-843.23 758.63,-846.82"/>
</g>
<!-- Connectedness_merely_isconnected -->
<g id="node15" class="node">
<title>Connectedness_merely_isconnected</title>
<g id="a_node15"><a xlink:href="Connectedness.html#merely_isconnected" xlink:title="merely_isconnected">
<ellipse fill="#f070d1" stroke="black" cx="355" cy="-1097.38" rx="102.87" ry="18"/>
<ellipse fill="none" stroke="black" cx="355" cy="-1097.38" rx="106.88" ry="22"/>
<ellipse fill="none" stroke="black" cx="355" cy="-1097.38" rx="110.88" ry="26"/>
<text text-anchor="middle" x="355" y="-1093.68" font-family="Times,serif" font-size="14.00">merely_isconnected</text>
</a>
</g>
</g>
<!-- Connectedness_merely_isconnected&#45;&gt;Connectedness_isconnected_pred -->
<g id="edge13" class="edge">
<title>Connectedness_merely_isconnected&#45;&gt;Connectedness_isconnected_pred</title>
<path fill="none" stroke="black" d="M390.83,-1072.53C470.44,-1019.52 661.06,-892.59 737.98,-841.37"/>
<polygon fill="black" stroke="black" points="739.97,-844.25 746.35,-835.79 736.09,-838.42 739.97,-844.25"/>
</g>
<!-- Connectedness_conn_point_elim -->
<g id="node17" class="node">
<title>Connectedness_conn_point_elim</title>
<g id="a_node17"><a xlink:href="Connectedness.html#conn_point_elim" xlink:title="conn_point_elim">
<ellipse fill="#f070d1" stroke="black" cx="568" cy="-818.38" rx="85.27" ry="18"/>
<ellipse fill="none" stroke="black" cx="568" cy="-818.38" rx="89.28" ry="22"/>
<ellipse fill="none" stroke="black" cx="568" cy="-818.38" rx="93.29" ry="26"/>
<text text-anchor="middle" x="568" y="-814.68" font-family="Times,serif" font-size="14.00">conn_point_elim</text>
</a>
</g>
</g>
<!-- Connectedness_conn_point_elim&#45;&gt;Connectedness_isconnected_paths -->
<g id="edge14" class="edge">
<title>Connectedness_conn_point_elim&#45;&gt;Connectedness_isconnected_paths</title>
<path fill="none" stroke="black" d="M584.22,-792.76C615.78,-744.84 685.18,-639.5 717.2,-590.88"/>
<polygon fill="black" stroke="black" points="720.15,-592.77 722.73,-582.49 714.3,-588.92 720.15,-592.77"/>
</g>
<!-- Connectedness_conn_pointed_type -->
<g id="node19" class="node">
<title>Connectedness_conn_pointed_type</title>
<g id="a_node19"><a xlink:href="Connectedness.html#conn_pointed_type" xlink:title="conn_pointed_type">
<ellipse fill="#f070d1" stroke="black" cx="121" cy="-1097.38" rx="96.7" ry="18"/>
<ellipse fill="none" stroke="black" cx="121" cy="-1097.38" rx="100.69" ry="22"/>
<ellipse fill="none" stroke="black" cx="121" cy="-1097.38" rx="104.68" ry="26"/>
<text text-anchor="middle" x="121" y="-1093.68" font-family="Times,serif" font-size="14.00">conn_pointed_type</text>
</a>
</g>
</g>
</g>
</svg>
