<?xml version="1.0" encoding="UTF-8" standalone="no"?>
<!DOCTYPE svg PUBLIC "-//W3C//DTD SVG 1.1//EN"
 "http://www.w3.org/Graphics/SVG/1.1/DTD/svg11.dtd">
<!-- Generated by graphviz version 2.43.0 (0)
 -->
<!-- Title: HoTT_Pointed_pEquiv Pages: 1 -->
<svg width="2991pt" height="1500pt"
 viewBox="0.00 0.00 2991.00 1499.50" xmlns="http://www.w3.org/2000/svg" xmlns:xlink="http://www.w3.org/1999/xlink">
<g id="graph0" class="graph" transform="scale(1 1) rotate(0) translate(4 1495.5)">
<title>HoTT_Pointed_pEquiv</title>
<polygon fill="white" stroke="transparent" points="-4,4 -4,-1495.5 2987,-1495.5 2987,4 -4,4"/>
<g id="clust1" class="cluster">
<title>cluster_pEquiv</title>
<polygon fill="#ffffc3" stroke="black" points="8,-66.66 8,-1424.84 2975,-1424.84 2975,-66.66 8,-66.66"/>
<text text-anchor="middle" x="41.5" y="-1409.64" font-family="Times,serif" font-size="14.00">pEquiv</text>
</g>
<!-- pEquiv_equiv_pequiv_postcompose -->
<g id="node1" class="node">
<title>pEquiv_equiv_pequiv_postcompose</title>
<g id="a_node1"><a xlink:href="pEquiv.html#equiv_pequiv_postcompose" xlink:title="equiv_pequiv_postcompose">
<ellipse fill="#f070d1" stroke="black" cx="2823" cy="-949.66" rx="136.48" ry="18"/>
<ellipse fill="none" stroke="black" cx="2823" cy="-949.66" rx="140.48" ry="22"/>
<ellipse fill="none" stroke="black" cx="2823" cy="-949.66" rx="144.48" ry="26"/>
<text text-anchor="middle" x="2823" y="-945.96" font-family="Times,serif" font-size="14.00">equiv_pequiv_postcompose</text>
</a>
</g>
</g>
<!-- pEquiv_equiv_pequiv_precompose -->
<g id="node2" class="node">
<title>pEquiv_equiv_pequiv_precompose</title>
<g id="a_node2"><a xlink:href="pEquiv.html#equiv_pequiv_precompose" xlink:title="equiv_pequiv_precompose">
<ellipse fill="#f070d1" stroke="black" cx="2521" cy="-949.66" rx="131.88" ry="18"/>
<ellipse fill="none" stroke="black" cx="2521" cy="-949.66" rx="135.88" ry="22"/>
<ellipse fill="none" stroke="black" cx="2521" cy="-949.66" rx="139.88" ry="26"/>
<text text-anchor="middle" x="2521" y="-945.96" font-family="Times,serif" font-size="14.00">equiv_pequiv_precompose</text>
</a>
</g>
</g>
<!-- pEquiv_moveR_pequiv_fV -->
<g id="node3" class="node">
<title>pEquiv_moveR_pequiv_fV</title>
<g id="a_node3"><a xlink:href="pEquiv.html#moveR_pequiv_fV" xlink:title="moveR_pequiv_fV">
<ellipse fill="#f070d1" stroke="black" cx="2263" cy="-949.66" rx="92.1" ry="18"/>
<ellipse fill="none" stroke="black" cx="2263" cy="-949.66" rx="96.09" ry="22"/>
<ellipse fill="none" stroke="black" cx="2263" cy="-949.66" rx="100.08" ry="26"/>
<text text-anchor="middle" x="2263" y="-945.96" font-family="Times,serif" font-size="14.00">moveR_pequiv_fV</text>
</a>
</g>
</g>
<!-- pEquiv_moveR_pequiv_Vf -->
<g id="node4" class="node">
<title>pEquiv_moveR_pequiv_Vf</title>
<g id="a_node4"><a xlink:href="pEquiv.html#moveR_pequiv_Vf" xlink:title="moveR_pequiv_Vf">
<ellipse fill="#f070d1" stroke="black" cx="2044" cy="-949.66" rx="92.1" ry="18"/>
<ellipse fill="none" stroke="black" cx="2044" cy="-949.66" rx="96.09" ry="22"/>
<ellipse fill="none" stroke="black" cx="2044" cy="-949.66" rx="100.08" ry="26"/>
<text text-anchor="middle" x="2044" y="-945.96" font-family="Times,serif" font-size="14.00">moveR_pequiv_Vf</text>
</a>
</g>
</g>
<!-- pEquiv_moveL_pequiv_Vf -->
<g id="node5" class="node">
<title>pEquiv_moveL_pequiv_Vf</title>
<g id="a_node5"><a xlink:href="pEquiv.html#moveL_pequiv_Vf" xlink:title="moveL_pequiv_Vf">
<ellipse fill="#f070d1" stroke="black" cx="1827" cy="-949.66" rx="90.98" ry="18"/>
<ellipse fill="none" stroke="black" cx="1827" cy="-949.66" rx="94.98" ry="22"/>
<ellipse fill="none" stroke="black" cx="1827" cy="-949.66" rx="98.98" ry="26"/>
<text text-anchor="middle" x="1827" y="-945.96" font-family="Times,serif" font-size="14.00">moveL_pequiv_Vf</text>
</a>
</g>
</g>
<!-- pEquiv_moveL_pequiv_Mf -->
<g id="node6" class="node">
<title>pEquiv_moveL_pequiv_Mf</title>
<g id="a_node6"><a xlink:href="pEquiv.html#moveL_pequiv_Mf" xlink:title="moveL_pequiv_Mf">
<ellipse fill="#f070d1" stroke="black" cx="1608" cy="-949.66" rx="94.46" ry="18"/>
<ellipse fill="none" stroke="black" cx="1608" cy="-949.66" rx="98.47" ry="22"/>
<ellipse fill="none" stroke="black" cx="1608" cy="-949.66" rx="102.48" ry="26"/>
<text text-anchor="middle" x="1608" y="-945.96" font-family="Times,serif" font-size="14.00">moveL_pequiv_Mf</text>
</a>
</g>
</g>
<!-- pEquiv_moveR_pequiv_Mf -->
<g id="node7" class="node">
<title>pEquiv_moveR_pequiv_Mf</title>
<g id="a_node7"><a xlink:href="pEquiv.html#moveR_pequiv_Mf" xlink:title="moveR_pequiv_Mf">
<ellipse fill="#f070d1" stroke="black" cx="1385" cy="-949.66" rx="94.79" ry="18"/>
<ellipse fill="none" stroke="black" cx="1385" cy="-949.66" rx="98.79" ry="22"/>
<ellipse fill="none" stroke="black" cx="1385" cy="-949.66" rx="102.78" ry="26"/>
<text text-anchor="middle" x="1385" y="-945.96" font-family="Times,serif" font-size="14.00">moveR_pequiv_Mf</text>
</a>
</g>
</g>
<!-- pEquiv_pequiv_adjointify_ -->
<g id="node8" class="node">
<title>pEquiv_pequiv_adjointify_</title>
<g id="a_node8"><a xlink:href="pEquiv.html#pequiv_adjointify'" xlink:title="pequiv_adjointify&#39;">
<ellipse fill="#f070d1" stroke="black" cx="1163" cy="-949.66" rx="92.89" ry="18"/>
<ellipse fill="none" stroke="black" cx="1163" cy="-949.66" rx="96.89" ry="22"/>
<ellipse fill="none" stroke="black" cx="1163" cy="-949.66" rx="100.88" ry="26"/>
<text text-anchor="middle" x="1163" y="-945.96" font-family="Times,serif" font-size="14.00">pequiv_adjointify&#39;</text>
</a>
</g>
</g>
<!-- pEquiv_pequiv_adjointify -->
<g id="node9" class="node">
<title>pEquiv_pequiv_adjointify</title>
<g id="a_node9"><a xlink:href="pEquiv.html#pequiv_adjointify" xlink:title="pequiv_adjointify">
<ellipse fill="#f070d1" stroke="black" cx="946" cy="-949.66" rx="90.2" ry="18"/>
<ellipse fill="none" stroke="black" cx="946" cy="-949.66" rx="94.19" ry="22"/>
<ellipse fill="none" stroke="black" cx="946" cy="-949.66" rx="98.18" ry="26"/>
<text text-anchor="middle" x="946" y="-945.96" font-family="Times,serif" font-size="14.00">pequiv_adjointify</text>
</a>
</g>
</g>
<!-- pEquiv_Build_pEquiv_ -->
<g id="node10" class="node">
<title>pEquiv_Build_pEquiv_</title>
<g id="a_node10"><a xlink:href="pEquiv.html#Build_pEquiv'" xlink:title="Build_pEquiv&#39;">
<ellipse fill="#f070d1" stroke="black" cx="747" cy="-949.66" rx="74.96" ry="18"/>
<ellipse fill="none" stroke="black" cx="747" cy="-949.66" rx="78.98" ry="22"/>
<ellipse fill="none" stroke="black" cx="747" cy="-949.66" rx="82.99" ry="26"/>
<text text-anchor="middle" x="747" y="-945.96" font-family="Times,serif" font-size="14.00">Build_pEquiv&#39;</text>
</a>
</g>
</g>
<!-- pEquiv_pequiv_transitive -->
<g id="node11" class="node">
<title>pEquiv_pequiv_transitive</title>
<g id="a_node11"><a xlink:href="pEquiv.html#pequiv_transitive" xlink:title="pequiv_transitive">
<ellipse fill="#f070d1" stroke="black" cx="547" cy="-949.66" rx="90.98" ry="18"/>
<ellipse fill="none" stroke="black" cx="547" cy="-949.66" rx="94.98" ry="22"/>
<ellipse fill="none" stroke="black" cx="547" cy="-949.66" rx="98.98" ry="26"/>
<text text-anchor="middle" x="547" y="-945.96" font-family="Times,serif" font-size="14.00">pequiv_transitive</text>
</a>
</g>
</g>
<!-- pEquiv_pequiv_compose -->
<g id="node12" class="node">
<title>pEquiv_pequiv_compose</title>
<g id="a_node12"><a xlink:href="pEquiv.html#pequiv_compose" xlink:title="pequiv_compose">
<ellipse fill="#f070d1" stroke="black" cx="547" cy="-283.66" rx="87.18" ry="18"/>
<text text-anchor="middle" x="547" y="-279.96" font-family="Times,serif" font-size="14.00">pequiv_compose</text>
</a>
</g>
</g>
<!-- pEquiv_pequiv_transitive&#45;&gt;pEquiv_pequiv_compose -->
<g id="edge1" class="edge">
<title>pEquiv_pequiv_transitive&#45;&gt;pEquiv_pequiv_compose</title>
<path fill="none" stroke="black" d="M547,-923.44C547,-818.89 547,-419.94 547,-311.82"/>
<polygon fill="black" stroke="black" points="550.5,-311.74 547,-301.74 543.5,-311.74 550.5,-311.74"/>
</g>
<!-- pEquiv_pequiv_symmetric -->
<g id="node13" class="node">
<title>pEquiv_pequiv_symmetric</title>
<g id="a_node13"><a xlink:href="pEquiv.html#pequiv_symmetric" xlink:title="pequiv_symmetric">
<ellipse fill="#f070d1" stroke="black" cx="326" cy="-949.66" rx="95.58" ry="18"/>
<ellipse fill="none" stroke="black" cx="326" cy="-949.66" rx="99.58" ry="22"/>
<ellipse fill="none" stroke="black" cx="326" cy="-949.66" rx="103.58" ry="26"/>
<text text-anchor="middle" x="326" y="-945.96" font-family="Times,serif" font-size="14.00">pequiv_symmetric</text>
</a>
</g>
</g>
<!-- pEquiv_pequiv_reflexive -->
<g id="node14" class="node">
<title>pEquiv_pequiv_reflexive</title>
<g id="a_node14"><a xlink:href="pEquiv.html#pequiv_reflexive" xlink:title="pequiv_reflexive">
<ellipse fill="#f070d1" stroke="black" cx="110" cy="-949.66" rx="86.39" ry="18"/>
<ellipse fill="none" stroke="black" cx="110" cy="-949.66" rx="90.39" ry="22"/>
<ellipse fill="none" stroke="black" cx="110" cy="-949.66" rx="94.38" ry="26"/>
<text text-anchor="middle" x="110" y="-945.96" font-family="Times,serif" font-size="14.00">pequiv_reflexive</text>
</a>
</g>
</g>
<!-- pEquiv_pequiv_pmap_idmap -->
<g id="node15" class="node">
<title>pEquiv_pequiv_pmap_idmap</title>
<g id="a_node15"><a xlink:href="pEquiv.html#pequiv_pmap_idmap" xlink:title="pequiv_pmap_idmap">
<ellipse fill="#f070d1" stroke="black" cx="121" cy="-283.66" rx="105.08" ry="18"/>
<text text-anchor="middle" x="121" y="-279.96" font-family="Times,serif" font-size="14.00">pequiv_pmap_idmap</text>
</a>
</g>
</g>
<!-- pEquiv_pequiv_reflexive&#45;&gt;pEquiv_pequiv_pmap_idmap -->
<g id="edge2" class="edge">
<title>pEquiv_pequiv_reflexive&#45;&gt;pEquiv_pequiv_pmap_idmap</title>
<path fill="none" stroke="black" d="M110.42,-923.44C112.15,-818.89 118.76,-419.94 120.55,-311.82"/>
<polygon fill="black" stroke="black" points="124.05,-311.79 120.72,-301.74 117.05,-311.68 124.05,-311.79"/>
</g>
</g>
</svg>
