<?xml version="1.0" encoding="UTF-8" standalone="no"?>
<!DOCTYPE svg PUBLIC "-//W3C//DTD SVG 1.1//EN"
 "http://www.w3.org/Graphics/SVG/1.1/DTD/svg11.dtd">
<!-- Generated by graphviz version 2.43.0 (0)
 -->
<!-- Title: HoTT_Pointed_pFiber Pages: 1 -->
<svg width="1237pt" height="623pt"
 viewBox="0.00 0.00 1237.00 622.50" xmlns="http://www.w3.org/2000/svg" xmlns:xlink="http://www.w3.org/1999/xlink">
<g id="graph0" class="graph" transform="scale(1 1) rotate(0) translate(4 618.5)">
<title>HoTT_Pointed_pFiber</title>
<polygon fill="white" stroke="transparent" points="-4,4 -4,-618.5 1233,-618.5 1233,4 -4,4"/>
<g id="clust1" class="cluster">
<title>cluster_pFiber</title>
<polygon fill="#ffffc3" stroke="black" points="8,-14.5 8,-600 1221,-600 1221,-14.5 8,-14.5"/>
<text text-anchor="middle" x="40" y="-584.8" font-family="Times,serif" font-size="14.00">pFiber</text>
</g>
<!-- pFiber_pfiber2_fmap_loops -->
<g id="node1" class="node">
<title>pFiber_pfiber2_fmap_loops</title>
<g id="a_node1"><a xlink:href="pFiber.html#pfiber2_fmap_loops" xlink:title="pfiber2_fmap_loops">
<ellipse fill="#f070d1" stroke="black" cx="496" cy="-496.5" rx="100.96" ry="18"/>
<ellipse fill="none" stroke="black" cx="496" cy="-496.5" rx="104.97" ry="22"/>
<ellipse fill="none" stroke="black" cx="496" cy="-496.5" rx="108.98" ry="26"/>
<text text-anchor="middle" x="496" y="-492.8" font-family="Times,serif" font-size="14.00">pfiber2_fmap_loops</text>
</a>
</g>
</g>
<!-- pFiber_pfiber2_loops -->
<g id="node11" class="node">
<title>pFiber_pfiber2_loops</title>
<g id="a_node11"><a xlink:href="pFiber.html#pfiber2_loops" xlink:title="pfiber2_loops">
<ellipse fill="#f070d1" stroke="black" cx="496" cy="-337.5" rx="72.59" ry="18"/>
<text text-anchor="middle" x="496" y="-333.8" font-family="Times,serif" font-size="14.00">pfiber2_loops</text>
</a>
</g>
</g>
<!-- pFiber_pfiber2_fmap_loops&#45;&gt;pFiber_pfiber2_loops -->
<g id="edge1" class="edge">
<title>pFiber_pfiber2_fmap_loops&#45;&gt;pFiber_pfiber2_loops</title>
<path fill="none" stroke="black" d="M496,-470.28C496,-441.71 496,-395.33 496,-365.9"/>
<polygon fill="black" stroke="black" points="499.5,-365.89 496,-355.89 492.5,-365.89 499.5,-365.89"/>
</g>
<!-- pFiber_square_pequiv_pfiber -->
<g id="node2" class="node">
<title>pFiber_square_pequiv_pfiber</title>
<g id="a_node2"><a xlink:href="pFiber.html#square_pequiv_pfiber" xlink:title="square_pequiv_pfiber">
<ellipse fill="#f070d1" stroke="black" cx="193" cy="-496.5" rx="109.69" ry="18"/>
<ellipse fill="none" stroke="black" cx="193" cy="-496.5" rx="113.69" ry="22"/>
<ellipse fill="none" stroke="black" cx="193" cy="-496.5" rx="117.68" ry="26"/>
<text text-anchor="middle" x="193" y="-492.8" font-family="Times,serif" font-size="14.00">square_pequiv_pfiber</text>
</a>
</g>
</g>
<!-- pFiber_square_functor_pfiber -->
<g id="node3" class="node">
<title>pFiber_square_functor_pfiber</title>
<g id="a_node3"><a xlink:href="pFiber.html#square_functor_pfiber" xlink:title="square_functor_pfiber">
<ellipse fill="#f070d1" stroke="black" cx="293" cy="-337.5" rx="112.38" ry="18"/>
<text text-anchor="middle" x="293" y="-333.8" font-family="Times,serif" font-size="14.00">square_functor_pfiber</text>
</a>
</g>
</g>
<!-- pFiber_square_pequiv_pfiber&#45;&gt;pFiber_square_functor_pfiber -->
<g id="edge2" class="edge">
<title>pFiber_square_pequiv_pfiber&#45;&gt;pFiber_square_functor_pfiber</title>
<path fill="none" stroke="black" d="M208.85,-470.62C227.41,-441.48 258.01,-393.43 276.75,-364.01"/>
<polygon fill="black" stroke="black" points="279.74,-365.83 282.16,-355.52 273.84,-362.07 279.74,-365.83"/>
</g>
<!-- pFiber_pequiv_pfiber -->
<g id="node5" class="node">
<title>pFiber_pequiv_pfiber</title>
<g id="a_node5"><a xlink:href="pFiber.html#pequiv_pfiber" xlink:title="pequiv_pfiber">
<ellipse fill="#f070d1" stroke="black" cx="89" cy="-337.5" rx="73.39" ry="18"/>
<text text-anchor="middle" x="89" y="-333.8" font-family="Times,serif" font-size="14.00">pequiv_pfiber</text>
</a>
</g>
</g>
<!-- pFiber_square_pequiv_pfiber&#45;&gt;pFiber_pequiv_pfiber -->
<g id="edge3" class="edge">
<title>pFiber_square_pequiv_pfiber&#45;&gt;pFiber_pequiv_pfiber</title>
<path fill="none" stroke="black" d="M176.52,-470.62C157.21,-441.48 125.39,-393.43 105.9,-364.01"/>
<polygon fill="black" stroke="black" points="108.71,-361.92 100.27,-355.52 102.88,-365.79 108.71,-361.92"/>
</g>
<!-- pFiber_square_functor_pfiber_subproof -->
<g id="node4" class="node">
<title>pFiber_square_functor_pfiber_subproof</title>
<g id="a_node4"><a xlink:href="pFiber.html#square_functor_pfiber_subproof" xlink:title="square_functor_pfiber_subproof">
<ellipse fill="#f070d1" stroke="black" cx="343" cy="-192.5" rx="157.07" ry="18"/>
<text text-anchor="middle" x="343" y="-188.8" font-family="Times,serif" font-size="14.00">square_functor_pfiber_subproof</text>
</a>
</g>
</g>
<!-- pFiber_square_functor_pfiber&#45;&gt;pFiber_square_functor_pfiber_subproof -->
<g id="edge4" class="edge">
<title>pFiber_square_functor_pfiber&#45;&gt;pFiber_square_functor_pfiber_subproof</title>
<path fill="none" stroke="black" d="M299.03,-319.25C307.63,-294.67 323.48,-249.32 333.62,-220.32"/>
<polygon fill="black" stroke="black" points="336.95,-221.41 336.95,-210.81 330.34,-219.1 336.95,-221.41"/>
</g>
<!-- pFiber_functor_pfiber -->
<g id="node6" class="node">
<title>pFiber_functor_pfiber</title>
<g id="a_node6"><a xlink:href="pFiber.html#functor_pfiber" xlink:title="functor_pfiber">
<ellipse fill="#f070d1" stroke="black" cx="92" cy="-192.5" rx="76.09" ry="18"/>
<text text-anchor="middle" x="92" y="-188.8" font-family="Times,serif" font-size="14.00">functor_pfiber</text>
</a>
</g>
</g>
<!-- pFiber_square_functor_pfiber&#45;&gt;pFiber_functor_pfiber -->
<g id="edge5" class="edge">
<title>pFiber_square_functor_pfiber&#45;&gt;pFiber_functor_pfiber</title>
<path fill="none" stroke="black" d="M269.55,-319.82C233.29,-294.02 163.61,-244.44 123.16,-215.67"/>
<polygon fill="black" stroke="black" points="125.17,-212.8 114.99,-209.86 121.11,-218.51 125.17,-212.8"/>
</g>
<!-- pFiber_pfib -->
<g id="node12" class="node">
<title>pFiber_pfib</title>
<g id="a_node12"><a xlink:href="pFiber.html#pfib" xlink:title="pfib">
<ellipse fill="#f070d1" stroke="black" cx="547" cy="-192.5" rx="28.7" ry="18"/>
<text text-anchor="middle" x="547" y="-188.8" font-family="Times,serif" font-size="14.00">pfib</text>
</a>
</g>
</g>
<!-- pFiber_square_functor_pfiber&#45;&gt;pFiber_pfib -->
<g id="edge6" class="edge">
<title>pFiber_square_functor_pfiber&#45;&gt;pFiber_pfib</title>
<path fill="none" stroke="black" d="M322.14,-320.1C370.86,-292.67 468.34,-237.79 517.38,-210.18"/>
<polygon fill="black" stroke="black" points="519.24,-213.15 526.23,-205.19 515.8,-207.05 519.24,-213.15"/>
</g>
<!-- pFiber_pequiv_pfiber&#45;&gt;pFiber_functor_pfiber -->
<g id="edge7" class="edge">
<title>pFiber_pequiv_pfiber&#45;&gt;pFiber_functor_pfiber</title>
<path fill="none" stroke="black" d="M89.36,-319.25C89.87,-294.88 90.81,-250.11 91.42,-221.09"/>
<polygon fill="black" stroke="black" points="94.93,-220.88 91.64,-210.81 87.93,-220.74 94.93,-220.88"/>
</g>
<!-- pFiber_pfiber -->
<g id="node13" class="node">
<title>pFiber_pfiber</title>
<g id="a_node13"><a xlink:href="pFiber.html#pfiber" xlink:title="pfiber">
<ellipse fill="#f070d1" stroke="black" cx="547" cy="-61.5" rx="38.19" ry="18"/>
<text text-anchor="middle" x="547" y="-57.8" font-family="Times,serif" font-size="14.00">pfiber</text>
</a>
</g>
</g>
<!-- pFiber_functor_pfiber&#45;&gt;pFiber_pfiber -->
<g id="edge8" class="edge">
<title>pFiber_functor_pfiber&#45;&gt;pFiber_pfiber</title>
<path fill="none" stroke="black" d="M138.98,-178.18C228.11,-152.91 420.41,-98.39 505.29,-74.33"/>
<polygon fill="black" stroke="black" points="506.43,-77.64 515.09,-71.55 504.52,-70.91 506.43,-77.64"/>
</g>
<!-- pFiber_pfiber_fmap_iterated_loops -->
<g id="node7" class="node">
<title>pFiber_pfiber_fmap_iterated_loops</title>
<g id="a_node7"><a xlink:href="pFiber.html#pfiber_fmap_iterated_loops" xlink:title="pfiber_fmap_iterated_loops">
<ellipse fill="#f070d1" stroke="black" cx="1069" cy="-337.5" rx="135.69" ry="18"/>
<ellipse fill="none" stroke="black" cx="1069" cy="-337.5" rx="139.68" ry="22"/>
<ellipse fill="none" stroke="black" cx="1069" cy="-337.5" rx="143.68" ry="26"/>
<text text-anchor="middle" x="1069" y="-333.8" font-family="Times,serif" font-size="14.00">pfiber_fmap_iterated_loops</text>
</a>
</g>
</g>
<!-- pFiber_pfiber_fmap_loops -->
<g id="node10" class="node">
<title>pFiber_pfiber_fmap_loops</title>
<g id="a_node10"><a xlink:href="pFiber.html#pfiber_fmap_loops" xlink:title="pfiber_fmap_loops">
<ellipse fill="#f070d1" stroke="black" cx="747" cy="-192.5" rx="94.78" ry="18"/>
<text text-anchor="middle" x="747" y="-188.8" font-family="Times,serif" font-size="14.00">pfiber_fmap_loops</text>
</a>
</g>
</g>
<!-- pFiber_pfiber_fmap_iterated_loops&#45;&gt;pFiber_pfiber_fmap_loops -->
<g id="edge9" class="edge">
<title>pFiber_pfiber_fmap_iterated_loops&#45;&gt;pFiber_pfiber_fmap_loops</title>
<path fill="none" stroke="black" d="M1016.55,-313.21C954.09,-285.47 850.83,-239.61 791.9,-213.44"/>
<polygon fill="black" stroke="black" points="793.04,-210.12 782.48,-209.26 790.2,-216.52 793.04,-210.12"/>
</g>
<!-- pFiber_pr1_pfiber_fmap_loops -->
<g id="node8" class="node">
<title>pFiber_pr1_pfiber_fmap_loops</title>
<g id="a_node8"><a xlink:href="pFiber.html#pr1_pfiber_fmap_loops" xlink:title="pr1_pfiber_fmap_loops">
<ellipse fill="#f070d1" stroke="black" cx="747" cy="-496.5" rx="115.08" ry="18"/>
<ellipse fill="none" stroke="black" cx="747" cy="-496.5" rx="119.08" ry="22"/>
<ellipse fill="none" stroke="black" cx="747" cy="-496.5" rx="123.08" ry="26"/>
<text text-anchor="middle" x="747" y="-492.8" font-family="Times,serif" font-size="14.00">pr1_pfiber_fmap_loops</text>
</a>
</g>
</g>
<!-- pFiber_pr1_pfiber_fmap_loops_subproof -->
<g id="node9" class="node">
<title>pFiber_pr1_pfiber_fmap_loops_subproof</title>
<g id="a_node9"><a xlink:href="pFiber.html#pr1_pfiber_fmap_loops_subproof" xlink:title="pr1_pfiber_fmap_loops_subproof">
<ellipse fill="#f070d1" stroke="black" cx="747" cy="-337.5" rx="160.57" ry="18"/>
<text text-anchor="middle" x="747" y="-333.8" font-family="Times,serif" font-size="14.00">pr1_pfiber_fmap_loops_subproof</text>
</a>
</g>
</g>
<!-- pFiber_pr1_pfiber_fmap_loops&#45;&gt;pFiber_pr1_pfiber_fmap_loops_subproof -->
<g id="edge10" class="edge">
<title>pFiber_pr1_pfiber_fmap_loops&#45;&gt;pFiber_pr1_pfiber_fmap_loops_subproof</title>
<path fill="none" stroke="black" d="M747,-470.28C747,-441.71 747,-395.33 747,-365.9"/>
<polygon fill="black" stroke="black" points="750.5,-365.89 747,-355.89 743.5,-365.89 750.5,-365.89"/>
</g>
<!-- pFiber_pr1_pfiber_fmap_loops_subproof&#45;&gt;pFiber_pfiber_fmap_loops -->
<g id="edge11" class="edge">
<title>pFiber_pr1_pfiber_fmap_loops_subproof&#45;&gt;pFiber_pfiber_fmap_loops</title>
<path fill="none" stroke="black" d="M747,-319.25C747,-294.88 747,-250.11 747,-221.09"/>
<polygon fill="black" stroke="black" points="750.5,-220.81 747,-210.81 743.5,-220.81 750.5,-220.81"/>
</g>
<!-- pFiber_pr1_pfiber_fmap_loops_subproof&#45;&gt;pFiber_pfib -->
<g id="edge12" class="edge">
<title>pFiber_pr1_pfiber_fmap_loops_subproof&#45;&gt;pFiber_pfib</title>
<path fill="none" stroke="black" d="M723.27,-319.54C685.66,-292.64 612.6,-240.41 573.39,-212.37"/>
<polygon fill="black" stroke="black" points="575.27,-209.41 565.1,-206.44 571.2,-215.11 575.27,-209.41"/>
</g>
<!-- pFiber_pfiber_fmap_loops&#45;&gt;pFiber_pfiber -->
<g id="edge13" class="edge">
<title>pFiber_pfiber_fmap_loops&#45;&gt;pFiber_pfiber</title>
<path fill="none" stroke="black" d="M721.26,-174.9C684.44,-151.15 616.84,-107.55 577.54,-82.2"/>
<polygon fill="black" stroke="black" points="578.96,-78.95 568.66,-76.47 575.17,-84.83 578.96,-78.95"/>
</g>
<!-- pFiber_pfiber2_loops&#45;&gt;pFiber_pfib -->
<g id="edge14" class="edge">
<title>pFiber_pfiber2_loops&#45;&gt;pFiber_pfib</title>
<path fill="none" stroke="black" d="M502.05,-319.54C510.83,-294.92 527.19,-249.06 537.56,-219.97"/>
<polygon fill="black" stroke="black" points="540.89,-221.04 540.96,-210.44 534.3,-218.69 540.89,-221.04"/>
</g>
<!-- pFiber_pfib&#45;&gt;pFiber_pfiber -->
<g id="edge15" class="edge">
<title>pFiber_pfib&#45;&gt;pFiber_pfiber</title>
<path fill="none" stroke="black" d="M547,-174.37C547,-152.78 547,-115.41 547,-89.85"/>
<polygon fill="black" stroke="black" points="550.5,-89.7 547,-79.7 543.5,-89.7 550.5,-89.7"/>
</g>
</g>
</svg>
