<?xml version="1.0" encoding="UTF-8" standalone="no"?>
<!DOCTYPE svg PUBLIC "-//W3C//DTD SVG 1.1//EN"
 "http://www.w3.org/Graphics/SVG/1.1/DTD/svg11.dtd">
<!-- Generated by graphviz version 2.43.0 (0)
 -->
<!-- Title: HoTT_Algebra_Groups_QuotientGroup Pages: 1 -->
<svg width="1758pt" height="883pt"
 viewBox="0.00 0.00 1758.00 883.00" xmlns="http://www.w3.org/2000/svg" xmlns:xlink="http://www.w3.org/1999/xlink">
<g id="graph0" class="graph" transform="scale(1 1) rotate(0) translate(4 879)">
<title>HoTT_Algebra_Groups_QuotientGroup</title>
<polygon fill="white" stroke="transparent" points="-4,4 -4,-879 1754,-879 1754,4 -4,4"/>
<g id="clust1" class="cluster">
<title>cluster_QuotientGroup</title>
<polygon fill="#ffffc3" stroke="black" points="10.23,-8 10.23,-867 1739.77,-867 1739.77,-8 10.23,-8"/>
<text text-anchor="middle" x="71.73" y="-851.8" font-family="Times,serif" font-size="14.00">QuotientGroup</text>
</g>
<!-- QuotientGroup_finite_quotientgroup -->
<g id="node1" class="node">
<title>QuotientGroup_finite_quotientgroup</title>
<g id="a_node1"><a xlink:href="QuotientGroup.html#finite_quotientgroup" xlink:title="finite_quotientgroup">
<ellipse fill="#f070d1" stroke="black" cx="1079.86" cy="-546" rx="105.1" ry="18"/>
<ellipse fill="none" stroke="black" cx="1079.86" cy="-546" rx="109.09" ry="22"/>
<ellipse fill="none" stroke="black" cx="1079.86" cy="-546" rx="113.08" ry="26"/>
<text text-anchor="middle" x="1079.86" y="-542.3" font-family="Times,serif" font-size="14.00">finite_quotientgroup</text>
</a>
</g>
</g>
<!-- QuotientGroup_QuotientGroup -->
<g id="node11" class="node">
<title>QuotientGroup_QuotientGroup</title>
<g id="a_node11"><a xlink:href="QuotientGroup.html#QuotientGroup" xlink:title="QuotientGroup">
<ellipse fill="#f070d1" stroke="black" cx="555.86" cy="-466" rx="79.89" ry="18"/>
<text text-anchor="middle" x="555.86" y="-462.3" font-family="Times,serif" font-size="14.00">QuotientGroup</text>
</a>
</g>
</g>
<!-- QuotientGroup_finite_quotientgroup&#45;&gt;QuotientGroup_QuotientGroup -->
<g id="edge1" class="edge">
<title>QuotientGroup_finite_quotientgroup&#45;&gt;QuotientGroup_QuotientGroup</title>
<path fill="none" stroke="black" d="M986.78,-531.15C885.2,-516.02 724.55,-492.11 630.77,-478.15"/>
<polygon fill="black" stroke="black" points="631.19,-474.68 620.79,-476.66 630.16,-481.6 631.19,-474.68"/>
</g>
<!-- QuotientGroup_grp_first_iso -->
<g id="node2" class="node">
<title>QuotientGroup_grp_first_iso</title>
<g id="a_node2"><a xlink:href="QuotientGroup.html#grp_first_iso" xlink:title="grp_first_iso">
<ellipse fill="#f070d1" stroke="black" cx="945.86" cy="-810" rx="67.68" ry="18"/>
<ellipse fill="none" stroke="black" cx="945.86" cy="-810" rx="71.68" ry="22"/>
<ellipse fill="none" stroke="black" cx="945.86" cy="-810" rx="75.69" ry="26"/>
<text text-anchor="middle" x="945.86" y="-806.3" font-family="Times,serif" font-size="14.00">grp_first_iso</text>
</a>
</g>
</g>
<!-- QuotientGroup_isequiv_grp_image_quotient -->
<g id="node3" class="node">
<title>QuotientGroup_isequiv_grp_image_quotient</title>
<g id="a_node3"><a xlink:href="QuotientGroup.html#isequiv_grp_image_quotient" xlink:title="isequiv_grp_image_quotient">
<ellipse fill="#f070d1" stroke="black" cx="945.86" cy="-722" rx="140.28" ry="18"/>
<text text-anchor="middle" x="945.86" y="-718.3" font-family="Times,serif" font-size="14.00">isequiv_grp_image_quotient</text>
</a>
</g>
</g>
<!-- QuotientGroup_grp_first_iso&#45;&gt;QuotientGroup_isequiv_grp_image_quotient -->
<g id="edge2" class="edge">
<title>QuotientGroup_grp_first_iso&#45;&gt;QuotientGroup_isequiv_grp_image_quotient</title>
<path fill="none" stroke="black" d="M945.86,-783.66C945.86,-773.11 945.86,-760.84 945.86,-750.1"/>
<polygon fill="black" stroke="black" points="949.36,-750 945.86,-740 942.36,-750 949.36,-750"/>
</g>
<!-- QuotientGroup_grp_image_quotient -->
<g id="node4" class="node">
<title>QuotientGroup_grp_image_quotient</title>
<g id="a_node4"><a xlink:href="QuotientGroup.html#grp_image_quotient" xlink:title="grp_image_quotient">
<ellipse fill="#f070d1" stroke="black" cx="927.86" cy="-634" rx="102.88" ry="18"/>
<text text-anchor="middle" x="927.86" y="-630.3" font-family="Times,serif" font-size="14.00">grp_image_quotient</text>
</a>
</g>
</g>
<!-- QuotientGroup_isequiv_grp_image_quotient&#45;&gt;QuotientGroup_grp_image_quotient -->
<g id="edge3" class="edge">
<title>QuotientGroup_isequiv_grp_image_quotient&#45;&gt;QuotientGroup_grp_image_quotient</title>
<path fill="none" stroke="black" d="M942.22,-703.6C939.71,-691.63 936.34,-675.5 933.49,-661.89"/>
<polygon fill="black" stroke="black" points="936.91,-661.15 931.44,-652.08 930.06,-662.59 936.91,-661.15"/>
</g>
<!-- QuotientGroup_grp_quotient_rec -->
<g id="node9" class="node">
<title>QuotientGroup_grp_quotient_rec</title>
<g id="a_node9"><a xlink:href="QuotientGroup.html#grp_quotient_rec" xlink:title="grp_quotient_rec">
<ellipse fill="#f070d1" stroke="black" cx="798.86" cy="-546" rx="89.08" ry="18"/>
<text text-anchor="middle" x="798.86" y="-542.3" font-family="Times,serif" font-size="14.00">grp_quotient_rec</text>
</a>
</g>
</g>
<!-- QuotientGroup_grp_image_quotient&#45;&gt;QuotientGroup_grp_quotient_rec -->
<g id="edge4" class="edge">
<title>QuotientGroup_grp_image_quotient&#45;&gt;QuotientGroup_grp_quotient_rec</title>
<path fill="none" stroke="black" d="M902.99,-616.42C882.82,-602.97 854.22,-583.91 832.09,-569.15"/>
<polygon fill="black" stroke="black" points="833.92,-566.17 823.66,-563.53 830.03,-571.99 833.92,-566.17"/>
</g>
<!-- QuotientGroup_equiv_grp_quotient_ump -->
<g id="node5" class="node">
<title>QuotientGroup_equiv_grp_quotient_ump</title>
<g id="a_node5"><a xlink:href="QuotientGroup.html#equiv_grp_quotient_ump" xlink:title="equiv_grp_quotient_ump">
<ellipse fill="#f070d1" stroke="black" cx="573.86" cy="-722" rx="124.59" ry="18"/>
<ellipse fill="none" stroke="black" cx="573.86" cy="-722" rx="128.58" ry="22"/>
<ellipse fill="none" stroke="black" cx="573.86" cy="-722" rx="132.58" ry="26"/>
<text text-anchor="middle" x="573.86" y="-718.3" font-family="Times,serif" font-size="14.00">equiv_grp_quotient_ump</text>
</a>
</g>
</g>
<!-- QuotientGroup_grp_quotient_rec_beta -->
<g id="node7" class="node">
<title>QuotientGroup_grp_quotient_rec_beta</title>
<g id="a_node7"><a xlink:href="QuotientGroup.html#grp_quotient_rec_beta" xlink:title="grp_quotient_rec_beta">
<ellipse fill="#f070d1" stroke="black" cx="591.86" cy="-634" rx="114.28" ry="18"/>
<text text-anchor="middle" x="591.86" y="-630.3" font-family="Times,serif" font-size="14.00">grp_quotient_rec_beta</text>
</a>
</g>
</g>
<!-- QuotientGroup_equiv_grp_quotient_ump&#45;&gt;QuotientGroup_grp_quotient_rec_beta -->
<g id="edge5" class="edge">
<title>QuotientGroup_equiv_grp_quotient_ump&#45;&gt;QuotientGroup_grp_quotient_rec_beta</title>
<path fill="none" stroke="black" d="M579.16,-695.66C581.37,-685.11 583.94,-672.84 586.19,-662.1"/>
<polygon fill="black" stroke="black" points="589.68,-662.51 588.3,-652 582.83,-661.07 589.68,-662.51"/>
</g>
<!-- QuotientGroup_grp_iso_quotient_normal -->
<g id="node6" class="node">
<title>QuotientGroup_grp_iso_quotient_normal</title>
<g id="a_node6"><a xlink:href="QuotientGroup.html#grp_iso_quotient_normal" xlink:title="grp_iso_quotient_normal">
<ellipse fill="#f070d1" stroke="black" cx="252.86" cy="-634" rx="124.59" ry="18"/>
<ellipse fill="none" stroke="black" cx="252.86" cy="-634" rx="128.58" ry="22"/>
<ellipse fill="none" stroke="black" cx="252.86" cy="-634" rx="132.58" ry="26"/>
<text text-anchor="middle" x="252.86" y="-630.3" font-family="Times,serif" font-size="14.00">grp_iso_quotient_normal</text>
</a>
</g>
</g>
<!-- QuotientGroup_QuotientGroup_ -->
<g id="node8" class="node">
<title>QuotientGroup_QuotientGroup_</title>
<g id="a_node8"><a xlink:href="QuotientGroup.html#QuotientGroup'" xlink:title="QuotientGroup&#39;">
<ellipse fill="#f070d1" stroke="black" cx="260.86" cy="-546" rx="82.59" ry="18"/>
<text text-anchor="middle" x="260.86" y="-542.3" font-family="Times,serif" font-size="14.00">QuotientGroup&#39;</text>
</a>
</g>
</g>
<!-- QuotientGroup_grp_iso_quotient_normal&#45;&gt;QuotientGroup_QuotientGroup_ -->
<g id="edge6" class="edge">
<title>QuotientGroup_grp_iso_quotient_normal&#45;&gt;QuotientGroup_QuotientGroup_</title>
<path fill="none" stroke="black" d="M255.22,-607.66C256.2,-597.11 257.34,-584.84 258.34,-574.1"/>
<polygon fill="black" stroke="black" points="261.84,-574.28 259.28,-564 254.87,-573.64 261.84,-574.28"/>
</g>
<!-- QuotientGroup_grp_quotient_rec_beta&#45;&gt;QuotientGroup_grp_quotient_rec -->
<g id="edge7" class="edge">
<title>QuotientGroup_grp_quotient_rec_beta&#45;&gt;QuotientGroup_grp_quotient_rec</title>
<path fill="none" stroke="black" d="M630.31,-617.03C664.76,-602.71 715.39,-581.68 752.16,-566.4"/>
<polygon fill="black" stroke="black" points="753.77,-569.52 761.66,-562.45 751.08,-563.06 753.77,-569.52"/>
</g>
<!-- QuotientGroup_grp_quotient_map -->
<g id="node10" class="node">
<title>QuotientGroup_grp_quotient_map</title>
<g id="a_node10"><a xlink:href="QuotientGroup.html#grp_quotient_map" xlink:title="grp_quotient_map">
<ellipse fill="#f070d1" stroke="black" cx="540.86" cy="-546" rx="94.78" ry="18"/>
<text text-anchor="middle" x="540.86" y="-542.3" font-family="Times,serif" font-size="14.00">grp_quotient_map</text>
</a>
</g>
</g>
<!-- QuotientGroup_grp_quotient_rec_beta&#45;&gt;QuotientGroup_grp_quotient_map -->
<g id="edge8" class="edge">
<title>QuotientGroup_grp_quotient_rec_beta&#45;&gt;QuotientGroup_grp_quotient_map</title>
<path fill="none" stroke="black" d="M581.78,-616.01C574.45,-603.64 564.39,-586.68 556.08,-572.66"/>
<polygon fill="black" stroke="black" points="559.03,-570.77 550.91,-563.96 553.01,-574.34 559.03,-570.77"/>
</g>
<!-- QuotientGroup_QuotientGroup_&#45;&gt;QuotientGroup_QuotientGroup -->
<g id="edge9" class="edge">
<title>QuotientGroup_QuotientGroup_&#45;&gt;QuotientGroup_QuotientGroup</title>
<path fill="none" stroke="black" d="M311.24,-531.68C362.52,-518.12 441.99,-497.11 496.34,-482.74"/>
<polygon fill="black" stroke="black" points="497.41,-486.08 506.18,-480.14 495.62,-479.31 497.41,-486.08"/>
</g>
<!-- QuotientGroup_grp_quotient_rec&#45;&gt;QuotientGroup_QuotientGroup -->
<g id="edge10" class="edge">
<title>QuotientGroup_grp_quotient_rec&#45;&gt;QuotientGroup_QuotientGroup</title>
<path fill="none" stroke="black" d="M753.44,-530.42C712.66,-517.33 652.74,-498.1 609.59,-484.25"/>
<polygon fill="black" stroke="black" points="610.42,-480.84 599.83,-481.11 608.28,-487.5 610.42,-480.84"/>
</g>
<!-- QuotientGroup_grp_quotient_map&#45;&gt;QuotientGroup_QuotientGroup -->
<g id="edge11" class="edge">
<title>QuotientGroup_grp_quotient_map&#45;&gt;QuotientGroup_QuotientGroup</title>
<path fill="none" stroke="black" d="M544.19,-527.69C546.09,-517.83 548.5,-505.25 550.65,-494.1"/>
<polygon fill="black" stroke="black" points="554.14,-494.48 552.59,-483.99 547.27,-493.15 554.14,-494.48"/>
</g>
<!-- QuotientGroup_iscongruence_in_cosetL -->
<g id="node13" class="node">
<title>QuotientGroup_iscongruence_in_cosetL</title>
<g id="a_node13"><a xlink:href="QuotientGroup.html#iscongruence_in_cosetL" xlink:title="iscongruence_in_cosetL">
<ellipse fill="#f070d1" stroke="black" cx="238.86" cy="-394" rx="120.48" ry="18"/>
<text text-anchor="middle" x="238.86" y="-390.3" font-family="Times,serif" font-size="14.00">iscongruence_in_cosetL</text>
</a>
</g>
</g>
<!-- QuotientGroup_QuotientGroup&#45;&gt;QuotientGroup_iscongruence_in_cosetL -->
<g id="edge12" class="edge">
<title>QuotientGroup_QuotientGroup&#45;&gt;QuotientGroup_iscongruence_in_cosetL</title>
<path fill="none" stroke="black" d="M501,-452.89C449.07,-441.42 370.71,-424.12 313.19,-411.41"/>
<polygon fill="black" stroke="black" points="313.94,-408 303.42,-409.26 312.43,-414.83 313.94,-408"/>
</g>
<!-- QuotientGroup_isgroup_quotientgroup -->
<g id="node14" class="node">
<title>QuotientGroup_isgroup_quotientgroup</title>
<g id="a_node14"><a xlink:href="QuotientGroup.html#isgroup_quotientgroup" xlink:title="isgroup_quotientgroup">
<ellipse fill="#f070d1" stroke="black" cx="564.86" cy="-394" rx="116.18" ry="18"/>
<text text-anchor="middle" x="564.86" y="-390.3" font-family="Times,serif" font-size="14.00">isgroup_quotientgroup</text>
</a>
</g>
</g>
<!-- QuotientGroup_QuotientGroup&#45;&gt;QuotientGroup_isgroup_quotientgroup -->
<g id="edge13" class="edge">
<title>QuotientGroup_QuotientGroup&#45;&gt;QuotientGroup_isgroup_quotientgroup</title>
<path fill="none" stroke="black" d="M558.08,-447.7C559.08,-439.98 560.27,-430.71 561.37,-422.11"/>
<polygon fill="black" stroke="black" points="564.86,-422.47 562.66,-412.1 557.91,-421.58 564.86,-422.47"/>
</g>
<!-- QuotientGroup_iscongruence_in_cosetR -->
<g id="node12" class="node">
<title>QuotientGroup_iscongruence_in_cosetR</title>
<g id="a_node12"><a xlink:href="QuotientGroup.html#iscongruence_in_cosetR" xlink:title="iscongruence_in_cosetR">
<ellipse fill="#f070d1" stroke="black" cx="481.86" cy="-810" rx="120.79" ry="18"/>
<ellipse fill="none" stroke="black" cx="481.86" cy="-810" rx="124.78" ry="22"/>
<ellipse fill="none" stroke="black" cx="481.86" cy="-810" rx="128.78" ry="26"/>
<text text-anchor="middle" x="481.86" y="-806.3" font-family="Times,serif" font-size="14.00">iscongruence_in_cosetR</text>
</a>
</g>
</g>
<!-- QuotientGroup_quotientgroup_rightinverse -->
<g id="node15" class="node">
<title>QuotientGroup_quotientgroup_rightinverse</title>
<g id="a_node15"><a xlink:href="QuotientGroup.html#quotientgroup_rightinverse" xlink:title="quotientgroup_rightinverse">
<ellipse fill="#f070d1" stroke="black" cx="196.86" cy="-178" rx="138.38" ry="18"/>
<text text-anchor="middle" x="196.86" y="-174.3" font-family="Times,serif" font-size="14.00">quotientgroup_rightinverse</text>
</a>
</g>
</g>
<!-- QuotientGroup_isgroup_quotientgroup&#45;&gt;QuotientGroup_quotientgroup_rightinverse -->
<g id="edge14" class="edge">
<title>QuotientGroup_isgroup_quotientgroup&#45;&gt;QuotientGroup_quotientgroup_rightinverse</title>
<path fill="none" stroke="black" d="M536.29,-376.39C470.54,-338.15 308.5,-243.92 234.64,-200.97"/>
<polygon fill="black" stroke="black" points="236.07,-197.75 225.67,-195.75 232.55,-203.8 236.07,-197.75"/>
</g>
<!-- QuotientGroup_quotientgroup_leftinverse -->
<g id="node16" class="node">
<title>QuotientGroup_quotientgroup_leftinverse</title>
<g id="a_node16"><a xlink:href="QuotientGroup.html#quotientgroup_leftinverse" xlink:title="quotientgroup_leftinverse">
<ellipse fill="#f070d1" stroke="black" cx="564.86" cy="-178" rx="131.08" ry="18"/>
<text text-anchor="middle" x="564.86" y="-174.3" font-family="Times,serif" font-size="14.00">quotientgroup_leftinverse</text>
</a>
</g>
</g>
<!-- QuotientGroup_isgroup_quotientgroup&#45;&gt;QuotientGroup_quotientgroup_leftinverse -->
<g id="edge15" class="edge">
<title>QuotientGroup_isgroup_quotientgroup&#45;&gt;QuotientGroup_quotientgroup_leftinverse</title>
<path fill="none" stroke="black" d="M564.86,-375.85C564.86,-338.83 564.86,-251.18 564.86,-206.39"/>
<polygon fill="black" stroke="black" points="568.36,-206.23 564.86,-196.23 561.36,-206.23 568.36,-206.23"/>
</g>
<!-- QuotientGroup_ismonoid_quotientgroup -->
<g id="node17" class="node">
<title>QuotientGroup_ismonoid_quotientgroup</title>
<g id="a_node17"><a xlink:href="QuotientGroup.html#ismonoid_quotientgroup" xlink:title="ismonoid_quotientgroup">
<ellipse fill="#f070d1" stroke="black" cx="1051.86" cy="-322" rx="123.48" ry="18"/>
<text text-anchor="middle" x="1051.86" y="-318.3" font-family="Times,serif" font-size="14.00">ismonoid_quotientgroup</text>
</a>
</g>
</g>
<!-- QuotientGroup_isgroup_quotientgroup&#45;&gt;QuotientGroup_ismonoid_quotientgroup -->
<g id="edge16" class="edge">
<title>QuotientGroup_isgroup_quotientgroup&#45;&gt;QuotientGroup_ismonoid_quotientgroup</title>
<path fill="none" stroke="black" d="M646.92,-381.2C732.75,-368.87 867.29,-349.53 957.47,-336.57"/>
<polygon fill="black" stroke="black" points="958.02,-340.02 967.42,-335.14 957.02,-333.1 958.02,-340.02"/>
</g>
<!-- QuotientGroup_congquot_negate -->
<g id="node22" class="node">
<title>QuotientGroup_congquot_negate</title>
<g id="a_node22"><a xlink:href="QuotientGroup.html#congquot_negate" xlink:title="congquot_negate">
<ellipse fill="#f070d1" stroke="black" cx="375.86" cy="-106" rx="89.88" ry="18"/>
<text text-anchor="middle" x="375.86" y="-102.3" font-family="Times,serif" font-size="14.00">congquot_negate</text>
</a>
</g>
</g>
<!-- QuotientGroup_quotientgroup_rightinverse&#45;&gt;QuotientGroup_congquot_negate -->
<g id="edge17" class="edge">
<title>QuotientGroup_quotientgroup_rightinverse&#45;&gt;QuotientGroup_congquot_negate</title>
<path fill="none" stroke="black" d="M238.38,-160.76C264.89,-150.4 299.38,-136.91 327.18,-126.03"/>
<polygon fill="black" stroke="black" points="328.68,-129.21 336.72,-122.31 326.13,-122.69 328.68,-129.21"/>
</g>
<!-- QuotientGroup_congquot_mon_unit -->
<g id="node23" class="node">
<title>QuotientGroup_congquot_mon_unit</title>
<g id="a_node23"><a xlink:href="QuotientGroup.html#congquot_mon_unit" xlink:title="congquot_mon_unit">
<ellipse fill="#f070d1" stroke="black" cx="641.86" cy="-106" rx="100.98" ry="18"/>
<text text-anchor="middle" x="641.86" y="-102.3" font-family="Times,serif" font-size="14.00">congquot_mon_unit</text>
</a>
</g>
</g>
<!-- QuotientGroup_quotientgroup_rightinverse&#45;&gt;QuotientGroup_congquot_mon_unit -->
<g id="edge18" class="edge">
<title>QuotientGroup_quotientgroup_rightinverse&#45;&gt;QuotientGroup_congquot_mon_unit</title>
<path fill="none" stroke="black" d="M281.35,-163.71C361,-151.18 479.65,-132.52 558.82,-120.06"/>
<polygon fill="black" stroke="black" points="559.42,-123.51 568.76,-118.5 558.34,-116.6 559.42,-123.51"/>
</g>
<!-- QuotientGroup_congquot_sgop -->
<g id="node24" class="node">
<title>QuotientGroup_congquot_sgop</title>
<g id="a_node24"><a xlink:href="QuotientGroup.html#congquot_sgop" xlink:title="congquot_sgop">
<ellipse fill="#f070d1" stroke="black" cx="895.86" cy="-106" rx="79.89" ry="18"/>
<text text-anchor="middle" x="895.86" y="-102.3" font-family="Times,serif" font-size="14.00">congquot_sgop</text>
</a>
</g>
</g>
<!-- QuotientGroup_quotientgroup_rightinverse&#45;&gt;QuotientGroup_congquot_sgop -->
<g id="edge19" class="edge">
<title>QuotientGroup_quotientgroup_rightinverse&#45;&gt;QuotientGroup_congquot_sgop</title>
<path fill="none" stroke="black" d="M307.5,-167.17C419.57,-157.03 597.87,-140.44 751.86,-124 773.14,-121.73 796.18,-119.09 817.45,-116.58"/>
<polygon fill="black" stroke="black" points="817.89,-120.05 827.41,-115.4 817.06,-113.1 817.89,-120.05"/>
</g>
<!-- QuotientGroup_quotientgroup_leftinverse&#45;&gt;QuotientGroup_congquot_negate -->
<g id="edge20" class="edge">
<title>QuotientGroup_quotientgroup_leftinverse&#45;&gt;QuotientGroup_congquot_negate</title>
<path fill="none" stroke="black" d="M521.5,-160.94C493.2,-150.46 456.15,-136.74 426.5,-125.76"/>
<polygon fill="black" stroke="black" points="427.35,-122.34 416.75,-122.15 424.91,-128.9 427.35,-122.34"/>
</g>
<!-- QuotientGroup_quotientgroup_leftinverse&#45;&gt;QuotientGroup_congquot_mon_unit -->
<g id="edge21" class="edge">
<title>QuotientGroup_quotientgroup_leftinverse&#45;&gt;QuotientGroup_congquot_mon_unit</title>
<path fill="none" stroke="black" d="M583.5,-160.05C593.24,-151.2 605.32,-140.22 615.96,-130.55"/>
<polygon fill="black" stroke="black" points="618.35,-133.11 623.39,-123.79 613.64,-127.93 618.35,-133.11"/>
</g>
<!-- QuotientGroup_quotientgroup_leftinverse&#45;&gt;QuotientGroup_congquot_sgop -->
<g id="edge22" class="edge">
<title>QuotientGroup_quotientgroup_leftinverse&#45;&gt;QuotientGroup_congquot_sgop</title>
<path fill="none" stroke="black" d="M633.04,-162.58C690.71,-150.39 772.82,-133.02 829.86,-120.96"/>
<polygon fill="black" stroke="black" points="830.79,-124.34 839.85,-118.84 829.34,-117.49 830.79,-124.34"/>
</g>
<!-- QuotientGroup_congquot_rightidentity -->
<g id="node18" class="node">
<title>QuotientGroup_congquot_rightidentity</title>
<g id="a_node18"><a xlink:href="QuotientGroup.html#congquot_rightidentity" xlink:title="congquot_rightidentity">
<ellipse fill="#f070d1" stroke="black" cx="1208.86" cy="-178" rx="116.98" ry="18"/>
<text text-anchor="middle" x="1208.86" y="-174.3" font-family="Times,serif" font-size="14.00">congquot_rightidentity</text>
</a>
</g>
</g>
<!-- QuotientGroup_ismonoid_quotientgroup&#45;&gt;QuotientGroup_congquot_rightidentity -->
<g id="edge23" class="edge">
<title>QuotientGroup_ismonoid_quotientgroup&#45;&gt;QuotientGroup_congquot_rightidentity</title>
<path fill="none" stroke="black" d="M1070.49,-304.15C1098.34,-278.96 1150.96,-231.37 1182.67,-202.68"/>
<polygon fill="black" stroke="black" points="1185.19,-205.13 1190.26,-195.82 1180.49,-199.94 1185.19,-205.13"/>
</g>
<!-- QuotientGroup_congquot_leftidentity -->
<g id="node19" class="node">
<title>QuotientGroup_congquot_leftidentity</title>
<g id="a_node19"><a xlink:href="QuotientGroup.html#congquot_leftidentity" xlink:title="congquot_leftidentity">
<ellipse fill="#f070d1" stroke="black" cx="895.86" cy="-178" rx="109.68" ry="18"/>
<text text-anchor="middle" x="895.86" y="-174.3" font-family="Times,serif" font-size="14.00">congquot_leftidentity</text>
</a>
</g>
</g>
<!-- QuotientGroup_ismonoid_quotientgroup&#45;&gt;QuotientGroup_congquot_leftidentity -->
<g id="edge24" class="edge">
<title>QuotientGroup_ismonoid_quotientgroup&#45;&gt;QuotientGroup_congquot_leftidentity</title>
<path fill="none" stroke="black" d="M1033.35,-304.15C1005.67,-278.96 953.39,-231.37 921.88,-202.68"/>
<polygon fill="black" stroke="black" points="924.09,-199.97 914.34,-195.82 919.38,-205.14 924.09,-199.97"/>
</g>
<!-- QuotientGroup_issemigroup_congquot -->
<g id="node20" class="node">
<title>QuotientGroup_issemigroup_congquot</title>
<g id="a_node20"><a xlink:href="QuotientGroup.html#issemigroup_congquot" xlink:title="issemigroup_congquot">
<ellipse fill="#f070d1" stroke="black" cx="1467.86" cy="-250" rx="115.08" ry="18"/>
<text text-anchor="middle" x="1467.86" y="-246.3" font-family="Times,serif" font-size="14.00">issemigroup_congquot</text>
</a>
</g>
</g>
<!-- QuotientGroup_ismonoid_quotientgroup&#45;&gt;QuotientGroup_issemigroup_congquot -->
<g id="edge25" class="edge">
<title>QuotientGroup_ismonoid_quotientgroup&#45;&gt;QuotientGroup_issemigroup_congquot</title>
<path fill="none" stroke="black" d="M1129.62,-307.92C1201.49,-295.82 1308.08,-277.89 1382.33,-265.39"/>
<polygon fill="black" stroke="black" points="1383.3,-268.78 1392.59,-263.67 1382.14,-261.87 1383.3,-268.78"/>
</g>
<!-- QuotientGroup_congquot_rightidentity&#45;&gt;QuotientGroup_congquot_mon_unit -->
<g id="edge26" class="edge">
<title>QuotientGroup_congquot_rightidentity&#45;&gt;QuotientGroup_congquot_mon_unit</title>
<path fill="none" stroke="black" d="M1120.58,-166.1C1014.89,-153.05 838.84,-131.32 732.23,-118.16"/>
<polygon fill="black" stroke="black" points="732.49,-114.66 722.14,-116.91 731.63,-121.61 732.49,-114.66"/>
</g>
<!-- QuotientGroup_congquot_rightidentity&#45;&gt;QuotientGroup_congquot_sgop -->
<g id="edge27" class="edge">
<title>QuotientGroup_congquot_rightidentity&#45;&gt;QuotientGroup_congquot_sgop</title>
<path fill="none" stroke="black" d="M1145.52,-162.83C1091.62,-150.78 1014.55,-133.54 960.33,-121.42"/>
<polygon fill="black" stroke="black" points="961.01,-117.98 950.48,-119.22 959.48,-124.81 961.01,-117.98"/>
</g>
<!-- QuotientGroup_congquot_leftidentity&#45;&gt;QuotientGroup_congquot_mon_unit -->
<g id="edge28" class="edge">
<title>QuotientGroup_congquot_leftidentity&#45;&gt;QuotientGroup_congquot_mon_unit</title>
<path fill="none" stroke="black" d="M842.3,-162.24C801.93,-151.11 746.47,-135.83 704.12,-124.16"/>
<polygon fill="black" stroke="black" points="705.04,-120.78 694.47,-121.5 703.18,-127.53 705.04,-120.78"/>
</g>
<!-- QuotientGroup_congquot_leftidentity&#45;&gt;QuotientGroup_congquot_sgop -->
<g id="edge29" class="edge">
<title>QuotientGroup_congquot_leftidentity&#45;&gt;QuotientGroup_congquot_sgop</title>
<path fill="none" stroke="black" d="M895.86,-159.7C895.86,-151.98 895.86,-142.71 895.86,-134.11"/>
<polygon fill="black" stroke="black" points="899.36,-134.1 895.86,-124.1 892.36,-134.1 899.36,-134.1"/>
</g>
<!-- QuotientGroup_congquot_sgop_associative -->
<g id="node21" class="node">
<title>QuotientGroup_congquot_sgop_associative</title>
<g id="a_node21"><a xlink:href="QuotientGroup.html#congquot_sgop_associative" xlink:title="congquot_sgop_associative">
<ellipse fill="#f070d1" stroke="black" cx="1555.86" cy="-178" rx="135.68" ry="18"/>
<text text-anchor="middle" x="1555.86" y="-174.3" font-family="Times,serif" font-size="14.00">congquot_sgop_associative</text>
</a>
</g>
</g>
<!-- QuotientGroup_issemigroup_congquot&#45;&gt;QuotientGroup_congquot_sgop_associative -->
<g id="edge30" class="edge">
<title>QuotientGroup_issemigroup_congquot&#45;&gt;QuotientGroup_congquot_sgop_associative</title>
<path fill="none" stroke="black" d="M1489.16,-232.05C1500.4,-223.11 1514.37,-212.01 1526.61,-202.27"/>
<polygon fill="black" stroke="black" points="1529.11,-204.75 1534.75,-195.79 1524.75,-199.28 1529.11,-204.75"/>
</g>
<!-- QuotientGroup_congquot_sgop_associative&#45;&gt;QuotientGroup_congquot_sgop -->
<g id="edge31" class="edge">
<title>QuotientGroup_congquot_sgop_associative&#45;&gt;QuotientGroup_congquot_sgop</title>
<path fill="none" stroke="black" d="M1453.46,-166.14C1322.05,-152.2 1096.78,-128.31 976.73,-115.58"/>
<polygon fill="black" stroke="black" points="976.82,-112.07 966.5,-114.49 976.08,-119.03 976.82,-112.07"/>
</g>
<!-- QuotientGroup_CongruenceQuotient -->
<g id="node25" class="node">
<title>QuotientGroup_CongruenceQuotient</title>
<g id="a_node25"><a xlink:href="QuotientGroup.html#CongruenceQuotient" xlink:title="CongruenceQuotient">
<ellipse fill="#f070d1" stroke="black" cx="641.86" cy="-34" rx="106.68" ry="18"/>
<text text-anchor="middle" x="641.86" y="-30.3" font-family="Times,serif" font-size="14.00">CongruenceQuotient</text>
</a>
</g>
</g>
<!-- QuotientGroup_congquot_negate&#45;&gt;QuotientGroup_CongruenceQuotient -->
<g id="edge32" class="edge">
<title>QuotientGroup_congquot_negate&#45;&gt;QuotientGroup_CongruenceQuotient</title>
<path fill="none" stroke="black" d="M428.1,-91.25C470.81,-80.01 531.4,-64.07 577.17,-52.02"/>
<polygon fill="black" stroke="black" points="578.22,-55.37 587,-49.44 576.44,-48.6 578.22,-55.37"/>
</g>
<!-- QuotientGroup_congquot_mon_unit&#45;&gt;QuotientGroup_CongruenceQuotient -->
<g id="edge33" class="edge">
<title>QuotientGroup_congquot_mon_unit&#45;&gt;QuotientGroup_CongruenceQuotient</title>
<path fill="none" stroke="black" d="M641.86,-87.7C641.86,-79.98 641.86,-70.71 641.86,-62.11"/>
<polygon fill="black" stroke="black" points="645.36,-62.1 641.86,-52.1 638.36,-62.1 645.36,-62.1"/>
</g>
<!-- QuotientGroup_congquot_sgop&#45;&gt;QuotientGroup_CongruenceQuotient -->
<g id="edge34" class="edge">
<title>QuotientGroup_congquot_sgop&#45;&gt;QuotientGroup_CongruenceQuotient</title>
<path fill="none" stroke="black" d="M847.49,-91.67C807.07,-80.53 749.15,-64.57 705.07,-52.42"/>
<polygon fill="black" stroke="black" points="705.89,-49.02 695.32,-49.73 704.03,-55.76 705.89,-49.02"/>
</g>
</g>
</svg>
