<?xml version="1.0" encoding="UTF-8" standalone="no"?>
<!DOCTYPE svg PUBLIC "-//W3C//DTD SVG 1.1//EN"
 "http://www.w3.org/Graphics/SVG/1.1/DTD/svg11.dtd">
<!-- Generated by graphviz version 2.43.0 (0)
 -->
<!-- Title: HoTT_Basics_Datatypes Pages: 1 -->
<svg width="1389pt" height="698pt"
 viewBox="0.00 0.00 1389.00 698.50" xmlns="http://www.w3.org/2000/svg" xmlns:xlink="http://www.w3.org/1999/xlink">
<g id="graph0" class="graph" transform="scale(1 1) rotate(0) translate(4 694.5)">
<title>HoTT_Basics_Datatypes</title>
<polygon fill="white" stroke="transparent" points="-4,4 -4,-694.5 1385,-694.5 1385,4 -4,4"/>
<g id="clust1" class="cluster">
<title>cluster_Basics</title>
<polygon fill="#ffffc3" stroke="black" points="8,-25.34 8,-665.16 1276,-665.16 1276,-25.34 8,-25.34"/>
<text text-anchor="middle" x="39" y="-649.96" font-family="Times,serif" font-size="14.00">Basics</text>
</g>
<g id="clust2" class="cluster">
<title>cluster_Basics_Datatypes</title>
<polygon fill="#ffffa3" stroke="black" points="16,-50.68 16,-566.97 1268,-566.97 1268,-50.68 16,-50.68"/>
<text text-anchor="middle" x="60.5" y="-551.77" font-family="Times,serif" font-size="14.00">Datatypes</text>
</g>
<g id="clust3" class="cluster">
<title>cluster_Datatypes</title>
<polygon fill="#ffffc3" stroke="black" points="1284,-278.73 1284,-566.97 1373,-566.97 1373,-278.73 1284,-278.73"/>
<text text-anchor="middle" x="1328.5" y="-551.77" font-family="Times,serif" font-size="14.00">Datatypes</text>
</g>
<!-- Basics_Datatypes_app -->
<g id="node1" class="node">
<title>Basics_Datatypes_app</title>
<g id="a_node1"><a xlink:href="Basics.html#Datatypes.app" xlink:title="app">
<ellipse fill="#f070d1" stroke="black" cx="1224" cy="-386.34" rx="27.91" ry="18"/>
<ellipse fill="none" stroke="black" cx="1224" cy="-386.34" rx="31.9" ry="22"/>
<ellipse fill="none" stroke="black" cx="1224" cy="-386.34" rx="35.9" ry="26"/>
<text text-anchor="middle" x="1224" y="-382.64" font-family="Times,serif" font-size="14.00">app</text>
</a>
</g>
</g>
<!-- Basics_Datatypes_cons -->
<g id="node3" class="node">
<title>Basics_Datatypes_cons</title>
<g id="a_node3"><a xlink:href="Basics.html#Datatypes.cons" xlink:title="cons">
<ellipse fill="#7faaff" stroke="black" cx="1147" cy="-133.34" rx="31.7" ry="18"/>
<text text-anchor="middle" x="1147" y="-129.64" font-family="Times,serif" font-size="14.00">cons</text>
</a>
</g>
</g>
<!-- Basics_Datatypes_app&#45;&gt;Basics_Datatypes_cons -->
<g id="edge1" class="edge">
<title>Basics_Datatypes_app&#45;&gt;Basics_Datatypes_cons</title>
<path fill="none" stroke="black" d="M1216.48,-360.82C1201.96,-313.48 1170.18,-209.9 1155.17,-160.96"/>
<polygon fill="black" stroke="black" points="1158.51,-159.92 1152.23,-151.38 1151.82,-161.97 1158.51,-159.92"/>
</g>
<!-- Basics_Datatypes_list -->
<g id="node5" class="node">
<title>Basics_Datatypes_list</title>
<g id="a_node5"><a xlink:href="Basics.html#Datatypes.list" xlink:title="list">
<ellipse fill="#e2cdfa" stroke="black" cx="1224" cy="-133.34" rx="27" ry="18"/>
<text text-anchor="middle" x="1224" y="-129.64" font-family="Times,serif" font-size="14.00">list</text>
</a>
</g>
</g>
<!-- Basics_Datatypes_app&#45;&gt;Basics_Datatypes_list -->
<g id="edge2" class="edge">
<title>Basics_Datatypes_app&#45;&gt;Basics_Datatypes_list</title>
<path fill="none" stroke="black" d="M1224,-359.89C1224,-312.38 1224,-210.6 1224,-161.69"/>
<polygon fill="black" stroke="black" points="1227.5,-161.54 1224,-151.54 1220.5,-161.54 1227.5,-161.54"/>
</g>
<!-- Basics_Datatypes_list_rect -->
<g id="node2" class="node">
<title>Basics_Datatypes_list_rect</title>
<g id="a_node2"><a xlink:href="Basics.html#Datatypes.list_rect" xlink:title="list_rect">
<ellipse fill="#f070d1" stroke="black" cx="1114" cy="-386.34" rx="48.18" ry="18"/>
<ellipse fill="none" stroke="black" cx="1114" cy="-386.34" rx="52.18" ry="22"/>
<ellipse fill="none" stroke="black" cx="1114" cy="-386.34" rx="56.19" ry="26"/>
<text text-anchor="middle" x="1114" y="-382.64" font-family="Times,serif" font-size="14.00">list_rect</text>
</a>
</g>
</g>
<!-- Basics_Datatypes_list_rect&#45;&gt;Basics_Datatypes_cons -->
<g id="edge3" class="edge">
<title>Basics_Datatypes_list_rect&#45;&gt;Basics_Datatypes_cons</title>
<path fill="none" stroke="black" d="M1117.28,-360.35C1123.51,-312.97 1137,-210.43 1143.44,-161.45"/>
<polygon fill="black" stroke="black" points="1146.94,-161.68 1144.77,-151.31 1140,-160.76 1146.94,-161.68"/>
</g>
<!-- Basics_Datatypes_nil -->
<g id="node4" class="node">
<title>Basics_Datatypes_nil</title>
<g id="a_node4"><a xlink:href="Basics.html#Datatypes.nil" xlink:title="nil">
<ellipse fill="#7faaff" stroke="black" cx="1070" cy="-133.34" rx="27" ry="18"/>
<text text-anchor="middle" x="1070" y="-129.64" font-family="Times,serif" font-size="14.00">nil</text>
</a>
</g>
</g>
<!-- Basics_Datatypes_list_rect&#45;&gt;Basics_Datatypes_nil -->
<g id="edge4" class="edge">
<title>Basics_Datatypes_list_rect&#45;&gt;Basics_Datatypes_nil</title>
<path fill="none" stroke="black" d="M1109.62,-360.35C1101.31,-312.97 1083.34,-210.43 1074.75,-161.45"/>
<polygon fill="black" stroke="black" points="1078.15,-160.55 1072.97,-151.31 1071.25,-161.76 1078.15,-160.55"/>
</g>
<!-- Basics_Datatypes_list_rect&#45;&gt;Basics_Datatypes_list -->
<g id="edge5" class="edge">
<title>Basics_Datatypes_list_rect&#45;&gt;Basics_Datatypes_list</title>
<path fill="none" stroke="black" d="M1124.75,-360.82C1145.64,-313.15 1191.52,-208.45 1212.78,-159.94"/>
<polygon fill="black" stroke="black" points="1216,-161.32 1216.81,-150.75 1209.59,-158.51 1216,-161.32"/>
</g>
<!-- Basics_Datatypes_nat_rec -->
<g id="node6" class="node">
<title>Basics_Datatypes_nat_rec</title>
<g id="a_node6"><a xlink:href="Basics.html#Datatypes.nat_rec" xlink:title="nat_rec">
<ellipse fill="#f070d1" stroke="black" cx="987" cy="-386.34" rx="44.72" ry="18"/>
<ellipse fill="none" stroke="black" cx="987" cy="-386.34" rx="48.7" ry="22"/>
<ellipse fill="none" stroke="black" cx="987" cy="-386.34" rx="52.69" ry="26"/>
<text text-anchor="middle" x="987" y="-382.64" font-family="Times,serif" font-size="14.00">nat_rec</text>
</a>
</g>
</g>
<!-- Basics_Datatypes_S -->
<g id="node8" class="node">
<title>Basics_Datatypes_S</title>
<g id="a_node8"><a xlink:href="Basics.html#Datatypes.S" xlink:title="S">
<ellipse fill="#7faaff" stroke="black" cx="848" cy="-133.34" rx="27" ry="18"/>
<text text-anchor="middle" x="848" y="-129.64" font-family="Times,serif" font-size="14.00">S</text>
</a>
</g>
</g>
<!-- Basics_Datatypes_nat_rec&#45;&gt;Basics_Datatypes_S -->
<g id="edge6" class="edge">
<title>Basics_Datatypes_nat_rec&#45;&gt;Basics_Datatypes_S</title>
<path fill="none" stroke="black" d="M973.42,-360.82C946.91,-312.94 888.52,-207.5 861.82,-159.29"/>
<polygon fill="black" stroke="black" points="864.82,-157.49 856.92,-150.44 858.7,-160.89 864.82,-157.49"/>
</g>
<!-- Basics_Datatypes_O -->
<g id="node9" class="node">
<title>Basics_Datatypes_O</title>
<g id="a_node9"><a xlink:href="Basics.html#Datatypes.O" xlink:title="O">
<ellipse fill="#7faaff" stroke="black" cx="920" cy="-133.34" rx="27" ry="18"/>
<text text-anchor="middle" x="920" y="-129.64" font-family="Times,serif" font-size="14.00">O</text>
</a>
</g>
</g>
<!-- Basics_Datatypes_nat_rec&#45;&gt;Basics_Datatypes_O -->
<g id="edge7" class="edge">
<title>Basics_Datatypes_nat_rec&#45;&gt;Basics_Datatypes_O</title>
<path fill="none" stroke="black" d="M980.33,-360.35C967.66,-312.88 940.2,-210 927.16,-161.14"/>
<polygon fill="black" stroke="black" points="930.49,-160.06 924.53,-151.31 923.73,-161.87 930.49,-160.06"/>
</g>
<!-- Basics_Datatypes_nat -->
<g id="node10" class="node">
<title>Basics_Datatypes_nat</title>
<g id="a_node10"><a xlink:href="Basics.html#Datatypes.nat" xlink:title="nat">
<ellipse fill="#e2cdfa" stroke="black" cx="992" cy="-133.34" rx="27" ry="18"/>
<text text-anchor="middle" x="992" y="-129.64" font-family="Times,serif" font-size="14.00">nat</text>
</a>
</g>
</g>
<!-- Basics_Datatypes_nat_rec&#45;&gt;Basics_Datatypes_nat -->
<g id="edge8" class="edge">
<title>Basics_Datatypes_nat_rec&#45;&gt;Basics_Datatypes_nat</title>
<path fill="none" stroke="black" d="M987.51,-359.89C988.45,-312.38 990.48,-210.6 991.46,-161.69"/>
<polygon fill="black" stroke="black" points="994.96,-161.61 991.66,-151.54 987.96,-161.47 994.96,-161.61"/>
</g>
<!-- Basics_Datatypes_nat_rect -->
<g id="node7" class="node">
<title>Basics_Datatypes_nat_rect</title>
<g id="a_node7"><a xlink:href="Basics.html#Datatypes.nat_rect" xlink:title="nat_rect">
<ellipse fill="#f070d1" stroke="black" cx="859" cy="-386.34" rx="48.96" ry="18"/>
<ellipse fill="none" stroke="black" cx="859" cy="-386.34" rx="52.98" ry="22"/>
<ellipse fill="none" stroke="black" cx="859" cy="-386.34" rx="56.99" ry="26"/>
<text text-anchor="middle" x="859" y="-382.64" font-family="Times,serif" font-size="14.00">nat_rect</text>
</a>
</g>
</g>
<!-- Basics_Datatypes_nat_rect&#45;&gt;Basics_Datatypes_S -->
<g id="edge9" class="edge">
<title>Basics_Datatypes_nat_rect&#45;&gt;Basics_Datatypes_S</title>
<path fill="none" stroke="black" d="M857.88,-359.89C855.8,-312.38 851.34,-210.6 849.2,-161.69"/>
<polygon fill="black" stroke="black" points="852.69,-161.38 848.75,-151.54 845.7,-161.69 852.69,-161.38"/>
</g>
<!-- Basics_Datatypes_nat_rect&#45;&gt;Basics_Datatypes_O -->
<g id="edge10" class="edge">
<title>Basics_Datatypes_nat_rect&#45;&gt;Basics_Datatypes_O</title>
<path fill="none" stroke="black" d="M865.07,-360.35C876.61,-312.88 901.61,-210 913.49,-161.14"/>
<polygon fill="black" stroke="black" points="916.92,-161.85 915.88,-151.31 910.11,-160.2 916.92,-161.85"/>
</g>
<!-- Basics_Datatypes_nat_rect&#45;&gt;Basics_Datatypes_nat -->
<g id="edge11" class="edge">
<title>Basics_Datatypes_nat_rect&#45;&gt;Basics_Datatypes_nat</title>
<path fill="none" stroke="black" d="M871.99,-360.82C897.36,-312.94 953.23,-207.5 978.78,-159.29"/>
<polygon fill="black" stroke="black" points="981.88,-160.92 983.47,-150.44 975.69,-157.64 981.88,-160.92"/>
</g>
<!-- Datatypes_iff -->
<g id="node11" class="node">
<title>Datatypes_iff</title>
<g id="a_node11"><a xlink:href="Datatypes.html#iff" xlink:title="iff">
<ellipse fill="#f070d1" stroke="black" cx="1327" cy="-386.34" rx="27" ry="18"/>
<ellipse fill="none" stroke="black" cx="1327" cy="-386.34" rx="31" ry="22"/>
<ellipse fill="none" stroke="black" cx="1327" cy="-386.34" rx="35" ry="26"/>
<text text-anchor="middle" x="1327" y="-382.64" font-family="Times,serif" font-size="14.00">iff</text>
</a>
</g>
</g>
<!-- Basics_Datatypes_prod -->
<g id="node17" class="node">
<title>Basics_Datatypes_prod</title>
<g id="a_node17"><a xlink:href="Basics.html#Datatypes.prod" xlink:title="prod">
<ellipse fill="#e2cdfa" stroke="black" cx="570" cy="-133.34" rx="32.49" ry="18"/>
<text text-anchor="middle" x="570" y="-129.64" font-family="Times,serif" font-size="14.00">prod</text>
</a>
</g>
</g>
<!-- Datatypes_iff&#45;&gt;Basics_Datatypes_prod -->
<g id="edge12" class="edge">
<title>Datatypes_iff&#45;&gt;Basics_Datatypes_prod</title>
<path fill="none" stroke="black" d="M1301.39,-368.24C1292.36,-362.68 1281.96,-356.8 1272,-352.34 1029.95,-244.02 718.32,-167.92 609.55,-143.1"/>
<polygon fill="black" stroke="black" points="610.19,-139.65 599.66,-140.85 608.64,-146.48 610.19,-139.65"/>
</g>
<!-- Basics_Datatypes_prod_curry -->
<g id="node12" class="node">
<title>Basics_Datatypes_prod_curry</title>
<g id="a_node12"><a xlink:href="Basics.html#Datatypes.prod_curry" xlink:title="prod_curry">
<ellipse fill="#f070d1" stroke="black" cx="570" cy="-386.34" rx="61.96" ry="18"/>
<ellipse fill="none" stroke="black" cx="570" cy="-386.34" rx="65.98" ry="22"/>
<ellipse fill="none" stroke="black" cx="570" cy="-386.34" rx="69.99" ry="26"/>
<text text-anchor="middle" x="570" y="-382.64" font-family="Times,serif" font-size="14.00">prod_curry</text>
</a>
</g>
</g>
<!-- Basics_Datatypes_prod_curry&#45;&gt;Basics_Datatypes_prod -->
<g id="edge13" class="edge">
<title>Basics_Datatypes_prod_curry&#45;&gt;Basics_Datatypes_prod</title>
<path fill="none" stroke="black" d="M570,-359.89C570,-312.38 570,-210.6 570,-161.69"/>
<polygon fill="black" stroke="black" points="573.5,-161.54 570,-151.54 566.5,-161.54 573.5,-161.54"/>
</g>
<!-- Basics_Datatypes_prod_rect -->
<g id="node13" class="node">
<title>Basics_Datatypes_prod_rect</title>
<g id="a_node13"><a xlink:href="Basics.html#Datatypes.prod_rect" xlink:title="prod_rect">
<ellipse fill="#f070d1" stroke="black" cx="721" cy="-386.34" rx="55.46" ry="18"/>
<ellipse fill="none" stroke="black" cx="721" cy="-386.34" rx="59.48" ry="22"/>
<ellipse fill="none" stroke="black" cx="721" cy="-386.34" rx="63.49" ry="26"/>
<text text-anchor="middle" x="721" y="-382.64" font-family="Times,serif" font-size="14.00">prod_rect</text>
</a>
</g>
</g>
<!-- Basics_Datatypes_pair -->
<g id="node16" class="node">
<title>Basics_Datatypes_pair</title>
<g id="a_node16"><a xlink:href="Basics.html#Datatypes.pair" xlink:title="pair">
<ellipse fill="#7faaff" stroke="black" cx="721" cy="-133.34" rx="29.5" ry="18"/>
<text text-anchor="middle" x="721" y="-129.64" font-family="Times,serif" font-size="14.00">pair</text>
</a>
</g>
</g>
<!-- Basics_Datatypes_prod_rect&#45;&gt;Basics_Datatypes_pair -->
<g id="edge14" class="edge">
<title>Basics_Datatypes_prod_rect&#45;&gt;Basics_Datatypes_pair</title>
<path fill="none" stroke="black" d="M721,-359.89C721,-312.38 721,-210.6 721,-161.69"/>
<polygon fill="black" stroke="black" points="724.5,-161.54 721,-151.54 717.5,-161.54 724.5,-161.54"/>
</g>
<!-- Basics_Datatypes_prod_rect&#45;&gt;Basics_Datatypes_prod -->
<g id="edge15" class="edge">
<title>Basics_Datatypes_prod_rect&#45;&gt;Basics_Datatypes_prod</title>
<path fill="none" stroke="black" d="M706.25,-360.82C677.45,-312.95 614.06,-207.57 585.04,-159.34"/>
<polygon fill="black" stroke="black" points="588.03,-157.52 579.87,-150.75 582.03,-161.13 588.03,-157.52"/>
</g>
<!-- Basics_Datatypes_snd -->
<g id="node14" class="node">
<title>Basics_Datatypes_snd</title>
<g id="a_node14"><a xlink:href="Basics.html#Datatypes.snd" xlink:title="snd">
<ellipse fill="#f070d1" stroke="black" cx="447" cy="-386.34" rx="27.14" ry="18"/>
<ellipse fill="none" stroke="black" cx="447" cy="-386.34" rx="31.12" ry="22"/>
<ellipse fill="none" stroke="black" cx="447" cy="-386.34" rx="35.1" ry="26"/>
<text text-anchor="middle" x="447" y="-382.64" font-family="Times,serif" font-size="14.00">snd</text>
</a>
</g>
</g>
<!-- Basics_Datatypes_snd&#45;&gt;Basics_Datatypes_prod -->
<g id="edge16" class="edge">
<title>Basics_Datatypes_snd&#45;&gt;Basics_Datatypes_prod</title>
<path fill="none" stroke="black" d="M458.57,-361.73C481.68,-314.57 533.37,-209.09 557.34,-160.17"/>
<polygon fill="black" stroke="black" points="560.63,-161.42 561.88,-150.9 554.34,-158.34 560.63,-161.42"/>
</g>
<!-- Basics_Datatypes_fst -->
<g id="node15" class="node">
<title>Basics_Datatypes_fst</title>
<g id="a_node15"><a xlink:href="Basics.html#Datatypes.fst" xlink:title="fst">
<ellipse fill="#f070d1" stroke="black" cx="359" cy="-386.34" rx="27" ry="18"/>
<ellipse fill="none" stroke="black" cx="359" cy="-386.34" rx="31" ry="22"/>
<ellipse fill="none" stroke="black" cx="359" cy="-386.34" rx="35" ry="26"/>
<text text-anchor="middle" x="359" y="-382.64" font-family="Times,serif" font-size="14.00">fst</text>
</a>
</g>
</g>
<!-- Basics_Datatypes_fst&#45;&gt;Basics_Datatypes_prod -->
<g id="edge17" class="edge">
<title>Basics_Datatypes_fst&#45;&gt;Basics_Datatypes_prod</title>
<path fill="none" stroke="black" d="M376.99,-363.94C416.28,-317.21 509.48,-206.34 550.29,-157.79"/>
<polygon fill="black" stroke="black" points="553.07,-159.92 556.82,-150.01 547.71,-155.42 553.07,-159.92"/>
</g>
<!-- Basics_Datatypes_sum_rect -->
<g id="node18" class="node">
<title>Basics_Datatypes_sum_rect</title>
<g id="a_node18"><a xlink:href="Basics.html#Datatypes.sum_rect" xlink:title="sum_rect">
<ellipse fill="#f070d1" stroke="black" cx="245" cy="-386.34" rx="53.12" ry="18"/>
<ellipse fill="none" stroke="black" cx="245" cy="-386.34" rx="57.1" ry="22"/>
<ellipse fill="none" stroke="black" cx="245" cy="-386.34" rx="61.09" ry="26"/>
<text text-anchor="middle" x="245" y="-382.64" font-family="Times,serif" font-size="14.00">sum_rect</text>
</a>
</g>
</g>
<!-- Basics_Datatypes_inr -->
<g id="node19" class="node">
<title>Basics_Datatypes_inr</title>
<g id="a_node19"><a xlink:href="Basics.html#Datatypes.inr" xlink:title="inr">
<ellipse fill="#7faaff" stroke="black" cx="480" cy="-133.34" rx="27" ry="18"/>
<text text-anchor="middle" x="480" y="-129.64" font-family="Times,serif" font-size="14.00">inr</text>
</a>
</g>
</g>
<!-- Basics_Datatypes_sum_rect&#45;&gt;Basics_Datatypes_inr -->
<g id="edge18" class="edge">
<title>Basics_Datatypes_sum_rect&#45;&gt;Basics_Datatypes_inr</title>
<path fill="none" stroke="black" d="M267.11,-361.73C312.36,-313.39 415.01,-203.76 459.16,-156.59"/>
<polygon fill="black" stroke="black" points="461.94,-158.75 466.22,-149.06 456.83,-153.97 461.94,-158.75"/>
</g>
<!-- Basics_Datatypes_inl -->
<g id="node20" class="node">
<title>Basics_Datatypes_inl</title>
<g id="a_node20"><a xlink:href="Basics.html#Datatypes.inl" xlink:title="inl">
<ellipse fill="#7faaff" stroke="black" cx="328" cy="-133.34" rx="27" ry="18"/>
<text text-anchor="middle" x="328" y="-129.64" font-family="Times,serif" font-size="14.00">inl</text>
</a>
</g>
</g>
<!-- Basics_Datatypes_sum_rect&#45;&gt;Basics_Datatypes_inl -->
<g id="edge19" class="edge">
<title>Basics_Datatypes_sum_rect&#45;&gt;Basics_Datatypes_inl</title>
<path fill="none" stroke="black" d="M253.26,-360.35C269,-312.76 303.15,-209.5 319.25,-160.79"/>
<polygon fill="black" stroke="black" points="322.68,-161.58 322.49,-150.99 316.03,-159.39 322.68,-161.58"/>
</g>
<!-- Basics_Datatypes_sum -->
<g id="node21" class="node">
<title>Basics_Datatypes_sum</title>
<g id="a_node21"><a xlink:href="Basics.html#Datatypes.sum" xlink:title="sum">
<ellipse fill="#e2cdfa" stroke="black" cx="404" cy="-133.34" rx="30.59" ry="18"/>
<text text-anchor="middle" x="404" y="-129.64" font-family="Times,serif" font-size="14.00">sum</text>
</a>
</g>
</g>
<!-- Basics_Datatypes_sum_rect&#45;&gt;Basics_Datatypes_sum -->
<g id="edge20" class="edge">
<title>Basics_Datatypes_sum_rect&#45;&gt;Basics_Datatypes_sum</title>
<path fill="none" stroke="black" d="M260.54,-360.82C290.93,-312.84 357.93,-207.06 388.39,-158.99"/>
<polygon fill="black" stroke="black" points="391.4,-160.76 393.8,-150.44 385.49,-157.02 391.4,-160.76"/>
</g>
<!-- Basics_Datatypes_option_rect -->
<g id="node22" class="node">
<title>Basics_Datatypes_option_rect</title>
<g id="a_node22"><a xlink:href="Basics.html#Datatypes.option_rect" xlink:title="option_rect">
<ellipse fill="#f070d1" stroke="black" cx="95" cy="-386.34" rx="63.08" ry="18"/>
<ellipse fill="none" stroke="black" cx="95" cy="-386.34" rx="67.09" ry="22"/>
<ellipse fill="none" stroke="black" cx="95" cy="-386.34" rx="71.09" ry="26"/>
<text text-anchor="middle" x="95" y="-382.64" font-family="Times,serif" font-size="14.00">option_rect</text>
</a>
</g>
</g>
<!-- Basics_Datatypes_None -->
<g id="node23" class="node">
<title>Basics_Datatypes_None</title>
<g id="a_node23"><a xlink:href="Basics.html#Datatypes.None" xlink:title="None">
<ellipse fill="#7faaff" stroke="black" cx="248" cy="-133.34" rx="35.19" ry="18"/>
<text text-anchor="middle" x="248" y="-129.64" font-family="Times,serif" font-size="14.00">None</text>
</a>
</g>
</g>
<!-- Basics_Datatypes_option_rect&#45;&gt;Basics_Datatypes_None -->
<g id="edge21" class="edge">
<title>Basics_Datatypes_option_rect&#45;&gt;Basics_Datatypes_None</title>
<path fill="none" stroke="black" d="M109.95,-360.82C139.12,-312.95 203.36,-207.57 232.76,-159.34"/>
<polygon fill="black" stroke="black" points="235.78,-161.11 237.99,-150.75 229.8,-157.47 235.78,-161.11"/>
</g>
<!-- Basics_Datatypes_Some -->
<g id="node24" class="node">
<title>Basics_Datatypes_Some</title>
<g id="a_node24"><a xlink:href="Basics.html#Datatypes.Some" xlink:title="Some">
<ellipse fill="#7faaff" stroke="black" cx="60" cy="-133.34" rx="36.29" ry="18"/>
<text text-anchor="middle" x="60" y="-129.64" font-family="Times,serif" font-size="14.00">Some</text>
</a>
</g>
</g>
<!-- Basics_Datatypes_option_rect&#45;&gt;Basics_Datatypes_Some -->
<g id="edge22" class="edge">
<title>Basics_Datatypes_option_rect&#45;&gt;Basics_Datatypes_Some</title>
<path fill="none" stroke="black" d="M91.52,-360.35C84.91,-312.97 70.61,-210.43 63.78,-161.45"/>
<polygon fill="black" stroke="black" points="67.21,-160.73 62.37,-151.31 60.28,-161.69 67.21,-160.73"/>
</g>
<!-- Basics_Datatypes_option -->
<g id="node25" class="node">
<title>Basics_Datatypes_option</title>
<g id="a_node25"><a xlink:href="Basics.html#Datatypes.option" xlink:title="option">
<ellipse fill="#e2cdfa" stroke="black" cx="155" cy="-133.34" rx="40.09" ry="18"/>
<text text-anchor="middle" x="155" y="-129.64" font-family="Times,serif" font-size="14.00">option</text>
</a>
</g>
</g>
<!-- Basics_Datatypes_option_rect&#45;&gt;Basics_Datatypes_option -->
<g id="edge23" class="edge">
<title>Basics_Datatypes_option_rect&#45;&gt;Basics_Datatypes_option</title>
<path fill="none" stroke="black" d="M100.97,-360.35C112.32,-312.88 136.91,-210 148.59,-161.14"/>
<polygon fill="black" stroke="black" points="152.02,-161.85 150.94,-151.31 145.22,-160.22 152.02,-161.85"/>
</g>
</g>
</svg>
