<?xml version="1.0" encoding="UTF-8" standalone="no"?>
<!DOCTYPE svg PUBLIC "-//W3C//DTD SVG 1.1//EN"
 "http://www.w3.org/Graphics/SVG/1.1/DTD/svg11.dtd">
<!-- Generated by graphviz version 2.43.0 (0)
 -->
<!-- Title: HoTT_Spaces_Torus_TorusHomotopy Pages: 1 -->
<svg width="733pt" height="370pt"
 viewBox="0.00 0.00 733.00 370.50" xmlns="http://www.w3.org/2000/svg" xmlns:xlink="http://www.w3.org/1999/xlink">
<g id="graph0" class="graph" transform="scale(1 1) rotate(0) translate(4 366.5)">
<title>HoTT_Spaces_Torus_TorusHomotopy</title>
<polygon fill="white" stroke="transparent" points="-4,4 -4,-366.5 729,-366.5 729,4 -4,4"/>
<g id="clust1" class="cluster">
<title>cluster_TorusHomotopy</title>
<polygon fill="#ffffc3" stroke="black" points="8,-16.2 8,-346.3 717,-346.3 717,-16.2 8,-16.2"/>
<text text-anchor="middle" x="73" y="-331.1" font-family="Times,serif" font-size="14.00">TorusHomotopy</text>
</g>
<!-- TorusHomotopy_Pi1Torus -->
<g id="node1" class="node">
<title>TorusHomotopy_Pi1Torus</title>
<g id="a_node1"><a xlink:href="TorusHomotopy.html#Pi1Torus" xlink:title="Pi1Torus">
<ellipse fill="#f070d1" stroke="black" cx="649" cy="-231.2" rx="51.99" ry="18"/>
<ellipse fill="none" stroke="black" cx="649" cy="-231.2" rx="55.99" ry="22"/>
<ellipse fill="none" stroke="black" cx="649" cy="-231.2" rx="59.99" ry="26"/>
<text text-anchor="middle" x="649" y="-227.5" font-family="Times,serif" font-size="14.00">Pi1Torus</text>
</a>
</g>
</g>
<!-- TorusHomotopy_pequiv_torus_prod_circles -->
<g id="node2" class="node">
<title>TorusHomotopy_pequiv_torus_prod_circles</title>
<g id="a_node2"><a xlink:href="TorusHomotopy.html#pequiv_torus_prod_circles" xlink:title="pequiv_torus_prod_circles">
<ellipse fill="#f070d1" stroke="black" cx="578" cy="-69.2" rx="131.08" ry="18"/>
<text text-anchor="middle" x="578" y="-65.5" font-family="Times,serif" font-size="14.00">pequiv_torus_prod_circles</text>
</a>
</g>
</g>
<!-- TorusHomotopy_Pi1Torus&#45;&gt;TorusHomotopy_pequiv_torus_prod_circles -->
<g id="edge1" class="edge">
<title>TorusHomotopy_Pi1Torus&#45;&gt;TorusHomotopy_pequiv_torus_prod_circles</title>
<path fill="none" stroke="black" d="M638.06,-205.55C624.99,-176.1 603.21,-127.01 589.78,-96.74"/>
<polygon fill="black" stroke="black" points="592.82,-94.97 585.57,-87.25 586.42,-97.81 592.82,-94.97"/>
</g>
<!-- TorusHomotopy_loops_torus -->
<g id="node3" class="node">
<title>TorusHomotopy_loops_torus</title>
<g id="a_node3"><a xlink:href="TorusHomotopy.html#loops_torus" xlink:title="loops_torus">
<ellipse fill="#f070d1" stroke="black" cx="499" cy="-231.2" rx="63.87" ry="18"/>
<ellipse fill="none" stroke="black" cx="499" cy="-231.2" rx="67.88" ry="22"/>
<ellipse fill="none" stroke="black" cx="499" cy="-231.2" rx="71.89" ry="26"/>
<text text-anchor="middle" x="499" y="-227.5" font-family="Times,serif" font-size="14.00">loops_torus</text>
</a>
</g>
</g>
<!-- TorusHomotopy_isconnected_Torus -->
<g id="node4" class="node">
<title>TorusHomotopy_isconnected_Torus</title>
<g id="a_node4"><a xlink:href="TorusHomotopy.html#isconnected_Torus" xlink:title="isconnected_Torus">
<ellipse fill="#f070d1" stroke="black" cx="305" cy="-231.2" rx="96.37" ry="18"/>
<ellipse fill="none" stroke="black" cx="305" cy="-231.2" rx="100.38" ry="22"/>
<ellipse fill="none" stroke="black" cx="305" cy="-231.2" rx="104.38" ry="26"/>
<text text-anchor="middle" x="305" y="-227.5" font-family="Times,serif" font-size="14.00">isconnected_Torus</text>
</a>
</g>
</g>
<!-- TorusHomotopy_is1type_Torus -->
<g id="node5" class="node">
<title>TorusHomotopy_is1type_Torus</title>
<g id="a_node5"><a xlink:href="TorusHomotopy.html#is1type_Torus" xlink:title="is1type_Torus">
<ellipse fill="#f070d1" stroke="black" cx="99" cy="-231.2" rx="75.3" ry="18"/>
<ellipse fill="none" stroke="black" cx="99" cy="-231.2" rx="79.29" ry="22"/>
<ellipse fill="none" stroke="black" cx="99" cy="-231.2" rx="83.29" ry="26"/>
<text text-anchor="middle" x="99" y="-227.5" font-family="Times,serif" font-size="14.00">is1type_Torus</text>
</a>
</g>
</g>
</g>
</svg>
