<?xml version="1.0" encoding="UTF-8" standalone="no"?>
<!DOCTYPE svg PUBLIC "-//W3C//DTD SVG 1.1//EN"
 "http://www.w3.org/Graphics/SVG/1.1/DTD/svg11.dtd">
<!-- Generated by graphviz version 2.43.0 (0)
 -->
<!-- Title: HoTT_Homotopy_EMSpace Pages: 1 -->
<svg width="1028pt" height="518pt"
 viewBox="0.00 0.00 1028.00 518.00" xmlns="http://www.w3.org/2000/svg" xmlns:xlink="http://www.w3.org/1999/xlink">
<g id="graph0" class="graph" transform="scale(1 1) rotate(0) translate(4 514)">
<title>HoTT_Homotopy_EMSpace</title>
<polygon fill="white" stroke="transparent" points="-4,4 -4,-514 1024,-514 1024,4 -4,4"/>
<g id="clust1" class="cluster">
<title>cluster_EMSpace</title>
<polygon fill="#ffffc3" stroke="black" points="8,-8.18 8,-501.82 1012,-501.82 1012,-8.18 8,-8.18"/>
<text text-anchor="middle" x="50" y="-486.62" font-family="Times,serif" font-size="14.00">EMSpace</text>
</g>
<!-- EMSpace_pequiv_loops_em_em -->
<g id="node1" class="node">
<title>EMSpace_pequiv_loops_em_em</title>
<g id="a_node1"><a xlink:href="EMSpace.html#pequiv_loops_em_em" xlink:title="pequiv_loops_em_em">
<ellipse fill="#f070d1" stroke="black" cx="552" cy="-443.18" rx="107.79" ry="18"/>
<ellipse fill="none" stroke="black" cx="552" cy="-443.18" rx="111.78" ry="22"/>
<ellipse fill="none" stroke="black" cx="552" cy="-443.18" rx="115.78" ry="26"/>
<text text-anchor="middle" x="552" y="-439.48" font-family="Times,serif" font-size="14.00">pequiv_loops_em_em</text>
</a>
</g>
</g>
<!-- EMSpace_trunc_lemma -->
<g id="node2" class="node">
<title>EMSpace_trunc_lemma</title>
<g id="a_node2"><a xlink:href="EMSpace.html#trunc_lemma" xlink:title="trunc_lemma">
<ellipse fill="#f070d1" stroke="black" cx="221" cy="-353.18" rx="71.49" ry="18"/>
<text text-anchor="middle" x="221" y="-349.48" font-family="Times,serif" font-size="14.00">trunc_lemma</text>
</a>
</g>
</g>
<!-- EMSpace_pequiv_loops_em_em&#45;&gt;EMSpace_trunc_lemma -->
<g id="edge1" class="edge">
<title>EMSpace_pequiv_loops_em_em&#45;&gt;EMSpace_trunc_lemma</title>
<path fill="none" stroke="black" d="M474.24,-423.87C424.51,-411.86 358.74,-395.43 301,-379.18 291.85,-376.6 282.16,-373.71 272.81,-370.84"/>
<polygon fill="black" stroke="black" points="273.8,-367.48 263.21,-367.86 271.73,-374.17 273.8,-367.48"/>
</g>
<!-- EMSpace_isconnected_em -->
<g id="node3" class="node">
<title>EMSpace_isconnected_em</title>
<g id="a_node3"><a xlink:href="EMSpace.html#isconnected_em" xlink:title="isconnected_em">
<ellipse fill="#f070d1" stroke="black" cx="552" cy="-353.18" rx="84.49" ry="18"/>
<text text-anchor="middle" x="552" y="-349.48" font-family="Times,serif" font-size="14.00">isconnected_em</text>
</a>
</g>
</g>
<!-- EMSpace_pequiv_loops_em_em&#45;&gt;EMSpace_isconnected_em -->
<g id="edge2" class="edge">
<title>EMSpace_pequiv_loops_em_em&#45;&gt;EMSpace_isconnected_em</title>
<path fill="none" stroke="black" d="M552,-416.72C552,-405.64 552,-392.65 552,-381.38"/>
<polygon fill="black" stroke="black" points="555.5,-381.22 552,-371.22 548.5,-381.22 555.5,-381.22"/>
</g>
<!-- EMSpace_licata_finster -->
<g id="node6" class="node">
<title>EMSpace_licata_finster</title>
<g id="a_node6"><a xlink:href="EMSpace.html#licata_finster" xlink:title="licata_finster">
<ellipse fill="#f070d1" stroke="black" cx="725" cy="-353.18" rx="70.69" ry="18"/>
<text text-anchor="middle" x="725" y="-349.48" font-family="Times,serif" font-size="14.00">licata_finster</text>
</a>
</g>
</g>
<!-- EMSpace_pequiv_loops_em_em&#45;&gt;EMSpace_licata_finster -->
<g id="edge3" class="edge">
<title>EMSpace_pequiv_loops_em_em&#45;&gt;EMSpace_licata_finster</title>
<path fill="none" stroke="black" d="M597.45,-419.06C624.83,-405.13 659.34,-387.58 685.56,-374.24"/>
<polygon fill="black" stroke="black" points="687.49,-377.19 694.81,-369.53 684.31,-370.95 687.49,-377.19"/>
</g>
<!-- EMSpace_EilenbergMacLane -->
<g id="node5" class="node">
<title>EMSpace_EilenbergMacLane</title>
<g id="a_node5"><a xlink:href="EMSpace.html#EilenbergMacLane" xlink:title="EilenbergMacLane">
<ellipse fill="#f070d1" stroke="black" cx="425" cy="-272.18" rx="98.28" ry="18"/>
<text text-anchor="middle" x="425" y="-268.48" font-family="Times,serif" font-size="14.00">EilenbergMacLane</text>
</a>
</g>
</g>
<!-- EMSpace_isconnected_em&#45;&gt;EMSpace_EilenbergMacLane -->
<g id="edge4" class="edge">
<title>EMSpace_isconnected_em&#45;&gt;EMSpace_EilenbergMacLane</title>
<path fill="none" stroke="black" d="M525.99,-336C506.94,-324.15 480.88,-307.94 460,-294.95"/>
<polygon fill="black" stroke="black" points="461.75,-291.91 451.41,-289.6 458.05,-297.86 461.75,-291.91"/>
</g>
<!-- EMSpace_istrunc_em -->
<g id="node4" class="node">
<title>EMSpace_istrunc_em</title>
<g id="a_node4"><a xlink:href="EMSpace.html#istrunc_em" xlink:title="istrunc_em">
<ellipse fill="#f070d1" stroke="black" cx="380" cy="-353.18" rx="61.96" ry="18"/>
<ellipse fill="none" stroke="black" cx="380" cy="-353.18" rx="65.98" ry="22"/>
<ellipse fill="none" stroke="black" cx="380" cy="-353.18" rx="69.99" ry="26"/>
<text text-anchor="middle" x="380" y="-349.48" font-family="Times,serif" font-size="14.00">istrunc_em</text>
</a>
</g>
</g>
<!-- EMSpace_istrunc_em&#45;&gt;EMSpace_EilenbergMacLane -->
<g id="edge5" class="edge">
<title>EMSpace_istrunc_em&#45;&gt;EMSpace_EilenbergMacLane</title>
<path fill="none" stroke="black" d="M393.99,-327.61C399.18,-318.51 405.07,-308.16 410.32,-298.95"/>
<polygon fill="black" stroke="black" points="413.39,-300.63 415.3,-290.21 407.31,-297.17 413.39,-300.63"/>
</g>
<!-- EMSpace_decode_encode -->
<g id="node7" class="node">
<title>EMSpace_decode_encode</title>
<g id="a_node7"><a xlink:href="EMSpace.html#decode_encode" xlink:title="decode_encode">
<ellipse fill="#f070d1" stroke="black" cx="667" cy="-272.18" rx="80.69" ry="18"/>
<text text-anchor="middle" x="667" y="-268.48" font-family="Times,serif" font-size="14.00">decode_encode</text>
</a>
</g>
</g>
<!-- EMSpace_licata_finster&#45;&gt;EMSpace_decode_encode -->
<g id="edge6" class="edge">
<title>EMSpace_licata_finster&#45;&gt;EMSpace_decode_encode</title>
<path fill="none" stroke="black" d="M712.7,-335.42C704.83,-324.71 694.48,-310.6 685.62,-298.53"/>
<polygon fill="black" stroke="black" points="688.22,-296.17 679.48,-290.18 682.58,-300.31 688.22,-296.17"/>
</g>
<!-- EMSpace_encode_North_decode_ -->
<g id="node10" class="node">
<title>EMSpace_encode_North_decode_</title>
<g id="a_node10"><a xlink:href="EMSpace.html#encode_North_decode'" xlink:title="encode_North_decode&#39;">
<ellipse fill="#f070d1" stroke="black" cx="800" cy="-198.18" rx="114.28" ry="18"/>
<text text-anchor="middle" x="800" y="-194.48" font-family="Times,serif" font-size="14.00">encode_North_decode&#39;</text>
</a>
</g>
</g>
<!-- EMSpace_licata_finster&#45;&gt;EMSpace_encode_North_decode_ -->
<g id="edge7" class="edge">
<title>EMSpace_licata_finster&#45;&gt;EMSpace_encode_North_decode_</title>
<path fill="none" stroke="black" d="M733.99,-335.15C740.49,-322.74 749.43,-305.49 757,-290.18 767.7,-268.53 779.37,-243.74 787.85,-225.51"/>
<polygon fill="black" stroke="black" points="791.06,-226.91 792.09,-216.37 784.71,-223.97 791.06,-226.91"/>
</g>
<!-- EMSpace_decode -->
<g id="node8" class="node">
<title>EMSpace_decode</title>
<g id="a_node8"><a xlink:href="EMSpace.html#decode" xlink:title="decode">
<ellipse fill="#f070d1" stroke="black" cx="434" cy="-198.18" rx="43.59" ry="18"/>
<text text-anchor="middle" x="434" y="-194.48" font-family="Times,serif" font-size="14.00">decode</text>
</a>
</g>
</g>
<!-- EMSpace_decode_encode&#45;&gt;EMSpace_decode -->
<g id="edge8" class="edge">
<title>EMSpace_decode_encode&#45;&gt;EMSpace_decode</title>
<path fill="none" stroke="black" d="M621.8,-257.21C580.11,-244.33 518.63,-225.33 477.49,-212.61"/>
<polygon fill="black" stroke="black" points="478.34,-209.21 467.75,-209.61 476.27,-215.9 478.34,-209.21"/>
</g>
<!-- EMSpace_encode -->
<g id="node13" class="node">
<title>EMSpace_encode</title>
<g id="a_node13"><a xlink:href="EMSpace.html#encode" xlink:title="encode">
<ellipse fill="#f070d1" stroke="black" cx="734" cy="-116.18" rx="43.59" ry="18"/>
<text text-anchor="middle" x="734" y="-112.48" font-family="Times,serif" font-size="14.00">encode</text>
</a>
</g>
</g>
<!-- EMSpace_decode_encode&#45;&gt;EMSpace_encode -->
<g id="edge9" class="edge">
<title>EMSpace_decode_encode&#45;&gt;EMSpace_encode</title>
<path fill="none" stroke="black" d="M665.82,-253.92C665.2,-234.98 666.25,-204.1 677,-180.18 683.93,-164.76 696.07,-150.53 707.37,-139.5"/>
<polygon fill="black" stroke="black" points="710.06,-141.79 714.99,-132.41 705.29,-136.67 710.06,-141.79"/>
</g>
<!-- EMSpace_merid_mu -->
<g id="node9" class="node">
<title>EMSpace_merid_mu</title>
<g id="a_node9"><a xlink:href="EMSpace.html#merid_mu" xlink:title="merid_mu">
<ellipse fill="#f070d1" stroke="black" cx="73" cy="-116.18" rx="57.39" ry="18"/>
<text text-anchor="middle" x="73" y="-112.48" font-family="Times,serif" font-size="14.00">merid_mu</text>
</a>
</g>
</g>
<!-- EMSpace_decode&#45;&gt;EMSpace_merid_mu -->
<g id="edge10" class="edge">
<title>EMSpace_decode&#45;&gt;EMSpace_merid_mu</title>
<path fill="none" stroke="black" d="M392.91,-191.87C335.43,-183.92 228.04,-167.13 139,-142.18 131.28,-140.01 123.21,-137.33 115.45,-134.52"/>
<polygon fill="black" stroke="black" points="116.45,-131.16 105.85,-130.94 114,-137.71 116.45,-131.16"/>
</g>
<!-- EMSpace_transport_decode_ -->
<g id="node11" class="node">
<title>EMSpace_transport_decode_</title>
<g id="a_node11"><a xlink:href="EMSpace.html#transport_decode'" xlink:title="transport_decode&#39;">
<ellipse fill="#f070d1" stroke="black" cx="890" cy="-116.18" rx="94.48" ry="18"/>
<text text-anchor="middle" x="890" y="-112.48" font-family="Times,serif" font-size="14.00">transport_decode&#39;</text>
</a>
</g>
</g>
<!-- EMSpace_decode&#45;&gt;EMSpace_transport_decode_ -->
<g id="edge11" class="edge">
<title>EMSpace_decode&#45;&gt;EMSpace_transport_decode_</title>
<path fill="none" stroke="black" d="M474.96,-191.93C540.95,-183.21 674.76,-164.5 787,-142.18 799.87,-139.62 813.57,-136.54 826.62,-133.44"/>
<polygon fill="black" stroke="black" points="827.56,-136.81 836.46,-131.07 825.92,-130.01 827.56,-136.81"/>
</g>
<!-- EMSpace_transport_codes_merid -->
<g id="node15" class="node">
<title>EMSpace_transport_codes_merid</title>
<g id="a_node15"><a xlink:href="EMSpace.html#transport_codes_merid" xlink:title="transport_codes_merid">
<ellipse fill="#f070d1" stroke="black" cx="265" cy="-116.18" rx="116.98" ry="18"/>
<text text-anchor="middle" x="265" y="-112.48" font-family="Times,serif" font-size="14.00">transport_codes_merid</text>
</a>
</g>
</g>
<!-- EMSpace_decode&#45;&gt;EMSpace_transport_codes_merid -->
<g id="edge12" class="edge">
<title>EMSpace_decode&#45;&gt;EMSpace_transport_codes_merid</title>
<path fill="none" stroke="black" d="M406.47,-184.14C380.03,-171.63 339.64,-152.51 308.78,-137.9"/>
<polygon fill="black" stroke="black" points="310.07,-134.64 299.54,-133.53 307.08,-140.97 310.07,-134.64"/>
</g>
<!-- EMSpace_decode_ -->
<g id="node12" class="node">
<title>EMSpace_decode_</title>
<g id="a_node12"><a xlink:href="EMSpace.html#decode'" xlink:title="decode&#39;">
<ellipse fill="#f070d1" stroke="black" cx="924" cy="-35.18" rx="46.29" ry="18"/>
<text text-anchor="middle" x="924" y="-31.48" font-family="Times,serif" font-size="14.00">decode&#39;</text>
</a>
</g>
</g>
<!-- EMSpace_encode_North_decode_&#45;&gt;EMSpace_decode_ -->
<g id="edge13" class="edge">
<title>EMSpace_encode_North_decode_&#45;&gt;EMSpace_decode_</title>
<path fill="none" stroke="black" d="M877.28,-184.87C924.56,-175.58 978.65,-161.19 993,-142.18 1006.92,-123.73 1003.12,-110.95 993,-90.18 986.02,-75.84 973.19,-64.2 960.47,-55.44"/>
<polygon fill="black" stroke="black" points="962.05,-52.3 951.75,-49.84 958.27,-58.19 962.05,-52.3"/>
</g>
<!-- EMSpace_encode_North_decode_&#45;&gt;EMSpace_encode -->
<g id="edge14" class="edge">
<title>EMSpace_encode_North_decode_&#45;&gt;EMSpace_encode</title>
<path fill="none" stroke="black" d="M786,-180.21C776.69,-168.92 764.32,-153.92 753.98,-141.39"/>
<polygon fill="black" stroke="black" points="756.59,-139.06 747.53,-133.57 751.19,-143.51 756.59,-139.06"/>
</g>
<!-- EMSpace_transport_decode_&#45;&gt;EMSpace_decode_ -->
<g id="edge15" class="edge">
<title>EMSpace_transport_decode_&#45;&gt;EMSpace_decode_</title>
<path fill="none" stroke="black" d="M897.38,-98.03C901.86,-87.61 907.68,-74.09 912.74,-62.35"/>
<polygon fill="black" stroke="black" points="916.02,-63.58 916.75,-53.01 909.59,-60.82 916.02,-63.58"/>
</g>
<!-- EMSpace_P -->
<g id="node17" class="node">
<title>EMSpace_P</title>
<g id="a_node17"><a xlink:href="EMSpace.html#P" xlink:title="P">
<ellipse fill="#f070d1" stroke="black" cx="766" cy="-35.18" rx="27" ry="18"/>
<text text-anchor="middle" x="766" y="-31.48" font-family="Times,serif" font-size="14.00">P</text>
</a>
</g>
</g>
<!-- EMSpace_transport_decode_&#45;&gt;EMSpace_P -->
<g id="edge16" class="edge">
<title>EMSpace_transport_decode_&#45;&gt;EMSpace_P</title>
<path fill="none" stroke="black" d="M864.31,-98.81C843.58,-85.6 814.48,-67.06 793.33,-53.59"/>
<polygon fill="black" stroke="black" points="795.11,-50.57 784.79,-48.15 791.35,-56.47 795.11,-50.57"/>
</g>
<!-- EMSpace_codes -->
<g id="node16" class="node">
<title>EMSpace_codes</title>
<g id="a_node16"><a xlink:href="EMSpace.html#codes" xlink:title="codes">
<ellipse fill="#f070d1" stroke="black" cx="536" cy="-35.18" rx="37.09" ry="18"/>
<text text-anchor="middle" x="536" y="-31.48" font-family="Times,serif" font-size="14.00">codes</text>
</a>
</g>
</g>
<!-- EMSpace_encode&#45;&gt;EMSpace_codes -->
<g id="edge17" class="edge">
<title>EMSpace_encode&#45;&gt;EMSpace_codes</title>
<path fill="none" stroke="black" d="M706.96,-101.89C698.7,-97.97 689.53,-93.77 681,-90.18 645.52,-75.23 604.33,-60.1 574.94,-49.67"/>
<polygon fill="black" stroke="black" points="576.04,-46.35 565.45,-46.32 573.71,-52.95 576.04,-46.35"/>
</g>
<!-- EMSpace_encode&#45;&gt;EMSpace_P -->
<g id="edge18" class="edge">
<title>EMSpace_encode&#45;&gt;EMSpace_P</title>
<path fill="none" stroke="black" d="M740.94,-98.03C745.19,-87.54 750.72,-73.91 755.49,-62.11"/>
<polygon fill="black" stroke="black" points="758.78,-63.33 759.29,-52.74 752.29,-60.7 758.78,-63.33"/>
</g>
<!-- EMSpace_transport_codes_merid_V -->
<g id="node14" class="node">
<title>EMSpace_transport_codes_merid_V</title>
<g id="a_node14"><a xlink:href="EMSpace.html#transport_codes_merid_V" xlink:title="transport_codes_merid_V">
<ellipse fill="#f070d1" stroke="black" cx="536" cy="-116.18" rx="128.08" ry="18"/>
<ellipse fill="none" stroke="black" cx="536" cy="-116.18" rx="132.08" ry="22"/>
<ellipse fill="none" stroke="black" cx="536" cy="-116.18" rx="136.08" ry="26"/>
<text text-anchor="middle" x="536" y="-112.48" font-family="Times,serif" font-size="14.00">transport_codes_merid_V</text>
</a>
</g>
</g>
<!-- EMSpace_transport_codes_merid_V&#45;&gt;EMSpace_codes -->
<g id="edge19" class="edge">
<title>EMSpace_transport_codes_merid_V&#45;&gt;EMSpace_codes</title>
<path fill="none" stroke="black" d="M536,-89.75C536,-81.37 536,-72.03 536,-63.52"/>
<polygon fill="black" stroke="black" points="539.5,-63.32 536,-53.32 532.5,-63.32 539.5,-63.32"/>
</g>
<!-- EMSpace_transport_codes_merid&#45;&gt;EMSpace_codes -->
<g id="edge20" class="edge">
<title>EMSpace_transport_codes_merid&#45;&gt;EMSpace_codes</title>
<path fill="none" stroke="black" d="M316.93,-100.04C368.87,-84.9 447.69,-61.92 495.28,-48.05"/>
<polygon fill="black" stroke="black" points="496.31,-51.39 504.93,-45.23 494.35,-44.67 496.31,-51.39"/>
</g>
</g>
</svg>
