<?xml version="1.0" encoding="UTF-8" standalone="no"?>
<!DOCTYPE svg PUBLIC "-//W3C//DTD SVG 1.1//EN"
 "http://www.w3.org/Graphics/SVG/1.1/DTD/svg11.dtd">
<!-- Generated by graphviz version 2.43.0 (0)
 -->
<!-- Title: HoTT_Algebra_AbGroups_AbelianGroup Pages: 1 -->
<svg width="2226pt" height="1117pt"
 viewBox="0.00 0.00 2226.00 1117.00" xmlns="http://www.w3.org/2000/svg" xmlns:xlink="http://www.w3.org/1999/xlink">
<g id="graph0" class="graph" transform="scale(1 1) rotate(0) translate(4 1113)">
<title>HoTT_Algebra_AbGroups_AbelianGroup</title>
<polygon fill="white" stroke="transparent" points="-4,4 -4,-1113 2222,-1113 2222,4 -4,4"/>
<g id="clust1" class="cluster">
<title>cluster_AbelianGroup</title>
<polygon fill="#ffffc3" stroke="black" points="8,-14.33 8,-1094.67 2210,-1094.67 2210,-14.33 8,-14.33"/>
<text text-anchor="middle" x="65" y="-1079.47" font-family="Times,serif" font-size="14.00">AbelianGroup</text>
</g>
<!-- AbelianGroup_ab_homo_negation -->
<g id="node1" class="node">
<title>AbelianGroup_ab_homo_negation</title>
<g id="a_node1"><a xlink:href="AbelianGroup.html#ab_homo_negation" xlink:title="ab_homo_negation">
<ellipse fill="#f070d1" stroke="black" cx="1735" cy="-204.33" rx="96.7" ry="18"/>
<ellipse fill="none" stroke="black" cx="1735" cy="-204.33" rx="100.69" ry="22"/>
<ellipse fill="none" stroke="black" cx="1735" cy="-204.33" rx="104.68" ry="26"/>
<text text-anchor="middle" x="1735" y="-200.63" font-family="Times,serif" font-size="14.00">ab_homo_negation</text>
</a>
</g>
</g>
<!-- AbelianGroup_AbGroup -->
<g id="node39" class="node">
<title>AbelianGroup_AbGroup</title>
<g id="a_node39"><a xlink:href="AbelianGroup.html#AbGroup" xlink:title="AbGroup">
<ellipse fill="#e2cdfa" stroke="black" cx="1308" cy="-61.33" rx="51.99" ry="18"/>
<text text-anchor="middle" x="1308" y="-57.63" font-family="Times,serif" font-size="14.00">AbGroup</text>
</a>
</g>
</g>
<!-- AbelianGroup_ab_homo_negation&#45;&gt;AbelianGroup_AbGroup -->
<g id="edge1" class="edge">
<title>AbelianGroup_ab_homo_negation&#45;&gt;AbelianGroup_AbGroup</title>
<path fill="none" stroke="black" d="M1673.82,-183.13C1587.42,-154.6 1431.57,-103.14 1354.18,-77.58"/>
<polygon fill="black" stroke="black" points="1354.84,-74.11 1344.25,-74.3 1352.65,-80.76 1354.84,-74.11"/>
</g>
<!-- AbelianGroup_ab_biprod_corec -->
<g id="node2" class="node">
<title>AbelianGroup_ab_biprod_corec</title>
<g id="a_node2"><a xlink:href="AbelianGroup.html#ab_biprod_corec" xlink:title="ab_biprod_corec">
<ellipse fill="#f070d1" stroke="black" cx="344" cy="-519.33" rx="85.6" ry="18"/>
<ellipse fill="none" stroke="black" cx="344" cy="-519.33" rx="89.59" ry="22"/>
<ellipse fill="none" stroke="black" cx="344" cy="-519.33" rx="93.59" ry="26"/>
<text text-anchor="middle" x="344" y="-515.63" font-family="Times,serif" font-size="14.00">ab_biprod_corec</text>
</a>
</g>
</g>
<!-- AbelianGroup_ab_biprod -->
<g id="node14" class="node">
<title>AbelianGroup_ab_biprod</title>
<g id="a_node14"><a xlink:href="AbelianGroup.html#ab_biprod" xlink:title="ab_biprod">
<ellipse fill="#f070d1" stroke="black" cx="781" cy="-362.33" rx="56.59" ry="18"/>
<text text-anchor="middle" x="781" y="-358.63" font-family="Times,serif" font-size="14.00">ab_biprod</text>
</a>
</g>
</g>
<!-- AbelianGroup_ab_biprod_corec&#45;&gt;AbelianGroup_ab_biprod -->
<g id="edge2" class="edge">
<title>AbelianGroup_ab_biprod_corec&#45;&gt;AbelianGroup_ab_biprod</title>
<path fill="none" stroke="black" d="M400.24,-498.39C487.56,-467.41 654.09,-408.35 734.83,-379.71"/>
<polygon fill="black" stroke="black" points="736.45,-382.85 744.7,-376.21 734.11,-376.25 736.45,-382.85"/>
</g>
<!-- AbelianGroup_isgraph_abgroup -->
<g id="node25" class="node">
<title>AbelianGroup_isgraph_abgroup</title>
<g id="a_node25"><a xlink:href="AbelianGroup.html#isgraph_abgroup" xlink:title="isgraph_abgroup">
<ellipse fill="#f070d1" stroke="black" cx="994" cy="-362.33" rx="89.08" ry="18"/>
<text text-anchor="middle" x="994" y="-358.63" font-family="Times,serif" font-size="14.00">isgraph_abgroup</text>
</a>
</g>
</g>
<!-- AbelianGroup_ab_biprod_corec&#45;&gt;AbelianGroup_isgraph_abgroup -->
<g id="edge3" class="edge">
<title>AbelianGroup_ab_biprod_corec&#45;&gt;AbelianGroup_isgraph_abgroup</title>
<path fill="none" stroke="black" d="M412.69,-501.61C424.15,-498.84 435.91,-496 447,-493.33 620.83,-451.58 825.91,-403.03 928.55,-378.78"/>
<polygon fill="black" stroke="black" points="929.54,-382.14 938.46,-376.44 927.93,-375.33 929.54,-382.14"/>
</g>
<!-- AbelianGroup_isequiv_ab_biprod_rec -->
<g id="node3" class="node">
<title>AbelianGroup_isequiv_ab_biprod_rec</title>
<g id="a_node3"><a xlink:href="AbelianGroup.html#isequiv_ab_biprod_rec" xlink:title="isequiv_ab_biprod_rec">
<ellipse fill="#f070d1" stroke="black" cx="613" cy="-992.33" rx="113.17" ry="18"/>
<ellipse fill="none" stroke="black" cx="613" cy="-992.33" rx="117.18" ry="22"/>
<ellipse fill="none" stroke="black" cx="613" cy="-992.33" rx="121.18" ry="26"/>
<text text-anchor="middle" x="613" y="-988.63" font-family="Times,serif" font-size="14.00">isequiv_ab_biprod_rec</text>
</a>
</g>
</g>
<!-- AbelianGroup_ab_biprod_rec_inr_beta -->
<g id="node4" class="node">
<title>AbelianGroup_ab_biprod_rec_inr_beta</title>
<g id="a_node4"><a xlink:href="AbelianGroup.html#ab_biprod_rec_inr_beta" xlink:title="ab_biprod_rec_inr_beta">
<ellipse fill="#f070d1" stroke="black" cx="531" cy="-677.33" rx="118.08" ry="18"/>
<text text-anchor="middle" x="531" y="-673.63" font-family="Times,serif" font-size="14.00">ab_biprod_rec_inr_beta</text>
</a>
</g>
</g>
<!-- AbelianGroup_isequiv_ab_biprod_rec&#45;&gt;AbelianGroup_ab_biprod_rec_inr_beta -->
<g id="edge4" class="edge">
<title>AbelianGroup_isequiv_ab_biprod_rec&#45;&gt;AbelianGroup_ab_biprod_rec_inr_beta</title>
<path fill="none" stroke="black" d="M606.43,-966.25C591.23,-908.22 553.74,-765.14 538.07,-705.31"/>
<polygon fill="black" stroke="black" points="541.41,-704.26 535.49,-695.47 534.64,-706.03 541.41,-704.26"/>
</g>
<!-- AbelianGroup_ab_biprod_rec_inl_beta -->
<g id="node5" class="node">
<title>AbelianGroup_ab_biprod_rec_inl_beta</title>
<g id="a_node5"><a xlink:href="AbelianGroup.html#ab_biprod_rec_inl_beta" xlink:title="ab_biprod_rec_inl_beta">
<ellipse fill="#f070d1" stroke="black" cx="1007" cy="-677.33" rx="116.18" ry="18"/>
<text text-anchor="middle" x="1007" y="-673.63" font-family="Times,serif" font-size="14.00">ab_biprod_rec_inl_beta</text>
</a>
</g>
</g>
<!-- AbelianGroup_isequiv_ab_biprod_rec&#45;&gt;AbelianGroup_ab_biprod_rec_inl_beta -->
<g id="edge5" class="edge">
<title>AbelianGroup_isequiv_ab_biprod_rec&#45;&gt;AbelianGroup_ab_biprod_rec_inl_beta</title>
<path fill="none" stroke="black" d="M659.55,-968.26C705.33,-944.51 776.14,-904.91 831,-861.33 893.57,-811.63 955.78,-740.55 986.77,-703.29"/>
<polygon fill="black" stroke="black" points="989.58,-705.38 993.25,-695.45 984.18,-700.93 989.58,-705.38"/>
</g>
<!-- AbelianGroup_ab_biprod_rec_beta -->
<g id="node6" class="node">
<title>AbelianGroup_ab_biprod_rec_beta</title>
<g id="a_node6"><a xlink:href="AbelianGroup.html#ab_biprod_rec_beta" xlink:title="ab_biprod_rec_beta">
<ellipse fill="#f070d1" stroke="black" cx="721" cy="-835.33" rx="100.98" ry="18"/>
<text text-anchor="middle" x="721" y="-831.63" font-family="Times,serif" font-size="14.00">ab_biprod_rec_beta</text>
</a>
</g>
</g>
<!-- AbelianGroup_isequiv_ab_biprod_rec&#45;&gt;AbelianGroup_ab_biprod_rec_beta -->
<g id="edge6" class="edge">
<title>AbelianGroup_isequiv_ab_biprod_rec&#45;&gt;AbelianGroup_ab_biprod_rec_beta</title>
<path fill="none" stroke="black" d="M630.35,-966.43C650.35,-937.73 683.03,-890.83 703.21,-861.87"/>
<polygon fill="black" stroke="black" points="706.2,-863.7 709.04,-853.5 700.45,-859.7 706.2,-863.7"/>
</g>
<!-- AbelianGroup_ab_biprod_rec_uncurried -->
<g id="node8" class="node">
<title>AbelianGroup_ab_biprod_rec_uncurried</title>
<g id="a_node8"><a xlink:href="AbelianGroup.html#ab_biprod_rec_uncurried" xlink:title="ab_biprod_rec_uncurried">
<ellipse fill="#f070d1" stroke="black" cx="307" cy="-835.33" rx="125.38" ry="18"/>
<text text-anchor="middle" x="307" y="-831.63" font-family="Times,serif" font-size="14.00">ab_biprod_rec_uncurried</text>
</a>
</g>
</g>
<!-- AbelianGroup_isequiv_ab_biprod_rec&#45;&gt;AbelianGroup_ab_biprod_rec_uncurried -->
<g id="edge7" class="edge">
<title>AbelianGroup_isequiv_ab_biprod_rec&#45;&gt;AbelianGroup_ab_biprod_rec_uncurried</title>
<path fill="none" stroke="black" d="M567.19,-968.13C507.96,-938.13 405.68,-886.32 348.59,-857.4"/>
<polygon fill="black" stroke="black" points="349.99,-854.19 339.49,-852.79 346.83,-860.43 349.99,-854.19"/>
</g>
<!-- AbelianGroup_ab_biprod_rec -->
<g id="node11" class="node">
<title>AbelianGroup_ab_biprod_rec</title>
<g id="a_node11"><a xlink:href="AbelianGroup.html#ab_biprod_rec" xlink:title="ab_biprod_rec">
<ellipse fill="#f070d1" stroke="black" cx="531" cy="-519.33" rx="75.29" ry="18"/>
<text text-anchor="middle" x="531" y="-515.63" font-family="Times,serif" font-size="14.00">ab_biprod_rec</text>
</a>
</g>
</g>
<!-- AbelianGroup_ab_biprod_rec_inr_beta&#45;&gt;AbelianGroup_ab_biprod_rec -->
<g id="edge8" class="edge">
<title>AbelianGroup_ab_biprod_rec_inr_beta&#45;&gt;AbelianGroup_ab_biprod_rec</title>
<path fill="none" stroke="black" d="M531,-659.04C531,-632.1 531,-579.87 531,-547.76"/>
<polygon fill="black" stroke="black" points="534.5,-547.7 531,-537.7 527.5,-547.7 534.5,-547.7"/>
</g>
<!-- AbelianGroup_ab_biprod_inr -->
<g id="node12" class="node">
<title>AbelianGroup_ab_biprod_inr</title>
<g id="a_node12"><a xlink:href="AbelianGroup.html#ab_biprod_inr" xlink:title="ab_biprod_inr">
<ellipse fill="#f070d1" stroke="black" cx="698" cy="-519.33" rx="74.19" ry="18"/>
<text text-anchor="middle" x="698" y="-515.63" font-family="Times,serif" font-size="14.00">ab_biprod_inr</text>
</a>
</g>
</g>
<!-- AbelianGroup_ab_biprod_rec_inr_beta&#45;&gt;AbelianGroup_ab_biprod_inr -->
<g id="edge9" class="edge">
<title>AbelianGroup_ab_biprod_rec_inr_beta&#45;&gt;AbelianGroup_ab_biprod_inr</title>
<path fill="none" stroke="black" d="M549.19,-659.34C579.09,-631.41 638.68,-575.75 672.68,-543.98"/>
<polygon fill="black" stroke="black" points="675.42,-546.22 680.34,-536.83 670.64,-541.1 675.42,-546.22"/>
</g>
<!-- AbelianGroup_is01cat_AbGroup -->
<g id="node24" class="node">
<title>AbelianGroup_is01cat_AbGroup</title>
<g id="a_node24"><a xlink:href="AbelianGroup.html#is01cat_AbGroup" xlink:title="is01cat_AbGroup">
<ellipse fill="#f070d1" stroke="black" cx="1043" cy="-519.33" rx="89.88" ry="18"/>
<text text-anchor="middle" x="1043" y="-515.63" font-family="Times,serif" font-size="14.00">is01cat_AbGroup</text>
</a>
</g>
</g>
<!-- AbelianGroup_ab_biprod_rec_inr_beta&#45;&gt;AbelianGroup_is01cat_AbGroup -->
<g id="edge10" class="edge">
<title>AbelianGroup_ab_biprod_rec_inr_beta&#45;&gt;AbelianGroup_is01cat_AbGroup</title>
<path fill="none" stroke="black" d="M581.49,-660.95C677.45,-631.71 885.51,-568.32 986.17,-537.65"/>
<polygon fill="black" stroke="black" points="987.32,-540.96 995.87,-534.69 985.28,-534.26 987.32,-540.96"/>
</g>
<!-- AbelianGroup_ab_biprod_rec_inl_beta&#45;&gt;AbelianGroup_ab_biprod_rec -->
<g id="edge11" class="edge">
<title>AbelianGroup_ab_biprod_rec_inl_beta&#45;&gt;AbelianGroup_ab_biprod_rec</title>
<path fill="none" stroke="black" d="M959.62,-660.8C870.02,-631.44 676.41,-567.99 583.21,-537.44"/>
<polygon fill="black" stroke="black" points="584.3,-534.12 573.7,-534.33 582.12,-540.77 584.3,-534.12"/>
</g>
<!-- AbelianGroup_ab_biprod_inl -->
<g id="node13" class="node">
<title>AbelianGroup_ab_biprod_inl</title>
<g id="a_node13"><a xlink:href="AbelianGroup.html#ab_biprod_inl" xlink:title="ab_biprod_inl">
<ellipse fill="#f070d1" stroke="black" cx="863" cy="-519.33" rx="72.59" ry="18"/>
<text text-anchor="middle" x="863" y="-515.63" font-family="Times,serif" font-size="14.00">ab_biprod_inl</text>
</a>
</g>
</g>
<!-- AbelianGroup_ab_biprod_rec_inl_beta&#45;&gt;AbelianGroup_ab_biprod_inl -->
<g id="edge12" class="edge">
<title>AbelianGroup_ab_biprod_rec_inl_beta&#45;&gt;AbelianGroup_ab_biprod_inl</title>
<path fill="none" stroke="black" d="M991.32,-659.34C965.78,-631.68 915.12,-576.79 885.67,-544.89"/>
<polygon fill="black" stroke="black" points="888.02,-542.28 878.67,-537.3 882.88,-547.03 888.02,-542.28"/>
</g>
<!-- AbelianGroup_ab_biprod_rec_inl_beta&#45;&gt;AbelianGroup_is01cat_AbGroup -->
<g id="edge13" class="edge">
<title>AbelianGroup_ab_biprod_rec_inl_beta&#45;&gt;AbelianGroup_is01cat_AbGroup</title>
<path fill="none" stroke="black" d="M1010.92,-659.34C1017.11,-632.52 1029.2,-580.12 1036.64,-547.88"/>
<polygon fill="black" stroke="black" points="1040.14,-548.31 1038.97,-537.78 1033.31,-546.74 1040.14,-548.31"/>
</g>
<!-- AbelianGroup_ab_biprod_rec_beta_ -->
<g id="node7" class="node">
<title>AbelianGroup_ab_biprod_rec_beta_</title>
<g id="a_node7"><a xlink:href="AbelianGroup.html#ab_biprod_rec_beta'" xlink:title="ab_biprod_rec_beta&#39;">
<ellipse fill="#f070d1" stroke="black" cx="770" cy="-677.33" rx="102.88" ry="18"/>
<text text-anchor="middle" x="770" y="-673.63" font-family="Times,serif" font-size="14.00">ab_biprod_rec_beta&#39;</text>
</a>
</g>
</g>
<!-- AbelianGroup_ab_biprod_rec_beta&#45;&gt;AbelianGroup_ab_biprod_rec_beta_ -->
<g id="edge14" class="edge">
<title>AbelianGroup_ab_biprod_rec_beta&#45;&gt;AbelianGroup_ab_biprod_rec_beta_</title>
<path fill="none" stroke="black" d="M726.34,-817.34C734.8,-790.41 751.36,-737.67 761.48,-705.46"/>
<polygon fill="black" stroke="black" points="764.86,-706.37 764.52,-695.78 758.18,-704.27 764.86,-706.37"/>
</g>
<!-- AbelianGroup_ab_biprod_rec_beta_&#45;&gt;AbelianGroup_ab_biprod_rec -->
<g id="edge15" class="edge">
<title>AbelianGroup_ab_biprod_rec_beta_&#45;&gt;AbelianGroup_ab_biprod_rec</title>
<path fill="none" stroke="black" d="M744.42,-659.64C700.89,-631.22 612.44,-573.49 564.2,-542"/>
<polygon fill="black" stroke="black" points="565.96,-538.97 555.68,-536.44 562.14,-544.84 565.96,-538.97"/>
</g>
<!-- AbelianGroup_ab_biprod_rec_beta_&#45;&gt;AbelianGroup_ab_biprod_inr -->
<g id="edge16" class="edge">
<title>AbelianGroup_ab_biprod_rec_beta_&#45;&gt;AbelianGroup_ab_biprod_inr</title>
<path fill="none" stroke="black" d="M762.16,-659.34C749.61,-632.15 724.91,-578.65 710.09,-546.53"/>
<polygon fill="black" stroke="black" points="713.2,-544.92 705.83,-537.3 706.85,-547.85 713.2,-544.92"/>
</g>
<!-- AbelianGroup_ab_biprod_rec_beta_&#45;&gt;AbelianGroup_ab_biprod_inl -->
<g id="edge17" class="edge">
<title>AbelianGroup_ab_biprod_rec_beta_&#45;&gt;AbelianGroup_ab_biprod_inl</title>
<path fill="none" stroke="black" d="M780.13,-659.34C796.41,-632.03 828.51,-578.19 847.63,-546.12"/>
<polygon fill="black" stroke="black" points="850.77,-547.69 852.88,-537.3 844.76,-544.1 850.77,-547.69"/>
</g>
<!-- AbelianGroup_ab_biprod_rec_beta_&#45;&gt;AbelianGroup_is01cat_AbGroup -->
<g id="edge18" class="edge">
<title>AbelianGroup_ab_biprod_rec_beta_&#45;&gt;AbelianGroup_is01cat_AbGroup</title>
<path fill="none" stroke="black" d="M798.7,-659.93C848.5,-631.48 950.84,-572.99 1005.94,-541.51"/>
<polygon fill="black" stroke="black" points="1007.74,-544.51 1014.68,-536.51 1004.27,-538.44 1007.74,-544.51"/>
</g>
<!-- AbelianGroup_ab_biprod_rec_uncurried&#45;&gt;AbelianGroup_ab_biprod_rec -->
<g id="edge19" class="edge">
<title>AbelianGroup_ab_biprod_rec_uncurried&#45;&gt;AbelianGroup_ab_biprod_rec</title>
<path fill="none" stroke="black" d="M286.68,-817.42C249.27,-784.21 176.68,-708.7 215,-651.33 230.58,-628 395.34,-567.74 480.55,-537.78"/>
<polygon fill="black" stroke="black" points="481.76,-541.06 490.04,-534.45 479.44,-534.46 481.76,-541.06"/>
</g>
<!-- AbelianGroup_ab_biprod_pr2 -->
<g id="node9" class="node">
<title>AbelianGroup_ab_biprod_pr2</title>
<g id="a_node9"><a xlink:href="AbelianGroup.html#ab_biprod_pr2" xlink:title="ab_biprod_pr2">
<ellipse fill="#f070d1" stroke="black" cx="101" cy="-677.33" rx="77.2" ry="18"/>
<ellipse fill="none" stroke="black" cx="101" cy="-677.33" rx="81.19" ry="22"/>
<ellipse fill="none" stroke="black" cx="101" cy="-677.33" rx="85.19" ry="26"/>
<text text-anchor="middle" x="101" y="-673.63" font-family="Times,serif" font-size="14.00">ab_biprod_pr2</text>
</a>
</g>
</g>
<!-- AbelianGroup_ab_biprod_pr2&#45;&gt;AbelianGroup_ab_biprod_rec -->
<g id="edge20" class="edge">
<title>AbelianGroup_ab_biprod_pr2&#45;&gt;AbelianGroup_ab_biprod_rec</title>
<path fill="none" stroke="black" d="M154.59,-656.89C238.75,-626.36 400.66,-567.62 481.93,-538.14"/>
<polygon fill="black" stroke="black" points="483.22,-541.39 491.43,-534.69 480.84,-534.81 483.22,-541.39"/>
</g>
<!-- AbelianGroup_ab_biprod_pr1 -->
<g id="node10" class="node">
<title>AbelianGroup_ab_biprod_pr1</title>
<g id="a_node10"><a xlink:href="AbelianGroup.html#ab_biprod_pr1" xlink:title="ab_biprod_pr1">
<ellipse fill="#f070d1" stroke="black" cx="309" cy="-677.33" rx="77.2" ry="18"/>
<ellipse fill="none" stroke="black" cx="309" cy="-677.33" rx="81.19" ry="22"/>
<ellipse fill="none" stroke="black" cx="309" cy="-677.33" rx="85.19" ry="26"/>
<text text-anchor="middle" x="309" y="-673.63" font-family="Times,serif" font-size="14.00">ab_biprod_pr1</text>
</a>
</g>
</g>
<!-- AbelianGroup_ab_biprod_pr1&#45;&gt;AbelianGroup_ab_biprod_rec -->
<g id="edge21" class="edge">
<title>AbelianGroup_ab_biprod_pr1&#45;&gt;AbelianGroup_ab_biprod_rec</title>
<path fill="none" stroke="black" d="M341.76,-653.31C384.21,-623.48 457.72,-571.82 499.53,-542.44"/>
<polygon fill="black" stroke="black" points="501.78,-545.14 507.95,-536.53 497.76,-539.41 501.78,-545.14"/>
</g>
<!-- AbelianGroup_ab_biprod_rec&#45;&gt;AbelianGroup_ab_biprod -->
<g id="edge22" class="edge">
<title>AbelianGroup_ab_biprod_rec&#45;&gt;AbelianGroup_ab_biprod</title>
<path fill="none" stroke="black" d="M556.81,-502.33C602.48,-474.02 697.43,-415.15 747.86,-383.88"/>
<polygon fill="black" stroke="black" points="749.78,-386.81 756.44,-378.56 746.09,-380.86 749.78,-386.81"/>
</g>
<!-- AbelianGroup_ab_biprod_rec&#45;&gt;AbelianGroup_isgraph_abgroup -->
<g id="edge23" class="edge">
<title>AbelianGroup_ab_biprod_rec&#45;&gt;AbelianGroup_isgraph_abgroup</title>
<path fill="none" stroke="black" d="M572.9,-504.3C657.29,-476.05 847.56,-412.36 940.66,-381.19"/>
<polygon fill="black" stroke="black" points="941.8,-384.5 950.17,-378.01 939.58,-377.86 941.8,-384.5"/>
</g>
<!-- AbelianGroup_ab_biprod_inr&#45;&gt;AbelianGroup_ab_biprod -->
<g id="edge24" class="edge">
<title>AbelianGroup_ab_biprod_inr&#45;&gt;AbelianGroup_ab_biprod</title>
<path fill="none" stroke="black" d="M707.04,-501.45C721.51,-474.43 749.97,-421.27 767.06,-389.36"/>
<polygon fill="black" stroke="black" points="770.34,-390.66 771.97,-380.19 764.16,-387.36 770.34,-390.66"/>
</g>
<!-- AbelianGroup_ab_biprod_inr&#45;&gt;AbelianGroup_isgraph_abgroup -->
<g id="edge25" class="edge">
<title>AbelianGroup_ab_biprod_inr&#45;&gt;AbelianGroup_isgraph_abgroup</title>
<path fill="none" stroke="black" d="M727.74,-502.76C781.31,-474.71 894.06,-415.67 954.21,-384.17"/>
<polygon fill="black" stroke="black" points="956.16,-387.1 963.4,-379.36 952.92,-380.9 956.16,-387.1"/>
</g>
<!-- AbelianGroup_ab_biprod_inl&#45;&gt;AbelianGroup_ab_biprod -->
<g id="edge26" class="edge">
<title>AbelianGroup_ab_biprod_inl&#45;&gt;AbelianGroup_ab_biprod</title>
<path fill="none" stroke="black" d="M854.07,-501.45C839.77,-474.43 811.65,-421.27 794.77,-389.36"/>
<polygon fill="black" stroke="black" points="797.69,-387.4 789.92,-380.19 791.5,-390.67 797.69,-387.4"/>
</g>
<!-- AbelianGroup_ab_biprod_inl&#45;&gt;AbelianGroup_isgraph_abgroup -->
<g id="edge27" class="edge">
<title>AbelianGroup_ab_biprod_inl&#45;&gt;AbelianGroup_isgraph_abgroup</title>
<path fill="none" stroke="black" d="M877.27,-501.45C900.4,-474.08 946.2,-419.89 973.04,-388.14"/>
<polygon fill="black" stroke="black" points="975.97,-390.09 979.75,-380.19 970.62,-385.57 975.97,-390.09"/>
</g>
<!-- AbelianGroup_Build_AbGroup -->
<g id="node38" class="node">
<title>AbelianGroup_Build_AbGroup</title>
<g id="a_node38"><a xlink:href="AbelianGroup.html#Build_AbGroup" xlink:title="Build_AbGroup">
<ellipse fill="#7faaff" stroke="black" cx="1532" cy="-204.33" rx="80.69" ry="18"/>
<text text-anchor="middle" x="1532" y="-200.63" font-family="Times,serif" font-size="14.00">Build_AbGroup</text>
</a>
</g>
</g>
<!-- AbelianGroup_ab_biprod&#45;&gt;AbelianGroup_Build_AbGroup -->
<g id="edge28" class="edge">
<title>AbelianGroup_ab_biprod&#45;&gt;AbelianGroup_Build_AbGroup</title>
<path fill="none" stroke="black" d="M826.02,-351.38C847.24,-346.73 872.9,-341.17 896,-336.33 1129.41,-287.45 1188.82,-280.32 1422,-230.33 1437.08,-227.1 1453.29,-223.49 1468.51,-220.04"/>
<polygon fill="black" stroke="black" points="1469.37,-223.44 1478.35,-217.8 1467.82,-216.61 1469.37,-223.44"/>
</g>
<!-- AbelianGroup_ab_biprod&#45;&gt;AbelianGroup_AbGroup -->
<g id="edge29" class="edge">
<title>AbelianGroup_ab_biprod&#45;&gt;AbelianGroup_AbGroup</title>
<path fill="none" stroke="black" d="M815.93,-348.12C862.42,-328.89 944.4,-288.95 993,-230.33 1008.8,-211.27 995.56,-195.91 1013,-178.33 1078.14,-112.71 1184.84,-83.26 1250.49,-70.77"/>
<polygon fill="black" stroke="black" points="1251.46,-74.15 1260.66,-68.9 1250.2,-67.26 1251.46,-74.15"/>
</g>
<!-- AbelianGroup_abgroup_first_iso -->
<g id="node15" class="node">
<title>AbelianGroup_abgroup_first_iso</title>
<g id="a_node15"><a xlink:href="AbelianGroup.html#abgroup_first_iso" xlink:title="abgroup_first_iso">
<ellipse fill="#f070d1" stroke="black" cx="1754" cy="-677.33" rx="90.2" ry="18"/>
<ellipse fill="none" stroke="black" cx="1754" cy="-677.33" rx="94.19" ry="22"/>
<ellipse fill="none" stroke="black" cx="1754" cy="-677.33" rx="98.18" ry="26"/>
<text text-anchor="middle" x="1754" y="-673.63" font-family="Times,serif" font-size="14.00">abgroup_first_iso</text>
</a>
</g>
</g>
<!-- AbelianGroup_abgroup_image -->
<g id="node16" class="node">
<title>AbelianGroup_abgroup_image</title>
<g id="a_node16"><a xlink:href="AbelianGroup.html#abgroup_image" xlink:title="abgroup_image">
<ellipse fill="#f070d1" stroke="black" cx="1553" cy="-519.33" rx="81.79" ry="18"/>
<text text-anchor="middle" x="1553" y="-515.63" font-family="Times,serif" font-size="14.00">abgroup_image</text>
</a>
</g>
</g>
<!-- AbelianGroup_abgroup_first_iso&#45;&gt;AbelianGroup_abgroup_image -->
<g id="edge30" class="edge">
<title>AbelianGroup_abgroup_first_iso&#45;&gt;AbelianGroup_abgroup_image</title>
<path fill="none" stroke="black" d="M1723.03,-652.3C1684.64,-622.5 1619.7,-572.1 1582.16,-542.96"/>
<polygon fill="black" stroke="black" points="1584.18,-540.1 1574.14,-536.74 1579.89,-545.63 1584.18,-540.1"/>
</g>
<!-- AbelianGroup_QuotientAbGroup -->
<g id="node27" class="node">
<title>AbelianGroup_QuotientAbGroup</title>
<g id="a_node27"><a xlink:href="AbelianGroup.html#QuotientAbGroup" xlink:title="QuotientAbGroup">
<ellipse fill="#f070d1" stroke="black" cx="1754" cy="-519.33" rx="92.08" ry="18"/>
<text text-anchor="middle" x="1754" y="-515.63" font-family="Times,serif" font-size="14.00">QuotientAbGroup</text>
</a>
</g>
</g>
<!-- AbelianGroup_abgroup_first_iso&#45;&gt;AbelianGroup_QuotientAbGroup -->
<g id="edge31" class="edge">
<title>AbelianGroup_abgroup_first_iso&#45;&gt;AbelianGroup_QuotientAbGroup</title>
<path fill="none" stroke="black" d="M1754,-651.27C1754,-623.01 1754,-577.2 1754,-547.94"/>
<polygon fill="black" stroke="black" points="1757.5,-547.61 1754,-537.61 1750.5,-547.61 1757.5,-547.61"/>
</g>
<!-- AbelianGroup_abgroup_image&#45;&gt;AbelianGroup_isgraph_abgroup -->
<g id="edge32" class="edge">
<title>AbelianGroup_abgroup_image&#45;&gt;AbelianGroup_isgraph_abgroup</title>
<path fill="none" stroke="black" d="M1504.37,-504.85C1402.13,-476.5 1165.2,-410.8 1053.85,-379.93"/>
<polygon fill="black" stroke="black" points="1054.69,-376.53 1044.12,-377.23 1052.82,-383.27 1054.69,-376.53"/>
</g>
<!-- AbelianGroup_isabgroup_subgroup -->
<g id="node30" class="node">
<title>AbelianGroup_isabgroup_subgroup</title>
<g id="a_node30"><a xlink:href="AbelianGroup.html#isabgroup_subgroup" xlink:title="isabgroup_subgroup">
<ellipse fill="#f070d1" stroke="black" cx="1308" cy="-204.33" rx="105.08" ry="18"/>
<text text-anchor="middle" x="1308" y="-200.63" font-family="Times,serif" font-size="14.00">isabgroup_subgroup</text>
</a>
</g>
</g>
<!-- AbelianGroup_abgroup_image&#45;&gt;AbelianGroup_isabgroup_subgroup -->
<g id="edge33" class="edge">
<title>AbelianGroup_abgroup_image&#45;&gt;AbelianGroup_isabgroup_subgroup</title>
<path fill="none" stroke="black" d="M1512.71,-503.53C1466.14,-484.3 1390.71,-446.17 1350,-388.33 1316.61,-340.91 1309.35,-271 1308.02,-232.77"/>
<polygon fill="black" stroke="black" points="1311.51,-232.35 1307.78,-222.43 1304.51,-232.51 1311.51,-232.35"/>
</g>
<!-- AbelianGroup_abgroup_image&#45;&gt;AbelianGroup_Build_AbGroup -->
<g id="edge34" class="edge">
<title>AbelianGroup_abgroup_image&#45;&gt;AbelianGroup_Build_AbGroup</title>
<path fill="none" stroke="black" d="M1551.84,-501.06C1548.38,-449.43 1538.08,-296 1533.85,-232.9"/>
<polygon fill="black" stroke="black" points="1537.32,-232.3 1533.16,-222.55 1530.33,-232.77 1537.32,-232.3"/>
</g>
<!-- AbelianGroup_ispointedcat_abgroup -->
<g id="node17" class="node">
<title>AbelianGroup_ispointedcat_abgroup</title>
<g id="a_node17"><a xlink:href="AbelianGroup.html#ispointedcat_abgroup" xlink:title="ispointedcat_abgroup">
<ellipse fill="#f070d1" stroke="black" cx="1824" cy="-835.33" rx="110.48" ry="18"/>
<ellipse fill="none" stroke="black" cx="1824" cy="-835.33" rx="114.48" ry="22"/>
<ellipse fill="none" stroke="black" cx="1824" cy="-835.33" rx="118.48" ry="26"/>
<text text-anchor="middle" x="1824" y="-831.63" font-family="Times,serif" font-size="14.00">ispointedcat_abgroup</text>
</a>
</g>
</g>
<!-- AbelianGroup_abgroup_trivial -->
<g id="node18" class="node">
<title>AbelianGroup_abgroup_trivial</title>
<g id="a_node18"><a xlink:href="AbelianGroup.html#abgroup_trivial" xlink:title="abgroup_trivial">
<ellipse fill="#f070d1" stroke="black" cx="1953" cy="-362.33" rx="81.49" ry="18"/>
<text text-anchor="middle" x="1953" y="-358.63" font-family="Times,serif" font-size="14.00">abgroup_trivial</text>
</a>
</g>
</g>
<!-- AbelianGroup_ispointedcat_abgroup&#45;&gt;AbelianGroup_abgroup_trivial -->
<g id="edge35" class="edge">
<title>AbelianGroup_ispointedcat_abgroup&#45;&gt;AbelianGroup_abgroup_trivial</title>
<path fill="none" stroke="black" d="M1937.09,-827.34C2022.35,-815.43 2134,-784.2 2191,-703.33 2261.96,-602.66 2065.26,-581.36 2035,-545.33 1995.17,-497.91 1970.99,-428.01 1960.02,-390.12"/>
<polygon fill="black" stroke="black" points="1963.34,-389.01 1957.27,-380.33 1956.6,-390.9 1963.34,-389.01"/>
</g>
<!-- AbelianGroup_is1cat_abgroup -->
<g id="node21" class="node">
<title>AbelianGroup_is1cat_abgroup</title>
<g id="a_node21"><a xlink:href="AbelianGroup.html#is1cat_abgroup" xlink:title="is1cat_abgroup">
<ellipse fill="#f070d1" stroke="black" cx="1223" cy="-677.33" rx="81.49" ry="18"/>
<text text-anchor="middle" x="1223" y="-673.63" font-family="Times,serif" font-size="14.00">is1cat_abgroup</text>
</a>
</g>
</g>
<!-- AbelianGroup_ispointedcat_abgroup&#45;&gt;AbelianGroup_is1cat_abgroup -->
<g id="edge36" class="edge">
<title>AbelianGroup_ispointedcat_abgroup&#45;&gt;AbelianGroup_is1cat_abgroup</title>
<path fill="none" stroke="black" d="M1748.29,-815.31C1648.61,-790.16 1467.95,-744.25 1314,-703.33 1303.45,-700.53 1292.23,-697.49 1281.41,-694.53"/>
<polygon fill="black" stroke="black" points="1282.17,-691.11 1271.6,-691.85 1280.32,-697.87 1282.17,-691.11"/>
</g>
<!-- AbelianGroup_abgroup_trivial&#45;&gt;AbelianGroup_Build_AbGroup -->
<g id="edge37" class="edge">
<title>AbelianGroup_abgroup_trivial&#45;&gt;AbelianGroup_Build_AbGroup</title>
<path fill="none" stroke="black" d="M1913.01,-346.52C1835.62,-317.84 1665.57,-254.83 1581.31,-223.61"/>
<polygon fill="black" stroke="black" points="1582.31,-220.24 1571.72,-220.05 1579.88,-226.81 1582.31,-220.24"/>
</g>
<!-- AbelianGroup_abgroup_trivial&#45;&gt;AbelianGroup_AbGroup -->
<g id="edge38" class="edge">
<title>AbelianGroup_abgroup_trivial&#45;&gt;AbelianGroup_AbGroup</title>
<path fill="none" stroke="black" d="M1982.41,-345.28C2038.01,-312.94 2148.53,-237.99 2097,-178.33 2002.77,-69.23 1539.75,-60.87 1370.28,-61.55"/>
<polygon fill="black" stroke="black" points="1370.25,-58.05 1360.27,-61.6 1370.29,-65.05 1370.25,-58.05"/>
</g>
<!-- AbelianGroup_hasequivs_abgroup -->
<g id="node19" class="node">
<title>AbelianGroup_hasequivs_abgroup</title>
<g id="a_node19"><a xlink:href="AbelianGroup.html#hasequivs_abgroup" xlink:title="hasequivs_abgroup">
<ellipse fill="#f070d1" stroke="black" cx="1271" cy="-835.33" rx="100.18" ry="18"/>
<ellipse fill="none" stroke="black" cx="1271" cy="-835.33" rx="104.18" ry="22"/>
<ellipse fill="none" stroke="black" cx="1271" cy="-835.33" rx="108.18" ry="26"/>
<text text-anchor="middle" x="1271" y="-831.63" font-family="Times,serif" font-size="14.00">hasequivs_abgroup</text>
</a>
</g>
</g>
<!-- AbelianGroup_hasequivs_abgroup&#45;&gt;AbelianGroup_is1cat_abgroup -->
<g id="edge39" class="edge">
<title>AbelianGroup_hasequivs_abgroup&#45;&gt;AbelianGroup_is1cat_abgroup</title>
<path fill="none" stroke="black" d="M1263.29,-809.27C1254.52,-780.76 1240.25,-734.4 1231.26,-705.17"/>
<polygon fill="black" stroke="black" points="1234.6,-704.14 1228.32,-695.61 1227.91,-706.19 1234.6,-704.14"/>
</g>
<!-- AbelianGroup_hasmorext_abgroup -->
<g id="node20" class="node">
<title>AbelianGroup_hasmorext_abgroup</title>
<g id="a_node20"><a xlink:href="AbelianGroup.html#hasmorext_abgroup" xlink:title="hasmorext_abgroup">
<ellipse fill="#f070d1" stroke="black" cx="1034" cy="-835.33" rx="102.87" ry="18"/>
<ellipse fill="none" stroke="black" cx="1034" cy="-835.33" rx="106.88" ry="22"/>
<ellipse fill="none" stroke="black" cx="1034" cy="-835.33" rx="110.88" ry="26"/>
<text text-anchor="middle" x="1034" y="-831.63" font-family="Times,serif" font-size="14.00">hasmorext_abgroup</text>
</a>
</g>
</g>
<!-- AbelianGroup_hasmorext_abgroup&#45;&gt;AbelianGroup_is1cat_abgroup -->
<g id="edge40" class="edge">
<title>AbelianGroup_hasmorext_abgroup&#45;&gt;AbelianGroup_is1cat_abgroup</title>
<path fill="none" stroke="black" d="M1063.53,-809.96C1099.48,-780.29 1159.73,-730.55 1194.98,-701.46"/>
<polygon fill="black" stroke="black" points="1197.47,-703.94 1202.95,-694.88 1193.01,-698.55 1197.47,-703.94"/>
</g>
<!-- AbelianGroup_is1cat_abgroup&#45;&gt;AbelianGroup_is01cat_AbGroup -->
<g id="edge41" class="edge">
<title>AbelianGroup_is1cat_abgroup&#45;&gt;AbelianGroup_is01cat_AbGroup</title>
<path fill="none" stroke="black" d="M1203.74,-659.64C1171.61,-631.8 1107.01,-575.8 1070.24,-543.94"/>
<polygon fill="black" stroke="black" points="1072.25,-541.05 1062.4,-537.14 1067.66,-546.34 1072.25,-541.05"/>
</g>
<!-- AbelianGroup_is0gpd_GroupHomomorphism -->
<g id="node22" class="node">
<title>AbelianGroup_is0gpd_GroupHomomorphism</title>
<g id="a_node22"><a xlink:href="AbelianGroup.html#is0gpd_GroupHomomorphism" xlink:title="is0gpd_GroupHomomorphism">
<ellipse fill="#f070d1" stroke="black" cx="1480" cy="-677.33" rx="149.47" ry="18"/>
<ellipse fill="none" stroke="black" cx="1480" cy="-677.33" rx="153.47" ry="22"/>
<ellipse fill="none" stroke="black" cx="1480" cy="-677.33" rx="157.47" ry="26"/>
<text text-anchor="middle" x="1480" y="-673.63" font-family="Times,serif" font-size="14.00">is0gpd_GroupHomomorphism</text>
</a>
</g>
</g>
<!-- AbelianGroup_is01cat_GroupHomomorphism -->
<g id="node23" class="node">
<title>AbelianGroup_is01cat_GroupHomomorphism</title>
<g id="a_node23"><a xlink:href="AbelianGroup.html#is01cat_GroupHomomorphism" xlink:title="is01cat_GroupHomomorphism">
<ellipse fill="#f070d1" stroke="black" cx="1302" cy="-519.33" rx="151.37" ry="18"/>
<text text-anchor="middle" x="1302" y="-515.63" font-family="Times,serif" font-size="14.00">is01cat_GroupHomomorphism</text>
</a>
</g>
</g>
<!-- AbelianGroup_is0gpd_GroupHomomorphism&#45;&gt;AbelianGroup_is01cat_GroupHomomorphism -->
<g id="edge42" class="edge">
<title>AbelianGroup_is0gpd_GroupHomomorphism&#45;&gt;AbelianGroup_is01cat_GroupHomomorphism</title>
<path fill="none" stroke="black" d="M1451.8,-651.61C1418.18,-622.15 1362.39,-573.26 1329.22,-544.18"/>
<polygon fill="black" stroke="black" points="1331.12,-541.2 1321.3,-537.24 1326.51,-546.47 1331.12,-541.2"/>
</g>
<!-- AbelianGroup_is01cat_GroupHomomorphism&#45;&gt;AbelianGroup_isgraph_abgroup -->
<g id="edge43" class="edge">
<title>AbelianGroup_is01cat_GroupHomomorphism&#45;&gt;AbelianGroup_isgraph_abgroup</title>
<path fill="none" stroke="black" d="M1269.04,-501.75C1212.36,-473.22 1096.58,-414.95 1034.86,-383.9"/>
<polygon fill="black" stroke="black" points="1036.31,-380.71 1025.8,-379.34 1033.16,-386.96 1036.31,-380.71"/>
</g>
<!-- AbelianGroup_is01cat_AbGroup&#45;&gt;AbelianGroup_isgraph_abgroup -->
<g id="edge44" class="edge">
<title>AbelianGroup_is01cat_AbGroup&#45;&gt;AbelianGroup_isgraph_abgroup</title>
<path fill="none" stroke="black" d="M1037.57,-501.15C1029.07,-474.27 1012.56,-422.04 1002.48,-390.17"/>
<polygon fill="black" stroke="black" points="1005.81,-389.07 999.46,-380.59 999.13,-391.18 1005.81,-389.07"/>
</g>
<!-- AbelianGroup_abgroup_group -->
<g id="node33" class="node">
<title>AbelianGroup_abgroup_group</title>
<g id="a_node33"><a xlink:href="AbelianGroup.html#abgroup_group" xlink:title="abgroup_group">
<ellipse fill="#f070d1" stroke="black" cx="1103" cy="-204.33" rx="81.49" ry="18"/>
<text text-anchor="middle" x="1103" y="-200.63" font-family="Times,serif" font-size="14.00">abgroup_group</text>
</a>
</g>
</g>
<!-- AbelianGroup_isgraph_abgroup&#45;&gt;AbelianGroup_abgroup_group -->
<g id="edge45" class="edge">
<title>AbelianGroup_isgraph_abgroup&#45;&gt;AbelianGroup_abgroup_group</title>
<path fill="none" stroke="black" d="M1005.87,-344.34C1025.04,-316.91 1062.9,-262.72 1085.27,-230.71"/>
<polygon fill="black" stroke="black" points="1088.28,-232.51 1091.14,-222.3 1082.55,-228.5 1088.28,-232.51"/>
</g>
<!-- AbelianGroup_equiv_quotient_abgroup_ump -->
<g id="node26" class="node">
<title>AbelianGroup_equiv_quotient_abgroup_ump</title>
<g id="a_node26"><a xlink:href="AbelianGroup.html#equiv_quotient_abgroup_ump" xlink:title="equiv_quotient_abgroup_ump">
<ellipse fill="#f070d1" stroke="black" cx="2026" cy="-677.33" rx="147.57" ry="18"/>
<ellipse fill="none" stroke="black" cx="2026" cy="-677.33" rx="151.57" ry="22"/>
<ellipse fill="none" stroke="black" cx="2026" cy="-677.33" rx="155.57" ry="26"/>
<text text-anchor="middle" x="2026" y="-673.63" font-family="Times,serif" font-size="14.00">equiv_quotient_abgroup_ump</text>
</a>
</g>
</g>
<!-- AbelianGroup_equiv_quotient_abgroup_ump&#45;&gt;AbelianGroup_QuotientAbGroup -->
<g id="edge46" class="edge">
<title>AbelianGroup_equiv_quotient_abgroup_ump&#45;&gt;AbelianGroup_QuotientAbGroup</title>
<path fill="none" stroke="black" d="M1983.8,-652.13C1930.98,-621.84 1841.36,-570.44 1791.07,-541.59"/>
<polygon fill="black" stroke="black" points="1792.57,-538.42 1782.15,-536.48 1789.09,-544.49 1792.57,-538.42"/>
</g>
<!-- AbelianGroup_isabgroup_quotient -->
<g id="node28" class="node">
<title>AbelianGroup_isabgroup_quotient</title>
<g id="a_node28"><a xlink:href="AbelianGroup.html#isabgroup_quotient" xlink:title="isabgroup_quotient">
<ellipse fill="#f070d1" stroke="black" cx="1753" cy="-362.33" rx="100.98" ry="18"/>
<text text-anchor="middle" x="1753" y="-358.63" font-family="Times,serif" font-size="14.00">isabgroup_quotient</text>
</a>
</g>
</g>
<!-- AbelianGroup_QuotientAbGroup&#45;&gt;AbelianGroup_isabgroup_quotient -->
<g id="edge47" class="edge">
<title>AbelianGroup_QuotientAbGroup&#45;&gt;AbelianGroup_isabgroup_quotient</title>
<path fill="none" stroke="black" d="M1753.89,-501.15C1753.72,-474.5 1753.38,-422.94 1753.18,-391"/>
<polygon fill="black" stroke="black" points="1756.68,-390.57 1753.11,-380.59 1749.68,-390.61 1756.68,-390.57"/>
</g>
<!-- AbelianGroup_QuotientAbGroup&#45;&gt;AbelianGroup_Build_AbGroup -->
<g id="edge48" class="edge">
<title>AbelianGroup_QuotientAbGroup&#45;&gt;AbelianGroup_Build_AbGroup</title>
<path fill="none" stroke="black" d="M1737.99,-501.4C1715.52,-477.27 1673.95,-431.14 1643,-388.33 1604.33,-334.84 1565.88,-267.48 1545.97,-231.25"/>
<polygon fill="black" stroke="black" points="1548.95,-229.41 1541.09,-222.31 1542.81,-232.76 1548.95,-229.41"/>
</g>
<!-- AbelianGroup_isnormal_ab_subgroup -->
<g id="node29" class="node">
<title>AbelianGroup_isnormal_ab_subgroup</title>
<g id="a_node29"><a xlink:href="AbelianGroup.html#isnormal_ab_subgroup" xlink:title="isnormal_ab_subgroup">
<ellipse fill="#f070d1" stroke="black" cx="1973" cy="-204.33" rx="115.08" ry="18"/>
<text text-anchor="middle" x="1973" y="-200.63" font-family="Times,serif" font-size="14.00">isnormal_ab_subgroup</text>
</a>
</g>
</g>
<!-- AbelianGroup_isabgroup_quotient&#45;&gt;AbelianGroup_isnormal_ab_subgroup -->
<g id="edge49" class="edge">
<title>AbelianGroup_isabgroup_quotient&#45;&gt;AbelianGroup_isnormal_ab_subgroup</title>
<path fill="none" stroke="black" d="M1776.54,-344.64C1816.22,-316.5 1896.43,-259.63 1941.12,-227.94"/>
<polygon fill="black" stroke="black" points="1943.16,-230.78 1949.29,-222.14 1939.11,-225.07 1943.16,-230.78"/>
</g>
<!-- AbelianGroup_isnormal_ab_subgroup&#45;&gt;AbelianGroup_AbGroup -->
<g id="edge50" class="edge">
<title>AbelianGroup_isnormal_ab_subgroup&#45;&gt;AbelianGroup_AbGroup</title>
<path fill="none" stroke="black" d="M1907.72,-189.49C1776.24,-161.61 1481.79,-99.18 1361.12,-73.6"/>
<polygon fill="black" stroke="black" points="1361.53,-70.11 1351.02,-71.46 1360.08,-76.95 1361.53,-70.11"/>
</g>
<!-- AbelianGroup_isabgroup_subgroup&#45;&gt;AbelianGroup_AbGroup -->
<g id="edge51" class="edge">
<title>AbelianGroup_isabgroup_subgroup&#45;&gt;AbelianGroup_AbGroup</title>
<path fill="none" stroke="black" d="M1308,-186.32C1308,-162.29 1308,-118.15 1308,-89.53"/>
<polygon fill="black" stroke="black" points="1311.5,-89.4 1308,-79.4 1304.5,-89.4 1311.5,-89.4"/>
</g>
<!-- AbelianGroup_isabgroup_abgroup -->
<g id="node31" class="node">
<title>AbelianGroup_isabgroup_abgroup</title>
<g id="a_node31"><a xlink:href="AbelianGroup.html#isabgroup_abgroup" xlink:title="isabgroup_abgroup">
<ellipse fill="#f070d1" stroke="black" cx="876" cy="-204.33" rx="100.18" ry="18"/>
<ellipse fill="none" stroke="black" cx="876" cy="-204.33" rx="104.18" ry="22"/>
<ellipse fill="none" stroke="black" cx="876" cy="-204.33" rx="108.18" ry="26"/>
<text text-anchor="middle" x="876" y="-200.63" font-family="Times,serif" font-size="14.00">isabgroup_abgroup</text>
</a>
</g>
</g>
<!-- AbelianGroup_isabgroup_abgroup&#45;&gt;AbelianGroup_AbGroup -->
<g id="edge52" class="edge">
<title>AbelianGroup_isabgroup_abgroup&#45;&gt;AbelianGroup_AbGroup</title>
<path fill="none" stroke="black" d="M938.36,-182.98C1026.08,-154.35 1183.91,-102.83 1261.86,-77.39"/>
<polygon fill="black" stroke="black" points="1262.99,-80.7 1271.41,-74.27 1260.82,-74.05 1262.99,-80.7"/>
</g>
<!-- AbelianGroup_abgroup_commutative -->
<g id="node32" class="node">
<title>AbelianGroup_abgroup_commutative</title>
<g id="a_node32"><a xlink:href="AbelianGroup.html#abgroup_commutative" xlink:title="abgroup_commutative">
<ellipse fill="#f070d1" stroke="black" cx="628" cy="-204.33" rx="114.29" ry="18"/>
<ellipse fill="none" stroke="black" cx="628" cy="-204.33" rx="118.28" ry="22"/>
<ellipse fill="none" stroke="black" cx="628" cy="-204.33" rx="122.28" ry="26"/>
<text text-anchor="middle" x="628" y="-200.63" font-family="Times,serif" font-size="14.00">abgroup_commutative</text>
</a>
</g>
</g>
<!-- AbelianGroup_abgroup_commutative&#45;&gt;AbelianGroup_AbGroup -->
<g id="edge53" class="edge">
<title>AbelianGroup_abgroup_commutative&#45;&gt;AbelianGroup_AbGroup</title>
<path fill="none" stroke="black" d="M713.43,-185.62C855.72,-156.12 1137.16,-97.76 1254.59,-73.41"/>
<polygon fill="black" stroke="black" points="1255.35,-76.82 1264.43,-71.37 1253.93,-69.97 1255.35,-76.82"/>
</g>
<!-- AbelianGroup_abgroup_group&#45;&gt;AbelianGroup_AbGroup -->
<g id="edge54" class="edge">
<title>AbelianGroup_abgroup_group&#45;&gt;AbelianGroup_AbGroup</title>
<path fill="none" stroke="black" d="M1126.92,-186.88C1164.19,-161.25 1236.11,-111.78 1277.21,-83.51"/>
<polygon fill="black" stroke="black" points="1279.23,-86.37 1285.49,-77.82 1275.26,-80.6 1279.23,-86.37"/>
</g>
<!-- AbelianGroup_AbGroup_sind -->
<g id="node34" class="node">
<title>AbelianGroup_AbGroup_sind</title>
<g id="a_node34"><a xlink:href="AbelianGroup.html#AbGroup_sind" xlink:title="AbGroup_sind">
<ellipse fill="#f070d1" stroke="black" cx="555" cy="-362.33" rx="75.3" ry="18"/>
<ellipse fill="none" stroke="black" cx="555" cy="-362.33" rx="79.29" ry="22"/>
<ellipse fill="none" stroke="black" cx="555" cy="-362.33" rx="83.29" ry="26"/>
<text text-anchor="middle" x="555" y="-358.63" font-family="Times,serif" font-size="14.00">AbGroup_sind</text>
</a>
</g>
</g>
<!-- AbelianGroup_AbGroup_sind&#45;&gt;AbelianGroup_Build_AbGroup -->
<g id="edge55" class="edge">
<title>AbelianGroup_AbGroup_sind&#45;&gt;AbelianGroup_Build_AbGroup</title>
<path fill="none" stroke="black" d="M628.27,-349.79C655.49,-345.52 686.65,-340.67 715,-336.33 1029.08,-288.25 1109.75,-289.14 1422,-230.33 1437.47,-227.42 1454.07,-223.87 1469.57,-220.37"/>
<polygon fill="black" stroke="black" points="1470.6,-223.73 1479.57,-218.09 1469.04,-216.9 1470.6,-223.73"/>
</g>
<!-- AbelianGroup_AbGroup_sind&#45;&gt;AbelianGroup_AbGroup -->
<g id="edge56" class="edge">
<title>AbelianGroup_AbGroup_sind&#45;&gt;AbelianGroup_AbGroup</title>
<path fill="none" stroke="black" d="M534.28,-337.04C504.36,-298.93 456.82,-224.66 497,-178.33 546.27,-121.51 1067.78,-79.4 1247.52,-66.48"/>
<polygon fill="black" stroke="black" points="1247.87,-69.96 1257.59,-65.76 1247.37,-62.98 1247.87,-69.96"/>
</g>
<!-- AbelianGroup_AbGroup_rec -->
<g id="node35" class="node">
<title>AbelianGroup_AbGroup_rec</title>
<g id="a_node35"><a xlink:href="AbelianGroup.html#AbGroup_rec" xlink:title="AbGroup_rec">
<ellipse fill="#f070d1" stroke="black" cx="2123" cy="-519.33" rx="70.7" ry="18"/>
<ellipse fill="none" stroke="black" cx="2123" cy="-519.33" rx="74.7" ry="22"/>
<ellipse fill="none" stroke="black" cx="2123" cy="-519.33" rx="78.69" ry="26"/>
<text text-anchor="middle" x="2123" y="-515.63" font-family="Times,serif" font-size="14.00">AbGroup_rec</text>
</a>
</g>
</g>
<!-- AbelianGroup_AbGroup_rect -->
<g id="node37" class="node">
<title>AbelianGroup_AbGroup_rect</title>
<g id="a_node37"><a xlink:href="AbelianGroup.html#AbGroup_rect" xlink:title="AbGroup_rect">
<ellipse fill="#f070d1" stroke="black" cx="2127" cy="-362.33" rx="74.99" ry="18"/>
<text text-anchor="middle" x="2127" y="-358.63" font-family="Times,serif" font-size="14.00">AbGroup_rect</text>
</a>
</g>
</g>
<!-- AbelianGroup_AbGroup_rec&#45;&gt;AbelianGroup_AbGroup_rect -->
<g id="edge57" class="edge">
<title>AbelianGroup_AbGroup_rec&#45;&gt;AbelianGroup_AbGroup_rect</title>
<path fill="none" stroke="black" d="M2123.65,-493.08C2124.38,-464.94 2125.55,-419.59 2126.3,-390.64"/>
<polygon fill="black" stroke="black" points="2129.8,-390.5 2126.56,-380.41 2122.8,-390.32 2129.8,-390.5"/>
</g>
<!-- AbelianGroup_AbGroup_ind -->
<g id="node36" class="node">
<title>AbelianGroup_AbGroup_ind</title>
<g id="a_node36"><a xlink:href="AbelianGroup.html#AbGroup_ind" xlink:title="AbGroup_ind">
<ellipse fill="#7fffd4" stroke="black" cx="1438" cy="-362.33" rx="70.7" ry="18"/>
<ellipse fill="none" stroke="black" cx="1438" cy="-362.33" rx="74.7" ry="22"/>
<ellipse fill="none" stroke="black" cx="1438" cy="-362.33" rx="78.69" ry="26"/>
<text text-anchor="middle" x="1438" y="-358.63" font-family="Times,serif" font-size="14.00">AbGroup_ind</text>
</a>
</g>
</g>
<!-- AbelianGroup_AbGroup_ind&#45;&gt;AbelianGroup_Build_AbGroup -->
<g id="edge58" class="edge">
<title>AbelianGroup_AbGroup_ind&#45;&gt;AbelianGroup_Build_AbGroup</title>
<path fill="none" stroke="black" d="M1452.89,-336.61C1470.27,-307.78 1498.87,-260.32 1516.5,-231.06"/>
<polygon fill="black" stroke="black" points="1519.65,-232.61 1521.81,-222.24 1513.65,-229 1519.65,-232.61"/>
</g>
<!-- AbelianGroup_AbGroup_ind&#45;&gt;AbelianGroup_AbGroup -->
<g id="edge59" class="edge">
<title>AbelianGroup_AbGroup_ind&#45;&gt;AbelianGroup_AbGroup</title>
<path fill="none" stroke="black" d="M1440.96,-336.31C1444.18,-299.76 1446.03,-230.47 1422,-178.33 1403.68,-138.59 1365.77,-104.46 1338.69,-83.71"/>
<polygon fill="black" stroke="black" points="1340.78,-80.89 1330.67,-77.7 1336.58,-86.5 1340.78,-80.89"/>
</g>
<!-- AbelianGroup_AbGroup_rect&#45;&gt;AbelianGroup_Build_AbGroup -->
<g id="edge60" class="edge">
<title>AbelianGroup_AbGroup_rect&#45;&gt;AbelianGroup_Build_AbGroup</title>
<path fill="none" stroke="black" d="M2082.64,-347.74C2069.87,-343.94 2055.91,-339.87 2043,-336.33 1856.51,-285.18 1807.88,-280.04 1621,-230.33 1610.77,-227.61 1599.91,-224.64 1589.42,-221.71"/>
<polygon fill="black" stroke="black" points="1590.08,-218.26 1579.51,-218.94 1588.19,-225.01 1590.08,-218.26"/>
</g>
<!-- AbelianGroup_AbGroup_rect&#45;&gt;AbelianGroup_AbGroup -->
<g id="edge61" class="edge">
<title>AbelianGroup_AbGroup_rect&#45;&gt;AbelianGroup_AbGroup</title>
<path fill="none" stroke="black" d="M2131.32,-344.16C2139.28,-308.05 2151.69,-223.84 2108,-178.33 2006.73,-72.87 1540.32,-62.24 1370.26,-61.93"/>
<polygon fill="black" stroke="black" points="1370.22,-58.43 1360.22,-61.93 1370.21,-65.43 1370.22,-58.43"/>
</g>
</g>
</svg>
