<?xml version="1.0" encoding="UTF-8" standalone="no"?>
<!DOCTYPE svg PUBLIC "-//W3C//DTD SVG 1.1//EN"
 "http://www.w3.org/Graphics/SVG/1.1/DTD/svg11.dtd">
<!-- Generated by graphviz version 2.43.0 (0)
 -->
<!-- Title: HoTT_Algebra_Rings_Z Pages: 1 -->
<svg width="1086pt" height="547pt"
 viewBox="0.00 0.00 1086.00 547.00" xmlns="http://www.w3.org/2000/svg" xmlns:xlink="http://www.w3.org/1999/xlink">
<g id="graph0" class="graph" transform="scale(1 1) rotate(0) translate(4 543)">
<title>HoTT_Algebra_Rings_Z</title>
<polygon fill="white" stroke="transparent" points="-4,4 -4,-543 1082,-543 1082,4 -4,4"/>
<g id="clust1" class="cluster">
<title>cluster_Z</title>
<polygon fill="#ffffc3" stroke="black" points="12.08,-8 12.08,-531 1065.92,-531 1065.92,-8 12.08,-8"/>
<text text-anchor="middle" x="25.08" y="-515.8" font-family="Times,serif" font-size="14.00">Z</text>
</g>
<!-- Z_isinitial_cring_Z -->
<g id="node1" class="node">
<title>Z_isinitial_cring_Z</title>
<g id="a_node1"><a xlink:href="Z.html#isinitial_cring_Z" xlink:title="isinitial_cring_Z">
<ellipse fill="#f070d1" stroke="black" cx="635.86" cy="-474" rx="84.49" ry="18"/>
<ellipse fill="none" stroke="black" cx="635.86" cy="-474" rx="88.49" ry="22"/>
<ellipse fill="none" stroke="black" cx="635.86" cy="-474" rx="92.49" ry="26"/>
<text text-anchor="middle" x="635.86" y="-470.3" font-family="Times,serif" font-size="14.00">isinitial_cring_Z</text>
</a>
</g>
</g>
<!-- Z_rng_homo_int -->
<g id="node2" class="node">
<title>Z_rng_homo_int</title>
<g id="a_node2"><a xlink:href="Z.html#rng_homo_int" xlink:title="rng_homo_int">
<ellipse fill="#f070d1" stroke="black" cx="635.86" cy="-394" rx="73.39" ry="18"/>
<text text-anchor="middle" x="635.86" y="-390.3" font-family="Times,serif" font-size="14.00">rng_homo_int</text>
</a>
</g>
</g>
<!-- Z_isinitial_cring_Z&#45;&gt;Z_rng_homo_int -->
<g id="edge1" class="edge">
<title>Z_isinitial_cring_Z&#45;&gt;Z_rng_homo_int</title>
<path fill="none" stroke="black" d="M635.86,-447.89C635.86,-439.84 635.86,-430.88 635.86,-422.66"/>
<polygon fill="black" stroke="black" points="639.36,-422.41 635.86,-412.41 632.36,-422.41 639.36,-422.41"/>
</g>
<!-- Z_issemigrouppreserving_cring_catamorphism_fun_mult -->
<g id="node3" class="node">
<title>Z_issemigrouppreserving_cring_catamorphism_fun_mult</title>
<g id="a_node3"><a xlink:href="Z.html#issemigrouppreserving_cring_catamorphism_fun_mult" xlink:title="issemigrouppreserving_cring_catamorphism_fun_mult">
<ellipse fill="#f070d1" stroke="black" cx="635.86" cy="-322" rx="262.65" ry="18"/>
<text text-anchor="middle" x="635.86" y="-318.3" font-family="Times,serif" font-size="14.00">issemigrouppreserving_cring_catamorphism_fun_mult</text>
</a>
</g>
</g>
<!-- Z_rng_homo_int&#45;&gt;Z_issemigrouppreserving_cring_catamorphism_fun_mult -->
<g id="edge2" class="edge">
<title>Z_rng_homo_int&#45;&gt;Z_issemigrouppreserving_cring_catamorphism_fun_mult</title>
<path fill="none" stroke="black" d="M635.86,-375.7C635.86,-367.98 635.86,-358.71 635.86,-350.11"/>
<polygon fill="black" stroke="black" points="639.36,-350.1 635.86,-340.1 632.36,-350.1 639.36,-350.1"/>
</g>
<!-- Z_cring_catamorphism_fun_pos_mult -->
<g id="node4" class="node">
<title>Z_cring_catamorphism_fun_pos_mult</title>
<g id="a_node4"><a xlink:href="Z.html#cring_catamorphism_fun_pos_mult" xlink:title="cring_catamorphism_fun_pos_mult">
<ellipse fill="#f070d1" stroke="black" cx="281.86" cy="-250" rx="170.87" ry="18"/>
<text text-anchor="middle" x="281.86" y="-246.3" font-family="Times,serif" font-size="14.00">cring_catamorphism_fun_pos_mult</text>
</a>
</g>
</g>
<!-- Z_issemigrouppreserving_cring_catamorphism_fun_mult&#45;&gt;Z_cring_catamorphism_fun_pos_mult -->
<g id="edge3" class="edge">
<title>Z_issemigrouppreserving_cring_catamorphism_fun_mult&#45;&gt;Z_cring_catamorphism_fun_pos_mult</title>
<path fill="none" stroke="black" d="M554.2,-304.85C498.54,-293.84 424.93,-279.29 368.28,-268.09"/>
<polygon fill="black" stroke="black" points="368.76,-264.61 358.27,-266.11 367.4,-271.48 368.76,-264.61"/>
</g>
<!-- Z_cring_catamorphism_fun_negate -->
<g id="node5" class="node">
<title>Z_cring_catamorphism_fun_negate</title>
<g id="a_node5"><a xlink:href="Z.html#cring_catamorphism_fun_negate" xlink:title="cring_catamorphism_fun_negate">
<ellipse fill="#f070d1" stroke="black" cx="810.86" cy="-250" rx="161.37" ry="18"/>
<text text-anchor="middle" x="810.86" y="-246.3" font-family="Times,serif" font-size="14.00">cring_catamorphism_fun_negate</text>
</a>
</g>
</g>
<!-- Z_issemigrouppreserving_cring_catamorphism_fun_mult&#45;&gt;Z_cring_catamorphism_fun_negate -->
<g id="edge4" class="edge">
<title>Z_issemigrouppreserving_cring_catamorphism_fun_mult&#45;&gt;Z_cring_catamorphism_fun_negate</title>
<path fill="none" stroke="black" d="M678.23,-304.05C703,-294.14 734.42,-281.58 760.47,-271.16"/>
<polygon fill="black" stroke="black" points="761.81,-274.39 769.8,-267.43 759.21,-267.89 761.81,-274.39"/>
</g>
<!-- Z_issemigrouppreserving_cring_catamorphism_fun_plus -->
<g id="node6" class="node">
<title>Z_issemigrouppreserving_cring_catamorphism_fun_plus</title>
<g id="a_node6"><a xlink:href="Z.html#issemigrouppreserving_cring_catamorphism_fun_plus" xlink:title="issemigrouppreserving_cring_catamorphism_fun_plus">
<ellipse fill="#f070d1" stroke="black" cx="496.86" cy="-178" rx="260.75" ry="18"/>
<text text-anchor="middle" x="496.86" y="-174.3" font-family="Times,serif" font-size="14.00">issemigrouppreserving_cring_catamorphism_fun_plus</text>
</a>
</g>
</g>
<!-- Z_cring_catamorphism_fun_pos_mult&#45;&gt;Z_issemigrouppreserving_cring_catamorphism_fun_plus -->
<g id="edge5" class="edge">
<title>Z_cring_catamorphism_fun_pos_mult&#45;&gt;Z_issemigrouppreserving_cring_catamorphism_fun_plus</title>
<path fill="none" stroke="black" d="M331.73,-232.76C362.78,-222.66 402.93,-209.58 435.87,-198.86"/>
<polygon fill="black" stroke="black" points="436.97,-202.18 445.4,-195.76 434.81,-195.52 436.97,-202.18"/>
</g>
<!-- Z_cring_catamorphism_fun_negate&#45;&gt;Z_issemigrouppreserving_cring_catamorphism_fun_plus -->
<g id="edge6" class="edge">
<title>Z_cring_catamorphism_fun_negate&#45;&gt;Z_issemigrouppreserving_cring_catamorphism_fun_plus</title>
<path fill="none" stroke="black" d="M741.95,-233.64C694.23,-223 630.44,-208.78 579.91,-197.51"/>
<polygon fill="black" stroke="black" points="580.51,-194.06 569.98,-195.3 578.98,-200.89 580.51,-194.06"/>
</g>
<!-- Z_isequiv_group_left_op -->
<g id="node8" class="node">
<title>Z_isequiv_group_left_op</title>
<g id="a_node8"><a xlink:href="Z.html#isequiv_group_left_op" xlink:title="isequiv_group_left_op">
<ellipse fill="#f070d1" stroke="black" cx="336.86" cy="-106" rx="111.28" ry="18"/>
<text text-anchor="middle" x="336.86" y="-102.3" font-family="Times,serif" font-size="14.00">isequiv_group_left_op</text>
</a>
</g>
</g>
<!-- Z_issemigrouppreserving_cring_catamorphism_fun_plus&#45;&gt;Z_isequiv_group_left_op -->
<g id="edge7" class="edge">
<title>Z_issemigrouppreserving_cring_catamorphism_fun_plus&#45;&gt;Z_isequiv_group_left_op</title>
<path fill="none" stroke="black" d="M458.13,-160.05C435.43,-150.12 406.63,-137.52 382.79,-127.09"/>
<polygon fill="black" stroke="black" points="384.15,-123.87 373.59,-123.07 381.35,-130.28 384.15,-123.87"/>
</g>
<!-- Z_cring_catamorphism_fun -->
<g id="node9" class="node">
<title>Z_cring_catamorphism_fun</title>
<g id="a_node9"><a xlink:href="Z.html#cring_catamorphism_fun" xlink:title="cring_catamorphism_fun">
<ellipse fill="#f070d1" stroke="black" cx="719.86" cy="-106" rx="124.58" ry="18"/>
<text text-anchor="middle" x="719.86" y="-102.3" font-family="Times,serif" font-size="14.00">cring_catamorphism_fun</text>
</a>
</g>
</g>
<!-- Z_issemigrouppreserving_cring_catamorphism_fun_plus&#45;&gt;Z_cring_catamorphism_fun -->
<g id="edge8" class="edge">
<title>Z_issemigrouppreserving_cring_catamorphism_fun_plus&#45;&gt;Z_cring_catamorphism_fun</title>
<path fill="none" stroke="black" d="M549.99,-160.32C583.18,-149.91 625.96,-136.48 660.29,-125.7"/>
<polygon fill="black" stroke="black" points="661.7,-128.93 670.19,-122.59 659.61,-122.25 661.7,-128.93"/>
</g>
<!-- Z_isequiv_group_right_op -->
<g id="node7" class="node">
<title>Z_isequiv_group_right_op</title>
<g id="a_node7"><a xlink:href="Z.html#isequiv_group_right_op" xlink:title="isequiv_group_right_op">
<ellipse fill="#f070d1" stroke="black" cx="256.86" cy="-474" rx="118.09" ry="18"/>
<ellipse fill="none" stroke="black" cx="256.86" cy="-474" rx="122.09" ry="22"/>
<ellipse fill="none" stroke="black" cx="256.86" cy="-474" rx="126.08" ry="26"/>
<text text-anchor="middle" x="256.86" y="-470.3" font-family="Times,serif" font-size="14.00">isequiv_group_right_op</text>
</a>
</g>
</g>
<!-- Z_cring_Z -->
<g id="node10" class="node">
<title>Z_cring_Z</title>
<g id="a_node10"><a xlink:href="Z.html#cring_Z" xlink:title="cring_Z">
<ellipse fill="#f070d1" stroke="black" cx="719.86" cy="-34" rx="45.49" ry="18"/>
<text text-anchor="middle" x="719.86" y="-30.3" font-family="Times,serif" font-size="14.00">cring_Z</text>
</a>
</g>
</g>
<!-- Z_cring_catamorphism_fun&#45;&gt;Z_cring_Z -->
<g id="edge9" class="edge">
<title>Z_cring_catamorphism_fun&#45;&gt;Z_cring_Z</title>
<path fill="none" stroke="black" d="M719.86,-87.7C719.86,-79.98 719.86,-70.71 719.86,-62.11"/>
<polygon fill="black" stroke="black" points="723.36,-62.1 719.86,-52.1 716.36,-62.1 723.36,-62.1"/>
</g>
</g>
</svg>
