<?xml version="1.0" encoding="UTF-8" standalone="no"?>
<!DOCTYPE svg PUBLIC "-//W3C//DTD SVG 1.1//EN"
 "http://www.w3.org/Graphics/SVG/1.1/DTD/svg11.dtd">
<!-- Generated by graphviz version 2.43.0 (0)
 -->
<!-- Title: HoTT_Modalities_Lex Pages: 1 -->
<svg width="4585pt" height="2297pt"
 viewBox="0.00 0.00 4585.00 2296.50" xmlns="http://www.w3.org/2000/svg" xmlns:xlink="http://www.w3.org/1999/xlink">
<g id="graph0" class="graph" transform="scale(1 1) rotate(0) translate(4 2292.5)">
<title>HoTT_Modalities_Lex</title>
<polygon fill="white" stroke="transparent" points="-4,4 -4,-2292.5 4581,-2292.5 4581,4 -4,4"/>
<g id="clust1" class="cluster">
<title>cluster_Lex</title>
<polygon fill="#ffffc3" stroke="black" points="8,-44.55 8,-2243.95 4569,-2243.95 4569,-44.55 8,-44.55"/>
<text text-anchor="middle" x="29" y="-2228.75" font-family="Times,serif" font-size="14.00">Lex</text>
</g>
<!-- Lex_lex_gen -->
<g id="node1" class="node">
<title>Lex_lex_gen</title>
<g id="a_node1"><a xlink:href="Lex.html#lex_gen" xlink:title="lex_gen">
<ellipse fill="#f070d1" stroke="black" cx="4507" cy="-1926.55" rx="46.27" ry="18"/>
<ellipse fill="none" stroke="black" cx="4507" cy="-1926.55" rx="50.28" ry="22"/>
<ellipse fill="none" stroke="black" cx="4507" cy="-1926.55" rx="54.29" ry="26"/>
<text text-anchor="middle" x="4507" y="-1922.85" font-family="Times,serif" font-size="14.00">lex_gen</text>
</a>
</g>
</g>
<!-- Lex_lex_from_inO_typeO -->
<g id="node8" class="node">
<title>Lex_lex_from_inO_typeO</title>
<g id="a_node8"><a xlink:href="Lex.html#lex_from_inO_typeO" xlink:title="lex_from_inO_typeO">
<ellipse fill="#f070d1" stroke="black" cx="4458" cy="-1436.55" rx="103.18" ry="18"/>
<text text-anchor="middle" x="4458" y="-1432.85" font-family="Times,serif" font-size="14.00">lex_from_inO_typeO</text>
</a>
</g>
</g>
<!-- Lex_lex_gen&#45;&gt;Lex_lex_from_inO_typeO -->
<g id="edge1" class="edge">
<title>Lex_lex_gen&#45;&gt;Lex_lex_from_inO_typeO</title>
<path fill="none" stroke="black" d="M4504.47,-1900.34C4496.11,-1817.05 4469.4,-1551.09 4460.74,-1464.84"/>
<polygon fill="black" stroke="black" points="4464.21,-1464.38 4459.73,-1454.78 4457.25,-1465.08 4464.21,-1464.38"/>
</g>
<!-- Lex_ismodality_isequiv_O_functor_hfiber -->
<g id="node2" class="node">
<title>Lex_ismodality_isequiv_O_functor_hfiber</title>
<g id="a_node2"><a xlink:href="Lex.html#ismodality_isequiv_O_functor_hfiber" xlink:title="ismodality_isequiv_O_functor_hfiber">
<ellipse fill="#f070d1" stroke="black" cx="4249" cy="-1926.55" rx="178.16" ry="18"/>
<ellipse fill="none" stroke="black" cx="4249" cy="-1926.55" rx="182.17" ry="22"/>
<ellipse fill="none" stroke="black" cx="4249" cy="-1926.55" rx="186.17" ry="26"/>
<text text-anchor="middle" x="4249" y="-1922.85" font-family="Times,serif" font-size="14.00">ismodality_isequiv_O_functor_hfiber</text>
</a>
</g>
</g>
<!-- Lex_lex_from_ispullback_connmap_mapino_commsq -->
<g id="node3" class="node">
<title>Lex_lex_from_ispullback_connmap_mapino_commsq</title>
<g id="a_node3"><a xlink:href="Lex.html#lex_from_ispullback_connmap_mapino_commsq" xlink:title="lex_from_ispullback_connmap_mapino_commsq">
<ellipse fill="#f070d1" stroke="black" cx="3807" cy="-1926.55" rx="229.36" ry="18"/>
<ellipse fill="none" stroke="black" cx="3807" cy="-1926.55" rx="233.36" ry="22"/>
<ellipse fill="none" stroke="black" cx="3807" cy="-1926.55" rx="237.36" ry="26"/>
<text text-anchor="middle" x="3807" y="-1922.85" font-family="Times,serif" font-size="14.00">lex_from_ispullback_connmap_mapino_commsq</text>
</a>
</g>
</g>
<!-- Lex_lex_from_isequiv_ismodal_isconnected_types -->
<g id="node4" class="node">
<title>Lex_lex_from_isequiv_ismodal_isconnected_types</title>
<g id="a_node4"><a xlink:href="Lex.html#lex_from_isequiv_ismodal_isconnected_types" xlink:title="lex_from_isequiv_ismodal_isconnected_types">
<ellipse fill="#f070d1" stroke="black" cx="3950" cy="-1436.55" rx="217.96" ry="18"/>
<text text-anchor="middle" x="3950" y="-1432.85" font-family="Times,serif" font-size="14.00">lex_from_isequiv_ismodal_isconnected_types</text>
</a>
</g>
</g>
<!-- Lex_lex_from_ispullback_connmap_mapino_commsq&#45;&gt;Lex_lex_from_isequiv_ismodal_isconnected_types -->
<g id="edge2" class="edge">
<title>Lex_lex_from_ispullback_connmap_mapino_commsq&#45;&gt;Lex_lex_from_isequiv_ismodal_isconnected_types</title>
<path fill="none" stroke="black" d="M3814.39,-1900.34C3838.82,-1816.96 3916.89,-1550.55 3942.08,-1464.57"/>
<polygon fill="black" stroke="black" points="3945.5,-1465.36 3944.95,-1454.78 3938.78,-1463.4 3945.5,-1465.36"/>
</g>
<!-- Lex_lex_from_conn_map_lex -->
<g id="node6" class="node">
<title>Lex_lex_from_conn_map_lex</title>
<g id="a_node6"><a xlink:href="Lex.html#lex_from_conn_map_lex" xlink:title="lex_from_conn_map_lex">
<ellipse fill="#f070d1" stroke="black" cx="3758" cy="-991.55" rx="119.68" ry="18"/>
<text text-anchor="middle" x="3758" y="-987.85" font-family="Times,serif" font-size="14.00">lex_from_conn_map_lex</text>
</a>
</g>
</g>
<!-- Lex_lex_from_isequiv_ismodal_isconnected_types&#45;&gt;Lex_lex_from_conn_map_lex -->
<g id="edge3" class="edge">
<title>Lex_lex_from_isequiv_ismodal_isconnected_types&#45;&gt;Lex_lex_from_conn_map_lex</title>
<path fill="none" stroke="black" d="M3942.59,-1418.45C3913.28,-1350.83 3805.32,-1101.71 3769.57,-1019.25"/>
<polygon fill="black" stroke="black" points="3772.68,-1017.61 3765.49,-1009.83 3766.26,-1020.39 3772.68,-1017.61"/>
</g>
<!-- Lex_lex_from_isconnected_paths -->
<g id="node5" class="node">
<title>Lex_lex_from_isconnected_paths</title>
<g id="a_node5"><a xlink:href="Lex.html#lex_from_isconnected_paths" xlink:title="lex_from_isconnected_paths">
<ellipse fill="#f070d1" stroke="black" cx="3566" cy="-1436.55" rx="140.28" ry="18"/>
<ellipse fill="none" stroke="black" cx="3566" cy="-1436.55" rx="144.28" ry="22"/>
<ellipse fill="none" stroke="black" cx="3566" cy="-1436.55" rx="148.28" ry="26"/>
<text text-anchor="middle" x="3566" y="-1432.85" font-family="Times,serif" font-size="14.00">lex_from_isconnected_paths</text>
</a>
</g>
</g>
<!-- Lex_lex_from_isconnected_paths&#45;&gt;Lex_lex_from_conn_map_lex -->
<g id="edge4" class="edge">
<title>Lex_lex_from_isconnected_paths&#45;&gt;Lex_lex_from_conn_map_lex</title>
<path fill="none" stroke="black" d="M3576.87,-1410.46C3610.42,-1333.05 3712.13,-1098.39 3746.5,-1019.07"/>
<polygon fill="black" stroke="black" points="3749.77,-1020.34 3750.54,-1009.77 3743.35,-1017.55 3749.77,-1020.34"/>
</g>
<!-- Lex_lex_from_cancelL_conn_map -->
<g id="node7" class="node">
<title>Lex_lex_from_cancelL_conn_map</title>
<g id="a_node7"><a xlink:href="Lex.html#lex_from_cancelL_conn_map" xlink:title="lex_from_cancelL_conn_map">
<ellipse fill="#f070d1" stroke="black" cx="3758" cy="-590.55" rx="141.07" ry="18"/>
<text text-anchor="middle" x="3758" y="-586.85" font-family="Times,serif" font-size="14.00">lex_from_cancelL_conn_map</text>
</a>
</g>
</g>
<!-- Lex_lex_from_conn_map_lex&#45;&gt;Lex_lex_from_cancelL_conn_map -->
<g id="edge5" class="edge">
<title>Lex_lex_from_conn_map_lex&#45;&gt;Lex_lex_from_cancelL_conn_map</title>
<path fill="none" stroke="black" d="M3758,-973.4C3758,-910.99 3758,-695.56 3758,-618.9"/>
<polygon fill="black" stroke="black" points="3761.5,-618.63 3758,-608.63 3754.5,-618.63 3761.5,-618.63"/>
</g>
<!-- Lex_lex_from_modal_over_connected_isconst -->
<g id="node9" class="node">
<title>Lex_lex_from_modal_over_connected_isconst</title>
<g id="a_node9"><a xlink:href="Lex.html#lex_from_modal_over_connected_isconst" xlink:title="lex_from_modal_over_connected_isconst">
<ellipse fill="#f070d1" stroke="black" cx="3758" cy="-189.55" rx="196.87" ry="18"/>
<text text-anchor="middle" x="3758" y="-185.85" font-family="Times,serif" font-size="14.00">lex_from_modal_over_connected_isconst</text>
</a>
</g>
</g>
<!-- Lex_lex_from_cancelL_conn_map&#45;&gt;Lex_lex_from_modal_over_connected_isconst -->
<g id="edge6" class="edge">
<title>Lex_lex_from_cancelL_conn_map&#45;&gt;Lex_lex_from_modal_over_connected_isconst</title>
<path fill="none" stroke="black" d="M3758,-572.4C3758,-509.99 3758,-294.56 3758,-217.9"/>
<polygon fill="black" stroke="black" points="3761.5,-217.63 3758,-207.63 3754.5,-217.63 3761.5,-217.63"/>
</g>
<!-- Lex_istrunc_O_lex -->
<g id="node10" class="node">
<title>Lex_istrunc_O_lex</title>
<g id="a_node10"><a xlink:href="Lex.html#istrunc_O_lex" xlink:title="istrunc_O_lex">
<ellipse fill="#f070d1" stroke="black" cx="3470" cy="-1926.55" rx="73.39" ry="18"/>
<ellipse fill="none" stroke="black" cx="3470" cy="-1926.55" rx="77.39" ry="22"/>
<ellipse fill="none" stroke="black" cx="3470" cy="-1926.55" rx="81.39" ry="26"/>
<text text-anchor="middle" x="3470" y="-1922.85" font-family="Times,serif" font-size="14.00">istrunc_O_lex</text>
</a>
</g>
</g>
<!-- Lex_equiv_path_O -->
<g id="node18" class="node">
<title>Lex_equiv_path_O</title>
<g id="a_node18"><a xlink:href="Lex.html#equiv_path_O" xlink:title="equiv_path_O">
<ellipse fill="#f070d1" stroke="black" cx="3326" cy="-1436.55" rx="73.39" ry="18"/>
<text text-anchor="middle" x="3326" y="-1432.85" font-family="Times,serif" font-size="14.00">equiv_path_O</text>
</a>
</g>
</g>
<!-- Lex_istrunc_O_lex&#45;&gt;Lex_equiv_path_O -->
<g id="edge7" class="edge">
<title>Lex_istrunc_O_lex&#45;&gt;Lex_equiv_path_O</title>
<path fill="none" stroke="black" d="M3462.56,-1900.34C3437.96,-1816.96 3359.35,-1550.55 3333.98,-1464.57"/>
<polygon fill="black" stroke="black" points="3337.27,-1463.38 3331.09,-1454.78 3330.56,-1465.37 3337.27,-1463.38"/>
</g>
<!-- Lex_inO_typeO_lex -->
<g id="node11" class="node">
<title>Lex_inO_typeO_lex</title>
<g id="a_node11"><a xlink:href="Lex.html#inO_typeO_lex" xlink:title="inO_typeO_lex">
<ellipse fill="#f070d1" stroke="black" cx="3285" cy="-1926.55" rx="77.2" ry="18"/>
<ellipse fill="none" stroke="black" cx="3285" cy="-1926.55" rx="81.19" ry="22"/>
<ellipse fill="none" stroke="black" cx="3285" cy="-1926.55" rx="85.19" ry="26"/>
<text text-anchor="middle" x="3285" y="-1922.85" font-family="Times,serif" font-size="14.00">inO_typeO_lex</text>
</a>
</g>
</g>
<!-- Lex_modal_over_connected_isconst_lex -->
<g id="node12" class="node">
<title>Lex_modal_over_connected_isconst_lex</title>
<g id="a_node12"><a xlink:href="Lex.html#modal_over_connected_isconst_lex" xlink:title="modal_over_connected_isconst_lex">
<ellipse fill="#f070d1" stroke="black" cx="3003" cy="-1926.55" rx="170.87" ry="18"/>
<ellipse fill="none" stroke="black" cx="3003" cy="-1926.55" rx="174.87" ry="22"/>
<ellipse fill="none" stroke="black" cx="3003" cy="-1926.55" rx="178.87" ry="26"/>
<text text-anchor="middle" x="3003" y="-1922.85" font-family="Times,serif" font-size="14.00">modal_over_connected_isconst_lex</text>
</a>
</g>
</g>
<!-- Lex_conn_map_O_inverts -->
<g id="node13" class="node">
<title>Lex_conn_map_O_inverts</title>
<g id="a_node13"><a xlink:href="Lex.html#conn_map_O_inverts" xlink:title="conn_map_O_inverts">
<ellipse fill="#f070d1" stroke="black" cx="2692" cy="-1926.55" rx="105.89" ry="18"/>
<ellipse fill="none" stroke="black" cx="2692" cy="-1926.55" rx="109.88" ry="22"/>
<ellipse fill="none" stroke="black" cx="2692" cy="-1926.55" rx="113.88" ry="26"/>
<text text-anchor="middle" x="2692" y="-1922.85" font-family="Times,serif" font-size="14.00">conn_map_O_inverts</text>
</a>
</g>
</g>
<!-- Lex_cancelL_conn_map -->
<g id="node14" class="node">
<title>Lex_cancelL_conn_map</title>
<g id="a_node14"><a xlink:href="Lex.html#cancelL_conn_map" xlink:title="cancelL_conn_map">
<ellipse fill="#f070d1" stroke="black" cx="2455" cy="-1926.55" rx="96.7" ry="18"/>
<ellipse fill="none" stroke="black" cx="2455" cy="-1926.55" rx="100.69" ry="22"/>
<ellipse fill="none" stroke="black" cx="2455" cy="-1926.55" rx="104.68" ry="26"/>
<text text-anchor="middle" x="2455" y="-1922.85" font-family="Times,serif" font-size="14.00">cancelL_conn_map</text>
</a>
</g>
</g>
<!-- Lex_O_functor_pullback -->
<g id="node15" class="node">
<title>Lex_O_functor_pullback</title>
<g id="a_node15"><a xlink:href="Lex.html#O_functor_pullback" xlink:title="O_functor_pullback">
<ellipse fill="#f070d1" stroke="black" cx="2225" cy="-1926.55" rx="99.39" ry="18"/>
<ellipse fill="none" stroke="black" cx="2225" cy="-1926.55" rx="103.38" ry="22"/>
<ellipse fill="none" stroke="black" cx="2225" cy="-1926.55" rx="107.38" ry="26"/>
<text text-anchor="middle" x="2225" y="-1922.85" font-family="Times,serif" font-size="14.00">O_functor_pullback</text>
</a>
</g>
</g>
<!-- Lex_O_inverts_functor_pullback_to_O -->
<g id="node17" class="node">
<title>Lex_O_inverts_functor_pullback_to_O</title>
<g id="a_node17"><a xlink:href="Lex.html#O_inverts_functor_pullback_to_O" xlink:title="O_inverts_functor_pullback_to_O">
<ellipse fill="#f070d1" stroke="black" cx="2225" cy="-1436.55" rx="161.67" ry="18"/>
<text text-anchor="middle" x="2225" y="-1432.85" font-family="Times,serif" font-size="14.00">O_inverts_functor_pullback_to_O</text>
</a>
</g>
</g>
<!-- Lex_O_functor_pullback&#45;&gt;Lex_O_inverts_functor_pullback_to_O -->
<g id="edge8" class="edge">
<title>Lex_O_functor_pullback&#45;&gt;Lex_O_inverts_functor_pullback_to_O</title>
<path fill="none" stroke="black" d="M2225,-1900.34C2225,-1817.05 2225,-1551.09 2225,-1464.84"/>
<polygon fill="black" stroke="black" points="2228.5,-1464.78 2225,-1454.78 2221.5,-1464.78 2228.5,-1464.78"/>
</g>
<!-- Lex_equiv_O_pullback -->
<g id="node16" class="node">
<title>Lex_equiv_O_pullback</title>
<g id="a_node16"><a xlink:href="Lex.html#equiv_O_pullback" xlink:title="equiv_O_pullback">
<ellipse fill="#f070d1" stroke="black" cx="2001" cy="-1926.55" rx="90.98" ry="18"/>
<ellipse fill="none" stroke="black" cx="2001" cy="-1926.55" rx="94.98" ry="22"/>
<ellipse fill="none" stroke="black" cx="2001" cy="-1926.55" rx="98.98" ry="26"/>
<text text-anchor="middle" x="2001" y="-1922.85" font-family="Times,serif" font-size="14.00">equiv_O_pullback</text>
</a>
</g>
</g>
<!-- Lex_isequiv_path_O -->
<g id="node19" class="node">
<title>Lex_isequiv_path_O</title>
<g id="a_node19"><a xlink:href="Lex.html#isequiv_path_O" xlink:title="isequiv_path_O">
<ellipse fill="#f070d1" stroke="black" cx="1795" cy="-1926.55" rx="81.46" ry="18"/>
<ellipse fill="none" stroke="black" cx="1795" cy="-1926.55" rx="85.48" ry="22"/>
<ellipse fill="none" stroke="black" cx="1795" cy="-1926.55" rx="89.49" ry="26"/>
<text text-anchor="middle" x="1795" y="-1922.85" font-family="Times,serif" font-size="14.00">isequiv_path_O</text>
</a>
</g>
</g>
<!-- Lex_equiv_O_functor_hfiber -->
<g id="node20" class="node">
<title>Lex_equiv_O_functor_hfiber</title>
<g id="a_node20"><a xlink:href="Lex.html#equiv_O_functor_hfiber" xlink:title="equiv_O_functor_hfiber">
<ellipse fill="#f070d1" stroke="black" cx="1562" cy="-1926.55" rx="117.77" ry="18"/>
<ellipse fill="none" stroke="black" cx="1562" cy="-1926.55" rx="121.77" ry="22"/>
<ellipse fill="none" stroke="black" cx="1562" cy="-1926.55" rx="125.78" ry="26"/>
<text text-anchor="middle" x="1562" y="-1922.85" font-family="Times,serif" font-size="14.00">equiv_O_functor_hfiber</text>
</a>
</g>
</g>
<!-- Lex_isequiv_O_functor_hfiber -->
<g id="node21" class="node">
<title>Lex_isequiv_O_functor_hfiber</title>
<g id="a_node21"><a xlink:href="Lex.html#isequiv_O_functor_hfiber" xlink:title="isequiv_O_functor_hfiber">
<ellipse fill="#f070d1" stroke="black" cx="1562" cy="-1436.55" rx="125.38" ry="18"/>
<text text-anchor="middle" x="1562" y="-1432.85" font-family="Times,serif" font-size="14.00">isequiv_O_functor_hfiber</text>
</a>
</g>
</g>
<!-- Lex_equiv_O_functor_hfiber&#45;&gt;Lex_isequiv_O_functor_hfiber -->
<g id="edge9" class="edge">
<title>Lex_equiv_O_functor_hfiber&#45;&gt;Lex_isequiv_O_functor_hfiber</title>
<path fill="none" stroke="black" d="M1562,-1900.34C1562,-1817.05 1562,-1551.09 1562,-1464.84"/>
<polygon fill="black" stroke="black" points="1565.5,-1464.78 1562,-1454.78 1558.5,-1464.78 1565.5,-1464.78"/>
</g>
<!-- Lex_conn_map_functor_hfiber_to_O -->
<g id="node22" class="node">
<title>Lex_conn_map_functor_hfiber_to_O</title>
<g id="a_node22"><a xlink:href="Lex.html#conn_map_functor_hfiber_to_O" xlink:title="conn_map_functor_hfiber_to_O">
<ellipse fill="#f070d1" stroke="black" cx="1562" cy="-991.55" rx="152.17" ry="18"/>
<text text-anchor="middle" x="1562" y="-987.85" font-family="Times,serif" font-size="14.00">conn_map_functor_hfiber_to_O</text>
</a>
</g>
</g>
<!-- Lex_isequiv_O_functor_hfiber&#45;&gt;Lex_conn_map_functor_hfiber_to_O -->
<g id="edge10" class="edge">
<title>Lex_isequiv_O_functor_hfiber&#45;&gt;Lex_conn_map_functor_hfiber_to_O</title>
<path fill="none" stroke="black" d="M1562,-1418.45C1562,-1351.04 1562,-1103.23 1562,-1020.01"/>
<polygon fill="black" stroke="black" points="1565.5,-1019.83 1562,-1009.83 1558.5,-1019.83 1565.5,-1019.83"/>
</g>
<!-- Lex_ispullback_connmap_mapino_commsq -->
<g id="node23" class="node">
<title>Lex_ispullback_connmap_mapino_commsq</title>
<g id="a_node23"><a xlink:href="Lex.html#ispullback_connmap_mapino_commsq" xlink:title="ispullback_connmap_mapino_commsq">
<ellipse fill="#f070d1" stroke="black" cx="1225" cy="-1926.55" rx="185.46" ry="18"/>
<ellipse fill="none" stroke="black" cx="1225" cy="-1926.55" rx="189.46" ry="22"/>
<ellipse fill="none" stroke="black" cx="1225" cy="-1926.55" rx="193.47" ry="26"/>
<text text-anchor="middle" x="1225" y="-1922.85" font-family="Times,serif" font-size="14.00">ispullback_connmap_mapino_commsq</text>
</a>
</g>
</g>
<!-- Lex_conn_map_functor_hfiber -->
<g id="node24" class="node">
<title>Lex_conn_map_functor_hfiber</title>
<g id="a_node24"><a xlink:href="Lex.html#conn_map_functor_hfiber" xlink:title="conn_map_functor_hfiber">
<ellipse fill="#f070d1" stroke="black" cx="879" cy="-1926.55" rx="126.96" ry="18"/>
<ellipse fill="none" stroke="black" cx="879" cy="-1926.55" rx="130.97" ry="22"/>
<ellipse fill="none" stroke="black" cx="879" cy="-1926.55" rx="134.98" ry="26"/>
<text text-anchor="middle" x="879" y="-1922.85" font-family="Times,serif" font-size="14.00">conn_map_functor_hfiber</text>
</a>
</g>
</g>
<!-- Lex_isequiv_mapino_isconnected -->
<g id="node25" class="node">
<title>Lex_isequiv_mapino_isconnected</title>
<g id="a_node25"><a xlink:href="Lex.html#isequiv_mapino_isconnected" xlink:title="isequiv_mapino_isconnected">
<ellipse fill="#f070d1" stroke="black" cx="577" cy="-1926.55" rx="141.87" ry="18"/>
<ellipse fill="none" stroke="black" cx="577" cy="-1926.55" rx="145.87" ry="22"/>
<ellipse fill="none" stroke="black" cx="577" cy="-1926.55" rx="149.88" ry="26"/>
<text text-anchor="middle" x="577" y="-1922.85" font-family="Times,serif" font-size="14.00">isequiv_mapino_isconnected</text>
</a>
</g>
</g>
<!-- Lex_conn_map_lex -->
<g id="node26" class="node">
<title>Lex_conn_map_lex</title>
<g id="a_node26"><a xlink:href="Lex.html#conn_map_lex" xlink:title="conn_map_lex">
<ellipse fill="#f070d1" stroke="black" cx="326" cy="-1926.55" rx="75.3" ry="18"/>
<ellipse fill="none" stroke="black" cx="326" cy="-1926.55" rx="79.29" ry="22"/>
<ellipse fill="none" stroke="black" cx="326" cy="-1926.55" rx="83.29" ry="26"/>
<text text-anchor="middle" x="326" y="-1922.85" font-family="Times,serif" font-size="14.00">conn_map_lex</text>
</a>
</g>
</g>
<!-- Lex_isconnected_paths -->
<g id="node27" class="node">
<title>Lex_isconnected_paths</title>
<g id="a_node27"><a xlink:href="Lex.html#isconnected_paths" xlink:title="isconnected_paths">
<ellipse fill="#f070d1" stroke="black" cx="120" cy="-1926.55" rx="96.37" ry="18"/>
<ellipse fill="none" stroke="black" cx="120" cy="-1926.55" rx="100.38" ry="22"/>
<ellipse fill="none" stroke="black" cx="120" cy="-1926.55" rx="104.38" ry="26"/>
<text text-anchor="middle" x="120" y="-1922.85" font-family="Times,serif" font-size="14.00">isconnected_paths</text>
</a>
</g>
</g>
</g>
</svg>
