<?xml version="1.0" encoding="UTF-8" standalone="no"?>
<!DOCTYPE svg PUBLIC "-//W3C//DTD SVG 1.1//EN"
 "http://www.w3.org/Graphics/SVG/1.1/DTD/svg11.dtd">
<!-- Generated by graphviz version 2.43.0 (0)
 -->
<!-- Title: HoTT_Colimits_Colimit Pages: 1 -->
<svg width="2313pt" height="1161pt"
 viewBox="0.00 0.00 2313.00 1160.50" xmlns="http://www.w3.org/2000/svg" xmlns:xlink="http://www.w3.org/1999/xlink">
<g id="graph0" class="graph" transform="scale(1 1) rotate(0) translate(4 1156.5)">
<title>HoTT_Colimits_Colimit</title>
<polygon fill="white" stroke="transparent" points="-4,4 -4,-1156.5 2309,-1156.5 2309,4 -4,4"/>
<g id="clust1" class="cluster">
<title>cluster_Colimit</title>
<polygon fill="#ffffc3" stroke="black" points="8,-9.62 8,-1142.88 2297,-1142.88 2297,-9.62 8,-9.62"/>
<text text-anchor="middle" x="42" y="-1127.68" font-family="Times,serif" font-size="14.00">Colimit</text>
</g>
<g id="clust2" class="cluster">
<title>cluster_Colimit_Colimit</title>
<polygon fill="#ffffa3" stroke="black" points="1863,-19.25 1863,-455.95 2271,-455.95 2271,-19.25 1863,-19.25"/>
<text text-anchor="middle" x="1897" y="-440.75" font-family="Times,serif" font-size="14.00">Colimit</text>
</g>
<!-- Colimit_Colimit_Colimit_rec_beta_colimp -->
<g id="node1" class="node">
<title>Colimit_Colimit_Colimit_rec_beta_colimp</title>
<g id="a_node1"><a xlink:href="Colimit.html#Colimit.Colimit_rec_beta_colimp" xlink:title="Colimit_rec_beta_colimp">
<ellipse fill="#f070d1" stroke="black" cx="2068" cy="-396.62" rx="123.48" ry="18"/>
<text text-anchor="middle" x="2068" y="-392.92" font-family="Times,serif" font-size="14.00">Colimit_rec_beta_colimp</text>
</a>
</g>
</g>
<!-- Colimit_Colimit_Colimit_rec -->
<g id="node2" class="node">
<title>Colimit_Colimit_Colimit_rec</title>
<g id="a_node2"><a xlink:href="Colimit.html#Colimit.Colimit_rec" xlink:title="Colimit_rec">
<ellipse fill="#f070d1" stroke="black" cx="1935" cy="-310.62" rx="63.89" ry="18"/>
<text text-anchor="middle" x="1935" y="-306.92" font-family="Times,serif" font-size="14.00">Colimit_rec</text>
</a>
</g>
</g>
<!-- Colimit_Colimit_Colimit_rec_beta_colimp&#45;&gt;Colimit_Colimit_Colimit_rec -->
<g id="edge1" class="edge">
<title>Colimit_Colimit_Colimit_rec_beta_colimp&#45;&gt;Colimit_Colimit_Colimit_rec</title>
<path fill="none" stroke="black" d="M2041.72,-379.03C2020.74,-365.77 1991.19,-347.11 1968.51,-332.79"/>
<polygon fill="black" stroke="black" points="1970.2,-329.71 1959.87,-327.33 1966.46,-335.63 1970.2,-329.71"/>
</g>
<!-- Colimit_Colimit_Colimit_ind_beta_colimp -->
<g id="node3" class="node">
<title>Colimit_Colimit_Colimit_ind_beta_colimp</title>
<g id="a_node3"><a xlink:href="Colimit.html#Colimit.Colimit_ind_beta_colimp" xlink:title="Colimit_ind_beta_colimp">
<ellipse fill="#facdef" stroke="black" cx="2140" cy="-310.62" rx="123.48" ry="18"/>
<text text-anchor="middle" x="2140" y="-306.92" font-family="Times,serif" font-size="14.00">Colimit_ind_beta_colimp</text>
</a>
</g>
</g>
<!-- Colimit_Colimit_Colimit_rec_beta_colimp&#45;&gt;Colimit_Colimit_Colimit_ind_beta_colimp -->
<g id="edge2" class="edge">
<title>Colimit_Colimit_Colimit_rec_beta_colimp&#45;&gt;Colimit_Colimit_Colimit_ind_beta_colimp</title>
<path fill="none" stroke="black" d="M2082.57,-378.63C2093.01,-366.44 2107.24,-349.85 2118.92,-336.22"/>
<polygon fill="black" stroke="black" points="2121.6,-338.47 2125.45,-328.6 2116.29,-333.91 2121.6,-338.47"/>
</g>
<!-- Colimit_Colimit_Colimit_ind -->
<g id="node4" class="node">
<title>Colimit_Colimit_Colimit_ind</title>
<g id="a_node4"><a xlink:href="Colimit.html#Colimit.Colimit_ind" xlink:title="Colimit_ind">
<ellipse fill="#f070d1" stroke="black" cx="1935" cy="-223.62" rx="63.89" ry="18"/>
<text text-anchor="middle" x="1935" y="-219.92" font-family="Times,serif" font-size="14.00">Colimit_ind</text>
</a>
</g>
</g>
<!-- Colimit_Colimit_Colimit_rec&#45;&gt;Colimit_Colimit_Colimit_ind -->
<g id="edge3" class="edge">
<title>Colimit_Colimit_Colimit_rec&#45;&gt;Colimit_Colimit_Colimit_ind</title>
<path fill="none" stroke="black" d="M1935,-292.42C1935,-280.79 1935,-265.17 1935,-251.86"/>
<polygon fill="black" stroke="black" points="1938.5,-251.8 1935,-241.8 1931.5,-251.8 1938.5,-251.8"/>
</g>
<!-- Colimit_Colimit_Colimit_ind_beta_colimp&#45;&gt;Colimit_Colimit_Colimit_ind -->
<g id="edge4" class="edge">
<title>Colimit_Colimit_Colimit_ind_beta_colimp&#45;&gt;Colimit_Colimit_Colimit_ind</title>
<path fill="none" stroke="black" d="M2100.96,-293.44C2066.09,-278.98 2015.06,-257.82 1978.81,-242.79"/>
<polygon fill="black" stroke="black" points="1980.04,-239.51 1969.46,-238.91 1977.36,-245.98 1980.04,-239.51"/>
</g>
<!-- Colimit_Colimit_colimp -->
<g id="node5" class="node">
<title>Colimit_Colimit_colimp</title>
<g id="a_node5"><a xlink:href="Colimit.html#Colimit.colimp" xlink:title="colimp">
<ellipse fill="#facdef" stroke="black" cx="1924" cy="-137.62" rx="41.69" ry="18"/>
<text text-anchor="middle" x="1924" y="-133.92" font-family="Times,serif" font-size="14.00">colimp</text>
</a>
</g>
</g>
<!-- Colimit_Colimit_Colimit_ind&#45;&gt;Colimit_Colimit_colimp -->
<g id="edge5" class="edge">
<title>Colimit_Colimit_Colimit_ind&#45;&gt;Colimit_Colimit_colimp</title>
<path fill="none" stroke="black" d="M1932.77,-205.63C1931.29,-194.31 1929.31,-179.2 1927.61,-166.19"/>
<polygon fill="black" stroke="black" points="1931.03,-165.35 1926.26,-155.89 1924.09,-166.26 1931.03,-165.35"/>
</g>
<!-- Colimit_Colimit_colim -->
<g id="node6" class="node">
<title>Colimit_Colimit_colim</title>
<g id="a_node6"><a xlink:href="Colimit.html#Colimit.colim" xlink:title="colim">
<ellipse fill="#7faaff" stroke="black" cx="1915" cy="-50.62" rx="36" ry="18"/>
<text text-anchor="middle" x="1915" y="-46.92" font-family="Times,serif" font-size="14.00">colim</text>
</a>
</g>
</g>
<!-- Colimit_Colimit_colimp&#45;&gt;Colimit_Colimit_colim -->
<g id="edge6" class="edge">
<title>Colimit_Colimit_colimp&#45;&gt;Colimit_Colimit_colim</title>
<path fill="none" stroke="black" d="M1922.18,-119.42C1920.95,-107.79 1919.29,-92.17 1917.88,-78.86"/>
<polygon fill="black" stroke="black" points="1921.35,-78.38 1916.82,-68.8 1914.39,-79.11 1921.35,-78.38"/>
</g>
<!-- Colimit_Colimit_Colimit -->
<g id="node7" class="node">
<title>Colimit_Colimit_Colimit</title>
<g id="a_node7"><a xlink:href="Colimit.html#Colimit.Colimit" xlink:title="Colimit">
<ellipse fill="#e2cdfa" stroke="black" cx="2013" cy="-50.62" rx="44.39" ry="18"/>
<text text-anchor="middle" x="2013" y="-46.92" font-family="Times,serif" font-size="14.00">Colimit</text>
</a>
</g>
</g>
<!-- Colimit_Colimit_colimp&#45;&gt;Colimit_Colimit_Colimit -->
<g id="edge7" class="edge">
<title>Colimit_Colimit_colimp&#45;&gt;Colimit_Colimit_Colimit</title>
<path fill="none" stroke="black" d="M1940.32,-121.03C1953.91,-108.06 1973.46,-89.39 1988.86,-74.68"/>
<polygon fill="black" stroke="black" points="1991.66,-76.84 1996.48,-67.4 1986.83,-71.78 1991.66,-76.84"/>
</g>
<!-- Colimit_colimit_adjoint -->
<g id="node8" class="node">
<title>Colimit_colimit_adjoint</title>
<g id="a_node8"><a xlink:href="Colimit.html#colimit_adjoint" xlink:title="colimit_adjoint">
<ellipse fill="#f070d1" stroke="black" cx="2198" cy="-689.62" rx="79.11" ry="18"/>
<ellipse fill="none" stroke="black" cx="2198" cy="-689.62" rx="83.1" ry="22"/>
<ellipse fill="none" stroke="black" cx="2198" cy="-689.62" rx="87.09" ry="26"/>
<text text-anchor="middle" x="2198" y="-685.92" font-family="Times,serif" font-size="14.00">colimit_adjoint</text>
</a>
</g>
</g>
<!-- Colimit_equiv_colimit_rec -->
<g id="node21" class="node">
<title>Colimit_equiv_colimit_rec</title>
<g id="a_node21"><a xlink:href="Colimit.html#equiv_colimit_rec" xlink:title="equiv_colimit_rec">
<ellipse fill="#f070d1" stroke="black" cx="2198" cy="-583.62" rx="90.98" ry="18"/>
<text text-anchor="middle" x="2198" y="-579.92" font-family="Times,serif" font-size="14.00">equiv_colimit_rec</text>
</a>
</g>
</g>
<!-- Colimit_colimit_adjoint&#45;&gt;Colimit_equiv_colimit_rec -->
<g id="edge8" class="edge">
<title>Colimit_colimit_adjoint&#45;&gt;Colimit_equiv_colimit_rec</title>
<path fill="none" stroke="black" d="M2198,-663.45C2198,-647.92 2198,-627.99 2198,-612.05"/>
<polygon fill="black" stroke="black" points="2201.5,-611.76 2198,-601.76 2194.5,-611.76 2201.5,-611.76"/>
</g>
<!-- Colimit_colimit_unicity -->
<g id="node9" class="node">
<title>Colimit_colimit_unicity</title>
<g id="a_node9"><a xlink:href="Colimit.html#colimit_unicity" xlink:title="colimit_unicity">
<ellipse fill="#f070d1" stroke="black" cx="1438" cy="-1074.62" rx="78.77" ry="18"/>
<ellipse fill="none" stroke="black" cx="1438" cy="-1074.62" rx="82.78" ry="22"/>
<ellipse fill="none" stroke="black" cx="1438" cy="-1074.62" rx="86.79" ry="26"/>
<text text-anchor="middle" x="1438" y="-1070.92" font-family="Times,serif" font-size="14.00">colimit_unicity</text>
</a>
</g>
</g>
<!-- Colimit_equiv_functor_colimit -->
<g id="node10" class="node">
<title>Colimit_equiv_functor_colimit</title>
<g id="a_node10"><a xlink:href="Colimit.html#equiv_functor_colimit" xlink:title="equiv_functor_colimit">
<ellipse fill="#f070d1" stroke="black" cx="1438" cy="-977.62" rx="110.48" ry="18"/>
<text text-anchor="middle" x="1438" y="-973.92" font-family="Times,serif" font-size="14.00">equiv_functor_colimit</text>
</a>
</g>
</g>
<!-- Colimit_colimit_unicity&#45;&gt;Colimit_equiv_functor_colimit -->
<g id="edge9" class="edge">
<title>Colimit_colimit_unicity&#45;&gt;Colimit_equiv_functor_colimit</title>
<path fill="none" stroke="black" d="M1438,-1048.17C1438,-1035.07 1438,-1019.1 1438,-1005.77"/>
<polygon fill="black" stroke="black" points="1441.5,-1005.75 1438,-995.75 1434.5,-1005.75 1441.5,-1005.75"/>
</g>
<!-- Colimit_isequiv_functor_colimit -->
<g id="node11" class="node">
<title>Colimit_isequiv_functor_colimit</title>
<g id="a_node11"><a xlink:href="Colimit.html#isequiv_functor_colimit" xlink:title="isequiv_functor_colimit">
<ellipse fill="#f070d1" stroke="black" cx="1438" cy="-891.62" rx="118.08" ry="18"/>
<text text-anchor="middle" x="1438" y="-887.92" font-family="Times,serif" font-size="14.00">isequiv_functor_colimit</text>
</a>
</g>
</g>
<!-- Colimit_equiv_functor_colimit&#45;&gt;Colimit_isequiv_functor_colimit -->
<g id="edge10" class="edge">
<title>Colimit_equiv_functor_colimit&#45;&gt;Colimit_isequiv_functor_colimit</title>
<path fill="none" stroke="black" d="M1438,-959.22C1438,-947.88 1438,-932.85 1438,-919.94"/>
<polygon fill="black" stroke="black" points="1441.5,-919.72 1438,-909.72 1434.5,-919.72 1441.5,-919.72"/>
</g>
<!-- Colimit_functor_colimit_eisretr -->
<g id="node12" class="node">
<title>Colimit_functor_colimit_eisretr</title>
<g id="a_node12"><a xlink:href="Colimit.html#functor_colimit_eisretr" xlink:title="functor_colimit_eisretr">
<ellipse fill="#f070d1" stroke="black" cx="1564" cy="-795.62" rx="116.18" ry="18"/>
<text text-anchor="middle" x="1564" y="-791.92" font-family="Times,serif" font-size="14.00">functor_colimit_eisretr</text>
</a>
</g>
</g>
<!-- Colimit_isequiv_functor_colimit&#45;&gt;Colimit_functor_colimit_eisretr -->
<g id="edge11" class="edge">
<title>Colimit_isequiv_functor_colimit&#45;&gt;Colimit_functor_colimit_eisretr</title>
<path fill="none" stroke="black" d="M1460.53,-873.82C1480.74,-858.74 1510.59,-836.47 1533.04,-819.72"/>
<polygon fill="black" stroke="black" points="1535.32,-822.39 1541.24,-813.6 1531.14,-816.78 1535.32,-822.39"/>
</g>
<!-- Colimit_functor_colimit_eissect -->
<g id="node13" class="node">
<title>Colimit_functor_colimit_eissect</title>
<g id="a_node13"><a xlink:href="Colimit.html#functor_colimit_eissect" xlink:title="functor_colimit_eissect">
<ellipse fill="#f070d1" stroke="black" cx="1313" cy="-795.62" rx="116.98" ry="18"/>
<text text-anchor="middle" x="1313" y="-791.92" font-family="Times,serif" font-size="14.00">functor_colimit_eissect</text>
</a>
</g>
</g>
<!-- Colimit_isequiv_functor_colimit&#45;&gt;Colimit_functor_colimit_eissect -->
<g id="edge12" class="edge">
<title>Colimit_isequiv_functor_colimit&#45;&gt;Colimit_functor_colimit_eissect</title>
<path fill="none" stroke="black" d="M1415.65,-873.82C1395.6,-858.74 1365.99,-836.47 1343.72,-819.72"/>
<polygon fill="black" stroke="black" points="1345.67,-816.81 1335.58,-813.6 1341.46,-822.41 1345.67,-816.81"/>
</g>
<!-- Colimit_functor_colimit -->
<g id="node15" class="node">
<title>Colimit_functor_colimit</title>
<g id="a_node15"><a xlink:href="Colimit.html#functor_colimit" xlink:title="functor_colimit">
<ellipse fill="#f070d1" stroke="black" cx="1313" cy="-689.62" rx="80.69" ry="18"/>
<text text-anchor="middle" x="1313" y="-685.92" font-family="Times,serif" font-size="14.00">functor_colimit</text>
</a>
</g>
</g>
<!-- Colimit_functor_colimit_eisretr&#45;&gt;Colimit_functor_colimit -->
<g id="edge13" class="edge">
<title>Colimit_functor_colimit_eisretr&#45;&gt;Colimit_functor_colimit</title>
<path fill="none" stroke="black" d="M1525.33,-778.6C1480.56,-760.05 1406.87,-729.52 1359.15,-709.74"/>
<polygon fill="black" stroke="black" points="1360.25,-706.41 1349.67,-705.82 1357.57,-712.88 1360.25,-706.41"/>
</g>
<!-- Colimit_functor_colimit_eissect&#45;&gt;Colimit_functor_colimit -->
<g id="edge14" class="edge">
<title>Colimit_functor_colimit_eissect&#45;&gt;Colimit_functor_colimit</title>
<path fill="none" stroke="black" d="M1313,-777.45C1313,-761.27 1313,-736.75 1313,-717.9"/>
<polygon fill="black" stroke="black" points="1316.5,-717.82 1313,-707.82 1309.5,-717.82 1316.5,-717.82"/>
</g>
<!-- Colimit_functor_colimit_commute -->
<g id="node14" class="node">
<title>Colimit_functor_colimit_commute</title>
<g id="a_node14"><a xlink:href="Colimit.html#functor_colimit_commute" xlink:title="functor_colimit_commute">
<ellipse fill="#f070d1" stroke="black" cx="1042" cy="-795.62" rx="128.08" ry="18"/>
<ellipse fill="none" stroke="black" cx="1042" cy="-795.62" rx="132.08" ry="22"/>
<ellipse fill="none" stroke="black" cx="1042" cy="-795.62" rx="136.08" ry="26"/>
<text text-anchor="middle" x="1042" y="-791.92" font-family="Times,serif" font-size="14.00">functor_colimit_commute</text>
</a>
</g>
</g>
<!-- Colimit_functor_colimit_commute&#45;&gt;Colimit_functor_colimit -->
<g id="edge15" class="edge">
<title>Colimit_functor_colimit_commute&#45;&gt;Colimit_functor_colimit</title>
<path fill="none" stroke="black" d="M1100.8,-772.06C1149.93,-753.21 1219.1,-726.66 1264.95,-709.06"/>
<polygon fill="black" stroke="black" points="1266.28,-712.3 1274.37,-705.45 1263.78,-705.77 1266.28,-712.3"/>
</g>
<!-- Colimit_cocone_postcompose_inv -->
<g id="node23" class="node">
<title>Colimit_cocone_postcompose_inv</title>
<g id="a_node23"><a xlink:href="Colimit.html#cocone_postcompose_inv" xlink:title="cocone_postcompose_inv">
<ellipse fill="#f070d1" stroke="black" cx="1313" cy="-583.62" rx="126.18" ry="18"/>
<text text-anchor="middle" x="1313" y="-579.92" font-family="Times,serif" font-size="14.00">cocone_postcompose_inv</text>
</a>
</g>
</g>
<!-- Colimit_functor_colimit&#45;&gt;Colimit_cocone_postcompose_inv -->
<g id="edge16" class="edge">
<title>Colimit_functor_colimit&#45;&gt;Colimit_cocone_postcompose_inv</title>
<path fill="none" stroke="black" d="M1313,-671.45C1313,-655.27 1313,-630.75 1313,-611.9"/>
<polygon fill="black" stroke="black" points="1316.5,-611.82 1313,-601.82 1309.5,-611.82 1316.5,-611.82"/>
</g>
<!-- Colimit_iscolimit_postcompose_equiv -->
<g id="node16" class="node">
<title>Colimit_iscolimit_postcompose_equiv</title>
<g id="a_node16"><a xlink:href="Colimit.html#iscolimit_postcompose_equiv" xlink:title="iscolimit_postcompose_equiv">
<ellipse fill="#f070d1" stroke="black" cx="483" cy="-583.62" rx="144.88" ry="18"/>
<ellipse fill="none" stroke="black" cx="483" cy="-583.62" rx="148.88" ry="22"/>
<ellipse fill="none" stroke="black" cx="483" cy="-583.62" rx="152.87" ry="26"/>
<text text-anchor="middle" x="483" y="-579.92" font-family="Times,serif" font-size="14.00">iscolimit_postcompose_equiv</text>
</a>
</g>
</g>
<!-- Colimit_Build_IsColimit -->
<g id="node30" class="node">
<title>Colimit_Build_IsColimit</title>
<g id="a_node30"><a xlink:href="Colimit.html#Build_IsColimit" xlink:title="Build_IsColimit">
<ellipse fill="#7faaff" stroke="black" cx="819" cy="-487.62" rx="81.49" ry="18"/>
<text text-anchor="middle" x="819" y="-483.92" font-family="Times,serif" font-size="14.00">Build_IsColimit</text>
</a>
</g>
</g>
<!-- Colimit_iscolimit_postcompose_equiv&#45;&gt;Colimit_Build_IsColimit -->
<g id="edge17" class="edge">
<title>Colimit_iscolimit_postcompose_equiv&#45;&gt;Colimit_Build_IsColimit</title>
<path fill="none" stroke="black" d="M560.09,-561.06C621.13,-543.98 705.1,-520.49 760.65,-504.95"/>
<polygon fill="black" stroke="black" points="761.65,-508.3 770.34,-502.24 759.77,-501.56 761.65,-508.3"/>
</g>
<!-- Colimit_IsColimit -->
<g id="node31" class="node">
<title>Colimit_IsColimit</title>
<g id="a_node31"><a xlink:href="Colimit.html#IsColimit" xlink:title="IsColimit">
<ellipse fill="#e2cdfa" stroke="black" cx="1084" cy="-487.62" rx="52.79" ry="18"/>
<text text-anchor="middle" x="1084" y="-483.92" font-family="Times,serif" font-size="14.00">IsColimit</text>
</a>
</g>
</g>
<!-- Colimit_iscolimit_postcompose_equiv&#45;&gt;Colimit_IsColimit -->
<g id="edge18" class="edge">
<title>Colimit_iscolimit_postcompose_equiv&#45;&gt;Colimit_IsColimit</title>
<path fill="none" stroke="black" d="M592.88,-565.44C720.96,-545.41 927.72,-513.07 1027.09,-497.52"/>
<polygon fill="black" stroke="black" points="1027.89,-500.94 1037.23,-495.94 1026.81,-494.03 1027.89,-500.94"/>
</g>
<!-- Colimit_iscolimit_precompose_equiv -->
<g id="node17" class="node">
<title>Colimit_iscolimit_precompose_equiv</title>
<g id="a_node17"><a xlink:href="Colimit.html#iscolimit_precompose_equiv" xlink:title="iscolimit_precompose_equiv">
<ellipse fill="#f070d1" stroke="black" cx="164" cy="-583.62" rx="140.28" ry="18"/>
<ellipse fill="none" stroke="black" cx="164" cy="-583.62" rx="144.28" ry="22"/>
<ellipse fill="none" stroke="black" cx="164" cy="-583.62" rx="148.28" ry="26"/>
<text text-anchor="middle" x="164" y="-579.92" font-family="Times,serif" font-size="14.00">iscolimit_precompose_equiv</text>
</a>
</g>
</g>
<!-- Colimit_iscolimit_precompose_equiv&#45;&gt;Colimit_Build_IsColimit -->
<g id="edge19" class="edge">
<title>Colimit_iscolimit_precompose_equiv&#45;&gt;Colimit_Build_IsColimit</title>
<path fill="none" stroke="black" d="M270.37,-565.39C287.29,-562.73 304.62,-560.06 321,-557.62 469.21,-535.56 642.6,-512.06 740.74,-498.97"/>
<polygon fill="black" stroke="black" points="741.42,-502.41 750.87,-497.62 740.5,-495.47 741.42,-502.41"/>
</g>
<!-- Colimit_iscolimit_precompose_equiv&#45;&gt;Colimit_IsColimit -->
<g id="edge20" class="edge">
<title>Colimit_iscolimit_precompose_equiv&#45;&gt;Colimit_IsColimit</title>
<path fill="none" stroke="black" d="M268.15,-565C285.76,-562.32 303.88,-559.74 321,-557.62 581.37,-525.42 647.77,-529.86 909,-505.62 947.29,-502.07 990.27,-497.9 1024.05,-494.58"/>
<polygon fill="black" stroke="black" points="1024.62,-498.04 1034.23,-493.57 1023.93,-491.07 1024.62,-498.04"/>
</g>
<!-- Colimit_iscolimit_colimit -->
<g id="node18" class="node">
<title>Colimit_iscolimit_colimit</title>
<g id="a_node18"><a xlink:href="Colimit.html#iscolimit_colimit" xlink:title="iscolimit_colimit">
<ellipse fill="#f070d1" stroke="black" cx="1759" cy="-583.62" rx="86.39" ry="18"/>
<ellipse fill="none" stroke="black" cx="1759" cy="-583.62" rx="90.39" ry="22"/>
<ellipse fill="none" stroke="black" cx="1759" cy="-583.62" rx="94.38" ry="26"/>
<text text-anchor="middle" x="1759" y="-579.92" font-family="Times,serif" font-size="14.00">iscolimit_colimit</text>
</a>
</g>
</g>
<!-- Colimit_unicocone_colimit -->
<g id="node19" class="node">
<title>Colimit_unicocone_colimit</title>
<g id="a_node19"><a xlink:href="Colimit.html#unicocone_colimit" xlink:title="unicocone_colimit">
<ellipse fill="#f070d1" stroke="black" cx="1776" cy="-487.62" rx="92.88" ry="18"/>
<text text-anchor="middle" x="1776" y="-483.92" font-family="Times,serif" font-size="14.00">unicocone_colimit</text>
</a>
</g>
</g>
<!-- Colimit_iscolimit_colimit&#45;&gt;Colimit_unicocone_colimit -->
<g id="edge21" class="edge">
<title>Colimit_iscolimit_colimit&#45;&gt;Colimit_unicocone_colimit</title>
<path fill="none" stroke="black" d="M1763.56,-557.43C1765.88,-544.56 1768.72,-528.88 1771.1,-515.74"/>
<polygon fill="black" stroke="black" points="1774.55,-516.32 1772.88,-505.86 1767.66,-515.07 1774.55,-516.32"/>
</g>
<!-- Colimit_iscolimit_colimit&#45;&gt;Colimit_Build_IsColimit -->
<g id="edge22" class="edge">
<title>Colimit_iscolimit_colimit&#45;&gt;Colimit_Build_IsColimit</title>
<path fill="none" stroke="black" d="M1692.73,-565.09C1680.26,-562.24 1667.29,-559.59 1655,-557.62 1376.28,-512.95 1303.31,-528.96 1022,-505.62 983.18,-502.4 940.19,-498.81 903.8,-495.76"/>
<polygon fill="black" stroke="black" points="903.97,-492.26 893.72,-494.91 903.39,-499.23 903.97,-492.26"/>
</g>
<!-- Colimit_iscolimit_colimit&#45;&gt;Colimit_IsColimit -->
<g id="edge23" class="edge">
<title>Colimit_iscolimit_colimit&#45;&gt;Colimit_IsColimit</title>
<path fill="none" stroke="black" d="M1691.83,-565.28C1679.62,-562.47 1666.97,-559.78 1655,-557.62 1470.49,-524.41 1249.5,-502.8 1144.77,-493.64"/>
<polygon fill="black" stroke="black" points="1144.97,-490.14 1134.71,-492.77 1144.37,-497.12 1144.97,-490.14"/>
</g>
<!-- Colimit_unicocone_colimit&#45;&gt;Colimit_Colimit_Colimit_rec_beta_colimp -->
<g id="edge24" class="edge">
<title>Colimit_unicocone_colimit&#45;&gt;Colimit_Colimit_Colimit_rec_beta_colimp</title>
<path fill="none" stroke="black" d="M1835.27,-473.68C1866.9,-466.33 1906.34,-456.44 1941,-445.62 1967.3,-437.42 1996.06,-426.7 2019.56,-417.47"/>
<polygon fill="black" stroke="black" points="2020.94,-420.69 2028.94,-413.75 2018.36,-414.18 2020.94,-420.69"/>
</g>
<!-- Colimit_cocone_colimit -->
<g id="node20" class="node">
<title>Colimit_cocone_colimit</title>
<g id="a_node20"><a xlink:href="Colimit.html#cocone_colimit" xlink:title="cocone_colimit">
<ellipse fill="#f070d1" stroke="black" cx="1776" cy="-396.62" rx="78.79" ry="18"/>
<text text-anchor="middle" x="1776" y="-392.92" font-family="Times,serif" font-size="14.00">cocone_colimit</text>
</a>
</g>
</g>
<!-- Colimit_unicocone_colimit&#45;&gt;Colimit_cocone_colimit -->
<g id="edge25" class="edge">
<title>Colimit_unicocone_colimit&#45;&gt;Colimit_cocone_colimit</title>
<path fill="none" stroke="black" d="M1776,-469.46C1776,-456.91 1776,-439.6 1776,-425.13"/>
<polygon fill="black" stroke="black" points="1779.5,-424.73 1776,-414.73 1772.5,-424.73 1779.5,-424.73"/>
</g>
<!-- Colimit_cocone_colimit&#45;&gt;Colimit_Colimit_colimp -->
<g id="edge26" class="edge">
<title>Colimit_cocone_colimit&#45;&gt;Colimit_Colimit_colimp</title>
<path fill="none" stroke="black" d="M1781.67,-378.42C1793.5,-343.9 1822.96,-264.46 1862,-205.62 1872.67,-189.55 1887.21,-173.61 1899.53,-161.32"/>
<polygon fill="black" stroke="black" points="1902.15,-163.65 1906.86,-154.16 1897.26,-158.64 1902.15,-163.65"/>
</g>
<!-- Colimit_isequiv_colimit_rec -->
<g id="node22" class="node">
<title>Colimit_isequiv_colimit_rec</title>
<g id="a_node22"><a xlink:href="Colimit.html#isequiv_colimit_rec" xlink:title="isequiv_colimit_rec">
<ellipse fill="#f070d1" stroke="black" cx="2137" cy="-487.62" rx="98.58" ry="18"/>
<text text-anchor="middle" x="2137" y="-483.92" font-family="Times,serif" font-size="14.00">isequiv_colimit_rec</text>
</a>
</g>
</g>
<!-- Colimit_equiv_colimit_rec&#45;&gt;Colimit_isequiv_colimit_rec -->
<g id="edge27" class="edge">
<title>Colimit_equiv_colimit_rec&#45;&gt;Colimit_isequiv_colimit_rec</title>
<path fill="none" stroke="black" d="M2186.81,-565.38C2177.53,-551.07 2164.18,-530.51 2153.64,-514.27"/>
<polygon fill="black" stroke="black" points="2156.5,-512.24 2148.12,-505.76 2150.63,-516.05 2156.5,-512.24"/>
</g>
<!-- Colimit_isequiv_colimit_rec&#45;&gt;Colimit_Colimit_Colimit_rec_beta_colimp -->
<g id="edge28" class="edge">
<title>Colimit_isequiv_colimit_rec&#45;&gt;Colimit_Colimit_Colimit_rec_beta_colimp</title>
<path fill="none" stroke="black" d="M2123.7,-469.46C2113.48,-456.29 2099.22,-437.9 2087.69,-423.02"/>
<polygon fill="black" stroke="black" points="2090.16,-420.49 2081.26,-414.73 2084.62,-424.78 2090.16,-420.49"/>
</g>
<!-- Colimit_cocone_postcompose_inv&#45;&gt;Colimit_IsColimit -->
<g id="edge29" class="edge">
<title>Colimit_cocone_postcompose_inv&#45;&gt;Colimit_IsColimit</title>
<path fill="none" stroke="black" d="M1273.63,-566.47C1232.47,-549.57 1168.1,-523.14 1125.98,-505.86"/>
<polygon fill="black" stroke="black" points="1127.14,-502.55 1116.56,-501.99 1124.49,-509.03 1127.14,-502.55"/>
</g>
<!-- Colimit_iscolimit_unicocone -->
<g id="node24" class="node">
<title>Colimit_iscolimit_unicocone</title>
<g id="a_node24"><a xlink:href="Colimit.html#iscolimit_unicocone" xlink:title="iscolimit_unicocone">
<ellipse fill="#f070d1" stroke="black" cx="1980" cy="-583.62" rx="100.96" ry="18"/>
<ellipse fill="none" stroke="black" cx="1980" cy="-583.62" rx="104.97" ry="22"/>
<ellipse fill="none" stroke="black" cx="1980" cy="-583.62" rx="108.98" ry="26"/>
<text text-anchor="middle" x="1980" y="-579.92" font-family="Times,serif" font-size="14.00">iscolimit_unicocone</text>
</a>
</g>
</g>
<!-- Colimit_iscolimit_unicocone&#45;&gt;Colimit_IsColimit -->
<g id="edge30" class="edge">
<title>Colimit_iscolimit_unicocone&#45;&gt;Colimit_IsColimit</title>
<path fill="none" stroke="black" d="M1903.76,-565.07C1889.91,-562.28 1875.57,-559.66 1862,-557.62 1597.27,-517.99 1278.21,-498.45 1146.01,-491.58"/>
<polygon fill="black" stroke="black" points="1145.86,-488.07 1135.69,-491.05 1145.5,-495.06 1145.86,-488.07"/>
</g>
<!-- Colimit_iscolimit_cocone -->
<g id="node25" class="node">
<title>Colimit_iscolimit_cocone</title>
<g id="a_node25"><a xlink:href="Colimit.html#iscolimit_cocone" xlink:title="iscolimit_cocone">
<ellipse fill="#f070d1" stroke="black" cx="1552" cy="-583.62" rx="86.39" ry="18"/>
<ellipse fill="none" stroke="black" cx="1552" cy="-583.62" rx="90.39" ry="22"/>
<ellipse fill="none" stroke="black" cx="1552" cy="-583.62" rx="94.38" ry="26"/>
<text text-anchor="middle" x="1552" y="-579.92" font-family="Times,serif" font-size="14.00">iscolimit_cocone</text>
</a>
</g>
</g>
<!-- Colimit_iscolimit_cocone&#45;&gt;Colimit_IsColimit -->
<g id="edge31" class="edge">
<title>Colimit_iscolimit_cocone&#45;&gt;Colimit_IsColimit</title>
<path fill="none" stroke="black" d="M1483.58,-565.68C1471.74,-562.89 1459.53,-560.1 1448,-557.62 1339.36,-534.28 1211.59,-511.02 1139.98,-498.36"/>
<polygon fill="black" stroke="black" points="1140.28,-494.86 1129.83,-496.57 1139.07,-501.76 1140.28,-494.86"/>
</g>
<!-- Colimit_IsColimit_sind -->
<g id="node26" class="node">
<title>Colimit_IsColimit_sind</title>
<g id="a_node26"><a xlink:href="Colimit.html#IsColimit_sind" xlink:title="IsColimit_sind">
<ellipse fill="#f070d1" stroke="black" cx="1084" cy="-583.62" rx="76.87" ry="18"/>
<ellipse fill="none" stroke="black" cx="1084" cy="-583.62" rx="80.88" ry="22"/>
<ellipse fill="none" stroke="black" cx="1084" cy="-583.62" rx="84.89" ry="26"/>
<text text-anchor="middle" x="1084" y="-579.92" font-family="Times,serif" font-size="14.00">IsColimit_sind</text>
</a>
</g>
</g>
<!-- Colimit_IsColimit_sind&#45;&gt;Colimit_Build_IsColimit -->
<g id="edge32" class="edge">
<title>Colimit_IsColimit_sind&#45;&gt;Colimit_Build_IsColimit</title>
<path fill="none" stroke="black" d="M1030.05,-563.49C983.15,-546.85 915.69,-522.92 869.75,-506.63"/>
<polygon fill="black" stroke="black" points="870.88,-503.31 860.29,-503.27 868.54,-509.91 870.88,-503.31"/>
</g>
<!-- Colimit_IsColimit_sind&#45;&gt;Colimit_IsColimit -->
<g id="edge33" class="edge">
<title>Colimit_IsColimit_sind&#45;&gt;Colimit_IsColimit</title>
<path fill="none" stroke="black" d="M1084,-557.43C1084,-544.69 1084,-529.19 1084,-516.14"/>
<polygon fill="black" stroke="black" points="1087.5,-515.85 1084,-505.86 1080.5,-515.86 1087.5,-515.85"/>
</g>
<!-- Colimit_IsColimit_rec -->
<g id="node27" class="node">
<title>Colimit_IsColimit_rec</title>
<g id="a_node27"><a xlink:href="Colimit.html#IsColimit_rec" xlink:title="IsColimit_rec">
<ellipse fill="#f070d1" stroke="black" cx="906" cy="-689.62" rx="71.49" ry="18"/>
<ellipse fill="none" stroke="black" cx="906" cy="-689.62" rx="75.49" ry="22"/>
<ellipse fill="none" stroke="black" cx="906" cy="-689.62" rx="79.49" ry="26"/>
<text text-anchor="middle" x="906" y="-685.92" font-family="Times,serif" font-size="14.00">IsColimit_rec</text>
</a>
</g>
</g>
<!-- Colimit_IsColimit_rect -->
<g id="node29" class="node">
<title>Colimit_IsColimit_rect</title>
<g id="a_node29"><a xlink:href="Colimit.html#IsColimit_rect" xlink:title="IsColimit_rect">
<ellipse fill="#f070d1" stroke="black" cx="906" cy="-583.62" rx="75.29" ry="18"/>
<text text-anchor="middle" x="906" y="-579.92" font-family="Times,serif" font-size="14.00">IsColimit_rect</text>
</a>
</g>
</g>
<!-- Colimit_IsColimit_rec&#45;&gt;Colimit_IsColimit_rect -->
<g id="edge34" class="edge">
<title>Colimit_IsColimit_rec&#45;&gt;Colimit_IsColimit_rect</title>
<path fill="none" stroke="black" d="M906,-663.45C906,-647.92 906,-627.99 906,-612.05"/>
<polygon fill="black" stroke="black" points="909.5,-611.76 906,-601.76 902.5,-611.76 909.5,-611.76"/>
</g>
<!-- Colimit_IsColimit_ind -->
<g id="node28" class="node">
<title>Colimit_IsColimit_ind</title>
<g id="a_node28"><a xlink:href="Colimit.html#IsColimit_ind" xlink:title="IsColimit_ind">
<ellipse fill="#7fffd4" stroke="black" cx="733" cy="-583.62" rx="71.49" ry="18"/>
<ellipse fill="none" stroke="black" cx="733" cy="-583.62" rx="75.49" ry="22"/>
<ellipse fill="none" stroke="black" cx="733" cy="-583.62" rx="79.49" ry="26"/>
<text text-anchor="middle" x="733" y="-579.92" font-family="Times,serif" font-size="14.00">IsColimit_ind</text>
</a>
</g>
</g>
<!-- Colimit_IsColimit_ind&#45;&gt;Colimit_Build_IsColimit -->
<g id="edge35" class="edge">
<title>Colimit_IsColimit_ind&#45;&gt;Colimit_Build_IsColimit</title>
<path fill="none" stroke="black" d="M755.15,-558.42C767.88,-544.5 783.83,-527.07 796.6,-513.11"/>
<polygon fill="black" stroke="black" points="799.54,-515.08 803.7,-505.34 794.37,-510.36 799.54,-515.08"/>
</g>
<!-- Colimit_IsColimit_ind&#45;&gt;Colimit_IsColimit -->
<g id="edge36" class="edge">
<title>Colimit_IsColimit_ind&#45;&gt;Colimit_IsColimit</title>
<path fill="none" stroke="black" d="M791.85,-565.95C801.9,-563.14 812.24,-560.28 822,-557.62 895.34,-537.67 980.48,-515.41 1033.3,-501.71"/>
<polygon fill="black" stroke="black" points="1034.3,-505.07 1043.1,-499.17 1032.54,-498.3 1034.3,-505.07"/>
</g>
<!-- Colimit_IsColimit_rect&#45;&gt;Colimit_Build_IsColimit -->
<g id="edge37" class="edge">
<title>Colimit_IsColimit_rect&#45;&gt;Colimit_Build_IsColimit</title>
<path fill="none" stroke="black" d="M890.45,-565.82C876.92,-551.21 857.15,-529.84 841.83,-513.29"/>
<polygon fill="black" stroke="black" points="844.07,-510.56 834.71,-505.6 838.94,-515.32 844.07,-510.56"/>
</g>
<!-- Colimit_IsColimit_rect&#45;&gt;Colimit_IsColimit -->
<g id="edge38" class="edge">
<title>Colimit_IsColimit_rect&#45;&gt;Colimit_IsColimit</title>
<path fill="none" stroke="black" d="M935.79,-566.89C966.55,-550.65 1014.57,-525.29 1047.57,-507.86"/>
<polygon fill="black" stroke="black" points="1049.24,-510.94 1056.45,-503.17 1045.98,-504.75 1049.24,-510.94"/>
</g>
</g>
</svg>
