<?xml version="1.0" encoding="UTF-8" standalone="no"?>
<!DOCTYPE svg PUBLIC "-//W3C//DTD SVG 1.1//EN"
 "http://www.w3.org/Graphics/SVG/1.1/DTD/svg11.dtd">
<!-- Generated by graphviz version 2.43.0 (0)
 -->
<!-- Title: HoTT_WildCat_PointedCat Pages: 1 -->
<svg width="1507pt" height="757pt"
 viewBox="0.00 0.00 1507.00 757.50" xmlns="http://www.w3.org/2000/svg" xmlns:xlink="http://www.w3.org/1999/xlink">
<g id="graph0" class="graph" transform="scale(1 1) rotate(0) translate(4 753.5)">
<title>HoTT_WildCat_PointedCat</title>
<polygon fill="white" stroke="transparent" points="-4,4 -4,-753.5 1503,-753.5 1503,4 -4,4"/>
<g id="clust1" class="cluster">
<title>cluster_PointedCat</title>
<polygon fill="#ffffc3" stroke="black" points="8,-22.46 8,-727.04 1491,-727.04 1491,-22.46 8,-22.46"/>
<text text-anchor="middle" x="55.5" y="-711.84" font-family="Times,serif" font-size="14.00">PointedCat</text>
</g>
<!-- PointedCat_cat_zero_r -->
<g id="node1" class="node">
<title>PointedCat_cat_zero_r</title>
<g id="a_node1"><a xlink:href="PointedCat.html#cat_zero_r" xlink:title="cat_zero_r">
<ellipse fill="#f070d1" stroke="black" cx="1417" cy="-567.46" rx="57.71" ry="18"/>
<ellipse fill="none" stroke="black" cx="1417" cy="-567.46" rx="61.7" ry="22"/>
<ellipse fill="none" stroke="black" cx="1417" cy="-567.46" rx="65.69" ry="26"/>
<text text-anchor="middle" x="1417" y="-563.76" font-family="Times,serif" font-size="14.00">cat_zero_r</text>
</a>
</g>
</g>
<!-- PointedCat_zero_morphism -->
<g id="node5" class="node">
<title>PointedCat_zero_morphism</title>
<g id="a_node5"><a xlink:href="PointedCat.html#zero_morphism" xlink:title="zero_morphism">
<ellipse fill="#f070d1" stroke="black" cx="1401" cy="-320.46" rx="81.79" ry="18"/>
<text text-anchor="middle" x="1401" y="-316.76" font-family="Times,serif" font-size="14.00">zero_morphism</text>
</a>
</g>
</g>
<!-- PointedCat_cat_zero_r&#45;&gt;PointedCat_zero_morphism -->
<g id="edge1" class="edge">
<title>PointedCat_cat_zero_r&#45;&gt;PointedCat_zero_morphism</title>
<path fill="none" stroke="black" d="M1415.35,-541.16C1412.32,-494.77 1405.9,-396.47 1402.78,-348.68"/>
<polygon fill="black" stroke="black" points="1406.26,-348.23 1402.11,-338.48 1399.27,-348.69 1406.26,-348.23"/>
</g>
<!-- PointedCat_cat_zero_l -->
<g id="node2" class="node">
<title>PointedCat_cat_zero_l</title>
<g id="a_node2"><a xlink:href="PointedCat.html#cat_zero_l" xlink:title="cat_zero_l">
<ellipse fill="#f070d1" stroke="black" cx="1269" cy="-567.46" rx="56.58" ry="18"/>
<ellipse fill="none" stroke="black" cx="1269" cy="-567.46" rx="60.59" ry="22"/>
<ellipse fill="none" stroke="black" cx="1269" cy="-567.46" rx="64.59" ry="26"/>
<text text-anchor="middle" x="1269" y="-563.76" font-family="Times,serif" font-size="14.00">cat_zero_l</text>
</a>
</g>
</g>
<!-- PointedCat_cat_zero_l&#45;&gt;PointedCat_zero_morphism -->
<g id="edge2" class="edge">
<title>PointedCat_cat_zero_l&#45;&gt;PointedCat_zero_morphism</title>
<path fill="none" stroke="black" d="M1282.38,-541.62C1307.46,-495.07 1361.31,-395.13 1386.91,-347.6"/>
<polygon fill="black" stroke="black" points="1390.12,-349.02 1391.78,-338.56 1383.96,-345.7 1390.12,-349.02"/>
</g>
<!-- PointedCat_cat_zero_target -->
<g id="node3" class="node">
<title>PointedCat_cat_zero_target</title>
<g id="a_node3"><a xlink:href="PointedCat.html#cat_zero_target" xlink:title="cat_zero_target">
<ellipse fill="#f070d1" stroke="black" cx="1096" cy="-567.46" rx="82.58" ry="18"/>
<ellipse fill="none" stroke="black" cx="1096" cy="-567.46" rx="86.58" ry="22"/>
<ellipse fill="none" stroke="black" cx="1096" cy="-567.46" rx="90.59" ry="26"/>
<text text-anchor="middle" x="1096" y="-563.76" font-family="Times,serif" font-size="14.00">cat_zero_target</text>
</a>
</g>
</g>
<!-- PointedCat_cat_zero_target&#45;&gt;PointedCat_zero_morphism -->
<g id="edge3" class="edge">
<title>PointedCat_cat_zero_target&#45;&gt;PointedCat_zero_morphism</title>
<path fill="none" stroke="black" d="M1125.52,-542.74C1184.09,-495.7 1314.3,-391.1 1372.24,-344.56"/>
<polygon fill="black" stroke="black" points="1374.64,-347.12 1380.24,-338.13 1370.25,-341.66 1374.64,-347.12"/>
</g>
<!-- PointedCat_cat_zero_source -->
<g id="node4" class="node">
<title>PointedCat_cat_zero_source</title>
<g id="a_node4"><a xlink:href="PointedCat.html#cat_zero_source" xlink:title="cat_zero_source">
<ellipse fill="#f070d1" stroke="black" cx="895" cy="-567.46" rx="84.49" ry="18"/>
<ellipse fill="none" stroke="black" cx="895" cy="-567.46" rx="88.49" ry="22"/>
<ellipse fill="none" stroke="black" cx="895" cy="-567.46" rx="92.49" ry="26"/>
<text text-anchor="middle" x="895" y="-563.76" font-family="Times,serif" font-size="14.00">cat_zero_source</text>
</a>
</g>
</g>
<!-- PointedCat_cat_zero_source&#45;&gt;PointedCat_zero_morphism -->
<g id="edge4" class="edge">
<title>PointedCat_cat_zero_source&#45;&gt;PointedCat_zero_morphism</title>
<path fill="none" stroke="black" d="M939.9,-544.71C1037.06,-497.67 1265.6,-387.02 1359.55,-341.53"/>
<polygon fill="black" stroke="black" points="1361.27,-344.58 1368.75,-337.07 1358.22,-338.28 1361.27,-344.58"/>
</g>
<!-- PointedCat_IsPointedCat -->
<g id="node14" class="node">
<title>PointedCat_IsPointedCat</title>
<g id="a_node14"><a xlink:href="PointedCat.html#IsPointedCat" xlink:title="IsPointedCat">
<ellipse fill="#e2cdfa" stroke="black" cx="726" cy="-95.46" rx="70.39" ry="18"/>
<text text-anchor="middle" x="726" y="-91.76" font-family="Times,serif" font-size="14.00">IsPointedCat</text>
</a>
</g>
</g>
<!-- PointedCat_zero_morphism&#45;&gt;PointedCat_IsPointedCat -->
<g id="edge5" class="edge">
<title>PointedCat_zero_morphism&#45;&gt;PointedCat_IsPointedCat</title>
<path fill="none" stroke="black" d="M1357.75,-305.17C1238.36,-265.72 904.6,-155.46 776.73,-113.22"/>
<polygon fill="black" stroke="black" points="777.76,-109.87 767.17,-110.06 775.56,-116.52 777.76,-109.87"/>
</g>
<!-- PointedCat_isterminal_zero_object -->
<g id="node6" class="node">
<title>PointedCat_isterminal_zero_object</title>
<g id="a_node6"><a xlink:href="PointedCat.html#isterminal_zero_object" xlink:title="isterminal_zero_object">
<ellipse fill="#f070d1" stroke="black" cx="1178" cy="-320.46" rx="115.08" ry="18"/>
<ellipse fill="none" stroke="black" cx="1178" cy="-320.46" rx="119.08" ry="22"/>
<ellipse fill="none" stroke="black" cx="1178" cy="-320.46" rx="123.08" ry="26"/>
<text text-anchor="middle" x="1178" y="-316.76" font-family="Times,serif" font-size="14.00">isterminal_zero_object</text>
</a>
</g>
</g>
<!-- PointedCat_isterminal_zero_object&#45;&gt;PointedCat_IsPointedCat -->
<g id="edge6" class="edge">
<title>PointedCat_isterminal_zero_object&#45;&gt;PointedCat_IsPointedCat</title>
<path fill="none" stroke="black" d="M1130.91,-296.22C1041.64,-252.18 849.3,-157.29 765.91,-116.15"/>
<polygon fill="black" stroke="black" points="767.29,-112.92 756.77,-111.64 764.19,-119.2 767.29,-112.92"/>
</g>
<!-- PointedCat_isinitial_zero_object -->
<g id="node7" class="node">
<title>PointedCat_isinitial_zero_object</title>
<g id="a_node7"><a xlink:href="PointedCat.html#isinitial_zero_object" xlink:title="isinitial_zero_object">
<ellipse fill="#f070d1" stroke="black" cx="926" cy="-320.46" rx="102.87" ry="18"/>
<ellipse fill="none" stroke="black" cx="926" cy="-320.46" rx="106.88" ry="22"/>
<ellipse fill="none" stroke="black" cx="926" cy="-320.46" rx="110.88" ry="26"/>
<text text-anchor="middle" x="926" y="-316.76" font-family="Times,serif" font-size="14.00">isinitial_zero_object</text>
</a>
</g>
</g>
<!-- PointedCat_isinitial_zero_object&#45;&gt;PointedCat_IsPointedCat -->
<g id="edge7" class="edge">
<title>PointedCat_isinitial_zero_object&#45;&gt;PointedCat_IsPointedCat</title>
<path fill="none" stroke="black" d="M903.83,-294.74C865.23,-251.7 786.14,-163.51 747.8,-120.76"/>
<polygon fill="black" stroke="black" points="750.2,-118.19 740.91,-113.09 744.99,-122.87 750.2,-118.19"/>
</g>
<!-- PointedCat_zero_object -->
<g id="node8" class="node">
<title>PointedCat_zero_object</title>
<g id="a_node8"><a xlink:href="PointedCat.html#zero_object" xlink:title="zero_object">
<ellipse fill="#f070d1" stroke="black" cx="726" cy="-320.46" rx="63.87" ry="18"/>
<ellipse fill="none" stroke="black" cx="726" cy="-320.46" rx="67.88" ry="22"/>
<ellipse fill="none" stroke="black" cx="726" cy="-320.46" rx="71.89" ry="26"/>
<text text-anchor="middle" x="726" y="-316.76" font-family="Times,serif" font-size="14.00">zero_object</text>
</a>
</g>
</g>
<!-- PointedCat_zero_object&#45;&gt;PointedCat_IsPointedCat -->
<g id="edge8" class="edge">
<title>PointedCat_zero_object&#45;&gt;PointedCat_IsPointedCat</title>
<path fill="none" stroke="black" d="M726,-294.31C726,-252.1 726,-167.34 726,-123.74"/>
<polygon fill="black" stroke="black" points="729.5,-123.59 726,-113.59 722.5,-123.59 729.5,-123.59"/>
</g>
<!-- PointedCat_IsPointedCat_sind -->
<g id="node9" class="node">
<title>PointedCat_IsPointedCat_sind</title>
<g id="a_node9"><a xlink:href="PointedCat.html#IsPointedCat_sind" xlink:title="IsPointedCat_sind">
<ellipse fill="#f070d1" stroke="black" cx="534" cy="-320.46" rx="94.46" ry="18"/>
<ellipse fill="none" stroke="black" cx="534" cy="-320.46" rx="98.47" ry="22"/>
<ellipse fill="none" stroke="black" cx="534" cy="-320.46" rx="102.48" ry="26"/>
<text text-anchor="middle" x="534" y="-316.76" font-family="Times,serif" font-size="14.00">IsPointedCat_sind</text>
</a>
</g>
</g>
<!-- PointedCat_Build_IsPointedCat -->
<g id="node13" class="node">
<title>PointedCat_Build_IsPointedCat</title>
<g id="a_node13"><a xlink:href="PointedCat.html#Build_IsPointedCat" xlink:title="Build_IsPointedCat">
<ellipse fill="#7faaff" stroke="black" cx="321" cy="-95.46" rx="98.58" ry="18"/>
<text text-anchor="middle" x="321" y="-91.76" font-family="Times,serif" font-size="14.00">Build_IsPointedCat</text>
</a>
</g>
</g>
<!-- PointedCat_IsPointedCat_sind&#45;&gt;PointedCat_Build_IsPointedCat -->
<g id="edge9" class="edge">
<title>PointedCat_IsPointedCat_sind&#45;&gt;PointedCat_Build_IsPointedCat</title>
<path fill="none" stroke="black" d="M510.39,-294.74C469.3,-251.72 385.12,-163.58 344.26,-120.81"/>
<polygon fill="black" stroke="black" points="346.6,-118.19 337.16,-113.38 341.54,-123.03 346.6,-118.19"/>
</g>
<!-- PointedCat_IsPointedCat_sind&#45;&gt;PointedCat_IsPointedCat -->
<g id="edge10" class="edge">
<title>PointedCat_IsPointedCat_sind&#45;&gt;PointedCat_IsPointedCat</title>
<path fill="none" stroke="black" d="M555.28,-294.74C592.34,-251.7 668.27,-163.51 705.07,-120.76"/>
<polygon fill="black" stroke="black" points="707.81,-122.95 711.68,-113.09 702.5,-118.38 707.81,-122.95"/>
</g>
<!-- PointedCat_IsPointedCat_rec -->
<g id="node10" class="node">
<title>PointedCat_IsPointedCat_rec</title>
<g id="a_node10"><a xlink:href="PointedCat.html#IsPointedCat_rec" xlink:title="IsPointedCat_rec">
<ellipse fill="#f070d1" stroke="black" cx="321" cy="-567.46" rx="89.08" ry="18"/>
<ellipse fill="none" stroke="black" cx="321" cy="-567.46" rx="93.08" ry="22"/>
<ellipse fill="none" stroke="black" cx="321" cy="-567.46" rx="97.08" ry="26"/>
<text text-anchor="middle" x="321" y="-563.76" font-family="Times,serif" font-size="14.00">IsPointedCat_rec</text>
</a>
</g>
</g>
<!-- PointedCat_IsPointedCat_rect -->
<g id="node12" class="node">
<title>PointedCat_IsPointedCat_rect</title>
<g id="a_node12"><a xlink:href="PointedCat.html#IsPointedCat_rect" xlink:title="IsPointedCat_rect">
<ellipse fill="#f070d1" stroke="black" cx="321" cy="-320.46" rx="92.88" ry="18"/>
<text text-anchor="middle" x="321" y="-316.76" font-family="Times,serif" font-size="14.00">IsPointedCat_rect</text>
</a>
</g>
</g>
<!-- PointedCat_IsPointedCat_rec&#45;&gt;PointedCat_IsPointedCat_rect -->
<g id="edge11" class="edge">
<title>PointedCat_IsPointedCat_rec&#45;&gt;PointedCat_IsPointedCat_rect</title>
<path fill="none" stroke="black" d="M321,-541.16C321,-494.77 321,-396.47 321,-348.68"/>
<polygon fill="black" stroke="black" points="324.5,-348.48 321,-338.48 317.5,-348.48 324.5,-348.48"/>
</g>
<!-- PointedCat_IsPointedCat_ind -->
<g id="node11" class="node">
<title>PointedCat_IsPointedCat_ind</title>
<g id="a_node11"><a xlink:href="PointedCat.html#IsPointedCat_ind" xlink:title="IsPointedCat_ind">
<ellipse fill="#7fffd4" stroke="black" cx="113" cy="-320.46" rx="89.08" ry="18"/>
<ellipse fill="none" stroke="black" cx="113" cy="-320.46" rx="93.08" ry="22"/>
<ellipse fill="none" stroke="black" cx="113" cy="-320.46" rx="97.08" ry="26"/>
<text text-anchor="middle" x="113" y="-316.76" font-family="Times,serif" font-size="14.00">IsPointedCat_ind</text>
</a>
</g>
</g>
<!-- PointedCat_IsPointedCat_ind&#45;&gt;PointedCat_Build_IsPointedCat -->
<g id="edge12" class="edge">
<title>PointedCat_IsPointedCat_ind&#45;&gt;PointedCat_Build_IsPointedCat</title>
<path fill="none" stroke="black" d="M135.66,-295.17C175.6,-252.34 258.11,-163.88 298.18,-120.92"/>
<polygon fill="black" stroke="black" points="300.88,-123.16 305.15,-113.45 295.76,-118.38 300.88,-123.16"/>
</g>
<!-- PointedCat_IsPointedCat_ind&#45;&gt;PointedCat_IsPointedCat -->
<g id="edge13" class="edge">
<title>PointedCat_IsPointedCat_ind&#45;&gt;PointedCat_IsPointedCat</title>
<path fill="none" stroke="black" d="M168.75,-299.18C287.79,-255.87 565.08,-155 677.43,-114.13"/>
<polygon fill="black" stroke="black" points="678.94,-117.3 687.14,-110.59 676.55,-110.72 678.94,-117.3"/>
</g>
<!-- PointedCat_IsPointedCat_rect&#45;&gt;PointedCat_Build_IsPointedCat -->
<g id="edge14" class="edge">
<title>PointedCat_IsPointedCat_rect&#45;&gt;PointedCat_Build_IsPointedCat</title>
<path fill="none" stroke="black" d="M321,-302.33C321,-263.9 321,-170.54 321,-123.9"/>
<polygon fill="black" stroke="black" points="324.5,-123.64 321,-113.64 317.5,-123.64 324.5,-123.64"/>
</g>
<!-- PointedCat_IsPointedCat_rect&#45;&gt;PointedCat_IsPointedCat -->
<g id="edge15" class="edge">
<title>PointedCat_IsPointedCat_rect&#45;&gt;PointedCat_IsPointedCat</title>
<path fill="none" stroke="black" d="M350.45,-303.24C422.69,-263.46 608.58,-161.11 688.53,-117.09"/>
<polygon fill="black" stroke="black" points="690.67,-119.91 697.74,-112.02 687.29,-113.78 690.67,-119.91"/>
</g>
</g>
</svg>
