<?xml version="1.0" encoding="UTF-8" standalone="no"?>
<!DOCTYPE svg PUBLIC "-//W3C//DTD SVG 1.1//EN"
 "http://www.w3.org/Graphics/SVG/1.1/DTD/svg11.dtd">
<!-- Generated by graphviz version 2.43.0 (0)
 -->
<!-- Title: HoTT_TruncType Pages: 1 -->
<svg width="1863pt" height="935pt"
 viewBox="0.00 0.00 1863.00 935.50" xmlns="http://www.w3.org/2000/svg" xmlns:xlink="http://www.w3.org/1999/xlink">
<g id="graph0" class="graph" transform="scale(1 1) rotate(0) translate(4 931.5)">
<title>HoTT_TruncType</title>
<polygon fill="white" stroke="transparent" points="-4,4 -4,-931.5 1859,-931.5 1859,4 -4,4"/>
<g id="clust1" class="cluster">
<title>cluster_TruncType</title>
<polygon fill="#ffffc3" stroke="black" points="8,-12.64 8,-914.86 1847,-914.86 1847,-12.64 8,-12.64"/>
<text text-anchor="middle" x="54" y="-899.66" font-family="Times,serif" font-size="14.00">TruncType</text>
</g>
<!-- TruncType_equiv_path_iff_ishprop -->
<g id="node1" class="node">
<title>TruncType_equiv_path_iff_ishprop</title>
<g id="a_node1"><a xlink:href="TruncType.html#equiv_path_iff_ishprop" xlink:title="equiv_path_iff_ishprop">
<ellipse fill="#f070d1" stroke="black" cx="1667" cy="-824.64" rx="114.29" ry="18"/>
<ellipse fill="none" stroke="black" cx="1667" cy="-824.64" rx="118.28" ry="22"/>
<ellipse fill="none" stroke="black" cx="1667" cy="-824.64" rx="122.28" ry="26"/>
<text text-anchor="middle" x="1667" y="-820.94" font-family="Times,serif" font-size="14.00">equiv_path_iff_ishprop</text>
</a>
</g>
</g>
<!-- TruncType_isequiv_path_iff_ishprop_uncurried -->
<g id="node5" class="node">
<title>TruncType_isequiv_path_iff_ishprop_uncurried</title>
<g id="a_node5"><a xlink:href="TruncType.html#isequiv_path_iff_ishprop_uncurried" xlink:title="isequiv_path_iff_ishprop_uncurried">
<ellipse fill="#f070d1" stroke="black" cx="1667" cy="-685.64" rx="172.47" ry="18"/>
<text text-anchor="middle" x="1667" y="-681.94" font-family="Times,serif" font-size="14.00">isequiv_path_iff_ishprop_uncurried</text>
</a>
</g>
</g>
<!-- TruncType_equiv_path_iff_ishprop&#45;&gt;TruncType_isequiv_path_iff_ishprop_uncurried -->
<g id="edge1" class="edge">
<title>TruncType_equiv_path_iff_ishprop&#45;&gt;TruncType_isequiv_path_iff_ishprop_uncurried</title>
<path fill="none" stroke="black" d="M1667,-798.51C1667,-774.56 1667,-738.58 1667,-713.93"/>
<polygon fill="black" stroke="black" points="1670.5,-713.81 1667,-703.81 1663.5,-713.81 1670.5,-713.81"/>
</g>
<!-- TruncType_path_iff_hprop -->
<g id="node2" class="node">
<title>TruncType_path_iff_hprop</title>
<g id="a_node2"><a xlink:href="TruncType.html#path_iff_hprop" xlink:title="path_iff_hprop">
<ellipse fill="#f070d1" stroke="black" cx="1129" cy="-824.64" rx="77.2" ry="18"/>
<ellipse fill="none" stroke="black" cx="1129" cy="-824.64" rx="81.19" ry="22"/>
<ellipse fill="none" stroke="black" cx="1129" cy="-824.64" rx="85.19" ry="26"/>
<text text-anchor="middle" x="1129" y="-820.94" font-family="Times,serif" font-size="14.00">path_iff_hprop</text>
</a>
</g>
</g>
<!-- TruncType_path_iff_hprop_uncurried -->
<g id="node6" class="node">
<title>TruncType_path_iff_hprop_uncurried</title>
<g id="a_node6"><a xlink:href="TruncType.html#path_iff_hprop_uncurried" xlink:title="path_iff_hprop_uncurried">
<ellipse fill="#f070d1" stroke="black" cx="1117" cy="-685.64" rx="126.98" ry="18"/>
<text text-anchor="middle" x="1117" y="-681.94" font-family="Times,serif" font-size="14.00">path_iff_hprop_uncurried</text>
</a>
</g>
</g>
<!-- TruncType_path_iff_hprop&#45;&gt;TruncType_path_iff_hprop_uncurried -->
<g id="edge2" class="edge">
<title>TruncType_path_iff_hprop&#45;&gt;TruncType_path_iff_hprop_uncurried</title>
<path fill="none" stroke="black" d="M1126.8,-798.51C1124.7,-774.56 1121.55,-738.58 1119.39,-713.93"/>
<polygon fill="black" stroke="black" points="1122.86,-713.47 1118.5,-703.81 1115.89,-714.08 1122.86,-713.47"/>
</g>
<!-- TruncType_path_iff_ishprop -->
<g id="node3" class="node">
<title>TruncType_path_iff_ishprop</title>
<g id="a_node3"><a xlink:href="TruncType.html#path_iff_ishprop" xlink:title="path_iff_ishprop">
<ellipse fill="#f070d1" stroke="black" cx="1384" cy="-685.64" rx="85.27" ry="18"/>
<ellipse fill="none" stroke="black" cx="1384" cy="-685.64" rx="89.28" ry="22"/>
<ellipse fill="none" stroke="black" cx="1384" cy="-685.64" rx="93.29" ry="26"/>
<text text-anchor="middle" x="1384" y="-681.94" font-family="Times,serif" font-size="14.00">path_iff_ishprop</text>
</a>
</g>
</g>
<!-- TruncType_path_iff_ishprop_uncurried -->
<g id="node7" class="node">
<title>TruncType_path_iff_ishprop_uncurried</title>
<g id="a_node7"><a xlink:href="TruncType.html#path_iff_ishprop_uncurried" xlink:title="path_iff_ishprop_uncurried">
<ellipse fill="#f070d1" stroke="black" cx="1704" cy="-546.64" rx="134.58" ry="18"/>
<text text-anchor="middle" x="1704" y="-542.94" font-family="Times,serif" font-size="14.00">path_iff_ishprop_uncurried</text>
</a>
</g>
</g>
<!-- TruncType_path_iff_ishprop&#45;&gt;TruncType_path_iff_ishprop_uncurried -->
<g id="edge3" class="edge">
<title>TruncType_path_iff_ishprop&#45;&gt;TruncType_path_iff_ishprop_uncurried</title>
<path fill="none" stroke="black" d="M1433.3,-663.53C1494.04,-637.53 1596.53,-593.65 1656.46,-568"/>
<polygon fill="black" stroke="black" points="1657.88,-571.19 1665.69,-564.04 1655.12,-564.76 1657.88,-571.19"/>
</g>
<!-- TruncType_isequiv_path_iff_hprop_uncurried -->
<g id="node4" class="node">
<title>TruncType_isequiv_path_iff_hprop_uncurried</title>
<g id="a_node4"><a xlink:href="TruncType.html#isequiv_path_iff_hprop_uncurried" xlink:title="isequiv_path_iff_hprop_uncurried">
<ellipse fill="#f070d1" stroke="black" cx="853" cy="-824.64" rx="164.37" ry="18"/>
<ellipse fill="none" stroke="black" cx="853" cy="-824.64" rx="168.37" ry="22"/>
<ellipse fill="none" stroke="black" cx="853" cy="-824.64" rx="172.37" ry="26"/>
<text text-anchor="middle" x="853" y="-820.94" font-family="Times,serif" font-size="14.00">isequiv_path_iff_hprop_uncurried</text>
</a>
</g>
</g>
<!-- TruncType_isequiv_path_iff_hprop_uncurried&#45;&gt;TruncType_path_iff_hprop_uncurried -->
<g id="edge4" class="edge">
<title>TruncType_isequiv_path_iff_hprop_uncurried&#45;&gt;TruncType_path_iff_hprop_uncurried</title>
<path fill="none" stroke="black" d="M899.59,-799.46C949.55,-773.54 1028.11,-732.77 1075.86,-707.99"/>
<polygon fill="black" stroke="black" points="1077.72,-710.97 1084.98,-703.26 1074.49,-704.76 1077.72,-710.97"/>
</g>
<!-- TruncType_isequiv_path_trunctype -->
<g id="node22" class="node">
<title>TruncType_isequiv_path_trunctype</title>
<g id="a_node22"><a xlink:href="TruncType.html#isequiv_path_trunctype" xlink:title="isequiv_path_trunctype">
<ellipse fill="#f070d1" stroke="black" cx="853" cy="-685.64" rx="118.88" ry="18"/>
<text text-anchor="middle" x="853" y="-681.94" font-family="Times,serif" font-size="14.00">isequiv_path_trunctype</text>
</a>
</g>
</g>
<!-- TruncType_isequiv_path_iff_hprop_uncurried&#45;&gt;TruncType_isequiv_path_trunctype -->
<g id="edge5" class="edge">
<title>TruncType_isequiv_path_iff_hprop_uncurried&#45;&gt;TruncType_isequiv_path_trunctype</title>
<path fill="none" stroke="black" d="M853,-798.51C853,-774.56 853,-738.58 853,-713.93"/>
<polygon fill="black" stroke="black" points="856.5,-713.81 853,-703.81 849.5,-713.81 856.5,-713.81"/>
</g>
<!-- TruncType_isequiv_path_iff_ishprop_uncurried&#45;&gt;TruncType_path_iff_ishprop_uncurried -->
<g id="edge6" class="edge">
<title>TruncType_isequiv_path_iff_ishprop_uncurried&#45;&gt;TruncType_path_iff_ishprop_uncurried</title>
<path fill="none" stroke="black" d="M1671.61,-667.57C1677.9,-644.29 1689.23,-602.34 1696.68,-574.74"/>
<polygon fill="black" stroke="black" points="1700.1,-575.5 1699.33,-564.93 1693.34,-573.67 1700.1,-575.5"/>
</g>
<!-- TruncType_path_hprop -->
<g id="node16" class="node">
<title>TruncType_path_hprop</title>
<g id="a_node16"><a xlink:href="TruncType.html#path_hprop" xlink:title="path_hprop">
<ellipse fill="#f070d1" stroke="black" cx="1088" cy="-546.64" rx="63.89" ry="18"/>
<text text-anchor="middle" x="1088" y="-542.94" font-family="Times,serif" font-size="14.00">path_hprop</text>
</a>
</g>
</g>
<!-- TruncType_path_iff_hprop_uncurried&#45;&gt;TruncType_path_hprop -->
<g id="edge7" class="edge">
<title>TruncType_path_iff_hprop_uncurried&#45;&gt;TruncType_path_hprop</title>
<path fill="none" stroke="black" d="M1113.39,-667.57C1108.46,-644.29 1099.58,-602.34 1093.74,-574.74"/>
<polygon fill="black" stroke="black" points="1097.15,-573.99 1091.66,-564.93 1090.31,-575.44 1097.15,-573.99"/>
</g>
<!-- TruncType_trunc_path_IsHProp -->
<g id="node8" class="node">
<title>TruncType_trunc_path_IsHProp</title>
<g id="a_node8"><a xlink:href="TruncType.html#trunc_path_IsHProp" xlink:title="trunc_path_IsHProp">
<ellipse fill="#f070d1" stroke="black" cx="538" cy="-824.64" rx="103.19" ry="18"/>
<ellipse fill="none" stroke="black" cx="538" cy="-824.64" rx="107.19" ry="22"/>
<ellipse fill="none" stroke="black" cx="538" cy="-824.64" rx="111.18" ry="26"/>
<text text-anchor="middle" x="538" y="-820.94" font-family="Times,serif" font-size="14.00">trunc_path_IsHProp</text>
</a>
</g>
</g>
<!-- TruncType_is_true -->
<g id="node9" class="node">
<title>TruncType_is_true</title>
<g id="a_node9"><a xlink:href="TruncType.html#is_true" xlink:title="is_true">
<ellipse fill="#f070d1" stroke="black" cx="333" cy="-824.64" rx="42.45" ry="18"/>
<ellipse fill="none" stroke="black" cx="333" cy="-824.64" rx="46.47" ry="22"/>
<ellipse fill="none" stroke="black" cx="333" cy="-824.64" rx="50.49" ry="26"/>
<text text-anchor="middle" x="333" y="-820.94" font-family="Times,serif" font-size="14.00">is_true</text>
</a>
</g>
</g>
<!-- TruncType_False_hp -->
<g id="node11" class="node">
<title>TruncType_False_hp</title>
<g id="a_node11"><a xlink:href="TruncType.html#False_hp" xlink:title="False_hp">
<ellipse fill="#f070d1" stroke="black" cx="274" cy="-685.64" rx="51.19" ry="18"/>
<text text-anchor="middle" x="274" y="-681.94" font-family="Times,serif" font-size="14.00">False_hp</text>
</a>
</g>
</g>
<!-- TruncType_is_true&#45;&gt;TruncType_False_hp -->
<g id="edge8" class="edge">
<title>TruncType_is_true&#45;&gt;TruncType_False_hp</title>
<path fill="none" stroke="black" d="M322.45,-799.15C311.98,-774.82 295.97,-737.66 285.26,-712.78"/>
<polygon fill="black" stroke="black" points="288.46,-711.37 281.29,-703.57 282.03,-714.14 288.46,-711.37"/>
</g>
<!-- TruncType_Unit_hp -->
<g id="node12" class="node">
<title>TruncType_Unit_hp</title>
<g id="a_node12"><a xlink:href="TruncType.html#Unit_hp" xlink:title="Unit_hp">
<ellipse fill="#f070d1" stroke="black" cx="391" cy="-685.64" rx="47.39" ry="18"/>
<text text-anchor="middle" x="391" y="-681.94" font-family="Times,serif" font-size="14.00">Unit_hp</text>
</a>
</g>
</g>
<!-- TruncType_is_true&#45;&gt;TruncType_Unit_hp -->
<g id="edge9" class="edge">
<title>TruncType_is_true&#45;&gt;TruncType_Unit_hp</title>
<path fill="none" stroke="black" d="M343.37,-799.15C353.62,-774.93 369.26,-737.99 379.8,-713.11"/>
<polygon fill="black" stroke="black" points="383.16,-714.15 383.83,-703.57 376.71,-711.42 383.16,-714.15"/>
</g>
<!-- TruncType_Negation_hp -->
<g id="node10" class="node">
<title>TruncType_Negation_hp</title>
<g id="a_node10"><a xlink:href="TruncType.html#Negation_hp" xlink:title="Negation_hp">
<ellipse fill="#f070d1" stroke="black" cx="136" cy="-824.64" rx="69.58" ry="18"/>
<ellipse fill="none" stroke="black" cx="136" cy="-824.64" rx="73.59" ry="22"/>
<ellipse fill="none" stroke="black" cx="136" cy="-824.64" rx="77.59" ry="26"/>
<text text-anchor="middle" x="136" y="-820.94" font-family="Times,serif" font-size="14.00">Negation_hp</text>
</a>
</g>
</g>
<!-- TruncType_istrunc_sig_istrunc -->
<g id="node13" class="node">
<title>TruncType_istrunc_sig_istrunc</title>
<g id="a_node13"><a xlink:href="TruncType.html#istrunc_sig_istrunc" xlink:title="istrunc_sig_istrunc">
<ellipse fill="#f070d1" stroke="black" cx="1445" cy="-546.64" rx="98.6" ry="18"/>
<ellipse fill="none" stroke="black" cx="1445" cy="-546.64" rx="102.59" ry="22"/>
<ellipse fill="none" stroke="black" cx="1445" cy="-546.64" rx="106.58" ry="26"/>
<text text-anchor="middle" x="1445" y="-542.94" font-family="Times,serif" font-size="14.00">istrunc_sig_istrunc</text>
</a>
</g>
</g>
<!-- TruncType_istrunc_trunctype -->
<g id="node15" class="node">
<title>TruncType_istrunc_trunctype</title>
<g id="a_node15"><a xlink:href="TruncType.html#istrunc_trunctype" xlink:title="istrunc_trunctype">
<ellipse fill="#f070d1" stroke="black" cx="1245" cy="-420.64" rx="92.88" ry="18"/>
<text text-anchor="middle" x="1245" y="-416.94" font-family="Times,serif" font-size="14.00">istrunc_trunctype</text>
</a>
</g>
</g>
<!-- TruncType_istrunc_sig_istrunc&#45;&gt;TruncType_istrunc_trunctype -->
<g id="edge10" class="edge">
<title>TruncType_istrunc_sig_istrunc&#45;&gt;TruncType_istrunc_trunctype</title>
<path fill="none" stroke="black" d="M1406.91,-522.03C1370.34,-499.35 1315.56,-465.39 1280.05,-443.37"/>
<polygon fill="black" stroke="black" points="1281.8,-440.34 1271.46,-438.04 1278.11,-446.29 1281.8,-440.34"/>
</g>
<!-- TruncType_isset_HProp -->
<g id="node14" class="node">
<title>TruncType_isset_HProp</title>
<g id="a_node14"><a xlink:href="TruncType.html#isset_HProp" xlink:title="isset_HProp">
<ellipse fill="#f070d1" stroke="black" cx="1245" cy="-546.64" rx="66.89" ry="18"/>
<ellipse fill="none" stroke="black" cx="1245" cy="-546.64" rx="70.89" ry="22"/>
<ellipse fill="none" stroke="black" cx="1245" cy="-546.64" rx="74.89" ry="26"/>
<text text-anchor="middle" x="1245" y="-542.94" font-family="Times,serif" font-size="14.00">isset_HProp</text>
</a>
</g>
</g>
<!-- TruncType_isset_HProp&#45;&gt;TruncType_istrunc_trunctype -->
<g id="edge11" class="edge">
<title>TruncType_isset_HProp&#45;&gt;TruncType_istrunc_trunctype</title>
<path fill="none" stroke="black" d="M1245,-520.55C1245,-499.72 1245,-470.16 1245,-448.79"/>
<polygon fill="black" stroke="black" points="1248.5,-448.74 1245,-438.74 1241.5,-448.74 1248.5,-448.74"/>
</g>
<!-- TruncType_equiv_path_trunctype -->
<g id="node24" class="node">
<title>TruncType_equiv_path_trunctype</title>
<g id="a_node24"><a xlink:href="TruncType.html#equiv_path_trunctype" xlink:title="equiv_path_trunctype">
<ellipse fill="#f070d1" stroke="black" cx="1043" cy="-293.64" rx="111.28" ry="18"/>
<text text-anchor="middle" x="1043" y="-289.94" font-family="Times,serif" font-size="14.00">equiv_path_trunctype</text>
</a>
</g>
</g>
<!-- TruncType_istrunc_trunctype&#45;&gt;TruncType_equiv_path_trunctype -->
<g id="edge12" class="edge">
<title>TruncType_istrunc_trunctype&#45;&gt;TruncType_equiv_path_trunctype</title>
<path fill="none" stroke="black" d="M1218.59,-403.3C1182.7,-381.09 1118.41,-341.31 1078.38,-316.53"/>
<polygon fill="black" stroke="black" points="1080.08,-313.47 1069.74,-311.19 1076.4,-319.42 1080.08,-313.47"/>
</g>
<!-- TruncType_path_trunctype -->
<g id="node23" class="node">
<title>TruncType_path_trunctype</title>
<g id="a_node23"><a xlink:href="TruncType.html#path_trunctype" xlink:title="path_trunctype">
<ellipse fill="#f070d1" stroke="black" cx="841" cy="-420.64" rx="81.49" ry="18"/>
<text text-anchor="middle" x="841" y="-416.94" font-family="Times,serif" font-size="14.00">path_trunctype</text>
</a>
</g>
</g>
<!-- TruncType_path_hprop&#45;&gt;TruncType_path_trunctype -->
<g id="edge13" class="edge">
<title>TruncType_path_hprop&#45;&gt;TruncType_path_trunctype</title>
<path fill="none" stroke="black" d="M1058.21,-530.68C1014.09,-508.53 931.27,-466.96 881.62,-442.03"/>
<polygon fill="black" stroke="black" points="882.96,-438.79 872.46,-437.43 879.82,-445.05 882.96,-438.79"/>
</g>
<!-- TruncType_path_hset -->
<g id="node17" class="node">
<title>TruncType_path_hset</title>
<g id="a_node17"><a xlink:href="TruncType.html#path_hset" xlink:title="path_hset">
<ellipse fill="#f070d1" stroke="black" cx="922" cy="-546.64" rx="55.8" ry="18"/>
<ellipse fill="none" stroke="black" cx="922" cy="-546.64" rx="59.8" ry="22"/>
<ellipse fill="none" stroke="black" cx="922" cy="-546.64" rx="63.79" ry="26"/>
<text text-anchor="middle" x="922" y="-542.94" font-family="Times,serif" font-size="14.00">path_hset</text>
</a>
</g>
</g>
<!-- TruncType_path_hset&#45;&gt;TruncType_path_trunctype -->
<g id="edge14" class="edge">
<title>TruncType_path_hset&#45;&gt;TruncType_path_trunctype</title>
<path fill="none" stroke="black" d="M906.19,-521.44C892.19,-500 871.82,-468.83 857.59,-447.04"/>
<polygon fill="black" stroke="black" points="860.49,-445.08 852.09,-438.62 854.63,-448.91 860.49,-445.08"/>
</g>
<!-- TruncType_ap_trunctype -->
<g id="node18" class="node">
<title>TruncType_ap_trunctype</title>
<g id="a_node18"><a xlink:href="TruncType.html#ap_trunctype" xlink:title="ap_trunctype">
<ellipse fill="#f070d1" stroke="black" cx="761" cy="-546.64" rx="71.49" ry="18"/>
<ellipse fill="none" stroke="black" cx="761" cy="-546.64" rx="75.49" ry="22"/>
<ellipse fill="none" stroke="black" cx="761" cy="-546.64" rx="79.49" ry="26"/>
<text text-anchor="middle" x="761" y="-542.94" font-family="Times,serif" font-size="14.00">ap_trunctype</text>
</a>
</g>
</g>
<!-- TruncType_ap_trunctype&#45;&gt;TruncType_path_trunctype -->
<g id="edge15" class="edge">
<title>TruncType_ap_trunctype&#45;&gt;TruncType_path_trunctype</title>
<path fill="none" stroke="black" d="M776.81,-521.14C790.59,-499.77 810.52,-468.89 824.51,-447.21"/>
<polygon fill="black" stroke="black" points="827.62,-448.84 830.1,-438.54 821.74,-445.04 827.62,-448.84"/>
</g>
<!-- TruncType_path_trunctype_pp -->
<g id="node19" class="node">
<title>TruncType_path_trunctype_pp</title>
<g id="a_node19"><a xlink:href="TruncType.html#path_trunctype_pp" xlink:title="path_trunctype_pp">
<ellipse fill="#f070d1" stroke="black" cx="558" cy="-546.64" rx="97.48" ry="18"/>
<ellipse fill="none" stroke="black" cx="558" cy="-546.64" rx="101.48" ry="22"/>
<ellipse fill="none" stroke="black" cx="558" cy="-546.64" rx="105.48" ry="26"/>
<text text-anchor="middle" x="558" y="-542.94" font-family="Times,serif" font-size="14.00">path_trunctype_pp</text>
</a>
</g>
</g>
<!-- TruncType_path_trunctype_pp&#45;&gt;TruncType_path_trunctype -->
<g id="edge16" class="edge">
<title>TruncType_path_trunctype_pp&#45;&gt;TruncType_path_trunctype</title>
<path fill="none" stroke="black" d="M608.27,-523.61C661.69,-500.21 745.35,-463.55 796.47,-441.15"/>
<polygon fill="black" stroke="black" points="798.18,-444.22 805.93,-437.01 795.37,-437.81 798.18,-444.22"/>
</g>
<!-- TruncType_path_trunctype_V -->
<g id="node20" class="node">
<title>TruncType_path_trunctype_V</title>
<g id="a_node20"><a xlink:href="TruncType.html#path_trunctype_V" xlink:title="path_trunctype_V">
<ellipse fill="#f070d1" stroke="black" cx="334" cy="-546.64" rx="92.1" ry="18"/>
<ellipse fill="none" stroke="black" cx="334" cy="-546.64" rx="96.09" ry="22"/>
<ellipse fill="none" stroke="black" cx="334" cy="-546.64" rx="100.08" ry="26"/>
<text text-anchor="middle" x="334" y="-542.94" font-family="Times,serif" font-size="14.00">path_trunctype_V</text>
</a>
</g>
</g>
<!-- TruncType_path_trunctype_V&#45;&gt;TruncType_path_trunctype -->
<g id="edge17" class="edge">
<title>TruncType_path_trunctype_V&#45;&gt;TruncType_path_trunctype</title>
<path fill="none" stroke="black" d="M405.03,-528.27C504.66,-503.9 684.27,-459.97 778.86,-436.84"/>
<polygon fill="black" stroke="black" points="779.69,-440.24 788.58,-434.46 778.03,-433.44 779.69,-440.24"/>
</g>
<!-- TruncType_path_trunctype_1 -->
<g id="node21" class="node">
<title>TruncType_path_trunctype_1</title>
<g id="a_node21"><a xlink:href="TruncType.html#path_trunctype_1" xlink:title="path_trunctype_1">
<ellipse fill="#f070d1" stroke="black" cx="116" cy="-546.64" rx="91.77" ry="18"/>
<ellipse fill="none" stroke="black" cx="116" cy="-546.64" rx="95.78" ry="22"/>
<ellipse fill="none" stroke="black" cx="116" cy="-546.64" rx="99.78" ry="26"/>
<text text-anchor="middle" x="116" y="-542.94" font-family="Times,serif" font-size="14.00">path_trunctype_1</text>
</a>
</g>
</g>
<!-- TruncType_path_trunctype_1&#45;&gt;TruncType_path_trunctype -->
<g id="edge18" class="edge">
<title>TruncType_path_trunctype_1&#45;&gt;TruncType_path_trunctype</title>
<path fill="none" stroke="black" d="M187.68,-528.49C200.09,-525.72 212.9,-523 225,-520.64 418.18,-483.01 647.47,-448.92 764.28,-432.31"/>
<polygon fill="black" stroke="black" points="764.79,-435.77 774.2,-430.9 763.81,-428.84 764.79,-435.77"/>
</g>
<!-- TruncType_isequiv_path_trunctype&#45;&gt;TruncType_path_trunctype -->
<g id="edge19" class="edge">
<title>TruncType_isequiv_path_trunctype&#45;&gt;TruncType_path_trunctype</title>
<path fill="none" stroke="black" d="M886.57,-668.35C938.4,-640.84 1028.57,-582.13 995,-520.64 973.54,-481.33 929.05,-455.3 893.38,-439.84"/>
<polygon fill="black" stroke="black" points="894.63,-436.57 884.05,-435.95 891.93,-443.03 894.63,-436.57"/>
</g>
<!-- TruncType_path_trunctype&#45;&gt;TruncType_equiv_path_trunctype -->
<g id="edge20" class="edge">
<title>TruncType_path_trunctype&#45;&gt;TruncType_equiv_path_trunctype</title>
<path fill="none" stroke="black" d="M866.99,-403.55C902.76,-381.42 967.26,-341.51 1007.46,-316.63"/>
<polygon fill="black" stroke="black" points="1009.48,-319.5 1016.14,-311.26 1005.8,-313.55 1009.48,-319.5"/>
</g>
<!-- TruncType_equiv_path_trunctype_ -->
<g id="node26" class="node">
<title>TruncType_equiv_path_trunctype_</title>
<g id="a_node26"><a xlink:href="TruncType.html#equiv_path_trunctype'" xlink:title="equiv_path_trunctype&#39;">
<ellipse fill="#f070d1" stroke="black" cx="920" cy="-167.64" rx="113.98" ry="18"/>
<text text-anchor="middle" x="920" y="-163.94" font-family="Times,serif" font-size="14.00">equiv_path_trunctype&#39;</text>
</a>
</g>
</g>
<!-- TruncType_equiv_path_trunctype&#45;&gt;TruncType_equiv_path_trunctype_ -->
<g id="edge21" class="edge">
<title>TruncType_equiv_path_trunctype&#45;&gt;TruncType_equiv_path_trunctype_</title>
<path fill="none" stroke="black" d="M1026.16,-275.66C1004.93,-254.26 968.3,-217.34 944.11,-192.95"/>
<polygon fill="black" stroke="black" points="946.56,-190.45 937.04,-185.82 941.59,-195.38 946.56,-190.45"/>
</g>
<!-- TruncType_isequiv_ap_trunctype -->
<g id="node25" class="node">
<title>TruncType_isequiv_ap_trunctype</title>
<g id="a_node25"><a xlink:href="TruncType.html#isequiv_ap_trunctype" xlink:title="isequiv_ap_trunctype">
<ellipse fill="#f070d1" stroke="black" cx="797" cy="-293.64" rx="109.37" ry="18"/>
<ellipse fill="none" stroke="black" cx="797" cy="-293.64" rx="113.37" ry="22"/>
<ellipse fill="none" stroke="black" cx="797" cy="-293.64" rx="117.38" ry="26"/>
<text text-anchor="middle" x="797" y="-289.94" font-family="Times,serif" font-size="14.00">isequiv_ap_trunctype</text>
</a>
</g>
</g>
<!-- TruncType_isequiv_ap_trunctype&#45;&gt;TruncType_equiv_path_trunctype_ -->
<g id="edge22" class="edge">
<title>TruncType_isequiv_ap_trunctype&#45;&gt;TruncType_equiv_path_trunctype_</title>
<path fill="none" stroke="black" d="M821.3,-268.14C842.97,-246.3 874.51,-214.5 896.07,-192.77"/>
<polygon fill="black" stroke="black" points="898.68,-195.1 903.24,-185.54 893.71,-190.17 898.68,-195.1"/>
</g>
<!-- TruncType_issig_trunctype -->
<g id="node27" class="node">
<title>TruncType_issig_trunctype</title>
<g id="a_node27"><a xlink:href="TruncType.html#issig_trunctype" xlink:title="issig_trunctype">
<ellipse fill="#f070d1" stroke="black" cx="920" cy="-53.64" rx="81.79" ry="18"/>
<text text-anchor="middle" x="920" y="-49.94" font-family="Times,serif" font-size="14.00">issig_trunctype</text>
</a>
</g>
</g>
<!-- TruncType_equiv_path_trunctype_&#45;&gt;TruncType_issig_trunctype -->
<g id="edge23" class="edge">
<title>TruncType_equiv_path_trunctype_&#45;&gt;TruncType_issig_trunctype</title>
<path fill="none" stroke="black" d="M920,-149.63C920,-131.7 920,-103.2 920,-82.08"/>
<polygon fill="black" stroke="black" points="923.5,-81.81 920,-71.81 916.5,-81.81 923.5,-81.81"/>
</g>
</g>
</svg>
