<?xml version="1.0" encoding="UTF-8" standalone="no"?>
<!DOCTYPE svg PUBLIC "-//W3C//DTD SVG 1.1//EN"
 "http://www.w3.org/Graphics/SVG/1.1/DTD/svg11.dtd">
<!-- Generated by graphviz version 2.43.0 (0)
 -->
<!-- Title: HoTT_Spaces_Finite_FinNat Pages: 1 -->
<svg width="2807pt" height="1407pt"
 viewBox="0.00 0.00 2807.00 1407.50" xmlns="http://www.w3.org/2000/svg" xmlns:xlink="http://www.w3.org/1999/xlink">
<g id="graph0" class="graph" transform="scale(1 1) rotate(0) translate(4 1403.5)">
<title>HoTT_Spaces_Finite_FinNat</title>
<polygon fill="white" stroke="transparent" points="-4,4 -4,-1403.5 2803,-1403.5 2803,4 -4,4"/>
<g id="clust1" class="cluster">
<title>cluster_FinNat</title>
<polygon fill="#ffffc3" stroke="black" points="8,-22.44 8,-1377.06 2791,-1377.06 2791,-22.44 8,-22.44"/>
<text text-anchor="middle" x="41" y="-1361.86" font-family="Times,serif" font-size="14.00">FinNat</text>
</g>
<!-- FinNat_equiv_fin_finnat -->
<g id="node1" class="node">
<title>FinNat_equiv_fin_finnat</title>
<g id="a_node1"><a xlink:href="FinNat.html#equiv_fin_finnat" xlink:title="equiv_fin_finnat">
<ellipse fill="#f070d1" stroke="black" cx="2033" cy="-1217.44" rx="83.37" ry="18"/>
<ellipse fill="none" stroke="black" cx="2033" cy="-1217.44" rx="87.38" ry="22"/>
<ellipse fill="none" stroke="black" cx="2033" cy="-1217.44" rx="91.39" ry="26"/>
<text text-anchor="middle" x="2033" y="-1213.74" font-family="Times,serif" font-size="14.00">equiv_fin_finnat</text>
</a>
</g>
</g>
<!-- FinNat_path_fin_to_finnat_to_fin -->
<g id="node2" class="node">
<title>FinNat_path_fin_to_finnat_to_fin</title>
<g id="a_node2"><a xlink:href="FinNat.html#path_fin_to_finnat_to_fin" xlink:title="path_fin_to_finnat_to_fin">
<ellipse fill="#f070d1" stroke="black" cx="2108" cy="-970.44" rx="122.38" ry="18"/>
<text text-anchor="middle" x="2108" y="-966.74" font-family="Times,serif" font-size="14.00">path_fin_to_finnat_to_fin</text>
</a>
</g>
</g>
<!-- FinNat_equiv_fin_finnat&#45;&gt;FinNat_path_fin_to_finnat_to_fin -->
<g id="edge1" class="edge">
<title>FinNat_equiv_fin_finnat&#45;&gt;FinNat_path_fin_to_finnat_to_fin</title>
<path fill="none" stroke="black" d="M2040.74,-1191.14C2055,-1144.55 2085.29,-1045.62 2099.85,-998.06"/>
<polygon fill="black" stroke="black" points="2103.21,-999.05 2102.79,-988.46 2096.51,-997 2103.21,-999.05"/>
</g>
<!-- FinNat_path_finnat_to_fin_to_finnat -->
<g id="node3" class="node">
<title>FinNat_path_finnat_to_fin_to_finnat</title>
<g id="a_node3"><a xlink:href="FinNat.html#path_finnat_to_fin_to_finnat" xlink:title="path_finnat_to_fin_to_finnat">
<ellipse fill="#f070d1" stroke="black" cx="1886" cy="-746.44" rx="137.58" ry="18"/>
<text text-anchor="middle" x="1886" y="-742.74" font-family="Times,serif" font-size="14.00">path_finnat_to_fin_to_finnat</text>
</a>
</g>
</g>
<!-- FinNat_equiv_fin_finnat&#45;&gt;FinNat_path_finnat_to_fin_to_finnat -->
<g id="edge2" class="edge">
<title>FinNat_equiv_fin_finnat&#45;&gt;FinNat_path_finnat_to_fin_to_finnat</title>
<path fill="none" stroke="black" d="M2025.1,-1191.22C1999.76,-1110.39 1920.7,-858.16 1894.52,-774.62"/>
<polygon fill="black" stroke="black" points="1897.79,-773.35 1891.46,-764.85 1891.11,-775.44 1897.79,-773.35"/>
</g>
<!-- FinNat_path_finnat_to_fin_last -->
<g id="node4" class="node">
<title>FinNat_path_finnat_to_fin_last</title>
<g id="a_node4"><a xlink:href="FinNat.html#path_finnat_to_fin_last" xlink:title="path_finnat_to_fin_last">
<ellipse fill="#f070d1" stroke="black" cx="2153" cy="-521.44" rx="114.28" ry="18"/>
<text text-anchor="middle" x="2153" y="-517.74" font-family="Times,serif" font-size="14.00">path_finnat_to_fin_last</text>
</a>
</g>
</g>
<!-- FinNat_path_fin_to_finnat_to_fin&#45;&gt;FinNat_path_finnat_to_fin_last -->
<g id="edge3" class="edge">
<title>FinNat_path_fin_to_finnat_to_fin&#45;&gt;FinNat_path_finnat_to_fin_last</title>
<path fill="none" stroke="black" d="M2109.74,-952.19C2116.59,-884.1 2141.81,-633.61 2150.24,-549.89"/>
<polygon fill="black" stroke="black" points="2153.73,-550.18 2151.24,-539.88 2146.76,-549.47 2153.73,-550.18"/>
</g>
<!-- FinNat_path_finnat_to_fin_incl -->
<g id="node5" class="node">
<title>FinNat_path_finnat_to_fin_incl</title>
<g id="a_node5"><a xlink:href="FinNat.html#path_finnat_to_fin_incl" xlink:title="path_finnat_to_fin_incl">
<ellipse fill="#f070d1" stroke="black" cx="1174" cy="-746.44" rx="113.98" ry="18"/>
<text text-anchor="middle" x="1174" y="-742.74" font-family="Times,serif" font-size="14.00">path_finnat_to_fin_incl</text>
</a>
</g>
</g>
<!-- FinNat_path_fin_to_finnat_to_fin&#45;&gt;FinNat_path_finnat_to_fin_incl -->
<g id="edge4" class="edge">
<title>FinNat_path_fin_to_finnat_to_fin&#45;&gt;FinNat_path_finnat_to_fin_incl</title>
<path fill="none" stroke="black" d="M2046.36,-954.78C1879.62,-915.15 1420.44,-806.01 1244.17,-764.12"/>
<polygon fill="black" stroke="black" points="1244.77,-760.66 1234.23,-761.75 1243.15,-767.47 1244.77,-760.66"/>
</g>
<!-- FinNat_fin_to_finnat -->
<g id="node13" class="node">
<title>FinNat_fin_to_finnat</title>
<g id="a_node13"><a xlink:href="FinNat.html#fin_to_finnat" xlink:title="fin_to_finnat">
<ellipse fill="#f070d1" stroke="black" cx="1739" cy="-297.44" rx="67.69" ry="18"/>
<text text-anchor="middle" x="1739" y="-293.74" font-family="Times,serif" font-size="14.00">fin_to_finnat</text>
</a>
</g>
</g>
<!-- FinNat_path_fin_to_finnat_to_fin&#45;&gt;FinNat_fin_to_finnat -->
<g id="edge5" class="edge">
<title>FinNat_path_fin_to_finnat_to_fin&#45;&gt;FinNat_fin_to_finnat</title>
<path fill="none" stroke="black" d="M2118.14,-952.33C2162.13,-877.04 2331.86,-575.43 2276,-495.44 2170.93,-344.97 1937.71,-309.08 1816.12,-300.76"/>
<polygon fill="black" stroke="black" points="1816.34,-297.27 1806.13,-300.12 1815.89,-304.25 1816.34,-297.27"/>
</g>
<!-- FinNat_path_fin_to_finnat_fin_zero -->
<g id="node10" class="node">
<title>FinNat_path_fin_to_finnat_fin_zero</title>
<g id="a_node10"><a xlink:href="FinNat.html#path_fin_to_finnat_fin_zero" xlink:title="path_fin_to_finnat_fin_zero">
<ellipse fill="#f070d1" stroke="black" cx="1868" cy="-521.44" rx="133.48" ry="18"/>
<text text-anchor="middle" x="1868" y="-517.74" font-family="Times,serif" font-size="14.00">path_fin_to_finnat_fin_zero</text>
</a>
</g>
</g>
<!-- FinNat_path_finnat_to_fin_to_finnat&#45;&gt;FinNat_path_fin_to_finnat_fin_zero -->
<g id="edge6" class="edge">
<title>FinNat_path_finnat_to_fin_to_finnat&#45;&gt;FinNat_path_fin_to_finnat_fin_zero</title>
<path fill="none" stroke="black" d="M1884.62,-728.31C1881.52,-689.88 1873.98,-596.52 1870.22,-549.88"/>
<polygon fill="black" stroke="black" points="1873.68,-549.31 1869.39,-539.62 1866.7,-549.87 1873.68,-549.31"/>
</g>
<!-- FinNat_path_fin_to_finnat_fsucc -->
<g id="node11" class="node">
<title>FinNat_path_fin_to_finnat_fsucc</title>
<g id="a_node11"><a xlink:href="FinNat.html#path_fin_to_finnat_fsucc" xlink:title="path_fin_to_finnat_fsucc">
<ellipse fill="#f070d1" stroke="black" cx="1596" cy="-521.44" rx="120.78" ry="18"/>
<text text-anchor="middle" x="1596" y="-517.74" font-family="Times,serif" font-size="14.00">path_fin_to_finnat_fsucc</text>
</a>
</g>
</g>
<!-- FinNat_path_finnat_to_fin_to_finnat&#45;&gt;FinNat_path_fin_to_finnat_fsucc -->
<g id="edge7" class="edge">
<title>FinNat_path_finnat_to_fin_to_finnat&#45;&gt;FinNat_path_fin_to_finnat_fsucc</title>
<path fill="none" stroke="black" d="M1863.73,-728.31C1812.15,-688.65 1684.48,-590.47 1626.05,-545.55"/>
<polygon fill="black" stroke="black" points="1628.01,-542.64 1617.95,-539.32 1623.75,-548.19 1628.01,-542.64"/>
</g>
<!-- FinNat_finnat_to_fin -->
<g id="node12" class="node">
<title>FinNat_finnat_to_fin</title>
<g id="a_node12"><a xlink:href="FinNat.html#finnat_to_fin" xlink:title="finnat_to_fin">
<ellipse fill="#f070d1" stroke="black" cx="1457" cy="-297.44" rx="67.69" ry="18"/>
<text text-anchor="middle" x="1457" y="-293.74" font-family="Times,serif" font-size="14.00">finnat_to_fin</text>
</a>
</g>
</g>
<!-- FinNat_path_finnat_to_fin_to_finnat&#45;&gt;FinNat_finnat_to_fin -->
<g id="edge8" class="edge">
<title>FinNat_path_finnat_to_fin_to_finnat&#45;&gt;FinNat_finnat_to_fin</title>
<path fill="none" stroke="black" d="M1906.68,-728.37C1954.95,-686.46 2066.83,-576.01 2010,-495.44 1951.68,-412.74 1651.1,-339.81 1519.19,-311.24"/>
<polygon fill="black" stroke="black" points="1519.74,-307.78 1509.23,-309.1 1518.27,-314.63 1519.74,-307.78"/>
</g>
<!-- FinNat_path_finnat_to_fin_last&#45;&gt;FinNat_finnat_to_fin -->
<g id="edge9" class="edge">
<title>FinNat_path_finnat_to_fin_last&#45;&gt;FinNat_finnat_to_fin</title>
<path fill="none" stroke="black" d="M2104.89,-505.09C1978.63,-464.82 1638.65,-356.38 1508.58,-314.89"/>
<polygon fill="black" stroke="black" points="1509.44,-311.49 1498.85,-311.78 1507.31,-318.16 1509.44,-311.49"/>
</g>
<!-- FinNat_last_finnat -->
<g id="node21" class="node">
<title>FinNat_last_finnat</title>
<g id="a_node21"><a xlink:href="FinNat.html#last_finnat" xlink:title="last_finnat">
<ellipse fill="#f070d1" stroke="black" cx="2298" cy="-297.44" rx="59.29" ry="18"/>
<text text-anchor="middle" x="2298" y="-293.74" font-family="Times,serif" font-size="14.00">last_finnat</text>
</a>
</g>
</g>
<!-- FinNat_path_finnat_to_fin_last&#45;&gt;FinNat_last_finnat -->
<g id="edge10" class="edge">
<title>FinNat_path_finnat_to_fin_last&#45;&gt;FinNat_last_finnat</title>
<path fill="none" stroke="black" d="M2164.14,-503.39C2189.5,-464.55 2251.68,-369.36 2281.51,-323.68"/>
<polygon fill="black" stroke="black" points="2284.49,-325.53 2287.02,-315.24 2278.62,-321.7 2284.49,-325.53"/>
</g>
<!-- FinNat_path_finnat_to_fin_incl&#45;&gt;FinNat_finnat_to_fin -->
<g id="edge11" class="edge">
<title>FinNat_path_finnat_to_fin_incl&#45;&gt;FinNat_finnat_to_fin</title>
<path fill="none" stroke="black" d="M1214.63,-729.62C1277.2,-702.82 1395.22,-641.99 1446,-547.44 1484.83,-475.14 1472.16,-373.3 1462.99,-325.37"/>
<polygon fill="black" stroke="black" points="1466.4,-324.57 1460.99,-315.46 1459.54,-325.95 1466.4,-324.57"/>
</g>
<!-- FinNat_incl_finnat -->
<g id="node19" class="node">
<title>FinNat_incl_finnat</title>
<g id="a_node19"><a xlink:href="FinNat.html#incl_finnat" xlink:title="incl_finnat">
<ellipse fill="#f070d1" stroke="black" cx="424" cy="-297.44" rx="58.49" ry="18"/>
<text text-anchor="middle" x="424" y="-293.74" font-family="Times,serif" font-size="14.00">incl_finnat</text>
</a>
</g>
</g>
<!-- FinNat_path_finnat_to_fin_incl&#45;&gt;FinNat_incl_finnat -->
<g id="edge12" class="edge">
<title>FinNat_path_finnat_to_fin_incl&#45;&gt;FinNat_incl_finnat</title>
<path fill="none" stroke="black" d="M1068.69,-739.53C844.92,-724.55 333.95,-676.66 229,-547.44 160.7,-463.34 313.52,-360.96 387.18,-318.44"/>
<polygon fill="black" stroke="black" points="389.22,-321.31 396.18,-313.32 385.76,-315.22 389.22,-321.31"/>
</g>
<!-- FinNat_path_succ_finnat -->
<g id="node22" class="node">
<title>FinNat_path_succ_finnat</title>
<g id="a_node22"><a xlink:href="FinNat.html#path_succ_finnat" xlink:title="path_succ_finnat">
<ellipse fill="#f070d1" stroke="black" cx="326" cy="-521.44" rx="87.99" ry="18"/>
<text text-anchor="middle" x="326" y="-517.74" font-family="Times,serif" font-size="14.00">path_succ_finnat</text>
</a>
</g>
</g>
<!-- FinNat_path_finnat_to_fin_incl&#45;&gt;FinNat_path_succ_finnat -->
<g id="edge13" class="edge">
<title>FinNat_path_finnat_to_fin_incl&#45;&gt;FinNat_path_succ_finnat</title>
<path fill="none" stroke="black" d="M1118.03,-730.72C966.03,-690.75 546.35,-580.38 387.77,-538.68"/>
<polygon fill="black" stroke="black" points="388.26,-535.19 377.7,-536.03 386.48,-541.96 388.26,-535.19"/>
</g>
<!-- FinNat_path_finnat_to_fin_zero -->
<g id="node6" class="node">
<title>FinNat_path_finnat_to_fin_zero</title>
<g id="a_node6"><a xlink:href="FinNat.html#path_finnat_to_fin_zero" xlink:title="path_finnat_to_fin_zero">
<ellipse fill="#f070d1" stroke="black" cx="1312" cy="-521.44" rx="116.98" ry="18"/>
<ellipse fill="none" stroke="black" cx="1312" cy="-521.44" rx="120.98" ry="22"/>
<ellipse fill="none" stroke="black" cx="1312" cy="-521.44" rx="124.98" ry="26"/>
<text text-anchor="middle" x="1312" y="-517.74" font-family="Times,serif" font-size="14.00">path_finnat_to_fin_zero</text>
</a>
</g>
</g>
<!-- FinNat_path_finnat_to_fin_zero&#45;&gt;FinNat_finnat_to_fin -->
<g id="edge14" class="edge">
<title>FinNat_path_finnat_to_fin_zero&#45;&gt;FinNat_finnat_to_fin</title>
<path fill="none" stroke="black" d="M1328.35,-495.4C1356.22,-452.74 1412.6,-366.42 1440.54,-323.64"/>
<polygon fill="black" stroke="black" points="1443.51,-325.49 1446.05,-315.2 1437.65,-321.66 1443.51,-325.49"/>
</g>
<!-- FinNat_zero_finnat -->
<g id="node25" class="node">
<title>FinNat_zero_finnat</title>
<g id="a_node25"><a xlink:href="FinNat.html#zero_finnat" xlink:title="zero_finnat">
<ellipse fill="#f070d1" stroke="black" cx="1310" cy="-297.44" rx="61.99" ry="18"/>
<text text-anchor="middle" x="1310" y="-293.74" font-family="Times,serif" font-size="14.00">zero_finnat</text>
</a>
</g>
</g>
<!-- FinNat_path_finnat_to_fin_zero&#45;&gt;FinNat_zero_finnat -->
<g id="edge15" class="edge">
<title>FinNat_path_finnat_to_fin_zero&#45;&gt;FinNat_zero_finnat</title>
<path fill="none" stroke="black" d="M1311.77,-495.4C1311.4,-453.38 1310.64,-369 1310.24,-325.59"/>
<polygon fill="black" stroke="black" points="1313.74,-325.46 1310.15,-315.49 1306.74,-325.52 1313.74,-325.46"/>
</g>
<!-- FinNat_path_finnat_to_fin_succ -->
<g id="node7" class="node">
<title>FinNat_path_finnat_to_fin_succ</title>
<g id="a_node7"><a xlink:href="FinNat.html#path_finnat_to_fin_succ" xlink:title="path_finnat_to_fin_succ">
<ellipse fill="#f070d1" stroke="black" cx="557" cy="-521.44" rx="117.77" ry="18"/>
<ellipse fill="none" stroke="black" cx="557" cy="-521.44" rx="121.77" ry="22"/>
<ellipse fill="none" stroke="black" cx="557" cy="-521.44" rx="125.78" ry="26"/>
<text text-anchor="middle" x="557" y="-517.74" font-family="Times,serif" font-size="14.00">path_finnat_to_fin_succ</text>
</a>
</g>
</g>
<!-- FinNat_path_finnat_to_fin_succ&#45;&gt;FinNat_finnat_to_fin -->
<g id="edge16" class="edge">
<title>FinNat_path_finnat_to_fin_succ&#45;&gt;FinNat_finnat_to_fin</title>
<path fill="none" stroke="black" d="M635.69,-501.03C813.6,-457.14 1243.41,-351.12 1399.3,-312.67"/>
<polygon fill="black" stroke="black" points="1400.3,-316.03 1409.17,-310.24 1398.62,-309.23 1400.3,-316.03"/>
</g>
<!-- FinNat_succ_finnat -->
<g id="node23" class="node">
<title>FinNat_succ_finnat</title>
<g id="a_node23"><a xlink:href="FinNat.html#succ_finnat" xlink:title="succ_finnat">
<ellipse fill="#f070d1" stroke="black" cx="767" cy="-297.44" rx="62.29" ry="18"/>
<text text-anchor="middle" x="767" y="-293.74" font-family="Times,serif" font-size="14.00">succ_finnat</text>
</a>
</g>
</g>
<!-- FinNat_path_finnat_to_fin_succ&#45;&gt;FinNat_succ_finnat -->
<g id="edge17" class="edge">
<title>FinNat_path_finnat_to_fin_succ&#45;&gt;FinNat_succ_finnat</title>
<path fill="none" stroke="black" d="M580.28,-495.83C620.89,-452.89 704.2,-364.83 744.36,-322.37"/>
<polygon fill="black" stroke="black" points="747.01,-324.66 751.34,-314.99 741.92,-319.85 747.01,-324.66"/>
</g>
<!-- FinNat_path_fin_to_finnat_fin_last -->
<g id="node8" class="node">
<title>FinNat_path_fin_to_finnat_fin_last</title>
<g id="a_node8"><a xlink:href="FinNat.html#path_fin_to_finnat_fin_last" xlink:title="path_fin_to_finnat_fin_last">
<ellipse fill="#f070d1" stroke="black" cx="2443" cy="-521.44" rx="129.98" ry="18"/>
<ellipse fill="none" stroke="black" cx="2443" cy="-521.44" rx="133.98" ry="22"/>
<ellipse fill="none" stroke="black" cx="2443" cy="-521.44" rx="137.98" ry="26"/>
<text text-anchor="middle" x="2443" y="-517.74" font-family="Times,serif" font-size="14.00">path_fin_to_finnat_fin_last</text>
</a>
</g>
</g>
<!-- FinNat_path_fin_to_finnat_fin_last&#45;&gt;FinNat_fin_to_finnat -->
<g id="edge18" class="edge">
<title>FinNat_path_fin_to_finnat_fin_last&#45;&gt;FinNat_fin_to_finnat</title>
<path fill="none" stroke="black" d="M2374.54,-498.85C2233.91,-454.5 1915.29,-354.03 1790.5,-314.68"/>
<polygon fill="black" stroke="black" points="1791.38,-311.29 1780.79,-311.62 1789.28,-317.96 1791.38,-311.29"/>
</g>
<!-- FinNat_path_fin_to_finnat_fin_last&#45;&gt;FinNat_last_finnat -->
<g id="edge19" class="edge">
<title>FinNat_path_fin_to_finnat_fin_last&#45;&gt;FinNat_last_finnat</title>
<path fill="none" stroke="black" d="M2426.65,-495.4C2398.78,-452.74 2342.4,-366.42 2314.46,-323.64"/>
<polygon fill="black" stroke="black" points="2317.35,-321.66 2308.95,-315.2 2311.49,-325.49 2317.35,-321.66"/>
</g>
<!-- FinNat_path_fin_to_finnat_fin_incl -->
<g id="node9" class="node">
<title>FinNat_path_fin_to_finnat_fin_incl</title>
<g id="a_node9"><a xlink:href="FinNat.html#path_fin_to_finnat_fin_incl" xlink:title="path_fin_to_finnat_fin_incl">
<ellipse fill="#f070d1" stroke="black" cx="839" cy="-521.44" rx="129.98" ry="18"/>
<ellipse fill="none" stroke="black" cx="839" cy="-521.44" rx="133.98" ry="22"/>
<ellipse fill="none" stroke="black" cx="839" cy="-521.44" rx="137.98" ry="26"/>
<text text-anchor="middle" x="839" y="-517.74" font-family="Times,serif" font-size="14.00">path_fin_to_finnat_fin_incl</text>
</a>
</g>
</g>
<!-- FinNat_path_fin_to_finnat_fin_incl&#45;&gt;FinNat_fin_to_finnat -->
<g id="edge20" class="edge">
<title>FinNat_path_fin_to_finnat_fin_incl&#45;&gt;FinNat_fin_to_finnat</title>
<path fill="none" stroke="black" d="M920.46,-500.34C1100.09,-456.04 1526.55,-350.84 1681.48,-312.62"/>
<polygon fill="black" stroke="black" points="1682.42,-316 1691.29,-310.21 1680.74,-309.2 1682.42,-316"/>
</g>
<!-- FinNat_path_fin_to_finnat_fin_incl&#45;&gt;FinNat_incl_finnat -->
<g id="edge21" class="edge">
<title>FinNat_path_fin_to_finnat_fin_incl&#45;&gt;FinNat_incl_finnat</title>
<path fill="none" stroke="black" d="M794.59,-496.68C712.27,-452.65 537.46,-359.13 461.05,-318.25"/>
<polygon fill="black" stroke="black" points="462.27,-314.94 451.8,-313.31 458.96,-321.11 462.27,-314.94"/>
</g>
<!-- FinNat_path_fin_to_finnat_fin_zero&#45;&gt;FinNat_fin_to_finnat -->
<g id="edge22" class="edge">
<title>FinNat_path_fin_to_finnat_fin_zero&#45;&gt;FinNat_fin_to_finnat</title>
<path fill="none" stroke="black" d="M1858.09,-503.39C1835.63,-464.73 1780.71,-370.22 1754.03,-324.31"/>
<polygon fill="black" stroke="black" points="1756.99,-322.43 1748.94,-315.55 1750.94,-325.95 1756.99,-322.43"/>
</g>
<!-- FinNat_path_fin_to_finnat_fin_zero&#45;&gt;FinNat_zero_finnat -->
<g id="edge23" class="edge">
<title>FinNat_path_fin_to_finnat_fin_zero&#45;&gt;FinNat_zero_finnat</title>
<path fill="none" stroke="black" d="M1826.97,-504.11C1724.83,-463.48 1459.81,-358.04 1354.29,-316.06"/>
<polygon fill="black" stroke="black" points="1355.47,-312.76 1344.89,-312.32 1352.88,-319.27 1355.47,-312.76"/>
</g>
<!-- FinNat_path_fin_to_finnat_fsucc&#45;&gt;FinNat_fin_to_finnat -->
<g id="edge24" class="edge">
<title>FinNat_path_fin_to_finnat_fsucc&#45;&gt;FinNat_fin_to_finnat</title>
<path fill="none" stroke="black" d="M1606.98,-503.39C1632,-464.55 1693.32,-369.36 1722.74,-323.68"/>
<polygon fill="black" stroke="black" points="1725.7,-325.54 1728.17,-315.24 1719.82,-321.75 1725.7,-325.54"/>
</g>
<!-- FinNat_path_fin_to_finnat_fsucc&#45;&gt;FinNat_succ_finnat -->
<g id="edge25" class="edge">
<title>FinNat_path_fin_to_finnat_fsucc&#45;&gt;FinNat_succ_finnat</title>
<path fill="none" stroke="black" d="M1540,-505.44C1388.17,-464.78 970.14,-352.84 820.86,-312.86"/>
<polygon fill="black" stroke="black" points="821.56,-309.43 811,-310.22 819.75,-316.19 821.56,-309.43"/>
</g>
<!-- FinNat_FinNat -->
<g id="node26" class="node">
<title>FinNat_FinNat</title>
<g id="a_node26"><a xlink:href="FinNat.html#FinNat" xlink:title="FinNat">
<ellipse fill="#f070d1" stroke="black" cx="1373" cy="-95.44" rx="42.79" ry="18"/>
<text text-anchor="middle" x="1373" y="-91.74" font-family="Times,serif" font-size="14.00">FinNat</text>
</a>
</g>
</g>
<!-- FinNat_finnat_to_fin&#45;&gt;FinNat_FinNat -->
<g id="edge26" class="edge">
<title>FinNat_finnat_to_fin&#45;&gt;FinNat_FinNat</title>
<path fill="none" stroke="black" d="M1449.84,-279.38C1435.15,-244.4 1401.51,-164.32 1384.02,-122.68"/>
<polygon fill="black" stroke="black" points="1387.24,-121.31 1380.14,-113.45 1380.79,-124.02 1387.24,-121.31"/>
</g>
<!-- FinNat_is_bounded_fin_to_nat -->
<g id="node14" class="node">
<title>FinNat_is_bounded_fin_to_nat</title>
<g id="a_node14"><a xlink:href="FinNat.html#is_bounded_fin_to_nat" xlink:title="is_bounded_fin_to_nat">
<ellipse fill="#f070d1" stroke="black" cx="1739" cy="-95.44" rx="112.38" ry="18"/>
<text text-anchor="middle" x="1739" y="-91.74" font-family="Times,serif" font-size="14.00">is_bounded_fin_to_nat</text>
</a>
</g>
</g>
<!-- FinNat_fin_to_finnat&#45;&gt;FinNat_is_bounded_fin_to_nat -->
<g id="edge27" class="edge">
<title>FinNat_fin_to_finnat&#45;&gt;FinNat_is_bounded_fin_to_nat</title>
<path fill="none" stroke="black" d="M1739,-279.38C1739,-244.63 1739,-165.33 1739,-123.47"/>
<polygon fill="black" stroke="black" points="1742.5,-123.45 1739,-113.45 1735.5,-123.45 1742.5,-123.45"/>
</g>
<!-- FinNat_fin_to_finnat&#45;&gt;FinNat_FinNat -->
<g id="edge28" class="edge">
<title>FinNat_fin_to_finnat&#45;&gt;FinNat_FinNat</title>
<path fill="none" stroke="black" d="M1710.59,-280.91C1644.2,-244.63 1479.13,-154.43 1407.3,-115.18"/>
<polygon fill="black" stroke="black" points="1408.66,-111.93 1398.2,-110.21 1405.3,-118.08 1408.66,-111.93"/>
</g>
<!-- FinNat_compute_finnat_ind_succ -->
<g id="node15" class="node">
<title>FinNat_compute_finnat_ind_succ</title>
<g id="a_node15"><a xlink:href="FinNat.html#compute_finnat_ind_succ" xlink:title="compute_finnat_ind_succ">
<ellipse fill="#f070d1" stroke="black" cx="561" cy="-970.44" rx="126.17" ry="18"/>
<ellipse fill="none" stroke="black" cx="561" cy="-970.44" rx="130.18" ry="22"/>
<ellipse fill="none" stroke="black" cx="561" cy="-970.44" rx="134.18" ry="26"/>
<text text-anchor="middle" x="561" y="-966.74" font-family="Times,serif" font-size="14.00">compute_finnat_ind_succ</text>
</a>
</g>
</g>
<!-- FinNat_finnat_ind -->
<g id="node17" class="node">
<title>FinNat_finnat_ind</title>
<g id="a_node17"><a xlink:href="FinNat.html#finnat_ind" xlink:title="finnat_ind">
<ellipse fill="#f070d1" stroke="black" cx="704" cy="-746.44" rx="56.59" ry="18"/>
<text text-anchor="middle" x="704" y="-742.74" font-family="Times,serif" font-size="14.00">finnat_ind</text>
</a>
</g>
</g>
<!-- FinNat_compute_finnat_ind_succ&#45;&gt;FinNat_finnat_ind -->
<g id="edge29" class="edge">
<title>FinNat_compute_finnat_ind_succ&#45;&gt;FinNat_finnat_ind</title>
<path fill="none" stroke="black" d="M577.13,-944.4C604.61,-901.74 660.21,-815.42 687.77,-772.64"/>
<polygon fill="black" stroke="black" points="690.73,-774.51 693.2,-764.2 684.84,-770.71 690.73,-774.51"/>
</g>
<!-- FinNat_compute_finnat_ind_zero -->
<g id="node16" class="node">
<title>FinNat_compute_finnat_ind_zero</title>
<g id="a_node16"><a xlink:href="FinNat.html#compute_finnat_ind_zero" xlink:title="compute_finnat_ind_zero">
<ellipse fill="#f070d1" stroke="black" cx="847" cy="-970.44" rx="125.38" ry="18"/>
<ellipse fill="none" stroke="black" cx="847" cy="-970.44" rx="129.38" ry="22"/>
<ellipse fill="none" stroke="black" cx="847" cy="-970.44" rx="133.38" ry="26"/>
<text text-anchor="middle" x="847" y="-966.74" font-family="Times,serif" font-size="14.00">compute_finnat_ind_zero</text>
</a>
</g>
</g>
<!-- FinNat_compute_finnat_ind_zero&#45;&gt;FinNat_finnat_ind -->
<g id="edge30" class="edge">
<title>FinNat_compute_finnat_ind_zero&#45;&gt;FinNat_finnat_ind</title>
<path fill="none" stroke="black" d="M830.87,-944.4C803.39,-901.74 747.79,-815.42 720.23,-772.64"/>
<polygon fill="black" stroke="black" points="723.16,-770.71 714.8,-764.2 717.27,-774.51 723.16,-770.71"/>
</g>
<!-- FinNat_finnat_ind&#45;&gt;FinNat_path_succ_finnat -->
<g id="edge31" class="edge">
<title>FinNat_finnat_ind&#45;&gt;FinNat_path_succ_finnat</title>
<path fill="none" stroke="black" d="M678.32,-730.28C612.61,-691.52 438.25,-588.66 362.26,-543.83"/>
<polygon fill="black" stroke="black" points="363.88,-540.72 353.49,-538.65 360.33,-546.75 363.88,-540.72"/>
</g>
<!-- FinNat_path_zero_finnat -->
<g id="node24" class="node">
<title>FinNat_path_zero_finnat</title>
<g id="a_node24"><a xlink:href="FinNat.html#path_zero_finnat" xlink:title="path_zero_finnat">
<ellipse fill="#f070d1" stroke="black" cx="1082" cy="-521.44" rx="87.18" ry="18"/>
<text text-anchor="middle" x="1082" y="-517.74" font-family="Times,serif" font-size="14.00">path_zero_finnat</text>
</a>
</g>
</g>
<!-- FinNat_finnat_ind&#45;&gt;FinNat_path_zero_finnat -->
<g id="edge32" class="edge">
<title>FinNat_finnat_ind&#45;&gt;FinNat_path_zero_finnat</title>
<path fill="none" stroke="black" d="M729.68,-730.28C795.39,-691.52 969.75,-588.66 1045.74,-543.83"/>
<polygon fill="black" stroke="black" points="1047.67,-546.75 1054.51,-538.65 1044.12,-540.72 1047.67,-546.75"/>
</g>
<!-- FinNat_path_incl_finnat -->
<g id="node18" class="node">
<title>FinNat_path_incl_finnat</title>
<g id="a_node18"><a xlink:href="FinNat.html#path_incl_finnat" xlink:title="path_incl_finnat">
<ellipse fill="#f070d1" stroke="black" cx="108" cy="-521.44" rx="83.7" ry="18"/>
<ellipse fill="none" stroke="black" cx="108" cy="-521.44" rx="87.69" ry="22"/>
<ellipse fill="none" stroke="black" cx="108" cy="-521.44" rx="91.69" ry="26"/>
<text text-anchor="middle" x="108" y="-517.74" font-family="Times,serif" font-size="14.00">path_incl_finnat</text>
</a>
</g>
</g>
<!-- FinNat_path_incl_finnat&#45;&gt;FinNat_incl_finnat -->
<g id="edge33" class="edge">
<title>FinNat_path_incl_finnat&#45;&gt;FinNat_incl_finnat</title>
<path fill="none" stroke="black" d="M141.22,-497.1C202.69,-453.91 333.34,-362.13 393.06,-320.17"/>
<polygon fill="black" stroke="black" points="395.17,-322.97 401.34,-314.36 391.14,-317.24 395.17,-322.97"/>
</g>
<!-- FinNat_incl_finnat&#45;&gt;FinNat_FinNat -->
<g id="edge34" class="edge">
<title>FinNat_incl_finnat&#45;&gt;FinNat_FinNat</title>
<path fill="none" stroke="black" d="M470.74,-286.59C631.82,-252.64 1162.87,-140.72 1325.34,-106.48"/>
<polygon fill="black" stroke="black" points="1326.44,-109.83 1335.51,-104.34 1325,-102.98 1326.44,-109.83"/>
</g>
<!-- FinNat_path_last_finnat -->
<g id="node20" class="node">
<title>FinNat_path_last_finnat</title>
<g id="a_node20"><a xlink:href="FinNat.html#path_last_finnat" xlink:title="path_last_finnat">
<ellipse fill="#f070d1" stroke="black" cx="2691" cy="-521.44" rx="84.49" ry="18"/>
<ellipse fill="none" stroke="black" cx="2691" cy="-521.44" rx="88.49" ry="22"/>
<ellipse fill="none" stroke="black" cx="2691" cy="-521.44" rx="92.49" ry="26"/>
<text text-anchor="middle" x="2691" y="-517.74" font-family="Times,serif" font-size="14.00">path_last_finnat</text>
</a>
</g>
</g>
<!-- FinNat_path_last_finnat&#45;&gt;FinNat_last_finnat -->
<g id="edge35" class="edge">
<title>FinNat_path_last_finnat&#45;&gt;FinNat_last_finnat</title>
<path fill="none" stroke="black" d="M2651.15,-497.93C2574.43,-454.59 2407.28,-360.17 2333.83,-318.68"/>
<polygon fill="black" stroke="black" points="2335.37,-315.52 2324.94,-313.65 2331.92,-321.62 2335.37,-315.52"/>
</g>
<!-- FinNat_last_finnat&#45;&gt;FinNat_FinNat -->
<g id="edge36" class="edge">
<title>FinNat_last_finnat&#45;&gt;FinNat_FinNat</title>
<path fill="none" stroke="black" d="M2251.18,-286.31C2092.88,-252.09 1578.71,-140.92 1420.06,-106.61"/>
<polygon fill="black" stroke="black" points="1420.64,-103.16 1410.13,-104.46 1419.16,-110 1420.64,-103.16"/>
</g>
<!-- FinNat_path_succ_finnat&#45;&gt;FinNat_succ_finnat -->
<g id="edge37" class="edge">
<title>FinNat_path_succ_finnat&#45;&gt;FinNat_succ_finnat</title>
<path fill="none" stroke="black" d="M357.72,-504.47C436.71,-464.7 642.09,-361.32 728.16,-317.99"/>
<polygon fill="black" stroke="black" points="729.96,-321 737.32,-313.38 726.81,-314.75 729.96,-321"/>
</g>
<!-- FinNat_succ_finnat&#45;&gt;FinNat_FinNat -->
<g id="edge38" class="edge">
<title>FinNat_succ_finnat&#45;&gt;FinNat_FinNat</title>
<path fill="none" stroke="black" d="M806.76,-283.31C915.78,-247.34 1218.72,-147.35 1330.69,-110.4"/>
<polygon fill="black" stroke="black" points="1331.9,-113.69 1340.3,-107.23 1329.7,-107.04 1331.9,-113.69"/>
</g>
<!-- FinNat_path_zero_finnat&#45;&gt;FinNat_zero_finnat -->
<g id="edge39" class="edge">
<title>FinNat_path_zero_finnat&#45;&gt;FinNat_zero_finnat</title>
<path fill="none" stroke="black" d="M1099.14,-503.75C1139.26,-464.68 1239.4,-367.18 1285.75,-322.05"/>
<polygon fill="black" stroke="black" points="1288.25,-324.5 1292.98,-315.01 1283.37,-319.48 1288.25,-324.5"/>
</g>
<!-- FinNat_zero_finnat&#45;&gt;FinNat_FinNat -->
<g id="edge40" class="edge">
<title>FinNat_zero_finnat&#45;&gt;FinNat_FinNat</title>
<path fill="none" stroke="black" d="M1315.37,-279.38C1326.34,-244.55 1351.4,-165 1364.57,-123.21"/>
<polygon fill="black" stroke="black" points="1367.98,-124.04 1367.64,-113.45 1361.3,-121.93 1367.98,-124.04"/>
</g>
</g>
</svg>
