<?xml version="1.0" encoding="UTF-8" standalone="no"?>
<!DOCTYPE svg PUBLIC "-//W3C//DTD SVG 1.1//EN"
 "http://www.w3.org/Graphics/SVG/1.1/DTD/svg11.dtd">
<!-- Generated by graphviz version 2.43.0 (0)
 -->
<!-- Title: HoTT_WildCat_Opposite Pages: 1 -->
<svg width="1038pt" height="523pt"
 viewBox="0.00 0.00 1038.00 523.00" xmlns="http://www.w3.org/2000/svg" xmlns:xlink="http://www.w3.org/1999/xlink">
<g id="graph0" class="graph" transform="scale(1 1) rotate(0) translate(4 519)">
<title>HoTT_WildCat_Opposite</title>
<polygon fill="white" stroke="transparent" points="-4,4 -4,-519 1034,-519 1034,4 -4,4"/>
<g id="clust1" class="cluster">
<title>cluster_Opposite</title>
<polygon fill="#ffffc3" stroke="black" points="11.4,-8 11.4,-507 1018.6,-507 1018.6,-8 11.4,-8"/>
<text text-anchor="middle" x="51.4" y="-491.8" font-family="Times,serif" font-size="14.00">Opposite</text>
</g>
<!-- Opposite_isequivs_op -->
<g id="node1" class="node">
<title>Opposite_isequivs_op</title>
<g id="a_node1"><a xlink:href="Opposite.html#isequivs_op" xlink:title="isequivs_op">
<ellipse fill="#f070d1" stroke="black" cx="428.94" cy="-450" rx="64.21" ry="18"/>
<ellipse fill="none" stroke="black" cx="428.94" cy="-450" rx="68.2" ry="22"/>
<ellipse fill="none" stroke="black" cx="428.94" cy="-450" rx="72.19" ry="26"/>
<text text-anchor="middle" x="428.94" y="-446.3" font-family="Times,serif" font-size="14.00">isequivs_op</text>
</a>
</g>
</g>
<!-- Opposite_hasequivs_op -->
<g id="node2" class="node">
<title>Opposite_hasequivs_op</title>
<g id="a_node2"><a xlink:href="Opposite.html#hasequivs_op" xlink:title="hasequivs_op">
<ellipse fill="#f070d1" stroke="black" cx="428.94" cy="-362" rx="72.59" ry="18"/>
<text text-anchor="middle" x="428.94" y="-358.3" font-family="Times,serif" font-size="14.00">hasequivs_op</text>
</a>
</g>
</g>
<!-- Opposite_isequivs_op&#45;&gt;Opposite_hasequivs_op -->
<g id="edge1" class="edge">
<title>Opposite_isequivs_op&#45;&gt;Opposite_hasequivs_op</title>
<path fill="none" stroke="black" d="M428.94,-423.66C428.94,-413.11 428.94,-400.84 428.94,-390.1"/>
<polygon fill="black" stroke="black" points="432.44,-390 428.94,-380 425.44,-390 432.44,-390"/>
</g>
<!-- Opposite_is1cat_op -->
<g id="node10" class="node">
<title>Opposite_is1cat_op</title>
<g id="a_node10"><a xlink:href="Opposite.html#is1cat_op" xlink:title="is1cat_op">
<ellipse fill="#f070d1" stroke="black" cx="354.94" cy="-274" rx="53.89" ry="18"/>
<text text-anchor="middle" x="354.94" y="-270.3" font-family="Times,serif" font-size="14.00">is1cat_op</text>
</a>
</g>
</g>
<!-- Opposite_hasequivs_op&#45;&gt;Opposite_is1cat_op -->
<g id="edge2" class="edge">
<title>Opposite_hasequivs_op&#45;&gt;Opposite_is1cat_op</title>
<path fill="none" stroke="black" d="M414.32,-344.01C403.41,-331.32 388.33,-313.8 376.1,-299.59"/>
<polygon fill="black" stroke="black" points="378.46,-296.96 369.28,-291.66 373.15,-301.53 378.46,-296.96"/>
</g>
<!-- Opposite_is1nat_op -->
<g id="node3" class="node">
<title>Opposite_is1nat_op</title>
<g id="a_node3"><a xlink:href="Opposite.html#is1nat_op" xlink:title="is1nat_op">
<ellipse fill="#f070d1" stroke="black" cx="917.94" cy="-362" rx="55.46" ry="18"/>
<ellipse fill="none" stroke="black" cx="917.94" cy="-362" rx="59.48" ry="22"/>
<ellipse fill="none" stroke="black" cx="917.94" cy="-362" rx="63.49" ry="26"/>
<text text-anchor="middle" x="917.94" y="-358.3" font-family="Times,serif" font-size="14.00">is1nat_op</text>
</a>
</g>
</g>
<!-- Opposite_transformation_op -->
<g id="node4" class="node">
<title>Opposite_transformation_op</title>
<g id="a_node4"><a xlink:href="Opposite.html#transformation_op" xlink:title="transformation_op">
<ellipse fill="#f070d1" stroke="black" cx="870.94" cy="-186" rx="96.38" ry="18"/>
<text text-anchor="middle" x="870.94" y="-182.3" font-family="Times,serif" font-size="14.00">transformation_op</text>
</a>
</g>
</g>
<!-- Opposite_is1nat_op&#45;&gt;Opposite_transformation_op -->
<g id="edge3" class="edge">
<title>Opposite_is1nat_op&#45;&gt;Opposite_transformation_op</title>
<path fill="none" stroke="black" d="M911.21,-336.07C902.46,-303.68 887.24,-247.34 878.23,-213.97"/>
<polygon fill="black" stroke="black" points="881.52,-212.75 875.54,-204.01 874.76,-214.57 881.52,-212.75"/>
</g>
<!-- Opposite_is0coh1fun_op -->
<g id="node6" class="node">
<title>Opposite_is0coh1fun_op</title>
<g id="a_node6"><a xlink:href="Opposite.html#is0coh1fun_op" xlink:title="is0coh1fun_op">
<ellipse fill="#f070d1" stroke="black" cx="780.94" cy="-274" rx="77.19" ry="18"/>
<text text-anchor="middle" x="780.94" y="-270.3" font-family="Times,serif" font-size="14.00">is0coh1fun_op</text>
</a>
</g>
</g>
<!-- Opposite_is1nat_op&#45;&gt;Opposite_is0coh1fun_op -->
<g id="edge4" class="edge">
<title>Opposite_is1nat_op&#45;&gt;Opposite_is0coh1fun_op</title>
<path fill="none" stroke="black" d="M884.08,-339.74C863.14,-326.6 836.34,-309.78 815.31,-296.57"/>
<polygon fill="black" stroke="black" points="817.01,-293.51 806.68,-291.16 813.29,-299.44 817.01,-293.51"/>
</g>
<!-- Opposite_is1nat_op&#45;&gt;Opposite_is1cat_op -->
<g id="edge5" class="edge">
<title>Opposite_is1nat_op&#45;&gt;Opposite_is1cat_op</title>
<path fill="none" stroke="black" d="M860.94,-350.41C834.52,-345.68 802.69,-340.23 773.94,-336 641.96,-316.58 607.6,-321.52 475.94,-300 453.66,-296.36 429.24,-291.48 408.21,-287.01"/>
<polygon fill="black" stroke="black" points="408.69,-283.53 398.18,-284.85 407.22,-290.37 408.69,-283.53"/>
</g>
<!-- Opposite_isgraph_op -->
<g id="node12" class="node">
<title>Opposite_isgraph_op</title>
<g id="a_node12"><a xlink:href="Opposite.html#isgraph_op" xlink:title="isgraph_op">
<ellipse fill="#f070d1" stroke="black" cx="640.94" cy="-106" rx="61.99" ry="18"/>
<text text-anchor="middle" x="640.94" y="-102.3" font-family="Times,serif" font-size="14.00">isgraph_op</text>
</a>
</g>
</g>
<!-- Opposite_transformation_op&#45;&gt;Opposite_isgraph_op -->
<g id="edge6" class="edge">
<title>Opposite_transformation_op&#45;&gt;Opposite_isgraph_op</title>
<path fill="none" stroke="black" d="M826.6,-169.96C787.28,-156.63 729.98,-137.2 689.46,-123.45"/>
<polygon fill="black" stroke="black" points="690.39,-120.07 679.8,-120.18 688.14,-126.7 690.39,-120.07"/>
</g>
<!-- Opposite_is0coh2fun_op -->
<g id="node5" class="node">
<title>Opposite_is0coh2fun_op</title>
<g id="a_node5"><a xlink:href="Opposite.html#is0coh2fun_op" xlink:title="is0coh2fun_op">
<ellipse fill="#f070d1" stroke="black" cx="679.94" cy="-362" rx="77.2" ry="18"/>
<ellipse fill="none" stroke="black" cx="679.94" cy="-362" rx="81.19" ry="22"/>
<ellipse fill="none" stroke="black" cx="679.94" cy="-362" rx="85.19" ry="26"/>
<text text-anchor="middle" x="679.94" y="-358.3" font-family="Times,serif" font-size="14.00">is0coh2fun_op</text>
</a>
</g>
</g>
<!-- Opposite_is0coh2fun_op&#45;&gt;Opposite_is0coh1fun_op -->
<g id="edge7" class="edge">
<title>Opposite_is0coh2fun_op&#45;&gt;Opposite_is0coh1fun_op</title>
<path fill="none" stroke="black" d="M707.81,-337.27C722.06,-325.14 739.35,-310.42 753.53,-298.34"/>
<polygon fill="black" stroke="black" points="756.14,-300.72 761.48,-291.57 751.6,-295.39 756.14,-300.72"/>
</g>
<!-- Opposite_is0coh2fun_op&#45;&gt;Opposite_is1cat_op -->
<g id="edge8" class="edge">
<title>Opposite_is0coh2fun_op&#45;&gt;Opposite_is1cat_op</title>
<path fill="none" stroke="black" d="M616.89,-344.32C555.25,-328 462.58,-303.48 405.58,-288.4"/>
<polygon fill="black" stroke="black" points="406.28,-284.96 395.71,-285.79 404.49,-291.73 406.28,-284.96"/>
</g>
<!-- Opposite_is0coh1fun_op&#45;&gt;Opposite_isgraph_op -->
<g id="edge9" class="edge">
<title>Opposite_is0coh1fun_op&#45;&gt;Opposite_isgraph_op</title>
<path fill="none" stroke="black" d="M766.75,-256.17C741.91,-226.71 690.46,-165.71 661.64,-131.54"/>
<polygon fill="black" stroke="black" points="664.3,-129.26 655.17,-123.88 658.95,-133.78 664.3,-129.26"/>
</g>
<!-- Opposite_op0gpd_fun -->
<g id="node7" class="node">
<title>Opposite_op0gpd_fun</title>
<g id="a_node7"><a xlink:href="Opposite.html#op0gpd_fun" xlink:title="op0gpd_fun">
<ellipse fill="#f070d1" stroke="black" cx="575.94" cy="-186" rx="64.99" ry="18"/>
<ellipse fill="none" stroke="black" cx="575.94" cy="-186" rx="68.99" ry="22"/>
<ellipse fill="none" stroke="black" cx="575.94" cy="-186" rx="72.99" ry="26"/>
<text text-anchor="middle" x="575.94" y="-182.3" font-family="Times,serif" font-size="14.00">op0gpd_fun</text>
</a>
</g>
</g>
<!-- Opposite_op0gpd_fun&#45;&gt;Opposite_isgraph_op -->
<g id="edge10" class="edge">
<title>Opposite_op0gpd_fun&#45;&gt;Opposite_isgraph_op</title>
<path fill="none" stroke="black" d="M596.15,-160.75C603.88,-151.48 612.69,-140.9 620.44,-131.6"/>
<polygon fill="black" stroke="black" points="623.21,-133.74 626.93,-123.82 617.83,-129.26 623.21,-133.74"/>
</g>
<!-- Opposite_is0gpd_op -->
<g id="node8" class="node">
<title>Opposite_is0gpd_op</title>
<g id="a_node8"><a xlink:href="Opposite.html#is0gpd_op" xlink:title="is0gpd_op">
<ellipse fill="#f070d1" stroke="black" cx="550.94" cy="-274" rx="57.71" ry="18"/>
<ellipse fill="none" stroke="black" cx="550.94" cy="-274" rx="61.7" ry="22"/>
<ellipse fill="none" stroke="black" cx="550.94" cy="-274" rx="65.69" ry="26"/>
<text text-anchor="middle" x="550.94" y="-270.3" font-family="Times,serif" font-size="14.00">is0gpd_op</text>
</a>
</g>
</g>
<!-- Opposite_is01cat_op -->
<g id="node11" class="node">
<title>Opposite_is01cat_op</title>
<g id="a_node11"><a xlink:href="Opposite.html#is01cat_op" xlink:title="is01cat_op">
<ellipse fill="#f070d1" stroke="black" cx="359.94" cy="-186" rx="59.59" ry="18"/>
<text text-anchor="middle" x="359.94" y="-182.3" font-family="Times,serif" font-size="14.00">is01cat_op</text>
</a>
</g>
</g>
<!-- Opposite_is0gpd_op&#45;&gt;Opposite_is01cat_op -->
<g id="edge11" class="edge">
<title>Opposite_is0gpd_op&#45;&gt;Opposite_is01cat_op</title>
<path fill="none" stroke="black" d="M508.55,-253.91C476.58,-239.52 432.97,-219.88 401.26,-205.6"/>
<polygon fill="black" stroke="black" points="402.38,-202.27 391.83,-201.36 399.51,-208.65 402.38,-202.27"/>
</g>
<!-- Opposite_is1cat_strong_op -->
<g id="node9" class="node">
<title>Opposite_is1cat_strong_op</title>
<g id="a_node9"><a xlink:href="Opposite.html#is1cat_strong_op" xlink:title="is1cat_strong_op">
<ellipse fill="#f070d1" stroke="black" cx="160.94" cy="-362" rx="89.08" ry="18"/>
<ellipse fill="none" stroke="black" cx="160.94" cy="-362" rx="93.08" ry="22"/>
<ellipse fill="none" stroke="black" cx="160.94" cy="-362" rx="97.08" ry="26"/>
<text text-anchor="middle" x="160.94" y="-358.3" font-family="Times,serif" font-size="14.00">is1cat_strong_op</text>
</a>
</g>
</g>
<!-- Opposite_is1cat_strong_op&#45;&gt;Opposite_is1cat_op -->
<g id="edge12" class="edge">
<title>Opposite_is1cat_strong_op&#45;&gt;Opposite_is1cat_op</title>
<path fill="none" stroke="black" d="M209.9,-339.3C242.21,-324.98 284.03,-306.43 314.46,-292.95"/>
<polygon fill="black" stroke="black" points="316.19,-296.01 323.91,-288.75 313.35,-289.61 316.19,-296.01"/>
</g>
<!-- Opposite_is1cat_op&#45;&gt;Opposite_is01cat_op -->
<g id="edge13" class="edge">
<title>Opposite_is1cat_op&#45;&gt;Opposite_is01cat_op</title>
<path fill="none" stroke="black" d="M355.95,-255.6C356.64,-243.75 357.57,-227.82 358.36,-214.29"/>
<polygon fill="black" stroke="black" points="361.86,-214.27 358.95,-204.08 354.87,-213.86 361.86,-214.27"/>
</g>
<!-- Opposite_is01cat_op&#45;&gt;Opposite_isgraph_op -->
<g id="edge14" class="edge">
<title>Opposite_is01cat_op&#45;&gt;Opposite_isgraph_op</title>
<path fill="none" stroke="black" d="M402.31,-173.24C451.97,-159.46 534.27,-136.61 588.06,-121.68"/>
<polygon fill="black" stroke="black" points="589.06,-125.03 597.76,-118.99 587.19,-118.29 589.06,-125.03"/>
</g>
<!-- Opposite_op -->
<g id="node13" class="node">
<title>Opposite_op</title>
<g id="a_node13"><a xlink:href="Opposite.html#op" xlink:title="op">
<ellipse fill="#f070d1" stroke="black" cx="640.94" cy="-34" rx="27" ry="18"/>
<text text-anchor="middle" x="640.94" y="-30.3" font-family="Times,serif" font-size="14.00">op</text>
</a>
</g>
</g>
<!-- Opposite_isgraph_op&#45;&gt;Opposite_op -->
<g id="edge15" class="edge">
<title>Opposite_isgraph_op&#45;&gt;Opposite_op</title>
<path fill="none" stroke="black" d="M640.94,-87.7C640.94,-79.98 640.94,-70.71 640.94,-62.11"/>
<polygon fill="black" stroke="black" points="644.44,-62.1 640.94,-52.1 637.44,-62.1 644.44,-62.1"/>
</g>
</g>
</svg>
