<?xml version="1.0" encoding="UTF-8" standalone="no"?>
<!DOCTYPE svg PUBLIC "-//W3C//DTD SVG 1.1//EN"
 "http://www.w3.org/Graphics/SVG/1.1/DTD/svg11.dtd">
<!-- Generated by graphviz version 2.43.0 (0)
 -->
<!-- Title: HoTT_Homotopy_SuccessorStructure Pages: 1 -->
<svg width="1351pt" height="680pt"
 viewBox="0.00 0.00 1351.00 679.50" xmlns="http://www.w3.org/2000/svg" xmlns:xlink="http://www.w3.org/1999/xlink">
<g id="graph0" class="graph" transform="scale(1 1) rotate(0) translate(4 675.5)">
<title>HoTT_Homotopy_SuccessorStructure</title>
<polygon fill="white" stroke="transparent" points="-4,4 -4,-675.5 1347,-675.5 1347,4 -4,4"/>
<g id="clust1" class="cluster">
<title>cluster_SuccessorStructure</title>
<polygon fill="#ffffc3" stroke="black" points="8,-15.13 8,-656.37 1335,-656.37 1335,-15.13 8,-15.13"/>
<text text-anchor="middle" x="87" y="-641.17" font-family="Times,serif" font-size="14.00">SuccessorStructure</text>
</g>
<!-- SuccessorStructure_ss_add_succ -->
<g id="node1" class="node">
<title>SuccessorStructure_ss_add_succ</title>
<g id="a_node1"><a xlink:href="SuccessorStructure.html#ss_add_succ" xlink:title="ss_add_succ">
<ellipse fill="#f070d1" stroke="black" cx="1013" cy="-382.13" rx="66.89" ry="18"/>
<ellipse fill="none" stroke="black" cx="1013" cy="-382.13" rx="70.89" ry="22"/>
<ellipse fill="none" stroke="black" cx="1013" cy="-382.13" rx="74.89" ry="26"/>
<text text-anchor="middle" x="1013" y="-378.43" font-family="Times,serif" font-size="14.00">ss_add_succ</text>
</a>
</g>
</g>
<!-- SuccessorStructure_ss_add -->
<g id="node2" class="node">
<title>SuccessorStructure_ss_add</title>
<g id="a_node2"><a xlink:href="SuccessorStructure.html#ss_add" xlink:title="ss_add">
<ellipse fill="#f070d1" stroke="black" cx="1013" cy="-216.13" rx="42.49" ry="18"/>
<text text-anchor="middle" x="1013" y="-212.43" font-family="Times,serif" font-size="14.00">ss_add</text>
</a>
</g>
</g>
<!-- SuccessorStructure_ss_add_succ&#45;&gt;SuccessorStructure_ss_add -->
<g id="edge1" class="edge">
<title>SuccessorStructure_ss_add_succ&#45;&gt;SuccessorStructure_ss_add</title>
<path fill="none" stroke="black" d="M1013,-355.87C1013,-325.65 1013,-275.26 1013,-244.25"/>
<polygon fill="black" stroke="black" points="1016.5,-244.15 1013,-234.15 1009.5,-244.15 1016.5,-244.15"/>
</g>
<!-- SuccessorStructure_SuccStr -->
<g id="node15" class="node">
<title>SuccessorStructure_SuccStr</title>
<g id="a_node15"><a xlink:href="SuccessorStructure.html#SuccStr" xlink:title="SuccStr">
<ellipse fill="#e2cdfa" stroke="black" cx="700" cy="-64.13" rx="47.39" ry="18"/>
<text text-anchor="middle" x="700" y="-60.43" font-family="Times,serif" font-size="14.00">SuccStr</text>
</a>
</g>
</g>
<!-- SuccessorStructure_ss_add&#45;&gt;SuccessorStructure_SuccStr -->
<g id="edge2" class="edge">
<title>SuccessorStructure_ss_add&#45;&gt;SuccessorStructure_SuccStr</title>
<path fill="none" stroke="black" d="M986.01,-202.15C977.97,-198.28 969.13,-194.03 961,-190.13 881.42,-151.95 788.15,-107.31 737.46,-83.05"/>
<polygon fill="black" stroke="black" points="738.73,-79.78 728.2,-78.62 735.71,-86.09 738.73,-79.78"/>
</g>
<!-- SuccessorStructure_Stratified -->
<g id="node3" class="node">
<title>SuccessorStructure_Stratified</title>
<g id="a_node3"><a xlink:href="SuccessorStructure.html#Stratified" xlink:title="Stratified">
<ellipse fill="#f070d1" stroke="black" cx="460" cy="-548.13" rx="54.68" ry="18"/>
<ellipse fill="none" stroke="black" cx="460" cy="-548.13" rx="58.68" ry="22"/>
<ellipse fill="none" stroke="black" cx="460" cy="-548.13" rx="62.69" ry="26"/>
<text text-anchor="middle" x="460" y="-544.43" font-family="Times,serif" font-size="14.00">Stratified</text>
</a>
</g>
</g>
<!-- SuccessorStructure_stratified_succ -->
<g id="node4" class="node">
<title>SuccessorStructure_stratified_succ</title>
<g id="a_node4"><a xlink:href="SuccessorStructure.html#stratified_succ" xlink:title="stratified_succ">
<ellipse fill="#f070d1" stroke="black" cx="772" cy="-382.13" rx="77.99" ry="18"/>
<text text-anchor="middle" x="772" y="-378.43" font-family="Times,serif" font-size="14.00">stratified_succ</text>
</a>
</g>
</g>
<!-- SuccessorStructure_Stratified&#45;&gt;SuccessorStructure_stratified_succ -->
<g id="edge3" class="edge">
<title>SuccessorStructure_Stratified&#45;&gt;SuccessorStructure_stratified_succ</title>
<path fill="none" stroke="black" d="M497.63,-527.35C557.17,-496.05 672.51,-435.43 732.93,-403.67"/>
<polygon fill="black" stroke="black" points="734.92,-406.58 742.14,-398.83 731.66,-400.38 734.92,-406.58"/>
</g>
<!-- SuccessorStructure_Build_SuccStr -->
<g id="node14" class="node">
<title>SuccessorStructure_Build_SuccStr</title>
<g id="a_node14"><a xlink:href="SuccessorStructure.html#Build_SuccStr" xlink:title="Build_SuccStr">
<ellipse fill="#7faaff" stroke="black" cx="297" cy="-64.13" rx="76.09" ry="18"/>
<text text-anchor="middle" x="297" y="-60.43" font-family="Times,serif" font-size="14.00">Build_SuccStr</text>
</a>
</g>
</g>
<!-- SuccessorStructure_Stratified&#45;&gt;SuccessorStructure_Build_SuccStr -->
<g id="edge4" class="edge">
<title>SuccessorStructure_Stratified&#45;&gt;SuccessorStructure_Build_SuccStr</title>
<path fill="none" stroke="black" d="M412.75,-530.82C318.65,-495.43 109.78,-401.7 27,-242.13 -19.93,-151.67 135.99,-100.43 230.3,-78.32"/>
<polygon fill="black" stroke="black" points="231.1,-81.73 240.07,-76.08 229.54,-74.9 231.1,-81.73"/>
</g>
<!-- SuccessorStructure_StratifiedType -->
<g id="node5" class="node">
<title>SuccessorStructure_StratifiedType</title>
<g id="a_node5"><a xlink:href="SuccessorStructure.html#StratifiedType" xlink:title="StratifiedType">
<ellipse fill="#f070d1" stroke="black" cx="875" cy="-216.13" rx="77.19" ry="18"/>
<text text-anchor="middle" x="875" y="-212.43" font-family="Times,serif" font-size="14.00">StratifiedType</text>
</a>
</g>
</g>
<!-- SuccessorStructure_stratified_succ&#45;&gt;SuccessorStructure_StratifiedType -->
<g id="edge5" class="edge">
<title>SuccessorStructure_stratified_succ&#45;&gt;SuccessorStructure_StratifiedType</title>
<path fill="none" stroke="black" d="M782.63,-364.2C800.68,-335.47 837.39,-277.02 858.7,-243.09"/>
<polygon fill="black" stroke="black" points="861.91,-244.55 864.27,-234.22 855.99,-240.83 861.91,-244.55"/>
</g>
<!-- SuccessorStructure_StratifiedType&#45;&gt;SuccessorStructure_SuccStr -->
<g id="edge6" class="edge">
<title>SuccessorStructure_StratifiedType&#45;&gt;SuccessorStructure_SuccStr</title>
<path fill="none" stroke="black" d="M855.6,-198.51C824.13,-171.53 761.9,-118.19 726.41,-87.77"/>
<polygon fill="black" stroke="black" points="728.3,-84.78 718.43,-80.93 723.74,-90.09 728.3,-84.78"/>
</g>
<!-- SuccessorStructure_IntSucc -->
<g id="node6" class="node">
<title>SuccessorStructure_IntSucc</title>
<g id="a_node6"><a xlink:href="SuccessorStructure.html#IntSucc" xlink:title="IntSucc">
<ellipse fill="#f070d1" stroke="black" cx="224" cy="-216.13" rx="46.27" ry="18"/>
<ellipse fill="none" stroke="black" cx="224" cy="-216.13" rx="50.28" ry="22"/>
<ellipse fill="none" stroke="black" cx="224" cy="-216.13" rx="54.29" ry="26"/>
<text text-anchor="middle" x="224" y="-212.43" font-family="Times,serif" font-size="14.00">IntSucc</text>
</a>
</g>
</g>
<!-- SuccessorStructure_IntSucc&#45;&gt;SuccessorStructure_Build_SuccStr -->
<g id="edge7" class="edge">
<title>SuccessorStructure_IntSucc&#45;&gt;SuccessorStructure_Build_SuccStr</title>
<path fill="none" stroke="black" d="M235.89,-190.7C249.19,-163.37 270.65,-119.28 284.28,-91.27"/>
<polygon fill="black" stroke="black" points="287.52,-92.62 288.75,-82.09 281.22,-89.55 287.52,-92.62"/>
</g>
<!-- SuccessorStructure_IntSucc&#45;&gt;SuccessorStructure_SuccStr -->
<g id="edge8" class="edge">
<title>SuccessorStructure_IntSucc&#45;&gt;SuccessorStructure_SuccStr</title>
<path fill="none" stroke="black" d="M264.14,-198.62C271.69,-195.68 279.56,-192.73 287,-190.13 417.98,-144.41 575.58,-99.43 652.74,-78.04"/>
<polygon fill="black" stroke="black" points="653.94,-81.34 662.64,-75.3 652.07,-74.6 653.94,-81.34"/>
</g>
<!-- SuccessorStructure_NatSucc -->
<g id="node7" class="node">
<title>SuccessorStructure_NatSucc</title>
<g id="a_node7"><a xlink:href="SuccessorStructure.html#NatSucc" xlink:title="NatSucc">
<ellipse fill="#f070d1" stroke="black" cx="94" cy="-216.13" rx="50.08" ry="18"/>
<ellipse fill="none" stroke="black" cx="94" cy="-216.13" rx="54.09" ry="22"/>
<ellipse fill="none" stroke="black" cx="94" cy="-216.13" rx="58.09" ry="26"/>
<text text-anchor="middle" x="94" y="-212.43" font-family="Times,serif" font-size="14.00">NatSucc</text>
</a>
</g>
</g>
<!-- SuccessorStructure_NatSucc&#45;&gt;SuccessorStructure_Build_SuccStr -->
<g id="edge9" class="edge">
<title>SuccessorStructure_NatSucc&#45;&gt;SuccessorStructure_Build_SuccStr</title>
<path fill="none" stroke="black" d="M123.52,-193.32C161.75,-165.07 228.06,-116.07 266.68,-87.53"/>
<polygon fill="black" stroke="black" points="268.99,-90.18 274.95,-81.43 264.83,-84.55 268.99,-90.18"/>
</g>
<!-- SuccessorStructure_NatSucc&#45;&gt;SuccessorStructure_SuccStr -->
<g id="edge10" class="edge">
<title>SuccessorStructure_NatSucc&#45;&gt;SuccessorStructure_SuccStr</title>
<path fill="none" stroke="black" d="M136.61,-198.3C144.65,-195.39 153.04,-192.53 161,-190.13 337.16,-137.08 551.42,-93.45 648.17,-74.83"/>
<polygon fill="black" stroke="black" points="649.11,-78.22 658.27,-72.9 647.79,-71.34 649.11,-78.22"/>
</g>
<!-- SuccessorStructure_ss_succ -->
<g id="node8" class="node">
<title>SuccessorStructure_ss_succ</title>
<g id="a_node8"><a xlink:href="SuccessorStructure.html#ss_succ" xlink:title="ss_succ">
<ellipse fill="#f070d1" stroke="black" cx="1274" cy="-216.13" rx="45.49" ry="18"/>
<ellipse fill="none" stroke="black" cx="1274" cy="-216.13" rx="49.49" ry="22"/>
<ellipse fill="none" stroke="black" cx="1274" cy="-216.13" rx="53.49" ry="26"/>
<text text-anchor="middle" x="1274" y="-212.43" font-family="Times,serif" font-size="14.00">ss_succ</text>
</a>
</g>
</g>
<!-- SuccessorStructure_ss_succ&#45;&gt;SuccessorStructure_SuccStr -->
<g id="edge11" class="edge">
<title>SuccessorStructure_ss_succ&#45;&gt;SuccessorStructure_SuccStr</title>
<path fill="none" stroke="black" d="M1234.62,-198.27C1227.18,-195.36 1219.4,-192.51 1212,-190.13 1046.4,-136.84 844.38,-93.76 751.37,-75.12"/>
<polygon fill="black" stroke="black" points="751.87,-71.65 741.37,-73.12 750.5,-78.51 751.87,-71.65"/>
</g>
<!-- SuccessorStructure_ss_carrier -->
<g id="node9" class="node">
<title>SuccessorStructure_ss_carrier</title>
<g id="a_node9"><a xlink:href="SuccessorStructure.html#ss_carrier" xlink:title="ss_carrier">
<ellipse fill="#f070d1" stroke="black" cx="1138" cy="-216.13" rx="56.58" ry="18"/>
<ellipse fill="none" stroke="black" cx="1138" cy="-216.13" rx="60.59" ry="22"/>
<ellipse fill="none" stroke="black" cx="1138" cy="-216.13" rx="64.59" ry="26"/>
<text text-anchor="middle" x="1138" y="-212.43" font-family="Times,serif" font-size="14.00">ss_carrier</text>
</a>
</g>
</g>
<!-- SuccessorStructure_ss_carrier&#45;&gt;SuccessorStructure_SuccStr -->
<g id="edge12" class="edge">
<title>SuccessorStructure_ss_carrier&#45;&gt;SuccessorStructure_SuccStr</title>
<path fill="none" stroke="black" d="M1089.87,-198.65C1004.03,-169.25 825.79,-108.21 743.44,-80.01"/>
<polygon fill="black" stroke="black" points="744.48,-76.67 733.88,-76.74 742.21,-83.29 744.48,-76.67"/>
</g>
<!-- SuccessorStructure_SuccStr_sind -->
<g id="node10" class="node">
<title>SuccessorStructure_SuccStr_sind</title>
<g id="a_node10"><a xlink:href="SuccessorStructure.html#SuccStr_sind" xlink:title="SuccStr_sind">
<ellipse fill="#f070d1" stroke="black" cx="700" cy="-216.13" rx="71.49" ry="18"/>
<ellipse fill="none" stroke="black" cx="700" cy="-216.13" rx="75.49" ry="22"/>
<ellipse fill="none" stroke="black" cx="700" cy="-216.13" rx="79.49" ry="26"/>
<text text-anchor="middle" x="700" y="-212.43" font-family="Times,serif" font-size="14.00">SuccStr_sind</text>
</a>
</g>
</g>
<!-- SuccessorStructure_SuccStr_sind&#45;&gt;SuccessorStructure_Build_SuccStr -->
<g id="edge13" class="edge">
<title>SuccessorStructure_SuccStr_sind&#45;&gt;SuccessorStructure_Build_SuccStr</title>
<path fill="none" stroke="black" d="M648.96,-196.13C570.66,-166.99 421.94,-111.64 345.31,-83.11"/>
<polygon fill="black" stroke="black" points="346.48,-79.81 335.89,-79.61 344.04,-86.37 346.48,-79.81"/>
</g>
<!-- SuccessorStructure_SuccStr_sind&#45;&gt;SuccessorStructure_SuccStr -->
<g id="edge14" class="edge">
<title>SuccessorStructure_SuccStr_sind&#45;&gt;SuccessorStructure_SuccStr</title>
<path fill="none" stroke="black" d="M700,-190.03C700,-163.08 700,-120.4 700,-92.58"/>
<polygon fill="black" stroke="black" points="703.5,-92.36 700,-82.36 696.5,-92.36 703.5,-92.36"/>
</g>
<!-- SuccessorStructure_SuccStr_rec -->
<g id="node11" class="node">
<title>SuccessorStructure_SuccStr_rec</title>
<g id="a_node11"><a xlink:href="SuccessorStructure.html#SuccStr_rec" xlink:title="SuccStr_rec">
<ellipse fill="#f070d1" stroke="black" cx="532" cy="-382.13" rx="66.11" ry="18"/>
<ellipse fill="none" stroke="black" cx="532" cy="-382.13" rx="70.1" ry="22"/>
<ellipse fill="none" stroke="black" cx="532" cy="-382.13" rx="74.09" ry="26"/>
<text text-anchor="middle" x="532" y="-378.43" font-family="Times,serif" font-size="14.00">SuccStr_rec</text>
</a>
</g>
</g>
<!-- SuccessorStructure_SuccStr_rect -->
<g id="node13" class="node">
<title>SuccessorStructure_SuccStr_rect</title>
<g id="a_node13"><a xlink:href="SuccessorStructure.html#SuccStr_rect" xlink:title="SuccStr_rect">
<ellipse fill="#f070d1" stroke="black" cx="532" cy="-216.13" rx="70.39" ry="18"/>
<text text-anchor="middle" x="532" y="-212.43" font-family="Times,serif" font-size="14.00">SuccStr_rect</text>
</a>
</g>
</g>
<!-- SuccessorStructure_SuccStr_rec&#45;&gt;SuccessorStructure_SuccStr_rect -->
<g id="edge15" class="edge">
<title>SuccessorStructure_SuccStr_rec&#45;&gt;SuccessorStructure_SuccStr_rect</title>
<path fill="none" stroke="black" d="M532,-355.87C532,-325.65 532,-275.26 532,-244.25"/>
<polygon fill="black" stroke="black" points="535.5,-244.15 532,-234.15 528.5,-244.15 535.5,-244.15"/>
</g>
<!-- SuccessorStructure_SuccStr_ind -->
<g id="node12" class="node">
<title>SuccessorStructure_SuccStr_ind</title>
<g id="a_node12"><a xlink:href="SuccessorStructure.html#SuccStr_ind" xlink:title="SuccStr_ind">
<ellipse fill="#7fffd4" stroke="black" cx="370" cy="-216.13" rx="66.11" ry="18"/>
<ellipse fill="none" stroke="black" cx="370" cy="-216.13" rx="70.1" ry="22"/>
<ellipse fill="none" stroke="black" cx="370" cy="-216.13" rx="74.09" ry="26"/>
<text text-anchor="middle" x="370" y="-212.43" font-family="Times,serif" font-size="14.00">SuccStr_ind</text>
</a>
</g>
</g>
<!-- SuccessorStructure_SuccStr_ind&#45;&gt;SuccessorStructure_Build_SuccStr -->
<g id="edge16" class="edge">
<title>SuccessorStructure_SuccStr_ind&#45;&gt;SuccessorStructure_Build_SuccStr</title>
<path fill="none" stroke="black" d="M357.95,-190.36C344.69,-163.12 323.46,-119.51 309.88,-91.61"/>
<polygon fill="black" stroke="black" points="312.95,-89.9 305.43,-82.44 306.65,-92.97 312.95,-89.9"/>
</g>
<!-- SuccessorStructure_SuccStr_ind&#45;&gt;SuccessorStructure_SuccStr -->
<g id="edge17" class="edge">
<title>SuccessorStructure_SuccStr_ind&#45;&gt;SuccessorStructure_SuccStr</title>
<path fill="none" stroke="black" d="M414.16,-195.06C479.18,-165.51 599.61,-110.76 661.33,-82.71"/>
<polygon fill="black" stroke="black" points="663.06,-85.77 670.71,-78.44 660.16,-79.4 663.06,-85.77"/>
</g>
<!-- SuccessorStructure_SuccStr_rect&#45;&gt;SuccessorStructure_Build_SuccStr -->
<g id="edge18" class="edge">
<title>SuccessorStructure_SuccStr_rect&#45;&gt;SuccessorStructure_Build_SuccStr</title>
<path fill="none" stroke="black" d="M506.85,-199.08C464.38,-171.97 378.43,-117.11 330.76,-86.68"/>
<polygon fill="black" stroke="black" points="332.64,-83.73 322.32,-81.3 328.87,-89.63 332.64,-83.73"/>
</g>
<!-- SuccessorStructure_SuccStr_rect&#45;&gt;SuccessorStructure_SuccStr -->
<g id="edge19" class="edge">
<title>SuccessorStructure_SuccStr_rect&#45;&gt;SuccessorStructure_SuccStr</title>
<path fill="none" stroke="black" d="M550.62,-198.51C580.83,-171.53 640.58,-118.19 674.64,-87.77"/>
<polygon fill="black" stroke="black" points="677.18,-90.2 682.31,-80.93 672.52,-84.98 677.18,-90.2"/>
</g>
</g>
</svg>
