<?xml version="1.0" encoding="UTF-8" standalone="no"?>
<!DOCTYPE svg PUBLIC "-//W3C//DTD SVG 1.1//EN"
 "http://www.w3.org/Graphics/SVG/1.1/DTD/svg11.dtd">
<!-- Generated by graphviz version 2.43.0 (0)
 -->
<!-- Title: HoTT_WildCat_EquivGpd Pages: 1 -->
<svg width="2908pt" height="1458pt"
 viewBox="0.00 0.00 2908.00 1458.00" xmlns="http://www.w3.org/2000/svg" xmlns:xlink="http://www.w3.org/1999/xlink">
<g id="graph0" class="graph" transform="scale(1 1) rotate(0) translate(4 1454)">
<title>HoTT_WildCat_EquivGpd</title>
<polygon fill="white" stroke="transparent" points="-4,4 -4,-1454 2904,-1454 2904,4 -4,4"/>
<g id="clust1" class="cluster">
<title>cluster_EquivGpd</title>
<polygon fill="#ffffc3" stroke="black" points="8,-27.17 8,-1422.83 2892,-1422.83 2892,-27.17 8,-27.17"/>
<text text-anchor="middle" x="51.5" y="-1407.63" font-family="Times,serif" font-size="14.00">EquivGpd</text>
</g>
<!-- EquivGpd_isequiv0gpd_sigma -->
<g id="node1" class="node">
<title>EquivGpd_isequiv0gpd_sigma</title>
<g id="a_node1"><a xlink:href="EquivGpd.html#isequiv0gpd_sigma" xlink:title="isequiv0gpd_sigma">
<ellipse fill="#f070d1" stroke="black" cx="766" cy="-930.17" rx="99.39" ry="18"/>
<ellipse fill="none" stroke="black" cx="766" cy="-930.17" rx="103.38" ry="22"/>
<ellipse fill="none" stroke="black" cx="766" cy="-930.17" rx="107.38" ry="26"/>
<text text-anchor="middle" x="766" y="-926.47" font-family="Times,serif" font-size="14.00">isequiv0gpd_sigma</text>
</a>
</g>
</g>
<!-- EquivGpd_isesssurj_iff_sigma -->
<g id="node2" class="node">
<title>EquivGpd_isesssurj_iff_sigma</title>
<g id="a_node2"><a xlink:href="EquivGpd.html#isesssurj_iff_sigma" xlink:title="isesssurj_iff_sigma">
<ellipse fill="#f070d1" stroke="black" cx="941" cy="-631.17" rx="97.48" ry="18"/>
<text text-anchor="middle" x="941" y="-627.47" font-family="Times,serif" font-size="14.00">isesssurj_iff_sigma</text>
</a>
</g>
</g>
<!-- EquivGpd_isequiv0gpd_sigma&#45;&gt;EquivGpd_isesssurj_iff_sigma -->
<g id="edge1" class="edge">
<title>EquivGpd_isequiv0gpd_sigma&#45;&gt;EquivGpd_isesssurj_iff_sigma</title>
<path fill="none" stroke="black" d="M780.62,-904.36C813.38,-848.76 892.41,-714.64 925.75,-658.05"/>
<polygon fill="black" stroke="black" points="928.82,-659.73 930.88,-649.34 922.79,-656.18 928.82,-659.73"/>
</g>
<!-- EquivGpd_Build_IsEquiv0Gpd -->
<g id="node27" class="node">
<title>EquivGpd_Build_IsEquiv0Gpd</title>
<g id="a_node27"><a xlink:href="EquivGpd.html#Build_IsEquiv0Gpd" xlink:title="Build_IsEquiv0Gpd">
<ellipse fill="#7faaff" stroke="black" cx="1156" cy="-631.17" rx="99.38" ry="18"/>
<text text-anchor="middle" x="1156" y="-627.47" font-family="Times,serif" font-size="14.00">Build_IsEquiv0Gpd</text>
</a>
</g>
</g>
<!-- EquivGpd_isequiv0gpd_sigma&#45;&gt;EquivGpd_Build_IsEquiv0Gpd -->
<g id="edge2" class="edge">
<title>EquivGpd_isequiv0gpd_sigma&#45;&gt;EquivGpd_Build_IsEquiv0Gpd</title>
<path fill="none" stroke="black" d="M797.58,-905.11C871.3,-848.98 1053.87,-709.94 1125.99,-655.02"/>
<polygon fill="black" stroke="black" points="1128.39,-657.59 1134.23,-648.75 1124.15,-652.02 1128.39,-657.59"/>
</g>
<!-- EquivGpd_IsEquiv0Gpd -->
<g id="node28" class="node">
<title>EquivGpd_IsEquiv0Gpd</title>
<g id="a_node28"><a xlink:href="EquivGpd.html#IsEquiv0Gpd" xlink:title="IsEquiv0Gpd">
<ellipse fill="#e2cdfa" stroke="black" cx="945" cy="-360.17" rx="70.69" ry="18"/>
<text text-anchor="middle" x="945" y="-356.47" font-family="Times,serif" font-size="14.00">IsEquiv0Gpd</text>
</a>
</g>
</g>
<!-- EquivGpd_isequiv0gpd_sigma&#45;&gt;EquivGpd_IsEquiv0Gpd -->
<g id="edge3" class="edge">
<title>EquivGpd_isequiv0gpd_sigma&#45;&gt;EquivGpd_IsEquiv0Gpd</title>
<path fill="none" stroke="black" d="M769.5,-903.89C777.54,-848.7 799.45,-713.65 835,-605.17 861.97,-522.86 907.99,-431.05 931.01,-387.21"/>
<polygon fill="black" stroke="black" points="934.24,-388.59 935.82,-378.11 928.05,-385.32 934.24,-388.59"/>
</g>
<!-- EquivGpd_esssurj -->
<g id="node29" class="node">
<title>EquivGpd_esssurj</title>
<g id="a_node29"><a xlink:href="EquivGpd.html#esssurj" xlink:title="esssurj">
<ellipse fill="#f070d1" stroke="black" cx="1985" cy="-360.17" rx="44.39" ry="18"/>
<text text-anchor="middle" x="1985" y="-356.47" font-family="Times,serif" font-size="14.00">esssurj</text>
</a>
</g>
</g>
<!-- EquivGpd_isesssurj_iff_sigma&#45;&gt;EquivGpd_esssurj -->
<g id="edge4" class="edge">
<title>EquivGpd_isesssurj_iff_sigma&#45;&gt;EquivGpd_esssurj</title>
<path fill="none" stroke="black" d="M995.3,-616.18C1178.03,-569.09 1768.74,-416.89 1938.8,-373.07"/>
<polygon fill="black" stroke="black" points="1939.88,-376.41 1948.69,-370.52 1938.13,-369.63 1939.88,-376.41"/>
</g>
<!-- EquivGpd_isequiv0gpd_iff_commsq -->
<g id="node3" class="node">
<title>EquivGpd_isequiv0gpd_iff_commsq</title>
<g id="a_node3"><a xlink:href="EquivGpd.html#isequiv0gpd_iff_commsq" xlink:title="isequiv0gpd_iff_commsq">
<ellipse fill="#f070d1" stroke="black" cx="1294" cy="-1229.17" rx="124.27" ry="18"/>
<ellipse fill="none" stroke="black" cx="1294" cy="-1229.17" rx="128.27" ry="22"/>
<ellipse fill="none" stroke="black" cx="1294" cy="-1229.17" rx="132.28" ry="26"/>
<text text-anchor="middle" x="1294" y="-1225.47" font-family="Times,serif" font-size="14.00">isequiv0gpd_iff_commsq</text>
</a>
</g>
</g>
<!-- EquivGpd_cancelR_isequiv0gpd -->
<g id="node6" class="node">
<title>EquivGpd_cancelR_isequiv0gpd</title>
<g id="a_node6"><a xlink:href="EquivGpd.html#cancelR_isequiv0gpd" xlink:title="cancelR_isequiv0gpd">
<ellipse fill="#f070d1" stroke="black" cx="1690" cy="-930.17" rx="107.78" ry="18"/>
<text text-anchor="middle" x="1690" y="-926.47" font-family="Times,serif" font-size="14.00">cancelR_isequiv0gpd</text>
</a>
</g>
</g>
<!-- EquivGpd_isequiv0gpd_iff_commsq&#45;&gt;EquivGpd_cancelR_isequiv0gpd -->
<g id="edge5" class="edge">
<title>EquivGpd_isequiv0gpd_iff_commsq&#45;&gt;EquivGpd_cancelR_isequiv0gpd</title>
<path fill="none" stroke="black" d="M1326.41,-1203.86C1401.31,-1147.68 1585.65,-1009.43 1659.08,-954.36"/>
<polygon fill="black" stroke="black" points="1661.57,-956.86 1667.47,-948.06 1657.37,-951.26 1661.57,-956.86"/>
</g>
<!-- EquivGpd_cancelL_isequiv0gpd -->
<g id="node10" class="node">
<title>EquivGpd_cancelL_isequiv0gpd</title>
<g id="a_node10"><a xlink:href="EquivGpd.html#cancelL_isequiv0gpd" xlink:title="cancelL_isequiv0gpd">
<ellipse fill="#f070d1" stroke="black" cx="998" cy="-930.17" rx="106.68" ry="18"/>
<text text-anchor="middle" x="998" y="-926.47" font-family="Times,serif" font-size="14.00">cancelL_isequiv0gpd</text>
</a>
</g>
</g>
<!-- EquivGpd_isequiv0gpd_iff_commsq&#45;&gt;EquivGpd_cancelL_isequiv0gpd -->
<g id="edge6" class="edge">
<title>EquivGpd_isequiv0gpd_iff_commsq&#45;&gt;EquivGpd_cancelL_isequiv0gpd</title>
<path fill="none" stroke="black" d="M1269.53,-1203.61C1213.7,-1147.59 1077.51,-1010.94 1022.07,-955.32"/>
<polygon fill="black" stroke="black" points="1024.34,-952.64 1014.8,-948.02 1019.38,-957.58 1024.34,-952.64"/>
</g>
<!-- EquivGpd_isequiv0gpd_compose -->
<g id="node13" class="node">
<title>EquivGpd_isequiv0gpd_compose</title>
<g id="a_node13"><a xlink:href="EquivGpd.html#isequiv0gpd_compose" xlink:title="isequiv0gpd_compose">
<ellipse fill="#f070d1" stroke="black" cx="1452" cy="-930.17" rx="112.38" ry="18"/>
<text text-anchor="middle" x="1452" y="-926.47" font-family="Times,serif" font-size="14.00">isequiv0gpd_compose</text>
</a>
</g>
</g>
<!-- EquivGpd_isequiv0gpd_iff_commsq&#45;&gt;EquivGpd_isequiv0gpd_compose -->
<g id="edge7" class="edge">
<title>EquivGpd_isequiv0gpd_iff_commsq&#45;&gt;EquivGpd_isequiv0gpd_compose</title>
<path fill="none" stroke="black" d="M1307.33,-1203.1C1336.94,-1147.44 1407.93,-1014.01 1438.08,-957.34"/>
<polygon fill="black" stroke="black" points="1441.28,-958.78 1442.88,-948.3 1435.1,-955.49 1441.28,-958.78"/>
</g>
<!-- EquivGpd_isequiv0gpd_transf -->
<g id="node15" class="node">
<title>EquivGpd_isequiv0gpd_transf</title>
<g id="a_node15"><a xlink:href="EquivGpd.html#isequiv0gpd_transf" xlink:title="isequiv0gpd_transf">
<ellipse fill="#f070d1" stroke="black" cx="1222" cy="-930.17" rx="99.38" ry="18"/>
<text text-anchor="middle" x="1222" y="-926.47" font-family="Times,serif" font-size="14.00">isequiv0gpd_transf</text>
</a>
</g>
</g>
<!-- EquivGpd_isequiv0gpd_iff_commsq&#45;&gt;EquivGpd_isequiv0gpd_transf -->
<g id="edge8" class="edge">
<title>EquivGpd_isequiv0gpd_iff_commsq&#45;&gt;EquivGpd_isequiv0gpd_transf</title>
<path fill="none" stroke="black" d="M1287.92,-1203.1C1274.49,-1147.67 1242.35,-1015.11 1228.52,-958.05"/>
<polygon fill="black" stroke="black" points="1231.91,-957.2 1226.15,-948.3 1225.11,-958.85 1231.91,-957.2"/>
</g>
<!-- EquivGpd_isesssurj_iff_commsq -->
<g id="node4" class="node">
<title>EquivGpd_isesssurj_iff_commsq</title>
<g id="a_node4"><a xlink:href="EquivGpd.html#isesssurj_iff_commsq" xlink:title="isesssurj_iff_commsq">
<ellipse fill="#f070d1" stroke="black" cx="2589" cy="-930.17" rx="108.58" ry="18"/>
<ellipse fill="none" stroke="black" cx="2589" cy="-930.17" rx="112.58" ry="22"/>
<ellipse fill="none" stroke="black" cx="2589" cy="-930.17" rx="116.58" ry="26"/>
<text text-anchor="middle" x="2589" y="-926.47" font-family="Times,serif" font-size="14.00">isesssurj_iff_commsq</text>
</a>
</g>
</g>
<!-- EquivGpd_cancelR_isesssurj -->
<g id="node8" class="node">
<title>EquivGpd_cancelR_isesssurj</title>
<g id="a_node8"><a xlink:href="EquivGpd.html#cancelR_isesssurj" xlink:title="cancelR_isesssurj">
<ellipse fill="#f070d1" stroke="black" cx="2587" cy="-631.17" rx="92.08" ry="18"/>
<text text-anchor="middle" x="2587" y="-627.47" font-family="Times,serif" font-size="14.00">cancelR_isesssurj</text>
</a>
</g>
</g>
<!-- EquivGpd_isesssurj_iff_commsq&#45;&gt;EquivGpd_cancelR_isesssurj -->
<g id="edge9" class="edge">
<title>EquivGpd_isesssurj_iff_commsq&#45;&gt;EquivGpd_cancelR_isesssurj</title>
<path fill="none" stroke="black" d="M2588.83,-904.1C2588.46,-848.79 2587.57,-716.66 2587.18,-659.4"/>
<polygon fill="black" stroke="black" points="2590.68,-659.28 2587.12,-649.3 2583.68,-659.33 2590.68,-659.28"/>
</g>
<!-- EquivGpd_cancelL_isesssurj -->
<g id="node12" class="node">
<title>EquivGpd_cancelL_isesssurj</title>
<g id="a_node12"><a xlink:href="EquivGpd.html#cancelL_isesssurj" xlink:title="cancelL_isesssurj">
<ellipse fill="#f070d1" stroke="black" cx="1985" cy="-631.17" rx="90.98" ry="18"/>
<text text-anchor="middle" x="1985" y="-627.47" font-family="Times,serif" font-size="14.00">cancelL_isesssurj</text>
</a>
</g>
</g>
<!-- EquivGpd_isesssurj_iff_commsq&#45;&gt;EquivGpd_cancelL_isesssurj -->
<g id="edge10" class="edge">
<title>EquivGpd_isesssurj_iff_commsq&#45;&gt;EquivGpd_cancelL_isesssurj</title>
<path fill="none" stroke="black" d="M2542.36,-906.23C2427.95,-849.98 2134.87,-705.86 2026.28,-652.47"/>
<polygon fill="black" stroke="black" points="2027.79,-649.31 2017.27,-648.03 2024.7,-655.59 2027.79,-649.31"/>
</g>
<!-- EquivGpd_isesssurj_compose -->
<g id="node14" class="node">
<title>EquivGpd_isesssurj_compose</title>
<g id="a_node14"><a xlink:href="EquivGpd.html#isesssurj_compose" xlink:title="isesssurj_compose">
<ellipse fill="#f070d1" stroke="black" cx="2377" cy="-631.17" rx="96.68" ry="18"/>
<text text-anchor="middle" x="2377" y="-627.47" font-family="Times,serif" font-size="14.00">isesssurj_compose</text>
</a>
</g>
</g>
<!-- EquivGpd_isesssurj_iff_commsq&#45;&gt;EquivGpd_isesssurj_compose -->
<g id="edge11" class="edge">
<title>EquivGpd_isesssurj_iff_commsq&#45;&gt;EquivGpd_isesssurj_compose</title>
<path fill="none" stroke="black" d="M2571.29,-904.36C2531.52,-848.64 2435.47,-714.08 2395.22,-657.7"/>
<polygon fill="black" stroke="black" points="2397.92,-655.45 2389.26,-649.34 2392.22,-659.52 2397.92,-655.45"/>
</g>
<!-- EquivGpd_isesssurj_transf -->
<g id="node16" class="node">
<title>EquivGpd_isesssurj_transf</title>
<g id="a_node16"><a xlink:href="EquivGpd.html#isesssurj_transf" xlink:title="isesssurj_transf">
<ellipse fill="#f070d1" stroke="black" cx="2178" cy="-631.17" rx="83.69" ry="18"/>
<text text-anchor="middle" x="2178" y="-627.47" font-family="Times,serif" font-size="14.00">isesssurj_transf</text>
</a>
</g>
</g>
<!-- EquivGpd_isesssurj_iff_commsq&#45;&gt;EquivGpd_isesssurj_transf -->
<g id="edge12" class="edge">
<title>EquivGpd_isesssurj_iff_commsq&#45;&gt;EquivGpd_isesssurj_transf</title>
<path fill="none" stroke="black" d="M2555.71,-905.11C2477.88,-848.87 2284.85,-709.38 2209.16,-654.68"/>
<polygon fill="black" stroke="black" points="2211.1,-651.77 2200.94,-648.75 2207,-657.44 2211.1,-651.77"/>
</g>
<!-- EquivGpd_iffR_isequiv0gpd -->
<g id="node5" class="node">
<title>EquivGpd_iffR_isequiv0gpd</title>
<g id="a_node5"><a xlink:href="EquivGpd.html#iffR_isequiv0gpd" xlink:title="iffR_isequiv0gpd">
<ellipse fill="#f070d1" stroke="black" cx="1590" cy="-1229.17" rx="87.96" ry="18"/>
<ellipse fill="none" stroke="black" cx="1590" cy="-1229.17" rx="91.97" ry="22"/>
<ellipse fill="none" stroke="black" cx="1590" cy="-1229.17" rx="95.99" ry="26"/>
<text text-anchor="middle" x="1590" y="-1225.47" font-family="Times,serif" font-size="14.00">iffR_isequiv0gpd</text>
</a>
</g>
</g>
<!-- EquivGpd_iffR_isequiv0gpd&#45;&gt;EquivGpd_cancelR_isequiv0gpd -->
<g id="edge13" class="edge">
<title>EquivGpd_iffR_isequiv0gpd&#45;&gt;EquivGpd_cancelR_isequiv0gpd</title>
<path fill="none" stroke="black" d="M1598.44,-1203.1C1617.1,-1147.67 1661.74,-1015.11 1680.95,-958.05"/>
<polygon fill="black" stroke="black" points="1684.36,-958.9 1684.23,-948.3 1677.72,-956.66 1684.36,-958.9"/>
</g>
<!-- EquivGpd_iffR_isequiv0gpd&#45;&gt;EquivGpd_isequiv0gpd_compose -->
<g id="edge14" class="edge">
<title>EquivGpd_iffR_isequiv0gpd&#45;&gt;EquivGpd_isequiv0gpd_compose</title>
<path fill="none" stroke="black" d="M1578.47,-1203.36C1552.74,-1147.99 1490.83,-1014.74 1464.35,-957.75"/>
<polygon fill="black" stroke="black" points="1467.37,-955.94 1459.98,-948.34 1461.02,-958.89 1467.37,-955.94"/>
</g>
<!-- EquivGpd_cancelR_isequiv0gpd&#45;&gt;EquivGpd_cancelR_isesssurj -->
<g id="edge15" class="edge">
<title>EquivGpd_cancelR_isequiv0gpd&#45;&gt;EquivGpd_cancelR_isesssurj</title>
<path fill="none" stroke="black" d="M1736.34,-913.82C1888.05,-863.59 2369.49,-704.19 2532.46,-650.22"/>
<polygon fill="black" stroke="black" points="2533.88,-653.44 2542.27,-646.98 2531.68,-646.8 2533.88,-653.44"/>
</g>
<!-- EquivGpd_cancelR_isequiv0gpd&#45;&gt;EquivGpd_Build_IsEquiv0Gpd -->
<g id="edge16" class="edge">
<title>EquivGpd_cancelR_isequiv0gpd&#45;&gt;EquivGpd_Build_IsEquiv0Gpd</title>
<path fill="none" stroke="black" d="M1660.53,-912.78C1569.99,-862.42 1295.91,-709.98 1194.37,-653.51"/>
<polygon fill="black" stroke="black" points="1195.82,-650.31 1185.38,-648.51 1192.42,-656.43 1195.82,-650.31"/>
</g>
<!-- EquivGpd_cancelR_isequiv0gpd&#45;&gt;EquivGpd_IsEquiv0Gpd -->
<g id="edge17" class="edge">
<title>EquivGpd_cancelR_isequiv0gpd&#45;&gt;EquivGpd_IsEquiv0Gpd</title>
<path fill="none" stroke="black" d="M1671.03,-912.35C1615.41,-863.27 1447.42,-716.7 1300,-605.17 1185.22,-518.33 1042.39,-424.16 978.55,-382.76"/>
<polygon fill="black" stroke="black" points="980.37,-379.77 970.08,-377.27 976.57,-385.64 980.37,-379.77"/>
</g>
<!-- EquivGpd_iffR_isesssurj -->
<g id="node7" class="node">
<title>EquivGpd_iffR_isesssurj</title>
<g id="a_node7"><a xlink:href="EquivGpd.html#iffR_isesssurj" xlink:title="iffR_isesssurj">
<ellipse fill="#f070d1" stroke="black" cx="2804" cy="-930.17" rx="72.27" ry="18"/>
<ellipse fill="none" stroke="black" cx="2804" cy="-930.17" rx="76.28" ry="22"/>
<ellipse fill="none" stroke="black" cx="2804" cy="-930.17" rx="80.29" ry="26"/>
<text text-anchor="middle" x="2804" y="-926.47" font-family="Times,serif" font-size="14.00">iffR_isesssurj</text>
</a>
</g>
</g>
<!-- EquivGpd_iffR_isesssurj&#45;&gt;EquivGpd_cancelR_isesssurj -->
<g id="edge18" class="edge">
<title>EquivGpd_iffR_isesssurj&#45;&gt;EquivGpd_cancelR_isesssurj</title>
<path fill="none" stroke="black" d="M2786.06,-904.61C2745.38,-848.94 2646.51,-713.62 2605.4,-657.35"/>
<polygon fill="black" stroke="black" points="2608.04,-655.03 2599.32,-649.02 2602.39,-659.16 2608.04,-655.03"/>
</g>
<!-- EquivGpd_iffR_isesssurj&#45;&gt;EquivGpd_isesssurj_compose -->
<g id="edge19" class="edge">
<title>EquivGpd_iffR_isesssurj&#45;&gt;EquivGpd_isesssurj_compose</title>
<path fill="none" stroke="black" d="M2771.2,-906.35C2691.57,-850.96 2488.73,-709.88 2409.45,-654.74"/>
<polygon fill="black" stroke="black" points="2411.06,-651.59 2400.85,-648.75 2407.06,-657.34 2411.06,-651.59"/>
</g>
<!-- EquivGpd_cancelR_isesssurj&#45;&gt;EquivGpd_esssurj -->
<g id="edge20" class="edge">
<title>EquivGpd_cancelR_isesssurj&#45;&gt;EquivGpd_esssurj</title>
<path fill="none" stroke="black" d="M2551.59,-614.34C2445.78,-567.06 2132.54,-427.09 2023.19,-378.23"/>
<polygon fill="black" stroke="black" points="2024.41,-374.94 2013.85,-374.06 2021.56,-381.34 2024.41,-374.94"/>
</g>
<!-- EquivGpd_iffL_isequiv0gpd -->
<g id="node9" class="node">
<title>EquivGpd_iffL_isequiv0gpd</title>
<g id="a_node9"><a xlink:href="EquivGpd.html#iffL_isequiv0gpd" xlink:title="iffL_isequiv0gpd">
<ellipse fill="#f070d1" stroke="black" cx="1023" cy="-1229.17" rx="87.18" ry="18"/>
<ellipse fill="none" stroke="black" cx="1023" cy="-1229.17" rx="91.18" ry="22"/>
<ellipse fill="none" stroke="black" cx="1023" cy="-1229.17" rx="95.18" ry="26"/>
<text text-anchor="middle" x="1023" y="-1225.47" font-family="Times,serif" font-size="14.00">iffL_isequiv0gpd</text>
</a>
</g>
</g>
<!-- EquivGpd_iffL_isequiv0gpd&#45;&gt;EquivGpd_cancelL_isequiv0gpd -->
<g id="edge21" class="edge">
<title>EquivGpd_iffL_isequiv0gpd&#45;&gt;EquivGpd_cancelL_isequiv0gpd</title>
<path fill="none" stroke="black" d="M1020.89,-1203.1C1016.23,-1147.79 1005.11,-1015.66 1000.29,-958.4"/>
<polygon fill="black" stroke="black" points="1003.77,-957.98 999.44,-948.3 996.79,-958.56 1003.77,-957.98"/>
</g>
<!-- EquivGpd_iffL_isequiv0gpd&#45;&gt;EquivGpd_isequiv0gpd_compose -->
<g id="edge22" class="edge">
<title>EquivGpd_iffL_isequiv0gpd&#45;&gt;EquivGpd_isequiv0gpd_compose</title>
<path fill="none" stroke="black" d="M1057.02,-1204.61C1137.74,-1148.73 1339.99,-1008.71 1419.33,-953.78"/>
<polygon fill="black" stroke="black" points="1421.71,-956.39 1427.94,-947.82 1417.73,-950.63 1421.71,-956.39"/>
</g>
<!-- EquivGpd_cancelL_isequiv0gpd&#45;&gt;EquivGpd_cancelL_isesssurj -->
<g id="edge23" class="edge">
<title>EquivGpd_cancelL_isequiv0gpd&#45;&gt;EquivGpd_cancelL_isesssurj</title>
<path fill="none" stroke="black" d="M1047.62,-914.23C1213.84,-864.22 1750.5,-702.73 1927.66,-649.42"/>
<polygon fill="black" stroke="black" points="1928.75,-652.75 1937.31,-646.52 1926.73,-646.05 1928.75,-652.75"/>
</g>
<!-- EquivGpd_cancelL_isequiv0gpd&#45;&gt;EquivGpd_Build_IsEquiv0Gpd -->
<g id="edge24" class="edge">
<title>EquivGpd_cancelL_isequiv0gpd&#45;&gt;EquivGpd_Build_IsEquiv0Gpd</title>
<path fill="none" stroke="black" d="M1007.18,-911.91C1033.69,-862.07 1110.52,-717.65 1142.15,-658.2"/>
<polygon fill="black" stroke="black" points="1145.39,-659.57 1146.99,-649.1 1139.21,-656.28 1145.39,-659.57"/>
</g>
<!-- EquivGpd_iffL_isesssurj -->
<g id="node11" class="node">
<title>EquivGpd_iffL_isesssurj</title>
<g id="a_node11"><a xlink:href="EquivGpd.html#iffL_isesssurj" xlink:title="iffL_isesssurj">
<ellipse fill="#f070d1" stroke="black" cx="2375" cy="-930.17" rx="71.49" ry="18"/>
<ellipse fill="none" stroke="black" cx="2375" cy="-930.17" rx="75.49" ry="22"/>
<ellipse fill="none" stroke="black" cx="2375" cy="-930.17" rx="79.49" ry="26"/>
<text text-anchor="middle" x="2375" y="-926.47" font-family="Times,serif" font-size="14.00">iffL_isesssurj</text>
</a>
</g>
</g>
<!-- EquivGpd_iffL_isesssurj&#45;&gt;EquivGpd_cancelL_isesssurj -->
<g id="edge25" class="edge">
<title>EquivGpd_iffL_isesssurj&#45;&gt;EquivGpd_cancelL_isesssurj</title>
<path fill="none" stroke="black" d="M2344.72,-906.11C2271.98,-850.71 2088.01,-710.61 2015.27,-655.22"/>
<polygon fill="black" stroke="black" points="2017.04,-652.17 2006.97,-648.9 2012.8,-657.74 2017.04,-652.17"/>
</g>
<!-- EquivGpd_iffL_isesssurj&#45;&gt;EquivGpd_isesssurj_compose -->
<g id="edge26" class="edge">
<title>EquivGpd_iffL_isesssurj&#45;&gt;EquivGpd_isesssurj_compose</title>
<path fill="none" stroke="black" d="M2375.17,-904.1C2375.54,-848.79 2376.43,-716.66 2376.82,-659.4"/>
<polygon fill="black" stroke="black" points="2380.32,-659.33 2376.88,-649.3 2373.32,-659.28 2380.32,-659.33"/>
</g>
<!-- EquivGpd_cancelL_isesssurj&#45;&gt;EquivGpd_IsEquiv0Gpd -->
<g id="edge27" class="edge">
<title>EquivGpd_cancelL_isesssurj&#45;&gt;EquivGpd_IsEquiv0Gpd</title>
<path fill="none" stroke="black" d="M1932,-616.46C1755.09,-570.7 1185.8,-423.45 1002.46,-376.03"/>
<polygon fill="black" stroke="black" points="1003.3,-372.63 992.74,-373.51 1001.55,-379.41 1003.3,-372.63"/>
</g>
<!-- EquivGpd_cancelL_isesssurj&#45;&gt;EquivGpd_esssurj -->
<g id="edge28" class="edge">
<title>EquivGpd_cancelL_isesssurj&#45;&gt;EquivGpd_esssurj</title>
<path fill="none" stroke="black" d="M1985,-612.93C1985,-567.38 1985,-443.53 1985,-388.34"/>
<polygon fill="black" stroke="black" points="1988.5,-388.26 1985,-378.26 1981.5,-388.26 1988.5,-388.26"/>
</g>
<!-- EquivGpd_isequiv0gpd_compose&#45;&gt;EquivGpd_isesssurj_compose -->
<g id="edge29" class="edge">
<title>EquivGpd_isequiv0gpd_compose&#45;&gt;EquivGpd_isesssurj_compose</title>
<path fill="none" stroke="black" d="M1499.78,-913.82C1656.3,-863.57 2153.11,-704.05 2320.97,-650.16"/>
<polygon fill="black" stroke="black" points="2322.15,-653.45 2330.6,-647.06 2320.01,-646.79 2322.15,-653.45"/>
</g>
<!-- EquivGpd_isequiv0gpd_compose&#45;&gt;EquivGpd_Build_IsEquiv0Gpd -->
<g id="edge30" class="edge">
<title>EquivGpd_isequiv0gpd_compose&#45;&gt;EquivGpd_Build_IsEquiv0Gpd</title>
<path fill="none" stroke="black" d="M1435.24,-912.35C1385.49,-862.44 1238.56,-715.01 1180.25,-656.5"/>
<polygon fill="black" stroke="black" points="1182.48,-653.78 1172.95,-649.17 1177.53,-658.72 1182.48,-653.78"/>
</g>
<!-- EquivGpd_isequiv0gpd_compose&#45;&gt;EquivGpd_IsEquiv0Gpd -->
<g id="edge31" class="edge">
<title>EquivGpd_isequiv0gpd_compose&#45;&gt;EquivGpd_IsEquiv0Gpd</title>
<path fill="none" stroke="black" d="M1445.89,-912.08C1427.02,-861.05 1365.55,-706.92 1277,-605.17 1188.2,-503.12 1049.43,-418.69 982.97,-381.54"/>
<polygon fill="black" stroke="black" points="984.53,-378.4 974.09,-376.61 981.13,-384.52 984.53,-378.4"/>
</g>
<!-- EquivGpd_isesssurj_compose&#45;&gt;EquivGpd_esssurj -->
<g id="edge32" class="edge">
<title>EquivGpd_isesssurj_compose&#45;&gt;EquivGpd_esssurj</title>
<path fill="none" stroke="black" d="M2352.77,-613.54C2284.44,-566.65 2090.28,-433.41 2015.18,-381.87"/>
<polygon fill="black" stroke="black" points="2016.85,-378.78 2006.62,-376.01 2012.89,-384.55 2016.85,-378.78"/>
</g>
<!-- EquivGpd_isequiv0gpd_transf&#45;&gt;EquivGpd_isesssurj_transf -->
<g id="edge33" class="edge">
<title>EquivGpd_isequiv0gpd_transf&#45;&gt;EquivGpd_isesssurj_transf</title>
<path fill="none" stroke="black" d="M1269.74,-914.34C1430.44,-864.41 1951.31,-702.59 2122.74,-649.34"/>
<polygon fill="black" stroke="black" points="2123.81,-652.67 2132.32,-646.36 2121.73,-645.98 2123.81,-652.67"/>
</g>
<!-- EquivGpd_isequiv0gpd_transf&#45;&gt;EquivGpd_Build_IsEquiv0Gpd -->
<g id="edge34" class="edge">
<title>EquivGpd_isequiv0gpd_transf&#45;&gt;EquivGpd_Build_IsEquiv0Gpd</title>
<path fill="none" stroke="black" d="M1218.17,-911.91C1207.16,-862.4 1175.41,-719.52 1162.04,-659.37"/>
<polygon fill="black" stroke="black" points="1165.43,-658.47 1159.84,-649.47 1158.6,-659.99 1165.43,-658.47"/>
</g>
<!-- EquivGpd_isequiv0gpd_transf&#45;&gt;EquivGpd_IsEquiv0Gpd -->
<g id="edge35" class="edge">
<title>EquivGpd_isequiv0gpd_transf&#45;&gt;EquivGpd_IsEquiv0Gpd</title>
<path fill="none" stroke="black" d="M1230.69,-911.89C1254.7,-861.57 1316.76,-711.96 1264,-605.17 1206.58,-488.96 1064.33,-412.85 990.74,-379.89"/>
<polygon fill="black" stroke="black" points="991.82,-376.54 981.25,-375.71 988.99,-382.95 991.82,-376.54"/>
</g>
<!-- EquivGpd_isesssurj_transf&#45;&gt;EquivGpd_esssurj -->
<g id="edge36" class="edge">
<title>EquivGpd_isesssurj_transf&#45;&gt;EquivGpd_esssurj</title>
<path fill="none" stroke="black" d="M2165.93,-613.34C2133.02,-567.47 2041.61,-440.06 2002.8,-385.97"/>
<polygon fill="black" stroke="black" points="2005.5,-383.73 1996.82,-377.64 1999.81,-387.81 2005.5,-383.73"/>
</g>
<!-- EquivGpd_eissect0gpd_inv -->
<g id="node17" class="node">
<title>EquivGpd_eissect0gpd_inv</title>
<g id="a_node17"><a xlink:href="EquivGpd.html#eissect0gpd_inv" xlink:title="eissect0gpd_inv">
<ellipse fill="#f070d1" stroke="black" cx="1900" cy="-1229.17" rx="85.27" ry="18"/>
<ellipse fill="none" stroke="black" cx="1900" cy="-1229.17" rx="89.28" ry="22"/>
<ellipse fill="none" stroke="black" cx="1900" cy="-1229.17" rx="93.29" ry="26"/>
<text text-anchor="middle" x="1900" y="-1225.47" font-family="Times,serif" font-size="14.00">eissect0gpd_inv</text>
</a>
</g>
</g>
<!-- EquivGpd_eisretr0gpd_inv -->
<g id="node18" class="node">
<title>EquivGpd_eisretr0gpd_inv</title>
<g id="a_node18"><a xlink:href="EquivGpd.html#eisretr0gpd_inv" xlink:title="eisretr0gpd_inv">
<ellipse fill="#f070d1" stroke="black" cx="1900" cy="-930.17" rx="83.69" ry="18"/>
<text text-anchor="middle" x="1900" y="-926.47" font-family="Times,serif" font-size="14.00">eisretr0gpd_inv</text>
</a>
</g>
</g>
<!-- EquivGpd_eissect0gpd_inv&#45;&gt;EquivGpd_eisretr0gpd_inv -->
<g id="edge37" class="edge">
<title>EquivGpd_eissect0gpd_inv&#45;&gt;EquivGpd_eisretr0gpd_inv</title>
<path fill="none" stroke="black" d="M1900,-1203.1C1900,-1147.79 1900,-1015.66 1900,-958.4"/>
<polygon fill="black" stroke="black" points="1903.5,-958.3 1900,-948.3 1896.5,-958.3 1903.5,-958.3"/>
</g>
<!-- EquivGpd_equiv0gpd_inv -->
<g id="node20" class="node">
<title>EquivGpd_equiv0gpd_inv</title>
<g id="a_node20"><a xlink:href="EquivGpd.html#equiv0gpd_inv" xlink:title="equiv0gpd_inv">
<ellipse fill="#f070d1" stroke="black" cx="1798" cy="-631.17" rx="77.99" ry="18"/>
<text text-anchor="middle" x="1798" y="-627.47" font-family="Times,serif" font-size="14.00">equiv0gpd_inv</text>
</a>
</g>
</g>
<!-- EquivGpd_eisretr0gpd_inv&#45;&gt;EquivGpd_equiv0gpd_inv -->
<g id="edge38" class="edge">
<title>EquivGpd_eisretr0gpd_inv&#45;&gt;EquivGpd_equiv0gpd_inv</title>
<path fill="none" stroke="black" d="M1894.08,-911.91C1877.03,-862.29 1827.8,-718.92 1807.21,-658.99"/>
<polygon fill="black" stroke="black" points="1810.5,-657.79 1803.94,-649.47 1803.88,-660.06 1810.5,-657.79"/>
</g>
<!-- EquivGpd_is0functor_equiv0gpd_inv -->
<g id="node19" class="node">
<title>EquivGpd_is0functor_equiv0gpd_inv</title>
<g id="a_node19"><a xlink:href="EquivGpd.html#is0functor_equiv0gpd_inv" xlink:title="is0functor_equiv0gpd_inv">
<ellipse fill="#f070d1" stroke="black" cx="2140" cy="-930.17" rx="129.98" ry="18"/>
<ellipse fill="none" stroke="black" cx="2140" cy="-930.17" rx="133.98" ry="22"/>
<ellipse fill="none" stroke="black" cx="2140" cy="-930.17" rx="137.98" ry="26"/>
<text text-anchor="middle" x="2140" y="-926.47" font-family="Times,serif" font-size="14.00">is0functor_equiv0gpd_inv</text>
</a>
</g>
</g>
<!-- EquivGpd_is0functor_equiv0gpd_inv&#45;&gt;EquivGpd_equiv0gpd_inv -->
<g id="edge39" class="edge">
<title>EquivGpd_is0functor_equiv0gpd_inv&#45;&gt;EquivGpd_equiv0gpd_inv</title>
<path fill="none" stroke="black" d="M2111.72,-904.61C2046.8,-848.23 1887.82,-710.17 1824.58,-655.25"/>
<polygon fill="black" stroke="black" points="1826.85,-652.59 1817.01,-648.67 1822.26,-657.87 1826.85,-652.59"/>
</g>
<!-- EquivGpd_equiv0gpd_inv&#45;&gt;EquivGpd_IsEquiv0Gpd -->
<g id="edge40" class="edge">
<title>EquivGpd_equiv0gpd_inv&#45;&gt;EquivGpd_IsEquiv0Gpd</title>
<path fill="none" stroke="black" d="M1753.94,-616.27C1609.81,-570.82 1152.76,-426.68 997.33,-377.67"/>
<polygon fill="black" stroke="black" points="998.12,-374.25 987.53,-374.58 996.02,-380.93 998.12,-374.25"/>
</g>
<!-- EquivGpd_equiv0gpd_inv&#45;&gt;EquivGpd_esssurj -->
<g id="edge41" class="edge">
<title>EquivGpd_equiv0gpd_inv&#45;&gt;EquivGpd_esssurj</title>
<path fill="none" stroke="black" d="M1809.7,-613.34C1841.59,-567.47 1930.15,-440.06 1967.76,-385.97"/>
<polygon fill="black" stroke="black" points="1970.71,-387.85 1973.55,-377.64 1964.96,-383.86 1970.71,-387.85"/>
</g>
<!-- EquivGpd_essinj0 -->
<g id="node21" class="node">
<title>EquivGpd_essinj0</title>
<g id="a_node21"><a xlink:href="EquivGpd.html#essinj0" xlink:title="essinj0">
<ellipse fill="#f070d1" stroke="black" cx="754" cy="-631.17" rx="43.59" ry="18"/>
<ellipse fill="none" stroke="black" cx="754" cy="-631.17" rx="47.59" ry="22"/>
<ellipse fill="none" stroke="black" cx="754" cy="-631.17" rx="51.59" ry="26"/>
<text text-anchor="middle" x="754" y="-627.47" font-family="Times,serif" font-size="14.00">essinj0</text>
</a>
</g>
</g>
<!-- EquivGpd_essinj0&#45;&gt;EquivGpd_IsEquiv0Gpd -->
<g id="edge42" class="edge">
<title>EquivGpd_essinj0&#45;&gt;EquivGpd_IsEquiv0Gpd</title>
<path fill="none" stroke="black" d="M770.95,-606.29C806.85,-555.73 890.28,-438.23 927.05,-386.45"/>
<polygon fill="black" stroke="black" points="930.01,-388.33 932.94,-378.15 924.3,-384.27 930.01,-388.33"/>
</g>
<!-- EquivGpd_esssurj_isequiv0gpd -->
<g id="node22" class="node">
<title>EquivGpd_esssurj_isequiv0gpd</title>
<g id="a_node22"><a xlink:href="EquivGpd.html#esssurj_isequiv0gpd" xlink:title="esssurj_isequiv0gpd">
<ellipse fill="#f070d1" stroke="black" cx="572" cy="-631.17" rx="104.77" ry="18"/>
<ellipse fill="none" stroke="black" cx="572" cy="-631.17" rx="108.78" ry="22"/>
<ellipse fill="none" stroke="black" cx="572" cy="-631.17" rx="112.78" ry="26"/>
<text text-anchor="middle" x="572" y="-627.47" font-family="Times,serif" font-size="14.00">esssurj_isequiv0gpd</text>
</a>
</g>
</g>
<!-- EquivGpd_esssurj_isequiv0gpd&#45;&gt;EquivGpd_IsEquiv0Gpd -->
<g id="edge43" class="edge">
<title>EquivGpd_esssurj_isequiv0gpd&#45;&gt;EquivGpd_IsEquiv0Gpd</title>
<path fill="none" stroke="black" d="M605.1,-606.29C676.57,-554.75 844.48,-433.66 914.01,-383.52"/>
<polygon fill="black" stroke="black" points="916.31,-386.17 922.37,-377.48 912.21,-380.5 916.31,-386.17"/>
</g>
<!-- EquivGpd_IsEquiv0Gpd_sind -->
<g id="node23" class="node">
<title>EquivGpd_IsEquiv0Gpd_sind</title>
<g id="a_node23"><a xlink:href="EquivGpd.html#IsEquiv0Gpd_sind" xlink:title="IsEquiv0Gpd_sind">
<ellipse fill="#f070d1" stroke="black" cx="324" cy="-930.17" rx="94.79" ry="18"/>
<ellipse fill="none" stroke="black" cx="324" cy="-930.17" rx="98.79" ry="22"/>
<ellipse fill="none" stroke="black" cx="324" cy="-930.17" rx="102.78" ry="26"/>
<text text-anchor="middle" x="324" y="-926.47" font-family="Times,serif" font-size="14.00">IsEquiv0Gpd_sind</text>
</a>
</g>
</g>
<!-- EquivGpd_IsEquiv0Gpd_sind&#45;&gt;EquivGpd_Build_IsEquiv0Gpd -->
<g id="edge44" class="edge">
<title>EquivGpd_IsEquiv0Gpd_sind&#45;&gt;EquivGpd_Build_IsEquiv0Gpd</title>
<path fill="none" stroke="black" d="M381.84,-908.52C536.03,-853.48 955.17,-703.86 1103.29,-650.98"/>
<polygon fill="black" stroke="black" points="1104.82,-654.15 1113.06,-647.49 1102.47,-647.56 1104.82,-654.15"/>
</g>
<!-- EquivGpd_IsEquiv0Gpd_sind&#45;&gt;EquivGpd_IsEquiv0Gpd -->
<g id="edge45" class="edge">
<title>EquivGpd_IsEquiv0Gpd_sind&#45;&gt;EquivGpd_IsEquiv0Gpd</title>
<path fill="none" stroke="black" d="M325.33,-903.97C329.73,-844.74 348.46,-694.87 427,-605.17 550.04,-464.65 771.49,-398.96 880.63,-373.95"/>
<polygon fill="black" stroke="black" points="881.53,-377.34 890.52,-371.73 879.99,-370.51 881.53,-377.34"/>
</g>
<!-- EquivGpd_IsEquiv0Gpd_rec -->
<g id="node24" class="node">
<title>EquivGpd_IsEquiv0Gpd_rec</title>
<g id="a_node24"><a xlink:href="EquivGpd.html#IsEquiv0Gpd_rec" xlink:title="IsEquiv0Gpd_rec">
<ellipse fill="#f070d1" stroke="black" cx="114" cy="-1229.17" rx="89.87" ry="18"/>
<ellipse fill="none" stroke="black" cx="114" cy="-1229.17" rx="93.88" ry="22"/>
<ellipse fill="none" stroke="black" cx="114" cy="-1229.17" rx="97.88" ry="26"/>
<text text-anchor="middle" x="114" y="-1225.47" font-family="Times,serif" font-size="14.00">IsEquiv0Gpd_rec</text>
</a>
</g>
</g>
<!-- EquivGpd_IsEquiv0Gpd_rect -->
<g id="node26" class="node">
<title>EquivGpd_IsEquiv0Gpd_rect</title>
<g id="a_node26"><a xlink:href="EquivGpd.html#IsEquiv0Gpd_rect" xlink:title="IsEquiv0Gpd_rect">
<ellipse fill="#f070d1" stroke="black" cx="110" cy="-930.17" rx="93.68" ry="18"/>
<text text-anchor="middle" x="110" y="-926.47" font-family="Times,serif" font-size="14.00">IsEquiv0Gpd_rect</text>
</a>
</g>
</g>
<!-- EquivGpd_IsEquiv0Gpd_rec&#45;&gt;EquivGpd_IsEquiv0Gpd_rect -->
<g id="edge46" class="edge">
<title>EquivGpd_IsEquiv0Gpd_rec&#45;&gt;EquivGpd_IsEquiv0Gpd_rect</title>
<path fill="none" stroke="black" d="M113.66,-1203.1C112.92,-1147.79 111.14,-1015.66 110.37,-958.4"/>
<polygon fill="black" stroke="black" points="113.87,-958.26 110.23,-948.3 106.87,-958.35 113.87,-958.26"/>
</g>
<!-- EquivGpd_IsEquiv0Gpd_ind -->
<g id="node25" class="node">
<title>EquivGpd_IsEquiv0Gpd_ind</title>
<g id="a_node25"><a xlink:href="EquivGpd.html#IsEquiv0Gpd_ind" xlink:title="IsEquiv0Gpd_ind">
<ellipse fill="#7fffd4" stroke="black" cx="543" cy="-930.17" rx="89.87" ry="18"/>
<ellipse fill="none" stroke="black" cx="543" cy="-930.17" rx="93.88" ry="22"/>
<ellipse fill="none" stroke="black" cx="543" cy="-930.17" rx="97.88" ry="26"/>
<text text-anchor="middle" x="543" y="-926.47" font-family="Times,serif" font-size="14.00">IsEquiv0Gpd_ind</text>
</a>
</g>
</g>
<!-- EquivGpd_IsEquiv0Gpd_ind&#45;&gt;EquivGpd_Build_IsEquiv0Gpd -->
<g id="edge47" class="edge">
<title>EquivGpd_IsEquiv0Gpd_ind&#45;&gt;EquivGpd_Build_IsEquiv0Gpd</title>
<path fill="none" stroke="black" d="M588.57,-907.09C703.29,-851.5 1002.75,-706.42 1113.78,-652.62"/>
<polygon fill="black" stroke="black" points="1115.52,-655.67 1122.99,-648.16 1112.47,-649.37 1115.52,-655.67"/>
</g>
<!-- EquivGpd_IsEquiv0Gpd_ind&#45;&gt;EquivGpd_IsEquiv0Gpd -->
<g id="edge48" class="edge">
<title>EquivGpd_IsEquiv0Gpd_ind&#45;&gt;EquivGpd_IsEquiv0Gpd</title>
<path fill="none" stroke="black" d="M523.36,-904.56C480.64,-847.82 387.88,-705.05 450,-605.17 544.19,-453.73 763.09,-393.52 875.56,-371.93"/>
<polygon fill="black" stroke="black" points="876.26,-375.36 885.45,-370.08 874.97,-368.48 876.26,-375.36"/>
</g>
<!-- EquivGpd_IsEquiv0Gpd_rect&#45;&gt;EquivGpd_Build_IsEquiv0Gpd -->
<g id="edge49" class="edge">
<title>EquivGpd_IsEquiv0Gpd_rect&#45;&gt;EquivGpd_Build_IsEquiv0Gpd</title>
<path fill="none" stroke="black" d="M160.1,-914.94C333.25,-865.78 906.14,-703.11 1095.01,-649.48"/>
<polygon fill="black" stroke="black" points="1096.11,-652.81 1104.78,-646.71 1094.2,-646.08 1096.11,-652.81"/>
</g>
<!-- EquivGpd_IsEquiv0Gpd_rect&#45;&gt;EquivGpd_IsEquiv0Gpd -->
<g id="edge50" class="edge">
<title>EquivGpd_IsEquiv0Gpd_rect&#45;&gt;EquivGpd_IsEquiv0Gpd</title>
<path fill="none" stroke="black" d="M120.79,-912.05C154.63,-859.58 263.98,-698.88 391,-605.17 553.42,-485.34 783.95,-407.98 888.97,-376.8"/>
<polygon fill="black" stroke="black" points="890.13,-380.11 898.74,-373.93 888.16,-373.4 890.13,-380.11"/>
</g>
<!-- EquivGpd_SplEssSurj -->
<g id="node30" class="node">
<title>EquivGpd_SplEssSurj</title>
<g id="a_node30"><a xlink:href="EquivGpd.html#SplEssSurj" xlink:title="SplEssSurj">
<ellipse fill="#f070d1" stroke="black" cx="1156" cy="-115.17" rx="61.99" ry="18"/>
<text text-anchor="middle" x="1156" y="-111.47" font-family="Times,serif" font-size="14.00">SplEssSurj</text>
</a>
</g>
</g>
<!-- EquivGpd_Build_IsEquiv0Gpd&#45;&gt;EquivGpd_SplEssSurj -->
<g id="edge51" class="edge">
<title>EquivGpd_Build_IsEquiv0Gpd&#45;&gt;EquivGpd_SplEssSurj</title>
<path fill="none" stroke="black" d="M1156,-613.06C1156,-537.91 1156,-236.55 1156,-143.6"/>
<polygon fill="black" stroke="black" points="1159.5,-143.33 1156,-133.33 1152.5,-143.33 1159.5,-143.33"/>
</g>
<!-- EquivGpd_IsEquiv0Gpd&#45;&gt;EquivGpd_SplEssSurj -->
<g id="edge52" class="edge">
<title>EquivGpd_IsEquiv0Gpd&#45;&gt;EquivGpd_SplEssSurj</title>
<path fill="none" stroke="black" d="M959.5,-342.46C996.02,-300.41 1091.88,-190.01 1134.75,-140.64"/>
<polygon fill="black" stroke="black" points="1137.48,-142.83 1141.4,-132.99 1132.2,-138.24 1137.48,-142.83"/>
</g>
<!-- EquivGpd_esssurj&#45;&gt;EquivGpd_SplEssSurj -->
<g id="edge53" class="edge">
<title>EquivGpd_esssurj&#45;&gt;EquivGpd_SplEssSurj</title>
<path fill="none" stroke="black" d="M1950.17,-348.96C1820.12,-310.83 1362.46,-176.68 1207.64,-131.3"/>
<polygon fill="black" stroke="black" points="1208.46,-127.9 1197.88,-128.44 1206.49,-134.61 1208.46,-127.9"/>
</g>
</g>
</svg>
