<?xml version="1.0" encoding="UTF-8" standalone="no"?>
<!DOCTYPE svg PUBLIC "-//W3C//DTD SVG 1.1//EN"
 "http://www.w3.org/Graphics/SVG/1.1/DTD/svg11.dtd">
<!-- Generated by graphviz version 2.43.0 (0)
 -->
<!-- Title: HoTT_Pointed_pFiber Pages: 1 -->
<svg width="1279pt" height="644pt"
 viewBox="0.00 0.00 1279.00 643.50" xmlns="http://www.w3.org/2000/svg" xmlns:xlink="http://www.w3.org/1999/xlink">
<g id="graph0" class="graph" transform="scale(1 1) rotate(0) translate(4 639.5)">
<title>HoTT_Pointed_pFiber</title>
<polygon fill="white" stroke="transparent" points="-4,4 -4,-639.5 1275,-639.5 1275,4 -4,4"/>
<g id="clust1" class="cluster">
<title>cluster_pFiber</title>
<polygon fill="#ffffc3" stroke="black" points="8,-15 8,-620.5 1263,-620.5 1263,-15 8,-15"/>
<text text-anchor="middle" x="40" y="-605.3" font-family="Times,serif" font-size="14.00">pFiber</text>
</g>
<!-- pFiber_pfiber2_loops_functor -->
<g id="node1" class="node">
<title>pFiber_pfiber2_loops_functor</title>
<g id="a_node1"><a xlink:href="pFiber.html#pfiber2_loops_functor" xlink:title="pfiber2_loops_functor">
<ellipse fill="#f070d1" stroke="black" cx="492" cy="-514" rx="110.48" ry="18"/>
<ellipse fill="none" stroke="black" cx="492" cy="-514" rx="114.48" ry="22"/>
<ellipse fill="none" stroke="black" cx="492" cy="-514" rx="118.48" ry="26"/>
<text text-anchor="middle" x="492" y="-510.3" font-family="Times,serif" font-size="14.00">pfiber2_loops_functor</text>
</a>
</g>
</g>
<!-- pFiber_pfiber2_loops -->
<g id="node11" class="node">
<title>pFiber_pfiber2_loops</title>
<g id="a_node11"><a xlink:href="pFiber.html#pfiber2_loops" xlink:title="pfiber2_loops">
<ellipse fill="#f070d1" stroke="black" cx="496" cy="-349" rx="72.59" ry="18"/>
<text text-anchor="middle" x="496" y="-345.3" font-family="Times,serif" font-size="14.00">pfiber2_loops</text>
</a>
</g>
</g>
<!-- pFiber_pfiber2_loops_functor&#45;&gt;pFiber_pfiber2_loops -->
<g id="edge1" class="edge">
<title>pFiber_pfiber2_loops_functor&#45;&gt;pFiber_pfiber2_loops</title>
<path fill="none" stroke="black" d="M492.62,-487.89C493.35,-458.01 494.57,-408.3 495.33,-377.44"/>
<polygon fill="black" stroke="black" points="498.83,-377.45 495.57,-367.37 491.83,-377.28 498.83,-377.45"/>
</g>
<!-- pFiber_square_pequiv_pfiber -->
<g id="node2" class="node">
<title>pFiber_square_pequiv_pfiber</title>
<g id="a_node2"><a xlink:href="pFiber.html#square_pequiv_pfiber" xlink:title="square_pequiv_pfiber">
<ellipse fill="#f070d1" stroke="black" cx="188" cy="-514" rx="109.69" ry="18"/>
<ellipse fill="none" stroke="black" cx="188" cy="-514" rx="113.69" ry="22"/>
<ellipse fill="none" stroke="black" cx="188" cy="-514" rx="117.68" ry="26"/>
<text text-anchor="middle" x="188" y="-510.3" font-family="Times,serif" font-size="14.00">square_pequiv_pfiber</text>
</a>
</g>
</g>
<!-- pFiber_square_functor_pfiber -->
<g id="node3" class="node">
<title>pFiber_square_functor_pfiber</title>
<g id="a_node3"><a xlink:href="pFiber.html#square_functor_pfiber" xlink:title="square_functor_pfiber">
<ellipse fill="#f070d1" stroke="black" cx="293" cy="-349" rx="112.38" ry="18"/>
<text text-anchor="middle" x="293" y="-345.3" font-family="Times,serif" font-size="14.00">square_functor_pfiber</text>
</a>
</g>
</g>
<!-- pFiber_square_pequiv_pfiber&#45;&gt;pFiber_square_functor_pfiber -->
<g id="edge2" class="edge">
<title>pFiber_square_pequiv_pfiber&#45;&gt;pFiber_square_functor_pfiber</title>
<path fill="none" stroke="black" d="M204.18,-487.89C223.76,-457.49 256.56,-406.56 276.35,-375.84"/>
<polygon fill="black" stroke="black" points="279.34,-377.67 281.81,-367.37 273.45,-373.88 279.34,-377.67"/>
</g>
<!-- pFiber_pequiv_pfiber -->
<g id="node5" class="node">
<title>pFiber_pequiv_pfiber</title>
<g id="a_node5"><a xlink:href="pFiber.html#pequiv_pfiber" xlink:title="pequiv_pfiber">
<ellipse fill="#f070d1" stroke="black" cx="89" cy="-349" rx="73.39" ry="18"/>
<text text-anchor="middle" x="89" y="-345.3" font-family="Times,serif" font-size="14.00">pequiv_pfiber</text>
</a>
</g>
</g>
<!-- pFiber_square_pequiv_pfiber&#45;&gt;pFiber_pequiv_pfiber -->
<g id="edge3" class="edge">
<title>pFiber_square_pequiv_pfiber&#45;&gt;pFiber_pequiv_pfiber</title>
<path fill="none" stroke="black" d="M172.75,-487.89C154.27,-457.46 123.29,-406.46 104.64,-375.74"/>
<polygon fill="black" stroke="black" points="107.45,-373.64 99.27,-366.91 101.47,-377.27 107.45,-373.64"/>
</g>
<!-- pFiber_square_functor_pfiber_subproof -->
<g id="node4" class="node">
<title>pFiber_square_functor_pfiber_subproof</title>
<g id="a_node4"><a xlink:href="pFiber.html#square_functor_pfiber_subproof" xlink:title="square_functor_pfiber_subproof">
<ellipse fill="#f070d1" stroke="black" cx="343" cy="-199" rx="157.07" ry="18"/>
<text text-anchor="middle" x="343" y="-195.3" font-family="Times,serif" font-size="14.00">square_functor_pfiber_subproof</text>
</a>
</g>
</g>
<!-- pFiber_square_functor_pfiber&#45;&gt;pFiber_square_functor_pfiber_subproof -->
<g id="edge4" class="edge">
<title>pFiber_square_functor_pfiber&#45;&gt;pFiber_square_functor_pfiber_subproof</title>
<path fill="none" stroke="black" d="M298.74,-331.02C307.35,-305.51 323.73,-257.05 333.96,-226.75"/>
<polygon fill="black" stroke="black" points="337.29,-227.83 337.18,-217.23 330.66,-225.59 337.29,-227.83"/>
</g>
<!-- pFiber_functor_pfiber -->
<g id="node6" class="node">
<title>pFiber_functor_pfiber</title>
<g id="a_node6"><a xlink:href="pFiber.html#functor_pfiber" xlink:title="functor_pfiber">
<ellipse fill="#f070d1" stroke="black" cx="92" cy="-199" rx="76.09" ry="18"/>
<text text-anchor="middle" x="92" y="-195.3" font-family="Times,serif" font-size="14.00">functor_pfiber</text>
</a>
</g>
</g>
<!-- pFiber_square_functor_pfiber&#45;&gt;pFiber_functor_pfiber -->
<g id="edge5" class="edge">
<title>pFiber_square_functor_pfiber&#45;&gt;pFiber_functor_pfiber</title>
<path fill="none" stroke="black" d="M270.33,-331.31C234.1,-304.63 163.09,-252.35 122.46,-222.43"/>
<polygon fill="black" stroke="black" points="124.4,-219.51 114.28,-216.4 120.25,-225.15 124.4,-219.51"/>
</g>
<!-- pFiber_pfib -->
<g id="node12" class="node">
<title>pFiber_pfib</title>
<g id="a_node12"><a xlink:href="pFiber.html#pfib" xlink:title="pfib">
<ellipse fill="#f070d1" stroke="black" cx="547" cy="-199" rx="28.7" ry="18"/>
<text text-anchor="middle" x="547" y="-195.3" font-family="Times,serif" font-size="14.00">pfib</text>
</a>
</g>
</g>
<!-- pFiber_square_functor_pfiber&#45;&gt;pFiber_pfib -->
<g id="edge6" class="edge">
<title>pFiber_square_functor_pfiber&#45;&gt;pFiber_pfib</title>
<path fill="none" stroke="black" d="M321.64,-331.31C370.4,-302.9 468.98,-245.46 517.99,-216.9"/>
<polygon fill="black" stroke="black" points="519.94,-219.82 526.82,-211.76 516.41,-213.77 519.94,-219.82"/>
</g>
<!-- pFiber_pequiv_pfiber&#45;&gt;pFiber_functor_pfiber -->
<g id="edge7" class="edge">
<title>pFiber_pequiv_pfiber&#45;&gt;pFiber_functor_pfiber</title>
<path fill="none" stroke="black" d="M89.35,-330.73C89.86,-305.33 90.83,-257.65 91.44,-227.43"/>
<polygon fill="black" stroke="black" points="94.95,-227.22 91.65,-217.15 87.95,-227.08 94.95,-227.22"/>
</g>
<!-- pFiber_pfiber -->
<g id="node13" class="node">
<title>pFiber_pfiber</title>
<g id="a_node13"><a xlink:href="pFiber.html#pfiber" xlink:title="pfiber">
<ellipse fill="#f070d1" stroke="black" cx="547" cy="-64" rx="38.19" ry="18"/>
<text text-anchor="middle" x="547" y="-60.3" font-family="Times,serif" font-size="14.00">pfiber</text>
</a>
</g>
</g>
<!-- pFiber_functor_pfiber&#45;&gt;pFiber_pfiber -->
<g id="edge8" class="edge">
<title>pFiber_functor_pfiber&#45;&gt;pFiber_pfiber</title>
<path fill="none" stroke="black" d="M138.13,-184.51C226.93,-158.56 420.32,-102.03 505.41,-77.15"/>
<polygon fill="black" stroke="black" points="506.62,-80.45 515.24,-74.28 504.66,-73.73 506.62,-80.45"/>
</g>
<!-- pFiber_pfiber_iterated_loops_functor -->
<g id="node7" class="node">
<title>pFiber_pfiber_iterated_loops_functor</title>
<g id="a_node7"><a xlink:href="pFiber.html#pfiber_iterated_loops_functor" xlink:title="pfiber_iterated_loops_functor">
<ellipse fill="#f070d1" stroke="black" cx="1101" cy="-349" rx="146.46" ry="18"/>
<ellipse fill="none" stroke="black" cx="1101" cy="-349" rx="150.47" ry="22"/>
<ellipse fill="none" stroke="black" cx="1101" cy="-349" rx="154.47" ry="26"/>
<text text-anchor="middle" x="1101" y="-345.3" font-family="Times,serif" font-size="14.00">pfiber_iterated_loops_functor</text>
</a>
</g>
</g>
<!-- pFiber_pfiber_loops_functor -->
<g id="node10" class="node">
<title>pFiber_pfiber_loops_functor</title>
<g id="a_node10"><a xlink:href="pFiber.html#pfiber_loops_functor" xlink:title="pfiber_loops_functor">
<ellipse fill="#f070d1" stroke="black" cx="758" cy="-199" rx="104.78" ry="18"/>
<text text-anchor="middle" x="758" y="-195.3" font-family="Times,serif" font-size="14.00">pfiber_loops_functor</text>
</a>
</g>
</g>
<!-- pFiber_pfiber_iterated_loops_functor&#45;&gt;pFiber_pfiber_loops_functor -->
<g id="edge9" class="edge">
<title>pFiber_pfiber_iterated_loops_functor&#45;&gt;pFiber_pfiber_loops_functor</title>
<path fill="none" stroke="black" d="M1046.65,-324.55C979.81,-295.71 867.5,-247.24 804.48,-220.05"/>
<polygon fill="black" stroke="black" points="805.75,-216.79 795.18,-216.04 802.98,-223.22 805.75,-216.79"/>
</g>
<!-- pFiber_pr1_pfiber_loops_functor -->
<g id="node8" class="node">
<title>pFiber_pr1_pfiber_loops_functor</title>
<g id="a_node8"><a xlink:href="pFiber.html#pr1_pfiber_loops_functor" xlink:title="pr1_pfiber_loops_functor">
<ellipse fill="#f070d1" stroke="black" cx="762" cy="-514" rx="125.38" ry="18"/>
<ellipse fill="none" stroke="black" cx="762" cy="-514" rx="129.38" ry="22"/>
<ellipse fill="none" stroke="black" cx="762" cy="-514" rx="133.38" ry="26"/>
<text text-anchor="middle" x="762" y="-510.3" font-family="Times,serif" font-size="14.00">pr1_pfiber_loops_functor</text>
</a>
</g>
</g>
<!-- pFiber_pr1_pfiber_loops_functor_subproof -->
<g id="node9" class="node">
<title>pFiber_pr1_pfiber_loops_functor_subproof</title>
<g id="a_node9"><a xlink:href="pFiber.html#pr1_pfiber_loops_functor_subproof" xlink:title="pr1_pfiber_loops_functor_subproof">
<ellipse fill="#f070d1" stroke="black" cx="758" cy="-349" rx="170.87" ry="18"/>
<text text-anchor="middle" x="758" y="-345.3" font-family="Times,serif" font-size="14.00">pr1_pfiber_loops_functor_subproof</text>
</a>
</g>
</g>
<!-- pFiber_pr1_pfiber_loops_functor&#45;&gt;pFiber_pr1_pfiber_loops_functor_subproof -->
<g id="edge10" class="edge">
<title>pFiber_pr1_pfiber_loops_functor&#45;&gt;pFiber_pr1_pfiber_loops_functor_subproof</title>
<path fill="none" stroke="black" d="M761.38,-487.89C760.65,-458.01 759.43,-408.3 758.67,-377.44"/>
<polygon fill="black" stroke="black" points="762.17,-377.28 758.43,-367.37 755.17,-377.45 762.17,-377.28"/>
</g>
<!-- pFiber_pr1_pfiber_loops_functor_subproof&#45;&gt;pFiber_pfiber_loops_functor -->
<g id="edge11" class="edge">
<title>pFiber_pr1_pfiber_loops_functor_subproof&#45;&gt;pFiber_pfiber_loops_functor</title>
<path fill="none" stroke="black" d="M758,-330.73C758,-305.33 758,-257.65 758,-227.43"/>
<polygon fill="black" stroke="black" points="761.5,-227.15 758,-217.15 754.5,-227.15 761.5,-227.15"/>
</g>
<!-- pFiber_pr1_pfiber_loops_functor_subproof&#45;&gt;pFiber_pfib -->
<g id="edge12" class="edge">
<title>pFiber_pr1_pfiber_loops_functor_subproof&#45;&gt;pFiber_pfib</title>
<path fill="none" stroke="black" d="M733.8,-331.02C693.98,-303.09 614.96,-247.67 573.62,-218.67"/>
<polygon fill="black" stroke="black" points="575.59,-215.78 565.4,-212.9 571.57,-221.51 575.59,-215.78"/>
</g>
<!-- pFiber_pfiber_loops_functor&#45;&gt;pFiber_pfiber -->
<g id="edge13" class="edge">
<title>pFiber_pfiber_loops_functor&#45;&gt;pFiber_pfiber</title>
<path fill="none" stroke="black" d="M731.7,-181.42C692.59,-156.77 619.26,-110.55 577.73,-84.37"/>
<polygon fill="black" stroke="black" points="579.46,-81.32 569.13,-78.95 575.72,-87.24 579.46,-81.32"/>
</g>
<!-- pFiber_pfiber2_loops&#45;&gt;pFiber_pfib -->
<g id="edge14" class="edge">
<title>pFiber_pfiber2_loops&#45;&gt;pFiber_pfib</title>
<path fill="none" stroke="black" d="M501.85,-331.02C510.69,-305.37 527.52,-256.53 537.95,-226.27"/>
<polygon fill="black" stroke="black" points="541.27,-227.37 541.22,-216.78 534.65,-225.09 541.27,-227.37"/>
</g>
<!-- pFiber_pfib&#45;&gt;pFiber_pfiber -->
<g id="edge15" class="edge">
<title>pFiber_pfib&#45;&gt;pFiber_pfiber</title>
<path fill="none" stroke="black" d="M547,-180.88C547,-158.44 547,-118.8 547,-92.21"/>
<polygon fill="black" stroke="black" points="550.5,-92.05 547,-82.05 543.5,-92.05 550.5,-92.05"/>
</g>
</g>
</svg>
