<?xml version="1.0" encoding="UTF-8" standalone="no"?>
<!DOCTYPE svg PUBLIC "-//W3C//DTD SVG 1.1//EN"
 "http://www.w3.org/Graphics/SVG/1.1/DTD/svg11.dtd">
<!-- Generated by graphviz version 2.43.0 (0)
 -->
<!-- Title: HoTT_Spectra_Coinductive Pages: 1 -->
<svg width="1182pt" height="595pt"
 viewBox="0.00 0.00 1182.00 595.00" xmlns="http://www.w3.org/2000/svg" xmlns:xlink="http://www.w3.org/1999/xlink">
<g id="graph0" class="graph" transform="scale(1 1) rotate(0) translate(4 591)">
<title>HoTT_Spectra_Coinductive</title>
<polygon fill="white" stroke="transparent" points="-4,4 -4,-591 1178,-591 1178,4 -4,4"/>
<g id="clust1" class="cluster">
<title>cluster_Coinductive</title>
<polygon fill="#ffffc3" stroke="black" points="10.81,-8 10.81,-579 1163.19,-579 1163.19,-8 10.81,-8"/>
<text text-anchor="middle" x="61.31" y="-563.8" font-family="Times,serif" font-size="14.00">Coinductive</text>
</g>
<!-- Coinductive_Trsp -->
<g id="node1" class="node">
<title>Coinductive_Trsp</title>
<g id="a_node1"><a xlink:href="Coinductive.html#Trsp" xlink:title="Trsp">
<ellipse fill="#f070d1" stroke="black" cx="401.15" cy="-186" rx="31.73" ry="18"/>
<ellipse fill="none" stroke="black" cx="401.15" cy="-186" rx="35.71" ry="22"/>
<ellipse fill="none" stroke="black" cx="401.15" cy="-186" rx="39.69" ry="26"/>
<text text-anchor="middle" x="401.15" y="-182.3" font-family="Times,serif" font-size="14.00">Trsp</text>
</a>
</g>
</g>
<!-- Coinductive_isspectrum_tr -->
<g id="node2" class="node">
<title>Coinductive_isspectrum_tr</title>
<g id="a_node2"><a xlink:href="Coinductive.html#isspectrum_tr" xlink:title="isspectrum_tr">
<ellipse fill="#f070d1" stroke="black" cx="455.15" cy="-106" rx="75.29" ry="18"/>
<text text-anchor="middle" x="455.15" y="-102.3" font-family="Times,serif" font-size="14.00">isspectrum_tr</text>
</a>
</g>
</g>
<!-- Coinductive_Trsp&#45;&gt;Coinductive_isspectrum_tr -->
<g id="edge1" class="edge">
<title>Coinductive_Trsp&#45;&gt;Coinductive_isspectrum_tr</title>
<path fill="none" stroke="black" d="M417.06,-162.02C423.54,-152.66 431.05,-141.81 437.68,-132.24"/>
<polygon fill="black" stroke="black" points="440.65,-134.09 443.47,-123.88 434.9,-130.11 440.65,-134.09"/>
</g>
<!-- Coinductive_Spectrum -->
<g id="node17" class="node">
<title>Coinductive_Spectrum</title>
<g id="a_node17"><a xlink:href="Coinductive.html#Spectrum" xlink:title="Spectrum">
<ellipse fill="#f070d1" stroke="black" cx="254.15" cy="-106" rx="55.79" ry="18"/>
<text text-anchor="middle" x="254.15" y="-102.3" font-family="Times,serif" font-size="14.00">Spectrum</text>
</a>
</g>
</g>
<!-- Coinductive_Trsp&#45;&gt;Coinductive_Spectrum -->
<g id="edge2" class="edge">
<title>Coinductive_Trsp&#45;&gt;Coinductive_Spectrum</title>
<path fill="none" stroke="black" d="M370.69,-168.84C347.58,-156.57 315.69,-139.65 291.11,-126.61"/>
<polygon fill="black" stroke="black" points="292.56,-123.42 282.08,-121.82 289.28,-129.6 292.56,-123.42"/>
</g>
<!-- Coinductive_isspectrum_loops -->
<g id="node18" class="node">
<title>Coinductive_isspectrum_loops</title>
<g id="a_node18"><a xlink:href="Coinductive.html#isspectrum_loops" xlink:title="isspectrum_loops">
<ellipse fill="#7faaff" stroke="black" cx="763.15" cy="-34" rx="90.98" ry="18"/>
<text text-anchor="middle" x="763.15" y="-30.3" font-family="Times,serif" font-size="14.00">isspectrum_loops</text>
</a>
</g>
</g>
<!-- Coinductive_isspectrum_tr&#45;&gt;Coinductive_isspectrum_loops -->
<g id="edge3" class="edge">
<title>Coinductive_isspectrum_tr&#45;&gt;Coinductive_isspectrum_loops</title>
<path fill="none" stroke="black" d="M507.75,-93.05C559.7,-81.24 639.35,-63.14 695.88,-50.29"/>
<polygon fill="black" stroke="black" points="696.82,-53.66 705.8,-48.03 695.27,-46.84 696.82,-53.66"/>
</g>
<!-- Coinductive_IsSpectrum -->
<g id="node19" class="node">
<title>Coinductive_IsSpectrum</title>
<g id="a_node19"><a xlink:href="Coinductive.html#IsSpectrum" xlink:title="IsSpectrum">
<ellipse fill="#e2cdfa" stroke="black" cx="529.15" cy="-34" rx="64.19" ry="18"/>
<text text-anchor="middle" x="529.15" y="-30.3" font-family="Times,serif" font-size="14.00">IsSpectrum</text>
</a>
</g>
</g>
<!-- Coinductive_isspectrum_tr&#45;&gt;Coinductive_IsSpectrum -->
<g id="edge4" class="edge">
<title>Coinductive_isspectrum_tr&#45;&gt;Coinductive_IsSpectrum</title>
<path fill="none" stroke="black" d="M472.69,-88.41C482.18,-79.43 494.06,-68.19 504.47,-58.34"/>
<polygon fill="black" stroke="black" points="506.88,-60.88 511.74,-51.47 502.07,-55.8 506.88,-60.88"/>
</g>
<!-- Coinductive_loopsp_functor -->
<g id="node3" class="node">
<title>Coinductive_loopsp_functor</title>
<g id="a_node3"><a xlink:href="Coinductive.html#loopsp_functor" xlink:title="loopsp_functor">
<ellipse fill="#f070d1" stroke="black" cx="809.15" cy="-434" rx="79.11" ry="18"/>
<ellipse fill="none" stroke="black" cx="809.15" cy="-434" rx="83.1" ry="22"/>
<ellipse fill="none" stroke="black" cx="809.15" cy="-434" rx="87.09" ry="26"/>
<text text-anchor="middle" x="809.15" y="-430.3" font-family="Times,serif" font-size="14.00">loopsp_functor</text>
</a>
</g>
</g>
<!-- Coinductive_isspmap_loops_functor -->
<g id="node4" class="node">
<title>Coinductive_isspmap_loops_functor</title>
<g id="a_node4"><a xlink:href="Coinductive.html#isspmap_loops_functor" xlink:title="isspmap_loops_functor">
<ellipse fill="#f070d1" stroke="black" cx="996.15" cy="-186" rx="116.18" ry="18"/>
<text text-anchor="middle" x="996.15" y="-182.3" font-family="Times,serif" font-size="14.00">isspmap_loops_functor</text>
</a>
</g>
</g>
<!-- Coinductive_loopsp_functor&#45;&gt;Coinductive_isspmap_loops_functor -->
<g id="edge5" class="edge">
<title>Coinductive_loopsp_functor&#45;&gt;Coinductive_isspmap_loops_functor</title>
<path fill="none" stroke="black" d="M827.76,-408.51C863.42,-361.61 941.01,-259.53 977.05,-212.13"/>
<polygon fill="black" stroke="black" points="980.01,-214.02 983.27,-203.94 974.44,-209.78 980.01,-214.02"/>
</g>
<!-- Coinductive_SpMap -->
<g id="node7" class="node">
<title>Coinductive_SpMap</title>
<g id="a_node7"><a xlink:href="Coinductive.html#SpMap" xlink:title="SpMap">
<ellipse fill="#f070d1" stroke="black" cx="581.15" cy="-354" rx="43.59" ry="18"/>
<text text-anchor="middle" x="581.15" y="-350.3" font-family="Times,serif" font-size="14.00">SpMap</text>
</a>
</g>
</g>
<!-- Coinductive_loopsp_functor&#45;&gt;Coinductive_SpMap -->
<g id="edge6" class="edge">
<title>Coinductive_loopsp_functor&#45;&gt;Coinductive_SpMap</title>
<path fill="none" stroke="black" d="M753.38,-413.92C713.25,-400.19 659.96,-381.96 623.35,-369.44"/>
<polygon fill="black" stroke="black" points="624.08,-365.99 613.49,-366.06 621.81,-372.61 624.08,-365.99"/>
</g>
<!-- Coinductive_loopsp -->
<g id="node14" class="node">
<title>Coinductive_loopsp</title>
<g id="a_node14"><a xlink:href="Coinductive.html#loopsp" xlink:title="loopsp">
<ellipse fill="#f070d1" stroke="black" cx="732.15" cy="-186" rx="40.89" ry="18"/>
<text text-anchor="middle" x="732.15" y="-182.3" font-family="Times,serif" font-size="14.00">loopsp</text>
</a>
</g>
</g>
<!-- Coinductive_loopsp_functor&#45;&gt;Coinductive_loopsp -->
<g id="edge7" class="edge">
<title>Coinductive_loopsp_functor&#45;&gt;Coinductive_loopsp</title>
<path fill="none" stroke="black" d="M801.34,-408.06C786.74,-361.4 755.41,-261.32 740.45,-213.5"/>
<polygon fill="black" stroke="black" points="743.76,-212.36 737.43,-203.86 737.08,-214.45 743.76,-212.36"/>
</g>
<!-- Coinductive_spmap_loop -->
<g id="node8" class="node">
<title>Coinductive_spmap_loop</title>
<g id="a_node8"><a xlink:href="Coinductive.html#spmap_loop" xlink:title="spmap_loop">
<ellipse fill="#7faaff" stroke="black" cx="996.15" cy="-106" rx="65.79" ry="18"/>
<text text-anchor="middle" x="996.15" y="-102.3" font-family="Times,serif" font-size="14.00">spmap_loop</text>
</a>
</g>
</g>
<!-- Coinductive_isspmap_loops_functor&#45;&gt;Coinductive_spmap_loop -->
<g id="edge8" class="edge">
<title>Coinductive_isspmap_loops_functor&#45;&gt;Coinductive_spmap_loop</title>
<path fill="none" stroke="black" d="M996.15,-167.69C996.15,-157.89 996.15,-145.42 996.15,-134.33"/>
<polygon fill="black" stroke="black" points="999.65,-134.26 996.15,-124.26 992.65,-134.26 999.65,-134.26"/>
</g>
<!-- Coinductive_IsSpMap -->
<g id="node9" class="node">
<title>Coinductive_IsSpMap</title>
<g id="a_node9"><a xlink:href="Coinductive.html#IsSpMap" xlink:title="IsSpMap">
<ellipse fill="#e2cdfa" stroke="black" cx="812.15" cy="-106" rx="51.99" ry="18"/>
<text text-anchor="middle" x="812.15" y="-102.3" font-family="Times,serif" font-size="14.00">IsSpMap</text>
</a>
</g>
</g>
<!-- Coinductive_isspmap_loops_functor&#45;&gt;Coinductive_IsSpMap -->
<g id="edge9" class="edge">
<title>Coinductive_isspmap_loops_functor&#45;&gt;Coinductive_IsSpMap</title>
<path fill="none" stroke="black" d="M958.03,-168.84C927.4,-155.86 884.49,-137.66 853.13,-124.37"/>
<polygon fill="black" stroke="black" points="854.37,-121.1 843.8,-120.42 851.64,-127.54 854.37,-121.1"/>
</g>
<!-- Coinductive_isspmap_loops_oo_functor -->
<g id="node5" class="node">
<title>Coinductive_isspmap_loops_oo_functor</title>
<g id="a_node5"><a xlink:href="Coinductive.html#isspmap_loops_oo_functor" xlink:title="isspmap_loops_oo_functor">
<ellipse fill="#f070d1" stroke="black" cx="547.15" cy="-522" rx="131.09" ry="18"/>
<ellipse fill="none" stroke="black" cx="547.15" cy="-522" rx="135.08" ry="22"/>
<ellipse fill="none" stroke="black" cx="547.15" cy="-522" rx="139.08" ry="26"/>
<text text-anchor="middle" x="547.15" y="-518.3" font-family="Times,serif" font-size="14.00">isspmap_loops_oo_functor</text>
</a>
</g>
</g>
<!-- Coinductive_loops_oo_functor -->
<g id="node6" class="node">
<title>Coinductive_loops_oo_functor</title>
<g id="a_node6"><a xlink:href="Coinductive.html#loops_oo_functor" xlink:title="loops_oo_functor">
<ellipse fill="#f070d1" stroke="black" cx="547.15" cy="-434" rx="88.28" ry="18"/>
<text text-anchor="middle" x="547.15" y="-430.3" font-family="Times,serif" font-size="14.00">loops_oo_functor</text>
</a>
</g>
</g>
<!-- Coinductive_isspmap_loops_oo_functor&#45;&gt;Coinductive_loops_oo_functor -->
<g id="edge10" class="edge">
<title>Coinductive_isspmap_loops_oo_functor&#45;&gt;Coinductive_loops_oo_functor</title>
<path fill="none" stroke="black" d="M547.15,-495.66C547.15,-485.11 547.15,-472.84 547.15,-462.1"/>
<polygon fill="black" stroke="black" points="550.65,-462 547.15,-452 543.65,-462 550.65,-462"/>
</g>
<!-- Coinductive_loops_oo_functor&#45;&gt;Coinductive_SpMap -->
<g id="edge11" class="edge">
<title>Coinductive_loops_oo_functor&#45;&gt;Coinductive_SpMap</title>
<path fill="none" stroke="black" d="M554.7,-415.69C559.08,-405.62 564.7,-392.73 569.64,-381.42"/>
<polygon fill="black" stroke="black" points="572.96,-382.56 573.74,-371.99 566.54,-379.76 572.96,-382.56"/>
</g>
<!-- Coinductive_SpMap&#45;&gt;Coinductive_IsSpMap -->
<g id="edge12" class="edge">
<title>Coinductive_SpMap&#45;&gt;Coinductive_IsSpMap</title>
<path fill="none" stroke="black" d="M611.2,-340.75C656.05,-320.83 739.76,-276.97 782.15,-212 797.55,-188.39 805.18,-156.79 808.87,-134.44"/>
<polygon fill="black" stroke="black" points="812.38,-134.7 810.39,-124.29 805.45,-133.67 812.38,-134.7"/>
</g>
<!-- Coinductive_isspectrum_loops_oo -->
<g id="node15" class="node">
<title>Coinductive_isspectrum_loops_oo</title>
<g id="a_node15"><a xlink:href="Coinductive.html#isspectrum_loops_oo" xlink:title="isspectrum_loops_oo">
<ellipse fill="#f070d1" stroke="black" cx="234.15" cy="-274" rx="106.68" ry="18"/>
<text text-anchor="middle" x="234.15" y="-270.3" font-family="Times,serif" font-size="14.00">isspectrum_loops_oo</text>
</a>
</g>
</g>
<!-- Coinductive_SpMap&#45;&gt;Coinductive_isspectrum_loops_oo -->
<g id="edge13" class="edge">
<title>Coinductive_SpMap&#45;&gt;Coinductive_isspectrum_loops_oo</title>
<path fill="none" stroke="black" d="M543.69,-344.58C486.78,-331.79 377.55,-307.23 305.25,-290.98"/>
<polygon fill="black" stroke="black" points="305.83,-287.52 295.3,-288.75 304.29,-294.35 305.83,-287.52"/>
</g>
<!-- Coinductive_spmap_loop&#45;&gt;Coinductive_isspectrum_loops -->
<g id="edge14" class="edge">
<title>Coinductive_spmap_loop&#45;&gt;Coinductive_isspectrum_loops</title>
<path fill="none" stroke="black" d="M953.69,-92.24C916.38,-81.03 861.78,-64.63 820.58,-52.25"/>
<polygon fill="black" stroke="black" points="821.53,-48.88 810.95,-49.36 819.52,-55.59 821.53,-48.88"/>
</g>
<!-- Coinductive_spmap_loop&#45;&gt;Coinductive_IsSpectrum -->
<g id="edge15" class="edge">
<title>Coinductive_spmap_loop&#45;&gt;Coinductive_IsSpectrum</title>
<path fill="none" stroke="black" d="M939.82,-96.56C852.95,-83.54 686.72,-58.62 594.63,-44.81"/>
<polygon fill="black" stroke="black" points="595,-41.33 584.59,-43.31 593.96,-48.25 595,-41.33"/>
</g>
<!-- Coinductive_IsSpMap&#45;&gt;Coinductive_isspectrum_loops -->
<g id="edge16" class="edge">
<title>Coinductive_IsSpMap&#45;&gt;Coinductive_isspectrum_loops</title>
<path fill="none" stroke="black" d="M800.54,-88.41C794.64,-79.99 787.36,-69.58 780.79,-60.2"/>
<polygon fill="black" stroke="black" points="783.62,-58.14 775.02,-51.96 777.89,-62.16 783.62,-58.14"/>
</g>
<!-- Coinductive_IsSpMap&#45;&gt;Coinductive_IsSpectrum -->
<g id="edge17" class="edge">
<title>Coinductive_IsSpMap&#45;&gt;Coinductive_IsSpectrum</title>
<path fill="none" stroke="black" d="M771,-94.82C722.22,-82.76 640.66,-62.58 585.91,-49.04"/>
<polygon fill="black" stroke="black" points="586.56,-45.59 576.01,-46.59 584.88,-52.39 586.56,-45.59"/>
</g>
<!-- Coinductive_equiv_loopsp -->
<g id="node10" class="node">
<title>Coinductive_equiv_loopsp</title>
<g id="a_node10"><a xlink:href="Coinductive.html#equiv_loopsp" xlink:title="equiv_loopsp">
<ellipse fill="#f070d1" stroke="black" cx="588.15" cy="-274" rx="70.7" ry="18"/>
<ellipse fill="none" stroke="black" cx="588.15" cy="-274" rx="74.7" ry="22"/>
<ellipse fill="none" stroke="black" cx="588.15" cy="-274" rx="78.69" ry="26"/>
<text text-anchor="middle" x="588.15" y="-270.3" font-family="Times,serif" font-size="14.00">equiv_loopsp</text>
</a>
</g>
</g>
<!-- Coinductive_unloopsp -->
<g id="node11" class="node">
<title>Coinductive_unloopsp</title>
<g id="a_node11"><a xlink:href="Coinductive.html#unloopsp" xlink:title="unloopsp">
<ellipse fill="#f070d1" stroke="black" cx="252.15" cy="-186" rx="52.79" ry="18"/>
<text text-anchor="middle" x="252.15" y="-182.3" font-family="Times,serif" font-size="14.00">unloopsp</text>
</a>
</g>
</g>
<!-- Coinductive_equiv_loopsp&#45;&gt;Coinductive_unloopsp -->
<g id="edge18" class="edge">
<title>Coinductive_equiv_loopsp&#45;&gt;Coinductive_unloopsp</title>
<path fill="none" stroke="black" d="M527.3,-257.43C463.12,-241 363.14,-215.41 303.01,-200.02"/>
<polygon fill="black" stroke="black" points="303.55,-196.54 292.99,-197.45 301.81,-203.32 303.55,-196.54"/>
</g>
<!-- Coinductive_equiv_loopsp&#45;&gt;Coinductive_loopsp -->
<g id="edge19" class="edge">
<title>Coinductive_equiv_loopsp&#45;&gt;Coinductive_loopsp</title>
<path fill="none" stroke="black" d="M625.23,-250.85C648.38,-237.03 677.87,-219.42 700.02,-206.19"/>
<polygon fill="black" stroke="black" points="701.93,-209.13 708.72,-200.99 698.34,-203.12 701.93,-209.13"/>
</g>
<!-- Coinductive_unloopsp&#45;&gt;Coinductive_Spectrum -->
<g id="edge20" class="edge">
<title>Coinductive_unloopsp&#45;&gt;Coinductive_Spectrum</title>
<path fill="none" stroke="black" d="M252.59,-167.69C252.85,-157.89 253.17,-145.42 253.45,-134.33"/>
<polygon fill="black" stroke="black" points="256.95,-134.35 253.71,-124.26 249.95,-134.17 256.95,-134.35"/>
</g>
<!-- Coinductive_frobsp_eq -->
<g id="node12" class="node">
<title>Coinductive_frobsp_eq</title>
<g id="a_node12"><a xlink:href="Coinductive.html#frobsp_eq" xlink:title="frobsp_eq">
<ellipse fill="#f070d1" stroke="black" cx="566.15" cy="-186" rx="55.8" ry="18"/>
<ellipse fill="none" stroke="black" cx="566.15" cy="-186" rx="59.8" ry="22"/>
<ellipse fill="none" stroke="black" cx="566.15" cy="-186" rx="63.79" ry="26"/>
<text text-anchor="middle" x="566.15" y="-182.3" font-family="Times,serif" font-size="14.00">frobsp_eq</text>
</a>
</g>
</g>
<!-- Coinductive_frobsp -->
<g id="node13" class="node">
<title>Coinductive_frobsp</title>
<g id="a_node13"><a xlink:href="Coinductive.html#frobsp" xlink:title="frobsp">
<ellipse fill="#f070d1" stroke="black" cx="636.15" cy="-106" rx="40.09" ry="18"/>
<text text-anchor="middle" x="636.15" y="-102.3" font-family="Times,serif" font-size="14.00">frobsp</text>
</a>
</g>
</g>
<!-- Coinductive_frobsp_eq&#45;&gt;Coinductive_frobsp -->
<g id="edge21" class="edge">
<title>Coinductive_frobsp_eq&#45;&gt;Coinductive_frobsp</title>
<path fill="none" stroke="black" d="M587.53,-161.17C596.2,-151.51 606.19,-140.38 614.85,-130.73"/>
<polygon fill="black" stroke="black" points="617.68,-132.82 621.76,-123.04 612.47,-128.14 617.68,-132.82"/>
</g>
<!-- Coinductive_frobsp&#45;&gt;Coinductive_isspectrum_loops -->
<g id="edge22" class="edge">
<title>Coinductive_frobsp&#45;&gt;Coinductive_isspectrum_loops</title>
<path fill="none" stroke="black" d="M660.64,-91.5C678.85,-81.47 704.04,-67.58 724.9,-56.08"/>
<polygon fill="black" stroke="black" points="726.77,-59.05 733.83,-51.16 723.39,-52.92 726.77,-59.05"/>
</g>
<!-- Coinductive_frobsp&#45;&gt;Coinductive_IsSpectrum -->
<g id="edge23" class="edge">
<title>Coinductive_frobsp&#45;&gt;Coinductive_IsSpectrum</title>
<path fill="none" stroke="black" d="M614.24,-90.67C599.14,-80.79 578.81,-67.49 561.81,-56.37"/>
<polygon fill="black" stroke="black" points="563.55,-53.32 553.27,-50.78 559.72,-59.18 563.55,-53.32"/>
</g>
<!-- Coinductive_loopsp&#45;&gt;Coinductive_Spectrum -->
<g id="edge24" class="edge">
<title>Coinductive_loopsp&#45;&gt;Coinductive_Spectrum</title>
<path fill="none" stroke="black" d="M699.25,-175.04C681.57,-169.98 659.31,-164.05 639.15,-160 521.32,-136.35 490.17,-140.64 371.15,-124 352.54,-121.4 332.28,-118.48 313.93,-115.81"/>
<polygon fill="black" stroke="black" points="314.35,-112.34 303.95,-114.36 313.34,-119.26 314.35,-112.34"/>
</g>
<!-- Coinductive_loopsp&#45;&gt;Coinductive_isspectrum_loops -->
<g id="edge25" class="edge">
<title>Coinductive_loopsp&#45;&gt;Coinductive_isspectrum_loops</title>
<path fill="none" stroke="black" d="M735.36,-167.8C739.02,-148.38 745.27,-115.87 751.15,-88 752.93,-79.56 754.97,-70.39 756.86,-62.09"/>
<polygon fill="black" stroke="black" points="760.31,-62.69 759.13,-52.16 753.49,-61.12 760.31,-62.69"/>
</g>
<!-- Coinductive_loops_oo -->
<g id="node16" class="node">
<title>Coinductive_loops_oo</title>
<g id="a_node16"><a xlink:href="Coinductive.html#loops_oo" xlink:title="loops_oo">
<ellipse fill="#f070d1" stroke="black" cx="89.15" cy="-186" rx="50.09" ry="18"/>
<text text-anchor="middle" x="89.15" y="-182.3" font-family="Times,serif" font-size="14.00">loops_oo</text>
</a>
</g>
</g>
<!-- Coinductive_isspectrum_loops_oo&#45;&gt;Coinductive_loops_oo -->
<g id="edge26" class="edge">
<title>Coinductive_isspectrum_loops_oo&#45;&gt;Coinductive_loops_oo</title>
<path fill="none" stroke="black" d="M206.19,-256.42C182.45,-242.33 148.29,-222.07 123,-207.08"/>
<polygon fill="black" stroke="black" points="124.5,-203.9 114.12,-201.81 120.93,-209.92 124.5,-203.9"/>
</g>
<!-- Coinductive_loops_oo&#45;&gt;Coinductive_Spectrum -->
<g id="edge27" class="edge">
<title>Coinductive_loops_oo&#45;&gt;Coinductive_Spectrum</title>
<path fill="none" stroke="black" d="M118.27,-171.23C145.07,-158.57 185.03,-139.67 214.69,-125.65"/>
<polygon fill="black" stroke="black" points="216.38,-128.73 223.93,-121.29 213.39,-122.4 216.38,-128.73"/>
</g>
<!-- Coinductive_Spectrum&#45;&gt;Coinductive_IsSpectrum -->
<g id="edge28" class="edge">
<title>Coinductive_Spectrum&#45;&gt;Coinductive_IsSpectrum</title>
<path fill="none" stroke="black" d="M296.52,-94.22C343.93,-82.15 420.95,-62.54 473.27,-49.22"/>
<polygon fill="black" stroke="black" points="474.24,-52.59 483.06,-46.73 472.51,-45.81 474.24,-52.59"/>
</g>
</g>
</svg>
