<?xml version="1.0" encoding="UTF-8" standalone="no"?>
<!DOCTYPE svg PUBLIC "-//W3C//DTD SVG 1.1//EN"
 "http://www.w3.org/Graphics/SVG/1.1/DTD/svg11.dtd">
<!-- Generated by graphviz version 2.43.0 (0)
 -->
<!-- Title: HoTT_Basics_Numeral Pages: 1 -->
<svg width="1369pt" height="659pt"
 viewBox="0.00 0.00 1369.46 659.00" xmlns="http://www.w3.org/2000/svg" xmlns:xlink="http://www.w3.org/1999/xlink">
<g id="graph0" class="graph" transform="scale(1 1) rotate(0) translate(4 655)">
<title>HoTT_Basics_Numeral</title>
<polygon fill="white" stroke="transparent" points="-4,4 -4,-655 1365.46,-655 1365.46,4 -4,4"/>
<g id="clust1" class="cluster">
<title>cluster_Basics</title>
<polygon fill="#ffffc3" stroke="black" points="106,-13.39 106,-351.44 1135,-351.44 1135,-13.39 106,-13.39"/>
<text text-anchor="middle" x="137" y="-336.24" font-family="Times,serif" font-size="14.00">Basics</text>
</g>
<g id="clust2" class="cluster">
<title>cluster_Basics_Numeral</title>
<polygon fill="#ffffa3" stroke="black" points="114,-26.78 114,-299.56 1127,-299.56 1127,-26.78 114,-26.78"/>
<text text-anchor="middle" x="153.5" y="-284.36" font-family="Times,serif" font-size="14.00">Numeral</text>
</g>
<g id="clust3" class="cluster">
<title>cluster_Numeral</title>
<polygon fill="#ffffc3" stroke="black" points="8,-364.83 8,-637.61 1294,-637.61 1294,-364.83 8,-364.83"/>
<text text-anchor="middle" x="47.5" y="-622.41" font-family="Times,serif" font-size="14.00">Numeral</text>
</g>
<!-- Basics_Numeral_int_of_int -->
<g id="node1" class="node">
<title>Basics_Numeral_int_of_int</title>
<g id="a_node1"><a xlink:href="Basics.html#Numeral.int_of_int" xlink:title="int_of_int">
<ellipse fill="#f070d1" stroke="black" cx="891" cy="-204.39" rx="53.9" ry="18"/>
<ellipse fill="none" stroke="black" cx="891" cy="-204.39" rx="57.89" ry="22"/>
<ellipse fill="none" stroke="black" cx="891" cy="-204.39" rx="61.89" ry="26"/>
<text text-anchor="middle" x="891" y="-200.69" font-family="Times,serif" font-size="14.00">int_of_int</text>
</a>
</g>
</g>
<!-- Basics_Numeral_int -->
<g id="node16" class="node">
<title>Basics_Numeral_int</title>
<g id="a_node16"><a xlink:href="Basics.html#Numeral.int" xlink:title="int">
<ellipse fill="#e2cdfa" stroke="black" cx="1016" cy="-70.39" rx="27" ry="18"/>
<text text-anchor="middle" x="1016" y="-66.69" font-family="Times,serif" font-size="14.00">int</text>
</a>
</g>
</g>
<!-- Basics_Numeral_int_of_int&#45;&gt;Basics_Numeral_int -->
<g id="edge1" class="edge">
<title>Basics_Numeral_int_of_int&#45;&gt;Basics_Numeral_int</title>
<path fill="none" stroke="black" d="M913.35,-179.79C936.44,-155.4 972.21,-117.63 994.85,-93.72"/>
<polygon fill="black" stroke="black" points="997.65,-95.85 1001.99,-86.18 992.57,-91.04 997.65,-95.85"/>
</g>
<!-- Basics_Numeral_uint_of_uint -->
<g id="node2" class="node">
<title>Basics_Numeral_uint_of_uint</title>
<g id="a_node2"><a xlink:href="Basics.html#Numeral.uint_of_uint" xlink:title="uint_of_uint">
<ellipse fill="#f070d1" stroke="black" cx="1045" cy="-204.39" rx="65.77" ry="18"/>
<ellipse fill="none" stroke="black" cx="1045" cy="-204.39" rx="69.78" ry="22"/>
<ellipse fill="none" stroke="black" cx="1045" cy="-204.39" rx="73.79" ry="26"/>
<text text-anchor="middle" x="1045" y="-200.69" font-family="Times,serif" font-size="14.00">uint_of_uint</text>
</a>
</g>
</g>
<!-- Basics_Numeral_uint -->
<g id="node23" class="node">
<title>Basics_Numeral_uint</title>
<g id="a_node23"><a xlink:href="Basics.html#Numeral.uint" xlink:title="uint">
<ellipse fill="#e2cdfa" stroke="black" cx="1090" cy="-70.39" rx="29.5" ry="18"/>
<text text-anchor="middle" x="1090" y="-66.69" font-family="Times,serif" font-size="14.00">uint</text>
</a>
</g>
</g>
<!-- Basics_Numeral_uint_of_uint&#45;&gt;Basics_Numeral_uint -->
<g id="edge2" class="edge">
<title>Basics_Numeral_uint_of_uint&#45;&gt;Basics_Numeral_uint</title>
<path fill="none" stroke="black" d="M1053.46,-178.56C1061.32,-155.53 1072.96,-121.37 1080.98,-97.83"/>
<polygon fill="black" stroke="black" points="1084.37,-98.75 1084.28,-88.15 1077.74,-96.49 1084.37,-98.75"/>
</g>
<!-- Numeral_numeral_sind -->
<g id="node3" class="node">
<title>Numeral_numeral_sind</title>
<g id="a_node3"><a xlink:href="Numeral.html#numeral_sind" xlink:title="numeral_sind">
<ellipse fill="#f070d1" stroke="black" cx="97" cy="-542.39" rx="73.39" ry="18"/>
<ellipse fill="none" stroke="black" cx="97" cy="-542.39" rx="77.39" ry="22"/>
<ellipse fill="none" stroke="black" cx="97" cy="-542.39" rx="81.39" ry="26"/>
<text text-anchor="middle" x="97" y="-538.69" font-family="Times,serif" font-size="14.00">numeral_sind</text>
</a>
</g>
</g>
<!-- Basics_Numeral_Hex -->
<g id="node7" class="node">
<title>Basics_Numeral_Hex</title>
<g id="a_node7"><a xlink:href="Basics.html#Numeral.Hex" xlink:title="Hex">
<ellipse fill="#7faaff" stroke="black" cx="151" cy="-204.39" rx="29.5" ry="18"/>
<text text-anchor="middle" x="151" y="-200.69" font-family="Times,serif" font-size="14.00">Hex</text>
</a>
</g>
</g>
<!-- Numeral_numeral_sind&#45;&gt;Basics_Numeral_Hex -->
<g id="edge3" class="edge">
<title>Numeral_numeral_sind&#45;&gt;Basics_Numeral_Hex</title>
<path fill="none" stroke="black" d="M101.01,-516.41C110.9,-454.87 136.38,-296.37 146.63,-232.58"/>
<polygon fill="black" stroke="black" points="150.12,-232.93 148.25,-222.5 143.21,-231.82 150.12,-232.93"/>
</g>
<!-- Basics_Numeral_Dec -->
<g id="node8" class="node">
<title>Basics_Numeral_Dec</title>
<g id="a_node8"><a xlink:href="Basics.html#Numeral.Dec" xlink:title="Dec">
<ellipse fill="#7faaff" stroke="black" cx="227" cy="-204.39" rx="28.7" ry="18"/>
<text text-anchor="middle" x="227" y="-200.69" font-family="Times,serif" font-size="14.00">Dec</text>
</a>
</g>
</g>
<!-- Numeral_numeral_sind&#45;&gt;Basics_Numeral_Dec -->
<g id="edge4" class="edge">
<title>Numeral_numeral_sind&#45;&gt;Basics_Numeral_Dec</title>
<path fill="none" stroke="black" d="M106.66,-516.41C130.58,-454.6 192.34,-294.98 216.8,-231.75"/>
<polygon fill="black" stroke="black" points="220.18,-232.7 220.53,-222.11 213.66,-230.18 220.18,-232.7"/>
</g>
<!-- Basics_Numeral_numeral -->
<g id="node9" class="node">
<title>Basics_Numeral_numeral</title>
<g id="a_node9"><a xlink:href="Basics.html#Numeral.numeral" xlink:title="numeral">
<ellipse fill="#e2cdfa" stroke="black" cx="323" cy="-204.39" rx="49.29" ry="18"/>
<text text-anchor="middle" x="323" y="-200.69" font-family="Times,serif" font-size="14.00">numeral</text>
</a>
</g>
</g>
<!-- Numeral_numeral_sind&#45;&gt;Basics_Numeral_numeral -->
<g id="edge5" class="edge">
<title>Numeral_numeral_sind&#45;&gt;Basics_Numeral_numeral</title>
<path fill="none" stroke="black" d="M113.74,-516.68C144,-471.98 209.81,-374.68 265,-292.39 278.95,-271.59 294.71,-247.94 306.27,-230.56"/>
<polygon fill="black" stroke="black" points="309.28,-232.35 311.91,-222.08 303.46,-228.47 309.28,-232.35"/>
</g>
<!-- Numeral_numeral_rec -->
<g id="node4" class="node">
<title>Numeral_numeral_rec</title>
<g id="a_node4"><a xlink:href="Numeral.html#numeral_rec" xlink:title="numeral_rec">
<ellipse fill="#f070d1" stroke="black" cx="962" cy="-542.39" rx="68.46" ry="18"/>
<ellipse fill="none" stroke="black" cx="962" cy="-542.39" rx="72.48" ry="22"/>
<ellipse fill="none" stroke="black" cx="962" cy="-542.39" rx="76.49" ry="26"/>
<text text-anchor="middle" x="962" y="-538.69" font-family="Times,serif" font-size="14.00">numeral_rec</text>
</a>
</g>
</g>
<!-- Numeral_numeral_rect -->
<g id="node6" class="node">
<title>Numeral_numeral_rect</title>
<g id="a_node6"><a xlink:href="Numeral.html#numeral_rect" xlink:title="numeral_rect">
<ellipse fill="#f070d1" stroke="black" cx="853" cy="-408.39" rx="72.29" ry="18"/>
<text text-anchor="middle" x="853" y="-404.69" font-family="Times,serif" font-size="14.00">numeral_rect</text>
</a>
</g>
</g>
<!-- Numeral_numeral_rec&#45;&gt;Numeral_numeral_rect -->
<g id="edge6" class="edge">
<title>Numeral_numeral_rec&#45;&gt;Numeral_numeral_rect</title>
<path fill="none" stroke="black" d="M942.01,-517.18C922.55,-493.61 893.11,-457.96 873.48,-434.19"/>
<polygon fill="black" stroke="black" points="876.05,-431.8 866.98,-426.32 870.65,-436.26 876.05,-431.8"/>
</g>
<!-- Numeral_numeral_ind -->
<g id="node5" class="node">
<title>Numeral_numeral_ind</title>
<g id="a_node5"><a xlink:href="Numeral.html#numeral_ind" xlink:title="numeral_ind">
<ellipse fill="#7fffd4" stroke="black" cx="273" cy="-542.39" rx="68.46" ry="18"/>
<ellipse fill="none" stroke="black" cx="273" cy="-542.39" rx="72.48" ry="22"/>
<ellipse fill="none" stroke="black" cx="273" cy="-542.39" rx="76.49" ry="26"/>
<text text-anchor="middle" x="273" y="-538.69" font-family="Times,serif" font-size="14.00">numeral_ind</text>
</a>
</g>
</g>
<!-- Numeral_numeral_ind&#45;&gt;Basics_Numeral_Hex -->
<g id="edge7" class="edge">
<title>Numeral_numeral_ind&#45;&gt;Basics_Numeral_Hex</title>
<path fill="none" stroke="black" d="M263.93,-516.41C241.49,-454.6 183.53,-294.98 160.57,-231.75"/>
<polygon fill="black" stroke="black" points="163.78,-230.32 157.07,-222.11 157.2,-232.71 163.78,-230.32"/>
</g>
<!-- Numeral_numeral_ind&#45;&gt;Basics_Numeral_Dec -->
<g id="edge8" class="edge">
<title>Numeral_numeral_ind&#45;&gt;Basics_Numeral_Dec</title>
<path fill="none" stroke="black" d="M269.58,-516.41C261.16,-454.87 239.46,-296.37 230.72,-232.58"/>
<polygon fill="black" stroke="black" points="234.17,-231.93 229.34,-222.5 227.23,-232.88 234.17,-231.93"/>
</g>
<!-- Numeral_numeral_ind&#45;&gt;Basics_Numeral_numeral -->
<g id="edge9" class="edge">
<title>Numeral_numeral_ind&#45;&gt;Basics_Numeral_numeral</title>
<path fill="none" stroke="black" d="M276.72,-516.41C285.87,-454.87 309.46,-296.37 318.95,-232.58"/>
<polygon fill="black" stroke="black" points="322.44,-232.91 320.45,-222.5 315.52,-231.88 322.44,-232.91"/>
</g>
<!-- Numeral_numeral_rect&#45;&gt;Basics_Numeral_Hex -->
<g id="edge10" class="edge">
<title>Numeral_numeral_rect&#45;&gt;Basics_Numeral_Hex</title>
<path fill="none" stroke="black" d="M783.38,-403.56C632.34,-393.99 280.76,-364.38 189,-292.39 170.31,-277.73 160.62,-252.01 155.72,-232.32"/>
<polygon fill="black" stroke="black" points="159.1,-231.4 153.52,-222.39 152.27,-232.91 159.1,-231.4"/>
</g>
<!-- Numeral_numeral_rect&#45;&gt;Basics_Numeral_Dec -->
<g id="edge11" class="edge">
<title>Numeral_numeral_rect&#45;&gt;Basics_Numeral_Dec</title>
<path fill="none" stroke="black" d="M785.39,-402C648.49,-389.87 344.72,-356.34 265,-292.39 246.58,-277.61 236.88,-252.13 231.9,-232.55"/>
<polygon fill="black" stroke="black" points="235.28,-231.64 229.66,-222.66 228.46,-233.19 235.28,-231.64"/>
</g>
<!-- Numeral_numeral_rect&#45;&gt;Basics_Numeral_numeral -->
<g id="edge12" class="edge">
<title>Numeral_numeral_rect&#45;&gt;Basics_Numeral_numeral</title>
<path fill="none" stroke="black" d="M781.5,-405.6C683.18,-399.89 504.53,-377.51 382,-292.39 360.1,-277.18 343.98,-250.99 334.18,-231.31"/>
<polygon fill="black" stroke="black" points="337.33,-229.78 329.88,-222.25 331,-232.79 337.33,-229.78"/>
</g>
<!-- Numeral_int_sind -->
<g id="node10" class="node">
<title>Numeral_int_sind</title>
<g id="a_node10"><a xlink:href="Numeral.html#int_sind" xlink:title="int_sind">
<ellipse fill="#f070d1" stroke="black" cx="423" cy="-542.39" rx="47.4" ry="18"/>
<ellipse fill="none" stroke="black" cx="423" cy="-542.39" rx="51.4" ry="22"/>
<ellipse fill="none" stroke="black" cx="423" cy="-542.39" rx="55.39" ry="26"/>
<text text-anchor="middle" x="423" y="-538.69" font-family="Times,serif" font-size="14.00">int_sind</text>
</a>
</g>
</g>
<!-- Basics_Numeral_IntHex -->
<g id="node14" class="node">
<title>Basics_Numeral_IntHex</title>
<g id="a_node14"><a xlink:href="Basics.html#Numeral.IntHex" xlink:title="IntHex">
<ellipse fill="#7faaff" stroke="black" cx="433" cy="-204.39" rx="42.49" ry="18"/>
<text text-anchor="middle" x="433" y="-200.69" font-family="Times,serif" font-size="14.00">IntHex</text>
</a>
</g>
</g>
<!-- Numeral_int_sind&#45;&gt;Basics_Numeral_IntHex -->
<g id="edge13" class="edge">
<title>Numeral_int_sind&#45;&gt;Basics_Numeral_IntHex</title>
<path fill="none" stroke="black" d="M423.75,-516.13C425.59,-454.39 430.3,-296.18 432.19,-232.52"/>
<polygon fill="black" stroke="black" points="435.69,-232.56 432.49,-222.46 428.7,-232.35 435.69,-232.56"/>
</g>
<!-- Basics_Numeral_IntDec -->
<g id="node15" class="node">
<title>Basics_Numeral_IntDec</title>
<g id="a_node15"><a xlink:href="Basics.html#Numeral.IntDec" xlink:title="IntDec">
<ellipse fill="#7faaff" stroke="black" cx="535" cy="-204.39" rx="41.69" ry="18"/>
<text text-anchor="middle" x="535" y="-200.69" font-family="Times,serif" font-size="14.00">IntDec</text>
</a>
</g>
</g>
<!-- Numeral_int_sind&#45;&gt;Basics_Numeral_IntDec -->
<g id="edge14" class="edge">
<title>Numeral_int_sind&#45;&gt;Basics_Numeral_IntDec</title>
<path fill="none" stroke="black" d="M431.33,-516.41C451.88,-454.75 504.89,-295.72 526.07,-232.19"/>
<polygon fill="black" stroke="black" points="529.45,-233.09 529.3,-222.5 522.81,-230.88 529.45,-233.09"/>
</g>
<!-- Numeral_int_sind&#45;&gt;Basics_Numeral_int -->
<g id="edge15" class="edge">
<title>Numeral_int_sind&#45;&gt;Basics_Numeral_int</title>
<path fill="none" stroke="black" d="M463.09,-524.28C471.22,-521.29 479.8,-518.48 488,-516.39 635.28,-478.85 1065.85,-540.71 1166,-426.39 1182.01,-408.12 1211.33,-295.74 1149,-178.39 1126.16,-135.39 1077.86,-103.51 1046.19,-86.19"/>
<polygon fill="black" stroke="black" points="1047.81,-83.09 1037.33,-81.49 1044.53,-89.27 1047.81,-83.09"/>
</g>
<!-- Numeral_int_rec -->
<g id="node11" class="node">
<title>Numeral_int_rec</title>
<g id="a_node11"><a xlink:href="Numeral.html#int_rec" xlink:title="int_rec">
<ellipse fill="#f070d1" stroke="black" cx="1106" cy="-542.39" rx="42.45" ry="18"/>
<ellipse fill="none" stroke="black" cx="1106" cy="-542.39" rx="46.47" ry="22"/>
<ellipse fill="none" stroke="black" cx="1106" cy="-542.39" rx="50.49" ry="26"/>
<text text-anchor="middle" x="1106" y="-538.69" font-family="Times,serif" font-size="14.00">int_rec</text>
</a>
</g>
</g>
<!-- Numeral_int_rect -->
<g id="node13" class="node">
<title>Numeral_int_rect</title>
<g id="a_node13"><a xlink:href="Numeral.html#int_rect" xlink:title="int_rect">
<ellipse fill="#f070d1" stroke="black" cx="989" cy="-408.39" rx="46.29" ry="18"/>
<text text-anchor="middle" x="989" y="-404.69" font-family="Times,serif" font-size="14.00">int_rect</text>
</a>
</g>
</g>
<!-- Numeral_int_rec&#45;&gt;Numeral_int_rect -->
<g id="edge16" class="edge">
<title>Numeral_int_rec&#45;&gt;Numeral_int_rect</title>
<path fill="none" stroke="black" d="M1085.62,-518.4C1064.56,-494.64 1031.83,-457.71 1010.4,-433.54"/>
<polygon fill="black" stroke="black" points="1012.86,-431.03 1003.6,-425.86 1007.62,-435.67 1012.86,-431.03"/>
</g>
<!-- Numeral_int_ind -->
<g id="node12" class="node">
<title>Numeral_int_ind</title>
<g id="a_node12"><a xlink:href="Numeral.html#int_ind" xlink:title="int_ind">
<ellipse fill="#7fffd4" stroke="black" cx="547" cy="-542.39" rx="42.45" ry="18"/>
<ellipse fill="none" stroke="black" cx="547" cy="-542.39" rx="46.47" ry="22"/>
<ellipse fill="none" stroke="black" cx="547" cy="-542.39" rx="50.49" ry="26"/>
<text text-anchor="middle" x="547" y="-538.69" font-family="Times,serif" font-size="14.00">int_ind</text>
</a>
</g>
</g>
<!-- Numeral_int_ind&#45;&gt;Basics_Numeral_IntHex -->
<g id="edge17" class="edge">
<title>Numeral_int_ind&#45;&gt;Basics_Numeral_IntHex</title>
<path fill="none" stroke="black" d="M538.62,-516.68C517.77,-455.24 463.71,-295.91 442.11,-232.25"/>
<polygon fill="black" stroke="black" points="445.35,-230.88 438.82,-222.54 438.72,-233.13 445.35,-230.88"/>
</g>
<!-- Numeral_int_ind&#45;&gt;Basics_Numeral_IntDec -->
<g id="edge18" class="edge">
<title>Numeral_int_ind&#45;&gt;Basics_Numeral_IntDec</title>
<path fill="none" stroke="black" d="M546.1,-516.13C543.89,-454.39 538.24,-296.18 535.97,-232.52"/>
<polygon fill="black" stroke="black" points="539.46,-232.33 535.61,-222.46 532.47,-232.58 539.46,-232.33"/>
</g>
<!-- Numeral_int_ind&#45;&gt;Basics_Numeral_int -->
<g id="edge19" class="edge">
<title>Numeral_int_ind&#45;&gt;Basics_Numeral_int</title>
<path fill="none" stroke="black" d="M583.63,-524.47C591.23,-521.43 599.28,-518.55 607,-516.39 735.15,-480.53 1112.27,-527.3 1199,-426.39 1270.84,-342.8 1253.85,-273.99 1199,-178.39 1190.38,-163.36 1095.37,-112.52 1045.77,-86.7"/>
<polygon fill="black" stroke="black" points="1047.27,-83.54 1036.78,-82.04 1044.04,-89.75 1047.27,-83.54"/>
</g>
<!-- Numeral_int_rect&#45;&gt;Basics_Numeral_IntHex -->
<g id="edge20" class="edge">
<title>Numeral_int_rect&#45;&gt;Basics_Numeral_IntHex</title>
<path fill="none" stroke="black" d="M962.07,-393.66C953.29,-389.59 943.38,-385.41 934,-382.39 739.89,-319.78 650.12,-410.73 484,-292.39 463.26,-277.61 449.63,-251.55 441.72,-231.79"/>
<polygon fill="black" stroke="black" points="444.98,-230.53 438.19,-222.4 438.43,-232.99 444.98,-230.53"/>
</g>
<!-- Numeral_int_rect&#45;&gt;Basics_Numeral_IntDec -->
<g id="edge21" class="edge">
<title>Numeral_int_rect&#45;&gt;Basics_Numeral_IntDec</title>
<path fill="none" stroke="black" d="M961.69,-393.84C952.97,-389.83 943.2,-385.64 934,-382.39 783.38,-329.13 713.48,-388.67 586,-292.39 565.89,-277.2 552.28,-251.6 544.21,-232.08"/>
<polygon fill="black" stroke="black" points="547.37,-230.57 540.49,-222.52 540.85,-233.11 547.37,-230.57"/>
</g>
<!-- Numeral_int_rect&#45;&gt;Basics_Numeral_int -->
<g id="edge22" class="edge">
<title>Numeral_int_rect&#45;&gt;Basics_Numeral_int</title>
<path fill="none" stroke="black" d="M1016.96,-393.96C1050.52,-376.08 1105.13,-340.99 1128,-292.39 1149.57,-246.54 1147.92,-224.97 1128,-178.39 1111.09,-138.85 1071.6,-106.95 1044.34,-88.58"/>
<polygon fill="black" stroke="black" points="1045.9,-85.42 1035.61,-82.88 1042.07,-91.28 1045.9,-85.42"/>
</g>
<!-- Numeral_uint_sind -->
<g id="node17" class="node">
<title>Numeral_uint_sind</title>
<g id="a_node17"><a xlink:href="Numeral.html#uint_sind" xlink:title="uint_sind">
<ellipse fill="#f070d1" stroke="black" cx="677" cy="-542.39" rx="53.12" ry="18"/>
<ellipse fill="none" stroke="black" cx="677" cy="-542.39" rx="57.1" ry="22"/>
<ellipse fill="none" stroke="black" cx="677" cy="-542.39" rx="61.09" ry="26"/>
<text text-anchor="middle" x="677" y="-538.69" font-family="Times,serif" font-size="14.00">uint_sind</text>
</a>
</g>
</g>
<!-- Basics_Numeral_UIntHex -->
<g id="node21" class="node">
<title>Basics_Numeral_UIntHex</title>
<g id="a_node21"><a xlink:href="Basics.html#Numeral.UIntHex" xlink:title="UIntHex">
<ellipse fill="#7faaff" stroke="black" cx="645" cy="-204.39" rx="50.09" ry="18"/>
<text text-anchor="middle" x="645" y="-200.69" font-family="Times,serif" font-size="14.00">UIntHex</text>
</a>
</g>
</g>
<!-- Numeral_uint_sind&#45;&gt;Basics_Numeral_UIntHex -->
<g id="edge23" class="edge">
<title>Numeral_uint_sind&#45;&gt;Basics_Numeral_UIntHex</title>
<path fill="none" stroke="black" d="M673.65,-516.29C670.62,-493.02 666.15,-457.4 663,-426.39 655.93,-356.78 649.83,-274.61 646.88,-232.81"/>
<polygon fill="black" stroke="black" points="650.36,-232.33 646.17,-222.6 643.37,-232.82 650.36,-232.33"/>
</g>
<!-- Basics_Numeral_UIntDec -->
<g id="node22" class="node">
<title>Basics_Numeral_UIntDec</title>
<g id="a_node22"><a xlink:href="Basics.html#Numeral.UIntDec" xlink:title="UIntDec">
<ellipse fill="#7faaff" stroke="black" cx="762" cy="-204.39" rx="49.29" ry="18"/>
<text text-anchor="middle" x="762" y="-200.69" font-family="Times,serif" font-size="14.00">UIntDec</text>
</a>
</g>
</g>
<!-- Numeral_uint_sind&#45;&gt;Basics_Numeral_UIntDec -->
<g id="edge24" class="edge">
<title>Numeral_uint_sind&#45;&gt;Basics_Numeral_UIntDec</title>
<path fill="none" stroke="black" d="M683.32,-516.41C698.89,-454.87 738.98,-296.37 755.12,-232.58"/>
<polygon fill="black" stroke="black" points="758.61,-233.05 757.67,-222.5 751.83,-231.34 758.61,-233.05"/>
</g>
<!-- Numeral_uint_sind&#45;&gt;Basics_Numeral_uint -->
<g id="edge25" class="edge">
<title>Numeral_uint_sind&#45;&gt;Basics_Numeral_uint</title>
<path fill="none" stroke="black" d="M721.45,-524.21C729.85,-521.33 738.64,-518.58 747,-516.39 862.15,-486.26 1198.23,-517.35 1275,-426.39 1310.54,-384.27 1302.54,-226.13 1275,-178.39 1243.18,-123.23 1170.87,-93.94 1126.67,-80.62"/>
<polygon fill="black" stroke="black" points="1127.46,-77.21 1116.88,-77.79 1125.52,-83.93 1127.46,-77.21"/>
</g>
<!-- Numeral_uint_rec -->
<g id="node18" class="node">
<title>Numeral_uint_rec</title>
<g id="a_node18"><a xlink:href="Numeral.html#uint_rec" xlink:title="uint_rec">
<ellipse fill="#f070d1" stroke="black" cx="1230" cy="-542.39" rx="48.18" ry="18"/>
<ellipse fill="none" stroke="black" cx="1230" cy="-542.39" rx="52.18" ry="22"/>
<ellipse fill="none" stroke="black" cx="1230" cy="-542.39" rx="56.19" ry="26"/>
<text text-anchor="middle" x="1230" y="-538.69" font-family="Times,serif" font-size="14.00">uint_rec</text>
</a>
</g>
</g>
<!-- Numeral_uint_rect -->
<g id="node20" class="node">
<title>Numeral_uint_rect</title>
<g id="a_node20"><a xlink:href="Numeral.html#uint_rect" xlink:title="uint_rect">
<ellipse fill="#f070d1" stroke="black" cx="1105" cy="-408.39" rx="51.99" ry="18"/>
<text text-anchor="middle" x="1105" y="-404.69" font-family="Times,serif" font-size="14.00">uint_rect</text>
</a>
</g>
</g>
<!-- Numeral_uint_rec&#45;&gt;Numeral_uint_rect -->
<g id="edge26" class="edge">
<title>Numeral_uint_rec&#45;&gt;Numeral_uint_rect</title>
<path fill="none" stroke="black" d="M1208.23,-518.4C1185.63,-494.53 1150.46,-457.39 1127.57,-433.22"/>
<polygon fill="black" stroke="black" points="1130.02,-430.72 1120.6,-425.86 1124.94,-435.53 1130.02,-430.72"/>
</g>
<!-- Numeral_uint_ind -->
<g id="node19" class="node">
<title>Numeral_uint_ind</title>
<g id="a_node19"><a xlink:href="Numeral.html#uint_ind" xlink:title="uint_ind">
<ellipse fill="#7fffd4" stroke="black" cx="812" cy="-542.39" rx="48.18" ry="18"/>
<ellipse fill="none" stroke="black" cx="812" cy="-542.39" rx="52.18" ry="22"/>
<ellipse fill="none" stroke="black" cx="812" cy="-542.39" rx="56.19" ry="26"/>
<text text-anchor="middle" x="812" y="-538.69" font-family="Times,serif" font-size="14.00">uint_ind</text>
</a>
</g>
</g>
<!-- Numeral_uint_ind&#45;&gt;Basics_Numeral_UIntHex -->
<g id="edge27" class="edge">
<title>Numeral_uint_ind&#45;&gt;Basics_Numeral_UIntHex</title>
<path fill="none" stroke="black" d="M799.86,-516.95C769.29,-455.46 689.39,-294.7 657.96,-231.47"/>
<polygon fill="black" stroke="black" points="660.94,-229.59 653.35,-222.19 654.67,-232.7 660.94,-229.59"/>
</g>
<!-- Numeral_uint_ind&#45;&gt;Basics_Numeral_UIntDec -->
<g id="edge28" class="edge">
<title>Numeral_uint_ind&#45;&gt;Basics_Numeral_UIntDec</title>
<path fill="none" stroke="black" d="M801.12,-516.84C791.55,-493.93 778.19,-458.56 772,-426.39 758.78,-357.66 759.32,-274.81 760.72,-232.75"/>
<polygon fill="black" stroke="black" points="764.23,-232.62 761.11,-222.5 757.23,-232.36 764.23,-232.62"/>
</g>
<!-- Numeral_uint_ind&#45;&gt;Basics_Numeral_uint -->
<g id="edge29" class="edge">
<title>Numeral_uint_ind&#45;&gt;Basics_Numeral_uint</title>
<path fill="none" stroke="black" d="M852.91,-524.49C860.83,-521.55 869.11,-518.7 877,-516.39 1066.86,-460.69 1188.03,-579.79 1313,-426.39 1382.62,-340.93 1371.71,-271.67 1313,-178.39 1272.26,-113.65 1180.25,-87.2 1128.04,-77.1"/>
<polygon fill="black" stroke="black" points="1128.63,-73.65 1118.16,-75.29 1127.36,-80.53 1128.63,-73.65"/>
</g>
<!-- Numeral_uint_rect&#45;&gt;Basics_Numeral_UIntHex -->
<g id="edge30" class="edge">
<title>Numeral_uint_rect&#45;&gt;Basics_Numeral_UIntHex</title>
<path fill="none" stroke="black" d="M1073.95,-393.75C1064.44,-389.82 1053.87,-385.7 1044,-382.39 895.81,-332.64 831.51,-382.81 704,-292.39 682.38,-277.06 666.3,-251.12 656.44,-231.54"/>
<polygon fill="black" stroke="black" points="659.58,-230.02 652.09,-222.52 653.28,-233.05 659.58,-230.02"/>
</g>
<!-- Numeral_uint_rect&#45;&gt;Basics_Numeral_UIntDec -->
<g id="edge31" class="edge">
<title>Numeral_uint_rect&#45;&gt;Basics_Numeral_UIntDec</title>
<path fill="none" stroke="black" d="M1072.73,-394.11C1063.46,-390.31 1053.33,-386.18 1044,-382.39 944.58,-342.04 903.26,-360.05 820,-292.39 799.75,-275.93 783.96,-250.54 774,-231.42"/>
<polygon fill="black" stroke="black" points="777.06,-229.72 769.46,-222.34 770.8,-232.85 777.06,-229.72"/>
</g>
<!-- Numeral_uint_rect&#45;&gt;Basics_Numeral_uint -->
<g id="edge32" class="edge">
<title>Numeral_uint_rect&#45;&gt;Basics_Numeral_uint</title>
<path fill="none" stroke="black" d="M1116.12,-390.77C1129.83,-369.18 1152.37,-329.82 1161,-292.39 1172.38,-243.02 1175.63,-226.9 1161,-178.39 1151.21,-145.93 1128,-114.29 1110.77,-93.93"/>
<polygon fill="black" stroke="black" points="1113.24,-91.44 1104.04,-86.19 1107.96,-96.04 1113.24,-91.44"/>
</g>
</g>
</svg>
