<?xml version="1.0" encoding="UTF-8" standalone="no"?>
<!DOCTYPE svg PUBLIC "-//W3C//DTD SVG 1.1//EN"
 "http://www.w3.org/Graphics/SVG/1.1/DTD/svg11.dtd">
<!-- Generated by graphviz version 2.43.0 (0)
 -->
<!-- Title: HoTT_WildCat_Yoneda Pages: 1 -->
<svg width="1552pt" height="780pt"
 viewBox="0.00 0.00 1552.00 780.00" xmlns="http://www.w3.org/2000/svg" xmlns:xlink="http://www.w3.org/1999/xlink">
<g id="graph0" class="graph" transform="scale(1 1) rotate(0) translate(4 776)">
<title>HoTT_WildCat_Yoneda</title>
<polygon fill="white" stroke="transparent" points="-4,4 -4,-776 1548,-776 1548,4 -4,4"/>
<g id="clust1" class="cluster">
<title>cluster_Yoneda</title>
<polygon fill="#ffffc3" stroke="black" points="8,-14.46 8,-757.54 1536,-757.54 1536,-14.46 8,-14.46"/>
<text text-anchor="middle" x="42" y="-742.34" font-family="Times,serif" font-size="14.00">Yoneda</text>
</g>
<!-- Yoneda_yon_equiv -->
<g id="node1" class="node">
<title>Yoneda_yon_equiv</title>
<g id="a_node1"><a xlink:href="Yoneda.html#yon_equiv" xlink:title="yon_equiv">
<ellipse fill="#f070d1" stroke="black" cx="316" cy="-654.46" rx="57.37" ry="18"/>
<ellipse fill="none" stroke="black" cx="316" cy="-654.46" rx="61.38" ry="22"/>
<ellipse fill="none" stroke="black" cx="316" cy="-654.46" rx="65.39" ry="26"/>
<text text-anchor="middle" x="316" y="-650.76" font-family="Times,serif" font-size="14.00">yon_equiv</text>
</a>
</g>
</g>
<!-- Yoneda_yon1 -->
<g id="node2" class="node">
<title>Yoneda_yon1</title>
<g id="a_node2"><a xlink:href="Yoneda.html#yon1" xlink:title="yon1">
<ellipse fill="#f070d1" stroke="black" cx="233" cy="-495.46" rx="33.29" ry="18"/>
<text text-anchor="middle" x="233" y="-491.76" font-family="Times,serif" font-size="14.00">yon1</text>
</a>
</g>
</g>
<!-- Yoneda_yon_equiv&#45;&gt;Yoneda_yon1 -->
<g id="edge1" class="edge">
<title>Yoneda_yon_equiv&#45;&gt;Yoneda_yon1</title>
<path fill="none" stroke="black" d="M303.03,-628.93C287.64,-599.83 262.12,-551.54 246.5,-522"/>
<polygon fill="black" stroke="black" points="249.57,-520.32 241.8,-513.12 243.38,-523.59 249.57,-520.32"/>
</g>
<!-- Yoneda_opyon_equiv -->
<g id="node11" class="node">
<title>Yoneda_opyon_equiv</title>
<g id="a_node11"><a xlink:href="Yoneda.html#opyon_equiv" xlink:title="opyon_equiv">
<ellipse fill="#f070d1" stroke="black" cx="352" cy="-495.46" rx="68.49" ry="18"/>
<text text-anchor="middle" x="352" y="-491.76" font-family="Times,serif" font-size="14.00">opyon_equiv</text>
</a>
</g>
</g>
<!-- Yoneda_yon_equiv&#45;&gt;Yoneda_opyon_equiv -->
<g id="edge2" class="edge">
<title>Yoneda_yon_equiv&#45;&gt;Yoneda_opyon_equiv</title>
<path fill="none" stroke="black" d="M321.78,-628.24C328.33,-599.68 338.97,-553.29 345.72,-523.86"/>
<polygon fill="black" stroke="black" points="349.19,-524.38 348.01,-513.85 342.37,-522.81 349.19,-524.38"/>
</g>
<!-- Yoneda_opyon1 -->
<g id="node12" class="node">
<title>Yoneda_opyon1</title>
<g id="a_node12"><a xlink:href="Yoneda.html#opyon1" xlink:title="opyon1">
<ellipse fill="#f070d1" stroke="black" cx="60" cy="-336.46" rx="44.39" ry="18"/>
<text text-anchor="middle" x="60" y="-332.76" font-family="Times,serif" font-size="14.00">opyon1</text>
</a>
</g>
</g>
<!-- Yoneda_yon1&#45;&gt;Yoneda_opyon1 -->
<g id="edge3" class="edge">
<title>Yoneda_yon1&#45;&gt;Yoneda_opyon1</title>
<path fill="none" stroke="black" d="M216.72,-479.69C186.38,-452.16 121,-392.82 85.02,-360.17"/>
<polygon fill="black" stroke="black" points="87.14,-357.37 77.38,-353.24 82.44,-362.55 87.14,-357.37"/>
</g>
<!-- Yoneda_yon_cancel -->
<g id="node3" class="node">
<title>Yoneda_yon_cancel</title>
<g id="a_node3"><a xlink:href="Yoneda.html#yon_cancel" xlink:title="yon_cancel">
<ellipse fill="#f070d1" stroke="black" cx="1229" cy="-495.46" rx="61.18" ry="18"/>
<ellipse fill="none" stroke="black" cx="1229" cy="-495.46" rx="65.18" ry="22"/>
<ellipse fill="none" stroke="black" cx="1229" cy="-495.46" rx="69.19" ry="26"/>
<text text-anchor="middle" x="1229" y="-491.76" font-family="Times,serif" font-size="14.00">yon_cancel</text>
</a>
</g>
</g>
<!-- Yoneda_un_yoneda -->
<g id="node7" class="node">
<title>Yoneda_un_yoneda</title>
<g id="a_node7"><a xlink:href="Yoneda.html#un_yoneda" xlink:title="un_yoneda">
<ellipse fill="#f070d1" stroke="black" cx="1468" cy="-336.46" rx="59.59" ry="18"/>
<text text-anchor="middle" x="1468" y="-332.76" font-family="Times,serif" font-size="14.00">un_yoneda</text>
</a>
</g>
</g>
<!-- Yoneda_yon_cancel&#45;&gt;Yoneda_un_yoneda -->
<g id="edge4" class="edge">
<title>Yoneda_yon_cancel&#45;&gt;Yoneda_un_yoneda</title>
<path fill="none" stroke="black" d="M1262.23,-472.63C1308.05,-442.54 1390.08,-388.65 1435.5,-358.81"/>
<polygon fill="black" stroke="black" points="1437.64,-361.59 1444.08,-353.18 1433.8,-355.74 1437.64,-361.59"/>
</g>
<!-- Yoneda_is0functor_yon -->
<g id="node9" class="node">
<title>Yoneda_is0functor_yon</title>
<g id="a_node9"><a xlink:href="Yoneda.html#is0functor_yon" xlink:title="is0functor_yon">
<ellipse fill="#f070d1" stroke="black" cx="1014" cy="-336.46" rx="79.09" ry="18"/>
<text text-anchor="middle" x="1014" y="-332.76" font-family="Times,serif" font-size="14.00">is0functor_yon</text>
</a>
</g>
</g>
<!-- Yoneda_yon_cancel&#45;&gt;Yoneda_is0functor_yon -->
<g id="edge5" class="edge">
<title>Yoneda_yon_cancel&#45;&gt;Yoneda_is0functor_yon</title>
<path fill="none" stroke="black" d="M1198.2,-471.97C1157.33,-442.13 1085.6,-389.75 1044.76,-359.93"/>
<polygon fill="black" stroke="black" points="1046.67,-356.99 1036.53,-353.92 1042.55,-362.64 1046.67,-356.99"/>
</g>
<!-- Yoneda_yoneda_isretr -->
<g id="node4" class="node">
<title>Yoneda_yoneda_isretr</title>
<g id="a_node4"><a xlink:href="Yoneda.html#yoneda_isretr" xlink:title="yoneda_isretr">
<ellipse fill="#f070d1" stroke="black" cx="1060" cy="-495.46" rx="74.18" ry="18"/>
<ellipse fill="none" stroke="black" cx="1060" cy="-495.46" rx="78.18" ry="22"/>
<ellipse fill="none" stroke="black" cx="1060" cy="-495.46" rx="82.19" ry="26"/>
<text text-anchor="middle" x="1060" y="-491.76" font-family="Times,serif" font-size="14.00">yoneda_isretr</text>
</a>
</g>
</g>
<!-- Yoneda_yoneda_isretr&#45;&gt;Yoneda_un_yoneda -->
<g id="edge6" class="edge">
<title>Yoneda_yoneda_isretr&#45;&gt;Yoneda_un_yoneda</title>
<path fill="none" stroke="black" d="M1110.85,-474.9C1191.36,-443.92 1346.86,-384.08 1423.33,-354.65"/>
<polygon fill="black" stroke="black" points="1424.62,-357.91 1432.69,-351.05 1422.1,-351.37 1424.62,-357.91"/>
</g>
<!-- Yoneda_yoneda -->
<g id="node8" class="node">
<title>Yoneda_yoneda</title>
<g id="a_node8"><a xlink:href="Yoneda.html#yoneda" xlink:title="yoneda">
<ellipse fill="#f070d1" stroke="black" cx="1155" cy="-336.46" rx="44.39" ry="18"/>
<text text-anchor="middle" x="1155" y="-332.76" font-family="Times,serif" font-size="14.00">yoneda</text>
</a>
</g>
</g>
<!-- Yoneda_yoneda_isretr&#45;&gt;Yoneda_yoneda -->
<g id="edge7" class="edge">
<title>Yoneda_yoneda_isretr&#45;&gt;Yoneda_yoneda</title>
<path fill="none" stroke="black" d="M1075.05,-469.59C1092.71,-440.41 1121.82,-392.29 1139.62,-362.88"/>
<polygon fill="black" stroke="black" points="1142.79,-364.4 1144.97,-354.04 1136.8,-360.78 1142.79,-364.4"/>
</g>
<!-- Yoneda_yoneda_isretr&#45;&gt;Yoneda_is0functor_yon -->
<g id="edge8" class="edge">
<title>Yoneda_yoneda_isretr&#45;&gt;Yoneda_is0functor_yon</title>
<path fill="none" stroke="black" d="M1052.61,-469.24C1044.2,-440.55 1030.53,-393.89 1021.91,-364.47"/>
<polygon fill="black" stroke="black" points="1025.26,-363.46 1019.09,-354.85 1018.55,-365.43 1025.26,-363.46"/>
</g>
<!-- Yoneda_opyoneda_isretr -->
<g id="node14" class="node">
<title>Yoneda_opyoneda_isretr</title>
<g id="a_node14"><a xlink:href="Yoneda.html#opyoneda_isretr" xlink:title="opyoneda_isretr">
<ellipse fill="#f070d1" stroke="black" cx="654" cy="-336.46" rx="85.29" ry="18"/>
<text text-anchor="middle" x="654" y="-332.76" font-family="Times,serif" font-size="14.00">opyoneda_isretr</text>
</a>
</g>
</g>
<!-- Yoneda_yoneda_isretr&#45;&gt;Yoneda_opyoneda_isretr -->
<g id="edge9" class="edge">
<title>Yoneda_yoneda_isretr&#45;&gt;Yoneda_opyoneda_isretr</title>
<path fill="none" stroke="black" d="M1009.4,-474.9C930.71,-444.47 780.04,-386.2 702.59,-356.25"/>
<polygon fill="black" stroke="black" points="703.66,-352.91 693.07,-352.57 701.13,-359.44 703.66,-352.91"/>
</g>
<!-- Yoneda_yoneda_issect -->
<g id="node5" class="node">
<title>Yoneda_yoneda_issect</title>
<g id="a_node5"><a xlink:href="Yoneda.html#yoneda_issect" xlink:title="yoneda_issect">
<ellipse fill="#f070d1" stroke="black" cx="1399" cy="-495.46" rx="75.3" ry="18"/>
<ellipse fill="none" stroke="black" cx="1399" cy="-495.46" rx="79.29" ry="22"/>
<ellipse fill="none" stroke="black" cx="1399" cy="-495.46" rx="83.29" ry="26"/>
<text text-anchor="middle" x="1399" y="-491.76" font-family="Times,serif" font-size="14.00">yoneda_issect</text>
</a>
</g>
</g>
<!-- Yoneda_yoneda_issect&#45;&gt;Yoneda_un_yoneda -->
<g id="edge10" class="edge">
<title>Yoneda_yoneda_issect&#45;&gt;Yoneda_un_yoneda</title>
<path fill="none" stroke="black" d="M1409.93,-469.59C1422.63,-440.69 1443.5,-393.22 1456.45,-363.74"/>
<polygon fill="black" stroke="black" points="1459.7,-365.05 1460.52,-354.48 1453.29,-362.23 1459.7,-365.05"/>
</g>
<!-- Yoneda_yoneda_issect&#45;&gt;Yoneda_yoneda -->
<g id="edge11" class="edge">
<title>Yoneda_yoneda_issect&#45;&gt;Yoneda_yoneda</title>
<path fill="none" stroke="black" d="M1363.78,-471.8C1316.15,-441.15 1231.92,-386.95 1186.36,-357.64"/>
<polygon fill="black" stroke="black" points="1188.09,-354.59 1177.79,-352.13 1184.3,-360.48 1188.09,-354.59"/>
</g>
<!-- Yoneda_opyoneda_issect -->
<g id="node15" class="node">
<title>Yoneda_opyoneda_issect</title>
<g id="a_node15"><a xlink:href="Yoneda.html#opyoneda_issect" xlink:title="opyoneda_issect">
<ellipse fill="#f070d1" stroke="black" cx="1304" cy="-336.46" rx="86.38" ry="18"/>
<text text-anchor="middle" x="1304" y="-332.76" font-family="Times,serif" font-size="14.00">opyoneda_issect</text>
</a>
</g>
</g>
<!-- Yoneda_yoneda_issect&#45;&gt;Yoneda_opyoneda_issect -->
<g id="edge12" class="edge">
<title>Yoneda_yoneda_issect&#45;&gt;Yoneda_opyoneda_issect</title>
<path fill="none" stroke="black" d="M1383.95,-469.59C1366.38,-440.56 1337.49,-392.81 1319.67,-363.35"/>
<polygon fill="black" stroke="black" points="1322.47,-361.23 1314.3,-354.48 1316.48,-364.85 1322.47,-361.23"/>
</g>
<!-- Yoneda_is1natural_yoneda -->
<g id="node6" class="node">
<title>Yoneda_is1natural_yoneda</title>
<g id="a_node6"><a xlink:href="Yoneda.html#is1natural_yoneda" xlink:title="is1natural_yoneda">
<ellipse fill="#f070d1" stroke="black" cx="856" cy="-495.46" rx="95.58" ry="18"/>
<ellipse fill="none" stroke="black" cx="856" cy="-495.46" rx="99.58" ry="22"/>
<ellipse fill="none" stroke="black" cx="856" cy="-495.46" rx="103.58" ry="26"/>
<text text-anchor="middle" x="856" y="-491.76" font-family="Times,serif" font-size="14.00">is1natural_yoneda</text>
</a>
</g>
</g>
<!-- Yoneda_is1natural_yoneda&#45;&gt;Yoneda_yoneda -->
<g id="edge13" class="edge">
<title>Yoneda_is1natural_yoneda&#45;&gt;Yoneda_yoneda</title>
<path fill="none" stroke="black" d="M899.16,-471.8C958.78,-440.5 1065.19,-384.62 1120.09,-355.79"/>
<polygon fill="black" stroke="black" points="1121.86,-358.82 1129.09,-351.07 1118.61,-352.62 1121.86,-358.82"/>
</g>
<!-- Yoneda_is1natural_yoneda&#45;&gt;Yoneda_is0functor_yon -->
<g id="edge14" class="edge">
<title>Yoneda_is1natural_yoneda&#45;&gt;Yoneda_is0functor_yon</title>
<path fill="none" stroke="black" d="M880.69,-469.93C910.48,-440.32 960.26,-390.86 989.83,-361.48"/>
<polygon fill="black" stroke="black" points="992.61,-363.65 997.24,-354.12 987.68,-358.68 992.61,-363.65"/>
</g>
<!-- Yoneda_is1natural_opyoneda -->
<g id="node16" class="node">
<title>Yoneda_is1natural_opyoneda</title>
<g id="a_node16"><a xlink:href="Yoneda.html#is1natural_opyoneda" xlink:title="is1natural_opyoneda">
<ellipse fill="#f070d1" stroke="black" cx="444" cy="-336.46" rx="106.68" ry="18"/>
<text text-anchor="middle" x="444" y="-332.76" font-family="Times,serif" font-size="14.00">is1natural_opyoneda</text>
</a>
</g>
</g>
<!-- Yoneda_is1natural_yoneda&#45;&gt;Yoneda_is1natural_opyoneda -->
<g id="edge15" class="edge">
<title>Yoneda_is1natural_yoneda&#45;&gt;Yoneda_is1natural_opyoneda</title>
<path fill="none" stroke="black" d="M800.86,-473.45C720.54,-442.84 572.47,-386.42 494.72,-356.79"/>
<polygon fill="black" stroke="black" points="495.73,-353.43 485.14,-353.14 493.23,-359.97 495.73,-353.43"/>
</g>
<!-- Yoneda_yon -->
<g id="node10" class="node">
<title>Yoneda_yon</title>
<g id="a_node10"><a xlink:href="Yoneda.html#yon" xlink:title="yon">
<ellipse fill="#f070d1" stroke="black" cx="1136" cy="-191.46" rx="27.1" ry="18"/>
<text text-anchor="middle" x="1136" y="-187.76" font-family="Times,serif" font-size="14.00">yon</text>
</a>
</g>
</g>
<!-- Yoneda_un_yoneda&#45;&gt;Yoneda_yon -->
<g id="edge16" class="edge">
<title>Yoneda_un_yoneda&#45;&gt;Yoneda_yon</title>
<path fill="none" stroke="black" d="M1435.26,-321.36C1371.44,-293.87 1231.13,-233.44 1167.95,-206.22"/>
<polygon fill="black" stroke="black" points="1169.06,-202.89 1158.49,-202.15 1166.29,-209.32 1169.06,-202.89"/>
</g>
<!-- Yoneda_un_opyoneda -->
<g id="node17" class="node">
<title>Yoneda_un_opyoneda</title>
<g id="a_node17"><a xlink:href="Yoneda.html#un_opyoneda" xlink:title="un_opyoneda">
<ellipse fill="#f070d1" stroke="black" cx="1000" cy="-191.46" rx="71.49" ry="18"/>
<text text-anchor="middle" x="1000" y="-187.76" font-family="Times,serif" font-size="14.00">un_opyoneda</text>
</a>
</g>
</g>
<!-- Yoneda_un_yoneda&#45;&gt;Yoneda_un_opyoneda -->
<g id="edge17" class="edge">
<title>Yoneda_un_yoneda&#45;&gt;Yoneda_un_opyoneda</title>
<path fill="none" stroke="black" d="M1431.97,-321.95C1421.39,-318.11 1409.77,-314 1399,-310.46 1277.83,-270.63 1133.99,-229.61 1056.4,-207.99"/>
<polygon fill="black" stroke="black" points="1056.93,-204.5 1046.36,-205.2 1055.05,-211.25 1056.93,-204.5"/>
</g>
<!-- Yoneda_yoneda&#45;&gt;Yoneda_yon -->
<g id="edge18" class="edge">
<title>Yoneda_yoneda&#45;&gt;Yoneda_yon</title>
<path fill="none" stroke="black" d="M1152.71,-318.21C1149.47,-293.84 1143.52,-249.07 1139.67,-220.05"/>
<polygon fill="black" stroke="black" points="1143.09,-219.23 1138.3,-209.77 1136.15,-220.15 1143.09,-219.23"/>
</g>
<!-- Yoneda_opyoneda -->
<g id="node18" class="node">
<title>Yoneda_opyoneda</title>
<g id="a_node18"><a xlink:href="Yoneda.html#opyoneda" xlink:title="opyoneda">
<ellipse fill="#f070d1" stroke="black" cx="855" cy="-191.46" rx="55.49" ry="18"/>
<text text-anchor="middle" x="855" y="-187.76" font-family="Times,serif" font-size="14.00">opyoneda</text>
</a>
</g>
</g>
<!-- Yoneda_yoneda&#45;&gt;Yoneda_opyoneda -->
<g id="edge19" class="edge">
<title>Yoneda_yoneda&#45;&gt;Yoneda_opyoneda</title>
<path fill="none" stroke="black" d="M1127.31,-322.27C1073.75,-296.74 955.81,-240.52 894.21,-211.15"/>
<polygon fill="black" stroke="black" points="895.36,-207.82 884.83,-206.68 892.35,-214.14 895.36,-207.82"/>
</g>
<!-- Yoneda_is0functor_yon&#45;&gt;Yoneda_yon -->
<g id="edge20" class="edge">
<title>Yoneda_is0functor_yon&#45;&gt;Yoneda_yon</title>
<path fill="none" stroke="black" d="M1028.47,-318.5C1050.3,-292.91 1091.71,-244.38 1116.28,-215.58"/>
<polygon fill="black" stroke="black" points="1119.2,-217.55 1123.03,-207.67 1113.87,-213.01 1119.2,-217.55"/>
</g>
<!-- Yoneda_is0functor_opyon -->
<g id="node20" class="node">
<title>Yoneda_is0functor_opyon</title>
<g id="a_node20"><a xlink:href="Yoneda.html#is0functor_opyon" xlink:title="is0functor_opyon">
<ellipse fill="#f070d1" stroke="black" cx="654" cy="-191.46" rx="90.18" ry="18"/>
<text text-anchor="middle" x="654" y="-187.76" font-family="Times,serif" font-size="14.00">is0functor_opyon</text>
</a>
</g>
</g>
<!-- Yoneda_is0functor_yon&#45;&gt;Yoneda_is0functor_opyon -->
<g id="edge21" class="edge">
<title>Yoneda_is0functor_yon&#45;&gt;Yoneda_is0functor_opyon</title>
<path fill="none" stroke="black" d="M976.49,-320.56C910.65,-294.41 774.42,-240.3 701.88,-211.48"/>
<polygon fill="black" stroke="black" points="703.09,-208.2 692.51,-207.76 700.51,-214.7 703.09,-208.2"/>
</g>
<!-- Yoneda_opyon -->
<g id="node21" class="node">
<title>Yoneda_opyon</title>
<g id="a_node21"><a xlink:href="Yoneda.html#opyon" xlink:title="opyon">
<ellipse fill="#f070d1" stroke="black" cx="927" cy="-61.46" rx="38.19" ry="18"/>
<text text-anchor="middle" x="927" y="-57.76" font-family="Times,serif" font-size="14.00">opyon</text>
</a>
</g>
</g>
<!-- Yoneda_yon&#45;&gt;Yoneda_opyon -->
<g id="edge22" class="edge">
<title>Yoneda_yon&#45;&gt;Yoneda_opyon</title>
<path fill="none" stroke="black" d="M1116.71,-178.65C1080.48,-156.46 1001.98,-108.38 958.16,-81.55"/>
<polygon fill="black" stroke="black" points="959.72,-78.4 949.37,-76.16 956.07,-84.37 959.72,-78.4"/>
</g>
<!-- Yoneda_opyon_equiv&#45;&gt;Yoneda_opyon1 -->
<g id="edge23" class="edge">
<title>Yoneda_opyon_equiv&#45;&gt;Yoneda_opyon1</title>
<path fill="none" stroke="black" d="M323.2,-478.98C269.12,-449.9 152.58,-387.24 94.45,-355.98"/>
<polygon fill="black" stroke="black" points="96.1,-352.9 85.64,-351.25 92.79,-359.07 96.1,-352.9"/>
</g>
<!-- Yoneda_opyon1&#45;&gt;Yoneda_is0functor_opyon -->
<g id="edge24" class="edge">
<title>Yoneda_opyon1&#45;&gt;Yoneda_is0functor_opyon</title>
<path fill="none" stroke="black" d="M86.17,-321.95C94.86,-317.84 104.7,-313.59 114,-310.46 273.05,-256.99 466.76,-221.51 573.58,-204.39"/>
<polygon fill="black" stroke="black" points="574.31,-207.82 583.64,-202.8 573.21,-200.91 574.31,-207.82"/>
</g>
<!-- Yoneda_opyon_cancel -->
<g id="node13" class="node">
<title>Yoneda_opyon_cancel</title>
<g id="a_node13"><a xlink:href="Yoneda.html#opyon_cancel" xlink:title="opyon_cancel">
<ellipse fill="#f070d1" stroke="black" cx="837" cy="-336.46" rx="72.27" ry="18"/>
<ellipse fill="none" stroke="black" cx="837" cy="-336.46" rx="76.28" ry="22"/>
<ellipse fill="none" stroke="black" cx="837" cy="-336.46" rx="80.29" ry="26"/>
<text text-anchor="middle" x="837" y="-332.76" font-family="Times,serif" font-size="14.00">opyon_cancel</text>
</a>
</g>
</g>
<!-- Yoneda_opyon_cancel&#45;&gt;Yoneda_un_opyoneda -->
<g id="edge25" class="edge">
<title>Yoneda_opyon_cancel&#45;&gt;Yoneda_un_opyoneda</title>
<path fill="none" stroke="black" d="M863.92,-311.85C894.3,-285.2 943.4,-242.12 973.58,-215.64"/>
<polygon fill="black" stroke="black" points="975.98,-218.19 981.19,-208.97 971.36,-212.93 975.98,-218.19"/>
</g>
<!-- Yoneda_opyon_cancel&#45;&gt;Yoneda_is0functor_opyon -->
<g id="edge26" class="edge">
<title>Yoneda_opyon_cancel&#45;&gt;Yoneda_is0functor_opyon</title>
<path fill="none" stroke="black" d="M807.19,-312.17C773.02,-285.47 717.36,-241.97 683.37,-215.41"/>
<polygon fill="black" stroke="black" points="685.26,-212.45 675.22,-209.05 680.95,-217.96 685.26,-212.45"/>
</g>
<!-- Yoneda_opyoneda_isretr&#45;&gt;Yoneda_un_opyoneda -->
<g id="edge27" class="edge">
<title>Yoneda_opyoneda_isretr&#45;&gt;Yoneda_un_opyoneda</title>
<path fill="none" stroke="black" d="M691.03,-320.16C755.05,-293.7 886.18,-239.51 955.22,-210.97"/>
<polygon fill="black" stroke="black" points="956.63,-214.18 964.53,-207.12 953.95,-207.71 956.63,-214.18"/>
</g>
<!-- Yoneda_opyoneda_isretr&#45;&gt;Yoneda_opyoneda -->
<g id="edge28" class="edge">
<title>Yoneda_opyoneda_isretr&#45;&gt;Yoneda_opyoneda</title>
<path fill="none" stroke="black" d="M677.06,-319.06C713.47,-293.16 784.29,-242.77 824.74,-213.99"/>
<polygon fill="black" stroke="black" points="827.01,-216.67 833.13,-208.02 822.95,-210.97 827.01,-216.67"/>
</g>
<!-- Yoneda_opyoneda_isretr&#45;&gt;Yoneda_is0functor_opyon -->
<g id="edge29" class="edge">
<title>Yoneda_opyoneda_isretr&#45;&gt;Yoneda_is0functor_opyon</title>
<path fill="none" stroke="black" d="M654,-318.21C654,-293.84 654,-249.07 654,-220.05"/>
<polygon fill="black" stroke="black" points="657.5,-219.77 654,-209.77 650.5,-219.77 657.5,-219.77"/>
</g>
<!-- Yoneda_opyoneda_issect&#45;&gt;Yoneda_un_opyoneda -->
<g id="edge30" class="edge">
<title>Yoneda_opyoneda_issect&#45;&gt;Yoneda_un_opyoneda</title>
<path fill="none" stroke="black" d="M1270.6,-319.75C1214.67,-293.44 1102.24,-240.56 1041.39,-211.93"/>
<polygon fill="black" stroke="black" points="1042.62,-208.64 1032.08,-207.55 1039.64,-214.98 1042.62,-208.64"/>
</g>
<!-- Yoneda_opyoneda_issect&#45;&gt;Yoneda_opyoneda -->
<g id="edge31" class="edge">
<title>Yoneda_opyoneda_issect&#45;&gt;Yoneda_opyoneda</title>
<path fill="none" stroke="black" d="M1258.89,-321.1C1173.67,-293.95 989.74,-235.38 902.62,-207.63"/>
<polygon fill="black" stroke="black" points="903.58,-204.26 892.99,-204.56 901.46,-210.93 903.58,-204.26"/>
</g>
<!-- Yoneda_is1natural_opyoneda&#45;&gt;Yoneda_opyoneda -->
<g id="edge32" class="edge">
<title>Yoneda_is1natural_opyoneda&#45;&gt;Yoneda_opyoneda</title>
<path fill="none" stroke="black" d="M488.37,-320.02C566.8,-292.74 729.14,-236.25 808.83,-208.53"/>
<polygon fill="black" stroke="black" points="810.29,-211.72 818.59,-205.13 807.99,-205.11 810.29,-211.72"/>
</g>
<!-- Yoneda_is1natural_opyoneda&#45;&gt;Yoneda_is0functor_opyon -->
<g id="edge33" class="edge">
<title>Yoneda_is1natural_opyoneda&#45;&gt;Yoneda_is0functor_opyon</title>
<path fill="none" stroke="black" d="M468.5,-318.78C506.38,-292.99 579.19,-243.41 621.45,-214.63"/>
<polygon fill="black" stroke="black" points="623.68,-217.34 629.98,-208.82 619.74,-211.56 623.68,-217.34"/>
</g>
<!-- Yoneda_un_opyoneda&#45;&gt;Yoneda_opyon -->
<g id="edge34" class="edge">
<title>Yoneda_un_opyoneda&#45;&gt;Yoneda_opyon</title>
<path fill="none" stroke="black" d="M990.31,-173.47C977.8,-151.54 955.94,-113.21 941.47,-87.83"/>
<polygon fill="black" stroke="black" points="944.5,-86.08 936.5,-79.12 938.42,-89.55 944.5,-86.08"/>
</g>
<!-- Yoneda_opyoneda&#45;&gt;Yoneda_opyon -->
<g id="edge35" class="edge">
<title>Yoneda_opyoneda&#45;&gt;Yoneda_opyon</title>
<path fill="none" stroke="black" d="M864.56,-173.47C876.84,-151.64 898.26,-113.55 912.54,-88.17"/>
<polygon fill="black" stroke="black" points="915.78,-89.56 917.63,-79.12 909.68,-86.12 915.78,-89.56"/>
</g>
<!-- Yoneda_is1functor_opyon -->
<g id="node19" class="node">
<title>Yoneda_is1functor_opyon</title>
<g id="a_node19"><a xlink:href="Yoneda.html#is1functor_opyon" xlink:title="is1functor_opyon">
<ellipse fill="#f070d1" stroke="black" cx="221" cy="-336.46" rx="90.2" ry="18"/>
<ellipse fill="none" stroke="black" cx="221" cy="-336.46" rx="94.19" ry="22"/>
<ellipse fill="none" stroke="black" cx="221" cy="-336.46" rx="98.18" ry="26"/>
<text text-anchor="middle" x="221" y="-332.76" font-family="Times,serif" font-size="14.00">is1functor_opyon</text>
</a>
</g>
</g>
<!-- Yoneda_is1functor_opyon&#45;&gt;Yoneda_is0functor_opyon -->
<g id="edge36" class="edge">
<title>Yoneda_is1functor_opyon&#45;&gt;Yoneda_is0functor_opyon</title>
<path fill="none" stroke="black" d="M280.75,-315.73C365.24,-287.83 518.39,-237.25 599.77,-210.37"/>
<polygon fill="black" stroke="black" points="600.93,-213.68 609.33,-207.22 598.73,-207.03 600.93,-213.68"/>
</g>
<!-- Yoneda_is0functor_opyon&#45;&gt;Yoneda_opyon -->
<g id="edge37" class="edge">
<title>Yoneda_is0functor_opyon&#45;&gt;Yoneda_opyon</title>
<path fill="none" stroke="black" d="M687.75,-174.64C739.59,-150.33 838.36,-104.02 891.33,-79.19"/>
<polygon fill="black" stroke="black" points="893.1,-82.22 900.67,-74.81 890.13,-75.89 893.1,-82.22"/>
</g>
<!-- Yoneda_is1functor_hom -->
<g id="node22" class="node">
<title>Yoneda_is1functor_hom</title>
<g id="a_node22"><a xlink:href="Yoneda.html#is1functor_hom" xlink:title="is1functor_hom">
<ellipse fill="#f070d1" stroke="black" cx="107" cy="-654.46" rx="82.58" ry="18"/>
<ellipse fill="none" stroke="black" cx="107" cy="-654.46" rx="86.58" ry="22"/>
<ellipse fill="none" stroke="black" cx="107" cy="-654.46" rx="90.59" ry="26"/>
<text text-anchor="middle" x="107" y="-650.76" font-family="Times,serif" font-size="14.00">is1functor_hom</text>
</a>
</g>
</g>
<!-- Yoneda_is0functor_hom -->
<g id="node23" class="node">
<title>Yoneda_is0functor_hom</title>
<g id="a_node23"><a xlink:href="Yoneda.html#is0functor_hom" xlink:title="is0functor_hom">
<ellipse fill="#f070d1" stroke="black" cx="99" cy="-495.46" rx="82.59" ry="18"/>
<text text-anchor="middle" x="99" y="-491.76" font-family="Times,serif" font-size="14.00">is0functor_hom</text>
</a>
</g>
</g>
<!-- Yoneda_is1functor_hom&#45;&gt;Yoneda_is0functor_hom -->
<g id="edge38" class="edge">
<title>Yoneda_is1functor_hom&#45;&gt;Yoneda_is0functor_hom</title>
<path fill="none" stroke="black" d="M105.71,-628.24C104.26,-599.68 101.9,-553.29 100.4,-523.86"/>
<polygon fill="black" stroke="black" points="103.89,-523.66 99.89,-513.85 96.9,-524.01 103.89,-523.66"/>
</g>
</g>
</svg>
