<?xml version="1.0" encoding="UTF-8" standalone="no"?>
<!DOCTYPE svg PUBLIC "-//W3C//DTD SVG 1.1//EN"
 "http://www.w3.org/Graphics/SVG/1.1/DTD/svg11.dtd">
<!-- Generated by graphviz version 2.43.0 (0)
 -->
<!-- Title: HoTT_BoundedSearch Pages: 1 -->
<svg width="1262pt" height="635pt"
 viewBox="0.00 0.00 1262.00 635.00" xmlns="http://www.w3.org/2000/svg" xmlns:xlink="http://www.w3.org/1999/xlink">
<g id="graph0" class="graph" transform="scale(1 1) rotate(0) translate(4 631)">
<title>HoTT_BoundedSearch</title>
<polygon fill="white" stroke="transparent" points="-4,4 -4,-631 1258,-631 1258,4 -4,4"/>
<g id="clust1" class="cluster">
<title>cluster_BoundedSearch</title>
<polygon fill="#ffffc3" stroke="black" points="28.42,-8 28.42,-619 1225.58,-619 1225.58,-8 28.42,-8"/>
<text text-anchor="middle" x="92.92" y="-603.8" font-family="Times,serif" font-size="14.00">BoundedSearch</text>
</g>
<!-- BoundedSearch_minimal_n_alt_type -->
<g id="node1" class="node">
<title>BoundedSearch_minimal_n_alt_type</title>
<g id="a_node1"><a xlink:href="BoundedSearch.html#minimal_n_alt_type" xlink:title="minimal_n_alt_type">
<ellipse fill="#f070d1" stroke="black" cx="625.33" cy="-562" rx="100.18" ry="18"/>
<ellipse fill="none" stroke="black" cx="625.33" cy="-562" rx="104.18" ry="22"/>
<ellipse fill="none" stroke="black" cx="625.33" cy="-562" rx="108.18" ry="26"/>
<text text-anchor="middle" x="625.33" y="-558.3" font-family="Times,serif" font-size="14.00">minimal_n_alt_type</text>
</a>
</g>
</g>
<!-- BoundedSearch_minimal_n -->
<g id="node2" class="node">
<title>BoundedSearch_minimal_n</title>
<g id="a_node2"><a xlink:href="BoundedSearch.html#minimal_n" xlink:title="minimal_n">
<ellipse fill="#f070d1" stroke="black" cx="625.33" cy="-482" rx="58.49" ry="18"/>
<text text-anchor="middle" x="625.33" y="-478.3" font-family="Times,serif" font-size="14.00">minimal_n</text>
</a>
</g>
</g>
<!-- BoundedSearch_minimal_n_alt_type&#45;&gt;BoundedSearch_minimal_n -->
<g id="edge1" class="edge">
<title>BoundedSearch_minimal_n_alt_type&#45;&gt;BoundedSearch_minimal_n</title>
<path fill="none" stroke="black" d="M625.33,-535.89C625.33,-527.84 625.33,-518.88 625.33,-510.66"/>
<polygon fill="black" stroke="black" points="628.83,-510.41 625.33,-500.41 621.83,-510.41 628.83,-510.41"/>
</g>
<!-- BoundedSearch_prop_n_to_min_n -->
<g id="node3" class="node">
<title>BoundedSearch_prop_n_to_min_n</title>
<g id="a_node3"><a xlink:href="BoundedSearch.html#prop_n_to_min_n" xlink:title="prop_n_to_min_n">
<ellipse fill="#f070d1" stroke="black" cx="625.33" cy="-410" rx="88.28" ry="18"/>
<text text-anchor="middle" x="625.33" y="-406.3" font-family="Times,serif" font-size="14.00">prop_n_to_min_n</text>
</a>
</g>
</g>
<!-- BoundedSearch_minimal_n&#45;&gt;BoundedSearch_prop_n_to_min_n -->
<g id="edge2" class="edge">
<title>BoundedSearch_minimal_n&#45;&gt;BoundedSearch_prop_n_to_min_n</title>
<path fill="none" stroke="black" d="M625.33,-463.7C625.33,-455.98 625.33,-446.71 625.33,-438.11"/>
<polygon fill="black" stroke="black" points="628.83,-438.1 625.33,-428.1 621.83,-438.1 628.83,-438.1"/>
</g>
<!-- BoundedSearch_n_to_min_n -->
<g id="node4" class="node">
<title>BoundedSearch_n_to_min_n</title>
<g id="a_node4"><a xlink:href="BoundedSearch.html#n_to_min_n" xlink:title="n_to_min_n">
<ellipse fill="#f070d1" stroke="black" cx="390.33" cy="-338" rx="62.29" ry="18"/>
<text text-anchor="middle" x="390.33" y="-334.3" font-family="Times,serif" font-size="14.00">n_to_min_n</text>
</a>
</g>
</g>
<!-- BoundedSearch_prop_n_to_min_n&#45;&gt;BoundedSearch_n_to_min_n -->
<g id="edge3" class="edge">
<title>BoundedSearch_prop_n_to_min_n&#45;&gt;BoundedSearch_n_to_min_n</title>
<path fill="none" stroke="black" d="M577.49,-394.75C538.06,-383.01 482.26,-366.38 441.86,-354.35"/>
<polygon fill="black" stroke="black" points="442.78,-350.97 432.19,-351.47 440.78,-357.68 442.78,-350.97"/>
</g>
<!-- BoundedSearch_ishpropmin_n -->
<g id="node8" class="node">
<title>BoundedSearch_ishpropmin_n</title>
<g id="a_node8"><a xlink:href="BoundedSearch.html#ishpropmin_n" xlink:title="ishpropmin_n">
<ellipse fill="#f070d1" stroke="black" cx="938.33" cy="-338" rx="73.39" ry="18"/>
<text text-anchor="middle" x="938.33" y="-334.3" font-family="Times,serif" font-size="14.00">ishpropmin_n</text>
</a>
</g>
</g>
<!-- BoundedSearch_prop_n_to_min_n&#45;&gt;BoundedSearch_ishpropmin_n -->
<g id="edge4" class="edge">
<title>BoundedSearch_prop_n_to_min_n&#45;&gt;BoundedSearch_ishpropmin_n</title>
<path fill="none" stroke="black" d="M682.37,-396.24C737.18,-383.98 819.78,-365.51 876.22,-352.89"/>
<polygon fill="black" stroke="black" points="877.1,-356.28 886.09,-350.68 875.57,-349.45 877.1,-356.28"/>
</g>
<!-- BoundedSearch_bounded_search -->
<g id="node5" class="node">
<title>BoundedSearch_bounded_search</title>
<g id="a_node5"><a xlink:href="BoundedSearch.html#bounded_search" xlink:title="bounded_search">
<ellipse fill="#f070d1" stroke="black" cx="362.33" cy="-266" rx="85.59" ry="18"/>
<text text-anchor="middle" x="362.33" y="-262.3" font-family="Times,serif" font-size="14.00">bounded_search</text>
</a>
</g>
</g>
<!-- BoundedSearch_n_to_min_n&#45;&gt;BoundedSearch_bounded_search -->
<g id="edge5" class="edge">
<title>BoundedSearch_n_to_min_n&#45;&gt;BoundedSearch_bounded_search</title>
<path fill="none" stroke="black" d="M383.55,-320.05C380.4,-312.18 376.57,-302.62 373.04,-293.79"/>
<polygon fill="black" stroke="black" points="376.2,-292.26 369.24,-284.28 369.7,-294.86 376.2,-292.26"/>
</g>
<!-- BoundedSearch_min_n_Type -->
<g id="node9" class="node">
<title>BoundedSearch_min_n_Type</title>
<g id="a_node9"><a xlink:href="BoundedSearch.html#min_n_Type" xlink:title="min_n_Type">
<ellipse fill="#f070d1" stroke="black" cx="962.33" cy="-266" rx="65.79" ry="18"/>
<text text-anchor="middle" x="962.33" y="-262.3" font-family="Times,serif" font-size="14.00">min_n_Type</text>
</a>
</g>
</g>
<!-- BoundedSearch_n_to_min_n&#45;&gt;BoundedSearch_min_n_Type -->
<g id="edge6" class="edge">
<title>BoundedSearch_n_to_min_n&#45;&gt;BoundedSearch_min_n_Type</title>
<path fill="none" stroke="black" d="M446.47,-330.13C551.94,-317.22 779.31,-289.4 893.68,-275.4"/>
<polygon fill="black" stroke="black" points="894.22,-278.86 903.72,-274.17 893.37,-271.91 894.22,-278.86"/>
</g>
<!-- BoundedSearch_smaller_S -->
<g id="node6" class="node">
<title>BoundedSearch_smaller_S</title>
<g id="a_node6"><a xlink:href="BoundedSearch.html#smaller_S" xlink:title="smaller_S">
<ellipse fill="#f070d1" stroke="black" cx="643.33" cy="-194" rx="55.79" ry="18"/>
<text text-anchor="middle" x="643.33" y="-190.3" font-family="Times,serif" font-size="14.00">smaller_S</text>
</a>
</g>
</g>
<!-- BoundedSearch_bounded_search&#45;&gt;BoundedSearch_smaller_S -->
<g id="edge7" class="edge">
<title>BoundedSearch_bounded_search&#45;&gt;BoundedSearch_smaller_S</title>
<path fill="none" stroke="black" d="M415.51,-251.75C465.67,-239.25 540.44,-220.63 590.49,-208.16"/>
<polygon fill="black" stroke="black" points="591.61,-211.49 600.47,-205.68 589.92,-204.7 591.61,-211.49"/>
</g>
<!-- BoundedSearch_smaller -->
<g id="node7" class="node">
<title>BoundedSearch_smaller</title>
<g id="a_node7"><a xlink:href="BoundedSearch.html#smaller" xlink:title="smaller">
<ellipse fill="#f070d1" stroke="black" cx="962.33" cy="-114" rx="45.49" ry="18"/>
<text text-anchor="middle" x="962.33" y="-110.3" font-family="Times,serif" font-size="14.00">smaller</text>
</a>
</g>
</g>
<!-- BoundedSearch_smaller_S&#45;&gt;BoundedSearch_smaller -->
<g id="edge8" class="edge">
<title>BoundedSearch_smaller_S&#45;&gt;BoundedSearch_smaller</title>
<path fill="none" stroke="black" d="M686.35,-182.48C745.79,-167.95 852.7,-141.81 914.56,-126.68"/>
<polygon fill="black" stroke="black" points="915.57,-130.04 924.45,-124.26 913.91,-123.24 915.57,-130.04"/>
</g>
<!-- BoundedSearch_minimal -->
<g id="node11" class="node">
<title>BoundedSearch_minimal</title>
<g id="a_node11"><a xlink:href="BoundedSearch.html#minimal" xlink:title="minimal">
<ellipse fill="#f070d1" stroke="black" cx="962.33" cy="-34" rx="48.19" ry="18"/>
<text text-anchor="middle" x="962.33" y="-30.3" font-family="Times,serif" font-size="14.00">minimal</text>
</a>
</g>
</g>
<!-- BoundedSearch_smaller&#45;&gt;BoundedSearch_minimal -->
<g id="edge9" class="edge">
<title>BoundedSearch_smaller&#45;&gt;BoundedSearch_minimal</title>
<path fill="none" stroke="black" d="M962.33,-95.69C962.33,-85.89 962.33,-73.42 962.33,-62.33"/>
<polygon fill="black" stroke="black" points="965.83,-62.26 962.33,-52.26 958.83,-62.26 965.83,-62.26"/>
</g>
<!-- BoundedSearch_ishpropmin_n&#45;&gt;BoundedSearch_min_n_Type -->
<g id="edge10" class="edge">
<title>BoundedSearch_ishpropmin_n&#45;&gt;BoundedSearch_min_n_Type</title>
<path fill="none" stroke="black" d="M944.14,-320.05C946.84,-312.18 950.11,-302.62 953.14,-293.79"/>
<polygon fill="black" stroke="black" points="956.47,-294.87 956.4,-284.28 949.85,-292.6 956.47,-294.87"/>
</g>
<!-- BoundedSearch_min_n_Type&#45;&gt;BoundedSearch_minimal -->
<g id="edge11" class="edge">
<title>BoundedSearch_min_n_Type&#45;&gt;BoundedSearch_minimal</title>
<path fill="none" stroke="black" d="M975.24,-248.01C997.89,-216 1040.2,-144.88 1016.33,-88 1011.28,-75.98 1002.04,-65.32 992.6,-56.76"/>
<polygon fill="black" stroke="black" points="994.62,-53.88 984.72,-50.09 990.09,-59.23 994.62,-53.88"/>
</g>
<!-- BoundedSearch_ishprop_minimal -->
<g id="node10" class="node">
<title>BoundedSearch_ishprop_minimal</title>
<g id="a_node10"><a xlink:href="BoundedSearch.html#ishprop_minimal" xlink:title="ishprop_minimal">
<ellipse fill="#f070d1" stroke="black" cx="398.33" cy="-114" rx="87.96" ry="18"/>
<ellipse fill="none" stroke="black" cx="398.33" cy="-114" rx="91.97" ry="22"/>
<ellipse fill="none" stroke="black" cx="398.33" cy="-114" rx="95.99" ry="26"/>
<text text-anchor="middle" x="398.33" y="-110.3" font-family="Times,serif" font-size="14.00">ishprop_minimal</text>
</a>
</g>
</g>
<!-- BoundedSearch_ishprop_minimal&#45;&gt;BoundedSearch_minimal -->
<g id="edge12" class="edge">
<title>BoundedSearch_ishprop_minimal&#45;&gt;BoundedSearch_minimal</title>
<path fill="none" stroke="black" d="M482.15,-101.41C599.37,-85.2 808.95,-56.21 907.83,-42.54"/>
<polygon fill="black" stroke="black" points="908.48,-45.98 917.91,-41.14 907.52,-39.05 908.48,-45.98"/>
</g>
</g>
</svg>
