<?xml version="1.0" encoding="UTF-8" standalone="no"?>
<!DOCTYPE svg PUBLIC "-//W3C//DTD SVG 1.1//EN"
 "http://www.w3.org/Graphics/SVG/1.1/DTD/svg11.dtd">
<!-- Generated by graphviz version 2.43.0 (0)
 -->
<!-- Title: HoTT_WildCat_Sum Pages: 1 -->
<svg width="510pt" height="259pt"
 viewBox="0.00 0.00 510.00 259.00" xmlns="http://www.w3.org/2000/svg" xmlns:xlink="http://www.w3.org/1999/xlink">
<g id="graph0" class="graph" transform="scale(1 1) rotate(0) translate(4 255)">
<title>HoTT_WildCat_Sum</title>
<polygon fill="white" stroke="transparent" points="-4,4 -4,-255 506,-255 506,4 -4,4"/>
<g id="clust1" class="cluster">
<title>cluster_Sum</title>
<polygon fill="#ffffc3" stroke="black" points="23.35,-8 23.35,-243 478.65,-243 478.65,-8 23.35,-8"/>
<text text-anchor="middle" x="47.85" y="-227.8" font-family="Times,serif" font-size="14.00">Sum</text>
</g>
<!-- Sum_is1cat_sum -->
<g id="node1" class="node">
<title>Sum_is1cat_sum</title>
<g id="a_node1"><a xlink:href="Sum.html#is1cat_sum" xlink:title="is1cat_sum">
<ellipse fill="#f070d1" stroke="black" cx="251.24" cy="-186" rx="62.3" ry="18"/>
<ellipse fill="none" stroke="black" cx="251.24" cy="-186" rx="66.3" ry="22"/>
<ellipse fill="none" stroke="black" cx="251.24" cy="-186" rx="70.29" ry="26"/>
<text text-anchor="middle" x="251.24" y="-182.3" font-family="Times,serif" font-size="14.00">is1cat_sum</text>
</a>
</g>
</g>
<!-- Sum_is01cat_sum -->
<g id="node2" class="node">
<title>Sum_is01cat_sum</title>
<g id="a_node2"><a xlink:href="Sum.html#is01cat_sum" xlink:title="is01cat_sum">
<ellipse fill="#f070d1" stroke="black" cx="251.24" cy="-106" rx="68.49" ry="18"/>
<text text-anchor="middle" x="251.24" y="-102.3" font-family="Times,serif" font-size="14.00">is01cat_sum</text>
</a>
</g>
</g>
<!-- Sum_is1cat_sum&#45;&gt;Sum_is01cat_sum -->
<g id="edge1" class="edge">
<title>Sum_is1cat_sum&#45;&gt;Sum_is01cat_sum</title>
<path fill="none" stroke="black" d="M251.24,-159.89C251.24,-151.84 251.24,-142.88 251.24,-134.66"/>
<polygon fill="black" stroke="black" points="254.74,-134.41 251.24,-124.41 247.74,-134.41 254.74,-134.41"/>
</g>
<!-- Sum_isgraph_sum -->
<g id="node3" class="node">
<title>Sum_isgraph_sum</title>
<g id="a_node3"><a xlink:href="Sum.html#isgraph_sum" xlink:title="isgraph_sum">
<ellipse fill="#f070d1" stroke="black" cx="251.24" cy="-34" rx="69.59" ry="18"/>
<text text-anchor="middle" x="251.24" y="-30.3" font-family="Times,serif" font-size="14.00">isgraph_sum</text>
</a>
</g>
</g>
<!-- Sum_is01cat_sum&#45;&gt;Sum_isgraph_sum -->
<g id="edge2" class="edge">
<title>Sum_is01cat_sum&#45;&gt;Sum_isgraph_sum</title>
<path fill="none" stroke="black" d="M251.24,-87.7C251.24,-79.98 251.24,-70.71 251.24,-62.11"/>
<polygon fill="black" stroke="black" points="254.74,-62.1 251.24,-52.1 247.74,-62.1 254.74,-62.1"/>
</g>
</g>
</svg>
