<?xml version="1.0" encoding="UTF-8" standalone="no"?>
<!DOCTYPE svg PUBLIC "-//W3C//DTD SVG 1.1//EN"
 "http://www.w3.org/Graphics/SVG/1.1/DTD/svg11.dtd">
<!-- Generated by graphviz version 2.43.0 (0)
 -->
<!-- Title: HoTT_Homotopy_HomotopyGroup Pages: 1 -->
<svg width="1605pt" height="807pt"
 viewBox="0.00 0.00 1605.00 806.50" xmlns="http://www.w3.org/2000/svg" xmlns:xlink="http://www.w3.org/1999/xlink">
<g id="graph0" class="graph" transform="scale(1 1) rotate(0) translate(4 802.5)">
<title>HoTT_Homotopy_HomotopyGroup</title>
<polygon fill="white" stroke="transparent" points="-4,4 -4,-802.5 1601,-802.5 1601,4 -4,4"/>
<g id="clust1" class="cluster">
<title>cluster_HomotopyGroup</title>
<polygon fill="#ffffc3" stroke="black" points="8,-12.4 8,-786.1 1589,-786.1 1589,-12.4 8,-12.4"/>
<text text-anchor="middle" x="75" y="-770.9" font-family="Times,serif" font-size="14.00">HomotopyGroup</text>
</g>
<!-- HomotopyGroup_grp_iso_pi1_Tr -->
<g id="node1" class="node">
<title>HomotopyGroup_grp_iso_pi1_Tr</title>
<g id="a_node1"><a xlink:href="HomotopyGroup.html#grp_iso_pi1_Tr" xlink:title="grp_iso_pi1_Tr">
<ellipse fill="#f070d1" stroke="black" cx="814" cy="-176.4" rx="77.99" ry="18"/>
<ellipse fill="none" stroke="black" cx="814" cy="-176.4" rx="81.99" ry="22"/>
<ellipse fill="none" stroke="black" cx="814" cy="-176.4" rx="85.99" ry="26"/>
<text text-anchor="middle" x="814" y="-172.7" font-family="Times,serif" font-size="14.00">grp_iso_pi1_Tr</text>
</a>
</g>
</g>
<!-- HomotopyGroup_Pi1 -->
<g id="node20" class="node">
<title>HomotopyGroup_Pi1</title>
<g id="a_node20"><a xlink:href="HomotopyGroup.html#Pi1" xlink:title="Pi1">
<ellipse fill="#f070d1" stroke="black" cx="646" cy="-52.4" rx="27" ry="18"/>
<text text-anchor="middle" x="646" y="-48.7" font-family="Times,serif" font-size="14.00">Pi1</text>
</a>
</g>
</g>
<!-- HomotopyGroup_grp_iso_pi1_Tr&#45;&gt;HomotopyGroup_Pi1 -->
<g id="edge1" class="edge">
<title>HomotopyGroup_grp_iso_pi1_Tr&#45;&gt;HomotopyGroup_Pi1</title>
<path fill="none" stroke="black" d="M782.01,-152.17C750.12,-129.01 701.75,-93.89 672.11,-72.36"/>
<polygon fill="black" stroke="black" points="674.06,-69.45 663.91,-66.41 669.94,-75.12 674.06,-69.45"/>
</g>
<!-- HomotopyGroup_pmap_pi_functor -->
<g id="node2" class="node">
<title>HomotopyGroup_pmap_pi_functor</title>
<g id="a_node2"><a xlink:href="HomotopyGroup.html#pmap_pi_functor" xlink:title="pmap_pi_functor">
<ellipse fill="#f070d1" stroke="black" cx="886" cy="-561.4" rx="87.96" ry="18"/>
<ellipse fill="none" stroke="black" cx="886" cy="-561.4" rx="91.97" ry="22"/>
<ellipse fill="none" stroke="black" cx="886" cy="-561.4" rx="95.99" ry="26"/>
<text text-anchor="middle" x="886" y="-557.7" font-family="Times,serif" font-size="14.00">pmap_pi_functor</text>
</a>
</g>
</g>
<!-- HomotopyGroup_pi_functor -->
<g id="node13" class="node">
<title>HomotopyGroup_pi_functor</title>
<g id="a_node13"><a xlink:href="HomotopyGroup.html#pi_functor" xlink:title="pi_functor">
<ellipse fill="#f070d1" stroke="black" cx="727" cy="-437.4" rx="57.69" ry="18"/>
<text text-anchor="middle" x="727" y="-433.7" font-family="Times,serif" font-size="14.00">pi_functor</text>
</a>
</g>
</g>
<!-- HomotopyGroup_pmap_pi_functor&#45;&gt;HomotopyGroup_pi_functor -->
<g id="edge2" class="edge">
<title>HomotopyGroup_pmap_pi_functor&#45;&gt;HomotopyGroup_pi_functor</title>
<path fill="none" stroke="black" d="M854.97,-536.59C826.3,-514.6 784.04,-482.17 756.03,-460.68"/>
<polygon fill="black" stroke="black" points="757.89,-457.69 747.83,-454.38 753.63,-463.25 757.89,-457.69"/>
</g>
<!-- HomotopyGroup_pi_functor_type_pmap -->
<g id="node15" class="node">
<title>HomotopyGroup_pi_functor_type_pmap</title>
<g id="a_node15"><a xlink:href="HomotopyGroup.html#pi_functor_type_pmap" xlink:title="pi_functor_type_pmap">
<ellipse fill="#f070d1" stroke="black" cx="486" cy="-437.4" rx="112.38" ry="18"/>
<text text-anchor="middle" x="486" y="-433.7" font-family="Times,serif" font-size="14.00">pi_functor_type_pmap</text>
</a>
</g>
</g>
<!-- HomotopyGroup_pmap_pi_functor&#45;&gt;HomotopyGroup_pi_functor_type_pmap -->
<g id="edge3" class="edge">
<title>HomotopyGroup_pmap_pi_functor&#45;&gt;HomotopyGroup_pi_functor_type_pmap</title>
<path fill="none" stroke="black" d="M823.94,-541.48C748.02,-518.32 620.4,-479.4 545.61,-456.59"/>
<polygon fill="black" stroke="black" points="546.46,-453.18 535.87,-453.61 544.41,-459.88 546.46,-453.18"/>
</g>
<!-- HomotopyGroup_is1functor_pi -->
<g id="node3" class="node">
<title>HomotopyGroup_is1functor_pi</title>
<g id="a_node3"><a xlink:href="HomotopyGroup.html#is1functor_pi" xlink:title="is1functor_pi">
<ellipse fill="#f070d1" stroke="black" cx="578" cy="-697.4" rx="71.49" ry="18"/>
<ellipse fill="none" stroke="black" cx="578" cy="-697.4" rx="75.49" ry="22"/>
<ellipse fill="none" stroke="black" cx="578" cy="-697.4" rx="79.49" ry="26"/>
<text text-anchor="middle" x="578" y="-693.7" font-family="Times,serif" font-size="14.00">is1functor_pi</text>
</a>
</g>
</g>
<!-- HomotopyGroup_is0functor_pi -->
<g id="node4" class="node">
<title>HomotopyGroup_is0functor_pi</title>
<g id="a_node4"><a xlink:href="HomotopyGroup.html#is0functor_pi" xlink:title="is0functor_pi">
<ellipse fill="#f070d1" stroke="black" cx="1310" cy="-561.4" rx="71.49" ry="18"/>
<text text-anchor="middle" x="1310" y="-557.7" font-family="Times,serif" font-size="14.00">is0functor_pi</text>
</a>
</g>
</g>
<!-- HomotopyGroup_is1functor_pi&#45;&gt;HomotopyGroup_is0functor_pi -->
<g id="edge4" class="edge">
<title>HomotopyGroup_is1functor_pi&#45;&gt;HomotopyGroup_is0functor_pi</title>
<path fill="none" stroke="black" d="M651.5,-687.46C772.94,-671.95 1022.65,-636.89 1230,-587.4 1239.66,-585.1 1249.86,-582.25 1259.61,-579.3"/>
<polygon fill="black" stroke="black" points="1260.67,-582.64 1269.19,-576.34 1258.6,-575.95 1260.67,-582.64"/>
</g>
<!-- HomotopyGroup_pi_2functor -->
<g id="node9" class="node">
<title>HomotopyGroup_pi_2functor</title>
<g id="a_node9"><a xlink:href="HomotopyGroup.html#pi_2functor" xlink:title="pi_2functor">
<ellipse fill="#f070d1" stroke="black" cx="486" cy="-561.4" rx="63.89" ry="18"/>
<text text-anchor="middle" x="486" y="-557.7" font-family="Times,serif" font-size="14.00">pi_2functor</text>
</a>
</g>
</g>
<!-- HomotopyGroup_is1functor_pi&#45;&gt;HomotopyGroup_pi_2functor -->
<g id="edge5" class="edge">
<title>HomotopyGroup_is1functor_pi&#45;&gt;HomotopyGroup_pi_2functor</title>
<path fill="none" stroke="black" d="M561.13,-671.83C544.68,-647.87 519.79,-611.62 503.23,-587.49"/>
<polygon fill="black" stroke="black" points="506.08,-585.46 497.53,-579.2 500.3,-589.42 506.08,-585.46"/>
</g>
<!-- HomotopyGroup_pi_functor_compose -->
<g id="node10" class="node">
<title>HomotopyGroup_pi_functor_compose</title>
<g id="a_node10"><a xlink:href="HomotopyGroup.html#pi_functor_compose" xlink:title="pi_functor_compose">
<ellipse fill="#f070d1" stroke="black" cx="670" cy="-561.4" rx="102.88" ry="18"/>
<text text-anchor="middle" x="670" y="-557.7" font-family="Times,serif" font-size="14.00">pi_functor_compose</text>
</a>
</g>
</g>
<!-- HomotopyGroup_is1functor_pi&#45;&gt;HomotopyGroup_pi_functor_compose -->
<g id="edge6" class="edge">
<title>HomotopyGroup_is1functor_pi&#45;&gt;HomotopyGroup_pi_functor_compose</title>
<path fill="none" stroke="black" d="M594.87,-671.83C611.23,-648 635.93,-612.03 652.49,-587.9"/>
<polygon fill="black" stroke="black" points="655.42,-589.82 658.2,-579.59 649.65,-585.86 655.42,-589.82"/>
</g>
<!-- HomotopyGroup_pi_functor_idmap -->
<g id="node11" class="node">
<title>HomotopyGroup_pi_functor_idmap</title>
<g id="a_node11"><a xlink:href="HomotopyGroup.html#pi_functor_idmap" xlink:title="pi_functor_idmap">
<ellipse fill="#f070d1" stroke="black" cx="313" cy="-561.4" rx="90.98" ry="18"/>
<text text-anchor="middle" x="313" y="-557.7" font-family="Times,serif" font-size="14.00">pi_functor_idmap</text>
</a>
</g>
</g>
<!-- HomotopyGroup_is1functor_pi&#45;&gt;HomotopyGroup_pi_functor_idmap -->
<g id="edge7" class="edge">
<title>HomotopyGroup_is1functor_pi&#45;&gt;HomotopyGroup_pi_functor_idmap</title>
<path fill="none" stroke="black" d="M536.01,-675.17C486.1,-649.94 403.38,-608.11 353.94,-583.11"/>
<polygon fill="black" stroke="black" points="355.32,-579.88 344.81,-578.49 352.16,-586.13 355.32,-579.88"/>
</g>
<!-- HomotopyGroup_is0functor_pi&#45;&gt;HomotopyGroup_pi_functor -->
<g id="edge8" class="edge">
<title>HomotopyGroup_is0functor_pi&#45;&gt;HomotopyGroup_pi_functor</title>
<path fill="none" stroke="black" d="M1268.73,-546.54C1256.36,-542.64 1242.7,-538.6 1230,-535.4 1072.11,-495.64 882.79,-463.14 787.75,-447.85"/>
<polygon fill="black" stroke="black" points="788.17,-444.38 777.75,-446.25 787.07,-451.29 788.17,-444.38"/>
</g>
<!-- HomotopyGroup_pi_prod -->
<g id="node5" class="node">
<title>HomotopyGroup_pi_prod</title>
<g id="a_node5"><a xlink:href="HomotopyGroup.html#pi_prod" xlink:title="pi_prod">
<ellipse fill="#f070d1" stroke="black" cx="709" cy="-313.4" rx="45.49" ry="18"/>
<ellipse fill="none" stroke="black" cx="709" cy="-313.4" rx="49.49" ry="22"/>
<ellipse fill="none" stroke="black" cx="709" cy="-313.4" rx="53.49" ry="26"/>
<text text-anchor="middle" x="709" y="-309.7" font-family="Times,serif" font-size="14.00">pi_prod</text>
</a>
</g>
</g>
<!-- HomotopyGroup_Pi -->
<g id="node19" class="node">
<title>HomotopyGroup_Pi</title>
<g id="a_node19"><a xlink:href="HomotopyGroup.html#Pi" xlink:title="Pi">
<ellipse fill="#f070d1" stroke="black" cx="402" cy="-176.4" rx="27" ry="18"/>
<text text-anchor="middle" x="402" y="-172.7" font-family="Times,serif" font-size="14.00">Pi</text>
</a>
</g>
</g>
<!-- HomotopyGroup_pi_prod&#45;&gt;HomotopyGroup_Pi -->
<g id="edge9" class="edge">
<title>HomotopyGroup_pi_prod&#45;&gt;HomotopyGroup_Pi</title>
<path fill="none" stroke="black" d="M670.12,-295.31C608.63,-268.27 490.12,-216.15 433.55,-191.28"/>
<polygon fill="black" stroke="black" points="434.62,-187.92 424.06,-187.1 431.8,-194.33 434.62,-187.92"/>
</g>
<!-- HomotopyGroup_groupiso_pi_functor -->
<g id="node6" class="node">
<title>HomotopyGroup_groupiso_pi_functor</title>
<g id="a_node6"><a xlink:href="HomotopyGroup.html#groupiso_pi_functor" xlink:title="groupiso_pi_functor">
<ellipse fill="#f070d1" stroke="black" cx="1110" cy="-561.4" rx="102.87" ry="18"/>
<ellipse fill="none" stroke="black" cx="1110" cy="-561.4" rx="106.88" ry="22"/>
<ellipse fill="none" stroke="black" cx="1110" cy="-561.4" rx="110.88" ry="26"/>
<text text-anchor="middle" x="1110" y="-557.7" font-family="Times,serif" font-size="14.00">groupiso_pi_functor</text>
</a>
</g>
</g>
<!-- HomotopyGroup_groupiso_pi_functor&#45;&gt;HomotopyGroup_pi_functor -->
<g id="edge10" class="edge">
<title>HomotopyGroup_groupiso_pi_functor&#45;&gt;HomotopyGroup_pi_functor</title>
<path fill="none" stroke="black" d="M1046.33,-540.12C970.2,-515.87 844.47,-475.82 775.68,-453.91"/>
<polygon fill="black" stroke="black" points="776.55,-450.51 765.96,-450.81 774.42,-457.18 776.55,-450.51"/>
</g>
<!-- HomotopyGroup_pi_functor_loops -->
<g id="node7" class="node">
<title>HomotopyGroup_pi_functor_loops</title>
<g id="a_node7"><a xlink:href="HomotopyGroup.html#pi_functor_loops" xlink:title="pi_functor_loops">
<ellipse fill="#f070d1" stroke="black" cx="110" cy="-561.4" rx="86.39" ry="18"/>
<ellipse fill="none" stroke="black" cx="110" cy="-561.4" rx="90.39" ry="22"/>
<ellipse fill="none" stroke="black" cx="110" cy="-561.4" rx="94.38" ry="26"/>
<text text-anchor="middle" x="110" y="-557.7" font-family="Times,serif" font-size="14.00">pi_functor_loops</text>
</a>
</g>
</g>
<!-- HomotopyGroup_pi_loops -->
<g id="node8" class="node">
<title>HomotopyGroup_pi_loops</title>
<g id="a_node8"><a xlink:href="HomotopyGroup.html#pi_loops" xlink:title="pi_loops">
<ellipse fill="#f070d1" stroke="black" cx="110" cy="-313.4" rx="48.19" ry="18"/>
<text text-anchor="middle" x="110" y="-309.7" font-family="Times,serif" font-size="14.00">pi_loops</text>
</a>
</g>
</g>
<!-- HomotopyGroup_pi_functor_loops&#45;&gt;HomotopyGroup_pi_loops -->
<g id="edge11" class="edge">
<title>HomotopyGroup_pi_functor_loops&#45;&gt;HomotopyGroup_pi_loops</title>
<path fill="none" stroke="black" d="M110,-535C110,-488.42 110,-389.72 110,-341.74"/>
<polygon fill="black" stroke="black" points="113.5,-341.5 110,-331.5 106.5,-341.5 113.5,-341.5"/>
</g>
<!-- HomotopyGroup_pi_functor_loops&#45;&gt;HomotopyGroup_pi_functor -->
<g id="edge12" class="edge">
<title>HomotopyGroup_pi_functor_loops&#45;&gt;HomotopyGroup_pi_functor</title>
<path fill="none" stroke="black" d="M178.03,-543.37C189.67,-540.6 201.67,-537.85 213,-535.4 376.81,-500.09 571.52,-465.29 667.48,-448.61"/>
<polygon fill="black" stroke="black" points="668.32,-452.02 677.57,-446.86 667.12,-445.12 668.32,-452.02"/>
</g>
<!-- HomotopyGroup_pi_functor_loops&#45;&gt;HomotopyGroup_pi_functor_type_pmap -->
<g id="edge13" class="edge">
<title>HomotopyGroup_pi_functor_loops&#45;&gt;HomotopyGroup_pi_functor_type_pmap</title>
<path fill="none" stroke="black" d="M169.58,-541.07C240.78,-517.97 359.04,-479.6 429.06,-456.88"/>
<polygon fill="black" stroke="black" points="430.17,-460.2 438.61,-453.78 428.01,-453.54 430.17,-460.2"/>
</g>
<!-- HomotopyGroup_pi_loops&#45;&gt;HomotopyGroup_Pi -->
<g id="edge14" class="edge">
<title>HomotopyGroup_pi_loops&#45;&gt;HomotopyGroup_Pi</title>
<path fill="none" stroke="black" d="M139.07,-298.97C194.43,-273.37 314.54,-217.84 371.21,-191.64"/>
<polygon fill="black" stroke="black" points="372.78,-194.77 380.39,-187.4 369.84,-188.42 372.78,-194.77"/>
</g>
<!-- HomotopyGroup_HomotopyGroup_type_ptype -->
<g id="node21" class="node">
<title>HomotopyGroup_HomotopyGroup_type_ptype</title>
<g id="a_node21"><a xlink:href="HomotopyGroup.html#HomotopyGroup_type_ptype" xlink:title="HomotopyGroup_type_ptype">
<ellipse fill="#f070d1" stroke="black" cx="187" cy="-176.4" rx="142.97" ry="18"/>
<text text-anchor="middle" x="187" y="-172.7" font-family="Times,serif" font-size="14.00">HomotopyGroup_type_ptype</text>
</a>
</g>
</g>
<!-- HomotopyGroup_pi_loops&#45;&gt;HomotopyGroup_HomotopyGroup_type_ptype -->
<g id="edge15" class="edge">
<title>HomotopyGroup_pi_loops&#45;&gt;HomotopyGroup_HomotopyGroup_type_ptype</title>
<path fill="none" stroke="black" d="M119.6,-295.58C132.8,-272.44 156.68,-230.57 172.18,-203.39"/>
<polygon fill="black" stroke="black" points="175.37,-204.86 177.28,-194.44 169.29,-201.39 175.37,-204.86"/>
</g>
<!-- HomotopyGroup_pi_2functor&#45;&gt;HomotopyGroup_pi_functor -->
<g id="edge16" class="edge">
<title>HomotopyGroup_pi_2functor&#45;&gt;HomotopyGroup_pi_functor</title>
<path fill="none" stroke="black" d="M515.55,-545.44C559.15,-523.37 640.73,-482.08 688.81,-457.74"/>
<polygon fill="black" stroke="black" points="690.62,-460.74 697.96,-453.1 687.46,-454.5 690.62,-460.74"/>
</g>
<!-- HomotopyGroup_pi_2functor&#45;&gt;HomotopyGroup_pi_functor_type_pmap -->
<g id="edge17" class="edge">
<title>HomotopyGroup_pi_2functor&#45;&gt;HomotopyGroup_pi_functor_type_pmap</title>
<path fill="none" stroke="black" d="M486,-543.18C486,-523.02 486,-489.37 486,-465.65"/>
<polygon fill="black" stroke="black" points="489.5,-465.54 486,-455.54 482.5,-465.54 489.5,-465.54"/>
</g>
<!-- HomotopyGroup_pi_functor_compose&#45;&gt;HomotopyGroup_pi_functor -->
<g id="edge18" class="edge">
<title>HomotopyGroup_pi_functor_compose&#45;&gt;HomotopyGroup_pi_functor</title>
<path fill="none" stroke="black" d="M677.93,-543.44C687.44,-523.07 703.52,-488.67 714.66,-464.81"/>
<polygon fill="black" stroke="black" points="717.9,-466.16 718.96,-455.62 711.55,-463.2 717.9,-466.16"/>
</g>
<!-- HomotopyGroup_pi_functor_compose&#45;&gt;HomotopyGroup_pi_functor_type_pmap -->
<g id="edge19" class="edge">
<title>HomotopyGroup_pi_functor_compose&#45;&gt;HomotopyGroup_pi_functor_type_pmap</title>
<path fill="none" stroke="black" d="M644.8,-543.7C612.41,-522.22 556.05,-484.85 519.91,-460.89"/>
<polygon fill="black" stroke="black" points="521.46,-457.71 511.19,-455.11 517.59,-463.55 521.46,-457.71"/>
</g>
<!-- HomotopyGroup_pi_functor_idmap&#45;&gt;HomotopyGroup_pi_functor -->
<g id="edge20" class="edge">
<title>HomotopyGroup_pi_functor_idmap&#45;&gt;HomotopyGroup_pi_functor</title>
<path fill="none" stroke="black" d="M361.71,-546.05C440.83,-522.73 596.48,-476.86 676.65,-453.24"/>
<polygon fill="black" stroke="black" points="677.91,-456.52 686.51,-450.34 675.93,-449.81 677.91,-456.52"/>
</g>
<!-- HomotopyGroup_pi_functor_idmap&#45;&gt;HomotopyGroup_pi_functor_type_pmap -->
<g id="edge21" class="edge">
<title>HomotopyGroup_pi_functor_idmap&#45;&gt;HomotopyGroup_pi_functor_type_pmap</title>
<path fill="none" stroke="black" d="M336.33,-543.95C366.69,-522.54 419.86,-485.05 453.97,-460.99"/>
<polygon fill="black" stroke="black" points="456.05,-463.81 462.21,-455.18 452.02,-458.09 456.05,-463.81"/>
</g>
<!-- HomotopyGroup_pi_functor_succ -->
<g id="node12" class="node">
<title>HomotopyGroup_pi_functor_succ</title>
<g id="a_node12"><a xlink:href="HomotopyGroup.html#pi_functor_succ" xlink:title="pi_functor_succ">
<ellipse fill="#f070d1" stroke="black" cx="1490" cy="-561.4" rx="82.58" ry="18"/>
<ellipse fill="none" stroke="black" cx="1490" cy="-561.4" rx="86.58" ry="22"/>
<ellipse fill="none" stroke="black" cx="1490" cy="-561.4" rx="90.59" ry="26"/>
<text text-anchor="middle" x="1490" y="-557.7" font-family="Times,serif" font-size="14.00">pi_functor_succ</text>
</a>
</g>
</g>
<!-- HomotopyGroup_pi_functor_succ&#45;&gt;HomotopyGroup_pi_functor -->
<g id="edge22" class="edge">
<title>HomotopyGroup_pi_functor_succ&#45;&gt;HomotopyGroup_pi_functor</title>
<path fill="none" stroke="black" d="M1425.12,-543.19C1413.47,-540.38 1401.41,-537.66 1390,-535.4 1171.55,-492.23 909.09,-459.39 790.58,-445.57"/>
<polygon fill="black" stroke="black" points="790.93,-442.08 780.59,-444.41 790.12,-449.04 790.93,-442.08"/>
</g>
<!-- HomotopyGroup_pi1_functor -->
<g id="node14" class="node">
<title>HomotopyGroup_pi1_functor</title>
<g id="a_node14"><a xlink:href="HomotopyGroup.html#pi1_functor" xlink:title="pi1_functor">
<ellipse fill="#f070d1" stroke="black" cx="646" cy="-176.4" rx="63.89" ry="18"/>
<text text-anchor="middle" x="646" y="-172.7" font-family="Times,serif" font-size="14.00">pi1_functor</text>
</a>
</g>
</g>
<!-- HomotopyGroup_pi_functor&#45;&gt;HomotopyGroup_pi1_functor -->
<g id="edge23" class="edge">
<title>HomotopyGroup_pi_functor&#45;&gt;HomotopyGroup_pi1_functor</title>
<path fill="none" stroke="black" d="M739.39,-419.78C758.72,-391.68 791.78,-333.36 771,-287.4 753.06,-247.73 712.96,-216.66 682.98,-197.8"/>
<polygon fill="black" stroke="black" points="684.79,-194.81 674.43,-192.58 681.14,-200.78 684.79,-194.81"/>
</g>
<!-- HomotopyGroup_pi_functor_type -->
<g id="node16" class="node">
<title>HomotopyGroup_pi_functor_type</title>
<g id="a_node16"><a xlink:href="HomotopyGroup.html#pi_functor_type" xlink:title="pi_functor_type">
<ellipse fill="#f070d1" stroke="black" cx="555" cy="-313.4" rx="82.59" ry="18"/>
<text text-anchor="middle" x="555" y="-309.7" font-family="Times,serif" font-size="14.00">pi_functor_type</text>
</a>
</g>
</g>
<!-- HomotopyGroup_pi_functor&#45;&gt;HomotopyGroup_pi_functor_type -->
<g id="edge24" class="edge">
<title>HomotopyGroup_pi_functor&#45;&gt;HomotopyGroup_pi_functor_type</title>
<path fill="none" stroke="black" d="M704.87,-420.7C674.75,-399.35 620.71,-361.01 586.41,-336.69"/>
<polygon fill="black" stroke="black" points="588.33,-333.75 578.15,-330.82 584.28,-339.46 588.33,-333.75"/>
</g>
<!-- HomotopyGroup_pi1_functor&#45;&gt;HomotopyGroup_Pi1 -->
<g id="edge25" class="edge">
<title>HomotopyGroup_pi1_functor&#45;&gt;HomotopyGroup_Pi1</title>
<path fill="none" stroke="black" d="M646,-158.18C646,-138.02 646,-104.37 646,-80.65"/>
<polygon fill="black" stroke="black" points="649.5,-80.54 646,-70.54 642.5,-80.54 649.5,-80.54"/>
</g>
<!-- HomotopyGroup_pi_functor_type_pmap&#45;&gt;HomotopyGroup_pi_functor_type -->
<g id="edge26" class="edge">
<title>HomotopyGroup_pi_functor_type_pmap&#45;&gt;HomotopyGroup_pi_functor_type</title>
<path fill="none" stroke="black" d="M495.59,-419.44C507.17,-398.98 526.74,-364.36 540.24,-340.5"/>
<polygon fill="black" stroke="black" points="543.39,-342.04 545.26,-331.62 537.3,-338.6 543.39,-342.04"/>
</g>
<!-- HomotopyGroup_pi_functor_type_pmap&#45;&gt;HomotopyGroup_HomotopyGroup_type_ptype -->
<g id="edge27" class="edge">
<title>HomotopyGroup_pi_functor_type_pmap&#45;&gt;HomotopyGroup_HomotopyGroup_type_ptype</title>
<path fill="none" stroke="black" d="M388.36,-428.45C273.8,-416.86 94.2,-390.86 53,-339.4 12.35,-288.64 93.21,-230.05 146.12,-199.13"/>
<polygon fill="black" stroke="black" points="148.06,-202.06 155,-194.05 144.58,-195.98 148.06,-202.06"/>
</g>
<!-- HomotopyGroup_pi_functor_type&#45;&gt;HomotopyGroup_Pi -->
<g id="edge28" class="edge">
<title>HomotopyGroup_pi_functor_type&#45;&gt;HomotopyGroup_Pi</title>
<path fill="none" stroke="black" d="M536.24,-295.85C508.26,-271.16 455.64,-224.73 425.25,-197.92"/>
<polygon fill="black" stroke="black" points="427.49,-195.22 417.67,-191.23 422.86,-200.47 427.49,-195.22"/>
</g>
<!-- HomotopyGroup_isabgroup_pi -->
<g id="node17" class="node">
<title>HomotopyGroup_isabgroup_pi</title>
<g id="a_node17"><a xlink:href="HomotopyGroup.html#isabgroup_pi" xlink:title="isabgroup_pi">
<ellipse fill="#f070d1" stroke="black" cx="254" cy="-313.4" rx="70.37" ry="18"/>
<ellipse fill="none" stroke="black" cx="254" cy="-313.4" rx="74.38" ry="22"/>
<ellipse fill="none" stroke="black" cx="254" cy="-313.4" rx="78.39" ry="26"/>
<text text-anchor="middle" x="254" y="-309.7" font-family="Times,serif" font-size="14.00">isabgroup_pi</text>
</a>
</g>
</g>
<!-- HomotopyGroup_isabgroup_pi&#45;&gt;HomotopyGroup_Pi -->
<g id="edge29" class="edge">
<title>HomotopyGroup_isabgroup_pi&#45;&gt;HomotopyGroup_Pi</title>
<path fill="none" stroke="black" d="M280.12,-288.58C308.09,-263.06 352.07,-222.95 378.85,-198.52"/>
<polygon fill="black" stroke="black" points="381.54,-200.8 386.57,-191.48 376.82,-195.63 381.54,-200.8"/>
</g>
<!-- HomotopyGroup_isabgroup_pi&#45;&gt;HomotopyGroup_HomotopyGroup_type_ptype -->
<g id="edge30" class="edge">
<title>HomotopyGroup_isabgroup_pi&#45;&gt;HomotopyGroup_HomotopyGroup_type_ptype</title>
<path fill="none" stroke="black" d="M241.71,-287.64C229.9,-263.85 212.13,-228.03 200.07,-203.73"/>
<polygon fill="black" stroke="black" points="203.17,-202.12 195.59,-194.72 196.9,-205.23 203.17,-202.12"/>
</g>
<!-- HomotopyGroup_pi_succ -->
<g id="node18" class="node">
<title>HomotopyGroup_pi_succ</title>
<g id="a_node18"><a xlink:href="HomotopyGroup.html#pi_succ" xlink:title="pi_succ">
<ellipse fill="#f070d1" stroke="black" cx="402" cy="-313.4" rx="44.36" ry="18"/>
<ellipse fill="none" stroke="black" cx="402" cy="-313.4" rx="48.38" ry="22"/>
<ellipse fill="none" stroke="black" cx="402" cy="-313.4" rx="52.39" ry="26"/>
<text text-anchor="middle" x="402" y="-309.7" font-family="Times,serif" font-size="14.00">pi_succ</text>
</a>
</g>
</g>
<!-- HomotopyGroup_pi_succ&#45;&gt;HomotopyGroup_Pi -->
<g id="edge31" class="edge">
<title>HomotopyGroup_pi_succ&#45;&gt;HomotopyGroup_Pi</title>
<path fill="none" stroke="black" d="M402,-287.33C402,-263.92 402,-229.06 402,-204.9"/>
<polygon fill="black" stroke="black" points="405.5,-204.64 402,-194.64 398.5,-204.64 405.5,-204.64"/>
</g>
<!-- HomotopyGroup_Pi&#45;&gt;HomotopyGroup_Pi1 -->
<g id="edge32" class="edge">
<title>HomotopyGroup_Pi&#45;&gt;HomotopyGroup_Pi1</title>
<path fill="none" stroke="black" d="M423.23,-164.79C466.69,-143.06 565.92,-93.45 615.96,-68.42"/>
<polygon fill="black" stroke="black" points="617.62,-71.51 625,-63.91 614.49,-65.25 617.62,-71.51"/>
</g>
<!-- HomotopyGroup_HomotopyGroup_type -->
<g id="node22" class="node">
<title>HomotopyGroup_HomotopyGroup_type</title>
<g id="a_node22"><a xlink:href="HomotopyGroup.html#HomotopyGroup_type" xlink:title="HomotopyGroup_type">
<ellipse fill="#f070d1" stroke="black" cx="294" cy="-52.4" rx="112.38" ry="18"/>
<text text-anchor="middle" x="294" y="-48.7" font-family="Times,serif" font-size="14.00">HomotopyGroup_type</text>
</a>
</g>
</g>
<!-- HomotopyGroup_Pi&#45;&gt;HomotopyGroup_HomotopyGroup_type -->
<g id="edge33" class="edge">
<title>HomotopyGroup_Pi&#45;&gt;HomotopyGroup_HomotopyGroup_type</title>
<path fill="none" stroke="black" d="M388.76,-160.44C370.56,-139.89 337.61,-102.66 315.76,-77.98"/>
<polygon fill="black" stroke="black" points="318.34,-75.62 309.09,-70.45 313.1,-80.26 318.34,-75.62"/>
</g>
<!-- HomotopyGroup_HomotopyGroup_type_ptype&#45;&gt;HomotopyGroup_HomotopyGroup_type -->
<g id="edge34" class="edge">
<title>HomotopyGroup_HomotopyGroup_type_ptype&#45;&gt;HomotopyGroup_HomotopyGroup_type</title>
<path fill="none" stroke="black" d="M201.88,-158.44C220.14,-137.62 251.26,-102.13 272.22,-78.24"/>
<polygon fill="black" stroke="black" points="274.94,-80.44 278.9,-70.62 269.68,-75.83 274.94,-80.44"/>
</g>
</g>
</svg>
