<?xml version="1.0" encoding="UTF-8" standalone="no"?>
<!DOCTYPE svg PUBLIC "-//W3C//DTD SVG 1.1//EN"
 "http://www.w3.org/Graphics/SVG/1.1/DTD/svg11.dtd">
<!-- Generated by graphviz version 2.43.0 (0)
 -->
<!-- Title: HoTT_Algebra_Rings_Z Pages: 1 -->
<svg width="1086pt" height="547pt"
 viewBox="0.00 0.00 1086.00 547.00" xmlns="http://www.w3.org/2000/svg" xmlns:xlink="http://www.w3.org/1999/xlink">
<g id="graph0" class="graph" transform="scale(1 1) rotate(0) translate(4 543)">
<title>HoTT_Algebra_Rings_Z</title>
<polygon fill="white" stroke="transparent" points="-4,4 -4,-543 1082,-543 1082,4 -4,4"/>
<g id="clust1" class="cluster">
<title>cluster_Z</title>
<polygon fill="#ffffc3" stroke="black" points="12.08,-8 12.08,-531 1065.92,-531 1065.92,-8 12.08,-8"/>
<text text-anchor="middle" x="25.08" y="-515.8" font-family="Times,serif" font-size="14.00">Z</text>
</g>
<!-- Z_isinitial_cring_Z -->
<g id="node1" class="node">
<title>Z_isinitial_cring_Z</title>
<g id="a_node1"><a xlink:href="Z.html#isinitial_cring_Z" xlink:title="isinitial_cring_Z">
<ellipse fill="#f070d1" stroke="black" cx="538.86" cy="-474" rx="84.49" ry="18"/>
<ellipse fill="none" stroke="black" cx="538.86" cy="-474" rx="88.49" ry="22"/>
<ellipse fill="none" stroke="black" cx="538.86" cy="-474" rx="92.49" ry="26"/>
<text text-anchor="middle" x="538.86" y="-470.3" font-family="Times,serif" font-size="14.00">isinitial_cring_Z</text>
</a>
</g>
</g>
<!-- Z_rng_homo_int -->
<g id="node2" class="node">
<title>Z_rng_homo_int</title>
<g id="a_node2"><a xlink:href="Z.html#rng_homo_int" xlink:title="rng_homo_int">
<ellipse fill="#f070d1" stroke="black" cx="538.86" cy="-394" rx="73.39" ry="18"/>
<text text-anchor="middle" x="538.86" y="-390.3" font-family="Times,serif" font-size="14.00">rng_homo_int</text>
</a>
</g>
</g>
<!-- Z_isinitial_cring_Z&#45;&gt;Z_rng_homo_int -->
<g id="edge1" class="edge">
<title>Z_isinitial_cring_Z&#45;&gt;Z_rng_homo_int</title>
<path fill="none" stroke="black" d="M538.86,-447.89C538.86,-439.84 538.86,-430.88 538.86,-422.66"/>
<polygon fill="black" stroke="black" points="542.36,-422.41 538.86,-412.41 535.36,-422.41 542.36,-422.41"/>
</g>
<!-- Z_issemigrouppreserving_cring_catamorphism_fun_mult -->
<g id="node3" class="node">
<title>Z_issemigrouppreserving_cring_catamorphism_fun_mult</title>
<g id="a_node3"><a xlink:href="Z.html#issemigrouppreserving_cring_catamorphism_fun_mult" xlink:title="issemigrouppreserving_cring_catamorphism_fun_mult">
<ellipse fill="#f070d1" stroke="black" cx="538.86" cy="-322" rx="262.65" ry="18"/>
<text text-anchor="middle" x="538.86" y="-318.3" font-family="Times,serif" font-size="14.00">issemigrouppreserving_cring_catamorphism_fun_mult</text>
</a>
</g>
</g>
<!-- Z_rng_homo_int&#45;&gt;Z_issemigrouppreserving_cring_catamorphism_fun_mult -->
<g id="edge2" class="edge">
<title>Z_rng_homo_int&#45;&gt;Z_issemigrouppreserving_cring_catamorphism_fun_mult</title>
<path fill="none" stroke="black" d="M538.86,-375.7C538.86,-367.98 538.86,-358.71 538.86,-350.11"/>
<polygon fill="black" stroke="black" points="542.36,-350.1 538.86,-340.1 535.36,-350.1 542.36,-350.1"/>
</g>
<!-- Z_cring_catamorphism_fun_pos_mult -->
<g id="node4" class="node">
<title>Z_cring_catamorphism_fun_pos_mult</title>
<g id="a_node4"><a xlink:href="Z.html#cring_catamorphism_fun_pos_mult" xlink:title="cring_catamorphism_fun_pos_mult">
<ellipse fill="#f070d1" stroke="black" cx="281.86" cy="-250" rx="170.87" ry="18"/>
<text text-anchor="middle" x="281.86" y="-246.3" font-family="Times,serif" font-size="14.00">cring_catamorphism_fun_pos_mult</text>
</a>
</g>
</g>
<!-- Z_issemigrouppreserving_cring_catamorphism_fun_mult&#45;&gt;Z_cring_catamorphism_fun_pos_mult -->
<g id="edge3" class="edge">
<title>Z_issemigrouppreserving_cring_catamorphism_fun_mult&#45;&gt;Z_cring_catamorphism_fun_pos_mult</title>
<path fill="none" stroke="black" d="M477.96,-304.41C439.64,-293.98 390.12,-280.49 350.43,-269.68"/>
<polygon fill="black" stroke="black" points="351.13,-266.24 340.56,-266.99 349.29,-272.99 351.13,-266.24"/>
</g>
<!-- Z_cring_catamorphism_fun_negate -->
<g id="node5" class="node">
<title>Z_cring_catamorphism_fun_negate</title>
<g id="a_node5"><a xlink:href="Z.html#cring_catamorphism_fun_negate" xlink:title="cring_catamorphism_fun_negate">
<ellipse fill="#f070d1" stroke="black" cx="810.86" cy="-250" rx="161.37" ry="18"/>
<text text-anchor="middle" x="810.86" y="-246.3" font-family="Times,serif" font-size="14.00">cring_catamorphism_fun_negate</text>
</a>
</g>
</g>
<!-- Z_issemigrouppreserving_cring_catamorphism_fun_mult&#45;&gt;Z_cring_catamorphism_fun_negate -->
<g id="edge4" class="edge">
<title>Z_issemigrouppreserving_cring_catamorphism_fun_mult&#45;&gt;Z_cring_catamorphism_fun_negate</title>
<path fill="none" stroke="black" d="M602.98,-304.5C644.21,-293.89 697.82,-280.09 740.27,-269.17"/>
<polygon fill="black" stroke="black" points="741.17,-272.55 749.98,-266.67 739.42,-265.77 741.17,-272.55"/>
</g>
<!-- Z_issemigrouppreserving_cring_catamorphism_fun_plus -->
<g id="node6" class="node">
<title>Z_issemigrouppreserving_cring_catamorphism_fun_plus</title>
<g id="a_node6"><a xlink:href="Z.html#issemigrouppreserving_cring_catamorphism_fun_plus" xlink:title="issemigrouppreserving_cring_catamorphism_fun_plus">
<ellipse fill="#f070d1" stroke="black" cx="538.86" cy="-178" rx="260.75" ry="18"/>
<text text-anchor="middle" x="538.86" y="-174.3" font-family="Times,serif" font-size="14.00">issemigrouppreserving_cring_catamorphism_fun_plus</text>
</a>
</g>
</g>
<!-- Z_cring_catamorphism_fun_pos_mult&#45;&gt;Z_issemigrouppreserving_cring_catamorphism_fun_plus -->
<g id="edge5" class="edge">
<title>Z_cring_catamorphism_fun_pos_mult&#45;&gt;Z_issemigrouppreserving_cring_catamorphism_fun_plus</title>
<path fill="none" stroke="black" d="M340.5,-233.03C378.55,-222.67 428.34,-209.1 468.51,-198.16"/>
<polygon fill="black" stroke="black" points="469.51,-201.52 478.24,-195.51 467.68,-194.76 469.51,-201.52"/>
</g>
<!-- Z_cring_catamorphism_fun_negate&#45;&gt;Z_issemigrouppreserving_cring_catamorphism_fun_plus -->
<g id="edge6" class="edge">
<title>Z_cring_catamorphism_fun_negate&#45;&gt;Z_issemigrouppreserving_cring_catamorphism_fun_plus</title>
<path fill="none" stroke="black" d="M749.82,-233.29C709.28,-222.86 655.81,-209.1 612.85,-198.04"/>
<polygon fill="black" stroke="black" points="613.57,-194.61 603.01,-195.51 611.83,-201.39 613.57,-194.61"/>
</g>
<!-- Z_cring_catamorphism_fun -->
<g id="node7" class="node">
<title>Z_cring_catamorphism_fun</title>
<g id="a_node7"><a xlink:href="Z.html#cring_catamorphism_fun" xlink:title="cring_catamorphism_fun">
<ellipse fill="#f070d1" stroke="black" cx="538.86" cy="-106" rx="124.58" ry="18"/>
<text text-anchor="middle" x="538.86" y="-102.3" font-family="Times,serif" font-size="14.00">cring_catamorphism_fun</text>
</a>
</g>
</g>
<!-- Z_issemigrouppreserving_cring_catamorphism_fun_plus&#45;&gt;Z_cring_catamorphism_fun -->
<g id="edge7" class="edge">
<title>Z_issemigrouppreserving_cring_catamorphism_fun_plus&#45;&gt;Z_cring_catamorphism_fun</title>
<path fill="none" stroke="black" d="M538.86,-159.7C538.86,-151.98 538.86,-142.71 538.86,-134.11"/>
<polygon fill="black" stroke="black" points="542.36,-134.1 538.86,-124.1 535.36,-134.1 542.36,-134.1"/>
</g>
<!-- Z_cring_Z -->
<g id="node8" class="node">
<title>Z_cring_Z</title>
<g id="a_node8"><a xlink:href="Z.html#cring_Z" xlink:title="cring_Z">
<ellipse fill="#f070d1" stroke="black" cx="538.86" cy="-34" rx="45.49" ry="18"/>
<text text-anchor="middle" x="538.86" y="-30.3" font-family="Times,serif" font-size="14.00">cring_Z</text>
</a>
</g>
</g>
<!-- Z_cring_catamorphism_fun&#45;&gt;Z_cring_Z -->
<g id="edge8" class="edge">
<title>Z_cring_catamorphism_fun&#45;&gt;Z_cring_Z</title>
<path fill="none" stroke="black" d="M538.86,-87.7C538.86,-79.98 538.86,-70.71 538.86,-62.11"/>
<polygon fill="black" stroke="black" points="542.36,-62.1 538.86,-52.1 535.36,-62.1 542.36,-62.1"/>
</g>
</g>
</svg>
