<?xml version="1.0" encoding="UTF-8" standalone="no"?>
<!DOCTYPE svg PUBLIC "-//W3C//DTD SVG 1.1//EN"
 "http://www.w3.org/Graphics/SVG/1.1/DTD/svg11.dtd">
<!-- Generated by graphviz version 2.43.0 (0)
 -->
<!-- Title: HoTT_WildCat_Prod Pages: 1 -->
<svg width="974pt" height="491pt"
 viewBox="0.00 0.00 974.00 491.00" xmlns="http://www.w3.org/2000/svg" xmlns:xlink="http://www.w3.org/1999/xlink">
<g id="graph0" class="graph" transform="scale(1 1) rotate(0) translate(4 487)">
<title>HoTT_WildCat_Prod</title>
<polygon fill="white" stroke="transparent" points="-4,4 -4,-487 970,-487 970,4 -4,4"/>
<g id="clust1" class="cluster">
<title>cluster_Prod</title>
<polygon fill="#ffffc3" stroke="black" points="16.69,-8 16.69,-475 949.31,-475 949.31,-8 16.69,-8"/>
<text text-anchor="middle" x="41.69" y="-459.8" font-family="Times,serif" font-size="14.00">Prod</text>
</g>
<!-- Prod_emap11 -->
<g id="node1" class="node">
<title>Prod_emap11</title>
<g id="a_node1"><a xlink:href="Prod.html#emap11" xlink:title="emap11">
<ellipse fill="#f070d1" stroke="black" cx="816.13" cy="-418" rx="48.18" ry="18"/>
<ellipse fill="none" stroke="black" cx="816.13" cy="-418" rx="52.18" ry="22"/>
<ellipse fill="none" stroke="black" cx="816.13" cy="-418" rx="56.19" ry="26"/>
<text text-anchor="middle" x="816.13" y="-414.3" font-family="Times,serif" font-size="14.00">emap11</text>
</a>
</g>
</g>
<!-- Prod_hasequivs_prod -->
<g id="node5" class="node">
<title>Prod_hasequivs_prod</title>
<g id="a_node5"><a xlink:href="Prod.html#hasequivs_prod" xlink:title="hasequivs_prod">
<ellipse fill="#f070d1" stroke="black" cx="557.13" cy="-330" rx="83.39" ry="18"/>
<text text-anchor="middle" x="557.13" y="-326.3" font-family="Times,serif" font-size="14.00">hasequivs_prod</text>
</a>
</g>
</g>
<!-- Prod_emap11&#45;&gt;Prod_hasequivs_prod -->
<g id="edge1" class="edge">
<title>Prod_emap11&#45;&gt;Prod_hasequivs_prod</title>
<path fill="none" stroke="black" d="M771.31,-402.12C726.48,-387.23 657.53,-364.34 610.03,-348.57"/>
<polygon fill="black" stroke="black" points="611.13,-345.24 600.54,-345.41 608.93,-351.89 611.13,-345.24"/>
</g>
<!-- Prod_iemap11 -->
<g id="node2" class="node">
<title>Prod_iemap11</title>
<g id="a_node2"><a xlink:href="Prod.html#iemap11" xlink:title="iemap11">
<ellipse fill="#f070d1" stroke="black" cx="156.13" cy="-418" rx="50.86" ry="18"/>
<ellipse fill="none" stroke="black" cx="156.13" cy="-418" rx="54.88" ry="22"/>
<ellipse fill="none" stroke="black" cx="156.13" cy="-418" rx="58.89" ry="26"/>
<text text-anchor="middle" x="156.13" y="-414.3" font-family="Times,serif" font-size="14.00">iemap11</text>
</a>
</g>
</g>
<!-- Prod_iemap11&#45;&gt;Prod_hasequivs_prod -->
<g id="edge2" class="edge">
<title>Prod_iemap11&#45;&gt;Prod_hasequivs_prod</title>
<path fill="none" stroke="black" d="M208.14,-405.85C280.39,-390.35 411.15,-362.31 490.47,-345.3"/>
<polygon fill="black" stroke="black" points="491.32,-348.69 500.36,-343.17 489.85,-341.85 491.32,-348.69"/>
</g>
<!-- Prod_fmap11 -->
<g id="node8" class="node">
<title>Prod_fmap11</title>
<g id="a_node8"><a xlink:href="Prod.html#fmap11" xlink:title="fmap11">
<ellipse fill="#f070d1" stroke="black" cx="154.13" cy="-250" rx="46.29" ry="18"/>
<text text-anchor="middle" x="154.13" y="-246.3" font-family="Times,serif" font-size="14.00">fmap11</text>
</a>
</g>
</g>
<!-- Prod_iemap11&#45;&gt;Prod_fmap11 -->
<g id="edge3" class="edge">
<title>Prod_iemap11&#45;&gt;Prod_fmap11</title>
<path fill="none" stroke="black" d="M155.83,-391.79C155.46,-361.28 154.84,-310.1 154.46,-278.57"/>
<polygon fill="black" stroke="black" points="157.96,-278.26 154.34,-268.3 150.96,-278.35 157.96,-278.26"/>
</g>
<!-- Prod_fmap22 -->
<g id="node3" class="node">
<title>Prod_fmap22</title>
<g id="a_node3"><a xlink:href="Prod.html#fmap22" xlink:title="fmap22">
<ellipse fill="#f070d1" stroke="black" cx="234.13" cy="-330" rx="46.27" ry="18"/>
<ellipse fill="none" stroke="black" cx="234.13" cy="-330" rx="50.28" ry="22"/>
<ellipse fill="none" stroke="black" cx="234.13" cy="-330" rx="54.29" ry="26"/>
<text text-anchor="middle" x="234.13" y="-326.3" font-family="Times,serif" font-size="14.00">fmap22</text>
</a>
</g>
</g>
<!-- Prod_is1cat_prod -->
<g id="node6" class="node">
<title>Prod_is1cat_prod</title>
<g id="a_node6"><a xlink:href="Prod.html#is1cat_prod" xlink:title="is1cat_prod">
<ellipse fill="#f070d1" stroke="black" cx="421.13" cy="-250" rx="64.19" ry="18"/>
<text text-anchor="middle" x="421.13" y="-246.3" font-family="Times,serif" font-size="14.00">is1cat_prod</text>
</a>
</g>
</g>
<!-- Prod_fmap22&#45;&gt;Prod_is1cat_prod -->
<g id="edge4" class="edge">
<title>Prod_fmap22&#45;&gt;Prod_is1cat_prod</title>
<path fill="none" stroke="black" d="M274.25,-312.27C304.59,-299.61 346.22,-282.25 377.41,-269.24"/>
<polygon fill="black" stroke="black" points="378.85,-272.43 386.73,-265.35 376.15,-265.97 378.85,-272.43"/>
</g>
<!-- Prod_fmap22&#45;&gt;Prod_fmap11 -->
<g id="edge5" class="edge">
<title>Prod_fmap22&#45;&gt;Prod_fmap11</title>
<path fill="none" stroke="black" d="M210.99,-306.44C200.59,-296.3 188.34,-284.35 177.87,-274.14"/>
<polygon fill="black" stroke="black" points="180.22,-271.55 170.61,-267.07 175.33,-276.56 180.22,-271.55"/>
</g>
<!-- Prod_isequivs_prod -->
<g id="node4" class="node">
<title>Prod_isequivs_prod</title>
<g id="a_node4"><a xlink:href="Prod.html#isequivs_prod" xlink:title="isequivs_prod">
<ellipse fill="#f070d1" stroke="black" cx="488.13" cy="-418" rx="74.96" ry="18"/>
<ellipse fill="none" stroke="black" cx="488.13" cy="-418" rx="78.98" ry="22"/>
<ellipse fill="none" stroke="black" cx="488.13" cy="-418" rx="82.99" ry="26"/>
<text text-anchor="middle" x="488.13" y="-414.3" font-family="Times,serif" font-size="14.00">isequivs_prod</text>
</a>
</g>
</g>
<!-- Prod_isequivs_prod&#45;&gt;Prod_hasequivs_prod -->
<g id="edge6" class="edge">
<title>Prod_isequivs_prod&#45;&gt;Prod_hasequivs_prod</title>
<path fill="none" stroke="black" d="M507.72,-392.59C516.95,-381.08 527.95,-367.37 537.22,-355.81"/>
<polygon fill="black" stroke="black" points="540.09,-357.83 543.62,-347.84 534.63,-353.45 540.09,-357.83"/>
</g>
<!-- Prod_hasequivs_prod&#45;&gt;Prod_is1cat_prod -->
<g id="edge7" class="edge">
<title>Prod_hasequivs_prod&#45;&gt;Prod_is1cat_prod</title>
<path fill="none" stroke="black" d="M529.28,-313.03C508.38,-301.04 479.6,-284.53 456.98,-271.56"/>
<polygon fill="black" stroke="black" points="458.43,-268.36 448.02,-266.42 454.95,-274.43 458.43,-268.36"/>
</g>
<!-- Prod_is0gpd_prod -->
<g id="node7" class="node">
<title>Prod_is0gpd_prod</title>
<g id="a_node7"><a xlink:href="Prod.html#is0gpd_prod" xlink:title="is0gpd_prod">
<ellipse fill="#f070d1" stroke="black" cx="411.13" cy="-178" rx="67.69" ry="18"/>
<text text-anchor="middle" x="411.13" y="-174.3" font-family="Times,serif" font-size="14.00">is0gpd_prod</text>
</a>
</g>
</g>
<!-- Prod_is1cat_prod&#45;&gt;Prod_is0gpd_prod -->
<g id="edge8" class="edge">
<title>Prod_is1cat_prod&#45;&gt;Prod_is0gpd_prod</title>
<path fill="none" stroke="black" d="M418.66,-231.7C417.56,-223.98 416.23,-214.71 415,-206.11"/>
<polygon fill="black" stroke="black" points="418.45,-205.51 413.57,-196.1 411.52,-206.5 418.45,-205.51"/>
</g>
<!-- Prod_is01cat_prod -->
<g id="node9" class="node">
<title>Prod_is01cat_prod</title>
<g id="a_node9"><a xlink:href="Prod.html#is01cat_prod" xlink:title="is01cat_prod">
<ellipse fill="#f070d1" stroke="black" cx="390.13" cy="-106" rx="70.39" ry="18"/>
<text text-anchor="middle" x="390.13" y="-102.3" font-family="Times,serif" font-size="14.00">is01cat_prod</text>
</a>
</g>
</g>
<!-- Prod_is0gpd_prod&#45;&gt;Prod_is01cat_prod -->
<g id="edge9" class="edge">
<title>Prod_is0gpd_prod&#45;&gt;Prod_is01cat_prod</title>
<path fill="none" stroke="black" d="M405.94,-159.7C403.6,-151.9 400.78,-142.51 398.18,-133.83"/>
<polygon fill="black" stroke="black" points="401.49,-132.68 395.26,-124.1 394.78,-134.69 401.49,-132.68"/>
</g>
<!-- Prod_isgraph_prod -->
<g id="node10" class="node">
<title>Prod_isgraph_prod</title>
<g id="a_node10"><a xlink:href="Prod.html#isgraph_prod" xlink:title="isgraph_prod">
<ellipse fill="#f070d1" stroke="black" cx="279.13" cy="-34" rx="71.49" ry="18"/>
<text text-anchor="middle" x="279.13" y="-30.3" font-family="Times,serif" font-size="14.00">isgraph_prod</text>
</a>
</g>
</g>
<!-- Prod_fmap11&#45;&gt;Prod_isgraph_prod -->
<g id="edge10" class="edge">
<title>Prod_fmap11&#45;&gt;Prod_isgraph_prod</title>
<path fill="none" stroke="black" d="M163.94,-232.21C185.7,-194.95 238.14,-105.17 264.08,-60.76"/>
<polygon fill="black" stroke="black" points="267.17,-62.41 269.19,-52.01 261.13,-58.88 267.17,-62.41"/>
</g>
<!-- Prod_is01cat_prod&#45;&gt;Prod_isgraph_prod -->
<g id="edge11" class="edge">
<title>Prod_is01cat_prod&#45;&gt;Prod_isgraph_prod</title>
<path fill="none" stroke="black" d="M364.94,-89.12C349.72,-79.52 330.12,-67.15 313.49,-56.67"/>
<polygon fill="black" stroke="black" points="314.93,-53.44 304.6,-51.06 311.19,-59.36 314.93,-53.44"/>
</g>
</g>
</svg>
