<?xml version="1.0" encoding="UTF-8" standalone="no"?>
<!DOCTYPE svg PUBLIC "-//W3C//DTD SVG 1.1//EN"
 "http://www.w3.org/Graphics/SVG/1.1/DTD/svg11.dtd">
<!-- Generated by graphviz version 2.43.0 (0)
 -->
<!-- Title: HoTT_Algebra_AbGroups_Abelianization Pages: 1 -->
<svg width="2446pt" height="1227pt"
 viewBox="0.00 0.00 2446.00 1227.00" xmlns="http://www.w3.org/2000/svg" xmlns:xlink="http://www.w3.org/1999/xlink">
<g id="graph0" class="graph" transform="scale(1 1) rotate(0) translate(4 1223)">
<title>HoTT_Algebra_AbGroups_Abelianization</title>
<polygon fill="white" stroke="transparent" points="-4,4 -4,-1223 2442,-1223 2442,4 -4,4"/>
<g id="clust1" class="cluster">
<title>cluster_Abelianization</title>
<polygon fill="#ffffc3" stroke="black" points="23.19,-8 23.19,-1211 2414.81,-1211 2414.81,-8 23.19,-8"/>
<text text-anchor="middle" x="82.19" y="-1195.8" font-family="Times,serif" font-size="14.00">Abelianization</text>
</g>
<!-- Abelianization_isequiv_abgroup_abelianization -->
<g id="node1" class="node">
<title>Abelianization_isequiv_abgroup_abelianization</title>
<g id="a_node1"><a xlink:href="Abelianization.html#isequiv_abgroup_abelianization" xlink:title="isequiv_abgroup_abelianization">
<ellipse fill="#f070d1" stroke="black" cx="1629.38" cy="-1154" rx="155.97" ry="18"/>
<ellipse fill="none" stroke="black" cx="1629.38" cy="-1154" rx="159.97" ry="22"/>
<ellipse fill="none" stroke="black" cx="1629.38" cy="-1154" rx="163.97" ry="26"/>
<text text-anchor="middle" x="1629.38" y="-1150.3" font-family="Times,serif" font-size="14.00">isequiv_abgroup_abelianization</text>
</a>
</g>
</g>
<!-- Abelianization_isabelianization_identity -->
<g id="node2" class="node">
<title>Abelianization_isabelianization_identity</title>
<g id="a_node2"><a xlink:href="Abelianization.html#isabelianization_identity" xlink:title="isabelianization_identity">
<ellipse fill="#f070d1" stroke="black" cx="2029.38" cy="-1002" rx="124.28" ry="18"/>
<text text-anchor="middle" x="2029.38" y="-998.3" font-family="Times,serif" font-size="14.00">isabelianization_identity</text>
</a>
</g>
</g>
<!-- Abelianization_isequiv_abgroup_abelianization&#45;&gt;Abelianization_isabelianization_identity -->
<g id="edge1" class="edge">
<title>Abelianization_isequiv_abgroup_abelianization&#45;&gt;Abelianization_isabelianization_identity</title>
<path fill="none" stroke="black" d="M1691.01,-1129.89C1769.45,-1100.48 1903.58,-1050.17 1977.21,-1022.56"/>
<polygon fill="black" stroke="black" points="1978.62,-1025.78 1986.75,-1018.99 1976.16,-1019.22 1978.62,-1025.78"/>
</g>
<!-- Abelianization_homotopic_isabelianization -->
<g id="node4" class="node">
<title>Abelianization_homotopic_isabelianization</title>
<g id="a_node4"><a xlink:href="Abelianization.html#homotopic_isabelianization" xlink:title="homotopic_isabelianization">
<ellipse fill="#f070d1" stroke="black" cx="1342.38" cy="-1074" rx="135.68" ry="18"/>
<text text-anchor="middle" x="1342.38" y="-1070.3" font-family="Times,serif" font-size="14.00">homotopic_isabelianization</text>
</a>
</g>
</g>
<!-- Abelianization_isequiv_abgroup_abelianization&#45;&gt;Abelianization_homotopic_isabelianization -->
<g id="edge2" class="edge">
<title>Abelianization_isequiv_abgroup_abelianization&#45;&gt;Abelianization_homotopic_isabelianization</title>
<path fill="none" stroke="black" d="M1549.44,-1131.27C1505.21,-1119.25 1450.9,-1104.49 1409,-1093.1"/>
<polygon fill="black" stroke="black" points="1409.74,-1089.68 1399.17,-1090.43 1407.9,-1096.43 1409.74,-1089.68"/>
</g>
<!-- Abelianization_IsAbelianization -->
<g id="node35" class="node">
<title>Abelianization_IsAbelianization</title>
<g id="a_node35"><a xlink:href="Abelianization.html#IsAbelianization" xlink:title="IsAbelianization">
<ellipse fill="#f070d1" stroke="black" cx="1582.38" cy="-858" rx="85.29" ry="18"/>
<text text-anchor="middle" x="1582.38" y="-854.3" font-family="Times,serif" font-size="14.00">IsAbelianization</text>
</a>
</g>
</g>
<!-- Abelianization_isabelianization_identity&#45;&gt;Abelianization_IsAbelianization -->
<g id="edge3" class="edge">
<title>Abelianization_isabelianization_identity&#45;&gt;Abelianization_IsAbelianization</title>
<path fill="none" stroke="black" d="M1980.27,-985.4C1896.19,-958.69 1725.28,-904.39 1637.35,-876.46"/>
<polygon fill="black" stroke="black" points="1638.15,-873.04 1627.56,-873.35 1636.03,-879.72 1638.15,-873.04"/>
</g>
<!-- Abelianization_issurj_isabelianization -->
<g id="node3" class="node">
<title>Abelianization_issurj_isabelianization</title>
<g id="a_node3"><a xlink:href="Abelianization.html#issurj_isabelianization" xlink:title="issurj_isabelianization">
<ellipse fill="#f070d1" stroke="black" cx="585.38" cy="-1154" rx="113.96" ry="18"/>
<ellipse fill="none" stroke="black" cx="585.38" cy="-1154" rx="117.97" ry="22"/>
<ellipse fill="none" stroke="black" cx="585.38" cy="-1154" rx="121.98" ry="26"/>
<text text-anchor="middle" x="585.38" y="-1150.3" font-family="Times,serif" font-size="14.00">issurj_isabelianization</text>
</a>
</g>
</g>
<!-- Abelianization_issurj_isabelianization&#45;&gt;Abelianization_homotopic_isabelianization -->
<g id="edge4" class="edge">
<title>Abelianization_issurj_isabelianization&#45;&gt;Abelianization_homotopic_isabelianization</title>
<path fill="none" stroke="black" d="M693.44,-1141.87C835.46,-1127.23 1083.82,-1101.64 1228.62,-1086.72"/>
<polygon fill="black" stroke="black" points="1229.28,-1090.17 1238.86,-1085.67 1228.56,-1083.21 1229.28,-1090.17"/>
</g>
<!-- Abelianization_isabelianization_abel -->
<g id="node6" class="node">
<title>Abelianization_isabelianization_abel</title>
<g id="a_node6"><a xlink:href="Abelianization.html#isabelianization_abel" xlink:title="isabelianization_abel">
<ellipse fill="#f070d1" stroke="black" cx="585.38" cy="-1074" rx="107.48" ry="18"/>
<text text-anchor="middle" x="585.38" y="-1070.3" font-family="Times,serif" font-size="14.00">isabelianization_abel</text>
</a>
</g>
</g>
<!-- Abelianization_issurj_isabelianization&#45;&gt;Abelianization_isabelianization_abel -->
<g id="edge5" class="edge">
<title>Abelianization_issurj_isabelianization&#45;&gt;Abelianization_isabelianization_abel</title>
<path fill="none" stroke="black" d="M585.38,-1127.89C585.38,-1119.84 585.38,-1110.88 585.38,-1102.66"/>
<polygon fill="black" stroke="black" points="588.88,-1102.41 585.38,-1092.41 581.88,-1102.41 588.88,-1102.41"/>
</g>
<!-- Abelianization_issurj_ab -->
<g id="node9" class="node">
<title>Abelianization_issurj_ab</title>
<g id="a_node9"><a xlink:href="Abelianization.html#issurj_ab" xlink:title="issurj_ab">
<ellipse fill="#f070d1" stroke="black" cx="205.38" cy="-858" rx="51.99" ry="18"/>
<text text-anchor="middle" x="205.38" y="-854.3" font-family="Times,serif" font-size="14.00">issurj_ab</text>
</a>
</g>
</g>
<!-- Abelianization_issurj_isabelianization&#45;&gt;Abelianization_issurj_ab -->
<g id="edge6" class="edge">
<title>Abelianization_issurj_isabelianization&#45;&gt;Abelianization_issurj_ab</title>
<path fill="none" stroke="black" d="M535.62,-1130.11C514.53,-1119.59 490.08,-1106.27 469.38,-1092 372.57,-1025.25 272.18,-927.25 228.26,-882.66"/>
<polygon fill="black" stroke="black" points="230.72,-880.16 221.22,-875.47 225.72,-885.06 230.72,-880.16"/>
</g>
<!-- Abelianization_groupiso_isabelianization -->
<g id="node5" class="node">
<title>Abelianization_groupiso_isabelianization</title>
<g id="a_node5"><a xlink:href="Abelianization.html#groupiso_isabelianization" xlink:title="groupiso_isabelianization">
<ellipse fill="#f070d1" stroke="black" cx="1246.38" cy="-1002" rx="128.08" ry="18"/>
<text text-anchor="middle" x="1246.38" y="-998.3" font-family="Times,serif" font-size="14.00">groupiso_isabelianization</text>
</a>
</g>
</g>
<!-- Abelianization_homotopic_isabelianization&#45;&gt;Abelianization_groupiso_isabelianization -->
<g id="edge7" class="edge">
<title>Abelianization_homotopic_isabelianization&#45;&gt;Abelianization_groupiso_isabelianization</title>
<path fill="none" stroke="black" d="M1319.14,-1056.05C1306.64,-1046.94 1291.06,-1035.58 1277.52,-1025.71"/>
<polygon fill="black" stroke="black" points="1279.55,-1022.85 1269.41,-1019.79 1275.43,-1028.51 1279.55,-1022.85"/>
</g>
<!-- Abelianization_isequiv0gpd_isabel -->
<g id="node34" class="node">
<title>Abelianization_isequiv0gpd_isabel</title>
<g id="a_node34"><a xlink:href="Abelianization.html#isequiv0gpd_isabel" xlink:title="isequiv0gpd_isabel">
<ellipse fill="#f070d1" stroke="black" cx="1293.38" cy="-930" rx="98.58" ry="18"/>
<text text-anchor="middle" x="1293.38" y="-926.3" font-family="Times,serif" font-size="14.00">isequiv0gpd_isabel</text>
</a>
</g>
</g>
<!-- Abelianization_groupiso_isabelianization&#45;&gt;Abelianization_isequiv0gpd_isabel -->
<g id="edge8" class="edge">
<title>Abelianization_groupiso_isabelianization&#45;&gt;Abelianization_isequiv0gpd_isabel</title>
<path fill="none" stroke="black" d="M1257.76,-984.05C1263.28,-975.84 1270.02,-965.79 1276.15,-956.66"/>
<polygon fill="black" stroke="black" points="1279.12,-958.53 1281.78,-948.28 1273.3,-954.63 1279.12,-958.53"/>
</g>
<!-- Abelianization_abel_unit -->
<g id="node7" class="node">
<title>Abelianization_abel_unit</title>
<g id="a_node7"><a xlink:href="Abelianization.html#abel_unit" xlink:title="abel_unit">
<ellipse fill="#f070d1" stroke="black" cx="585.38" cy="-1002" rx="53.09" ry="18"/>
<text text-anchor="middle" x="585.38" y="-998.3" font-family="Times,serif" font-size="14.00">abel_unit</text>
</a>
</g>
</g>
<!-- Abelianization_isabelianization_abel&#45;&gt;Abelianization_abel_unit -->
<g id="edge9" class="edge">
<title>Abelianization_isabelianization_abel&#45;&gt;Abelianization_abel_unit</title>
<path fill="none" stroke="black" d="M585.38,-1055.7C585.38,-1047.98 585.38,-1038.71 585.38,-1030.11"/>
<polygon fill="black" stroke="black" points="588.88,-1030.1 585.38,-1020.1 581.88,-1030.1 588.88,-1030.1"/>
</g>
<!-- Abelianization_isabelianization_abel&#45;&gt;Abelianization_IsAbelianization -->
<g id="edge10" class="edge">
<title>Abelianization_isabelianization_abel&#45;&gt;Abelianization_IsAbelianization</title>
<path fill="none" stroke="black" d="M633.49,-1057.81C734.66,-1026.37 977.31,-953.62 1185.38,-912 1291.47,-890.78 1415.26,-875.77 1496.04,-867.27"/>
<polygon fill="black" stroke="black" points="1496.58,-870.73 1506.16,-866.21 1495.85,-863.77 1496.58,-870.73"/>
</g>
<!-- Abelianization_abel -->
<g id="node8" class="node">
<title>Abelianization_abel</title>
<g id="a_node8"><a xlink:href="Abelianization.html#abel" xlink:title="abel">
<ellipse fill="#f070d1" stroke="black" cx="649.38" cy="-930" rx="30.59" ry="18"/>
<text text-anchor="middle" x="649.38" y="-926.3" font-family="Times,serif" font-size="14.00">abel</text>
</a>
</g>
</g>
<!-- Abelianization_abel_unit&#45;&gt;Abelianization_abel -->
<g id="edge11" class="edge">
<title>Abelianization_abel_unit&#45;&gt;Abelianization_abel</title>
<path fill="none" stroke="black" d="M600.55,-984.41C608.83,-975.35 619.22,-963.99 628.28,-954.08"/>
<polygon fill="black" stroke="black" points="631.04,-956.25 635.2,-946.51 625.87,-951.53 631.04,-956.25"/>
</g>
<!-- Abelianization_issemigrouppreserving_ab -->
<g id="node10" class="node">
<title>Abelianization_issemigrouppreserving_ab</title>
<g id="a_node10"><a xlink:href="Abelianization.html#issemigrouppreserving_ab" xlink:title="issemigrouppreserving_ab">
<ellipse fill="#f070d1" stroke="black" cx="492.38" cy="-786" rx="133.78" ry="18"/>
<text text-anchor="middle" x="492.38" y="-782.3" font-family="Times,serif" font-size="14.00">issemigrouppreserving_ab</text>
</a>
</g>
</g>
<!-- Abelianization_abel_unit&#45;&gt;Abelianization_issemigrouppreserving_ab -->
<g id="edge12" class="edge">
<title>Abelianization_abel_unit&#45;&gt;Abelianization_issemigrouppreserving_ab</title>
<path fill="none" stroke="black" d="M577.93,-983.85C561.74,-946.6 523.27,-858.07 503.92,-813.54"/>
<polygon fill="black" stroke="black" points="507.07,-812.01 499.87,-804.23 500.65,-814.8 507.07,-812.01"/>
</g>
<!-- Abelianization_isabgroup_abel -->
<g id="node11" class="node">
<title>Abelianization_isabgroup_abel</title>
<g id="a_node11"><a xlink:href="Abelianization.html#isabgroup_abel" xlink:title="isabgroup_abel">
<ellipse fill="#f070d1" stroke="black" cx="904.38" cy="-858" rx="81.49" ry="18"/>
<text text-anchor="middle" x="904.38" y="-854.3" font-family="Times,serif" font-size="14.00">isabgroup_abel</text>
</a>
</g>
</g>
<!-- Abelianization_abel&#45;&gt;Abelianization_isabgroup_abel -->
<g id="edge13" class="edge">
<title>Abelianization_abel&#45;&gt;Abelianization_isabgroup_abel</title>
<path fill="none" stroke="black" d="M676.67,-921.51C716.75,-910.51 792.5,-889.71 845.59,-875.14"/>
<polygon fill="black" stroke="black" points="846.84,-878.43 855.56,-872.4 844.99,-871.68 846.84,-878.43"/>
</g>
<!-- Abelianization_Abel_ind_hprop -->
<g id="node25" class="node">
<title>Abelianization_Abel_ind_hprop</title>
<g id="a_node25"><a xlink:href="Abelianization.html#Abel_ind_hprop" xlink:title="Abel_ind_hprop">
<ellipse fill="#f070d1" stroke="black" cx="342.38" cy="-402" rx="81.79" ry="18"/>
<text text-anchor="middle" x="342.38" y="-398.3" font-family="Times,serif" font-size="14.00">Abel_ind_hprop</text>
</a>
</g>
</g>
<!-- Abelianization_issurj_ab&#45;&gt;Abelianization_Abel_ind_hprop -->
<g id="edge14" class="edge">
<title>Abelianization_issurj_ab&#45;&gt;Abelianization_Abel_ind_hprop</title>
<path fill="none" stroke="black" d="M171.92,-844.15C126.08,-824.1 49.38,-780.74 49.38,-715 49.38,-715 49.38,-715 49.38,-569 49.38,-470.48 176.33,-429.74 263.1,-413.39"/>
<polygon fill="black" stroke="black" points="263.73,-416.84 272.95,-411.61 262.48,-409.95 263.73,-416.84"/>
</g>
<!-- Abelianization_abel_sgop -->
<g id="node23" class="node">
<title>Abelianization_abel_sgop</title>
<g id="a_node23"><a xlink:href="Abelianization.html#abel_sgop" xlink:title="abel_sgop">
<ellipse fill="#f070d1" stroke="black" cx="733.38" cy="-490" rx="56.59" ry="18"/>
<text text-anchor="middle" x="733.38" y="-486.3" font-family="Times,serif" font-size="14.00">abel_sgop</text>
</a>
</g>
</g>
<!-- Abelianization_issemigrouppreserving_ab&#45;&gt;Abelianization_abel_sgop -->
<g id="edge15" class="edge">
<title>Abelianization_issemigrouppreserving_ab&#45;&gt;Abelianization_abel_sgop</title>
<path fill="none" stroke="black" d="M451.11,-768.75C393.77,-743.41 300.07,-690.43 328.38,-624 346.5,-581.49 362.27,-573.09 403.38,-552 487.33,-508.94 597.12,-495.95 666.47,-492.22"/>
<polygon fill="black" stroke="black" points="667,-495.69 676.82,-491.71 666.66,-488.7 667,-495.69"/>
</g>
<!-- Abelianization_isgroup_abel -->
<g id="node12" class="node">
<title>Abelianization_isgroup_abel</title>
<g id="a_node12"><a xlink:href="Abelianization.html#isgroup_abel" xlink:title="isgroup_abel">
<ellipse fill="#f070d1" stroke="black" cx="1133.38" cy="-786" rx="69.59" ry="18"/>
<text text-anchor="middle" x="1133.38" y="-782.3" font-family="Times,serif" font-size="14.00">isgroup_abel</text>
</a>
</g>
</g>
<!-- Abelianization_isabgroup_abel&#45;&gt;Abelianization_isgroup_abel -->
<g id="edge16" class="edge">
<title>Abelianization_isabgroup_abel&#45;&gt;Abelianization_isgroup_abel</title>
<path fill="none" stroke="black" d="M949.9,-843.09C987.54,-831.58 1041.03,-815.23 1080.55,-803.15"/>
<polygon fill="black" stroke="black" points="1081.74,-806.45 1090.28,-800.18 1079.69,-799.75 1081.74,-806.45"/>
</g>
<!-- Abelianization_abel_rightinverse -->
<g id="node13" class="node">
<title>Abelianization_abel_rightinverse</title>
<g id="a_node13"><a xlink:href="Abelianization.html#abel_rightinverse" xlink:title="abel_rightinverse">
<ellipse fill="#f070d1" stroke="black" cx="2116.38" cy="-714" rx="91.78" ry="18"/>
<text text-anchor="middle" x="2116.38" y="-710.3" font-family="Times,serif" font-size="14.00">abel_rightinverse</text>
</a>
</g>
</g>
<!-- Abelianization_isgroup_abel&#45;&gt;Abelianization_abel_rightinverse -->
<g id="edge17" class="edge">
<title>Abelianization_isgroup_abel&#45;&gt;Abelianization_abel_rightinverse</title>
<path fill="none" stroke="black" d="M1199.41,-780.3C1369.6,-768.18 1823.75,-735.84 2021.82,-721.73"/>
<polygon fill="black" stroke="black" points="2022.19,-725.22 2031.91,-721.02 2021.69,-718.23 2022.19,-725.22"/>
</g>
<!-- Abelianization_abel_leftinverse -->
<g id="node14" class="node">
<title>Abelianization_abel_leftinverse</title>
<g id="a_node14"><a xlink:href="Abelianization.html#abel_leftinverse" xlink:title="abel_leftinverse">
<ellipse fill="#f070d1" stroke="black" cx="1553.38" cy="-714" rx="84.49" ry="18"/>
<text text-anchor="middle" x="1553.38" y="-710.3" font-family="Times,serif" font-size="14.00">abel_leftinverse</text>
</a>
</g>
</g>
<!-- Abelianization_isgroup_abel&#45;&gt;Abelianization_abel_leftinverse -->
<g id="edge18" class="edge">
<title>Abelianization_isgroup_abel&#45;&gt;Abelianization_abel_leftinverse</title>
<path fill="none" stroke="black" d="M1190.46,-775.49C1265.18,-763.03 1396.29,-741.18 1478.79,-727.43"/>
<polygon fill="black" stroke="black" points="1479.56,-730.85 1488.85,-725.76 1478.41,-723.95 1479.56,-730.85"/>
</g>
<!-- Abelianization_ismonoid_abel -->
<g id="node17" class="node">
<title>Abelianization_ismonoid_abel</title>
<g id="a_node17"><a xlink:href="Abelianization.html#ismonoid_abel" xlink:title="ismonoid_abel">
<ellipse fill="#f070d1" stroke="black" cx="1023.38" cy="-714" rx="76.89" ry="18"/>
<text text-anchor="middle" x="1023.38" y="-710.3" font-family="Times,serif" font-size="14.00">ismonoid_abel</text>
</a>
</g>
</g>
<!-- Abelianization_isgroup_abel&#45;&gt;Abelianization_ismonoid_abel -->
<g id="edge19" class="edge">
<title>Abelianization_isgroup_abel&#45;&gt;Abelianization_ismonoid_abel</title>
<path fill="none" stroke="black" d="M1108.42,-769.12C1093.34,-759.52 1073.91,-747.15 1057.43,-736.67"/>
<polygon fill="black" stroke="black" points="1058.94,-733.48 1048.63,-731.06 1055.18,-739.39 1058.94,-733.48"/>
</g>
<!-- Abelianization_abel_negate -->
<g id="node15" class="node">
<title>Abelianization_abel_negate</title>
<g id="a_node15"><a xlink:href="Abelianization.html#abel_negate" xlink:title="abel_negate">
<ellipse fill="#f070d1" stroke="black" cx="2200.38" cy="-642" rx="66.09" ry="18"/>
<text text-anchor="middle" x="2200.38" y="-638.3" font-family="Times,serif" font-size="14.00">abel_negate</text>
</a>
</g>
</g>
<!-- Abelianization_abel_rightinverse&#45;&gt;Abelianization_abel_negate -->
<g id="edge20" class="edge">
<title>Abelianization_abel_rightinverse&#45;&gt;Abelianization_abel_negate</title>
<path fill="none" stroke="black" d="M2136.29,-696.41C2147.25,-687.28 2161.01,-675.81 2172.97,-665.84"/>
<polygon fill="black" stroke="black" points="2175.47,-668.32 2180.91,-659.23 2170.99,-662.94 2175.47,-668.32"/>
</g>
<!-- Abelianization_abel_mon_unit -->
<g id="node20" class="node">
<title>Abelianization_abel_mon_unit</title>
<g id="a_node20"><a xlink:href="Abelianization.html#abel_mon_unit" xlink:title="abel_mon_unit">
<ellipse fill="#f070d1" stroke="black" cx="1565.38" cy="-570" rx="77.19" ry="18"/>
<text text-anchor="middle" x="1565.38" y="-566.3" font-family="Times,serif" font-size="14.00">abel_mon_unit</text>
</a>
</g>
</g>
<!-- Abelianization_abel_rightinverse&#45;&gt;Abelianization_abel_mon_unit -->
<g id="edge21" class="edge">
<title>Abelianization_abel_rightinverse&#45;&gt;Abelianization_abel_mon_unit</title>
<path fill="none" stroke="black" d="M2063.3,-699.32C1960.12,-672.73 1733.15,-614.24 1624.98,-586.36"/>
<polygon fill="black" stroke="black" points="1625.76,-582.95 1615.21,-583.84 1624.02,-589.72 1625.76,-582.95"/>
</g>
<!-- Abelianization_abel_leftinverse&#45;&gt;Abelianization_abel_negate -->
<g id="edge22" class="edge">
<title>Abelianization_abel_leftinverse&#45;&gt;Abelianization_abel_negate</title>
<path fill="none" stroke="black" d="M1626.97,-705.04C1752.45,-691.46 2006.18,-664.01 2129.67,-650.65"/>
<polygon fill="black" stroke="black" points="2130.21,-654.11 2139.77,-649.56 2129.45,-647.15 2130.21,-654.11"/>
</g>
<!-- Abelianization_abel_leftinverse&#45;&gt;Abelianization_abel_mon_unit -->
<g id="edge23" class="edge">
<title>Abelianization_abel_leftinverse&#45;&gt;Abelianization_abel_mon_unit</title>
<path fill="none" stroke="black" d="M1619.89,-702.72C1645.05,-695.24 1671.25,-682.32 1686.38,-660 1695.36,-646.76 1695.14,-637.39 1686.38,-624 1674.14,-605.27 1653.66,-593.12 1632.99,-585.25"/>
<polygon fill="black" stroke="black" points="1634.11,-581.94 1623.51,-581.93 1631.79,-588.54 1634.11,-581.94"/>
</g>
<!-- Abelianization_abel_commutative -->
<g id="node16" class="node">
<title>Abelianization_abel_commutative</title>
<g id="a_node16"><a xlink:href="Abelianization.html#abel_commutative" xlink:title="abel_commutative">
<ellipse fill="#f070d1" stroke="black" cx="2116.38" cy="-570" rx="94.78" ry="18"/>
<text text-anchor="middle" x="2116.38" y="-566.3" font-family="Times,serif" font-size="14.00">abel_commutative</text>
</a>
</g>
</g>
<!-- Abelianization_abel_negate&#45;&gt;Abelianization_abel_commutative -->
<g id="edge24" class="edge">
<title>Abelianization_abel_negate&#45;&gt;Abelianization_abel_commutative</title>
<path fill="none" stroke="black" d="M2180.9,-624.76C2170.03,-615.71 2156.31,-604.27 2144.31,-594.28"/>
<polygon fill="black" stroke="black" points="2146.27,-591.35 2136.34,-587.63 2141.78,-596.72 2146.27,-591.35"/>
</g>
<!-- Abelianization_abel_commutative&#45;&gt;Abelianization_abel_sgop -->
<g id="edge25" class="edge">
<title>Abelianization_abel_commutative&#45;&gt;Abelianization_abel_sgop</title>
<path fill="none" stroke="black" d="M2026.97,-563.96C1768.44,-549.38 1024.1,-507.4 798.78,-494.69"/>
<polygon fill="black" stroke="black" points="798.95,-491.19 788.77,-494.12 798.55,-498.18 798.95,-491.19"/>
</g>
<!-- Abelianization_abel_rightidentity -->
<g id="node18" class="node">
<title>Abelianization_abel_rightidentity</title>
<g id="a_node18"><a xlink:href="Abelianization.html#abel_rightidentity" xlink:title="abel_rightidentity">
<ellipse fill="#f070d1" stroke="black" cx="1017.38" cy="-642" rx="93.68" ry="18"/>
<text text-anchor="middle" x="1017.38" y="-638.3" font-family="Times,serif" font-size="14.00">abel_rightidentity</text>
</a>
</g>
</g>
<!-- Abelianization_ismonoid_abel&#45;&gt;Abelianization_abel_rightidentity -->
<g id="edge26" class="edge">
<title>Abelianization_ismonoid_abel&#45;&gt;Abelianization_abel_rightidentity</title>
<path fill="none" stroke="black" d="M1021.9,-695.7C1021.24,-687.98 1020.44,-678.71 1019.71,-670.11"/>
<polygon fill="black" stroke="black" points="1023.19,-669.77 1018.85,-660.1 1016.22,-670.37 1023.19,-669.77"/>
</g>
<!-- Abelianization_abel_leftidentity -->
<g id="node19" class="node">
<title>Abelianization_abel_leftidentity</title>
<g id="a_node19"><a xlink:href="Abelianization.html#abel_leftidentity" xlink:title="abel_leftidentity">
<ellipse fill="#f070d1" stroke="black" cx="1591.38" cy="-642" rx="86.38" ry="18"/>
<text text-anchor="middle" x="1591.38" y="-638.3" font-family="Times,serif" font-size="14.00">abel_leftidentity</text>
</a>
</g>
</g>
<!-- Abelianization_ismonoid_abel&#45;&gt;Abelianization_abel_leftidentity -->
<g id="edge27" class="edge">
<title>Abelianization_ismonoid_abel&#45;&gt;Abelianization_abel_leftidentity</title>
<path fill="none" stroke="black" d="M1089.65,-704.83C1193.76,-692 1395.43,-667.15 1508.82,-653.17"/>
<polygon fill="black" stroke="black" points="1509.34,-656.64 1518.84,-651.94 1508.49,-649.69 1509.34,-656.64"/>
</g>
<!-- Abelianization_abel_issemigroup -->
<g id="node21" class="node">
<title>Abelianization_abel_issemigroup</title>
<g id="a_node21"><a xlink:href="Abelianization.html#abel_issemigroup" xlink:title="abel_issemigroup">
<ellipse fill="#f070d1" stroke="black" cx="429.38" cy="-642" rx="91.78" ry="18"/>
<text text-anchor="middle" x="429.38" y="-638.3" font-family="Times,serif" font-size="14.00">abel_issemigroup</text>
</a>
</g>
</g>
<!-- Abelianization_ismonoid_abel&#45;&gt;Abelianization_abel_issemigroup -->
<g id="edge28" class="edge">
<title>Abelianization_ismonoid_abel&#45;&gt;Abelianization_abel_issemigroup</title>
<path fill="none" stroke="black" d="M956.4,-705.11C848.35,-692.37 635.64,-667.31 516.14,-653.22"/>
<polygon fill="black" stroke="black" points="516.28,-649.72 505.93,-652.02 515.46,-656.67 516.28,-649.72"/>
</g>
<!-- Abelianization_abel_rightidentity&#45;&gt;Abelianization_abel_mon_unit -->
<g id="edge29" class="edge">
<title>Abelianization_abel_rightidentity&#45;&gt;Abelianization_abel_mon_unit</title>
<path fill="none" stroke="black" d="M1093,-631.34C1197.29,-618.02 1384.21,-594.14 1488.93,-580.77"/>
<polygon fill="black" stroke="black" points="1489.63,-584.2 1499.11,-579.47 1488.75,-577.26 1489.63,-584.2"/>
</g>
<!-- Abelianization_abel_rightidentity&#45;&gt;Abelianization_abel_sgop -->
<g id="edge30" class="edge">
<title>Abelianization_abel_rightidentity&#45;&gt;Abelianization_abel_sgop</title>
<path fill="none" stroke="black" d="M986.99,-624.95C934.53,-597.24 827.18,-540.54 770.44,-510.57"/>
<polygon fill="black" stroke="black" points="771.93,-507.4 761.45,-505.82 768.66,-513.59 771.93,-507.4"/>
</g>
<!-- Abelianization_abel_leftidentity&#45;&gt;Abelianization_abel_mon_unit -->
<g id="edge31" class="edge">
<title>Abelianization_abel_leftidentity&#45;&gt;Abelianization_abel_mon_unit</title>
<path fill="none" stroke="black" d="M1584.96,-623.7C1582.03,-615.81 1578.5,-606.3 1575.24,-597.55"/>
<polygon fill="black" stroke="black" points="1578.5,-596.26 1571.74,-588.1 1571.94,-598.7 1578.5,-596.26"/>
</g>
<!-- Abelianization_abel_leftidentity&#45;&gt;Abelianization_abel_sgop -->
<g id="edge32" class="edge">
<title>Abelianization_abel_leftidentity&#45;&gt;Abelianization_abel_sgop</title>
<path fill="none" stroke="black" d="M1527.59,-629.85C1366.82,-601.74 946.79,-528.31 791.88,-501.23"/>
<polygon fill="black" stroke="black" points="792.08,-497.71 781.62,-499.43 790.87,-504.6 792.08,-497.71"/>
</g>
<!-- Abelianization_ab -->
<g id="node31" class="node">
<title>Abelianization_ab</title>
<g id="a_node31"><a xlink:href="Abelianization.html#ab" xlink:title="ab">
<ellipse fill="#f070d1" stroke="black" cx="1011.38" cy="-178" rx="27" ry="18"/>
<text text-anchor="middle" x="1011.38" y="-174.3" font-family="Times,serif" font-size="14.00">ab</text>
</a>
</g>
</g>
<!-- Abelianization_abel_mon_unit&#45;&gt;Abelianization_ab -->
<g id="edge33" class="edge">
<title>Abelianization_abel_mon_unit&#45;&gt;Abelianization_ab</title>
<path fill="none" stroke="black" d="M1614.87,-556.09C1680.57,-535.61 1788.38,-488.91 1788.38,-403 1788.38,-403 1788.38,-403 1788.38,-321 1788.38,-244.84 1203.18,-193.92 1048.51,-181.79"/>
<polygon fill="black" stroke="black" points="1048.37,-178.27 1038.13,-180.99 1047.83,-185.25 1048.37,-178.27"/>
</g>
<!-- Abelianization_abel_sgop_associative -->
<g id="node22" class="node">
<title>Abelianization_abel_sgop_associative</title>
<g id="a_node22"><a xlink:href="Abelianization.html#abel_sgop_associative" xlink:title="abel_sgop_associative">
<ellipse fill="#f070d1" stroke="black" cx="524.38" cy="-570" rx="112.38" ry="18"/>
<text text-anchor="middle" x="524.38" y="-566.3" font-family="Times,serif" font-size="14.00">abel_sgop_associative</text>
</a>
</g>
</g>
<!-- Abelianization_abel_issemigroup&#45;&gt;Abelianization_abel_sgop_associative -->
<g id="edge34" class="edge">
<title>Abelianization_abel_issemigroup&#45;&gt;Abelianization_abel_sgop_associative</title>
<path fill="none" stroke="black" d="M451.9,-624.41C464.35,-615.24 480,-603.7 493.57,-593.71"/>
<polygon fill="black" stroke="black" points="495.73,-596.46 501.7,-587.71 491.57,-590.83 495.73,-596.46"/>
</g>
<!-- Abelianization_abel_sgop_associative&#45;&gt;Abelianization_abel_sgop -->
<g id="edge35" class="edge">
<title>Abelianization_abel_sgop_associative&#45;&gt;Abelianization_abel_sgop</title>
<path fill="none" stroke="black" d="M566.68,-553.22C602,-540.03 652.24,-521.28 688.32,-507.82"/>
<polygon fill="black" stroke="black" points="689.95,-510.95 698.09,-504.17 687.5,-504.39 689.95,-510.95"/>
</g>
<!-- Abelianization_abel_sgop&#45;&gt;Abelianization_Abel_ind_hprop -->
<g id="edge36" class="edge">
<title>Abelianization_abel_sgop&#45;&gt;Abelianization_Abel_ind_hprop</title>
<path fill="none" stroke="black" d="M688.15,-479.05C619.23,-463.89 487.58,-434.94 408.11,-417.46"/>
<polygon fill="black" stroke="black" points="408.72,-414.01 398.2,-415.28 407.22,-420.84 408.72,-414.01"/>
</g>
<!-- Abelianization_Abel_rec -->
<g id="node26" class="node">
<title>Abelianization_Abel_rec</title>
<g id="a_node26"><a xlink:href="Abelianization.html#Abel_rec" xlink:title="Abel_rec">
<ellipse fill="#f070d1" stroke="black" cx="1588.38" cy="-402" rx="50.09" ry="18"/>
<text text-anchor="middle" x="1588.38" y="-398.3" font-family="Times,serif" font-size="14.00">Abel_rec</text>
</a>
</g>
</g>
<!-- Abelianization_abel_sgop&#45;&gt;Abelianization_Abel_rec -->
<g id="edge37" class="edge">
<title>Abelianization_abel_sgop&#45;&gt;Abelianization_Abel_rec</title>
<path fill="none" stroke="black" d="M786.54,-483.65C938.45,-468.37 1373.55,-424.61 1530.8,-408.79"/>
<polygon fill="black" stroke="black" points="1531.15,-412.27 1540.75,-407.79 1530.45,-405.31 1531.15,-412.27"/>
</g>
<!-- Abelianization_istrunc_abel -->
<g id="node29" class="node">
<title>Abelianization_istrunc_abel</title>
<g id="a_node29"><a xlink:href="Abelianization.html#istrunc_abel" xlink:title="istrunc_abel">
<ellipse fill="#f070d1" stroke="black" cx="432.38" cy="-322" rx="67.69" ry="18"/>
<text text-anchor="middle" x="432.38" y="-318.3" font-family="Times,serif" font-size="14.00">istrunc_abel</text>
</a>
</g>
</g>
<!-- Abelianization_abel_sgop&#45;&gt;Abelianization_istrunc_abel -->
<g id="edge38" class="edge">
<title>Abelianization_abel_sgop&#45;&gt;Abelianization_istrunc_abel</title>
<path fill="none" stroke="black" d="M677.83,-486.04C557.08,-479.02 279.23,-459.6 251.38,-428 236.1,-410.66 237.53,-394.5 251.38,-376 265.42,-357.26 320.26,-342.92 365.93,-333.91"/>
<polygon fill="black" stroke="black" points="366.65,-337.33 375.82,-332.01 365.34,-330.46 366.65,-337.33"/>
</g>
<!-- Abelianization_Abel_rec_hprop -->
<g id="node24" class="node">
<title>Abelianization_Abel_rec_hprop</title>
<g id="a_node24"><a xlink:href="Abelianization.html#Abel_rec_hprop" xlink:title="Abel_rec_hprop">
<ellipse fill="#f070d1" stroke="black" cx="1472.38" cy="-490" rx="81.8" ry="18"/>
<ellipse fill="none" stroke="black" cx="1472.38" cy="-490" rx="85.79" ry="22"/>
<ellipse fill="none" stroke="black" cx="1472.38" cy="-490" rx="89.79" ry="26"/>
<text text-anchor="middle" x="1472.38" y="-486.3" font-family="Times,serif" font-size="14.00">Abel_rec_hprop</text>
</a>
</g>
</g>
<!-- Abelianization_Abel_rec_hprop&#45;&gt;Abelianization_Abel_rec -->
<g id="edge39" class="edge">
<title>Abelianization_Abel_rec_hprop&#45;&gt;Abelianization_Abel_rec</title>
<path fill="none" stroke="black" d="M1504.08,-465.5C1521.22,-452.8 1542.24,-437.21 1559.01,-424.78"/>
<polygon fill="black" stroke="black" points="1561.39,-427.37 1567.34,-418.6 1557.22,-421.74 1561.39,-427.37"/>
</g>
<!-- Abelianization_Abel_ind -->
<g id="node28" class="node">
<title>Abelianization_Abel_ind</title>
<g id="a_node28"><a xlink:href="Abelianization.html#Abel_ind" xlink:title="Abel_ind">
<ellipse fill="#f070d1" stroke="black" cx="1011.38" cy="-322" rx="50.09" ry="18"/>
<text text-anchor="middle" x="1011.38" y="-318.3" font-family="Times,serif" font-size="14.00">Abel_ind</text>
</a>
</g>
</g>
<!-- Abelianization_Abel_ind_hprop&#45;&gt;Abelianization_Abel_ind -->
<g id="edge40" class="edge">
<title>Abelianization_Abel_ind_hprop&#45;&gt;Abelianization_Abel_ind</title>
<path fill="none" stroke="black" d="M413.03,-392.76C546.19,-377.24 831.88,-343.93 954.05,-329.68"/>
<polygon fill="black" stroke="black" points="954.78,-333.12 964.31,-328.49 953.97,-326.17 954.78,-333.12"/>
</g>
<!-- Abelianization_Abel_rec&#45;&gt;Abelianization_Abel_ind -->
<g id="edge41" class="edge">
<title>Abelianization_Abel_rec&#45;&gt;Abelianization_Abel_ind</title>
<path fill="none" stroke="black" d="M1542.14,-394.75C1437.24,-380.57 1181.55,-346 1067.69,-330.61"/>
<polygon fill="black" stroke="black" points="1067.82,-327.1 1057.44,-329.23 1066.89,-334.03 1067.82,-327.1"/>
</g>
<!-- Abelianization_Abel_ind_beta_ab_comm -->
<g id="node27" class="node">
<title>Abelianization_Abel_ind_beta_ab_comm</title>
<g id="a_node27"><a xlink:href="Abelianization.html#Abel_ind_beta_ab_comm" xlink:title="Abel_ind_beta_ab_comm">
<ellipse fill="#f070d1" stroke="black" cx="1011.38" cy="-402" rx="122.69" ry="18"/>
<ellipse fill="none" stroke="black" cx="1011.38" cy="-402" rx="126.68" ry="22"/>
<ellipse fill="none" stroke="black" cx="1011.38" cy="-402" rx="130.68" ry="26"/>
<text text-anchor="middle" x="1011.38" y="-398.3" font-family="Times,serif" font-size="14.00">Abel_ind_beta_ab_comm</text>
</a>
</g>
</g>
<!-- Abelianization_Abel_ind_beta_ab_comm&#45;&gt;Abelianization_Abel_ind -->
<g id="edge42" class="edge">
<title>Abelianization_Abel_ind_beta_ab_comm&#45;&gt;Abelianization_Abel_ind</title>
<path fill="none" stroke="black" d="M1011.38,-375.89C1011.38,-367.84 1011.38,-358.88 1011.38,-350.66"/>
<polygon fill="black" stroke="black" points="1014.88,-350.41 1011.38,-340.41 1007.88,-350.41 1014.88,-350.41"/>
</g>
<!-- Abelianization_ab_comm -->
<g id="node30" class="node">
<title>Abelianization_ab_comm</title>
<g id="a_node30"><a xlink:href="Abelianization.html#ab_comm" xlink:title="ab_comm">
<ellipse fill="#f070d1" stroke="black" cx="1011.38" cy="-250" rx="53.89" ry="18"/>
<text text-anchor="middle" x="1011.38" y="-246.3" font-family="Times,serif" font-size="14.00">ab_comm</text>
</a>
</g>
</g>
<!-- Abelianization_Abel_ind&#45;&gt;Abelianization_ab_comm -->
<g id="edge43" class="edge">
<title>Abelianization_Abel_ind&#45;&gt;Abelianization_ab_comm</title>
<path fill="none" stroke="black" d="M1011.38,-303.7C1011.38,-295.98 1011.38,-286.71 1011.38,-278.11"/>
<polygon fill="black" stroke="black" points="1014.88,-278.1 1011.38,-268.1 1007.88,-278.1 1014.88,-278.1"/>
</g>
<!-- Abelianization_Abel -->
<g id="node32" class="node">
<title>Abelianization_Abel</title>
<g id="a_node32"><a xlink:href="Abelianization.html#Abel" xlink:title="Abel">
<ellipse fill="#f070d1" stroke="black" cx="814.38" cy="-106" rx="31.4" ry="18"/>
<text text-anchor="middle" x="814.38" y="-102.3" font-family="Times,serif" font-size="14.00">Abel</text>
</a>
</g>
</g>
<!-- Abelianization_istrunc_abel&#45;&gt;Abelianization_Abel -->
<g id="edge44" class="edge">
<title>Abelianization_istrunc_abel&#45;&gt;Abelianization_Abel</title>
<path fill="none" stroke="black" d="M460.16,-305.44C529.67,-266.5 710.71,-165.08 783.45,-124.33"/>
<polygon fill="black" stroke="black" points="785.56,-127.16 792.58,-119.22 782.14,-121.05 785.56,-127.16"/>
</g>
<!-- Abelianization_ab_comm&#45;&gt;Abelianization_ab -->
<g id="edge45" class="edge">
<title>Abelianization_ab_comm&#45;&gt;Abelianization_ab</title>
<path fill="none" stroke="black" d="M1011.38,-231.7C1011.38,-223.98 1011.38,-214.71 1011.38,-206.11"/>
<polygon fill="black" stroke="black" points="1014.88,-206.1 1011.38,-196.1 1007.88,-206.1 1014.88,-206.1"/>
</g>
<!-- Abelianization_ab&#45;&gt;Abelianization_Abel -->
<g id="edge46" class="edge">
<title>Abelianization_ab&#45;&gt;Abelianization_Abel</title>
<path fill="none" stroke="black" d="M988.01,-168.7C953.81,-156.54 889.86,-133.82 849.84,-119.6"/>
<polygon fill="black" stroke="black" points="850.81,-116.23 840.22,-116.18 848.47,-122.83 850.81,-116.23"/>
</g>
<!-- Abelianization_uncurry2 -->
<g id="node33" class="node">
<title>Abelianization_uncurry2</title>
<g id="a_node33"><a xlink:href="Abelianization.html#uncurry2" xlink:title="uncurry2">
<ellipse fill="#f070d1" stroke="black" cx="814.38" cy="-34" rx="53.09" ry="18"/>
<text text-anchor="middle" x="814.38" y="-30.3" font-family="Times,serif" font-size="14.00">uncurry2</text>
</a>
</g>
</g>
<!-- Abelianization_Abel&#45;&gt;Abelianization_uncurry2 -->
<g id="edge47" class="edge">
<title>Abelianization_Abel&#45;&gt;Abelianization_uncurry2</title>
<path fill="none" stroke="black" d="M814.38,-87.7C814.38,-79.98 814.38,-70.71 814.38,-62.11"/>
<polygon fill="black" stroke="black" points="817.88,-62.1 814.38,-52.1 810.88,-62.1 817.88,-62.1"/>
</g>
<!-- Abelianization_isequiv0gpd_isabel&#45;&gt;Abelianization_IsAbelianization -->
<g id="edge48" class="edge">
<title>Abelianization_isequiv0gpd_isabel&#45;&gt;Abelianization_IsAbelianization</title>
<path fill="none" stroke="black" d="M1350.14,-915.25C1398.68,-903.5 1468.49,-886.59 1518.88,-874.38"/>
<polygon fill="black" stroke="black" points="1519.8,-877.76 1528.69,-872.01 1518.15,-870.96 1519.8,-877.76"/>
</g>
<!-- Abelianization_group_precomp -->
<g id="node36" class="node">
<title>Abelianization_group_precomp</title>
<g id="a_node36"><a xlink:href="Abelianization.html#group_precomp" xlink:title="group_precomp">
<ellipse fill="#f070d1" stroke="black" cx="1629.38" cy="-786" rx="83.39" ry="18"/>
<text text-anchor="middle" x="1629.38" y="-782.3" font-family="Times,serif" font-size="14.00">group_precomp</text>
</a>
</g>
</g>
<!-- Abelianization_IsAbelianization&#45;&gt;Abelianization_group_precomp -->
<g id="edge49" class="edge">
<title>Abelianization_IsAbelianization&#45;&gt;Abelianization_group_precomp</title>
<path fill="none" stroke="black" d="M1593.76,-840.05C1599.28,-831.84 1606.02,-821.79 1612.15,-812.66"/>
<polygon fill="black" stroke="black" points="1615.12,-814.53 1617.78,-804.28 1609.3,-810.63 1615.12,-814.53"/>
</g>
</g>
</svg>
