<?xml version="1.0" encoding="UTF-8" standalone="no"?>
<!DOCTYPE svg PUBLIC "-//W3C//DTD SVG 1.1//EN"
 "http://www.w3.org/Graphics/SVG/1.1/DTD/svg11.dtd">
<!-- Generated by graphviz version 2.43.0 (0)
 -->
<!-- Title: HoTT_Truncations_Connectedness Pages: 1 -->
<svg width="2464pt" height="1236pt"
 viewBox="0.00 0.00 2464.00 1236.00" xmlns="http://www.w3.org/2000/svg" xmlns:xlink="http://www.w3.org/1999/xlink">
<g id="graph0" class="graph" transform="scale(1 1) rotate(0) translate(4 1232)">
<title>HoTT_Truncations_Connectedness</title>
<polygon fill="white" stroke="transparent" points="-4,4 -4,-1232 2460,-1232 2460,4 -4,4"/>
<g id="clust1" class="cluster">
<title>cluster_Connectedness</title>
<polygon fill="#ffffc3" stroke="black" points="8,-23.9 8,-1204.1 2448,-1204.1 2448,-23.9 8,-23.9"/>
<text text-anchor="middle" x="70.5" y="-1188.9" font-family="Times,serif" font-size="14.00">Connectedness</text>
</g>
<!-- Connectedness_wedge_incl_elim_uncurried -->
<g id="node1" class="node">
<title>Connectedness_wedge_incl_elim_uncurried</title>
<g id="a_node1"><a xlink:href="Connectedness.html#wedge_incl_elim_uncurried" xlink:title="wedge_incl_elim_uncurried">
<ellipse fill="#f070d1" stroke="black" cx="2296" cy="-770.9" rx="135.69" ry="18"/>
<ellipse fill="none" stroke="black" cx="2296" cy="-770.9" rx="139.68" ry="22"/>
<ellipse fill="none" stroke="black" cx="2296" cy="-770.9" rx="143.68" ry="26"/>
<text text-anchor="middle" x="2296" y="-767.2" font-family="Times,serif" font-size="14.00">wedge_incl_elim_uncurried</text>
</a>
</g>
</g>
<!-- Connectedness_wedge_incl_elim -->
<g id="node5" class="node">
<title>Connectedness_wedge_incl_elim</title>
<g id="a_node5"><a xlink:href="Connectedness.html#wedge_incl_elim" xlink:title="wedge_incl_elim">
<ellipse fill="#f070d1" stroke="black" cx="2037" cy="-531.9" rx="86.38" ry="18"/>
<text text-anchor="middle" x="2037" y="-528.2" font-family="Times,serif" font-size="14.00">wedge_incl_elim</text>
</a>
</g>
</g>
<!-- Connectedness_wedge_incl_elim_uncurried&#45;&gt;Connectedness_wedge_incl_elim -->
<g id="edge1" class="edge">
<title>Connectedness_wedge_incl_elim_uncurried&#45;&gt;Connectedness_wedge_incl_elim</title>
<path fill="none" stroke="black" d="M2268.77,-744.99C2218.58,-699.06 2112.1,-601.62 2062.91,-556.61"/>
<polygon fill="black" stroke="black" points="2064.98,-553.77 2055.24,-549.6 2060.26,-558.93 2064.98,-553.77"/>
</g>
<!-- Connectedness_wedge_incl_comp3 -->
<g id="node2" class="node">
<title>Connectedness_wedge_incl_comp3</title>
<g id="a_node2"><a xlink:href="Connectedness.html#wedge_incl_comp3" xlink:title="wedge_incl_comp3">
<ellipse fill="#f070d1" stroke="black" cx="2335" cy="-1033.9" rx="96.7" ry="18"/>
<ellipse fill="none" stroke="black" cx="2335" cy="-1033.9" rx="100.69" ry="22"/>
<ellipse fill="none" stroke="black" cx="2335" cy="-1033.9" rx="104.68" ry="26"/>
<text text-anchor="middle" x="2335" y="-1030.2" font-family="Times,serif" font-size="14.00">wedge_incl_comp3</text>
</a>
</g>
</g>
<!-- Connectedness_wedge_incl_comp2 -->
<g id="node3" class="node">
<title>Connectedness_wedge_incl_comp2</title>
<g id="a_node3"><a xlink:href="Connectedness.html#wedge_incl_comp2" xlink:title="wedge_incl_comp2">
<ellipse fill="#f070d1" stroke="black" cx="1825" cy="-770.9" rx="96.68" ry="18"/>
<text text-anchor="middle" x="1825" y="-767.2" font-family="Times,serif" font-size="14.00">wedge_incl_comp2</text>
</a>
</g>
</g>
<!-- Connectedness_wedge_incl_comp3&#45;&gt;Connectedness_wedge_incl_comp2 -->
<g id="edge2" class="edge">
<title>Connectedness_wedge_incl_comp3&#45;&gt;Connectedness_wedge_incl_comp2</title>
<path fill="none" stroke="black" d="M2290.63,-1010.2C2192.72,-960.09 1959.36,-840.67 1865.31,-792.53"/>
<polygon fill="black" stroke="black" points="1866.89,-789.41 1856.39,-787.97 1863.7,-795.64 1866.89,-789.41"/>
</g>
<!-- Connectedness_wedge_incl_comp1 -->
<g id="node4" class="node">
<title>Connectedness_wedge_incl_comp1</title>
<g id="a_node4"><a xlink:href="Connectedness.html#wedge_incl_comp1" xlink:title="wedge_incl_comp1">
<ellipse fill="#f070d1" stroke="black" cx="2037" cy="-770.9" rx="96.68" ry="18"/>
<text text-anchor="middle" x="2037" y="-767.2" font-family="Times,serif" font-size="14.00">wedge_incl_comp1</text>
</a>
</g>
</g>
<!-- Connectedness_wedge_incl_comp3&#45;&gt;Connectedness_wedge_incl_comp1 -->
<g id="edge3" class="edge">
<title>Connectedness_wedge_incl_comp3&#45;&gt;Connectedness_wedge_incl_comp1</title>
<path fill="none" stroke="black" d="M2307.23,-1008.58C2250.22,-958.65 2120.58,-845.1 2064.12,-795.65"/>
<polygon fill="black" stroke="black" points="2066.17,-792.79 2056.34,-788.84 2061.55,-798.06 2066.17,-792.79"/>
</g>
<!-- Connectedness_wedge_incl_comp2&#45;&gt;Connectedness_wedge_incl_elim -->
<g id="edge4" class="edge">
<title>Connectedness_wedge_incl_comp2&#45;&gt;Connectedness_wedge_incl_elim</title>
<path fill="none" stroke="black" d="M1840.25,-752.86C1877.3,-711.44 1972.18,-605.36 2015.21,-557.27"/>
<polygon fill="black" stroke="black" points="2017.83,-559.58 2021.89,-549.79 2012.62,-554.91 2017.83,-559.58"/>
</g>
<!-- Connectedness_wedge_incl_comp1&#45;&gt;Connectedness_wedge_incl_elim -->
<g id="edge5" class="edge">
<title>Connectedness_wedge_incl_comp1&#45;&gt;Connectedness_wedge_incl_elim</title>
<path fill="none" stroke="black" d="M2037,-752.86C2037,-712.3 2037,-609.78 2037,-560.36"/>
<polygon fill="black" stroke="black" points="2040.5,-560.11 2037,-550.11 2033.5,-560.11 2040.5,-560.11"/>
</g>
<!-- Connectedness_isconn_wedge_incl -->
<g id="node6" class="node">
<title>Connectedness_isconn_wedge_incl</title>
<g id="a_node6"><a xlink:href="Connectedness.html#isconn_wedge_incl" xlink:title="isconn_wedge_incl">
<ellipse fill="#f070d1" stroke="black" cx="2037" cy="-316.9" rx="96.38" ry="18"/>
<text text-anchor="middle" x="2037" y="-313.2" font-family="Times,serif" font-size="14.00">isconn_wedge_incl</text>
</a>
</g>
</g>
<!-- Connectedness_wedge_incl_elim&#45;&gt;Connectedness_isconn_wedge_incl -->
<g id="edge6" class="edge">
<title>Connectedness_wedge_incl_elim&#45;&gt;Connectedness_isconn_wedge_incl</title>
<path fill="none" stroke="black" d="M2037,-513.83C2037,-476.99 2037,-389.75 2037,-345.16"/>
<polygon fill="black" stroke="black" points="2040.5,-345.05 2037,-335.05 2033.5,-345.05 2040.5,-345.05"/>
</g>
<!-- Connectedness_conn_point_incl -->
<g id="node17" class="node">
<title>Connectedness_conn_point_incl</title>
<g id="a_node17"><a xlink:href="Connectedness.html#conn_point_incl" xlink:title="conn_point_incl">
<ellipse fill="#f070d1" stroke="black" cx="1912" cy="-101.9" rx="81.79" ry="18"/>
<text text-anchor="middle" x="1912" y="-98.2" font-family="Times,serif" font-size="14.00">conn_point_incl</text>
</a>
</g>
</g>
<!-- Connectedness_isconn_wedge_incl&#45;&gt;Connectedness_conn_point_incl -->
<g id="edge7" class="edge">
<title>Connectedness_isconn_wedge_incl&#45;&gt;Connectedness_conn_point_incl</title>
<path fill="none" stroke="black" d="M2026.98,-298.83C2005.13,-261.6 1953.08,-172.9 1927.18,-128.76"/>
<polygon fill="black" stroke="black" points="1930.15,-126.91 1922.07,-120.05 1924.11,-130.45 1930.15,-126.91"/>
</g>
<!-- Connectedness_istrunc_extension_along_conn -->
<g id="node20" class="node">
<title>Connectedness_istrunc_extension_along_conn</title>
<g id="a_node20"><a xlink:href="Connectedness.html#istrunc_extension_along_conn" xlink:title="istrunc_extension_along_conn">
<ellipse fill="#f070d1" stroke="black" cx="2161" cy="-101.9" rx="148.67" ry="18"/>
<text text-anchor="middle" x="2161" y="-98.2" font-family="Times,serif" font-size="14.00">istrunc_extension_along_conn</text>
</a>
</g>
</g>
<!-- Connectedness_isconn_wedge_incl&#45;&gt;Connectedness_istrunc_extension_along_conn -->
<g id="edge8" class="edge">
<title>Connectedness_isconn_wedge_incl&#45;&gt;Connectedness_istrunc_extension_along_conn</title>
<path fill="none" stroke="black" d="M2046.94,-298.83C2068.61,-261.6 2120.25,-172.9 2145.95,-128.76"/>
<polygon fill="black" stroke="black" points="2149.01,-130.46 2151.01,-120.05 2142.96,-126.94 2149.01,-130.46"/>
</g>
<!-- Connectedness_isconnected_trunc -->
<g id="node7" class="node">
<title>Connectedness_isconnected_trunc</title>
<g id="a_node7"><a xlink:href="Connectedness.html#isconnected_trunc" xlink:title="isconnected_trunc">
<ellipse fill="#f070d1" stroke="black" cx="2109" cy="-1033.9" rx="94.79" ry="18"/>
<ellipse fill="none" stroke="black" cx="2109" cy="-1033.9" rx="98.79" ry="22"/>
<ellipse fill="none" stroke="black" cx="2109" cy="-1033.9" rx="102.78" ry="26"/>
<text text-anchor="middle" x="2109" y="-1030.2" font-family="Times,serif" font-size="14.00">isconnected_trunc</text>
</a>
</g>
</g>
<!-- Connectedness_indecomposable_0connected -->
<g id="node8" class="node">
<title>Connectedness_indecomposable_0connected</title>
<g id="a_node8"><a xlink:href="Connectedness.html#indecomposable_0connected" xlink:title="indecomposable_0connected">
<ellipse fill="#f070d1" stroke="black" cx="1837" cy="-1033.9" rx="142.98" ry="18"/>
<ellipse fill="none" stroke="black" cx="1837" cy="-1033.9" rx="146.97" ry="22"/>
<ellipse fill="none" stroke="black" cx="1837" cy="-1033.9" rx="150.97" ry="26"/>
<text text-anchor="middle" x="1837" y="-1030.2" font-family="Times,serif" font-size="14.00">indecomposable_0connected</text>
</a>
</g>
</g>
<!-- Connectedness_merely_path_is0connected -->
<g id="node12" class="node">
<title>Connectedness_merely_path_is0connected</title>
<g id="a_node12"><a xlink:href="Connectedness.html#merely_path_is0connected" xlink:title="merely_path_is0connected">
<ellipse fill="#f070d1" stroke="black" cx="1283" cy="-770.9" rx="133.78" ry="18"/>
<text text-anchor="middle" x="1283" y="-767.2" font-family="Times,serif" font-size="14.00">merely_path_is0connected</text>
</a>
</g>
</g>
<!-- Connectedness_indecomposable_0connected&#45;&gt;Connectedness_merely_path_is0connected -->
<g id="edge9" class="edge">
<title>Connectedness_indecomposable_0connected&#45;&gt;Connectedness_merely_path_is0connected</title>
<path fill="none" stroke="black" d="M1786.86,-1009.28C1679.41,-958.66 1428.49,-840.45 1326.88,-792.58"/>
<polygon fill="black" stroke="black" points="1328.35,-789.4 1317.81,-788.3 1325.37,-795.73 1328.35,-789.4"/>
</g>
<!-- Connectedness_isconnected_pred -->
<g id="node15" class="node">
<title>Connectedness_isconnected_pred</title>
<g id="a_node15"><a xlink:href="Connectedness.html#isconnected_pred" xlink:title="isconnected_pred">
<ellipse fill="#f070d1" stroke="black" cx="752" cy="-770.9" rx="91.78" ry="18"/>
<text text-anchor="middle" x="752" y="-767.2" font-family="Times,serif" font-size="14.00">isconnected_pred</text>
</a>
</g>
</g>
<!-- Connectedness_indecomposable_0connected&#45;&gt;Connectedness_isconnected_pred -->
<g id="edge10" class="edge">
<title>Connectedness_indecomposable_0connected&#45;&gt;Connectedness_isconnected_pred</title>
<path fill="none" stroke="black" d="M1751.86,-1012.42C1542.28,-962.01 1004.84,-832.72 817.55,-787.67"/>
<polygon fill="black" stroke="black" points="818.11,-784.21 807.57,-785.27 816.48,-791.01 818.11,-784.21"/>
</g>
<!-- Connectedness_equiv_component_image_unit -->
<g id="node9" class="node">
<title>Connectedness_equiv_component_image_unit</title>
<g id="a_node9"><a xlink:href="Connectedness.html#equiv_component_image_unit" xlink:title="equiv_component_image_unit">
<ellipse fill="#f070d1" stroke="black" cx="1512" cy="-1033.9" rx="147.57" ry="18"/>
<ellipse fill="none" stroke="black" cx="1512" cy="-1033.9" rx="151.57" ry="22"/>
<ellipse fill="none" stroke="black" cx="1512" cy="-1033.9" rx="155.57" ry="26"/>
<text text-anchor="middle" x="1512" y="-1030.2" font-family="Times,serif" font-size="14.00">equiv_component_image_unit</text>
</a>
</g>
</g>
<!-- Connectedness_is0connected_component -->
<g id="node10" class="node">
<title>Connectedness_is0connected_component</title>
<g id="a_node10"><a xlink:href="Connectedness.html#is0connected_component" xlink:title="is0connected_component">
<ellipse fill="#f070d1" stroke="black" cx="1203" cy="-1033.9" rx="127.28" ry="18"/>
<ellipse fill="none" stroke="black" cx="1203" cy="-1033.9" rx="131.28" ry="22"/>
<ellipse fill="none" stroke="black" cx="1203" cy="-1033.9" rx="135.28" ry="26"/>
<text text-anchor="middle" x="1203" y="-1030.2" font-family="Times,serif" font-size="14.00">is0connected_component</text>
</a>
</g>
</g>
<!-- Connectedness_is0connected_merely_allpath -->
<g id="node11" class="node">
<title>Connectedness_is0connected_merely_allpath</title>
<g id="a_node11"><a xlink:href="Connectedness.html#is0connected_merely_allpath" xlink:title="is0connected_merely_allpath">
<ellipse fill="#f070d1" stroke="black" cx="897" cy="-1033.9" rx="144.88" ry="18"/>
<ellipse fill="none" stroke="black" cx="897" cy="-1033.9" rx="148.88" ry="22"/>
<ellipse fill="none" stroke="black" cx="897" cy="-1033.9" rx="152.87" ry="26"/>
<text text-anchor="middle" x="897" y="-1030.2" font-family="Times,serif" font-size="14.00">is0connected_merely_allpath</text>
</a>
</g>
</g>
<!-- Connectedness_isconnected_paths -->
<g id="node19" class="node">
<title>Connectedness_isconnected_paths</title>
<g id="a_node19"><a xlink:href="Connectedness.html#isconnected_paths" xlink:title="isconnected_paths">
<ellipse fill="#f070d1" stroke="black" cx="696" cy="-531.9" rx="96.38" ry="18"/>
<text text-anchor="middle" x="696" y="-528.2" font-family="Times,serif" font-size="14.00">isconnected_paths</text>
</a>
</g>
</g>
<!-- Connectedness_merely_path_is0connected&#45;&gt;Connectedness_isconnected_paths -->
<g id="edge11" class="edge">
<title>Connectedness_merely_path_is0connected&#45;&gt;Connectedness_isconnected_paths</title>
<path fill="none" stroke="black" d="M1242.65,-753.61C1137.83,-711.29 857.17,-597.98 744.15,-552.34"/>
<polygon fill="black" stroke="black" points="745.28,-549.03 734.7,-548.53 742.66,-555.52 745.28,-549.03"/>
</g>
<!-- Connectedness_isconnected_pred_add -->
<g id="node13" class="node">
<title>Connectedness_isconnected_pred_add</title>
<g id="a_node13"><a xlink:href="Connectedness.html#isconnected_pred_add" xlink:title="isconnected_pred_add">
<ellipse fill="#f070d1" stroke="black" cx="605" cy="-1033.9" rx="113.17" ry="18"/>
<ellipse fill="none" stroke="black" cx="605" cy="-1033.9" rx="117.18" ry="22"/>
<ellipse fill="none" stroke="black" cx="605" cy="-1033.9" rx="121.18" ry="26"/>
<text text-anchor="middle" x="605" y="-1030.2" font-family="Times,serif" font-size="14.00">isconnected_pred_add</text>
</a>
</g>
</g>
<!-- Connectedness_isconnected_pred_add&#45;&gt;Connectedness_isconnected_pred -->
<g id="edge12" class="edge">
<title>Connectedness_isconnected_pred_add&#45;&gt;Connectedness_isconnected_pred</title>
<path fill="none" stroke="black" d="M619.09,-1007.88C646.98,-958.37 708.92,-848.39 737.29,-798.01"/>
<polygon fill="black" stroke="black" points="740.49,-799.48 742.34,-789.05 734.39,-796.04 740.49,-799.48"/>
</g>
<!-- Connectedness_merely_isconnected -->
<g id="node14" class="node">
<title>Connectedness_merely_isconnected</title>
<g id="a_node14"><a xlink:href="Connectedness.html#merely_isconnected" xlink:title="merely_isconnected">
<ellipse fill="#f070d1" stroke="black" cx="355" cy="-1033.9" rx="102.87" ry="18"/>
<ellipse fill="none" stroke="black" cx="355" cy="-1033.9" rx="106.88" ry="22"/>
<ellipse fill="none" stroke="black" cx="355" cy="-1033.9" rx="110.88" ry="26"/>
<text text-anchor="middle" x="355" y="-1030.2" font-family="Times,serif" font-size="14.00">merely_isconnected</text>
</a>
</g>
</g>
<!-- Connectedness_merely_isconnected&#45;&gt;Connectedness_isconnected_pred -->
<g id="edge13" class="edge">
<title>Connectedness_merely_isconnected&#45;&gt;Connectedness_isconnected_pred</title>
<path fill="none" stroke="black" d="M390.93,-1009.28C467.23,-959.12 644.49,-842.58 718.55,-793.9"/>
<polygon fill="black" stroke="black" points="720.62,-796.72 727.05,-788.3 716.77,-790.87 720.62,-796.72"/>
</g>
<!-- Connectedness_conn_point_elim -->
<g id="node16" class="node">
<title>Connectedness_conn_point_elim</title>
<g id="a_node16"><a xlink:href="Connectedness.html#conn_point_elim" xlink:title="conn_point_elim">
<ellipse fill="#f070d1" stroke="black" cx="549" cy="-770.9" rx="85.27" ry="18"/>
<ellipse fill="none" stroke="black" cx="549" cy="-770.9" rx="89.28" ry="22"/>
<ellipse fill="none" stroke="black" cx="549" cy="-770.9" rx="93.29" ry="26"/>
<text text-anchor="middle" x="549" y="-767.2" font-family="Times,serif" font-size="14.00">conn_point_elim</text>
</a>
</g>
</g>
<!-- Connectedness_conn_point_elim&#45;&gt;Connectedness_isconnected_paths -->
<g id="edge14" class="edge">
<title>Connectedness_conn_point_elim&#45;&gt;Connectedness_isconnected_paths</title>
<path fill="none" stroke="black" d="M564.45,-744.99C592.52,-699.73 651.6,-604.49 680.04,-558.64"/>
<polygon fill="black" stroke="black" points="683.16,-560.24 685.46,-549.9 677.21,-556.55 683.16,-560.24"/>
</g>
<!-- Connectedness_conn_pointed_type -->
<g id="node18" class="node">
<title>Connectedness_conn_pointed_type</title>
<g id="a_node18"><a xlink:href="Connectedness.html#conn_pointed_type" xlink:title="conn_pointed_type">
<ellipse fill="#f070d1" stroke="black" cx="121" cy="-1033.9" rx="96.7" ry="18"/>
<ellipse fill="none" stroke="black" cx="121" cy="-1033.9" rx="100.69" ry="22"/>
<ellipse fill="none" stroke="black" cx="121" cy="-1033.9" rx="104.68" ry="26"/>
<text text-anchor="middle" x="121" y="-1030.2" font-family="Times,serif" font-size="14.00">conn_pointed_type</text>
</a>
</g>
</g>
</g>
</svg>
