<?xml version="1.0" encoding="UTF-8" standalone="no"?>
<!DOCTYPE svg PUBLIC "-//W3C//DTD SVG 1.1//EN"
 "http://www.w3.org/Graphics/SVG/1.1/DTD/svg11.dtd">
<!-- Generated by graphviz version 2.43.0 (0)
 -->
<!-- Title: HoTT_Pointed_pHomotopy Pages: 1 -->
<svg width="1711pt" height="859pt"
 viewBox="0.00 0.00 1711.00 859.50" xmlns="http://www.w3.org/2000/svg" xmlns:xlink="http://www.w3.org/1999/xlink">
<g id="graph0" class="graph" transform="scale(1 1) rotate(0) translate(4 855.5)">
<title>HoTT_Pointed_pHomotopy</title>
<polygon fill="white" stroke="transparent" points="-4,4 -4,-855.5 1707,-855.5 1707,4 -4,4"/>
<g id="clust1" class="cluster">
<title>cluster_pHomotopy</title>
<polygon fill="#ffffc3" stroke="black" points="8,-38.06 8,-813.44 1695,-813.44 1695,-38.06 8,-38.06"/>
<text text-anchor="middle" x="57.5" y="-798.24" font-family="Times,serif" font-size="14.00">pHomotopy</text>
</g>
<!-- pHomotopy_ishprop_phomotopy_hset -->
<g id="node1" class="node">
<title>pHomotopy_ishprop_phomotopy_hset</title>
<g id="a_node1"><a xlink:href="pHomotopy.html#ishprop_phomotopy_hset" xlink:title="ishprop_phomotopy_hset">
<ellipse fill="#f070d1" stroke="black" cx="1553" cy="-542.06" rx="126.17" ry="18"/>
<ellipse fill="none" stroke="black" cx="1553" cy="-542.06" rx="130.18" ry="22"/>
<ellipse fill="none" stroke="black" cx="1553" cy="-542.06" rx="134.18" ry="26"/>
<text text-anchor="middle" x="1553" y="-538.36" font-family="Times,serif" font-size="14.00">ishprop_phomotopy_hset</text>
</a>
</g>
</g>
<!-- pHomotopy_phomotopy_hcompose -->
<g id="node2" class="node">
<title>pHomotopy_phomotopy_hcompose</title>
<g id="a_node2"><a xlink:href="pHomotopy.html#phomotopy_hcompose" xlink:title="phomotopy_hcompose">
<ellipse fill="#f070d1" stroke="black" cx="1280" cy="-542.06" rx="113.17" ry="18"/>
<ellipse fill="none" stroke="black" cx="1280" cy="-542.06" rx="117.18" ry="22"/>
<ellipse fill="none" stroke="black" cx="1280" cy="-542.06" rx="121.18" ry="26"/>
<text text-anchor="middle" x="1280" y="-538.36" font-family="Times,serif" font-size="14.00">phomotopy_hcompose</text>
</a>
</g>
</g>
<!-- pHomotopy_phomotopy_path_V -->
<g id="node3" class="node">
<title>pHomotopy_phomotopy_path_V</title>
<g id="a_node3"><a xlink:href="pHomotopy.html#phomotopy_path_V" xlink:title="phomotopy_path_V">
<ellipse fill="#f070d1" stroke="black" cx="1034" cy="-542.06" rx="98.6" ry="18"/>
<ellipse fill="none" stroke="black" cx="1034" cy="-542.06" rx="102.59" ry="22"/>
<ellipse fill="none" stroke="black" cx="1034" cy="-542.06" rx="106.58" ry="26"/>
<text text-anchor="middle" x="1034" y="-538.36" font-family="Times,serif" font-size="14.00">phomotopy_path_V</text>
</a>
</g>
</g>
<!-- pHomotopy_phomotopy_inverse_1 -->
<g id="node8" class="node">
<title>pHomotopy_phomotopy_inverse_1</title>
<g id="a_node8"><a xlink:href="pHomotopy.html#phomotopy_inverse_1" xlink:title="phomotopy_inverse_1">
<ellipse fill="#f070d1" stroke="black" cx="1034" cy="-162.06" rx="111.28" ry="18"/>
<text text-anchor="middle" x="1034" y="-158.36" font-family="Times,serif" font-size="14.00">phomotopy_inverse_1</text>
</a>
</g>
</g>
<!-- pHomotopy_phomotopy_path_V&#45;&gt;pHomotopy_phomotopy_inverse_1 -->
<g id="edge1" class="edge">
<title>pHomotopy_phomotopy_path_V&#45;&gt;pHomotopy_phomotopy_inverse_1</title>
<path fill="none" stroke="black" d="M1034,-515.96C1034,-448.03 1034,-260.95 1034,-190.43"/>
<polygon fill="black" stroke="black" points="1037.5,-190.15 1034,-180.15 1030.5,-190.15 1037.5,-190.15"/>
</g>
<!-- pHomotopy_phomotopy_path2 -->
<g id="node4" class="node">
<title>pHomotopy_phomotopy_path2</title>
<g id="a_node4"><a xlink:href="pHomotopy.html#phomotopy_path2" xlink:title="phomotopy_path2">
<ellipse fill="#f070d1" stroke="black" cx="808" cy="-542.06" rx="93.68" ry="18"/>
<ellipse fill="none" stroke="black" cx="808" cy="-542.06" rx="97.68" ry="22"/>
<ellipse fill="none" stroke="black" cx="808" cy="-542.06" rx="101.68" ry="26"/>
<text text-anchor="middle" x="808" y="-538.36" font-family="Times,serif" font-size="14.00">phomotopy_path2</text>
</a>
</g>
</g>
<!-- pHomotopy_pmap_prewhisker -->
<g id="node5" class="node">
<title>pHomotopy_pmap_prewhisker</title>
<g id="a_node5"><a xlink:href="pHomotopy.html#pmap_prewhisker" xlink:title="pmap_prewhisker">
<ellipse fill="#f070d1" stroke="black" cx="587" cy="-542.06" rx="92.89" ry="18"/>
<ellipse fill="none" stroke="black" cx="587" cy="-542.06" rx="96.89" ry="22"/>
<ellipse fill="none" stroke="black" cx="587" cy="-542.06" rx="100.88" ry="26"/>
<text text-anchor="middle" x="587" y="-538.36" font-family="Times,serif" font-size="14.00">pmap_prewhisker</text>
</a>
</g>
</g>
<!-- pHomotopy_pmap_postwhisker -->
<g id="node6" class="node">
<title>pHomotopy_pmap_postwhisker</title>
<g id="a_node6"><a xlink:href="pHomotopy.html#pmap_postwhisker" xlink:title="pmap_postwhisker">
<ellipse fill="#f070d1" stroke="black" cx="363" cy="-542.06" rx="97.48" ry="18"/>
<ellipse fill="none" stroke="black" cx="363" cy="-542.06" rx="101.48" ry="22"/>
<ellipse fill="none" stroke="black" cx="363" cy="-542.06" rx="105.48" ry="26"/>
<text text-anchor="middle" x="363" y="-538.36" font-family="Times,serif" font-size="14.00">pmap_postwhisker</text>
</a>
</g>
</g>
<!-- pHomotopy_phomotopy_path_pp -->
<g id="node7" class="node">
<title>pHomotopy_phomotopy_path_pp</title>
<g id="a_node7"><a xlink:href="pHomotopy.html#phomotopy_path_pp" xlink:title="phomotopy_path_pp">
<ellipse fill="#f070d1" stroke="black" cx="128" cy="-542.06" rx="103.98" ry="18"/>
<ellipse fill="none" stroke="black" cx="128" cy="-542.06" rx="107.98" ry="22"/>
<ellipse fill="none" stroke="black" cx="128" cy="-542.06" rx="111.98" ry="26"/>
<text text-anchor="middle" x="128" y="-538.36" font-family="Times,serif" font-size="14.00">phomotopy_path_pp</text>
</a>
</g>
</g>
</g>
</svg>
