<?xml version="1.0" encoding="UTF-8" standalone="no"?>
<!DOCTYPE svg PUBLIC "-//W3C//DTD SVG 1.1//EN"
 "http://www.w3.org/Graphics/SVG/1.1/DTD/svg11.dtd">
<!-- Generated by graphviz version 2.43.0 (0)
 -->
<!-- Title: HoTT_Algebra_Rings_QuotientRing Pages: 1 -->
<svg width="981pt" height="495pt"
 viewBox="0.00 0.00 981.00 494.50" xmlns="http://www.w3.org/2000/svg" xmlns:xlink="http://www.w3.org/1999/xlink">
<g id="graph0" class="graph" transform="scale(1 1) rotate(0) translate(4 490.5)">
<title>HoTT_Algebra_Rings_QuotientRing</title>
<polygon fill="white" stroke="transparent" points="-4,4 -4,-490.5 977,-490.5 977,4 -4,4"/>
<g id="clust1" class="cluster">
<title>cluster_QuotientRing</title>
<polygon fill="#ffffc3" stroke="black" points="8,-9.85 8,-476.65 965,-476.65 965,-9.85 8,-9.85"/>
<text text-anchor="middle" x="64" y="-461.45" font-family="Times,serif" font-size="14.00">QuotientRing</text>
</g>
<!-- QuotientRing_rng_first_iso -->
<g id="node1" class="node">
<title>QuotientRing_rng_first_iso</title>
<g id="a_node1"><a xlink:href="QuotientRing.html#rng_first_iso" xlink:title="rng_first_iso">
<ellipse fill="#f070d1" stroke="black" cx="393" cy="-406.85" rx="67.68" ry="18"/>
<ellipse fill="none" stroke="black" cx="393" cy="-406.85" rx="71.68" ry="22"/>
<ellipse fill="none" stroke="black" cx="393" cy="-406.85" rx="75.69" ry="26"/>
<text text-anchor="middle" x="393" y="-403.15" font-family="Times,serif" font-size="14.00">rng_first_iso</text>
</a>
</g>
</g>
<!-- QuotientRing_rng_image -->
<g id="node2" class="node">
<title>QuotientRing_rng_image</title>
<g id="a_node2"><a xlink:href="QuotientRing.html#rng_image" xlink:title="rng_image">
<ellipse fill="#f070d1" stroke="black" cx="303" cy="-307.85" rx="59.59" ry="18"/>
<text text-anchor="middle" x="303" y="-304.15" font-family="Times,serif" font-size="14.00">rng_image</text>
</a>
</g>
</g>
<!-- QuotientRing_rng_first_iso&#45;&gt;QuotientRing_rng_image -->
<g id="edge1" class="edge">
<title>QuotientRing_rng_first_iso&#45;&gt;QuotientRing_rng_image</title>
<path fill="none" stroke="black" d="M370.75,-381.88C356.83,-366.87 338.97,-347.63 325.09,-332.66"/>
<polygon fill="black" stroke="black" points="327.59,-330.22 318.23,-325.27 322.46,-334.98 327.59,-330.22"/>
</g>
<!-- QuotientRing_QuotientRing -->
<g id="node4" class="node">
<title>QuotientRing_QuotientRing</title>
<g id="a_node4"><a xlink:href="QuotientRing.html#QuotientRing" xlink:title="QuotientRing">
<ellipse fill="#f070d1" stroke="black" cx="484" cy="-307.85" rx="72.59" ry="18"/>
<text text-anchor="middle" x="484" y="-304.15" font-family="Times,serif" font-size="14.00">QuotientRing</text>
</a>
</g>
</g>
<!-- QuotientRing_rng_first_iso&#45;&gt;QuotientRing_QuotientRing -->
<g id="edge2" class="edge">
<title>QuotientRing_rng_first_iso&#45;&gt;QuotientRing_QuotientRing</title>
<path fill="none" stroke="black" d="M415.49,-381.88C429.48,-366.97 447.4,-347.87 461.4,-332.94"/>
<polygon fill="black" stroke="black" points="464.03,-335.25 468.32,-325.56 458.93,-330.46 464.03,-335.25"/>
</g>
<!-- QuotientRing_Build_CRing_ -->
<g id="node3" class="node">
<title>QuotientRing_Build_CRing_</title>
<g id="a_node3"><a xlink:href="QuotientRing.html#Build_CRing'" xlink:title="Build_CRing&#39;">
<ellipse fill="#f070d1" stroke="black" cx="288" cy="-218.85" rx="70.39" ry="18"/>
<text text-anchor="middle" x="288" y="-215.15" font-family="Times,serif" font-size="14.00">Build_CRing&#39;</text>
</a>
</g>
</g>
<!-- QuotientRing_rng_image&#45;&gt;QuotientRing_Build_CRing_ -->
<g id="edge3" class="edge">
<title>QuotientRing_rng_image&#45;&gt;QuotientRing_Build_CRing_</title>
<path fill="none" stroke="black" d="M300.04,-289.66C297.94,-277.51 295.09,-260.97 292.69,-247.03"/>
<polygon fill="black" stroke="black" points="296.11,-246.27 290.96,-237.01 289.21,-247.46 296.11,-246.27"/>
</g>
<!-- QuotientRing_isring_quotient_abgroup -->
<g id="node5" class="node">
<title>QuotientRing_isring_quotient_abgroup</title>
<g id="a_node5"><a xlink:href="QuotientRing.html#isring_quotient_abgroup" xlink:title="isring_quotient_abgroup">
<ellipse fill="#f070d1" stroke="black" cx="500" cy="-218.85" rx="124.28" ry="18"/>
<text text-anchor="middle" x="500" y="-215.15" font-family="Times,serif" font-size="14.00">isring_quotient_abgroup</text>
</a>
</g>
</g>
<!-- QuotientRing_QuotientRing&#45;&gt;QuotientRing_isring_quotient_abgroup -->
<g id="edge4" class="edge">
<title>QuotientRing_QuotientRing&#45;&gt;QuotientRing_isring_quotient_abgroup</title>
<path fill="none" stroke="black" d="M487.16,-289.66C489.4,-277.51 492.44,-260.97 495,-247.03"/>
<polygon fill="black" stroke="black" points="498.48,-247.47 496.85,-237.01 491.59,-246.21 498.48,-247.47"/>
</g>
<!-- QuotientRing_one_quotient_abgroup -->
<g id="node6" class="node">
<title>QuotientRing_one_quotient_abgroup</title>
<g id="a_node6"><a xlink:href="QuotientRing.html#one_quotient_abgroup" xlink:title="one_quotient_abgroup">
<ellipse fill="#f070d1" stroke="black" cx="130" cy="-130.85" rx="113.98" ry="18"/>
<text text-anchor="middle" x="130" y="-127.15" font-family="Times,serif" font-size="14.00">one_quotient_abgroup</text>
</a>
</g>
</g>
<!-- QuotientRing_isring_quotient_abgroup&#45;&gt;QuotientRing_one_quotient_abgroup -->
<g id="edge5" class="edge">
<title>QuotientRing_isring_quotient_abgroup&#45;&gt;QuotientRing_one_quotient_abgroup</title>
<path fill="none" stroke="black" d="M437.23,-203.26C371.8,-188.05 269.42,-164.26 201.06,-148.37"/>
<polygon fill="black" stroke="black" points="201.76,-144.94 191.22,-146.08 200.17,-151.76 201.76,-144.94"/>
</g>
<!-- QuotientRing_zero_quotient_abgroup -->
<g id="node7" class="node">
<title>QuotientRing_zero_quotient_abgroup</title>
<g id="a_node7"><a xlink:href="QuotientRing.html#zero_quotient_abgroup" xlink:title="zero_quotient_abgroup">
<ellipse fill="#f070d1" stroke="black" cx="379" cy="-130.85" rx="116.98" ry="18"/>
<text text-anchor="middle" x="379" y="-127.15" font-family="Times,serif" font-size="14.00">zero_quotient_abgroup</text>
</a>
</g>
</g>
<!-- QuotientRing_isring_quotient_abgroup&#45;&gt;QuotientRing_zero_quotient_abgroup -->
<g id="edge6" class="edge">
<title>QuotientRing_isring_quotient_abgroup&#45;&gt;QuotientRing_zero_quotient_abgroup</title>
<path fill="none" stroke="black" d="M476.38,-201.07C457.73,-187.81 431.51,-169.17 410.97,-154.58"/>
<polygon fill="black" stroke="black" points="412.74,-151.54 402.56,-148.6 408.68,-157.24 412.74,-151.54"/>
</g>
<!-- QuotientRing_mult_quotient_group -->
<g id="node8" class="node">
<title>QuotientRing_mult_quotient_group</title>
<g id="a_node8"><a xlink:href="QuotientRing.html#mult_quotient_group" xlink:title="mult_quotient_group">
<ellipse fill="#f070d1" stroke="black" cx="621" cy="-130.85" rx="107.48" ry="18"/>
<text text-anchor="middle" x="621" y="-127.15" font-family="Times,serif" font-size="14.00">mult_quotient_group</text>
</a>
</g>
</g>
<!-- QuotientRing_isring_quotient_abgroup&#45;&gt;QuotientRing_mult_quotient_group -->
<g id="edge7" class="edge">
<title>QuotientRing_isring_quotient_abgroup&#45;&gt;QuotientRing_mult_quotient_group</title>
<path fill="none" stroke="black" d="M523.62,-201.07C542.27,-187.81 568.49,-169.17 589.03,-154.58"/>
<polygon fill="black" stroke="black" points="591.32,-157.24 597.44,-148.6 587.26,-151.54 591.32,-157.24"/>
</g>
<!-- QuotientRing_plus_quotient_group -->
<g id="node10" class="node">
<title>QuotientRing_plus_quotient_group</title>
<g id="a_node10"><a xlink:href="QuotientRing.html#plus_quotient_group" xlink:title="plus_quotient_group">
<ellipse fill="#f070d1" stroke="black" cx="852" cy="-130.85" rx="105.08" ry="18"/>
<text text-anchor="middle" x="852" y="-127.15" font-family="Times,serif" font-size="14.00">plus_quotient_group</text>
</a>
</g>
</g>
<!-- QuotientRing_isring_quotient_abgroup&#45;&gt;QuotientRing_plus_quotient_group -->
<g id="edge8" class="edge">
<title>QuotientRing_isring_quotient_abgroup&#45;&gt;QuotientRing_plus_quotient_group</title>
<path fill="none" stroke="black" d="M560.51,-203.07C622.74,-187.87 719.45,-164.24 784.21,-148.42"/>
<polygon fill="black" stroke="black" points="785.44,-151.72 794.32,-145.95 783.78,-144.92 785.44,-151.72"/>
</g>
<!-- QuotientRing_iscong_mult_incosetL -->
<g id="node9" class="node">
<title>QuotientRing_iscong_mult_incosetL</title>
<g id="a_node9"><a xlink:href="QuotientRing.html#iscong_mult_incosetL" xlink:title="iscong_mult_incosetL">
<ellipse fill="#f070d1" stroke="black" cx="621" cy="-41.85" rx="109.68" ry="18"/>
<text text-anchor="middle" x="621" y="-38.15" font-family="Times,serif" font-size="14.00">iscong_mult_incosetL</text>
</a>
</g>
</g>
<!-- QuotientRing_mult_quotient_group&#45;&gt;QuotientRing_iscong_mult_incosetL -->
<g id="edge9" class="edge">
<title>QuotientRing_mult_quotient_group&#45;&gt;QuotientRing_iscong_mult_incosetL</title>
<path fill="none" stroke="black" d="M621,-112.66C621,-100.51 621,-83.97 621,-70.03"/>
<polygon fill="black" stroke="black" points="624.5,-70.01 621,-60.01 617.5,-70.01 624.5,-70.01"/>
</g>
</g>
</svg>
