<?xml version="1.0" encoding="UTF-8" standalone="no"?>
<!DOCTYPE svg PUBLIC "-//W3C//DTD SVG 1.1//EN"
 "http://www.w3.org/Graphics/SVG/1.1/DTD/svg11.dtd">
<!-- Generated by graphviz version 2.43.0 (0)
 -->
<!-- Title: HoTT_Spaces_Circle Pages: 1 -->
<svg width="1726pt" height="867pt"
 viewBox="0.00 0.00 1726.00 867.00" xmlns="http://www.w3.org/2000/svg" xmlns:xlink="http://www.w3.org/1999/xlink">
<g id="graph0" class="graph" transform="scale(1 1) rotate(0) translate(4 863)">
<title>HoTT_Spaces_Circle</title>
<polygon fill="white" stroke="transparent" points="-4,4 -4,-863 1722,-863 1722,4 -4,4"/>
<g id="clust1" class="cluster">
<title>cluster_Circle</title>
<polygon fill="#ffffc3" stroke="black" points="17.31,-8 17.31,-851 1700.69,-851 1700.69,-8 17.31,-8"/>
<text text-anchor="middle" x="46.81" y="-835.8" font-family="Times,serif" font-size="14.00">Circle</text>
</g>
<!-- Circle_Circle_ind_dp_beta_loop -->
<g id="node1" class="node">
<title>Circle_Circle_ind_dp_beta_loop</title>
<g id="a_node1"><a xlink:href="Circle.html#Circle_ind_dp_beta_loop" xlink:title="Circle_ind_dp_beta_loop">
<ellipse fill="#f070d1" stroke="black" cx="1344.05" cy="-418" rx="122.37" ry="18"/>
<ellipse fill="none" stroke="black" cx="1344.05" cy="-418" rx="126.37" ry="22"/>
<ellipse fill="none" stroke="black" cx="1344.05" cy="-418" rx="130.38" ry="26"/>
<text text-anchor="middle" x="1344.05" y="-414.3" font-family="Times,serif" font-size="14.00">Circle_ind_dp_beta_loop</text>
</a>
</g>
</g>
<!-- Circle_Circle_ind_dp -->
<g id="node2" class="node">
<title>Circle_Circle_ind_dp</title>
<g id="a_node2"><a xlink:href="Circle.html#Circle_ind_dp" xlink:title="Circle_ind_dp">
<ellipse fill="#f070d1" stroke="black" cx="1311.05" cy="-338" rx="73.39" ry="18"/>
<text text-anchor="middle" x="1311.05" y="-334.3" font-family="Times,serif" font-size="14.00">Circle_ind_dp</text>
</a>
</g>
</g>
<!-- Circle_Circle_ind_dp_beta_loop&#45;&gt;Circle_Circle_ind_dp -->
<g id="edge1" class="edge">
<title>Circle_Circle_ind_dp_beta_loop&#45;&gt;Circle_Circle_ind_dp</title>
<path fill="none" stroke="black" d="M1333.42,-391.89C1329.81,-383.35 1325.76,-373.78 1322.11,-365.16"/>
<polygon fill="black" stroke="black" points="1325.33,-363.78 1318.21,-355.93 1318.88,-366.5 1325.33,-363.78"/>
</g>
<!-- Circle_Circle_ind_beta_loop -->
<g id="node17" class="node">
<title>Circle_Circle_ind_beta_loop</title>
<g id="a_node17"><a xlink:href="Circle.html#Circle_ind_beta_loop" xlink:title="Circle_ind_beta_loop">
<ellipse fill="#f070d1" stroke="black" cx="824.05" cy="-338" rx="105.88" ry="18"/>
<text text-anchor="middle" x="824.05" y="-334.3" font-family="Times,serif" font-size="14.00">Circle_ind_beta_loop</text>
</a>
</g>
</g>
<!-- Circle_Circle_ind_dp_beta_loop&#45;&gt;Circle_Circle_ind_beta_loop -->
<g id="edge2" class="edge">
<title>Circle_Circle_ind_dp_beta_loop&#45;&gt;Circle_Circle_ind_beta_loop</title>
<path fill="none" stroke="black" d="M1242.24,-401.73C1145.63,-387.24 1002.01,-365.69 910.73,-352"/>
<polygon fill="black" stroke="black" points="911.09,-348.52 900.69,-350.5 910.06,-355.44 911.09,-348.52"/>
</g>
<!-- Circle_Circle_ind -->
<g id="node18" class="node">
<title>Circle_Circle_ind</title>
<g id="a_node18"><a xlink:href="Circle.html#Circle_ind" xlink:title="Circle_ind">
<ellipse fill="#f070d1" stroke="black" cx="638.05" cy="-266" rx="57.39" ry="18"/>
<text text-anchor="middle" x="638.05" y="-262.3" font-family="Times,serif" font-size="14.00">Circle_ind</text>
</a>
</g>
</g>
<!-- Circle_Circle_ind_dp&#45;&gt;Circle_Circle_ind -->
<g id="edge3" class="edge">
<title>Circle_Circle_ind_dp&#45;&gt;Circle_Circle_ind</title>
<path fill="none" stroke="black" d="M1244.98,-330.13C1115.36,-316.65 829.23,-286.89 701.63,-273.61"/>
<polygon fill="black" stroke="black" points="701.92,-270.13 691.62,-272.57 701.2,-277.09 701.92,-270.13"/>
</g>
<!-- Circle_Circle_action_is_iter -->
<g id="node3" class="node">
<title>Circle_Circle_action_is_iter</title>
<g id="a_node3"><a xlink:href="Circle.html#Circle_action_is_iter" xlink:title="Circle_action_is_iter">
<ellipse fill="#f070d1" stroke="black" cx="733.05" cy="-794" rx="103.98" ry="18"/>
<ellipse fill="none" stroke="black" cx="733.05" cy="-794" rx="107.98" ry="22"/>
<ellipse fill="none" stroke="black" cx="733.05" cy="-794" rx="111.98" ry="26"/>
<text text-anchor="middle" x="733.05" y="-790.3" font-family="Times,serif" font-size="14.00">Circle_action_is_iter</text>
</a>
</g>
</g>
<!-- Circle_equiv_loopCircle_int -->
<g id="node6" class="node">
<title>Circle_equiv_loopCircle_int</title>
<g id="a_node6"><a xlink:href="Circle.html#equiv_loopCircle_int" xlink:title="equiv_loopCircle_int">
<ellipse fill="#f070d1" stroke="black" cx="733.05" cy="-714" rx="104.78" ry="18"/>
<text text-anchor="middle" x="733.05" y="-710.3" font-family="Times,serif" font-size="14.00">equiv_loopCircle_int</text>
</a>
</g>
</g>
<!-- Circle_Circle_action_is_iter&#45;&gt;Circle_equiv_loopCircle_int -->
<g id="edge4" class="edge">
<title>Circle_Circle_action_is_iter&#45;&gt;Circle_equiv_loopCircle_int</title>
<path fill="none" stroke="black" d="M733.05,-767.89C733.05,-759.84 733.05,-750.88 733.05,-742.66"/>
<polygon fill="black" stroke="black" points="736.55,-742.41 733.05,-732.41 729.55,-742.41 736.55,-742.41"/>
</g>
<!-- Circle_istrunc_Circle -->
<g id="node4" class="node">
<title>Circle_istrunc_Circle</title>
<g id="a_node4"><a xlink:href="Circle.html#istrunc_Circle" xlink:title="istrunc_Circle">
<ellipse fill="#f070d1" stroke="black" cx="257.05" cy="-794" rx="75.3" ry="18"/>
<ellipse fill="none" stroke="black" cx="257.05" cy="-794" rx="79.29" ry="22"/>
<ellipse fill="none" stroke="black" cx="257.05" cy="-794" rx="83.29" ry="26"/>
<text text-anchor="middle" x="257.05" y="-790.3" font-family="Times,serif" font-size="14.00">istrunc_Circle</text>
</a>
</g>
</g>
<!-- Circle_isconnected_Circle -->
<g id="node5" class="node">
<title>Circle_isconnected_Circle</title>
<g id="a_node5"><a xlink:href="Circle.html#isconnected_Circle" xlink:title="isconnected_Circle">
<ellipse fill="#f070d1" stroke="black" cx="244.05" cy="-642" rx="97.48" ry="18"/>
<text text-anchor="middle" x="244.05" y="-638.3" font-family="Times,serif" font-size="14.00">isconnected_Circle</text>
</a>
</g>
</g>
<!-- Circle_istrunc_Circle&#45;&gt;Circle_isconnected_Circle -->
<g id="edge5" class="edge">
<title>Circle_istrunc_Circle&#45;&gt;Circle_isconnected_Circle</title>
<path fill="none" stroke="black" d="M254.87,-767.89C252.53,-740.95 248.84,-698.27 246.42,-670.45"/>
<polygon fill="black" stroke="black" points="249.89,-669.89 245.54,-660.23 242.92,-670.49 249.89,-669.89"/>
</g>
<!-- Circle_istrunc_Circle&#45;&gt;Circle_equiv_loopCircle_int -->
<g id="edge6" class="edge">
<title>Circle_istrunc_Circle&#45;&gt;Circle_equiv_loopCircle_int</title>
<path fill="none" stroke="black" d="M329.6,-781.11C415.89,-766.97 559.62,-743.42 650.2,-728.58"/>
<polygon fill="black" stroke="black" points="650.85,-732.02 660.16,-726.94 649.72,-725.11 650.85,-732.02"/>
</g>
<!-- Circle_isconnected_Circle&#45;&gt;Circle_Circle_ind -->
<g id="edge7" class="edge">
<title>Circle_isconnected_Circle&#45;&gt;Circle_Circle_ind</title>
<path fill="none" stroke="black" d="M185.56,-627.59C124.35,-609.69 37.05,-571.45 37.05,-499 37.05,-499 37.05,-499 37.05,-417 37.05,-307.93 414.36,-277.53 571.06,-269.61"/>
<polygon fill="black" stroke="black" points="571.69,-273.08 581.5,-269.1 571.35,-266.09 571.69,-273.08"/>
</g>
<!-- Circle_Circle_encode_isequiv -->
<g id="node7" class="node">
<title>Circle_Circle_encode_isequiv</title>
<g id="a_node7"><a xlink:href="Circle.html#Circle_encode_isequiv" xlink:title="Circle_encode_isequiv">
<ellipse fill="#f070d1" stroke="black" cx="738.05" cy="-642" rx="112.38" ry="18"/>
<text text-anchor="middle" x="738.05" y="-638.3" font-family="Times,serif" font-size="14.00">Circle_encode_isequiv</text>
</a>
</g>
</g>
<!-- Circle_equiv_loopCircle_int&#45;&gt;Circle_Circle_encode_isequiv -->
<g id="edge8" class="edge">
<title>Circle_equiv_loopCircle_int&#45;&gt;Circle_Circle_encode_isequiv</title>
<path fill="none" stroke="black" d="M734.28,-695.7C734.83,-687.98 735.49,-678.71 736.11,-670.11"/>
<polygon fill="black" stroke="black" points="739.6,-670.33 736.82,-660.1 732.62,-669.83 739.6,-670.33"/>
</g>
<!-- Circle_Circle_encode_loopexp -->
<g id="node8" class="node">
<title>Circle_Circle_encode_loopexp</title>
<g id="a_node8"><a xlink:href="Circle.html#Circle_encode_loopexp" xlink:title="Circle_encode_loopexp">
<ellipse fill="#f070d1" stroke="black" cx="736.05" cy="-570" rx="115.88" ry="18"/>
<text text-anchor="middle" x="736.05" y="-566.3" font-family="Times,serif" font-size="14.00">Circle_encode_loopexp</text>
</a>
</g>
</g>
<!-- Circle_Circle_encode_isequiv&#45;&gt;Circle_Circle_encode_loopexp -->
<g id="edge9" class="edge">
<title>Circle_Circle_encode_isequiv&#45;&gt;Circle_Circle_encode_loopexp</title>
<path fill="none" stroke="black" d="M737.55,-623.7C737.33,-615.98 737.07,-606.71 736.82,-598.11"/>
<polygon fill="black" stroke="black" points="740.32,-598 736.53,-588.1 733.32,-598.2 740.32,-598"/>
</g>
<!-- Circle_Circle_decode -->
<g id="node9" class="node">
<title>Circle_Circle_decode</title>
<g id="a_node9"><a xlink:href="Circle.html#Circle_decode" xlink:title="Circle_decode">
<ellipse fill="#f070d1" stroke="black" cx="1281.05" cy="-570" rx="75.29" ry="18"/>
<text text-anchor="middle" x="1281.05" y="-566.3" font-family="Times,serif" font-size="14.00">Circle_decode</text>
</a>
</g>
</g>
<!-- Circle_Circle_encode_isequiv&#45;&gt;Circle_Circle_decode -->
<g id="edge10" class="edge">
<title>Circle_Circle_encode_isequiv&#45;&gt;Circle_Circle_decode</title>
<path fill="none" stroke="black" d="M822.59,-630.1C927.78,-616.54 1105.75,-593.6 1206.21,-580.65"/>
<polygon fill="black" stroke="black" points="1206.81,-584.1 1216.28,-579.35 1205.91,-577.16 1206.81,-584.1"/>
</g>
<!-- Circle_Circle_encode -->
<g id="node10" class="node">
<title>Circle_Circle_encode</title>
<g id="a_node10"><a xlink:href="Circle.html#Circle_encode" xlink:title="Circle_encode">
<ellipse fill="#f070d1" stroke="black" cx="240.05" cy="-498" rx="75.29" ry="18"/>
<text text-anchor="middle" x="240.05" y="-494.3" font-family="Times,serif" font-size="14.00">Circle_encode</text>
</a>
</g>
</g>
<!-- Circle_Circle_encode_loopexp&#45;&gt;Circle_Circle_encode -->
<g id="edge11" class="edge">
<title>Circle_Circle_encode_loopexp&#45;&gt;Circle_Circle_encode</title>
<path fill="none" stroke="black" d="M653.58,-557.36C558.66,-543.97 404.2,-522.17 313.33,-509.34"/>
<polygon fill="black" stroke="black" points="313.78,-505.87 303.39,-507.94 312.8,-512.8 313.78,-505.87"/>
</g>
<!-- Circle_transport_Circle_code_loopV -->
<g id="node11" class="node">
<title>Circle_transport_Circle_code_loopV</title>
<g id="a_node11"><a xlink:href="Circle.html#transport_Circle_code_loopV" xlink:title="transport_Circle_code_loopV">
<ellipse fill="#f070d1" stroke="black" cx="1376.05" cy="-498" rx="142.17" ry="18"/>
<text text-anchor="middle" x="1376.05" y="-494.3" font-family="Times,serif" font-size="14.00">transport_Circle_code_loopV</text>
</a>
</g>
</g>
<!-- Circle_Circle_encode_loopexp&#45;&gt;Circle_transport_Circle_code_loopV -->
<g id="edge12" class="edge">
<title>Circle_Circle_encode_loopexp&#45;&gt;Circle_transport_Circle_code_loopV</title>
<path fill="none" stroke="black" d="M827.74,-558.97C942.21,-546.45 1138.01,-525.03 1262.03,-511.47"/>
<polygon fill="black" stroke="black" points="1262.75,-514.91 1272.31,-510.35 1261.99,-507.95 1262.75,-514.91"/>
</g>
<!-- Circle_transport_Circle_code_loop -->
<g id="node12" class="node">
<title>Circle_transport_Circle_code_loop</title>
<g id="a_node12"><a xlink:href="Circle.html#transport_Circle_code_loop" xlink:title="transport_Circle_code_loop">
<ellipse fill="#f070d1" stroke="black" cx="736.05" cy="-498" rx="135.68" ry="18"/>
<text text-anchor="middle" x="736.05" y="-494.3" font-family="Times,serif" font-size="14.00">transport_Circle_code_loop</text>
</a>
</g>
</g>
<!-- Circle_Circle_encode_loopexp&#45;&gt;Circle_transport_Circle_code_loop -->
<g id="edge13" class="edge">
<title>Circle_Circle_encode_loopexp&#45;&gt;Circle_transport_Circle_code_loop</title>
<path fill="none" stroke="black" d="M736.05,-551.7C736.05,-543.98 736.05,-534.71 736.05,-526.11"/>
<polygon fill="black" stroke="black" points="739.55,-526.1 736.05,-516.1 732.55,-526.1 739.55,-526.1"/>
</g>
<!-- Circle_Circle_decode&#45;&gt;Circle_transport_Circle_code_loopV -->
<g id="edge14" class="edge">
<title>Circle_Circle_decode&#45;&gt;Circle_transport_Circle_code_loopV</title>
<path fill="none" stroke="black" d="M1303.08,-552.76C1315.52,-543.6 1331.26,-532 1344.94,-521.92"/>
<polygon fill="black" stroke="black" points="1347.16,-524.63 1353.14,-515.88 1343.01,-518.99 1347.16,-524.63"/>
</g>
<!-- Circle_Circle_code -->
<g id="node13" class="node">
<title>Circle_Circle_code</title>
<g id="a_node13"><a xlink:href="Circle.html#Circle_code" xlink:title="Circle_code">
<ellipse fill="#f070d1" stroke="black" cx="387.05" cy="-418" rx="63.89" ry="18"/>
<text text-anchor="middle" x="387.05" y="-414.3" font-family="Times,serif" font-size="14.00">Circle_code</text>
</a>
</g>
</g>
<!-- Circle_Circle_encode&#45;&gt;Circle_Circle_code -->
<g id="edge15" class="edge">
<title>Circle_Circle_encode&#45;&gt;Circle_Circle_code</title>
<path fill="none" stroke="black" d="M269.44,-481.4C292.32,-469.26 324.26,-452.32 349.07,-439.15"/>
<polygon fill="black" stroke="black" points="351.01,-442.08 358.2,-434.3 347.73,-435.9 351.01,-442.08"/>
</g>
<!-- Circle_transport_Circle_code_loopV&#45;&gt;Circle_Circle_code -->
<g id="edge16" class="edge">
<title>Circle_transport_Circle_code_loopV&#45;&gt;Circle_Circle_code</title>
<path fill="none" stroke="black" d="M1256.38,-488.25C1117.52,-478.01 881.66,-460.38 679.05,-444 603.06,-437.86 515.99,-430.34 456.85,-425.16"/>
<polygon fill="black" stroke="black" points="457.14,-421.68 446.87,-424.29 456.53,-428.65 457.14,-421.68"/>
</g>
<!-- Circle_Circle_rec_beta_loop -->
<g id="node15" class="node">
<title>Circle_Circle_rec_beta_loop</title>
<g id="a_node15"><a xlink:href="Circle.html#Circle_rec_beta_loop" xlink:title="Circle_rec_beta_loop">
<ellipse fill="#f070d1" stroke="black" cx="794.05" cy="-418" rx="105.88" ry="18"/>
<text text-anchor="middle" x="794.05" y="-414.3" font-family="Times,serif" font-size="14.00">Circle_rec_beta_loop</text>
</a>
</g>
</g>
<!-- Circle_transport_Circle_code_loopV&#45;&gt;Circle_Circle_rec_beta_loop -->
<g id="edge17" class="edge">
<title>Circle_transport_Circle_code_loopV&#45;&gt;Circle_Circle_rec_beta_loop</title>
<path fill="none" stroke="black" d="M1282.21,-484.42C1172.73,-469.75 992.95,-445.66 884.8,-431.16"/>
<polygon fill="black" stroke="black" points="884.94,-427.65 874.57,-429.79 884.01,-434.59 884.94,-427.65"/>
</g>
<!-- Circle_transport_Circle_code_loop&#45;&gt;Circle_Circle_code -->
<g id="edge18" class="edge">
<title>Circle_transport_Circle_code_loop&#45;&gt;Circle_Circle_code</title>
<path fill="none" stroke="black" d="M669.99,-482.24C605.22,-467.76 507.43,-445.91 445.43,-432.05"/>
<polygon fill="black" stroke="black" points="445.95,-428.58 435.42,-429.81 444.42,-435.41 445.95,-428.58"/>
</g>
<!-- Circle_transport_Circle_code_loop&#45;&gt;Circle_Circle_rec_beta_loop -->
<g id="edge19" class="edge">
<title>Circle_transport_Circle_code_loop&#45;&gt;Circle_Circle_rec_beta_loop</title>
<path fill="none" stroke="black" d="M748.63,-480.08C756.46,-469.55 766.67,-455.82 775.42,-444.05"/>
<polygon fill="black" stroke="black" points="778.33,-446 781.48,-435.89 772.71,-441.83 778.33,-446"/>
</g>
<!-- Circle_Circle_rec -->
<g id="node16" class="node">
<title>Circle_Circle_rec</title>
<g id="a_node16"><a xlink:href="Circle.html#Circle_rec" xlink:title="Circle_rec">
<ellipse fill="#f070d1" stroke="black" cx="433.05" cy="-338" rx="57.39" ry="18"/>
<text text-anchor="middle" x="433.05" y="-334.3" font-family="Times,serif" font-size="14.00">Circle_rec</text>
</a>
</g>
</g>
<!-- Circle_Circle_code&#45;&gt;Circle_Circle_rec -->
<g id="edge20" class="edge">
<title>Circle_Circle_code&#45;&gt;Circle_Circle_rec</title>
<path fill="none" stroke="black" d="M397.03,-400.08C403.11,-389.75 411.02,-376.35 417.87,-364.73"/>
<polygon fill="black" stroke="black" points="421.02,-366.28 423.08,-355.89 414.99,-362.73 421.02,-366.28"/>
</g>
<!-- Circle_ispointed_Circle -->
<g id="node14" class="node">
<title>Circle_ispointed_Circle</title>
<g id="a_node14"><a xlink:href="Circle.html#ispointed_Circle" xlink:title="ispointed_Circle">
<ellipse fill="#f070d1" stroke="black" cx="331.05" cy="-186" rx="85.27" ry="18"/>
<ellipse fill="none" stroke="black" cx="331.05" cy="-186" rx="89.28" ry="22"/>
<ellipse fill="none" stroke="black" cx="331.05" cy="-186" rx="93.29" ry="26"/>
<text text-anchor="middle" x="331.05" y="-182.3" font-family="Times,serif" font-size="14.00">ispointed_Circle</text>
</a>
</g>
</g>
<!-- Circle_base -->
<g id="node20" class="node">
<title>Circle_base</title>
<g id="a_node20"><a xlink:href="Circle.html#base" xlink:title="base">
<ellipse fill="#f070d1" stroke="black" cx="485.05" cy="-106" rx="32.49" ry="18"/>
<text text-anchor="middle" x="485.05" y="-102.3" font-family="Times,serif" font-size="14.00">base</text>
</a>
</g>
</g>
<!-- Circle_ispointed_Circle&#45;&gt;Circle_base -->
<g id="edge21" class="edge">
<title>Circle_ispointed_Circle&#45;&gt;Circle_base</title>
<path fill="none" stroke="black" d="M374.76,-162.86C399.51,-150.32 429.93,-134.92 452.55,-123.46"/>
<polygon fill="black" stroke="black" points="454.38,-126.45 461.72,-118.81 451.22,-120.21 454.38,-126.45"/>
</g>
<!-- Circle_Circle_rec_beta_loop&#45;&gt;Circle_Circle_rec -->
<g id="edge22" class="edge">
<title>Circle_Circle_rec_beta_loop&#45;&gt;Circle_Circle_rec</title>
<path fill="none" stroke="black" d="M731.16,-403.41C662.8,-388.64 554.58,-365.26 489.05,-351.1"/>
<polygon fill="black" stroke="black" points="489.42,-347.6 478.91,-348.91 487.94,-354.44 489.42,-347.6"/>
</g>
<!-- Circle_Circle_rec_beta_loop&#45;&gt;Circle_Circle_ind_beta_loop -->
<g id="edge23" class="edge">
<title>Circle_Circle_rec_beta_loop&#45;&gt;Circle_Circle_ind_beta_loop</title>
<path fill="none" stroke="black" d="M800.7,-399.69C804.58,-389.62 809.53,-376.73 813.89,-365.42"/>
<polygon fill="black" stroke="black" points="817.19,-366.58 817.51,-355.99 810.65,-364.07 817.19,-366.58"/>
</g>
<!-- Circle_Circle_rec&#45;&gt;Circle_Circle_ind -->
<g id="edge24" class="edge">
<title>Circle_Circle_rec&#45;&gt;Circle_Circle_ind</title>
<path fill="none" stroke="black" d="M470.65,-324.16C504.46,-312.62 554.27,-295.61 590.77,-283.14"/>
<polygon fill="black" stroke="black" points="592.35,-286.3 600.68,-279.76 590.09,-279.68 592.35,-286.3"/>
</g>
<!-- Circle_Circle_ind_beta_loop&#45;&gt;Circle_Circle_ind -->
<g id="edge25" class="edge">
<title>Circle_Circle_ind_beta_loop&#45;&gt;Circle_Circle_ind</title>
<path fill="none" stroke="black" d="M782.3,-321.29C752.73,-310.16 713.1,-295.25 682.86,-283.87"/>
<polygon fill="black" stroke="black" points="683.99,-280.55 673.39,-280.3 681.52,-287.1 683.99,-280.55"/>
</g>
<!-- Circle_loop -->
<g id="node19" class="node">
<title>Circle_loop</title>
<g id="a_node19"><a xlink:href="Circle.html#loop" xlink:title="loop">
<ellipse fill="#f070d1" stroke="black" cx="638.05" cy="-186" rx="30.59" ry="18"/>
<text text-anchor="middle" x="638.05" y="-182.3" font-family="Times,serif" font-size="14.00">loop</text>
</a>
</g>
</g>
<!-- Circle_Circle_ind&#45;&gt;Circle_loop -->
<g id="edge26" class="edge">
<title>Circle_Circle_ind&#45;&gt;Circle_loop</title>
<path fill="none" stroke="black" d="M638.05,-247.69C638.05,-237.89 638.05,-225.42 638.05,-214.33"/>
<polygon fill="black" stroke="black" points="641.55,-214.26 638.05,-204.26 634.55,-214.26 641.55,-214.26"/>
</g>
<!-- Circle_loop&#45;&gt;Circle_base -->
<g id="edge27" class="edge">
<title>Circle_loop&#45;&gt;Circle_base</title>
<path fill="none" stroke="black" d="M615.8,-173.66C589.85,-160.43 546.74,-138.45 517.16,-123.37"/>
<polygon fill="black" stroke="black" points="518.57,-120.16 508.07,-118.74 515.39,-126.4 518.57,-120.16"/>
</g>
<!-- Circle_Circle -->
<g id="node21" class="node">
<title>Circle_Circle</title>
<g id="a_node21"><a xlink:href="Circle.html#Circle" xlink:title="Circle">
<ellipse fill="#f070d1" stroke="black" cx="485.05" cy="-34" rx="38.19" ry="18"/>
<text text-anchor="middle" x="485.05" y="-30.3" font-family="Times,serif" font-size="14.00">Circle</text>
</a>
</g>
</g>
<!-- Circle_base&#45;&gt;Circle_Circle -->
<g id="edge28" class="edge">
<title>Circle_base&#45;&gt;Circle_Circle</title>
<path fill="none" stroke="black" d="M485.05,-87.7C485.05,-79.98 485.05,-70.71 485.05,-62.11"/>
<polygon fill="black" stroke="black" points="488.55,-62.1 485.05,-52.1 481.55,-62.1 488.55,-62.1"/>
</g>
</g>
</svg>
