<?xml version="1.0" encoding="UTF-8" standalone="no"?>
<!DOCTYPE svg PUBLIC "-//W3C//DTD SVG 1.1//EN"
 "http://www.w3.org/Graphics/SVG/1.1/DTD/svg11.dtd">
<!-- Generated by graphviz version 2.43.0 (0)
 -->
<!-- Title: HoTT_Colimits_Quotient Pages: 1 -->
<svg width="2010pt" height="1009pt"
 viewBox="0.00 0.00 2010.00 1009.00" xmlns="http://www.w3.org/2000/svg" xmlns:xlink="http://www.w3.org/1999/xlink">
<g id="graph0" class="graph" transform="scale(1 1) rotate(0) translate(4 1005)">
<title>HoTT_Colimits_Quotient</title>
<polygon fill="white" stroke="transparent" points="-4,4 -4,-1005 2006,-1005 2006,4 -4,4"/>
<g id="clust1" class="cluster">
<title>cluster_Quotient</title>
<polygon fill="#ffffc3" stroke="black" points="8,-12.15 8,-988.85 1994,-988.85 1994,-12.15 8,-12.15"/>
<text text-anchor="middle" x="47.5" y="-973.65" font-family="Times,serif" font-size="14.00">Quotient</text>
</g>
<!-- Quotient_quotient_kernel_factor -->
<g id="node1" class="node">
<title>Quotient_quotient_kernel_factor</title>
<g id="a_node1"><a xlink:href="Quotient.html#quotient_kernel_factor" xlink:title="quotient_kernel_factor">
<ellipse fill="#f070d1" stroke="black" cx="650" cy="-768.15" rx="115.08" ry="18"/>
<ellipse fill="none" stroke="black" cx="650" cy="-768.15" rx="119.08" ry="22"/>
<ellipse fill="none" stroke="black" cx="650" cy="-768.15" rx="123.08" ry="26"/>
<text text-anchor="middle" x="650" y="-764.45" font-family="Times,serif" font-size="14.00">quotient_kernel_factor</text>
</a>
</g>
</g>
<!-- Quotient_issurj_class_of -->
<g id="node10" class="node">
<title>Quotient_issurj_class_of</title>
<g id="a_node10"><a xlink:href="Quotient.html#issurj_class_of" xlink:title="issurj_class_of">
<ellipse fill="#f070d1" stroke="black" cx="1161" cy="-635.15" rx="77.19" ry="18"/>
<text text-anchor="middle" x="1161" y="-631.45" font-family="Times,serif" font-size="14.00">issurj_class_of</text>
</a>
</g>
</g>
<!-- Quotient_quotient_kernel_factor&#45;&gt;Quotient_issurj_class_of -->
<g id="edge1" class="edge">
<title>Quotient_quotient_kernel_factor&#45;&gt;Quotient_issurj_class_of</title>
<path fill="none" stroke="black" d="M729.74,-748.23C815.32,-727.7 955.15,-693.51 1075,-661.15 1084.79,-658.51 1095.18,-655.59 1105.23,-652.7"/>
<polygon fill="black" stroke="black" points="1106.49,-655.98 1115.12,-649.84 1104.54,-649.26 1106.49,-655.98"/>
</g>
<!-- Quotient_ishset_quotient -->
<g id="node23" class="node">
<title>Quotient_ishset_quotient</title>
<g id="a_node23"><a xlink:href="Quotient.html#ishset_quotient" xlink:title="ishset_quotient">
<ellipse fill="#f070d1" stroke="black" cx="98" cy="-380.15" rx="81.79" ry="18"/>
<text text-anchor="middle" x="98" y="-376.45" font-family="Times,serif" font-size="14.00">ishset_quotient</text>
</a>
</g>
</g>
<!-- Quotient_quotient_kernel_factor&#45;&gt;Quotient_ishset_quotient -->
<g id="edge2" class="edge">
<title>Quotient_quotient_kernel_factor&#45;&gt;Quotient_ishset_quotient</title>
<path fill="none" stroke="black" d="M528.19,-764.17C366.52,-757.35 94.19,-734.91 32,-661.15 -21.28,-597.95 7.09,-553.98 32,-475.15 40.34,-448.77 59.02,-423.37 74.39,-405.64"/>
<polygon fill="black" stroke="black" points="77.12,-407.85 81.17,-398.06 71.9,-403.18 77.12,-407.85"/>
</g>
<!-- Quotient_equiv_quotient_functor_ -->
<g id="node2" class="node">
<title>Quotient_equiv_quotient_functor_</title>
<g id="a_node2"><a xlink:href="Quotient.html#equiv_quotient_functor'" xlink:title="equiv_quotient_functor&#39;">
<ellipse fill="#f070d1" stroke="black" cx="1858" cy="-902.15" rx="120.46" ry="18"/>
<ellipse fill="none" stroke="black" cx="1858" cy="-902.15" rx="124.47" ry="22"/>
<ellipse fill="none" stroke="black" cx="1858" cy="-902.15" rx="128.48" ry="26"/>
<text text-anchor="middle" x="1858" y="-898.45" font-family="Times,serif" font-size="14.00">equiv_quotient_functor&#39;</text>
</a>
</g>
</g>
<!-- Quotient_equiv_quotient_functor -->
<g id="node3" class="node">
<title>Quotient_equiv_quotient_functor</title>
<g id="a_node3"><a xlink:href="Quotient.html#equiv_quotient_functor" xlink:title="equiv_quotient_functor">
<ellipse fill="#f070d1" stroke="black" cx="1859" cy="-768.15" rx="117.78" ry="18"/>
<text text-anchor="middle" x="1859" y="-764.45" font-family="Times,serif" font-size="14.00">equiv_quotient_functor</text>
</a>
</g>
</g>
<!-- Quotient_equiv_quotient_functor_&#45;&gt;Quotient_equiv_quotient_functor -->
<g id="edge3" class="edge">
<title>Quotient_equiv_quotient_functor_&#45;&gt;Quotient_equiv_quotient_functor</title>
<path fill="none" stroke="black" d="M1858.19,-876.01C1858.36,-853.28 1858.62,-819.89 1858.79,-796.5"/>
<polygon fill="black" stroke="black" points="1862.29,-796.25 1858.87,-786.22 1855.29,-796.2 1862.29,-796.25"/>
</g>
<!-- Quotient_isequiv_quotient_functor -->
<g id="node4" class="node">
<title>Quotient_isequiv_quotient_functor</title>
<g id="a_node4"><a xlink:href="Quotient.html#isequiv_quotient_functor" xlink:title="isequiv_quotient_functor">
<ellipse fill="#f070d1" stroke="black" cx="1860" cy="-635.15" rx="125.38" ry="18"/>
<text text-anchor="middle" x="1860" y="-631.45" font-family="Times,serif" font-size="14.00">isequiv_quotient_functor</text>
</a>
</g>
</g>
<!-- Quotient_equiv_quotient_functor&#45;&gt;Quotient_isequiv_quotient_functor -->
<g id="edge4" class="edge">
<title>Quotient_equiv_quotient_functor&#45;&gt;Quotient_isequiv_quotient_functor</title>
<path fill="none" stroke="black" d="M1859.13,-750.03C1859.3,-728.06 1859.59,-689.69 1859.79,-663.62"/>
<polygon fill="black" stroke="black" points="1863.29,-663.31 1859.87,-653.28 1856.29,-663.25 1863.29,-663.31"/>
</g>
<!-- Quotient_isequiv_quotient_functor_subproof -->
<g id="node5" class="node">
<title>Quotient_isequiv_quotient_functor_subproof</title>
<g id="a_node5"><a xlink:href="Quotient.html#isequiv_quotient_functor_subproof" xlink:title="isequiv_quotient_functor_subproof">
<ellipse fill="#f070d1" stroke="black" cx="1571" cy="-501.15" rx="170.87" ry="18"/>
<text text-anchor="middle" x="1571" y="-497.45" font-family="Times,serif" font-size="14.00">isequiv_quotient_functor_subproof</text>
</a>
</g>
</g>
<!-- Quotient_isequiv_quotient_functor&#45;&gt;Quotient_isequiv_quotient_functor_subproof -->
<g id="edge5" class="edge">
<title>Quotient_isequiv_quotient_functor&#45;&gt;Quotient_isequiv_quotient_functor_subproof</title>
<path fill="none" stroke="black" d="M1824.27,-617.83C1771.91,-593.92 1674.33,-549.35 1616.78,-523.06"/>
<polygon fill="black" stroke="black" points="1618.11,-519.82 1607.56,-518.85 1615.2,-526.19 1618.11,-519.82"/>
</g>
<!-- Quotient_Quotient_functor -->
<g id="node8" class="node">
<title>Quotient_Quotient_functor</title>
<g id="a_node8"><a xlink:href="Quotient.html#Quotient_functor" xlink:title="Quotient_functor">
<ellipse fill="#f070d1" stroke="black" cx="165" cy="-501.15" rx="89.08" ry="18"/>
<text text-anchor="middle" x="165" y="-497.45" font-family="Times,serif" font-size="14.00">Quotient_functor</text>
</a>
</g>
</g>
<!-- Quotient_isequiv_quotient_functor&#45;&gt;Quotient_Quotient_functor -->
<g id="edge6" class="edge">
<title>Quotient_isequiv_quotient_functor&#45;&gt;Quotient_Quotient_functor</title>
<path fill="none" stroke="black" d="M1792.78,-619.87C1771.51,-615.82 1747.85,-611.8 1726,-609.15 1088.3,-531.87 919.71,-612.19 283,-527.15 265.48,-524.81 246.68,-521.3 229.35,-517.63"/>
<polygon fill="black" stroke="black" points="229.85,-514.16 219.34,-515.47 228.37,-521 229.85,-514.16"/>
</g>
<!-- Quotient_Quotient_ind -->
<g id="node22" class="node">
<title>Quotient_Quotient_ind</title>
<g id="a_node22"><a xlink:href="Quotient.html#Quotient_ind" xlink:title="Quotient_ind">
<ellipse fill="#f070d1" stroke="black" cx="1031" cy="-380.15" rx="70.39" ry="18"/>
<text text-anchor="middle" x="1031" y="-376.45" font-family="Times,serif" font-size="14.00">Quotient_ind</text>
</a>
</g>
</g>
<!-- Quotient_isequiv_quotient_functor&#45;&gt;Quotient_Quotient_ind -->
<g id="edge7" class="edge">
<title>Quotient_isequiv_quotient_functor&#45;&gt;Quotient_Quotient_ind</title>
<path fill="none" stroke="black" d="M1790.55,-620.1C1663.72,-594.18 1406.19,-540.31 1391,-527.15 1372.29,-510.94 1389.34,-491.79 1371,-475.15 1299.26,-410.08 1186.4,-389.53 1110.6,-383.33"/>
<polygon fill="black" stroke="black" points="1110.86,-379.84 1100.63,-382.58 1110.33,-386.82 1110.86,-379.84"/>
</g>
<!-- Quotient_Quotient_functor_compose -->
<g id="node6" class="node">
<title>Quotient_Quotient_functor_compose</title>
<g id="a_node6"><a xlink:href="Quotient.html#Quotient_functor_compose" xlink:title="Quotient_functor_compose">
<ellipse fill="#f070d1" stroke="black" cx="402" cy="-635.15" rx="133.78" ry="18"/>
<ellipse fill="none" stroke="black" cx="402" cy="-635.15" rx="137.78" ry="22"/>
<ellipse fill="none" stroke="black" cx="402" cy="-635.15" rx="141.78" ry="26"/>
<text text-anchor="middle" x="402" y="-631.45" font-family="Times,serif" font-size="14.00">Quotient_functor_compose</text>
</a>
</g>
</g>
<!-- Quotient_Quotient_functor_compose&#45;&gt;Quotient_Quotient_functor -->
<g id="edge8" class="edge">
<title>Quotient_Quotient_functor_compose&#45;&gt;Quotient_Quotient_functor</title>
<path fill="none" stroke="black" d="M359.08,-610.25C314.47,-585.4 245.32,-546.89 202.73,-523.17"/>
<polygon fill="black" stroke="black" points="204.25,-520 193.81,-518.2 200.84,-526.12 204.25,-520"/>
</g>
<!-- Quotient_Quotient_ind_hprop -->
<g id="node17" class="node">
<title>Quotient_Quotient_ind_hprop</title>
<g id="a_node17"><a xlink:href="Quotient.html#Quotient_ind_hprop" xlink:title="Quotient_ind_hprop">
<ellipse fill="#f070d1" stroke="black" cx="864" cy="-501.15" rx="102.08" ry="18"/>
<text text-anchor="middle" x="864" y="-497.45" font-family="Times,serif" font-size="14.00">Quotient_ind_hprop</text>
</a>
</g>
</g>
<!-- Quotient_Quotient_functor_compose&#45;&gt;Quotient_Quotient_ind_hprop -->
<g id="edge9" class="edge">
<title>Quotient_Quotient_functor_compose&#45;&gt;Quotient_Quotient_ind_hprop</title>
<path fill="none" stroke="black" d="M476.23,-612.94C567.01,-587.01 718.96,-543.59 803.17,-519.53"/>
<polygon fill="black" stroke="black" points="804.19,-522.88 812.84,-516.77 802.26,-516.15 804.19,-522.88"/>
</g>
<!-- Quotient_Quotient_functor_idmap -->
<g id="node7" class="node">
<title>Quotient_Quotient_functor_idmap</title>
<g id="a_node7"><a xlink:href="Quotient.html#Quotient_functor_idmap" xlink:title="Quotient_functor_idmap">
<ellipse fill="#f070d1" stroke="black" cx="692" cy="-635.15" rx="122.37" ry="18"/>
<ellipse fill="none" stroke="black" cx="692" cy="-635.15" rx="126.37" ry="22"/>
<ellipse fill="none" stroke="black" cx="692" cy="-635.15" rx="130.38" ry="26"/>
<text text-anchor="middle" x="692" y="-631.45" font-family="Times,serif" font-size="14.00">Quotient_functor_idmap</text>
</a>
</g>
</g>
<!-- Quotient_Quotient_functor_idmap&#45;&gt;Quotient_Quotient_functor -->
<g id="edge10" class="edge">
<title>Quotient_Quotient_functor_idmap&#45;&gt;Quotient_Quotient_functor</title>
<path fill="none" stroke="black" d="M613.1,-614.39C508.27,-588.13 325.11,-542.26 228.62,-518.09"/>
<polygon fill="black" stroke="black" points="229.26,-514.64 218.71,-515.6 227.56,-521.43 229.26,-514.64"/>
</g>
<!-- Quotient_Quotient_functor_idmap&#45;&gt;Quotient_Quotient_ind_hprop -->
<g id="edge11" class="edge">
<title>Quotient_Quotient_functor_idmap&#45;&gt;Quotient_Quotient_ind_hprop</title>
<path fill="none" stroke="black" d="M723.95,-609.63C755.47,-585.44 803.29,-548.74 834.09,-525.11"/>
<polygon fill="black" stroke="black" points="836.5,-527.67 842.3,-518.81 832.23,-522.12 836.5,-527.67"/>
</g>
<!-- Quotient_Quotient_rec -->
<g id="node20" class="node">
<title>Quotient_Quotient_rec</title>
<g id="a_node20"><a xlink:href="Quotient.html#Quotient_rec" xlink:title="Quotient_rec">
<ellipse fill="#f070d1" stroke="black" cx="324" cy="-380.15" rx="70.39" ry="18"/>
<text text-anchor="middle" x="324" y="-376.45" font-family="Times,serif" font-size="14.00">Quotient_rec</text>
</a>
</g>
</g>
<!-- Quotient_Quotient_functor&#45;&gt;Quotient_Quotient_rec -->
<g id="edge12" class="edge">
<title>Quotient_Quotient_functor&#45;&gt;Quotient_Quotient_rec</title>
<path fill="none" stroke="black" d="M187.11,-483.61C214.95,-462.77 262.91,-426.87 294.03,-403.58"/>
<polygon fill="black" stroke="black" points="296.43,-406.16 302.33,-397.37 292.23,-400.56 296.43,-406.16"/>
</g>
<!-- Quotient_Quotient_functor&#45;&gt;Quotient_ishset_quotient -->
<g id="edge13" class="edge">
<title>Quotient_Quotient_functor&#45;&gt;Quotient_ishset_quotient</title>
<path fill="none" stroke="black" d="M155.4,-483.1C144.21,-463.22 125.58,-430.14 112.59,-407.07"/>
<polygon fill="black" stroke="black" points="115.54,-405.17 107.58,-398.17 109.44,-408.6 115.54,-405.17"/>
</g>
<!-- Quotient_qglue -->
<g id="node24" class="node">
<title>Quotient_qglue</title>
<g id="a_node24"><a xlink:href="Quotient.html#qglue" xlink:title="qglue">
<ellipse fill="#f070d1" stroke="black" cx="411" cy="-270.15" rx="36.29" ry="18"/>
<text text-anchor="middle" x="411" y="-266.45" font-family="Times,serif" font-size="14.00">qglue</text>
</a>
</g>
</g>
<!-- Quotient_Quotient_functor&#45;&gt;Quotient_qglue -->
<g id="edge14" class="edge">
<title>Quotient_Quotient_functor&#45;&gt;Quotient_qglue</title>
<path fill="none" stroke="black" d="M171.41,-482.91C182.61,-454.68 208.14,-398.14 245,-362.15 281.97,-326.05 336.14,-299.97 372.44,-285.22"/>
<polygon fill="black" stroke="black" points="374.17,-288.3 382.18,-281.36 371.59,-281.79 374.17,-288.3"/>
</g>
<!-- Quotient_equiv_quotient_ump -->
<g id="node9" class="node">
<title>Quotient_equiv_quotient_ump</title>
<g id="a_node9"><a xlink:href="Quotient.html#equiv_quotient_ump" xlink:title="equiv_quotient_ump">
<ellipse fill="#f070d1" stroke="black" cx="953" cy="-635.15" rx="104.77" ry="18"/>
<ellipse fill="none" stroke="black" cx="953" cy="-635.15" rx="108.78" ry="22"/>
<ellipse fill="none" stroke="black" cx="953" cy="-635.15" rx="112.78" ry="26"/>
<text text-anchor="middle" x="953" y="-631.45" font-family="Times,serif" font-size="14.00">equiv_quotient_ump</text>
</a>
</g>
</g>
<!-- Quotient_equiv_quotient_ump&#45;&gt;Quotient_Quotient_ind_hprop -->
<g id="edge15" class="edge">
<title>Quotient_equiv_quotient_ump&#45;&gt;Quotient_Quotient_ind_hprop</title>
<path fill="none" stroke="black" d="M936.26,-609.32C920.54,-586.01 897.13,-551.3 881.25,-527.74"/>
<polygon fill="black" stroke="black" points="884.06,-525.64 875.57,-519.31 878.26,-529.55 884.06,-525.64"/>
</g>
<!-- Quotient_equiv_quotient_ump&#45;&gt;Quotient_Quotient_rec -->
<g id="edge16" class="edge">
<title>Quotient_equiv_quotient_ump&#45;&gt;Quotient_Quotient_rec</title>
<path fill="none" stroke="black" d="M872.07,-616.93C858.39,-614.21 844.31,-611.51 831,-609.15 709.75,-587.67 363.37,-620.44 283,-527.15 253.31,-492.69 282.37,-438.25 304.4,-406.49"/>
<polygon fill="black" stroke="black" points="307.38,-408.34 310.37,-398.17 301.7,-404.25 307.38,-408.34"/>
</g>
<!-- Quotient_issurj_class_of&#45;&gt;Quotient_Quotient_ind_hprop -->
<g id="edge17" class="edge">
<title>Quotient_issurj_class_of&#45;&gt;Quotient_Quotient_ind_hprop</title>
<path fill="none" stroke="black" d="M1126.64,-618.88C1072.87,-594.98 968.81,-548.74 909.09,-522.19"/>
<polygon fill="black" stroke="black" points="910.46,-518.97 899.9,-518.11 907.61,-525.37 910.46,-518.97"/>
</g>
<!-- Quotient_Quotient_ind_hprop_ -->
<g id="node11" class="node">
<title>Quotient_Quotient_ind_hprop_</title>
<g id="a_node11"><a xlink:href="Quotient.html#Quotient_ind_hprop'" xlink:title="Quotient_ind_hprop&#39;">
<ellipse fill="#f070d1" stroke="black" cx="1873" cy="-501.15" rx="104.77" ry="18"/>
<ellipse fill="none" stroke="black" cx="1873" cy="-501.15" rx="108.78" ry="22"/>
<ellipse fill="none" stroke="black" cx="1873" cy="-501.15" rx="112.78" ry="26"/>
<text text-anchor="middle" x="1873" y="-497.45" font-family="Times,serif" font-size="14.00">Quotient_ind_hprop&#39;</text>
</a>
</g>
</g>
<!-- Quotient_Quotient_ind_hprop_&#45;&gt;Quotient_Quotient_ind -->
<g id="edge18" class="edge">
<title>Quotient_Quotient_ind_hprop_&#45;&gt;Quotient_Quotient_ind</title>
<path fill="none" stroke="black" d="M1792.76,-482.85C1778.87,-480.1 1764.54,-477.42 1751,-475.15 1516.16,-435.81 1235.9,-403.35 1105.09,-389.04"/>
<polygon fill="black" stroke="black" points="1105.12,-385.52 1094.8,-387.91 1104.36,-392.48 1105.12,-385.52"/>
</g>
<!-- Quotient_Quotient_rec2 -->
<g id="node12" class="node">
<title>Quotient_Quotient_rec2</title>
<g id="a_node12"><a xlink:href="Quotient.html#Quotient_rec2" xlink:title="Quotient_rec2">
<ellipse fill="#f070d1" stroke="black" cx="660" cy="-501.15" rx="76.08" ry="18"/>
<ellipse fill="none" stroke="black" cx="660" cy="-501.15" rx="80.08" ry="22"/>
<ellipse fill="none" stroke="black" cx="660" cy="-501.15" rx="84.09" ry="26"/>
<text text-anchor="middle" x="660" y="-497.45" font-family="Times,serif" font-size="14.00">Quotient_rec2</text>
</a>
</g>
</g>
<!-- Quotient_Quotient_rec2&#45;&gt;Quotient_Quotient_rec -->
<g id="edge19" class="edge">
<title>Quotient_Quotient_rec2&#45;&gt;Quotient_Quotient_rec</title>
<path fill="none" stroke="black" d="M606.02,-481.03C541.74,-458.27 435.32,-420.58 373.22,-398.58"/>
<polygon fill="black" stroke="black" points="374.24,-395.23 363.65,-395.19 371.91,-401.83 374.24,-395.23"/>
</g>
<!-- Quotient_Quotient_rec2&#45;&gt;Quotient_Quotient_ind -->
<g id="edge20" class="edge">
<title>Quotient_Quotient_rec2&#45;&gt;Quotient_Quotient_ind</title>
<path fill="none" stroke="black" d="M716.75,-481.95C788.24,-459.02 910.06,-419.94 979.15,-397.78"/>
<polygon fill="black" stroke="black" points="980.5,-401.03 988.95,-394.64 978.36,-394.36 980.5,-401.03"/>
</g>
<!-- Quotient_path_quotient -->
<g id="node13" class="node">
<title>Quotient_path_quotient</title>
<g id="a_node13"><a xlink:href="Quotient.html#path_quotient" xlink:title="path_quotient">
<ellipse fill="#f070d1" stroke="black" cx="1237" cy="-768.15" rx="75.3" ry="18"/>
<ellipse fill="none" stroke="black" cx="1237" cy="-768.15" rx="79.29" ry="22"/>
<ellipse fill="none" stroke="black" cx="1237" cy="-768.15" rx="83.29" ry="26"/>
<text text-anchor="middle" x="1237" y="-764.45" font-family="Times,serif" font-size="14.00">path_quotient</text>
</a>
</g>
</g>
<!-- Quotient_related_quotient_paths -->
<g id="node14" class="node">
<title>Quotient_related_quotient_paths</title>
<g id="a_node14"><a xlink:href="Quotient.html#related_quotient_paths" xlink:title="related_quotient_paths">
<ellipse fill="#f070d1" stroke="black" cx="1599" cy="-635.15" rx="117.78" ry="18"/>
<text text-anchor="middle" x="1599" y="-631.45" font-family="Times,serif" font-size="14.00">related_quotient_paths</text>
</a>
</g>
</g>
<!-- Quotient_path_quotient&#45;&gt;Quotient_related_quotient_paths -->
<g id="edge21" class="edge">
<title>Quotient_path_quotient&#45;&gt;Quotient_related_quotient_paths</title>
<path fill="none" stroke="black" d="M1290.03,-747.96C1358.53,-723.17 1477.12,-680.26 1545.74,-655.43"/>
<polygon fill="black" stroke="black" points="1547.28,-658.59 1555.49,-651.9 1544.9,-652.01 1547.28,-658.59"/>
</g>
<!-- Quotient_path_quotient&#45;&gt;Quotient_ishset_quotient -->
<g id="edge22" class="edge">
<title>Quotient_path_quotient&#45;&gt;Quotient_ishset_quotient</title>
<path fill="none" stroke="black" d="M1154.9,-762.86C891.79,-748.71 84.47,-702.11 47,-661.15 32.02,-644.78 35.84,-564.9 58,-475.15 63.9,-451.25 75.16,-425.63 84.24,-407.19"/>
<polygon fill="black" stroke="black" points="87.37,-408.75 88.74,-398.24 81.12,-405.6 87.37,-408.75"/>
</g>
<!-- Quotient_in_class -->
<g id="node18" class="node">
<title>Quotient_in_class</title>
<g id="a_node18"><a xlink:href="Quotient.html#in_class" xlink:title="in_class">
<ellipse fill="#f070d1" stroke="black" cx="1031" cy="-501.15" rx="46.59" ry="18"/>
<text text-anchor="middle" x="1031" y="-497.45" font-family="Times,serif" font-size="14.00">in_class</text>
</a>
</g>
</g>
<!-- Quotient_related_quotient_paths&#45;&gt;Quotient_in_class -->
<g id="edge23" class="edge">
<title>Quotient_related_quotient_paths&#45;&gt;Quotient_in_class</title>
<path fill="none" stroke="black" d="M1531.3,-620.4C1397.05,-593.08 1108.17,-534 1087,-527.15 1080.75,-525.13 1074.26,-522.63 1068.01,-520"/>
<polygon fill="black" stroke="black" points="1069.02,-516.62 1058.45,-515.81 1066.21,-523.03 1069.02,-516.62"/>
</g>
<!-- Quotient_path_in_class_of -->
<g id="node15" class="node">
<title>Quotient_path_in_class_of</title>
<g id="a_node15"><a xlink:href="Quotient.html#path_in_class_of" xlink:title="path_in_class_of">
<ellipse fill="#f070d1" stroke="black" cx="149" cy="-635.15" rx="85.27" ry="18"/>
<ellipse fill="none" stroke="black" cx="149" cy="-635.15" rx="89.28" ry="22"/>
<ellipse fill="none" stroke="black" cx="149" cy="-635.15" rx="93.29" ry="26"/>
<text text-anchor="middle" x="149" y="-631.45" font-family="Times,serif" font-size="14.00">path_in_class_of</text>
</a>
</g>
</g>
<!-- Quotient_path_in_class_of&#45;&gt;Quotient_in_class -->
<g id="edge24" class="edge">
<title>Quotient_path_in_class_of&#45;&gt;Quotient_in_class</title>
<path fill="none" stroke="black" d="M214.85,-616.71C226.83,-613.91 239.24,-611.25 251,-609.15 569.8,-552.27 662.58,-612.38 975,-527.15 981.63,-525.34 988.47,-522.86 995,-520.16"/>
<polygon fill="black" stroke="black" points="996.52,-523.31 1004.27,-516.09 993.71,-516.9 996.52,-523.31"/>
</g>
<!-- Quotient_path_in_class_of&#45;&gt;Quotient_ishset_quotient -->
<g id="edge25" class="edge">
<title>Quotient_path_in_class_of&#45;&gt;Quotient_ishset_quotient</title>
<path fill="none" stroke="black" d="M122.67,-609.79C103.1,-589.76 77.97,-559.51 67,-527.15 53.17,-486.36 70.37,-437 84.13,-407.38"/>
<polygon fill="black" stroke="black" points="87.4,-408.66 88.62,-398.14 81.1,-405.61 87.4,-408.66"/>
</g>
<!-- Quotient_decidable_in_class -->
<g id="node16" class="node">
<title>Quotient_decidable_in_class</title>
<g id="a_node16"><a xlink:href="Quotient.html#decidable_in_class" xlink:title="decidable_in_class">
<ellipse fill="#f070d1" stroke="black" cx="1360" cy="-635.15" rx="95.58" ry="18"/>
<ellipse fill="none" stroke="black" cx="1360" cy="-635.15" rx="99.58" ry="22"/>
<ellipse fill="none" stroke="black" cx="1360" cy="-635.15" rx="103.58" ry="26"/>
<text text-anchor="middle" x="1360" y="-631.45" font-family="Times,serif" font-size="14.00">decidable_in_class</text>
</a>
</g>
</g>
<!-- Quotient_decidable_in_class&#45;&gt;Quotient_Quotient_ind_hprop -->
<g id="edge26" class="edge">
<title>Quotient_decidable_in_class&#45;&gt;Quotient_Quotient_ind_hprop</title>
<path fill="none" stroke="black" d="M1290.77,-615.73C1194.38,-590.08 1021.1,-543.96 927.74,-519.11"/>
<polygon fill="black" stroke="black" points="928.42,-515.67 917.86,-516.48 926.62,-522.44 928.42,-515.67"/>
</g>
<!-- Quotient_decidable_in_class&#45;&gt;Quotient_in_class -->
<g id="edge27" class="edge">
<title>Quotient_decidable_in_class&#45;&gt;Quotient_in_class</title>
<path fill="none" stroke="black" d="M1304.27,-613.18C1248.89,-592.13 1161.65,-558.43 1087,-527.15 1081.2,-524.72 1075.1,-522.08 1069.14,-519.46"/>
<polygon fill="black" stroke="black" points="1070.51,-516.24 1059.95,-515.38 1067.67,-522.64 1070.51,-516.24"/>
</g>
<!-- Quotient_Quotient_ind_hprop&#45;&gt;Quotient_Quotient_ind -->
<g id="edge28" class="edge">
<title>Quotient_Quotient_ind_hprop&#45;&gt;Quotient_Quotient_ind</title>
<path fill="none" stroke="black" d="M887.22,-483.61C916.59,-462.68 967.27,-426.57 999.94,-403.28"/>
<polygon fill="black" stroke="black" points="1002.13,-406.02 1008.24,-397.37 998.07,-400.32 1002.13,-406.02"/>
</g>
<!-- Quotient_in_class&#45;&gt;Quotient_Quotient_ind -->
<g id="edge29" class="edge">
<title>Quotient_in_class&#45;&gt;Quotient_Quotient_ind</title>
<path fill="none" stroke="black" d="M1031,-483.1C1031,-463.57 1031,-431.31 1031,-408.31"/>
<polygon fill="black" stroke="black" points="1034.5,-408.17 1031,-398.17 1027.5,-408.17 1034.5,-408.17"/>
</g>
<!-- Quotient_Quotient_rec_beta_qglue -->
<g id="node19" class="node">
<title>Quotient_Quotient_rec_beta_qglue</title>
<g id="a_node19"><a xlink:href="Quotient.html#Quotient_rec_beta_qglue" xlink:title="Quotient_rec_beta_qglue">
<ellipse fill="#f070d1" stroke="black" cx="425" cy="-501.15" rx="125.38" ry="18"/>
<ellipse fill="none" stroke="black" cx="425" cy="-501.15" rx="129.38" ry="22"/>
<ellipse fill="none" stroke="black" cx="425" cy="-501.15" rx="133.38" ry="26"/>
<text text-anchor="middle" x="425" y="-497.45" font-family="Times,serif" font-size="14.00">Quotient_rec_beta_qglue</text>
</a>
</g>
</g>
<!-- Quotient_Quotient_rec_beta_qglue&#45;&gt;Quotient_Quotient_rec -->
<g id="edge30" class="edge">
<title>Quotient_Quotient_rec_beta_qglue&#45;&gt;Quotient_Quotient_rec</title>
<path fill="none" stroke="black" d="M403.83,-475.21C386.54,-454.84 362.24,-426.21 345,-405.9"/>
<polygon fill="black" stroke="black" points="347.45,-403.38 338.32,-398.02 342.12,-407.91 347.45,-403.38"/>
</g>
<!-- Quotient_Quotient_rec_beta_qglue&#45;&gt;Quotient_qglue -->
<g id="edge31" class="edge">
<title>Quotient_Quotient_rec_beta_qglue&#45;&gt;Quotient_qglue</title>
<path fill="none" stroke="black" d="M423.45,-474.77C420.79,-431.31 415.39,-343.01 412.66,-298.34"/>
<polygon fill="black" stroke="black" points="416.15,-298 412.04,-288.23 409.16,-298.42 416.15,-298"/>
</g>
<!-- Quotient_Quotient -->
<g id="node26" class="node">
<title>Quotient_Quotient</title>
<g id="a_node26"><a xlink:href="Quotient.html#Quotient" xlink:title="Quotient">
<ellipse fill="#f070d1" stroke="black" cx="324" cy="-51.15" rx="51.19" ry="18"/>
<text text-anchor="middle" x="324" y="-47.45" font-family="Times,serif" font-size="14.00">Quotient</text>
</a>
</g>
</g>
<!-- Quotient_Quotient_rec&#45;&gt;Quotient_Quotient -->
<g id="edge32" class="edge">
<title>Quotient_Quotient_rec&#45;&gt;Quotient_Quotient</title>
<path fill="none" stroke="black" d="M324,-362.03C324,-308.74 324,-145.46 324,-79.86"/>
<polygon fill="black" stroke="black" points="327.5,-79.5 324,-69.5 320.5,-79.5 327.5,-79.5"/>
</g>
<!-- Quotient_Quotient_ind_beta_qglue -->
<g id="node21" class="node">
<title>Quotient_Quotient_ind_beta_qglue</title>
<g id="a_node21"><a xlink:href="Quotient.html#Quotient_ind_beta_qglue" xlink:title="Quotient_ind_beta_qglue">
<ellipse fill="#f070d1" stroke="black" cx="1229" cy="-501.15" rx="125.38" ry="18"/>
<ellipse fill="none" stroke="black" cx="1229" cy="-501.15" rx="129.38" ry="22"/>
<ellipse fill="none" stroke="black" cx="1229" cy="-501.15" rx="133.38" ry="26"/>
<text text-anchor="middle" x="1229" y="-497.45" font-family="Times,serif" font-size="14.00">Quotient_ind_beta_qglue</text>
</a>
</g>
</g>
<!-- Quotient_Quotient_ind_beta_qglue&#45;&gt;Quotient_Quotient_ind -->
<g id="edge33" class="edge">
<title>Quotient_Quotient_ind_beta_qglue&#45;&gt;Quotient_Quotient_ind</title>
<path fill="none" stroke="black" d="M1188.93,-476.07C1152.94,-454.44 1100.6,-422.98 1066.19,-402.3"/>
<polygon fill="black" stroke="black" points="1067.79,-399.18 1057.42,-397.03 1064.19,-405.18 1067.79,-399.18"/>
</g>
<!-- Quotient_Quotient_ind&#45;&gt;Quotient_qglue -->
<g id="edge34" class="edge">
<title>Quotient_Quotient_ind&#45;&gt;Quotient_qglue</title>
<path fill="none" stroke="black" d="M974.61,-369.33C852.29,-348.02 564.74,-297.93 454.8,-278.78"/>
<polygon fill="black" stroke="black" points="455.18,-275.29 444.72,-277.03 453.97,-282.19 455.18,-275.29"/>
</g>
<!-- Quotient_ishset_quotient&#45;&gt;Quotient_Quotient -->
<g id="edge35" class="edge">
<title>Quotient_ishset_quotient&#45;&gt;Quotient_Quotient</title>
<path fill="none" stroke="black" d="M109.83,-362.03C147.22,-307.94 262.92,-140.52 306.85,-76.97"/>
<polygon fill="black" stroke="black" points="309.75,-78.93 312.55,-68.71 303.99,-74.95 309.75,-78.93"/>
</g>
<!-- Quotient_class_of -->
<g id="node25" class="node">
<title>Quotient_class_of</title>
<g id="a_node25"><a xlink:href="Quotient.html#class_of" xlink:title="class_of">
<ellipse fill="#f070d1" stroke="black" cx="404" cy="-161.15" rx="46.59" ry="18"/>
<text text-anchor="middle" x="404" y="-157.45" font-family="Times,serif" font-size="14.00">class_of</text>
</a>
</g>
</g>
<!-- Quotient_qglue&#45;&gt;Quotient_class_of -->
<g id="edge36" class="edge">
<title>Quotient_qglue&#45;&gt;Quotient_class_of</title>
<path fill="none" stroke="black" d="M409.88,-251.96C408.77,-235.11 407.08,-209.17 405.79,-189.49"/>
<polygon fill="black" stroke="black" points="409.27,-189.05 405.12,-179.3 402.28,-189.51 409.27,-189.05"/>
</g>
<!-- Quotient_class_of&#45;&gt;Quotient_Quotient -->
<g id="edge37" class="edge">
<title>Quotient_class_of&#45;&gt;Quotient_Quotient</title>
<path fill="none" stroke="black" d="M391.85,-143.75C378.69,-125.99 357.56,-97.45 342.37,-76.95"/>
<polygon fill="black" stroke="black" points="345.03,-74.66 336.26,-68.71 339.4,-78.83 345.03,-74.66"/>
</g>
</g>
</svg>
