<?xml version="1.0" encoding="UTF-8" standalone="no"?>
<!DOCTYPE svg PUBLIC "-//W3C//DTD SVG 1.1//EN"
 "http://www.w3.org/Graphics/SVG/1.1/DTD/svg11.dtd">
<!-- Generated by graphviz version 2.43.0 (0)
 -->
<!-- Title: HoTT_Projective Pages: 1 -->
<svg width="1006pt" height="507pt"
 viewBox="0.00 0.00 1006.00 507.00" xmlns="http://www.w3.org/2000/svg" xmlns:xlink="http://www.w3.org/1999/xlink">
<g id="graph0" class="graph" transform="scale(1 1) rotate(0) translate(4 503)">
<title>HoTT_Projective</title>
<polygon fill="white" stroke="transparent" points="-4,4 -4,-503 1002,-503 1002,4 -4,4"/>
<g id="clust1" class="cluster">
<title>cluster_Projective</title>
<polygon fill="#ffffc3" stroke="black" points="12.47,-8 12.47,-491 985.52,-491 985.52,-8 12.47,-8"/>
<text text-anchor="middle" x="56.97" y="-475.8" font-family="Times,serif" font-size="14.00">Projective</text>
</g>
<!-- Projective_equiv_isprojective_ishset_AC -->
<g id="node1" class="node">
<title>Projective_equiv_isprojective_ishset_AC</title>
<g id="a_node1"><a xlink:href="Projective.html#equiv_isprojective_ishset_AC" xlink:title="equiv_isprojective_ishset_AC">
<ellipse fill="#f070d1" stroke="black" cx="736.12" cy="-434" rx="144.09" ry="18"/>
<ellipse fill="none" stroke="black" cx="736.12" cy="-434" rx="148.08" ry="22"/>
<ellipse fill="none" stroke="black" cx="736.12" cy="-434" rx="152.07" ry="26"/>
<text text-anchor="middle" x="736.12" y="-430.3" font-family="Times,serif" font-size="14.00">equiv_isprojective_ishset_AC</text>
</a>
</g>
</g>
<!-- Projective_projective_cover_AC -->
<g id="node2" class="node">
<title>Projective_projective_cover_AC</title>
<g id="a_node2"><a xlink:href="Projective.html#projective_cover_AC" xlink:title="projective_cover_AC">
<ellipse fill="#f070d1" stroke="black" cx="755.12" cy="-354" rx="104.78" ry="18"/>
<text text-anchor="middle" x="755.12" y="-350.3" font-family="Times,serif" font-size="14.00">projective_cover_AC</text>
</a>
</g>
</g>
<!-- Projective_equiv_isprojective_ishset_AC&#45;&gt;Projective_projective_cover_AC -->
<g id="edge1" class="edge">
<title>Projective_equiv_isprojective_ishset_AC&#45;&gt;Projective_projective_cover_AC</title>
<path fill="none" stroke="black" d="M742.24,-407.89C744.22,-399.75 746.43,-390.68 748.46,-382.38"/>
<polygon fill="black" stroke="black" points="751.92,-382.95 750.88,-372.41 745.12,-381.3 751.92,-382.95"/>
</g>
<!-- Projective_equiv_isprojective_choice -->
<g id="node4" class="node">
<title>Projective_equiv_isprojective_choice</title>
<g id="a_node4"><a xlink:href="Projective.html#equiv_isprojective_choice" xlink:title="equiv_isprojective_choice">
<ellipse fill="#f070d1" stroke="black" cx="773.12" cy="-274" rx="128.08" ry="18"/>
<text text-anchor="middle" x="773.12" y="-270.3" font-family="Times,serif" font-size="14.00">equiv_isprojective_choice</text>
</a>
</g>
</g>
<!-- Projective_projective_cover_AC&#45;&gt;Projective_equiv_isprojective_choice -->
<g id="edge2" class="edge">
<title>Projective_projective_cover_AC&#45;&gt;Projective_equiv_isprojective_choice</title>
<path fill="none" stroke="black" d="M759.12,-335.69C761.42,-325.72 764.36,-312.99 766.95,-301.76"/>
<polygon fill="black" stroke="black" points="770.37,-302.52 769.2,-291.99 763.54,-300.95 770.37,-302.52"/>
</g>
<!-- Projective_isprojective_unit -->
<g id="node3" class="node">
<title>Projective_isprojective_unit</title>
<g id="a_node3"><a xlink:href="Projective.html#isprojective_unit" xlink:title="isprojective_unit">
<ellipse fill="#f070d1" stroke="black" cx="396.12" cy="-274" rx="87.96" ry="18"/>
<ellipse fill="none" stroke="black" cx="396.12" cy="-274" rx="91.97" ry="22"/>
<ellipse fill="none" stroke="black" cx="396.12" cy="-274" rx="95.99" ry="26"/>
<text text-anchor="middle" x="396.12" y="-270.3" font-family="Times,serif" font-size="14.00">isprojective_unit</text>
</a>
</g>
</g>
<!-- Projective_iff_isprojective_choice -->
<g id="node5" class="node">
<title>Projective_iff_isprojective_choice</title>
<g id="a_node5"><a xlink:href="Projective.html#iff_isprojective_choice" xlink:title="iff_isprojective_choice">
<ellipse fill="#f070d1" stroke="black" cx="798.12" cy="-186" rx="112.38" ry="18"/>
<text text-anchor="middle" x="798.12" y="-182.3" font-family="Times,serif" font-size="14.00">iff_isprojective_choice</text>
</a>
</g>
</g>
<!-- Projective_isprojective_unit&#45;&gt;Projective_iff_isprojective_choice -->
<g id="edge3" class="edge">
<title>Projective_isprojective_unit&#45;&gt;Projective_iff_isprojective_choice</title>
<path fill="none" stroke="black" d="M469.86,-257.23C541.95,-241.8 651.14,-218.44 723.53,-202.96"/>
<polygon fill="black" stroke="black" points="724.44,-206.34 733.49,-200.83 722.98,-199.5 724.44,-206.34"/>
</g>
<!-- Projective_equiv_isprojective_choice&#45;&gt;Projective_iff_isprojective_choice -->
<g id="edge4" class="edge">
<title>Projective_equiv_isprojective_choice&#45;&gt;Projective_iff_isprojective_choice</title>
<path fill="none" stroke="black" d="M778.06,-256.01C781.53,-244.07 786.25,-227.85 790.24,-214.14"/>
<polygon fill="black" stroke="black" points="793.68,-214.83 793.11,-204.25 786.96,-212.88 793.68,-214.83"/>
</g>
<!-- Projective_IsProjective_ -->
<g id="node6" class="node">
<title>Projective_IsProjective_</title>
<g id="a_node6"><a xlink:href="Projective.html#IsProjective'" xlink:title="IsProjective&#39;">
<ellipse fill="#f070d1" stroke="black" cx="798.12" cy="-106" rx="68.49" ry="18"/>
<text text-anchor="middle" x="798.12" y="-102.3" font-family="Times,serif" font-size="14.00">IsProjective&#39;</text>
</a>
</g>
</g>
<!-- Projective_iff_isprojective_choice&#45;&gt;Projective_IsProjective_ -->
<g id="edge5" class="edge">
<title>Projective_iff_isprojective_choice&#45;&gt;Projective_IsProjective_</title>
<path fill="none" stroke="black" d="M798.12,-167.69C798.12,-157.89 798.12,-145.42 798.12,-134.33"/>
<polygon fill="black" stroke="black" points="801.63,-134.26 798.12,-124.26 794.63,-134.26 801.63,-134.26"/>
</g>
<!-- Projective_iff_isprojective_surjections_split -->
<g id="node8" class="node">
<title>Projective_iff_isprojective_surjections_split</title>
<g id="a_node8"><a xlink:href="Projective.html#iff_isprojective_surjections_split" xlink:title="iff_isprojective_surjections_split">
<ellipse fill="#f070d1" stroke="black" cx="363.12" cy="-106" rx="159.47" ry="18"/>
<text text-anchor="middle" x="363.12" y="-102.3" font-family="Times,serif" font-size="14.00">iff_isprojective_surjections_split</text>
</a>
</g>
</g>
<!-- Projective_iff_isprojective_choice&#45;&gt;Projective_iff_isprojective_surjections_split -->
<g id="edge6" class="edge">
<title>Projective_iff_isprojective_choice&#45;&gt;Projective_iff_isprojective_surjections_split</title>
<path fill="none" stroke="black" d="M726.29,-172.12C651.89,-158.78 535.41,-137.89 454.5,-123.38"/>
<polygon fill="black" stroke="black" points="454.78,-119.88 444.32,-121.56 453.54,-126.77 454.78,-119.88"/>
</g>
<!-- Projective_equiv_isprojective_surjections_split -->
<g id="node7" class="node">
<title>Projective_equiv_isprojective_surjections_split</title>
<g id="a_node7"><a xlink:href="Projective.html#equiv_isprojective_surjections_split" xlink:title="equiv_isprojective_surjections_split">
<ellipse fill="#f070d1" stroke="black" cx="310.12" cy="-186" rx="174.68" ry="18"/>
<ellipse fill="none" stroke="black" cx="310.12" cy="-186" rx="178.67" ry="22"/>
<ellipse fill="none" stroke="black" cx="310.12" cy="-186" rx="182.67" ry="26"/>
<text text-anchor="middle" x="310.12" y="-182.3" font-family="Times,serif" font-size="14.00">equiv_isprojective_surjections_split</text>
</a>
</g>
</g>
<!-- Projective_equiv_isprojective_surjections_split&#45;&gt;Projective_iff_isprojective_surjections_split -->
<g id="edge7" class="edge">
<title>Projective_equiv_isprojective_surjections_split&#45;&gt;Projective_iff_isprojective_surjections_split</title>
<path fill="none" stroke="black" d="M327.19,-159.89C333.09,-151.21 339.71,-141.47 345.64,-132.73"/>
<polygon fill="black" stroke="black" points="348.57,-134.65 351.29,-124.41 342.78,-130.71 348.57,-134.65"/>
</g>
<!-- Projective_IsProjective -->
<g id="node9" class="node">
<title>Projective_IsProjective</title>
<g id="a_node9"><a xlink:href="Projective.html#IsProjective" xlink:title="IsProjective">
<ellipse fill="#f070d1" stroke="black" cx="363.12" cy="-34" rx="65.79" ry="18"/>
<text text-anchor="middle" x="363.12" y="-30.3" font-family="Times,serif" font-size="14.00">IsProjective</text>
</a>
</g>
</g>
<!-- Projective_iff_isprojective_surjections_split&#45;&gt;Projective_IsProjective -->
<g id="edge8" class="edge">
<title>Projective_iff_isprojective_surjections_split&#45;&gt;Projective_IsProjective</title>
<path fill="none" stroke="black" d="M363.12,-87.7C363.12,-79.98 363.12,-70.71 363.12,-62.11"/>
<polygon fill="black" stroke="black" points="366.63,-62.1 363.12,-52.1 359.63,-62.1 366.63,-62.1"/>
</g>
</g>
</svg>
