<?xml version="1.0" encoding="UTF-8" standalone="no"?>
<!DOCTYPE svg PUBLIC "-//W3C//DTD SVG 1.1//EN"
 "http://www.w3.org/Graphics/SVG/1.1/DTD/svg11.dtd">
<!-- Generated by graphviz version 2.43.0 (0)
 -->
<!-- Title: HoTT_Spaces_Card Pages: 1 -->
<svg width="2780pt" height="1394pt"
 viewBox="0.00 0.00 2780.00 1394.00" xmlns="http://www.w3.org/2000/svg" xmlns:xlink="http://www.w3.org/1999/xlink">
<g id="graph0" class="graph" transform="scale(1 1) rotate(0) translate(4 1390)">
<title>HoTT_Spaces_Card</title>
<polygon fill="white" stroke="transparent" points="-4,4 -4,-1390 2776,-1390 2776,4 -4,4"/>
<g id="clust1" class="cluster">
<title>cluster_Card</title>
<polygon fill="#ffffc3" stroke="black" points="8,-26.98 8,-1359.02 2764,-1359.02 2764,-26.98 8,-26.98"/>
<text text-anchor="middle" x="33.5" y="-1343.82" font-family="Times,serif" font-size="14.00">Card</text>
</g>
<!-- Card_preorder_card -->
<g id="node1" class="node">
<title>Card_preorder_card</title>
<g id="a_node1"><a xlink:href="Card.html#preorder_card" xlink:title="preorder_card">
<ellipse fill="#f070d1" stroke="black" cx="2671" cy="-869.98" rx="76.87" ry="18"/>
<ellipse fill="none" stroke="black" cx="2671" cy="-869.98" rx="80.88" ry="22"/>
<ellipse fill="none" stroke="black" cx="2671" cy="-869.98" rx="84.89" ry="26"/>
<text text-anchor="middle" x="2671" y="-866.28" font-family="Times,serif" font-size="14.00">preorder_card</text>
</a>
</g>
</g>
<!-- Card_transitive_card -->
<g id="node2" class="node">
<title>Card_transitive_card</title>
<g id="a_node2"><a xlink:href="Card.html#transitive_card" xlink:title="transitive_card">
<ellipse fill="#f070d1" stroke="black" cx="2502" cy="-599.98" rx="80.69" ry="18"/>
<text text-anchor="middle" x="2502" y="-596.28" font-family="Times,serif" font-size="14.00">transitive_card</text>
</a>
</g>
</g>
<!-- Card_preorder_card&#45;&gt;Card_transitive_card -->
<g id="edge1" class="edge">
<title>Card_preorder_card&#45;&gt;Card_transitive_card</title>
<path fill="none" stroke="black" d="M2655.4,-844.25C2623.41,-793.52 2550.65,-678.13 2518.18,-626.63"/>
<polygon fill="black" stroke="black" points="2521.07,-624.67 2512.78,-618.07 2515.15,-628.4 2521.07,-624.67"/>
</g>
<!-- Card_reflexive_card -->
<g id="node3" class="node">
<title>Card_reflexive_card</title>
<g id="a_node3"><a xlink:href="Card.html#reflexive_card" xlink:title="reflexive_card">
<ellipse fill="#f070d1" stroke="black" cx="2676" cy="-599.98" rx="75.29" ry="18"/>
<text text-anchor="middle" x="2676" y="-596.28" font-family="Times,serif" font-size="14.00">reflexive_card</text>
</a>
</g>
</g>
<!-- Card_preorder_card&#45;&gt;Card_reflexive_card -->
<g id="edge2" class="edge">
<title>Card_preorder_card&#45;&gt;Card_reflexive_card</title>
<path fill="none" stroke="black" d="M2671.47,-843.77C2672.41,-793.28 2674.52,-680.18 2675.49,-628.13"/>
<polygon fill="black" stroke="black" points="2679,-628.06 2675.68,-618 2672,-627.93 2679,-628.06"/>
</g>
<!-- Card_le_card -->
<g id="node19" class="node">
<title>Card_le_card</title>
<g id="a_node19"><a xlink:href="Card.html#le_card" xlink:title="le_card">
<ellipse fill="#f070d1" stroke="black" cx="2359" cy="-599.98" rx="44.39" ry="18"/>
<text text-anchor="middle" x="2359" y="-596.28" font-family="Times,serif" font-size="14.00">le_card</text>
</a>
</g>
</g>
<!-- Card_preorder_card&#45;&gt;Card_le_card -->
<g id="edge3" class="edge">
<title>Card_preorder_card&#45;&gt;Card_le_card</title>
<path fill="none" stroke="black" d="M2643.31,-845.19C2583.49,-793.81 2442.89,-673.04 2384.8,-623.14"/>
<polygon fill="black" stroke="black" points="2387.04,-620.45 2377.17,-616.59 2382.48,-625.76 2387.04,-620.45"/>
</g>
<!-- Card_leq_card -->
<g id="node24" class="node">
<title>Card_leq_card</title>
<g id="a_node24"><a xlink:href="Card.html#leq_card" xlink:title="leq_card">
<ellipse fill="#f070d1" stroke="black" cx="2430" cy="-356.98" rx="50.09" ry="18"/>
<text text-anchor="middle" x="2430" y="-353.28" font-family="Times,serif" font-size="14.00">leq_card</text>
</a>
</g>
</g>
<!-- Card_transitive_card&#45;&gt;Card_leq_card -->
<g id="edge4" class="edge">
<title>Card_transitive_card&#45;&gt;Card_leq_card</title>
<path fill="none" stroke="black" d="M2496.82,-581.65C2484.42,-540.13 2452.94,-434.76 2438.04,-384.91"/>
<polygon fill="black" stroke="black" points="2441.35,-383.73 2435.13,-375.15 2434.64,-385.74 2441.35,-383.73"/>
</g>
<!-- Card_reflexive_card&#45;&gt;Card_leq_card -->
<g id="edge5" class="edge">
<title>Card_reflexive_card&#45;&gt;Card_leq_card</title>
<path fill="none" stroke="black" d="M2659.09,-582.41C2616.23,-540.42 2503.21,-429.7 2453.75,-381.25"/>
<polygon fill="black" stroke="black" points="2455.97,-378.52 2446.38,-374.02 2451.07,-383.52 2455.97,-378.52"/>
</g>
<!-- Card_exp_card_mult_mult -->
<g id="node4" class="node">
<title>Card_exp_card_mult_mult</title>
<g id="a_node4"><a xlink:href="Card.html#exp_card_mult_mult" xlink:title="exp_card_mult_mult">
<ellipse fill="#f070d1" stroke="black" cx="2075" cy="-869.98" rx="103.98" ry="18"/>
<ellipse fill="none" stroke="black" cx="2075" cy="-869.98" rx="107.98" ry="22"/>
<ellipse fill="none" stroke="black" cx="2075" cy="-869.98" rx="111.98" ry="26"/>
<text text-anchor="middle" x="2075" y="-866.28" font-family="Times,serif" font-size="14.00">exp_card_mult_mult</text>
</a>
</g>
</g>
<!-- Card_mult_card -->
<g id="node22" class="node">
<title>Card_mult_card</title>
<g id="a_node22"><a xlink:href="Card.html#mult_card" xlink:title="mult_card">
<ellipse fill="#f070d1" stroke="black" cx="1343" cy="-599.98" rx="57.39" ry="18"/>
<text text-anchor="middle" x="1343" y="-596.28" font-family="Times,serif" font-size="14.00">mult_card</text>
</a>
</g>
</g>
<!-- Card_exp_card_mult_mult&#45;&gt;Card_mult_card -->
<g id="edge6" class="edge">
<title>Card_exp_card_mult_mult&#45;&gt;Card_mult_card</title>
<path fill="none" stroke="black" d="M2016.95,-847.72C1875.57,-795.96 1515.66,-664.19 1388.42,-617.61"/>
<polygon fill="black" stroke="black" points="1389.55,-614.29 1378.95,-614.14 1387.14,-620.87 1389.55,-614.29"/>
</g>
<!-- Card_exp_card -->
<g id="node25" class="node">
<title>Card_exp_card</title>
<g id="a_node25"><a xlink:href="Card.html#exp_card" xlink:title="exp_card">
<ellipse fill="#f070d1" stroke="black" cx="2075" cy="-599.98" rx="51.99" ry="18"/>
<text text-anchor="middle" x="2075" y="-596.28" font-family="Times,serif" font-size="14.00">exp_card</text>
</a>
</g>
</g>
<!-- Card_exp_card_mult_mult&#45;&gt;Card_exp_card -->
<g id="edge7" class="edge">
<title>Card_exp_card_mult_mult&#45;&gt;Card_exp_card</title>
<path fill="none" stroke="black" d="M2075,-843.77C2075,-793.28 2075,-680.18 2075,-628.13"/>
<polygon fill="black" stroke="black" points="2078.5,-628 2075,-618 2071.5,-628 2078.5,-628"/>
</g>
<!-- Card_exp_mult_card_exp -->
<g id="node5" class="node">
<title>Card_exp_mult_card_exp</title>
<g id="a_node5"><a xlink:href="Card.html#exp_mult_card_exp" xlink:title="exp_mult_card_exp">
<ellipse fill="#f070d1" stroke="black" cx="2113" cy="-1166.98" rx="98.6" ry="18"/>
<ellipse fill="none" stroke="black" cx="2113" cy="-1166.98" rx="102.59" ry="22"/>
<ellipse fill="none" stroke="black" cx="2113" cy="-1166.98" rx="106.58" ry="26"/>
<text text-anchor="middle" x="2113" y="-1163.28" font-family="Times,serif" font-size="14.00">exp_mult_card_exp</text>
</a>
</g>
</g>
<!-- Card_commutative_prod -->
<g id="node13" class="node">
<title>Card_commutative_prod</title>
<g id="a_node13"><a xlink:href="Card.html#commutative_prod" xlink:title="commutative_prod">
<ellipse fill="#f070d1" stroke="black" cx="1660" cy="-869.98" rx="96.68" ry="18"/>
<text text-anchor="middle" x="1660" y="-866.28" font-family="Times,serif" font-size="14.00">commutative_prod</text>
</a>
</g>
</g>
<!-- Card_exp_mult_card_exp&#45;&gt;Card_commutative_prod -->
<g id="edge8" class="edge">
<title>Card_exp_mult_card_exp&#45;&gt;Card_commutative_prod</title>
<path fill="none" stroke="black" d="M2076.69,-1142.34C1991.01,-1086.53 1777.16,-947.27 1693.91,-893.06"/>
<polygon fill="black" stroke="black" points="1695.63,-890.01 1685.35,-887.48 1691.81,-895.87 1695.63,-890.01"/>
</g>
<!-- Card_exp_mult_card_exp&#45;&gt;Card_exp_card -->
<g id="edge9" class="edge">
<title>Card_exp_mult_card_exp&#45;&gt;Card_exp_card</title>
<path fill="none" stroke="black" d="M2187.41,-1148.31C2337.8,-1108.82 2655.6,-1004.12 2557,-843.98 2462.28,-690.14 2236.88,-630.2 2131.33,-609.97"/>
<polygon fill="black" stroke="black" points="2131.98,-606.53 2121.5,-608.14 2130.69,-613.41 2131.98,-606.53"/>
</g>
<!-- Card_exp_card_sum_mult -->
<g id="node6" class="node">
<title>Card_exp_card_sum_mult</title>
<g id="a_node6"><a xlink:href="Card.html#exp_card_sum_mult" xlink:title="exp_card_sum_mult">
<ellipse fill="#f070d1" stroke="black" cx="1087" cy="-869.98" rx="102.08" ry="18"/>
<ellipse fill="none" stroke="black" cx="1087" cy="-869.98" rx="106.08" ry="22"/>
<ellipse fill="none" stroke="black" cx="1087" cy="-869.98" rx="110.08" ry="26"/>
<text text-anchor="middle" x="1087" y="-866.28" font-family="Times,serif" font-size="14.00">exp_card_sum_mult</text>
</a>
</g>
</g>
<!-- Card_exp_card_sum_mult&#45;&gt;Card_mult_card -->
<g id="edge10" class="edge">
<title>Card_exp_card_sum_mult&#45;&gt;Card_mult_card</title>
<path fill="none" stroke="black" d="M1110.62,-844.25C1159.62,-792.95 1271.74,-675.57 1320.1,-624.95"/>
<polygon fill="black" stroke="black" points="1322.92,-627.06 1327.3,-617.41 1317.86,-622.23 1322.92,-627.06"/>
</g>
<!-- Card_plus_card -->
<g id="node23" class="node">
<title>Card_plus_card</title>
<g id="a_node23"><a xlink:href="Card.html#plus_card" xlink:title="plus_card">
<ellipse fill="#f070d1" stroke="black" cx="575" cy="-599.98" rx="55.49" ry="18"/>
<text text-anchor="middle" x="575" y="-596.28" font-family="Times,serif" font-size="14.00">plus_card</text>
</a>
</g>
</g>
<!-- Card_exp_card_sum_mult&#45;&gt;Card_plus_card -->
<g id="edge11" class="edge">
<title>Card_exp_card_sum_mult&#45;&gt;Card_plus_card</title>
<path fill="none" stroke="black" d="M1042.9,-845.9C943.59,-793.91 703.89,-668.45 611.85,-620.27"/>
<polygon fill="black" stroke="black" points="613.38,-617.12 602.9,-615.58 610.14,-623.32 613.38,-617.12"/>
</g>
<!-- Card_exp_card_sum_mult&#45;&gt;Card_exp_card -->
<g id="edge12" class="edge">
<title>Card_exp_card_sum_mult&#45;&gt;Card_exp_card</title>
<path fill="none" stroke="black" d="M1157.26,-849.92C1346.5,-798.59 1863.52,-658.34 2025.67,-614.36"/>
<polygon fill="black" stroke="black" points="2026.65,-617.72 2035.39,-611.72 2024.82,-610.96 2026.65,-617.72"/>
</g>
<!-- Card_exp_one_card -->
<g id="node7" class="node">
<title>Card_exp_one_card</title>
<g id="a_node7"><a xlink:href="Card.html#exp_one_card" xlink:title="exp_one_card">
<ellipse fill="#f070d1" stroke="black" cx="2286" cy="-869.98" rx="73.39" ry="18"/>
<ellipse fill="none" stroke="black" cx="2286" cy="-869.98" rx="77.39" ry="22"/>
<ellipse fill="none" stroke="black" cx="2286" cy="-869.98" rx="81.39" ry="26"/>
<text text-anchor="middle" x="2286" y="-866.28" font-family="Times,serif" font-size="14.00">exp_one_card</text>
</a>
</g>
</g>
<!-- Card_one_card -->
<g id="node20" class="node">
<title>Card_one_card</title>
<g id="a_node20"><a xlink:href="Card.html#one_card" xlink:title="one_card">
<ellipse fill="#f070d1" stroke="black" cx="1860" cy="-599.98" rx="51.99" ry="18"/>
<text text-anchor="middle" x="1860" y="-596.28" font-family="Times,serif" font-size="14.00">one_card</text>
</a>
</g>
</g>
<!-- Card_exp_one_card&#45;&gt;Card_one_card -->
<g id="edge13" class="edge">
<title>Card_exp_one_card&#45;&gt;Card_one_card</title>
<path fill="none" stroke="black" d="M2250.41,-846.59C2169.06,-795.41 1970.5,-670.5 1892.36,-621.33"/>
<polygon fill="black" stroke="black" points="1894.2,-618.36 1883.87,-616 1890.47,-624.28 1894.2,-618.36"/>
</g>
<!-- Card_exp_one_card&#45;&gt;Card_exp_card -->
<g id="edge14" class="edge">
<title>Card_exp_one_card&#45;&gt;Card_exp_card</title>
<path fill="none" stroke="black" d="M2266.53,-844.25C2226.31,-793.17 2134.49,-676.54 2094.37,-625.57"/>
<polygon fill="black" stroke="black" points="2096.88,-623.11 2087.94,-617.41 2091.38,-627.44 2096.88,-623.11"/>
</g>
<!-- Card_exp_card_one -->
<g id="node8" class="node">
<title>Card_exp_card_one</title>
<g id="a_node8"><a xlink:href="Card.html#exp_card_one" xlink:title="exp_card_one">
<ellipse fill="#f070d1" stroke="black" cx="2467" cy="-869.98" rx="73.39" ry="18"/>
<ellipse fill="none" stroke="black" cx="2467" cy="-869.98" rx="77.39" ry="22"/>
<ellipse fill="none" stroke="black" cx="2467" cy="-869.98" rx="81.39" ry="26"/>
<text text-anchor="middle" x="2467" y="-866.28" font-family="Times,serif" font-size="14.00">exp_card_one</text>
</a>
</g>
</g>
<!-- Card_exp_card_one&#45;&gt;Card_one_card -->
<g id="edge15" class="edge">
<title>Card_exp_card_one&#45;&gt;Card_one_card</title>
<path fill="none" stroke="black" d="M2420.63,-848.5C2305.49,-797.67 2008.06,-666.35 1900,-618.64"/>
<polygon fill="black" stroke="black" points="1901.3,-615.39 1890.74,-614.55 1898.48,-621.79 1901.3,-615.39"/>
</g>
<!-- Card_exp_card_one&#45;&gt;Card_exp_card -->
<g id="edge16" class="edge">
<title>Card_exp_card_one&#45;&gt;Card_exp_card</title>
<path fill="none" stroke="black" d="M2433.58,-846.13C2358.68,-794.92 2178.27,-671.58 2105.85,-622.07"/>
<polygon fill="black" stroke="black" points="2107.8,-619.16 2097.57,-616.41 2103.85,-624.94 2107.8,-619.16"/>
</g>
<!-- Card_exp_zero_card -->
<g id="node9" class="node">
<title>Card_exp_zero_card</title>
<g id="a_node9"><a xlink:href="Card.html#exp_zero_card" xlink:title="exp_zero_card">
<ellipse fill="#f070d1" stroke="black" cx="1860" cy="-869.98" rx="76.87" ry="18"/>
<ellipse fill="none" stroke="black" cx="1860" cy="-869.98" rx="80.88" ry="22"/>
<ellipse fill="none" stroke="black" cx="1860" cy="-869.98" rx="84.89" ry="26"/>
<text text-anchor="middle" x="1860" y="-866.28" font-family="Times,serif" font-size="14.00">exp_zero_card</text>
</a>
</g>
</g>
<!-- Card_exp_zero_card&#45;&gt;Card_one_card -->
<g id="edge17" class="edge">
<title>Card_exp_zero_card&#45;&gt;Card_one_card</title>
<path fill="none" stroke="black" d="M1860,-843.77C1860,-793.28 1860,-680.18 1860,-628.13"/>
<polygon fill="black" stroke="black" points="1863.5,-628 1860,-618 1856.5,-628 1863.5,-628"/>
</g>
<!-- Card_zero_card -->
<g id="node21" class="node">
<title>Card_zero_card</title>
<g id="a_node21"><a xlink:href="Card.html#zero_card" xlink:title="zero_card">
<ellipse fill="#f070d1" stroke="black" cx="1027" cy="-599.98" rx="55.79" ry="18"/>
<text text-anchor="middle" x="1027" y="-596.28" font-family="Times,serif" font-size="14.00">zero_card</text>
</a>
</g>
</g>
<!-- Card_exp_zero_card&#45;&gt;Card_zero_card -->
<g id="edge18" class="edge">
<title>Card_exp_zero_card&#45;&gt;Card_zero_card</title>
<path fill="none" stroke="black" d="M1803.07,-850.66C1647.94,-800.75 1219.7,-662.98 1075.28,-616.51"/>
<polygon fill="black" stroke="black" points="1075.97,-613.06 1065.38,-613.33 1073.83,-619.72 1075.97,-613.06"/>
</g>
<!-- Card_exp_zero_card&#45;&gt;Card_exp_card -->
<g id="edge19" class="edge">
<title>Card_exp_zero_card&#45;&gt;Card_exp_card</title>
<path fill="none" stroke="black" d="M1879.84,-844.25C1920.9,-793.06 2014.77,-676.06 2055.52,-625.26"/>
<polygon fill="black" stroke="black" points="2058.29,-627.4 2061.81,-617.41 2052.83,-623.02 2058.29,-627.4"/>
</g>
<!-- Card_issemiring_card -->
<g id="node10" class="node">
<title>Card_issemiring_card</title>
<g id="a_node10"><a xlink:href="Card.html#issemiring_card" xlink:title="issemiring_card">
<ellipse fill="#f070d1" stroke="black" cx="773" cy="-1166.98" rx="84.49" ry="18"/>
<ellipse fill="none" stroke="black" cx="773" cy="-1166.98" rx="88.49" ry="22"/>
<ellipse fill="none" stroke="black" cx="773" cy="-1166.98" rx="92.49" ry="26"/>
<text text-anchor="middle" x="773" y="-1163.28" font-family="Times,serif" font-size="14.00">issemiring_card</text>
</a>
</g>
</g>
<!-- Card_leftabsorb_card -->
<g id="node11" class="node">
<title>Card_leftabsorb_card</title>
<g id="a_node11"><a xlink:href="Card.html#leftabsorb_card" xlink:title="leftabsorb_card">
<ellipse fill="#f070d1" stroke="black" cx="876" cy="-869.98" rx="83.39" ry="18"/>
<text text-anchor="middle" x="876" y="-866.28" font-family="Times,serif" font-size="14.00">leftabsorb_card</text>
</a>
</g>
</g>
<!-- Card_issemiring_card&#45;&gt;Card_leftabsorb_card -->
<g id="edge20" class="edge">
<title>Card_issemiring_card&#45;&gt;Card_leftabsorb_card</title>
<path fill="none" stroke="black" d="M781.69,-1141.08C800.92,-1086.03 846.89,-954.36 866.68,-897.68"/>
<polygon fill="black" stroke="black" points="870.06,-898.6 870.06,-888 863.46,-896.29 870.06,-898.6"/>
</g>
<!-- Card_leftdistributive_card -->
<g id="node12" class="node">
<title>Card_leftdistributive_card</title>
<g id="a_node12"><a xlink:href="Card.html#leftdistributive_card" xlink:title="leftdistributive_card">
<ellipse fill="#f070d1" stroke="black" cx="670" cy="-869.98" rx="105.08" ry="18"/>
<text text-anchor="middle" x="670" y="-866.28" font-family="Times,serif" font-size="14.00">leftdistributive_card</text>
</a>
</g>
</g>
<!-- Card_issemiring_card&#45;&gt;Card_leftdistributive_card -->
<g id="edge21" class="edge">
<title>Card_issemiring_card&#45;&gt;Card_leftdistributive_card</title>
<path fill="none" stroke="black" d="M764.31,-1141.08C745.08,-1086.03 699.11,-954.36 679.32,-897.68"/>
<polygon fill="black" stroke="black" points="682.54,-896.29 675.94,-888 675.94,-898.6 682.54,-896.29"/>
</g>
<!-- Card_issemiring_card&#45;&gt;Card_commutative_prod -->
<g id="edge22" class="edge">
<title>Card_issemiring_card&#45;&gt;Card_commutative_prod</title>
<path fill="none" stroke="black" d="M831.2,-1146.62C993.25,-1092.73 1448.05,-941.47 1605.52,-889.1"/>
<polygon fill="black" stroke="black" points="1606.63,-892.42 1615.01,-885.94 1604.42,-885.77 1606.63,-892.42"/>
</g>
<!-- Card_rightid_prod -->
<g id="node14" class="node">
<title>Card_rightid_prod</title>
<g id="a_node14"><a xlink:href="Card.html#rightid_prod" xlink:title="rightid_prod">
<ellipse fill="#f070d1" stroke="black" cx="1477" cy="-869.98" rx="68.49" ry="18"/>
<text text-anchor="middle" x="1477" y="-866.28" font-family="Times,serif" font-size="14.00">rightid_prod</text>
</a>
</g>
</g>
<!-- Card_issemiring_card&#45;&gt;Card_rightid_prod -->
<g id="edge23" class="edge">
<title>Card_issemiring_card&#45;&gt;Card_rightid_prod</title>
<path fill="none" stroke="black" d="M823.07,-1145C954.56,-1089.9 1308.14,-941.73 1432.78,-889.51"/>
<polygon fill="black" stroke="black" points="1434.17,-892.72 1442.04,-885.63 1431.47,-886.26 1434.17,-892.72"/>
</g>
<!-- Card_associative_prod -->
<g id="node15" class="node">
<title>Card_associative_prod</title>
<g id="a_node15"><a xlink:href="Card.html#associative_prod" xlink:title="associative_prod">
<ellipse fill="#f070d1" stroke="black" cx="1303" cy="-869.98" rx="87.99" ry="18"/>
<text text-anchor="middle" x="1303" y="-866.28" font-family="Times,serif" font-size="14.00">associative_prod</text>
</a>
</g>
</g>
<!-- Card_issemiring_card&#45;&gt;Card_associative_prod -->
<g id="edge24" class="edge">
<title>Card_issemiring_card&#45;&gt;Card_associative_prod</title>
<path fill="none" stroke="black" d="M813.27,-1143.56C912.61,-1088.27 1168.31,-945.95 1265.1,-892.07"/>
<polygon fill="black" stroke="black" points="1266.93,-895.06 1273.96,-887.14 1263.52,-888.94 1266.93,-895.06"/>
</g>
<!-- Card_commutative_sum -->
<g id="node16" class="node">
<title>Card_commutative_sum</title>
<g id="a_node16"><a xlink:href="Card.html#commutative_sum" xlink:title="commutative_sum">
<ellipse fill="#f070d1" stroke="black" cx="111" cy="-869.98" rx="94.78" ry="18"/>
<text text-anchor="middle" x="111" y="-866.28" font-family="Times,serif" font-size="14.00">commutative_sum</text>
</a>
</g>
</g>
<!-- Card_issemiring_card&#45;&gt;Card_commutative_sum -->
<g id="edge25" class="edge">
<title>Card_issemiring_card&#45;&gt;Card_commutative_sum</title>
<path fill="none" stroke="black" d="M725.12,-1144.64C601.94,-1089.75 275.32,-944.2 155.7,-890.9"/>
<polygon fill="black" stroke="black" points="157.01,-887.65 146.45,-886.78 154.16,-894.04 157.01,-887.65"/>
</g>
<!-- Card_rightid_sum -->
<g id="node17" class="node">
<title>Card_rightid_sum</title>
<g id="a_node17"><a xlink:href="Card.html#rightid_sum" xlink:title="rightid_sum">
<ellipse fill="#f070d1" stroke="black" cx="480" cy="-869.98" rx="66.09" ry="18"/>
<text text-anchor="middle" x="480" y="-866.28" font-family="Times,serif" font-size="14.00">rightid_sum</text>
</a>
</g>
</g>
<!-- Card_issemiring_card&#45;&gt;Card_rightid_sum -->
<g id="edge26" class="edge">
<title>Card_issemiring_card&#45;&gt;Card_rightid_sum</title>
<path fill="none" stroke="black" d="M749.02,-1141.84C693.94,-1086.38 558.87,-950.39 503.88,-895.02"/>
<polygon fill="black" stroke="black" points="506.2,-892.39 496.67,-887.76 501.23,-897.32 506.2,-892.39"/>
</g>
<!-- Card_associative_sum -->
<g id="node18" class="node">
<title>Card_associative_sum</title>
<g id="a_node18"><a xlink:href="Card.html#associative_sum" xlink:title="associative_sum">
<ellipse fill="#f070d1" stroke="black" cx="310" cy="-869.98" rx="85.59" ry="18"/>
<text text-anchor="middle" x="310" y="-866.28" font-family="Times,serif" font-size="14.00">associative_sum</text>
</a>
</g>
</g>
<!-- Card_issemiring_card&#45;&gt;Card_associative_sum -->
<g id="edge27" class="edge">
<title>Card_issemiring_card&#45;&gt;Card_associative_sum</title>
<path fill="none" stroke="black" d="M736.67,-1142.83C649.37,-1087.21 428.77,-946.65 343.95,-892.61"/>
<polygon fill="black" stroke="black" points="345.78,-889.63 335.47,-887.21 342.02,-895.53 345.78,-889.63"/>
</g>
<!-- Card_leftabsorb_card&#45;&gt;Card_zero_card -->
<g id="edge28" class="edge">
<title>Card_leftabsorb_card&#45;&gt;Card_zero_card</title>
<path fill="none" stroke="black" d="M885.68,-851.81C911.4,-806.14 981.64,-681.49 1012.32,-627.03"/>
<polygon fill="black" stroke="black" points="1015.55,-628.44 1017.41,-618.01 1009.45,-625 1015.55,-628.44"/>
</g>
<!-- Card_leftabsorb_card&#45;&gt;Card_mult_card -->
<g id="edge29" class="edge">
<title>Card_leftabsorb_card&#45;&gt;Card_mult_card</title>
<path fill="none" stroke="black" d="M904.16,-852.82C985.2,-806.31 1218.87,-672.21 1307.94,-621.1"/>
<polygon fill="black" stroke="black" points="1309.91,-624 1316.84,-615.99 1306.43,-617.93 1309.91,-624"/>
</g>
<!-- Card_leftdistributive_card&#45;&gt;Card_mult_card -->
<g id="edge30" class="edge">
<title>Card_leftdistributive_card&#45;&gt;Card_mult_card</title>
<path fill="none" stroke="black" d="M709.59,-853.21C827.55,-806.24 1176.12,-667.43 1299.28,-618.39"/>
<polygon fill="black" stroke="black" points="1300.79,-621.55 1308.79,-614.6 1298.2,-615.05 1300.79,-621.55"/>
</g>
<!-- Card_leftdistributive_card&#45;&gt;Card_plus_card -->
<g id="edge31" class="edge">
<title>Card_leftdistributive_card&#45;&gt;Card_plus_card</title>
<path fill="none" stroke="black" d="M663.91,-851.81C647.79,-806.33 603.91,-682.52 584.47,-627.71"/>
<polygon fill="black" stroke="black" points="587.68,-626.26 581.04,-618.01 581.08,-628.6 587.68,-626.26"/>
</g>
<!-- Card_commutative_prod&#45;&gt;Card_mult_card -->
<g id="edge32" class="edge">
<title>Card_commutative_prod&#45;&gt;Card_mult_card</title>
<path fill="none" stroke="black" d="M1640.17,-852.21C1585.43,-805.93 1432.15,-676.34 1369.84,-623.67"/>
<polygon fill="black" stroke="black" points="1371.91,-620.84 1362.02,-617.06 1367.39,-626.18 1371.91,-620.84"/>
</g>
<!-- Card_rightid_prod&#45;&gt;Card_one_card -->
<g id="edge33" class="edge">
<title>Card_rightid_prod&#45;&gt;Card_one_card</title>
<path fill="none" stroke="black" d="M1500.1,-852.82C1565.99,-806.71 1754.92,-674.5 1829.34,-622.43"/>
<polygon fill="black" stroke="black" points="1831.65,-625.09 1837.84,-616.49 1827.64,-619.35 1831.65,-625.09"/>
</g>
<!-- Card_rightid_prod&#45;&gt;Card_mult_card -->
<g id="edge34" class="edge">
<title>Card_rightid_prod&#45;&gt;Card_mult_card</title>
<path fill="none" stroke="black" d="M1468.41,-851.81C1445.58,-806.14 1383.26,-681.49 1356.02,-627.03"/>
<polygon fill="black" stroke="black" points="1359.12,-625.39 1351.51,-618.01 1352.86,-628.52 1359.12,-625.39"/>
</g>
<!-- Card_associative_prod&#45;&gt;Card_mult_card -->
<g id="edge35" class="edge">
<title>Card_associative_prod&#45;&gt;Card_mult_card</title>
<path fill="none" stroke="black" d="M1305.56,-851.81C1312.34,-806.42 1330.75,-683.04 1338.96,-628.05"/>
<polygon fill="black" stroke="black" points="1342.44,-628.41 1340.46,-618.01 1335.52,-627.38 1342.44,-628.41"/>
</g>
<!-- Card_commutative_sum&#45;&gt;Card_plus_card -->
<g id="edge36" class="edge">
<title>Card_commutative_sum&#45;&gt;Card_plus_card</title>
<path fill="none" stroke="black" d="M139.33,-852.62C220.19,-805.91 451.92,-672.07 540.24,-621.05"/>
<polygon fill="black" stroke="black" points="542.16,-623.99 549.06,-615.96 538.66,-617.93 542.16,-623.99"/>
</g>
<!-- Card_rightid_sum&#45;&gt;Card_zero_card -->
<g id="edge37" class="edge">
<title>Card_rightid_sum&#45;&gt;Card_zero_card</title>
<path fill="none" stroke="black" d="M510.58,-853.99C603.96,-808.24 885.3,-670.4 988.5,-619.84"/>
<polygon fill="black" stroke="black" points="990.2,-622.91 997.64,-615.36 987.12,-616.62 990.2,-622.91"/>
</g>
<!-- Card_rightid_sum&#45;&gt;Card_plus_card -->
<g id="edge38" class="edge">
<title>Card_rightid_sum&#45;&gt;Card_plus_card</title>
<path fill="none" stroke="black" d="M486.09,-851.81C502.21,-806.33 546.09,-682.52 565.53,-627.71"/>
<polygon fill="black" stroke="black" points="568.92,-628.6 568.96,-618.01 562.32,-626.26 568.92,-628.6"/>
</g>
<!-- Card_associative_sum&#45;&gt;Card_plus_card -->
<g id="edge39" class="edge">
<title>Card_associative_sum&#45;&gt;Card_plus_card</title>
<path fill="none" stroke="black" d="M326.58,-852.21C372.04,-806.23 498.83,-678.01 551.55,-624.7"/>
<polygon fill="black" stroke="black" points="554.23,-626.97 558.77,-617.39 549.25,-622.04 554.23,-626.97"/>
</g>
<!-- Card_le_card&#45;&gt;Card_leq_card -->
<g id="edge40" class="edge">
<title>Card_le_card&#45;&gt;Card_leq_card</title>
<path fill="none" stroke="black" d="M2363.99,-582.03C2376.16,-540.72 2407.44,-434.56 2422.14,-384.66"/>
<polygon fill="black" stroke="black" points="2425.54,-385.49 2425.01,-374.91 2418.83,-383.51 2425.54,-385.49"/>
</g>
<!-- Card_Card -->
<g id="node28" class="node">
<title>Card_Card</title>
<g id="a_node28"><a xlink:href="Card.html#Card" xlink:title="Card">
<ellipse fill="#f070d1" stroke="black" cx="1580" cy="-114.98" rx="33.29" ry="18"/>
<text text-anchor="middle" x="1580" y="-111.28" font-family="Times,serif" font-size="14.00">Card</text>
</a>
</g>
</g>
<!-- Card_one_card&#45;&gt;Card_Card -->
<g id="edge41" class="edge">
<title>Card_one_card&#45;&gt;Card_Card</title>
<path fill="none" stroke="black" d="M1850.2,-582.07C1808.4,-509.97 1644.92,-227.96 1594.73,-141.39"/>
<polygon fill="black" stroke="black" points="1597.62,-139.4 1589.58,-132.5 1591.56,-142.91 1597.62,-139.4"/>
</g>
<!-- Card_zero_card&#45;&gt;Card_Card -->
<g id="edge42" class="edge">
<title>Card_zero_card&#45;&gt;Card_Card</title>
<path fill="none" stroke="black" d="M1045.4,-582.91C1127.71,-511.02 1462.19,-218.88 1555.64,-137.25"/>
<polygon fill="black" stroke="black" points="1557.96,-139.88 1563.19,-130.66 1553.35,-134.61 1557.96,-139.88"/>
</g>
<!-- Card_prod_card -->
<g id="node26" class="node">
<title>Card_prod_card</title>
<g id="a_node26"><a xlink:href="Card.html#prod_card" xlink:title="prod_card">
<ellipse fill="#f070d1" stroke="black" cx="1422" cy="-356.98" rx="57.39" ry="18"/>
<text text-anchor="middle" x="1422" y="-353.28" font-family="Times,serif" font-size="14.00">prod_card</text>
</a>
</g>
</g>
<!-- Card_mult_card&#45;&gt;Card_prod_card -->
<g id="edge43" class="edge">
<title>Card_mult_card&#45;&gt;Card_prod_card</title>
<path fill="none" stroke="black" d="M1348.56,-582.03C1362.1,-540.72 1396.89,-434.56 1413.25,-384.66"/>
<polygon fill="black" stroke="black" points="1416.66,-385.5 1416.45,-374.91 1410.01,-383.32 1416.66,-385.5"/>
</g>
<!-- Card_sum_card -->
<g id="node27" class="node">
<title>Card_sum_card</title>
<g id="a_node27"><a xlink:href="Card.html#sum_card" xlink:title="sum_card">
<ellipse fill="#f070d1" stroke="black" cx="768" cy="-356.98" rx="55.49" ry="18"/>
<text text-anchor="middle" x="768" y="-353.28" font-family="Times,serif" font-size="14.00">sum_card</text>
</a>
</g>
</g>
<!-- Card_plus_card&#45;&gt;Card_sum_card -->
<g id="edge44" class="edge">
<title>Card_plus_card&#45;&gt;Card_sum_card</title>
<path fill="none" stroke="black" d="M588.27,-582.41C621.6,-540.79 708.99,-431.67 748.32,-382.56"/>
<polygon fill="black" stroke="black" points="751.12,-384.65 754.64,-374.66 745.66,-380.28 751.12,-384.65"/>
</g>
<!-- Card_leq_card&#45;&gt;Card_Card -->
<g id="edge45" class="edge">
<title>Card_leq_card&#45;&gt;Card_Card</title>
<path fill="none" stroke="black" d="M2391.83,-345.2C2250.95,-305.42 1761.11,-167.12 1618.96,-126.98"/>
<polygon fill="black" stroke="black" points="1619.52,-123.5 1608.95,-124.15 1617.62,-130.24 1619.52,-123.5"/>
</g>
<!-- Card_exp_card&#45;&gt;Card_Card -->
<g id="edge46" class="edge">
<title>Card_exp_card&#45;&gt;Card_Card</title>
<path fill="none" stroke="black" d="M2058.25,-582.63C1984.39,-510.56 1687.76,-221.12 1602.83,-138.25"/>
<polygon fill="black" stroke="black" points="1605.11,-135.59 1595.5,-131.11 1600.22,-140.6 1605.11,-135.59"/>
</g>
<!-- Card_prod_card&#45;&gt;Card_Card -->
<g id="edge47" class="edge">
<title>Card_prod_card&#45;&gt;Card_Card</title>
<path fill="none" stroke="black" d="M1433.11,-339.1C1460.55,-297.42 1531.64,-189.43 1563.79,-140.6"/>
<polygon fill="black" stroke="black" points="1566.74,-142.48 1569.32,-132.2 1560.9,-138.63 1566.74,-142.48"/>
</g>
<!-- Card_sum_card&#45;&gt;Card_Card -->
<g id="edge48" class="edge">
<title>Card_sum_card&#45;&gt;Card_Card</title>
<path fill="none" stroke="black" d="M807.44,-344.32C945.48,-303.52 1405.86,-167.45 1541.86,-127.25"/>
<polygon fill="black" stroke="black" points="1542.85,-130.61 1551.45,-124.42 1540.87,-123.9 1542.85,-130.61"/>
</g>
</g>
</svg>
