<?xml version="1.0" encoding="UTF-8" standalone="no"?>
<!DOCTYPE svg PUBLIC "-//W3C//DTD SVG 1.1//EN"
 "http://www.w3.org/Graphics/SVG/1.1/DTD/svg11.dtd">
<!-- Generated by graphviz version 2.43.0 (0)
 -->
<!-- Title: HoTT_Pointed_pTrunc Pages: 1 -->
<svg width="1622pt" height="815pt"
 viewBox="0.00 0.00 1622.00 815.00" xmlns="http://www.w3.org/2000/svg" xmlns:xlink="http://www.w3.org/1999/xlink">
<g id="graph0" class="graph" transform="scale(1 1) rotate(0) translate(4 811)">
<title>HoTT_Pointed_pTrunc</title>
<polygon fill="white" stroke="transparent" points="-4,4 -4,-811 1618,-811 1618,4 -4,4"/>
<g id="clust1" class="cluster">
<title>cluster_pTrunc</title>
<polygon fill="#ffffc3" stroke="black" points="8,-15.71 8,-791.29 1606,-791.29 1606,-15.71 8,-15.71"/>
<text text-anchor="middle" x="41.5" y="-776.09" font-family="Times,serif" font-size="14.00">pTrunc</text>
</g>
<!-- pTrunc_ptr_loops_commutes -->
<g id="node1" class="node">
<title>pTrunc_ptr_loops_commutes</title>
<g id="a_node1"><a xlink:href="pTrunc.html#ptr_loops_commutes" xlink:title="ptr_loops_commutes">
<ellipse fill="#f070d1" stroke="black" cx="1087" cy="-506.71" rx="105.89" ry="18"/>
<ellipse fill="none" stroke="black" cx="1087" cy="-506.71" rx="109.88" ry="22"/>
<ellipse fill="none" stroke="black" cx="1087" cy="-506.71" rx="113.88" ry="26"/>
<text text-anchor="middle" x="1087" y="-503.01" font-family="Times,serif" font-size="14.00">ptr_loops_commutes</text>
</a>
</g>
</g>
<!-- pTrunc_path_Tr_commutes -->
<g id="node2" class="node">
<title>pTrunc_path_Tr_commutes</title>
<g id="a_node2"><a xlink:href="pTrunc.html#path_Tr_commutes" xlink:title="path_Tr_commutes">
<ellipse fill="#f070d1" stroke="black" cx="1087" cy="-349.71" rx="98.58" ry="18"/>
<text text-anchor="middle" x="1087" y="-346.01" font-family="Times,serif" font-size="14.00">path_Tr_commutes</text>
</a>
</g>
</g>
<!-- pTrunc_ptr_loops_commutes&#45;&gt;pTrunc_path_Tr_commutes -->
<g id="edge1" class="edge">
<title>pTrunc_ptr_loops_commutes&#45;&gt;pTrunc_path_Tr_commutes</title>
<path fill="none" stroke="black" d="M1087,-480.46C1087,-452.32 1087,-406.96 1087,-378.01"/>
<polygon fill="black" stroke="black" points="1090.5,-377.79 1087,-367.79 1083.5,-377.79 1090.5,-377.79"/>
</g>
<!-- pTrunc_ptr_loops -->
<g id="node6" class="node">
<title>pTrunc_ptr_loops</title>
<g id="a_node6"><a xlink:href="pTrunc.html#ptr_loops" xlink:title="ptr_loops">
<ellipse fill="#f070d1" stroke="black" cx="1290" cy="-349.71" rx="53.89" ry="18"/>
<text text-anchor="middle" x="1290" y="-346.01" font-family="Times,serif" font-size="14.00">ptr_loops</text>
</a>
</g>
</g>
<!-- pTrunc_ptr_loops_commutes&#45;&gt;pTrunc_ptr_loops -->
<g id="edge2" class="edge">
<title>pTrunc_ptr_loops_commutes&#45;&gt;pTrunc_ptr_loops</title>
<path fill="none" stroke="black" d="M1118.72,-481.49C1157.8,-451.65 1223.64,-401.38 1261.29,-372.63"/>
<polygon fill="black" stroke="black" points="1263.5,-375.35 1269.32,-366.5 1259.25,-369.78 1263.5,-375.35"/>
</g>
<!-- pTrunc_ptr -->
<g id="node15" class="node">
<title>pTrunc_ptr</title>
<g id="a_node15"><a xlink:href="pTrunc.html#ptr" xlink:title="ptr">
<ellipse fill="#f070d1" stroke="black" cx="858" cy="-349.71" rx="27" ry="18"/>
<text text-anchor="middle" x="858" y="-346.01" font-family="Times,serif" font-size="14.00">ptr</text>
</a>
</g>
</g>
<!-- pTrunc_ptr_loops_commutes&#45;&gt;pTrunc_ptr -->
<g id="edge3" class="edge">
<title>pTrunc_ptr_loops_commutes&#45;&gt;pTrunc_ptr</title>
<path fill="none" stroke="black" d="M1051.72,-481.83C1005.67,-450.66 926.08,-396.79 884.71,-368.79"/>
<polygon fill="black" stroke="black" points="886.49,-365.77 876.25,-363.06 882.57,-371.56 886.49,-365.77"/>
</g>
<!-- pTrunc_pequiv_ptr_functor -->
<g id="node3" class="node">
<title>pTrunc_pequiv_ptr_functor</title>
<g id="a_node3"><a xlink:href="pTrunc.html#pequiv_ptr_functor" xlink:title="pequiv_ptr_functor">
<ellipse fill="#f070d1" stroke="black" cx="294" cy="-506.71" rx="98.6" ry="18"/>
<ellipse fill="none" stroke="black" cx="294" cy="-506.71" rx="102.59" ry="22"/>
<ellipse fill="none" stroke="black" cx="294" cy="-506.71" rx="106.58" ry="26"/>
<text text-anchor="middle" x="294" y="-503.01" font-family="Times,serif" font-size="14.00">pequiv_ptr_functor</text>
</a>
</g>
</g>
<!-- pTrunc_is0functor_ptr -->
<g id="node10" class="node">
<title>pTrunc_is0functor_ptr</title>
<g id="a_node10"><a xlink:href="pTrunc.html#is0functor_ptr" xlink:title="is0functor_ptr">
<ellipse fill="#f070d1" stroke="black" cx="409" cy="-349.71" rx="76.89" ry="18"/>
<text text-anchor="middle" x="409" y="-346.01" font-family="Times,serif" font-size="14.00">is0functor_ptr</text>
</a>
</g>
</g>
<!-- pTrunc_pequiv_ptr_functor&#45;&gt;pTrunc_is0functor_ptr -->
<g id="edge4" class="edge">
<title>pTrunc_pequiv_ptr_functor&#45;&gt;pTrunc_is0functor_ptr</title>
<path fill="none" stroke="black" d="M312.48,-480.8C333.77,-452.11 368.57,-405.2 390.06,-376.24"/>
<polygon fill="black" stroke="black" points="393.12,-377.99 396.27,-367.87 387.5,-373.82 393.12,-377.99"/>
</g>
<!-- pTrunc_ptr_loops_eq -->
<g id="node4" class="node">
<title>pTrunc_ptr_loops_eq</title>
<g id="a_node4"><a xlink:href="pTrunc.html#ptr_loops_eq" xlink:title="ptr_loops_eq">
<ellipse fill="#f070d1" stroke="black" cx="1520" cy="-506.71" rx="69.58" ry="18"/>
<ellipse fill="none" stroke="black" cx="1520" cy="-506.71" rx="73.59" ry="22"/>
<ellipse fill="none" stroke="black" cx="1520" cy="-506.71" rx="77.59" ry="26"/>
<text text-anchor="middle" x="1520" y="-503.01" font-family="Times,serif" font-size="14.00">ptr_loops_eq</text>
</a>
</g>
</g>
<!-- pTrunc_ptr_loops_eq&#45;&gt;pTrunc_ptr_loops -->
<g id="edge5" class="edge">
<title>pTrunc_ptr_loops_eq&#45;&gt;pTrunc_ptr_loops</title>
<path fill="none" stroke="black" d="M1486.56,-483.17C1442.26,-453.32 1364.72,-401.06 1321.45,-371.9"/>
<polygon fill="black" stroke="black" points="1323.27,-368.91 1313.02,-366.22 1319.35,-374.71 1323.27,-368.91"/>
</g>
<!-- pTrunc_ptr_iterated_loops -->
<g id="node5" class="node">
<title>pTrunc_ptr_iterated_loops</title>
<g id="a_node5"><a xlink:href="pTrunc.html#ptr_iterated_loops" xlink:title="ptr_iterated_loops">
<ellipse fill="#f070d1" stroke="black" cx="1322" cy="-506.71" rx="94.79" ry="18"/>
<ellipse fill="none" stroke="black" cx="1322" cy="-506.71" rx="98.79" ry="22"/>
<ellipse fill="none" stroke="black" cx="1322" cy="-506.71" rx="102.78" ry="26"/>
<text text-anchor="middle" x="1322" y="-503.01" font-family="Times,serif" font-size="14.00">ptr_iterated_loops</text>
</a>
</g>
</g>
<!-- pTrunc_ptr_iterated_loops&#45;&gt;pTrunc_ptr_loops -->
<g id="edge6" class="edge">
<title>pTrunc_ptr_iterated_loops&#45;&gt;pTrunc_ptr_loops</title>
<path fill="none" stroke="black" d="M1316.79,-480.46C1310.95,-452.19 1301.53,-406.56 1295.56,-377.63"/>
<polygon fill="black" stroke="black" points="1298.98,-376.87 1293.53,-367.79 1292.12,-378.29 1298.98,-376.87"/>
</g>
<!-- pTrunc_pTr -->
<g id="node16" class="node">
<title>pTrunc_pTr</title>
<g id="a_node16"><a xlink:href="pTrunc.html#pTr" xlink:title="pTr">
<ellipse fill="#f070d1" stroke="black" cx="812" cy="-207.71" rx="27" ry="18"/>
<text text-anchor="middle" x="812" y="-204.01" font-family="Times,serif" font-size="14.00">pTr</text>
</a>
</g>
</g>
<!-- pTrunc_ptr_loops&#45;&gt;pTrunc_pTr -->
<g id="edge7" class="edge">
<title>pTrunc_ptr_loops&#45;&gt;pTrunc_pTr</title>
<path fill="none" stroke="black" d="M1250.88,-337.25C1159.39,-310.46 932.67,-244.05 846.23,-218.73"/>
<polygon fill="black" stroke="black" points="846.98,-215.31 836.4,-215.85 845.01,-222.02 846.98,-215.31"/>
</g>
<!-- pTrunc_ptr_pequiv -->
<g id="node7" class="node">
<title>pTrunc_ptr_pequiv</title>
<g id="a_node7"><a xlink:href="pTrunc.html#ptr_pequiv" xlink:title="ptr_pequiv">
<ellipse fill="#f070d1" stroke="black" cx="93" cy="-679.71" rx="60.4" ry="18"/>
<ellipse fill="none" stroke="black" cx="93" cy="-679.71" rx="64.39" ry="22"/>
<ellipse fill="none" stroke="black" cx="93" cy="-679.71" rx="68.39" ry="26"/>
<text text-anchor="middle" x="93" y="-676.01" font-family="Times,serif" font-size="14.00">ptr_pequiv</text>
</a>
</g>
</g>
<!-- pTrunc_is1functor_ptr -->
<g id="node9" class="node">
<title>pTrunc_is1functor_ptr</title>
<g id="a_node9"><a xlink:href="pTrunc.html#is1functor_ptr" xlink:title="is1functor_ptr">
<ellipse fill="#f070d1" stroke="black" cx="93" cy="-506.71" rx="76.89" ry="18"/>
<text text-anchor="middle" x="93" y="-503.01" font-family="Times,serif" font-size="14.00">is1functor_ptr</text>
</a>
</g>
</g>
<!-- pTrunc_ptr_pequiv&#45;&gt;pTrunc_is1functor_ptr -->
<g id="edge8" class="edge">
<title>pTrunc_ptr_pequiv&#45;&gt;pTrunc_is1functor_ptr</title>
<path fill="none" stroke="black" d="M93,-653.48C93,-621.76 93,-567.53 93,-534.91"/>
<polygon fill="black" stroke="black" points="96.5,-534.74 93,-524.74 89.5,-534.74 96.5,-534.74"/>
</g>
<!-- pTrunc_ptr_functor_pconst -->
<g id="node8" class="node">
<title>pTrunc_ptr_functor_pconst</title>
<g id="a_node8"><a xlink:href="pTrunc.html#ptr_functor_pconst" xlink:title="ptr_functor_pconst">
<ellipse fill="#f070d1" stroke="black" cx="525" cy="-506.71" rx="98.27" ry="18"/>
<ellipse fill="none" stroke="black" cx="525" cy="-506.71" rx="102.28" ry="22"/>
<ellipse fill="none" stroke="black" cx="525" cy="-506.71" rx="106.28" ry="26"/>
<text text-anchor="middle" x="525" y="-503.01" font-family="Times,serif" font-size="14.00">ptr_functor_pconst</text>
</a>
</g>
</g>
<!-- pTrunc_ptr_functor_pconst&#45;&gt;pTrunc_is0functor_ptr -->
<g id="edge9" class="edge">
<title>pTrunc_ptr_functor_pconst&#45;&gt;pTrunc_is0functor_ptr</title>
<path fill="none" stroke="black" d="M506.36,-480.8C484.89,-452.11 449.78,-405.2 428.11,-376.24"/>
<polygon fill="black" stroke="black" points="430.64,-373.78 421.85,-367.87 425.03,-377.97 430.64,-373.78"/>
</g>
<!-- pTrunc_is1functor_ptr&#45;&gt;pTrunc_is0functor_ptr -->
<g id="edge10" class="edge">
<title>pTrunc_is1functor_ptr&#45;&gt;pTrunc_is0functor_ptr</title>
<path fill="none" stroke="black" d="M124.45,-490.28C182.04,-462.03 304.34,-402.05 368.22,-370.71"/>
<polygon fill="black" stroke="black" points="369.77,-373.85 377.2,-366.3 366.68,-367.57 369.77,-373.85"/>
</g>
<!-- pTrunc_is0functor_ptr&#45;&gt;pTrunc_pTr -->
<g id="edge11" class="edge">
<title>pTrunc_is0functor_ptr&#45;&gt;pTrunc_pTr</title>
<path fill="none" stroke="black" d="M450.23,-334.38C530.32,-306.56 705.46,-245.72 778.73,-220.26"/>
<polygon fill="black" stroke="black" points="780.08,-223.5 788.38,-216.92 777.78,-216.89 780.08,-223.5"/>
</g>
<!-- pTrunc_equiv_ptr_rec -->
<g id="node11" class="node">
<title>pTrunc_equiv_ptr_rec</title>
<g id="a_node11"><a xlink:href="pTrunc.html#equiv_ptr_rec" xlink:title="equiv_ptr_rec">
<ellipse fill="#f070d1" stroke="black" cx="731" cy="-506.71" rx="73.39" ry="18"/>
<ellipse fill="none" stroke="black" cx="731" cy="-506.71" rx="77.39" ry="22"/>
<ellipse fill="none" stroke="black" cx="731" cy="-506.71" rx="81.39" ry="26"/>
<text text-anchor="middle" x="731" y="-503.01" font-family="Times,serif" font-size="14.00">equiv_ptr_rec</text>
</a>
</g>
</g>
<!-- pTrunc_pTr_rec -->
<g id="node12" class="node">
<title>pTrunc_pTr_rec</title>
<g id="a_node12"><a xlink:href="pTrunc.html#pTr_rec" xlink:title="pTr_rec">
<ellipse fill="#f070d1" stroke="black" cx="749" cy="-349.71" rx="46.29" ry="18"/>
<text text-anchor="middle" x="749" y="-346.01" font-family="Times,serif" font-size="14.00">pTr_rec</text>
</a>
</g>
</g>
<!-- pTrunc_equiv_ptr_rec&#45;&gt;pTrunc_pTr_rec -->
<g id="edge12" class="edge">
<title>pTrunc_equiv_ptr_rec&#45;&gt;pTrunc_pTr_rec</title>
<path fill="none" stroke="black" d="M733.93,-480.46C737.2,-452.32 742.47,-406.96 745.83,-378.01"/>
<polygon fill="black" stroke="black" points="749.34,-378.13 747.02,-367.79 742.39,-377.32 749.34,-378.13"/>
</g>
<!-- pTrunc_equiv_ptr_rec&#45;&gt;pTrunc_ptr -->
<g id="edge13" class="edge">
<title>pTrunc_equiv_ptr_rec&#45;&gt;pTrunc_ptr</title>
<path fill="none" stroke="black" d="M750.84,-481.49C774.97,-452.04 815.4,-402.7 839.1,-373.78"/>
<polygon fill="black" stroke="black" points="841.96,-375.81 845.59,-365.85 836.55,-371.37 841.96,-375.81"/>
</g>
<!-- pTrunc_pTr_rec&#45;&gt;pTrunc_pTr -->
<g id="edge14" class="edge">
<title>pTrunc_pTr_rec&#45;&gt;pTrunc_pTr</title>
<path fill="none" stroke="black" d="M756.6,-331.82C767.49,-307.62 787.63,-262.87 800.39,-234.51"/>
<polygon fill="black" stroke="black" points="803.66,-235.78 804.57,-225.22 797.27,-232.9 803.66,-235.78"/>
</g>
<!-- pTrunc_pequiv_ptr -->
<g id="node13" class="node">
<title>pTrunc_pequiv_ptr</title>
<g id="a_node13"><a xlink:href="pTrunc.html#pequiv_ptr" xlink:title="pequiv_ptr">
<ellipse fill="#f070d1" stroke="black" cx="893" cy="-679.71" rx="60.4" ry="18"/>
<ellipse fill="none" stroke="black" cx="893" cy="-679.71" rx="64.39" ry="22"/>
<ellipse fill="none" stroke="black" cx="893" cy="-679.71" rx="68.39" ry="26"/>
<text text-anchor="middle" x="893" y="-676.01" font-family="Times,serif" font-size="14.00">pequiv_ptr</text>
</a>
</g>
</g>
<!-- pTrunc_isequiv_ptr -->
<g id="node14" class="node">
<title>pTrunc_isequiv_ptr</title>
<g id="a_node14"><a xlink:href="pTrunc.html#isequiv_ptr" xlink:title="isequiv_ptr">
<ellipse fill="#f070d1" stroke="black" cx="893" cy="-506.71" rx="62.29" ry="18"/>
<text text-anchor="middle" x="893" y="-503.01" font-family="Times,serif" font-size="14.00">isequiv_ptr</text>
</a>
</g>
</g>
<!-- pTrunc_pequiv_ptr&#45;&gt;pTrunc_isequiv_ptr -->
<g id="edge15" class="edge">
<title>pTrunc_pequiv_ptr&#45;&gt;pTrunc_isequiv_ptr</title>
<path fill="none" stroke="black" d="M893,-653.48C893,-621.76 893,-567.53 893,-534.91"/>
<polygon fill="black" stroke="black" points="896.5,-534.74 893,-524.74 889.5,-534.74 896.5,-534.74"/>
</g>
<!-- pTrunc_isequiv_ptr&#45;&gt;pTrunc_ptr -->
<g id="edge16" class="edge">
<title>pTrunc_isequiv_ptr&#45;&gt;pTrunc_ptr</title>
<path fill="none" stroke="black" d="M889.12,-488.53C883.08,-461.76 871.36,-409.87 864.15,-377.96"/>
<polygon fill="black" stroke="black" points="867.51,-376.95 861.9,-367.96 860.69,-378.49 867.51,-376.95"/>
</g>
<!-- pTrunc_ptr&#45;&gt;pTrunc_pTr -->
<g id="edge17" class="edge">
<title>pTrunc_ptr&#45;&gt;pTrunc_pTr</title>
<path fill="none" stroke="black" d="M852.45,-331.82C844.58,-307.86 830.08,-263.74 820.75,-235.34"/>
<polygon fill="black" stroke="black" points="824.02,-234.06 817.57,-225.66 817.36,-236.25 824.02,-234.06"/>
</g>
<!-- pTrunc_ispointed_tr -->
<g id="node17" class="node">
<title>pTrunc_ispointed_tr</title>
<g id="a_node17"><a xlink:href="pTrunc.html#ispointed_tr" xlink:title="ispointed_tr">
<ellipse fill="#f070d1" stroke="black" cx="812" cy="-66.71" rx="66.09" ry="18"/>
<text text-anchor="middle" x="812" y="-63.01" font-family="Times,serif" font-size="14.00">ispointed_tr</text>
</a>
</g>
</g>
<!-- pTrunc_pTr&#45;&gt;pTrunc_ispointed_tr -->
<g id="edge18" class="edge">
<title>pTrunc_pTr&#45;&gt;pTrunc_ispointed_tr</title>
<path fill="none" stroke="black" d="M812,-189.66C812,-166.11 812,-123.35 812,-95.23"/>
<polygon fill="black" stroke="black" points="815.5,-94.89 812,-84.89 808.5,-94.89 815.5,-94.89"/>
</g>
</g>
</svg>
