<?xml version="1.0" encoding="UTF-8" standalone="no"?>
<!DOCTYPE svg PUBLIC "-//W3C//DTD SVG 1.1//EN"
 "http://www.w3.org/Graphics/SVG/1.1/DTD/svg11.dtd">
<!-- Generated by graphviz version 2.43.0 (0)
 -->
<!-- Title: HoTT_Homotopy_Pi1S1 Pages: 1 -->
<svg width="366pt" height="187pt"
 viewBox="0.00 0.00 366.00 187.00" xmlns="http://www.w3.org/2000/svg" xmlns:xlink="http://www.w3.org/1999/xlink">
<g id="graph0" class="graph" transform="scale(1 1) rotate(0) translate(4 183)">
<title>HoTT_Homotopy_Pi1S1</title>
<polygon fill="white" stroke="transparent" points="-4,4 -4,-183 362,-183 362,4 -4,4"/>
<g id="clust1" class="cluster">
<title>cluster_Pi1S1</title>
<polygon fill="#ffffc3" stroke="black" points="20.75,-8 20.75,-171 337.25,-171 337.25,-8 20.75,-8"/>
<text text-anchor="middle" x="50.25" y="-155.8" font-family="Times,serif" font-size="14.00">Pi1S1</text>
</g>
<!-- Pi1S1_Pi1S1 -->
<g id="node1" class="node">
<title>Pi1S1_Pi1S1</title>
<g id="a_node1"><a xlink:href="Pi1S1.html#Pi1S1" xlink:title="Pi1S1">
<ellipse fill="#f070d1" stroke="black" cx="179.25" cy="-114" rx="38.22" ry="18"/>
<ellipse fill="none" stroke="black" cx="179.25" cy="-114" rx="42.21" ry="22"/>
<ellipse fill="none" stroke="black" cx="179.25" cy="-114" rx="46.19" ry="26"/>
<text text-anchor="middle" x="179.25" y="-110.3" font-family="Times,serif" font-size="14.00">Pi1S1</text>
</a>
</g>
</g>
<!-- Pi1S1_Pi1Circle -->
<g id="node2" class="node">
<title>Pi1S1_Pi1Circle</title>
<g id="a_node2"><a xlink:href="Pi1S1.html#Pi1Circle" xlink:title="Pi1Circle">
<ellipse fill="#f070d1" stroke="black" cx="179.25" cy="-34" rx="53.09" ry="18"/>
<text text-anchor="middle" x="179.25" y="-30.3" font-family="Times,serif" font-size="14.00">Pi1Circle</text>
</a>
</g>
</g>
<!-- Pi1S1_Pi1S1&#45;&gt;Pi1S1_Pi1Circle -->
<g id="edge1" class="edge">
<title>Pi1S1_Pi1S1&#45;&gt;Pi1S1_Pi1Circle</title>
<path fill="none" stroke="black" d="M179.25,-87.89C179.25,-79.84 179.25,-70.88 179.25,-62.66"/>
<polygon fill="black" stroke="black" points="182.75,-62.41 179.25,-52.41 175.75,-62.41 182.75,-62.41"/>
</g>
</g>
</svg>
