<?xml version="1.0" encoding="UTF-8" standalone="no"?>
<!DOCTYPE svg PUBLIC "-//W3C//DTD SVG 1.1//EN"
 "http://www.w3.org/Graphics/SVG/1.1/DTD/svg11.dtd">
<!-- Generated by graphviz version 2.43.0 (0)
 -->
<!-- Title: HoTT_WildCat_Induced Pages: 1 -->
<svg width="830pt" height="419pt"
 viewBox="0.00 0.00 830.00 419.00" xmlns="http://www.w3.org/2000/svg" xmlns:xlink="http://www.w3.org/1999/xlink">
<g id="graph0" class="graph" transform="scale(1 1) rotate(0) translate(4 415)">
<title>HoTT_WildCat_Induced</title>
<polygon fill="white" stroke="transparent" points="-4,4 -4,-415 826,-415 826,4 -4,4"/>
<g id="clust1" class="cluster">
<title>cluster_Induced</title>
<polygon fill="#ffffc3" stroke="black" points="9.24,-8 9.24,-403 812.76,-403 812.76,-8 9.24,-8"/>
<text text-anchor="middle" x="46.24" y="-387.8" font-family="Times,serif" font-size="14.00">Induced</text>
</g>
<!-- Induced_hasequivs_induced -->
<g id="node1" class="node">
<title>Induced_hasequivs_induced</title>
<g id="a_node1"><a xlink:href="Induced.html#hasequivs_induced" xlink:title="hasequivs_induced">
<ellipse fill="#f070d1" stroke="black" cx="680.85" cy="-346" rx="98.27" ry="18"/>
<ellipse fill="none" stroke="black" cx="680.85" cy="-346" rx="102.28" ry="22"/>
<ellipse fill="none" stroke="black" cx="680.85" cy="-346" rx="106.28" ry="26"/>
<text text-anchor="middle" x="680.85" y="-342.3" font-family="Times,serif" font-size="14.00">hasequivs_induced</text>
</a>
</g>
</g>
<!-- Induced_is1cat_induced -->
<g id="node4" class="node">
<title>Induced_is1cat_induced</title>
<g id="a_node4"><a xlink:href="Induced.html#is1cat_induced" xlink:title="is1cat_induced">
<ellipse fill="#f070d1" stroke="black" cx="411.85" cy="-258" rx="79.09" ry="18"/>
<text text-anchor="middle" x="411.85" y="-254.3" font-family="Times,serif" font-size="14.00">is1cat_induced</text>
</a>
</g>
</g>
<!-- Induced_hasequivs_induced&#45;&gt;Induced_is1cat_induced -->
<g id="edge1" class="edge">
<title>Induced_hasequivs_induced&#45;&gt;Induced_is1cat_induced</title>
<path fill="none" stroke="black" d="M618.12,-324.95C571.79,-310.13 509.39,-290.18 465.39,-276.12"/>
<polygon fill="black" stroke="black" points="466.33,-272.74 455.74,-273.03 464.2,-279.41 466.33,-272.74"/>
</g>
<!-- Induced_hasmorext_induced -->
<g id="node2" class="node">
<title>Induced_hasmorext_induced</title>
<g id="a_node2"><a xlink:href="Induced.html#hasmorext_induced" xlink:title="hasmorext_induced">
<ellipse fill="#f070d1" stroke="black" cx="411.85" cy="-346" rx="100.96" ry="18"/>
<ellipse fill="none" stroke="black" cx="411.85" cy="-346" rx="104.97" ry="22"/>
<ellipse fill="none" stroke="black" cx="411.85" cy="-346" rx="108.98" ry="26"/>
<text text-anchor="middle" x="411.85" y="-342.3" font-family="Times,serif" font-size="14.00">hasmorext_induced</text>
</a>
</g>
</g>
<!-- Induced_hasmorext_induced&#45;&gt;Induced_is1cat_induced -->
<g id="edge2" class="edge">
<title>Induced_hasmorext_induced&#45;&gt;Induced_is1cat_induced</title>
<path fill="none" stroke="black" d="M411.85,-319.66C411.85,-309.11 411.85,-296.84 411.85,-286.1"/>
<polygon fill="black" stroke="black" points="415.35,-286 411.85,-276 408.35,-286 415.35,-286"/>
</g>
<!-- Induced_is1functor_induced -->
<g id="node3" class="node">
<title>Induced_is1functor_induced</title>
<g id="a_node3"><a xlink:href="Induced.html#is1functor_induced" xlink:title="is1functor_induced">
<ellipse fill="#f070d1" stroke="black" cx="141.85" cy="-346" rx="98.6" ry="18"/>
<ellipse fill="none" stroke="black" cx="141.85" cy="-346" rx="102.59" ry="22"/>
<ellipse fill="none" stroke="black" cx="141.85" cy="-346" rx="106.58" ry="26"/>
<text text-anchor="middle" x="141.85" y="-342.3" font-family="Times,serif" font-size="14.00">is1functor_induced</text>
</a>
</g>
</g>
<!-- Induced_is1functor_induced&#45;&gt;Induced_is1cat_induced -->
<g id="edge3" class="edge">
<title>Induced_is1functor_induced&#45;&gt;Induced_is1cat_induced</title>
<path fill="none" stroke="black" d="M204.81,-324.95C251.31,-310.13 313.94,-290.18 358.1,-276.12"/>
<polygon fill="black" stroke="black" points="359.33,-279.4 367.79,-273.03 357.2,-272.73 359.33,-279.4"/>
</g>
<!-- Induced_is2graph_induced -->
<g id="node5" class="node">
<title>Induced_is2graph_induced</title>
<g id="a_node5"><a xlink:href="Induced.html#is2graph_induced" xlink:title="is2graph_induced">
<ellipse fill="#f070d1" stroke="black" cx="416.85" cy="-178" rx="92.88" ry="18"/>
<text text-anchor="middle" x="416.85" y="-174.3" font-family="Times,serif" font-size="14.00">is2graph_induced</text>
</a>
</g>
</g>
<!-- Induced_is1cat_induced&#45;&gt;Induced_is2graph_induced -->
<g id="edge4" class="edge">
<title>Induced_is1cat_induced&#45;&gt;Induced_is2graph_induced</title>
<path fill="none" stroke="black" d="M412.96,-239.69C413.59,-229.89 414.39,-217.42 415.1,-206.33"/>
<polygon fill="black" stroke="black" points="418.59,-206.47 415.74,-196.26 411.61,-206.02 418.59,-206.47"/>
</g>
<!-- Induced_is01cat_induced -->
<g id="node8" class="node">
<title>Induced_is01cat_induced</title>
<g id="a_node8"><a xlink:href="Induced.html#is01cat_induced" xlink:title="is01cat_induced">
<ellipse fill="#f070d1" stroke="black" cx="190.85" cy="-178" rx="85.29" ry="18"/>
<text text-anchor="middle" x="190.85" y="-174.3" font-family="Times,serif" font-size="14.00">is01cat_induced</text>
</a>
</g>
</g>
<!-- Induced_is1cat_induced&#45;&gt;Induced_is01cat_induced -->
<g id="edge5" class="edge">
<title>Induced_is1cat_induced&#45;&gt;Induced_is01cat_induced</title>
<path fill="none" stroke="black" d="M370.8,-242.51C334.55,-229.72 281.53,-211.01 242.43,-197.2"/>
<polygon fill="black" stroke="black" points="243.4,-193.84 232.81,-193.81 241.07,-200.44 243.4,-193.84"/>
</g>
<!-- Induced_is0functor_induced -->
<g id="node6" class="node">
<title>Induced_is0functor_induced</title>
<g id="a_node6"><a xlink:href="Induced.html#is0functor_induced" xlink:title="is0functor_induced">
<ellipse fill="#f070d1" stroke="black" cx="393.85" cy="-106" rx="98.58" ry="18"/>
<text text-anchor="middle" x="393.85" y="-102.3" font-family="Times,serif" font-size="14.00">is0functor_induced</text>
</a>
</g>
</g>
<!-- Induced_is2graph_induced&#45;&gt;Induced_is0functor_induced -->
<g id="edge6" class="edge">
<title>Induced_is2graph_induced&#45;&gt;Induced_is0functor_induced</title>
<path fill="none" stroke="black" d="M411.16,-159.7C408.6,-151.9 405.52,-142.51 402.66,-133.83"/>
<polygon fill="black" stroke="black" points="405.92,-132.51 399.47,-124.1 399.26,-134.7 405.92,-132.51"/>
</g>
<!-- Induced_isgraph_induced -->
<g id="node9" class="node">
<title>Induced_isgraph_induced</title>
<g id="a_node9"><a xlink:href="Induced.html#isgraph_induced" xlink:title="isgraph_induced">
<ellipse fill="#f070d1" stroke="black" cx="280.85" cy="-34" rx="87.18" ry="18"/>
<text text-anchor="middle" x="280.85" y="-30.3" font-family="Times,serif" font-size="14.00">isgraph_induced</text>
</a>
</g>
</g>
<!-- Induced_is0functor_induced&#45;&gt;Induced_isgraph_induced -->
<g id="edge7" class="edge">
<title>Induced_is0functor_induced&#45;&gt;Induced_isgraph_induced</title>
<path fill="none" stroke="black" d="M367.35,-88.59C352.05,-79.11 332.62,-67.07 316.04,-56.8"/>
<polygon fill="black" stroke="black" points="317.52,-53.6 307.18,-51.31 313.83,-59.55 317.52,-53.6"/>
</g>
<!-- Induced_is0gpd_induced -->
<g id="node7" class="node">
<title>Induced_is0gpd_induced</title>
<g id="a_node7"><a xlink:href="Induced.html#is0gpd_induced" xlink:title="is0gpd_induced">
<ellipse fill="#f070d1" stroke="black" cx="190.85" cy="-258" rx="83.37" ry="18"/>
<ellipse fill="none" stroke="black" cx="190.85" cy="-258" rx="87.38" ry="22"/>
<ellipse fill="none" stroke="black" cx="190.85" cy="-258" rx="91.39" ry="26"/>
<text text-anchor="middle" x="190.85" y="-254.3" font-family="Times,serif" font-size="14.00">is0gpd_induced</text>
</a>
</g>
</g>
<!-- Induced_is0gpd_induced&#45;&gt;Induced_is01cat_induced -->
<g id="edge8" class="edge">
<title>Induced_is0gpd_induced&#45;&gt;Induced_is01cat_induced</title>
<path fill="none" stroke="black" d="M190.85,-231.89C190.85,-223.84 190.85,-214.88 190.85,-206.66"/>
<polygon fill="black" stroke="black" points="194.35,-206.41 190.85,-196.41 187.35,-206.41 194.35,-206.41"/>
</g>
<!-- Induced_is01cat_induced&#45;&gt;Induced_isgraph_induced -->
<g id="edge9" class="edge">
<title>Induced_is01cat_induced&#45;&gt;Induced_isgraph_induced</title>
<path fill="none" stroke="black" d="M201.7,-159.87C217.31,-135.24 246.22,-89.64 264.44,-60.88"/>
<polygon fill="black" stroke="black" points="267.56,-62.51 269.95,-52.19 261.64,-58.76 267.56,-62.51"/>
</g>
</g>
</svg>
