<?xml version="1.0" encoding="UTF-8" standalone="no"?>
<!DOCTYPE svg PUBLIC "-//W3C//DTD SVG 1.1//EN"
 "http://www.w3.org/Graphics/SVG/1.1/DTD/svg11.dtd">
<!-- Generated by graphviz version 2.43.0 (0)
 -->
<!-- Title: HoTT_Sets_Hartogs Pages: 1 -->
<svg width="988pt" height="498pt"
 viewBox="0.00 0.00 988.00 498.00" xmlns="http://www.w3.org/2000/svg" xmlns:xlink="http://www.w3.org/1999/xlink">
<g id="graph0" class="graph" transform="scale(1 1) rotate(0) translate(4 494)">
<title>HoTT_Sets_Hartogs</title>
<polygon fill="white" stroke="transparent" points="-4,4 -4,-494 984,-494 984,4 -4,4"/>
<g id="clust1" class="cluster">
<title>cluster_Hartogs</title>
<polygon fill="#ffffc3" stroke="black" points="8,-8.39 8,-481.61 972,-481.61 972,-8.39 8,-8.39"/>
<text text-anchor="middle" x="45" y="-466.41" font-family="Times,serif" font-size="14.00">Hartogs</text>
</g>
<!-- Hartogs_hartogs_number_no_injection -->
<g id="node1" class="node">
<title>Hartogs_hartogs_number_no_injection</title>
<g id="a_node1"><a xlink:href="Hartogs.html#hartogs_number_no_injection" xlink:title="hartogs_number_no_injection">
<ellipse fill="#f070d1" stroke="black" cx="638" cy="-421.39" rx="146.78" ry="18"/>
<ellipse fill="none" stroke="black" cx="638" cy="-421.39" rx="150.78" ry="22"/>
<ellipse fill="none" stroke="black" cx="638" cy="-421.39" rx="154.77" ry="26"/>
<text text-anchor="middle" x="638" y="-417.69" font-family="Times,serif" font-size="14.00">hartogs_number_no_injection</text>
</a>
</g>
</g>
<!-- Hartogs_resize_ordinal_iso -->
<g id="node2" class="node">
<title>Hartogs_resize_ordinal_iso</title>
<g id="a_node2"><a xlink:href="Hartogs.html#resize_ordinal_iso" xlink:title="resize_ordinal_iso">
<ellipse fill="#f070d1" stroke="black" cx="703" cy="-337.39" rx="92.88" ry="18"/>
<text text-anchor="middle" x="703" y="-333.69" font-family="Times,serif" font-size="14.00">resize_ordinal_iso</text>
</a>
</g>
</g>
<!-- Hartogs_hartogs_number_no_injection&#45;&gt;Hartogs_resize_ordinal_iso -->
<g id="edge1" class="edge">
<title>Hartogs_hartogs_number_no_injection&#45;&gt;Hartogs_resize_ordinal_iso</title>
<path fill="none" stroke="black" d="M657.86,-395.35C665.91,-385.19 675.18,-373.49 683.22,-363.34"/>
<polygon fill="black" stroke="black" points="686.17,-365.26 689.64,-355.25 680.68,-360.92 686.17,-365.26"/>
</g>
<!-- Hartogs_ordinal_initial -->
<g id="node3" class="node">
<title>Hartogs_ordinal_initial</title>
<g id="a_node3"><a xlink:href="Hartogs.html#ordinal_initial" xlink:title="ordinal_initial">
<ellipse fill="#f070d1" stroke="black" cx="889" cy="-337.39" rx="74.99" ry="18"/>
<text text-anchor="middle" x="889" y="-333.69" font-family="Times,serif" font-size="14.00">ordinal_initial</text>
</a>
</g>
</g>
<!-- Hartogs_hartogs_number_no_injection&#45;&gt;Hartogs_ordinal_initial -->
<g id="edge2" class="edge">
<title>Hartogs_hartogs_number_no_injection&#45;&gt;Hartogs_ordinal_initial</title>
<path fill="none" stroke="black" d="M706.59,-397.99C747.63,-384.58 798.97,-367.81 836.71,-355.48"/>
<polygon fill="black" stroke="black" points="838.07,-358.71 846.49,-352.28 835.9,-352.06 838.07,-358.71"/>
</g>
<!-- Hartogs_hartogs_number -->
<g id="node5" class="node">
<title>Hartogs_hartogs_number</title>
<g id="a_node5"><a xlink:href="Hartogs.html#hartogs_number" xlink:title="hartogs_number">
<ellipse fill="#f070d1" stroke="black" cx="261" cy="-337.39" rx="87.18" ry="18"/>
<text text-anchor="middle" x="261" y="-333.69" font-family="Times,serif" font-size="14.00">hartogs_number</text>
</a>
</g>
</g>
<!-- Hartogs_hartogs_number_no_injection&#45;&gt;Hartogs_hartogs_number -->
<g id="edge3" class="edge">
<title>Hartogs_hartogs_number_no_injection&#45;&gt;Hartogs_hartogs_number</title>
<path fill="none" stroke="black" d="M546.26,-400.44C479.05,-385.82 389.34,-366.31 328.6,-353.1"/>
<polygon fill="black" stroke="black" points="329.25,-349.66 318.73,-350.95 327.76,-356.5 329.25,-349.66"/>
</g>
<!-- Hartogs_le_Cardinal_lt_Ordinal -->
<g id="node19" class="node">
<title>Hartogs_le_Cardinal_lt_Ordinal</title>
<g id="a_node19"><a xlink:href="Hartogs.html#le_Cardinal_lt_Ordinal" xlink:title="le_Cardinal_lt_Ordinal">
<ellipse fill="#f070d1" stroke="black" cx="479" cy="-337.39" rx="113.18" ry="18"/>
<text text-anchor="middle" x="479" y="-333.69" font-family="Times,serif" font-size="14.00">le_Cardinal_lt_Ordinal</text>
</a>
</g>
</g>
<!-- Hartogs_hartogs_number_no_injection&#45;&gt;Hartogs_le_Cardinal_lt_Ordinal -->
<g id="edge4" class="edge">
<title>Hartogs_hartogs_number_no_injection&#45;&gt;Hartogs_le_Cardinal_lt_Ordinal</title>
<path fill="none" stroke="black" d="M591.58,-396.46C568.81,-384.71 541.62,-370.69 519.67,-359.37"/>
<polygon fill="black" stroke="black" points="521.1,-356.17 510.61,-354.69 517.89,-362.39 521.1,-356.17"/>
</g>
<!-- Hartogs_resize_ordinal -->
<g id="node6" class="node">
<title>Hartogs_resize_ordinal</title>
<g id="a_node6"><a xlink:href="Hartogs.html#resize_ordinal" xlink:title="resize_ordinal">
<ellipse fill="#f070d1" stroke="black" cx="601" cy="-262.39" rx="75.29" ry="18"/>
<text text-anchor="middle" x="601" y="-258.69" font-family="Times,serif" font-size="14.00">resize_ordinal</text>
</a>
</g>
</g>
<!-- Hartogs_resize_ordinal_iso&#45;&gt;Hartogs_resize_ordinal -->
<g id="edge5" class="edge">
<title>Hartogs_resize_ordinal_iso&#45;&gt;Hartogs_resize_ordinal</title>
<path fill="none" stroke="black" d="M679.85,-319.83C665.67,-309.68 647.34,-296.56 631.92,-285.53"/>
<polygon fill="black" stroke="black" points="633.87,-282.62 623.7,-279.64 629.8,-288.31 633.87,-282.62"/>
</g>
<!-- Hartogs_hartogs_number_injection -->
<g id="node4" class="node">
<title>Hartogs_hartogs_number_injection</title>
<g id="a_node4"><a xlink:href="Hartogs.html#hartogs_number_injection" xlink:title="hartogs_number_injection">
<ellipse fill="#f070d1" stroke="black" cx="261" cy="-421.39" rx="131.09" ry="18"/>
<ellipse fill="none" stroke="black" cx="261" cy="-421.39" rx="135.08" ry="22"/>
<ellipse fill="none" stroke="black" cx="261" cy="-421.39" rx="139.08" ry="26"/>
<text text-anchor="middle" x="261" y="-417.69" font-family="Times,serif" font-size="14.00">hartogs_number_injection</text>
</a>
</g>
</g>
<!-- Hartogs_hartogs_number_injection&#45;&gt;Hartogs_hartogs_number -->
<g id="edge6" class="edge">
<title>Hartogs_hartogs_number_injection&#45;&gt;Hartogs_hartogs_number</title>
<path fill="none" stroke="black" d="M261,-395.35C261,-385.97 261,-375.27 261,-365.7"/>
<polygon fill="black" stroke="black" points="264.5,-365.51 261,-355.51 257.5,-365.51 264.5,-365.51"/>
</g>
<!-- Hartogs_hartogs_number&#45;&gt;Hartogs_resize_ordinal -->
<g id="edge7" class="edge">
<title>Hartogs_hartogs_number&#45;&gt;Hartogs_resize_ordinal</title>
<path fill="none" stroke="black" d="M319.06,-323.93C379.52,-310.95 473.97,-290.67 536.66,-277.21"/>
<polygon fill="black" stroke="black" points="537.79,-280.55 546.83,-275.03 536.32,-273.7 537.79,-280.55"/>
</g>
<!-- Hartogs_hartogs_equiv -->
<g id="node7" class="node">
<title>Hartogs_hartogs_equiv</title>
<g id="a_node7"><a xlink:href="Hartogs.html#hartogs_equiv" xlink:title="hartogs_equiv">
<ellipse fill="#f070d1" stroke="black" cx="296" cy="-262.39" rx="76.09" ry="18"/>
<text text-anchor="middle" x="296" y="-258.69" font-family="Times,serif" font-size="14.00">hartogs_equiv</text>
</a>
</g>
</g>
<!-- Hartogs_hartogs_number&#45;&gt;Hartogs_hartogs_equiv -->
<g id="edge8" class="edge">
<title>Hartogs_hartogs_number&#45;&gt;Hartogs_hartogs_equiv</title>
<path fill="none" stroke="black" d="M269.12,-319.46C273.37,-310.59 278.68,-299.53 283.45,-289.58"/>
<polygon fill="black" stroke="black" points="286.64,-291.02 287.81,-280.49 280.33,-287.99 286.64,-291.02"/>
</g>
<!-- Hartogs_hartogs_number_carrier -->
<g id="node8" class="node">
<title>Hartogs_hartogs_number_carrier</title>
<g id="a_node8"><a xlink:href="Hartogs.html#hartogs_number_carrier" xlink:title="hartogs_number_carrier">
<ellipse fill="#f070d1" stroke="black" cx="296" cy="-186.39" rx="122.68" ry="18"/>
<text text-anchor="middle" x="296" y="-182.69" font-family="Times,serif" font-size="14.00">hartogs_number_carrier</text>
</a>
</g>
</g>
<!-- Hartogs_hartogs_equiv&#45;&gt;Hartogs_hartogs_number_carrier -->
<g id="edge9" class="edge">
<title>Hartogs_hartogs_equiv&#45;&gt;Hartogs_hartogs_number_carrier</title>
<path fill="none" stroke="black" d="M296,-244.23C296,-235.45 296,-224.56 296,-214.66"/>
<polygon fill="black" stroke="black" points="299.5,-214.46 296,-204.46 292.5,-214.46 299.5,-214.46"/>
</g>
<!-- Hartogs_injective_uni_fix -->
<g id="node9" class="node">
<title>Hartogs_injective_uni_fix</title>
<g id="a_node9"><a xlink:href="Hartogs.html#injective_uni_fix" xlink:title="injective_uni_fix">
<ellipse fill="#f070d1" stroke="black" cx="593" cy="-186.39" rx="85.29" ry="18"/>
<text text-anchor="middle" x="593" y="-182.69" font-family="Times,serif" font-size="14.00">injective_uni_fix</text>
</a>
</g>
</g>
<!-- Hartogs_hartogs_equiv&#45;&gt;Hartogs_injective_uni_fix -->
<g id="edge10" class="edge">
<title>Hartogs_hartogs_equiv&#45;&gt;Hartogs_injective_uni_fix</title>
<path fill="none" stroke="black" d="M346.38,-248.84C397.1,-236.21 475.44,-216.68 530.18,-203.05"/>
<polygon fill="black" stroke="black" points="531.26,-206.38 540.12,-200.57 529.57,-199.59 531.26,-206.38"/>
</g>
<!-- Hartogs_uni_fix -->
<g id="node10" class="node">
<title>Hartogs_uni_fix</title>
<g id="a_node10"><a xlink:href="Hartogs.html#uni_fix" xlink:title="uni_fix">
<ellipse fill="#f070d1" stroke="black" cx="452" cy="-111.39" rx="40.89" ry="18"/>
<text text-anchor="middle" x="452" y="-107.69" font-family="Times,serif" font-size="14.00">uni_fix</text>
</a>
</g>
</g>
<!-- Hartogs_hartogs_number_carrier&#45;&gt;Hartogs_uni_fix -->
<g id="edge11" class="edge">
<title>Hartogs_hartogs_number_carrier&#45;&gt;Hartogs_uni_fix</title>
<path fill="none" stroke="black" d="M331.01,-169.01C356.18,-157.23 390.04,-141.39 415.54,-129.46"/>
<polygon fill="black" stroke="black" points="417.29,-132.5 424.86,-125.09 414.32,-126.16 417.29,-132.5"/>
</g>
<!-- Hartogs_hartogs_number__injection -->
<g id="node15" class="node">
<title>Hartogs_hartogs_number__injection</title>
<g id="a_node15"><a xlink:href="Hartogs.html#hartogs_number'_injection" xlink:title="hartogs_number&#39;_injection">
<ellipse fill="#f070d1" stroke="black" cx="259" cy="-111.39" rx="133.78" ry="18"/>
<text text-anchor="middle" x="259" y="-107.69" font-family="Times,serif" font-size="14.00">hartogs_number&#39;_injection</text>
</a>
</g>
</g>
<!-- Hartogs_hartogs_number_carrier&#45;&gt;Hartogs_hartogs_number__injection -->
<g id="edge12" class="edge">
<title>Hartogs_hartogs_number_carrier&#45;&gt;Hartogs_hartogs_number__injection</title>
<path fill="none" stroke="black" d="M287.23,-168.09C282.76,-159.28 277.23,-148.37 272.26,-138.55"/>
<polygon fill="black" stroke="black" points="275.35,-136.91 267.71,-129.57 269.1,-140.07 275.35,-136.91"/>
</g>
<!-- Hartogs_injective_uni_fix&#45;&gt;Hartogs_uni_fix -->
<g id="edge13" class="edge">
<title>Hartogs_injective_uni_fix&#45;&gt;Hartogs_uni_fix</title>
<path fill="none" stroke="black" d="M562.41,-169.55C540.19,-158.06 510.11,-142.48 486.95,-130.49"/>
<polygon fill="black" stroke="black" points="488.3,-127.25 477.81,-125.76 485.08,-133.46 488.3,-127.25"/>
</g>
<!-- Hartogs_injective_power_morph -->
<g id="node11" class="node">
<title>Hartogs_injective_power_morph</title>
<g id="a_node11"><a xlink:href="Hartogs.html#injective_power_morph" xlink:title="injective_power_morph">
<ellipse fill="#f070d1" stroke="black" cx="629" cy="-111.39" rx="118.08" ry="18"/>
<text text-anchor="middle" x="629" y="-107.69" font-family="Times,serif" font-size="14.00">injective_power_morph</text>
</a>
</g>
</g>
<!-- Hartogs_injective_uni_fix&#45;&gt;Hartogs_injective_power_morph -->
<g id="edge14" class="edge">
<title>Hartogs_injective_uni_fix&#45;&gt;Hartogs_injective_power_morph</title>
<path fill="none" stroke="black" d="M601.35,-168.46C605.73,-159.59 611.18,-148.53 616.09,-138.58"/>
<polygon fill="black" stroke="black" points="619.29,-140 620.57,-129.49 613.01,-136.91 619.29,-140"/>
</g>
<!-- Hartogs_injective_power_inj -->
<g id="node13" class="node">
<title>Hartogs_injective_power_inj</title>
<g id="a_node13"><a xlink:href="Hartogs.html#injective_power_inj" xlink:title="injective_power_inj">
<ellipse fill="#f070d1" stroke="black" cx="865" cy="-111.39" rx="99.38" ry="18"/>
<text text-anchor="middle" x="865" y="-107.69" font-family="Times,serif" font-size="14.00">injective_power_inj</text>
</a>
</g>
</g>
<!-- Hartogs_injective_uni_fix&#45;&gt;Hartogs_injective_power_inj -->
<g id="edge15" class="edge">
<title>Hartogs_injective_uni_fix&#45;&gt;Hartogs_injective_power_inj</title>
<path fill="none" stroke="black" d="M643.52,-171.83C688.37,-159.8 754.06,-142.17 802.26,-129.23"/>
<polygon fill="black" stroke="black" points="803.21,-132.6 811.96,-126.63 801.4,-125.84 803.21,-132.6"/>
</g>
<!-- Hartogs_power_morph -->
<g id="node12" class="node">
<title>Hartogs_power_morph</title>
<g id="a_node12"><a xlink:href="Hartogs.html#power_morph" xlink:title="power_morph">
<ellipse fill="#f070d1" stroke="black" cx="760" cy="-35.39" rx="74.19" ry="18"/>
<text text-anchor="middle" x="760" y="-31.69" font-family="Times,serif" font-size="14.00">power_morph</text>
</a>
</g>
</g>
<!-- Hartogs_uni_fix&#45;&gt;Hartogs_power_morph -->
<g id="edge16" class="edge">
<title>Hartogs_uni_fix&#45;&gt;Hartogs_power_morph</title>
<path fill="none" stroke="black" d="M482.77,-99.34C489.09,-97.23 495.73,-95.15 502,-93.39 537.75,-83.4 631.41,-63.26 695.48,-49.8"/>
<polygon fill="black" stroke="black" points="696.42,-53.18 705.49,-47.7 694.98,-46.33 696.42,-53.18"/>
</g>
<!-- Hartogs_power_inj -->
<g id="node14" class="node">
<title>Hartogs_power_inj</title>
<g id="a_node14"><a xlink:href="Hartogs.html#power_inj" xlink:title="power_inj">
<ellipse fill="#f070d1" stroke="black" cx="908" cy="-35.39" rx="55.79" ry="18"/>
<text text-anchor="middle" x="908" y="-31.69" font-family="Times,serif" font-size="14.00">power_inj</text>
</a>
</g>
</g>
<!-- Hartogs_uni_fix&#45;&gt;Hartogs_power_inj -->
<g id="edge17" class="edge">
<title>Hartogs_uni_fix&#45;&gt;Hartogs_power_inj</title>
<path fill="none" stroke="black" d="M482.11,-99.01C488.6,-96.89 495.47,-94.87 502,-93.39 650.84,-59.76 693.05,-81.66 843,-53.39 847.76,-52.5 852.69,-51.44 857.61,-50.31"/>
<polygon fill="black" stroke="black" points="858.73,-53.63 867.63,-47.88 857.09,-46.83 858.73,-53.63"/>
</g>
<!-- Hartogs_injective_power_morph&#45;&gt;Hartogs_power_morph -->
<g id="edge18" class="edge">
<title>Hartogs_injective_power_morph&#45;&gt;Hartogs_power_morph</title>
<path fill="none" stroke="black" d="M658.4,-93.79C677.59,-82.95 702.79,-68.71 723.29,-57.13"/>
<polygon fill="black" stroke="black" points="725.06,-60.15 732.05,-52.19 721.62,-54.06 725.06,-60.15"/>
</g>
<!-- Hartogs_injective_power_inj&#45;&gt;Hartogs_power_inj -->
<g id="edge19" class="edge">
<title>Hartogs_injective_power_inj&#45;&gt;Hartogs_power_inj</title>
<path fill="none" stroke="black" d="M874.97,-93.23C880.38,-83.92 887.18,-72.23 893.2,-61.87"/>
<polygon fill="black" stroke="black" points="896.23,-63.61 898.23,-53.21 890.18,-60.1 896.23,-63.61"/>
</g>
<!-- Hartogs_subtype_as_type_ -->
<g id="node16" class="node">
<title>Hartogs_subtype_as_type_</title>
<g id="a_node16"><a xlink:href="Hartogs.html#subtype_as_type'" xlink:title="subtype_as_type&#39;">
<ellipse fill="#f070d1" stroke="black" cx="302" cy="-35.39" rx="89.88" ry="18"/>
<text text-anchor="middle" x="302" y="-31.69" font-family="Times,serif" font-size="14.00">subtype_as_type&#39;</text>
</a>
</g>
</g>
<!-- Hartogs_hartogs_number__injection&#45;&gt;Hartogs_subtype_as_type_ -->
<g id="edge20" class="edge">
<title>Hartogs_hartogs_number__injection&#45;&gt;Hartogs_subtype_as_type_</title>
<path fill="none" stroke="black" d="M268.97,-93.23C274.29,-84.08 280.95,-72.63 286.89,-62.4"/>
<polygon fill="black" stroke="black" points="290.08,-63.87 292.08,-53.46 284.03,-60.35 290.08,-63.87"/>
</g>
<!-- Hartogs_proper_subtype_inclusion -->
<g id="node17" class="node">
<title>Hartogs_proper_subtype_inclusion</title>
<g id="a_node17"><a xlink:href="Hartogs.html#proper_subtype_inclusion" xlink:title="proper_subtype_inclusion">
<ellipse fill="#f070d1" stroke="black" cx="539" cy="-35.39" rx="129.18" ry="18"/>
<text text-anchor="middle" x="539" y="-31.69" font-family="Times,serif" font-size="14.00">proper_subtype_inclusion</text>
</a>
</g>
</g>
<!-- Hartogs_hartogs_number__injection&#45;&gt;Hartogs_proper_subtype_inclusion -->
<g id="edge21" class="edge">
<title>Hartogs_hartogs_number__injection&#45;&gt;Hartogs_proper_subtype_inclusion</title>
<path fill="none" stroke="black" d="M317.02,-95.06C362.03,-83.16 424.5,-66.65 471.71,-54.18"/>
<polygon fill="black" stroke="black" points="472.76,-57.52 481.54,-51.58 470.98,-50.75 472.76,-57.52"/>
</g>
<!-- Hartogs_hartogs_number_ -->
<g id="node18" class="node">
<title>Hartogs_hartogs_number_</title>
<g id="a_node18"><a xlink:href="Hartogs.html#hartogs_number'" xlink:title="hartogs_number&#39;">
<ellipse fill="#f070d1" stroke="black" cx="105" cy="-35.39" rx="89.08" ry="18"/>
<text text-anchor="middle" x="105" y="-31.69" font-family="Times,serif" font-size="14.00">hartogs_number&#39;</text>
</a>
</g>
</g>
<!-- Hartogs_hartogs_number__injection&#45;&gt;Hartogs_hartogs_number_ -->
<g id="edge22" class="edge">
<title>Hartogs_hartogs_number__injection&#45;&gt;Hartogs_hartogs_number_</title>
<path fill="none" stroke="black" d="M224.82,-93.97C201.8,-82.91 171.29,-68.25 146.82,-56.49"/>
<polygon fill="black" stroke="black" points="148.29,-53.31 137.76,-52.14 145.26,-59.62 148.29,-53.31"/>
</g>
</g>
</svg>
