<?xml version="1.0" encoding="UTF-8" standalone="no"?>
<!DOCTYPE svg PUBLIC "-//W3C//DTD SVG 1.1//EN"
 "http://www.w3.org/Graphics/SVG/1.1/DTD/svg11.dtd">
<!-- Generated by graphviz version 2.43.0 (0)
 -->
<!-- Title: HoTT_Spaces_List Pages: 1 -->
<svg width="384pt" height="196pt"
 viewBox="0.00 0.00 384.00 196.00" xmlns="http://www.w3.org/2000/svg" xmlns:xlink="http://www.w3.org/1999/xlink">
<g id="graph0" class="graph" transform="scale(1 1) rotate(0) translate(4 192)">
<title>HoTT_Spaces_List</title>
<polygon fill="white" stroke="transparent" points="-4,4 -4,-192 380,-192 380,4 -4,4"/>
<g id="clust1" class="cluster">
<title>cluster_List</title>
<polygon fill="#ffffc3" stroke="black" points="8,-8.4 8,-179.6 368,-179.6 368,-8.4 8,-8.4"/>
<text text-anchor="middle" x="30" y="-164.4" font-family="Times,serif" font-size="14.00">List</text>
</g>
<!-- List_fold_right_app -->
<g id="node1" class="node">
<title>List_fold_right_app</title>
<g id="a_node1"><a xlink:href="List.html#fold_right_app" xlink:title="fold_right_app">
<ellipse fill="#f070d1" stroke="black" cx="275" cy="-119.4" rx="77.2" ry="18"/>
<ellipse fill="none" stroke="black" cx="275" cy="-119.4" rx="81.19" ry="22"/>
<ellipse fill="none" stroke="black" cx="275" cy="-119.4" rx="85.19" ry="26"/>
<text text-anchor="middle" x="275" y="-115.7" font-family="Times,serif" font-size="14.00">fold_right_app</text>
</a>
</g>
</g>
<!-- List_fold_right -->
<g id="node2" class="node">
<title>List_fold_right</title>
<g id="a_node2"><a xlink:href="List.html#fold_right" xlink:title="fold_right">
<ellipse fill="#f070d1" stroke="black" cx="275" cy="-35.4" rx="55.79" ry="18"/>
<text text-anchor="middle" x="275" y="-31.7" font-family="Times,serif" font-size="14.00">fold_right</text>
</a>
</g>
</g>
<!-- List_fold_right_app&#45;&gt;List_fold_right -->
<g id="edge1" class="edge">
<title>List_fold_right_app&#45;&gt;List_fold_right</title>
<path fill="none" stroke="black" d="M275,-93.35C275,-83.98 275,-73.28 275,-63.71"/>
<polygon fill="black" stroke="black" points="278.5,-63.51 275,-53.51 271.5,-63.51 278.5,-63.51"/>
</g>
<!-- List_fold_left_app -->
<g id="node3" class="node">
<title>List_fold_left_app</title>
<g id="a_node3"><a xlink:href="List.html#fold_left_app" xlink:title="fold_left_app">
<ellipse fill="#f070d1" stroke="black" cx="94" cy="-119.4" rx="69.58" ry="18"/>
<ellipse fill="none" stroke="black" cx="94" cy="-119.4" rx="73.59" ry="22"/>
<ellipse fill="none" stroke="black" cx="94" cy="-119.4" rx="77.59" ry="26"/>
<text text-anchor="middle" x="94" y="-115.7" font-family="Times,serif" font-size="14.00">fold_left_app</text>
</a>
</g>
</g>
<!-- List_fold_left -->
<g id="node4" class="node">
<title>List_fold_left</title>
<g id="a_node4"><a xlink:href="List.html#fold_left" xlink:title="fold_left">
<ellipse fill="#f070d1" stroke="black" cx="94" cy="-35.4" rx="48.19" ry="18"/>
<text text-anchor="middle" x="94" y="-31.7" font-family="Times,serif" font-size="14.00">fold_left</text>
</a>
</g>
</g>
<!-- List_fold_left_app&#45;&gt;List_fold_left -->
<g id="edge2" class="edge">
<title>List_fold_left_app&#45;&gt;List_fold_left</title>
<path fill="none" stroke="black" d="M94,-93.35C94,-83.98 94,-73.28 94,-63.71"/>
<polygon fill="black" stroke="black" points="97.5,-63.51 94,-53.51 90.5,-63.51 97.5,-63.51"/>
</g>
</g>
</svg>
