<?xml version="1.0" encoding="UTF-8" standalone="no"?>
<!DOCTYPE svg PUBLIC "-//W3C//DTD SVG 1.1//EN"
 "http://www.w3.org/Graphics/SVG/1.1/DTD/svg11.dtd">
<!-- Generated by graphviz version 2.43.0 (0)
 -->
<!-- Title: HoTT_Basics_Datatypes Pages: 1 -->
<svg width="1135pt" height="572pt"
 viewBox="0.00 0.00 1135.00 571.50" xmlns="http://www.w3.org/2000/svg" xmlns:xlink="http://www.w3.org/1999/xlink">
<g id="graph0" class="graph" transform="scale(1 1) rotate(0) translate(4 567.5)">
<title>HoTT_Basics_Datatypes</title>
<polygon fill="white" stroke="transparent" points="-4,4 -4,-567.5 1131,-567.5 1131,4 -4,4"/>
<g id="clust1" class="cluster">
<title>cluster_Basics</title>
<polygon fill="#ffffc3" stroke="black" points="8,-20.68 8,-542.82 1022,-542.82 1022,-20.68 8,-20.68"/>
<text text-anchor="middle" x="39" y="-527.62" font-family="Times,serif" font-size="14.00">Basics</text>
</g>
<g id="clust2" class="cluster">
<title>cluster_Basics_Datatypes</title>
<polygon fill="#ffffa3" stroke="black" points="16,-41.36 16,-462.69 1014,-462.69 1014,-41.36 16,-41.36"/>
<text text-anchor="middle" x="60.5" y="-447.49" font-family="Times,serif" font-size="14.00">Datatypes</text>
</g>
<g id="clust3" class="cluster">
<title>cluster_Datatypes</title>
<polygon fill="#ffffc3" stroke="black" points="1030,-227.47 1030,-462.69 1119,-462.69 1119,-227.47 1030,-227.47"/>
<text text-anchor="middle" x="1074.5" y="-447.49" font-family="Times,serif" font-size="14.00">Datatypes</text>
</g>
<!-- Basics_Datatypes_app -->
<g id="node1" class="node">
<title>Basics_Datatypes_app</title>
<g id="a_node1"><a xlink:href="Basics.html#Datatypes.app" xlink:title="app">
<ellipse fill="#f070d1" stroke="black" cx="970" cy="-315.68" rx="27.91" ry="18"/>
<ellipse fill="none" stroke="black" cx="970" cy="-315.68" rx="31.9" ry="22"/>
<ellipse fill="none" stroke="black" cx="970" cy="-315.68" rx="35.9" ry="26"/>
<text text-anchor="middle" x="970" y="-311.98" font-family="Times,serif" font-size="14.00">app</text>
</a>
</g>
</g>
<!-- Basics_Datatypes_cons -->
<g id="node3" class="node">
<title>Basics_Datatypes_cons</title>
<g id="a_node3"><a xlink:href="Basics.html#Datatypes.cons" xlink:title="cons">
<ellipse fill="#7faaff" stroke="black" cx="970" cy="-108.68" rx="31.7" ry="18"/>
<text text-anchor="middle" x="970" y="-104.98" font-family="Times,serif" font-size="14.00">cons</text>
</a>
</g>
</g>
<!-- Basics_Datatypes_app&#45;&gt;Basics_Datatypes_cons -->
<g id="edge1" class="edge">
<title>Basics_Datatypes_app&#45;&gt;Basics_Datatypes_cons</title>
<path fill="none" stroke="black" d="M970,-289.54C970,-250.86 970,-177.02 970,-137.04"/>
<polygon fill="black" stroke="black" points="973.5,-136.95 970,-126.95 966.5,-136.95 973.5,-136.95"/>
</g>
<!-- Basics_Datatypes_list -->
<g id="node5" class="node">
<title>Basics_Datatypes_list</title>
<g id="a_node5"><a xlink:href="Basics.html#Datatypes.list" xlink:title="list">
<ellipse fill="#e2cdfa" stroke="black" cx="893" cy="-108.68" rx="27" ry="18"/>
<text text-anchor="middle" x="893" y="-104.98" font-family="Times,serif" font-size="14.00">list</text>
</a>
</g>
</g>
<!-- Basics_Datatypes_app&#45;&gt;Basics_Datatypes_list -->
<g id="edge2" class="edge">
<title>Basics_Datatypes_app&#45;&gt;Basics_Datatypes_list</title>
<path fill="none" stroke="black" d="M960.86,-290.36C946.28,-251.53 917.85,-175.84 902.84,-135.86"/>
<polygon fill="black" stroke="black" points="906.03,-134.41 899.24,-126.28 899.48,-136.88 906.03,-134.41"/>
</g>
<!-- Basics_Datatypes_list_rect -->
<g id="node2" class="node">
<title>Basics_Datatypes_list_rect</title>
<g id="a_node2"><a xlink:href="Basics.html#Datatypes.list_rect" xlink:title="list_rect">
<ellipse fill="#f070d1" stroke="black" cx="860" cy="-315.68" rx="48.18" ry="18"/>
<ellipse fill="none" stroke="black" cx="860" cy="-315.68" rx="52.18" ry="22"/>
<ellipse fill="none" stroke="black" cx="860" cy="-315.68" rx="56.19" ry="26"/>
<text text-anchor="middle" x="860" y="-311.98" font-family="Times,serif" font-size="14.00">list_rect</text>
</a>
</g>
</g>
<!-- Basics_Datatypes_list_rect&#45;&gt;Basics_Datatypes_cons -->
<g id="edge3" class="edge">
<title>Basics_Datatypes_list_rect&#45;&gt;Basics_Datatypes_cons</title>
<path fill="none" stroke="black" d="M873.05,-290.36C894.03,-251.26 935.05,-174.81 956.38,-135.06"/>
<polygon fill="black" stroke="black" points="959.59,-136.48 961.24,-126.01 953.42,-133.17 959.59,-136.48"/>
</g>
<!-- Basics_Datatypes_nil -->
<g id="node4" class="node">
<title>Basics_Datatypes_nil</title>
<g id="a_node4"><a xlink:href="Basics.html#Datatypes.nil" xlink:title="nil">
<ellipse fill="#7faaff" stroke="black" cx="821" cy="-108.68" rx="27" ry="18"/>
<text text-anchor="middle" x="821" y="-104.98" font-family="Times,serif" font-size="14.00">nil</text>
</a>
</g>
</g>
<!-- Basics_Datatypes_list_rect&#45;&gt;Basics_Datatypes_nil -->
<g id="edge4" class="edge">
<title>Basics_Datatypes_list_rect&#45;&gt;Basics_Datatypes_nil</title>
<path fill="none" stroke="black" d="M855.22,-289.54C847.84,-250.76 833.74,-176.65 826.15,-136.74"/>
<polygon fill="black" stroke="black" points="829.54,-135.84 824.23,-126.67 822.66,-137.15 829.54,-135.84"/>
</g>
<!-- Basics_Datatypes_list_rect&#45;&gt;Basics_Datatypes_list -->
<g id="edge5" class="edge">
<title>Basics_Datatypes_list_rect&#45;&gt;Basics_Datatypes_list</title>
<path fill="none" stroke="black" d="M864.05,-289.54C870.29,-250.76 882.22,-176.65 888.64,-136.74"/>
<polygon fill="black" stroke="black" points="892.13,-137.1 890.26,-126.67 885.22,-135.99 892.13,-137.1"/>
</g>
<!-- Datatypes_iff -->
<g id="node6" class="node">
<title>Datatypes_iff</title>
<g id="a_node6"><a xlink:href="Datatypes.html#iff" xlink:title="iff">
<ellipse fill="#f070d1" stroke="black" cx="1073" cy="-315.68" rx="27" ry="18"/>
<ellipse fill="none" stroke="black" cx="1073" cy="-315.68" rx="31" ry="22"/>
<ellipse fill="none" stroke="black" cx="1073" cy="-315.68" rx="35" ry="26"/>
<text text-anchor="middle" x="1073" y="-311.98" font-family="Times,serif" font-size="14.00">iff</text>
</a>
</g>
</g>
<!-- Basics_Datatypes_prod -->
<g id="node12" class="node">
<title>Basics_Datatypes_prod</title>
<g id="a_node12"><a xlink:href="Basics.html#Datatypes.prod" xlink:title="prod">
<ellipse fill="#e2cdfa" stroke="black" cx="634" cy="-108.68" rx="32.49" ry="18"/>
<text text-anchor="middle" x="634" y="-104.98" font-family="Times,serif" font-size="14.00">prod</text>
</a>
</g>
</g>
<!-- Datatypes_iff&#45;&gt;Basics_Datatypes_prod -->
<g id="edge6" class="edge">
<title>Datatypes_iff&#45;&gt;Basics_Datatypes_prod</title>
<path fill="none" stroke="black" d="M1046.79,-298.08C1037.79,-292.62 1027.58,-286.67 1018,-281.68 892.68,-216.32 737.44,-151.5 669.1,-123.75"/>
<polygon fill="black" stroke="black" points="670.24,-120.43 659.66,-119.92 667.61,-126.92 670.24,-120.43"/>
</g>
<!-- Basics_Datatypes_prod_curry -->
<g id="node7" class="node">
<title>Basics_Datatypes_prod_curry</title>
<g id="a_node7"><a xlink:href="Basics.html#Datatypes.prod_curry" xlink:title="prod_curry">
<ellipse fill="#f070d1" stroke="black" cx="628" cy="-315.68" rx="61.96" ry="18"/>
<ellipse fill="none" stroke="black" cx="628" cy="-315.68" rx="65.98" ry="22"/>
<ellipse fill="none" stroke="black" cx="628" cy="-315.68" rx="69.99" ry="26"/>
<text text-anchor="middle" x="628" y="-311.98" font-family="Times,serif" font-size="14.00">prod_curry</text>
</a>
</g>
</g>
<!-- Basics_Datatypes_prod_curry&#45;&gt;Basics_Datatypes_prod -->
<g id="edge7" class="edge">
<title>Basics_Datatypes_prod_curry&#45;&gt;Basics_Datatypes_prod</title>
<path fill="none" stroke="black" d="M628.74,-289.54C629.87,-250.86 632.03,-177.02 633.2,-137.04"/>
<polygon fill="black" stroke="black" points="636.7,-137.05 633.49,-126.95 629.7,-136.84 636.7,-137.05"/>
</g>
<!-- Basics_Datatypes_prod_rect -->
<g id="node8" class="node">
<title>Basics_Datatypes_prod_rect</title>
<g id="a_node8"><a xlink:href="Basics.html#Datatypes.prod_rect" xlink:title="prod_rect">
<ellipse fill="#f070d1" stroke="black" cx="388" cy="-315.68" rx="55.46" ry="18"/>
<ellipse fill="none" stroke="black" cx="388" cy="-315.68" rx="59.48" ry="22"/>
<ellipse fill="none" stroke="black" cx="388" cy="-315.68" rx="63.49" ry="26"/>
<text text-anchor="middle" x="388" y="-311.98" font-family="Times,serif" font-size="14.00">prod_rect</text>
</a>
</g>
</g>
<!-- Basics_Datatypes_pair -->
<g id="node11" class="node">
<title>Basics_Datatypes_pair</title>
<g id="a_node11"><a xlink:href="Basics.html#Datatypes.pair" xlink:title="pair">
<ellipse fill="#7faaff" stroke="black" cx="554" cy="-108.68" rx="29.5" ry="18"/>
<text text-anchor="middle" x="554" y="-104.98" font-family="Times,serif" font-size="14.00">pair</text>
</a>
</g>
</g>
<!-- Basics_Datatypes_prod_rect&#45;&gt;Basics_Datatypes_pair -->
<g id="edge8" class="edge">
<title>Basics_Datatypes_prod_rect&#45;&gt;Basics_Datatypes_pair</title>
<path fill="none" stroke="black" d="M407.37,-290.76C439.41,-251.19 503.08,-172.57 534.93,-133.23"/>
<polygon fill="black" stroke="black" points="538.01,-134.99 541.58,-125.02 532.57,-130.59 538.01,-134.99"/>
</g>
<!-- Basics_Datatypes_prod_rect&#45;&gt;Basics_Datatypes_prod -->
<g id="edge9" class="edge">
<title>Basics_Datatypes_prod_rect&#45;&gt;Basics_Datatypes_prod</title>
<path fill="none" stroke="black" d="M415.27,-291.96C463.3,-251.93 562.3,-169.43 608.81,-130.67"/>
<polygon fill="black" stroke="black" points="611.16,-133.27 616.6,-124.18 606.68,-127.89 611.16,-133.27"/>
</g>
<!-- Basics_Datatypes_snd -->
<g id="node9" class="node">
<title>Basics_Datatypes_snd</title>
<g id="a_node9"><a xlink:href="Basics.html#Datatypes.snd" xlink:title="snd">
<ellipse fill="#f070d1" stroke="black" cx="505" cy="-315.68" rx="27.14" ry="18"/>
<ellipse fill="none" stroke="black" cx="505" cy="-315.68" rx="31.12" ry="22"/>
<ellipse fill="none" stroke="black" cx="505" cy="-315.68" rx="35.1" ry="26"/>
<text text-anchor="middle" x="505" y="-311.98" font-family="Times,serif" font-size="14.00">snd</text>
</a>
</g>
</g>
<!-- Basics_Datatypes_snd&#45;&gt;Basics_Datatypes_prod -->
<g id="edge10" class="edge">
<title>Basics_Datatypes_snd&#45;&gt;Basics_Datatypes_prod</title>
<path fill="none" stroke="black" d="M519.55,-291.56C544,-252.7 593.13,-174.63 618.32,-134.59"/>
<polygon fill="black" stroke="black" points="621.39,-136.3 623.75,-125.97 615.46,-132.57 621.39,-136.3"/>
</g>
<!-- Basics_Datatypes_fst -->
<g id="node10" class="node">
<title>Basics_Datatypes_fst</title>
<g id="a_node10"><a xlink:href="Basics.html#Datatypes.fst" xlink:title="fst">
<ellipse fill="#f070d1" stroke="black" cx="751" cy="-315.68" rx="27" ry="18"/>
<ellipse fill="none" stroke="black" cx="751" cy="-315.68" rx="31" ry="22"/>
<ellipse fill="none" stroke="black" cx="751" cy="-315.68" rx="35" ry="26"/>
<text text-anchor="middle" x="751" y="-311.98" font-family="Times,serif" font-size="14.00">fst</text>
</a>
</g>
</g>
<!-- Basics_Datatypes_fst&#45;&gt;Basics_Datatypes_prod -->
<g id="edge11" class="edge">
<title>Basics_Datatypes_fst&#45;&gt;Basics_Datatypes_prod</title>
<path fill="none" stroke="black" d="M737.81,-291.56C715.68,-252.79 671.25,-174.95 648.36,-134.85"/>
<polygon fill="black" stroke="black" points="651.29,-132.92 643.3,-125.97 645.21,-136.39 651.29,-132.92"/>
</g>
<!-- Basics_Datatypes_sum_rect -->
<g id="node13" class="node">
<title>Basics_Datatypes_sum_rect</title>
<g id="a_node13"><a xlink:href="Basics.html#Datatypes.sum_rect" xlink:title="sum_rect">
<ellipse fill="#f070d1" stroke="black" cx="245" cy="-315.68" rx="53.12" ry="18"/>
<ellipse fill="none" stroke="black" cx="245" cy="-315.68" rx="57.1" ry="22"/>
<ellipse fill="none" stroke="black" cx="245" cy="-315.68" rx="61.09" ry="26"/>
<text text-anchor="middle" x="245" y="-311.98" font-family="Times,serif" font-size="14.00">sum_rect</text>
</a>
</g>
</g>
<!-- Basics_Datatypes_inr -->
<g id="node14" class="node">
<title>Basics_Datatypes_inr</title>
<g id="a_node14"><a xlink:href="Basics.html#Datatypes.inr" xlink:title="inr">
<ellipse fill="#7faaff" stroke="black" cx="480" cy="-108.68" rx="27" ry="18"/>
<text text-anchor="middle" x="480" y="-104.98" font-family="Times,serif" font-size="14.00">inr</text>
</a>
</g>
</g>
<!-- Basics_Datatypes_sum_rect&#45;&gt;Basics_Datatypes_inr -->
<g id="edge12" class="edge">
<title>Basics_Datatypes_sum_rect&#45;&gt;Basics_Datatypes_inr</title>
<path fill="none" stroke="black" d="M271.05,-291.96C317.17,-251.72 412.5,-168.56 456.64,-130.06"/>
<polygon fill="black" stroke="black" points="459.02,-132.62 464.26,-123.41 454.42,-127.35 459.02,-132.62"/>
</g>
<!-- Basics_Datatypes_inl -->
<g id="node15" class="node">
<title>Basics_Datatypes_inl</title>
<g id="a_node15"><a xlink:href="Basics.html#Datatypes.inl" xlink:title="inl">
<ellipse fill="#7faaff" stroke="black" cx="328" cy="-108.68" rx="27" ry="18"/>
<text text-anchor="middle" x="328" y="-104.98" font-family="Times,serif" font-size="14.00">inl</text>
</a>
</g>
</g>
<!-- Basics_Datatypes_sum_rect&#45;&gt;Basics_Datatypes_inl -->
<g id="edge13" class="edge">
<title>Basics_Datatypes_sum_rect&#45;&gt;Basics_Datatypes_inl</title>
<path fill="none" stroke="black" d="M255.01,-289.95C270.83,-250.88 301.46,-175.23 317.55,-135.49"/>
<polygon fill="black" stroke="black" points="320.8,-136.79 321.31,-126.21 314.31,-134.16 320.8,-136.79"/>
</g>
<!-- Basics_Datatypes_sum -->
<g id="node16" class="node">
<title>Basics_Datatypes_sum</title>
<g id="a_node16"><a xlink:href="Basics.html#Datatypes.sum" xlink:title="sum">
<ellipse fill="#e2cdfa" stroke="black" cx="404" cy="-108.68" rx="30.59" ry="18"/>
<text text-anchor="middle" x="404" y="-104.98" font-family="Times,serif" font-size="14.00">sum</text>
</a>
</g>
</g>
<!-- Basics_Datatypes_sum_rect&#45;&gt;Basics_Datatypes_sum -->
<g id="edge14" class="edge">
<title>Basics_Datatypes_sum_rect&#45;&gt;Basics_Datatypes_sum</title>
<path fill="none" stroke="black" d="M263.55,-290.76C294.17,-251.29 354.92,-172.96 385.5,-133.53"/>
<polygon fill="black" stroke="black" points="388.53,-135.33 391.9,-125.28 383,-131.04 388.53,-135.33"/>
</g>
<!-- Basics_Datatypes_option_rect -->
<g id="node17" class="node">
<title>Basics_Datatypes_option_rect</title>
<g id="a_node17"><a xlink:href="Basics.html#Datatypes.option_rect" xlink:title="option_rect">
<ellipse fill="#f070d1" stroke="black" cx="95" cy="-315.68" rx="63.08" ry="18"/>
<ellipse fill="none" stroke="black" cx="95" cy="-315.68" rx="67.09" ry="22"/>
<ellipse fill="none" stroke="black" cx="95" cy="-315.68" rx="71.09" ry="26"/>
<text text-anchor="middle" x="95" y="-311.98" font-family="Times,serif" font-size="14.00">option_rect</text>
</a>
</g>
</g>
<!-- Basics_Datatypes_None -->
<g id="node18" class="node">
<title>Basics_Datatypes_None</title>
<g id="a_node18"><a xlink:href="Basics.html#Datatypes.None" xlink:title="None">
<ellipse fill="#7faaff" stroke="black" cx="248" cy="-108.68" rx="35.19" ry="18"/>
<text text-anchor="middle" x="248" y="-104.98" font-family="Times,serif" font-size="14.00">None</text>
</a>
</g>
</g>
<!-- Basics_Datatypes_option_rect&#45;&gt;Basics_Datatypes_None -->
<g id="edge15" class="edge">
<title>Basics_Datatypes_option_rect&#45;&gt;Basics_Datatypes_None</title>
<path fill="none" stroke="black" d="M113.15,-290.36C142.59,-250.92 200.4,-173.45 229.84,-134.01"/>
<polygon fill="black" stroke="black" points="232.83,-135.85 236.01,-125.74 227.22,-131.66 232.83,-135.85"/>
</g>
<!-- Basics_Datatypes_Some -->
<g id="node19" class="node">
<title>Basics_Datatypes_Some</title>
<g id="a_node19"><a xlink:href="Basics.html#Datatypes.Some" xlink:title="Some">
<ellipse fill="#7faaff" stroke="black" cx="60" cy="-108.68" rx="36.29" ry="18"/>
<text text-anchor="middle" x="60" y="-104.98" font-family="Times,serif" font-size="14.00">Some</text>
</a>
</g>
</g>
<!-- Basics_Datatypes_option_rect&#45;&gt;Basics_Datatypes_Some -->
<g id="edge16" class="edge">
<title>Basics_Datatypes_option_rect&#45;&gt;Basics_Datatypes_Some</title>
<path fill="none" stroke="black" d="M90.71,-289.54C84.09,-250.76 71.43,-176.65 64.62,-136.74"/>
<polygon fill="black" stroke="black" points="68.03,-135.94 62.9,-126.67 61.13,-137.12 68.03,-135.94"/>
</g>
<!-- Basics_Datatypes_option -->
<g id="node20" class="node">
<title>Basics_Datatypes_option</title>
<g id="a_node20"><a xlink:href="Basics.html#Datatypes.option" xlink:title="option">
<ellipse fill="#e2cdfa" stroke="black" cx="155" cy="-108.68" rx="40.09" ry="18"/>
<text text-anchor="middle" x="155" y="-104.98" font-family="Times,serif" font-size="14.00">option</text>
</a>
</g>
</g>
<!-- Basics_Datatypes_option_rect&#45;&gt;Basics_Datatypes_option -->
<g id="edge17" class="edge">
<title>Basics_Datatypes_option_rect&#45;&gt;Basics_Datatypes_option</title>
<path fill="none" stroke="black" d="M102.36,-289.54C113.73,-250.68 135.49,-176.33 147.16,-136.48"/>
<polygon fill="black" stroke="black" points="150.58,-137.25 150.03,-126.67 143.86,-135.29 150.58,-137.25"/>
</g>
</g>
</svg>
