<?xml version="1.0" encoding="UTF-8" standalone="no"?>
<!DOCTYPE svg PUBLIC "-//W3C//DTD SVG 1.1//EN"
 "http://www.w3.org/Graphics/SVG/1.1/DTD/svg11.dtd">
<!-- Generated by graphviz version 2.43.0 (0)
 -->
<!-- Title: HoTT_Colimits_Colimit_Pushout Pages: 1 -->
<svg width="974pt" height="491pt"
 viewBox="0.00 0.00 974.00 491.00" xmlns="http://www.w3.org/2000/svg" xmlns:xlink="http://www.w3.org/1999/xlink">
<g id="graph0" class="graph" transform="scale(1 1) rotate(0) translate(4 487)">
<title>HoTT_Colimits_Colimit_Pushout</title>
<polygon fill="white" stroke="transparent" points="-4,4 -4,-487 970,-487 970,4 -4,4"/>
<g id="clust1" class="cluster">
<title>cluster_Colimit_Pushout</title>
<polygon fill="#ffffc3" stroke="black" points="16.1,-8 16.1,-475 949.9,-475 949.9,-8 16.1,-8"/>
<text text-anchor="middle" x="83.1" y="-459.8" font-family="Times,serif" font-size="14.00">Colimit_Pushout</text>
</g>
<!-- Colimit_Pushout_equiv_pushout_PO -->
<g id="node1" class="node">
<title>Colimit_Pushout_equiv_pushout_PO</title>
<g id="a_node1"><a xlink:href="Colimit_Pushout.html#equiv_pushout_PO" xlink:title="equiv_pushout_PO">
<ellipse fill="#f070d1" stroke="black" cx="472.74" cy="-258" rx="96.37" ry="18"/>
<ellipse fill="none" stroke="black" cx="472.74" cy="-258" rx="100.38" ry="22"/>
<ellipse fill="none" stroke="black" cx="472.74" cy="-258" rx="104.38" ry="26"/>
<text text-anchor="middle" x="472.74" y="-254.3" font-family="Times,serif" font-size="14.00">equiv_pushout_PO</text>
</a>
</g>
</g>
<!-- Colimit_Pushout_is_PO_pushout -->
<g id="node2" class="node">
<title>Colimit_Pushout_is_PO_pushout</title>
<g id="a_node2"><a xlink:href="Colimit_Pushout.html#is_PO_pushout" xlink:title="is_PO_pushout">
<ellipse fill="#f070d1" stroke="black" cx="732.74" cy="-178" rx="78.79" ry="18"/>
<text text-anchor="middle" x="732.74" y="-174.3" font-family="Times,serif" font-size="14.00">is_PO_pushout</text>
</a>
</g>
</g>
<!-- Colimit_Pushout_equiv_pushout_PO&#45;&gt;Colimit_Pushout_is_PO_pushout -->
<g id="edge1" class="edge">
<title>Colimit_Pushout_equiv_pushout_PO&#45;&gt;Colimit_Pushout_is_PO_pushout</title>
<path fill="none" stroke="black" d="M537.68,-237.52C580.61,-224.64 636.31,-207.93 677.19,-195.67"/>
<polygon fill="black" stroke="black" points="678.41,-198.95 686.98,-192.73 676.4,-192.25 678.41,-198.95"/>
</g>
<!-- Colimit_Pushout_PO -->
<g id="node11" class="node">
<title>Colimit_Pushout_PO</title>
<g id="a_node11"><a xlink:href="Colimit_Pushout.html#PO" xlink:title="PO">
<ellipse fill="#f070d1" stroke="black" cx="86.74" cy="-106" rx="27" ry="18"/>
<text text-anchor="middle" x="86.74" y="-102.3" font-family="Times,serif" font-size="14.00">PO</text>
</a>
</g>
</g>
<!-- Colimit_Pushout_equiv_pushout_PO&#45;&gt;Colimit_Pushout_PO -->
<g id="edge2" class="edge">
<title>Colimit_Pushout_equiv_pushout_PO&#45;&gt;Colimit_Pushout_PO</title>
<path fill="none" stroke="black" d="M429.61,-234.15C388.71,-213.08 325.15,-181.83 267.74,-160 217.94,-141.06 158.33,-124.79 121.49,-115.44"/>
<polygon fill="black" stroke="black" points="122.29,-112.03 111.74,-112.99 120.58,-118.82 122.29,-112.03"/>
</g>
<!-- Colimit_Pushout_is_PO -->
<g id="node12" class="node">
<title>Colimit_Pushout_is_PO</title>
<g id="a_node12"><a xlink:href="Colimit_Pushout.html#is_PO" xlink:title="is_PO">
<ellipse fill="#f070d1" stroke="black" cx="861.74" cy="-106" rx="36.29" ry="18"/>
<text text-anchor="middle" x="861.74" y="-102.3" font-family="Times,serif" font-size="14.00">is_PO</text>
</a>
</g>
</g>
<!-- Colimit_Pushout_is_PO_pushout&#45;&gt;Colimit_Pushout_is_PO -->
<g id="edge3" class="edge">
<title>Colimit_Pushout_is_PO_pushout&#45;&gt;Colimit_Pushout_is_PO</title>
<path fill="none" stroke="black" d="M762.01,-161.12C781.99,-150.27 808.49,-135.9 829.14,-124.69"/>
<polygon fill="black" stroke="black" points="831.06,-127.63 838.18,-119.78 827.72,-121.48 831.06,-127.63"/>
</g>
<!-- Colimit_Pushout_popp_ -->
<g id="node13" class="node">
<title>Colimit_Pushout_popp_</title>
<g id="a_node13"><a xlink:href="Colimit_Pushout.html#popp'" xlink:title="popp&#39;">
<ellipse fill="#f070d1" stroke="black" cx="677.74" cy="-106" rx="36.29" ry="18"/>
<text text-anchor="middle" x="677.74" y="-102.3" font-family="Times,serif" font-size="14.00">popp&#39;</text>
</a>
</g>
</g>
<!-- Colimit_Pushout_is_PO_pushout&#45;&gt;Colimit_Pushout_popp_ -->
<g id="edge4" class="edge">
<title>Colimit_Pushout_is_PO_pushout&#45;&gt;Colimit_Pushout_popp_</title>
<path fill="none" stroke="black" d="M719.42,-160.05C712.64,-151.42 704.26,-140.76 696.81,-131.27"/>
<polygon fill="black" stroke="black" points="699.48,-129.01 690.55,-123.31 693.98,-133.33 699.48,-129.01"/>
</g>
<!-- Colimit_Pushout_Build_span_cocone -->
<g id="node16" class="node">
<title>Colimit_Pushout_Build_span_cocone</title>
<g id="a_node16"><a xlink:href="Colimit_Pushout.html#Build_span_cocone" xlink:title="Build_span_cocone">
<ellipse fill="#f070d1" stroke="black" cx="372.74" cy="-106" rx="97.48" ry="18"/>
<text text-anchor="middle" x="372.74" y="-102.3" font-family="Times,serif" font-size="14.00">Build_span_cocone</text>
</a>
</g>
</g>
<!-- Colimit_Pushout_is_PO_pushout&#45;&gt;Colimit_Pushout_Build_span_cocone -->
<g id="edge5" class="edge">
<title>Colimit_Pushout_is_PO_pushout&#45;&gt;Colimit_Pushout_Build_span_cocone</title>
<path fill="none" stroke="black" d="M674.9,-165.75C613.08,-153.73 514.86,-134.63 447.28,-121.49"/>
<polygon fill="black" stroke="black" points="447.61,-117.99 437.12,-119.52 446.27,-124.86 447.61,-117.99"/>
</g>
<!-- Colimit_Pushout_PO_of_equiv -->
<g id="node3" class="node">
<title>Colimit_Pushout_PO_of_equiv</title>
<g id="a_node3"><a xlink:href="Colimit_Pushout.html#PO_of_equiv" xlink:title="PO_of_equiv">
<ellipse fill="#f070d1" stroke="black" cx="591.74" cy="-418" rx="67.68" ry="18"/>
<ellipse fill="none" stroke="black" cx="591.74" cy="-418" rx="71.68" ry="22"/>
<ellipse fill="none" stroke="black" cx="591.74" cy="-418" rx="75.69" ry="26"/>
<text text-anchor="middle" x="591.74" y="-414.3" font-family="Times,serif" font-size="14.00">PO_of_equiv</text>
</a>
</g>
</g>
<!-- Colimit_Pushout_PO_rec_beta_pp -->
<g id="node4" class="node">
<title>Colimit_Pushout_PO_rec_beta_pp</title>
<g id="a_node4"><a xlink:href="Colimit_Pushout.html#PO_rec_beta_pp" xlink:title="PO_rec_beta_pp">
<ellipse fill="#f070d1" stroke="black" cx="591.74" cy="-338" rx="84.49" ry="18"/>
<text text-anchor="middle" x="591.74" y="-334.3" font-family="Times,serif" font-size="14.00">PO_rec_beta_pp</text>
</a>
</g>
</g>
<!-- Colimit_Pushout_PO_of_equiv&#45;&gt;Colimit_Pushout_PO_rec_beta_pp -->
<g id="edge6" class="edge">
<title>Colimit_Pushout_PO_of_equiv&#45;&gt;Colimit_Pushout_PO_rec_beta_pp</title>
<path fill="none" stroke="black" d="M591.74,-391.89C591.74,-383.84 591.74,-374.88 591.74,-366.66"/>
<polygon fill="black" stroke="black" points="595.24,-366.41 591.74,-356.41 588.24,-366.41 595.24,-366.41"/>
</g>
<!-- Colimit_Pushout_PO_ind -->
<g id="node7" class="node">
<title>Colimit_Pushout_PO_ind</title>
<g id="a_node7"><a xlink:href="Colimit_Pushout.html#PO_ind" xlink:title="PO_ind">
<ellipse fill="#f070d1" stroke="black" cx="217.74" cy="-338" rx="43.59" ry="18"/>
<text text-anchor="middle" x="217.74" y="-334.3" font-family="Times,serif" font-size="14.00">PO_ind</text>
</a>
</g>
</g>
<!-- Colimit_Pushout_PO_of_equiv&#45;&gt;Colimit_Pushout_PO_ind -->
<g id="edge7" class="edge">
<title>Colimit_Pushout_PO_of_equiv&#45;&gt;Colimit_Pushout_PO_ind</title>
<path fill="none" stroke="black" d="M528.29,-403.77C453.96,-388.27 332.47,-362.93 265.61,-348.98"/>
<polygon fill="black" stroke="black" points="266.26,-345.54 255.76,-346.93 264.83,-352.4 266.26,-345.54"/>
</g>
<!-- Colimit_Pushout_PO_rec -->
<g id="node5" class="node">
<title>Colimit_Pushout_PO_rec</title>
<g id="a_node5"><a xlink:href="Colimit_Pushout.html#PO_rec" xlink:title="PO_rec">
<ellipse fill="#f070d1" stroke="black" cx="450.74" cy="-178" rx="43.59" ry="18"/>
<text text-anchor="middle" x="450.74" y="-174.3" font-family="Times,serif" font-size="14.00">PO_rec</text>
</a>
</g>
</g>
<!-- Colimit_Pushout_PO_rec_beta_pp&#45;&gt;Colimit_Pushout_PO_rec -->
<g id="edge8" class="edge">
<title>Colimit_Pushout_PO_rec_beta_pp&#45;&gt;Colimit_Pushout_PO_rec</title>
<path fill="none" stroke="black" d="M595.95,-319.89C600.4,-297.44 604.48,-257.88 585.74,-232 566.51,-205.46 531.94,-192.21 502.6,-185.59"/>
<polygon fill="black" stroke="black" points="502.97,-182.09 492.47,-183.52 501.56,-188.95 502.97,-182.09"/>
</g>
<!-- Colimit_Pushout_popp -->
<g id="node8" class="node">
<title>Colimit_Pushout_popp</title>
<g id="a_node8"><a xlink:href="Colimit_Pushout.html#popp" xlink:title="popp">
<ellipse fill="#f070d1" stroke="black" cx="158.74" cy="-258" rx="33.6" ry="18"/>
<text text-anchor="middle" x="158.74" y="-254.3" font-family="Times,serif" font-size="14.00">popp</text>
</a>
</g>
</g>
<!-- Colimit_Pushout_PO_rec_beta_pp&#45;&gt;Colimit_Pushout_popp -->
<g id="edge9" class="edge">
<title>Colimit_Pushout_PO_rec_beta_pp&#45;&gt;Colimit_Pushout_popp</title>
<path fill="none" stroke="black" d="M529.24,-325.74C439.54,-309.58 276.73,-280.25 200.37,-266.5"/>
<polygon fill="black" stroke="black" points="200.65,-262.99 190.19,-264.67 199.41,-269.88 200.65,-262.99"/>
</g>
<!-- Colimit_Pushout_PO_rec&#45;&gt;Colimit_Pushout_PO -->
<g id="edge10" class="edge">
<title>Colimit_Pushout_PO_rec&#45;&gt;Colimit_Pushout_PO</title>
<path fill="none" stroke="black" d="M412.13,-169.58C341.12,-155.92 190.82,-127.02 122.22,-113.82"/>
<polygon fill="black" stroke="black" points="122.8,-110.37 112.32,-111.92 121.48,-117.25 122.8,-110.37"/>
</g>
<!-- Colimit_Pushout_PO_rec&#45;&gt;Colimit_Pushout_Build_span_cocone -->
<g id="edge11" class="edge">
<title>Colimit_Pushout_PO_rec&#45;&gt;Colimit_Pushout_Build_span_cocone</title>
<path fill="none" stroke="black" d="M433.43,-161.46C423.29,-152.37 410.28,-140.7 398.92,-130.49"/>
<polygon fill="black" stroke="black" points="401.14,-127.79 391.36,-123.71 396.47,-133 401.14,-127.79"/>
</g>
<!-- Colimit_Pushout_PO_ind_beta_pp -->
<g id="node6" class="node">
<title>Colimit_Pushout_PO_ind_beta_pp</title>
<g id="a_node6"><a xlink:href="Colimit_Pushout.html#PO_ind_beta_pp" xlink:title="PO_ind_beta_pp">
<ellipse fill="#f070d1" stroke="black" cx="217.74" cy="-418" rx="84.49" ry="18"/>
<ellipse fill="none" stroke="black" cx="217.74" cy="-418" rx="88.49" ry="22"/>
<ellipse fill="none" stroke="black" cx="217.74" cy="-418" rx="92.49" ry="26"/>
<text text-anchor="middle" x="217.74" y="-414.3" font-family="Times,serif" font-size="14.00">PO_ind_beta_pp</text>
</a>
</g>
</g>
<!-- Colimit_Pushout_PO_ind_beta_pp&#45;&gt;Colimit_Pushout_PO_ind -->
<g id="edge12" class="edge">
<title>Colimit_Pushout_PO_ind_beta_pp&#45;&gt;Colimit_Pushout_PO_ind</title>
<path fill="none" stroke="black" d="M217.74,-391.89C217.74,-383.84 217.74,-374.88 217.74,-366.66"/>
<polygon fill="black" stroke="black" points="221.24,-366.41 217.74,-356.41 214.24,-366.41 221.24,-366.41"/>
</g>
<!-- Colimit_Pushout_PO_ind&#45;&gt;Colimit_Pushout_popp -->
<g id="edge13" class="edge">
<title>Colimit_Pushout_PO_ind&#45;&gt;Colimit_Pushout_popp</title>
<path fill="none" stroke="black" d="M205.23,-320.46C197.06,-309.66 186.26,-295.38 177.12,-283.31"/>
<polygon fill="black" stroke="black" points="179.65,-280.85 170.83,-274.98 174.07,-285.07 179.65,-280.85"/>
</g>
<!-- Colimit_Pushout_por -->
<g id="node9" class="node">
<title>Colimit_Pushout_por</title>
<g id="a_node9"><a xlink:href="Colimit_Pushout.html#por" xlink:title="por">
<ellipse fill="#f070d1" stroke="black" cx="86.74" cy="-178" rx="27" ry="18"/>
<text text-anchor="middle" x="86.74" y="-174.3" font-family="Times,serif" font-size="14.00">por</text>
</a>
</g>
</g>
<!-- Colimit_Pushout_popp&#45;&gt;Colimit_Pushout_por -->
<g id="edge14" class="edge">
<title>Colimit_Pushout_popp&#45;&gt;Colimit_Pushout_por</title>
<path fill="none" stroke="black" d="M144.51,-241.59C133.92,-230.12 119.31,-214.29 107.43,-201.41"/>
<polygon fill="black" stroke="black" points="109.8,-198.82 100.44,-193.85 104.66,-203.57 109.8,-198.82"/>
</g>
<!-- Colimit_Pushout_pol -->
<g id="node10" class="node">
<title>Colimit_Pushout_pol</title>
<g id="a_node10"><a xlink:href="Colimit_Pushout.html#pol" xlink:title="pol">
<ellipse fill="#f070d1" stroke="black" cx="231.74" cy="-178" rx="27" ry="18"/>
<text text-anchor="middle" x="231.74" y="-174.3" font-family="Times,serif" font-size="14.00">pol</text>
</a>
</g>
</g>
<!-- Colimit_Pushout_popp&#45;&gt;Colimit_Pushout_pol -->
<g id="edge15" class="edge">
<title>Colimit_Pushout_popp&#45;&gt;Colimit_Pushout_pol</title>
<path fill="none" stroke="black" d="M173.16,-241.59C183.96,-230.04 198.9,-214.08 210.99,-201.17"/>
<polygon fill="black" stroke="black" points="213.81,-203.28 218.09,-193.59 208.7,-198.5 213.81,-203.28"/>
</g>
<!-- Colimit_Pushout_por&#45;&gt;Colimit_Pushout_PO -->
<g id="edge16" class="edge">
<title>Colimit_Pushout_por&#45;&gt;Colimit_Pushout_PO</title>
<path fill="none" stroke="black" d="M86.74,-159.7C86.74,-151.98 86.74,-142.71 86.74,-134.11"/>
<polygon fill="black" stroke="black" points="90.24,-134.1 86.74,-124.1 83.24,-134.1 90.24,-134.1"/>
</g>
<!-- Colimit_Pushout_pol&#45;&gt;Colimit_Pushout_PO -->
<g id="edge17" class="edge">
<title>Colimit_Pushout_pol&#45;&gt;Colimit_Pushout_PO</title>
<path fill="none" stroke="black" d="M210.34,-166.67C185.82,-154.83 145.42,-135.33 117.52,-121.86"/>
<polygon fill="black" stroke="black" points="118.75,-118.57 108.22,-117.37 115.7,-124.87 118.75,-118.57"/>
</g>
<!-- Colimit_Pushout_por_ -->
<g id="node14" class="node">
<title>Colimit_Pushout_por_</title>
<g id="a_node14"><a xlink:href="Colimit_Pushout.html#por'" xlink:title="por&#39;">
<ellipse fill="#f070d1" stroke="black" cx="603.74" cy="-34" rx="28.7" ry="18"/>
<text text-anchor="middle" x="603.74" y="-30.3" font-family="Times,serif" font-size="14.00">por&#39;</text>
</a>
</g>
</g>
<!-- Colimit_Pushout_popp_&#45;&gt;Colimit_Pushout_por_ -->
<g id="edge18" class="edge">
<title>Colimit_Pushout_popp_&#45;&gt;Colimit_Pushout_por_</title>
<path fill="none" stroke="black" d="M661.68,-89.81C651.39,-80.08 637.87,-67.29 626.48,-56.52"/>
<polygon fill="black" stroke="black" points="628.67,-53.77 619,-49.44 623.86,-58.86 628.67,-53.77"/>
</g>
<!-- Colimit_Pushout_pol_ -->
<g id="node15" class="node">
<title>Colimit_Pushout_pol_</title>
<g id="a_node15"><a xlink:href="Colimit_Pushout.html#pol'" xlink:title="pol&#39;">
<ellipse fill="#f070d1" stroke="black" cx="752.74" cy="-34" rx="27.1" ry="18"/>
<text text-anchor="middle" x="752.74" y="-30.3" font-family="Times,serif" font-size="14.00">pol&#39;</text>
</a>
</g>
</g>
<!-- Colimit_Pushout_popp_&#45;&gt;Colimit_Pushout_pol_ -->
<g id="edge19" class="edge">
<title>Colimit_Pushout_popp_&#45;&gt;Colimit_Pushout_pol_</title>
<path fill="none" stroke="black" d="M694.01,-89.81C704.51,-80.01 718.33,-67.12 729.92,-56.3"/>
<polygon fill="black" stroke="black" points="732.6,-58.59 737.52,-49.21 727.82,-53.47 732.6,-58.59"/>
</g>
</g>
</svg>
