<?xml version="1.0" encoding="UTF-8" standalone="no"?>
<!DOCTYPE svg PUBLIC "-//W3C//DTD SVG 1.1//EN"
 "http://www.w3.org/Graphics/SVG/1.1/DTD/svg11.dtd">
<!-- Generated by graphviz version 2.43.0 (0)
 -->
<!-- Title: HoTT_Truncations_Core Pages: 1 -->
<svg width="2503pt" height="1252pt"
 viewBox="0.00 0.00 2503.08 1252.00" xmlns="http://www.w3.org/2000/svg" xmlns:xlink="http://www.w3.org/1999/xlink">
<g id="graph0" class="graph" transform="scale(1 1) rotate(0) translate(4 1248)">
<title>HoTT_Truncations_Core</title>
<polygon fill="white" stroke="transparent" points="-4,4 -4,-1248 2499.08,-1248 2499.08,4 -4,4"/>
<g id="clust1" class="cluster">
<title>cluster_Core</title>
<polygon fill="#ffffc3" stroke="black" points="8,-14.85 8,-1229.15 2480,-1229.15 2480,-14.85 8,-14.85"/>
<text text-anchor="middle" x="33" y="-1213.95" font-family="Times,serif" font-size="14.00">Core</text>
</g>
<g id="clust2" class="cluster">
<title>cluster_Core_Trunc</title>
<polygon fill="#ffffa3" stroke="black" points="1160,-29.71 1160,-302.64 1500,-302.64 1500,-29.71 1160,-29.71"/>
<text text-anchor="middle" x="1189" y="-287.44" font-family="Times,serif" font-size="14.00">Trunc</text>
</g>
<!-- Core_Trunc_Trunc_ind -->
<g id="node1" class="node">
<title>Core_Trunc_Trunc_ind</title>
<g id="a_node1"><a xlink:href="Core.html#Trunc.Trunc_ind" xlink:title="Trunc_ind">
<ellipse fill="#f070d1" stroke="black" cx="1435" cy="-211.85" rx="56.59" ry="18"/>
<text text-anchor="middle" x="1435" y="-208.15" font-family="Times,serif" font-size="14.00">Trunc_ind</text>
</a>
</g>
</g>
<!-- Core_Trunc_tr -->
<g id="node3" class="node">
<title>Core_Trunc_tr</title>
<g id="a_node3"><a xlink:href="Core.html#Trunc.tr" xlink:title="tr">
<ellipse fill="#7faaff" stroke="black" cx="1435" cy="-77.85" rx="27" ry="18"/>
<text text-anchor="middle" x="1435" y="-74.15" font-family="Times,serif" font-size="14.00">tr</text>
</a>
</g>
</g>
<!-- Core_Trunc_Trunc_ind&#45;&gt;Core_Trunc_tr -->
<g id="edge1" class="edge">
<title>Core_Trunc_Trunc_ind&#45;&gt;Core_Trunc_tr</title>
<path fill="none" stroke="black" d="M1435,-193.6C1435,-171.36 1435,-132.45 1435,-106.18"/>
<polygon fill="black" stroke="black" points="1438.5,-106.11 1435,-96.11 1431.5,-106.11 1438.5,-106.11"/>
</g>
<!-- Core_Trunc_Trunc -->
<g id="node4" class="node">
<title>Core_Trunc_Trunc</title>
<g id="a_node4"><a xlink:href="Core.html#Trunc.Trunc" xlink:title="Trunc">
<ellipse fill="#e2cdfa" stroke="black" cx="1308" cy="-77.85" rx="37.89" ry="18"/>
<text text-anchor="middle" x="1308" y="-74.15" font-family="Times,serif" font-size="14.00">Trunc</text>
</a>
</g>
</g>
<!-- Core_Trunc_Trunc_ind&#45;&gt;Core_Trunc_Trunc -->
<g id="edge2" class="edge">
<title>Core_Trunc_Trunc_ind&#45;&gt;Core_Trunc_Trunc</title>
<path fill="none" stroke="black" d="M1419.17,-194.4C1396.78,-171.13 1355.75,-128.48 1330.29,-102.02"/>
<polygon fill="black" stroke="black" points="1332.69,-99.47 1323.23,-94.69 1327.64,-104.32 1332.69,-99.47"/>
</g>
<!-- Core_Trunc_istrunc_truncation -->
<g id="node2" class="node">
<title>Core_Trunc_istrunc_truncation</title>
<g id="a_node2"><a xlink:href="Core.html#Trunc.istrunc_truncation" xlink:title="istrunc_truncation">
<ellipse fill="#facdef" stroke="black" cx="1264" cy="-211.85" rx="96.38" ry="18"/>
<text text-anchor="middle" x="1264" y="-208.15" font-family="Times,serif" font-size="14.00">istrunc_truncation</text>
</a>
</g>
</g>
<!-- Core_Trunc_istrunc_truncation&#45;&gt;Core_Trunc_Trunc -->
<g id="edge3" class="edge">
<title>Core_Trunc_istrunc_truncation&#45;&gt;Core_Trunc_Trunc</title>
<path fill="none" stroke="black" d="M1269.66,-193.87C1277.12,-171.49 1290.32,-131.9 1299.11,-105.51"/>
<polygon fill="black" stroke="black" points="1302.52,-106.37 1302.36,-95.77 1295.88,-104.16 1302.52,-106.37"/>
</g>
<!-- Core_equiv_path_Tr -->
<g id="node5" class="node">
<title>Core_equiv_path_Tr</title>
<g id="a_node5"><a xlink:href="Core.html#equiv_path_Tr" xlink:title="equiv_path_Tr">
<ellipse fill="#f070d1" stroke="black" cx="1246" cy="-1122.85" rx="76.08" ry="18"/>
<ellipse fill="none" stroke="black" cx="1246" cy="-1122.85" rx="80.08" ry="22"/>
<ellipse fill="none" stroke="black" cx="1246" cy="-1122.85" rx="84.09" ry="26"/>
<text text-anchor="middle" x="1246" y="-1119.15" font-family="Times,serif" font-size="14.00">equiv_path_Tr</text>
</a>
</g>
</g>
<!-- Core_O_lex_leq_Tr -->
<g id="node7" class="node">
<title>Core_O_lex_leq_Tr</title>
<g id="a_node7"><a xlink:href="Core.html#O_lex_leq_Tr" xlink:title="O_lex_leq_Tr">
<ellipse fill="#f070d1" stroke="black" cx="2003" cy="-974.85" rx="69.59" ry="18"/>
<text text-anchor="middle" x="2003" y="-971.15" font-family="Times,serif" font-size="14.00">O_lex_leq_Tr</text>
</a>
</g>
</g>
<!-- Core_equiv_path_Tr&#45;&gt;Core_O_lex_leq_Tr -->
<g id="edge4" class="edge">
<title>Core_equiv_path_Tr&#45;&gt;Core_O_lex_leq_Tr</title>
<path fill="none" stroke="black" d="M1317.49,-1108.92C1441.39,-1086.37 1703.97,-1037.93 1925,-992.85 1930.43,-991.75 1936.07,-990.57 1941.72,-989.37"/>
<polygon fill="black" stroke="black" points="1942.81,-992.72 1951.85,-987.21 1941.34,-985.87 1942.81,-992.72"/>
</g>
<!-- Core_O_eq_Tr -->
<g id="node10" class="node">
<title>Core_O_eq_Tr</title>
<g id="a_node10"><a xlink:href="Core.html#O_eq_Tr" xlink:title="O_eq_Tr">
<ellipse fill="#f070d1" stroke="black" cx="1262" cy="-662.85" rx="48.19" ry="18"/>
<text text-anchor="middle" x="1262" y="-659.15" font-family="Times,serif" font-size="14.00">O_eq_Tr</text>
</a>
</g>
</g>
<!-- Core_equiv_path_Tr&#45;&gt;Core_O_eq_Tr -->
<g id="edge5" class="edge">
<title>Core_equiv_path_Tr&#45;&gt;Core_O_eq_Tr</title>
<path fill="none" stroke="black" d="M1237.25,-1096.6C1219.56,-1042.04 1183,-909.25 1205,-799.85 1213.09,-759.62 1233.4,-716.44 1247.45,-689.79"/>
<polygon fill="black" stroke="black" points="1250.66,-691.22 1252.31,-680.75 1244.49,-687.9 1250.66,-691.22"/>
</g>
<!-- Core_path_Tr -->
<g id="node6" class="node">
<title>Core_path_Tr</title>
<g id="a_node6"><a xlink:href="Core.html#path_Tr" xlink:title="path_Tr">
<ellipse fill="#f070d1" stroke="black" cx="1268" cy="-825.85" rx="46.27" ry="18"/>
<ellipse fill="none" stroke="black" cx="1268" cy="-825.85" rx="50.28" ry="22"/>
<ellipse fill="none" stroke="black" cx="1268" cy="-825.85" rx="54.29" ry="26"/>
<text text-anchor="middle" x="1268" y="-822.15" font-family="Times,serif" font-size="14.00">path_Tr</text>
</a>
</g>
</g>
<!-- Core_path_Tr&#45;&gt;Core_O_eq_Tr -->
<g id="edge6" class="edge">
<title>Core_path_Tr&#45;&gt;Core_O_eq_Tr</title>
<path fill="none" stroke="black" d="M1267.06,-799.7C1265.96,-770.24 1264.15,-721.61 1263.02,-691.23"/>
<polygon fill="black" stroke="black" points="1266.51,-690.79 1262.64,-680.93 1259.51,-691.05 1266.51,-690.79"/>
</g>
<!-- Core_O_strong_leq_Tr -->
<g id="node8" class="node">
<title>Core_O_strong_leq_Tr</title>
<g id="a_node8"><a xlink:href="Core.html#O_strong_leq_Tr" xlink:title="O_strong_leq_Tr">
<ellipse fill="#f070d1" stroke="black" cx="1605" cy="-825.85" rx="85.59" ry="18"/>
<text text-anchor="middle" x="1605" y="-822.15" font-family="Times,serif" font-size="14.00">O_strong_leq_Tr</text>
</a>
</g>
</g>
<!-- Core_O_lex_leq_Tr&#45;&gt;Core_O_strong_leq_Tr -->
<g id="edge7" class="edge">
<title>Core_O_lex_leq_Tr&#45;&gt;Core_O_strong_leq_Tr</title>
<path fill="none" stroke="black" d="M1964.84,-959.76C1892.48,-933.03 1735.4,-875.02 1654.84,-845.26"/>
<polygon fill="black" stroke="black" points="1656,-841.96 1645.41,-841.78 1653.58,-848.53 1656,-841.96"/>
</g>
<!-- Core_Trunc_rec -->
<g id="node40" class="node">
<title>Core_Trunc_rec</title>
<g id="a_node40"><a xlink:href="Core.html#Trunc_rec" xlink:title="Trunc_rec">
<ellipse fill="#f070d1" stroke="black" cx="2415" cy="-825.85" rx="56.59" ry="18"/>
<text text-anchor="middle" x="2415" y="-822.15" font-family="Times,serif" font-size="14.00">Trunc_rec</text>
</a>
</g>
</g>
<!-- Core_O_lex_leq_Tr&#45;&gt;Core_Trunc_rec -->
<g id="edge8" class="edge">
<title>Core_O_lex_leq_Tr&#45;&gt;Core_Trunc_rec</title>
<path fill="none" stroke="black" d="M2043.21,-960.14C2108,-937.95 2239.43,-892.54 2350,-851.85 2356.86,-849.33 2364.12,-846.6 2371.19,-843.9"/>
<polygon fill="black" stroke="black" points="2372.58,-847.12 2380.66,-840.27 2370.07,-840.58 2372.58,-847.12"/>
</g>
<!-- Core_O_leq_Tr -->
<g id="node9" class="node">
<title>Core_O_leq_Tr</title>
<g id="a_node9"><a xlink:href="Core.html#O_leq_Tr" xlink:title="O_leq_Tr">
<ellipse fill="#f070d1" stroke="black" cx="1379" cy="-662.85" rx="51.19" ry="18"/>
<text text-anchor="middle" x="1379" y="-659.15" font-family="Times,serif" font-size="14.00">O_leq_Tr</text>
</a>
</g>
</g>
<!-- Core_O_strong_leq_Tr&#45;&gt;Core_O_leq_Tr -->
<g id="edge9" class="edge">
<title>Core_O_strong_leq_Tr&#45;&gt;Core_O_leq_Tr</title>
<path fill="none" stroke="black" d="M1581.67,-808.23C1540.34,-778.79 1454.38,-717.55 1408.83,-685.1"/>
<polygon fill="black" stroke="black" points="1410.72,-682.15 1400.55,-679.2 1406.66,-687.86 1410.72,-682.15"/>
</g>
<!-- Core_istrunc_inO_tr -->
<g id="node24" class="node">
<title>Core_istrunc_inO_tr</title>
<g id="a_node24"><a xlink:href="Core.html#istrunc_inO_tr" xlink:title="istrunc_inO_tr">
<ellipse fill="#f070d1" stroke="black" cx="757" cy="-499.85" rx="76.89" ry="18"/>
<text text-anchor="middle" x="757" y="-496.15" font-family="Times,serif" font-size="14.00">istrunc_inO_tr</text>
</a>
</g>
</g>
<!-- Core_O_leq_Tr&#45;&gt;Core_istrunc_inO_tr -->
<g id="edge10" class="edge">
<title>Core_O_leq_Tr&#45;&gt;Core_istrunc_inO_tr</title>
<path fill="none" stroke="black" d="M1348.84,-648.14C1339.41,-644.16 1328.88,-640.04 1319,-636.85 1111.82,-570.1 1052.5,-581.25 842,-525.85 832.18,-523.27 821.78,-520.36 811.74,-517.46"/>
<polygon fill="black" stroke="black" points="812.44,-514.01 801.86,-514.57 810.48,-520.73 812.44,-514.01"/>
</g>
<!-- Core_inO_tr_istrunc -->
<g id="node25" class="node">
<title>Core_inO_tr_istrunc</title>
<g id="a_node25"><a xlink:href="Core.html#inO_tr_istrunc" xlink:title="inO_tr_istrunc">
<ellipse fill="#f070d1" stroke="black" cx="928" cy="-499.85" rx="76.89" ry="18"/>
<text text-anchor="middle" x="928" y="-496.15" font-family="Times,serif" font-size="14.00">inO_tr_istrunc</text>
</a>
</g>
</g>
<!-- Core_O_leq_Tr&#45;&gt;Core_inO_tr_istrunc -->
<g id="edge11" class="edge">
<title>Core_O_leq_Tr&#45;&gt;Core_inO_tr_istrunc</title>
<path fill="none" stroke="black" d="M1347.69,-648.39C1338.49,-644.55 1328.38,-640.44 1319,-636.85 1199,-591.03 1055.98,-542.9 980.57,-518.02"/>
<polygon fill="black" stroke="black" points="981.42,-514.62 970.83,-514.81 979.23,-521.27 981.42,-514.62"/>
</g>
<!-- Core_O_eq_Tr&#45;&gt;Core_istrunc_inO_tr -->
<g id="edge12" class="edge">
<title>Core_O_eq_Tr&#45;&gt;Core_istrunc_inO_tr</title>
<path fill="none" stroke="black" d="M1231.29,-648.87C1221.37,-644.84 1210.28,-640.5 1200,-636.85 1127.25,-611.07 914.72,-547.55 812.79,-517.33"/>
<polygon fill="black" stroke="black" points="813.57,-513.91 802.98,-514.43 811.58,-520.62 813.57,-513.91"/>
</g>
<!-- Core_O_eq_Tr&#45;&gt;Core_inO_tr_istrunc -->
<g id="edge13" class="edge">
<title>Core_O_eq_Tr&#45;&gt;Core_inO_tr_istrunc</title>
<path fill="none" stroke="black" d="M1233.81,-648.27C1174.93,-619.88 1038.64,-554.19 969.64,-520.92"/>
<polygon fill="black" stroke="black" points="970.89,-517.64 960.36,-516.45 967.85,-523.95 970.89,-517.64"/>
</g>
<!-- Core_Trunc_swap -->
<g id="node11" class="node">
<title>Core_Trunc_swap</title>
<g id="a_node11"><a xlink:href="Core.html#Trunc_swap" xlink:title="Trunc_swap">
<ellipse fill="#f070d1" stroke="black" cx="1856" cy="-1122.85" rx="65.77" ry="18"/>
<ellipse fill="none" stroke="black" cx="1856" cy="-1122.85" rx="69.78" ry="22"/>
<ellipse fill="none" stroke="black" cx="1856" cy="-1122.85" rx="73.79" ry="26"/>
<text text-anchor="middle" x="1856" y="-1119.15" font-family="Times,serif" font-size="14.00">Trunc_swap</text>
</a>
</g>
</g>
<!-- Core_Trunc_min -->
<g id="node12" class="node">
<title>Core_Trunc_min</title>
<g id="a_node12"><a xlink:href="Core.html#Trunc_min" xlink:title="Trunc_min">
<ellipse fill="#f070d1" stroke="black" cx="1856" cy="-974.85" rx="59.59" ry="18"/>
<text text-anchor="middle" x="1856" y="-971.15" font-family="Times,serif" font-size="14.00">Trunc_min</text>
</a>
</g>
</g>
<!-- Core_Trunc_swap&#45;&gt;Core_Trunc_min -->
<g id="edge14" class="edge">
<title>Core_Trunc_swap&#45;&gt;Core_Trunc_min</title>
<path fill="none" stroke="black" d="M1856,-1096.76C1856,-1070.67 1856,-1029.98 1856,-1003.12"/>
<polygon fill="black" stroke="black" points="1859.5,-1002.88 1856,-992.88 1852.5,-1002.88 1859.5,-1002.88"/>
</g>
<!-- Core_Trunc_min&#45;&gt;Core_istrunc_inO_tr -->
<g id="edge15" class="edge">
<title>Core_Trunc_min&#45;&gt;Core_istrunc_inO_tr</title>
<path fill="none" stroke="black" d="M1797.18,-971.58C1652.29,-964.67 1284.21,-938.75 1205,-851.85 1140.35,-780.93 1245.19,-711.6 1185,-636.85 1178.94,-629.33 925.66,-551.92 811.64,-517.36"/>
<polygon fill="black" stroke="black" points="812.62,-514 802.03,-514.45 810.59,-520.7 812.62,-514"/>
</g>
<!-- Core_equiv_tr -->
<g id="node36" class="node">
<title>Core_equiv_tr</title>
<g id="a_node36"><a xlink:href="Core.html#equiv_tr" xlink:title="equiv_tr">
<ellipse fill="#f070d1" stroke="black" cx="2292" cy="-825.85" rx="48.99" ry="18"/>
<text text-anchor="middle" x="2292" y="-822.15" font-family="Times,serif" font-size="14.00">equiv_tr</text>
</a>
</g>
</g>
<!-- Core_Trunc_min&#45;&gt;Core_equiv_tr -->
<g id="edge16" class="edge">
<title>Core_Trunc_min&#45;&gt;Core_equiv_tr</title>
<path fill="none" stroke="black" d="M1897.55,-961.85C1967.63,-941.29 2113.46,-897.17 2234,-851.85 2240.13,-849.55 2246.56,-846.96 2252.81,-844.34"/>
<polygon fill="black" stroke="black" points="2254.59,-847.39 2262.42,-840.25 2251.84,-840.95 2254.59,-847.39"/>
</g>
<!-- Core_Trunc_min&#45;&gt;Core_Trunc_rec -->
<g id="edge17" class="edge">
<title>Core_Trunc_min&#45;&gt;Core_Trunc_rec</title>
<path fill="none" stroke="black" d="M1900.62,-962.68C1908.41,-960.73 1916.44,-958.73 1924,-956.85 2113.26,-909.87 2163.97,-910.3 2350,-851.85 2357.22,-849.59 2364.79,-846.93 2372.11,-844.22"/>
<polygon fill="black" stroke="black" points="2373.77,-847.33 2381.88,-840.51 2371.29,-840.79 2373.77,-847.33"/>
</g>
<!-- Core_isequiv_surj_emb -->
<g id="node13" class="node">
<title>Core_isequiv_surj_emb</title>
<g id="a_node13"><a xlink:href="Core.html#isequiv_surj_emb" xlink:title="isequiv_surj_emb">
<ellipse fill="#f070d1" stroke="black" cx="563" cy="-499.85" rx="90.98" ry="18"/>
<ellipse fill="none" stroke="black" cx="563" cy="-499.85" rx="94.98" ry="22"/>
<ellipse fill="none" stroke="black" cx="563" cy="-499.85" rx="98.98" ry="26"/>
<text text-anchor="middle" x="563" y="-496.15" font-family="Times,serif" font-size="14.00">isequiv_surj_emb</text>
</a>
</g>
</g>
<!-- Core_Tr -->
<g id="node39" class="node">
<title>Core_Tr</title>
<g id="a_node39"><a xlink:href="Core.html#Tr" xlink:title="Tr">
<ellipse fill="#f070d1" stroke="black" cx="1264" cy="-350.85" rx="27" ry="18"/>
<text text-anchor="middle" x="1264" y="-347.15" font-family="Times,serif" font-size="14.00">Tr</text>
</a>
</g>
</g>
<!-- Core_isequiv_surj_emb&#45;&gt;Core_Tr -->
<g id="edge18" class="edge">
<title>Core_isequiv_surj_emb&#45;&gt;Core_Tr</title>
<path fill="none" stroke="black" d="M634.98,-481.93C647,-479.18 659.34,-476.4 671,-473.85 882.09,-427.71 1136.56,-377 1228.61,-358.82"/>
<polygon fill="black" stroke="black" points="1229.39,-362.23 1238.52,-356.86 1228.03,-355.37 1229.39,-362.23"/>
</g>
<!-- Core_equiv_merely_issurjection -->
<g id="node14" class="node">
<title>Core_equiv_merely_issurjection</title>
<g id="a_node14"><a xlink:href="Core.html#equiv_merely_issurjection" xlink:title="equiv_merely_issurjection">
<ellipse fill="#f070d1" stroke="black" cx="1883" cy="-825.85" rx="131.09" ry="18"/>
<ellipse fill="none" stroke="black" cx="1883" cy="-825.85" rx="135.08" ry="22"/>
<ellipse fill="none" stroke="black" cx="1883" cy="-825.85" rx="139.08" ry="26"/>
<text text-anchor="middle" x="1883" y="-822.15" font-family="Times,serif" font-size="14.00">equiv_merely_issurjection</text>
</a>
</g>
</g>
<!-- Core_iff_merely_issurjection -->
<g id="node15" class="node">
<title>Core_iff_merely_issurjection</title>
<g id="a_node15"><a xlink:href="Core.html#iff_merely_issurjection" xlink:title="iff_merely_issurjection">
<ellipse fill="#f070d1" stroke="black" cx="2205" cy="-662.85" rx="115.08" ry="18"/>
<text text-anchor="middle" x="2205" y="-659.15" font-family="Times,serif" font-size="14.00">iff_merely_issurjection</text>
</a>
</g>
</g>
<!-- Core_equiv_merely_issurjection&#45;&gt;Core_iff_merely_issurjection -->
<g id="edge19" class="edge">
<title>Core_equiv_merely_issurjection&#45;&gt;Core_iff_merely_issurjection</title>
<path fill="none" stroke="black" d="M1930.17,-801.27C1993.01,-769.85 2103.23,-714.74 2163.22,-684.74"/>
<polygon fill="black" stroke="black" points="2165.02,-687.76 2172.4,-680.15 2161.89,-681.49 2165.02,-687.76"/>
</g>
<!-- Core_merely -->
<g id="node21" class="node">
<title>Core_merely</title>
<g id="a_node21"><a xlink:href="Core.html#merely" xlink:title="merely">
<ellipse fill="#f070d1" stroke="black" cx="1578" cy="-499.85" rx="42.79" ry="18"/>
<text text-anchor="middle" x="1578" y="-496.15" font-family="Times,serif" font-size="14.00">merely</text>
</a>
</g>
</g>
<!-- Core_iff_merely_issurjection&#45;&gt;Core_merely -->
<g id="edge20" class="edge">
<title>Core_iff_merely_issurjection&#45;&gt;Core_merely</title>
<path fill="none" stroke="black" d="M2138.68,-648.05C2008.56,-620.67 1724.28,-559.23 1630,-525.85 1624.31,-523.84 1618.43,-521.39 1612.74,-518.82"/>
<polygon fill="black" stroke="black" points="1613.99,-515.54 1603.45,-514.44 1611.01,-521.87 1613.99,-515.54"/>
</g>
<!-- Core_BuildIsSurjection -->
<g id="node16" class="node">
<title>Core_BuildIsSurjection</title>
<g id="a_node16"><a xlink:href="Core.html#BuildIsSurjection" xlink:title="BuildIsSurjection">
<ellipse fill="#f070d1" stroke="black" cx="1763" cy="-662.85" rx="90.98" ry="18"/>
<ellipse fill="none" stroke="black" cx="1763" cy="-662.85" rx="94.98" ry="22"/>
<ellipse fill="none" stroke="black" cx="1763" cy="-662.85" rx="98.98" ry="26"/>
<text text-anchor="middle" x="1763" y="-659.15" font-family="Times,serif" font-size="14.00">BuildIsSurjection</text>
</a>
</g>
</g>
<!-- Core_BuildIsSurjection&#45;&gt;Core_merely -->
<g id="edge21" class="edge">
<title>Core_BuildIsSurjection&#45;&gt;Core_merely</title>
<path fill="none" stroke="black" d="M1735.3,-637.75C1699.66,-606.73 1638.21,-553.25 1603.6,-523.14"/>
<polygon fill="black" stroke="black" points="1605.67,-520.29 1595.83,-516.37 1601.07,-525.57 1605.67,-520.29"/>
</g>
<!-- Core_contr_inhab_prop -->
<g id="node17" class="node">
<title>Core_contr_inhab_prop</title>
<g id="a_node17"><a xlink:href="Core.html#contr_inhab_prop" xlink:title="contr_inhab_prop">
<ellipse fill="#f070d1" stroke="black" cx="1547" cy="-662.85" rx="90.98" ry="18"/>
<ellipse fill="none" stroke="black" cx="1547" cy="-662.85" rx="94.98" ry="22"/>
<ellipse fill="none" stroke="black" cx="1547" cy="-662.85" rx="98.98" ry="26"/>
<text text-anchor="middle" x="1547" y="-659.15" font-family="Times,serif" font-size="14.00">contr_inhab_prop</text>
</a>
</g>
</g>
<!-- Core_contr_inhab_prop&#45;&gt;Core_merely -->
<g id="edge22" class="edge">
<title>Core_contr_inhab_prop&#45;&gt;Core_merely</title>
<path fill="none" stroke="black" d="M1551.84,-636.7C1557.54,-607.11 1566.96,-558.19 1572.81,-527.83"/>
<polygon fill="black" stroke="black" points="1576.26,-528.41 1574.71,-517.93 1569.38,-527.09 1576.26,-528.41"/>
</g>
<!-- Core_contr_inhab_prop&#45;&gt;Core_inO_tr_istrunc -->
<g id="edge23" class="edge">
<title>Core_contr_inhab_prop&#45;&gt;Core_inO_tr_istrunc</title>
<path fill="none" stroke="black" d="M1476.11,-644.56C1373.79,-619.41 1178.92,-570.85 1014,-525.85 1004,-523.12 993.37,-520.12 983.12,-517.17"/>
<polygon fill="black" stroke="black" points="984.02,-513.79 973.45,-514.37 982.08,-520.51 984.02,-513.79"/>
</g>
<!-- Core_himage -->
<g id="node18" class="node">
<title>Core_himage</title>
<g id="a_node18"><a xlink:href="Core.html#himage" xlink:title="himage">
<ellipse fill="#f070d1" stroke="black" cx="393" cy="-499.85" rx="44.72" ry="18"/>
<ellipse fill="none" stroke="black" cx="393" cy="-499.85" rx="48.7" ry="22"/>
<ellipse fill="none" stroke="black" cx="393" cy="-499.85" rx="52.69" ry="26"/>
<text text-anchor="middle" x="393" y="-496.15" font-family="Times,serif" font-size="14.00">himage</text>
</a>
</g>
</g>
<!-- Core_himage&#45;&gt;Core_Tr -->
<g id="edge24" class="edge">
<title>Core_himage&#45;&gt;Core_Tr</title>
<path fill="none" stroke="black" d="M431.22,-481.83C438.98,-478.83 447.16,-475.99 455,-473.85 746,-394.42 1110.93,-362.82 1226.87,-354.35"/>
<polygon fill="black" stroke="black" points="1227.27,-357.84 1236.99,-353.63 1226.77,-350.85 1227.27,-357.84"/>
</g>
<!-- Core_hor -->
<g id="node19" class="node">
<title>Core_hor</title>
<g id="a_node19"><a xlink:href="Core.html#hor" xlink:title="hor">
<ellipse fill="#f070d1" stroke="black" cx="2037" cy="-662.85" rx="27" ry="18"/>
<ellipse fill="none" stroke="black" cx="2037" cy="-662.85" rx="31" ry="22"/>
<ellipse fill="none" stroke="black" cx="2037" cy="-662.85" rx="35" ry="26"/>
<text text-anchor="middle" x="2037" y="-659.15" font-family="Times,serif" font-size="14.00">hor</text>
</a>
</g>
</g>
<!-- Core_hor&#45;&gt;Core_merely -->
<g id="edge25" class="edge">
<title>Core_hor&#45;&gt;Core_merely</title>
<path fill="none" stroke="black" d="M2010.49,-645.55C2004.83,-642.43 1998.81,-639.36 1993,-636.85 1838.06,-570.11 1787.14,-587.25 1630,-525.85 1624.44,-523.68 1618.65,-521.17 1613.04,-518.59"/>
<polygon fill="black" stroke="black" points="1614.38,-515.35 1603.84,-514.23 1611.38,-521.67 1614.38,-515.35"/>
</g>
<!-- Core_hexists -->
<g id="node20" class="node">
<title>Core_hexists</title>
<g id="a_node20"><a xlink:href="Core.html#hexists" xlink:title="hexists">
<ellipse fill="#f070d1" stroke="black" cx="1932" cy="-662.85" rx="44.36" ry="18"/>
<ellipse fill="none" stroke="black" cx="1932" cy="-662.85" rx="48.38" ry="22"/>
<ellipse fill="none" stroke="black" cx="1932" cy="-662.85" rx="52.39" ry="26"/>
<text text-anchor="middle" x="1932" y="-659.15" font-family="Times,serif" font-size="14.00">hexists</text>
</a>
</g>
</g>
<!-- Core_hexists&#45;&gt;Core_merely -->
<g id="edge26" class="edge">
<title>Core_hexists&#45;&gt;Core_merely</title>
<path fill="none" stroke="black" d="M1893.72,-644.98C1836.26,-619.57 1724.36,-569.77 1630,-525.85 1624.89,-523.48 1619.52,-520.94 1614.24,-518.42"/>
<polygon fill="black" stroke="black" points="1615.46,-515.12 1604.93,-513.96 1612.43,-521.44 1615.46,-515.12"/>
</g>
<!-- Core_merely&#45;&gt;Core_Tr -->
<g id="edge27" class="edge">
<title>Core_merely&#45;&gt;Core_Tr</title>
<path fill="none" stroke="black" d="M1551.04,-485.81C1543,-481.94 1534.15,-477.71 1526,-473.85 1442.66,-434.42 1343.98,-388.74 1294.91,-366.1"/>
<polygon fill="black" stroke="black" points="1296.33,-362.9 1285.78,-361.89 1293.39,-369.25 1296.33,-362.9"/>
</g>
<!-- Core_istruncmap_mapinO_tr -->
<g id="node22" class="node">
<title>Core_istruncmap_mapinO_tr</title>
<g id="a_node22"><a xlink:href="Core.html#istruncmap_mapinO_tr" xlink:title="istruncmap_mapinO_tr">
<ellipse fill="#f070d1" stroke="black" cx="2328" cy="-499.85" rx="116.19" ry="18"/>
<ellipse fill="none" stroke="black" cx="2328" cy="-499.85" rx="120.18" ry="22"/>
<ellipse fill="none" stroke="black" cx="2328" cy="-499.85" rx="124.18" ry="26"/>
<text text-anchor="middle" x="2328" y="-496.15" font-family="Times,serif" font-size="14.00">istruncmap_mapinO_tr</text>
</a>
</g>
</g>
<!-- Core_istruncmap_mapinO_tr&#45;&gt;Core_Tr -->
<g id="edge28" class="edge">
<title>Core_istruncmap_mapinO_tr&#45;&gt;Core_Tr</title>
<path fill="none" stroke="black" d="M2239.1,-481.57C2224.07,-478.85 2208.61,-476.17 2194,-473.85 1847.86,-418.9 1426.39,-370.12 1300.92,-355.97"/>
<polygon fill="black" stroke="black" points="1301.04,-352.46 1290.71,-354.82 1300.26,-359.42 1301.04,-352.46"/>
</g>
<!-- Core_mapinO_tr_istruncmap -->
<g id="node23" class="node">
<title>Core_mapinO_tr_istruncmap</title>
<g id="a_node23"><a xlink:href="Core.html#mapinO_tr_istruncmap" xlink:title="mapinO_tr_istruncmap">
<ellipse fill="#f070d1" stroke="black" cx="2061" cy="-499.85" rx="116.19" ry="18"/>
<ellipse fill="none" stroke="black" cx="2061" cy="-499.85" rx="120.18" ry="22"/>
<ellipse fill="none" stroke="black" cx="2061" cy="-499.85" rx="124.18" ry="26"/>
<text text-anchor="middle" x="2061" y="-496.15" font-family="Times,serif" font-size="14.00">mapinO_tr_istruncmap</text>
</a>
</g>
</g>
<!-- Core_mapinO_tr_istruncmap&#45;&gt;Core_Tr -->
<g id="edge29" class="edge">
<title>Core_mapinO_tr_istruncmap&#45;&gt;Core_Tr</title>
<path fill="none" stroke="black" d="M1970.87,-481.86C1956.53,-479.17 1941.86,-476.43 1928,-473.85 1688.12,-429.27 1399.32,-376.53 1299.76,-358.37"/>
<polygon fill="black" stroke="black" points="1300.11,-354.88 1289.64,-356.53 1298.85,-361.76 1300.11,-354.88"/>
</g>
<!-- Core_istrunc_inO_tr&#45;&gt;Core_Tr -->
<g id="edge30" class="edge">
<title>Core_istrunc_inO_tr&#45;&gt;Core_Tr</title>
<path fill="none" stroke="black" d="M802.87,-485.32C815.54,-481.59 829.3,-477.56 842,-473.85 986.1,-431.83 1158.07,-382.31 1229.87,-361.66"/>
<polygon fill="black" stroke="black" points="1231.08,-364.96 1239.73,-358.83 1229.15,-358.23 1231.08,-364.96"/>
</g>
<!-- Core_inO_tr_istrunc&#45;&gt;Core_Tr -->
<g id="edge31" class="edge">
<title>Core_inO_tr_istrunc&#45;&gt;Core_Tr</title>
<path fill="none" stroke="black" d="M962.69,-483.68C1028.26,-454.99 1169.46,-393.22 1232.49,-365.64"/>
<polygon fill="black" stroke="black" points="1234.15,-368.73 1241.91,-361.52 1231.35,-362.32 1234.15,-368.73"/>
</g>
<!-- Core_is1functor_Tr -->
<g id="node26" class="node">
<title>Core_is1functor_Tr</title>
<g id="a_node26"><a xlink:href="Core.html#is1functor_Tr" xlink:title="is1functor_Tr">
<ellipse fill="#f070d1" stroke="black" cx="892" cy="-825.85" rx="72.61" ry="18"/>
<ellipse fill="none" stroke="black" cx="892" cy="-825.85" rx="76.6" ry="22"/>
<ellipse fill="none" stroke="black" cx="892" cy="-825.85" rx="80.59" ry="26"/>
<text text-anchor="middle" x="892" y="-822.15" font-family="Times,serif" font-size="14.00">is1functor_Tr</text>
</a>
</g>
</g>
<!-- Core_Trunc_functor_idmap -->
<g id="node29" class="node">
<title>Core_Trunc_functor_idmap</title>
<g id="a_node29"><a xlink:href="Core.html#Trunc_functor_idmap" xlink:title="Trunc_functor_idmap">
<ellipse fill="#f070d1" stroke="black" cx="125" cy="-662.85" rx="108.58" ry="18"/>
<text text-anchor="middle" x="125" y="-659.15" font-family="Times,serif" font-size="14.00">Trunc_functor_idmap</text>
</a>
</g>
</g>
<!-- Core_is1functor_Tr&#45;&gt;Core_Trunc_functor_idmap -->
<g id="edge32" class="edge">
<title>Core_is1functor_Tr&#45;&gt;Core_Trunc_functor_idmap</title>
<path fill="none" stroke="black" d="M825.66,-811C708.19,-786.46 455.9,-733.71 243,-688.85 228.77,-685.85 213.57,-682.64 198.98,-679.55"/>
<polygon fill="black" stroke="black" points="199.5,-676.09 188.99,-677.44 198.05,-682.93 199.5,-676.09"/>
</g>
<!-- Core_Trunc_functor_compose -->
<g id="node30" class="node">
<title>Core_Trunc_functor_compose</title>
<g id="a_node30"><a xlink:href="Core.html#Trunc_functor_compose" xlink:title="Trunc_functor_compose">
<ellipse fill="#f070d1" stroke="black" cx="892" cy="-662.85" rx="120.48" ry="18"/>
<text text-anchor="middle" x="892" y="-659.15" font-family="Times,serif" font-size="14.00">Trunc_functor_compose</text>
</a>
</g>
</g>
<!-- Core_is1functor_Tr&#45;&gt;Core_Trunc_functor_compose -->
<g id="edge33" class="edge">
<title>Core_is1functor_Tr&#45;&gt;Core_Trunc_functor_compose</title>
<path fill="none" stroke="black" d="M892,-799.7C892,-770.24 892,-721.61 892,-691.23"/>
<polygon fill="black" stroke="black" points="895.5,-690.93 892,-680.93 888.5,-690.93 895.5,-690.93"/>
</g>
<!-- Core_is0functor_Tr -->
<g id="node33" class="node">
<title>Core_is0functor_Tr</title>
<g id="a_node33"><a xlink:href="Core.html#is0functor_Tr" xlink:title="is0functor_Tr">
<ellipse fill="#f070d1" stroke="black" cx="1103" cy="-662.85" rx="72.59" ry="18"/>
<text text-anchor="middle" x="1103" y="-659.15" font-family="Times,serif" font-size="14.00">is0functor_Tr</text>
</a>
</g>
</g>
<!-- Core_is1functor_Tr&#45;&gt;Core_is0functor_Tr -->
<g id="edge34" class="edge">
<title>Core_is1functor_Tr&#45;&gt;Core_is0functor_Tr</title>
<path fill="none" stroke="black" d="M922.68,-801.44C963.12,-770.58 1033.79,-716.67 1073.59,-686.3"/>
<polygon fill="black" stroke="black" points="1075.76,-689.04 1081.59,-680.19 1071.51,-683.48 1075.76,-689.04"/>
</g>
<!-- Core_equiv_Trunc_prod_cmp -->
<g id="node27" class="node">
<title>Core_equiv_Trunc_prod_cmp</title>
<g id="a_node27"><a xlink:href="Core.html#equiv_Trunc_prod_cmp" xlink:title="equiv_Trunc_prod_cmp">
<ellipse fill="#f070d1" stroke="black" cx="1392" cy="-499.85" rx="116.98" ry="18"/>
<ellipse fill="none" stroke="black" cx="1392" cy="-499.85" rx="120.98" ry="22"/>
<ellipse fill="none" stroke="black" cx="1392" cy="-499.85" rx="124.98" ry="26"/>
<text text-anchor="middle" x="1392" y="-496.15" font-family="Times,serif" font-size="14.00">equiv_Trunc_prod_cmp</text>
</a>
</g>
</g>
<!-- Core_equiv_Trunc_prod_cmp&#45;&gt;Core_Tr -->
<g id="edge35" class="edge">
<title>Core_equiv_Trunc_prod_cmp&#45;&gt;Core_Tr</title>
<path fill="none" stroke="black" d="M1370.29,-473.92C1346.11,-446.15 1307.37,-401.66 1283.94,-374.75"/>
<polygon fill="black" stroke="black" points="1286.39,-372.24 1277.19,-367 1281.12,-376.84 1286.39,-372.24"/>
</g>
<!-- Core_isequiv_Trunc_functor -->
<g id="node28" class="node">
<title>Core_isequiv_Trunc_functor</title>
<g id="a_node28"><a xlink:href="Core.html#isequiv_Trunc_functor" xlink:title="isequiv_Trunc_functor">
<ellipse fill="#f070d1" stroke="black" cx="633" cy="-662.85" rx="113.17" ry="18"/>
<ellipse fill="none" stroke="black" cx="633" cy="-662.85" rx="117.18" ry="22"/>
<ellipse fill="none" stroke="black" cx="633" cy="-662.85" rx="121.18" ry="26"/>
<text text-anchor="middle" x="633" y="-659.15" font-family="Times,serif" font-size="14.00">isequiv_Trunc_functor</text>
</a>
</g>
</g>
<!-- Core_Trunc_functor -->
<g id="node34" class="node">
<title>Core_Trunc_functor</title>
<g id="a_node34"><a xlink:href="Core.html#Trunc_functor" xlink:title="Trunc_functor">
<ellipse fill="#f070d1" stroke="black" cx="247" cy="-499.85" rx="75.29" ry="18"/>
<text text-anchor="middle" x="247" y="-496.15" font-family="Times,serif" font-size="14.00">Trunc_functor</text>
</a>
</g>
</g>
<!-- Core_isequiv_Trunc_functor&#45;&gt;Core_Trunc_functor -->
<g id="edge36" class="edge">
<title>Core_isequiv_Trunc_functor&#45;&gt;Core_Trunc_functor</title>
<path fill="none" stroke="black" d="M579.33,-639.47C502.86,-607.57 363.91,-549.62 292.32,-519.76"/>
<polygon fill="black" stroke="black" points="293.26,-516.36 282.68,-515.74 290.56,-522.82 293.26,-516.36"/>
</g>
<!-- Core_Trunc_functor_idmap&#45;&gt;Core_Trunc_functor -->
<g id="edge37" class="edge">
<title>Core_Trunc_functor_idmap&#45;&gt;Core_Trunc_functor</title>
<path fill="none" stroke="black" d="M137.83,-644.93C159.28,-616.62 202.56,-559.5 227.7,-526.32"/>
<polygon fill="black" stroke="black" points="230.73,-528.12 233.98,-518.04 225.15,-523.89 230.73,-528.12"/>
</g>
<!-- Core_Trunc_functor_compose&#45;&gt;Core_Trunc_functor -->
<g id="edge38" class="edge">
<title>Core_Trunc_functor_compose&#45;&gt;Core_Trunc_functor</title>
<path fill="none" stroke="black" d="M828.21,-647.51C723.84,-623.8 510.24,-574.22 331,-525.85 321.3,-523.24 311.03,-520.31 301.11,-517.4"/>
<polygon fill="black" stroke="black" points="301.93,-513.99 291.34,-514.52 299.94,-520.71 301.93,-513.99"/>
</g>
<!-- Core_Trunc_functor_equiv -->
<g id="node31" class="node">
<title>Core_Trunc_functor_equiv</title>
<g id="a_node31"><a xlink:href="Core.html#Trunc_functor_equiv" xlink:title="Trunc_functor_equiv">
<ellipse fill="#f070d1" stroke="black" cx="1136" cy="-499.85" rx="105.1" ry="18"/>
<ellipse fill="none" stroke="black" cx="1136" cy="-499.85" rx="109.09" ry="22"/>
<ellipse fill="none" stroke="black" cx="1136" cy="-499.85" rx="113.08" ry="26"/>
<text text-anchor="middle" x="1136" y="-496.15" font-family="Times,serif" font-size="14.00">Trunc_functor_equiv</text>
</a>
</g>
</g>
<!-- Core_Trunc_functor_equiv&#45;&gt;Core_Tr -->
<g id="edge39" class="edge">
<title>Core_Trunc_functor_equiv&#45;&gt;Core_Tr</title>
<path fill="none" stroke="black" d="M1157.42,-474.25C1181.68,-446.4 1220.85,-401.41 1244.35,-374.42"/>
<polygon fill="black" stroke="black" points="1247.17,-376.51 1251.1,-366.67 1241.89,-371.91 1247.17,-376.51"/>
</g>
<!-- Core_Trunc_functor_isequiv -->
<g id="node32" class="node">
<title>Core_Trunc_functor_isequiv</title>
<g id="a_node32"><a xlink:href="Core.html#Trunc_functor_isequiv" xlink:title="Trunc_functor_isequiv">
<ellipse fill="#f070d1" stroke="black" cx="373" cy="-662.85" rx="113.17" ry="18"/>
<ellipse fill="none" stroke="black" cx="373" cy="-662.85" rx="117.18" ry="22"/>
<ellipse fill="none" stroke="black" cx="373" cy="-662.85" rx="121.18" ry="26"/>
<text text-anchor="middle" x="373" y="-659.15" font-family="Times,serif" font-size="14.00">Trunc_functor_isequiv</text>
</a>
</g>
</g>
<!-- Core_Trunc_functor_isequiv&#45;&gt;Core_Trunc_functor -->
<g id="edge40" class="edge">
<title>Core_Trunc_functor_isequiv&#45;&gt;Core_Trunc_functor</title>
<path fill="none" stroke="black" d="M353.59,-637.05C329.99,-606.9 290.39,-556.29 266.67,-525.99"/>
<polygon fill="black" stroke="black" points="269.35,-523.73 260.43,-518.01 263.84,-528.05 269.35,-523.73"/>
</g>
<!-- Core_is0functor_Tr&#45;&gt;Core_Trunc_functor -->
<g id="edge41" class="edge">
<title>Core_is0functor_Tr&#45;&gt;Core_Trunc_functor</title>
<path fill="none" stroke="black" d="M1061.58,-648.03C1048.68,-644.04 1034.34,-639.94 1021,-636.85 718.41,-566.73 633.82,-594.97 331,-525.85 320.77,-523.52 309.96,-520.63 299.62,-517.65"/>
<polygon fill="black" stroke="black" points="300.46,-514.25 289.88,-514.78 298.48,-520.97 300.46,-514.25"/>
</g>
<!-- Core_Trunc_functor&#45;&gt;Core_Tr -->
<g id="edge42" class="edge">
<title>Core_Trunc_functor&#45;&gt;Core_Tr</title>
<path fill="none" stroke="black" d="M289.39,-484.81C302.61,-480.82 317.31,-476.77 331,-473.85 674.89,-400.68 1100.01,-364.31 1226.71,-354.58"/>
<polygon fill="black" stroke="black" points="1227.31,-358.05 1237.02,-353.8 1226.78,-351.07 1227.31,-358.05"/>
</g>
<!-- Core_untrunc_istrunc -->
<g id="node35" class="node">
<title>Core_untrunc_istrunc</title>
<g id="a_node35"><a xlink:href="Core.html#untrunc_istrunc" xlink:title="untrunc_istrunc">
<ellipse fill="#f070d1" stroke="black" cx="2133" cy="-825.85" rx="84.49" ry="18"/>
<ellipse fill="none" stroke="black" cx="2133" cy="-825.85" rx="88.49" ry="22"/>
<ellipse fill="none" stroke="black" cx="2133" cy="-825.85" rx="92.49" ry="26"/>
<text text-anchor="middle" x="2133" y="-822.15" font-family="Times,serif" font-size="14.00">untrunc_istrunc</text>
</a>
</g>
</g>
<!-- Core_isequiv_tr -->
<g id="node37" class="node">
<title>Core_isequiv_tr</title>
<g id="a_node37"><a xlink:href="Core.html#isequiv_tr" xlink:title="isequiv_tr">
<ellipse fill="#f070d1" stroke="black" cx="2395" cy="-662.85" rx="56.59" ry="18"/>
<text text-anchor="middle" x="2395" y="-659.15" font-family="Times,serif" font-size="14.00">isequiv_tr</text>
</a>
</g>
</g>
<!-- Core_untrunc_istrunc&#45;&gt;Core_isequiv_tr -->
<g id="edge43" class="edge">
<title>Core_untrunc_istrunc&#45;&gt;Core_isequiv_tr</title>
<path fill="none" stroke="black" d="M2170.26,-801.96C2221.33,-770.57 2312.32,-714.66 2361.4,-684.5"/>
<polygon fill="black" stroke="black" points="2363.37,-687.4 2370.06,-679.18 2359.7,-681.44 2363.37,-687.4"/>
</g>
<!-- Core_equiv_tr&#45;&gt;Core_isequiv_tr -->
<g id="edge44" class="edge">
<title>Core_equiv_tr&#45;&gt;Core_isequiv_tr</title>
<path fill="none" stroke="black" d="M2302.63,-808.23C2320.68,-780.03 2357.39,-722.64 2378.7,-689.34"/>
<polygon fill="black" stroke="black" points="2381.83,-690.94 2384.27,-680.63 2375.93,-687.17 2381.83,-690.94"/>
</g>
<!-- Core_trunc_iff_isequiv_truncation -->
<g id="node38" class="node">
<title>Core_trunc_iff_isequiv_truncation</title>
<g id="a_node38"><a xlink:href="Core.html#trunc_iff_isequiv_truncation" xlink:title="trunc_iff_isequiv_truncation">
<ellipse fill="#f070d1" stroke="black" cx="1779" cy="-499.85" rx="139.98" ry="18"/>
<text text-anchor="middle" x="1779" y="-496.15" font-family="Times,serif" font-size="14.00">trunc_iff_isequiv_truncation</text>
</a>
</g>
</g>
<!-- Core_isequiv_tr&#45;&gt;Core_trunc_iff_isequiv_truncation -->
<g id="edge45" class="edge">
<title>Core_isequiv_tr&#45;&gt;Core_trunc_iff_isequiv_truncation</title>
<path fill="none" stroke="black" d="M2361.36,-648.22C2351.06,-644.29 2339.64,-640.17 2329,-636.85 2164.41,-585.53 1967.37,-540.73 1859.47,-517.58"/>
<polygon fill="black" stroke="black" points="1860.14,-514.15 1849.63,-515.48 1858.68,-520.99 1860.14,-514.15"/>
</g>
<!-- Core_trunc_iff_isequiv_truncation&#45;&gt;Core_Tr -->
<g id="edge46" class="edge">
<title>Core_trunc_iff_isequiv_truncation&#45;&gt;Core_Tr</title>
<path fill="none" stroke="black" d="M1724.37,-483.26C1617.92,-452.88 1385.49,-386.53 1298.12,-361.59"/>
<polygon fill="black" stroke="black" points="1299.01,-358.21 1288.44,-358.83 1297.09,-364.94 1299.01,-358.21"/>
</g>
<!-- Core_Tr&#45;&gt;Core_Trunc_Trunc_ind -->
<g id="edge47" class="edge">
<title>Core_Tr&#45;&gt;Core_Trunc_Trunc_ind</title>
<path fill="none" stroke="black" d="M1280.71,-336.47C1310.04,-312.97 1371.08,-264.07 1406.97,-235.31"/>
<polygon fill="black" stroke="black" points="1409.47,-237.79 1415.08,-228.81 1405.09,-232.33 1409.47,-237.79"/>
</g>
<!-- Core_Tr&#45;&gt;Core_Trunc_istrunc_truncation -->
<g id="edge48" class="edge">
<title>Core_Tr&#45;&gt;Core_Trunc_istrunc_truncation</title>
<path fill="none" stroke="black" d="M1264,-332.78C1264,-309.6 1264,-267.92 1264,-240.31"/>
<polygon fill="black" stroke="black" points="1267.5,-240.14 1264,-230.14 1260.5,-240.14 1267.5,-240.14"/>
</g>
<!-- Core_Trunc_rec&#45;&gt;Core_Trunc_Trunc_ind -->
<g id="edge49" class="edge">
<title>Core_Trunc_rec&#45;&gt;Core_Trunc_Trunc_ind</title>
<path fill="none" stroke="black" d="M2424.83,-808C2455.34,-753.2 2541.73,-577.69 2461,-473.85 2340.14,-318.41 1702.9,-240.34 1498.3,-219.01"/>
<polygon fill="black" stroke="black" points="1498.62,-215.52 1488.31,-217.98 1497.9,-222.49 1498.62,-215.52"/>
</g>
</g>
</svg>
