<?xml version="1.0" encoding="UTF-8" standalone="no"?>
<!DOCTYPE svg PUBLIC "-//W3C//DTD SVG 1.1//EN"
 "http://www.w3.org/Graphics/SVG/1.1/DTD/svg11.dtd">
<!-- Generated by graphviz version 2.43.0 (0)
 -->
<!-- Title: HoTT_Algebra_Groups_GrpPullback Pages: 1 -->
<svg width="1408pt" height="708pt"
 viewBox="0.00 0.00 1408.00 708.00" xmlns="http://www.w3.org/2000/svg" xmlns:xlink="http://www.w3.org/1999/xlink">
<g id="graph0" class="graph" transform="scale(1 1) rotate(0) translate(4 704)">
<title>HoTT_Algebra_Groups_GrpPullback</title>
<polygon fill="white" stroke="transparent" points="-4,4 -4,-704 1404,-704 1404,4 -4,4"/>
<g id="clust1" class="cluster">
<title>cluster_GrpPullback</title>
<polygon fill="#ffffc3" stroke="black" points="8,-8.2 8,-691.8 1392,-691.8 1392,-8.2 8,-8.2"/>
<text text-anchor="middle" x="60" y="-676.6" font-family="Times,serif" font-size="14.00">GrpPullback</text>
</g>
<!-- GrpPullback_isequiv_grp_pullback_corec -->
<g id="node1" class="node">
<title>GrpPullback_isequiv_grp_pullback_corec</title>
<g id="a_node1"><a xlink:href="GrpPullback.html#isequiv_grp_pullback_corec" xlink:title="isequiv_grp_pullback_corec">
<ellipse fill="#f070d1" stroke="black" cx="978" cy="-633.2" rx="137.27" ry="18"/>
<ellipse fill="none" stroke="black" cx="978" cy="-633.2" rx="141.27" ry="22"/>
<ellipse fill="none" stroke="black" cx="978" cy="-633.2" rx="145.28" ry="26"/>
<text text-anchor="middle" x="978" y="-629.5" font-family="Times,serif" font-size="14.00">isequiv_grp_pullback_corec</text>
</a>
</g>
</g>
<!-- GrpPullback_grp_pullback_corec_pr2 -->
<g id="node2" class="node">
<title>GrpPullback_grp_pullback_corec_pr2</title>
<g id="a_node2"><a xlink:href="GrpPullback.html#grp_pullback_corec_pr2" xlink:title="grp_pullback_corec_pr2">
<ellipse fill="#f070d1" stroke="black" cx="738" cy="-551.2" rx="120.48" ry="18"/>
<text text-anchor="middle" x="738" y="-547.5" font-family="Times,serif" font-size="14.00">grp_pullback_corec_pr2</text>
</a>
</g>
</g>
<!-- GrpPullback_isequiv_grp_pullback_corec&#45;&gt;GrpPullback_grp_pullback_corec_pr2 -->
<g id="edge1" class="edge">
<title>GrpPullback_isequiv_grp_pullback_corec&#45;&gt;GrpPullback_grp_pullback_corec_pr2</title>
<path fill="none" stroke="black" d="M911.47,-610.02C874.69,-597.76 829.5,-582.7 794.46,-571.02"/>
<polygon fill="black" stroke="black" points="795.46,-567.66 784.87,-567.82 793.25,-574.3 795.46,-567.66"/>
</g>
<!-- GrpPullback_grp_pullback_corec_pr1 -->
<g id="node3" class="node">
<title>GrpPullback_grp_pullback_corec_pr1</title>
<g id="a_node3"><a xlink:href="GrpPullback.html#grp_pullback_corec_pr1" xlink:title="grp_pullback_corec_pr1">
<ellipse fill="#f070d1" stroke="black" cx="1218" cy="-551.2" rx="120.48" ry="18"/>
<text text-anchor="middle" x="1218" y="-547.5" font-family="Times,serif" font-size="14.00">grp_pullback_corec_pr1</text>
</a>
</g>
</g>
<!-- GrpPullback_isequiv_grp_pullback_corec&#45;&gt;GrpPullback_grp_pullback_corec_pr1 -->
<g id="edge2" class="edge">
<title>GrpPullback_isequiv_grp_pullback_corec&#45;&gt;GrpPullback_grp_pullback_corec_pr1</title>
<path fill="none" stroke="black" d="M1044.53,-610.02C1081.31,-597.76 1126.5,-582.7 1161.54,-571.02"/>
<polygon fill="black" stroke="black" points="1162.75,-574.3 1171.13,-567.82 1160.54,-567.66 1162.75,-574.3"/>
</g>
<!-- GrpPullback_grp_pullback_corec_ -->
<g id="node4" class="node">
<title>GrpPullback_grp_pullback_corec_</title>
<g id="a_node4"><a xlink:href="GrpPullback.html#grp_pullback_corec'" xlink:title="grp_pullback_corec&#39;">
<ellipse fill="#f070d1" stroke="black" cx="978" cy="-551.2" rx="102.08" ry="18"/>
<text text-anchor="middle" x="978" y="-547.5" font-family="Times,serif" font-size="14.00">grp_pullback_corec&#39;</text>
</a>
</g>
</g>
<!-- GrpPullback_isequiv_grp_pullback_corec&#45;&gt;GrpPullback_grp_pullback_corec_ -->
<g id="edge3" class="edge">
<title>GrpPullback_isequiv_grp_pullback_corec&#45;&gt;GrpPullback_grp_pullback_corec_</title>
<path fill="none" stroke="black" d="M978,-606.89C978,-598.16 978,-588.36 978,-579.49"/>
<polygon fill="black" stroke="black" points="981.5,-579.26 978,-569.26 974.5,-579.26 981.5,-579.26"/>
</g>
<!-- GrpPullback_grp_pullback_corec -->
<g id="node5" class="node">
<title>GrpPullback_grp_pullback_corec</title>
<g id="a_node5"><a xlink:href="GrpPullback.html#grp_pullback_corec" xlink:title="grp_pullback_corec">
<ellipse fill="#f070d1" stroke="black" cx="978" cy="-477.2" rx="99.38" ry="18"/>
<text text-anchor="middle" x="978" y="-473.5" font-family="Times,serif" font-size="14.00">grp_pullback_corec</text>
</a>
</g>
</g>
<!-- GrpPullback_grp_pullback_corec_pr2&#45;&gt;GrpPullback_grp_pullback_corec -->
<g id="edge4" class="edge">
<title>GrpPullback_grp_pullback_corec_pr2&#45;&gt;GrpPullback_grp_pullback_corec</title>
<path fill="none" stroke="black" d="M789.19,-534.84C827.35,-523.4 879.52,-507.74 919.35,-495.79"/>
<polygon fill="black" stroke="black" points="920.36,-499.14 928.94,-492.92 918.35,-492.44 920.36,-499.14"/>
</g>
<!-- GrpPullback_grp_pullback_pr2 -->
<g id="node6" class="node">
<title>GrpPullback_grp_pullback_pr2</title>
<g id="a_node6"><a xlink:href="GrpPullback.html#grp_pullback_pr2" xlink:title="grp_pullback_pr2">
<ellipse fill="#f070d1" stroke="black" cx="754" cy="-477.2" rx="90.98" ry="18"/>
<text text-anchor="middle" x="754" y="-473.5" font-family="Times,serif" font-size="14.00">grp_pullback_pr2</text>
</a>
</g>
</g>
<!-- GrpPullback_grp_pullback_corec_pr2&#45;&gt;GrpPullback_grp_pullback_pr2 -->
<g id="edge5" class="edge">
<title>GrpPullback_grp_pullback_corec_pr2&#45;&gt;GrpPullback_grp_pullback_pr2</title>
<path fill="none" stroke="black" d="M741.79,-533.14C743.62,-524.92 745.85,-514.86 747.91,-505.61"/>
<polygon fill="black" stroke="black" points="751.37,-506.16 750.12,-495.64 744.54,-504.64 751.37,-506.16"/>
</g>
<!-- GrpPullback_grp_pullback_corec_pr1&#45;&gt;GrpPullback_grp_pullback_corec -->
<g id="edge6" class="edge">
<title>GrpPullback_grp_pullback_corec_pr1&#45;&gt;GrpPullback_grp_pullback_corec</title>
<path fill="none" stroke="black" d="M1166.81,-534.84C1128.65,-523.4 1076.48,-507.74 1036.65,-495.79"/>
<polygon fill="black" stroke="black" points="1037.65,-492.44 1027.06,-492.92 1035.64,-499.14 1037.65,-492.44"/>
</g>
<!-- GrpPullback_grp_pullback_pr1 -->
<g id="node7" class="node">
<title>GrpPullback_grp_pullback_pr1</title>
<g id="a_node7"><a xlink:href="GrpPullback.html#grp_pullback_pr1" xlink:title="grp_pullback_pr1">
<ellipse fill="#f070d1" stroke="black" cx="1202" cy="-477.2" rx="90.98" ry="18"/>
<text text-anchor="middle" x="1202" y="-473.5" font-family="Times,serif" font-size="14.00">grp_pullback_pr1</text>
</a>
</g>
</g>
<!-- GrpPullback_grp_pullback_corec_pr1&#45;&gt;GrpPullback_grp_pullback_pr1 -->
<g id="edge7" class="edge">
<title>GrpPullback_grp_pullback_corec_pr1&#45;&gt;GrpPullback_grp_pullback_pr1</title>
<path fill="none" stroke="black" d="M1214.21,-533.14C1212.38,-524.92 1210.15,-514.86 1208.09,-505.61"/>
<polygon fill="black" stroke="black" points="1211.46,-504.64 1205.88,-495.64 1204.63,-506.16 1211.46,-504.64"/>
</g>
<!-- GrpPullback_grp_pullback_corec_&#45;&gt;GrpPullback_grp_pullback_corec -->
<g id="edge8" class="edge">
<title>GrpPullback_grp_pullback_corec_&#45;&gt;GrpPullback_grp_pullback_corec</title>
<path fill="none" stroke="black" d="M978,-533.14C978,-525.01 978,-515.08 978,-505.9"/>
<polygon fill="black" stroke="black" points="981.5,-505.64 978,-495.64 974.5,-505.64 981.5,-505.64"/>
</g>
<!-- GrpPullback_grp_pullback -->
<g id="node8" class="node">
<title>GrpPullback_grp_pullback</title>
<g id="a_node8"><a xlink:href="GrpPullback.html#grp_pullback" xlink:title="grp_pullback">
<ellipse fill="#f070d1" stroke="black" cx="978" cy="-404.2" rx="70.39" ry="18"/>
<text text-anchor="middle" x="978" y="-400.5" font-family="Times,serif" font-size="14.00">grp_pullback</text>
</a>
</g>
</g>
<!-- GrpPullback_grp_pullback_corec&#45;&gt;GrpPullback_grp_pullback -->
<g id="edge9" class="edge">
<title>GrpPullback_grp_pullback_corec&#45;&gt;GrpPullback_grp_pullback</title>
<path fill="none" stroke="black" d="M978,-459.01C978,-450.99 978,-441.25 978,-432.27"/>
<polygon fill="black" stroke="black" points="981.5,-432.23 978,-422.23 974.5,-432.23 981.5,-432.23"/>
</g>
<!-- GrpPullback_grp_pullback_pr2&#45;&gt;GrpPullback_grp_pullback -->
<g id="edge10" class="edge">
<title>GrpPullback_grp_pullback_pr2&#45;&gt;GrpPullback_grp_pullback</title>
<path fill="none" stroke="black" d="M800.14,-461.57C836.7,-449.98 887.79,-433.79 925.84,-421.73"/>
<polygon fill="black" stroke="black" points="927.23,-424.96 935.7,-418.61 925.11,-418.29 927.23,-424.96"/>
</g>
<!-- GrpPullback_grp_pullback_pr1&#45;&gt;GrpPullback_grp_pullback -->
<g id="edge11" class="edge">
<title>GrpPullback_grp_pullback_pr1&#45;&gt;GrpPullback_grp_pullback</title>
<path fill="none" stroke="black" d="M1155.86,-461.57C1119.3,-449.98 1068.21,-433.79 1030.16,-421.73"/>
<polygon fill="black" stroke="black" points="1030.89,-418.29 1020.3,-418.61 1028.77,-424.96 1030.89,-418.29"/>
</g>
<!-- GrpPullback_isgroup_grp_pullback -->
<g id="node9" class="node">
<title>GrpPullback_isgroup_grp_pullback</title>
<g id="a_node9"><a xlink:href="GrpPullback.html#isgroup_grp_pullback" xlink:title="isgroup_grp_pullback">
<ellipse fill="#f070d1" stroke="black" cx="978" cy="-330.2" rx="109.68" ry="18"/>
<text text-anchor="middle" x="978" y="-326.5" font-family="Times,serif" font-size="14.00">isgroup_grp_pullback</text>
</a>
</g>
</g>
<!-- GrpPullback_grp_pullback&#45;&gt;GrpPullback_isgroup_grp_pullback -->
<g id="edge12" class="edge">
<title>GrpPullback_grp_pullback&#45;&gt;GrpPullback_isgroup_grp_pullback</title>
<path fill="none" stroke="black" d="M978,-386.14C978,-378.01 978,-368.08 978,-358.9"/>
<polygon fill="black" stroke="black" points="981.5,-358.64 978,-348.64 974.5,-358.64 981.5,-358.64"/>
</g>
<!-- GrpPullback_grp_pullback_rightinverse -->
<g id="node10" class="node">
<title>GrpPullback_grp_pullback_rightinverse</title>
<g id="a_node10"><a xlink:href="GrpPullback.html#grp_pullback_rightinverse" xlink:title="grp_pullback_rightinverse">
<ellipse fill="#f070d1" stroke="black" cx="1252" cy="-182.2" rx="131.88" ry="18"/>
<text text-anchor="middle" x="1252" y="-178.5" font-family="Times,serif" font-size="14.00">grp_pullback_rightinverse</text>
</a>
</g>
</g>
<!-- GrpPullback_isgroup_grp_pullback&#45;&gt;GrpPullback_grp_pullback_rightinverse -->
<g id="edge13" class="edge">
<title>GrpPullback_isgroup_grp_pullback&#45;&gt;GrpPullback_grp_pullback_rightinverse</title>
<path fill="none" stroke="black" d="M1008.63,-312.88C1058.27,-286.43 1156.28,-234.21 1211.57,-204.74"/>
<polygon fill="black" stroke="black" points="1213.54,-207.66 1220.72,-199.86 1210.25,-201.48 1213.54,-207.66"/>
</g>
<!-- GrpPullback_grp_pullback_leftinverse -->
<g id="node11" class="node">
<title>GrpPullback_grp_pullback_leftinverse</title>
<g id="a_node11"><a xlink:href="GrpPullback.html#grp_pullback_leftinverse" xlink:title="grp_pullback_leftinverse">
<ellipse fill="#f070d1" stroke="black" cx="978" cy="-182.2" rx="124.28" ry="18"/>
<text text-anchor="middle" x="978" y="-178.5" font-family="Times,serif" font-size="14.00">grp_pullback_leftinverse</text>
</a>
</g>
</g>
<!-- GrpPullback_isgroup_grp_pullback&#45;&gt;GrpPullback_grp_pullback_leftinverse -->
<g id="edge14" class="edge">
<title>GrpPullback_isgroup_grp_pullback&#45;&gt;GrpPullback_grp_pullback_leftinverse</title>
<path fill="none" stroke="black" d="M978,-312.17C978,-287.24 978,-240.57 978,-210.74"/>
<polygon fill="black" stroke="black" points="981.5,-210.58 978,-200.58 974.5,-210.58 981.5,-210.58"/>
</g>
<!-- GrpPullback_ismonoid_grp_pullback -->
<g id="node13" class="node">
<title>GrpPullback_ismonoid_grp_pullback</title>
<g id="a_node13"><a xlink:href="GrpPullback.html#ismonoid_grp_pullback" xlink:title="ismonoid_grp_pullback">
<ellipse fill="#f070d1" stroke="black" cx="571" cy="-256.2" rx="116.18" ry="18"/>
<text text-anchor="middle" x="571" y="-252.5" font-family="Times,serif" font-size="14.00">ismonoid_grp_pullback</text>
</a>
</g>
</g>
<!-- GrpPullback_isgroup_grp_pullback&#45;&gt;GrpPullback_ismonoid_grp_pullback -->
<g id="edge15" class="edge">
<title>GrpPullback_isgroup_grp_pullback&#45;&gt;GrpPullback_ismonoid_grp_pullback</title>
<path fill="none" stroke="black" d="M906.17,-316.49C835.88,-304.06 728.86,-285.13 654.74,-272.01"/>
<polygon fill="black" stroke="black" points="654.97,-268.5 644.51,-270.2 653.75,-275.39 654.97,-268.5"/>
</g>
<!-- GrpPullback_grp_pullback_negate -->
<g id="node12" class="node">
<title>GrpPullback_grp_pullback_negate</title>
<g id="a_node12"><a xlink:href="GrpPullback.html#grp_pullback_negate" xlink:title="grp_pullback_negate">
<ellipse fill="#f070d1" stroke="black" cx="1115" cy="-108.2" rx="106.68" ry="18"/>
<text text-anchor="middle" x="1115" y="-104.5" font-family="Times,serif" font-size="14.00">grp_pullback_negate</text>
</a>
</g>
</g>
<!-- GrpPullback_grp_pullback_rightinverse&#45;&gt;GrpPullback_grp_pullback_negate -->
<g id="edge16" class="edge">
<title>GrpPullback_grp_pullback_rightinverse&#45;&gt;GrpPullback_grp_pullback_negate</title>
<path fill="none" stroke="black" d="M1220.57,-164.68C1201.16,-154.48 1176.08,-141.3 1155.23,-130.34"/>
<polygon fill="black" stroke="black" points="1156.76,-127.19 1146.28,-125.64 1153.51,-133.39 1156.76,-127.19"/>
</g>
<!-- GrpPullback_grp_pullback_mon_unit -->
<g id="node16" class="node">
<title>GrpPullback_grp_pullback_mon_unit</title>
<g id="a_node16"><a xlink:href="GrpPullback.html#grp_pullback_mon_unit" xlink:title="grp_pullback_mon_unit">
<ellipse fill="#f070d1" stroke="black" cx="841" cy="-108.2" rx="117.78" ry="18"/>
<text text-anchor="middle" x="841" y="-104.5" font-family="Times,serif" font-size="14.00">grp_pullback_mon_unit</text>
</a>
</g>
</g>
<!-- GrpPullback_grp_pullback_rightinverse&#45;&gt;GrpPullback_grp_pullback_mon_unit -->
<g id="edge17" class="edge">
<title>GrpPullback_grp_pullback_rightinverse&#45;&gt;GrpPullback_grp_pullback_mon_unit</title>
<path fill="none" stroke="black" d="M1174.21,-167.57C1103.2,-155.13 998.47,-136.79 925.44,-123.99"/>
<polygon fill="black" stroke="black" points="925.81,-120.5 915.36,-122.22 924.6,-127.4 925.81,-120.5"/>
</g>
<!-- GrpPullback_grp_pullback_sgop -->
<g id="node19" class="node">
<title>GrpPullback_grp_pullback_sgop</title>
<g id="a_node19"><a xlink:href="GrpPullback.html#grp_pullback_sgop" xlink:title="grp_pullback_sgop">
<ellipse fill="#f070d1" stroke="black" cx="704" cy="-35.2" rx="96.68" ry="18"/>
<text text-anchor="middle" x="704" y="-31.5" font-family="Times,serif" font-size="14.00">grp_pullback_sgop</text>
</a>
</g>
</g>
<!-- GrpPullback_grp_pullback_rightinverse&#45;&gt;GrpPullback_grp_pullback_sgop -->
<g id="edge18" class="edge">
<title>GrpPullback_grp_pullback_rightinverse&#45;&gt;GrpPullback_grp_pullback_sgop</title>
<path fill="none" stroke="black" d="M1253.45,-164.2C1254.2,-143.39 1251.91,-108.65 1231,-90.2 1199.98,-62.82 952.22,-47.25 807.72,-40.42"/>
<polygon fill="black" stroke="black" points="807.65,-36.91 797.5,-39.94 807.33,-43.9 807.65,-36.91"/>
</g>
<!-- GrpPullback_grp_pullback_leftinverse&#45;&gt;GrpPullback_grp_pullback_negate -->
<g id="edge19" class="edge">
<title>GrpPullback_grp_pullback_leftinverse&#45;&gt;GrpPullback_grp_pullback_negate</title>
<path fill="none" stroke="black" d="M1009.43,-164.68C1028.84,-154.48 1053.92,-141.3 1074.77,-130.34"/>
<polygon fill="black" stroke="black" points="1076.49,-133.39 1083.72,-125.64 1073.24,-127.19 1076.49,-133.39"/>
</g>
<!-- GrpPullback_grp_pullback_leftinverse&#45;&gt;GrpPullback_grp_pullback_mon_unit -->
<g id="edge20" class="edge">
<title>GrpPullback_grp_pullback_leftinverse&#45;&gt;GrpPullback_grp_pullback_mon_unit</title>
<path fill="none" stroke="black" d="M946.57,-164.68C927.16,-154.48 902.08,-141.3 881.23,-130.34"/>
<polygon fill="black" stroke="black" points="882.76,-127.19 872.28,-125.64 879.51,-133.39 882.76,-127.19"/>
</g>
<!-- GrpPullback_grp_pullback_leftinverse&#45;&gt;GrpPullback_grp_pullback_sgop -->
<g id="edge21" class="edge">
<title>GrpPullback_grp_pullback_leftinverse&#45;&gt;GrpPullback_grp_pullback_sgop</title>
<path fill="none" stroke="black" d="M981.54,-164.05C984.64,-143.74 986.2,-110.17 968,-90.2 945.63,-65.66 866.88,-51.73 801.17,-44.19"/>
<polygon fill="black" stroke="black" points="801.49,-40.7 791.16,-43.08 800.71,-47.66 801.49,-40.7"/>
</g>
<!-- GrpPullback_grp_pullback_rightidentity -->
<g id="node14" class="node">
<title>GrpPullback_grp_pullback_rightidentity</title>
<g id="a_node14"><a xlink:href="GrpPullback.html#grp_pullback_rightidentity" xlink:title="grp_pullback_rightidentity">
<ellipse fill="#f070d1" stroke="black" cx="432" cy="-182.2" rx="133.78" ry="18"/>
<text text-anchor="middle" x="432" y="-178.5" font-family="Times,serif" font-size="14.00">grp_pullback_rightidentity</text>
</a>
</g>
</g>
<!-- GrpPullback_ismonoid_grp_pullback&#45;&gt;GrpPullback_grp_pullback_rightidentity -->
<g id="edge22" class="edge">
<title>GrpPullback_ismonoid_grp_pullback&#45;&gt;GrpPullback_grp_pullback_rightidentity</title>
<path fill="none" stroke="black" d="M539.46,-238.86C519.78,-228.67 494.25,-215.44 473.01,-204.44"/>
<polygon fill="black" stroke="black" points="474.39,-201.21 463.9,-199.72 471.17,-207.43 474.39,-201.21"/>
</g>
<!-- GrpPullback_grp_pullback_leftidentity -->
<g id="node15" class="node">
<title>GrpPullback_grp_pullback_leftidentity</title>
<g id="a_node15"><a xlink:href="GrpPullback.html#grp_pullback_leftidentity" xlink:title="grp_pullback_leftidentity">
<ellipse fill="#f070d1" stroke="black" cx="710" cy="-182.2" rx="126.18" ry="18"/>
<text text-anchor="middle" x="710" y="-178.5" font-family="Times,serif" font-size="14.00">grp_pullback_leftidentity</text>
</a>
</g>
</g>
<!-- GrpPullback_ismonoid_grp_pullback&#45;&gt;GrpPullback_grp_pullback_leftidentity -->
<g id="edge23" class="edge">
<title>GrpPullback_ismonoid_grp_pullback&#45;&gt;GrpPullback_grp_pullback_leftidentity</title>
<path fill="none" stroke="black" d="M602.54,-238.86C622.22,-228.67 647.75,-215.44 668.99,-204.44"/>
<polygon fill="black" stroke="black" points="670.83,-207.43 678.1,-199.72 667.61,-201.21 670.83,-207.43"/>
</g>
<!-- GrpPullback_grp_pullback_issemigroup -->
<g id="node17" class="node">
<title>GrpPullback_grp_pullback_issemigroup</title>
<g id="a_node17"><a xlink:href="GrpPullback.html#grp_pullback_issemigroup" xlink:title="grp_pullback_issemigroup">
<ellipse fill="#f070d1" stroke="black" cx="148" cy="-182.2" rx="131.88" ry="18"/>
<text text-anchor="middle" x="148" y="-178.5" font-family="Times,serif" font-size="14.00">grp_pullback_issemigroup</text>
</a>
</g>
</g>
<!-- GrpPullback_ismonoid_grp_pullback&#45;&gt;GrpPullback_grp_pullback_issemigroup -->
<g id="edge24" class="edge">
<title>GrpPullback_ismonoid_grp_pullback&#45;&gt;GrpPullback_grp_pullback_issemigroup</title>
<path fill="none" stroke="black" d="M495.86,-242.41C423.5,-230.09 314,-211.45 237.24,-198.39"/>
<polygon fill="black" stroke="black" points="237.55,-194.89 227.1,-196.66 236.37,-201.79 237.55,-194.89"/>
</g>
<!-- GrpPullback_grp_pullback_rightidentity&#45;&gt;GrpPullback_grp_pullback_mon_unit -->
<g id="edge25" class="edge">
<title>GrpPullback_grp_pullback_rightidentity&#45;&gt;GrpPullback_grp_pullback_mon_unit</title>
<path fill="none" stroke="black" d="M509.89,-167.49C580.51,-155.06 684.33,-136.78 756.83,-124.02"/>
<polygon fill="black" stroke="black" points="757.6,-127.43 766.84,-122.25 756.39,-120.54 757.6,-127.43"/>
</g>
<!-- GrpPullback_grp_pullback_rightidentity&#45;&gt;GrpPullback_grp_pullback_sgop -->
<g id="edge26" class="edge">
<title>GrpPullback_grp_pullback_rightidentity&#45;&gt;GrpPullback_grp_pullback_sgop</title>
<path fill="none" stroke="black" d="M463.2,-164.57C512.93,-138.06 610.1,-86.26 664.57,-57.22"/>
<polygon fill="black" stroke="black" points="666.4,-60.21 673.58,-52.42 663.11,-54.03 666.4,-60.21"/>
</g>
<!-- GrpPullback_grp_pullback_leftidentity&#45;&gt;GrpPullback_grp_pullback_mon_unit -->
<g id="edge27" class="edge">
<title>GrpPullback_grp_pullback_leftidentity&#45;&gt;GrpPullback_grp_pullback_mon_unit</title>
<path fill="none" stroke="black" d="M740.05,-164.68C758.53,-154.53 782.38,-141.42 802.26,-130.49"/>
<polygon fill="black" stroke="black" points="804.01,-133.52 811.09,-125.64 800.64,-127.39 804.01,-133.52"/>
</g>
<!-- GrpPullback_grp_pullback_leftidentity&#45;&gt;GrpPullback_grp_pullback_sgop -->
<g id="edge28" class="edge">
<title>GrpPullback_grp_pullback_leftidentity&#45;&gt;GrpPullback_grp_pullback_sgop</title>
<path fill="none" stroke="black" d="M709.29,-164C708.26,-139.14 706.35,-92.94 705.13,-63.43"/>
<polygon fill="black" stroke="black" points="708.62,-63.23 704.71,-53.38 701.63,-63.52 708.62,-63.23"/>
</g>
<!-- GrpPullback_grp_pullback_sgop_associative -->
<g id="node18" class="node">
<title>GrpPullback_grp_pullback_sgop_associative</title>
<g id="a_node18"><a xlink:href="GrpPullback.html#grp_pullback_sgop_associative" xlink:title="grp_pullback_sgop_associative">
<ellipse fill="#f070d1" stroke="black" cx="255" cy="-108.2" rx="152.17" ry="18"/>
<text text-anchor="middle" x="255" y="-104.5" font-family="Times,serif" font-size="14.00">grp_pullback_sgop_associative</text>
</a>
</g>
</g>
<!-- GrpPullback_grp_pullback_issemigroup&#45;&gt;GrpPullback_grp_pullback_sgop_associative -->
<g id="edge29" class="edge">
<title>GrpPullback_grp_pullback_issemigroup&#45;&gt;GrpPullback_grp_pullback_sgop_associative</title>
<path fill="none" stroke="black" d="M172.82,-164.5C187.3,-154.76 205.76,-142.33 221.51,-131.73"/>
<polygon fill="black" stroke="black" points="223.6,-134.54 229.95,-126.06 219.7,-128.74 223.6,-134.54"/>
</g>
<!-- GrpPullback_grp_pullback_sgop_associative&#45;&gt;GrpPullback_grp_pullback_sgop -->
<g id="edge30" class="edge">
<title>GrpPullback_grp_pullback_sgop_associative&#45;&gt;GrpPullback_grp_pullback_sgop</title>
<path fill="none" stroke="black" d="M342.1,-93.43C423.3,-80.59 543.45,-61.59 622.72,-49.05"/>
<polygon fill="black" stroke="black" points="623.33,-52.5 632.66,-47.48 622.23,-45.59 623.33,-52.5"/>
</g>
</g>
</svg>
