<?xml version="1.0" encoding="UTF-8" standalone="no"?>
<!DOCTYPE svg PUBLIC "-//W3C//DTD SVG 1.1//EN"
 "http://www.w3.org/Graphics/SVG/1.1/DTD/svg11.dtd">
<!-- Generated by graphviz version 2.43.0 (0)
 -->
<!-- Title: HoTT_Spaces_Int_Spec Pages: 1 -->
<svg width="2268pt" height="1138pt"
 viewBox="0.00 0.00 2268.00 1138.00" xmlns="http://www.w3.org/2000/svg" xmlns:xlink="http://www.w3.org/1999/xlink">
<g id="graph0" class="graph" transform="scale(1 1) rotate(0) translate(4 1134)">
<title>HoTT_Spaces_Int_Spec</title>
<polygon fill="white" stroke="transparent" points="-4,4 -4,-1134 2264,-1134 2264,4 -4,4"/>
<g id="clust1" class="cluster">
<title>cluster_Spec</title>
<polygon fill="#ffffc3" stroke="black" points="8,-11.73 8,-1118.27 2252,-1118.27 2252,-11.73 8,-11.73"/>
<text text-anchor="middle" x="33.5" y="-1103.07" font-family="Times,serif" font-size="14.00">Spec</text>
</g>
<!-- Spec_int_mul_assoc -->
<g id="node1" class="node">
<title>Spec_int_mul_assoc</title>
<g id="a_node1"><a xlink:href="Spec.html#int_mul_assoc" xlink:title="int_mul_assoc">
<ellipse fill="#f070d1" stroke="black" cx="2161" cy="-1034.73" rx="75.3" ry="18"/>
<ellipse fill="none" stroke="black" cx="2161" cy="-1034.73" rx="79.29" ry="22"/>
<ellipse fill="none" stroke="black" cx="2161" cy="-1034.73" rx="83.29" ry="26"/>
<text text-anchor="middle" x="2161" y="-1031.03" font-family="Times,serif" font-size="14.00">int_mul_assoc</text>
</a>
</g>
</g>
<!-- Spec_int_mul_add_distr_l -->
<g id="node2" class="node">
<title>Spec_int_mul_add_distr_l</title>
<g id="a_node2"><a xlink:href="Spec.html#int_mul_add_distr_l" xlink:title="int_mul_add_distr_l">
<ellipse fill="#f070d1" stroke="black" cx="1951" cy="-1034.73" rx="100.96" ry="18"/>
<ellipse fill="none" stroke="black" cx="1951" cy="-1034.73" rx="104.97" ry="22"/>
<ellipse fill="none" stroke="black" cx="1951" cy="-1034.73" rx="108.98" ry="26"/>
<text text-anchor="middle" x="1951" y="-1031.03" font-family="Times,serif" font-size="14.00">int_mul_add_distr_l</text>
</a>
</g>
</g>
<!-- Spec_int_mul_add_distr_r -->
<g id="node3" class="node">
<title>Spec_int_mul_add_distr_r</title>
<g id="a_node3"><a xlink:href="Spec.html#int_mul_add_distr_r" xlink:title="int_mul_add_distr_r">
<ellipse fill="#f070d1" stroke="black" cx="1951" cy="-917.73" rx="102.08" ry="18"/>
<text text-anchor="middle" x="1951" y="-914.03" font-family="Times,serif" font-size="14.00">int_mul_add_distr_r</text>
</a>
</g>
</g>
<!-- Spec_int_mul_add_distr_l&#45;&gt;Spec_int_mul_add_distr_r -->
<g id="edge1" class="edge">
<title>Spec_int_mul_add_distr_l&#45;&gt;Spec_int_mul_add_distr_r</title>
<path fill="none" stroke="black" d="M1951,-1008.49C1951,-990.05 1951,-965.08 1951,-946.15"/>
<polygon fill="black" stroke="black" points="1954.5,-946.07 1951,-936.07 1947.5,-946.07 1954.5,-946.07"/>
</g>
<!-- Spec_int_pos_sub_mul_neg -->
<g id="node4" class="node">
<title>Spec_int_pos_sub_mul_neg</title>
<g id="a_node4"><a xlink:href="Spec.html#int_pos_sub_mul_neg" xlink:title="int_pos_sub_mul_neg">
<ellipse fill="#f070d1" stroke="black" cx="1717" cy="-811.73" rx="108.58" ry="18"/>
<text text-anchor="middle" x="1717" y="-808.03" font-family="Times,serif" font-size="14.00">int_pos_sub_mul_neg</text>
</a>
</g>
</g>
<!-- Spec_int_mul_add_distr_r&#45;&gt;Spec_int_pos_sub_mul_neg -->
<g id="edge2" class="edge">
<title>Spec_int_mul_add_distr_r&#45;&gt;Spec_int_pos_sub_mul_neg</title>
<path fill="none" stroke="black" d="M1915.21,-900.82C1874.21,-882.6 1806.96,-852.71 1762.34,-832.87"/>
<polygon fill="black" stroke="black" points="1763.73,-829.67 1753.18,-828.8 1760.89,-836.06 1763.73,-829.67"/>
</g>
<!-- Spec_int_pos_sub_mul_pos -->
<g id="node5" class="node">
<title>Spec_int_pos_sub_mul_pos</title>
<g id="a_node5"><a xlink:href="Spec.html#int_pos_sub_mul_pos" xlink:title="int_pos_sub_mul_pos">
<ellipse fill="#f070d1" stroke="black" cx="1951" cy="-811.73" rx="107.48" ry="18"/>
<text text-anchor="middle" x="1951" y="-808.03" font-family="Times,serif" font-size="14.00">int_pos_sub_mul_pos</text>
</a>
</g>
</g>
<!-- Spec_int_mul_add_distr_r&#45;&gt;Spec_int_pos_sub_mul_pos -->
<g id="edge3" class="edge">
<title>Spec_int_mul_add_distr_r&#45;&gt;Spec_int_pos_sub_mul_pos</title>
<path fill="none" stroke="black" d="M1951,-899.55C1951,-883.37 1951,-858.86 1951,-840"/>
<polygon fill="black" stroke="black" points="1954.5,-839.92 1951,-829.92 1947.5,-839.92 1954.5,-839.92"/>
</g>
<!-- Spec_int_mul_0_r -->
<g id="node35" class="node">
<title>Spec_int_mul_0_r</title>
<g id="a_node35"><a xlink:href="Spec.html#int_mul_0_r" xlink:title="int_mul_0_r">
<ellipse fill="#f070d1" stroke="black" cx="2141" cy="-811.73" rx="64.19" ry="18"/>
<text text-anchor="middle" x="2141" y="-808.03" font-family="Times,serif" font-size="14.00">int_mul_0_r</text>
</a>
</g>
</g>
<!-- Spec_int_mul_add_distr_r&#45;&gt;Spec_int_mul_0_r -->
<g id="edge4" class="edge">
<title>Spec_int_mul_add_distr_r&#45;&gt;Spec_int_mul_0_r</title>
<path fill="none" stroke="black" d="M1980.69,-900.48C2013.93,-882.28 2067.86,-852.76 2103.87,-833.05"/>
<polygon fill="black" stroke="black" points="2105.98,-835.89 2113.07,-828.01 2102.61,-829.75 2105.98,-835.89"/>
</g>
<!-- Spec_int_mul_comm -->
<g id="node6" class="node">
<title>Spec_int_mul_comm</title>
<g id="a_node6"><a xlink:href="Spec.html#int_mul_comm" xlink:title="int_mul_comm">
<ellipse fill="#f070d1" stroke="black" cx="1887" cy="-706.73" rx="77.19" ry="18"/>
<text text-anchor="middle" x="1887" y="-703.03" font-family="Times,serif" font-size="14.00">int_mul_comm</text>
</a>
</g>
</g>
<!-- Spec_int_pos_sub_mul_neg&#45;&gt;Spec_int_mul_comm -->
<g id="edge5" class="edge">
<title>Spec_int_pos_sub_mul_neg&#45;&gt;Spec_int_mul_comm</title>
<path fill="none" stroke="black" d="M1744.31,-794.18C1773.57,-776.45 1820.09,-748.27 1852,-728.93"/>
<polygon fill="black" stroke="black" points="1853.85,-731.9 1860.59,-723.72 1850.23,-725.91 1853.85,-731.9"/>
</g>
<!-- Spec_int_add_assoc -->
<g id="node9" class="node">
<title>Spec_int_add_assoc</title>
<g id="a_node9"><a xlink:href="Spec.html#int_add_assoc" xlink:title="int_add_assoc">
<ellipse fill="#f070d1" stroke="black" cx="1717" cy="-706.73" rx="74.99" ry="18"/>
<text text-anchor="middle" x="1717" y="-703.03" font-family="Times,serif" font-size="14.00">int_add_assoc</text>
</a>
</g>
</g>
<!-- Spec_int_pos_sub_mul_neg&#45;&gt;Spec_int_add_assoc -->
<g id="edge6" class="edge">
<title>Spec_int_pos_sub_mul_neg&#45;&gt;Spec_int_add_assoc</title>
<path fill="none" stroke="black" d="M1717,-793.72C1717,-777.76 1717,-753.64 1717,-735"/>
<polygon fill="black" stroke="black" points="1720.5,-734.76 1717,-724.76 1713.5,-734.76 1720.5,-734.76"/>
</g>
<!-- Spec_int_pos_sub_mul_pos&#45;&gt;Spec_int_mul_comm -->
<g id="edge7" class="edge">
<title>Spec_int_pos_sub_mul_pos&#45;&gt;Spec_int_mul_comm</title>
<path fill="none" stroke="black" d="M1940.43,-793.72C1930.24,-777.32 1914.68,-752.28 1902.98,-733.44"/>
<polygon fill="black" stroke="black" points="1905.83,-731.41 1897.58,-724.76 1899.89,-735.1 1905.83,-731.41"/>
</g>
<!-- Spec_int_pos_sub_mul_pos&#45;&gt;Spec_int_add_assoc -->
<g id="edge8" class="edge">
<title>Spec_int_pos_sub_mul_pos&#45;&gt;Spec_int_add_assoc</title>
<path fill="none" stroke="black" d="M1914.69,-794.74C1873.19,-776.48 1805.29,-746.59 1760.86,-727.03"/>
<polygon fill="black" stroke="black" points="1762.05,-723.73 1751.48,-722.9 1759.23,-730.14 1762.05,-723.73"/>
</g>
<!-- Spec_int_mul_1_l -->
<g id="node34" class="node">
<title>Spec_int_mul_1_l</title>
<g id="a_node34"><a xlink:href="Spec.html#int_mul_1_l" xlink:title="int_mul_1_l">
<ellipse fill="#f070d1" stroke="black" cx="2045" cy="-706.73" rx="63.09" ry="18"/>
<text text-anchor="middle" x="2045" y="-703.03" font-family="Times,serif" font-size="14.00">int_mul_1_l</text>
</a>
</g>
</g>
<!-- Spec_int_pos_sub_mul_pos&#45;&gt;Spec_int_mul_1_l -->
<g id="edge9" class="edge">
<title>Spec_int_pos_sub_mul_pos&#45;&gt;Spec_int_mul_1_l</title>
<path fill="none" stroke="black" d="M1966.52,-793.72C1981.92,-776.84 2005.66,-750.83 2023,-731.83"/>
<polygon fill="black" stroke="black" points="2025.61,-734.16 2029.77,-724.42 2020.44,-729.44 2025.61,-734.16"/>
</g>
<!-- Spec_equiv_int_succ -->
<g id="node7" class="node">
<title>Spec_equiv_int_succ</title>
<g id="a_node7"><a xlink:href="Spec.html#equiv_int_succ" xlink:title="equiv_int_succ">
<ellipse fill="#f070d1" stroke="black" cx="680" cy="-483.73" rx="77.99" ry="18"/>
<ellipse fill="none" stroke="black" cx="680" cy="-483.73" rx="81.99" ry="22"/>
<ellipse fill="none" stroke="black" cx="680" cy="-483.73" rx="85.99" ry="26"/>
<text text-anchor="middle" x="680" y="-480.03" font-family="Times,serif" font-size="14.00">equiv_int_succ</text>
</a>
</g>
</g>
<!-- Spec_isequiv_int_succ -->
<g id="node8" class="node">
<title>Spec_isequiv_int_succ</title>
<g id="a_node8"><a xlink:href="Spec.html#isequiv_int_succ" xlink:title="isequiv_int_succ">
<ellipse fill="#f070d1" stroke="black" cx="680" cy="-366.73" rx="85.59" ry="18"/>
<text text-anchor="middle" x="680" y="-363.03" font-family="Times,serif" font-size="14.00">isequiv_int_succ</text>
</a>
</g>
</g>
<!-- Spec_equiv_int_succ&#45;&gt;Spec_isequiv_int_succ -->
<g id="edge10" class="edge">
<title>Spec_equiv_int_succ&#45;&gt;Spec_isequiv_int_succ</title>
<path fill="none" stroke="black" d="M680,-457.49C680,-439.05 680,-414.08 680,-395.15"/>
<polygon fill="black" stroke="black" points="683.5,-395.07 680,-385.07 676.5,-395.07 683.5,-395.07"/>
</g>
<!-- Spec_int_pred_succ -->
<g id="node22" class="node">
<title>Spec_int_pred_succ</title>
<g id="a_node22"><a xlink:href="Spec.html#int_pred_succ" xlink:title="int_pred_succ">
<ellipse fill="#f070d1" stroke="black" cx="763" cy="-260.73" rx="74.19" ry="18"/>
<text text-anchor="middle" x="763" y="-257.03" font-family="Times,serif" font-size="14.00">int_pred_succ</text>
</a>
</g>
</g>
<!-- Spec_isequiv_int_succ&#45;&gt;Spec_int_pred_succ -->
<g id="edge11" class="edge">
<title>Spec_isequiv_int_succ&#45;&gt;Spec_int_pred_succ</title>
<path fill="none" stroke="black" d="M693.71,-348.55C707.18,-331.67 727.9,-305.71 743.17,-286.58"/>
<polygon fill="black" stroke="black" points="746.05,-288.58 749.55,-278.58 740.58,-284.21 746.05,-288.58"/>
</g>
<!-- Spec_int_succ_pred -->
<g id="node23" class="node">
<title>Spec_int_succ_pred</title>
<g id="a_node23"><a xlink:href="Spec.html#int_succ_pred" xlink:title="int_succ_pred">
<ellipse fill="#f070d1" stroke="black" cx="597" cy="-260.73" rx="74.19" ry="18"/>
<text text-anchor="middle" x="597" y="-257.03" font-family="Times,serif" font-size="14.00">int_succ_pred</text>
</a>
</g>
</g>
<!-- Spec_isequiv_int_succ&#45;&gt;Spec_int_succ_pred -->
<g id="edge12" class="edge">
<title>Spec_isequiv_int_succ&#45;&gt;Spec_int_succ_pred</title>
<path fill="none" stroke="black" d="M666.29,-348.55C652.82,-331.67 632.1,-305.71 616.83,-286.58"/>
<polygon fill="black" stroke="black" points="619.42,-284.21 610.45,-278.58 613.95,-288.58 619.42,-284.21"/>
</g>
<!-- Spec_int_add_assoc_pos -->
<g id="node10" class="node">
<title>Spec_int_add_assoc_pos</title>
<g id="a_node10"><a xlink:href="Spec.html#int_add_assoc_pos" xlink:title="int_add_assoc_pos">
<ellipse fill="#f070d1" stroke="black" cx="1717" cy="-600.73" rx="94.78" ry="18"/>
<text text-anchor="middle" x="1717" y="-597.03" font-family="Times,serif" font-size="14.00">int_add_assoc_pos</text>
</a>
</g>
</g>
<!-- Spec_int_add_assoc&#45;&gt;Spec_int_add_assoc_pos -->
<g id="edge13" class="edge">
<title>Spec_int_add_assoc&#45;&gt;Spec_int_add_assoc_pos</title>
<path fill="none" stroke="black" d="M1717,-688.55C1717,-672.37 1717,-647.86 1717,-629"/>
<polygon fill="black" stroke="black" points="1720.5,-628.92 1717,-618.92 1713.5,-628.92 1720.5,-628.92"/>
</g>
<!-- Spec_int_pos_sub_add -->
<g id="node11" class="node">
<title>Spec_int_pos_sub_add</title>
<g id="a_node11"><a xlink:href="Spec.html#int_pos_sub_add" xlink:title="int_pos_sub_add">
<ellipse fill="#f070d1" stroke="black" cx="1717" cy="-483.73" rx="86.38" ry="18"/>
<text text-anchor="middle" x="1717" y="-480.03" font-family="Times,serif" font-size="14.00">int_pos_sub_add</text>
</a>
</g>
</g>
<!-- Spec_int_add_assoc_pos&#45;&gt;Spec_int_pos_sub_add -->
<g id="edge14" class="edge">
<title>Spec_int_add_assoc_pos&#45;&gt;Spec_int_pos_sub_add</title>
<path fill="none" stroke="black" d="M1717,-582.26C1717,-563.66 1717,-533.97 1717,-512.23"/>
<polygon fill="black" stroke="black" points="1720.5,-511.98 1717,-501.98 1713.5,-511.98 1720.5,-511.98"/>
</g>
<!-- Spec_int_negation_add_distr -->
<g id="node21" class="node">
<title>Spec_int_negation_add_distr</title>
<g id="a_node21"><a xlink:href="Spec.html#int_negation_add_distr" xlink:title="int_negation_add_distr">
<ellipse fill="#f070d1" stroke="black" cx="1863" cy="-366.73" rx="116.18" ry="18"/>
<text text-anchor="middle" x="1863" y="-363.03" font-family="Times,serif" font-size="14.00">int_negation_add_distr</text>
</a>
</g>
</g>
<!-- Spec_int_add_assoc_pos&#45;&gt;Spec_int_negation_add_distr -->
<g id="edge15" class="edge">
<title>Spec_int_add_assoc_pos&#45;&gt;Spec_int_negation_add_distr</title>
<path fill="none" stroke="black" d="M1739.88,-583.15C1761.18,-566.67 1792.49,-539.59 1812,-509.73 1835.6,-473.59 1849.95,-425.15 1857.18,-395.21"/>
<polygon fill="black" stroke="black" points="1860.68,-395.6 1859.52,-385.07 1853.86,-394.03 1860.68,-395.6"/>
</g>
<!-- Spec_int_add_0_r -->
<g id="node37" class="node">
<title>Spec_int_add_0_r</title>
<g id="a_node37"><a xlink:href="Spec.html#int_add_0_r" xlink:title="int_add_0_r">
<ellipse fill="#f070d1" stroke="black" cx="1549" cy="-483.73" rx="63.89" ry="18"/>
<text text-anchor="middle" x="1549" y="-480.03" font-family="Times,serif" font-size="14.00">int_add_0_r</text>
</a>
</g>
</g>
<!-- Spec_int_add_assoc_pos&#45;&gt;Spec_int_add_0_r -->
<g id="edge16" class="edge">
<title>Spec_int_add_assoc_pos&#45;&gt;Spec_int_add_0_r</title>
<path fill="none" stroke="black" d="M1692.93,-583.25C1663.36,-563.01 1613.13,-528.62 1580.51,-506.29"/>
<polygon fill="black" stroke="black" points="1582.44,-503.38 1572.21,-500.62 1578.49,-509.15 1582.44,-503.38"/>
</g>
<!-- Spec_int_pred_add_r -->
<g id="node12" class="node">
<title>Spec_int_pred_add_r</title>
<g id="a_node12"><a xlink:href="Spec.html#int_pred_add_r" xlink:title="int_pred_add_r">
<ellipse fill="#f070d1" stroke="black" cx="1337" cy="-366.73" rx="79.09" ry="18"/>
<text text-anchor="middle" x="1337" y="-363.03" font-family="Times,serif" font-size="14.00">int_pred_add_r</text>
</a>
</g>
</g>
<!-- Spec_int_pos_sub_add&#45;&gt;Spec_int_pred_add_r -->
<g id="edge17" class="edge">
<title>Spec_int_pos_sub_add&#45;&gt;Spec_int_pred_add_r</title>
<path fill="none" stroke="black" d="M1670.02,-468.51C1599.71,-447.23 1467.36,-407.18 1392.42,-384.5"/>
<polygon fill="black" stroke="black" points="1393.27,-381.1 1382.68,-381.55 1391.24,-387.8 1393.27,-381.1"/>
</g>
<!-- Spec_int_negation_pred_negation_red -->
<g id="node13" class="node">
<title>Spec_int_negation_pred_negation_red</title>
<g id="a_node13"><a xlink:href="Spec.html#int_negation_pred_negation_red" xlink:title="int_negation_pred_negation_red">
<ellipse fill="#f070d1" stroke="black" cx="1592" cy="-260.73" rx="159.47" ry="18"/>
<text text-anchor="middle" x="1592" y="-257.03" font-family="Times,serif" font-size="14.00">int_negation_pred_negation_red</text>
</a>
</g>
</g>
<!-- Spec_int_pred_add_r&#45;&gt;Spec_int_negation_pred_negation_red -->
<g id="edge18" class="edge">
<title>Spec_int_pred_add_r&#45;&gt;Spec_int_negation_pred_negation_red</title>
<path fill="none" stroke="black" d="M1373.81,-350.71C1418.03,-332.68 1492.43,-302.33 1541.87,-282.17"/>
<polygon fill="black" stroke="black" points="1543.47,-285.3 1551.41,-278.28 1540.83,-278.81 1543.47,-285.3"/>
</g>
<!-- Spec_int_pred_pos_sub_r -->
<g id="node14" class="node">
<title>Spec_int_pred_pos_sub_r</title>
<g id="a_node14"><a xlink:href="Spec.html#int_pred_pos_sub_r" xlink:title="int_pred_pos_sub_r">
<ellipse fill="#f070d1" stroke="black" cx="955" cy="-260.73" rx="99.38" ry="18"/>
<text text-anchor="middle" x="955" y="-257.03" font-family="Times,serif" font-size="14.00">int_pred_pos_sub_r</text>
</a>
</g>
</g>
<!-- Spec_int_pred_add_r&#45;&gt;Spec_int_pred_pos_sub_r -->
<g id="edge19" class="edge">
<title>Spec_int_pred_add_r&#45;&gt;Spec_int_pred_pos_sub_r</title>
<path fill="none" stroke="black" d="M1288.23,-352.45C1219.32,-333.69 1093.42,-299.41 1017.65,-278.78"/>
<polygon fill="black" stroke="black" points="1018.33,-275.34 1007.76,-276.09 1016.49,-282.09 1018.33,-275.34"/>
</g>
<!-- Spec_int_negation_inj -->
<g id="node20" class="node">
<title>Spec_int_negation_inj</title>
<g id="a_node20"><a xlink:href="Spec.html#int_negation_inj" xlink:title="int_negation_inj">
<ellipse fill="#f070d1" stroke="black" cx="1157" cy="-260.73" rx="84.49" ry="18"/>
<text text-anchor="middle" x="1157" y="-257.03" font-family="Times,serif" font-size="14.00">int_negation_inj</text>
</a>
</g>
</g>
<!-- Spec_int_pred_add_r&#45;&gt;Spec_int_negation_inj -->
<g id="edge20" class="edge">
<title>Spec_int_pred_add_r&#45;&gt;Spec_int_negation_inj</title>
<path fill="none" stroke="black" d="M1309.27,-349.7C1278.22,-331.76 1227.77,-302.62 1193.53,-282.83"/>
<polygon fill="black" stroke="black" points="1195.17,-279.74 1184.76,-277.77 1191.67,-285.8 1195.17,-279.74"/>
</g>
<!-- Spec_int_pred_add_r&#45;&gt;Spec_int_pred_succ -->
<g id="edge21" class="edge">
<title>Spec_int_pred_add_r&#45;&gt;Spec_int_pred_succ</title>
<path fill="none" stroke="black" d="M1275.42,-355.28C1182.47,-339.4 1000.85,-307.95 847,-278.73 840.76,-277.54 834.28,-276.28 827.79,-275"/>
<polygon fill="black" stroke="black" points="828.13,-271.5 817.64,-272.98 826.76,-278.36 828.13,-271.5"/>
</g>
<!-- Spec_int_pos_sub_negation -->
<g id="node24" class="node">
<title>Spec_int_pos_sub_negation</title>
<g id="a_node24"><a xlink:href="Spec.html#int_pos_sub_negation" xlink:title="int_pos_sub_negation">
<ellipse fill="#f070d1" stroke="black" cx="1879" cy="-260.73" rx="109.68" ry="18"/>
<text text-anchor="middle" x="1879" y="-257.03" font-family="Times,serif" font-size="14.00">int_pos_sub_negation</text>
</a>
</g>
</g>
<!-- Spec_int_pred_add_r&#45;&gt;Spec_int_pos_sub_negation -->
<g id="edge22" class="edge">
<title>Spec_int_pred_add_r&#45;&gt;Spec_int_pos_sub_negation</title>
<path fill="none" stroke="black" d="M1395.52,-354.5C1493.47,-335.7 1690.66,-297.86 1800.53,-276.78"/>
<polygon fill="black" stroke="black" points="1801.4,-280.18 1810.56,-274.86 1800.08,-273.3 1801.4,-280.18"/>
</g>
<!-- Spec_int_add_comm -->
<g id="node39" class="node">
<title>Spec_int_add_comm</title>
<g id="a_node39"><a xlink:href="Spec.html#int_add_comm" xlink:title="int_add_comm">
<ellipse fill="#f070d1" stroke="black" cx="1337" cy="-260.73" rx="77.19" ry="18"/>
<text text-anchor="middle" x="1337" y="-257.03" font-family="Times,serif" font-size="14.00">int_add_comm</text>
</a>
</g>
</g>
<!-- Spec_int_pred_add_r&#45;&gt;Spec_int_add_comm -->
<g id="edge23" class="edge">
<title>Spec_int_pred_add_r&#45;&gt;Spec_int_add_comm</title>
<path fill="none" stroke="black" d="M1337,-348.55C1337,-332.37 1337,-307.86 1337,-289"/>
<polygon fill="black" stroke="black" points="1340.5,-288.92 1337,-278.92 1333.5,-288.92 1340.5,-288.92"/>
</g>
<!-- Spec_int_pos_sub_succ_succ -->
<g id="node15" class="node">
<title>Spec_int_pos_sub_succ_succ</title>
<g id="a_node15"><a xlink:href="Spec.html#int_pos_sub_succ_succ" xlink:title="int_pos_sub_succ_succ">
<ellipse fill="#f070d1" stroke="black" cx="955" cy="-155.73" rx="114.28" ry="18"/>
<text text-anchor="middle" x="955" y="-152.03" font-family="Times,serif" font-size="14.00">int_pos_sub_succ_succ</text>
</a>
</g>
</g>
<!-- Spec_int_pred_pos_sub_r&#45;&gt;Spec_int_pos_sub_succ_succ -->
<g id="edge24" class="edge">
<title>Spec_int_pred_pos_sub_r&#45;&gt;Spec_int_pos_sub_succ_succ</title>
<path fill="none" stroke="black" d="M955,-242.72C955,-226.76 955,-202.64 955,-184"/>
<polygon fill="black" stroke="black" points="958.5,-183.76 955,-173.76 951.5,-183.76 958.5,-183.76"/>
</g>
<!-- Spec_int_pred_double_int_pos_sub -->
<g id="node16" class="node">
<title>Spec_int_pred_double_int_pos_sub</title>
<g id="a_node16"><a xlink:href="Spec.html#int_pred_double_int_pos_sub" xlink:title="int_pred_double_int_pos_sub">
<ellipse fill="#f070d1" stroke="black" cx="803" cy="-49.73" rx="143.77" ry="18"/>
<text text-anchor="middle" x="803" y="-46.03" font-family="Times,serif" font-size="14.00">int_pred_double_int_pos_sub</text>
</a>
</g>
</g>
<!-- Spec_int_pos_sub_succ_succ&#45;&gt;Spec_int_pred_double_int_pos_sub -->
<g id="edge25" class="edge">
<title>Spec_int_pos_sub_succ_succ&#45;&gt;Spec_int_pred_double_int_pos_sub</title>
<path fill="none" stroke="black" d="M930.58,-138.02C904.95,-120.48 864.5,-92.81 836.03,-73.33"/>
<polygon fill="black" stroke="black" points="837.84,-70.32 827.61,-67.57 833.89,-76.1 837.84,-70.32"/>
</g>
<!-- Spec_int_succ_double_int_pos_sub -->
<g id="node17" class="node">
<title>Spec_int_succ_double_int_pos_sub</title>
<g id="a_node17"><a xlink:href="Spec.html#int_succ_double_int_pos_sub" xlink:title="int_succ_double_int_pos_sub">
<ellipse fill="#f070d1" stroke="black" cx="1107" cy="-49.73" rx="142.17" ry="18"/>
<text text-anchor="middle" x="1107" y="-46.03" font-family="Times,serif" font-size="14.00">int_succ_double_int_pos_sub</text>
</a>
</g>
</g>
<!-- Spec_int_pos_sub_succ_succ&#45;&gt;Spec_int_succ_double_int_pos_sub -->
<g id="edge26" class="edge">
<title>Spec_int_pos_sub_succ_succ&#45;&gt;Spec_int_succ_double_int_pos_sub</title>
<path fill="none" stroke="black" d="M979.42,-138.02C1005.05,-120.48 1045.5,-92.81 1073.97,-73.33"/>
<polygon fill="black" stroke="black" points="1076.11,-76.1 1082.39,-67.57 1072.16,-70.32 1076.11,-76.1"/>
</g>
<!-- Spec_int_pos_sub_succ_r -->
<g id="node18" class="node">
<title>Spec_int_pos_sub_succ_r</title>
<g id="a_node18"><a xlink:href="Spec.html#int_pos_sub_succ_r" xlink:title="int_pos_sub_succ_r">
<ellipse fill="#f070d1" stroke="black" cx="1717" cy="-1034.73" rx="98.6" ry="18"/>
<ellipse fill="none" stroke="black" cx="1717" cy="-1034.73" rx="102.59" ry="22"/>
<ellipse fill="none" stroke="black" cx="1717" cy="-1034.73" rx="106.58" ry="26"/>
<text text-anchor="middle" x="1717" y="-1031.03" font-family="Times,serif" font-size="14.00">int_pos_sub_succ_r</text>
</a>
</g>
</g>
<!-- Spec_int_pos_sub_succ_l -->
<g id="node19" class="node">
<title>Spec_int_pos_sub_succ_l</title>
<g id="a_node19"><a xlink:href="Spec.html#int_pos_sub_succ_l" xlink:title="int_pos_sub_succ_l">
<ellipse fill="#f070d1" stroke="black" cx="1487" cy="-1034.73" rx="96.7" ry="18"/>
<ellipse fill="none" stroke="black" cx="1487" cy="-1034.73" rx="100.69" ry="22"/>
<ellipse fill="none" stroke="black" cx="1487" cy="-1034.73" rx="104.68" ry="26"/>
<text text-anchor="middle" x="1487" y="-1031.03" font-family="Times,serif" font-size="14.00">int_pos_sub_succ_l</text>
</a>
</g>
</g>
<!-- Spec_int_negation_add_distr&#45;&gt;Spec_int_pos_sub_negation -->
<g id="edge27" class="edge">
<title>Spec_int_negation_add_distr&#45;&gt;Spec_int_pos_sub_negation</title>
<path fill="none" stroke="black" d="M1865.64,-348.55C1868.13,-332.37 1871.9,-307.86 1874.8,-289"/>
<polygon fill="black" stroke="black" points="1878.29,-289.34 1876.35,-278.92 1871.37,-288.28 1878.29,-289.34"/>
</g>
<!-- Spec_int_negation_succ_double -->
<g id="node25" class="node">
<title>Spec_int_negation_succ_double</title>
<g id="a_node25"><a xlink:href="Spec.html#int_negation_succ_double" xlink:title="int_negation_succ_double">
<ellipse fill="#f070d1" stroke="black" cx="1602" cy="-155.73" rx="128.88" ry="18"/>
<text text-anchor="middle" x="1602" y="-152.03" font-family="Times,serif" font-size="14.00">int_negation_succ_double</text>
</a>
</g>
</g>
<!-- Spec_int_pos_sub_negation&#45;&gt;Spec_int_negation_succ_double -->
<g id="edge28" class="edge">
<title>Spec_int_pos_sub_negation&#45;&gt;Spec_int_negation_succ_double</title>
<path fill="none" stroke="black" d="M1836.93,-244.08C1788.2,-225.96 1707.86,-196.09 1654.93,-176.41"/>
<polygon fill="black" stroke="black" points="1655.97,-173.06 1645.38,-172.86 1653.53,-179.62 1655.97,-173.06"/>
</g>
<!-- Spec_int_negation_pred_double -->
<g id="node26" class="node">
<title>Spec_int_negation_pred_double</title>
<g id="a_node26"><a xlink:href="Spec.html#int_negation_pred_double" xlink:title="int_negation_pred_double">
<ellipse fill="#f070d1" stroke="black" cx="1879" cy="-155.73" rx="129.98" ry="18"/>
<text text-anchor="middle" x="1879" y="-152.03" font-family="Times,serif" font-size="14.00">int_negation_pred_double</text>
</a>
</g>
</g>
<!-- Spec_int_pos_sub_negation&#45;&gt;Spec_int_negation_pred_double -->
<g id="edge29" class="edge">
<title>Spec_int_pos_sub_negation&#45;&gt;Spec_int_negation_pred_double</title>
<path fill="none" stroke="black" d="M1879,-242.72C1879,-226.76 1879,-202.64 1879,-184"/>
<polygon fill="black" stroke="black" points="1882.5,-183.76 1879,-173.76 1875.5,-183.76 1882.5,-183.76"/>
</g>
<!-- Spec_int_negation_double -->
<g id="node27" class="node">
<title>Spec_int_negation_double</title>
<g id="a_node27"><a xlink:href="Spec.html#int_negation_double" xlink:title="int_negation_double">
<ellipse fill="#f070d1" stroke="black" cx="2131" cy="-155.73" rx="103.98" ry="18"/>
<text text-anchor="middle" x="2131" y="-152.03" font-family="Times,serif" font-size="14.00">int_negation_double</text>
</a>
</g>
</g>
<!-- Spec_int_pos_sub_negation&#45;&gt;Spec_int_negation_double -->
<g id="edge30" class="edge">
<title>Spec_int_pos_sub_negation&#45;&gt;Spec_int_negation_double</title>
<path fill="none" stroke="black" d="M1917.82,-243.86C1962.13,-225.75 2034.63,-196.11 2082.59,-176.51"/>
<polygon fill="black" stroke="black" points="2084.2,-179.63 2092.13,-172.61 2081.55,-173.15 2084.2,-179.63"/>
</g>
<!-- Spec_int_pos_pos_succ -->
<g id="node28" class="node">
<title>Spec_int_pos_pos_succ</title>
<g id="a_node28"><a xlink:href="Spec.html#int_pos_pos_succ" xlink:title="int_pos_pos_succ">
<ellipse fill="#f070d1" stroke="black" cx="1267" cy="-1034.73" rx="89.08" ry="18"/>
<ellipse fill="none" stroke="black" cx="1267" cy="-1034.73" rx="93.08" ry="22"/>
<ellipse fill="none" stroke="black" cx="1267" cy="-1034.73" rx="97.08" ry="26"/>
<text text-anchor="middle" x="1267" y="-1031.03" font-family="Times,serif" font-size="14.00">int_pos_pos_succ</text>
</a>
</g>
</g>
<!-- Spec_int_neg_pos_succ -->
<g id="node29" class="node">
<title>Spec_int_neg_pos_succ</title>
<g id="a_node29"><a xlink:href="Spec.html#int_neg_pos_succ" xlink:title="int_neg_pos_succ">
<ellipse fill="#f070d1" stroke="black" cx="1054" cy="-1034.73" rx="90.2" ry="18"/>
<ellipse fill="none" stroke="black" cx="1054" cy="-1034.73" rx="94.19" ry="22"/>
<ellipse fill="none" stroke="black" cx="1054" cy="-1034.73" rx="98.18" ry="26"/>
<text text-anchor="middle" x="1054" y="-1031.03" font-family="Times,serif" font-size="14.00">int_neg_pos_succ</text>
</a>
</g>
</g>
<!-- Spec_int_add_negation_r -->
<g id="node30" class="node">
<title>Spec_int_add_negation_r</title>
<g id="a_node30"><a xlink:href="Spec.html#int_add_negation_r" xlink:title="int_add_negation_r">
<ellipse fill="#f070d1" stroke="black" cx="603" cy="-1034.73" rx="98.6" ry="18"/>
<ellipse fill="none" stroke="black" cx="603" cy="-1034.73" rx="102.59" ry="22"/>
<ellipse fill="none" stroke="black" cx="603" cy="-1034.73" rx="106.58" ry="26"/>
<text text-anchor="middle" x="603" y="-1031.03" font-family="Times,serif" font-size="14.00">int_add_negation_r</text>
</a>
</g>
</g>
<!-- Spec_int_pos_sub_diag -->
<g id="node32" class="node">
<title>Spec_int_pos_sub_diag</title>
<g id="a_node32"><a xlink:href="Spec.html#int_pos_sub_diag" xlink:title="int_pos_sub_diag">
<ellipse fill="#f070d1" stroke="black" cx="718" cy="-917.73" rx="89.08" ry="18"/>
<text text-anchor="middle" x="718" y="-914.03" font-family="Times,serif" font-size="14.00">int_pos_sub_diag</text>
</a>
</g>
</g>
<!-- Spec_int_add_negation_r&#45;&gt;Spec_int_pos_sub_diag -->
<g id="edge31" class="edge">
<title>Spec_int_add_negation_r&#45;&gt;Spec_int_pos_sub_diag</title>
<path fill="none" stroke="black" d="M627.39,-1009.34C646.95,-989.78 674.26,-962.47 693.77,-942.95"/>
<polygon fill="black" stroke="black" points="696.5,-945.18 701.09,-935.63 691.55,-940.23 696.5,-945.18"/>
</g>
<!-- Spec_int_add_negation_l -->
<g id="node31" class="node">
<title>Spec_int_add_negation_l</title>
<g id="a_node31"><a xlink:href="Spec.html#int_add_negation_l" xlink:title="int_add_negation_l">
<ellipse fill="#f070d1" stroke="black" cx="833" cy="-1034.73" rx="96.7" ry="18"/>
<ellipse fill="none" stroke="black" cx="833" cy="-1034.73" rx="100.69" ry="22"/>
<ellipse fill="none" stroke="black" cx="833" cy="-1034.73" rx="104.68" ry="26"/>
<text text-anchor="middle" x="833" y="-1031.03" font-family="Times,serif" font-size="14.00">int_add_negation_l</text>
</a>
</g>
</g>
<!-- Spec_int_add_negation_l&#45;&gt;Spec_int_pos_sub_diag -->
<g id="edge32" class="edge">
<title>Spec_int_add_negation_l&#45;&gt;Spec_int_pos_sub_diag</title>
<path fill="none" stroke="black" d="M808.61,-1009.34C789.05,-989.78 761.74,-962.47 742.23,-942.95"/>
<polygon fill="black" stroke="black" points="744.45,-940.23 734.91,-935.63 739.5,-945.18 744.45,-940.23"/>
</g>
<!-- Spec_int_mul_1_r -->
<g id="node33" class="node">
<title>Spec_int_mul_1_r</title>
<g id="a_node33"><a xlink:href="Spec.html#int_mul_1_r" xlink:title="int_mul_1_r">
<ellipse fill="#f070d1" stroke="black" cx="406" cy="-1034.73" rx="64.21" ry="18"/>
<ellipse fill="none" stroke="black" cx="406" cy="-1034.73" rx="68.2" ry="22"/>
<ellipse fill="none" stroke="black" cx="406" cy="-1034.73" rx="72.19" ry="26"/>
<text text-anchor="middle" x="406" y="-1031.03" font-family="Times,serif" font-size="14.00">int_mul_1_r</text>
</a>
</g>
</g>
<!-- Spec_int_mul_0_l -->
<g id="node36" class="node">
<title>Spec_int_mul_0_l</title>
<g id="a_node36"><a xlink:href="Spec.html#int_mul_0_l" xlink:title="int_mul_0_l">
<ellipse fill="#f070d1" stroke="black" cx="245" cy="-1034.73" rx="63.08" ry="18"/>
<ellipse fill="none" stroke="black" cx="245" cy="-1034.73" rx="67.09" ry="22"/>
<ellipse fill="none" stroke="black" cx="245" cy="-1034.73" rx="71.09" ry="26"/>
<text text-anchor="middle" x="245" y="-1031.03" font-family="Times,serif" font-size="14.00">int_mul_0_l</text>
</a>
</g>
</g>
<!-- Spec_int_add_0_l -->
<g id="node38" class="node">
<title>Spec_int_add_0_l</title>
<g id="a_node38"><a xlink:href="Spec.html#int_add_0_l" xlink:title="int_add_0_l">
<ellipse fill="#f070d1" stroke="black" cx="86" cy="-1034.73" rx="62.3" ry="18"/>
<ellipse fill="none" stroke="black" cx="86" cy="-1034.73" rx="66.3" ry="22"/>
<ellipse fill="none" stroke="black" cx="86" cy="-1034.73" rx="70.29" ry="26"/>
<text text-anchor="middle" x="86" y="-1031.03" font-family="Times,serif" font-size="14.00">int_add_0_l</text>
</a>
</g>
</g>
</g>
</svg>
