<?xml version="1.0" encoding="UTF-8" standalone="no"?>
<!DOCTYPE svg PUBLIC "-//W3C//DTD SVG 1.1//EN"
 "http://www.w3.org/Graphics/SVG/1.1/DTD/svg11.dtd">
<!-- Generated by graphviz version 2.43.0 (0)
 -->
<!-- Title: HoTT_Spaces_BAut Pages: 1 -->
<svg width="1174pt" height="591pt"
 viewBox="0.00 0.00 1174.00 591.00" xmlns="http://www.w3.org/2000/svg" xmlns:xlink="http://www.w3.org/1999/xlink">
<g id="graph0" class="graph" transform="scale(1 1) rotate(0) translate(4 587)">
<title>HoTT_Spaces_BAut</title>
<polygon fill="white" stroke="transparent" points="-4,4 -4,-587 1170,-587 1170,4 -4,4"/>
<g id="clust1" class="cluster">
<title>cluster_BAut</title>
<polygon fill="#ffffc3" stroke="black" points="8,-11.35 8,-571.65 1158,-571.65 1158,-11.35 8,-11.35"/>
<text text-anchor="middle" x="34" y="-556.45" font-family="Times,serif" font-size="14.00">BAut</text>
</g>
<!-- BAut_id_center2_baut -->
<g id="node1" class="node">
<title>BAut_id_center2_baut</title>
<g id="a_node1"><a xlink:href="BAut.html#id_center2_baut" xlink:title="id_center2_baut">
<ellipse fill="#f070d1" stroke="black" cx="811" cy="-490.35" rx="85.27" ry="18"/>
<ellipse fill="none" stroke="black" cx="811" cy="-490.35" rx="89.28" ry="22"/>
<ellipse fill="none" stroke="black" cx="811" cy="-490.35" rx="93.29" ry="26"/>
<text text-anchor="middle" x="811" y="-486.65" font-family="Times,serif" font-size="14.00">id_center2_baut</text>
</a>
</g>
</g>
<!-- BAut_center2_baut -->
<g id="node2" class="node">
<title>BAut_center2_baut</title>
<g id="a_node2"><a xlink:href="BAut.html#center2_baut" xlink:title="center2_baut">
<ellipse fill="#f070d1" stroke="black" cx="984" cy="-366.35" rx="71.49" ry="18"/>
<text text-anchor="middle" x="984" y="-362.65" font-family="Times,serif" font-size="14.00">center2_baut</text>
</a>
</g>
</g>
<!-- BAut_id_center2_baut&#45;&gt;BAut_center2_baut -->
<g id="edge1" class="edge">
<title>BAut_id_center2_baut&#45;&gt;BAut_center2_baut</title>
<path fill="none" stroke="black" d="M844.36,-465.83C875.68,-443.74 922.18,-410.94 952.79,-389.36"/>
<polygon fill="black" stroke="black" points="954.82,-392.21 960.97,-383.59 950.78,-386.49 954.82,-392.21"/>
</g>
<!-- BAut_merely_path_baut -->
<g id="node11" class="node">
<title>BAut_merely_path_baut</title>
<g id="a_node11"><a xlink:href="BAut.html#merely_path_baut" xlink:title="merely_path_baut">
<ellipse fill="#f070d1" stroke="black" cx="801" cy="-366.35" rx="93.68" ry="18"/>
<text text-anchor="middle" x="801" y="-362.65" font-family="Times,serif" font-size="14.00">merely_path_baut</text>
</a>
</g>
</g>
<!-- BAut_id_center2_baut&#45;&gt;BAut_merely_path_baut -->
<g id="edge2" class="edge">
<title>BAut_id_center2_baut&#45;&gt;BAut_merely_path_baut</title>
<path fill="none" stroke="black" d="M808.93,-464.07C807.26,-443.74 804.93,-415.25 803.22,-394.45"/>
<polygon fill="black" stroke="black" points="806.7,-394.04 802.39,-384.36 799.72,-394.61 806.7,-394.04"/>
</g>
<!-- BAut_trunc_baut -->
<g id="node12" class="node">
<title>BAut_trunc_baut</title>
<g id="a_node12"><a xlink:href="BAut.html#trunc_baut" xlink:title="trunc_baut">
<ellipse fill="#f070d1" stroke="black" cx="281" cy="-366.35" rx="61.19" ry="18"/>
<text text-anchor="middle" x="281" y="-362.65" font-family="Times,serif" font-size="14.00">trunc_baut</text>
</a>
</g>
</g>
<!-- BAut_id_center2_baut&#45;&gt;BAut_trunc_baut -->
<g id="edge3" class="edge">
<title>BAut_id_center2_baut&#45;&gt;BAut_trunc_baut</title>
<path fill="none" stroke="black" d="M743.33,-472.34C731.89,-469.59 720.12,-466.83 709,-464.35 550.59,-429.02 507.38,-435.75 351,-392.35 342.78,-390.07 334.13,-387.29 325.83,-384.44"/>
<polygon fill="black" stroke="black" points="326.89,-381.1 316.29,-381.07 324.56,-387.7 326.89,-381.1"/>
</g>
<!-- BAut_center2_baut_subproof0 -->
<g id="node3" class="node">
<title>BAut_center2_baut_subproof0</title>
<g id="a_node3"><a xlink:href="BAut.html#center2_baut_subproof0" xlink:title="center2_baut_subproof0">
<ellipse fill="#f070d1" stroke="black" cx="1027" cy="-252.35" rx="122.68" ry="18"/>
<text text-anchor="middle" x="1027" y="-248.65" font-family="Times,serif" font-size="14.00">center2_baut_subproof0</text>
</a>
</g>
</g>
<!-- BAut_center2_baut&#45;&gt;BAut_center2_baut_subproof0 -->
<g id="edge4" class="edge">
<title>BAut_center2_baut&#45;&gt;BAut_center2_baut_subproof0</title>
<path fill="none" stroke="black" d="M990.53,-348.34C997.51,-330.16 1008.66,-301.12 1016.8,-279.92"/>
<polygon fill="black" stroke="black" points="1020.09,-281.11 1020.41,-270.52 1013.56,-278.6 1020.09,-281.11"/>
</g>
<!-- BAut_center2_baut_subproof -->
<g id="node4" class="node">
<title>BAut_center2_baut_subproof</title>
<g id="a_node4"><a xlink:href="BAut.html#center2_baut_subproof" xlink:title="center2_baut_subproof">
<ellipse fill="#f070d1" stroke="black" cx="769" cy="-252.35" rx="116.98" ry="18"/>
<text text-anchor="middle" x="769" y="-248.65" font-family="Times,serif" font-size="14.00">center2_baut_subproof</text>
</a>
</g>
</g>
<!-- BAut_center2_baut&#45;&gt;BAut_center2_baut_subproof -->
<g id="edge5" class="edge">
<title>BAut_center2_baut&#45;&gt;BAut_center2_baut_subproof</title>
<path fill="none" stroke="black" d="M954.11,-349.77C916.37,-330.12 851.33,-296.24 809.26,-274.32"/>
<polygon fill="black" stroke="black" points="810.87,-271.21 800.39,-269.7 807.64,-277.42 810.87,-271.21"/>
</g>
<!-- BAut_baut_ind_hset -->
<g id="node7" class="node">
<title>BAut_baut_ind_hset</title>
<g id="a_node7"><a xlink:href="BAut.html#baut_ind_hset" xlink:title="baut_ind_hset">
<ellipse fill="#f070d1" stroke="black" cx="539" cy="-252.35" rx="75.29" ry="18"/>
<text text-anchor="middle" x="539" y="-248.65" font-family="Times,serif" font-size="14.00">baut_ind_hset</text>
</a>
</g>
</g>
<!-- BAut_center2_baut&#45;&gt;BAut_baut_ind_hset -->
<g id="edge6" class="edge">
<title>BAut_center2_baut&#45;&gt;BAut_baut_ind_hset</title>
<path fill="none" stroke="black" d="M942.23,-351.7C929.96,-347.85 916.49,-343.78 904,-340.35 799.32,-311.55 676.24,-283.38 603.08,-267.22"/>
<polygon fill="black" stroke="black" points="603.62,-263.75 593.1,-265.02 602.11,-270.59 603.62,-263.75"/>
</g>
<!-- BAut_trunc_el_baut -->
<g id="node10" class="node">
<title>BAut_trunc_el_baut</title>
<g id="a_node10"><a xlink:href="BAut.html#trunc_el_baut" xlink:title="trunc_el_baut">
<ellipse fill="#f070d1" stroke="black" cx="372" cy="-252.35" rx="73.39" ry="18"/>
<text text-anchor="middle" x="372" y="-248.65" font-family="Times,serif" font-size="14.00">trunc_el_baut</text>
</a>
</g>
</g>
<!-- BAut_center2_baut&#45;&gt;BAut_trunc_el_baut -->
<g id="edge7" class="edge">
<title>BAut_center2_baut&#45;&gt;BAut_trunc_el_baut</title>
<path fill="none" stroke="black" d="M943.62,-351.45C931.04,-347.47 917.04,-343.38 904,-340.35 707.3,-294.55 653.76,-306.18 455,-270.35 448.73,-269.22 442.21,-267.98 435.69,-266.71"/>
<polygon fill="black" stroke="black" points="436,-263.2 425.51,-264.69 434.64,-270.07 436,-263.2"/>
</g>
<!-- BAut_id_center_baut -->
<g id="node5" class="node">
<title>BAut_id_center_baut</title>
<g id="a_node5"><a xlink:href="BAut.html#id_center_baut" xlink:title="id_center_baut">
<ellipse fill="#f070d1" stroke="black" cx="613" cy="-490.35" rx="79.11" ry="18"/>
<ellipse fill="none" stroke="black" cx="613" cy="-490.35" rx="83.1" ry="22"/>
<ellipse fill="none" stroke="black" cx="613" cy="-490.35" rx="87.09" ry="26"/>
<text text-anchor="middle" x="613" y="-486.65" font-family="Times,serif" font-size="14.00">id_center_baut</text>
</a>
</g>
</g>
<!-- BAut_center_baut -->
<g id="node6" class="node">
<title>BAut_center_baut</title>
<g id="a_node6"><a xlink:href="BAut.html#center_baut" xlink:title="center_baut">
<ellipse fill="#f070d1" stroke="black" cx="624" cy="-366.35" rx="65.79" ry="18"/>
<text text-anchor="middle" x="624" y="-362.65" font-family="Times,serif" font-size="14.00">center_baut</text>
</a>
</g>
</g>
<!-- BAut_id_center_baut&#45;&gt;BAut_center_baut -->
<g id="edge8" class="edge">
<title>BAut_id_center_baut&#45;&gt;BAut_center_baut</title>
<path fill="none" stroke="black" d="M615.28,-464.07C617.11,-443.74 619.68,-415.25 621.56,-394.45"/>
<polygon fill="black" stroke="black" points="625.05,-394.64 622.47,-384.36 618.08,-394.01 625.05,-394.64"/>
</g>
<!-- BAut_id_center_baut&#45;&gt;BAut_merely_path_baut -->
<g id="edge9" class="edge">
<title>BAut_id_center_baut&#45;&gt;BAut_merely_path_baut</title>
<path fill="none" stroke="black" d="M648.36,-466.4C682.44,-444.29 733.63,-411.07 767.18,-389.29"/>
<polygon fill="black" stroke="black" points="769.24,-392.13 775.73,-383.75 765.43,-386.26 769.24,-392.13"/>
</g>
<!-- BAut_id_center_baut&#45;&gt;BAut_trunc_baut -->
<g id="edge10" class="edge">
<title>BAut_id_center_baut&#45;&gt;BAut_trunc_baut</title>
<path fill="none" stroke="black" d="M559.66,-469.75C495.41,-446.14 388.55,-406.87 327.51,-384.44"/>
<polygon fill="black" stroke="black" points="328.36,-381.02 317.76,-380.86 325.94,-387.59 328.36,-381.02"/>
</g>
<!-- BAut_center_baut&#45;&gt;BAut_baut_ind_hset -->
<g id="edge11" class="edge">
<title>BAut_center_baut&#45;&gt;BAut_baut_ind_hset</title>
<path fill="none" stroke="black" d="M611.09,-348.34C596.9,-329.65 573.99,-299.45 557.8,-278.13"/>
<polygon fill="black" stroke="black" points="560.59,-276 551.75,-270.15 555.01,-280.23 560.59,-276"/>
</g>
<!-- BAut_center_baut&#45;&gt;BAut_trunc_el_baut -->
<g id="edge12" class="edge">
<title>BAut_center_baut&#45;&gt;BAut_trunc_el_baut</title>
<path fill="none" stroke="black" d="M591.06,-350.71C545.93,-330.65 464.84,-294.61 414.99,-272.45"/>
<polygon fill="black" stroke="black" points="416.32,-269.21 405.76,-268.35 413.47,-275.61 416.32,-269.21"/>
</g>
<!-- BAut_BAut_pr1 -->
<g id="node16" class="node">
<title>BAut_BAut_pr1</title>
<g id="a_node16"><a xlink:href="BAut.html#BAut_pr1" xlink:title="BAut_pr1">
<ellipse fill="#f070d1" stroke="black" cx="372" cy="-150.35" rx="53.89" ry="18"/>
<text text-anchor="middle" x="372" y="-146.65" font-family="Times,serif" font-size="14.00">BAut_pr1</text>
</a>
</g>
</g>
<!-- BAut_baut_ind_hset&#45;&gt;BAut_BAut_pr1 -->
<g id="edge13" class="edge">
<title>BAut_baut_ind_hset&#45;&gt;BAut_BAut_pr1</title>
<path fill="none" stroke="black" d="M512.17,-235.28C483.3,-218 437.32,-190.46 405.96,-171.68"/>
<polygon fill="black" stroke="black" points="407.5,-168.53 397.13,-166.39 403.91,-174.53 407.5,-168.53"/>
</g>
<!-- BAut_ispointed_baut -->
<g id="node17" class="node">
<title>BAut_ispointed_baut</title>
<g id="a_node17"><a xlink:href="BAut.html#ispointed_baut" xlink:title="ispointed_baut">
<ellipse fill="#f070d1" stroke="black" cx="535" cy="-150.35" rx="79.09" ry="18"/>
<text text-anchor="middle" x="535" y="-146.65" font-family="Times,serif" font-size="14.00">ispointed_baut</text>
</a>
</g>
</g>
<!-- BAut_baut_ind_hset&#45;&gt;BAut_ispointed_baut -->
<g id="edge14" class="edge">
<title>BAut_baut_ind_hset&#45;&gt;BAut_ispointed_baut</title>
<path fill="none" stroke="black" d="M538.3,-233.93C537.7,-218.73 536.8,-196.41 536.1,-178.81"/>
<polygon fill="black" stroke="black" points="539.59,-178.42 535.69,-168.57 532.59,-178.7 539.59,-178.42"/>
</g>
<!-- BAut_ap_baut_prod_r -->
<g id="node8" class="node">
<title>BAut_ap_baut_prod_r</title>
<g id="a_node8"><a xlink:href="BAut.html#ap_baut_prod_r" xlink:title="ap_baut_prod_r">
<ellipse fill="#f070d1" stroke="black" cx="450" cy="-366.35" rx="81.8" ry="18"/>
<ellipse fill="none" stroke="black" cx="450" cy="-366.35" rx="85.79" ry="22"/>
<ellipse fill="none" stroke="black" cx="450" cy="-366.35" rx="89.79" ry="26"/>
<text text-anchor="middle" x="450" y="-362.65" font-family="Times,serif" font-size="14.00">ap_baut_prod_r</text>
</a>
</g>
</g>
<!-- BAut_baut_prod_r -->
<g id="node9" class="node">
<title>BAut_baut_prod_r</title>
<g id="a_node9"><a xlink:href="BAut.html#baut_prod_r" xlink:title="baut_prod_r">
<ellipse fill="#f070d1" stroke="black" cx="214" cy="-252.35" rx="66.09" ry="18"/>
<text text-anchor="middle" x="214" y="-248.65" font-family="Times,serif" font-size="14.00">baut_prod_r</text>
</a>
</g>
</g>
<!-- BAut_ap_baut_prod_r&#45;&gt;BAut_baut_prod_r -->
<g id="edge15" class="edge">
<title>BAut_ap_baut_prod_r&#45;&gt;BAut_baut_prod_r</title>
<path fill="none" stroke="black" d="M404.5,-343.75C361.04,-323.13 296.16,-292.34 254.46,-272.55"/>
<polygon fill="black" stroke="black" points="255.95,-269.38 245.42,-268.26 252.95,-275.71 255.95,-269.38"/>
</g>
<!-- BAut_path_baut -->
<g id="node15" class="node">
<title>BAut_path_baut</title>
<g id="a_node15"><a xlink:href="BAut.html#path_baut" xlink:title="path_baut">
<ellipse fill="#f070d1" stroke="black" cx="73" cy="-252.35" rx="57.39" ry="18"/>
<text text-anchor="middle" x="73" y="-248.65" font-family="Times,serif" font-size="14.00">path_baut</text>
</a>
</g>
</g>
<!-- BAut_ap_baut_prod_r&#45;&gt;BAut_path_baut -->
<g id="edge16" class="edge">
<title>BAut_ap_baut_prod_r&#45;&gt;BAut_path_baut</title>
<path fill="none" stroke="black" d="M389.01,-347.23C314.92,-325.22 191.36,-288.51 122.75,-268.13"/>
<polygon fill="black" stroke="black" points="123.62,-264.74 113.04,-265.24 121.63,-271.45 123.62,-264.74"/>
</g>
<!-- BAut_baut_prod_r&#45;&gt;BAut_BAut_pr1 -->
<g id="edge17" class="edge">
<title>BAut_baut_prod_r&#45;&gt;BAut_BAut_pr1</title>
<path fill="none" stroke="black" d="M239.04,-235.5C266.08,-218.38 309.3,-191.03 339.08,-172.18"/>
<polygon fill="black" stroke="black" points="341.28,-174.93 347.86,-166.63 337.54,-169.02 341.28,-174.93"/>
</g>
<!-- BAut_trunc_el_baut&#45;&gt;BAut_BAut_pr1 -->
<g id="edge18" class="edge">
<title>BAut_trunc_el_baut&#45;&gt;BAut_BAut_pr1</title>
<path fill="none" stroke="black" d="M372,-233.93C372,-218.73 372,-196.41 372,-178.81"/>
<polygon fill="black" stroke="black" points="375.5,-178.57 372,-168.57 368.5,-178.57 375.5,-178.57"/>
</g>
<!-- BAut_BAut -->
<g id="node18" class="node">
<title>BAut_BAut</title>
<g id="a_node18"><a xlink:href="BAut.html#BAut" xlink:title="BAut">
<ellipse fill="#f070d1" stroke="black" cx="535" cy="-48.35" rx="33.6" ry="18"/>
<text text-anchor="middle" x="535" y="-44.65" font-family="Times,serif" font-size="14.00">BAut</text>
</a>
</g>
</g>
<!-- BAut_merely_path_baut&#45;&gt;BAut_BAut -->
<g id="edge19" class="edge">
<title>BAut_merely_path_baut&#45;&gt;BAut_BAut</title>
<path fill="none" stroke="black" d="M755.84,-350.54C719.26,-336.07 669.58,-310.33 643,-270.35 608.69,-218.74 651.58,-187.34 623,-132.35 609.36,-106.1 584.08,-83.6 564.11,-68.68"/>
<polygon fill="black" stroke="black" points="566.07,-65.78 555.92,-62.76 561.97,-71.46 566.07,-65.78"/>
</g>
<!-- BAut_trunc_baut&#45;&gt;BAut_path_baut -->
<g id="edge20" class="edge">
<title>BAut_trunc_baut&#45;&gt;BAut_path_baut</title>
<path fill="none" stroke="black" d="M252.95,-350.24C215.84,-330.26 150.35,-295 109.44,-272.97"/>
<polygon fill="black" stroke="black" points="111.07,-269.87 100.61,-268.21 107.75,-276.04 111.07,-269.87"/>
</g>
<!-- BAut_transport_path_baut -->
<g id="node13" class="node">
<title>BAut_transport_path_baut</title>
<g id="a_node13"><a xlink:href="BAut.html#transport_path_baut" xlink:title="transport_path_baut">
<ellipse fill="#f070d1" stroke="black" cx="129" cy="-490.35" rx="105.1" ry="18"/>
<ellipse fill="none" stroke="black" cx="129" cy="-490.35" rx="109.09" ry="22"/>
<ellipse fill="none" stroke="black" cx="129" cy="-490.35" rx="113.08" ry="26"/>
<text text-anchor="middle" x="129" y="-486.65" font-family="Times,serif" font-size="14.00">transport_path_baut</text>
</a>
</g>
</g>
<!-- BAut_ap_pr1_path_baut -->
<g id="node14" class="node">
<title>BAut_ap_pr1_path_baut</title>
<g id="a_node14"><a xlink:href="BAut.html#ap_pr1_path_baut" xlink:title="ap_pr1_path_baut">
<ellipse fill="#f070d1" stroke="black" cx="109" cy="-366.35" rx="92.88" ry="18"/>
<text text-anchor="middle" x="109" y="-362.65" font-family="Times,serif" font-size="14.00">ap_pr1_path_baut</text>
</a>
</g>
</g>
<!-- BAut_transport_path_baut&#45;&gt;BAut_ap_pr1_path_baut -->
<g id="edge21" class="edge">
<title>BAut_transport_path_baut&#45;&gt;BAut_ap_pr1_path_baut</title>
<path fill="none" stroke="black" d="M124.86,-464.07C121.52,-443.74 116.85,-415.25 113.44,-394.45"/>
<polygon fill="black" stroke="black" points="116.86,-393.66 111.79,-384.36 109.95,-394.8 116.86,-393.66"/>
</g>
<!-- BAut_ap_pr1_path_baut&#45;&gt;BAut_path_baut -->
<g id="edge22" class="edge">
<title>BAut_ap_pr1_path_baut&#45;&gt;BAut_path_baut</title>
<path fill="none" stroke="black" d="M103.53,-348.34C97.72,-330.25 88.44,-301.38 81.63,-280.21"/>
<polygon fill="black" stroke="black" points="84.91,-278.97 78.52,-270.52 78.25,-281.11 84.91,-278.97"/>
</g>
<!-- BAut_path_baut&#45;&gt;BAut_BAut_pr1 -->
<g id="edge23" class="edge">
<title>BAut_path_baut&#45;&gt;BAut_BAut_pr1</title>
<path fill="none" stroke="black" d="M110.87,-238.68C165.53,-220.4 266.47,-186.64 325.56,-166.88"/>
<polygon fill="black" stroke="black" points="327,-170.09 335.37,-163.6 324.78,-163.45 327,-170.09"/>
</g>
<!-- BAut_BAut_pr1&#45;&gt;BAut_BAut -->
<g id="edge24" class="edge">
<title>BAut_BAut_pr1&#45;&gt;BAut_BAut</title>
<path fill="none" stroke="black" d="M396.76,-134.16C425.78,-116.36 473.85,-86.86 504.97,-67.77"/>
<polygon fill="black" stroke="black" points="506.96,-70.65 513.66,-62.44 503.3,-64.69 506.96,-70.65"/>
</g>
<!-- BAut_ispointed_baut&#45;&gt;BAut_BAut -->
<g id="edge25" class="edge">
<title>BAut_ispointed_baut&#45;&gt;BAut_BAut</title>
<path fill="none" stroke="black" d="M535,-131.93C535,-116.73 535,-94.41 535,-76.81"/>
<polygon fill="black" stroke="black" points="538.5,-76.57 535,-66.57 531.5,-76.57 538.5,-76.57"/>
</g>
</g>
</svg>
