<?xml version="1.0" encoding="UTF-8" standalone="no"?>
<!DOCTYPE svg PUBLIC "-//W3C//DTD SVG 1.1//EN"
 "http://www.w3.org/Graphics/SVG/1.1/DTD/svg11.dtd">
<!-- Generated by graphviz version 2.43.0 (0)
 -->
<!-- Title: HoTT_WildCat_NatTrans Pages: 1 -->
<svg width="3849pt" height="1929pt"
 viewBox="0.00 0.00 3849.00 1928.50" xmlns="http://www.w3.org/2000/svg" xmlns:xlink="http://www.w3.org/1999/xlink">
<g id="graph0" class="graph" transform="scale(1 1) rotate(0) translate(4 1924.5)">
<title>HoTT_WildCat_NatTrans</title>
<polygon fill="white" stroke="transparent" points="-4,4 -4,-1924.5 3845,-1924.5 3845,4 -4,4"/>
<g id="clust1" class="cluster">
<title>cluster_NatTrans</title>
<polygon fill="#ffffc3" stroke="black" points="8,-35.98 8,-1884.52 3833,-1884.52 3833,-35.98 8,-35.98"/>
<text text-anchor="middle" x="49.5" y="-1869.32" font-family="Times,serif" font-size="14.00">NatTrans</text>
</g>
<!-- NatTrans_natequiv_functor_assoc_ff_f -->
<g id="node1" class="node">
<title>NatTrans_natequiv_functor_assoc_ff_f</title>
<g id="a_node1"><a xlink:href="NatTrans.html#natequiv_functor_assoc_ff_f" xlink:title="natequiv_functor_assoc_ff_f">
<ellipse fill="#f070d1" stroke="black" cx="3151" cy="-1231.98" rx="137.59" ry="18"/>
<ellipse fill="none" stroke="black" cx="3151" cy="-1231.98" rx="141.58" ry="22"/>
<ellipse fill="none" stroke="black" cx="3151" cy="-1231.98" rx="145.58" ry="26"/>
<text text-anchor="middle" x="3151" y="-1228.28" font-family="Times,serif" font-size="14.00">natequiv_functor_assoc_ff_f</text>
</a>
</g>
</g>
<!-- NatTrans_Build_NatEquiv -->
<g id="node13" class="node">
<title>NatTrans_Build_NatEquiv</title>
<g id="a_node13"><a xlink:href="NatTrans.html#Build_NatEquiv" xlink:title="Build_NatEquiv">
<ellipse fill="#7faaff" stroke="black" cx="2688" cy="-836.98" rx="83.39" ry="18"/>
<text text-anchor="middle" x="2688" y="-833.28" font-family="Times,serif" font-size="14.00">Build_NatEquiv</text>
</a>
</g>
</g>
<!-- NatTrans_natequiv_functor_assoc_ff_f&#45;&gt;NatTrans_Build_NatEquiv -->
<g id="edge1" class="edge">
<title>NatTrans_natequiv_functor_assoc_ff_f&#45;&gt;NatTrans_Build_NatEquiv</title>
<path fill="none" stroke="black" d="M3122.04,-1206.4C3038.4,-1135.4 2797.25,-930.71 2715.49,-861.31"/>
<polygon fill="black" stroke="black" points="2717.53,-858.46 2707.64,-854.65 2713,-863.79 2717.53,-858.46"/>
</g>
<!-- NatTrans_NatEquiv -->
<g id="node14" class="node">
<title>NatTrans_NatEquiv</title>
<g id="a_node14"><a xlink:href="NatTrans.html#NatEquiv" xlink:title="NatEquiv">
<ellipse fill="#e2cdfa" stroke="black" cx="2452" cy="-836.98" rx="54.69" ry="18"/>
<text text-anchor="middle" x="2452" y="-833.28" font-family="Times,serif" font-size="14.00">NatEquiv</text>
</a>
</g>
</g>
<!-- NatTrans_natequiv_functor_assoc_ff_f&#45;&gt;NatTrans_NatEquiv -->
<g id="edge2" class="edge">
<title>NatTrans_natequiv_functor_assoc_ff_f&#45;&gt;NatTrans_NatEquiv</title>
<path fill="none" stroke="black" d="M3108.33,-1206.99C2980.91,-1135.35 2604.82,-923.9 2487.42,-857.9"/>
<polygon fill="black" stroke="black" points="2488.89,-854.71 2478.46,-852.86 2485.46,-860.81 2488.89,-854.71"/>
</g>
<!-- NatTrans_natequiv_inverse -->
<g id="node2" class="node">
<title>NatTrans_natequiv_inverse</title>
<g id="a_node2"><a xlink:href="NatTrans.html#natequiv_inverse" xlink:title="natequiv_inverse">
<ellipse fill="#f070d1" stroke="black" cx="2890" cy="-1231.98" rx="89.87" ry="18"/>
<ellipse fill="none" stroke="black" cx="2890" cy="-1231.98" rx="93.88" ry="22"/>
<ellipse fill="none" stroke="black" cx="2890" cy="-1231.98" rx="97.88" ry="26"/>
<text text-anchor="middle" x="2890" y="-1228.28" font-family="Times,serif" font-size="14.00">natequiv_inverse</text>
</a>
</g>
</g>
<!-- NatTrans_natequiv_inverse&#45;&gt;NatTrans_Build_NatEquiv -->
<g id="edge3" class="edge">
<title>NatTrans_natequiv_inverse&#45;&gt;NatTrans_Build_NatEquiv</title>
<path fill="none" stroke="black" d="M2877.21,-1206.1C2841.1,-1135.84 2738.57,-936.37 2701.55,-864.33"/>
<polygon fill="black" stroke="black" points="2704.45,-862.34 2696.77,-855.04 2698.23,-865.54 2704.45,-862.34"/>
</g>
<!-- NatTrans_natequiv_inverse&#45;&gt;NatTrans_NatEquiv -->
<g id="edge4" class="edge">
<title>NatTrans_natequiv_inverse&#45;&gt;NatTrans_NatEquiv</title>
<path fill="none" stroke="black" d="M2862.93,-1206.69C2784.11,-1135.97 2555.45,-930.8 2478,-861.31"/>
<polygon fill="black" stroke="black" points="2479.93,-858.34 2470.15,-854.27 2475.26,-863.55 2479.93,-858.34"/>
</g>
<!-- NatTrans_natequiv_postwhisker -->
<g id="node3" class="node">
<title>NatTrans_natequiv_postwhisker</title>
<g id="a_node3"><a xlink:href="NatTrans.html#natequiv_postwhisker" xlink:title="natequiv_postwhisker">
<ellipse fill="#f070d1" stroke="black" cx="3705" cy="-1231.98" rx="112.38" ry="18"/>
<ellipse fill="none" stroke="black" cx="3705" cy="-1231.98" rx="116.38" ry="22"/>
<ellipse fill="none" stroke="black" cx="3705" cy="-1231.98" rx="120.38" ry="26"/>
<text text-anchor="middle" x="3705" y="-1228.28" font-family="Times,serif" font-size="14.00">natequiv_postwhisker</text>
</a>
</g>
</g>
<!-- NatTrans_natequiv_postwhisker&#45;&gt;NatTrans_Build_NatEquiv -->
<g id="edge5" class="edge">
<title>NatTrans_natequiv_postwhisker&#45;&gt;NatTrans_Build_NatEquiv</title>
<path fill="none" stroke="black" d="M3648.14,-1209.01C3466.87,-1138.96 2904.66,-921.71 2736.19,-856.6"/>
<polygon fill="black" stroke="black" points="2737.42,-853.33 2726.83,-852.99 2734.9,-859.86 2737.42,-853.33"/>
</g>
<!-- NatTrans_natequiv_postwhisker&#45;&gt;NatTrans_NatEquiv -->
<g id="edge6" class="edge">
<title>NatTrans_natequiv_postwhisker&#45;&gt;NatTrans_NatEquiv</title>
<path fill="none" stroke="black" d="M3638.52,-1210.13C3414.86,-1139.98 2692.9,-913.54 2499.85,-852.99"/>
<polygon fill="black" stroke="black" points="2500.85,-849.64 2490.26,-849.98 2498.76,-856.31 2500.85,-849.64"/>
</g>
<!-- NatTrans_is1natural_postwhisker -->
<g id="node16" class="node">
<title>NatTrans_is1natural_postwhisker</title>
<g id="a_node16"><a xlink:href="NatTrans.html#is1natural_postwhisker" xlink:title="is1natural_postwhisker">
<ellipse fill="#f070d1" stroke="black" cx="3155" cy="-836.98" rx="118.88" ry="18"/>
<text text-anchor="middle" x="3155" y="-833.28" font-family="Times,serif" font-size="14.00">is1natural_postwhisker</text>
</a>
</g>
</g>
<!-- NatTrans_natequiv_postwhisker&#45;&gt;NatTrans_is1natural_postwhisker -->
<g id="edge7" class="edge">
<title>NatTrans_natequiv_postwhisker&#45;&gt;NatTrans_is1natural_postwhisker</title>
<path fill="none" stroke="black" d="M3671.42,-1206.99C3572.49,-1136.3 3283,-929.44 3186.62,-860.58"/>
<polygon fill="black" stroke="black" points="3188.61,-857.69 3178.44,-854.73 3184.54,-863.39 3188.61,-857.69"/>
</g>
<!-- NatTrans_natequiv_prewhisker -->
<g id="node4" class="node">
<title>NatTrans_natequiv_prewhisker</title>
<g id="a_node4"><a xlink:href="NatTrans.html#natequiv_prewhisker" xlink:title="natequiv_prewhisker">
<ellipse fill="#f070d1" stroke="black" cx="3451" cy="-1231.98" rx="107.79" ry="18"/>
<ellipse fill="none" stroke="black" cx="3451" cy="-1231.98" rx="111.78" ry="22"/>
<ellipse fill="none" stroke="black" cx="3451" cy="-1231.98" rx="115.78" ry="26"/>
<text text-anchor="middle" x="3451" y="-1228.28" font-family="Times,serif" font-size="14.00">natequiv_prewhisker</text>
</a>
</g>
</g>
<!-- NatTrans_natequiv_prewhisker&#45;&gt;NatTrans_Build_NatEquiv -->
<g id="edge8" class="edge">
<title>NatTrans_natequiv_prewhisker&#45;&gt;NatTrans_Build_NatEquiv</title>
<path fill="none" stroke="black" d="M3406.12,-1207.86C3269.15,-1137.32 2857.97,-925.53 2727.9,-858.53"/>
<polygon fill="black" stroke="black" points="2729.17,-855.25 2718.67,-853.78 2725.96,-861.47 2729.17,-855.25"/>
</g>
<!-- NatTrans_natequiv_prewhisker&#45;&gt;NatTrans_NatEquiv -->
<g id="edge9" class="edge">
<title>NatTrans_natequiv_prewhisker&#45;&gt;NatTrans_NatEquiv</title>
<path fill="none" stroke="black" d="M3395.51,-1209.15C3216.41,-1138.69 2656.06,-918.26 2495.43,-855.07"/>
<polygon fill="black" stroke="black" points="2496.46,-851.71 2485.88,-851.31 2493.9,-858.23 2496.46,-851.71"/>
</g>
<!-- NatTrans_is1natural_prewhisker -->
<g id="node17" class="node">
<title>NatTrans_is1natural_prewhisker</title>
<g id="a_node17"><a xlink:href="NatTrans.html#is1natural_prewhisker" xlink:title="is1natural_prewhisker">
<ellipse fill="#f070d1" stroke="black" cx="2904" cy="-836.98" rx="114.28" ry="18"/>
<text text-anchor="middle" x="2904" y="-833.28" font-family="Times,serif" font-size="14.00">is1natural_prewhisker</text>
</a>
</g>
</g>
<!-- NatTrans_natequiv_prewhisker&#45;&gt;NatTrans_is1natural_prewhisker -->
<g id="edge10" class="edge">
<title>NatTrans_natequiv_prewhisker&#45;&gt;NatTrans_is1natural_prewhisker</title>
<path fill="none" stroke="black" d="M3417.61,-1206.99C3319.21,-1136.3 3031.3,-929.44 2935.45,-860.58"/>
<polygon fill="black" stroke="black" points="2937.47,-857.72 2927.31,-854.73 2933.39,-863.4 2937.47,-857.72"/>
</g>
<!-- NatTrans_natequiv_compose -->
<g id="node5" class="node">
<title>NatTrans_natequiv_compose</title>
<g id="a_node5"><a xlink:href="NatTrans.html#natequiv_compose" xlink:title="natequiv_compose">
<ellipse fill="#f070d1" stroke="black" cx="2456" cy="-1627.98" rx="96.37" ry="18"/>
<ellipse fill="none" stroke="black" cx="2456" cy="-1627.98" rx="100.38" ry="22"/>
<ellipse fill="none" stroke="black" cx="2456" cy="-1627.98" rx="104.38" ry="26"/>
<text text-anchor="middle" x="2456" y="-1624.28" font-family="Times,serif" font-size="14.00">natequiv_compose</text>
</a>
</g>
</g>
<!-- NatTrans_natequiv_compose&#45;&gt;NatTrans_Build_NatEquiv -->
<g id="edge11" class="edge">
<title>NatTrans_natequiv_compose&#45;&gt;NatTrans_Build_NatEquiv</title>
<path fill="none" stroke="black" d="M2552.72,-1618.28C2737,-1595.89 3135.24,-1518.26 3306,-1257.98 3382.76,-1140.98 2891.27,-922.91 2734.76,-857.2"/>
<polygon fill="black" stroke="black" points="2735.95,-853.91 2725.37,-853.28 2733.25,-860.37 2735.95,-853.91"/>
</g>
<!-- NatTrans_natequiv_compose&#45;&gt;NatTrans_NatEquiv -->
<g id="edge12" class="edge">
<title>NatTrans_natequiv_compose&#45;&gt;NatTrans_NatEquiv</title>
<path fill="none" stroke="black" d="M2451.91,-1601.57C2442.54,-1541.85 2419.71,-1387.75 2412,-1257.98 2403.17,-1109.41 2433.56,-932.1 2446.47,-865.26"/>
<polygon fill="black" stroke="black" points="2449.96,-865.64 2448.45,-855.15 2443.09,-864.29 2449.96,-865.64"/>
</g>
<!-- NatTrans_is1natural_comp -->
<g id="node18" class="node">
<title>NatTrans_is1natural_comp</title>
<g id="a_node18"><a xlink:href="NatTrans.html#is1natural_comp" xlink:title="is1natural_comp">
<ellipse fill="#f070d1" stroke="black" cx="1457" cy="-1231.98" rx="87.18" ry="18"/>
<text text-anchor="middle" x="1457" y="-1228.28" font-family="Times,serif" font-size="14.00">is1natural_comp</text>
</a>
</g>
</g>
<!-- NatTrans_natequiv_compose&#45;&gt;NatTrans_is1natural_comp -->
<g id="edge13" class="edge">
<title>NatTrans_natequiv_compose&#45;&gt;NatTrans_is1natural_comp</title>
<path fill="none" stroke="black" d="M2401.94,-1605.66C2226.09,-1536.31 1672.14,-1317.83 1505.13,-1251.96"/>
<polygon fill="black" stroke="black" points="1506.2,-1248.62 1495.61,-1248.21 1503.63,-1255.13 1506.2,-1248.62"/>
</g>
<!-- NatTrans_trans_natequiv -->
<g id="node6" class="node">
<title>NatTrans_trans_natequiv</title>
<g id="a_node6"><a xlink:href="NatTrans.html#trans_natequiv" xlink:title="trans_natequiv">
<ellipse fill="#f070d1" stroke="black" cx="1890" cy="-1231.98" rx="79.89" ry="18"/>
<ellipse fill="none" stroke="black" cx="1890" cy="-1231.98" rx="83.89" ry="22"/>
<ellipse fill="none" stroke="black" cx="1890" cy="-1231.98" rx="87.89" ry="26"/>
<text text-anchor="middle" x="1890" y="-1228.28" font-family="Times,serif" font-size="14.00">trans_natequiv</text>
</a>
</g>
</g>
<!-- NatTrans_trans_natequiv&#45;&gt;NatTrans_NatEquiv -->
<g id="edge14" class="edge">
<title>NatTrans_trans_natequiv&#45;&gt;NatTrans_NatEquiv</title>
<path fill="none" stroke="black" d="M1923.06,-1207.86C2023.55,-1137.59 2324.47,-927.16 2421.49,-859.32"/>
<polygon fill="black" stroke="black" points="2423.51,-862.17 2429.7,-853.57 2419.5,-856.44 2423.51,-862.17"/>
</g>
<!-- NatTrans_is1natural_natequiv -->
<g id="node7" class="node">
<title>NatTrans_is1natural_natequiv</title>
<g id="a_node7"><a xlink:href="NatTrans.html#is1natural_natequiv" xlink:title="is1natural_natequiv">
<ellipse fill="#f070d1" stroke="black" cx="1673" cy="-1231.98" rx="102.87" ry="18"/>
<ellipse fill="none" stroke="black" cx="1673" cy="-1231.98" rx="106.88" ry="22"/>
<ellipse fill="none" stroke="black" cx="1673" cy="-1231.98" rx="110.88" ry="26"/>
<text text-anchor="middle" x="1673" y="-1228.28" font-family="Times,serif" font-size="14.00">is1natural_natequiv</text>
</a>
</g>
</g>
<!-- NatTrans_is1natural_natequiv&#45;&gt;NatTrans_NatEquiv -->
<g id="edge15" class="edge">
<title>NatTrans_is1natural_natequiv&#45;&gt;NatTrans_NatEquiv</title>
<path fill="none" stroke="black" d="M1718.25,-1208.15C1858.59,-1137.35 2284.82,-922.32 2414.3,-857"/>
<polygon fill="black" stroke="black" points="2416.1,-860.01 2423.45,-852.38 2412.95,-853.76 2416.1,-860.01"/>
</g>
<!-- NatTrans_cat_equiv_natequiv -->
<g id="node8" class="node">
<title>NatTrans_cat_equiv_natequiv</title>
<g id="a_node8"><a xlink:href="NatTrans.html#cat_equiv_natequiv" xlink:title="cat_equiv_natequiv">
<ellipse fill="#f070d1" stroke="black" cx="2103" cy="-1231.98" rx="99.39" ry="18"/>
<ellipse fill="none" stroke="black" cx="2103" cy="-1231.98" rx="103.38" ry="22"/>
<ellipse fill="none" stroke="black" cx="2103" cy="-1231.98" rx="107.38" ry="26"/>
<text text-anchor="middle" x="2103" y="-1228.28" font-family="Times,serif" font-size="14.00">cat_equiv_natequiv</text>
</a>
</g>
</g>
<!-- NatTrans_cat_equiv_natequiv&#45;&gt;NatTrans_NatEquiv -->
<g id="edge16" class="edge">
<title>NatTrans_cat_equiv_natequiv&#45;&gt;NatTrans_NatEquiv</title>
<path fill="none" stroke="black" d="M2124.83,-1206.4C2187.62,-1135.69 2368.18,-932.37 2430.53,-862.16"/>
<polygon fill="black" stroke="black" points="2433.17,-864.46 2437.19,-854.65 2427.94,-859.81 2433.17,-864.46"/>
</g>
<!-- NatTrans_NatEquiv_sind -->
<g id="node9" class="node">
<title>NatTrans_NatEquiv_sind</title>
<g id="a_node9"><a xlink:href="NatTrans.html#NatEquiv_sind" xlink:title="NatEquiv_sind">
<ellipse fill="#f070d1" stroke="black" cx="2688" cy="-1231.98" rx="78.77" ry="18"/>
<ellipse fill="none" stroke="black" cx="2688" cy="-1231.98" rx="82.78" ry="22"/>
<ellipse fill="none" stroke="black" cx="2688" cy="-1231.98" rx="86.79" ry="26"/>
<text text-anchor="middle" x="2688" y="-1228.28" font-family="Times,serif" font-size="14.00">NatEquiv_sind</text>
</a>
</g>
</g>
<!-- NatTrans_NatEquiv_sind&#45;&gt;NatTrans_Build_NatEquiv -->
<g id="edge17" class="edge">
<title>NatTrans_NatEquiv_sind&#45;&gt;NatTrans_Build_NatEquiv</title>
<path fill="none" stroke="black" d="M2688,-1205.8C2688,-1135.54 2688,-937.78 2688,-865.17"/>
<polygon fill="black" stroke="black" points="2691.5,-865.01 2688,-855.01 2684.5,-865.01 2691.5,-865.01"/>
</g>
<!-- NatTrans_NatEquiv_sind&#45;&gt;NatTrans_NatEquiv -->
<g id="edge18" class="edge">
<title>NatTrans_NatEquiv_sind&#45;&gt;NatTrans_NatEquiv</title>
<path fill="none" stroke="black" d="M2673.06,-1206.1C2630.78,-1135.69 2510.59,-935.55 2467.56,-863.89"/>
<polygon fill="black" stroke="black" points="2470.39,-861.81 2462.25,-855.04 2464.39,-865.42 2470.39,-861.81"/>
</g>
<!-- NatTrans_NatEquiv_rec -->
<g id="node10" class="node">
<title>NatTrans_NatEquiv_rec</title>
<g id="a_node10"><a xlink:href="NatTrans.html#NatEquiv_rec" xlink:title="NatEquiv_rec">
<ellipse fill="#f070d1" stroke="black" cx="2252" cy="-1627.98" rx="73.39" ry="18"/>
<ellipse fill="none" stroke="black" cx="2252" cy="-1627.98" rx="77.39" ry="22"/>
<ellipse fill="none" stroke="black" cx="2252" cy="-1627.98" rx="81.39" ry="26"/>
<text text-anchor="middle" x="2252" y="-1624.28" font-family="Times,serif" font-size="14.00">NatEquiv_rec</text>
</a>
</g>
</g>
<!-- NatTrans_NatEquiv_rect -->
<g id="node12" class="node">
<title>NatTrans_NatEquiv_rect</title>
<g id="a_node12"><a xlink:href="NatTrans.html#NatEquiv_rect" xlink:title="NatEquiv_rect">
<ellipse fill="#f070d1" stroke="black" cx="2306" cy="-1231.98" rx="77.19" ry="18"/>
<text text-anchor="middle" x="2306" y="-1228.28" font-family="Times,serif" font-size="14.00">NatEquiv_rect</text>
</a>
</g>
</g>
<!-- NatTrans_NatEquiv_rec&#45;&gt;NatTrans_NatEquiv_rect -->
<g id="edge19" class="edge">
<title>NatTrans_NatEquiv_rec&#45;&gt;NatTrans_NatEquiv_rect</title>
<path fill="none" stroke="black" d="M2255.46,-1601.74C2265.11,-1531.3 2292.29,-1333.04 2302.26,-1260.24"/>
<polygon fill="black" stroke="black" points="2305.77,-1260.43 2303.66,-1250.05 2298.84,-1259.48 2305.77,-1260.43"/>
</g>
<!-- NatTrans_NatEquiv_ind -->
<g id="node11" class="node">
<title>NatTrans_NatEquiv_ind</title>
<g id="a_node11"><a xlink:href="NatTrans.html#NatEquiv_ind" xlink:title="NatEquiv_ind">
<ellipse fill="#7fffd4" stroke="black" cx="2502" cy="-1231.98" rx="73.39" ry="18"/>
<ellipse fill="none" stroke="black" cx="2502" cy="-1231.98" rx="77.39" ry="22"/>
<ellipse fill="none" stroke="black" cx="2502" cy="-1231.98" rx="81.39" ry="26"/>
<text text-anchor="middle" x="2502" y="-1228.28" font-family="Times,serif" font-size="14.00">NatEquiv_ind</text>
</a>
</g>
</g>
<!-- NatTrans_NatEquiv_ind&#45;&gt;NatTrans_Build_NatEquiv -->
<g id="edge20" class="edge">
<title>NatTrans_NatEquiv_ind&#45;&gt;NatTrans_Build_NatEquiv</title>
<path fill="none" stroke="black" d="M2513.78,-1206.1C2547.03,-1135.84 2641.44,-936.37 2675.53,-864.33"/>
<polygon fill="black" stroke="black" points="2678.81,-865.58 2679.92,-855.04 2672.48,-862.59 2678.81,-865.58"/>
</g>
<!-- NatTrans_NatEquiv_ind&#45;&gt;NatTrans_NatEquiv -->
<g id="edge21" class="edge">
<title>NatTrans_NatEquiv_ind&#45;&gt;NatTrans_NatEquiv</title>
<path fill="none" stroke="black" d="M2498.8,-1205.8C2489.86,-1135.54 2464.7,-937.78 2455.46,-865.17"/>
<polygon fill="black" stroke="black" points="2458.9,-864.48 2454.17,-855.01 2451.96,-865.37 2458.9,-864.48"/>
</g>
<!-- NatTrans_NatEquiv_rect&#45;&gt;NatTrans_Build_NatEquiv -->
<g id="edge22" class="edge">
<title>NatTrans_NatEquiv_rect&#45;&gt;NatTrans_Build_NatEquiv</title>
<path fill="none" stroke="black" d="M2322.41,-1214.09C2382.9,-1151.86 2593.51,-935.19 2664.46,-862.2"/>
<polygon fill="black" stroke="black" points="2667.19,-864.42 2671.65,-854.81 2662.17,-859.54 2667.19,-864.42"/>
</g>
<!-- NatTrans_NatEquiv_rect&#45;&gt;NatTrans_NatEquiv -->
<g id="edge23" class="edge">
<title>NatTrans_NatEquiv_rect&#45;&gt;NatTrans_NatEquiv</title>
<path fill="none" stroke="black" d="M2312.37,-1213.84C2335.33,-1152.04 2413.98,-940.32 2441.99,-864.92"/>
<polygon fill="black" stroke="black" points="2445.4,-865.8 2445.6,-855.21 2438.84,-863.37 2445.4,-865.8"/>
</g>
<!-- NatTrans_Is1Natural -->
<g id="node34" class="node">
<title>NatTrans_Is1Natural</title>
<g id="a_node34"><a xlink:href="NatTrans.html#Is1Natural" xlink:title="Is1Natural">
<ellipse fill="#f070d1" stroke="black" cx="2155" cy="-476.98" rx="60.39" ry="18"/>
<text text-anchor="middle" x="2155" y="-473.28" font-family="Times,serif" font-size="14.00">Is1Natural</text>
</a>
</g>
</g>
<!-- NatTrans_Build_NatEquiv&#45;&gt;NatTrans_Is1Natural -->
<g id="edge24" class="edge">
<title>NatTrans_Build_NatEquiv&#45;&gt;NatTrans_Is1Natural</title>
<path fill="none" stroke="black" d="M2663.71,-819.67C2577.31,-761.64 2284.81,-565.17 2187.09,-499.53"/>
<polygon fill="black" stroke="black" points="2188.77,-496.45 2178.52,-493.78 2184.87,-502.26 2188.77,-496.45"/>
</g>
<!-- NatTrans_NatEquiv&#45;&gt;NatTrans_Is1Natural -->
<g id="edge25" class="edge">
<title>NatTrans_NatEquiv&#45;&gt;NatTrans_Is1Natural</title>
<path fill="none" stroke="black" d="M2438.07,-819.19C2390.23,-761.53 2232.43,-571.32 2175.62,-502.83"/>
<polygon fill="black" stroke="black" points="2177.98,-500.19 2168.9,-494.73 2172.59,-504.66 2177.98,-500.19"/>
</g>
<!-- NatTrans_is1natural_homotopic -->
<g id="node15" class="node">
<title>NatTrans_is1natural_homotopic</title>
<g id="a_node15"><a xlink:href="NatTrans.html#is1natural_homotopic" xlink:title="is1natural_homotopic">
<ellipse fill="#f070d1" stroke="black" cx="1107" cy="-1231.98" rx="110.48" ry="18"/>
<ellipse fill="none" stroke="black" cx="1107" cy="-1231.98" rx="114.48" ry="22"/>
<ellipse fill="none" stroke="black" cx="1107" cy="-1231.98" rx="118.48" ry="26"/>
<text text-anchor="middle" x="1107" y="-1228.28" font-family="Times,serif" font-size="14.00">is1natural_homotopic</text>
</a>
</g>
</g>
<!-- NatTrans_isnat -->
<g id="node33" class="node">
<title>NatTrans_isnat</title>
<g id="a_node33"><a xlink:href="NatTrans.html#isnat" xlink:title="isnat">
<ellipse fill="#f070d1" stroke="black" cx="1376" cy="-836.98" rx="33.6" ry="18"/>
<text text-anchor="middle" x="1376" y="-833.28" font-family="Times,serif" font-size="14.00">isnat</text>
</a>
</g>
</g>
<!-- NatTrans_is1natural_homotopic&#45;&gt;NatTrans_isnat -->
<g id="edge26" class="edge">
<title>NatTrans_is1natural_homotopic&#45;&gt;NatTrans_isnat</title>
<path fill="none" stroke="black" d="M1124.03,-1206.1C1172.54,-1135.23 1311.04,-932.89 1359.23,-862.48"/>
<polygon fill="black" stroke="black" points="1362.14,-864.43 1364.9,-854.2 1356.36,-860.47 1362.14,-864.43"/>
</g>
<!-- NatTrans_trans_postwhisker -->
<g id="node19" class="node">
<title>NatTrans_trans_postwhisker</title>
<g id="a_node19"><a xlink:href="NatTrans.html#trans_postwhisker" xlink:title="trans_postwhisker">
<ellipse fill="#f070d1" stroke="black" cx="3103" cy="-476.98" rx="96.38" ry="18"/>
<text text-anchor="middle" x="3103" y="-473.28" font-family="Times,serif" font-size="14.00">trans_postwhisker</text>
</a>
</g>
</g>
<!-- NatTrans_is1natural_postwhisker&#45;&gt;NatTrans_trans_postwhisker -->
<g id="edge27" class="edge">
<title>NatTrans_is1natural_postwhisker&#45;&gt;NatTrans_trans_postwhisker</title>
<path fill="none" stroke="black" d="M3152.49,-818.71C3144.13,-761.17 3117.18,-575.64 3106.97,-505.33"/>
<polygon fill="black" stroke="black" points="3110.38,-504.47 3105.48,-495.08 3103.46,-505.47 3110.38,-504.47"/>
</g>
<!-- NatTrans_is1natural_postwhisker&#45;&gt;NatTrans_Is1Natural -->
<g id="edge28" class="edge">
<title>NatTrans_is1natural_postwhisker&#45;&gt;NatTrans_Is1Natural</title>
<path fill="none" stroke="black" d="M3111.07,-820.25C2946.87,-761.47 2370.1,-554.99 2201.57,-494.65"/>
<polygon fill="black" stroke="black" points="2202.59,-491.3 2191.99,-491.23 2200.23,-497.89 2202.59,-491.3"/>
</g>
<!-- NatTrans_trans_prewhisker -->
<g id="node20" class="node">
<title>NatTrans_trans_prewhisker</title>
<g id="a_node20"><a xlink:href="NatTrans.html#trans_prewhisker" xlink:title="trans_prewhisker">
<ellipse fill="#f070d1" stroke="black" cx="2691" cy="-476.98" rx="91.78" ry="18"/>
<text text-anchor="middle" x="2691" y="-473.28" font-family="Times,serif" font-size="14.00">trans_prewhisker</text>
</a>
</g>
</g>
<!-- NatTrans_is1natural_prewhisker&#45;&gt;NatTrans_trans_prewhisker -->
<g id="edge29" class="edge">
<title>NatTrans_is1natural_prewhisker&#45;&gt;NatTrans_trans_prewhisker</title>
<path fill="none" stroke="black" d="M2893.73,-818.71C2859.28,-760.82 2747.74,-573.34 2706.51,-504.04"/>
<polygon fill="black" stroke="black" points="2709.29,-501.88 2701.17,-495.08 2703.28,-505.46 2709.29,-501.88"/>
</g>
<!-- NatTrans_is1natural_prewhisker&#45;&gt;NatTrans_Is1Natural -->
<g id="edge30" class="edge">
<title>NatTrans_is1natural_prewhisker&#45;&gt;NatTrans_Is1Natural</title>
<path fill="none" stroke="black" d="M2869.87,-819.67C2746.88,-760.88 2326.73,-560.06 2194.9,-497.05"/>
<polygon fill="black" stroke="black" points="2196.09,-493.74 2185.55,-492.59 2193.07,-500.06 2196.09,-493.74"/>
</g>
<!-- NatTrans_trans_comp -->
<g id="node21" class="node">
<title>NatTrans_trans_comp</title>
<g id="a_node21"><a xlink:href="NatTrans.html#trans_comp" xlink:title="trans_comp">
<ellipse fill="#f070d1" stroke="black" cx="1611" cy="-476.98" rx="64.19" ry="18"/>
<text text-anchor="middle" x="1611" y="-473.28" font-family="Times,serif" font-size="14.00">trans_comp</text>
</a>
</g>
</g>
<!-- NatTrans_is1natural_comp&#45;&gt;NatTrans_trans_comp -->
<g id="edge31" class="edge">
<title>NatTrans_is1natural_comp&#45;&gt;NatTrans_trans_comp</title>
<path fill="none" stroke="black" d="M1460.51,-1213.84C1480.56,-1115.77 1580.73,-625.97 1605.47,-505.02"/>
<polygon fill="black" stroke="black" points="1608.92,-505.6 1607.5,-495.1 1602.07,-504.19 1608.92,-505.6"/>
</g>
<!-- NatTrans_is1natural_comp&#45;&gt;NatTrans_isnat -->
<g id="edge32" class="edge">
<title>NatTrans_is1natural_comp&#45;&gt;NatTrans_isnat</title>
<path fill="none" stroke="black" d="M1453.47,-1213.84C1440.76,-1152.17 1397.27,-941.19 1381.65,-865.38"/>
<polygon fill="black" stroke="black" points="1385,-864.3 1379.55,-855.21 1378.14,-865.71 1385,-864.3"/>
</g>
<!-- NatTrans_Transformation -->
<g id="node35" class="node">
<title>NatTrans_Transformation</title>
<g id="a_node35"><a xlink:href="NatTrans.html#Transformation" xlink:title="Transformation">
<ellipse fill="#f070d1" stroke="black" cx="2155" cy="-152.98" rx="82.59" ry="18"/>
<text text-anchor="middle" x="2155" y="-149.28" font-family="Times,serif" font-size="14.00">Transformation</text>
</a>
</g>
</g>
<!-- NatTrans_trans_postwhisker&#45;&gt;NatTrans_Transformation -->
<g id="edge33" class="edge">
<title>NatTrans_trans_postwhisker&#45;&gt;NatTrans_Transformation</title>
<path fill="none" stroke="black" d="M3058.55,-460.88C2901.88,-407.67 2375.81,-228.98 2207.36,-171.77"/>
<polygon fill="black" stroke="black" points="2208.32,-168.4 2197.72,-168.49 2206.07,-175.02 2208.32,-168.4"/>
</g>
<!-- NatTrans_trans_prewhisker&#45;&gt;NatTrans_Transformation -->
<g id="edge34" class="edge">
<title>NatTrans_trans_prewhisker&#45;&gt;NatTrans_Transformation</title>
<path fill="none" stroke="black" d="M2663.68,-459.57C2574.42,-405.94 2291.3,-235.86 2190.81,-175.49"/>
<polygon fill="black" stroke="black" points="2192.32,-172.32 2181.94,-170.17 2188.71,-178.32 2192.32,-172.32"/>
</g>
<!-- NatTrans_trans_comp&#45;&gt;NatTrans_Transformation -->
<g id="edge35" class="edge">
<title>NatTrans_trans_comp&#45;&gt;NatTrans_Transformation</title>
<path fill="none" stroke="black" d="M1637.24,-460.45C1726.24,-407.77 2016.77,-235.8 2119.01,-175.28"/>
<polygon fill="black" stroke="black" points="2120.92,-178.22 2127.74,-170.11 2117.36,-172.2 2120.92,-178.22"/>
</g>
<!-- NatTrans_is1natural_id -->
<g id="node22" class="node">
<title>NatTrans_is1natural_id</title>
<g id="a_node22"><a xlink:href="NatTrans.html#is1natural_id" xlink:title="is1natural_id">
<ellipse fill="#f070d1" stroke="black" cx="560" cy="-836.98" rx="71.49" ry="18"/>
<ellipse fill="none" stroke="black" cx="560" cy="-836.98" rx="75.49" ry="22"/>
<ellipse fill="none" stroke="black" cx="560" cy="-836.98" rx="79.49" ry="26"/>
<text text-anchor="middle" x="560" y="-833.28" font-family="Times,serif" font-size="14.00">is1natural_id</text>
</a>
</g>
</g>
<!-- NatTrans_id_transformation -->
<g id="node23" class="node">
<title>NatTrans_id_transformation</title>
<g id="a_node23"><a xlink:href="NatTrans.html#id_transformation" xlink:title="id_transformation">
<ellipse fill="#f070d1" stroke="black" cx="1071" cy="-476.98" rx="93.68" ry="18"/>
<text text-anchor="middle" x="1071" y="-473.28" font-family="Times,serif" font-size="14.00">id_transformation</text>
</a>
</g>
</g>
<!-- NatTrans_is1natural_id&#45;&gt;NatTrans_id_transformation -->
<g id="edge36" class="edge">
<title>NatTrans_is1natural_id&#45;&gt;NatTrans_id_transformation</title>
<path fill="none" stroke="black" d="M592.74,-813.04C685.25,-748.23 947.76,-564.32 1039.15,-500.29"/>
<polygon fill="black" stroke="black" points="1041.27,-503.08 1047.45,-494.48 1037.26,-497.35 1041.27,-503.08"/>
</g>
<!-- NatTrans_is1natural_id&#45;&gt;NatTrans_Is1Natural -->
<g id="edge37" class="edge">
<title>NatTrans_is1natural_id&#45;&gt;NatTrans_Is1Natural</title>
<path fill="none" stroke="black" d="M618.09,-818.95C628.04,-816.19 638.3,-813.43 648,-810.98 1208.48,-669.58 1894.52,-530.02 2096.48,-489.61"/>
<polygon fill="black" stroke="black" points="2097.17,-493.04 2106.29,-487.65 2095.79,-486.18 2097.17,-493.04"/>
</g>
<!-- NatTrans_id_transformation&#45;&gt;NatTrans_Transformation -->
<g id="edge38" class="edge">
<title>NatTrans_id_transformation&#45;&gt;NatTrans_Transformation</title>
<path fill="none" stroke="black" d="M1119.68,-461.52C1297.16,-408.8 1908.92,-227.08 2098.52,-170.76"/>
<polygon fill="black" stroke="black" points="2099.7,-174.06 2108.29,-167.86 2097.7,-167.35 2099.7,-174.06"/>
</g>
<!-- NatTrans_isnat_tr -->
<g id="node24" class="node">
<title>NatTrans_isnat_tr</title>
<g id="a_node24"><a xlink:href="NatTrans.html#isnat_tr" xlink:title="isnat_tr">
<ellipse fill="#f070d1" stroke="black" cx="1298" cy="-1231.98" rx="46.27" ry="18"/>
<ellipse fill="none" stroke="black" cx="1298" cy="-1231.98" rx="50.28" ry="22"/>
<ellipse fill="none" stroke="black" cx="1298" cy="-1231.98" rx="54.29" ry="26"/>
<text text-anchor="middle" x="1298" y="-1228.28" font-family="Times,serif" font-size="14.00">isnat_tr</text>
</a>
</g>
</g>
<!-- NatTrans_isnat_tr&#45;&gt;NatTrans_isnat -->
<g id="edge39" class="edge">
<title>NatTrans_isnat_tr&#45;&gt;NatTrans_isnat</title>
<path fill="none" stroke="black" d="M1303,-1205.8C1316.94,-1135.54 1356.19,-937.78 1370.6,-865.17"/>
<polygon fill="black" stroke="black" points="1374.11,-865.5 1372.62,-855.01 1367.24,-864.13 1374.11,-865.5"/>
</g>
<!-- NatTrans_is1natural_nattrans -->
<g id="node25" class="node">
<title>NatTrans_is1natural_nattrans</title>
<g id="a_node25"><a xlink:href="NatTrans.html#is1natural_nattrans" xlink:title="is1natural_nattrans">
<ellipse fill="#f070d1" stroke="black" cx="318" cy="-1231.98" rx="102.08" ry="18"/>
<ellipse fill="none" stroke="black" cx="318" cy="-1231.98" rx="106.08" ry="22"/>
<ellipse fill="none" stroke="black" cx="318" cy="-1231.98" rx="110.08" ry="26"/>
<text text-anchor="middle" x="318" y="-1228.28" font-family="Times,serif" font-size="14.00">is1natural_nattrans</text>
</a>
</g>
</g>
<!-- NatTrans_NatTrans -->
<g id="node32" class="node">
<title>NatTrans_NatTrans</title>
<g id="a_node32"><a xlink:href="NatTrans.html#NatTrans" xlink:title="NatTrans">
<ellipse fill="#e2cdfa" stroke="black" cx="711" cy="-836.98" rx="53.89" ry="18"/>
<text text-anchor="middle" x="711" y="-833.28" font-family="Times,serif" font-size="14.00">NatTrans</text>
</a>
</g>
</g>
<!-- NatTrans_is1natural_nattrans&#45;&gt;NatTrans_NatTrans -->
<g id="edge40" class="edge">
<title>NatTrans_is1natural_nattrans&#45;&gt;NatTrans_NatTrans</title>
<path fill="none" stroke="black" d="M342.58,-1206.4C413.45,-1135.53 617.55,-931.43 687.3,-861.68"/>
<polygon fill="black" stroke="black" points="690.15,-863.78 694.75,-854.23 685.2,-858.83 690.15,-863.78"/>
</g>
<!-- NatTrans_trans_nattrans -->
<g id="node26" class="node">
<title>NatTrans_trans_nattrans</title>
<g id="a_node26"><a xlink:href="NatTrans.html#trans_nattrans" xlink:title="trans_nattrans">
<ellipse fill="#f070d1" stroke="black" cx="103" cy="-1231.98" rx="79.11" ry="18"/>
<ellipse fill="none" stroke="black" cx="103" cy="-1231.98" rx="83.1" ry="22"/>
<ellipse fill="none" stroke="black" cx="103" cy="-1231.98" rx="87.09" ry="26"/>
<text text-anchor="middle" x="103" y="-1228.28" font-family="Times,serif" font-size="14.00">trans_nattrans</text>
</a>
</g>
</g>
<!-- NatTrans_trans_nattrans&#45;&gt;NatTrans_NatTrans -->
<g id="edge41" class="edge">
<title>NatTrans_trans_nattrans&#45;&gt;NatTrans_NatTrans</title>
<path fill="none" stroke="black" d="M138.32,-1208.15C246.92,-1137.95 574.88,-925.97 678.95,-858.7"/>
<polygon fill="black" stroke="black" points="680.97,-861.56 687.46,-853.19 677.17,-855.68 680.97,-861.56"/>
</g>
<!-- NatTrans_NatTrans_sind -->
<g id="node27" class="node">
<title>NatTrans_NatTrans_sind</title>
<g id="a_node27"><a xlink:href="NatTrans.html#NatTrans_sind" xlink:title="NatTrans_sind">
<ellipse fill="#f070d1" stroke="black" cx="704" cy="-1231.98" rx="77.99" ry="18"/>
<ellipse fill="none" stroke="black" cx="704" cy="-1231.98" rx="81.99" ry="22"/>
<ellipse fill="none" stroke="black" cx="704" cy="-1231.98" rx="85.99" ry="26"/>
<text text-anchor="middle" x="704" y="-1228.28" font-family="Times,serif" font-size="14.00">NatTrans_sind</text>
</a>
</g>
</g>
<!-- NatTrans_Build_NatTrans -->
<g id="node31" class="node">
<title>NatTrans_Build_NatTrans</title>
<g id="a_node31"><a xlink:href="NatTrans.html#Build_NatTrans" xlink:title="Build_NatTrans">
<ellipse fill="#7faaff" stroke="black" cx="874" cy="-836.98" rx="83.39" ry="18"/>
<text text-anchor="middle" x="874" y="-833.28" font-family="Times,serif" font-size="14.00">Build_NatTrans</text>
</a>
</g>
</g>
<!-- NatTrans_NatTrans_sind&#45;&gt;NatTrans_Build_NatTrans -->
<g id="edge42" class="edge">
<title>NatTrans_NatTrans_sind&#45;&gt;NatTrans_Build_NatTrans</title>
<path fill="none" stroke="black" d="M714.76,-1206.1C745.16,-1135.84 831.44,-936.37 862.6,-864.33"/>
<polygon fill="black" stroke="black" points="865.86,-865.61 866.62,-855.04 859.44,-862.83 865.86,-865.61"/>
</g>
<!-- NatTrans_NatTrans_sind&#45;&gt;NatTrans_NatTrans -->
<g id="edge43" class="edge">
<title>NatTrans_NatTrans_sind&#45;&gt;NatTrans_NatTrans</title>
<path fill="none" stroke="black" d="M704.45,-1205.8C705.7,-1135.54 709.22,-937.78 710.52,-865.17"/>
<polygon fill="black" stroke="black" points="714.02,-865.07 710.7,-855.01 707.02,-864.94 714.02,-865.07"/>
</g>
<!-- NatTrans_NatTrans_rec -->
<g id="node28" class="node">
<title>NatTrans_NatTrans_rec</title>
<g id="a_node28"><a xlink:href="NatTrans.html#NatTrans_rec" xlink:title="NatTrans_rec">
<ellipse fill="#f070d1" stroke="black" cx="523" cy="-1627.98" rx="73.39" ry="18"/>
<ellipse fill="none" stroke="black" cx="523" cy="-1627.98" rx="77.39" ry="22"/>
<ellipse fill="none" stroke="black" cx="523" cy="-1627.98" rx="81.39" ry="26"/>
<text text-anchor="middle" x="523" y="-1624.28" font-family="Times,serif" font-size="14.00">NatTrans_rec</text>
</a>
</g>
</g>
<!-- NatTrans_NatTrans_rect -->
<g id="node30" class="node">
<title>NatTrans_NatTrans_rect</title>
<g id="a_node30"><a xlink:href="NatTrans.html#NatTrans_rect" xlink:title="NatTrans_rect">
<ellipse fill="#f070d1" stroke="black" cx="523" cy="-1231.98" rx="77.19" ry="18"/>
<text text-anchor="middle" x="523" y="-1228.28" font-family="Times,serif" font-size="14.00">NatTrans_rect</text>
</a>
</g>
</g>
<!-- NatTrans_NatTrans_rec&#45;&gt;NatTrans_NatTrans_rect -->
<g id="edge44" class="edge">
<title>NatTrans_NatTrans_rec&#45;&gt;NatTrans_NatTrans_rect</title>
<path fill="none" stroke="black" d="M523,-1601.74C523,-1531.3 523,-1333.04 523,-1260.24"/>
<polygon fill="black" stroke="black" points="526.5,-1260.05 523,-1250.05 519.5,-1260.05 526.5,-1260.05"/>
</g>
<!-- NatTrans_NatTrans_ind -->
<g id="node29" class="node">
<title>NatTrans_NatTrans_ind</title>
<g id="a_node29"><a xlink:href="NatTrans.html#NatTrans_ind" xlink:title="NatTrans_ind">
<ellipse fill="#7fffd4" stroke="black" cx="889" cy="-1231.98" rx="73.39" ry="18"/>
<ellipse fill="none" stroke="black" cx="889" cy="-1231.98" rx="77.39" ry="22"/>
<ellipse fill="none" stroke="black" cx="889" cy="-1231.98" rx="81.39" ry="26"/>
<text text-anchor="middle" x="889" y="-1228.28" font-family="Times,serif" font-size="14.00">NatTrans_ind</text>
</a>
</g>
</g>
<!-- NatTrans_NatTrans_ind&#45;&gt;NatTrans_Build_NatTrans -->
<g id="edge45" class="edge">
<title>NatTrans_NatTrans_ind&#45;&gt;NatTrans_Build_NatTrans</title>
<path fill="none" stroke="black" d="M888.04,-1205.8C885.36,-1135.54 877.81,-937.78 875.04,-865.17"/>
<polygon fill="black" stroke="black" points="878.53,-864.87 874.65,-855.01 871.53,-865.13 878.53,-864.87"/>
</g>
<!-- NatTrans_NatTrans_ind&#45;&gt;NatTrans_NatTrans -->
<g id="edge46" class="edge">
<title>NatTrans_NatTrans_ind&#45;&gt;NatTrans_NatTrans</title>
<path fill="none" stroke="black" d="M877.73,-1206.1C845.91,-1135.84 755.56,-936.37 722.94,-864.33"/>
<polygon fill="black" stroke="black" points="726.04,-862.71 718.73,-855.04 719.67,-865.6 726.04,-862.71"/>
</g>
<!-- NatTrans_NatTrans_rect&#45;&gt;NatTrans_Build_NatTrans -->
<g id="edge47" class="edge">
<title>NatTrans_NatTrans_rect&#45;&gt;NatTrans_Build_NatTrans</title>
<path fill="none" stroke="black" d="M538.08,-1214.09C593.55,-1151.99 786.4,-936.07 851.97,-862.64"/>
<polygon fill="black" stroke="black" points="854.92,-864.59 858.97,-854.81 849.7,-859.93 854.92,-864.59"/>
</g>
<!-- NatTrans_NatTrans_rect&#45;&gt;NatTrans_NatTrans -->
<g id="edge48" class="edge">
<title>NatTrans_NatTrans_rect&#45;&gt;NatTrans_NatTrans</title>
<path fill="none" stroke="black" d="M531.2,-1213.84C560.82,-1151.91 662.46,-939.45 698.34,-864.46"/>
<polygon fill="black" stroke="black" points="701.6,-865.74 702.76,-855.21 695.29,-862.72 701.6,-865.74"/>
</g>
<!-- NatTrans_Build_NatTrans&#45;&gt;NatTrans_Is1Natural -->
<g id="edge49" class="edge">
<title>NatTrans_Build_NatTrans&#45;&gt;NatTrans_Is1Natural</title>
<path fill="none" stroke="black" d="M923.04,-822.28C1125.32,-765.74 1894.03,-550.91 2102.55,-492.64"/>
<polygon fill="black" stroke="black" points="2103.65,-495.97 2112.34,-489.9 2101.77,-489.22 2103.65,-495.97"/>
</g>
<!-- NatTrans_NatTrans&#45;&gt;NatTrans_Is1Natural -->
<g id="edge50" class="edge">
<title>NatTrans_NatTrans&#45;&gt;NatTrans_Is1Natural</title>
<path fill="none" stroke="black" d="M745.44,-823.07C756.98,-818.95 769.97,-814.55 782,-810.98 1285.06,-661.82 1906.12,-529.42 2096.69,-489.92"/>
<polygon fill="black" stroke="black" points="2097.42,-493.35 2106.5,-487.89 2096,-486.49 2097.42,-493.35"/>
</g>
<!-- NatTrans_isnat&#45;&gt;NatTrans_Is1Natural -->
<g id="edge51" class="edge">
<title>NatTrans_isnat&#45;&gt;NatTrans_Is1Natural</title>
<path fill="none" stroke="black" d="M1401.04,-824.48C1513.69,-772.71 1974.14,-561.1 2114.32,-496.68"/>
<polygon fill="black" stroke="black" points="2115.84,-499.83 2123.46,-492.47 2112.92,-493.47 2115.84,-499.83"/>
</g>
<!-- NatTrans_Is1Natural&#45;&gt;NatTrans_Transformation -->
<g id="edge52" class="edge">
<title>NatTrans_Is1Natural&#45;&gt;NatTrans_Transformation</title>
<path fill="none" stroke="black" d="M2155,-458.67C2155,-405.69 2155,-245.49 2155,-181.15"/>
<polygon fill="black" stroke="black" points="2158.5,-180.99 2155,-170.99 2151.5,-180.99 2158.5,-180.99"/>
</g>
</g>
</svg>
