<?xml version="1.0" encoding="UTF-8" standalone="no"?>
<!DOCTYPE svg PUBLIC "-//W3C//DTD SVG 1.1//EN"
 "http://www.w3.org/Graphics/SVG/1.1/DTD/svg11.dtd">
<!-- Generated by graphviz version 2.43.0 (0)
 -->
<!-- Title: HoTT_WildCat_UnitCat Pages: 1 -->
<svg width="654pt" height="331pt"
 viewBox="0.00 0.00 654.00 331.00" xmlns="http://www.w3.org/2000/svg" xmlns:xlink="http://www.w3.org/1999/xlink">
<g id="graph0" class="graph" transform="scale(1 1) rotate(0) translate(4 327)">
<title>HoTT_WildCat_UnitCat</title>
<polygon fill="white" stroke="transparent" points="-4,4 -4,-327 650,-327 650,4 -4,4"/>
<g id="clust1" class="cluster">
<title>cluster_UnitCat</title>
<polygon fill="#ffffc3" stroke="black" points="30.05,-8 30.05,-315 615.95,-315 615.95,-8 30.05,-8"/>
<text text-anchor="middle" x="66.55" y="-299.8" font-family="Times,serif" font-size="14.00">UnitCat</text>
</g>
<!-- UnitCat_is1cat_unit -->
<g id="node1" class="node">
<title>UnitCat_is1cat_unit</title>
<g id="a_node1"><a xlink:href="UnitCat.html#is1cat_unit" xlink:title="is1cat_unit">
<ellipse fill="#f070d1" stroke="black" cx="323.47" cy="-258" rx="61.96" ry="18"/>
<ellipse fill="none" stroke="black" cx="323.47" cy="-258" rx="65.98" ry="22"/>
<ellipse fill="none" stroke="black" cx="323.47" cy="-258" rx="69.99" ry="26"/>
<text text-anchor="middle" x="323.47" y="-254.3" font-family="Times,serif" font-size="14.00">is1cat_unit</text>
</a>
</g>
</g>
<!-- UnitCat_is0gpd_unit -->
<g id="node2" class="node">
<title>UnitCat_is0gpd_unit</title>
<g id="a_node2"><a xlink:href="UnitCat.html#is0gpd_unit" xlink:title="is0gpd_unit">
<ellipse fill="#f070d1" stroke="black" cx="323.47" cy="-178" rx="64.99" ry="18"/>
<text text-anchor="middle" x="323.47" y="-174.3" font-family="Times,serif" font-size="14.00">is0gpd_unit</text>
</a>
</g>
</g>
<!-- UnitCat_is1cat_unit&#45;&gt;UnitCat_is0gpd_unit -->
<g id="edge1" class="edge">
<title>UnitCat_is1cat_unit&#45;&gt;UnitCat_is0gpd_unit</title>
<path fill="none" stroke="black" d="M323.47,-231.89C323.47,-223.84 323.47,-214.88 323.47,-206.66"/>
<polygon fill="black" stroke="black" points="326.97,-206.41 323.47,-196.41 319.97,-206.41 326.97,-206.41"/>
</g>
<!-- UnitCat_is01cat_unit -->
<g id="node3" class="node">
<title>UnitCat_is01cat_unit</title>
<g id="a_node3"><a xlink:href="UnitCat.html#is01cat_unit" xlink:title="is01cat_unit">
<ellipse fill="#f070d1" stroke="black" cx="323.47" cy="-106" rx="67.69" ry="18"/>
<text text-anchor="middle" x="323.47" y="-102.3" font-family="Times,serif" font-size="14.00">is01cat_unit</text>
</a>
</g>
</g>
<!-- UnitCat_is0gpd_unit&#45;&gt;UnitCat_is01cat_unit -->
<g id="edge2" class="edge">
<title>UnitCat_is0gpd_unit&#45;&gt;UnitCat_is01cat_unit</title>
<path fill="none" stroke="black" d="M323.47,-159.7C323.47,-151.98 323.47,-142.71 323.47,-134.11"/>
<polygon fill="black" stroke="black" points="326.97,-134.1 323.47,-124.1 319.97,-134.1 326.97,-134.1"/>
</g>
<!-- UnitCat_isgraph_unit -->
<g id="node4" class="node">
<title>UnitCat_isgraph_unit</title>
<g id="a_node4"><a xlink:href="UnitCat.html#isgraph_unit" xlink:title="isgraph_unit">
<ellipse fill="#f070d1" stroke="black" cx="323.47" cy="-34" rx="68.79" ry="18"/>
<text text-anchor="middle" x="323.47" y="-30.3" font-family="Times,serif" font-size="14.00">isgraph_unit</text>
</a>
</g>
</g>
<!-- UnitCat_is01cat_unit&#45;&gt;UnitCat_isgraph_unit -->
<g id="edge3" class="edge">
<title>UnitCat_is01cat_unit&#45;&gt;UnitCat_isgraph_unit</title>
<path fill="none" stroke="black" d="M323.47,-87.7C323.47,-79.98 323.47,-70.71 323.47,-62.11"/>
<polygon fill="black" stroke="black" points="326.97,-62.1 323.47,-52.1 319.97,-62.1 326.97,-62.1"/>
</g>
</g>
</svg>
