<?xml version="1.0" encoding="UTF-8" standalone="no"?>
<!DOCTYPE svg PUBLIC "-//W3C//DTD SVG 1.1//EN"
 "http://www.w3.org/Graphics/SVG/1.1/DTD/svg11.dtd">
<!-- Generated by graphviz version 2.43.0 (0)
 -->
<!-- Title: HoTT_Limits_Pullback Pages: 1 -->
<svg width="2520pt" height="1264pt"
 viewBox="0.00 0.00 2520.00 1264.00" xmlns="http://www.w3.org/2000/svg" xmlns:xlink="http://www.w3.org/1999/xlink">
<g id="graph0" class="graph" transform="scale(1 1) rotate(0) translate(4 1260)">
<title>HoTT_Limits_Pullback</title>
<polygon fill="white" stroke="transparent" points="-4,4 -4,-1260 2516,-1260 2516,4 -4,4"/>
<g id="clust1" class="cluster">
<title>cluster_Pullback</title>
<polygon fill="#ffffc3" stroke="black" points="8,-22.68 8,-1233.32 2504,-1233.32 2504,-22.68 8,-22.68"/>
<text text-anchor="middle" x="46.5" y="-1218.12" font-family="Times,serif" font-size="14.00">Pullback</text>
</g>
<!-- Pullback_ispullback_pasting_outer -->
<g id="node1" class="node">
<title>Pullback_ispullback_pasting_outer</title>
<g id="a_node1"><a xlink:href="Pullback.html#ispullback_pasting_outer" xlink:title="ispullback_pasting_outer">
<ellipse fill="#f070d1" stroke="black" cx="1072" cy="-1071.68" rx="126.17" ry="18"/>
<ellipse fill="none" stroke="black" cx="1072" cy="-1071.68" rx="130.18" ry="22"/>
<ellipse fill="none" stroke="black" cx="1072" cy="-1071.68" rx="134.18" ry="26"/>
<text text-anchor="middle" x="1072" y="-1067.98" font-family="Times,serif" font-size="14.00">ispullback_pasting_outer</text>
</a>
</g>
</g>
<!-- Pullback_isequiv_functor_hfiber_ispullback -->
<g id="node14" class="node">
<title>Pullback_isequiv_functor_hfiber_ispullback</title>
<g id="a_node14"><a xlink:href="Pullback.html#isequiv_functor_hfiber_ispullback" xlink:title="isequiv_functor_hfiber_ispullback">
<ellipse fill="#f070d1" stroke="black" cx="1054" cy="-822.68" rx="165.17" ry="18"/>
<text text-anchor="middle" x="1054" y="-818.98" font-family="Times,serif" font-size="14.00">isequiv_functor_hfiber_ispullback</text>
</a>
</g>
</g>
<!-- Pullback_ispullback_pasting_outer&#45;&gt;Pullback_isequiv_functor_hfiber_ispullback -->
<g id="edge1" class="edge">
<title>Pullback_ispullback_pasting_outer&#45;&gt;Pullback_isequiv_functor_hfiber_ispullback</title>
<path fill="none" stroke="black" d="M1070.18,-1045.64C1066.78,-999 1059.5,-899.22 1055.99,-850.95"/>
<polygon fill="black" stroke="black" points="1059.47,-850.64 1055.26,-840.93 1052.49,-851.15 1059.47,-850.64"/>
</g>
<!-- Pullback_ispullback_isequiv_functor_hfiber -->
<g id="node15" class="node">
<title>Pullback_ispullback_isequiv_functor_hfiber</title>
<g id="a_node15"><a xlink:href="Pullback.html#ispullback_isequiv_functor_hfiber" xlink:title="ispullback_isequiv_functor_hfiber">
<ellipse fill="#f070d1" stroke="black" cx="1402" cy="-822.68" rx="165.17" ry="18"/>
<text text-anchor="middle" x="1402" y="-818.98" font-family="Times,serif" font-size="14.00">ispullback_isequiv_functor_hfiber</text>
</a>
</g>
</g>
<!-- Pullback_ispullback_pasting_outer&#45;&gt;Pullback_ispullback_isequiv_functor_hfiber -->
<g id="edge2" class="edge">
<title>Pullback_ispullback_pasting_outer&#45;&gt;Pullback_ispullback_isequiv_functor_hfiber</title>
<path fill="none" stroke="black" d="M1104.54,-1046.32C1168.22,-998.66 1308.49,-893.67 1370.94,-846.93"/>
<polygon fill="black" stroke="black" points="1373.32,-849.52 1379.23,-840.73 1369.12,-843.92 1373.32,-849.52"/>
</g>
<!-- Pullback_ispullback_pasting_left -->
<g id="node2" class="node">
<title>Pullback_ispullback_pasting_left</title>
<g id="a_node2"><a xlink:href="Pullback.html#ispullback_pasting_left" xlink:title="ispullback_pasting_left">
<ellipse fill="#f070d1" stroke="black" cx="1384" cy="-1071.68" rx="116.19" ry="18"/>
<ellipse fill="none" stroke="black" cx="1384" cy="-1071.68" rx="120.18" ry="22"/>
<ellipse fill="none" stroke="black" cx="1384" cy="-1071.68" rx="124.18" ry="26"/>
<text text-anchor="middle" x="1384" y="-1067.98" font-family="Times,serif" font-size="14.00">ispullback_pasting_left</text>
</a>
</g>
</g>
<!-- Pullback_ispullback_pasting_left&#45;&gt;Pullback_isequiv_functor_hfiber_ispullback -->
<g id="edge3" class="edge">
<title>Pullback_ispullback_pasting_left&#45;&gt;Pullback_isequiv_functor_hfiber_ispullback</title>
<path fill="none" stroke="black" d="M1351.76,-1046.55C1288.25,-999.01 1147.72,-893.83 1085.13,-846.98"/>
<polygon fill="black" stroke="black" points="1086.93,-843.96 1076.83,-840.77 1082.74,-849.56 1086.93,-843.96"/>
</g>
<!-- Pullback_ispullback_pasting_left&#45;&gt;Pullback_ispullback_isequiv_functor_hfiber -->
<g id="edge4" class="edge">
<title>Pullback_ispullback_pasting_left&#45;&gt;Pullback_ispullback_isequiv_functor_hfiber</title>
<path fill="none" stroke="black" d="M1385.82,-1045.64C1389.22,-999 1396.5,-899.22 1400.01,-850.95"/>
<polygon fill="black" stroke="black" points="1403.51,-851.15 1400.74,-840.93 1396.53,-850.64 1403.51,-851.15"/>
</g>
<!-- Pullback_pullback3x3 -->
<g id="node3" class="node">
<title>Pullback_pullback3x3</title>
<g id="a_node3"><a xlink:href="Pullback.html#pullback3x3" xlink:title="pullback3x3">
<ellipse fill="#f070d1" stroke="black" cx="2143" cy="-572.68" rx="66.89" ry="18"/>
<ellipse fill="none" stroke="black" cx="2143" cy="-572.68" rx="70.89" ry="22"/>
<ellipse fill="none" stroke="black" cx="2143" cy="-572.68" rx="74.89" ry="26"/>
<text text-anchor="middle" x="2143" y="-568.98" font-family="Times,serif" font-size="14.00">pullback3x3</text>
</a>
</g>
</g>
<!-- Pullback_equiv_path_pullback -->
<g id="node4" class="node">
<title>Pullback_equiv_path_pullback</title>
<g id="a_node4"><a xlink:href="Pullback.html#equiv_path_pullback" xlink:title="equiv_path_pullback">
<ellipse fill="#f070d1" stroke="black" cx="2273" cy="-323.68" rx="104.78" ry="18"/>
<text text-anchor="middle" x="2273" y="-319.98" font-family="Times,serif" font-size="14.00">equiv_path_pullback</text>
</a>
</g>
</g>
<!-- Pullback_pullback3x3&#45;&gt;Pullback_equiv_path_pullback -->
<g id="edge5" class="edge">
<title>Pullback_pullback3x3&#45;&gt;Pullback_equiv_path_pullback</title>
<path fill="none" stroke="black" d="M2156.18,-546.64C2180.88,-499.71 2233.91,-398.96 2259.13,-351.04"/>
<polygon fill="black" stroke="black" points="2262.36,-352.4 2263.92,-341.93 2256.17,-349.14 2262.36,-352.4"/>
</g>
<!-- Pullback_functor_pullback -->
<g id="node9" class="node">
<title>Pullback_functor_pullback</title>
<g id="a_node9"><a xlink:href="Pullback.html#functor_pullback" xlink:title="functor_pullback">
<ellipse fill="#f070d1" stroke="black" cx="2063" cy="-323.68" rx="87.99" ry="18"/>
<text text-anchor="middle" x="2063" y="-319.98" font-family="Times,serif" font-size="14.00">functor_pullback</text>
</a>
</g>
</g>
<!-- Pullback_pullback3x3&#45;&gt;Pullback_functor_pullback -->
<g id="edge6" class="edge">
<title>Pullback_pullback3x3&#45;&gt;Pullback_functor_pullback</title>
<path fill="none" stroke="black" d="M2134.89,-546.64C2119.75,-499.91 2087.33,-399.8 2071.73,-351.64"/>
<polygon fill="black" stroke="black" points="2075,-350.36 2068.58,-341.93 2068.34,-352.52 2075,-350.36"/>
</g>
<!-- Pullback_Pullback -->
<g id="node30" class="node">
<title>Pullback_Pullback</title>
<g id="a_node30"><a xlink:href="Pullback.html#Pullback" xlink:title="Pullback">
<ellipse fill="#f070d1" stroke="black" cx="995" cy="-96.68" rx="50.09" ry="18"/>
<text text-anchor="middle" x="995" y="-92.98" font-family="Times,serif" font-size="14.00">Pullback</text>
</a>
</g>
</g>
<!-- Pullback_equiv_path_pullback&#45;&gt;Pullback_Pullback -->
<g id="edge7" class="edge">
<title>Pullback_equiv_path_pullback&#45;&gt;Pullback_Pullback</title>
<path fill="none" stroke="black" d="M2213,-308.85C2195.91,-305.06 2177.25,-301.07 2160,-297.68 1734.45,-214.13 1217.6,-132.23 1050.17,-106.19"/>
<polygon fill="black" stroke="black" points="1050.54,-102.71 1040.12,-104.63 1049.47,-109.63 1050.54,-102.71"/>
</g>
<!-- Pullback_equiv_sigma_pullback -->
<g id="node5" class="node">
<title>Pullback_equiv_sigma_pullback</title>
<g id="a_node5"><a xlink:href="Pullback.html#equiv_sigma_pullback" xlink:title="equiv_sigma_pullback">
<ellipse fill="#f070d1" stroke="black" cx="1837" cy="-323.68" rx="111.59" ry="18"/>
<ellipse fill="none" stroke="black" cx="1837" cy="-323.68" rx="115.59" ry="22"/>
<ellipse fill="none" stroke="black" cx="1837" cy="-323.68" rx="119.58" ry="26"/>
<text text-anchor="middle" x="1837" y="-319.98" font-family="Times,serif" font-size="14.00">equiv_sigma_pullback</text>
</a>
</g>
</g>
<!-- Pullback_equiv_sigma_pullback&#45;&gt;Pullback_Pullback -->
<g id="edge8" class="edge">
<title>Pullback_equiv_sigma_pullback&#45;&gt;Pullback_Pullback</title>
<path fill="none" stroke="black" d="M1763.75,-303.11C1595.54,-258.16 1185.26,-148.52 1043.85,-110.74"/>
<polygon fill="black" stroke="black" points="1044.71,-107.34 1034.14,-108.14 1042.9,-114.1 1044.71,-107.34"/>
</g>
<!-- Pullback_equiv_pullback -->
<g id="node6" class="node">
<title>Pullback_equiv_pullback</title>
<g id="a_node6"><a xlink:href="Pullback.html#equiv_pullback" xlink:title="equiv_pullback">
<ellipse fill="#f070d1" stroke="black" cx="1264" cy="-323.68" rx="79.11" ry="18"/>
<ellipse fill="none" stroke="black" cx="1264" cy="-323.68" rx="83.1" ry="22"/>
<ellipse fill="none" stroke="black" cx="1264" cy="-323.68" rx="87.09" ry="26"/>
<text text-anchor="middle" x="1264" y="-319.98" font-family="Times,serif" font-size="14.00">equiv_pullback</text>
</a>
</g>
</g>
<!-- Pullback_equiv_pullback&#45;&gt;Pullback_Pullback -->
<g id="edge9" class="edge">
<title>Pullback_equiv_pullback&#45;&gt;Pullback_Pullback</title>
<path fill="none" stroke="black" d="M1235.72,-299.03C1183.59,-255.42 1073,-162.92 1021.91,-120.19"/>
<polygon fill="black" stroke="black" points="1023.87,-117.26 1013.95,-113.53 1019.37,-122.63 1023.87,-117.26"/>
</g>
<!-- Pullback_hfiber_functor_pullback -->
<g id="node7" class="node">
<title>Pullback_hfiber_functor_pullback</title>
<g id="a_node7"><a xlink:href="Pullback.html#hfiber_functor_pullback" xlink:title="hfiber_functor_pullback">
<ellipse fill="#f070d1" stroke="black" cx="1670" cy="-572.68" rx="119.67" ry="18"/>
<ellipse fill="none" stroke="black" cx="1670" cy="-572.68" rx="123.68" ry="22"/>
<ellipse fill="none" stroke="black" cx="1670" cy="-572.68" rx="127.68" ry="26"/>
<text text-anchor="middle" x="1670" y="-568.98" font-family="Times,serif" font-size="14.00">hfiber_functor_pullback</text>
</a>
</g>
</g>
<!-- Pullback_hfiber_functor_pullback_subproof -->
<g id="node8" class="node">
<title>Pullback_hfiber_functor_pullback_subproof</title>
<g id="a_node8"><a xlink:href="Pullback.html#hfiber_functor_pullback_subproof" xlink:title="hfiber_functor_pullback_subproof">
<ellipse fill="#f070d1" stroke="black" cx="1534" cy="-323.68" rx="165.17" ry="18"/>
<text text-anchor="middle" x="1534" y="-319.98" font-family="Times,serif" font-size="14.00">hfiber_functor_pullback_subproof</text>
</a>
</g>
</g>
<!-- Pullback_hfiber_functor_pullback&#45;&gt;Pullback_hfiber_functor_pullback_subproof -->
<g id="edge10" class="edge">
<title>Pullback_hfiber_functor_pullback&#45;&gt;Pullback_hfiber_functor_pullback_subproof</title>
<path fill="none" stroke="black" d="M1656.21,-546.64C1630.32,-499.61 1574.67,-398.54 1548.35,-350.74"/>
<polygon fill="black" stroke="black" points="1551.38,-349 1543.49,-341.93 1545.25,-352.37 1551.38,-349"/>
</g>
<!-- Pullback_hfiber_functor_pullback&#45;&gt;Pullback_functor_pullback -->
<g id="edge11" class="edge">
<title>Pullback_hfiber_functor_pullback&#45;&gt;Pullback_functor_pullback</title>
<path fill="none" stroke="black" d="M1708.04,-547.77C1784.15,-499.94 1954.17,-393.08 2027.84,-346.78"/>
<polygon fill="black" stroke="black" points="2030.15,-349.46 2036.75,-341.18 2026.42,-343.54 2030.15,-349.46"/>
</g>
<!-- Pullback_functor_pullback&#45;&gt;Pullback_Pullback -->
<g id="edge12" class="edge">
<title>Pullback_functor_pullback&#45;&gt;Pullback_Pullback</title>
<path fill="none" stroke="black" d="M2011.77,-308.98C1997.03,-305.17 1980.91,-301.14 1966,-297.68 1617.64,-216.96 1195.16,-135.53 1048.33,-107.71"/>
<polygon fill="black" stroke="black" points="1048.71,-104.22 1038.23,-105.8 1047.41,-111.1 1048.71,-104.22"/>
</g>
<!-- Pullback_hfiber_pullback_along_ -->
<g id="node10" class="node">
<title>Pullback_hfiber_pullback_along_</title>
<g id="a_node10"><a xlink:href="Pullback.html#hfiber_pullback_along'" xlink:title="hfiber_pullback_along&#39;">
<ellipse fill="#f070d1" stroke="black" cx="636" cy="-572.68" rx="113.96" ry="18"/>
<ellipse fill="none" stroke="black" cx="636" cy="-572.68" rx="117.97" ry="22"/>
<ellipse fill="none" stroke="black" cx="636" cy="-572.68" rx="121.98" ry="26"/>
<text text-anchor="middle" x="636" y="-568.98" font-family="Times,serif" font-size="14.00">hfiber_pullback_along&#39;</text>
</a>
</g>
</g>
<!-- Pullback_pullback_along_ -->
<g id="node11" class="node">
<title>Pullback_pullback_along_</title>
<g id="a_node11"><a xlink:href="Pullback.html#pullback_along'" xlink:title="pullback_along&#39;">
<ellipse fill="#f070d1" stroke="black" cx="584" cy="-323.68" rx="81.79" ry="18"/>
<text text-anchor="middle" x="584" y="-319.98" font-family="Times,serif" font-size="14.00">pullback_along&#39;</text>
</a>
</g>
</g>
<!-- Pullback_hfiber_pullback_along_&#45;&gt;Pullback_pullback_along_ -->
<g id="edge13" class="edge">
<title>Pullback_hfiber_pullback_along_&#45;&gt;Pullback_pullback_along_</title>
<path fill="none" stroke="black" d="M630.73,-546.64C620.91,-500 599.9,-400.22 589.74,-351.95"/>
<polygon fill="black" stroke="black" points="593.12,-350.99 587.63,-341.93 586.27,-352.43 593.12,-350.99"/>
</g>
<!-- Pullback_pullback_along_&#45;&gt;Pullback_Pullback -->
<g id="edge14" class="edge">
<title>Pullback_pullback_along_&#45;&gt;Pullback_Pullback</title>
<path fill="none" stroke="black" d="M613.23,-306.68C686.8,-266.4 879.48,-160.92 959.43,-117.15"/>
<polygon fill="black" stroke="black" points="961.52,-120 968.61,-112.13 958.16,-113.86 961.52,-120"/>
</g>
<!-- Pullback_hfiber_pullback_along -->
<g id="node12" class="node">
<title>Pullback_hfiber_pullback_along</title>
<g id="a_node12"><a xlink:href="Pullback.html#hfiber_pullback_along" xlink:title="hfiber_pullback_along">
<ellipse fill="#f070d1" stroke="black" cx="377" cy="-572.68" rx="111.27" ry="18"/>
<ellipse fill="none" stroke="black" cx="377" cy="-572.68" rx="115.28" ry="22"/>
<ellipse fill="none" stroke="black" cx="377" cy="-572.68" rx="119.28" ry="26"/>
<text text-anchor="middle" x="377" y="-568.98" font-family="Times,serif" font-size="14.00">hfiber_pullback_along</text>
</a>
</g>
</g>
<!-- Pullback_pullback_along -->
<g id="node13" class="node">
<title>Pullback_pullback_along</title>
<g id="a_node13"><a xlink:href="Pullback.html#pullback_along" xlink:title="pullback_along">
<ellipse fill="#f070d1" stroke="black" cx="405" cy="-323.68" rx="79.09" ry="18"/>
<text text-anchor="middle" x="405" y="-319.98" font-family="Times,serif" font-size="14.00">pullback_along</text>
</a>
</g>
</g>
<!-- Pullback_hfiber_pullback_along&#45;&gt;Pullback_pullback_along -->
<g id="edge15" class="edge">
<title>Pullback_hfiber_pullback_along&#45;&gt;Pullback_pullback_along</title>
<path fill="none" stroke="black" d="M379.84,-546.64C385.13,-500 396.44,-400.22 401.91,-351.95"/>
<polygon fill="black" stroke="black" points="405.4,-352.26 403.05,-341.93 398.44,-351.47 405.4,-352.26"/>
</g>
<!-- Pullback_pullback_along&#45;&gt;Pullback_Pullback -->
<g id="edge16" class="edge">
<title>Pullback_pullback_along&#45;&gt;Pullback_Pullback</title>
<path fill="none" stroke="black" d="M443.71,-307.92C549.35,-267.63 842.03,-156.02 952.26,-113.98"/>
<polygon fill="black" stroke="black" points="953.64,-117.2 961.74,-110.37 951.14,-110.66 953.64,-117.2"/>
</g>
<!-- Pullback_IsPullback -->
<g id="node21" class="node">
<title>Pullback_IsPullback</title>
<g id="a_node21"><a xlink:href="Pullback.html#IsPullback" xlink:title="IsPullback">
<ellipse fill="#f070d1" stroke="black" cx="1054" cy="-572.68" rx="58.49" ry="18"/>
<text text-anchor="middle" x="1054" y="-568.98" font-family="Times,serif" font-size="14.00">IsPullback</text>
</a>
</g>
</g>
<!-- Pullback_isequiv_functor_hfiber_ispullback&#45;&gt;Pullback_IsPullback -->
<g id="edge17" class="edge">
<title>Pullback_isequiv_functor_hfiber_ispullback&#45;&gt;Pullback_IsPullback</title>
<path fill="none" stroke="black" d="M1054,-804.64C1054,-762.34 1054,-652.29 1054,-600.88"/>
<polygon fill="black" stroke="black" points="1057.5,-600.85 1054,-590.85 1050.5,-600.85 1057.5,-600.85"/>
</g>
<!-- Pullback_hfiber_pullback_corec -->
<g id="node16" class="node">
<title>Pullback_hfiber_pullback_corec</title>
<g id="a_node16"><a xlink:href="Pullback.html#hfiber_pullback_corec" xlink:title="hfiber_pullback_corec">
<ellipse fill="#f070d1" stroke="black" cx="1322" cy="-572.68" rx="110.48" ry="18"/>
<text text-anchor="middle" x="1322" y="-568.98" font-family="Times,serif" font-size="14.00">hfiber_pullback_corec</text>
</a>
</g>
</g>
<!-- Pullback_ispullback_isequiv_functor_hfiber&#45;&gt;Pullback_hfiber_pullback_corec -->
<g id="edge18" class="edge">
<title>Pullback_ispullback_isequiv_functor_hfiber&#45;&gt;Pullback_hfiber_pullback_corec</title>
<path fill="none" stroke="black" d="M1396.5,-804.64C1382.83,-762.25 1347.21,-651.83 1330.67,-600.56"/>
<polygon fill="black" stroke="black" points="1333.94,-599.29 1327.54,-590.85 1327.28,-601.44 1333.94,-599.29"/>
</g>
<!-- Pullback_ispullback_isequiv_functor_hfiber&#45;&gt;Pullback_IsPullback -->
<g id="edge19" class="edge">
<title>Pullback_ispullback_isequiv_functor_hfiber&#45;&gt;Pullback_IsPullback</title>
<path fill="none" stroke="black" d="M1378.35,-804.83C1317.03,-761.13 1152.91,-644.17 1084.55,-595.45"/>
<polygon fill="black" stroke="black" points="1086.49,-592.54 1076.32,-589.59 1082.43,-598.24 1086.49,-592.54"/>
</g>
<!-- Pullback_pullback_corec -->
<g id="node26" class="node">
<title>Pullback_pullback_corec</title>
<g id="a_node26"><a xlink:href="Pullback.html#pullback_corec" xlink:title="pullback_corec">
<ellipse fill="#f070d1" stroke="black" cx="1079" cy="-323.68" rx="79.09" ry="18"/>
<text text-anchor="middle" x="1079" y="-319.98" font-family="Times,serif" font-size="14.00">pullback_corec</text>
</a>
</g>
</g>
<!-- Pullback_hfiber_pullback_corec&#45;&gt;Pullback_pullback_corec -->
<g id="edge20" class="edge">
<title>Pullback_hfiber_pullback_corec&#45;&gt;Pullback_pullback_corec</title>
<path fill="none" stroke="black" d="M1305.3,-554.7C1262.97,-511.68 1151.4,-398.27 1102.51,-348.58"/>
<polygon fill="black" stroke="black" points="1105.01,-346.13 1095.5,-341.45 1100.02,-351.03 1105.01,-346.13"/>
</g>
<!-- Pullback_equiv_sigprod_pullback -->
<g id="node17" class="node">
<title>Pullback_equiv_sigprod_pullback</title>
<g id="a_node17"><a xlink:href="Pullback.html#equiv_sigprod_pullback" xlink:title="equiv_sigprod_pullback">
<ellipse fill="#f070d1" stroke="black" cx="566" cy="-1071.68" rx="118.88" ry="18"/>
<ellipse fill="none" stroke="black" cx="566" cy="-1071.68" rx="122.88" ry="22"/>
<ellipse fill="none" stroke="black" cx="566" cy="-1071.68" rx="126.88" ry="26"/>
<text text-anchor="middle" x="566" y="-1067.98" font-family="Times,serif" font-size="14.00">equiv_sigprod_pullback</text>
</a>
</g>
</g>
<!-- Pullback_ispullback_sigprod -->
<g id="node18" class="node">
<title>Pullback_ispullback_sigprod</title>
<g id="a_node18"><a xlink:href="Pullback.html#ispullback_sigprod" xlink:title="ispullback_sigprod">
<ellipse fill="#f070d1" stroke="black" cx="566" cy="-822.68" rx="96.68" ry="18"/>
<text text-anchor="middle" x="566" y="-818.98" font-family="Times,serif" font-size="14.00">ispullback_sigprod</text>
</a>
</g>
</g>
<!-- Pullback_equiv_sigprod_pullback&#45;&gt;Pullback_ispullback_sigprod -->
<g id="edge21" class="edge">
<title>Pullback_equiv_sigprod_pullback&#45;&gt;Pullback_ispullback_sigprod</title>
<path fill="none" stroke="black" d="M566,-1045.64C566,-999 566,-899.22 566,-850.95"/>
<polygon fill="black" stroke="black" points="569.5,-850.93 566,-840.93 562.5,-850.93 569.5,-850.93"/>
</g>
<!-- Pullback_ispullback_sigprod&#45;&gt;Pullback_IsPullback -->
<g id="edge22" class="edge">
<title>Pullback_ispullback_sigprod&#45;&gt;Pullback_IsPullback</title>
<path fill="none" stroke="black" d="M597.64,-805.6C683.81,-761.81 922.43,-640.55 1015.82,-593.08"/>
<polygon fill="black" stroke="black" points="1017.59,-596.11 1024.92,-588.46 1014.42,-589.87 1017.59,-596.11"/>
</g>
<!-- Pullback_ispullback_symm -->
<g id="node19" class="node">
<title>Pullback_ispullback_symm</title>
<g id="a_node19"><a xlink:href="Pullback.html#ispullback_symm" xlink:title="ispullback_symm">
<ellipse fill="#f070d1" stroke="black" cx="240" cy="-822.68" rx="89.87" ry="18"/>
<ellipse fill="none" stroke="black" cx="240" cy="-822.68" rx="93.88" ry="22"/>
<ellipse fill="none" stroke="black" cx="240" cy="-822.68" rx="97.88" ry="26"/>
<text text-anchor="middle" x="240" y="-818.98" font-family="Times,serif" font-size="14.00">ispullback_symm</text>
</a>
</g>
</g>
<!-- Pullback_ispullback_symm&#45;&gt;Pullback_IsPullback -->
<g id="edge23" class="edge">
<title>Pullback_ispullback_symm&#45;&gt;Pullback_IsPullback</title>
<path fill="none" stroke="black" d="M306.17,-803.54C437.05,-767.3 737.9,-682.23 987,-598.68 994.28,-596.24 1001.96,-593.52 1009.42,-590.79"/>
<polygon fill="black" stroke="black" points="1010.87,-593.98 1019.04,-587.23 1008.44,-587.42 1010.87,-593.98"/>
</g>
<!-- Pullback_equiv_pullback_symm -->
<g id="node23" class="node">
<title>Pullback_equiv_pullback_symm</title>
<g id="a_node23"><a xlink:href="Pullback.html#equiv_pullback_symm" xlink:title="equiv_pullback_symm">
<ellipse fill="#f070d1" stroke="black" cx="128" cy="-572.68" rx="111.58" ry="18"/>
<text text-anchor="middle" x="128" y="-568.98" font-family="Times,serif" font-size="14.00">equiv_pullback_symm</text>
</a>
</g>
</g>
<!-- Pullback_ispullback_symm&#45;&gt;Pullback_equiv_pullback_symm -->
<g id="edge24" class="edge">
<title>Pullback_ispullback_symm&#45;&gt;Pullback_equiv_pullback_symm</title>
<path fill="none" stroke="black" d="M228.64,-796.54C207.31,-749.3 161.46,-647.76 139.79,-599.8"/>
<polygon fill="black" stroke="black" points="142.98,-598.35 135.68,-590.68 136.6,-601.23 142.98,-598.35"/>
</g>
<!-- Pullback_equiv_ispullback -->
<g id="node20" class="node">
<title>Pullback_equiv_ispullback</title>
<g id="a_node20"><a xlink:href="Pullback.html#equiv_ispullback" xlink:title="equiv_ispullback">
<ellipse fill="#f070d1" stroke="black" cx="776" cy="-822.68" rx="87.18" ry="18"/>
<ellipse fill="none" stroke="black" cx="776" cy="-822.68" rx="91.18" ry="22"/>
<ellipse fill="none" stroke="black" cx="776" cy="-822.68" rx="95.18" ry="26"/>
<text text-anchor="middle" x="776" y="-818.98" font-family="Times,serif" font-size="14.00">equiv_ispullback</text>
</a>
</g>
</g>
<!-- Pullback_equiv_ispullback&#45;&gt;Pullback_IsPullback -->
<g id="edge25" class="edge">
<title>Pullback_equiv_ispullback&#45;&gt;Pullback_IsPullback</title>
<path fill="none" stroke="black" d="M802.91,-797.68C856.44,-749.92 975.64,-643.59 1028.23,-596.68"/>
<polygon fill="black" stroke="black" points="1030.65,-599.2 1035.78,-589.94 1025.99,-593.98 1030.65,-599.2"/>
</g>
<!-- Pullback_IsPullback&#45;&gt;Pullback_pullback_corec -->
<g id="edge26" class="edge">
<title>Pullback_IsPullback&#45;&gt;Pullback_pullback_corec</title>
<path fill="none" stroke="black" d="M1055.76,-554.31C1060.05,-511.87 1071.11,-402.65 1076.27,-351.66"/>
<polygon fill="black" stroke="black" points="1079.75,-352 1077.28,-341.7 1072.79,-351.3 1079.75,-352"/>
</g>
<!-- Pullback_equiv_pullback_unit_prod -->
<g id="node22" class="node">
<title>Pullback_equiv_pullback_unit_prod</title>
<g id="a_node22"><a xlink:href="Pullback.html#equiv_pullback_unit_prod" xlink:title="equiv_pullback_unit_prod">
<ellipse fill="#f070d1" stroke="black" cx="172" cy="-323.68" rx="128.08" ry="18"/>
<ellipse fill="none" stroke="black" cx="172" cy="-323.68" rx="132.08" ry="22"/>
<ellipse fill="none" stroke="black" cx="172" cy="-323.68" rx="136.08" ry="26"/>
<text text-anchor="middle" x="172" y="-319.98" font-family="Times,serif" font-size="14.00">equiv_pullback_unit_prod</text>
</a>
</g>
</g>
<!-- Pullback_equiv_pullback_unit_prod&#45;&gt;Pullback_Pullback -->
<g id="edge27" class="edge">
<title>Pullback_equiv_pullback_unit_prod&#45;&gt;Pullback_Pullback</title>
<path fill="none" stroke="black" d="M247.58,-302.02C414.09,-256.5 808.65,-148.63 946.47,-110.95"/>
<polygon fill="black" stroke="black" points="947.61,-114.27 956.33,-108.25 945.76,-107.51 947.61,-114.27"/>
</g>
<!-- Pullback_equiv_pullback_symm&#45;&gt;Pullback_Pullback -->
<g id="edge28" class="edge">
<title>Pullback_equiv_pullback_symm&#45;&gt;Pullback_Pullback</title>
<path fill="none" stroke="black" d="M111.34,-554.69C68.18,-508.6 -39.44,-379.25 27,-297.68 143.13,-155.11 743.2,-111.08 935.58,-100.52"/>
<polygon fill="black" stroke="black" points="935.98,-104.01 945.78,-99.97 935.6,-97.02 935.98,-104.01"/>
</g>
<!-- Pullback_hfiber_diagonal -->
<g id="node24" class="node">
<title>Pullback_hfiber_diagonal</title>
<g id="a_node24"><a xlink:href="Pullback.html#hfiber_diagonal" xlink:title="hfiber_diagonal">
<ellipse fill="#f070d1" stroke="black" cx="2406" cy="-572.68" rx="81.8" ry="18"/>
<ellipse fill="none" stroke="black" cx="2406" cy="-572.68" rx="85.79" ry="22"/>
<ellipse fill="none" stroke="black" cx="2406" cy="-572.68" rx="89.79" ry="26"/>
<text text-anchor="middle" x="2406" y="-568.98" font-family="Times,serif" font-size="14.00">hfiber_diagonal</text>
</a>
</g>
</g>
<!-- Pullback_diagonal -->
<g id="node25" class="node">
<title>Pullback_diagonal</title>
<g id="a_node25"><a xlink:href="Pullback.html#diagonal" xlink:title="diagonal">
<ellipse fill="#f070d1" stroke="black" cx="2446" cy="-323.68" rx="50.09" ry="18"/>
<text text-anchor="middle" x="2446" y="-319.98" font-family="Times,serif" font-size="14.00">diagonal</text>
</a>
</g>
</g>
<!-- Pullback_hfiber_diagonal&#45;&gt;Pullback_diagonal -->
<g id="edge29" class="edge">
<title>Pullback_hfiber_diagonal&#45;&gt;Pullback_diagonal</title>
<path fill="none" stroke="black" d="M2410.06,-546.64C2417.61,-500 2433.77,-400.22 2441.58,-351.95"/>
<polygon fill="black" stroke="black" points="2445.06,-352.36 2443.21,-341.93 2438.15,-351.24 2445.06,-352.36"/>
</g>
<!-- Pullback_diagonal&#45;&gt;Pullback_Pullback -->
<g id="edge30" class="edge">
<title>Pullback_diagonal&#45;&gt;Pullback_Pullback</title>
<path fill="none" stroke="black" d="M2417.42,-308.82C2407.93,-304.69 2397.18,-300.52 2387,-297.68 1883.59,-157.41 1248.87,-111.89 1054.34,-100.73"/>
<polygon fill="black" stroke="black" points="1054.51,-97.24 1044.33,-100.17 1054.12,-104.23 1054.51,-97.24"/>
</g>
<!-- Pullback_pullback_corec&#45;&gt;Pullback_Pullback -->
<g id="edge31" class="edge">
<title>Pullback_pullback_corec&#45;&gt;Pullback_Pullback</title>
<path fill="none" stroke="black" d="M1072.55,-305.4C1057.95,-266.29 1022.28,-170.76 1004.88,-124.14"/>
<polygon fill="black" stroke="black" points="1008.14,-122.86 1001.36,-114.71 1001.58,-125.31 1008.14,-122.86"/>
</g>
<!-- Pullback_pullback_commsq -->
<g id="node27" class="node">
<title>Pullback_pullback_commsq</title>
<g id="a_node27"><a xlink:href="Pullback.html#pullback_commsq" xlink:title="pullback_commsq">
<ellipse fill="#f070d1" stroke="black" cx="877" cy="-572.68" rx="92.89" ry="18"/>
<ellipse fill="none" stroke="black" cx="877" cy="-572.68" rx="96.89" ry="22"/>
<ellipse fill="none" stroke="black" cx="877" cy="-572.68" rx="100.88" ry="26"/>
<text text-anchor="middle" x="877" y="-568.98" font-family="Times,serif" font-size="14.00">pullback_commsq</text>
</a>
</g>
</g>
<!-- Pullback_pullback_pr2 -->
<g id="node28" class="node">
<title>Pullback_pullback_pr2</title>
<g id="a_node28"><a xlink:href="Pullback.html#pullback_pr2" xlink:title="pullback_pr2">
<ellipse fill="#f070d1" stroke="black" cx="754" cy="-323.68" rx="70.39" ry="18"/>
<text text-anchor="middle" x="754" y="-319.98" font-family="Times,serif" font-size="14.00">pullback_pr2</text>
</a>
</g>
</g>
<!-- Pullback_pullback_commsq&#45;&gt;Pullback_pullback_pr2 -->
<g id="edge32" class="edge">
<title>Pullback_pullback_commsq&#45;&gt;Pullback_pullback_pr2</title>
<path fill="none" stroke="black" d="M864.53,-546.64C841.1,-499.6 790.74,-398.46 766.95,-350.69"/>
<polygon fill="black" stroke="black" points="770.02,-349 762.43,-341.61 763.76,-352.12 770.02,-349"/>
</g>
<!-- Pullback_pullback_pr1 -->
<g id="node29" class="node">
<title>Pullback_pullback_pr1</title>
<g id="a_node29"><a xlink:href="Pullback.html#pullback_pr1" xlink:title="pullback_pr1">
<ellipse fill="#f070d1" stroke="black" cx="912" cy="-323.68" rx="70.39" ry="18"/>
<text text-anchor="middle" x="912" y="-319.98" font-family="Times,serif" font-size="14.00">pullback_pr1</text>
</a>
</g>
</g>
<!-- Pullback_pullback_commsq&#45;&gt;Pullback_pullback_pr1 -->
<g id="edge33" class="edge">
<title>Pullback_pullback_commsq&#45;&gt;Pullback_pullback_pr1</title>
<path fill="none" stroke="black" d="M880.55,-546.64C887.16,-500 901.3,-400.22 908.14,-351.95"/>
<polygon fill="black" stroke="black" points="911.62,-352.32 909.56,-341.93 904.69,-351.34 911.62,-352.32"/>
</g>
<!-- Pullback_pullback_pr2&#45;&gt;Pullback_Pullback -->
<g id="edge34" class="edge">
<title>Pullback_pullback_pr2&#45;&gt;Pullback_Pullback</title>
<path fill="none" stroke="black" d="M771.72,-306.14C814.15,-266.53 921.63,-166.19 970.33,-120.71"/>
<polygon fill="black" stroke="black" points="972.98,-123.03 977.9,-113.65 968.2,-117.91 972.98,-123.03"/>
</g>
<!-- Pullback_pullback_pr1&#45;&gt;Pullback_Pullback -->
<g id="edge35" class="edge">
<title>Pullback_pullback_pr1&#45;&gt;Pullback_Pullback</title>
<path fill="none" stroke="black" d="M918.38,-305.4C932.8,-266.29 968.04,-170.76 985.24,-124.14"/>
<polygon fill="black" stroke="black" points="988.54,-125.31 988.72,-114.71 981.97,-122.89 988.54,-125.31"/>
</g>
</g>
</svg>
