<?xml version="1.0" encoding="UTF-8" standalone="no"?>
<!DOCTYPE svg PUBLIC "-//W3C//DTD SVG 1.1//EN"
 "http://www.w3.org/Graphics/SVG/1.1/DTD/svg11.dtd">
<!-- Generated by graphviz version 2.43.0 (0)
 -->
<!-- Title: HoTT_WildCat_TwoOneCat Pages: 1 -->
<svg width="2876pt" height="1442pt"
 viewBox="0.00 0.00 2876.00 1442.00" xmlns="http://www.w3.org/2000/svg" xmlns:xlink="http://www.w3.org/1999/xlink">
<g id="graph0" class="graph" transform="scale(1 1) rotate(0) translate(4 1438)">
<title>HoTT_WildCat_TwoOneCat</title>
<polygon fill="white" stroke="transparent" points="-4,4 -4,-1438 2872,-1438 2872,4 -4,4"/>
<g id="clust1" class="cluster">
<title>cluster_TwoOneCat</title>
<polygon fill="#ffffc3" stroke="black" points="8,-42.97 8,-1391.03 2860,-1391.03 2860,-42.97 8,-42.97"/>
<text text-anchor="middle" x="57.5" y="-1375.83" font-family="Times,serif" font-size="14.00">TwoOneCat</text>
</g>
<!-- TwoOneCat_cat_tril -->
<g id="node1" class="node">
<title>TwoOneCat_cat_tril</title>
<g id="a_node1"><a xlink:href="TwoOneCat.html#cat_tril" xlink:title="cat_tril">
<ellipse fill="#f070d1" stroke="black" cx="2640" cy="-611.97" rx="43.59" ry="18"/>
<ellipse fill="none" stroke="black" cx="2640" cy="-611.97" rx="47.59" ry="22"/>
<ellipse fill="none" stroke="black" cx="2640" cy="-611.97" rx="51.59" ry="26"/>
<text text-anchor="middle" x="2640" y="-608.27" font-family="Times,serif" font-size="14.00">cat_tril</text>
</a>
</g>
</g>
<!-- TwoOneCat_Is21Cat -->
<g id="node17" class="node">
<title>TwoOneCat_Is21Cat</title>
<g id="a_node17"><a xlink:href="TwoOneCat.html#Is21Cat" xlink:title="Is21Cat">
<ellipse fill="#e2cdfa" stroke="black" cx="1423" cy="-182.97" rx="46.59" ry="18"/>
<text text-anchor="middle" x="1423" y="-179.27" font-family="Times,serif" font-size="14.00">Is21Cat</text>
</a>
</g>
</g>
<!-- TwoOneCat_cat_tril&#45;&gt;TwoOneCat_Is21Cat -->
<g id="edge1" class="edge">
<title>TwoOneCat_cat_tril&#45;&gt;TwoOneCat_Is21Cat</title>
<path fill="none" stroke="black" d="M2601.41,-594.48C2594.32,-591.57 2586.96,-588.62 2580,-585.97 2150.86,-422.18 1622.18,-248.58 1467.47,-198.34"/>
<polygon fill="black" stroke="black" points="1468.42,-194.97 1457.82,-195.21 1466.26,-201.63 1468.42,-194.97"/>
</g>
<!-- TwoOneCat_cat_pentagon -->
<g id="node2" class="node">
<title>TwoOneCat_cat_pentagon</title>
<g id="a_node2"><a xlink:href="TwoOneCat.html#cat_pentagon" xlink:title="cat_pentagon">
<ellipse fill="#f070d1" stroke="black" cx="2490" cy="-611.97" rx="72.61" ry="18"/>
<ellipse fill="none" stroke="black" cx="2490" cy="-611.97" rx="76.6" ry="22"/>
<ellipse fill="none" stroke="black" cx="2490" cy="-611.97" rx="80.59" ry="26"/>
<text text-anchor="middle" x="2490" y="-608.27" font-family="Times,serif" font-size="14.00">cat_pentagon</text>
</a>
</g>
</g>
<!-- TwoOneCat_cat_pentagon&#45;&gt;TwoOneCat_Is21Cat -->
<g id="edge2" class="edge">
<title>TwoOneCat_cat_pentagon&#45;&gt;TwoOneCat_Is21Cat</title>
<path fill="none" stroke="black" d="M2440.68,-591.23C2259.14,-518.58 1630.08,-266.84 1463.66,-200.24"/>
<polygon fill="black" stroke="black" points="1464.85,-196.95 1454.27,-196.48 1462.25,-203.44 1464.85,-196.95"/>
</g>
<!-- TwoOneCat_is1natural_cat_idr -->
<g id="node3" class="node">
<title>TwoOneCat_is1natural_cat_idr</title>
<g id="a_node3"><a xlink:href="TwoOneCat.html#is1natural_cat_idr" xlink:title="is1natural_cat_idr">
<ellipse fill="#f070d1" stroke="black" cx="2289" cy="-611.97" rx="94.46" ry="18"/>
<ellipse fill="none" stroke="black" cx="2289" cy="-611.97" rx="98.47" ry="22"/>
<ellipse fill="none" stroke="black" cx="2289" cy="-611.97" rx="102.48" ry="26"/>
<text text-anchor="middle" x="2289" y="-608.27" font-family="Times,serif" font-size="14.00">is1natural_cat_idr</text>
</a>
</g>
</g>
<!-- TwoOneCat_is1natural_cat_idr&#45;&gt;TwoOneCat_Is21Cat -->
<g id="edge3" class="edge">
<title>TwoOneCat_is1natural_cat_idr&#45;&gt;TwoOneCat_Is21Cat</title>
<path fill="none" stroke="black" d="M2243.66,-588.61C2091.08,-513.38 1598.06,-270.28 1459.52,-201.97"/>
<polygon fill="black" stroke="black" points="1461.05,-198.83 1450.54,-197.54 1457.96,-205.1 1461.05,-198.83"/>
</g>
<!-- TwoOneCat_is1natural_cat_idl -->
<g id="node4" class="node">
<title>TwoOneCat_is1natural_cat_idl</title>
<g id="a_node4"><a xlink:href="TwoOneCat.html#is1natural_cat_idl" xlink:title="is1natural_cat_idl">
<ellipse fill="#f070d1" stroke="black" cx="2068" cy="-611.97" rx="92.89" ry="18"/>
<ellipse fill="none" stroke="black" cx="2068" cy="-611.97" rx="96.89" ry="22"/>
<ellipse fill="none" stroke="black" cx="2068" cy="-611.97" rx="100.88" ry="26"/>
<text text-anchor="middle" x="2068" y="-608.27" font-family="Times,serif" font-size="14.00">is1natural_cat_idl</text>
</a>
</g>
</g>
<!-- TwoOneCat_is1natural_cat_idl&#45;&gt;TwoOneCat_Is21Cat -->
<g id="edge4" class="edge">
<title>TwoOneCat_is1natural_cat_idl&#45;&gt;TwoOneCat_Is21Cat</title>
<path fill="none" stroke="black" d="M2032.4,-587.4C1918.09,-511.73 1561.54,-275.68 1454.01,-204.49"/>
<polygon fill="black" stroke="black" points="1455.81,-201.49 1445.54,-198.89 1451.94,-207.33 1455.81,-201.49"/>
</g>
<!-- TwoOneCat_is1natural_cat_assoc_r -->
<g id="node5" class="node">
<title>TwoOneCat_is1natural_cat_assoc_r</title>
<g id="a_node5"><a xlink:href="TwoOneCat.html#is1natural_cat_assoc_r" xlink:title="is1natural_cat_assoc_r">
<ellipse fill="#f070d1" stroke="black" cx="1826" cy="-611.97" rx="115.08" ry="18"/>
<ellipse fill="none" stroke="black" cx="1826" cy="-611.97" rx="119.08" ry="22"/>
<ellipse fill="none" stroke="black" cx="1826" cy="-611.97" rx="123.08" ry="26"/>
<text text-anchor="middle" x="1826" y="-608.27" font-family="Times,serif" font-size="14.00">is1natural_cat_assoc_r</text>
</a>
</g>
</g>
<!-- TwoOneCat_is1natural_cat_assoc_r&#45;&gt;TwoOneCat_Is21Cat -->
<g id="edge5" class="edge">
<title>TwoOneCat_is1natural_cat_assoc_r&#45;&gt;TwoOneCat_Is21Cat</title>
<path fill="none" stroke="black" d="M1802.59,-586.16C1730.95,-510.26 1515.3,-281.77 1445.25,-207.54"/>
<polygon fill="black" stroke="black" points="1447.59,-204.92 1438.18,-200.05 1442.5,-209.73 1447.59,-204.92"/>
</g>
<!-- TwoOneCat_is1natural_cat_assoc_m -->
<g id="node6" class="node">
<title>TwoOneCat_is1natural_cat_assoc_m</title>
<g id="a_node6"><a xlink:href="TwoOneCat.html#is1natural_cat_assoc_m" xlink:title="is1natural_cat_assoc_m">
<ellipse fill="#f070d1" stroke="black" cx="1557" cy="-611.97" rx="119.67" ry="18"/>
<ellipse fill="none" stroke="black" cx="1557" cy="-611.97" rx="123.68" ry="22"/>
<ellipse fill="none" stroke="black" cx="1557" cy="-611.97" rx="127.68" ry="26"/>
<text text-anchor="middle" x="1557" y="-608.27" font-family="Times,serif" font-size="14.00">is1natural_cat_assoc_m</text>
</a>
</g>
</g>
<!-- TwoOneCat_is1natural_cat_assoc_m&#45;&gt;TwoOneCat_Is21Cat -->
<g id="edge6" class="edge">
<title>TwoOneCat_is1natural_cat_assoc_m&#45;&gt;TwoOneCat_Is21Cat</title>
<path fill="none" stroke="black" d="M1549.12,-585.85C1525.54,-510.72 1455.71,-288.19 1431.43,-210.83"/>
<polygon fill="black" stroke="black" points="1434.65,-209.4 1428.32,-200.91 1427.97,-211.5 1434.65,-209.4"/>
</g>
<!-- TwoOneCat_is1natural_cat_assoc_l -->
<g id="node7" class="node">
<title>TwoOneCat_is1natural_cat_assoc_l</title>
<g id="a_node7"><a xlink:href="TwoOneCat.html#is1natural_cat_assoc_l" xlink:title="is1natural_cat_assoc_l">
<ellipse fill="#f070d1" stroke="black" cx="1290" cy="-611.97" rx="113.96" ry="18"/>
<ellipse fill="none" stroke="black" cx="1290" cy="-611.97" rx="117.97" ry="22"/>
<ellipse fill="none" stroke="black" cx="1290" cy="-611.97" rx="121.98" ry="26"/>
<text text-anchor="middle" x="1290" y="-608.27" font-family="Times,serif" font-size="14.00">is1natural_cat_assoc_l</text>
</a>
</g>
</g>
<!-- TwoOneCat_is1natural_cat_assoc_l&#45;&gt;TwoOneCat_Is21Cat -->
<g id="edge7" class="edge">
<title>TwoOneCat_is1natural_cat_assoc_l&#45;&gt;TwoOneCat_Is21Cat</title>
<path fill="none" stroke="black" d="M1297.82,-585.85C1321.22,-510.72 1390.54,-288.19 1414.63,-210.83"/>
<polygon fill="black" stroke="black" points="1418.09,-211.5 1417.72,-200.91 1411.41,-209.41 1418.09,-211.5"/>
</g>
<!-- TwoOneCat_is1functor_precomp -->
<g id="node8" class="node">
<title>TwoOneCat_is1functor_precomp</title>
<g id="a_node8"><a xlink:href="TwoOneCat.html#is1functor_precomp" xlink:title="is1functor_precomp">
<ellipse fill="#f070d1" stroke="black" cx="1040" cy="-611.97" rx="102.87" ry="18"/>
<ellipse fill="none" stroke="black" cx="1040" cy="-611.97" rx="106.88" ry="22"/>
<ellipse fill="none" stroke="black" cx="1040" cy="-611.97" rx="110.88" ry="26"/>
<text text-anchor="middle" x="1040" y="-608.27" font-family="Times,serif" font-size="14.00">is1functor_precomp</text>
</a>
</g>
</g>
<!-- TwoOneCat_is1functor_precomp&#45;&gt;TwoOneCat_Is21Cat -->
<g id="edge8" class="edge">
<title>TwoOneCat_is1functor_precomp&#45;&gt;TwoOneCat_Is21Cat</title>
<path fill="none" stroke="black" d="M1061.97,-586.48C1129.75,-510.9 1335.09,-281.97 1401.81,-207.59"/>
<polygon fill="black" stroke="black" points="1404.47,-209.87 1408.54,-200.09 1399.26,-205.2 1404.47,-209.87"/>
</g>
<!-- TwoOneCat_is1functor_postcomp -->
<g id="node9" class="node">
<title>TwoOneCat_is1functor_postcomp</title>
<g id="a_node9"><a xlink:href="TwoOneCat.html#is1functor_postcomp" xlink:title="is1functor_postcomp">
<ellipse fill="#f070d1" stroke="black" cx="796" cy="-611.97" rx="107.46" ry="18"/>
<ellipse fill="none" stroke="black" cx="796" cy="-611.97" rx="111.47" ry="22"/>
<ellipse fill="none" stroke="black" cx="796" cy="-611.97" rx="115.48" ry="26"/>
<text text-anchor="middle" x="796" y="-608.27" font-family="Times,serif" font-size="14.00">is1functor_postcomp</text>
</a>
</g>
</g>
<!-- TwoOneCat_is1functor_postcomp&#45;&gt;TwoOneCat_Is21Cat -->
<g id="edge9" class="edge">
<title>TwoOneCat_is1functor_postcomp&#45;&gt;TwoOneCat_Is21Cat</title>
<path fill="none" stroke="black" d="M831.05,-587.09C942.44,-511.24 1287.14,-276.49 1392.26,-204.9"/>
<polygon fill="black" stroke="black" points="1394.53,-207.59 1400.82,-199.07 1390.59,-201.8 1394.53,-207.59"/>
</g>
<!-- TwoOneCat_is1gpd_hom -->
<g id="node10" class="node">
<title>TwoOneCat_is1gpd_hom</title>
<g id="a_node10"><a xlink:href="TwoOneCat.html#is1gpd_hom" xlink:title="is1gpd_hom">
<ellipse fill="#f070d1" stroke="black" cx="588" cy="-611.97" rx="66.11" ry="18"/>
<ellipse fill="none" stroke="black" cx="588" cy="-611.97" rx="70.1" ry="22"/>
<ellipse fill="none" stroke="black" cx="588" cy="-611.97" rx="74.09" ry="26"/>
<text text-anchor="middle" x="588" y="-608.27" font-family="Times,serif" font-size="14.00">is1gpd_hom</text>
</a>
</g>
</g>
<!-- TwoOneCat_is1gpd_hom&#45;&gt;TwoOneCat_Is21Cat -->
<g id="edge10" class="edge">
<title>TwoOneCat_is1gpd_hom&#45;&gt;TwoOneCat_Is21Cat</title>
<path fill="none" stroke="black" d="M628.84,-590.08C772.09,-516.83 1250.39,-272.24 1386.55,-202.61"/>
<polygon fill="black" stroke="black" points="1388.44,-205.57 1395.75,-197.9 1385.25,-199.34 1388.44,-205.57"/>
</g>
<!-- TwoOneCat_is1cat_hom -->
<g id="node11" class="node">
<title>TwoOneCat_is1cat_hom</title>
<g id="a_node11"><a xlink:href="TwoOneCat.html#is1cat_hom" xlink:title="is1cat_hom">
<ellipse fill="#f070d1" stroke="black" cx="2781" cy="-611.97" rx="63.08" ry="18"/>
<ellipse fill="none" stroke="black" cx="2781" cy="-611.97" rx="67.09" ry="22"/>
<ellipse fill="none" stroke="black" cx="2781" cy="-611.97" rx="71.09" ry="26"/>
<text text-anchor="middle" x="2781" y="-608.27" font-family="Times,serif" font-size="14.00">is1cat_hom</text>
</a>
</g>
</g>
<!-- TwoOneCat_is1cat_hom&#45;&gt;TwoOneCat_Is21Cat -->
<g id="edge11" class="edge">
<title>TwoOneCat_is1cat_hom&#45;&gt;TwoOneCat_Is21Cat</title>
<path fill="none" stroke="black" d="M2728.18,-594.36C2508.82,-525.38 1671.62,-262.14 1467.89,-198.08"/>
<polygon fill="black" stroke="black" points="1468.71,-194.67 1458.12,-195.01 1466.61,-201.35 1468.71,-194.67"/>
</g>
<!-- TwoOneCat_Is21Cat_sind -->
<g id="node12" class="node">
<title>TwoOneCat_Is21Cat_sind</title>
<g id="a_node12"><a xlink:href="TwoOneCat.html#Is21Cat_sind" xlink:title="Is21Cat_sind">
<ellipse fill="#f070d1" stroke="black" cx="252" cy="-611.97" rx="70.7" ry="18"/>
<ellipse fill="none" stroke="black" cx="252" cy="-611.97" rx="74.7" ry="22"/>
<ellipse fill="none" stroke="black" cx="252" cy="-611.97" rx="78.69" ry="26"/>
<text text-anchor="middle" x="252" y="-608.27" font-family="Times,serif" font-size="14.00">Is21Cat_sind</text>
</a>
</g>
</g>
<!-- TwoOneCat_Build_Is21Cat -->
<g id="node16" class="node">
<title>TwoOneCat_Build_Is21Cat</title>
<g id="a_node16"><a xlink:href="TwoOneCat.html#Build_Is21Cat" xlink:title="Build_Is21Cat">
<ellipse fill="#7faaff" stroke="black" cx="252" cy="-182.97" rx="75.29" ry="18"/>
<text text-anchor="middle" x="252" y="-179.27" font-family="Times,serif" font-size="14.00">Build_Is21Cat</text>
</a>
</g>
</g>
<!-- TwoOneCat_Is21Cat_sind&#45;&gt;TwoOneCat_Build_Is21Cat -->
<g id="edge12" class="edge">
<title>TwoOneCat_Is21Cat_sind&#45;&gt;TwoOneCat_Build_Is21Cat</title>
<path fill="none" stroke="black" d="M252,-585.85C252,-511.05 252,-290.1 252,-211.84"/>
<polygon fill="black" stroke="black" points="255.5,-211.36 252,-201.36 248.5,-211.36 255.5,-211.36"/>
</g>
<!-- TwoOneCat_Is21Cat_sind&#45;&gt;TwoOneCat_Is21Cat -->
<g id="edge13" class="edge">
<title>TwoOneCat_Is21Cat_sind&#45;&gt;TwoOneCat_Is21Cat</title>
<path fill="none" stroke="black" d="M303.45,-592.21C499.92,-520.57 1200.84,-264.98 1380.7,-199.39"/>
<polygon fill="black" stroke="black" points="1382.14,-202.59 1390.33,-195.88 1379.74,-196.02 1382.14,-202.59"/>
</g>
<!-- TwoOneCat_Is21Cat_rec -->
<g id="node13" class="node">
<title>TwoOneCat_Is21Cat_rec</title>
<g id="a_node13"><a xlink:href="TwoOneCat.html#Is21Cat_rec" xlink:title="Is21Cat_rec">
<ellipse fill="#f070d1" stroke="black" cx="90" cy="-1084.97" rx="65.77" ry="18"/>
<ellipse fill="none" stroke="black" cx="90" cy="-1084.97" rx="69.78" ry="22"/>
<ellipse fill="none" stroke="black" cx="90" cy="-1084.97" rx="73.79" ry="26"/>
<text text-anchor="middle" x="90" y="-1081.27" font-family="Times,serif" font-size="14.00">Is21Cat_rec</text>
</a>
</g>
</g>
<!-- TwoOneCat_Is21Cat_rect -->
<g id="node15" class="node">
<title>TwoOneCat_Is21Cat_rect</title>
<g id="a_node15"><a xlink:href="TwoOneCat.html#Is21Cat_rect" xlink:title="Is21Cat_rect">
<ellipse fill="#f070d1" stroke="black" cx="86" cy="-611.97" rx="69.59" ry="18"/>
<text text-anchor="middle" x="86" y="-608.27" font-family="Times,serif" font-size="14.00">Is21Cat_rect</text>
</a>
</g>
</g>
<!-- TwoOneCat_Is21Cat_rec&#45;&gt;TwoOneCat_Is21Cat_rect -->
<g id="edge14" class="edge">
<title>TwoOneCat_Is21Cat_rec&#45;&gt;TwoOneCat_Is21Cat_rect</title>
<path fill="none" stroke="black" d="M89.78,-1058.64C89.1,-977.45 86.94,-724.05 86.23,-640.21"/>
<polygon fill="black" stroke="black" points="89.73,-639.94 86.14,-629.97 82.73,-640 89.73,-639.94"/>
</g>
<!-- TwoOneCat_Is21Cat_ind -->
<g id="node14" class="node">
<title>TwoOneCat_Is21Cat_ind</title>
<g id="a_node14"><a xlink:href="TwoOneCat.html#Is21Cat_ind" xlink:title="Is21Cat_ind">
<ellipse fill="#7fffd4" stroke="black" cx="422" cy="-611.97" rx="65.77" ry="18"/>
<ellipse fill="none" stroke="black" cx="422" cy="-611.97" rx="69.78" ry="22"/>
<ellipse fill="none" stroke="black" cx="422" cy="-611.97" rx="73.79" ry="26"/>
<text text-anchor="middle" x="422" y="-608.27" font-family="Times,serif" font-size="14.00">Is21Cat_ind</text>
</a>
</g>
</g>
<!-- TwoOneCat_Is21Cat_ind&#45;&gt;TwoOneCat_Build_Is21Cat -->
<g id="edge15" class="edge">
<title>TwoOneCat_Is21Cat_ind&#45;&gt;TwoOneCat_Build_Is21Cat</title>
<path fill="none" stroke="black" d="M412.13,-586.16C382.29,-511.21 293.22,-287.49 262.53,-210.41"/>
<polygon fill="black" stroke="black" points="265.71,-208.94 258.76,-200.94 259.21,-211.53 265.71,-208.94"/>
</g>
<!-- TwoOneCat_Is21Cat_ind&#45;&gt;TwoOneCat_Is21Cat -->
<g id="edge16" class="edge">
<title>TwoOneCat_Is21Cat_ind&#45;&gt;TwoOneCat_Is21Cat</title>
<path fill="none" stroke="black" d="M467.61,-591.51C636.57,-519.44 1225.18,-268.35 1383.52,-200.81"/>
<polygon fill="black" stroke="black" points="1385.07,-203.95 1392.89,-196.81 1382.32,-197.51 1385.07,-203.95"/>
</g>
<!-- TwoOneCat_Is21Cat_rect&#45;&gt;TwoOneCat_Build_Is21Cat -->
<g id="edge17" class="edge">
<title>TwoOneCat_Is21Cat_rect&#45;&gt;TwoOneCat_Build_Is21Cat</title>
<path fill="none" stroke="black" d="M92.61,-593.96C118.17,-528.22 210.65,-290.33 241.73,-210.38"/>
<polygon fill="black" stroke="black" points="245.01,-211.61 245.37,-201.02 238.49,-209.07 245.01,-211.61"/>
</g>
<!-- TwoOneCat_Is21Cat_rect&#45;&gt;TwoOneCat_Is21Cat -->
<g id="edge18" class="edge">
<title>TwoOneCat_Is21Cat_rect&#45;&gt;TwoOneCat_Is21Cat</title>
<path fill="none" stroke="black" d="M128.1,-597.46C139.73,-593.74 152.35,-589.69 164,-585.97 639.2,-433.95 1215.48,-250.14 1378.27,-198.23"/>
<polygon fill="black" stroke="black" points="1379.48,-201.52 1387.95,-195.14 1377.36,-194.85 1379.48,-201.52"/>
</g>
</g>
</svg>
