<?xml version="1.0" encoding="UTF-8" standalone="no"?>
<!DOCTYPE svg PUBLIC "-//W3C//DTD SVG 1.1//EN"
 "http://www.w3.org/Graphics/SVG/1.1/DTD/svg11.dtd">
<!-- Generated by graphviz version 2.43.0 (0)
 -->
<!-- Title: HoTT_WildCat_Forall Pages: 1 -->
<svg width="510pt" height="259pt"
 viewBox="0.00 0.00 510.00 259.00" xmlns="http://www.w3.org/2000/svg" xmlns:xlink="http://www.w3.org/1999/xlink">
<g id="graph0" class="graph" transform="scale(1 1) rotate(0) translate(4 255)">
<title>HoTT_WildCat_Forall</title>
<polygon fill="white" stroke="transparent" points="-4,4 -4,-255 506,-255 506,4 -4,4"/>
<g id="clust1" class="cluster">
<title>cluster_Forall</title>
<polygon fill="#ffffc3" stroke="black" points="11.19,-8 11.19,-243 490.81,-243 490.81,-8 11.19,-8"/>
<text text-anchor="middle" x="40.19" y="-227.8" font-family="Times,serif" font-size="14.00">Forall</text>
</g>
<!-- Forall_is1cat_forall -->
<g id="node1" class="node">
<title>Forall_is1cat_forall</title>
<g id="a_node1"><a xlink:href="Forall.html#is1cat_forall" xlink:title="is1cat_forall">
<ellipse fill="#f070d1" stroke="black" cx="373.05" cy="-186" rx="67.68" ry="18"/>
<ellipse fill="none" stroke="black" cx="373.05" cy="-186" rx="71.68" ry="22"/>
<ellipse fill="none" stroke="black" cx="373.05" cy="-186" rx="75.69" ry="26"/>
<text text-anchor="middle" x="373.05" y="-182.3" font-family="Times,serif" font-size="14.00">is1cat_forall</text>
</a>
</g>
</g>
<!-- Forall_is01cat_forall -->
<g id="node3" class="node">
<title>Forall_is01cat_forall</title>
<g id="a_node3"><a xlink:href="Forall.html#is01cat_forall" xlink:title="is01cat_forall">
<ellipse fill="#f070d1" stroke="black" cx="253.05" cy="-106" rx="73.39" ry="18"/>
<text text-anchor="middle" x="253.05" y="-102.3" font-family="Times,serif" font-size="14.00">is01cat_forall</text>
</a>
</g>
</g>
<!-- Forall_is1cat_forall&#45;&gt;Forall_is01cat_forall -->
<g id="edge1" class="edge">
<title>Forall_is1cat_forall&#45;&gt;Forall_is01cat_forall</title>
<path fill="none" stroke="black" d="M338.67,-162.65C322.3,-152.01 302.81,-139.34 286.57,-128.78"/>
<polygon fill="black" stroke="black" points="288.2,-125.67 277.91,-123.16 284.39,-131.54 288.2,-125.67"/>
</g>
<!-- Forall_is0gpd_forall -->
<g id="node2" class="node">
<title>Forall_is0gpd_forall</title>
<g id="a_node2"><a xlink:href="Forall.html#is0gpd_forall" xlink:title="is0gpd_forall">
<ellipse fill="#f070d1" stroke="black" cx="133.05" cy="-186" rx="70.7" ry="18"/>
<ellipse fill="none" stroke="black" cx="133.05" cy="-186" rx="74.7" ry="22"/>
<ellipse fill="none" stroke="black" cx="133.05" cy="-186" rx="78.69" ry="26"/>
<text text-anchor="middle" x="133.05" y="-182.3" font-family="Times,serif" font-size="14.00">is0gpd_forall</text>
</a>
</g>
</g>
<!-- Forall_is0gpd_forall&#45;&gt;Forall_is01cat_forall -->
<g id="edge2" class="edge">
<title>Forall_is0gpd_forall&#45;&gt;Forall_is01cat_forall</title>
<path fill="none" stroke="black" d="M167.76,-162.44C184.12,-151.81 203.54,-139.19 219.71,-128.67"/>
<polygon fill="black" stroke="black" points="221.85,-131.46 228.33,-123.07 218.03,-125.59 221.85,-131.46"/>
</g>
<!-- Forall_isgraph_forall -->
<g id="node4" class="node">
<title>Forall_isgraph_forall</title>
<g id="a_node4"><a xlink:href="Forall.html#isgraph_forall" xlink:title="isgraph_forall">
<ellipse fill="#f070d1" stroke="black" cx="253.05" cy="-34" rx="74.99" ry="18"/>
<text text-anchor="middle" x="253.05" y="-30.3" font-family="Times,serif" font-size="14.00">isgraph_forall</text>
</a>
</g>
</g>
<!-- Forall_is01cat_forall&#45;&gt;Forall_isgraph_forall -->
<g id="edge3" class="edge">
<title>Forall_is01cat_forall&#45;&gt;Forall_isgraph_forall</title>
<path fill="none" stroke="black" d="M253.05,-87.7C253.05,-79.98 253.05,-70.71 253.05,-62.11"/>
<polygon fill="black" stroke="black" points="256.55,-62.1 253.05,-52.1 249.55,-62.1 256.55,-62.1"/>
</g>
</g>
</svg>
