<?xml version="1.0" encoding="UTF-8" standalone="no"?>
<!DOCTYPE svg PUBLIC "-//W3C//DTD SVG 1.1//EN"
 "http://www.w3.org/Graphics/SVG/1.1/DTD/svg11.dtd">
<!-- Generated by graphviz version 2.43.0 (0)
 -->
<!-- Title: HoTT_Equiv_BiInv Pages: 1 -->
<svg width="654pt" height="331pt"
 viewBox="0.00 0.00 654.00 331.00" xmlns="http://www.w3.org/2000/svg" xmlns:xlink="http://www.w3.org/1999/xlink">
<g id="graph0" class="graph" transform="scale(1 1) rotate(0) translate(4 327)">
<title>HoTT_Equiv_BiInv</title>
<polygon fill="white" stroke="transparent" points="-4,4 -4,-327 650,-327 650,4 -4,4"/>
<g id="clust1" class="cluster">
<title>cluster_BiInv</title>
<polygon fill="#ffffc3" stroke="black" points="20.67,-8 20.67,-315 625.33,-315 625.33,-8 20.67,-8"/>
<text text-anchor="middle" x="47.67" y="-299.8" font-family="Times,serif" font-size="14.00">BiInv</text>
</g>
<!-- BiInv_equiv_biinv_isequiv -->
<g id="node1" class="node">
<title>BiInv_equiv_biinv_isequiv</title>
<g id="a_node1"><a xlink:href="BiInv.html#equiv_biinv_isequiv" xlink:title="equiv_biinv_isequiv">
<ellipse fill="#f070d1" stroke="black" cx="323.47" cy="-258" rx="100.96" ry="18"/>
<ellipse fill="none" stroke="black" cx="323.47" cy="-258" rx="104.97" ry="22"/>
<ellipse fill="none" stroke="black" cx="323.47" cy="-258" rx="108.98" ry="26"/>
<text text-anchor="middle" x="323.47" y="-254.3" font-family="Times,serif" font-size="14.00">equiv_biinv_isequiv</text>
</a>
</g>
</g>
<!-- BiInv_isprop_biinv -->
<g id="node2" class="node">
<title>BiInv_isprop_biinv</title>
<g id="a_node2"><a xlink:href="BiInv.html#isprop_biinv" xlink:title="isprop_biinv">
<ellipse fill="#f070d1" stroke="black" cx="323.47" cy="-178" rx="67.69" ry="18"/>
<text text-anchor="middle" x="323.47" y="-174.3" font-family="Times,serif" font-size="14.00">isprop_biinv</text>
</a>
</g>
</g>
<!-- BiInv_equiv_biinv_isequiv&#45;&gt;BiInv_isprop_biinv -->
<g id="edge1" class="edge">
<title>BiInv_equiv_biinv_isequiv&#45;&gt;BiInv_isprop_biinv</title>
<path fill="none" stroke="black" d="M323.47,-231.89C323.47,-223.84 323.47,-214.88 323.47,-206.66"/>
<polygon fill="black" stroke="black" points="326.97,-206.41 323.47,-196.41 319.97,-206.41 326.97,-206.41"/>
</g>
<!-- BiInv_isequiv_biinv -->
<g id="node3" class="node">
<title>BiInv_isequiv_biinv</title>
<g id="a_node3"><a xlink:href="BiInv.html#isequiv_biinv" xlink:title="isequiv_biinv">
<ellipse fill="#f070d1" stroke="black" cx="323.47" cy="-106" rx="71.49" ry="18"/>
<text text-anchor="middle" x="323.47" y="-102.3" font-family="Times,serif" font-size="14.00">isequiv_biinv</text>
</a>
</g>
</g>
<!-- BiInv_isprop_biinv&#45;&gt;BiInv_isequiv_biinv -->
<g id="edge2" class="edge">
<title>BiInv_isprop_biinv&#45;&gt;BiInv_isequiv_biinv</title>
<path fill="none" stroke="black" d="M323.47,-159.7C323.47,-151.98 323.47,-142.71 323.47,-134.11"/>
<polygon fill="black" stroke="black" points="326.97,-134.1 323.47,-124.1 319.97,-134.1 326.97,-134.1"/>
</g>
<!-- BiInv_BiInv -->
<g id="node4" class="node">
<title>BiInv_BiInv</title>
<g id="a_node4"><a xlink:href="BiInv.html#BiInv" xlink:title="BiInv">
<ellipse fill="#f070d1" stroke="black" cx="323.47" cy="-34" rx="35.19" ry="18"/>
<text text-anchor="middle" x="323.47" y="-30.3" font-family="Times,serif" font-size="14.00">BiInv</text>
</a>
</g>
</g>
<!-- BiInv_isequiv_biinv&#45;&gt;BiInv_BiInv -->
<g id="edge3" class="edge">
<title>BiInv_isequiv_biinv&#45;&gt;BiInv_BiInv</title>
<path fill="none" stroke="black" d="M323.47,-87.7C323.47,-79.98 323.47,-70.71 323.47,-62.11"/>
<polygon fill="black" stroke="black" points="326.97,-62.1 323.47,-52.1 319.97,-62.1 326.97,-62.1"/>
</g>
</g>
</svg>
