<?xml version="1.0" encoding="UTF-8" standalone="no"?>
<!DOCTYPE svg PUBLIC "-//W3C//DTD SVG 1.1//EN"
 "http://www.w3.org/Graphics/SVG/1.1/DTD/svg11.dtd">
<!-- Generated by graphviz version 2.43.0 (0)
 -->
<!-- Title: HoTT_Algebra_ooGroup Pages: 1 -->
<svg width="2370pt" height="1189pt"
 viewBox="0.00 0.00 2370.00 1189.00" xmlns="http://www.w3.org/2000/svg" xmlns:xlink="http://www.w3.org/1999/xlink">
<g id="graph0" class="graph" transform="scale(1 1) rotate(0) translate(4 1185)">
<title>HoTT_Algebra_ooGroup</title>
<polygon fill="white" stroke="transparent" points="-4,4 -4,-1185 2366,-1185 2366,4 -4,4"/>
<g id="clust1" class="cluster">
<title>cluster_ooGroup</title>
<polygon fill="#ffffc3" stroke="black" points="8,-17.79 8,-1163.21 2354,-1163.21 2354,-17.79 8,-17.79"/>
<text text-anchor="middle" x="46.5" y="-1148.01" font-family="Times,serif" font-size="14.00">ooGroup</text>
</g>
<!-- ooGroup_is1functor_group_to_oogroup -->
<g id="node1" class="node">
<title>ooGroup_is1functor_group_to_oogroup</title>
<g id="a_node1"><a xlink:href="ooGroup.html#is1functor_group_to_oogroup" xlink:title="is1functor_group_to_oogroup">
<ellipse fill="#f070d1" stroke="black" cx="2192" cy="-1036.79" rx="145.67" ry="18"/>
<ellipse fill="none" stroke="black" cx="2192" cy="-1036.79" rx="149.67" ry="22"/>
<ellipse fill="none" stroke="black" cx="2192" cy="-1036.79" rx="153.67" ry="26"/>
<text text-anchor="middle" x="2192" y="-1033.09" font-family="Times,serif" font-size="14.00">is1functor_group_to_oogroup</text>
</a>
</g>
</g>
<!-- ooGroup_is0functor_group_to_oogroup -->
<g id="node2" class="node">
<title>ooGroup_is0functor_group_to_oogroup</title>
<g id="a_node2"><a xlink:href="ooGroup.html#is0functor_group_to_oogroup" xlink:title="is0functor_group_to_oogroup">
<ellipse fill="#f070d1" stroke="black" cx="2200" cy="-644.79" rx="145.67" ry="18"/>
<text text-anchor="middle" x="2200" y="-641.09" font-family="Times,serif" font-size="14.00">is0functor_group_to_oogroup</text>
</a>
</g>
</g>
<!-- ooGroup_is1functor_group_to_oogroup&#45;&gt;ooGroup_is0functor_group_to_oogroup -->
<g id="edge1" class="edge">
<title>ooGroup_is1functor_group_to_oogroup&#45;&gt;ooGroup_is0functor_group_to_oogroup</title>
<path fill="none" stroke="black" d="M2223.2,-1011.11C2258.15,-981.26 2312.79,-927.42 2335,-866.79 2363.73,-788.37 2279.69,-707.4 2231.4,-668.87"/>
<polygon fill="black" stroke="black" points="2233.45,-666.02 2223.41,-662.61 2229.13,-671.53 2233.45,-666.02"/>
</g>
<!-- ooGroup_is1cat_oogroup -->
<g id="node4" class="node">
<title>ooGroup_is1cat_oogroup</title>
<g id="a_node4"><a xlink:href="ooGroup.html#is1cat_oogroup" xlink:title="is1cat_oogroup">
<ellipse fill="#f070d1" stroke="black" cx="2245" cy="-840.79" rx="81.49" ry="18"/>
<text text-anchor="middle" x="2245" y="-837.09" font-family="Times,serif" font-size="14.00">is1cat_oogroup</text>
</a>
</g>
</g>
<!-- ooGroup_is1functor_group_to_oogroup&#45;&gt;ooGroup_is1cat_oogroup -->
<g id="edge2" class="edge">
<title>ooGroup_is1functor_group_to_oogroup&#45;&gt;ooGroup_is1cat_oogroup</title>
<path fill="none" stroke="black" d="M2198.93,-1010.43C2208.96,-973.72 2227.43,-906.09 2237.68,-868.59"/>
<polygon fill="black" stroke="black" points="2241.08,-869.44 2240.34,-858.87 2234.32,-867.59 2241.08,-869.44"/>
</g>
<!-- ooGroup_group_to_oogroup -->
<g id="node3" class="node">
<title>ooGroup_group_to_oogroup</title>
<g id="a_node3"><a xlink:href="ooGroup.html#group_to_oogroup" xlink:title="group_to_oogroup">
<ellipse fill="#f070d1" stroke="black" cx="2122" cy="-253.79" rx="94.48" ry="18"/>
<text text-anchor="middle" x="2122" y="-250.09" font-family="Times,serif" font-size="14.00">group_to_oogroup</text>
</a>
</g>
</g>
<!-- ooGroup_is0functor_group_to_oogroup&#45;&gt;ooGroup_group_to_oogroup -->
<g id="edge3" class="edge">
<title>ooGroup_is0functor_group_to_oogroup&#45;&gt;ooGroup_group_to_oogroup</title>
<path fill="none" stroke="black" d="M2219.56,-626.81C2259.43,-590.05 2343.5,-500.16 2309,-422.79 2278.84,-355.16 2206.5,-303.37 2161.15,-276.14"/>
<polygon fill="black" stroke="black" points="2162.86,-273.08 2152.46,-271.03 2159.3,-279.12 2162.86,-273.08"/>
</g>
<!-- ooGroup_isgraph_oogroup -->
<g id="node6" class="node">
<title>ooGroup_isgraph_oogroup</title>
<g id="a_node6"><a xlink:href="ooGroup.html#isgraph_oogroup" xlink:title="isgraph_oogroup">
<ellipse fill="#f070d1" stroke="black" cx="2012" cy="-448.79" rx="88.28" ry="18"/>
<text text-anchor="middle" x="2012" y="-445.09" font-family="Times,serif" font-size="14.00">isgraph_oogroup</text>
</a>
</g>
</g>
<!-- ooGroup_is0functor_group_to_oogroup&#45;&gt;ooGroup_isgraph_oogroup -->
<g id="edge4" class="edge">
<title>ooGroup_is0functor_group_to_oogroup&#45;&gt;ooGroup_isgraph_oogroup</title>
<path fill="none" stroke="black" d="M2183.32,-626.58C2149.79,-591.98 2074.14,-513.92 2035.57,-474.12"/>
<polygon fill="black" stroke="black" points="2037.85,-471.44 2028.38,-466.69 2032.82,-476.31 2037.85,-471.44"/>
</g>
<!-- ooGroup_Build_ooGroup -->
<g id="node38" class="node">
<title>ooGroup_Build_ooGroup</title>
<g id="a_node38"><a xlink:href="ooGroup.html#Build_ooGroup" xlink:title="Build_ooGroup">
<ellipse fill="#7faaff" stroke="black" cx="883" cy="-75.79" rx="79.09" ry="18"/>
<text text-anchor="middle" x="883" y="-72.09" font-family="Times,serif" font-size="14.00">Build_ooGroup</text>
</a>
</g>
</g>
<!-- ooGroup_group_to_oogroup&#45;&gt;ooGroup_Build_ooGroup -->
<g id="edge5" class="edge">
<title>ooGroup_group_to_oogroup&#45;&gt;ooGroup_Build_ooGroup</title>
<path fill="none" stroke="black" d="M2062.09,-239.79C2042.08,-235.67 2019.63,-231.28 1999,-227.79 1612.08,-162.37 1145.89,-106.72 962.55,-85.73"/>
<polygon fill="black" stroke="black" points="962.79,-82.23 952.46,-84.57 962,-89.19 962.79,-82.23"/>
</g>
<!-- ooGroup_ooGroup -->
<g id="node39" class="node">
<title>ooGroup_ooGroup</title>
<g id="a_node39"><a xlink:href="ooGroup.html#ooGroup" xlink:title="ooGroup">
<ellipse fill="#e2cdfa" stroke="black" cx="1457" cy="-75.79" rx="50.09" ry="18"/>
<text text-anchor="middle" x="1457" y="-72.09" font-family="Times,serif" font-size="14.00">ooGroup</text>
</a>
</g>
</g>
<!-- ooGroup_group_to_oogroup&#45;&gt;ooGroup_ooGroup -->
<g id="edge6" class="edge">
<title>ooGroup_group_to_oogroup&#45;&gt;ooGroup_ooGroup</title>
<path fill="none" stroke="black" d="M2069.26,-238.84C1943.62,-205.58 1628.01,-122.05 1506.11,-89.79"/>
<polygon fill="black" stroke="black" points="1506.86,-86.37 1496.3,-87.19 1505.07,-93.14 1506.86,-86.37"/>
</g>
<!-- ooGroup_is01cat_oogroup -->
<g id="node5" class="node">
<title>ooGroup_is01cat_oogroup</title>
<g id="a_node5"><a xlink:href="ooGroup.html#is01cat_oogroup" xlink:title="is01cat_oogroup">
<ellipse fill="#f070d1" stroke="black" cx="1929" cy="-644.79" rx="87.18" ry="18"/>
<text text-anchor="middle" x="1929" y="-641.09" font-family="Times,serif" font-size="14.00">is01cat_oogroup</text>
</a>
</g>
</g>
<!-- ooGroup_is1cat_oogroup&#45;&gt;ooGroup_is01cat_oogroup -->
<g id="edge7" class="edge">
<title>ooGroup_is1cat_oogroup&#45;&gt;ooGroup_is01cat_oogroup</title>
<path fill="none" stroke="black" d="M2218.6,-823.59C2161.79,-788.71 2027.93,-706.53 1964.08,-667.33"/>
<polygon fill="black" stroke="black" points="1965.9,-664.34 1955.55,-662.09 1962.24,-670.3 1965.9,-664.34"/>
</g>
<!-- ooGroup_classifying_space -->
<g id="node33" class="node">
<title>ooGroup_classifying_space</title>
<g id="a_node33"><a xlink:href="ooGroup.html#classifying_space" xlink:title="classifying_space">
<ellipse fill="#f070d1" stroke="black" cx="2209" cy="-448.79" rx="90.98" ry="18"/>
<text text-anchor="middle" x="2209" y="-445.09" font-family="Times,serif" font-size="14.00">classifying_space</text>
</a>
</g>
</g>
<!-- ooGroup_is1cat_oogroup&#45;&gt;ooGroup_classifying_space -->
<g id="edge8" class="edge">
<title>ooGroup_is1cat_oogroup&#45;&gt;ooGroup_classifying_space</title>
<path fill="none" stroke="black" d="M2212.87,-824.2C2165.75,-799.3 2079.74,-745.63 2045,-670.79 2007.3,-589.59 2112.66,-508.86 2171.84,-471.41"/>
<polygon fill="black" stroke="black" points="2173.92,-474.24 2180.57,-465.99 2170.23,-468.3 2173.92,-474.24"/>
</g>
<!-- ooGroup_is01cat_oogroup&#45;&gt;ooGroup_isgraph_oogroup -->
<g id="edge9" class="edge">
<title>ooGroup_is01cat_oogroup&#45;&gt;ooGroup_isgraph_oogroup</title>
<path fill="none" stroke="black" d="M1936.37,-626.58C1950.92,-592.57 1983.43,-516.57 2000.71,-476.19"/>
<polygon fill="black" stroke="black" points="2003.94,-477.54 2004.65,-466.97 1997.5,-474.79 2003.94,-477.54"/>
</g>
<!-- ooGroup_grouphom_idmap -->
<g id="node22" class="node">
<title>ooGroup_grouphom_idmap</title>
<g id="a_node22"><a xlink:href="ooGroup.html#grouphom_idmap" xlink:title="grouphom_idmap">
<ellipse fill="#f070d1" stroke="black" cx="1815" cy="-448.79" rx="90.98" ry="18"/>
<text text-anchor="middle" x="1815" y="-445.09" font-family="Times,serif" font-size="14.00">grouphom_idmap</text>
</a>
</g>
</g>
<!-- ooGroup_is01cat_oogroup&#45;&gt;ooGroup_grouphom_idmap -->
<g id="edge10" class="edge">
<title>ooGroup_is01cat_oogroup&#45;&gt;ooGroup_grouphom_idmap</title>
<path fill="none" stroke="black" d="M1918.88,-626.58C1898.76,-592.34 1853.63,-515.54 1830.03,-475.38"/>
<polygon fill="black" stroke="black" points="1833.02,-473.54 1824.93,-466.69 1826.98,-477.09 1833.02,-473.54"/>
</g>
<!-- ooGroup_grouphom_compose -->
<g id="node24" class="node">
<title>ooGroup_grouphom_compose</title>
<g id="a_node24"><a xlink:href="ooGroup.html#grouphom_compose" xlink:title="grouphom_compose">
<ellipse fill="#f070d1" stroke="black" cx="1356" cy="-448.79" rx="102.88" ry="18"/>
<text text-anchor="middle" x="1356" y="-445.09" font-family="Times,serif" font-size="14.00">grouphom_compose</text>
</a>
</g>
</g>
<!-- ooGroup_is01cat_oogroup&#45;&gt;ooGroup_grouphom_compose -->
<g id="edge11" class="edge">
<title>ooGroup_is01cat_oogroup&#45;&gt;ooGroup_grouphom_compose</title>
<path fill="none" stroke="black" d="M1885.46,-629.05C1782.43,-594.17 1523.84,-506.62 1410.58,-468.27"/>
<polygon fill="black" stroke="black" points="1411.64,-464.94 1401.05,-465.05 1409.4,-471.57 1411.64,-464.94"/>
</g>
<!-- ooGroup_ooGroupHom -->
<g id="node28" class="node">
<title>ooGroup_ooGroupHom</title>
<g id="a_node28"><a xlink:href="ooGroup.html#ooGroupHom" xlink:title="ooGroupHom">
<ellipse fill="#f070d1" stroke="black" cx="1614" cy="-253.79" rx="72.29" ry="18"/>
<text text-anchor="middle" x="1614" y="-250.09" font-family="Times,serif" font-size="14.00">ooGroupHom</text>
</a>
</g>
</g>
<!-- ooGroup_isgraph_oogroup&#45;&gt;ooGroup_ooGroupHom -->
<g id="edge12" class="edge">
<title>ooGroup_isgraph_oogroup&#45;&gt;ooGroup_ooGroupHom</title>
<path fill="none" stroke="black" d="M1979.43,-432C1907.27,-397.01 1734.06,-313.01 1654.82,-274.59"/>
<polygon fill="black" stroke="black" points="1656.16,-271.35 1645.63,-270.13 1653.1,-277.64 1656.16,-271.35"/>
</g>
<!-- ooGroup_cosets -->
<g id="node7" class="node">
<title>ooGroup_cosets</title>
<g id="a_node7"><a xlink:href="ooGroup.html#cosets" xlink:title="cosets">
<ellipse fill="#f070d1" stroke="black" cx="653" cy="-840.79" rx="40.13" ry="18"/>
<ellipse fill="none" stroke="black" cx="653" cy="-840.79" rx="44.11" ry="22"/>
<ellipse fill="none" stroke="black" cx="653" cy="-840.79" rx="48.09" ry="26"/>
<text text-anchor="middle" x="653" y="-837.09" font-family="Times,serif" font-size="14.00">cosets</text>
</a>
</g>
</g>
<!-- ooGroup_in_coset -->
<g id="node14" class="node">
<title>ooGroup_in_coset</title>
<g id="a_node14"><a xlink:href="ooGroup.html#in_coset" xlink:title="in_coset">
<ellipse fill="#f070d1" stroke="black" cx="659" cy="-644.79" rx="48.19" ry="18"/>
<text text-anchor="middle" x="659" y="-641.09" font-family="Times,serif" font-size="14.00">in_coset</text>
</a>
</g>
</g>
<!-- ooGroup_cosets&#45;&gt;ooGroup_in_coset -->
<g id="edge13" class="edge">
<title>ooGroup_cosets&#45;&gt;ooGroup_in_coset</title>
<path fill="none" stroke="black" d="M653.78,-814.43C654.91,-777.88 656.99,-710.67 658.16,-673.08"/>
<polygon fill="black" stroke="black" points="661.66,-672.97 658.47,-662.87 654.66,-672.76 661.66,-672.97"/>
</g>
<!-- ooGroup_equiv_coset_subgroup -->
<g id="node8" class="node">
<title>ooGroup_equiv_coset_subgroup</title>
<g id="a_node8"><a xlink:href="ooGroup.html#equiv_coset_subgroup" xlink:title="equiv_coset_subgroup">
<ellipse fill="#f070d1" stroke="black" cx="794" cy="-1036.79" rx="113.17" ry="18"/>
<ellipse fill="none" stroke="black" cx="794" cy="-1036.79" rx="117.18" ry="22"/>
<ellipse fill="none" stroke="black" cx="794" cy="-1036.79" rx="121.18" ry="26"/>
<text text-anchor="middle" x="794" y="-1033.09" font-family="Times,serif" font-size="14.00">equiv_coset_subgroup</text>
</a>
</g>
</g>
<!-- ooGroup_equiv_coset_subgroup_subproof -->
<g id="node9" class="node">
<title>ooGroup_equiv_coset_subgroup_subproof</title>
<g id="a_node9"><a xlink:href="ooGroup.html#equiv_coset_subgroup_subproof" xlink:title="equiv_coset_subgroup_subproof">
<ellipse fill="#f070d1" stroke="black" cx="1090" cy="-840.79" rx="158.67" ry="18"/>
<text text-anchor="middle" x="1090" y="-837.09" font-family="Times,serif" font-size="14.00">equiv_coset_subgroup_subproof</text>
</a>
</g>
</g>
<!-- ooGroup_equiv_coset_subgroup&#45;&gt;ooGroup_equiv_coset_subgroup_subproof -->
<g id="edge14" class="edge">
<title>ooGroup_equiv_coset_subgroup&#45;&gt;ooGroup_equiv_coset_subgroup_subproof</title>
<path fill="none" stroke="black" d="M830.59,-1011.81C888.29,-973.99 999.62,-901.03 1055.8,-864.21"/>
<polygon fill="black" stroke="black" points="1057.88,-867.03 1064.33,-858.62 1054.04,-861.17 1057.88,-867.03"/>
</g>
<!-- ooGroup_ishprop_in_coset -->
<g id="node13" class="node">
<title>ooGroup_ishprop_in_coset</title>
<g id="a_node13"><a xlink:href="ooGroup.html#ishprop_in_coset" xlink:title="ishprop_in_coset">
<ellipse fill="#f070d1" stroke="black" cx="499" cy="-840.79" rx="87.99" ry="18"/>
<text text-anchor="middle" x="499" y="-837.09" font-family="Times,serif" font-size="14.00">ishprop_in_coset</text>
</a>
</g>
</g>
<!-- ooGroup_equiv_coset_subgroup&#45;&gt;ooGroup_ishprop_in_coset -->
<g id="edge15" class="edge">
<title>ooGroup_equiv_coset_subgroup&#45;&gt;ooGroup_ishprop_in_coset</title>
<path fill="none" stroke="black" d="M757.53,-1011.81C699.73,-973.8 587.94,-900.28 532.23,-863.65"/>
<polygon fill="black" stroke="black" points="534.07,-860.67 523.79,-858.1 530.22,-866.52 534.07,-860.67"/>
</g>
<!-- ooGroup_grouphom_V -->
<g id="node16" class="node">
<title>ooGroup_grouphom_V</title>
<g id="a_node16"><a xlink:href="ooGroup.html#grouphom_V" xlink:title="grouphom_V">
<ellipse fill="#f070d1" stroke="black" cx="801" cy="-644.79" rx="68.79" ry="18"/>
<text text-anchor="middle" x="801" y="-641.09" font-family="Times,serif" font-size="14.00">grouphom_V</text>
</a>
</g>
</g>
<!-- ooGroup_equiv_coset_subgroup_subproof&#45;&gt;ooGroup_grouphom_V -->
<g id="edge16" class="edge">
<title>ooGroup_equiv_coset_subgroup_subproof&#45;&gt;ooGroup_grouphom_V</title>
<path fill="none" stroke="black" d="M1064.86,-822.92C1012.48,-787.75 891.71,-706.68 833.51,-667.62"/>
<polygon fill="black" stroke="black" points="835.32,-664.61 825.06,-661.95 831.41,-670.43 835.32,-664.61"/>
</g>
<!-- ooGroup_transitive_coset -->
<g id="node10" class="node">
<title>ooGroup_transitive_coset</title>
<g id="a_node10"><a xlink:href="ooGroup.html#transitive_coset" xlink:title="transitive_coset">
<ellipse fill="#f070d1" stroke="black" cx="108" cy="-840.79" rx="84.49" ry="18"/>
<ellipse fill="none" stroke="black" cx="108" cy="-840.79" rx="88.49" ry="22"/>
<ellipse fill="none" stroke="black" cx="108" cy="-840.79" rx="92.49" ry="26"/>
<text text-anchor="middle" x="108" y="-837.09" font-family="Times,serif" font-size="14.00">transitive_coset</text>
</a>
</g>
</g>
<!-- ooGroup_transitive_coset&#45;&gt;ooGroup_in_coset -->
<g id="edge17" class="edge">
<title>ooGroup_transitive_coset&#45;&gt;ooGroup_in_coset</title>
<path fill="none" stroke="black" d="M168.28,-820.97C261.92,-791.33 447.65,-730.92 602,-670.79 607.95,-668.48 614.18,-665.9 620.26,-663.3"/>
<polygon fill="black" stroke="black" points="621.83,-666.43 629.61,-659.24 619.05,-660.01 621.83,-666.43"/>
</g>
<!-- ooGroup_grouphom_pp -->
<g id="node17" class="node">
<title>ooGroup_grouphom_pp</title>
<g id="a_node17"><a xlink:href="ooGroup.html#grouphom_pp" xlink:title="grouphom_pp">
<ellipse fill="#f070d1" stroke="black" cx="365" cy="-644.79" rx="74.19" ry="18"/>
<text text-anchor="middle" x="365" y="-641.09" font-family="Times,serif" font-size="14.00">grouphom_pp</text>
</a>
</g>
</g>
<!-- ooGroup_transitive_coset&#45;&gt;ooGroup_grouphom_pp -->
<g id="edge18" class="edge">
<title>ooGroup_transitive_coset&#45;&gt;ooGroup_grouphom_pp</title>
<path fill="none" stroke="black" d="M139.26,-816.2C189.21,-778.49 286.37,-705.15 335.31,-668.21"/>
<polygon fill="black" stroke="black" points="337.43,-670.99 343.3,-662.17 333.21,-665.4 337.43,-670.99"/>
</g>
<!-- ooGroup_symmetric_coset -->
<g id="node11" class="node">
<title>ooGroup_symmetric_coset</title>
<g id="a_node11"><a xlink:href="ooGroup.html#symmetric_coset" xlink:title="symmetric_coset">
<ellipse fill="#f070d1" stroke="black" cx="816" cy="-840.79" rx="89.08" ry="18"/>
<ellipse fill="none" stroke="black" cx="816" cy="-840.79" rx="93.08" ry="22"/>
<ellipse fill="none" stroke="black" cx="816" cy="-840.79" rx="97.08" ry="26"/>
<text text-anchor="middle" x="816" y="-837.09" font-family="Times,serif" font-size="14.00">symmetric_coset</text>
</a>
</g>
</g>
<!-- ooGroup_symmetric_coset&#45;&gt;ooGroup_in_coset -->
<g id="edge19" class="edge">
<title>ooGroup_symmetric_coset&#45;&gt;ooGroup_in_coset</title>
<path fill="none" stroke="black" d="M796.12,-815.22C765.89,-777.88 708.73,-707.25 678.65,-670.07"/>
<polygon fill="black" stroke="black" points="681.32,-667.81 672.31,-662.24 675.88,-672.22 681.32,-667.81"/>
</g>
<!-- ooGroup_symmetric_coset&#45;&gt;ooGroup_grouphom_V -->
<g id="edge20" class="edge">
<title>ooGroup_symmetric_coset&#45;&gt;ooGroup_grouphom_V</title>
<path fill="none" stroke="black" d="M814.04,-814.43C811.21,-777.88 806.02,-710.67 803.11,-673.08"/>
<polygon fill="black" stroke="black" points="806.58,-672.57 802.32,-662.87 799.6,-673.11 806.58,-672.57"/>
</g>
<!-- ooGroup_reflexive_coset -->
<g id="node12" class="node">
<title>ooGroup_reflexive_coset</title>
<g id="a_node12"><a xlink:href="ooGroup.html#reflexive_coset" xlink:title="reflexive_coset">
<ellipse fill="#f070d1" stroke="black" cx="306" cy="-840.79" rx="79.11" ry="18"/>
<ellipse fill="none" stroke="black" cx="306" cy="-840.79" rx="83.1" ry="22"/>
<ellipse fill="none" stroke="black" cx="306" cy="-840.79" rx="87.09" ry="26"/>
<text text-anchor="middle" x="306" y="-837.09" font-family="Times,serif" font-size="14.00">reflexive_coset</text>
</a>
</g>
</g>
<!-- ooGroup_reflexive_coset&#45;&gt;ooGroup_in_coset -->
<g id="edge21" class="edge">
<title>ooGroup_reflexive_coset&#45;&gt;ooGroup_in_coset</title>
<path fill="none" stroke="black" d="M346.49,-817.54C416.23,-779.21 557.83,-701.39 623.76,-665.16"/>
<polygon fill="black" stroke="black" points="625.84,-668.01 632.92,-660.13 622.47,-661.88 625.84,-668.01"/>
</g>
<!-- ooGroup_grouphom_1 -->
<g id="node15" class="node">
<title>ooGroup_grouphom_1</title>
<g id="a_node15"><a xlink:href="ooGroup.html#grouphom_1" xlink:title="grouphom_1">
<ellipse fill="#f070d1" stroke="black" cx="525" cy="-644.79" rx="68.49" ry="18"/>
<text text-anchor="middle" x="525" y="-641.09" font-family="Times,serif" font-size="14.00">grouphom_1</text>
</a>
</g>
</g>
<!-- ooGroup_reflexive_coset&#45;&gt;ooGroup_grouphom_1 -->
<g id="edge22" class="edge">
<title>ooGroup_reflexive_coset&#45;&gt;ooGroup_grouphom_1</title>
<path fill="none" stroke="black" d="M332.85,-816C375.24,-778.46 457.12,-705.93 498.98,-668.84"/>
<polygon fill="black" stroke="black" points="501.39,-671.39 506.55,-662.13 496.75,-666.15 501.39,-671.39"/>
</g>
<!-- ooGroup_ishprop_in_coset&#45;&gt;ooGroup_in_coset -->
<g id="edge23" class="edge">
<title>ooGroup_ishprop_in_coset&#45;&gt;ooGroup_in_coset</title>
<path fill="none" stroke="black" d="M512.92,-822.92C541.31,-788.49 606,-710.06 638.93,-670.13"/>
<polygon fill="black" stroke="black" points="641.79,-672.16 645.45,-662.22 636.39,-667.71 641.79,-672.16"/>
</g>
<!-- ooGroup_grouphom_fun -->
<g id="node27" class="node">
<title>ooGroup_grouphom_fun</title>
<g id="a_node27"><a xlink:href="ooGroup.html#grouphom_fun" xlink:title="grouphom_fun">
<ellipse fill="#f070d1" stroke="black" cx="801" cy="-448.79" rx="77.19" ry="18"/>
<text text-anchor="middle" x="801" y="-445.09" font-family="Times,serif" font-size="14.00">grouphom_fun</text>
</a>
</g>
</g>
<!-- ooGroup_in_coset&#45;&gt;ooGroup_grouphom_fun -->
<g id="edge24" class="edge">
<title>ooGroup_in_coset&#45;&gt;ooGroup_grouphom_fun</title>
<path fill="none" stroke="black" d="M671.11,-627.25C696.04,-593.19 753.24,-515.05 782.71,-474.79"/>
<polygon fill="black" stroke="black" points="785.64,-476.7 788.72,-466.57 779.99,-472.57 785.64,-476.7"/>
</g>
<!-- ooGroup_grouphom_1&#45;&gt;ooGroup_grouphom_fun -->
<g id="edge25" class="edge">
<title>ooGroup_grouphom_1&#45;&gt;ooGroup_grouphom_fun</title>
<path fill="none" stroke="black" d="M548.06,-627.59C597.37,-592.92 713.16,-511.53 769.33,-472.05"/>
<polygon fill="black" stroke="black" points="771.65,-474.7 777.81,-466.09 767.62,-468.98 771.65,-474.7"/>
</g>
<!-- ooGroup_grouphom_1&#45;&gt;ooGroup_Build_ooGroup -->
<g id="edge26" class="edge">
<title>ooGroup_grouphom_1&#45;&gt;ooGroup_Build_ooGroup</title>
<path fill="none" stroke="black" d="M527.9,-626.69C538.76,-566.58 581.7,-361.47 682,-227.79 725.87,-169.33 798.35,-122.74 843.24,-97.5"/>
<polygon fill="black" stroke="black" points="845.06,-100.5 852.11,-92.6 841.67,-94.38 845.06,-100.5"/>
</g>
<!-- ooGroup_grouphom_V&#45;&gt;ooGroup_grouphom_fun -->
<g id="edge27" class="edge">
<title>ooGroup_grouphom_V&#45;&gt;ooGroup_grouphom_fun</title>
<path fill="none" stroke="black" d="M801,-626.58C801,-592.85 801,-517.85 801,-477.22"/>
<polygon fill="black" stroke="black" points="804.5,-476.97 801,-466.97 797.5,-476.97 804.5,-476.97"/>
</g>
<!-- ooGroup_grouphom_V&#45;&gt;ooGroup_Build_ooGroup -->
<g id="edge28" class="edge">
<title>ooGroup_grouphom_V&#45;&gt;ooGroup_Build_ooGroup</title>
<path fill="none" stroke="black" d="M789.26,-626.73C750.7,-568.43 634.18,-372.69 702,-227.79 730.67,-166.55 797.74,-121.45 841.69,-97.18"/>
<polygon fill="black" stroke="black" points="843.56,-100.15 850.7,-92.31 840.24,-93.99 843.56,-100.15"/>
</g>
<!-- ooGroup_grouphom_pp&#45;&gt;ooGroup_grouphom_fun -->
<g id="edge29" class="edge">
<title>ooGroup_grouphom_pp&#45;&gt;ooGroup_grouphom_fun</title>
<path fill="none" stroke="black" d="M398.85,-628.73C477.15,-593.89 670.68,-507.78 757.56,-469.12"/>
<polygon fill="black" stroke="black" points="759.16,-472.24 766.87,-464.98 756.31,-465.85 759.16,-472.24"/>
</g>
<!-- ooGroup_grouphom_pp&#45;&gt;ooGroup_Build_ooGroup -->
<g id="edge30" class="edge">
<title>ooGroup_grouphom_pp&#45;&gt;ooGroup_Build_ooGroup</title>
<path fill="none" stroke="black" d="M373.24,-626.52C402.82,-565.84 509.07,-359.09 644,-227.79 703.77,-169.63 789.49,-122.15 840.38,-96.8"/>
<polygon fill="black" stroke="black" points="842.04,-99.88 849.47,-92.33 838.95,-93.61 842.04,-99.88"/>
</g>
<!-- ooGroup_idmap_grouphom -->
<g id="node18" class="node">
<title>ooGroup_idmap_grouphom</title>
<g id="a_node18"><a xlink:href="ooGroup.html#idmap_grouphom" xlink:title="idmap_grouphom">
<ellipse fill="#f070d1" stroke="black" cx="1705" cy="-644.79" rx="90.98" ry="18"/>
<ellipse fill="none" stroke="black" cx="1705" cy="-644.79" rx="94.98" ry="22"/>
<ellipse fill="none" stroke="black" cx="1705" cy="-644.79" rx="98.98" ry="26"/>
<text text-anchor="middle" x="1705" y="-641.09" font-family="Times,serif" font-size="14.00">idmap_grouphom</text>
</a>
</g>
</g>
<!-- ooGroup_idmap_grouphom&#45;&gt;ooGroup_grouphom_idmap -->
<g id="edge31" class="edge">
<title>ooGroup_idmap_grouphom&#45;&gt;ooGroup_grouphom_idmap</title>
<path fill="none" stroke="black" d="M1719.16,-618.83C1740.07,-581.94 1779.04,-513.21 1800.28,-475.76"/>
<polygon fill="black" stroke="black" points="1803.38,-477.37 1805.27,-466.95 1797.3,-473.92 1803.38,-477.37"/>
</g>
<!-- ooGroup_idmap_grouphom&#45;&gt;ooGroup_grouphom_fun -->
<g id="edge32" class="edge">
<title>ooGroup_idmap_grouphom&#45;&gt;ooGroup_grouphom_fun</title>
<path fill="none" stroke="black" d="M1631.17,-627.34C1618.13,-624.47 1604.67,-621.53 1592,-618.79 1287.9,-553.19 1210.64,-542.5 907,-474.79 892.61,-471.58 877.14,-468.01 862.6,-464.59"/>
<polygon fill="black" stroke="black" points="863.24,-461.14 852.7,-462.25 861.63,-467.96 863.24,-461.14"/>
</g>
<!-- ooGroup_idmap_grouphom&#45;&gt;ooGroup_Build_ooGroup -->
<g id="edge33" class="edge">
<title>ooGroup_idmap_grouphom&#45;&gt;ooGroup_Build_ooGroup</title>
<path fill="none" stroke="black" d="M1706.2,-618.67C1710.02,-533.23 1720.3,-257.49 1695,-227.79 1602.34,-119 1161.67,-88.08 971.13,-79.72"/>
<polygon fill="black" stroke="black" points="971.01,-76.21 960.87,-79.28 970.71,-83.21 971.01,-76.21"/>
</g>
<!-- ooGroup_compose_grouphom -->
<g id="node19" class="node">
<title>ooGroup_compose_grouphom</title>
<g id="a_node19"><a xlink:href="ooGroup.html#compose_grouphom" xlink:title="compose_grouphom">
<ellipse fill="#f070d1" stroke="black" cx="1039" cy="-644.79" rx="102.87" ry="18"/>
<ellipse fill="none" stroke="black" cx="1039" cy="-644.79" rx="106.88" ry="22"/>
<ellipse fill="none" stroke="black" cx="1039" cy="-644.79" rx="110.88" ry="26"/>
<text text-anchor="middle" x="1039" y="-641.09" font-family="Times,serif" font-size="14.00">compose_grouphom</text>
</a>
</g>
</g>
<!-- ooGroup_compose_grouphom&#45;&gt;ooGroup_grouphom_compose -->
<g id="edge34" class="edge">
<title>ooGroup_compose_grouphom&#45;&gt;ooGroup_grouphom_compose</title>
<path fill="none" stroke="black" d="M1077.24,-620.39C1139.11,-582.53 1260.28,-508.37 1320.41,-471.57"/>
<polygon fill="black" stroke="black" points="1322.47,-474.42 1329.17,-466.21 1318.82,-468.45 1322.47,-474.42"/>
</g>
<!-- ooGroup_compose_grouphom&#45;&gt;ooGroup_grouphom_fun -->
<g id="edge35" class="edge">
<title>ooGroup_compose_grouphom&#45;&gt;ooGroup_grouphom_fun</title>
<path fill="none" stroke="black" d="M1009.34,-619.61C963.12,-581.94 874.53,-509.73 829.21,-472.79"/>
<polygon fill="black" stroke="black" points="831.24,-469.92 821.27,-466.32 826.81,-475.35 831.24,-469.92"/>
</g>
<!-- ooGroup_compose_grouphom&#45;&gt;ooGroup_Build_ooGroup -->
<g id="edge36" class="edge">
<title>ooGroup_compose_grouphom&#45;&gt;ooGroup_Build_ooGroup</title>
<path fill="none" stroke="black" d="M1015.88,-619.15C987.29,-587.65 938.55,-530.52 907,-474.79 894.8,-453.24 901.37,-442.96 887,-422.79 829.69,-342.4 758.67,-369.3 717,-279.79 681.45,-203.44 783.98,-131.42 843.58,-97.35"/>
<polygon fill="black" stroke="black" points="845.38,-100.36 852.39,-92.41 841.96,-94.25 845.38,-100.36"/>
</g>
<!-- ooGroup_group_loops_2functor -->
<g id="node20" class="node">
<title>ooGroup_group_loops_2functor</title>
<g id="a_node20"><a xlink:href="ooGroup.html#group_loops_2functor" xlink:title="group_loops_2functor">
<ellipse fill="#f070d1" stroke="black" cx="1385" cy="-840.79" rx="110.48" ry="18"/>
<ellipse fill="none" stroke="black" cx="1385" cy="-840.79" rx="114.48" ry="22"/>
<ellipse fill="none" stroke="black" cx="1385" cy="-840.79" rx="118.48" ry="26"/>
<text text-anchor="middle" x="1385" y="-837.09" font-family="Times,serif" font-size="14.00">group_loops_2functor</text>
</a>
</g>
</g>
<!-- ooGroup_loops_functor_group -->
<g id="node25" class="node">
<title>ooGroup_loops_functor_group</title>
<g id="a_node25"><a xlink:href="ooGroup.html#loops_functor_group" xlink:title="loops_functor_group">
<ellipse fill="#f070d1" stroke="black" cx="1463" cy="-644.79" rx="104.78" ry="18"/>
<text text-anchor="middle" x="1463" y="-641.09" font-family="Times,serif" font-size="14.00">loops_functor_group</text>
</a>
</g>
</g>
<!-- ooGroup_group_loops_2functor&#45;&gt;ooGroup_loops_functor_group -->
<g id="edge37" class="edge">
<title>ooGroup_group_loops_2functor&#45;&gt;ooGroup_loops_functor_group</title>
<path fill="none" stroke="black" d="M1395.04,-814.83C1409.81,-778.1 1437.27,-709.79 1452.37,-672.24"/>
<polygon fill="black" stroke="black" points="1455.62,-673.53 1456.1,-662.95 1449.12,-670.92 1455.62,-673.53"/>
</g>
<!-- ooGroup_group_loops_2functor&#45;&gt;ooGroup_grouphom_fun -->
<g id="edge38" class="edge">
<title>ooGroup_group_loops_2functor&#45;&gt;ooGroup_grouphom_fun</title>
<path fill="none" stroke="black" d="M1309.01,-820.82C1189.45,-789.72 964.75,-725.85 904,-670.79 902.04,-669.01 840.02,-534.58 813.18,-476.28"/>
<polygon fill="black" stroke="black" points="816.26,-474.59 808.9,-466.97 809.9,-477.51 816.26,-474.59"/>
</g>
<!-- ooGroup_group_loops_functor_idmap -->
<g id="node21" class="node">
<title>ooGroup_group_loops_functor_idmap</title>
<g id="a_node21"><a xlink:href="ooGroup.html#group_loops_functor_idmap" xlink:title="group_loops_functor_idmap">
<ellipse fill="#f070d1" stroke="black" cx="2000" cy="-840.79" rx="137.59" ry="18"/>
<ellipse fill="none" stroke="black" cx="2000" cy="-840.79" rx="141.58" ry="22"/>
<ellipse fill="none" stroke="black" cx="2000" cy="-840.79" rx="145.58" ry="26"/>
<text text-anchor="middle" x="2000" y="-837.09" font-family="Times,serif" font-size="14.00">group_loops_functor_idmap</text>
</a>
</g>
</g>
<!-- ooGroup_group_loops_functor_idmap&#45;&gt;ooGroup_grouphom_idmap -->
<g id="edge39" class="edge">
<title>ooGroup_group_loops_functor_idmap&#45;&gt;ooGroup_grouphom_idmap</title>
<path fill="none" stroke="black" d="M1963.9,-815.42C1924.05,-786.24 1861.74,-733.4 1833,-670.79 1803.39,-606.29 1807.09,-520.06 1811.48,-476.86"/>
<polygon fill="black" stroke="black" points="1814.97,-477.17 1812.6,-466.85 1808.01,-476.4 1814.97,-477.17"/>
</g>
<!-- ooGroup_group_loops_functor_idmap&#45;&gt;ooGroup_loops_functor_group -->
<g id="edge40" class="edge">
<title>ooGroup_group_loops_functor_idmap&#45;&gt;ooGroup_loops_functor_group</title>
<path fill="none" stroke="black" d="M1937.61,-817.25C1830.89,-778.7 1615.19,-700.77 1515.59,-664.79"/>
<polygon fill="black" stroke="black" points="1516.63,-661.45 1506.04,-661.34 1514.25,-668.03 1516.63,-661.45"/>
</g>
<!-- ooGroup_group_loops_functor_idmap&#45;&gt;ooGroup_grouphom_fun -->
<g id="edge41" class="edge">
<title>ooGroup_group_loops_functor_idmap&#45;&gt;ooGroup_grouphom_fun</title>
<path fill="none" stroke="black" d="M1901.73,-821.56C1811.47,-800.04 1679.56,-755.86 1597,-670.79 1579.75,-653.02 1595.82,-634.89 1577,-618.79 1345.56,-420.8 1204.13,-541.75 907,-474.79 892.61,-471.55 877.15,-467.96 862.61,-464.54"/>
<polygon fill="black" stroke="black" points="863.25,-461.1 852.71,-462.21 861.64,-467.91 863.25,-461.1"/>
</g>
<!-- ooGroup_grouphom_idmap&#45;&gt;ooGroup_ooGroupHom -->
<g id="edge42" class="edge">
<title>ooGroup_grouphom_idmap&#45;&gt;ooGroup_ooGroupHom</title>
<path fill="none" stroke="black" d="M1797.51,-431C1761.71,-396.63 1679.97,-318.14 1638.75,-278.55"/>
<polygon fill="black" stroke="black" points="1640.94,-275.81 1631.3,-271.41 1636.09,-280.86 1640.94,-275.81"/>
</g>
<!-- ooGroup_group_loops_functor_compose -->
<g id="node23" class="node">
<title>ooGroup_group_loops_functor_compose</title>
<g id="a_node23"><a xlink:href="ooGroup.html#group_loops_functor_compose" xlink:title="group_loops_functor_compose">
<ellipse fill="#f070d1" stroke="black" cx="1679" cy="-840.79" rx="149.47" ry="18"/>
<ellipse fill="none" stroke="black" cx="1679" cy="-840.79" rx="153.47" ry="22"/>
<ellipse fill="none" stroke="black" cx="1679" cy="-840.79" rx="157.47" ry="26"/>
<text text-anchor="middle" x="1679" y="-837.09" font-family="Times,serif" font-size="14.00">group_loops_functor_compose</text>
</a>
</g>
</g>
<!-- ooGroup_group_loops_functor_compose&#45;&gt;ooGroup_grouphom_compose -->
<g id="edge43" class="edge">
<title>ooGroup_group_loops_functor_compose&#45;&gt;ooGroup_grouphom_compose</title>
<path fill="none" stroke="black" d="M1584.36,-819.89C1506.1,-797.9 1399.87,-753.99 1349,-670.79 1311.74,-609.85 1332.35,-520.74 1346.38,-476.61"/>
<polygon fill="black" stroke="black" points="1349.77,-477.49 1349.6,-466.9 1343.13,-475.29 1349.77,-477.49"/>
</g>
<!-- ooGroup_group_loops_functor_compose&#45;&gt;ooGroup_loops_functor_group -->
<g id="edge44" class="edge">
<title>ooGroup_group_loops_functor_compose&#45;&gt;ooGroup_loops_functor_group</title>
<path fill="none" stroke="black" d="M1651.2,-814.83C1609.24,-777.14 1530.28,-706.22 1489.25,-669.37"/>
<polygon fill="black" stroke="black" points="1491.59,-666.76 1481.81,-662.69 1486.91,-671.97 1491.59,-666.76"/>
</g>
<!-- ooGroup_group_loops_functor_compose&#45;&gt;ooGroup_grouphom_fun -->
<g id="edge45" class="edge">
<title>ooGroup_group_loops_functor_compose&#45;&gt;ooGroup_grouphom_fun</title>
<path fill="none" stroke="black" d="M1572.29,-821.64C1375.1,-787.3 969.07,-712.51 919,-670.79 899.72,-654.73 908.1,-641.3 897,-618.79 871.31,-566.74 836.8,-508.33 816.92,-475.62"/>
<polygon fill="black" stroke="black" points="819.68,-473.42 811.49,-466.71 813.71,-477.07 819.68,-473.42"/>
</g>
<!-- ooGroup_grouphom_compose&#45;&gt;ooGroup_ooGroupHom -->
<g id="edge46" class="edge">
<title>ooGroup_grouphom_compose&#45;&gt;ooGroup_ooGroupHom</title>
<path fill="none" stroke="black" d="M1378.44,-431C1424.9,-396.25 1531.6,-316.43 1583.94,-277.28"/>
<polygon fill="black" stroke="black" points="1586.25,-279.93 1592.16,-271.13 1582.05,-274.32 1586.25,-279.93"/>
</g>
<!-- ooGroup_group_loops_functor -->
<g id="node26" class="node">
<title>ooGroup_group_loops_functor</title>
<g id="a_node26"><a xlink:href="ooGroup.html#group_loops_functor" xlink:title="group_loops_functor">
<ellipse fill="#f070d1" stroke="black" cx="1581" cy="-448.79" rx="104.78" ry="18"/>
<text text-anchor="middle" x="1581" y="-445.09" font-family="Times,serif" font-size="14.00">group_loops_functor</text>
</a>
</g>
</g>
<!-- ooGroup_loops_functor_group&#45;&gt;ooGroup_group_loops_functor -->
<g id="edge47" class="edge">
<title>ooGroup_loops_functor_group&#45;&gt;ooGroup_group_loops_functor</title>
<path fill="none" stroke="black" d="M1473.47,-626.58C1494.25,-592.42 1540.78,-515.93 1565.26,-475.68"/>
<polygon fill="black" stroke="black" points="1568.35,-477.33 1570.55,-466.97 1562.36,-473.7 1568.35,-477.33"/>
</g>
<!-- ooGroup_loops_group -->
<g id="node29" class="node">
<title>ooGroup_loops_group</title>
<g id="a_node29"><a xlink:href="ooGroup.html#loops_group" xlink:title="loops_group">
<ellipse fill="#f070d1" stroke="black" cx="1168" cy="-448.79" rx="66.89" ry="18"/>
<text text-anchor="middle" x="1168" y="-445.09" font-family="Times,serif" font-size="14.00">loops_group</text>
</a>
</g>
</g>
<!-- ooGroup_loops_functor_group&#45;&gt;ooGroup_loops_group -->
<g id="edge48" class="edge">
<title>ooGroup_loops_functor_group&#45;&gt;ooGroup_loops_group</title>
<path fill="none" stroke="black" d="M1437.85,-627.25C1384.57,-592.22 1260.37,-510.54 1200.89,-471.42"/>
<polygon fill="black" stroke="black" points="1202.54,-468.32 1192.26,-465.75 1198.69,-474.16 1202.54,-468.32"/>
</g>
<!-- ooGroup_group_loops_functor&#45;&gt;ooGroup_ooGroupHom -->
<g id="edge49" class="edge">
<title>ooGroup_group_loops_functor&#45;&gt;ooGroup_ooGroupHom</title>
<path fill="none" stroke="black" d="M1583.93,-430.67C1589.68,-397.04 1602.48,-322.18 1609.38,-281.82"/>
<polygon fill="black" stroke="black" points="1612.84,-282.33 1611.08,-271.88 1605.94,-281.15 1612.84,-282.33"/>
</g>
<!-- ooGroup_group_loops -->
<g id="node30" class="node">
<title>ooGroup_group_loops</title>
<g id="a_node30"><a xlink:href="ooGroup.html#group_loops" xlink:title="group_loops">
<ellipse fill="#f070d1" stroke="black" cx="1457" cy="-253.79" rx="66.89" ry="18"/>
<text text-anchor="middle" x="1457" y="-250.09" font-family="Times,serif" font-size="14.00">group_loops</text>
</a>
</g>
</g>
<!-- ooGroup_group_loops_functor&#45;&gt;ooGroup_group_loops -->
<g id="edge50" class="edge">
<title>ooGroup_group_loops_functor&#45;&gt;ooGroup_group_loops</title>
<path fill="none" stroke="black" d="M1570,-430.67C1548.11,-396.6 1499.02,-320.2 1473.35,-280.24"/>
<polygon fill="black" stroke="black" points="1476.15,-278.13 1467.8,-271.61 1470.26,-281.91 1476.15,-278.13"/>
</g>
<!-- ooGroup_grouphom_fun&#45;&gt;ooGroup_ooGroupHom -->
<g id="edge51" class="edge">
<title>ooGroup_grouphom_fun&#45;&gt;ooGroup_ooGroupHom</title>
<path fill="none" stroke="black" d="M853.01,-435.45C870.19,-431.39 889.41,-426.88 907,-422.79 1185,-358.26 1257.35,-353.7 1533,-279.79 1542.39,-277.28 1552.33,-274.39 1561.9,-271.5"/>
<polygon fill="black" stroke="black" points="1563.18,-274.77 1571.71,-268.5 1561.13,-268.08 1563.18,-274.77"/>
</g>
<!-- ooGroup_group_type -->
<g id="node31" class="node">
<title>ooGroup_group_type</title>
<g id="a_node31"><a xlink:href="ooGroup.html#group_type" xlink:title="group_type">
<ellipse fill="#f070d1" stroke="black" cx="1309" cy="-253.79" rx="63.09" ry="18"/>
<text text-anchor="middle" x="1309" y="-250.09" font-family="Times,serif" font-size="14.00">group_type</text>
</a>
</g>
</g>
<!-- ooGroup_grouphom_fun&#45;&gt;ooGroup_group_type -->
<g id="edge52" class="edge">
<title>ooGroup_grouphom_fun&#45;&gt;ooGroup_group_type</title>
<path fill="none" stroke="black" d="M839.6,-433.13C931.7,-398.14 1163.99,-309.88 1263.07,-272.24"/>
<polygon fill="black" stroke="black" points="1264.41,-275.48 1272.52,-268.65 1261.93,-268.93 1264.41,-275.48"/>
</g>
<!-- ooGroup_ooGroupHom&#45;&gt;ooGroup_ooGroup -->
<g id="edge53" class="edge">
<title>ooGroup_ooGroupHom&#45;&gt;ooGroup_ooGroup</title>
<path fill="none" stroke="black" d="M1598.95,-235.92C1570.9,-204.48 1510.6,-136.88 1478.36,-100.74"/>
<polygon fill="black" stroke="black" points="1480.82,-98.24 1471.55,-93.11 1475.6,-102.9 1480.82,-98.24"/>
</g>
<!-- ooGroup_loops_group&#45;&gt;ooGroup_group_loops -->
<g id="edge54" class="edge">
<title>ooGroup_loops_group&#45;&gt;ooGroup_group_loops</title>
<path fill="none" stroke="black" d="M1192.14,-431.67C1244.02,-397.03 1366.13,-315.48 1424.64,-276.4"/>
<polygon fill="black" stroke="black" points="1426.76,-279.2 1433.13,-270.73 1422.87,-273.38 1426.76,-279.2"/>
</g>
<!-- ooGroup_loops_group&#45;&gt;ooGroup_group_type -->
<g id="edge55" class="edge">
<title>ooGroup_loops_group&#45;&gt;ooGroup_group_type</title>
<path fill="none" stroke="black" d="M1180.27,-431C1205.11,-397 1261.49,-319.83 1290.69,-279.85"/>
<polygon fill="black" stroke="black" points="1293.59,-281.82 1296.66,-271.68 1287.94,-277.69 1293.59,-281.82"/>
</g>
<!-- ooGroup_group_loops&#45;&gt;ooGroup_Build_ooGroup -->
<g id="edge56" class="edge">
<title>ooGroup_group_loops&#45;&gt;ooGroup_Build_ooGroup</title>
<path fill="none" stroke="black" d="M1416.83,-239.38C1405.28,-235.58 1392.65,-231.48 1381,-227.79 1221.21,-177.29 1031.52,-120.7 939.16,-93.35"/>
<polygon fill="black" stroke="black" points="940.04,-89.96 929.46,-90.48 938.05,-96.68 940.04,-89.96"/>
</g>
<!-- ooGroup_group_loops&#45;&gt;ooGroup_ooGroup -->
<g id="edge57" class="edge">
<title>ooGroup_group_loops&#45;&gt;ooGroup_ooGroup</title>
<path fill="none" stroke="black" d="M1457,-235.6C1457,-205.03 1457,-140.99 1457,-104.26"/>
<polygon fill="black" stroke="black" points="1460.5,-103.8 1457,-93.8 1453.5,-103.8 1460.5,-103.8"/>
</g>
<!-- ooGroup_group_type&#45;&gt;ooGroup_ooGroup -->
<g id="edge58" class="edge">
<title>ooGroup_group_type&#45;&gt;ooGroup_ooGroup</title>
<path fill="none" stroke="black" d="M1322.92,-236.24C1349.21,-204.97 1406.26,-137.13 1436.78,-100.84"/>
<polygon fill="black" stroke="black" points="1439.46,-103.08 1443.22,-93.18 1434.11,-98.58 1439.46,-103.08"/>
</g>
<!-- ooGroup_isconn_classifying_space -->
<g id="node32" class="node">
<title>ooGroup_isconn_classifying_space</title>
<g id="a_node32"><a xlink:href="ooGroup.html#isconn_classifying_space" xlink:title="isconn_classifying_space">
<ellipse fill="#f070d1" stroke="black" cx="1857" cy="-253.79" rx="124.59" ry="18"/>
<ellipse fill="none" stroke="black" cx="1857" cy="-253.79" rx="128.58" ry="22"/>
<ellipse fill="none" stroke="black" cx="1857" cy="-253.79" rx="132.58" ry="26"/>
<text text-anchor="middle" x="1857" y="-250.09" font-family="Times,serif" font-size="14.00">isconn_classifying_space</text>
</a>
</g>
</g>
<!-- ooGroup_isconn_classifying_space&#45;&gt;ooGroup_ooGroup -->
<g id="edge59" class="edge">
<title>ooGroup_isconn_classifying_space&#45;&gt;ooGroup_ooGroup</title>
<path fill="none" stroke="black" d="M1804.71,-229.78C1723.64,-194.11 1569.42,-126.26 1496.76,-94.29"/>
<polygon fill="black" stroke="black" points="1498.04,-91.03 1487.48,-90.2 1495.22,-97.43 1498.04,-91.03"/>
</g>
<!-- ooGroup_classifying_space&#45;&gt;ooGroup_ooGroup -->
<g id="edge60" class="edge">
<title>ooGroup_classifying_space&#45;&gt;ooGroup_ooGroup</title>
<path fill="none" stroke="black" d="M2183.66,-431.41C2143.57,-404.33 2065.34,-346.52 2019,-279.79 2004.88,-259.45 2017.32,-244.45 1999,-227.79 1860.87,-102.26 1626.97,-80 1517.23,-76.78"/>
<polygon fill="black" stroke="black" points="1517.09,-73.28 1507.01,-76.53 1516.92,-80.27 1517.09,-73.28"/>
</g>
<!-- ooGroup_ooGroup_sind -->
<g id="node34" class="node">
<title>ooGroup_ooGroup_sind</title>
<g id="a_node34"><a xlink:href="ooGroup.html#ooGroup_sind" xlink:title="ooGroup_sind">
<ellipse fill="#f070d1" stroke="black" cx="1146" cy="-253.79" rx="74.18" ry="18"/>
<ellipse fill="none" stroke="black" cx="1146" cy="-253.79" rx="78.18" ry="22"/>
<ellipse fill="none" stroke="black" cx="1146" cy="-253.79" rx="82.19" ry="26"/>
<text text-anchor="middle" x="1146" y="-250.09" font-family="Times,serif" font-size="14.00">ooGroup_sind</text>
</a>
</g>
</g>
<!-- ooGroup_ooGroup_sind&#45;&gt;ooGroup_Build_ooGroup -->
<g id="edge61" class="edge">
<title>ooGroup_ooGroup_sind&#45;&gt;ooGroup_Build_ooGroup</title>
<path fill="none" stroke="black" d="M1111.89,-229.96C1061.01,-195.92 965.9,-132.27 915.8,-98.74"/>
<polygon fill="black" stroke="black" points="917.54,-95.7 907.28,-93.04 913.65,-101.51 917.54,-95.7"/>
</g>
<!-- ooGroup_ooGroup_sind&#45;&gt;ooGroup_ooGroup -->
<g id="edge62" class="edge">
<title>ooGroup_ooGroup_sind&#45;&gt;ooGroup_ooGroup</title>
<path fill="none" stroke="black" d="M1184.76,-230.86C1245.97,-196.22 1364.04,-129.4 1422.49,-96.32"/>
<polygon fill="black" stroke="black" points="1424.36,-99.29 1431.34,-91.31 1420.91,-93.19 1424.36,-99.29"/>
</g>
<!-- ooGroup_ooGroup_rec -->
<g id="node35" class="node">
<title>ooGroup_ooGroup_rec</title>
<g id="a_node35"><a xlink:href="ooGroup.html#ooGroup_rec" xlink:title="ooGroup_rec">
<ellipse fill="#f070d1" stroke="black" cx="994" cy="-448.79" rx="69.58" ry="18"/>
<ellipse fill="none" stroke="black" cx="994" cy="-448.79" rx="73.59" ry="22"/>
<ellipse fill="none" stroke="black" cx="994" cy="-448.79" rx="77.59" ry="26"/>
<text text-anchor="middle" x="994" y="-445.09" font-family="Times,serif" font-size="14.00">ooGroup_rec</text>
</a>
</g>
</g>
<!-- ooGroup_ooGroup_rect -->
<g id="node37" class="node">
<title>ooGroup_ooGroup_rect</title>
<g id="a_node37"><a xlink:href="ooGroup.html#ooGroup_rect" xlink:title="ooGroup_rect">
<ellipse fill="#f070d1" stroke="black" cx="799" cy="-253.79" rx="73.39" ry="18"/>
<text text-anchor="middle" x="799" y="-250.09" font-family="Times,serif" font-size="14.00">ooGroup_rect</text>
</a>
</g>
</g>
<!-- ooGroup_ooGroup_rec&#45;&gt;ooGroup_ooGroup_rect -->
<g id="edge63" class="edge">
<title>ooGroup_ooGroup_rec&#45;&gt;ooGroup_ooGroup_rect</title>
<path fill="none" stroke="black" d="M969.7,-423.74C932.24,-386.66 860.81,-315.97 823.33,-278.88"/>
<polygon fill="black" stroke="black" points="825.44,-276.04 815.87,-271.49 820.52,-281.02 825.44,-276.04"/>
</g>
<!-- ooGroup_ooGroup_ind -->
<g id="node36" class="node">
<title>ooGroup_ooGroup_ind</title>
<g id="a_node36"><a xlink:href="ooGroup.html#ooGroup_ind" xlink:title="ooGroup_ind">
<ellipse fill="#7fffd4" stroke="black" cx="968" cy="-253.79" rx="69.58" ry="18"/>
<ellipse fill="none" stroke="black" cx="968" cy="-253.79" rx="73.59" ry="22"/>
<ellipse fill="none" stroke="black" cx="968" cy="-253.79" rx="77.59" ry="26"/>
<text text-anchor="middle" x="968" y="-250.09" font-family="Times,serif" font-size="14.00">ooGroup_ind</text>
</a>
</g>
</g>
<!-- ooGroup_ooGroup_ind&#45;&gt;ooGroup_Build_ooGroup -->
<g id="edge64" class="edge">
<title>ooGroup_ooGroup_ind&#45;&gt;ooGroup_Build_ooGroup</title>
<path fill="none" stroke="black" d="M956,-227.95C940.09,-195.01 912.13,-137.1 895.81,-103.33"/>
<polygon fill="black" stroke="black" points="898.85,-101.56 891.35,-94.08 892.55,-104.61 898.85,-101.56"/>
</g>
<!-- ooGroup_ooGroup_ind&#45;&gt;ooGroup_ooGroup -->
<g id="edge65" class="edge">
<title>ooGroup_ooGroup_ind&#45;&gt;ooGroup_ooGroup</title>
<path fill="none" stroke="black" d="M1019.41,-234.29C1115.96,-199.54 1322.8,-125.09 1413.2,-92.56"/>
<polygon fill="black" stroke="black" points="1414.64,-95.76 1422.86,-89.08 1412.27,-89.17 1414.64,-95.76"/>
</g>
<!-- ooGroup_ooGroup_rect&#45;&gt;ooGroup_Build_ooGroup -->
<g id="edge66" class="edge">
<title>ooGroup_ooGroup_rect&#45;&gt;ooGroup_Build_ooGroup</title>
<path fill="none" stroke="black" d="M807.21,-235.6C821.99,-204.63 853.15,-139.33 870.57,-102.84"/>
<polygon fill="black" stroke="black" points="873.73,-104.33 874.88,-93.8 867.42,-101.32 873.73,-104.33"/>
</g>
<!-- ooGroup_ooGroup_rect&#45;&gt;ooGroup_ooGroup -->
<g id="edge67" class="edge">
<title>ooGroup_ooGroup_rect&#45;&gt;ooGroup_ooGroup</title>
<path fill="none" stroke="black" d="M842.31,-239.24C854.77,-235.43 868.4,-231.36 881,-227.79 1074.76,-172.88 1307.18,-114.1 1407.22,-89.14"/>
<polygon fill="black" stroke="black" points="1408.19,-92.5 1417.05,-86.69 1406.5,-85.71 1408.19,-92.5"/>
</g>
</g>
</svg>
