<?xml version="1.0" encoding="UTF-8" standalone="no"?>
<!DOCTYPE svg PUBLIC "-//W3C//DTD SVG 1.1//EN"
 "http://www.w3.org/Graphics/SVG/1.1/DTD/svg11.dtd">
<!-- Generated by graphviz version 2.43.0 (0)
 -->
<!-- Title: HoTT_WildCat_Prod Pages: 1 -->
<svg width="974pt" height="491pt"
 viewBox="0.00 0.00 974.00 491.00" xmlns="http://www.w3.org/2000/svg" xmlns:xlink="http://www.w3.org/1999/xlink">
<g id="graph0" class="graph" transform="scale(1 1) rotate(0) translate(4 487)">
<title>HoTT_WildCat_Prod</title>
<polygon fill="white" stroke="transparent" points="-4,4 -4,-487 970,-487 970,4 -4,4"/>
<g id="clust1" class="cluster">
<title>cluster_Prod</title>
<polygon fill="#ffffc3" stroke="black" points="16.69,-8 16.69,-475 949.31,-475 949.31,-8 16.69,-8"/>
<text text-anchor="middle" x="41.69" y="-459.8" font-family="Times,serif" font-size="14.00">Prod</text>
</g>
<!-- Prod_emap11 -->
<g id="node1" class="node">
<title>Prod_emap11</title>
<g id="a_node1"><a xlink:href="Prod.html#emap11" xlink:title="emap11">
<ellipse fill="#f070d1" stroke="black" cx="816.13" cy="-418" rx="48.18" ry="18"/>
<ellipse fill="none" stroke="black" cx="816.13" cy="-418" rx="52.18" ry="22"/>
<ellipse fill="none" stroke="black" cx="816.13" cy="-418" rx="56.19" ry="26"/>
<text text-anchor="middle" x="816.13" y="-414.3" font-family="Times,serif" font-size="14.00">emap11</text>
</a>
</g>
</g>
<!-- Prod_hasequivs_prod -->
<g id="node5" class="node">
<title>Prod_hasequivs_prod</title>
<g id="a_node5"><a xlink:href="Prod.html#hasequivs_prod" xlink:title="hasequivs_prod">
<ellipse fill="#f070d1" stroke="black" cx="557.13" cy="-330" rx="83.39" ry="18"/>
<text text-anchor="middle" x="557.13" y="-326.3" font-family="Times,serif" font-size="14.00">hasequivs_prod</text>
</a>
</g>
</g>
<!-- Prod_emap11&#45;&gt;Prod_hasequivs_prod -->
<g id="edge1" class="edge">
<title>Prod_emap11&#45;&gt;Prod_hasequivs_prod</title>
<path fill="none" stroke="black" d="M771.31,-402.12C726.48,-387.23 657.53,-364.34 610.03,-348.57"/>
<polygon fill="black" stroke="black" points="611.13,-345.24 600.54,-345.41 608.93,-351.89 611.13,-345.24"/>
</g>
<!-- Prod_iemap11 -->
<g id="node2" class="node">
<title>Prod_iemap11</title>
<g id="a_node2"><a xlink:href="Prod.html#iemap11" xlink:title="iemap11">
<ellipse fill="#f070d1" stroke="black" cx="156.13" cy="-418" rx="50.86" ry="18"/>
<ellipse fill="none" stroke="black" cx="156.13" cy="-418" rx="54.88" ry="22"/>
<ellipse fill="none" stroke="black" cx="156.13" cy="-418" rx="58.89" ry="26"/>
<text text-anchor="middle" x="156.13" y="-414.3" font-family="Times,serif" font-size="14.00">iemap11</text>
</a>
</g>
</g>
<!-- Prod_iemap11&#45;&gt;Prod_hasequivs_prod -->
<g id="edge2" class="edge">
<title>Prod_iemap11&#45;&gt;Prod_hasequivs_prod</title>
<path fill="none" stroke="black" d="M208.14,-405.85C280.39,-390.35 411.15,-362.31 490.47,-345.3"/>
<polygon fill="black" stroke="black" points="491.32,-348.69 500.36,-343.17 489.85,-341.85 491.32,-348.69"/>
</g>
<!-- Prod_fmap11 -->
<g id="node9" class="node">
<title>Prod_fmap11</title>
<g id="a_node9"><a xlink:href="Prod.html#fmap11" xlink:title="fmap11">
<ellipse fill="#f070d1" stroke="black" cx="181.13" cy="-250" rx="46.29" ry="18"/>
<text text-anchor="middle" x="181.13" y="-246.3" font-family="Times,serif" font-size="14.00">fmap11</text>
</a>
</g>
</g>
<!-- Prod_iemap11&#45;&gt;Prod_fmap11 -->
<g id="edge3" class="edge">
<title>Prod_iemap11&#45;&gt;Prod_fmap11</title>
<path fill="none" stroke="black" d="M159.07,-391.81C161.85,-368.87 166.3,-334.09 171.13,-304 172.49,-295.55 174.15,-286.38 175.73,-278.07"/>
<polygon fill="black" stroke="black" points="179.18,-278.63 177.65,-268.14 172.31,-277.3 179.18,-278.63"/>
</g>
<!-- Prod_fmap22 -->
<g id="node3" class="node">
<title>Prod_fmap22</title>
<g id="a_node3"><a xlink:href="Prod.html#fmap22" xlink:title="fmap22">
<ellipse fill="#f070d1" stroke="black" cx="234.13" cy="-330" rx="46.27" ry="18"/>
<ellipse fill="none" stroke="black" cx="234.13" cy="-330" rx="50.28" ry="22"/>
<ellipse fill="none" stroke="black" cx="234.13" cy="-330" rx="54.29" ry="26"/>
<text text-anchor="middle" x="234.13" y="-326.3" font-family="Times,serif" font-size="14.00">fmap22</text>
</a>
</g>
</g>
<!-- Prod_is1cat_prod -->
<g id="node6" class="node">
<title>Prod_is1cat_prod</title>
<g id="a_node6"><a xlink:href="Prod.html#is1cat_prod" xlink:title="is1cat_prod">
<ellipse fill="#f070d1" stroke="black" cx="499.13" cy="-250" rx="64.19" ry="18"/>
<text text-anchor="middle" x="499.13" y="-246.3" font-family="Times,serif" font-size="14.00">is1cat_prod</text>
</a>
</g>
</g>
<!-- Prod_fmap22&#45;&gt;Prod_is1cat_prod -->
<g id="edge4" class="edge">
<title>Prod_fmap22&#45;&gt;Prod_is1cat_prod</title>
<path fill="none" stroke="black" d="M279.38,-315.68C325.71,-302.04 397.66,-280.87 446.51,-266.49"/>
<polygon fill="black" stroke="black" points="447.65,-269.8 456.26,-263.62 445.68,-263.09 447.65,-269.8"/>
</g>
<!-- Prod_fmap22&#45;&gt;Prod_fmap11 -->
<g id="edge5" class="edge">
<title>Prod_fmap22&#45;&gt;Prod_fmap11</title>
<path fill="none" stroke="black" d="M217.94,-305.17C211.66,-295.94 204.48,-285.36 198.13,-276.01"/>
<polygon fill="black" stroke="black" points="200.87,-273.82 192.35,-267.52 195.08,-277.76 200.87,-273.82"/>
</g>
<!-- Prod_isequivs_prod -->
<g id="node4" class="node">
<title>Prod_isequivs_prod</title>
<g id="a_node4"><a xlink:href="Prod.html#isequivs_prod" xlink:title="isequivs_prod">
<ellipse fill="#f070d1" stroke="black" cx="488.13" cy="-418" rx="74.96" ry="18"/>
<ellipse fill="none" stroke="black" cx="488.13" cy="-418" rx="78.98" ry="22"/>
<ellipse fill="none" stroke="black" cx="488.13" cy="-418" rx="82.99" ry="26"/>
<text text-anchor="middle" x="488.13" y="-414.3" font-family="Times,serif" font-size="14.00">isequivs_prod</text>
</a>
</g>
</g>
<!-- Prod_isequivs_prod&#45;&gt;Prod_hasequivs_prod -->
<g id="edge6" class="edge">
<title>Prod_isequivs_prod&#45;&gt;Prod_hasequivs_prod</title>
<path fill="none" stroke="black" d="M507.72,-392.59C516.95,-381.08 527.95,-367.37 537.22,-355.81"/>
<polygon fill="black" stroke="black" points="540.09,-357.83 543.62,-347.84 534.63,-353.45 540.09,-357.83"/>
</g>
<!-- Prod_hasequivs_prod&#45;&gt;Prod_is1cat_prod -->
<g id="edge7" class="edge">
<title>Prod_hasequivs_prod&#45;&gt;Prod_is1cat_prod</title>
<path fill="none" stroke="black" d="M544.54,-312.08C536.72,-301.55 526.51,-287.82 517.75,-276.05"/>
<polygon fill="black" stroke="black" points="520.47,-273.83 511.69,-267.89 514.85,-278 520.47,-273.83"/>
</g>
<!-- Prod_is2graph_prod -->
<g id="node7" class="node">
<title>Prod_is2graph_prod</title>
<g id="a_node7"><a xlink:href="Prod.html#is2graph_prod" xlink:title="is2graph_prod">
<ellipse fill="#f070d1" stroke="black" cx="713.13" cy="-106" rx="77.19" ry="18"/>
<text text-anchor="middle" x="713.13" y="-102.3" font-family="Times,serif" font-size="14.00">is2graph_prod</text>
</a>
</g>
</g>
<!-- Prod_is1cat_prod&#45;&gt;Prod_is2graph_prod -->
<g id="edge8" class="edge">
<title>Prod_is1cat_prod&#45;&gt;Prod_is2graph_prod</title>
<path fill="none" stroke="black" d="M522.85,-233.26C561.13,-207.86 636.63,-157.76 680.13,-128.9"/>
<polygon fill="black" stroke="black" points="682.25,-131.69 688.65,-123.25 678.38,-125.86 682.25,-131.69"/>
</g>
<!-- Prod_is0gpd_prod -->
<g id="node8" class="node">
<title>Prod_is0gpd_prod</title>
<g id="a_node8"><a xlink:href="Prod.html#is0gpd_prod" xlink:title="is0gpd_prod">
<ellipse fill="#f070d1" stroke="black" cx="409.13" cy="-178" rx="67.69" ry="18"/>
<text text-anchor="middle" x="409.13" y="-174.3" font-family="Times,serif" font-size="14.00">is0gpd_prod</text>
</a>
</g>
</g>
<!-- Prod_is1cat_prod&#45;&gt;Prod_is0gpd_prod -->
<g id="edge9" class="edge">
<title>Prod_is1cat_prod&#45;&gt;Prod_is0gpd_prod</title>
<path fill="none" stroke="black" d="M478.26,-232.76C466.33,-223.49 451.19,-211.71 438.12,-201.55"/>
<polygon fill="black" stroke="black" points="439.93,-198.52 429.89,-195.15 435.64,-204.05 439.93,-198.52"/>
</g>
<!-- Prod_isgraph_prod -->
<g id="node11" class="node">
<title>Prod_isgraph_prod</title>
<g id="a_node11"><a xlink:href="Prod.html#isgraph_prod" xlink:title="isgraph_prod">
<ellipse fill="#f070d1" stroke="black" cx="367.13" cy="-34" rx="71.49" ry="18"/>
<text text-anchor="middle" x="367.13" y="-30.3" font-family="Times,serif" font-size="14.00">isgraph_prod</text>
</a>
</g>
</g>
<!-- Prod_is2graph_prod&#45;&gt;Prod_isgraph_prod -->
<g id="edge10" class="edge">
<title>Prod_is2graph_prod&#45;&gt;Prod_isgraph_prod</title>
<path fill="none" stroke="black" d="M656.77,-93.6C594.88,-81.08 495.71,-61.01 430.98,-47.92"/>
<polygon fill="black" stroke="black" points="431.4,-44.43 420.9,-45.88 430.01,-51.29 431.4,-44.43"/>
</g>
<!-- Prod_is01cat_prod -->
<g id="node10" class="node">
<title>Prod_is01cat_prod</title>
<g id="a_node10"><a xlink:href="Prod.html#is01cat_prod" xlink:title="is01cat_prod">
<ellipse fill="#f070d1" stroke="black" cx="367.13" cy="-106" rx="70.39" ry="18"/>
<text text-anchor="middle" x="367.13" y="-102.3" font-family="Times,serif" font-size="14.00">is01cat_prod</text>
</a>
</g>
</g>
<!-- Prod_is0gpd_prod&#45;&gt;Prod_is01cat_prod -->
<g id="edge11" class="edge">
<title>Prod_is0gpd_prod&#45;&gt;Prod_is01cat_prod</title>
<path fill="none" stroke="black" d="M398.96,-160.05C394.08,-151.92 388.13,-142 382.7,-132.94"/>
<polygon fill="black" stroke="black" points="385.64,-131.05 377.49,-124.28 379.64,-134.65 385.64,-131.05"/>
</g>
<!-- Prod_fmap11&#45;&gt;Prod_isgraph_prod -->
<g id="edge12" class="edge">
<title>Prod_fmap11&#45;&gt;Prod_isgraph_prod</title>
<path fill="none" stroke="black" d="M189.57,-231.92C205.6,-200.69 242.9,-133.43 288.13,-88 300.27,-75.81 315.61,-64.76 329.54,-55.95"/>
<polygon fill="black" stroke="black" points="331.75,-58.7 338.44,-50.49 328.09,-52.73 331.75,-58.7"/>
</g>
<!-- Prod_is01cat_prod&#45;&gt;Prod_isgraph_prod -->
<g id="edge13" class="edge">
<title>Prod_is01cat_prod&#45;&gt;Prod_isgraph_prod</title>
<path fill="none" stroke="black" d="M367.13,-87.7C367.13,-79.98 367.13,-70.71 367.13,-62.11"/>
<polygon fill="black" stroke="black" points="370.63,-62.1 367.13,-52.1 363.63,-62.1 370.63,-62.1"/>
</g>
</g>
</svg>
