<?xml version="1.0" encoding="UTF-8" standalone="no"?>
<!DOCTYPE svg PUBLIC "-//W3C//DTD SVG 1.1//EN"
 "http://www.w3.org/Graphics/SVG/1.1/DTD/svg11.dtd">
<!-- Generated by graphviz version 2.43.0 (0)
 -->
<!-- Title: HoTT_Sets_Powers Pages: 1 -->
<svg width="686pt" height="347pt"
 viewBox="0.00 0.00 686.00 347.00" xmlns="http://www.w3.org/2000/svg" xmlns:xlink="http://www.w3.org/1999/xlink">
<g id="graph0" class="graph" transform="scale(1 1) rotate(0) translate(4 343)">
<title>HoTT_Sets_Powers</title>
<polygon fill="white" stroke="transparent" points="-4,4 -4,-343 682,-343 682,4 -4,4"/>
<g id="clust1" class="cluster">
<title>cluster_Powers</title>
<polygon fill="#ffffc3" stroke="black" points="8.01,-8 8.01,-331 669.99,-331 669.99,-8 8.01,-8"/>
<text text-anchor="middle" x="42.01" y="-315.8" font-family="Times,serif" font-size="14.00">Powers</text>
</g>
<!-- Powers_infinite_power_iterated -->
<g id="node1" class="node">
<title>Powers_infinite_power_iterated</title>
<g id="a_node1"><a xlink:href="Powers.html#infinite_power_iterated" xlink:title="infinite_power_iterated">
<ellipse fill="#f070d1" stroke="black" cx="353.45" cy="-274" rx="118.09" ry="18"/>
<ellipse fill="none" stroke="black" cx="353.45" cy="-274" rx="122.09" ry="22"/>
<ellipse fill="none" stroke="black" cx="353.45" cy="-274" rx="126.08" ry="26"/>
<text text-anchor="middle" x="353.45" y="-270.3" font-family="Times,serif" font-size="14.00">infinite_power_iterated</text>
</a>
</g>
</g>
<!-- Powers_infinite_inject -->
<g id="node2" class="node">
<title>Powers_infinite_inject</title>
<g id="a_node2"><a xlink:href="Powers.html#infinite_inject" xlink:title="infinite_inject">
<ellipse fill="#f070d1" stroke="black" cx="234.45" cy="-194" rx="73.39" ry="18"/>
<text text-anchor="middle" x="234.45" y="-190.3" font-family="Times,serif" font-size="14.00">infinite_inject</text>
</a>
</g>
</g>
<!-- Powers_infinite_power_iterated&#45;&gt;Powers_infinite_inject -->
<g id="edge1" class="edge">
<title>Powers_infinite_power_iterated&#45;&gt;Powers_infinite_inject</title>
<path fill="none" stroke="black" d="M316.77,-248.96C301.13,-238.71 283.01,-226.83 267.76,-216.83"/>
<polygon fill="black" stroke="black" points="269.43,-213.74 259.15,-211.19 265.59,-219.6 269.43,-213.74"/>
</g>
<!-- Powers_Injection_power_iterated -->
<g id="node3" class="node">
<title>Powers_Injection_power_iterated</title>
<g id="a_node3"><a xlink:href="Powers.html#Injection_power_iterated" xlink:title="Injection_power_iterated">
<ellipse fill="#f070d1" stroke="black" cx="452.45" cy="-194" rx="126.18" ry="18"/>
<text text-anchor="middle" x="452.45" y="-190.3" font-family="Times,serif" font-size="14.00">Injection_power_iterated</text>
</a>
</g>
</g>
<!-- Powers_infinite_power_iterated&#45;&gt;Powers_Injection_power_iterated -->
<g id="edge2" class="edge">
<title>Powers_infinite_power_iterated&#45;&gt;Powers_Injection_power_iterated</title>
<path fill="none" stroke="black" d="M384.23,-248.75C396.59,-239.01 410.78,-227.83 423,-218.2"/>
<polygon fill="black" stroke="black" points="425.41,-220.76 431.1,-211.82 421.08,-215.26 425.41,-220.76"/>
</g>
<!-- Powers_hset_power_iterated -->
<g id="node4" class="node">
<title>Powers_hset_power_iterated</title>
<g id="a_node4"><a xlink:href="Powers.html#hset_power_iterated" xlink:title="hset_power_iterated">
<ellipse fill="#f070d1" stroke="black" cx="369.45" cy="-114" rx="105.08" ry="18"/>
<text text-anchor="middle" x="369.45" y="-110.3" font-family="Times,serif" font-size="14.00">hset_power_iterated</text>
</a>
</g>
</g>
<!-- Powers_Injection_power_iterated&#45;&gt;Powers_hset_power_iterated -->
<g id="edge3" class="edge">
<title>Powers_Injection_power_iterated&#45;&gt;Powers_hset_power_iterated</title>
<path fill="none" stroke="black" d="M434.44,-176.08C422.91,-165.24 407.77,-151.02 395.01,-139.02"/>
<polygon fill="black" stroke="black" points="397.11,-136.19 387.42,-131.89 392.31,-141.29 397.11,-136.19"/>
</g>
<!-- Powers_Injection_power -->
<g id="node8" class="node">
<title>Powers_Injection_power</title>
<g id="a_node8"><a xlink:href="Powers.html#Injection_power" xlink:title="Injection_power">
<ellipse fill="#f070d1" stroke="black" cx="577.45" cy="-114" rx="84.49" ry="18"/>
<text text-anchor="middle" x="577.45" y="-110.3" font-family="Times,serif" font-size="14.00">Injection_power</text>
</a>
</g>
</g>
<!-- Powers_Injection_power_iterated&#45;&gt;Powers_Injection_power -->
<g id="edge4" class="edge">
<title>Powers_Injection_power_iterated&#45;&gt;Powers_Injection_power</title>
<path fill="none" stroke="black" d="M479.26,-176.27C497.89,-164.65 522.86,-149.06 542.97,-136.52"/>
<polygon fill="black" stroke="black" points="544.9,-139.43 551.53,-131.17 541.2,-133.5 544.9,-139.43"/>
</g>
<!-- Powers_hset_power -->
<g id="node5" class="node">
<title>Powers_hset_power</title>
<g id="a_node5"><a xlink:href="Powers.html#hset_power" xlink:title="hset_power">
<ellipse fill="#f070d1" stroke="black" cx="369.45" cy="-34" rx="63.89" ry="18"/>
<text text-anchor="middle" x="369.45" y="-30.3" font-family="Times,serif" font-size="14.00">hset_power</text>
</a>
</g>
</g>
<!-- Powers_hset_power_iterated&#45;&gt;Powers_hset_power -->
<g id="edge5" class="edge">
<title>Powers_hset_power_iterated&#45;&gt;Powers_hset_power</title>
<path fill="none" stroke="black" d="M369.45,-95.69C369.45,-85.89 369.45,-73.42 369.45,-62.33"/>
<polygon fill="black" stroke="black" points="372.95,-62.26 369.45,-52.26 365.95,-62.26 372.95,-62.26"/>
</g>
<!-- Powers_power_iterated -->
<g id="node7" class="node">
<title>Powers_power_iterated</title>
<g id="a_node7"><a xlink:href="Powers.html#power_iterated" xlink:title="power_iterated">
<ellipse fill="#f070d1" stroke="black" cx="168.45" cy="-34" rx="81.49" ry="18"/>
<text text-anchor="middle" x="168.45" y="-30.3" font-family="Times,serif" font-size="14.00">power_iterated</text>
</a>
</g>
</g>
<!-- Powers_hset_power_iterated&#45;&gt;Powers_power_iterated -->
<g id="edge6" class="edge">
<title>Powers_hset_power_iterated&#45;&gt;Powers_power_iterated</title>
<path fill="none" stroke="black" d="M328.77,-97.22C296.27,-84.6 250.64,-66.89 216.36,-53.59"/>
<polygon fill="black" stroke="black" points="217.61,-50.32 207.02,-49.97 215.07,-56.85 217.61,-50.32"/>
</g>
<!-- Powers_power_iterated_shift -->
<g id="node6" class="node">
<title>Powers_power_iterated_shift</title>
<g id="a_node6"><a xlink:href="Powers.html#power_iterated_shift" xlink:title="power_iterated_shift">
<ellipse fill="#f070d1" stroke="black" cx="131.45" cy="-114" rx="106.67" ry="18"/>
<ellipse fill="none" stroke="black" cx="131.45" cy="-114" rx="110.68" ry="22"/>
<ellipse fill="none" stroke="black" cx="131.45" cy="-114" rx="114.68" ry="26"/>
<text text-anchor="middle" x="131.45" y="-110.3" font-family="Times,serif" font-size="14.00">power_iterated_shift</text>
</a>
</g>
</g>
<!-- Powers_power_iterated_shift&#45;&gt;Powers_power_iterated -->
<g id="edge7" class="edge">
<title>Powers_power_iterated_shift&#45;&gt;Powers_power_iterated</title>
<path fill="none" stroke="black" d="M143.36,-87.89C147.41,-79.35 151.95,-69.78 156.04,-61.16"/>
<polygon fill="black" stroke="black" points="159.29,-62.47 160.42,-51.93 152.97,-59.47 159.29,-62.47"/>
</g>
<!-- Powers_power_type -->
<g id="node9" class="node">
<title>Powers_power_type</title>
<g id="a_node9"><a xlink:href="Powers.html#power_type" xlink:title="power_type">
<ellipse fill="#f070d1" stroke="black" cx="120.45" cy="-274" rx="64.21" ry="18"/>
<ellipse fill="none" stroke="black" cx="120.45" cy="-274" rx="68.2" ry="22"/>
<ellipse fill="none" stroke="black" cx="120.45" cy="-274" rx="72.19" ry="26"/>
<text text-anchor="middle" x="120.45" y="-270.3" font-family="Times,serif" font-size="14.00">power_type</text>
</a>
</g>
</g>
</g>
</svg>
