<?xml version="1.0" encoding="UTF-8" standalone="no"?>
<!DOCTYPE svg PUBLIC "-//W3C//DTD SVG 1.1//EN"
 "http://www.w3.org/Graphics/SVG/1.1/DTD/svg11.dtd">
<!-- Generated by graphviz version 2.43.0 (0)
 -->
<!-- Title: HoTT_Algebra_Rings_Ideal Pages: 1 -->
<svg width="1271pt" height="640pt"
 viewBox="0.00 0.00 1271.00 639.50" xmlns="http://www.w3.org/2000/svg" xmlns:xlink="http://www.w3.org/1999/xlink">
<g id="graph0" class="graph" transform="scale(1 1) rotate(0) translate(4 635.5)">
<title>HoTT_Algebra_Rings_Ideal</title>
<polygon fill="white" stroke="transparent" points="-4,4 -4,-635.5 1267,-635.5 1267,4 -4,4"/>
<g id="clust1" class="cluster">
<title>cluster_Ideal</title>
<polygon fill="#ffffc3" stroke="black" points="8,-14.23 8,-617.27 1255,-617.27 1255,-14.23 8,-14.23"/>
<text text-anchor="middle" x="34" y="-602.07" font-family="Times,serif" font-size="14.00">Ideal</text>
</g>
<!-- Ideal_ideal_kernel -->
<g id="node1" class="node">
<title>Ideal_ideal_kernel</title>
<g id="a_node1"><a xlink:href="Ideal.html#ideal_kernel" xlink:title="ideal_kernel">
<ellipse fill="#f070d1" stroke="black" cx="876" cy="-359.23" rx="66.89" ry="18"/>
<ellipse fill="none" stroke="black" cx="876" cy="-359.23" rx="70.89" ry="22"/>
<ellipse fill="none" stroke="black" cx="876" cy="-359.23" rx="74.89" ry="26"/>
<text text-anchor="middle" x="876" y="-355.53" font-family="Times,serif" font-size="14.00">ideal_kernel</text>
</a>
</g>
</g>
<!-- Ideal_Build_Ideal -->
<g id="node12" class="node">
<title>Ideal_Build_Ideal</title>
<g id="a_node12"><a xlink:href="Ideal.html#Build_Ideal" xlink:title="Build_Ideal">
<ellipse fill="#7faaff" stroke="black" cx="639" cy="-203.23" rx="62.29" ry="18"/>
<text text-anchor="middle" x="639" y="-199.53" font-family="Times,serif" font-size="14.00">Build_Ideal</text>
</a>
</g>
</g>
<!-- Ideal_ideal_kernel&#45;&gt;Ideal_Build_Ideal -->
<g id="edge1" class="edge">
<title>Ideal_ideal_kernel&#45;&gt;Ideal_Build_Ideal</title>
<path fill="none" stroke="black" d="M841.79,-336C796.24,-306.41 716.25,-254.43 671.56,-225.39"/>
<polygon fill="black" stroke="black" points="673.4,-222.41 663.11,-219.9 669.59,-228.28 673.4,-222.41"/>
</g>
<!-- Ideal_Ideal -->
<g id="node13" class="node">
<title>Ideal_Ideal</title>
<g id="a_node13"><a xlink:href="Ideal.html#Ideal" xlink:title="Ideal">
<ellipse fill="#e2cdfa" stroke="black" cx="525" cy="-203.23" rx="33.6" ry="18"/>
<text text-anchor="middle" x="525" y="-199.53" font-family="Times,serif" font-size="14.00">Ideal</text>
</a>
</g>
</g>
<!-- Ideal_ideal_kernel&#45;&gt;Ideal_Ideal -->
<g id="edge2" class="edge">
<title>Ideal_ideal_kernel&#45;&gt;Ideal_Ideal</title>
<path fill="none" stroke="black" d="M826.31,-339.72C764.68,-316.24 656.89,-273.45 568,-229.23 563.89,-227.19 559.63,-224.91 555.46,-222.59"/>
<polygon fill="black" stroke="black" points="556.99,-219.43 546.57,-217.51 553.52,-225.51 556.99,-219.43"/>
</g>
<!-- Ideal_ideal_unit -->
<g id="node2" class="node">
<title>Ideal_ideal_unit</title>
<g id="a_node2"><a xlink:href="Ideal.html#ideal_unit" xlink:title="ideal_unit">
<ellipse fill="#f070d1" stroke="black" cx="1183" cy="-359.23" rx="55.8" ry="18"/>
<ellipse fill="none" stroke="black" cx="1183" cy="-359.23" rx="59.8" ry="22"/>
<ellipse fill="none" stroke="black" cx="1183" cy="-359.23" rx="63.79" ry="26"/>
<text text-anchor="middle" x="1183" y="-355.53" font-family="Times,serif" font-size="14.00">ideal_unit</text>
</a>
</g>
</g>
<!-- Ideal_isideal_maximal_subgroup -->
<g id="node3" class="node">
<title>Ideal_isideal_maximal_subgroup</title>
<g id="a_node3"><a xlink:href="Ideal.html#isideal_maximal_subgroup" xlink:title="isideal_maximal_subgroup">
<ellipse fill="#f070d1" stroke="black" cx="1114" cy="-203.23" rx="133.48" ry="18"/>
<text text-anchor="middle" x="1114" y="-199.53" font-family="Times,serif" font-size="14.00">isideal_maximal_subgroup</text>
</a>
</g>
</g>
<!-- Ideal_ideal_unit&#45;&gt;Ideal_isideal_maximal_subgroup -->
<g id="edge3" class="edge">
<title>Ideal_ideal_unit&#45;&gt;Ideal_isideal_maximal_subgroup</title>
<path fill="none" stroke="black" d="M1171.91,-333.49C1159.31,-305.35 1138.8,-259.57 1125.87,-230.73"/>
<polygon fill="black" stroke="black" points="1128.92,-228.98 1121.64,-221.28 1122.54,-231.84 1128.92,-228.98"/>
</g>
<!-- Ideal_ideal_unit&#45;&gt;Ideal_Build_Ideal -->
<g id="edge4" class="edge">
<title>Ideal_ideal_unit&#45;&gt;Ideal_Build_Ideal</title>
<path fill="none" stroke="black" d="M1136.05,-341.57C1127.42,-338.67 1118.47,-335.78 1110,-333.23 934.1,-280.33 885.68,-282.89 710,-229.23 701.92,-226.76 693.38,-223.94 685.15,-221.11"/>
<polygon fill="black" stroke="black" points="686.25,-217.79 675.66,-217.8 683.94,-224.4 686.25,-217.79"/>
</g>
<!-- Ideal_ideal_unit&#45;&gt;Ideal_Ideal -->
<g id="edge5" class="edge">
<title>Ideal_ideal_unit&#45;&gt;Ideal_Ideal</title>
<path fill="none" stroke="black" d="M1136.57,-341.24C1127.81,-338.35 1118.67,-335.54 1110,-333.23 872.95,-270.23 797.72,-315.2 568,-229.23 563.39,-227.51 558.7,-225.31 554.2,-222.94"/>
<polygon fill="black" stroke="black" points="555.73,-219.78 545.3,-217.92 552.29,-225.88 555.73,-219.78"/>
</g>
<!-- Ideal_IsIdeal -->
<g id="node15" class="node">
<title>Ideal_IsIdeal</title>
<g id="a_node15"><a xlink:href="Ideal.html#IsIdeal" xlink:title="IsIdeal">
<ellipse fill="#f070d1" stroke="black" cx="639" cy="-60.23" rx="42.49" ry="18"/>
<text text-anchor="middle" x="639" y="-56.53" font-family="Times,serif" font-size="14.00">IsIdeal</text>
</a>
</g>
</g>
<!-- Ideal_isideal_maximal_subgroup&#45;&gt;Ideal_IsIdeal -->
<g id="edge6" class="edge">
<title>Ideal_isideal_maximal_subgroup&#45;&gt;Ideal_IsIdeal</title>
<path fill="none" stroke="black" d="M1061.35,-186.6C966.69,-158.5 769.5,-99.97 682.19,-74.05"/>
<polygon fill="black" stroke="black" points="683.18,-70.7 672.6,-71.2 681.19,-77.41 683.18,-70.7"/>
</g>
<!-- Ideal_ideal_zero -->
<g id="node4" class="node">
<title>Ideal_ideal_zero</title>
<g id="a_node4"><a xlink:href="Ideal.html#ideal_zero" xlink:title="ideal_zero">
<ellipse fill="#f070d1" stroke="black" cx="1035" cy="-359.23" rx="57.71" ry="18"/>
<ellipse fill="none" stroke="black" cx="1035" cy="-359.23" rx="61.7" ry="22"/>
<ellipse fill="none" stroke="black" cx="1035" cy="-359.23" rx="65.69" ry="26"/>
<text text-anchor="middle" x="1035" y="-355.53" font-family="Times,serif" font-size="14.00">ideal_zero</text>
</a>
</g>
</g>
<!-- Ideal_isideal_trivial_subgroup -->
<g id="node5" class="node">
<title>Ideal_isideal_trivial_subgroup</title>
<g id="a_node5"><a xlink:href="Ideal.html#isideal_trivial_subgroup" xlink:title="isideal_trivial_subgroup">
<ellipse fill="#f070d1" stroke="black" cx="841" cy="-203.23" rx="121.58" ry="18"/>
<text text-anchor="middle" x="841" y="-199.53" font-family="Times,serif" font-size="14.00">isideal_trivial_subgroup</text>
</a>
</g>
</g>
<!-- Ideal_ideal_zero&#45;&gt;Ideal_isideal_trivial_subgroup -->
<g id="edge7" class="edge">
<title>Ideal_ideal_zero&#45;&gt;Ideal_isideal_trivial_subgroup</title>
<path fill="none" stroke="black" d="M1006.37,-335.51C969.83,-306.49 906.92,-256.56 870.13,-227.36"/>
<polygon fill="black" stroke="black" points="872.26,-224.58 862.26,-221.1 867.91,-230.06 872.26,-224.58"/>
</g>
<!-- Ideal_ideal_zero&#45;&gt;Ideal_Build_Ideal -->
<g id="edge8" class="edge">
<title>Ideal_ideal_zero&#45;&gt;Ideal_Build_Ideal</title>
<path fill="none" stroke="black" d="M989.19,-340.41C912.81,-310.71 760.35,-251.42 684.31,-221.85"/>
<polygon fill="black" stroke="black" points="685.13,-218.41 674.54,-218.05 682.59,-224.94 685.13,-218.41"/>
</g>
<!-- Ideal_ideal_zero&#45;&gt;Ideal_Ideal -->
<g id="edge9" class="edge">
<title>Ideal_ideal_zero&#45;&gt;Ideal_Ideal</title>
<path fill="none" stroke="black" d="M986.32,-341.52C977.59,-338.66 968.55,-335.79 960,-333.23 787.3,-281.59 734.51,-298.26 568,-229.23 563.45,-227.35 558.8,-225.06 554.31,-222.65"/>
<polygon fill="black" stroke="black" points="555.84,-219.49 545.42,-217.6 552.39,-225.58 555.84,-219.49"/>
</g>
<!-- Ideal_isideal_trivial_subgroup&#45;&gt;Ideal_IsIdeal -->
<g id="edge10" class="edge">
<title>Ideal_isideal_trivial_subgroup&#45;&gt;Ideal_IsIdeal</title>
<path fill="none" stroke="black" d="M817.03,-185.5C779.94,-159.61 708.71,-109.89 668.5,-81.83"/>
<polygon fill="black" stroke="black" points="670.38,-78.87 660.18,-76.02 666.38,-84.61 670.38,-78.87"/>
</g>
<!-- Ideal_ideal_isideal -->
<g id="node6" class="node">
<title>Ideal_ideal_isideal</title>
<g id="a_node6"><a xlink:href="Ideal.html#ideal_isideal" xlink:title="ideal_isideal">
<ellipse fill="#f070d1" stroke="black" cx="288" cy="-359.23" rx="67.68" ry="18"/>
<ellipse fill="none" stroke="black" cx="288" cy="-359.23" rx="71.68" ry="22"/>
<ellipse fill="none" stroke="black" cx="288" cy="-359.23" rx="75.69" ry="26"/>
<text text-anchor="middle" x="288" y="-355.53" font-family="Times,serif" font-size="14.00">ideal_isideal</text>
</a>
</g>
</g>
<!-- Ideal_ideal_isideal&#45;&gt;Ideal_Ideal -->
<g id="edge11" class="edge">
<title>Ideal_ideal_isideal&#45;&gt;Ideal_Ideal</title>
<path fill="none" stroke="black" d="M322.21,-336C368.98,-305.61 452.07,-251.62 495.97,-223.09"/>
<polygon fill="black" stroke="black" points="497.98,-225.96 504.46,-217.58 494.17,-220.09 497.98,-225.96"/>
</g>
<!-- Ideal_ideal_subgroup -->
<g id="node7" class="node">
<title>Ideal_ideal_subgroup</title>
<g id="a_node7"><a xlink:href="Ideal.html#ideal_subgroup" xlink:title="ideal_subgroup">
<ellipse fill="#f070d1" stroke="black" cx="105" cy="-359.23" rx="81.46" ry="18"/>
<ellipse fill="none" stroke="black" cx="105" cy="-359.23" rx="85.48" ry="22"/>
<ellipse fill="none" stroke="black" cx="105" cy="-359.23" rx="89.49" ry="26"/>
<text text-anchor="middle" x="105" y="-355.53" font-family="Times,serif" font-size="14.00">ideal_subgroup</text>
</a>
</g>
</g>
<!-- Ideal_ideal_subgroup&#45;&gt;Ideal_Ideal -->
<g id="edge12" class="edge">
<title>Ideal_ideal_subgroup&#45;&gt;Ideal_Ideal</title>
<path fill="none" stroke="black" d="M168.17,-340.77C244.26,-318.8 375.17,-277.99 482,-229.23 486.38,-227.23 490.9,-224.91 495.28,-222.51"/>
<polygon fill="black" stroke="black" points="497.05,-225.54 504.01,-217.55 493.58,-219.45 497.05,-225.54"/>
</g>
<!-- Ideal_Ideal_sind -->
<g id="node8" class="node">
<title>Ideal_Ideal_sind</title>
<g id="a_node8"><a xlink:href="Ideal.html#Ideal_sind" xlink:title="Ideal_sind">
<ellipse fill="#f070d1" stroke="black" cx="717" cy="-359.23" rx="57.71" ry="18"/>
<ellipse fill="none" stroke="black" cx="717" cy="-359.23" rx="61.7" ry="22"/>
<ellipse fill="none" stroke="black" cx="717" cy="-359.23" rx="65.69" ry="26"/>
<text text-anchor="middle" x="717" y="-355.53" font-family="Times,serif" font-size="14.00">Ideal_sind</text>
</a>
</g>
</g>
<!-- Ideal_Ideal_sind&#45;&gt;Ideal_Build_Ideal -->
<g id="edge13" class="edge">
<title>Ideal_Ideal_sind&#45;&gt;Ideal_Build_Ideal</title>
<path fill="none" stroke="black" d="M704.47,-333.49C690.15,-305.22 666.83,-259.17 652.23,-230.35"/>
<polygon fill="black" stroke="black" points="655.28,-228.62 647.64,-221.28 649.03,-231.79 655.28,-228.62"/>
</g>
<!-- Ideal_Ideal_sind&#45;&gt;Ideal_Ideal -->
<g id="edge14" class="edge">
<title>Ideal_Ideal_sind&#45;&gt;Ideal_Ideal</title>
<path fill="none" stroke="black" d="M688.67,-335.51C651.59,-305.76 587.09,-254.04 551.13,-225.19"/>
<polygon fill="black" stroke="black" points="553.05,-222.25 543.06,-218.72 548.67,-227.71 553.05,-222.25"/>
</g>
<!-- Ideal_Ideal_rec -->
<g id="node9" class="node">
<title>Ideal_Ideal_rec</title>
<g id="a_node9"><a xlink:href="Ideal.html#Ideal_rec" xlink:title="Ideal_rec">
<ellipse fill="#f070d1" stroke="black" cx="577" cy="-516.23" rx="52.77" ry="18"/>
<ellipse fill="none" stroke="black" cx="577" cy="-516.23" rx="56.78" ry="22"/>
<ellipse fill="none" stroke="black" cx="577" cy="-516.23" rx="60.79" ry="26"/>
<text text-anchor="middle" x="577" y="-512.53" font-family="Times,serif" font-size="14.00">Ideal_rec</text>
</a>
</g>
</g>
<!-- Ideal_Ideal_rect -->
<g id="node11" class="node">
<title>Ideal_Ideal_rect</title>
<g id="a_node11"><a xlink:href="Ideal.html#Ideal_rect" xlink:title="Ideal_rect">
<ellipse fill="#f070d1" stroke="black" cx="577" cy="-359.23" rx="56.59" ry="18"/>
<text text-anchor="middle" x="577" y="-355.53" font-family="Times,serif" font-size="14.00">Ideal_rect</text>
</a>
</g>
</g>
<!-- Ideal_Ideal_rec&#45;&gt;Ideal_Ideal_rect -->
<g id="edge15" class="edge">
<title>Ideal_Ideal_rec&#45;&gt;Ideal_Ideal_rect</title>
<path fill="none" stroke="black" d="M577,-489.98C577,-461.84 577,-416.49 577,-387.53"/>
<polygon fill="black" stroke="black" points="580.5,-387.31 577,-377.31 573.5,-387.31 580.5,-387.31"/>
</g>
<!-- Ideal_Ideal_ind -->
<g id="node10" class="node">
<title>Ideal_Ideal_ind</title>
<g id="a_node10"><a xlink:href="Ideal.html#Ideal_ind" xlink:title="Ideal_ind">
<ellipse fill="#7fffd4" stroke="black" cx="442" cy="-359.23" rx="52.77" ry="18"/>
<ellipse fill="none" stroke="black" cx="442" cy="-359.23" rx="56.78" ry="22"/>
<ellipse fill="none" stroke="black" cx="442" cy="-359.23" rx="60.79" ry="26"/>
<text text-anchor="middle" x="442" y="-355.53" font-family="Times,serif" font-size="14.00">Ideal_ind</text>
</a>
</g>
</g>
<!-- Ideal_Ideal_ind&#45;&gt;Ideal_Build_Ideal -->
<g id="edge16" class="edge">
<title>Ideal_Ideal_ind&#45;&gt;Ideal_Build_Ideal</title>
<path fill="none" stroke="black" d="M470.23,-336.17C507.51,-307.02 572.84,-255.95 610.34,-226.63"/>
<polygon fill="black" stroke="black" points="612.63,-229.29 618.35,-220.37 608.32,-223.77 612.63,-229.29"/>
</g>
<!-- Ideal_Ideal_ind&#45;&gt;Ideal_Ideal -->
<g id="edge17" class="edge">
<title>Ideal_Ideal_ind&#45;&gt;Ideal_Ideal</title>
<path fill="none" stroke="black" d="M455.15,-333.83C470.43,-305.48 495.52,-258.92 511.11,-230"/>
<polygon fill="black" stroke="black" points="514.34,-231.39 516,-220.92 508.18,-228.07 514.34,-231.39"/>
</g>
<!-- Ideal_Ideal_rect&#45;&gt;Ideal_Build_Ideal -->
<g id="edge18" class="edge">
<title>Ideal_Ideal_rect&#45;&gt;Ideal_Build_Ideal</title>
<path fill="none" stroke="black" d="M583.87,-341.16C594.63,-314.45 615.52,-262.56 628.27,-230.89"/>
<polygon fill="black" stroke="black" points="631.61,-231.96 632.1,-221.38 625.12,-229.35 631.61,-231.96"/>
</g>
<!-- Ideal_Ideal_rect&#45;&gt;Ideal_Ideal -->
<g id="edge19" class="edge">
<title>Ideal_Ideal_rect&#45;&gt;Ideal_Ideal</title>
<path fill="none" stroke="black" d="M571.24,-341.16C562.22,-314.45 544.7,-262.56 534,-230.89"/>
<polygon fill="black" stroke="black" points="537.3,-229.73 530.79,-221.38 530.67,-231.97 537.3,-229.73"/>
</g>
<!-- Ideal_Build_Ideal&#45;&gt;Ideal_IsIdeal -->
<g id="edge20" class="edge">
<title>Ideal_Build_Ideal&#45;&gt;Ideal_IsIdeal</title>
<path fill="none" stroke="black" d="M639,-185.22C639,-161.19 639,-117.05 639,-88.43"/>
<polygon fill="black" stroke="black" points="642.5,-88.3 639,-78.3 635.5,-88.3 642.5,-88.3"/>
</g>
<!-- Ideal_Ideal&#45;&gt;Ideal_IsIdeal -->
<g id="edge21" class="edge">
<title>Ideal_Ideal&#45;&gt;Ideal_IsIdeal</title>
<path fill="none" stroke="black" d="M537.86,-186.33C557.68,-161.81 595.85,-114.6 619.21,-85.71"/>
<polygon fill="black" stroke="black" points="622.1,-87.7 625.66,-77.73 616.65,-83.3 622.1,-87.7"/>
</g>
<!-- Ideal_isideal -->
<g id="node14" class="node">
<title>Ideal_isideal</title>
<g id="a_node14"><a xlink:href="Ideal.html#isideal" xlink:title="isideal">
<ellipse fill="#f070d1" stroke="black" cx="424" cy="-203.23" rx="40.9" ry="18"/>
<ellipse fill="none" stroke="black" cx="424" cy="-203.23" rx="44.9" ry="22"/>
<ellipse fill="none" stroke="black" cx="424" cy="-203.23" rx="48.89" ry="26"/>
<text text-anchor="middle" x="424" y="-199.53" font-family="Times,serif" font-size="14.00">isideal</text>
</a>
</g>
</g>
<!-- Ideal_isideal&#45;&gt;Ideal_IsIdeal -->
<g id="edge22" class="edge">
<title>Ideal_isideal&#45;&gt;Ideal_IsIdeal</title>
<path fill="none" stroke="black" d="M453.89,-182.63C494.64,-155.91 567.22,-108.31 608.35,-81.33"/>
<polygon fill="black" stroke="black" points="610.43,-84.15 616.87,-75.74 606.59,-78.3 610.43,-84.15"/>
</g>
</g>
</svg>
