<?xml version="1.0" encoding="UTF-8" standalone="no"?>
<!DOCTYPE svg PUBLIC "-//W3C//DTD SVG 1.1//EN"
 "http://www.w3.org/Graphics/SVG/1.1/DTD/svg11.dtd">
<!-- Generated by graphviz version 2.43.0 (0)
 -->
<!-- Title: HoTT_Diagrams_Cocone Pages: 1 -->
<svg width="2021pt" height="1014pt"
 viewBox="0.00 0.00 2021.00 1014.50" xmlns="http://www.w3.org/2000/svg" xmlns:xlink="http://www.w3.org/1999/xlink">
<g id="graph0" class="graph" transform="scale(1 1) rotate(0) translate(4 1010.5)">
<title>HoTT_Diagrams_Cocone</title>
<polygon fill="white" stroke="transparent" points="-4,4 -4,-1010.5 2017,-1010.5 2017,4 -4,4"/>
<g id="clust1" class="cluster">
<title>cluster_Cocone</title>
<polygon fill="#ffffc3" stroke="black" points="8,-15.63 8,-990.87 2005,-990.87 2005,-15.63 8,-15.63"/>
<text text-anchor="middle" x="42" y="-975.67" font-family="Times,serif" font-size="14.00">Cocone</text>
</g>
<!-- Cocone_cocone_postcompose_equiv_universality -->
<g id="node1" class="node">
<title>Cocone_cocone_postcompose_equiv_universality</title>
<g id="a_node1"><a xlink:href="Cocone.html#cocone_postcompose_equiv_universality" xlink:title="cocone_postcompose_equiv_universality">
<ellipse fill="#f070d1" stroke="black" cx="1181" cy="-707.63" rx="196.07" ry="18"/>
<ellipse fill="none" stroke="black" cx="1181" cy="-707.63" rx="200.07" ry="22"/>
<ellipse fill="none" stroke="black" cx="1181" cy="-707.63" rx="204.07" ry="26"/>
<text text-anchor="middle" x="1181" y="-703.93" font-family="Times,serif" font-size="14.00">cocone_postcompose_equiv_universality</text>
</a>
</g>
</g>
<!-- Cocone_cocone_postcompose_comp -->
<g id="node9" class="node">
<title>Cocone_cocone_postcompose_comp</title>
<g id="a_node9"><a xlink:href="Cocone.html#cocone_postcompose_comp" xlink:title="cocone_postcompose_comp">
<ellipse fill="#f070d1" stroke="black" cx="607" cy="-550.63" rx="136.48" ry="18"/>
<text text-anchor="middle" x="607" y="-546.93" font-family="Times,serif" font-size="14.00">cocone_postcompose_comp</text>
</a>
</g>
</g>
<!-- Cocone_cocone_postcompose_equiv_universality&#45;&gt;Cocone_cocone_postcompose_comp -->
<g id="edge1" class="edge">
<title>Cocone_cocone_postcompose_equiv_universality&#45;&gt;Cocone_cocone_postcompose_comp</title>
<path fill="none" stroke="black" d="M1096.92,-683.93C982.14,-652.94 778.7,-598 673.75,-569.66"/>
<polygon fill="black" stroke="black" points="674.47,-566.23 663.9,-567 672.65,-572.99 674.47,-566.23"/>
</g>
<!-- Cocone_Build_UniversalCocone -->
<g id="node16" class="node">
<title>Cocone_Build_UniversalCocone</title>
<g id="a_node16"><a xlink:href="Cocone.html#Build_UniversalCocone" xlink:title="Build_UniversalCocone">
<ellipse fill="#7faaff" stroke="black" cx="334" cy="-550.63" rx="118.08" ry="18"/>
<text text-anchor="middle" x="334" y="-546.93" font-family="Times,serif" font-size="14.00">Build_UniversalCocone</text>
</a>
</g>
</g>
<!-- Cocone_cocone_postcompose_equiv_universality&#45;&gt;Cocone_Build_UniversalCocone -->
<g id="edge2" class="edge">
<title>Cocone_cocone_postcompose_equiv_universality&#45;&gt;Cocone_Build_UniversalCocone</title>
<path fill="none" stroke="black" d="M1067.65,-685.89C894.8,-654.26 569.37,-594.71 416.84,-566.8"/>
<polygon fill="black" stroke="black" points="417.07,-563.28 406.61,-564.92 415.81,-570.17 417.07,-563.28"/>
</g>
<!-- Cocone_UniversalCocone -->
<g id="node17" class="node">
<title>Cocone_UniversalCocone</title>
<g id="a_node17"><a xlink:href="Cocone.html#UniversalCocone" xlink:title="UniversalCocone">
<ellipse fill="#e2cdfa" stroke="black" cx="109" cy="-550.63" rx="89.08" ry="18"/>
<text text-anchor="middle" x="109" y="-546.93" font-family="Times,serif" font-size="14.00">UniversalCocone</text>
</a>
</g>
</g>
<!-- Cocone_cocone_postcompose_equiv_universality&#45;&gt;Cocone_UniversalCocone -->
<g id="edge3" class="edge">
<title>Cocone_cocone_postcompose_equiv_universality&#45;&gt;Cocone_UniversalCocone</title>
<path fill="none" stroke="black" d="M1042.89,-688.44C853.93,-663.23 504.34,-615.48 207,-568.63 199.38,-567.44 191.44,-566.14 183.52,-564.81"/>
<polygon fill="black" stroke="black" points="183.97,-561.34 173.53,-563.12 182.81,-568.24 183.97,-561.34"/>
</g>
<!-- Cocone_cocone_precompose_equiv_universality -->
<g id="node2" class="node">
<title>Cocone_cocone_precompose_equiv_universality</title>
<g id="a_node2"><a xlink:href="Cocone.html#cocone_precompose_equiv_universality" xlink:title="cocone_precompose_equiv_universality">
<ellipse fill="#f070d1" stroke="black" cx="1335" cy="-879.63" rx="192.27" ry="18"/>
<ellipse fill="none" stroke="black" cx="1335" cy="-879.63" rx="196.27" ry="22"/>
<ellipse fill="none" stroke="black" cx="1335" cy="-879.63" rx="200.27" ry="26"/>
<text text-anchor="middle" x="1335" y="-875.93" font-family="Times,serif" font-size="14.00">cocone_precompose_equiv_universality</text>
</a>
</g>
</g>
<!-- Cocone_cocone_precompose_equiv -->
<g id="node4" class="node">
<title>Cocone_cocone_precompose_equiv</title>
<g id="a_node4"><a xlink:href="Cocone.html#cocone_precompose_equiv" xlink:title="cocone_precompose_equiv">
<ellipse fill="#f070d1" stroke="black" cx="1864" cy="-707.63" rx="132.68" ry="18"/>
<text text-anchor="middle" x="1864" y="-703.93" font-family="Times,serif" font-size="14.00">cocone_precompose_equiv</text>
</a>
</g>
</g>
<!-- Cocone_cocone_precompose_equiv_universality&#45;&gt;Cocone_cocone_precompose_equiv -->
<g id="edge4" class="edge">
<title>Cocone_cocone_precompose_equiv_universality&#45;&gt;Cocone_cocone_precompose_equiv</title>
<path fill="none" stroke="black" d="M1407.45,-855.35C1513.18,-821.37 1707.76,-758.84 1805.18,-727.54"/>
<polygon fill="black" stroke="black" points="1806.42,-730.82 1814.87,-724.42 1804.28,-724.15 1806.42,-730.82"/>
</g>
<!-- Cocone_cocone_precompose_postcompose -->
<g id="node5" class="node">
<title>Cocone_cocone_precompose_postcompose</title>
<g id="a_node5"><a xlink:href="Cocone.html#cocone_precompose_postcompose" xlink:title="cocone_precompose_postcompose">
<ellipse fill="#f070d1" stroke="black" cx="1242" cy="-550.63" rx="167.87" ry="18"/>
<text text-anchor="middle" x="1242" y="-546.93" font-family="Times,serif" font-size="14.00">cocone_precompose_postcompose</text>
</a>
</g>
</g>
<!-- Cocone_cocone_precompose_equiv_universality&#45;&gt;Cocone_cocone_precompose_postcompose -->
<g id="edge5" class="edge">
<title>Cocone_cocone_precompose_equiv_universality&#45;&gt;Cocone_cocone_precompose_postcompose</title>
<path fill="none" stroke="black" d="M1460.38,-859.32C1593.53,-833.33 1775.46,-778.74 1702,-681.63 1659.57,-625.55 1471.7,-586.75 1349.56,-566.93"/>
<polygon fill="black" stroke="black" points="1349.85,-563.43 1339.42,-565.3 1348.74,-570.34 1349.85,-563.43"/>
</g>
<!-- Cocone_cocone_precompose_equiv_universality&#45;&gt;Cocone_Build_UniversalCocone -->
<g id="edge6" class="edge">
<title>Cocone_cocone_precompose_equiv_universality&#45;&gt;Cocone_Build_UniversalCocone</title>
<path fill="none" stroke="black" d="M1219.24,-858.37C1139.31,-838.87 1035.63,-801.88 968,-733.63 950.57,-716.05 966.84,-697.7 948,-681.63 908.27,-647.76 583.86,-591.74 423.31,-565.72"/>
<polygon fill="black" stroke="black" points="423.41,-562.19 412.98,-564.05 422.29,-569.1 423.41,-562.19"/>
</g>
<!-- Cocone_cocone_precompose_equiv_universality&#45;&gt;Cocone_UniversalCocone -->
<g id="edge7" class="edge">
<title>Cocone_cocone_precompose_equiv_universality&#45;&gt;Cocone_UniversalCocone</title>
<path fill="none" stroke="black" d="M1135.32,-877.33C847.63,-871.53 335.38,-845.27 193,-733.63 173.51,-718.36 182.92,-704.32 173,-681.63 157,-645.05 136.24,-603.86 122.77,-577.84"/>
<polygon fill="black" stroke="black" points="125.71,-575.9 117.99,-568.65 119.5,-579.13 125.71,-575.9"/>
</g>
<!-- Cocone_cocone_postcompose_equiv -->
<g id="node3" class="node">
<title>Cocone_cocone_postcompose_equiv</title>
<g id="a_node3"><a xlink:href="Cocone.html#cocone_postcompose_equiv" xlink:title="cocone_postcompose_equiv">
<ellipse fill="#f070d1" stroke="black" cx="1548" cy="-707.63" rx="137.27" ry="18"/>
<ellipse fill="none" stroke="black" cx="1548" cy="-707.63" rx="141.27" ry="22"/>
<ellipse fill="none" stroke="black" cx="1548" cy="-707.63" rx="145.28" ry="26"/>
<text text-anchor="middle" x="1548" y="-703.93" font-family="Times,serif" font-size="14.00">cocone_postcompose_equiv</text>
</a>
</g>
</g>
<!-- Cocone_cocone_postcompose_equiv&#45;&gt;Cocone_cocone_postcompose_comp -->
<g id="edge8" class="edge">
<title>Cocone_cocone_postcompose_equiv&#45;&gt;Cocone_cocone_postcompose_comp</title>
<path fill="none" stroke="black" d="M1443.7,-689.46C1258.4,-658.93 874.79,-595.74 698.83,-566.76"/>
<polygon fill="black" stroke="black" points="699.26,-563.28 688.82,-565.11 698.12,-570.19 699.26,-563.28"/>
</g>
<!-- Cocone_cocone_postcompose_identity -->
<g id="node10" class="node">
<title>Cocone_cocone_postcompose_identity</title>
<g id="a_node10"><a xlink:href="Cocone.html#cocone_postcompose_identity" xlink:title="cocone_postcompose_identity">
<ellipse fill="#f070d1" stroke="black" cx="909" cy="-550.63" rx="147.57" ry="18"/>
<text text-anchor="middle" x="909" y="-546.93" font-family="Times,serif" font-size="14.00">cocone_postcompose_identity</text>
</a>
</g>
</g>
<!-- Cocone_cocone_postcompose_equiv&#45;&gt;Cocone_cocone_postcompose_identity -->
<g id="edge9" class="edge">
<title>Cocone_cocone_postcompose_equiv&#45;&gt;Cocone_cocone_postcompose_identity</title>
<path fill="none" stroke="black" d="M1464.46,-686.37C1338.44,-655.8 1101.75,-598.39 982.14,-569.38"/>
<polygon fill="black" stroke="black" points="982.88,-565.96 972.34,-567 981.23,-572.76 982.88,-565.96"/>
</g>
<!-- Cocone_cocone_precompose_comp -->
<g id="node6" class="node">
<title>Cocone_cocone_precompose_comp</title>
<g id="a_node6"><a xlink:href="Cocone.html#cocone_precompose_comp" xlink:title="cocone_precompose_comp">
<ellipse fill="#f070d1" stroke="black" cx="1865" cy="-550.63" rx="131.88" ry="18"/>
<text text-anchor="middle" x="1865" y="-546.93" font-family="Times,serif" font-size="14.00">cocone_precompose_comp</text>
</a>
</g>
</g>
<!-- Cocone_cocone_precompose_equiv&#45;&gt;Cocone_cocone_precompose_comp -->
<g id="edge10" class="edge">
<title>Cocone_cocone_precompose_equiv&#45;&gt;Cocone_cocone_precompose_comp</title>
<path fill="none" stroke="black" d="M1864.11,-689.46C1864.28,-662.8 1864.62,-611.24 1864.82,-579.3"/>
<polygon fill="black" stroke="black" points="1868.32,-578.91 1864.89,-568.89 1861.32,-578.87 1868.32,-578.91"/>
</g>
<!-- Cocone_cocone_precompose_identity -->
<g id="node7" class="node">
<title>Cocone_cocone_precompose_identity</title>
<g id="a_node7"><a xlink:href="Cocone.html#cocone_precompose_identity" xlink:title="cocone_precompose_identity">
<ellipse fill="#f070d1" stroke="black" cx="1571" cy="-550.63" rx="143.77" ry="18"/>
<text text-anchor="middle" x="1571" y="-546.93" font-family="Times,serif" font-size="14.00">cocone_precompose_identity</text>
</a>
</g>
</g>
<!-- Cocone_cocone_precompose_equiv&#45;&gt;Cocone_cocone_precompose_identity -->
<g id="edge11" class="edge">
<title>Cocone_cocone_precompose_equiv&#45;&gt;Cocone_cocone_precompose_identity</title>
<path fill="none" stroke="black" d="M1832.64,-690.05C1779.25,-661.8 1670.75,-604.4 1611.62,-573.12"/>
<polygon fill="black" stroke="black" points="1613.05,-569.92 1602.57,-568.34 1609.78,-576.11 1613.05,-569.92"/>
</g>
<!-- Cocone_cocone_precompose -->
<g id="node8" class="node">
<title>Cocone_cocone_precompose</title>
<g id="a_node8"><a xlink:href="Cocone.html#cocone_precompose" xlink:title="cocone_precompose">
<ellipse fill="#f070d1" stroke="black" cx="1571" cy="-394.63" rx="102.88" ry="18"/>
<text text-anchor="middle" x="1571" y="-390.93" font-family="Times,serif" font-size="14.00">cocone_precompose</text>
</a>
</g>
</g>
<!-- Cocone_cocone_precompose_postcompose&#45;&gt;Cocone_cocone_precompose -->
<g id="edge12" class="edge">
<title>Cocone_cocone_precompose_postcompose&#45;&gt;Cocone_cocone_precompose</title>
<path fill="none" stroke="black" d="M1277.52,-533.01C1338.18,-504.62 1461.53,-446.88 1527.34,-416.07"/>
<polygon fill="black" stroke="black" points="1529.04,-419.14 1536.62,-411.73 1526.08,-412.8 1529.04,-419.14"/>
</g>
<!-- Cocone_cocone_postcompose -->
<g id="node18" class="node">
<title>Cocone_cocone_postcompose</title>
<g id="a_node18"><a xlink:href="Cocone.html#cocone_postcompose" xlink:title="cocone_postcompose">
<ellipse fill="#f070d1" stroke="black" cx="738" cy="-394.63" rx="107.48" ry="18"/>
<text text-anchor="middle" x="738" y="-390.93" font-family="Times,serif" font-size="14.00">cocone_postcompose</text>
</a>
</g>
</g>
<!-- Cocone_cocone_precompose_postcompose&#45;&gt;Cocone_cocone_postcompose -->
<g id="edge13" class="edge">
<title>Cocone_cocone_precompose_postcompose&#45;&gt;Cocone_cocone_postcompose</title>
<path fill="none" stroke="black" d="M1189.02,-533.45C1094.21,-504.48 896.23,-443.98 797.14,-413.71"/>
<polygon fill="black" stroke="black" points="797.88,-410.27 787.29,-410.7 795.83,-416.97 797.88,-410.27"/>
</g>
<!-- Cocone_path_cocone -->
<g id="node19" class="node">
<title>Cocone_path_cocone</title>
<g id="a_node19"><a xlink:href="Cocone.html#path_cocone" xlink:title="path_cocone">
<ellipse fill="#f070d1" stroke="black" cx="931" cy="-394.63" rx="67.69" ry="18"/>
<text text-anchor="middle" x="931" y="-390.93" font-family="Times,serif" font-size="14.00">path_cocone</text>
</a>
</g>
</g>
<!-- Cocone_cocone_precompose_postcompose&#45;&gt;Cocone_path_cocone -->
<g id="edge14" class="edge">
<title>Cocone_cocone_precompose_postcompose&#45;&gt;Cocone_path_cocone</title>
<path fill="none" stroke="black" d="M1208.13,-532.86C1150.17,-504.17 1032.31,-445.8 970.63,-415.26"/>
<polygon fill="black" stroke="black" points="972.11,-412.09 961.59,-410.78 969,-418.36 972.11,-412.09"/>
</g>
<!-- Cocone_cocone_precompose_comp&#45;&gt;Cocone_cocone_precompose -->
<g id="edge15" class="edge">
<title>Cocone_cocone_precompose_comp&#45;&gt;Cocone_cocone_precompose</title>
<path fill="none" stroke="black" d="M1833.26,-533.01C1779.42,-504.81 1670.3,-447.65 1611.21,-416.69"/>
<polygon fill="black" stroke="black" points="1612.65,-413.5 1602.17,-411.96 1609.4,-419.7 1612.65,-413.5"/>
</g>
<!-- Cocone_cocone_precompose_comp&#45;&gt;Cocone_path_cocone -->
<g id="edge16" class="edge">
<title>Cocone_cocone_precompose_comp&#45;&gt;Cocone_path_cocone</title>
<path fill="none" stroke="black" d="M1772.65,-537.76C1582.17,-512.92 1151.44,-454.99 1007,-420.63 997.87,-418.46 988.27,-415.7 979.07,-412.8"/>
<polygon fill="black" stroke="black" points="979.89,-409.39 969.3,-409.63 977.73,-416.05 979.89,-409.39"/>
</g>
<!-- Cocone_cocone_precompose_identity&#45;&gt;Cocone_cocone_precompose -->
<g id="edge17" class="edge">
<title>Cocone_cocone_precompose_identity&#45;&gt;Cocone_cocone_precompose</title>
<path fill="none" stroke="black" d="M1571,-532.57C1571,-506.09 1571,-454.86 1571,-423.12"/>
<polygon fill="black" stroke="black" points="1574.5,-422.78 1571,-412.78 1567.5,-422.78 1574.5,-422.78"/>
</g>
<!-- Cocone_cocone_precompose_identity&#45;&gt;Cocone_path_cocone -->
<g id="edge18" class="edge">
<title>Cocone_cocone_precompose_identity&#45;&gt;Cocone_path_cocone</title>
<path fill="none" stroke="black" d="M1497.45,-535.09C1389.26,-513.18 1181.19,-469.09 1007,-420.63 998.16,-418.17 988.81,-415.32 979.82,-412.43"/>
<polygon fill="black" stroke="black" points="980.83,-409.08 970.23,-409.31 978.66,-415.74 980.83,-409.08"/>
</g>
<!-- Cocone_legs_comm -->
<g id="node21" class="node">
<title>Cocone_legs_comm</title>
<g id="a_node21"><a xlink:href="Cocone.html#legs_comm" xlink:title="legs_comm">
<ellipse fill="#f070d1" stroke="black" cx="1571" cy="-222.63" rx="61.99" ry="18"/>
<text text-anchor="middle" x="1571" y="-218.93" font-family="Times,serif" font-size="14.00">legs_comm</text>
</a>
</g>
</g>
<!-- Cocone_cocone_precompose&#45;&gt;Cocone_legs_comm -->
<g id="edge19" class="edge">
<title>Cocone_cocone_precompose&#45;&gt;Cocone_legs_comm</title>
<path fill="none" stroke="black" d="M1571,-376.4C1571,-346.79 1571,-286.07 1571,-250.75"/>
<polygon fill="black" stroke="black" points="1574.5,-250.66 1571,-240.66 1567.5,-250.66 1574.5,-250.66"/>
</g>
<!-- Cocone_legs -->
<g id="node22" class="node">
<title>Cocone_legs</title>
<g id="a_node22"><a xlink:href="Cocone.html#legs" xlink:title="legs">
<ellipse fill="#f070d1" stroke="black" cx="1681" cy="-222.63" rx="29.8" ry="18"/>
<text text-anchor="middle" x="1681" y="-218.93" font-family="Times,serif" font-size="14.00">legs</text>
</a>
</g>
</g>
<!-- Cocone_cocone_precompose&#45;&gt;Cocone_legs -->
<g id="edge20" class="edge">
<title>Cocone_cocone_precompose&#45;&gt;Cocone_legs</title>
<path fill="none" stroke="black" d="M1581.95,-376.71C1601.4,-346.65 1642.08,-283.78 1664.79,-248.69"/>
<polygon fill="black" stroke="black" points="1667.92,-250.29 1670.42,-239.99 1662.05,-246.48 1667.92,-250.29"/>
</g>
<!-- Cocone_Build_Cocone -->
<g id="node27" class="node">
<title>Cocone_Build_Cocone</title>
<g id="a_node27"><a xlink:href="Cocone.html#Build_Cocone" xlink:title="Build_Cocone">
<ellipse fill="#7faaff" stroke="black" cx="981" cy="-66.63" rx="73.39" ry="18"/>
<text text-anchor="middle" x="981" y="-62.93" font-family="Times,serif" font-size="14.00">Build_Cocone</text>
</a>
</g>
</g>
<!-- Cocone_cocone_precompose&#45;&gt;Cocone_Build_Cocone -->
<g id="edge21" class="edge">
<title>Cocone_cocone_precompose&#45;&gt;Cocone_Build_Cocone</title>
<path fill="none" stroke="black" d="M1470.79,-390.5C1278.78,-382.15 870.34,-352.33 784,-248.63 728.75,-182.28 857.63,-116.85 932.35,-85.99"/>
<polygon fill="black" stroke="black" points="934.12,-89.05 942.07,-82.05 931.49,-82.56 934.12,-89.05"/>
</g>
<!-- Cocone_cocone_postcompose_comp&#45;&gt;Cocone_cocone_postcompose -->
<g id="edge22" class="edge">
<title>Cocone_cocone_postcompose_comp&#45;&gt;Cocone_cocone_postcompose</title>
<path fill="none" stroke="black" d="M621.52,-532.57C644.64,-505.39 689.92,-452.16 716.71,-420.67"/>
<polygon fill="black" stroke="black" points="719.6,-422.67 723.42,-412.78 714.27,-418.13 719.6,-422.67"/>
</g>
<!-- Cocone_cocone_postcompose_comp&#45;&gt;Cocone_path_cocone -->
<g id="edge23" class="edge">
<title>Cocone_cocone_postcompose_comp&#45;&gt;Cocone_path_cocone</title>
<path fill="none" stroke="black" d="M641.67,-533.15C702.04,-504.46 826.15,-445.47 890.42,-414.92"/>
<polygon fill="black" stroke="black" points="891.93,-418.08 899.45,-410.63 888.92,-411.76 891.93,-418.08"/>
</g>
<!-- Cocone_cocone_postcompose_identity&#45;&gt;Cocone_cocone_postcompose -->
<g id="edge24" class="edge">
<title>Cocone_cocone_postcompose_identity&#45;&gt;Cocone_cocone_postcompose</title>
<path fill="none" stroke="black" d="M890.05,-532.57C859.54,-505.09 799.44,-450.96 764.63,-419.62"/>
<polygon fill="black" stroke="black" points="766.55,-416.64 756.78,-412.55 761.87,-421.84 766.55,-416.64"/>
</g>
<!-- Cocone_cocone_postcompose_identity&#45;&gt;Cocone_path_cocone -->
<g id="edge25" class="edge">
<title>Cocone_cocone_postcompose_identity&#45;&gt;Cocone_path_cocone</title>
<path fill="none" stroke="black" d="M911.44,-532.57C915.24,-505.97 922.6,-454.41 927.13,-422.71"/>
<polygon fill="black" stroke="black" points="930.6,-423.18 928.55,-412.78 923.67,-422.18 930.6,-423.18"/>
</g>
<!-- Cocone_is_universal -->
<g id="node11" class="node">
<title>Cocone_is_universal</title>
<g id="a_node11"><a xlink:href="Cocone.html#is_universal" xlink:title="is_universal">
<ellipse fill="#f070d1" stroke="black" cx="90" cy="-707.63" rx="65.77" ry="18"/>
<ellipse fill="none" stroke="black" cx="90" cy="-707.63" rx="69.78" ry="22"/>
<ellipse fill="none" stroke="black" cx="90" cy="-707.63" rx="73.79" ry="26"/>
<text text-anchor="middle" x="90" y="-703.93" font-family="Times,serif" font-size="14.00">is_universal</text>
</a>
</g>
</g>
<!-- Cocone_is_universal&#45;&gt;Cocone_UniversalCocone -->
<g id="edge26" class="edge">
<title>Cocone_is_universal&#45;&gt;Cocone_UniversalCocone</title>
<path fill="none" stroke="black" d="M93.09,-681.39C96.54,-653.24 102.1,-607.89 105.65,-578.94"/>
<polygon fill="black" stroke="black" points="109.16,-579.07 106.91,-568.72 102.22,-578.22 109.16,-579.07"/>
</g>
<!-- Cocone_UniversalCocone_sind -->
<g id="node12" class="node">
<title>Cocone_UniversalCocone_sind</title>
<g id="a_node12"><a xlink:href="Cocone.html#UniversalCocone_sind" xlink:title="UniversalCocone_sind">
<ellipse fill="#f070d1" stroke="black" cx="566" cy="-707.63" rx="113.17" ry="18"/>
<ellipse fill="none" stroke="black" cx="566" cy="-707.63" rx="117.18" ry="22"/>
<ellipse fill="none" stroke="black" cx="566" cy="-707.63" rx="121.18" ry="26"/>
<text text-anchor="middle" x="566" y="-703.93" font-family="Times,serif" font-size="14.00">UniversalCocone_sind</text>
</a>
</g>
</g>
<!-- Cocone_UniversalCocone_sind&#45;&gt;Cocone_Build_UniversalCocone -->
<g id="edge27" class="edge">
<title>Cocone_UniversalCocone_sind&#45;&gt;Cocone_Build_UniversalCocone</title>
<path fill="none" stroke="black" d="M530.26,-682.76C485.9,-653.12 410.84,-602.97 367.54,-574.04"/>
<polygon fill="black" stroke="black" points="369.32,-571.02 359.06,-568.38 365.43,-576.84 369.32,-571.02"/>
</g>
<!-- Cocone_UniversalCocone_sind&#45;&gt;Cocone_UniversalCocone -->
<g id="edge28" class="edge">
<title>Cocone_UniversalCocone_sind&#45;&gt;Cocone_UniversalCocone</title>
<path fill="none" stroke="black" d="M502.94,-685.25C412.37,-654.53 247.09,-598.47 162.29,-569.71"/>
<polygon fill="black" stroke="black" points="163.2,-566.32 152.61,-566.42 160.95,-572.95 163.2,-566.32"/>
</g>
<!-- Cocone_UniversalCocone_rec -->
<g id="node13" class="node">
<title>Cocone_UniversalCocone_rec</title>
<g id="a_node13"><a xlink:href="Cocone.html#UniversalCocone_rec" xlink:title="UniversalCocone_rec">
<ellipse fill="#f070d1" stroke="black" cx="314" cy="-879.63" rx="108.58" ry="18"/>
<ellipse fill="none" stroke="black" cx="314" cy="-879.63" rx="112.58" ry="22"/>
<ellipse fill="none" stroke="black" cx="314" cy="-879.63" rx="116.58" ry="26"/>
<text text-anchor="middle" x="314" y="-875.93" font-family="Times,serif" font-size="14.00">UniversalCocone_rec</text>
</a>
</g>
</g>
<!-- Cocone_UniversalCocone_rect -->
<g id="node15" class="node">
<title>Cocone_UniversalCocone_rect</title>
<g id="a_node15"><a xlink:href="Cocone.html#UniversalCocone_rect" xlink:title="UniversalCocone_rect">
<ellipse fill="#f070d1" stroke="black" cx="314" cy="-707.63" rx="112.38" ry="18"/>
<text text-anchor="middle" x="314" y="-703.93" font-family="Times,serif" font-size="14.00">UniversalCocone_rect</text>
</a>
</g>
</g>
<!-- Cocone_UniversalCocone_rec&#45;&gt;Cocone_UniversalCocone_rect -->
<g id="edge29" class="edge">
<title>Cocone_UniversalCocone_rec&#45;&gt;Cocone_UniversalCocone_rect</title>
<path fill="none" stroke="black" d="M314,-853.55C314,-822.18 314,-768.67 314,-736.19"/>
<polygon fill="black" stroke="black" points="317.5,-736.04 314,-726.04 310.5,-736.04 317.5,-736.04"/>
</g>
<!-- Cocone_UniversalCocone_ind -->
<g id="node14" class="node">
<title>Cocone_UniversalCocone_ind</title>
<g id="a_node14"><a xlink:href="Cocone.html#UniversalCocone_ind" xlink:title="UniversalCocone_ind">
<ellipse fill="#7fffd4" stroke="black" cx="822" cy="-707.63" rx="108.58" ry="18"/>
<ellipse fill="none" stroke="black" cx="822" cy="-707.63" rx="112.58" ry="22"/>
<ellipse fill="none" stroke="black" cx="822" cy="-707.63" rx="116.58" ry="26"/>
<text text-anchor="middle" x="822" y="-703.93" font-family="Times,serif" font-size="14.00">UniversalCocone_ind</text>
</a>
</g>
</g>
<!-- Cocone_UniversalCocone_ind&#45;&gt;Cocone_Build_UniversalCocone -->
<g id="edge30" class="edge">
<title>Cocone_UniversalCocone_ind&#45;&gt;Cocone_Build_UniversalCocone</title>
<path fill="none" stroke="black" d="M756.95,-685.97C661.3,-655.59 484.19,-599.34 392.46,-570.2"/>
<polygon fill="black" stroke="black" points="393.37,-566.82 382.78,-567.13 391.25,-573.49 393.37,-566.82"/>
</g>
<!-- Cocone_UniversalCocone_ind&#45;&gt;Cocone_UniversalCocone -->
<g id="edge31" class="edge">
<title>Cocone_UniversalCocone_ind&#45;&gt;Cocone_UniversalCocone</title>
<path fill="none" stroke="black" d="M740.56,-688.93C598.82,-658.12 309.35,-595.19 177.35,-566.49"/>
<polygon fill="black" stroke="black" points="177.87,-563.03 167.36,-564.32 176.39,-569.87 177.87,-563.03"/>
</g>
<!-- Cocone_UniversalCocone_rect&#45;&gt;Cocone_Build_UniversalCocone -->
<g id="edge32" class="edge">
<title>Cocone_UniversalCocone_rect&#45;&gt;Cocone_Build_UniversalCocone</title>
<path fill="none" stroke="black" d="M316.22,-689.46C319.67,-662.69 326.37,-610.79 330.48,-578.88"/>
<polygon fill="black" stroke="black" points="333.96,-579.26 331.77,-568.89 327.02,-578.36 333.96,-579.26"/>
</g>
<!-- Cocone_UniversalCocone_rect&#45;&gt;Cocone_UniversalCocone -->
<g id="edge33" class="edge">
<title>Cocone_UniversalCocone_rect&#45;&gt;Cocone_UniversalCocone</title>
<path fill="none" stroke="black" d="M291.67,-689.75C254.68,-661.78 180.66,-605.82 139.1,-574.39"/>
<polygon fill="black" stroke="black" points="141.08,-571.5 130.99,-568.26 136.86,-577.09 141.08,-571.5"/>
</g>
<!-- Cocone_Build_UniversalCocone&#45;&gt;Cocone_cocone_postcompose -->
<g id="edge34" class="edge">
<title>Cocone_Build_UniversalCocone&#45;&gt;Cocone_cocone_postcompose</title>
<path fill="none" stroke="black" d="M375.71,-533.73C450.4,-505.27 606.66,-445.7 687.36,-414.94"/>
<polygon fill="black" stroke="black" points="688.72,-418.17 696.81,-411.33 686.22,-411.63 688.72,-418.17"/>
</g>
<!-- Cocone_UniversalCocone&#45;&gt;Cocone_cocone_postcompose -->
<g id="edge35" class="edge">
<title>Cocone_UniversalCocone&#45;&gt;Cocone_cocone_postcompose</title>
<path fill="none" stroke="black" d="M163.45,-536.3C278.08,-508.24 544.07,-443.12 669.81,-412.33"/>
<polygon fill="black" stroke="black" points="670.83,-415.68 679.71,-409.91 669.17,-408.88 670.83,-415.68"/>
</g>
<!-- Cocone_cocone_postcompose&#45;&gt;Cocone_Build_Cocone -->
<g id="edge36" class="edge">
<title>Cocone_cocone_postcompose&#45;&gt;Cocone_Build_Cocone</title>
<path fill="none" stroke="black" d="M736.16,-376.38C733.16,-339.85 730.95,-253.45 769,-196.63 806.87,-140.09 878.73,-104.21 928.21,-85.02"/>
<polygon fill="black" stroke="black" points="929.67,-88.21 937.79,-81.4 927.2,-81.66 929.67,-88.21"/>
</g>
<!-- Cocone_Cocone -->
<g id="node28" class="node">
<title>Cocone_Cocone</title>
<g id="a_node28"><a xlink:href="Cocone.html#Cocone" xlink:title="Cocone">
<ellipse fill="#e2cdfa" stroke="black" cx="1395" cy="-66.63" rx="44.39" ry="18"/>
<text text-anchor="middle" x="1395" y="-62.93" font-family="Times,serif" font-size="14.00">Cocone</text>
</a>
</g>
</g>
<!-- Cocone_cocone_postcompose&#45;&gt;Cocone_Cocone -->
<g id="edge37" class="edge">
<title>Cocone_cocone_postcompose&#45;&gt;Cocone_Cocone</title>
<path fill="none" stroke="black" d="M800.25,-379.94C817.63,-376.2 836.54,-372.19 854,-368.63 992.8,-340.38 1389.76,-357.81 1480,-248.63 1520.88,-199.17 1458.41,-126.77 1420.52,-90.34"/>
<polygon fill="black" stroke="black" points="1422.54,-87.44 1412.86,-83.14 1417.74,-92.54 1422.54,-87.44"/>
</g>
<!-- Cocone_path_cocone_naive -->
<g id="node20" class="node">
<title>Cocone_path_cocone_naive</title>
<g id="a_node20"><a xlink:href="Cocone.html#path_cocone_naive" xlink:title="path_cocone_naive">
<ellipse fill="#f070d1" stroke="black" cx="890" cy="-222.63" rx="96.68" ry="18"/>
<text text-anchor="middle" x="890" y="-218.93" font-family="Times,serif" font-size="14.00">path_cocone_naive</text>
</a>
</g>
</g>
<!-- Cocone_path_cocone&#45;&gt;Cocone_path_cocone_naive -->
<g id="edge38" class="edge">
<title>Cocone_path_cocone&#45;&gt;Cocone_path_cocone_naive</title>
<path fill="none" stroke="black" d="M926.84,-376.4C919.7,-346.79 905.06,-286.07 896.54,-250.75"/>
<polygon fill="black" stroke="black" points="899.85,-249.56 894.11,-240.66 893.05,-251.21 899.85,-249.56"/>
</g>
<!-- Cocone_path_cocone_naive&#45;&gt;Cocone_Build_Cocone -->
<g id="edge39" class="edge">
<title>Cocone_path_cocone_naive&#45;&gt;Cocone_Build_Cocone</title>
<path fill="none" stroke="black" d="M900.09,-204.57C916.01,-177.62 947.07,-125.06 965.73,-93.48"/>
<polygon fill="black" stroke="black" points="968.79,-95.17 970.87,-84.78 962.77,-91.61 968.79,-95.17"/>
</g>
<!-- Cocone_path_cocone_naive&#45;&gt;Cocone_Cocone -->
<g id="edge40" class="edge">
<title>Cocone_path_cocone_naive&#45;&gt;Cocone_Cocone</title>
<path fill="none" stroke="black" d="M938.42,-206.87C1036.32,-177.02 1256.46,-109.88 1350.76,-81.13"/>
<polygon fill="black" stroke="black" points="1352.01,-84.4 1360.55,-78.14 1349.97,-77.71 1352.01,-84.4"/>
</g>
<!-- Cocone_legs_comm&#45;&gt;Cocone_Cocone -->
<g id="edge41" class="edge">
<title>Cocone_legs_comm&#45;&gt;Cocone_Cocone</title>
<path fill="none" stroke="black" d="M1552.5,-205.45C1520.83,-177.73 1456.18,-121.17 1420.34,-89.81"/>
<polygon fill="black" stroke="black" points="1422.56,-87.1 1412.73,-83.15 1417.95,-92.37 1422.56,-87.1"/>
</g>
<!-- Cocone_legs&#45;&gt;Cocone_Cocone -->
<g id="edge42" class="edge">
<title>Cocone_legs&#45;&gt;Cocone_Cocone</title>
<path fill="none" stroke="black" d="M1661.77,-208.83C1655.53,-204.81 1648.54,-200.43 1642,-196.63 1568.83,-154.19 1480.39,-109.55 1431.67,-85.51"/>
<polygon fill="black" stroke="black" points="1432.99,-82.26 1422.47,-80.99 1429.9,-88.54 1432.99,-82.26"/>
</g>
<!-- Cocone_Cocone_sind -->
<g id="node23" class="node">
<title>Cocone_Cocone_sind</title>
<g id="a_node23"><a xlink:href="Cocone.html#Cocone_sind" xlink:title="Cocone_sind">
<ellipse fill="#f070d1" stroke="black" cx="1395" cy="-222.63" rx="68.46" ry="18"/>
<ellipse fill="none" stroke="black" cx="1395" cy="-222.63" rx="72.48" ry="22"/>
<ellipse fill="none" stroke="black" cx="1395" cy="-222.63" rx="76.49" ry="26"/>
<text text-anchor="middle" x="1395" y="-218.93" font-family="Times,serif" font-size="14.00">Cocone_sind</text>
</a>
</g>
</g>
<!-- Cocone_Cocone_sind&#45;&gt;Cocone_Build_Cocone -->
<g id="edge43" class="edge">
<title>Cocone_Cocone_sind&#45;&gt;Cocone_Build_Cocone</title>
<path fill="none" stroke="black" d="M1344.65,-202.91C1264.36,-173.04 1108.37,-115.01 1029.36,-85.62"/>
<polygon fill="black" stroke="black" points="1030.25,-82.22 1019.65,-82.01 1027.81,-88.78 1030.25,-82.22"/>
</g>
<!-- Cocone_Cocone_sind&#45;&gt;Cocone_Cocone -->
<g id="edge44" class="edge">
<title>Cocone_Cocone_sind&#45;&gt;Cocone_Cocone</title>
<path fill="none" stroke="black" d="M1395,-196.55C1395,-168.74 1395,-124.01 1395,-95.23"/>
<polygon fill="black" stroke="black" points="1398.5,-95.05 1395,-85.05 1391.5,-95.05 1398.5,-95.05"/>
</g>
<!-- Cocone_Cocone_rec -->
<g id="node24" class="node">
<title>Cocone_Cocone_rec</title>
<g id="a_node24"><a xlink:href="Cocone.html#Cocone_rec" xlink:title="Cocone_rec">
<ellipse fill="#f070d1" stroke="black" cx="1088" cy="-394.63" rx="63.87" ry="18"/>
<ellipse fill="none" stroke="black" cx="1088" cy="-394.63" rx="67.88" ry="22"/>
<ellipse fill="none" stroke="black" cx="1088" cy="-394.63" rx="71.89" ry="26"/>
<text text-anchor="middle" x="1088" y="-390.93" font-family="Times,serif" font-size="14.00">Cocone_rec</text>
</a>
</g>
</g>
<!-- Cocone_Cocone_rect -->
<g id="node26" class="node">
<title>Cocone_Cocone_rect</title>
<g id="a_node26"><a xlink:href="Cocone.html#Cocone_rect" xlink:title="Cocone_rect">
<ellipse fill="#f070d1" stroke="black" cx="1072" cy="-222.63" rx="67.69" ry="18"/>
<text text-anchor="middle" x="1072" y="-218.93" font-family="Times,serif" font-size="14.00">Cocone_rect</text>
</a>
</g>
</g>
<!-- Cocone_Cocone_rec&#45;&gt;Cocone_Cocone_rect -->
<g id="edge45" class="edge">
<title>Cocone_Cocone_rec&#45;&gt;Cocone_Cocone_rect</title>
<path fill="none" stroke="black" d="M1085.64,-368.55C1082.69,-337.18 1077.65,-283.67 1074.59,-251.19"/>
<polygon fill="black" stroke="black" points="1078.06,-250.67 1073.64,-241.04 1071.09,-251.33 1078.06,-250.67"/>
</g>
<!-- Cocone_Cocone_ind -->
<g id="node25" class="node">
<title>Cocone_Cocone_ind</title>
<g id="a_node25"><a xlink:href="Cocone.html#Cocone_ind" xlink:title="Cocone_ind">
<ellipse fill="#7fffd4" stroke="black" cx="1229" cy="-222.63" rx="63.87" ry="18"/>
<ellipse fill="none" stroke="black" cx="1229" cy="-222.63" rx="67.88" ry="22"/>
<ellipse fill="none" stroke="black" cx="1229" cy="-222.63" rx="71.89" ry="26"/>
<text text-anchor="middle" x="1229" y="-218.93" font-family="Times,serif" font-size="14.00">Cocone_ind</text>
</a>
</g>
</g>
<!-- Cocone_Cocone_ind&#45;&gt;Cocone_Build_Cocone -->
<g id="edge46" class="edge">
<title>Cocone_Cocone_ind&#45;&gt;Cocone_Build_Cocone</title>
<path fill="none" stroke="black" d="M1193.99,-199.9C1146.58,-170.45 1062.47,-118.23 1015.38,-88.99"/>
<polygon fill="black" stroke="black" points="1017.1,-85.93 1006.76,-83.63 1013.41,-91.88 1017.1,-85.93"/>
</g>
<!-- Cocone_Cocone_ind&#45;&gt;Cocone_Cocone -->
<g id="edge47" class="edge">
<title>Cocone_Cocone_ind&#45;&gt;Cocone_Cocone</title>
<path fill="none" stroke="black" d="M1254.21,-198.25C1285.65,-169.08 1339.05,-119.54 1370.26,-90.58"/>
<polygon fill="black" stroke="black" points="1372.74,-93.06 1377.7,-83.69 1367.98,-87.92 1372.74,-93.06"/>
</g>
<!-- Cocone_Cocone_rect&#45;&gt;Cocone_Build_Cocone -->
<g id="edge48" class="edge">
<title>Cocone_Cocone_rect&#45;&gt;Cocone_Build_Cocone</title>
<path fill="none" stroke="black" d="M1061.91,-204.57C1045.99,-177.62 1014.93,-125.06 996.27,-93.48"/>
<polygon fill="black" stroke="black" points="999.23,-91.61 991.13,-84.78 993.21,-95.17 999.23,-91.61"/>
</g>
<!-- Cocone_Cocone_rect&#45;&gt;Cocone_Cocone -->
<g id="edge49" class="edge">
<title>Cocone_Cocone_rect&#45;&gt;Cocone_Cocone</title>
<path fill="none" stroke="black" d="M1103.56,-206.59C1163.65,-177.94 1294.21,-115.69 1358.18,-85.19"/>
<polygon fill="black" stroke="black" points="1359.96,-88.22 1367.49,-80.75 1356.95,-81.9 1359.96,-88.22"/>
</g>
</g>
</svg>
