<?xml version="1.0" encoding="UTF-8" standalone="no"?>
<!DOCTYPE svg PUBLIC "-//W3C//DTD SVG 1.1//EN"
 "http://www.w3.org/Graphics/SVG/1.1/DTD/svg11.dtd">
<!-- Generated by graphviz version 2.43.0 (0)
 -->
<!-- Title: HoTT_Algebra_AbGroups_AbPullback Pages: 1 -->
<svg width="510pt" height="259pt"
 viewBox="0.00 0.00 510.00 259.00" xmlns="http://www.w3.org/2000/svg" xmlns:xlink="http://www.w3.org/1999/xlink">
<g id="graph0" class="graph" transform="scale(1 1) rotate(0) translate(4 255)">
<title>HoTT_Algebra_AbGroups_AbPullback</title>
<polygon fill="white" stroke="transparent" points="-4,4 -4,-255 506,-255 506,4 -4,4"/>
<g id="clust1" class="cluster">
<title>cluster_AbPullback</title>
<polygon fill="#ffffc3" stroke="black" points="13.75,-8 13.75,-243 488.25,-243 488.25,-8 13.75,-8"/>
<text text-anchor="middle" x="61.75" y="-227.8" font-family="Times,serif" font-size="14.00">AbPullback</text>
</g>
<!-- AbPullback_ab_pullback -->
<g id="node1" class="node">
<title>AbPullback_ab_pullback</title>
<g id="a_node1"><a xlink:href="AbPullback.html#ab_pullback" xlink:title="ab_pullback">
<ellipse fill="#f070d1" stroke="black" cx="251.01" cy="-186" rx="65.77" ry="18"/>
<ellipse fill="none" stroke="black" cx="251.01" cy="-186" rx="69.78" ry="22"/>
<ellipse fill="none" stroke="black" cx="251.01" cy="-186" rx="73.79" ry="26"/>
<text text-anchor="middle" x="251.01" y="-182.3" font-family="Times,serif" font-size="14.00">ab_pullback</text>
</a>
</g>
</g>
<!-- AbPullback_isabgroup_ab_pullback -->
<g id="node2" class="node">
<title>AbPullback_isabgroup_ab_pullback</title>
<g id="a_node2"><a xlink:href="AbPullback.html#isabgroup_ab_pullback" xlink:title="isabgroup_ab_pullback">
<ellipse fill="#f070d1" stroke="black" cx="251.01" cy="-106" rx="116.18" ry="18"/>
<text text-anchor="middle" x="251.01" y="-102.3" font-family="Times,serif" font-size="14.00">isabgroup_ab_pullback</text>
</a>
</g>
</g>
<!-- AbPullback_ab_pullback&#45;&gt;AbPullback_isabgroup_ab_pullback -->
<g id="edge1" class="edge">
<title>AbPullback_ab_pullback&#45;&gt;AbPullback_isabgroup_ab_pullback</title>
<path fill="none" stroke="black" d="M251.01,-159.89C251.01,-151.84 251.01,-142.88 251.01,-134.66"/>
<polygon fill="black" stroke="black" points="254.51,-134.41 251.01,-124.41 247.51,-134.41 254.51,-134.41"/>
</g>
<!-- AbPullback_ab_pullback_commutative -->
<g id="node3" class="node">
<title>AbPullback_ab_pullback_commutative</title>
<g id="a_node3"><a xlink:href="AbPullback.html#ab_pullback_commutative" xlink:title="ab_pullback_commutative">
<ellipse fill="#f070d1" stroke="black" cx="251.01" cy="-34" rx="129.98" ry="18"/>
<text text-anchor="middle" x="251.01" y="-30.3" font-family="Times,serif" font-size="14.00">ab_pullback_commutative</text>
</a>
</g>
</g>
<!-- AbPullback_isabgroup_ab_pullback&#45;&gt;AbPullback_ab_pullback_commutative -->
<g id="edge2" class="edge">
<title>AbPullback_isabgroup_ab_pullback&#45;&gt;AbPullback_ab_pullback_commutative</title>
<path fill="none" stroke="black" d="M251.01,-87.7C251.01,-79.98 251.01,-70.71 251.01,-62.11"/>
<polygon fill="black" stroke="black" points="254.51,-62.1 251.01,-52.1 247.51,-62.1 254.51,-62.1"/>
</g>
</g>
</svg>
