<?xml version="1.0" encoding="UTF-8" standalone="no"?>
<!DOCTYPE svg PUBLIC "-//W3C//DTD SVG 1.1//EN"
 "http://www.w3.org/Graphics/SVG/1.1/DTD/svg11.dtd">
<!-- Generated by graphviz version 2.43.0 (0)
 -->
<!-- Title: HoTT_Spaces_Int_LoopExp Pages: 1 -->
<svg width="1222pt" height="615pt"
 viewBox="0.00 0.00 1222.00 615.00" xmlns="http://www.w3.org/2000/svg" xmlns:xlink="http://www.w3.org/1999/xlink">
<g id="graph0" class="graph" transform="scale(1 1) rotate(0) translate(4 611)">
<title>HoTT_Spaces_Int_LoopExp</title>
<polygon fill="white" stroke="transparent" points="-4,4 -4,-611 1218,-611 1218,4 -4,4"/>
<g id="clust1" class="cluster">
<title>cluster_LoopExp</title>
<polygon fill="#ffffc3" stroke="black" points="8,-14.32 8,-592.68 1206,-592.68 1206,-14.32 8,-14.32"/>
<text text-anchor="middle" x="47.5" y="-577.48" font-family="Times,serif" font-size="14.00">LoopExp</text>
</g>
<!-- LoopExp_loopexp_path_universe -->
<g id="node1" class="node">
<title>LoopExp_loopexp_path_universe</title>
<g id="a_node1"><a xlink:href="LoopExp.html#loopexp_path_universe" xlink:title="loopexp_path_universe">
<ellipse fill="#f070d1" stroke="black" cx="1074" cy="-490.32" rx="116.19" ry="18"/>
<ellipse fill="none" stroke="black" cx="1074" cy="-490.32" rx="120.18" ry="22"/>
<ellipse fill="none" stroke="black" cx="1074" cy="-490.32" rx="124.18" ry="26"/>
<text text-anchor="middle" x="1074" y="-486.62" font-family="Times,serif" font-size="14.00">loopexp_path_universe</text>
</a>
</g>
</g>
<!-- LoopExp_equiv_path_loopexp -->
<g id="node2" class="node">
<title>LoopExp_equiv_path_loopexp</title>
<g id="a_node2"><a xlink:href="LoopExp.html#equiv_path_loopexp" xlink:title="equiv_path_loopexp">
<ellipse fill="#f070d1" stroke="black" cx="1092" cy="-333.32" rx="102.08" ry="18"/>
<text text-anchor="middle" x="1092" y="-329.62" font-family="Times,serif" font-size="14.00">equiv_path_loopexp</text>
</a>
</g>
</g>
<!-- LoopExp_loopexp_path_universe&#45;&gt;LoopExp_equiv_path_loopexp -->
<g id="edge1" class="edge">
<title>LoopExp_loopexp_path_universe&#45;&gt;LoopExp_equiv_path_loopexp</title>
<path fill="none" stroke="black" d="M1076.93,-464.08C1080.2,-435.93 1085.47,-390.58 1088.83,-361.63"/>
<polygon fill="black" stroke="black" points="1092.34,-361.74 1090.02,-351.41 1085.39,-360.93 1092.34,-361.74"/>
</g>
<!-- LoopExp_loopexp -->
<g id="node15" class="node">
<title>LoopExp_loopexp</title>
<g id="a_node15"><a xlink:href="LoopExp.html#loopexp" xlink:title="loopexp">
<ellipse fill="#f070d1" stroke="black" cx="777" cy="-189.32" rx="46.59" ry="18"/>
<text text-anchor="middle" x="777" y="-185.62" font-family="Times,serif" font-size="14.00">loopexp</text>
</a>
</g>
</g>
<!-- LoopExp_equiv_path_loopexp&#45;&gt;LoopExp_loopexp -->
<g id="edge2" class="edge">
<title>LoopExp_equiv_path_loopexp&#45;&gt;LoopExp_loopexp</title>
<path fill="none" stroke="black" d="M1056.48,-316.31C996.91,-289.46 877.38,-235.57 815.73,-207.78"/>
<polygon fill="black" stroke="black" points="816.91,-204.48 806.35,-203.56 814.03,-210.86 816.91,-204.48"/>
</g>
<!-- LoopExp_loopexp_add -->
<g id="node3" class="node">
<title>LoopExp_loopexp_add</title>
<g id="a_node3"><a xlink:href="LoopExp.html#loopexp_add" xlink:title="loopexp_add">
<ellipse fill="#f070d1" stroke="black" cx="855" cy="-490.32" rx="68.46" ry="18"/>
<ellipse fill="none" stroke="black" cx="855" cy="-490.32" rx="72.48" ry="22"/>
<ellipse fill="none" stroke="black" cx="855" cy="-490.32" rx="76.49" ry="26"/>
<text text-anchor="middle" x="855" y="-486.62" font-family="Times,serif" font-size="14.00">loopexp_add</text>
</a>
</g>
</g>
<!-- LoopExp_loopexp_int_pos_sub_r -->
<g id="node4" class="node">
<title>LoopExp_loopexp_int_pos_sub_r</title>
<g id="a_node4"><a xlink:href="LoopExp.html#loopexp_int_pos_sub_r" xlink:title="loopexp_int_pos_sub_r">
<ellipse fill="#f070d1" stroke="black" cx="858" cy="-333.32" rx="114.28" ry="18"/>
<text text-anchor="middle" x="858" y="-329.62" font-family="Times,serif" font-size="14.00">loopexp_int_pos_sub_r</text>
</a>
</g>
</g>
<!-- LoopExp_loopexp_add&#45;&gt;LoopExp_loopexp_int_pos_sub_r -->
<g id="edge3" class="edge">
<title>LoopExp_loopexp_add&#45;&gt;LoopExp_loopexp_int_pos_sub_r</title>
<path fill="none" stroke="black" d="M855.49,-464.08C856.03,-435.93 856.91,-390.58 857.47,-361.63"/>
<polygon fill="black" stroke="black" points="860.98,-361.47 857.67,-351.41 853.98,-361.34 860.98,-361.47"/>
</g>
<!-- LoopExp_loopexp_int_pos_sub_l -->
<g id="node5" class="node">
<title>LoopExp_loopexp_int_pos_sub_l</title>
<g id="a_node5"><a xlink:href="LoopExp.html#loopexp_int_pos_sub_l" xlink:title="loopexp_int_pos_sub_l">
<ellipse fill="#f070d1" stroke="black" cx="613" cy="-333.32" rx="112.38" ry="18"/>
<text text-anchor="middle" x="613" y="-329.62" font-family="Times,serif" font-size="14.00">loopexp_int_pos_sub_l</text>
</a>
</g>
</g>
<!-- LoopExp_loopexp_add&#45;&gt;LoopExp_loopexp_int_pos_sub_l -->
<g id="edge4" class="edge">
<title>LoopExp_loopexp_add&#45;&gt;LoopExp_loopexp_int_pos_sub_l</title>
<path fill="none" stroke="black" d="M820.33,-467.12C774.28,-437.63 693.44,-385.85 647.49,-356.42"/>
<polygon fill="black" stroke="black" points="649.37,-353.46 639.06,-351.02 645.59,-359.36 649.37,-353.46"/>
</g>
<!-- LoopExp_loopexp_pos_add -->
<g id="node6" class="node">
<title>LoopExp_loopexp_pos_add</title>
<g id="a_node6"><a xlink:href="LoopExp.html#loopexp_pos_add" xlink:title="loopexp_pos_add">
<ellipse fill="#f070d1" stroke="black" cx="394" cy="-333.32" rx="89.08" ry="18"/>
<text text-anchor="middle" x="394" y="-329.62" font-family="Times,serif" font-size="14.00">loopexp_pos_add</text>
</a>
</g>
</g>
<!-- LoopExp_loopexp_add&#45;&gt;LoopExp_loopexp_pos_add -->
<g id="edge5" class="edge">
<title>LoopExp_loopexp_add&#45;&gt;LoopExp_loopexp_pos_add</title>
<path fill="none" stroke="black" d="M802.12,-471.54C713.56,-441.77 536.23,-382.15 447.36,-352.26"/>
<polygon fill="black" stroke="black" points="448.34,-348.9 437.74,-349.03 446.11,-355.54 448.34,-348.9"/>
</g>
<!-- LoopExp_loopexp_pos_concat -->
<g id="node7" class="node">
<title>LoopExp_loopexp_pos_concat</title>
<g id="a_node7"><a xlink:href="LoopExp.html#loopexp_pos_concat" xlink:title="loopexp_pos_concat">
<ellipse fill="#f070d1" stroke="black" cx="610" cy="-189.32" rx="102.08" ry="18"/>
<text text-anchor="middle" x="610" y="-185.62" font-family="Times,serif" font-size="14.00">loopexp_pos_concat</text>
</a>
</g>
</g>
<!-- LoopExp_loopexp_int_pos_sub_r&#45;&gt;LoopExp_loopexp_pos_concat -->
<g id="edge6" class="edge">
<title>LoopExp_loopexp_int_pos_sub_r&#45;&gt;LoopExp_loopexp_pos_concat</title>
<path fill="none" stroke="black" d="M829.07,-315.76C784.08,-290 697.37,-240.35 647.6,-211.85"/>
<polygon fill="black" stroke="black" points="649.17,-208.72 638.75,-206.79 645.69,-214.79 649.17,-208.72"/>
</g>
<!-- LoopExp_loopexp_int_pos_sub_r&#45;&gt;LoopExp_loopexp -->
<g id="edge7" class="edge">
<title>LoopExp_loopexp_int_pos_sub_r&#45;&gt;LoopExp_loopexp</title>
<path fill="none" stroke="black" d="M848.23,-315.2C834.17,-290.54 808.11,-244.87 791.71,-216.12"/>
<polygon fill="black" stroke="black" points="794.55,-214.02 786.55,-207.07 788.47,-217.49 794.55,-214.02"/>
</g>
<!-- LoopExp_loopexp_int_pos_sub_l&#45;&gt;LoopExp_loopexp_pos_concat -->
<g id="edge8" class="edge">
<title>LoopExp_loopexp_int_pos_sub_l&#45;&gt;LoopExp_loopexp_pos_concat</title>
<path fill="none" stroke="black" d="M612.64,-315.2C612.13,-290.99 611.19,-246.54 610.58,-217.72"/>
<polygon fill="black" stroke="black" points="614.07,-217.44 610.36,-207.51 607.08,-217.59 614.07,-217.44"/>
</g>
<!-- LoopExp_loopexp_int_pos_sub_l&#45;&gt;LoopExp_loopexp -->
<g id="edge9" class="edge">
<title>LoopExp_loopexp_int_pos_sub_l&#45;&gt;LoopExp_loopexp</title>
<path fill="none" stroke="black" d="M632.46,-315.48C661.87,-290.01 717.7,-241.67 750.71,-213.09"/>
<polygon fill="black" stroke="black" points="753.31,-215.47 758.58,-206.28 748.72,-210.18 753.31,-215.47"/>
</g>
<!-- LoopExp_loopexp_pos_add&#45;&gt;LoopExp_loopexp_pos_concat -->
<g id="edge10" class="edge">
<title>LoopExp_loopexp_pos_add&#45;&gt;LoopExp_loopexp_pos_concat</title>
<path fill="none" stroke="black" d="M418.78,-316.04C457.55,-290.55 532.63,-241.19 576.29,-212.48"/>
<polygon fill="black" stroke="black" points="578.41,-215.28 584.85,-206.86 574.57,-209.43 578.41,-215.28"/>
</g>
<!-- LoopExp_loopexp_pos -->
<g id="node16" class="node">
<title>LoopExp_loopexp_pos</title>
<g id="a_node16"><a xlink:href="LoopExp.html#loopexp_pos" xlink:title="loopexp_pos">
<ellipse fill="#f070d1" stroke="black" cx="507" cy="-61.32" rx="67.69" ry="18"/>
<text text-anchor="middle" x="507" y="-57.62" font-family="Times,serif" font-size="14.00">loopexp_pos</text>
</a>
</g>
</g>
<!-- LoopExp_loopexp_pos_concat&#45;&gt;LoopExp_loopexp_pos -->
<g id="edge11" class="edge">
<title>LoopExp_loopexp_pos_concat&#45;&gt;LoopExp_loopexp_pos</title>
<path fill="none" stroke="black" d="M596.11,-171.33C578.35,-149.61 547.47,-111.83 527.13,-86.95"/>
<polygon fill="black" stroke="black" points="529.71,-84.58 520.67,-79.05 524.29,-89.01 529.71,-84.58"/>
</g>
<!-- LoopExp_int_add_pred_r -->
<g id="node8" class="node">
<title>LoopExp_int_add_pred_r</title>
<g id="a_node8"><a xlink:href="LoopExp.html#int_add_pred_r" xlink:title="int_add_pred_r">
<ellipse fill="#f070d1" stroke="black" cx="673" cy="-490.32" rx="79.11" ry="18"/>
<ellipse fill="none" stroke="black" cx="673" cy="-490.32" rx="83.1" ry="22"/>
<ellipse fill="none" stroke="black" cx="673" cy="-490.32" rx="87.09" ry="26"/>
<text text-anchor="middle" x="673" y="-486.62" font-family="Times,serif" font-size="14.00">int_add_pred_r</text>
</a>
</g>
</g>
<!-- LoopExp_int_add_pred_l -->
<g id="node9" class="node">
<title>LoopExp_int_add_pred_l</title>
<g id="a_node9"><a xlink:href="LoopExp.html#int_add_pred_l" xlink:title="int_add_pred_l">
<ellipse fill="#f070d1" stroke="black" cx="482" cy="-490.32" rx="77.99" ry="18"/>
<ellipse fill="none" stroke="black" cx="482" cy="-490.32" rx="81.99" ry="22"/>
<ellipse fill="none" stroke="black" cx="482" cy="-490.32" rx="85.99" ry="26"/>
<text text-anchor="middle" x="482" y="-486.62" font-family="Times,serif" font-size="14.00">int_add_pred_l</text>
</a>
</g>
</g>
<!-- LoopExp_int_add_succ_r -->
<g id="node10" class="node">
<title>LoopExp_int_add_succ_r</title>
<g id="a_node10"><a xlink:href="LoopExp.html#int_add_succ_r" xlink:title="int_add_succ_r">
<ellipse fill="#f070d1" stroke="black" cx="291" cy="-490.32" rx="78.77" ry="18"/>
<ellipse fill="none" stroke="black" cx="291" cy="-490.32" rx="82.78" ry="22"/>
<ellipse fill="none" stroke="black" cx="291" cy="-490.32" rx="86.79" ry="26"/>
<text text-anchor="middle" x="291" y="-486.62" font-family="Times,serif" font-size="14.00">int_add_succ_r</text>
</a>
</g>
</g>
<!-- LoopExp_int_add_succ_l -->
<g id="node11" class="node">
<title>LoopExp_int_add_succ_l</title>
<g id="a_node11"><a xlink:href="LoopExp.html#int_add_succ_l" xlink:title="int_add_succ_l">
<ellipse fill="#f070d1" stroke="black" cx="101" cy="-490.32" rx="77.2" ry="18"/>
<ellipse fill="none" stroke="black" cx="101" cy="-490.32" rx="81.19" ry="22"/>
<ellipse fill="none" stroke="black" cx="101" cy="-490.32" rx="85.19" ry="26"/>
<text text-anchor="middle" x="101" y="-486.62" font-family="Times,serif" font-size="14.00">int_add_succ_l</text>
</a>
</g>
</g>
<!-- LoopExp_ap_loopexp -->
<g id="node12" class="node">
<title>LoopExp_ap_loopexp</title>
<g id="a_node12"><a xlink:href="LoopExp.html#ap_loopexp" xlink:title="ap_loopexp">
<ellipse fill="#f070d1" stroke="black" cx="217" cy="-333.32" rx="62.3" ry="18"/>
<ellipse fill="none" stroke="black" cx="217" cy="-333.32" rx="66.3" ry="22"/>
<ellipse fill="none" stroke="black" cx="217" cy="-333.32" rx="70.29" ry="26"/>
<text text-anchor="middle" x="217" y="-329.62" font-family="Times,serif" font-size="14.00">ap_loopexp</text>
</a>
</g>
</g>
<!-- LoopExp_ap_loopexp_pos -->
<g id="node13" class="node">
<title>LoopExp_ap_loopexp_pos</title>
<g id="a_node13"><a xlink:href="LoopExp.html#ap_loopexp_pos" xlink:title="ap_loopexp_pos">
<ellipse fill="#f070d1" stroke="black" cx="217" cy="-189.32" rx="83.39" ry="18"/>
<text text-anchor="middle" x="217" y="-185.62" font-family="Times,serif" font-size="14.00">ap_loopexp_pos</text>
</a>
</g>
</g>
<!-- LoopExp_ap_loopexp&#45;&gt;LoopExp_ap_loopexp_pos -->
<g id="edge12" class="edge">
<title>LoopExp_ap_loopexp&#45;&gt;LoopExp_ap_loopexp_pos</title>
<path fill="none" stroke="black" d="M217,-307.26C217,-282.18 217,-243.7 217,-217.8"/>
<polygon fill="black" stroke="black" points="220.5,-217.55 217,-207.55 213.5,-217.55 220.5,-217.55"/>
</g>
<!-- LoopExp_loopexp_pos_inv -->
<g id="node14" class="node">
<title>LoopExp_loopexp_pos_inv</title>
<g id="a_node14"><a xlink:href="LoopExp.html#loopexp_pos_inv" xlink:title="loopexp_pos_inv">
<ellipse fill="#f070d1" stroke="black" cx="404" cy="-189.32" rx="85.59" ry="18"/>
<text text-anchor="middle" x="404" y="-185.62" font-family="Times,serif" font-size="14.00">loopexp_pos_inv</text>
</a>
</g>
</g>
<!-- LoopExp_ap_loopexp&#45;&gt;LoopExp_loopexp_pos_inv -->
<g id="edge13" class="edge">
<title>LoopExp_ap_loopexp&#45;&gt;LoopExp_loopexp_pos_inv</title>
<path fill="none" stroke="black" d="M247.04,-309.51C281.88,-283.06 338.96,-239.71 373.85,-213.22"/>
<polygon fill="black" stroke="black" points="376.36,-215.71 382.21,-206.87 372.13,-210.13 376.36,-215.71"/>
</g>
<!-- LoopExp_ap_loopexp&#45;&gt;LoopExp_loopexp -->
<g id="edge14" class="edge">
<title>LoopExp_ap_loopexp&#45;&gt;LoopExp_loopexp</title>
<path fill="none" stroke="black" d="M268.25,-315.49C277.46,-312.64 286.99,-309.81 296,-307.32 483.08,-255.79 533.62,-257.76 721,-207.32 724.6,-206.36 728.31,-205.32 732.04,-204.25"/>
<polygon fill="black" stroke="black" points="733.24,-207.54 741.85,-201.37 731.27,-200.83 733.24,-207.54"/>
</g>
<!-- LoopExp_ap_loopexp_pos&#45;&gt;LoopExp_loopexp_pos -->
<g id="edge15" class="edge">
<title>LoopExp_ap_loopexp_pos&#45;&gt;LoopExp_loopexp_pos</title>
<path fill="none" stroke="black" d="M252.27,-173C305.6,-149.83 406.64,-105.93 464.14,-80.95"/>
<polygon fill="black" stroke="black" points="465.54,-84.15 473.32,-76.96 462.75,-77.73 465.54,-84.15"/>
</g>
<!-- LoopExp_loopexp_pos_inv&#45;&gt;LoopExp_loopexp_pos -->
<g id="edge16" class="edge">
<title>LoopExp_loopexp_pos_inv&#45;&gt;LoopExp_loopexp_pos</title>
<path fill="none" stroke="black" d="M417.89,-171.33C435.65,-149.61 466.53,-111.83 486.87,-86.95"/>
<polygon fill="black" stroke="black" points="489.71,-89.01 493.33,-79.05 484.29,-84.58 489.71,-89.01"/>
</g>
<!-- LoopExp_loopexp&#45;&gt;LoopExp_loopexp_pos -->
<g id="edge17" class="edge">
<title>LoopExp_loopexp&#45;&gt;LoopExp_loopexp_pos</title>
<path fill="none" stroke="black" d="M748.36,-174.96C700.38,-152.57 603.58,-107.39 548.26,-81.58"/>
<polygon fill="black" stroke="black" points="549.63,-78.36 539.09,-77.3 546.67,-84.7 549.63,-78.36"/>
</g>
</g>
</svg>
