<?xml version="1.0" encoding="UTF-8" standalone="no"?>
<!DOCTYPE svg PUBLIC "-//W3C//DTD SVG 1.1//EN"
 "http://www.w3.org/Graphics/SVG/1.1/DTD/svg11.dtd">
<!-- Generated by graphviz version 2.43.0 (0)
 -->
<!-- Title: HoTT_Pointed_pSusp Pages: 1 -->
<svg width="1937pt" height="972pt"
 viewBox="0.00 0.00 1937.00 972.50" xmlns="http://www.w3.org/2000/svg" xmlns:xlink="http://www.w3.org/1999/xlink">
<g id="graph0" class="graph" transform="scale(1 1) rotate(0) translate(4 968.5)">
<title>HoTT_Pointed_pSusp</title>
<polygon fill="white" stroke="transparent" points="-4,4 -4,-968.5 1933,-968.5 1933,4 -4,4"/>
<g id="clust1" class="cluster">
<title>cluster_pSusp</title>
<polygon fill="#ffffc3" stroke="black" points="8,-14.9 8,-949.6 1921,-949.6 1921,-14.9 8,-14.9"/>
<text text-anchor="middle" x="38.5" y="-934.4" font-family="Times,serif" font-size="14.00">pSusp</text>
</g>
<g id="clust2" class="cluster">
<title>cluster_pSusp_Book_Loop_Susp_Adjunction</title>
<polygon fill="#ffffa3" stroke="black" points="541,-283.02 541,-452.46 759,-452.46 759,-283.02 541,-283.02"/>
<text text-anchor="middle" x="650" y="-437.26" font-family="Times,serif" font-size="14.00">Book_Loop_Susp_Adjunction</text>
</g>
<!-- pSusp_Book_Loop_Susp_Adjunction_loop_susp_adjoint -->
<g id="node1" class="node">
<title>pSusp_Book_Loop_Susp_Adjunction_loop_susp_adjoint</title>
<g id="a_node1"><a xlink:href="pSusp.html#Book_Loop_Susp_Adjunction.loop_susp_adjoint" xlink:title="loop_susp_adjoint">
<ellipse fill="#f070d1" stroke="black" cx="650" cy="-345.9" rx="92.89" ry="18"/>
<ellipse fill="none" stroke="black" cx="650" cy="-345.9" rx="96.89" ry="22"/>
<ellipse fill="none" stroke="black" cx="650" cy="-345.9" rx="100.88" ry="26"/>
<text text-anchor="middle" x="650" y="-342.2" font-family="Times,serif" font-size="14.00">loop_susp_adjoint</text>
</a>
</g>
</g>
<!-- pSusp_psusp -->
<g id="node18" class="node">
<title>pSusp_psusp</title>
<g id="a_node18"><a xlink:href="pSusp.html#psusp" xlink:title="psusp">
<ellipse fill="#f070d1" stroke="black" cx="754" cy="-196.9" rx="38.19" ry="18"/>
<text text-anchor="middle" x="754" y="-193.2" font-family="Times,serif" font-size="14.00">psusp</text>
</a>
</g>
</g>
<!-- pSusp_Book_Loop_Susp_Adjunction_loop_susp_adjoint&#45;&gt;pSusp_psusp -->
<g id="edge1" class="edge">
<title>pSusp_Book_Loop_Susp_Adjunction_loop_susp_adjoint&#45;&gt;pSusp_psusp</title>
<path fill="none" stroke="black" d="M667.64,-319.96C686.89,-292.76 717.49,-249.5 736.63,-222.45"/>
<polygon fill="black" stroke="black" points="739.49,-224.46 742.41,-214.28 733.78,-220.42 739.49,-224.46"/>
</g>
<!-- pSusp_loop_susp_adjoint_nat_l -->
<g id="node2" class="node">
<title>pSusp_loop_susp_adjoint_nat_l</title>
<g id="a_node2"><a xlink:href="pSusp.html#loop_susp_adjoint_nat_l" xlink:title="loop_susp_adjoint_nat_l">
<ellipse fill="#f070d1" stroke="black" cx="1094" cy="-843.9" rx="119.67" ry="18"/>
<ellipse fill="none" stroke="black" cx="1094" cy="-843.9" rx="123.68" ry="22"/>
<ellipse fill="none" stroke="black" cx="1094" cy="-843.9" rx="127.68" ry="26"/>
<text text-anchor="middle" x="1094" y="-840.2" font-family="Times,serif" font-size="14.00">loop_susp_adjoint_nat_l</text>
</a>
</g>
</g>
<!-- pSusp_loop_susp_adjoint -->
<g id="node4" class="node">
<title>pSusp_loop_susp_adjoint</title>
<g id="a_node4"><a xlink:href="pSusp.html#loop_susp_adjoint" xlink:title="loop_susp_adjoint">
<ellipse fill="#f070d1" stroke="black" cx="846" cy="-679.9" rx="92.88" ry="18"/>
<text text-anchor="middle" x="846" y="-676.2" font-family="Times,serif" font-size="14.00">loop_susp_adjoint</text>
</a>
</g>
</g>
<!-- pSusp_loop_susp_adjoint_nat_l&#45;&gt;pSusp_loop_susp_adjoint -->
<g id="edge2" class="edge">
<title>pSusp_loop_susp_adjoint_nat_l&#45;&gt;pSusp_loop_susp_adjoint</title>
<path fill="none" stroke="black" d="M1057.14,-818.82C1009.22,-787.52 926.21,-733.29 879.83,-702.99"/>
<polygon fill="black" stroke="black" points="881.62,-699.98 871.34,-697.45 877.79,-705.85 881.62,-699.98"/>
</g>
<!-- pSusp_loop_susp_adjoint_nat_r -->
<g id="node3" class="node">
<title>pSusp_loop_susp_adjoint_nat_r</title>
<g id="a_node3"><a xlink:href="pSusp.html#loop_susp_adjoint_nat_r" xlink:title="loop_susp_adjoint_nat_r">
<ellipse fill="#f070d1" stroke="black" cx="820" cy="-843.9" rx="120.79" ry="18"/>
<ellipse fill="none" stroke="black" cx="820" cy="-843.9" rx="124.78" ry="22"/>
<ellipse fill="none" stroke="black" cx="820" cy="-843.9" rx="128.78" ry="26"/>
<text text-anchor="middle" x="820" y="-840.2" font-family="Times,serif" font-size="14.00">loop_susp_adjoint_nat_r</text>
</a>
</g>
</g>
<!-- pSusp_loop_susp_adjoint_nat_r&#45;&gt;pSusp_loop_susp_adjoint -->
<g id="edge3" class="edge">
<title>pSusp_loop_susp_adjoint_nat_r&#45;&gt;pSusp_loop_susp_adjoint</title>
<path fill="none" stroke="black" d="M824.06,-817.58C828.84,-787.81 836.74,-738.59 841.64,-708.04"/>
<polygon fill="black" stroke="black" points="845.11,-708.51 843.24,-698.08 838.2,-707.4 845.11,-708.51"/>
</g>
<!-- pSusp_loop_susp_triangle2 -->
<g id="node5" class="node">
<title>pSusp_loop_susp_triangle2</title>
<g id="a_node5"><a xlink:href="pSusp.html#loop_susp_triangle2" xlink:title="loop_susp_triangle2">
<ellipse fill="#f070d1" stroke="black" cx="608" cy="-515.9" rx="102.88" ry="18"/>
<text text-anchor="middle" x="608" y="-512.2" font-family="Times,serif" font-size="14.00">loop_susp_triangle2</text>
</a>
</g>
</g>
<!-- pSusp_loop_susp_adjoint&#45;&gt;pSusp_loop_susp_triangle2 -->
<g id="edge4" class="edge">
<title>pSusp_loop_susp_adjoint&#45;&gt;pSusp_loop_susp_triangle2</title>
<path fill="none" stroke="black" d="M821.87,-662.47C778.95,-633.26 689.3,-572.24 640.82,-539.23"/>
<polygon fill="black" stroke="black" points="642.79,-536.34 632.55,-533.61 638.85,-542.13 642.79,-536.34"/>
</g>
<!-- pSusp_loop_susp_triangle1 -->
<g id="node6" class="node">
<title>pSusp_loop_susp_triangle1</title>
<g id="a_node6"><a xlink:href="pSusp.html#loop_susp_triangle1" xlink:title="loop_susp_triangle1">
<ellipse fill="#f070d1" stroke="black" cx="385" cy="-515.9" rx="102.88" ry="18"/>
<text text-anchor="middle" x="385" y="-512.2" font-family="Times,serif" font-size="14.00">loop_susp_triangle1</text>
</a>
</g>
</g>
<!-- pSusp_loop_susp_adjoint&#45;&gt;pSusp_loop_susp_triangle1 -->
<g id="edge5" class="edge">
<title>pSusp_loop_susp_adjoint&#45;&gt;pSusp_loop_susp_triangle1</title>
<path fill="none" stroke="black" d="M803.04,-663.8C718.5,-634.09 530.74,-568.11 438.39,-535.66"/>
<polygon fill="black" stroke="black" points="439.28,-532.26 428.69,-532.25 436.96,-538.87 439.28,-532.26"/>
</g>
<!-- pSusp_loop_susp_counit_natural -->
<g id="node7" class="node">
<title>pSusp_loop_susp_counit_natural</title>
<g id="a_node7"><a xlink:href="pSusp.html#loop_susp_counit_natural" xlink:title="loop_susp_counit_natural">
<ellipse fill="#f070d1" stroke="black" cx="1108" cy="-515.9" rx="127.28" ry="18"/>
<text text-anchor="middle" x="1108" y="-512.2" font-family="Times,serif" font-size="14.00">loop_susp_counit_natural</text>
</a>
</g>
</g>
<!-- pSusp_loop_susp_adjoint&#45;&gt;pSusp_loop_susp_counit_natural -->
<g id="edge6" class="edge">
<title>pSusp_loop_susp_adjoint&#45;&gt;pSusp_loop_susp_counit_natural</title>
<path fill="none" stroke="black" d="M872.56,-662.47C919.91,-633.2 1018.91,-571.98 1072.2,-539.03"/>
<polygon fill="black" stroke="black" points="1074.31,-541.84 1080.97,-533.61 1070.63,-535.89 1074.31,-541.84"/>
</g>
<!-- pSusp_loop_susp_unit_natural -->
<g id="node9" class="node">
<title>pSusp_loop_susp_unit_natural</title>
<g id="a_node9"><a xlink:href="pSusp.html#loop_susp_unit_natural" xlink:title="loop_susp_unit_natural">
<ellipse fill="#f070d1" stroke="black" cx="846" cy="-515.9" rx="116.98" ry="18"/>
<text text-anchor="middle" x="846" y="-512.2" font-family="Times,serif" font-size="14.00">loop_susp_unit_natural</text>
</a>
</g>
</g>
<!-- pSusp_loop_susp_adjoint&#45;&gt;pSusp_loop_susp_unit_natural -->
<g id="edge7" class="edge">
<title>pSusp_loop_susp_adjoint&#45;&gt;pSusp_loop_susp_unit_natural</title>
<path fill="none" stroke="black" d="M846,-661.87C846,-633.86 846,-577.86 846,-544.25"/>
<polygon fill="black" stroke="black" points="849.5,-544.19 846,-534.19 842.5,-544.19 849.5,-544.19"/>
</g>
<!-- pSusp_psusp_functor_compose -->
<g id="node16" class="node">
<title>pSusp_psusp_functor_compose</title>
<g id="a_node16"><a xlink:href="pSusp.html#psusp_functor_compose" xlink:title="psusp_functor_compose">
<ellipse fill="#f070d1" stroke="black" cx="1374" cy="-515.9" rx="120.78" ry="18"/>
<text text-anchor="middle" x="1374" y="-512.2" font-family="Times,serif" font-size="14.00">psusp_functor_compose</text>
</a>
</g>
</g>
<!-- pSusp_loop_susp_adjoint&#45;&gt;pSusp_psusp_functor_compose -->
<g id="edge8" class="edge">
<title>pSusp_loop_susp_adjoint&#45;&gt;pSusp_psusp_functor_compose</title>
<path fill="none" stroke="black" d="M893.32,-664.38C989.54,-634.85 1207.85,-567.87 1313.92,-535.33"/>
<polygon fill="black" stroke="black" points="1314.98,-538.66 1323.52,-532.39 1312.93,-531.97 1314.98,-538.66"/>
</g>
<!-- pSusp_loop_susp_counit -->
<g id="node8" class="node">
<title>pSusp_loop_susp_counit</title>
<g id="a_node8"><a xlink:href="pSusp.html#loop_susp_counit" xlink:title="loop_susp_counit">
<ellipse fill="#f070d1" stroke="black" cx="858" cy="-345.9" rx="89.08" ry="18"/>
<text text-anchor="middle" x="858" y="-342.2" font-family="Times,serif" font-size="14.00">loop_susp_counit</text>
</a>
</g>
</g>
<!-- pSusp_loop_susp_triangle2&#45;&gt;pSusp_loop_susp_counit -->
<g id="edge9" class="edge">
<title>pSusp_loop_susp_triangle2&#45;&gt;pSusp_loop_susp_counit</title>
<path fill="none" stroke="black" d="M632.88,-498.17C678.3,-467.65 774.6,-402.94 825.27,-368.89"/>
<polygon fill="black" stroke="black" points="827.24,-371.79 833.58,-363.3 823.33,-365.98 827.24,-371.79"/>
</g>
<!-- pSusp_loop_susp_unit -->
<g id="node12" class="node">
<title>pSusp_loop_susp_unit</title>
<g id="a_node12"><a xlink:href="pSusp.html#loop_susp_unit" xlink:title="loop_susp_unit">
<ellipse fill="#f070d1" stroke="black" cx="452" cy="-345.9" rx="79.09" ry="18"/>
<text text-anchor="middle" x="452" y="-342.2" font-family="Times,serif" font-size="14.00">loop_susp_unit</text>
</a>
</g>
</g>
<!-- pSusp_loop_susp_triangle2&#45;&gt;pSusp_loop_susp_unit -->
<g id="edge10" class="edge">
<title>pSusp_loop_susp_triangle2&#45;&gt;pSusp_loop_susp_unit</title>
<path fill="none" stroke="black" d="M592.18,-497.86C564.5,-468.05 507.17,-406.31 475.07,-371.74"/>
<polygon fill="black" stroke="black" points="477.23,-368.92 467.86,-363.97 472.1,-373.68 477.23,-368.92"/>
</g>
<!-- pSusp_psusp_functor -->
<g id="node17" class="node">
<title>pSusp_psusp_functor</title>
<g id="a_node17"><a xlink:href="pSusp.html#psusp_functor" xlink:title="psusp_functor">
<ellipse fill="#f070d1" stroke="black" cx="1108" cy="-345.9" rx="76.09" ry="18"/>
<text text-anchor="middle" x="1108" y="-342.2" font-family="Times,serif" font-size="14.00">psusp_functor</text>
</a>
</g>
</g>
<!-- pSusp_loop_susp_triangle2&#45;&gt;pSusp_psusp_functor -->
<g id="edge11" class="edge">
<title>pSusp_loop_susp_triangle2&#45;&gt;pSusp_psusp_functor</title>
<path fill="none" stroke="black" d="M656.63,-499.95C724.1,-479.05 849.8,-439.53 956,-402.9 990.99,-390.82 1030.18,-376.36 1060,-365.16"/>
<polygon fill="black" stroke="black" points="1061.61,-368.29 1069.74,-361.49 1059.15,-361.74 1061.61,-368.29"/>
</g>
<!-- pSusp_loop_susp_triangle1&#45;&gt;pSusp_loop_susp_counit -->
<g id="edge12" class="edge">
<title>pSusp_loop_susp_triangle1&#45;&gt;pSusp_loop_susp_counit</title>
<path fill="none" stroke="black" d="M446.85,-501.5C523.07,-483.87 655.68,-449.59 763,-402.9 784.53,-393.53 807.23,-380.29 825.04,-369.03"/>
<polygon fill="black" stroke="black" points="827.35,-371.71 833.88,-363.36 823.57,-365.82 827.35,-371.71"/>
</g>
<!-- pSusp_loop_susp_triangle1&#45;&gt;pSusp_loop_susp_unit -->
<g id="edge13" class="edge">
<title>pSusp_loop_susp_triangle1&#45;&gt;pSusp_loop_susp_unit</title>
<path fill="none" stroke="black" d="M391.79,-497.86C403.48,-468.56 427.48,-408.39 441.39,-373.51"/>
<polygon fill="black" stroke="black" points="444.74,-374.56 445.19,-363.97 438.23,-371.97 444.74,-374.56"/>
</g>
<!-- pSusp_loop_susp_counit_natural&#45;&gt;pSusp_loop_susp_counit -->
<g id="edge14" class="edge">
<title>pSusp_loop_susp_counit_natural&#45;&gt;pSusp_loop_susp_counit</title>
<path fill="none" stroke="black" d="M1083.12,-498.17C1037.7,-467.65 941.4,-402.94 890.73,-368.89"/>
<polygon fill="black" stroke="black" points="892.67,-365.98 882.42,-363.3 888.76,-371.79 892.67,-365.98"/>
</g>
<!-- pSusp_loop_susp_counit_natural&#45;&gt;pSusp_psusp_functor -->
<g id="edge15" class="edge">
<title>pSusp_loop_susp_counit_natural&#45;&gt;pSusp_psusp_functor</title>
<path fill="none" stroke="black" d="M1108,-497.86C1108,-468.81 1108,-409.42 1108,-374.41"/>
<polygon fill="black" stroke="black" points="1111.5,-373.97 1108,-363.97 1104.5,-373.97 1111.5,-373.97"/>
</g>
<!-- pSusp_loop_susp_counit&#45;&gt;pSusp_psusp -->
<g id="edge16" class="edge">
<title>pSusp_loop_susp_counit&#45;&gt;pSusp_psusp</title>
<path fill="none" stroke="black" d="M846.07,-328.03C827.71,-302.09 792.46,-252.25 771.3,-222.35"/>
<polygon fill="black" stroke="black" points="774.11,-220.26 765.47,-214.11 768.39,-224.3 774.11,-220.26"/>
</g>
<!-- pSusp_loop_susp_unit_natural&#45;&gt;pSusp_loop_susp_unit -->
<g id="edge17" class="edge">
<title>pSusp_loop_susp_unit_natural&#45;&gt;pSusp_loop_susp_unit</title>
<path fill="none" stroke="black" d="M792.78,-499.79C729.93,-481 623.06,-446.09 537,-402.9 517.94,-393.33 497.97,-380.34 482.17,-369.28"/>
<polygon fill="black" stroke="black" points="484.04,-366.31 473.86,-363.37 479.98,-372.02 484.04,-366.31"/>
</g>
<!-- pSusp_loop_susp_unit_natural&#45;&gt;pSusp_psusp_functor -->
<g id="edge18" class="edge">
<title>pSusp_loop_susp_unit_natural&#45;&gt;pSusp_psusp_functor</title>
<path fill="none" stroke="black" d="M872.08,-498.17C919.8,-467.58 1021.12,-402.61 1074.11,-368.63"/>
<polygon fill="black" stroke="black" points="1076.27,-371.4 1082.8,-363.06 1072.49,-365.51 1076.27,-371.4"/>
</g>
<!-- pSusp_pequiv_ptr_loop_psusp -->
<g id="node10" class="node">
<title>pSusp_pequiv_ptr_loop_psusp</title>
<g id="a_node10"><a xlink:href="pSusp.html#pequiv_ptr_loop_psusp" xlink:title="pequiv_ptr_loop_psusp">
<ellipse fill="#f070d1" stroke="black" cx="140" cy="-515.9" rx="116.19" ry="18"/>
<ellipse fill="none" stroke="black" cx="140" cy="-515.9" rx="120.18" ry="22"/>
<ellipse fill="none" stroke="black" cx="140" cy="-515.9" rx="124.18" ry="26"/>
<text text-anchor="middle" x="140" y="-512.2" font-family="Times,serif" font-size="14.00">pequiv_ptr_loop_psusp</text>
</a>
</g>
</g>
<!-- pSusp_conn_map_loop_susp_unit -->
<g id="node11" class="node">
<title>pSusp_conn_map_loop_susp_unit</title>
<g id="a_node11"><a xlink:href="pSusp.html#conn_map_loop_susp_unit" xlink:title="conn_map_loop_susp_unit">
<ellipse fill="#f070d1" stroke="black" cx="146" cy="-345.9" rx="129.98" ry="18"/>
<text text-anchor="middle" x="146" y="-342.2" font-family="Times,serif" font-size="14.00">conn_map_loop_susp_unit</text>
</a>
</g>
</g>
<!-- pSusp_pequiv_ptr_loop_psusp&#45;&gt;pSusp_conn_map_loop_susp_unit -->
<g id="edge19" class="edge">
<title>pSusp_pequiv_ptr_loop_psusp&#45;&gt;pSusp_conn_map_loop_susp_unit</title>
<path fill="none" stroke="black" d="M140.9,-489.74C142,-458.79 143.87,-406.42 145.02,-374.42"/>
<polygon fill="black" stroke="black" points="148.53,-374.14 145.39,-364.02 141.53,-373.89 148.53,-374.14"/>
</g>
<!-- pSusp_pequiv_ptr_loop_psusp&#45;&gt;pSusp_loop_susp_unit -->
<g id="edge20" class="edge">
<title>pSusp_pequiv_ptr_loop_psusp&#45;&gt;pSusp_loop_susp_unit</title>
<path fill="none" stroke="black" d="M183.71,-491.36C245,-458.36 355.48,-398.87 413.71,-367.52"/>
<polygon fill="black" stroke="black" points="415.44,-370.56 422.59,-362.73 412.12,-364.39 415.44,-370.56"/>
</g>
<!-- pSusp_loop_susp_unit&#45;&gt;pSusp_psusp -->
<g id="edge21" class="edge">
<title>pSusp_loop_susp_unit&#45;&gt;pSusp_psusp</title>
<path fill="none" stroke="black" d="M484.03,-329.3C541.12,-301.52 659.99,-243.65 719.09,-214.89"/>
<polygon fill="black" stroke="black" points="720.92,-217.89 728.38,-210.37 717.86,-211.6 720.92,-217.89"/>
</g>
<!-- pSusp_pequiv_psusp_functor -->
<g id="node13" class="node">
<title>pSusp_pequiv_psusp_functor</title>
<g id="a_node13"><a xlink:href="pSusp.html#pequiv_psusp_functor" xlink:title="pequiv_psusp_functor">
<ellipse fill="#f070d1" stroke="black" cx="1622" cy="-679.9" rx="111.59" ry="18"/>
<ellipse fill="none" stroke="black" cx="1622" cy="-679.9" rx="115.59" ry="22"/>
<ellipse fill="none" stroke="black" cx="1622" cy="-679.9" rx="119.58" ry="26"/>
<text text-anchor="middle" x="1622" y="-676.2" font-family="Times,serif" font-size="14.00">pequiv_psusp_functor</text>
</a>
</g>
</g>
<!-- pSusp_psusp_2functor -->
<g id="node14" class="node">
<title>pSusp_psusp_2functor</title>
<g id="a_node14"><a xlink:href="pSusp.html#psusp_2functor" xlink:title="psusp_2functor">
<ellipse fill="#f070d1" stroke="black" cx="1831" cy="-515.9" rx="81.79" ry="18"/>
<text text-anchor="middle" x="1831" y="-512.2" font-family="Times,serif" font-size="14.00">psusp_2functor</text>
</a>
</g>
</g>
<!-- pSusp_pequiv_psusp_functor&#45;&gt;pSusp_psusp_2functor -->
<g id="edge22" class="edge">
<title>pSusp_pequiv_psusp_functor&#45;&gt;pSusp_psusp_2functor</title>
<path fill="none" stroke="black" d="M1653.29,-654.64C1693.31,-623.62 1762.11,-570.29 1801.33,-539.89"/>
<polygon fill="black" stroke="black" points="1803.94,-542.3 1809.7,-533.41 1799.65,-536.77 1803.94,-542.3"/>
</g>
<!-- pSusp_psusp_functor_idmap -->
<g id="node15" class="node">
<title>pSusp_psusp_functor_idmap</title>
<g id="a_node15"><a xlink:href="pSusp.html#psusp_functor_idmap" xlink:title="psusp_functor_idmap">
<ellipse fill="#f070d1" stroke="black" cx="1622" cy="-515.9" rx="109.38" ry="18"/>
<text text-anchor="middle" x="1622" y="-512.2" font-family="Times,serif" font-size="14.00">psusp_functor_idmap</text>
</a>
</g>
</g>
<!-- pSusp_pequiv_psusp_functor&#45;&gt;pSusp_psusp_functor_idmap -->
<g id="edge23" class="edge">
<title>pSusp_pequiv_psusp_functor&#45;&gt;pSusp_psusp_functor_idmap</title>
<path fill="none" stroke="black" d="M1622,-653.58C1622,-623.94 1622,-575.02 1622,-544.44"/>
<polygon fill="black" stroke="black" points="1625.5,-544.08 1622,-534.08 1618.5,-544.08 1625.5,-544.08"/>
</g>
<!-- pSusp_pequiv_psusp_functor&#45;&gt;pSusp_psusp_functor_compose -->
<g id="edge24" class="edge">
<title>pSusp_pequiv_psusp_functor&#45;&gt;pSusp_psusp_functor_compose</title>
<path fill="none" stroke="black" d="M1585.41,-654.99C1537.69,-623.82 1454.83,-569.69 1408.28,-539.29"/>
<polygon fill="black" stroke="black" points="1410.03,-536.25 1399.75,-533.71 1406.21,-542.11 1410.03,-536.25"/>
</g>
<!-- pSusp_psusp_2functor&#45;&gt;pSusp_psusp_functor -->
<g id="edge25" class="edge">
<title>pSusp_psusp_2functor&#45;&gt;pSusp_psusp_functor</title>
<path fill="none" stroke="black" d="M1782.94,-501.25C1769.11,-497.45 1753.99,-493.4 1740,-489.9 1533.7,-438.25 1287.45,-384.9 1172.75,-360.53"/>
<polygon fill="black" stroke="black" points="1173.23,-357.05 1162.73,-358.4 1171.78,-363.9 1173.23,-357.05"/>
</g>
<!-- pSusp_psusp_functor_idmap&#45;&gt;pSusp_psusp_functor -->
<g id="edge26" class="edge">
<title>pSusp_psusp_functor_idmap&#45;&gt;pSusp_psusp_functor</title>
<path fill="none" stroke="black" d="M1575.02,-499.54C1478.97,-468.15 1260.7,-396.81 1160.31,-363.99"/>
<polygon fill="black" stroke="black" points="1161.27,-360.62 1150.68,-360.84 1159.1,-367.28 1161.27,-360.62"/>
</g>
<!-- pSusp_psusp_functor_compose&#45;&gt;pSusp_psusp_functor -->
<g id="edge27" class="edge">
<title>pSusp_psusp_functor_compose&#45;&gt;pSusp_psusp_functor</title>
<path fill="none" stroke="black" d="M1347.52,-498.17C1298.98,-467.51 1195.78,-402.34 1142.08,-368.42"/>
<polygon fill="black" stroke="black" points="1143.91,-365.44 1133.59,-363.06 1140.17,-371.36 1143.91,-365.44"/>
</g>
<!-- pSusp_psusp_functor&#45;&gt;pSusp_psusp -->
<g id="edge28" class="edge">
<title>pSusp_psusp_functor&#45;&gt;pSusp_psusp</title>
<path fill="none" stroke="black" d="M1072.11,-329.99C1004.76,-302.02 860.06,-241.94 791.5,-213.47"/>
<polygon fill="black" stroke="black" points="792.53,-210.11 781.96,-209.5 789.85,-216.57 792.53,-210.11"/>
</g>
<!-- pSusp_ispointed_susp -->
<g id="node21" class="node">
<title>pSusp_ispointed_susp</title>
<g id="a_node21"><a xlink:href="pSusp.html#ispointed_susp" xlink:title="ispointed_susp">
<ellipse fill="#f070d1" stroke="black" cx="754" cy="-62.9" rx="79.09" ry="18"/>
<text text-anchor="middle" x="754" y="-59.2" font-family="Times,serif" font-size="14.00">ispointed_susp</text>
</a>
</g>
</g>
<!-- pSusp_psusp&#45;&gt;pSusp_ispointed_susp -->
<g id="edge29" class="edge">
<title>pSusp_psusp&#45;&gt;pSusp_ispointed_susp</title>
<path fill="none" stroke="black" d="M754,-178.64C754,-156.4 754,-117.5 754,-91.22"/>
<polygon fill="black" stroke="black" points="757.5,-91.16 754,-81.16 750.5,-91.16 757.5,-91.16"/>
</g>
<!-- pSusp_ispointed_path_susp_ -->
<g id="node19" class="node">
<title>pSusp_ispointed_path_susp_</title>
<g id="a_node19"><a xlink:href="pSusp.html#ispointed_path_susp'" xlink:title="ispointed_path_susp&#39;">
<ellipse fill="#f070d1" stroke="black" cx="506" cy="-843.9" rx="107.46" ry="18"/>
<ellipse fill="none" stroke="black" cx="506" cy="-843.9" rx="111.47" ry="22"/>
<ellipse fill="none" stroke="black" cx="506" cy="-843.9" rx="115.48" ry="26"/>
<text text-anchor="middle" x="506" y="-840.2" font-family="Times,serif" font-size="14.00">ispointed_path_susp&#39;</text>
</a>
</g>
</g>
<!-- pSusp_ispointed_path_susp -->
<g id="node20" class="node">
<title>pSusp_ispointed_path_susp</title>
<g id="a_node20"><a xlink:href="pSusp.html#ispointed_path_susp" xlink:title="ispointed_path_susp">
<ellipse fill="#f070d1" stroke="black" cx="156" cy="-843.9" rx="104.77" ry="18"/>
<ellipse fill="none" stroke="black" cx="156" cy="-843.9" rx="108.78" ry="22"/>
<ellipse fill="none" stroke="black" cx="156" cy="-843.9" rx="112.78" ry="26"/>
<text text-anchor="middle" x="156" y="-840.2" font-family="Times,serif" font-size="14.00">ispointed_path_susp</text>
</a>
</g>
</g>
</g>
</svg>
