<?xml version="1.0" encoding="UTF-8" standalone="no"?>
<!DOCTYPE svg PUBLIC "-//W3C//DTD SVG 1.1//EN"
 "http://www.w3.org/Graphics/SVG/1.1/DTD/svg11.dtd">
<!-- Generated by graphviz version 2.43.0 (0)
 -->
<!-- Title: HoTT_Basics_Decidable Pages: 1 -->
<svg width="2638pt" height="1323pt"
 viewBox="0.00 0.00 2638.00 1323.00" xmlns="http://www.w3.org/2000/svg" xmlns:xlink="http://www.w3.org/1999/xlink">
<g id="graph0" class="graph" transform="scale(1 1) rotate(0) translate(4 1319)">
<title>HoTT_Basics_Decidable</title>
<polygon fill="white" stroke="transparent" points="-4,4 -4,-1319 2634,-1319 2634,4 -4,4"/>
<g id="clust1" class="cluster">
<title>cluster_Decidable</title>
<polygon fill="#ffffc3" stroke="black" points="8,-20.43 8,-1294.57 2622,-1294.57 2622,-20.43 8,-20.43"/>
<text text-anchor="middle" x="51.5" y="-1279.37" font-family="Times,serif" font-size="14.00">Decidable</text>
</g>
<!-- Decidable_ishprop_decpaths -->
<g id="node1" class="node">
<title>Decidable_ishprop_decpaths</title>
<g id="a_node1"><a xlink:href="Decidable.html#ishprop_decpaths" xlink:title="ishprop_decpaths">
<ellipse fill="#f070d1" stroke="black" cx="2286" cy="-1149.43" rx="92.1" ry="18"/>
<ellipse fill="none" stroke="black" cx="2286" cy="-1149.43" rx="96.09" ry="22"/>
<ellipse fill="none" stroke="black" cx="2286" cy="-1149.43" rx="100.08" ry="26"/>
<text text-anchor="middle" x="2286" y="-1145.73" font-family="Times,serif" font-size="14.00">ishprop_decpaths</text>
</a>
</g>
</g>
<!-- Decidable_hset_pathcoll -->
<g id="node5" class="node">
<title>Decidable_hset_pathcoll</title>
<g id="a_node5"><a xlink:href="Decidable.html#hset_pathcoll" xlink:title="hset_pathcoll">
<ellipse fill="#f070d1" stroke="black" cx="2342" cy="-944.43" rx="72.29" ry="18"/>
<text text-anchor="middle" x="2342" y="-940.73" font-family="Times,serif" font-size="14.00">hset_pathcoll</text>
</a>
</g>
</g>
<!-- Decidable_ishprop_decpaths&#45;&gt;Decidable_hset_pathcoll -->
<g id="edge1" class="edge">
<title>Decidable_ishprop_decpaths&#45;&gt;Decidable_hset_pathcoll</title>
<path fill="none" stroke="black" d="M2292.98,-1123.13C2303.61,-1084.59 2323.77,-1011.51 2334.63,-972.14"/>
<polygon fill="black" stroke="black" points="2338.02,-973.02 2337.3,-962.45 2331.27,-971.16 2338.02,-973.02"/>
</g>
<!-- Decidable_pathcoll_decpaths -->
<g id="node6" class="node">
<title>Decidable_pathcoll_decpaths</title>
<g id="a_node6"><a xlink:href="Decidable.html#pathcoll_decpaths" xlink:title="pathcoll_decpaths">
<ellipse fill="#f070d1" stroke="black" cx="1649" cy="-740.43" rx="94.48" ry="18"/>
<text text-anchor="middle" x="1649" y="-736.73" font-family="Times,serif" font-size="14.00">pathcoll_decpaths</text>
</a>
</g>
</g>
<!-- Decidable_ishprop_decpaths&#45;&gt;Decidable_pathcoll_decpaths -->
<g id="edge2" class="edge">
<title>Decidable_ishprop_decpaths&#45;&gt;Decidable_pathcoll_decpaths</title>
<path fill="none" stroke="black" d="M2249.46,-1125.08C2136.45,-1052.88 1793.57,-833.8 1683.45,-763.44"/>
<polygon fill="black" stroke="black" points="1685.03,-760.3 1674.72,-757.86 1681.26,-766.19 1685.03,-760.3"/>
</g>
<!-- Decidable_hset_decpaths -->
<g id="node2" class="node">
<title>Decidable_hset_decpaths</title>
<g id="a_node2"><a xlink:href="Decidable.html#hset_decpaths" xlink:title="hset_decpaths">
<ellipse fill="#f070d1" stroke="black" cx="2026" cy="-1149.43" rx="77.2" ry="18"/>
<ellipse fill="none" stroke="black" cx="2026" cy="-1149.43" rx="81.19" ry="22"/>
<ellipse fill="none" stroke="black" cx="2026" cy="-1149.43" rx="85.19" ry="26"/>
<text text-anchor="middle" x="2026" y="-1145.73" font-family="Times,serif" font-size="14.00">hset_decpaths</text>
</a>
</g>
</g>
<!-- Decidable_hset_decpaths&#45;&gt;Decidable_hset_pathcoll -->
<g id="edge3" class="edge">
<title>Decidable_hset_decpaths&#45;&gt;Decidable_hset_pathcoll</title>
<path fill="none" stroke="black" d="M2061.33,-1125.73C2122.6,-1086.37 2247.8,-1005.94 2308.08,-967.22"/>
<polygon fill="black" stroke="black" points="2310.31,-969.94 2316.83,-961.6 2306.53,-964.06 2310.31,-969.94"/>
</g>
<!-- Decidable_hset_decpaths&#45;&gt;Decidable_pathcoll_decpaths -->
<g id="edge4" class="edge">
<title>Decidable_hset_decpaths&#45;&gt;Decidable_pathcoll_decpaths</title>
<path fill="none" stroke="black" d="M2003.55,-1124.19C1936.56,-1051.87 1738.61,-838.17 1671.53,-765.75"/>
<polygon fill="black" stroke="black" points="1674.09,-763.36 1664.73,-758.41 1668.95,-768.12 1674.09,-763.36"/>
</g>
<!-- Decidable_pathcoll_hset -->
<g id="node3" class="node">
<title>Decidable_pathcoll_hset</title>
<g id="a_node3"><a xlink:href="Decidable.html#pathcoll_hset" xlink:title="pathcoll_hset">
<ellipse fill="#f070d1" stroke="black" cx="2143" cy="-740.43" rx="72.27" ry="18"/>
<ellipse fill="none" stroke="black" cx="2143" cy="-740.43" rx="76.28" ry="22"/>
<ellipse fill="none" stroke="black" cx="2143" cy="-740.43" rx="80.29" ry="26"/>
<text text-anchor="middle" x="2143" y="-736.73" font-family="Times,serif" font-size="14.00">pathcoll_hset</text>
</a>
</g>
</g>
<!-- Decidable_collapsible_hprop -->
<g id="node4" class="node">
<title>Decidable_collapsible_hprop</title>
<g id="a_node4"><a xlink:href="Decidable.html#collapsible_hprop" xlink:title="collapsible_hprop">
<ellipse fill="#f070d1" stroke="black" cx="2094" cy="-515.43" rx="91.78" ry="18"/>
<text text-anchor="middle" x="2094" y="-511.73" font-family="Times,serif" font-size="14.00">collapsible_hprop</text>
</a>
</g>
</g>
<!-- Decidable_pathcoll_hset&#45;&gt;Decidable_collapsible_hprop -->
<g id="edge5" class="edge">
<title>Decidable_pathcoll_hset&#45;&gt;Decidable_collapsible_hprop</title>
<path fill="none" stroke="black" d="M2137.47,-714.28C2128.18,-671.98 2109.5,-586.95 2099.93,-543.43"/>
<polygon fill="black" stroke="black" points="2103.33,-542.58 2097.76,-533.56 2096.49,-544.08 2103.33,-542.58"/>
</g>
<!-- Decidable_PathCollapsible -->
<g id="node9" class="node">
<title>Decidable_PathCollapsible</title>
<g id="a_node9"><a xlink:href="Decidable.html#PathCollapsible" xlink:title="PathCollapsible">
<ellipse fill="#f070d1" stroke="black" cx="2491" cy="-515.43" rx="83.39" ry="18"/>
<text text-anchor="middle" x="2491" y="-511.73" font-family="Times,serif" font-size="14.00">PathCollapsible</text>
</a>
</g>
</g>
<!-- Decidable_pathcoll_hset&#45;&gt;Decidable_PathCollapsible -->
<g id="edge6" class="edge">
<title>Decidable_pathcoll_hset&#45;&gt;Decidable_PathCollapsible</title>
<path fill="none" stroke="black" d="M2177.96,-717.02C2244.96,-674.09 2390.66,-580.72 2456.95,-538.25"/>
<polygon fill="black" stroke="black" points="2459.22,-540.95 2465.75,-532.6 2455.45,-535.05 2459.22,-540.95"/>
</g>
<!-- Decidable_Build_Collapsible -->
<g id="node16" class="node">
<title>Decidable_Build_Collapsible</title>
<g id="a_node16"><a xlink:href="Decidable.html#Build_Collapsible" xlink:title="Build_Collapsible">
<ellipse fill="#7faaff" stroke="black" cx="1805" cy="-291.43" rx="90.98" ry="18"/>
<text text-anchor="middle" x="1805" y="-287.73" font-family="Times,serif" font-size="14.00">Build_Collapsible</text>
</a>
</g>
</g>
<!-- Decidable_collapsible_hprop&#45;&gt;Decidable_Build_Collapsible -->
<g id="edge7" class="edge">
<title>Decidable_collapsible_hprop&#45;&gt;Decidable_Build_Collapsible</title>
<path fill="none" stroke="black" d="M2072.28,-497.74C2021.11,-458.43 1892.91,-359.96 1834.65,-315.2"/>
<polygon fill="black" stroke="black" points="1836.64,-312.32 1826.58,-309 1832.38,-317.87 1836.64,-312.32"/>
</g>
<!-- Decidable_Collapsible -->
<g id="node17" class="node">
<title>Decidable_Collapsible</title>
<g id="a_node17"><a xlink:href="Decidable.html#Collapsible" xlink:title="Collapsible">
<ellipse fill="#e2cdfa" stroke="black" cx="1976" cy="-291.43" rx="61.99" ry="18"/>
<text text-anchor="middle" x="1976" y="-287.73" font-family="Times,serif" font-size="14.00">Collapsible</text>
</a>
</g>
</g>
<!-- Decidable_collapsible_hprop&#45;&gt;Decidable_Collapsible -->
<g id="edge8" class="edge">
<title>Decidable_collapsible_hprop&#45;&gt;Decidable_Collapsible</title>
<path fill="none" stroke="black" d="M2084.94,-497.38C2064.43,-458.8 2014.36,-364.6 1989.9,-318.59"/>
<polygon fill="black" stroke="black" points="1992.88,-316.72 1985.09,-309.54 1986.7,-320.01 1992.88,-316.72"/>
</g>
<!-- Decidable_path_coll -->
<g id="node8" class="node">
<title>Decidable_path_coll</title>
<g id="a_node8"><a xlink:href="Decidable.html#path_coll" xlink:title="path_coll">
<ellipse fill="#f070d1" stroke="black" cx="2342" cy="-740.43" rx="51.99" ry="18"/>
<text text-anchor="middle" x="2342" y="-736.73" font-family="Times,serif" font-size="14.00">path_coll</text>
</a>
</g>
</g>
<!-- Decidable_hset_pathcoll&#45;&gt;Decidable_path_coll -->
<g id="edge9" class="edge">
<title>Decidable_hset_pathcoll&#45;&gt;Decidable_path_coll</title>
<path fill="none" stroke="black" d="M2342,-926.2C2342,-891.1 2342,-811.01 2342,-768.73"/>
<polygon fill="black" stroke="black" points="2345.5,-768.61 2342,-758.61 2338.5,-768.61 2345.5,-768.61"/>
</g>
<!-- Decidable_collapse -->
<g id="node11" class="node">
<title>Decidable_collapse</title>
<g id="a_node11"><a xlink:href="Decidable.html#collapse" xlink:title="collapse">
<ellipse fill="#f070d1" stroke="black" cx="2460" cy="-740.43" rx="48.19" ry="18"/>
<text text-anchor="middle" x="2460" y="-736.73" font-family="Times,serif" font-size="14.00">collapse</text>
</a>
</g>
</g>
<!-- Decidable_hset_pathcoll&#45;&gt;Decidable_collapse -->
<g id="edge10" class="edge">
<title>Decidable_hset_pathcoll&#45;&gt;Decidable_collapse</title>
<path fill="none" stroke="black" d="M2351.86,-926.55C2372.56,-891.11 2420.66,-808.77 2445.13,-766.88"/>
<polygon fill="black" stroke="black" points="2448.23,-768.51 2450.25,-758.11 2442.19,-764.98 2448.23,-768.51"/>
</g>
<!-- Decidable_wconst -->
<g id="node19" class="node">
<title>Decidable_wconst</title>
<g id="a_node19"><a xlink:href="Decidable.html#wconst" xlink:title="wconst">
<ellipse fill="#f070d1" stroke="black" cx="2570" cy="-740.43" rx="43.59" ry="18"/>
<text text-anchor="middle" x="2570" y="-736.73" font-family="Times,serif" font-size="14.00">wconst</text>
</a>
</g>
</g>
<!-- Decidable_hset_pathcoll&#45;&gt;Decidable_wconst -->
<g id="edge11" class="edge">
<title>Decidable_hset_pathcoll&#45;&gt;Decidable_wconst</title>
<path fill="none" stroke="black" d="M2360.66,-926.9C2401.39,-890.81 2498.33,-804.93 2544.59,-763.94"/>
<polygon fill="black" stroke="black" points="2547.19,-766.32 2552.35,-757.07 2542.54,-761.08 2547.19,-766.32"/>
</g>
<!-- Decidable_collapsible_decidable -->
<g id="node7" class="node">
<title>Decidable_collapsible_decidable</title>
<g id="a_node7"><a xlink:href="Decidable.html#collapsible_decidable" xlink:title="collapsible_decidable">
<ellipse fill="#f070d1" stroke="black" cx="1286" cy="-515.43" rx="108.58" ry="18"/>
<text text-anchor="middle" x="1286" y="-511.73" font-family="Times,serif" font-size="14.00">collapsible_decidable</text>
</a>
</g>
</g>
<!-- Decidable_pathcoll_decpaths&#45;&gt;Decidable_collapsible_decidable -->
<g id="edge12" class="edge">
<title>Decidable_pathcoll_decpaths&#45;&gt;Decidable_collapsible_decidable</title>
<path fill="none" stroke="black" d="M1622.31,-723.03C1558.09,-683.58 1394.9,-583.33 1322.06,-538.58"/>
<polygon fill="black" stroke="black" points="1323.58,-535.4 1313.22,-533.15 1319.91,-541.37 1323.58,-535.4"/>
</g>
<!-- Decidable_pathcoll_decpaths&#45;&gt;Decidable_PathCollapsible -->
<g id="edge13" class="edge">
<title>Decidable_pathcoll_decpaths&#45;&gt;Decidable_PathCollapsible</title>
<path fill="none" stroke="black" d="M1702.23,-725.52C1825.08,-693.38 2137.86,-611.38 2399,-541.43 2409.53,-538.61 2420.72,-535.58 2431.55,-532.65"/>
<polygon fill="black" stroke="black" points="2432.63,-535.98 2441.36,-529.99 2430.79,-529.23 2432.63,-535.98"/>
</g>
<!-- Decidable_dec_paths -->
<g id="node32" class="node">
<title>Decidable_dec_paths</title>
<g id="a_node32"><a xlink:href="Decidable.html#dec_paths" xlink:title="dec_paths">
<ellipse fill="#f070d1" stroke="black" cx="1102" cy="-515.43" rx="57.39" ry="18"/>
<text text-anchor="middle" x="1102" y="-511.73" font-family="Times,serif" font-size="14.00">dec_paths</text>
</a>
</g>
</g>
<!-- Decidable_pathcoll_decpaths&#45;&gt;Decidable_dec_paths -->
<g id="edge14" class="edge">
<title>Decidable_pathcoll_decpaths&#45;&gt;Decidable_dec_paths</title>
<path fill="none" stroke="black" d="M1610.97,-723.92C1512.39,-683.74 1249.07,-576.38 1145.09,-533.99"/>
<polygon fill="black" stroke="black" points="1146.12,-530.63 1135.54,-530.1 1143.48,-537.12 1146.12,-530.63"/>
</g>
<!-- Decidable_collapsible_decidable&#45;&gt;Decidable_Build_Collapsible -->
<g id="edge15" class="edge">
<title>Decidable_collapsible_decidable&#45;&gt;Decidable_Build_Collapsible</title>
<path fill="none" stroke="black" d="M1323.33,-498.46C1416.32,-458.68 1658.1,-355.26 1759.35,-311.95"/>
<polygon fill="black" stroke="black" points="1760.89,-315.1 1768.7,-307.95 1758.13,-308.67 1760.89,-315.1"/>
</g>
<!-- Decidable_collapsible_decidable&#45;&gt;Decidable_Collapsible -->
<g id="edge16" class="edge">
<title>Decidable_collapsible_decidable&#45;&gt;Decidable_Collapsible</title>
<path fill="none" stroke="black" d="M1335.11,-499.35C1440.06,-467.02 1693.81,-388.2 1905,-317.43 1912.75,-314.83 1920.96,-312.01 1928.93,-309.23"/>
<polygon fill="black" stroke="black" points="1930.21,-312.49 1938.49,-305.87 1927.89,-305.88 1930.21,-312.49"/>
</g>
<!-- Decidable_dec -->
<g id="node34" class="node">
<title>Decidable_dec</title>
<g id="a_node34"><a xlink:href="Decidable.html#dec" xlink:title="dec">
<ellipse fill="#f070d1" stroke="black" cx="523" cy="-291.43" rx="27" ry="18"/>
<text text-anchor="middle" x="523" y="-287.73" font-family="Times,serif" font-size="14.00">dec</text>
</a>
</g>
</g>
<!-- Decidable_collapsible_decidable&#45;&gt;Decidable_dec -->
<g id="edge17" class="edge">
<title>Decidable_collapsible_decidable&#45;&gt;Decidable_dec</title>
<path fill="none" stroke="black" d="M1224.29,-500.57C1071.69,-465.85 680.21,-373.87 559,-317.43 555.38,-315.74 551.73,-313.69 548.21,-311.51"/>
<polygon fill="black" stroke="black" points="550.11,-308.56 539.85,-305.9 546.21,-314.38 550.11,-308.56"/>
</g>
<!-- Decidable_path_coll&#45;&gt;Decidable_PathCollapsible -->
<g id="edge18" class="edge">
<title>Decidable_path_coll&#45;&gt;Decidable_PathCollapsible</title>
<path fill="none" stroke="black" d="M2353.2,-722.67C2379.09,-683.92 2443.2,-587.96 2473.98,-541.9"/>
<polygon fill="black" stroke="black" points="2477.03,-543.64 2479.67,-533.38 2471.21,-539.75 2477.03,-543.64"/>
</g>
<!-- Decidable_PathCollapsible&#45;&gt;Decidable_Collapsible -->
<g id="edge19" class="edge">
<title>Decidable_PathCollapsible&#45;&gt;Decidable_Collapsible</title>
<path fill="none" stroke="black" d="M2455.2,-498.99C2363.03,-459.26 2117.91,-353.6 2018.64,-310.81"/>
<polygon fill="black" stroke="black" points="2019.78,-307.49 2009.21,-306.74 2017.01,-313.92 2019.78,-307.49"/>
</g>
<!-- Decidable_wconst_collapse -->
<g id="node10" class="node">
<title>Decidable_wconst_collapse</title>
<g id="a_node10"><a xlink:href="Decidable.html#wconst_collapse" xlink:title="wconst_collapse">
<ellipse fill="#f070d1" stroke="black" cx="2297" cy="-515.43" rx="85.27" ry="18"/>
<ellipse fill="none" stroke="black" cx="2297" cy="-515.43" rx="89.28" ry="22"/>
<ellipse fill="none" stroke="black" cx="2297" cy="-515.43" rx="93.29" ry="26"/>
<text text-anchor="middle" x="2297" y="-511.73" font-family="Times,serif" font-size="14.00">wconst_collapse</text>
</a>
</g>
</g>
<!-- Decidable_wconst_collapse&#45;&gt;Decidable_Collapsible -->
<g id="edge20" class="edge">
<title>Decidable_wconst_collapse&#45;&gt;Decidable_Collapsible</title>
<path fill="none" stroke="black" d="M2263.25,-491.09C2200.81,-447.9 2068.09,-356.12 2007.43,-314.17"/>
<polygon fill="black" stroke="black" points="2009.24,-311.16 1999.02,-308.35 2005.26,-316.92 2009.24,-311.16"/>
</g>
<!-- Decidable_collapse&#45;&gt;Decidable_Collapsible -->
<g id="edge21" class="edge">
<title>Decidable_collapse&#45;&gt;Decidable_Collapsible</title>
<path fill="none" stroke="black" d="M2478.95,-723.77C2526.24,-682.79 2641.58,-570.03 2583,-489.43 2517.39,-399.15 2179.14,-328.96 2037.98,-303.15"/>
<polygon fill="black" stroke="black" points="2038.23,-299.64 2027.76,-301.3 2036.98,-306.52 2038.23,-299.64"/>
</g>
<!-- Decidable_Collapsible_sind -->
<g id="node12" class="node">
<title>Decidable_Collapsible_sind</title>
<g id="a_node12"><a xlink:href="Decidable.html#Collapsible_sind" xlink:title="Collapsible_sind">
<ellipse fill="#f070d1" stroke="black" cx="1891" cy="-515.43" rx="85.6" ry="18"/>
<ellipse fill="none" stroke="black" cx="1891" cy="-515.43" rx="89.59" ry="22"/>
<ellipse fill="none" stroke="black" cx="1891" cy="-515.43" rx="93.59" ry="26"/>
<text text-anchor="middle" x="1891" y="-511.73" font-family="Times,serif" font-size="14.00">Collapsible_sind</text>
</a>
</g>
</g>
<!-- Decidable_Collapsible_sind&#45;&gt;Decidable_Build_Collapsible -->
<g id="edge22" class="edge">
<title>Decidable_Collapsible_sind&#45;&gt;Decidable_Build_Collapsible</title>
<path fill="none" stroke="black" d="M1881.3,-489.39C1864.95,-447.19 1832.06,-362.27 1815.31,-319.03"/>
<polygon fill="black" stroke="black" points="1818.48,-317.54 1811.61,-309.48 1811.96,-320.07 1818.48,-317.54"/>
</g>
<!-- Decidable_Collapsible_sind&#45;&gt;Decidable_Collapsible -->
<g id="edge23" class="edge">
<title>Decidable_Collapsible_sind&#45;&gt;Decidable_Collapsible</title>
<path fill="none" stroke="black" d="M1900.59,-489.39C1916.74,-447.19 1949.26,-362.27 1965.81,-319.03"/>
<polygon fill="black" stroke="black" points="1969.16,-320.07 1969.47,-309.48 1962.63,-317.57 1969.16,-320.07"/>
</g>
<!-- Decidable_Collapsible_rec -->
<g id="node13" class="node">
<title>Decidable_Collapsible_rec</title>
<g id="a_node13"><a xlink:href="Decidable.html#Collapsible_rec" xlink:title="Collapsible_rec">
<ellipse fill="#f070d1" stroke="black" cx="1850" cy="-740.43" rx="81.46" ry="18"/>
<ellipse fill="none" stroke="black" cx="1850" cy="-740.43" rx="85.48" ry="22"/>
<ellipse fill="none" stroke="black" cx="1850" cy="-740.43" rx="89.49" ry="26"/>
<text text-anchor="middle" x="1850" y="-736.73" font-family="Times,serif" font-size="14.00">Collapsible_rec</text>
</a>
</g>
</g>
<!-- Decidable_Collapsible_rect -->
<g id="node15" class="node">
<title>Decidable_Collapsible_rect</title>
<g id="a_node15"><a xlink:href="Decidable.html#Collapsible_rect" xlink:title="Collapsible_rect">
<ellipse fill="#f070d1" stroke="black" cx="1694" cy="-515.43" rx="85.29" ry="18"/>
<text text-anchor="middle" x="1694" y="-511.73" font-family="Times,serif" font-size="14.00">Collapsible_rect</text>
</a>
</g>
</g>
<!-- Decidable_Collapsible_rec&#45;&gt;Decidable_Collapsible_rect -->
<g id="edge24" class="edge">
<title>Decidable_Collapsible_rec&#45;&gt;Decidable_Collapsible_rect</title>
<path fill="none" stroke="black" d="M1832.71,-714.71C1802.8,-671.96 1741.72,-584.65 1711.6,-541.59"/>
<polygon fill="black" stroke="black" points="1714.44,-539.53 1705.84,-533.35 1708.7,-543.55 1714.44,-539.53"/>
</g>
<!-- Decidable_Collapsible_ind -->
<g id="node14" class="node">
<title>Decidable_Collapsible_ind</title>
<g id="a_node14"><a xlink:href="Decidable.html#Collapsible_ind" xlink:title="Collapsible_ind">
<ellipse fill="#7fffd4" stroke="black" cx="1502" cy="-515.43" rx="81.46" ry="18"/>
<ellipse fill="none" stroke="black" cx="1502" cy="-515.43" rx="85.48" ry="22"/>
<ellipse fill="none" stroke="black" cx="1502" cy="-515.43" rx="89.49" ry="26"/>
<text text-anchor="middle" x="1502" y="-511.73" font-family="Times,serif" font-size="14.00">Collapsible_ind</text>
</a>
</g>
</g>
<!-- Decidable_Collapsible_ind&#45;&gt;Decidable_Build_Collapsible -->
<g id="edge25" class="edge">
<title>Decidable_Collapsible_ind&#45;&gt;Decidable_Build_Collapsible</title>
<path fill="none" stroke="black" d="M1533.85,-491.09C1592.39,-448.2 1716.33,-357.39 1774.13,-315.05"/>
<polygon fill="black" stroke="black" points="1776.49,-317.66 1782.49,-308.92 1772.35,-312.01 1776.49,-317.66"/>
</g>
<!-- Decidable_Collapsible_ind&#45;&gt;Decidable_Collapsible -->
<g id="edge26" class="edge">
<title>Decidable_Collapsible_ind&#45;&gt;Decidable_Collapsible</title>
<path fill="none" stroke="black" d="M1547.88,-492.94C1640.35,-449.63 1847.75,-352.49 1935.53,-311.38"/>
<polygon fill="black" stroke="black" points="1937.07,-314.53 1944.64,-307.12 1934.1,-308.19 1937.07,-314.53"/>
</g>
<!-- Decidable_Collapsible_rect&#45;&gt;Decidable_Build_Collapsible -->
<g id="edge27" class="edge">
<title>Decidable_Collapsible_rect&#45;&gt;Decidable_Build_Collapsible</title>
<path fill="none" stroke="black" d="M1702.53,-497.38C1721.82,-458.8 1768.91,-364.6 1791.92,-318.59"/>
<polygon fill="black" stroke="black" points="1795.1,-320.05 1796.45,-309.54 1788.84,-316.92 1795.1,-320.05"/>
</g>
<!-- Decidable_Collapsible_rect&#45;&gt;Decidable_Collapsible -->
<g id="edge28" class="edge">
<title>Decidable_Collapsible_rect&#45;&gt;Decidable_Collapsible</title>
<path fill="none" stroke="black" d="M1715.2,-497.74C1765.15,-458.42 1890.31,-359.88 1947.13,-315.15"/>
<polygon fill="black" stroke="black" points="1949.63,-317.64 1955.32,-308.7 1945.3,-312.14 1949.63,-317.64"/>
</g>
<!-- Decidable_WeaklyConstant -->
<g id="node20" class="node">
<title>Decidable_WeaklyConstant</title>
<g id="a_node20"><a xlink:href="Decidable.html#WeaklyConstant" xlink:title="WeaklyConstant">
<ellipse fill="#f070d1" stroke="black" cx="1890" cy="-86.43" rx="85.59" ry="18"/>
<text text-anchor="middle" x="1890" y="-82.73" font-family="Times,serif" font-size="14.00">WeaklyConstant</text>
</a>
</g>
</g>
<!-- Decidable_Build_Collapsible&#45;&gt;Decidable_WeaklyConstant -->
<g id="edge29" class="edge">
<title>Decidable_Build_Collapsible&#45;&gt;Decidable_WeaklyConstant</title>
<path fill="none" stroke="black" d="M1812.1,-273.47C1826.91,-238.09 1861.2,-156.21 1878.93,-113.86"/>
<polygon fill="black" stroke="black" points="1882.23,-115.06 1882.86,-104.48 1875.77,-112.35 1882.23,-115.06"/>
</g>
<!-- Decidable_Collapsible&#45;&gt;Decidable_WeaklyConstant -->
<g id="edge30" class="edge">
<title>Decidable_Collapsible&#45;&gt;Decidable_WeaklyConstant</title>
<path fill="none" stroke="black" d="M1968.82,-273.47C1953.83,-238.09 1919.14,-156.21 1901.2,-113.86"/>
<polygon fill="black" stroke="black" points="1904.35,-112.32 1897.22,-104.48 1897.9,-115.05 1904.35,-112.32"/>
</g>
<!-- Decidable_wconst_through_hprop -->
<g id="node18" class="node">
<title>Decidable_wconst_through_hprop</title>
<g id="a_node18"><a xlink:href="Decidable.html#wconst_through_hprop" xlink:title="wconst_through_hprop">
<ellipse fill="#f070d1" stroke="black" cx="1572" cy="-291.43" rx="116.19" ry="18"/>
<ellipse fill="none" stroke="black" cx="1572" cy="-291.43" rx="120.18" ry="22"/>
<ellipse fill="none" stroke="black" cx="1572" cy="-291.43" rx="124.18" ry="26"/>
<text text-anchor="middle" x="1572" y="-287.73" font-family="Times,serif" font-size="14.00">wconst_through_hprop</text>
</a>
</g>
</g>
<!-- Decidable_wconst_through_hprop&#45;&gt;Decidable_WeaklyConstant -->
<g id="edge31" class="edge">
<title>Decidable_wconst_through_hprop&#45;&gt;Decidable_WeaklyConstant</title>
<path fill="none" stroke="black" d="M1609.41,-266.54C1671.72,-226.77 1795.83,-147.54 1855.88,-109.21"/>
<polygon fill="black" stroke="black" points="1858.06,-111.97 1864.6,-103.64 1854.29,-106.07 1858.06,-111.97"/>
</g>
<!-- Decidable_wconst&#45;&gt;Decidable_WeaklyConstant -->
<g id="edge32" class="edge">
<title>Decidable_wconst&#45;&gt;Decidable_WeaklyConstant</title>
<path fill="none" stroke="black" d="M2578.18,-722.51C2597.45,-680 2640.85,-566.58 2596,-489.43 2454.72,-246.41 2105.53,-138.13 1957.78,-102.09"/>
<polygon fill="black" stroke="black" points="1958.46,-98.65 1947.91,-99.72 1956.82,-105.46 1958.46,-98.65"/>
</g>
<!-- Decidable_decidablepaths_equiv_ -->
<g id="node21" class="node">
<title>Decidable_decidablepaths_equiv_</title>
<g id="a_node21"><a xlink:href="Decidable.html#decidablepaths_equiv'" xlink:title="decidablepaths_equiv&#39;">
<ellipse fill="#f070d1" stroke="black" cx="916" cy="-740.43" rx="113.17" ry="18"/>
<ellipse fill="none" stroke="black" cx="916" cy="-740.43" rx="117.18" ry="22"/>
<ellipse fill="none" stroke="black" cx="916" cy="-740.43" rx="121.18" ry="26"/>
<text text-anchor="middle" x="916" y="-736.73" font-family="Times,serif" font-size="14.00">decidablepaths_equiv&#39;</text>
</a>
</g>
</g>
<!-- Decidable_decidablepaths_equiv -->
<g id="node22" class="node">
<title>Decidable_decidablepaths_equiv</title>
<g id="a_node22"><a xlink:href="Decidable.html#decidablepaths_equiv" xlink:title="decidablepaths_equiv">
<ellipse fill="#f070d1" stroke="black" cx="916" cy="-515.43" rx="110.48" ry="18"/>
<text text-anchor="middle" x="916" y="-511.73" font-family="Times,serif" font-size="14.00">decidablepaths_equiv</text>
</a>
</g>
</g>
<!-- Decidable_decidablepaths_equiv_&#45;&gt;Decidable_decidablepaths_equiv -->
<g id="edge33" class="edge">
<title>Decidable_decidablepaths_equiv_&#45;&gt;Decidable_decidablepaths_equiv</title>
<path fill="none" stroke="black" d="M916,-714.28C916,-672.07 916,-587.31 916,-543.71"/>
<polygon fill="black" stroke="black" points="919.5,-543.56 916,-533.56 912.5,-543.56 919.5,-543.56"/>
</g>
<!-- Decidable_DecidablePaths -->
<g id="node33" class="node">
<title>Decidable_DecidablePaths</title>
<g id="a_node33"><a xlink:href="Decidable.html#DecidablePaths" xlink:title="DecidablePaths">
<ellipse fill="#f070d1" stroke="black" cx="1051" cy="-291.43" rx="82.59" ry="18"/>
<text text-anchor="middle" x="1051" y="-287.73" font-family="Times,serif" font-size="14.00">DecidablePaths</text>
</a>
</g>
</g>
<!-- Decidable_decidablepaths_equiv&#45;&gt;Decidable_DecidablePaths -->
<g id="edge34" class="edge">
<title>Decidable_decidablepaths_equiv&#45;&gt;Decidable_DecidablePaths</title>
<path fill="none" stroke="black" d="M926.37,-497.38C949.88,-458.72 1007.35,-364.21 1035.27,-318.3"/>
<polygon fill="black" stroke="black" points="1038.39,-319.9 1040.6,-309.54 1032.41,-316.26 1038.39,-319.9"/>
</g>
<!-- Decidable_decidable_equiv_ -->
<g id="node23" class="node">
<title>Decidable_decidable_equiv_</title>
<g id="a_node23"><a xlink:href="Decidable.html#decidable_equiv'" xlink:title="decidable_equiv&#39;">
<ellipse fill="#f070d1" stroke="black" cx="692" cy="-515.43" rx="87.18" ry="18"/>
<ellipse fill="none" stroke="black" cx="692" cy="-515.43" rx="91.18" ry="22"/>
<ellipse fill="none" stroke="black" cx="692" cy="-515.43" rx="95.18" ry="26"/>
<text text-anchor="middle" x="692" y="-511.73" font-family="Times,serif" font-size="14.00">decidable_equiv&#39;</text>
</a>
</g>
</g>
<!-- Decidable_decidable_equiv -->
<g id="node24" class="node">
<title>Decidable_decidable_equiv</title>
<g id="a_node24"><a xlink:href="Decidable.html#decidable_equiv" xlink:title="decidable_equiv">
<ellipse fill="#f070d1" stroke="black" cx="653" cy="-291.43" rx="85.29" ry="18"/>
<text text-anchor="middle" x="653" y="-287.73" font-family="Times,serif" font-size="14.00">decidable_equiv</text>
</a>
</g>
</g>
<!-- Decidable_decidable_equiv_&#45;&gt;Decidable_decidable_equiv -->
<g id="edge35" class="edge">
<title>Decidable_decidable_equiv_&#45;&gt;Decidable_decidable_equiv</title>
<path fill="none" stroke="black" d="M687.6,-489.39C680.22,-447.37 665.4,-362.99 657.77,-319.58"/>
<polygon fill="black" stroke="black" points="661.17,-318.73 656,-309.48 654.28,-319.94 661.17,-318.73"/>
</g>
<!-- Decidable_Decidable -->
<g id="node35" class="node">
<title>Decidable_Decidable</title>
<g id="a_node35"><a xlink:href="Decidable.html#Decidable" xlink:title="Decidable">
<ellipse fill="#f070d1" stroke="black" cx="588" cy="-86.43" rx="56.59" ry="18"/>
<text text-anchor="middle" x="588" y="-82.73" font-family="Times,serif" font-size="14.00">Decidable</text>
</a>
</g>
</g>
<!-- Decidable_decidable_equiv&#45;&gt;Decidable_Decidable -->
<g id="edge36" class="edge">
<title>Decidable_decidable_equiv&#45;&gt;Decidable_Decidable</title>
<path fill="none" stroke="black" d="M647.46,-273.12C636.08,-237.6 610.04,-156.27 596.51,-114.01"/>
<polygon fill="black" stroke="black" points="599.82,-112.86 593.44,-104.4 593.15,-115 599.82,-112.86"/>
</g>
<!-- Decidable_decidable_empty -->
<g id="node25" class="node">
<title>Decidable_decidable_empty</title>
<g id="a_node25"><a xlink:href="Decidable.html#decidable_empty" xlink:title="decidable_empty">
<ellipse fill="#f070d1" stroke="black" cx="853" cy="-291.43" rx="89.08" ry="18"/>
<ellipse fill="none" stroke="black" cx="853" cy="-291.43" rx="93.08" ry="22"/>
<ellipse fill="none" stroke="black" cx="853" cy="-291.43" rx="97.08" ry="26"/>
<text text-anchor="middle" x="853" y="-287.73" font-family="Times,serif" font-size="14.00">decidable_empty</text>
</a>
</g>
</g>
<!-- Decidable_decidable_empty&#45;&gt;Decidable_Decidable -->
<g id="edge37" class="edge">
<title>Decidable_decidable_empty&#45;&gt;Decidable_Decidable</title>
<path fill="none" stroke="black" d="M822.08,-266.74C770.46,-227.2 667.41,-148.26 617.05,-109.68"/>
<polygon fill="black" stroke="black" points="618.93,-106.71 608.86,-103.41 614.67,-112.27 618.93,-106.71"/>
</g>
<!-- Decidable_decidablepaths_hprop -->
<g id="node26" class="node">
<title>Decidable_decidablepaths_hprop</title>
<g id="a_node26"><a xlink:href="Decidable.html#decidablepaths_hprop" xlink:title="decidablepaths_hprop">
<ellipse fill="#f070d1" stroke="black" cx="458" cy="-515.43" rx="112.38" ry="18"/>
<ellipse fill="none" stroke="black" cx="458" cy="-515.43" rx="116.38" ry="22"/>
<ellipse fill="none" stroke="black" cx="458" cy="-515.43" rx="120.38" ry="26"/>
<text text-anchor="middle" x="458" y="-511.73" font-family="Times,serif" font-size="14.00">decidablepaths_hprop</text>
</a>
</g>
</g>
<!-- Decidable_decidable_contr -->
<g id="node27" class="node">
<title>Decidable_decidable_contr</title>
<g id="a_node27"><a xlink:href="Decidable.html#decidable_contr" xlink:title="decidable_contr">
<ellipse fill="#f070d1" stroke="black" cx="244" cy="-291.43" rx="83.69" ry="18"/>
<text text-anchor="middle" x="244" y="-287.73" font-family="Times,serif" font-size="14.00">decidable_contr</text>
</a>
</g>
</g>
<!-- Decidable_decidablepaths_hprop&#45;&gt;Decidable_decidable_contr -->
<g id="edge38" class="edge">
<title>Decidable_decidablepaths_hprop&#45;&gt;Decidable_decidable_contr</title>
<path fill="none" stroke="black" d="M434.28,-489.82C392.99,-446.99 308.42,-359.25 267.37,-316.67"/>
<polygon fill="black" stroke="black" points="269.7,-314.04 260.24,-309.27 264.66,-318.9 269.7,-314.04"/>
</g>
<!-- Decidable_decidablepaths_hprop&#45;&gt;Decidable_DecidablePaths -->
<g id="edge39" class="edge">
<title>Decidable_decidablepaths_hprop&#45;&gt;Decidable_DecidablePaths</title>
<path fill="none" stroke="black" d="M516.21,-492.64C632.77,-449 892.96,-351.59 1001.73,-310.87"/>
<polygon fill="black" stroke="black" points="1003.02,-314.13 1011.15,-307.34 1000.56,-307.57 1003.02,-314.13"/>
</g>
<!-- Decidable_decidablepaths_hprop&#45;&gt;Decidable_dec -->
<g id="edge40" class="edge">
<title>Decidable_decidablepaths_hprop&#45;&gt;Decidable_dec</title>
<path fill="none" stroke="black" d="M465.33,-489.39C477.69,-447.17 502.57,-362.21 515.22,-318.99"/>
<polygon fill="black" stroke="black" points="518.64,-319.77 518.09,-309.19 511.92,-317.81 518.64,-319.77"/>
</g>
<!-- Decidable_decidable_contr&#45;&gt;Decidable_Decidable -->
<g id="edge41" class="edge">
<title>Decidable_decidable_contr&#45;&gt;Decidable_Decidable</title>
<path fill="none" stroke="black" d="M271.28,-274.33C333.33,-237.71 484.95,-148.24 553.43,-107.83"/>
<polygon fill="black" stroke="black" points="555.3,-110.79 562.13,-102.69 551.74,-104.76 555.3,-110.79"/>
</g>
<!-- Decidable_decide_rel -->
<g id="node28" class="node">
<title>Decidable_decide_rel</title>
<g id="a_node28"><a xlink:href="Decidable.html#decide_rel" xlink:title="decide_rel">
<ellipse fill="#f070d1" stroke="black" cx="412" cy="-291.43" rx="57.71" ry="18"/>
<ellipse fill="none" stroke="black" cx="412" cy="-291.43" rx="61.7" ry="22"/>
<ellipse fill="none" stroke="black" cx="412" cy="-291.43" rx="65.69" ry="26"/>
<text text-anchor="middle" x="412" y="-287.73" font-family="Times,serif" font-size="14.00">decide_rel</text>
</a>
</g>
</g>
<!-- Decidable_decide_rel&#45;&gt;Decidable_Decidable -->
<g id="edge42" class="edge">
<title>Decidable_decide_rel&#45;&gt;Decidable_Decidable</title>
<path fill="none" stroke="black" d="M432.88,-266.34C466.71,-227.32 533.14,-150.71 567.03,-111.62"/>
<polygon fill="black" stroke="black" points="569.84,-113.72 573.74,-103.87 564.55,-109.13 569.84,-113.72"/>
</g>
<!-- Decidable_stable_decidable -->
<g id="node29" class="node">
<title>Decidable_stable_decidable</title>
<g id="a_node29"><a xlink:href="Decidable.html#stable_decidable" xlink:title="stable_decidable">
<ellipse fill="#f070d1" stroke="black" cx="224" cy="-515.43" rx="87.96" ry="18"/>
<ellipse fill="none" stroke="black" cx="224" cy="-515.43" rx="91.97" ry="22"/>
<ellipse fill="none" stroke="black" cx="224" cy="-515.43" rx="95.99" ry="26"/>
<text text-anchor="middle" x="224" y="-511.73" font-family="Times,serif" font-size="14.00">stable_decidable</text>
</a>
</g>
</g>
<!-- Decidable_Stable -->
<g id="node31" class="node">
<title>Decidable_Stable</title>
<g id="a_node31"><a xlink:href="Decidable.html#Stable" xlink:title="Stable">
<ellipse fill="#f070d1" stroke="black" cx="82" cy="-291.43" rx="40.09" ry="18"/>
<text text-anchor="middle" x="82" y="-287.73" font-family="Times,serif" font-size="14.00">Stable</text>
</a>
</g>
</g>
<!-- Decidable_stable_decidable&#45;&gt;Decidable_Stable -->
<g id="edge43" class="edge">
<title>Decidable_stable_decidable&#45;&gt;Decidable_Stable</title>
<path fill="none" stroke="black" d="M207.99,-489.39C180.69,-446.71 125.44,-360.34 98.09,-317.58"/>
<polygon fill="black" stroke="black" points="100.88,-315.44 92.54,-308.91 94.98,-319.22 100.88,-315.44"/>
</g>
<!-- Decidable_stable_decidable&#45;&gt;Decidable_dec -->
<g id="edge44" class="edge">
<title>Decidable_stable_decidable&#45;&gt;Decidable_dec</title>
<path fill="none" stroke="black" d="M255.72,-490.88C315.35,-446.6 443.07,-351.77 497.54,-311.33"/>
<polygon fill="black" stroke="black" points="499.69,-314.09 505.63,-305.32 495.52,-308.47 499.69,-314.09"/>
</g>
<!-- Decidable_stable -->
<g id="node30" class="node">
<title>Decidable_stable</title>
<g id="a_node30"><a xlink:href="Decidable.html#stable" xlink:title="stable">
<ellipse fill="#f070d1" stroke="black" cx="63" cy="-515.43" rx="38.99" ry="18"/>
<ellipse fill="none" stroke="black" cx="63" cy="-515.43" rx="42.99" ry="22"/>
<ellipse fill="none" stroke="black" cx="63" cy="-515.43" rx="46.99" ry="26"/>
<text text-anchor="middle" x="63" y="-511.73" font-family="Times,serif" font-size="14.00">stable</text>
</a>
</g>
</g>
<!-- Decidable_stable&#45;&gt;Decidable_Stable -->
<g id="edge45" class="edge">
<title>Decidable_stable&#45;&gt;Decidable_Stable</title>
<path fill="none" stroke="black" d="M65.14,-489.39C68.74,-447.37 75.96,-362.99 79.68,-319.58"/>
<polygon fill="black" stroke="black" points="83.17,-319.74 80.54,-309.48 76.2,-319.15 83.17,-319.74"/>
</g>
<!-- Decidable_dec_paths&#45;&gt;Decidable_DecidablePaths -->
<g id="edge46" class="edge">
<title>Decidable_dec_paths&#45;&gt;Decidable_DecidablePaths</title>
<path fill="none" stroke="black" d="M1098.08,-497.38C1089.28,-459.04 1067.85,-365.78 1057.21,-319.46"/>
<polygon fill="black" stroke="black" points="1060.58,-318.5 1054.93,-309.54 1053.76,-320.07 1060.58,-318.5"/>
</g>
<!-- Decidable_DecidablePaths&#45;&gt;Decidable_Decidable -->
<g id="edge47" class="edge">
<title>Decidable_DecidablePaths&#45;&gt;Decidable_Decidable</title>
<path fill="none" stroke="black" d="M1015.82,-275C931.63,-238.09 718.88,-144.81 629.04,-105.42"/>
<polygon fill="black" stroke="black" points="630.28,-102.15 619.72,-101.34 627.47,-108.56 630.28,-102.15"/>
</g>
<!-- Decidable_dec&#45;&gt;Decidable_Decidable -->
<g id="edge48" class="edge">
<title>Decidable_dec&#45;&gt;Decidable_Decidable</title>
<path fill="none" stroke="black" d="M528.43,-273.47C539.73,-238.17 565.87,-156.55 579.45,-114.13"/>
<polygon fill="black" stroke="black" points="582.82,-115.07 582.54,-104.48 576.16,-112.94 582.82,-115.07"/>
</g>
</g>
</svg>
