<?xml version="1.0" encoding="UTF-8" standalone="no"?>
<!DOCTYPE svg PUBLIC "-//W3C//DTD SVG 1.1//EN"
 "http://www.w3.org/Graphics/SVG/1.1/DTD/svg11.dtd">
<!-- Generated by graphviz version 2.43.0 (0)
 -->
<!-- Title: HoTT_Modalities_Separated Pages: 1 -->
<svg width="1780pt" height="894pt"
 viewBox="0.00 0.00 1780.00 894.00" xmlns="http://www.w3.org/2000/svg" xmlns:xlink="http://www.w3.org/1999/xlink">
<g id="graph0" class="graph" transform="scale(1 1) rotate(0) translate(4 890)">
<title>HoTT_Modalities_Separated</title>
<polygon fill="white" stroke="transparent" points="-4,4 -4,-890 1776,-890 1776,4 -4,4"/>
<g id="clust1" class="cluster">
<title>cluster_Separated</title>
<polygon fill="#ffffc3" stroke="black" points="8,-16.6 8,-869.4 1764,-869.4 1764,-16.6 8,-16.6"/>
<text text-anchor="middle" x="53" y="-854.2" font-family="Times,serif" font-size="14.00">Separated</text>
</g>
<!-- Separated_SepO_lex_leq -->
<g id="node1" class="node">
<title>Separated_SepO_lex_leq</title>
<g id="a_node1"><a xlink:href="Separated.html#SepO_lex_leq" xlink:title="SepO_lex_leq">
<ellipse fill="#f070d1" stroke="black" cx="1476" cy="-568.6" rx="72.27" ry="18"/>
<ellipse fill="none" stroke="black" cx="1476" cy="-568.6" rx="76.28" ry="22"/>
<ellipse fill="none" stroke="black" cx="1476" cy="-568.6" rx="80.29" ry="26"/>
<text text-anchor="middle" x="1476" y="-564.9" font-family="Times,serif" font-size="14.00">SepO_lex_leq</text>
</a>
</g>
</g>
<!-- Separated_jc_factor2_isemb -->
<g id="node2" class="node">
<title>Separated_jc_factor2_isemb</title>
<g id="a_node2"><a xlink:href="Separated.html#jc_factor2_isemb" xlink:title="jc_factor2_isemb">
<ellipse fill="#facdef" stroke="black" cx="1668" cy="-385.6" rx="88.28" ry="18"/>
<text text-anchor="middle" x="1668" y="-381.9" font-family="Times,serif" font-size="14.00">jc_factor2_isemb</text>
</a>
</g>
</g>
<!-- Separated_SepO_lex_leq&#45;&gt;Separated_jc_factor2_isemb -->
<g id="edge1" class="edge">
<title>Separated_SepO_lex_leq&#45;&gt;Separated_jc_factor2_isemb</title>
<path fill="none" stroke="black" d="M1501.5,-543.56C1538.35,-508.82 1606.1,-444.95 1642.8,-410.36"/>
<polygon fill="black" stroke="black" points="1645.26,-412.85 1650.13,-403.44 1640.45,-407.76 1645.26,-412.85"/>
</g>
<!-- Separated_jc_factors -->
<g id="node4" class="node">
<title>Separated_jc_factors</title>
<g id="a_node4"><a xlink:href="Separated.html#jc_factors" xlink:title="jc_factors">
<ellipse fill="#facdef" stroke="black" cx="1506" cy="-385.6" rx="55.49" ry="18"/>
<text text-anchor="middle" x="1506" y="-381.9" font-family="Times,serif" font-size="14.00">jc_factors</text>
</a>
</g>
</g>
<!-- Separated_SepO_lex_leq&#45;&gt;Separated_jc_factors -->
<g id="edge2" class="edge">
<title>Separated_SepO_lex_leq&#45;&gt;Separated_jc_factors</title>
<path fill="none" stroke="black" d="M1480.17,-542.43C1485.77,-508.63 1495.69,-448.79 1501.47,-413.92"/>
<polygon fill="black" stroke="black" points="1504.94,-414.39 1503.12,-403.95 1498.04,-413.25 1504.94,-414.39"/>
</g>
<!-- Separated_reflectsD_SepO -->
<g id="node10" class="node">
<title>Separated_reflectsD_SepO</title>
<g id="a_node10"><a xlink:href="Separated.html#reflectsD_SepO" xlink:title="reflectsD_SepO">
<ellipse fill="#f070d1" stroke="black" cx="901" cy="-385.6" rx="81.79" ry="18"/>
<text text-anchor="middle" x="901" y="-381.9" font-family="Times,serif" font-size="14.00">reflectsD_SepO</text>
</a>
</g>
</g>
<!-- Separated_SepO_lex_leq&#45;&gt;Separated_reflectsD_SepO -->
<g id="edge3" class="edge">
<title>Separated_SepO_lex_leq&#45;&gt;Separated_reflectsD_SepO</title>
<path fill="none" stroke="black" d="M1419.82,-549.91C1309.38,-515.15 1065.27,-438.31 955.89,-403.88"/>
<polygon fill="black" stroke="black" points="956.64,-400.44 946.05,-400.78 954.53,-407.12 956.64,-400.44"/>
</g>
<!-- Separated_almost_inSepO_typeO -->
<g id="node12" class="node">
<title>Separated_almost_inSepO_typeO</title>
<g id="a_node12"><a xlink:href="Separated.html#almost_inSepO_typeO" xlink:title="almost_inSepO_typeO">
<ellipse fill="#f070d1" stroke="black" cx="1320" cy="-385.6" rx="112.38" ry="18"/>
<text text-anchor="middle" x="1320" y="-381.9" font-family="Times,serif" font-size="14.00">almost_inSepO_typeO</text>
</a>
</g>
</g>
<!-- Separated_SepO_lex_leq&#45;&gt;Separated_almost_inSepO_typeO -->
<g id="edge4" class="edge">
<title>Separated_SepO_lex_leq&#45;&gt;Separated_almost_inSepO_typeO</title>
<path fill="none" stroke="black" d="M1454.96,-543.19C1425.24,-508.71 1371.26,-446.08 1341.37,-411.39"/>
<polygon fill="black" stroke="black" points="1343.84,-408.9 1334.67,-403.61 1338.54,-413.47 1343.84,-408.9"/>
</g>
<!-- Separated_jc_factor2 -->
<g id="node5" class="node">
<title>Separated_jc_factor2</title>
<g id="a_node5"><a xlink:href="Separated.html#jc_factor2" xlink:title="jc_factor2">
<ellipse fill="#facdef" stroke="black" cx="1571" cy="-219.6" rx="55.79" ry="18"/>
<text text-anchor="middle" x="1571" y="-215.9" font-family="Times,serif" font-size="14.00">jc_factor2</text>
</a>
</g>
</g>
<!-- Separated_jc_factor2_isemb&#45;&gt;Separated_jc_factor2 -->
<g id="edge5" class="edge">
<title>Separated_jc_factor2_isemb&#45;&gt;Separated_jc_factor2</title>
<path fill="none" stroke="black" d="M1657.98,-367.67C1640.99,-338.94 1606.42,-280.48 1586.35,-246.56"/>
<polygon fill="black" stroke="black" points="1589.21,-244.51 1581.11,-237.69 1583.18,-248.08 1589.21,-244.51"/>
</g>
<!-- Separated_jc_factor1_issurj -->
<g id="node3" class="node">
<title>Separated_jc_factor1_issurj</title>
<g id="a_node3"><a xlink:href="Separated.html#jc_factor1_issurj" xlink:title="jc_factor1_issurj">
<ellipse fill="#facdef" stroke="black" cx="1095" cy="-385.6" rx="86.39" ry="18"/>
<ellipse fill="none" stroke="black" cx="1095" cy="-385.6" rx="90.39" ry="22"/>
<ellipse fill="none" stroke="black" cx="1095" cy="-385.6" rx="94.38" ry="26"/>
<text text-anchor="middle" x="1095" y="-381.9" font-family="Times,serif" font-size="14.00">jc_factor1_issurj</text>
</a>
</g>
</g>
<!-- Separated_jc_factor1 -->
<g id="node6" class="node">
<title>Separated_jc_factor1</title>
<g id="a_node6"><a xlink:href="Separated.html#jc_factor1" xlink:title="jc_factor1">
<ellipse fill="#facdef" stroke="black" cx="1441" cy="-219.6" rx="55.79" ry="18"/>
<text text-anchor="middle" x="1441" y="-215.9" font-family="Times,serif" font-size="14.00">jc_factor1</text>
</a>
</g>
</g>
<!-- Separated_jc_factor1_issurj&#45;&gt;Separated_jc_factor1 -->
<g id="edge6" class="edge">
<title>Separated_jc_factor1_issurj&#45;&gt;Separated_jc_factor1</title>
<path fill="none" stroke="black" d="M1140.95,-362.82C1209.31,-330.42 1336.68,-270.05 1401.26,-239.44"/>
<polygon fill="black" stroke="black" points="1403.15,-242.41 1410.69,-234.97 1400.15,-236.09 1403.15,-242.41"/>
</g>
<!-- Separated_jc_factors&#45;&gt;Separated_jc_factor2 -->
<g id="edge7" class="edge">
<title>Separated_jc_factors&#45;&gt;Separated_jc_factor2</title>
<path fill="none" stroke="black" d="M1512.71,-367.67C1524.05,-339.06 1547.07,-280.98 1560.54,-247"/>
<polygon fill="black" stroke="black" points="1563.8,-248.27 1564.23,-237.69 1557.29,-245.69 1563.8,-248.27"/>
</g>
<!-- Separated_jc_factors&#45;&gt;Separated_jc_factor1 -->
<g id="edge8" class="edge">
<title>Separated_jc_factors&#45;&gt;Separated_jc_factor1</title>
<path fill="none" stroke="black" d="M1499.29,-367.67C1487.95,-339.06 1464.93,-280.98 1451.46,-247"/>
<polygon fill="black" stroke="black" points="1454.71,-245.69 1447.77,-237.69 1448.2,-248.27 1454.71,-245.69"/>
</g>
<!-- Separated_jc_image -->
<g id="node7" class="node">
<title>Separated_jc_image</title>
<g id="a_node7"><a xlink:href="Separated.html#jc_image" xlink:title="jc_image">
<ellipse fill="#facdef" stroke="black" cx="1506" cy="-70.6" rx="51.19" ry="18"/>
<text text-anchor="middle" x="1506" y="-66.9" font-family="Times,serif" font-size="14.00">jc_image</text>
</a>
</g>
</g>
<!-- Separated_jc_factor2&#45;&gt;Separated_jc_image -->
<g id="edge9" class="edge">
<title>Separated_jc_factor2&#45;&gt;Separated_jc_image</title>
<path fill="none" stroke="black" d="M1563.54,-201.74C1552.34,-176.4 1531.06,-128.27 1517.75,-98.17"/>
<polygon fill="black" stroke="black" points="1520.81,-96.45 1513.57,-88.72 1514.41,-99.28 1520.81,-96.45"/>
</g>
<!-- Separated_jc_factor1&#45;&gt;Separated_jc_image -->
<g id="edge10" class="edge">
<title>Separated_jc_factor1&#45;&gt;Separated_jc_image</title>
<path fill="none" stroke="black" d="M1448.46,-201.74C1459.66,-176.4 1480.94,-128.27 1494.25,-98.17"/>
<polygon fill="black" stroke="black" points="1497.59,-99.28 1498.43,-88.72 1491.19,-96.45 1497.59,-99.28"/>
</g>
<!-- Separated_equiv_toSepO_inO -->
<g id="node8" class="node">
<title>Separated_equiv_toSepO_inO</title>
<g id="a_node8"><a xlink:href="Separated.html#equiv_toSepO_inO" xlink:title="equiv_toSepO_inO">
<ellipse fill="#f070d1" stroke="black" cx="1653" cy="-751.6" rx="94.79" ry="18"/>
<ellipse fill="none" stroke="black" cx="1653" cy="-751.6" rx="98.79" ry="22"/>
<ellipse fill="none" stroke="black" cx="1653" cy="-751.6" rx="102.78" ry="26"/>
<text text-anchor="middle" x="1653" y="-747.9" font-family="Times,serif" font-size="14.00">equiv_toSepO_inO</text>
</a>
</g>
</g>
<!-- Separated_isequiv_toSepO_inO -->
<g id="node9" class="node">
<title>Separated_isequiv_toSepO_inO</title>
<g id="a_node9"><a xlink:href="Separated.html#isequiv_toSepO_inO" xlink:title="isequiv_toSepO_inO">
<ellipse fill="#f070d1" stroke="black" cx="1214" cy="-568.6" rx="102.88" ry="18"/>
<text text-anchor="middle" x="1214" y="-564.9" font-family="Times,serif" font-size="14.00">isequiv_toSepO_inO</text>
</a>
</g>
</g>
<!-- Separated_equiv_toSepO_inO&#45;&gt;Separated_isequiv_toSepO_inO -->
<g id="edge11" class="edge">
<title>Separated_equiv_toSepO_inO&#45;&gt;Separated_isequiv_toSepO_inO</title>
<path fill="none" stroke="black" d="M1600.92,-729.13C1514.95,-693.68 1344.62,-623.46 1261.66,-589.25"/>
<polygon fill="black" stroke="black" points="1262.8,-585.93 1252.22,-585.36 1260.13,-592.41 1262.8,-585.93"/>
</g>
<!-- Separated_isequiv_toSepO_inO&#45;&gt;Separated_reflectsD_SepO -->
<g id="edge12" class="edge">
<title>Separated_isequiv_toSepO_inO&#45;&gt;Separated_reflectsD_SepO</title>
<path fill="none" stroke="black" d="M1185.67,-551.22C1128.73,-518.29 1000.47,-444.12 937.41,-407.65"/>
<polygon fill="black" stroke="black" points="939,-404.53 928.59,-402.55 935.5,-410.59 939,-404.53"/>
</g>
<!-- Separated_inSepO_sigma -->
<g id="node11" class="node">
<title>Separated_inSepO_sigma</title>
<g id="a_node11"><a xlink:href="Separated.html#inSepO_sigma" xlink:title="inSepO_sigma">
<ellipse fill="#f070d1" stroke="black" cx="901" cy="-219.6" rx="76.89" ry="18"/>
<text text-anchor="middle" x="901" y="-215.9" font-family="Times,serif" font-size="14.00">inSepO_sigma</text>
</a>
</g>
</g>
<!-- Separated_reflectsD_SepO&#45;&gt;Separated_inSepO_sigma -->
<g id="edge13" class="edge">
<title>Separated_reflectsD_SepO&#45;&gt;Separated_inSepO_sigma</title>
<path fill="none" stroke="black" d="M901,-367.36C901,-338.86 901,-281.72 901,-247.76"/>
<polygon fill="black" stroke="black" points="904.5,-247.61 901,-237.61 897.5,-247.61 904.5,-247.61"/>
</g>
<!-- Separated_issurjective_to_SepO -->
<g id="node13" class="node">
<title>Separated_issurjective_to_SepO</title>
<g id="a_node13"><a xlink:href="Separated.html#issurjective_to_SepO" xlink:title="issurjective_to_SepO">
<ellipse fill="#f070d1" stroke="black" cx="1417" cy="-751.6" rx="107.46" ry="18"/>
<ellipse fill="none" stroke="black" cx="1417" cy="-751.6" rx="111.47" ry="22"/>
<ellipse fill="none" stroke="black" cx="1417" cy="-751.6" rx="115.48" ry="26"/>
<text text-anchor="middle" x="1417" y="-747.9" font-family="Times,serif" font-size="14.00">issurjective_to_SepO</text>
</a>
</g>
</g>
<!-- Separated_in_SepO_embedding -->
<g id="node17" class="node">
<title>Separated_in_SepO_embedding</title>
<g id="a_node17"><a xlink:href="Separated.html#in_SepO_embedding" xlink:title="in_SepO_embedding">
<ellipse fill="#f070d1" stroke="black" cx="958" cy="-568.6" rx="104.78" ry="18"/>
<text text-anchor="middle" x="958" y="-564.9" font-family="Times,serif" font-size="14.00">in_SepO_embedding</text>
</a>
</g>
</g>
<!-- Separated_issurjective_to_SepO&#45;&gt;Separated_in_SepO_embedding -->
<g id="edge14" class="edge">
<title>Separated_issurjective_to_SepO&#45;&gt;Separated_in_SepO_embedding</title>
<path fill="none" stroke="black" d="M1361.63,-728.77C1271.29,-693.14 1093.61,-623.08 1007.34,-589.05"/>
<polygon fill="black" stroke="black" points="1008.36,-585.7 997.78,-585.29 1005.8,-592.21 1008.36,-585.7"/>
</g>
<!-- Separated_sigma_closed_SepO -->
<g id="node14" class="node">
<title>Separated_sigma_closed_SepO</title>
<g id="a_node14"><a xlink:href="Separated.html#sigma_closed_SepO" xlink:title="sigma_closed_SepO">
<ellipse fill="#f070d1" stroke="black" cx="1174" cy="-751.6" rx="101.29" ry="18"/>
<ellipse fill="none" stroke="black" cx="1174" cy="-751.6" rx="105.29" ry="22"/>
<ellipse fill="none" stroke="black" cx="1174" cy="-751.6" rx="109.28" ry="26"/>
<text text-anchor="middle" x="1174" y="-747.9" font-family="Times,serif" font-size="14.00">sigma_closed_SepO</text>
</a>
</g>
</g>
<!-- Separated_in_SepO_hprop -->
<g id="node15" class="node">
<title>Separated_in_SepO_hprop</title>
<g id="a_node15"><a xlink:href="Separated.html#in_SepO_hprop" xlink:title="in_SepO_hprop">
<ellipse fill="#f070d1" stroke="black" cx="958" cy="-751.6" rx="80.68" ry="18"/>
<ellipse fill="none" stroke="black" cx="958" cy="-751.6" rx="84.68" ry="22"/>
<ellipse fill="none" stroke="black" cx="958" cy="-751.6" rx="88.69" ry="26"/>
<text text-anchor="middle" x="958" y="-747.9" font-family="Times,serif" font-size="14.00">in_SepO_hprop</text>
</a>
</g>
</g>
<!-- Separated_in_SepO_hprop&#45;&gt;Separated_in_SepO_embedding -->
<g id="edge15" class="edge">
<title>Separated_in_SepO_hprop&#45;&gt;Separated_in_SepO_embedding</title>
<path fill="none" stroke="black" d="M958,-725.43C958,-691.77 958,-632.3 958,-597.37"/>
<polygon fill="black" stroke="black" points="961.5,-596.95 958,-586.95 954.5,-596.95 961.5,-596.95"/>
</g>
<!-- Separated_istrunc_embedding_trunc -->
<g id="node16" class="node">
<title>Separated_istrunc_embedding_trunc</title>
<g id="a_node16"><a xlink:href="Separated.html#istrunc_embedding_trunc" xlink:title="istrunc_embedding_trunc">
<ellipse fill="#f070d1" stroke="black" cx="715" cy="-751.6" rx="128.87" ry="18"/>
<ellipse fill="none" stroke="black" cx="715" cy="-751.6" rx="132.87" ry="22"/>
<ellipse fill="none" stroke="black" cx="715" cy="-751.6" rx="136.88" ry="26"/>
<text text-anchor="middle" x="715" y="-747.9" font-family="Times,serif" font-size="14.00">istrunc_embedding_trunc</text>
</a>
</g>
</g>
<!-- Separated_istrunc_embedding_trunc&#45;&gt;Separated_in_SepO_embedding -->
<g id="edge16" class="edge">
<title>Separated_istrunc_embedding_trunc&#45;&gt;Separated_in_SepO_embedding</title>
<path fill="none" stroke="black" d="M747.77,-726.19C794.97,-691.03 881.44,-626.62 927.4,-592.39"/>
<polygon fill="black" stroke="black" points="929.56,-595.15 935.49,-586.37 925.38,-589.53 929.56,-595.15"/>
</g>
<!-- Separated_O_leq_SepO -->
<g id="node18" class="node">
<title>Separated_O_leq_SepO</title>
<g id="a_node18"><a xlink:href="Separated.html#O_leq_SepO" xlink:title="O_leq_SepO">
<ellipse fill="#f070d1" stroke="black" cx="487" cy="-751.6" rx="65.77" ry="18"/>
<ellipse fill="none" stroke="black" cx="487" cy="-751.6" rx="69.78" ry="22"/>
<ellipse fill="none" stroke="black" cx="487" cy="-751.6" rx="73.79" ry="26"/>
<text text-anchor="middle" x="487" y="-747.9" font-family="Times,serif" font-size="14.00">O_leq_SepO</text>
</a>
</g>
</g>
<!-- Separated_isaccmodality_sep -->
<g id="node19" class="node">
<title>Separated_isaccmodality_sep</title>
<g id="a_node19"><a xlink:href="Separated.html#isaccmodality_sep" xlink:title="isaccmodality_sep">
<ellipse fill="#f070d1" stroke="black" cx="292" cy="-751.6" rx="94.79" ry="18"/>
<ellipse fill="none" stroke="black" cx="292" cy="-751.6" rx="98.79" ry="22"/>
<ellipse fill="none" stroke="black" cx="292" cy="-751.6" rx="102.78" ry="26"/>
<text text-anchor="middle" x="292" y="-747.9" font-family="Times,serif" font-size="14.00">isaccmodality_sep</text>
</a>
</g>
</g>
<!-- Separated_susp_nullgen -->
<g id="node20" class="node">
<title>Separated_susp_nullgen</title>
<g id="a_node20"><a xlink:href="Separated.html#susp_nullgen" xlink:title="susp_nullgen">
<ellipse fill="#f070d1" stroke="black" cx="292" cy="-568.6" rx="71.49" ry="18"/>
<text text-anchor="middle" x="292" y="-564.9" font-family="Times,serif" font-size="14.00">susp_nullgen</text>
</a>
</g>
</g>
<!-- Separated_isaccmodality_sep&#45;&gt;Separated_susp_nullgen -->
<g id="edge17" class="edge">
<title>Separated_isaccmodality_sep&#45;&gt;Separated_susp_nullgen</title>
<path fill="none" stroke="black" d="M292,-725.43C292,-691.77 292,-632.3 292,-597.37"/>
<polygon fill="black" stroke="black" points="295.5,-596.95 292,-586.95 288.5,-596.95 295.5,-596.95"/>
</g>
<!-- Separated_isaccrsu_sep -->
<g id="node21" class="node">
<title>Separated_isaccrsu_sep</title>
<g id="a_node21"><a xlink:href="Separated.html#isaccrsu_sep" xlink:title="isaccrsu_sep">
<ellipse fill="#f070d1" stroke="black" cx="94" cy="-751.6" rx="69.58" ry="18"/>
<ellipse fill="none" stroke="black" cx="94" cy="-751.6" rx="73.59" ry="22"/>
<ellipse fill="none" stroke="black" cx="94" cy="-751.6" rx="77.59" ry="26"/>
<text text-anchor="middle" x="94" y="-747.9" font-family="Times,serif" font-size="14.00">isaccrsu_sep</text>
</a>
</g>
</g>
<!-- Separated_susp_localgen -->
<g id="node22" class="node">
<title>Separated_susp_localgen</title>
<g id="a_node22"><a xlink:href="Separated.html#susp_localgen" xlink:title="susp_localgen">
<ellipse fill="#f070d1" stroke="black" cx="94" cy="-568.6" rx="75.29" ry="18"/>
<text text-anchor="middle" x="94" y="-564.9" font-family="Times,serif" font-size="14.00">susp_localgen</text>
</a>
</g>
</g>
<!-- Separated_isaccrsu_sep&#45;&gt;Separated_susp_localgen -->
<g id="edge18" class="edge">
<title>Separated_isaccrsu_sep&#45;&gt;Separated_susp_localgen</title>
<path fill="none" stroke="black" d="M94,-725.43C94,-691.77 94,-632.3 94,-597.37"/>
<polygon fill="black" stroke="black" points="97.5,-596.95 94,-586.95 90.5,-596.95 97.5,-596.95"/>
</g>
</g>
</svg>
