<?xml version="1.0" encoding="UTF-8" standalone="no"?>
<!DOCTYPE svg PUBLIC "-//W3C//DTD SVG 1.1//EN"
 "http://www.w3.org/Graphics/SVG/1.1/DTD/svg11.dtd">
<!-- Generated by graphviz version 2.43.0 (0)
 -->
<!-- Title: HoTT_Types_Wtype Pages: 1 -->
<svg width="1294pt" height="651pt"
 viewBox="0.00 0.00 1294.00 651.00" xmlns="http://www.w3.org/2000/svg" xmlns:xlink="http://www.w3.org/1999/xlink">
<g id="graph0" class="graph" transform="scale(1 1) rotate(0) translate(4 647)">
<title>HoTT_Types_Wtype</title>
<polygon fill="white" stroke="transparent" points="-4,4 -4,-647 1290,-647 1290,4 -4,4"/>
<g id="clust1" class="cluster">
<title>cluster_Wtype</title>
<polygon fill="#ffffc3" stroke="black" points="15.04,-8 15.04,-635 1270.96,-635 1270.96,-8 15.04,-8"/>
<text text-anchor="middle" x="46.04" y="-619.8" font-family="Times,serif" font-size="14.00">Wtype</text>
</g>
<!-- Wtype_trunc_wtype -->
<g id="node1" class="node">
<title>Wtype_trunc_wtype</title>
<g id="a_node1"><a xlink:href="Wtype.html#trunc_wtype" xlink:title="trunc_wtype">
<ellipse fill="#f070d1" stroke="black" cx="1040.09" cy="-578" rx="68.46" ry="18"/>
<ellipse fill="none" stroke="black" cx="1040.09" cy="-578" rx="72.48" ry="22"/>
<ellipse fill="none" stroke="black" cx="1040.09" cy="-578" rx="76.49" ry="26"/>
<text text-anchor="middle" x="1040.09" y="-574.3" font-family="Times,serif" font-size="14.00">trunc_wtype</text>
</a>
</g>
</g>
<!-- Wtype_equiv_path_wtype -->
<g id="node2" class="node">
<title>Wtype_equiv_path_wtype</title>
<g id="a_node2"><a xlink:href="Wtype.html#equiv_path_wtype" xlink:title="equiv_path_wtype">
<ellipse fill="#f070d1" stroke="black" cx="893.09" cy="-498" rx="94.48" ry="18"/>
<text text-anchor="middle" x="893.09" y="-494.3" font-family="Times,serif" font-size="14.00">equiv_path_wtype</text>
</a>
</g>
</g>
<!-- Wtype_trunc_wtype&#45;&gt;Wtype_equiv_path_wtype -->
<g id="edge1" class="edge">
<title>Wtype_trunc_wtype&#45;&gt;Wtype_equiv_path_wtype</title>
<path fill="none" stroke="black" d="M999.92,-555.69C978.89,-544.53 953.24,-530.92 932.35,-519.83"/>
<polygon fill="black" stroke="black" points="933.89,-516.69 923.42,-515.09 930.61,-522.87 933.89,-516.69"/>
</g>
<!-- Wtype_W_rect -->
<g id="node13" class="node">
<title>Wtype_W_rect</title>
<g id="a_node13"><a xlink:href="Wtype.html#W_rect" xlink:title="W_rect">
<ellipse fill="#f070d1" stroke="black" cx="1175.09" cy="-258" rx="42.79" ry="18"/>
<text text-anchor="middle" x="1175.09" y="-254.3" font-family="Times,serif" font-size="14.00">W_rect</text>
</a>
</g>
</g>
<!-- Wtype_trunc_wtype&#45;&gt;Wtype_W_rect -->
<g id="edge2" class="edge">
<title>Wtype_trunc_wtype&#45;&gt;Wtype_W_rect</title>
<path fill="none" stroke="black" d="M1064.72,-553.33C1099.69,-517.83 1162.14,-446.91 1186.09,-372 1195.2,-343.51 1189.64,-309.09 1183.61,-285.78"/>
<polygon fill="black" stroke="black" points="1186.91,-284.6 1180.85,-275.91 1180.17,-286.48 1186.91,-284.6"/>
</g>
<!-- Wtype_isequiv_path_wtype -->
<g id="node3" class="node">
<title>Wtype_isequiv_path_wtype</title>
<g id="a_node3"><a xlink:href="Wtype.html#isequiv_path_wtype" xlink:title="isequiv_path_wtype">
<ellipse fill="#f070d1" stroke="black" cx="820.09" cy="-426" rx="102.08" ry="18"/>
<text text-anchor="middle" x="820.09" y="-422.3" font-family="Times,serif" font-size="14.00">isequiv_path_wtype</text>
</a>
</g>
</g>
<!-- Wtype_equiv_path_wtype&#45;&gt;Wtype_isequiv_path_wtype -->
<g id="edge3" class="edge">
<title>Wtype_equiv_path_wtype&#45;&gt;Wtype_isequiv_path_wtype</title>
<path fill="none" stroke="black" d="M875.42,-480.05C866.27,-471.28 854.96,-460.43 844.94,-450.83"/>
<polygon fill="black" stroke="black" points="847.24,-448.18 837.6,-443.79 842.39,-453.24 847.24,-448.18"/>
</g>
<!-- Wtype_eissect_path_wtype -->
<g id="node4" class="node">
<title>Wtype_eissect_path_wtype</title>
<g id="a_node4"><a xlink:href="Wtype.html#eissect_path_wtype" xlink:title="eissect_path_wtype">
<ellipse fill="#f070d1" stroke="black" cx="408.09" cy="-346" rx="100.98" ry="18"/>
<text text-anchor="middle" x="408.09" y="-342.3" font-family="Times,serif" font-size="14.00">eissect_path_wtype</text>
</a>
</g>
</g>
<!-- Wtype_isequiv_path_wtype&#45;&gt;Wtype_eissect_path_wtype -->
<g id="edge4" class="edge">
<title>Wtype_isequiv_path_wtype&#45;&gt;Wtype_eissect_path_wtype</title>
<path fill="none" stroke="black" d="M752.98,-412.29C679.44,-398.37 561.7,-376.08 484.62,-361.49"/>
<polygon fill="black" stroke="black" points="484.97,-357.99 474.49,-359.57 483.67,-364.87 484.97,-357.99"/>
</g>
<!-- Wtype_eisretr_path_wtype -->
<g id="node5" class="node">
<title>Wtype_eisretr_path_wtype</title>
<g id="a_node5"><a xlink:href="Wtype.html#eisretr_path_wtype" xlink:title="eisretr_path_wtype">
<ellipse fill="#f070d1" stroke="black" cx="820.09" cy="-346" rx="100.18" ry="18"/>
<text text-anchor="middle" x="820.09" y="-342.3" font-family="Times,serif" font-size="14.00">eisretr_path_wtype</text>
</a>
</g>
</g>
<!-- Wtype_isequiv_path_wtype&#45;&gt;Wtype_eisretr_path_wtype -->
<g id="edge5" class="edge">
<title>Wtype_isequiv_path_wtype&#45;&gt;Wtype_eisretr_path_wtype</title>
<path fill="none" stroke="black" d="M820.09,-407.69C820.09,-397.89 820.09,-385.42 820.09,-374.33"/>
<polygon fill="black" stroke="black" points="823.59,-374.26 820.09,-364.26 816.59,-374.26 823.59,-374.26"/>
</g>
<!-- Wtype_path_wtype_inv -->
<g id="node6" class="node">
<title>Wtype_path_wtype_inv</title>
<g id="a_node6"><a xlink:href="Wtype.html#path_wtype_inv" xlink:title="path_wtype_inv">
<ellipse fill="#f070d1" stroke="black" cx="904.09" cy="-258" rx="83.39" ry="18"/>
<text text-anchor="middle" x="904.09" y="-254.3" font-family="Times,serif" font-size="14.00">path_wtype_inv</text>
</a>
</g>
</g>
<!-- Wtype_eissect_path_wtype&#45;&gt;Wtype_path_wtype_inv -->
<g id="edge6" class="edge">
<title>Wtype_eissect_path_wtype&#45;&gt;Wtype_path_wtype_inv</title>
<path fill="none" stroke="black" d="M477.58,-332.95C570.96,-316.76 736.16,-288.12 831.23,-271.63"/>
<polygon fill="black" stroke="black" points="832.08,-275.04 841.34,-269.88 830.89,-268.14 832.08,-275.04"/>
</g>
<!-- Wtype_path_wtype -->
<g id="node7" class="node">
<title>Wtype_path_wtype</title>
<g id="a_node7"><a xlink:href="Wtype.html#path_wtype" xlink:title="path_wtype">
<ellipse fill="#f070d1" stroke="black" cx="592.09" cy="-258" rx="64.19" ry="18"/>
<text text-anchor="middle" x="592.09" y="-254.3" font-family="Times,serif" font-size="14.00">path_wtype</text>
</a>
</g>
</g>
<!-- Wtype_eissect_path_wtype&#45;&gt;Wtype_path_wtype -->
<g id="edge7" class="edge">
<title>Wtype_eissect_path_wtype&#45;&gt;Wtype_path_wtype</title>
<path fill="none" stroke="black" d="M442.27,-329.03C473.11,-314.61 518.52,-293.39 551.25,-278.09"/>
<polygon fill="black" stroke="black" points="552.98,-281.15 560.55,-273.74 550.01,-274.8 552.98,-281.15"/>
</g>
<!-- Wtype_eisretr_path_wtype&#45;&gt;Wtype_path_wtype_inv -->
<g id="edge8" class="edge">
<title>Wtype_eisretr_path_wtype&#45;&gt;Wtype_path_wtype_inv</title>
<path fill="none" stroke="black" d="M836.69,-328.01C849.19,-315.21 866.51,-297.47 880.46,-283.19"/>
<polygon fill="black" stroke="black" points="883.33,-285.26 887.82,-275.66 878.32,-280.37 883.33,-285.26"/>
</g>
<!-- Wtype_eisretr_path_wtype&#45;&gt;Wtype_path_wtype -->
<g id="edge9" class="edge">
<title>Wtype_eisretr_path_wtype&#45;&gt;Wtype_path_wtype</title>
<path fill="none" stroke="black" d="M779.07,-329.53C739.54,-314.62 679.83,-292.09 638.56,-276.53"/>
<polygon fill="black" stroke="black" points="639.61,-273.18 629.02,-272.93 637.14,-279.73 639.61,-273.18"/>
</g>
<!-- Wtype_w_arg -->
<g id="node8" class="node">
<title>Wtype_w_arg</title>
<g id="a_node8"><a xlink:href="Wtype.html#w_arg" xlink:title="w_arg">
<ellipse fill="#f070d1" stroke="black" cx="671.09" cy="-178" rx="38.19" ry="18"/>
<text text-anchor="middle" x="671.09" y="-174.3" font-family="Times,serif" font-size="14.00">w_arg</text>
</a>
</g>
</g>
<!-- Wtype_path_wtype_inv&#45;&gt;Wtype_w_arg -->
<g id="edge10" class="edge">
<title>Wtype_path_wtype_inv&#45;&gt;Wtype_w_arg</title>
<path fill="none" stroke="black" d="M860.81,-242.51C817.92,-228.15 752.77,-206.34 711.07,-192.39"/>
<polygon fill="black" stroke="black" points="712.12,-189.04 701.52,-189.19 709.89,-195.68 712.12,-189.04"/>
</g>
<!-- Wtype_sup -->
<g id="node14" class="node">
<title>Wtype_sup</title>
<g id="a_node14"><a xlink:href="Wtype.html#sup" xlink:title="sup">
<ellipse fill="#7faaff" stroke="black" cx="513.09" cy="-178" rx="27.1" ry="18"/>
<text text-anchor="middle" x="513.09" y="-174.3" font-family="Times,serif" font-size="14.00">sup</text>
</a>
</g>
</g>
<!-- Wtype_path_wtype_inv&#45;&gt;Wtype_sup -->
<g id="edge11" class="edge">
<title>Wtype_path_wtype_inv&#45;&gt;Wtype_sup</title>
<path fill="none" stroke="black" d="M845.13,-245.24C763.12,-228.88 617.07,-199.74 549.38,-186.24"/>
<polygon fill="black" stroke="black" points="549.71,-182.74 539.21,-184.21 548.34,-189.6 549.71,-182.74"/>
</g>
<!-- Wtype_path_wtype&#45;&gt;Wtype_w_arg -->
<g id="edge12" class="edge">
<title>Wtype_path_wtype&#45;&gt;Wtype_w_arg</title>
<path fill="none" stroke="black" d="M608.84,-240.46C620.25,-229.2 635.49,-214.15 648.03,-201.77"/>
<polygon fill="black" stroke="black" points="650.78,-203.97 655.44,-194.46 645.86,-198.99 650.78,-203.97"/>
</g>
<!-- Wtype_path_wtype&#45;&gt;Wtype_sup -->
<g id="edge13" class="edge">
<title>Wtype_path_wtype&#45;&gt;Wtype_sup</title>
<path fill="none" stroke="black" d="M575.34,-240.46C563.63,-228.9 547.89,-213.36 535.17,-200.8"/>
<polygon fill="black" stroke="black" points="537.27,-197.96 527.7,-193.42 532.35,-202.94 537.27,-197.96"/>
</g>
<!-- Wtype_w_label -->
<g id="node9" class="node">
<title>Wtype_w_label</title>
<g id="a_node9"><a xlink:href="Wtype.html#w_label" xlink:title="w_label">
<ellipse fill="#f070d1" stroke="black" cx="602.09" cy="-106" rx="45.49" ry="18"/>
<text text-anchor="middle" x="602.09" y="-102.3" font-family="Times,serif" font-size="14.00">w_label</text>
</a>
</g>
</g>
<!-- Wtype_w_arg&#45;&gt;Wtype_w_label -->
<g id="edge14" class="edge">
<title>Wtype_w_arg&#45;&gt;Wtype_w_label</title>
<path fill="none" stroke="black" d="M655.78,-161.46C646.7,-152.26 635.03,-140.42 624.89,-130.13"/>
<polygon fill="black" stroke="black" points="627.35,-127.64 617.84,-122.98 622.37,-132.56 627.35,-127.64"/>
</g>
<!-- Wtype_W -->
<g id="node15" class="node">
<title>Wtype_W</title>
<g id="a_node15"><a xlink:href="Wtype.html#W" xlink:title="W">
<ellipse fill="#e2cdfa" stroke="black" cx="504.09" cy="-34" rx="27" ry="18"/>
<text text-anchor="middle" x="504.09" y="-30.3" font-family="Times,serif" font-size="14.00">W</text>
</a>
</g>
</g>
<!-- Wtype_w_label&#45;&gt;Wtype_W -->
<g id="edge15" class="edge">
<title>Wtype_w_label&#45;&gt;Wtype_W</title>
<path fill="none" stroke="black" d="M580.83,-89.81C566.01,-79.23 546.14,-65.04 530.33,-53.75"/>
<polygon fill="black" stroke="black" points="532.2,-50.78 522.03,-47.81 528.13,-56.47 532.2,-50.78"/>
</g>
<!-- Wtype_W_sind -->
<g id="node10" class="node">
<title>Wtype_W_sind</title>
<g id="a_node10"><a xlink:href="Wtype.html#W_sind" xlink:title="W_sind">
<ellipse fill="#f070d1" stroke="black" cx="338.09" cy="-258" rx="44.36" ry="18"/>
<ellipse fill="none" stroke="black" cx="338.09" cy="-258" rx="48.38" ry="22"/>
<ellipse fill="none" stroke="black" cx="338.09" cy="-258" rx="52.39" ry="26"/>
<text text-anchor="middle" x="338.09" y="-254.3" font-family="Times,serif" font-size="14.00">W_sind</text>
</a>
</g>
</g>
<!-- Wtype_W_sind&#45;&gt;Wtype_sup -->
<g id="edge16" class="edge">
<title>Wtype_W_sind&#45;&gt;Wtype_sup</title>
<path fill="none" stroke="black" d="M376.06,-240.08C407.67,-225.99 452.14,-206.17 481.75,-192.97"/>
<polygon fill="black" stroke="black" points="483.48,-196.03 491.18,-188.76 480.63,-189.64 483.48,-196.03"/>
</g>
<!-- Wtype_W_sind&#45;&gt;Wtype_W -->
<g id="edge17" class="edge">
<title>Wtype_W_sind&#45;&gt;Wtype_W</title>
<path fill="none" stroke="black" d="M355.86,-233.24C387.78,-190.55 454.49,-101.33 486.38,-58.69"/>
<polygon fill="black" stroke="black" points="489.27,-60.67 492.45,-50.57 483.66,-56.48 489.27,-60.67"/>
</g>
<!-- Wtype_W_rec -->
<g id="node11" class="node">
<title>Wtype_W_rec</title>
<g id="a_node11"><a xlink:href="Wtype.html#W_rec" xlink:title="W_rec">
<ellipse fill="#f070d1" stroke="black" cx="1130.09" cy="-346" rx="38.99" ry="18"/>
<ellipse fill="none" stroke="black" cx="1130.09" cy="-346" rx="42.99" ry="22"/>
<ellipse fill="none" stroke="black" cx="1130.09" cy="-346" rx="46.99" ry="26"/>
<text text-anchor="middle" x="1130.09" y="-342.3" font-family="Times,serif" font-size="14.00">W_rec</text>
</a>
</g>
</g>
<!-- Wtype_W_rec&#45;&gt;Wtype_W_rect -->
<g id="edge18" class="edge">
<title>Wtype_W_rec&#45;&gt;Wtype_W_rect</title>
<path fill="none" stroke="black" d="M1142.87,-320.59C1148.71,-309.41 1155.64,-296.17 1161.58,-284.83"/>
<polygon fill="black" stroke="black" points="1164.75,-286.32 1166.28,-275.84 1158.54,-283.07 1164.75,-286.32"/>
</g>
<!-- Wtype_W_ind -->
<g id="node12" class="node">
<title>Wtype_W_ind</title>
<g id="a_node12"><a xlink:href="Wtype.html#W_ind" xlink:title="W_ind">
<ellipse fill="#7fffd4" stroke="black" cx="118.09" cy="-258" rx="38.99" ry="18"/>
<ellipse fill="none" stroke="black" cx="118.09" cy="-258" rx="42.99" ry="22"/>
<ellipse fill="none" stroke="black" cx="118.09" cy="-258" rx="46.99" ry="26"/>
<text text-anchor="middle" x="118.09" y="-254.3" font-family="Times,serif" font-size="14.00">W_ind</text>
</a>
</g>
</g>
<!-- Wtype_W_ind&#45;&gt;Wtype_sup -->
<g id="edge19" class="edge">
<title>Wtype_W_ind&#45;&gt;Wtype_sup</title>
<path fill="none" stroke="black" d="M161.87,-248.35C240.56,-232.82 404.44,-200.46 477.08,-186.11"/>
<polygon fill="black" stroke="black" points="477.99,-189.5 487.12,-184.13 476.63,-182.63 477.99,-189.5"/>
</g>
<!-- Wtype_W_ind&#45;&gt;Wtype_W -->
<g id="edge20" class="edge">
<title>Wtype_W_ind&#45;&gt;Wtype_W</title>
<path fill="none" stroke="black" d="M150.01,-238.64C223.65,-196.29 404.52,-92.26 475.16,-51.64"/>
<polygon fill="black" stroke="black" points="477.07,-54.58 483.99,-46.56 473.58,-48.51 477.07,-54.58"/>
</g>
<!-- Wtype_W_rect&#45;&gt;Wtype_sup -->
<g id="edge21" class="edge">
<title>Wtype_W_rect&#45;&gt;Wtype_sup</title>
<path fill="none" stroke="black" d="M1135.34,-250.96C1099.11,-245.57 1044.08,-237.67 996.09,-232 831.13,-212.51 788.92,-216.58 624.09,-196 599.15,-192.89 571.19,-188.6 549.56,-185.11"/>
<polygon fill="black" stroke="black" points="549.93,-181.62 539.5,-183.47 548.8,-188.53 549.93,-181.62"/>
</g>
<!-- Wtype_W_rect&#45;&gt;Wtype_W -->
<g id="edge22" class="edge">
<title>Wtype_W_rect&#45;&gt;Wtype_W</title>
<path fill="none" stroke="black" d="M1142.27,-246.14C1028.49,-208.5 651.64,-83.82 537.28,-45.98"/>
<polygon fill="black" stroke="black" points="538.25,-42.62 527.66,-42.8 536.05,-49.26 538.25,-42.62"/>
</g>
</g>
</svg>
