<?xml version="1.0" encoding="UTF-8" standalone="no"?>
<!DOCTYPE svg PUBLIC "-//W3C//DTD SVG 1.1//EN"
 "http://www.w3.org/Graphics/SVG/1.1/DTD/svg11.dtd">
<!-- Generated by graphviz version 2.43.0 (0)
 -->
<!-- Title: HoTT_Cubical_PathCube Pages: 1 -->
<svg width="2579pt" height="1285pt"
 viewBox="0.00 0.00 2579.43 1284.50" xmlns="http://www.w3.org/2000/svg" xmlns:xlink="http://www.w3.org/1999/xlink">
<g id="graph0" class="graph" transform="scale(1 1) rotate(0) translate(4 1280.5)">
<title>HoTT_Cubical_PathCube</title>
<polygon fill="white" stroke="transparent" points="-4,4 -4,-1280.5 2575.43,-1280.5 2575.43,4 -4,4"/>
<g id="clust1" class="cluster">
<title>cluster_PathCube</title>
<polygon fill="#ffffc3" stroke="black" points="19.99,-16.94 19.99,-1259.56 2556.99,-1259.56 2556.99,-16.94 19.99,-16.94"/>
<text text-anchor="middle" x="62.99" y="-1244.36" font-family="Times,serif" font-size="14.00">PathCube</text>
</g>
<!-- PathCube_cu_ap -->
<g id="node1" class="node">
<title>PathCube_cu_ap</title>
<g id="a_node1"><a xlink:href="PathCube.html#cu_ap" xlink:title="cu_ap">
<ellipse fill="#f070d1" stroke="black" cx="296.99" cy="-240.94" rx="37.09" ry="18"/>
<ellipse fill="none" stroke="black" cx="296.99" cy="-240.94" rx="41.09" ry="22"/>
<ellipse fill="none" stroke="black" cx="296.99" cy="-240.94" rx="45.09" ry="26"/>
<text text-anchor="middle" x="296.99" y="-237.24" font-family="Times,serif" font-size="14.00">cu_ap</text>
</a>
</g>
</g>
<!-- PathCube_idcube -->
<g id="node41" class="node">
<title>PathCube_idcube</title>
<g id="a_node41"><a xlink:href="PathCube.html#idcube" xlink:title="idcube">
<ellipse fill="#7faaff" stroke="black" cx="1263.99" cy="-71.94" rx="41.69" ry="18"/>
<text text-anchor="middle" x="1263.99" y="-68.24" font-family="Times,serif" font-size="14.00">idcube</text>
</a>
</g>
</g>
<!-- PathCube_cu_ap&#45;&gt;PathCube_idcube -->
<g id="edge1" class="edge">
<title>PathCube_cu_ap&#45;&gt;PathCube_idcube</title>
<path fill="none" stroke="black" d="M329.83,-222.97C336.69,-219.93 343.97,-217.06 350.99,-214.94 670.03,-118.36 1072.69,-85.01 1213.01,-75.87"/>
<polygon fill="black" stroke="black" points="1213.29,-79.36 1223.04,-75.23 1212.84,-72.37 1213.29,-79.36"/>
</g>
<!-- PathCube_PathCube -->
<g id="node42" class="node">
<title>PathCube_PathCube</title>
<g id="a_node42"><a xlink:href="PathCube.html#PathCube" xlink:title="PathCube">
<ellipse fill="#e2cdfa" stroke="black" cx="849.99" cy="-71.94" rx="55.79" ry="18"/>
<text text-anchor="middle" x="849.99" y="-68.24" font-family="Times,serif" font-size="14.00">PathCube</text>
</a>
</g>
</g>
<!-- PathCube_cu_ap&#45;&gt;PathCube_PathCube -->
<g id="edge2" class="edge">
<title>PathCube_cu_ap&#45;&gt;PathCube_PathCube</title>
<path fill="none" stroke="black" d="M330.63,-223.38C337.3,-220.38 344.3,-217.42 350.99,-214.94 509.29,-156.18 703.34,-107.33 795.89,-85.38"/>
<polygon fill="black" stroke="black" points="796.93,-88.73 805.86,-83.03 795.33,-81.92 796.93,-88.73"/>
</g>
<!-- PathCube_sq_ap_uncurry -->
<g id="node2" class="node">
<title>PathCube_sq_ap_uncurry</title>
<g id="a_node2"><a xlink:href="PathCube.html#sq_ap_uncurry" xlink:title="sq_ap_uncurry">
<ellipse fill="#f070d1" stroke="black" cx="1919.99" cy="-240.94" rx="77.99" ry="18"/>
<ellipse fill="none" stroke="black" cx="1919.99" cy="-240.94" rx="81.99" ry="22"/>
<ellipse fill="none" stroke="black" cx="1919.99" cy="-240.94" rx="85.99" ry="26"/>
<text text-anchor="middle" x="1919.99" y="-237.24" font-family="Times,serif" font-size="14.00">sq_ap_uncurry</text>
</a>
</g>
</g>
<!-- PathCube_sq_ap_uncurry&#45;&gt;PathCube_idcube -->
<g id="edge3" class="edge">
<title>PathCube_sq_ap_uncurry&#45;&gt;PathCube_idcube</title>
<path fill="none" stroke="black" d="M1856.9,-223.24C1846.25,-220.45 1835.31,-217.6 1824.99,-214.94 1633.28,-165.45 1404.28,-108 1309.01,-84.18"/>
<polygon fill="black" stroke="black" points="1309.68,-80.74 1299.13,-81.71 1307.99,-87.53 1309.68,-80.74"/>
</g>
<!-- PathCube_sq_ap_uncurry&#45;&gt;PathCube_PathCube -->
<g id="edge4" class="edge">
<title>PathCube_sq_ap_uncurry&#45;&gt;PathCube_PathCube</title>
<path fill="none" stroke="black" d="M1858.65,-222.71C1847.5,-219.89 1835.93,-217.17 1824.99,-214.94 1483.36,-145.34 1067.69,-96.55 912.42,-79.56"/>
<polygon fill="black" stroke="black" points="912.46,-76.04 902.14,-78.43 911.7,-83 912.46,-76.04"/>
</g>
<!-- PathCube_sq_ap_nat -->
<g id="node3" class="node">
<title>PathCube_sq_ap_nat</title>
<g id="a_node3"><a xlink:href="PathCube.html#sq_ap_nat" xlink:title="sq_ap_nat">
<ellipse fill="#f070d1" stroke="black" cx="1750.99" cy="-240.94" rx="56.58" ry="18"/>
<ellipse fill="none" stroke="black" cx="1750.99" cy="-240.94" rx="60.59" ry="22"/>
<ellipse fill="none" stroke="black" cx="1750.99" cy="-240.94" rx="64.59" ry="26"/>
<text text-anchor="middle" x="1750.99" y="-237.24" font-family="Times,serif" font-size="14.00">sq_ap_nat</text>
</a>
</g>
</g>
<!-- PathCube_sq_ap_nat&#45;&gt;PathCube_idcube -->
<g id="edge5" class="edge">
<title>PathCube_sq_ap_nat&#45;&gt;PathCube_idcube</title>
<path fill="none" stroke="black" d="M1702.96,-223.47C1607.32,-190.67 1394.58,-117.72 1305,-87"/>
<polygon fill="black" stroke="black" points="1306.05,-83.66 1295.46,-83.73 1303.78,-90.28 1306.05,-83.66"/>
</g>
<!-- PathCube_sq_ap_nat&#45;&gt;PathCube_PathCube -->
<g id="edge6" class="edge">
<title>PathCube_sq_ap_nat&#45;&gt;PathCube_PathCube</title>
<path fill="none" stroke="black" d="M1704.34,-222.95C1695.34,-220.02 1685.93,-217.2 1676.99,-214.94 1395.24,-143.62 1050.36,-97.21 911.87,-80.21"/>
<polygon fill="black" stroke="black" points="912.21,-76.73 901.86,-78.99 911.37,-83.67 912.21,-76.73"/>
</g>
<!-- PathCube_sq_ap_idmap -->
<g id="node4" class="node">
<title>PathCube_sq_ap_idmap</title>
<g id="a_node4"><a xlink:href="PathCube.html#sq_ap_idmap" xlink:title="sq_ap_idmap">
<ellipse fill="#f070d1" stroke="black" cx="1589.99" cy="-240.94" rx="70.37" ry="18"/>
<ellipse fill="none" stroke="black" cx="1589.99" cy="-240.94" rx="74.38" ry="22"/>
<ellipse fill="none" stroke="black" cx="1589.99" cy="-240.94" rx="78.39" ry="26"/>
<text text-anchor="middle" x="1589.99" y="-237.24" font-family="Times,serif" font-size="14.00">sq_ap_idmap</text>
</a>
</g>
</g>
<!-- PathCube_sq_ap_idmap&#45;&gt;PathCube_idcube -->
<g id="edge7" class="edge">
<title>PathCube_sq_ap_idmap&#45;&gt;PathCube_idcube</title>
<path fill="none" stroke="black" d="M1548.7,-218.78C1483.97,-185.63 1359.75,-121.99 1299.08,-90.91"/>
<polygon fill="black" stroke="black" points="1300.4,-87.66 1289.9,-86.21 1297.21,-93.89 1300.4,-87.66"/>
</g>
<!-- PathCube_sq_ap_idmap&#45;&gt;PathCube_PathCube -->
<g id="edge8" class="edge">
<title>PathCube_sq_ap_idmap&#45;&gt;PathCube_PathCube</title>
<path fill="none" stroke="black" d="M1533.04,-222.99C1523.05,-220.19 1512.74,-217.39 1502.99,-214.94 1283.76,-159.67 1019.92,-106.26 906.41,-83.9"/>
<polygon fill="black" stroke="black" points="907.03,-80.46 896.55,-81.97 905.68,-87.33 907.03,-80.46"/>
</g>
<!-- PathCube_sq_ap_compose -->
<g id="node5" class="node">
<title>PathCube_sq_ap_compose</title>
<g id="a_node5"><a xlink:href="PathCube.html#sq_ap_compose" xlink:title="sq_ap_compose">
<ellipse fill="#f070d1" stroke="black" cx="1263.99" cy="-240.94" rx="81.8" ry="18"/>
<ellipse fill="none" stroke="black" cx="1263.99" cy="-240.94" rx="85.79" ry="22"/>
<ellipse fill="none" stroke="black" cx="1263.99" cy="-240.94" rx="89.79" ry="26"/>
<text text-anchor="middle" x="1263.99" y="-237.24" font-family="Times,serif" font-size="14.00">sq_ap_compose</text>
</a>
</g>
</g>
<!-- PathCube_sq_ap_compose&#45;&gt;PathCube_idcube -->
<g id="edge9" class="edge">
<title>PathCube_sq_ap_compose&#45;&gt;PathCube_idcube</title>
<path fill="none" stroke="black" d="M1263.99,-214.93C1263.99,-184.17 1263.99,-132.11 1263.99,-100.29"/>
<polygon fill="black" stroke="black" points="1267.49,-99.96 1263.99,-89.96 1260.49,-99.96 1267.49,-99.96"/>
</g>
<!-- PathCube_sq_ap_compose&#45;&gt;PathCube_PathCube -->
<g id="edge10" class="edge">
<title>PathCube_sq_ap_compose&#45;&gt;PathCube_PathCube</title>
<path fill="none" stroke="black" d="M1213.22,-219.46C1130.91,-186.26 969.82,-121.27 892.88,-90.24"/>
<polygon fill="black" stroke="black" points="894.07,-86.94 883.48,-86.45 891.45,-93.43 894.07,-86.94"/>
</g>
<!-- PathCube_cu_concat_lr -->
<g id="node6" class="node">
<title>PathCube_cu_concat_lr</title>
<g id="a_node6"><a xlink:href="PathCube.html#cu_concat_lr" xlink:title="cu_concat_lr">
<ellipse fill="#f070d1" stroke="black" cx="764.99" cy="-240.94" rx="67.68" ry="18"/>
<ellipse fill="none" stroke="black" cx="764.99" cy="-240.94" rx="71.68" ry="22"/>
<ellipse fill="none" stroke="black" cx="764.99" cy="-240.94" rx="75.69" ry="26"/>
<text text-anchor="middle" x="764.99" y="-237.24" font-family="Times,serif" font-size="14.00">cu_concat_lr</text>
</a>
</g>
</g>
<!-- PathCube_cu_concat_lr&#45;&gt;PathCube_idcube -->
<g id="edge11" class="edge">
<title>PathCube_cu_concat_lr&#45;&gt;PathCube_idcube</title>
<path fill="none" stroke="black" d="M817.92,-222.22C917.76,-188.81 1132,-117.11 1222.39,-86.86"/>
<polygon fill="black" stroke="black" points="1223.65,-90.13 1232.02,-83.63 1221.43,-83.49 1223.65,-90.13"/>
</g>
<!-- PathCube_cu_concat_lr&#45;&gt;PathCube_PathCube -->
<g id="edge12" class="edge">
<title>PathCube_cu_concat_lr&#45;&gt;PathCube_PathCube</title>
<path fill="none" stroke="black" d="M777.53,-215.29C793.35,-184.21 820.43,-131 836.63,-99.18"/>
<polygon fill="black" stroke="black" points="839.87,-100.54 841.28,-90.04 833.63,-97.36 839.87,-100.54"/>
</g>
<!-- PathCube_cu_fill_back -->
<g id="node7" class="node">
<title>PathCube_cu_fill_back</title>
<g id="a_node7"><a xlink:href="PathCube.html#cu_fill_back" xlink:title="cu_fill_back">
<ellipse fill="#f070d1" stroke="black" cx="932.99" cy="-1138.94" rx="63.87" ry="18"/>
<ellipse fill="none" stroke="black" cx="932.99" cy="-1138.94" rx="67.88" ry="22"/>
<ellipse fill="none" stroke="black" cx="932.99" cy="-1138.94" rx="71.89" ry="26"/>
<text text-anchor="middle" x="932.99" y="-1135.24" font-family="Times,serif" font-size="14.00">cu_fill_back</text>
</a>
</g>
</g>
<!-- PathCube_cu_fill_right -->
<g id="node11" class="node">
<title>PathCube_cu_fill_right</title>
<g id="a_node11"><a xlink:href="PathCube.html#cu_fill_right" xlink:title="cu_fill_right">
<ellipse fill="#f070d1" stroke="black" cx="811.99" cy="-952.94" rx="64.99" ry="18"/>
<text text-anchor="middle" x="811.99" y="-949.24" font-family="Times,serif" font-size="14.00">cu_fill_right</text>
</a>
</g>
</g>
<!-- PathCube_cu_fill_back&#45;&gt;PathCube_cu_fill_right -->
<g id="edge13" class="edge">
<title>PathCube_cu_fill_back&#45;&gt;PathCube_cu_fill_right</title>
<path fill="none" stroke="black" d="M916.92,-1113.5C894.02,-1078.68 852.2,-1015.09 828.87,-979.6"/>
<polygon fill="black" stroke="black" points="831.5,-977.24 823.08,-970.81 825.65,-981.08 831.5,-977.24"/>
</g>
<!-- PathCube_equiv_cu_rot_tb_fb -->
<g id="node22" class="node">
<title>PathCube_equiv_cu_rot_tb_fb</title>
<g id="a_node22"><a xlink:href="PathCube.html#equiv_cu_rot_tb_fb" xlink:title="equiv_cu_rot_tb_fb">
<ellipse fill="#f070d1" stroke="black" cx="1217.99" cy="-765.94" rx="96.68" ry="18"/>
<text text-anchor="middle" x="1217.99" y="-762.24" font-family="Times,serif" font-size="14.00">equiv_cu_rot_tb_fb</text>
</a>
</g>
</g>
<!-- PathCube_cu_fill_back&#45;&gt;PathCube_equiv_cu_rot_tb_fb -->
<g id="edge14" class="edge">
<title>PathCube_cu_fill_back&#45;&gt;PathCube_equiv_cu_rot_tb_fb</title>
<path fill="none" stroke="black" d="M987.25,-1121.91C1049.65,-1100.37 1149.65,-1055.65 1197.99,-978.94 1216.94,-948.85 1218.7,-844.25 1218.41,-794.13"/>
<polygon fill="black" stroke="black" points="1221.91,-793.99 1218.31,-784.03 1214.91,-794.06 1221.91,-793.99"/>
</g>
<!-- PathCube_cu_fill_front -->
<g id="node8" class="node">
<title>PathCube_cu_fill_front</title>
<g id="a_node8"><a xlink:href="PathCube.html#cu_fill_front" xlink:title="cu_fill_front">
<ellipse fill="#f070d1" stroke="black" cx="1115.99" cy="-952.94" rx="64.99" ry="18"/>
<ellipse fill="none" stroke="black" cx="1115.99" cy="-952.94" rx="68.99" ry="22"/>
<ellipse fill="none" stroke="black" cx="1115.99" cy="-952.94" rx="72.99" ry="26"/>
<text text-anchor="middle" x="1115.99" y="-949.24" font-family="Times,serif" font-size="14.00">cu_fill_front</text>
</a>
</g>
</g>
<!-- PathCube_cu_fill_left -->
<g id="node12" class="node">
<title>PathCube_cu_fill_left</title>
<g id="a_node12"><a xlink:href="PathCube.html#cu_fill_left" xlink:title="cu_fill_left">
<ellipse fill="#f070d1" stroke="black" cx="659.99" cy="-765.94" rx="57.69" ry="18"/>
<text text-anchor="middle" x="659.99" y="-762.24" font-family="Times,serif" font-size="14.00">cu_fill_left</text>
</a>
</g>
</g>
<!-- PathCube_cu_fill_front&#45;&gt;PathCube_cu_fill_left -->
<g id="edge15" class="edge">
<title>PathCube_cu_fill_front&#45;&gt;PathCube_cu_fill_left</title>
<path fill="none" stroke="black" d="M1068.9,-932.83C980.06,-896.79 788.91,-819.24 703.16,-784.45"/>
<polygon fill="black" stroke="black" points="704.31,-781.14 693.73,-780.62 701.68,-787.63 704.31,-781.14"/>
</g>
<!-- PathCube_cu_fill_front&#45;&gt;PathCube_equiv_cu_rot_tb_fb -->
<g id="edge16" class="edge">
<title>PathCube_cu_fill_front&#45;&gt;PathCube_equiv_cu_rot_tb_fb</title>
<path fill="none" stroke="black" d="M1129.53,-927.37C1148.83,-892.36 1184.09,-828.42 1203.76,-792.74"/>
<polygon fill="black" stroke="black" points="1206.87,-794.34 1208.63,-783.9 1200.74,-790.96 1206.87,-794.34"/>
</g>
<!-- PathCube_cu_fill_bottom -->
<g id="node9" class="node">
<title>PathCube_cu_fill_bottom</title>
<g id="a_node9"><a xlink:href="PathCube.html#cu_fill_bottom" xlink:title="cu_fill_bottom">
<ellipse fill="#f070d1" stroke="black" cx="1227.99" cy="-1138.94" rx="75.3" ry="18"/>
<ellipse fill="none" stroke="black" cx="1227.99" cy="-1138.94" rx="79.29" ry="22"/>
<ellipse fill="none" stroke="black" cx="1227.99" cy="-1138.94" rx="83.29" ry="26"/>
<text text-anchor="middle" x="1227.99" y="-1135.24" font-family="Times,serif" font-size="14.00">cu_fill_bottom</text>
</a>
</g>
</g>
<!-- PathCube_cu_fill_bottom&#45;&gt;PathCube_cu_fill_right -->
<g id="edge17" class="edge">
<title>PathCube_cu_fill_bottom&#45;&gt;PathCube_cu_fill_right</title>
<path fill="none" stroke="black" d="M1181.07,-1117.19C1099.57,-1081.13 933.02,-1007.47 854.61,-972.79"/>
<polygon fill="black" stroke="black" points="855.6,-969.4 845.04,-968.56 852.77,-975.8 855.6,-969.4"/>
</g>
<!-- PathCube_cu_fill_bottom&#45;&gt;PathCube_equiv_cu_rot_tb_fb -->
<g id="edge18" class="edge">
<title>PathCube_cu_fill_bottom&#45;&gt;PathCube_equiv_cu_rot_tb_fb</title>
<path fill="none" stroke="black" d="M1227.31,-1112.73C1225.5,-1045.69 1220.59,-863.45 1218.72,-794.16"/>
<polygon fill="black" stroke="black" points="1222.22,-793.95 1218.45,-784.05 1215.22,-794.14 1222.22,-793.95"/>
</g>
<!-- PathCube_equiv_cu_cGcccc -->
<g id="node32" class="node">
<title>PathCube_equiv_cu_cGcccc</title>
<g id="a_node32"><a xlink:href="PathCube.html#equiv_cu_cGcccc" xlink:title="equiv_cu_cGcccc">
<ellipse fill="#f070d1" stroke="black" cx="2151.99" cy="-765.94" rx="87.18" ry="18"/>
<text text-anchor="middle" x="2151.99" y="-762.24" font-family="Times,serif" font-size="14.00">equiv_cu_cGcccc</text>
</a>
</g>
</g>
<!-- PathCube_cu_fill_bottom&#45;&gt;PathCube_equiv_cu_cGcccc -->
<g id="edge19" class="edge">
<title>PathCube_cu_fill_bottom&#45;&gt;PathCube_equiv_cu_cGcccc</title>
<path fill="none" stroke="black" d="M1277.25,-1117.92C1369.81,-1080.34 1576.03,-996.71 1749.99,-926.94 1877.59,-875.75 2028.22,-815.97 2103.73,-786.05"/>
<polygon fill="black" stroke="black" points="2105.43,-789.14 2113.43,-782.2 2102.85,-782.63 2105.43,-789.14"/>
</g>
<!-- PathCube_cu_fill_top -->
<g id="node10" class="node">
<title>PathCube_cu_fill_top</title>
<g id="a_node10"><a xlink:href="PathCube.html#cu_fill_top" xlink:title="cu_fill_top">
<ellipse fill="#f070d1" stroke="black" cx="959.99" cy="-952.94" rx="57.37" ry="18"/>
<ellipse fill="none" stroke="black" cx="959.99" cy="-952.94" rx="61.38" ry="22"/>
<ellipse fill="none" stroke="black" cx="959.99" cy="-952.94" rx="65.39" ry="26"/>
<text text-anchor="middle" x="959.99" y="-949.24" font-family="Times,serif" font-size="14.00">cu_fill_top</text>
</a>
</g>
</g>
<!-- PathCube_cu_fill_top&#45;&gt;PathCube_cu_fill_left -->
<g id="edge20" class="edge">
<title>PathCube_cu_fill_top&#45;&gt;PathCube_cu_fill_left</title>
<path fill="none" stroke="black" d="M925.57,-930.71C867.57,-894.95 751.08,-823.11 693.61,-787.67"/>
<polygon fill="black" stroke="black" points="695.26,-784.58 684.92,-782.31 691.59,-790.54 695.26,-784.58"/>
</g>
<!-- PathCube_cu_fill_top&#45;&gt;PathCube_equiv_cu_rot_tb_fb -->
<g id="edge21" class="edge">
<title>PathCube_cu_fill_top&#45;&gt;PathCube_equiv_cu_rot_tb_fb</title>
<path fill="none" stroke="black" d="M990.85,-929.8C1040.29,-894.35 1136.72,-825.21 1186.53,-789.49"/>
<polygon fill="black" stroke="black" points="1188.6,-792.31 1194.69,-783.64 1184.52,-786.62 1188.6,-792.31"/>
</g>
<!-- PathCube_equiv_cu_Gccccc -->
<g id="node33" class="node">
<title>PathCube_equiv_cu_Gccccc</title>
<g id="a_node33"><a xlink:href="PathCube.html#equiv_cu_Gccccc" xlink:title="equiv_cu_Gccccc">
<ellipse fill="#f070d1" stroke="black" cx="822.99" cy="-765.94" rx="87.18" ry="18"/>
<text text-anchor="middle" x="822.99" y="-762.24" font-family="Times,serif" font-size="14.00">equiv_cu_Gccccc</text>
</a>
</g>
</g>
<!-- PathCube_cu_fill_top&#45;&gt;PathCube_equiv_cu_Gccccc -->
<g id="edge22" class="edge">
<title>PathCube_cu_fill_top&#45;&gt;PathCube_equiv_cu_Gccccc</title>
<path fill="none" stroke="black" d="M942.08,-927.75C916.13,-892.72 868.32,-828.15 841.85,-792.41"/>
<polygon fill="black" stroke="black" points="844.37,-789.93 835.61,-783.98 838.75,-794.1 844.37,-789.93"/>
</g>
<!-- PathCube_cu_fill_right&#45;&gt;PathCube_cu_fill_left -->
<g id="edge23" class="edge">
<title>PathCube_cu_fill_right&#45;&gt;PathCube_cu_fill_left</title>
<path fill="none" stroke="black" d="M798.23,-935.19C771.33,-902.45 711.63,-829.8 680.22,-791.56"/>
<polygon fill="black" stroke="black" points="682.66,-789.01 673.6,-783.51 677.25,-793.46 682.66,-789.01"/>
</g>
<!-- PathCube_equiv_cu_flip_lr -->
<g id="node13" class="node">
<title>PathCube_equiv_cu_flip_lr</title>
<g id="a_node13"><a xlink:href="PathCube.html#equiv_cu_flip_lr" xlink:title="equiv_cu_flip_lr">
<ellipse fill="#f070d1" stroke="black" cx="1009.99" cy="-765.94" rx="81.79" ry="18"/>
<text text-anchor="middle" x="1009.99" y="-762.24" font-family="Times,serif" font-size="14.00">equiv_cu_flip_lr</text>
</a>
</g>
</g>
<!-- PathCube_cu_fill_right&#45;&gt;PathCube_equiv_cu_flip_lr -->
<g id="edge24" class="edge">
<title>PathCube_cu_fill_right&#45;&gt;PathCube_equiv_cu_flip_lr</title>
<path fill="none" stroke="black" d="M829.56,-935.52C864.77,-902.62 944.07,-828.52 984.8,-790.47"/>
<polygon fill="black" stroke="black" points="987.25,-792.97 992.17,-783.58 982.47,-787.85 987.25,-792.97"/>
</g>
<!-- PathCube_cu_fill_left&#45;&gt;PathCube_idcube -->
<g id="edge25" class="edge">
<title>PathCube_cu_fill_left&#45;&gt;PathCube_idcube</title>
<path fill="none" stroke="black" d="M602.17,-764.49C426.17,-761.16 -82.33,-735.94 63.99,-553.94 272.7,-294.32 467.12,-445.92 795.99,-392.94 1064.85,-349.62 1832.59,-469.16 2014.99,-266.94 2030.47,-249.77 2029.73,-232.73 2014.99,-214.94 1925.4,-106.82 1470.67,-80.41 1315.76,-74.51"/>
<polygon fill="black" stroke="black" points="1315.68,-71 1305.56,-74.13 1315.43,-78 1315.68,-71"/>
</g>
<!-- PathCube_cu_fill_left&#45;&gt;PathCube_PathCube -->
<g id="edge26" class="edge">
<title>PathCube_cu_fill_left&#45;&gt;PathCube_PathCube</title>
<path fill="none" stroke="black" d="M606.22,-759.29C469.47,-743.7 114.23,-695.25 43.99,-605.94 -9.73,-537.63 -16.91,-281.47 38.99,-214.94 134.38,-101.39 607.91,-78.62 783.94,-74.07"/>
<polygon fill="black" stroke="black" points="784.19,-77.56 794.1,-73.82 784.02,-70.57 784.19,-77.56"/>
</g>
<!-- PathCube_equiv_cu_GG1 -->
<g id="node18" class="node">
<title>PathCube_equiv_cu_GG1</title>
<g id="a_node18"><a xlink:href="PathCube.html#equiv_cu_GG1" xlink:title="equiv_cu_GG1">
<ellipse fill="#f070d1" stroke="black" cx="2056.99" cy="-579.94" rx="76.09" ry="18"/>
<text text-anchor="middle" x="2056.99" y="-576.24" font-family="Times,serif" font-size="14.00">equiv_cu_GG1</text>
</a>
</g>
</g>
<!-- PathCube_equiv_cu_flip_lr&#45;&gt;PathCube_equiv_cu_GG1 -->
<g id="edge27" class="edge">
<title>PathCube_equiv_cu_flip_lr&#45;&gt;PathCube_equiv_cu_GG1</title>
<path fill="none" stroke="black" d="M1060.39,-751.71C1076.78,-747.65 1095.1,-743.35 1111.99,-739.94 1482.56,-665.1 1581.17,-679.55 1951.99,-605.94 1966.7,-603.02 1982.47,-599.48 1997.21,-595.99"/>
<polygon fill="black" stroke="black" points="1998.31,-599.33 2007.22,-593.6 1996.68,-592.52 1998.31,-599.33"/>
</g>
<!-- PathCube_equiv_cu_GGcccc -->
<g id="node25" class="node">
<title>PathCube_equiv_cu_GGcccc</title>
<g id="a_node25"><a xlink:href="PathCube.html#equiv_cu_GGcccc" xlink:title="equiv_cu_GGcccc">
<ellipse fill="#f070d1" stroke="black" cx="593.99" cy="-579.94" rx="89.88" ry="18"/>
<text text-anchor="middle" x="593.99" y="-576.24" font-family="Times,serif" font-size="14.00">equiv_cu_GGcccc</text>
</a>
</g>
</g>
<!-- PathCube_equiv_cu_flip_lr&#45;&gt;PathCube_equiv_cu_GGcccc -->
<g id="edge28" class="edge">
<title>PathCube_equiv_cu_flip_lr&#45;&gt;PathCube_equiv_cu_GGcccc</title>
<path fill="none" stroke="black" d="M975.23,-749.56C899.93,-716.26 721.78,-637.46 638.43,-600.59"/>
<polygon fill="black" stroke="black" points="639.79,-597.37 629.23,-596.52 636.96,-603.77 639.79,-597.37"/>
</g>
<!-- PathCube_equiv_cu_GGGGcc -->
<g id="node26" class="node">
<title>PathCube_equiv_cu_GGGGcc</title>
<g id="a_node26"><a xlink:href="PathCube.html#equiv_cu_GGGGcc" xlink:title="equiv_cu_GGGGcc">
<ellipse fill="#f070d1" stroke="black" cx="1009.99" cy="-579.94" rx="94.78" ry="18"/>
<text text-anchor="middle" x="1009.99" y="-576.24" font-family="Times,serif" font-size="14.00">equiv_cu_GGGGcc</text>
</a>
</g>
</g>
<!-- PathCube_equiv_cu_flip_lr&#45;&gt;PathCube_equiv_cu_GGGGcc -->
<g id="edge29" class="edge">
<title>PathCube_equiv_cu_flip_lr&#45;&gt;PathCube_equiv_cu_GGGGcc</title>
<path fill="none" stroke="black" d="M1009.99,-747.63C1009.99,-715.63 1009.99,-646.98 1009.99,-608.51"/>
<polygon fill="black" stroke="black" points="1013.49,-608.07 1009.99,-598.07 1006.49,-608.07 1013.49,-608.07"/>
</g>
<!-- PathCube_equiv_dp_cu -->
<g id="node14" class="node">
<title>PathCube_equiv_dp_cu</title>
<g id="a_node14"><a xlink:href="PathCube.html#equiv_dp_cu" xlink:title="equiv_dp_cu">
<ellipse fill="#f070d1" stroke="black" cx="2246.99" cy="-579.94" rx="67.68" ry="18"/>
<ellipse fill="none" stroke="black" cx="2246.99" cy="-579.94" rx="71.68" ry="22"/>
<ellipse fill="none" stroke="black" cx="2246.99" cy="-579.94" rx="75.69" ry="26"/>
<text text-anchor="middle" x="2246.99" y="-576.24" font-family="Times,serif" font-size="14.00">equiv_dp_cu</text>
</a>
</g>
</g>
<!-- PathCube_equiv_cu_G11 -->
<g id="node21" class="node">
<title>PathCube_equiv_cu_G11</title>
<g id="a_node21"><a xlink:href="PathCube.html#equiv_cu_G11" xlink:title="equiv_cu_G11">
<ellipse fill="#f070d1" stroke="black" cx="2335.99" cy="-410.94" rx="74.99" ry="18"/>
<text text-anchor="middle" x="2335.99" y="-407.24" font-family="Times,serif" font-size="14.00">equiv_cu_G11</text>
</a>
</g>
</g>
<!-- PathCube_equiv_dp_cu&#45;&gt;PathCube_equiv_cu_G11 -->
<g id="edge30" class="edge">
<title>PathCube_equiv_dp_cu&#45;&gt;PathCube_equiv_cu_G11</title>
<path fill="none" stroke="black" d="M2260.12,-554.29C2276.68,-523.21 2305.04,-470 2322,-438.18"/>
<polygon fill="black" stroke="black" points="2325.26,-439.51 2326.87,-429.04 2319.08,-436.22 2325.26,-439.51"/>
</g>
<!-- PathCube_equiv_cu_ds -->
<g id="node15" class="node">
<title>PathCube_equiv_cu_ds</title>
<g id="a_node15"><a xlink:href="PathCube.html#equiv_cu_ds" xlink:title="equiv_cu_ds">
<ellipse fill="#f070d1" stroke="black" cx="1972.99" cy="-765.94" rx="66.11" ry="18"/>
<ellipse fill="none" stroke="black" cx="1972.99" cy="-765.94" rx="70.1" ry="22"/>
<ellipse fill="none" stroke="black" cx="1972.99" cy="-765.94" rx="74.09" ry="26"/>
<text text-anchor="middle" x="1972.99" y="-762.24" font-family="Times,serif" font-size="14.00">equiv_cu_ds</text>
</a>
</g>
</g>
<!-- PathCube_equiv_cu_ds&#45;&gt;PathCube_equiv_cu_GG1 -->
<g id="edge31" class="edge">
<title>PathCube_equiv_cu_ds&#45;&gt;PathCube_equiv_cu_GG1</title>
<path fill="none" stroke="black" d="M1984.32,-740.12C2000.16,-705.42 2028.8,-642.68 2044.99,-607.21"/>
<polygon fill="black" stroke="black" points="2048.24,-608.53 2049.21,-597.98 2041.87,-605.62 2048.24,-608.53"/>
</g>
<!-- PathCube_equiv_cu_G1G -->
<g id="node16" class="node">
<title>PathCube_equiv_cu_G1G</title>
<g id="a_node16"><a xlink:href="PathCube.html#equiv_cu_G1G" xlink:title="equiv_cu_G1G">
<ellipse fill="#f070d1" stroke="black" cx="2424.99" cy="-579.94" rx="76.08" ry="18"/>
<ellipse fill="none" stroke="black" cx="2424.99" cy="-579.94" rx="80.08" ry="22"/>
<ellipse fill="none" stroke="black" cx="2424.99" cy="-579.94" rx="84.09" ry="26"/>
<text text-anchor="middle" x="2424.99" y="-576.24" font-family="Times,serif" font-size="14.00">equiv_cu_G1G</text>
</a>
</g>
</g>
<!-- PathCube_equiv_cu_G1G&#45;&gt;PathCube_equiv_cu_G11 -->
<g id="edge32" class="edge">
<title>PathCube_equiv_cu_G1G&#45;&gt;PathCube_equiv_cu_G11</title>
<path fill="none" stroke="black" d="M2411.66,-553.93C2395.05,-522.76 2366.79,-469.74 2349.91,-438.06"/>
<polygon fill="black" stroke="black" points="2352.85,-436.13 2345.06,-428.96 2346.67,-439.43 2352.85,-436.13"/>
</g>
<!-- PathCube_equiv_cu_1GG -->
<g id="node17" class="node">
<title>PathCube_equiv_cu_1GG</title>
<g id="a_node17"><a xlink:href="PathCube.html#equiv_cu_1GG" xlink:title="equiv_cu_1GG">
<ellipse fill="#f070d1" stroke="black" cx="1833.99" cy="-1138.94" rx="76.08" ry="18"/>
<ellipse fill="none" stroke="black" cx="1833.99" cy="-1138.94" rx="80.08" ry="22"/>
<ellipse fill="none" stroke="black" cx="1833.99" cy="-1138.94" rx="84.09" ry="26"/>
<text text-anchor="middle" x="1833.99" y="-1135.24" font-family="Times,serif" font-size="14.00">equiv_cu_1GG</text>
</a>
</g>
</g>
<!-- PathCube_equiv_cu_11G -->
<g id="node19" class="node">
<title>PathCube_equiv_cu_11G</title>
<g id="a_node19"><a xlink:href="PathCube.html#equiv_cu_11G" xlink:title="equiv_cu_11G">
<ellipse fill="#f070d1" stroke="black" cx="1833.99" cy="-952.94" rx="74.99" ry="18"/>
<text text-anchor="middle" x="1833.99" y="-949.24" font-family="Times,serif" font-size="14.00">equiv_cu_11G</text>
</a>
</g>
</g>
<!-- PathCube_equiv_cu_1GG&#45;&gt;PathCube_equiv_cu_11G -->
<g id="edge33" class="edge">
<title>PathCube_equiv_cu_1GG&#45;&gt;PathCube_equiv_cu_11G</title>
<path fill="none" stroke="black" d="M1833.99,-1112.74C1833.99,-1078.31 1833.99,-1016.8 1833.99,-981.28"/>
<polygon fill="black" stroke="black" points="1837.49,-981.15 1833.99,-971.15 1830.49,-981.15 1837.49,-981.15"/>
</g>
<!-- PathCube_equiv_cu_GG1&#45;&gt;PathCube_equiv_cu_G11 -->
<g id="edge34" class="edge">
<title>PathCube_equiv_cu_GG1&#45;&gt;PathCube_equiv_cu_G11</title>
<path fill="none" stroke="black" d="M2083.74,-562.92C2134.36,-532.62 2244.14,-466.91 2300.71,-433.05"/>
<polygon fill="black" stroke="black" points="2302.53,-436.04 2309.32,-427.9 2298.94,-430.03 2302.53,-436.04"/>
</g>
<!-- PathCube_equiv_cu_11G&#45;&gt;PathCube_equiv_cu_G11 -->
<g id="edge35" class="edge">
<title>PathCube_equiv_cu_11G&#45;&gt;PathCube_equiv_cu_G11</title>
<path fill="none" stroke="black" d="M1898.18,-943.63C2043.3,-920.88 2393.65,-842.58 2517.99,-605.94 2557.5,-530.73 2446.25,-463.44 2380.51,-431.51"/>
<polygon fill="black" stroke="black" points="2381.69,-428.2 2371.16,-427.06 2378.69,-434.52 2381.69,-428.2"/>
</g>
<!-- PathCube_equiv_cu_11G&#45;&gt;PathCube_equiv_cu_rot_tb_fb -->
<g id="edge36" class="edge">
<title>PathCube_equiv_cu_11G&#45;&gt;PathCube_equiv_cu_rot_tb_fb</title>
<path fill="none" stroke="black" d="M1789.19,-938.48C1679.75,-905.61 1398.82,-821.24 1276.43,-784.49"/>
<polygon fill="black" stroke="black" points="1277.43,-781.13 1266.84,-781.61 1275.41,-787.84 1277.43,-781.13"/>
</g>
<!-- PathCube_equiv_cu_1G1 -->
<g id="node20" class="node">
<title>PathCube_equiv_cu_1G1</title>
<g id="a_node20"><a xlink:href="PathCube.html#equiv_cu_1G1" xlink:title="equiv_cu_1G1">
<ellipse fill="#f070d1" stroke="black" cx="2241.99" cy="-952.94" rx="74.96" ry="18"/>
<ellipse fill="none" stroke="black" cx="2241.99" cy="-952.94" rx="78.98" ry="22"/>
<ellipse fill="none" stroke="black" cx="2241.99" cy="-952.94" rx="82.99" ry="26"/>
<text text-anchor="middle" x="2241.99" y="-949.24" font-family="Times,serif" font-size="14.00">equiv_cu_1G1</text>
</a>
</g>
</g>
<!-- PathCube_equiv_cu_1G1&#45;&gt;PathCube_equiv_cu_G11 -->
<g id="edge37" class="edge">
<title>PathCube_equiv_cu_1G1&#45;&gt;PathCube_equiv_cu_G11</title>
<path fill="none" stroke="black" d="M2307.17,-936.88C2377.03,-916.88 2484.42,-874.07 2532.99,-791.94 2586.83,-700.89 2581.19,-648.09 2532.99,-553.94 2501.83,-493.07 2431.08,-452.33 2383.41,-430.65"/>
<polygon fill="black" stroke="black" points="2384.76,-427.42 2374.2,-426.56 2381.92,-433.82 2384.76,-427.42"/>
</g>
<!-- PathCube_equiv_cu_1G1&#45;&gt;PathCube_equiv_cu_rot_tb_fb -->
<g id="edge38" class="edge">
<title>PathCube_equiv_cu_1G1&#45;&gt;PathCube_equiv_cu_rot_tb_fb</title>
<path fill="none" stroke="black" d="M2171.6,-939.22C1986.49,-905.78 1487.09,-815.55 1294.85,-780.82"/>
<polygon fill="black" stroke="black" points="1295.3,-777.35 1284.83,-779.01 1294.05,-784.23 1295.3,-777.35"/>
</g>
<!-- PathCube_equiv_cu_path -->
<g id="node38" class="node">
<title>PathCube_equiv_cu_path</title>
<g id="a_node38"><a xlink:href="PathCube.html#equiv_cu_path" xlink:title="equiv_cu_path">
<ellipse fill="#f070d1" stroke="black" cx="934.99" cy="-240.94" rx="76.89" ry="18"/>
<text text-anchor="middle" x="934.99" y="-237.24" font-family="Times,serif" font-size="14.00">equiv_cu_path</text>
</a>
</g>
</g>
<!-- PathCube_equiv_cu_G11&#45;&gt;PathCube_equiv_cu_path -->
<g id="edge39" class="edge">
<title>PathCube_equiv_cu_G11&#45;&gt;PathCube_equiv_cu_path</title>
<path fill="none" stroke="black" d="M2263.33,-406.49C2063.42,-396.07 1488.97,-359.66 1020.99,-266.94 1010.13,-264.78 998.65,-261.89 987.75,-258.85"/>
<polygon fill="black" stroke="black" points="988.51,-255.42 977.93,-256.02 986.57,-262.15 988.51,-255.42"/>
</g>
<!-- PathCube_equiv_cu_rot_tb_fb&#45;&gt;PathCube_equiv_cu_GGGGcc -->
<g id="edge40" class="edge">
<title>PathCube_equiv_cu_rot_tb_fb&#45;&gt;PathCube_equiv_cu_GGGGcc</title>
<path fill="none" stroke="black" d="M1198.79,-747.95C1161.47,-714.94 1079.07,-642.05 1036.54,-604.42"/>
<polygon fill="black" stroke="black" points="1038.64,-601.61 1028.83,-597.61 1034.01,-606.86 1038.64,-601.61"/>
</g>
<!-- PathCube_equiv_cu_ccGGGG -->
<g id="node27" class="node">
<title>PathCube_equiv_cu_ccGGGG</title>
<g id="a_node27"><a xlink:href="PathCube.html#equiv_cu_ccGGGG" xlink:title="equiv_cu_ccGGGG">
<ellipse fill="#f070d1" stroke="black" cx="1217.99" cy="-579.94" rx="94.78" ry="18"/>
<text text-anchor="middle" x="1217.99" y="-576.24" font-family="Times,serif" font-size="14.00">equiv_cu_ccGGGG</text>
</a>
</g>
</g>
<!-- PathCube_equiv_cu_rot_tb_fb&#45;&gt;PathCube_equiv_cu_ccGGGG -->
<g id="edge41" class="edge">
<title>PathCube_equiv_cu_rot_tb_fb&#45;&gt;PathCube_equiv_cu_ccGGGG</title>
<path fill="none" stroke="black" d="M1217.99,-747.63C1217.99,-715.63 1217.99,-646.98 1217.99,-608.51"/>
<polygon fill="black" stroke="black" points="1221.49,-608.07 1217.99,-598.07 1214.49,-608.07 1221.49,-608.07"/>
</g>
<!-- PathCube_equiv_cu_rot_tb_fb&#45;&gt;PathCube_idcube -->
<g id="edge42" class="edge">
<title>PathCube_equiv_cu_rot_tb_fb&#45;&gt;PathCube_idcube</title>
<path fill="none" stroke="black" d="M1304.4,-757.68C1478.13,-741.33 1860.94,-695.82 1951.99,-605.94 1965.74,-592.36 2027.81,-286.14 2029.99,-266.94 2032.59,-243.97 2044.76,-232.7 2029.99,-214.94 1938.26,-104.64 1472.61,-79.63 1315.69,-74.3"/>
<polygon fill="black" stroke="black" points="1315.48,-70.79 1305.37,-73.96 1315.25,-77.79 1315.48,-70.79"/>
</g>
<!-- PathCube_equiv_cu_ccccGG -->
<g id="node23" class="node">
<title>PathCube_equiv_cu_ccccGG</title>
<g id="a_node23"><a xlink:href="PathCube.html#equiv_cu_ccccGG" xlink:title="equiv_cu_ccccGG">
<ellipse fill="#f070d1" stroke="black" cx="1428.99" cy="-579.94" rx="89.87" ry="18"/>
<ellipse fill="none" stroke="black" cx="1428.99" cy="-579.94" rx="93.88" ry="22"/>
<ellipse fill="none" stroke="black" cx="1428.99" cy="-579.94" rx="97.88" ry="26"/>
<text text-anchor="middle" x="1428.99" y="-576.24" font-family="Times,serif" font-size="14.00">equiv_cu_ccccGG</text>
</a>
</g>
</g>
<!-- PathCube_equiv_cu_GGGGGG -->
<g id="node34" class="node">
<title>PathCube_equiv_cu_GGGGGG</title>
<g id="a_node34"><a xlink:href="PathCube.html#equiv_cu_GGGGGG" xlink:title="equiv_cu_GGGGGG">
<ellipse fill="#f070d1" stroke="black" cx="903.99" cy="-410.94" rx="99.38" ry="18"/>
<text text-anchor="middle" x="903.99" y="-407.24" font-family="Times,serif" font-size="14.00">equiv_cu_GGGGGG</text>
</a>
</g>
</g>
<!-- PathCube_equiv_cu_ccccGG&#45;&gt;PathCube_equiv_cu_GGGGGG -->
<g id="edge43" class="edge">
<title>PathCube_equiv_cu_ccccGG&#45;&gt;PathCube_equiv_cu_GGGGGG</title>
<path fill="none" stroke="black" d="M1367.99,-559.53C1265.49,-526.93 1060.14,-461.61 960.63,-429.95"/>
<polygon fill="black" stroke="black" points="961.64,-426.6 951.05,-426.91 959.52,-433.27 961.64,-426.6"/>
</g>
<!-- PathCube_equiv_cu_ccGGcc -->
<g id="node24" class="node">
<title>PathCube_equiv_cu_ccGGcc</title>
<g id="a_node24"><a xlink:href="PathCube.html#equiv_cu_ccGGcc" xlink:title="equiv_cu_ccGGcc">
<ellipse fill="#f070d1" stroke="black" cx="798.99" cy="-579.94" rx="89.87" ry="18"/>
<ellipse fill="none" stroke="black" cx="798.99" cy="-579.94" rx="93.88" ry="22"/>
<ellipse fill="none" stroke="black" cx="798.99" cy="-579.94" rx="97.88" ry="26"/>
<text text-anchor="middle" x="798.99" y="-576.24" font-family="Times,serif" font-size="14.00">equiv_cu_ccGGcc</text>
</a>
</g>
</g>
<!-- PathCube_equiv_cu_ccGGcc&#45;&gt;PathCube_equiv_cu_GGGGGG -->
<g id="edge44" class="edge">
<title>PathCube_equiv_cu_ccGGcc&#45;&gt;PathCube_equiv_cu_GGGGGG</title>
<path fill="none" stroke="black" d="M814.71,-553.93C834.39,-522.63 867.93,-469.28 887.82,-437.65"/>
<polygon fill="black" stroke="black" points="890.93,-439.28 893.29,-428.96 885,-435.56 890.93,-439.28"/>
</g>
<!-- PathCube_equiv_cu_GGcccc&#45;&gt;PathCube_equiv_cu_GGGGGG -->
<g id="edge45" class="edge">
<title>PathCube_equiv_cu_GGcccc&#45;&gt;PathCube_equiv_cu_GGGGGG</title>
<path fill="none" stroke="black" d="M623.71,-562.92C680.04,-532.58 802.31,-466.71 865.08,-432.89"/>
<polygon fill="black" stroke="black" points="866.75,-435.97 873.9,-428.14 863.43,-429.81 866.75,-435.97"/>
</g>
<!-- PathCube_equiv_cu_GGGGcc&#45;&gt;PathCube_equiv_cu_GGGGGG -->
<g id="edge46" class="edge">
<title>PathCube_equiv_cu_GGGGcc&#45;&gt;PathCube_equiv_cu_GGGGGG</title>
<path fill="none" stroke="black" d="M999.24,-562C980.59,-532.62 942.13,-472.03 920.22,-437.5"/>
<polygon fill="black" stroke="black" points="923.08,-435.48 914.76,-428.91 917.17,-439.23 923.08,-435.48"/>
</g>
<!-- PathCube_equiv_cu_ccGGGG&#45;&gt;PathCube_equiv_cu_GGGGGG -->
<g id="edge47" class="edge">
<title>PathCube_equiv_cu_ccGGGG&#45;&gt;PathCube_equiv_cu_GGGGGG</title>
<path fill="none" stroke="black" d="M1187.59,-562.77C1130.38,-532.34 1006.76,-466.59 943.31,-432.85"/>
<polygon fill="black" stroke="black" points="944.87,-429.71 934.4,-428.11 941.58,-435.89 944.87,-429.71"/>
</g>
<!-- PathCube_equiv_cu_cccccG -->
<g id="node28" class="node">
<title>PathCube_equiv_cu_cccccG</title>
<g id="a_node28"><a xlink:href="PathCube.html#equiv_cu_cccccG" xlink:title="equiv_cu_cccccG">
<ellipse fill="#f070d1" stroke="black" cx="390.99" cy="-579.94" rx="87.18" ry="18"/>
<ellipse fill="none" stroke="black" cx="390.99" cy="-579.94" rx="91.18" ry="22"/>
<ellipse fill="none" stroke="black" cx="390.99" cy="-579.94" rx="95.18" ry="26"/>
<text text-anchor="middle" x="390.99" y="-576.24" font-family="Times,serif" font-size="14.00">equiv_cu_cccccG</text>
</a>
</g>
</g>
<!-- PathCube_equiv_cu_cccccG&#45;&gt;PathCube_equiv_cu_GGGGGG -->
<g id="edge48" class="edge">
<title>PathCube_equiv_cu_cccccG&#45;&gt;PathCube_equiv_cu_GGGGGG</title>
<path fill="none" stroke="black" d="M450.34,-559.62C550.29,-527.08 750.83,-461.79 848.28,-430.07"/>
<polygon fill="black" stroke="black" points="849.52,-433.35 857.95,-426.92 847.35,-426.69 849.52,-433.35"/>
</g>
<!-- PathCube_equiv_cu_ccccGc -->
<g id="node29" class="node">
<title>PathCube_equiv_cu_ccccGc</title>
<g id="a_node29"><a xlink:href="PathCube.html#equiv_cu_ccccGc" xlink:title="equiv_cu_ccccGc">
<ellipse fill="#f070d1" stroke="black" cx="182.99" cy="-579.94" rx="87.18" ry="18"/>
<ellipse fill="none" stroke="black" cx="182.99" cy="-579.94" rx="91.18" ry="22"/>
<ellipse fill="none" stroke="black" cx="182.99" cy="-579.94" rx="95.18" ry="26"/>
<text text-anchor="middle" x="182.99" y="-576.24" font-family="Times,serif" font-size="14.00">equiv_cu_ccccGc</text>
</a>
</g>
</g>
<!-- PathCube_equiv_cu_ccccGc&#45;&gt;PathCube_equiv_cu_GGGGGG -->
<g id="edge49" class="edge">
<title>PathCube_equiv_cu_ccccGc&#45;&gt;PathCube_equiv_cu_GGGGGG</title>
<path fill="none" stroke="black" d="M252.61,-562.1C264.09,-559.35 275.87,-556.55 286.99,-553.94 485.36,-507.27 720.02,-453.71 834.36,-427.73"/>
<polygon fill="black" stroke="black" points="835.4,-431.08 844.38,-425.45 833.85,-424.25 835.4,-431.08"/>
</g>
<!-- PathCube_equiv_cu_cccGcc -->
<g id="node30" class="node">
<title>PathCube_equiv_cu_cccGcc</title>
<g id="a_node30"><a xlink:href="PathCube.html#equiv_cu_cccGcc" xlink:title="equiv_cu_cccGcc">
<ellipse fill="#f070d1" stroke="black" cx="1847.99" cy="-579.94" rx="87.18" ry="18"/>
<ellipse fill="none" stroke="black" cx="1847.99" cy="-579.94" rx="91.18" ry="22"/>
<ellipse fill="none" stroke="black" cx="1847.99" cy="-579.94" rx="95.18" ry="26"/>
<text text-anchor="middle" x="1847.99" y="-576.24" font-family="Times,serif" font-size="14.00">equiv_cu_cccGcc</text>
</a>
</g>
</g>
<!-- PathCube_equiv_cu_cccGcc&#45;&gt;PathCube_equiv_cu_GGGGGG -->
<g id="edge50" class="edge">
<title>PathCube_equiv_cu_cccGcc&#45;&gt;PathCube_equiv_cu_GGGGGG</title>
<path fill="none" stroke="black" d="M1779.61,-561.79C1767.76,-559.03 1755.54,-556.3 1743.99,-553.94 1469.36,-497.78 1140.98,-446.95 988.95,-424.33"/>
<polygon fill="black" stroke="black" points="989.16,-420.82 978.75,-422.82 988.13,-427.75 989.16,-420.82"/>
</g>
<!-- PathCube_equiv_cu_ccGccc -->
<g id="node31" class="node">
<title>PathCube_equiv_cu_ccGccc</title>
<g id="a_node31"><a xlink:href="PathCube.html#equiv_cu_ccGccc" xlink:title="equiv_cu_ccGccc">
<ellipse fill="#f070d1" stroke="black" cx="1639.99" cy="-579.94" rx="87.18" ry="18"/>
<ellipse fill="none" stroke="black" cx="1639.99" cy="-579.94" rx="91.18" ry="22"/>
<ellipse fill="none" stroke="black" cx="1639.99" cy="-579.94" rx="95.18" ry="26"/>
<text text-anchor="middle" x="1639.99" y="-576.24" font-family="Times,serif" font-size="14.00">equiv_cu_ccGccc</text>
</a>
</g>
</g>
<!-- PathCube_equiv_cu_ccGccc&#45;&gt;PathCube_equiv_cu_GGGGGG -->
<g id="edge51" class="edge">
<title>PathCube_equiv_cu_ccGccc&#45;&gt;PathCube_equiv_cu_GGGGGG</title>
<path fill="none" stroke="black" d="M1570.65,-562.12C1559.08,-559.35 1547.2,-556.54 1535.99,-553.94 1332.43,-506.6 1091.37,-453.16 974.52,-427.42"/>
<polygon fill="black" stroke="black" points="975.14,-423.98 964.62,-425.24 973.64,-430.81 975.14,-423.98"/>
</g>
<!-- PathCube_equiv_cu_cGcccc&#45;&gt;PathCube_equiv_cu_GGGGGG -->
<g id="edge52" class="edge">
<title>PathCube_equiv_cu_cGcccc&#45;&gt;PathCube_equiv_cu_GGGGGG</title>
<path fill="none" stroke="black" d="M2153.88,-747.75C2158.45,-702.5 2167.91,-581.66 2141.99,-553.94 2065.17,-471.8 1296.41,-429.41 1010.42,-416.39"/>
<polygon fill="black" stroke="black" points="1010.19,-412.87 1000.04,-415.92 1009.87,-419.87 1010.19,-412.87"/>
</g>
<!-- PathCube_equiv_cu_Gccccc&#45;&gt;PathCube_equiv_cu_GGGGGG -->
<g id="edge53" class="edge">
<title>PathCube_equiv_cu_Gccccc&#45;&gt;PathCube_equiv_cu_GGGGGG</title>
<path fill="none" stroke="black" d="M772.29,-751.22C757.7,-747.41 741.75,-743.38 726.99,-739.94 440.59,-673.08 264.7,-833.98 78.99,-605.94 64.39,-588.01 64.09,-571.61 78.99,-553.94 169.41,-446.62 592.88,-420.41 795.47,-414"/>
<polygon fill="black" stroke="black" points="795.65,-417.5 805.54,-413.7 795.43,-410.5 795.65,-417.5"/>
</g>
<!-- PathCube_equiv_cu_GGGGGG&#45;&gt;PathCube_PathCube -->
<g id="edge54" class="edge">
<title>PathCube_equiv_cu_GGGGGG&#45;&gt;PathCube_PathCube</title>
<path fill="none" stroke="black" d="M812.37,-403.91C648,-391 313.53,-354.37 242.99,-266.94 228.47,-248.95 228.63,-233.04 242.99,-214.94 310.32,-130.04 643.69,-91.07 785.72,-78.13"/>
<polygon fill="black" stroke="black" points="786.37,-81.58 796.02,-77.2 785.74,-74.61 786.37,-81.58"/>
</g>
<!-- PathCube_cu_refl_fb -->
<g id="node35" class="node">
<title>PathCube_cu_refl_fb</title>
<g id="a_node35"><a xlink:href="PathCube.html#cu_refl_fb" xlink:title="cu_refl_fb">
<ellipse fill="#f070d1" stroke="black" cx="1092.99" cy="-240.94" rx="55.46" ry="18"/>
<ellipse fill="none" stroke="black" cx="1092.99" cy="-240.94" rx="59.48" ry="22"/>
<ellipse fill="none" stroke="black" cx="1092.99" cy="-240.94" rx="63.49" ry="26"/>
<text text-anchor="middle" x="1092.99" y="-237.24" font-family="Times,serif" font-size="14.00">cu_refl_fb</text>
</a>
</g>
</g>
<!-- PathCube_cu_refl_fb&#45;&gt;PathCube_idcube -->
<g id="edge55" class="edge">
<title>PathCube_cu_refl_fb&#45;&gt;PathCube_idcube</title>
<path fill="none" stroke="black" d="M1116.76,-216.71C1149.39,-184.85 1207.68,-127.92 1240.27,-96.09"/>
<polygon fill="black" stroke="black" points="1242.88,-98.44 1247.59,-88.95 1237.99,-93.43 1242.88,-98.44"/>
</g>
<!-- PathCube_cu_refl_fb&#45;&gt;PathCube_PathCube -->
<g id="edge56" class="edge">
<title>PathCube_cu_refl_fb&#45;&gt;PathCube_PathCube</title>
<path fill="none" stroke="black" d="M1061.22,-218.1C1014.45,-185.96 927.59,-126.27 881.16,-94.36"/>
<polygon fill="black" stroke="black" points="882.93,-91.33 872.71,-88.55 878.97,-97.1 882.93,-91.33"/>
</g>
<!-- PathCube_cu_refl_tb -->
<g id="node36" class="node">
<title>PathCube_cu_refl_tb</title>
<g id="a_node36"><a xlink:href="PathCube.html#cu_refl_tb" xlink:title="cu_refl_tb">
<ellipse fill="#f070d1" stroke="black" cx="607.99" cy="-240.94" rx="55.8" ry="18"/>
<ellipse fill="none" stroke="black" cx="607.99" cy="-240.94" rx="59.8" ry="22"/>
<ellipse fill="none" stroke="black" cx="607.99" cy="-240.94" rx="63.79" ry="26"/>
<text text-anchor="middle" x="607.99" y="-237.24" font-family="Times,serif" font-size="14.00">cu_refl_tb</text>
</a>
</g>
</g>
<!-- PathCube_cu_refl_tb&#45;&gt;PathCube_idcube -->
<g id="edge57" class="edge">
<title>PathCube_cu_refl_tb&#45;&gt;PathCube_idcube</title>
<path fill="none" stroke="black" d="M654.64,-223.01C663.03,-220.17 671.74,-217.36 679.99,-214.94 877.68,-156.72 1117.95,-103.81 1217.42,-82.67"/>
<polygon fill="black" stroke="black" points="1218.39,-86.04 1227.44,-80.55 1216.94,-79.19 1218.39,-86.04"/>
</g>
<!-- PathCube_cu_refl_tb&#45;&gt;PathCube_PathCube -->
<g id="edge58" class="edge">
<title>PathCube_cu_refl_tb&#45;&gt;PathCube_PathCube</title>
<path fill="none" stroke="black" d="M639.62,-218.1C686.2,-185.96 772.7,-126.27 818.94,-94.36"/>
<polygon fill="black" stroke="black" points="821.12,-97.11 827.36,-88.55 817.14,-91.35 821.12,-97.11"/>
</g>
<!-- PathCube_cu_refl_lr -->
<g id="node37" class="node">
<title>PathCube_cu_refl_lr</title>
<g id="a_node37"><a xlink:href="PathCube.html#cu_refl_lr" xlink:title="cu_refl_lr">
<ellipse fill="#f070d1" stroke="black" cx="1432.99" cy="-240.94" rx="53.12" ry="18"/>
<ellipse fill="none" stroke="black" cx="1432.99" cy="-240.94" rx="57.1" ry="22"/>
<ellipse fill="none" stroke="black" cx="1432.99" cy="-240.94" rx="61.09" ry="26"/>
<text text-anchor="middle" x="1432.99" y="-237.24" font-family="Times,serif" font-size="14.00">cu_refl_lr</text>
</a>
</g>
</g>
<!-- PathCube_cu_refl_lr&#45;&gt;PathCube_idcube -->
<g id="edge59" class="edge">
<title>PathCube_cu_refl_lr&#45;&gt;PathCube_idcube</title>
<path fill="none" stroke="black" d="M1409.49,-216.71C1377.25,-184.85 1319.63,-127.92 1287.42,-96.09"/>
<polygon fill="black" stroke="black" points="1289.76,-93.49 1280.19,-88.95 1284.84,-98.47 1289.76,-93.49"/>
</g>
<!-- PathCube_cu_refl_lr&#45;&gt;PathCube_PathCube -->
<g id="edge60" class="edge">
<title>PathCube_cu_refl_lr&#45;&gt;PathCube_PathCube</title>
<path fill="none" stroke="black" d="M1387.59,-223.18C1379.43,-220.32 1370.98,-217.47 1362.99,-214.94 1196.37,-162.2 995.98,-109.89 902.63,-86.15"/>
<polygon fill="black" stroke="black" points="903.41,-82.74 892.86,-83.67 901.69,-89.53 903.41,-82.74"/>
</g>
<!-- PathCube_equiv_cu_path&#45;&gt;PathCube_idcube -->
<g id="edge61" class="edge">
<title>PathCube_equiv_cu_path&#45;&gt;PathCube_idcube</title>
<path fill="none" stroke="black" d="M965.64,-224.37C1026.92,-193.27 1164.17,-123.6 1228.91,-90.74"/>
<polygon fill="black" stroke="black" points="1230.59,-93.81 1237.92,-86.17 1227.42,-87.57 1230.59,-93.81"/>
</g>
<!-- PathCube_equiv_cu_path&#45;&gt;PathCube_PathCube -->
<g id="edge62" class="edge">
<title>PathCube_equiv_cu_path&#45;&gt;PathCube_PathCube</title>
<path fill="none" stroke="black" d="M926.37,-223C911.48,-193.75 880.84,-133.55 863.23,-98.95"/>
<polygon fill="black" stroke="black" points="866.28,-97.24 858.63,-89.91 860.04,-100.41 866.28,-97.24"/>
</g>
<!-- PathCube_PathCube_rec -->
<g id="node39" class="node">
<title>PathCube_PathCube_rec</title>
<g id="a_node39"><a xlink:href="PathCube.html#PathCube_rec" xlink:title="PathCube_rec">
<ellipse fill="#f070d1" stroke="black" cx="130.99" cy="-240.94" rx="74.96" ry="18"/>
<ellipse fill="none" stroke="black" cx="130.99" cy="-240.94" rx="78.98" ry="22"/>
<ellipse fill="none" stroke="black" cx="130.99" cy="-240.94" rx="82.99" ry="26"/>
<text text-anchor="middle" x="130.99" y="-237.24" font-family="Times,serif" font-size="14.00">PathCube_rec</text>
</a>
</g>
</g>
<!-- PathCube_PathCube_rec&#45;&gt;PathCube_PathCube -->
<g id="edge63" class="edge">
<title>PathCube_PathCube_rec&#45;&gt;PathCube_PathCube</title>
<path fill="none" stroke="black" d="M193.02,-223.67C204.62,-220.71 216.66,-217.69 227.99,-214.94 436.79,-164.2 686.31,-108.82 794.94,-84.96"/>
<polygon fill="black" stroke="black" points="795.99,-88.32 805,-82.75 794.49,-81.48 795.99,-88.32"/>
</g>
<!-- PathCube_PathCube_ind -->
<g id="node40" class="node">
<title>PathCube_PathCube_ind</title>
<g id="a_node40"><a xlink:href="PathCube.html#PathCube_ind" xlink:title="PathCube_ind">
<ellipse fill="#f070d1" stroke="black" cx="442.99" cy="-240.94" rx="74.96" ry="18"/>
<ellipse fill="none" stroke="black" cx="442.99" cy="-240.94" rx="78.98" ry="22"/>
<ellipse fill="none" stroke="black" cx="442.99" cy="-240.94" rx="82.99" ry="26"/>
<text text-anchor="middle" x="442.99" y="-237.24" font-family="Times,serif" font-size="14.00">PathCube_ind</text>
</a>
</g>
</g>
<!-- PathCube_PathCube_ind&#45;&gt;PathCube_idcube -->
<g id="edge64" class="edge">
<title>PathCube_PathCube_ind&#45;&gt;PathCube_idcube</title>
<path fill="none" stroke="black" d="M503.2,-222.9C513.76,-220.1 524.67,-217.34 534.99,-214.94 789.76,-155.59 1098.56,-101.12 1215.75,-81.08"/>
<polygon fill="black" stroke="black" points="1216.56,-84.49 1225.83,-79.35 1215.39,-77.59 1216.56,-84.49"/>
</g>
<!-- PathCube_PathCube_ind&#45;&gt;PathCube_PathCube -->
<g id="edge65" class="edge">
<title>PathCube_PathCube_ind&#45;&gt;PathCube_PathCube</title>
<path fill="none" stroke="black" d="M492.08,-219.79C572.67,-186.72 731.65,-121.49 807.62,-90.32"/>
<polygon fill="black" stroke="black" points="808.98,-93.54 816.9,-86.51 806.32,-87.07 808.98,-93.54"/>
</g>
</g>
</svg>
