<?xml version="1.0" encoding="UTF-8" standalone="no"?>
<!DOCTYPE svg PUBLIC "-//W3C//DTD SVG 1.1//EN"
 "http://www.w3.org/Graphics/SVG/1.1/DTD/svg11.dtd">
<!-- Generated by graphviz version 2.43.0 (0)
 -->
<!-- Title: HoTT_Algebra_Groups_Image Pages: 1 -->
<svg width="366pt" height="187pt"
 viewBox="0.00 0.00 366.00 187.00" xmlns="http://www.w3.org/2000/svg" xmlns:xlink="http://www.w3.org/1999/xlink">
<g id="graph0" class="graph" transform="scale(1 1) rotate(0) translate(4 183)">
<title>HoTT_Algebra_Groups_Image</title>
<polygon fill="white" stroke="transparent" points="-4,4 -4,-183 362,-183 362,4 -4,4"/>
<g id="clust1" class="cluster">
<title>cluster_Image</title>
<polygon fill="#ffffc3" stroke="black" points="14.76,-8 14.76,-171 343.24,-171 343.24,-8 14.76,-8"/>
<text text-anchor="middle" x="45.26" y="-155.8" font-family="Times,serif" font-size="14.00">Image</text>
</g>
<!-- Image_grp_image_in -->
<g id="node1" class="node">
<title>Image_grp_image_in</title>
<g id="a_node1"><a xlink:href="Image.html#grp_image_in" xlink:title="grp_image_in">
<ellipse fill="#f070d1" stroke="black" cx="179.4" cy="-114" rx="72.61" ry="18"/>
<ellipse fill="none" stroke="black" cx="179.4" cy="-114" rx="76.6" ry="22"/>
<ellipse fill="none" stroke="black" cx="179.4" cy="-114" rx="80.59" ry="26"/>
<text text-anchor="middle" x="179.4" y="-110.3" font-family="Times,serif" font-size="14.00">grp_image_in</text>
</a>
</g>
</g>
<!-- Image_grp_image -->
<g id="node2" class="node">
<title>Image_grp_image</title>
<g id="a_node2"><a xlink:href="Image.html#grp_image" xlink:title="grp_image">
<ellipse fill="#f070d1" stroke="black" cx="179.4" cy="-34" rx="59.59" ry="18"/>
<text text-anchor="middle" x="179.4" y="-30.3" font-family="Times,serif" font-size="14.00">grp_image</text>
</a>
</g>
</g>
<!-- Image_grp_image_in&#45;&gt;Image_grp_image -->
<g id="edge1" class="edge">
<title>Image_grp_image_in&#45;&gt;Image_grp_image</title>
<path fill="none" stroke="black" d="M179.4,-87.89C179.4,-79.84 179.4,-70.88 179.4,-62.66"/>
<polygon fill="black" stroke="black" points="182.9,-62.41 179.4,-52.41 175.9,-62.41 182.9,-62.41"/>
</g>
</g>
</svg>
