<?xml version="1.0" encoding="UTF-8" standalone="no"?>
<!DOCTYPE svg PUBLIC "-//W3C//DTD SVG 1.1//EN"
 "http://www.w3.org/Graphics/SVG/1.1/DTD/svg11.dtd">
<!-- Generated by graphviz version 2.43.0 (0)
 -->
<!-- Title: HoTT_Homotopy_HomotopyGroup Pages: 1 -->
<svg width="1877pt" height="943pt"
 viewBox="0.00 0.00 1877.00 942.50" xmlns="http://www.w3.org/2000/svg" xmlns:xlink="http://www.w3.org/1999/xlink">
<g id="graph0" class="graph" transform="scale(1 1) rotate(0) translate(4 938.5)">
<title>HoTT_Homotopy_HomotopyGroup</title>
<polygon fill="white" stroke="transparent" points="-4,4 -4,-938.5 1873,-938.5 1873,4 -4,4"/>
<g id="clust1" class="cluster">
<title>cluster_HomotopyGroup</title>
<polygon fill="#ffffc3" stroke="black" points="8,-14.08 8,-920.42 1861,-920.42 1861,-14.08 8,-14.08"/>
<text text-anchor="middle" x="75" y="-905.22" font-family="Times,serif" font-size="14.00">HomotopyGroup</text>
</g>
<!-- HomotopyGroup_grp_iso_pi1_Tr -->
<g id="node1" class="node">
<title>HomotopyGroup_grp_iso_pi1_Tr</title>
<g id="a_node1"><a xlink:href="HomotopyGroup.html#grp_iso_pi1_Tr" xlink:title="grp_iso_pi1_Tr">
<ellipse fill="#f070d1" stroke="black" cx="1520" cy="-201.08" rx="77.99" ry="18"/>
<ellipse fill="none" stroke="black" cx="1520" cy="-201.08" rx="81.99" ry="22"/>
<ellipse fill="none" stroke="black" cx="1520" cy="-201.08" rx="85.99" ry="26"/>
<text text-anchor="middle" x="1520" y="-197.38" font-family="Times,serif" font-size="14.00">grp_iso_pi1_Tr</text>
</a>
</g>
</g>
<!-- HomotopyGroup_Pi1 -->
<g id="node17" class="node">
<title>HomotopyGroup_Pi1</title>
<g id="a_node17"><a xlink:href="HomotopyGroup.html#Pi1" xlink:title="Pi1">
<ellipse fill="#f070d1" stroke="black" cx="1520" cy="-60.08" rx="27" ry="18"/>
<text text-anchor="middle" x="1520" y="-56.38" font-family="Times,serif" font-size="14.00">Pi1</text>
</a>
</g>
</g>
<!-- HomotopyGroup_grp_iso_pi1_Tr&#45;&gt;HomotopyGroup_Pi1 -->
<g id="edge1" class="edge">
<title>HomotopyGroup_grp_iso_pi1_Tr&#45;&gt;HomotopyGroup_Pi1</title>
<path fill="none" stroke="black" d="M1520,-174.91C1520,-150.51 1520,-113.6 1520,-88.48"/>
<polygon fill="black" stroke="black" points="1523.5,-88.18 1520,-78.18 1516.5,-88.18 1523.5,-88.18"/>
</g>
<!-- HomotopyGroup_pmap_pi_functor -->
<g id="node2" class="node">
<title>HomotopyGroup_pmap_pi_functor</title>
<g id="a_node2"><a xlink:href="HomotopyGroup.html#pmap_pi_functor" xlink:title="pmap_pi_functor">
<ellipse fill="#f070d1" stroke="black" cx="1565" cy="-510.08" rx="87.96" ry="18"/>
<ellipse fill="none" stroke="black" cx="1565" cy="-510.08" rx="91.97" ry="22"/>
<ellipse fill="none" stroke="black" cx="1565" cy="-510.08" rx="95.99" ry="26"/>
<text text-anchor="middle" x="1565" y="-506.38" font-family="Times,serif" font-size="14.00">pmap_pi_functor</text>
</a>
</g>
</g>
<!-- HomotopyGroup_is0functor_pi -->
<g id="node10" class="node">
<title>HomotopyGroup_is0functor_pi</title>
<g id="a_node10"><a xlink:href="HomotopyGroup.html#is0functor_pi" xlink:title="is0functor_pi">
<ellipse fill="#f070d1" stroke="black" cx="1762" cy="-355.08" rx="71.49" ry="18"/>
<text text-anchor="middle" x="1762" y="-351.38" font-family="Times,serif" font-size="14.00">is0functor_pi</text>
</a>
</g>
</g>
<!-- HomotopyGroup_pmap_pi_functor&#45;&gt;HomotopyGroup_is0functor_pi -->
<g id="edge2" class="edge">
<title>HomotopyGroup_pmap_pi_functor&#45;&gt;HomotopyGroup_is0functor_pi</title>
<path fill="none" stroke="black" d="M1595.78,-485.17C1633.25,-456.07 1696.06,-407.29 1732.8,-378.76"/>
<polygon fill="black" stroke="black" points="1735.35,-381.21 1741.1,-372.31 1731.06,-375.68 1735.35,-381.21"/>
</g>
<!-- HomotopyGroup_pi_prod -->
<g id="node3" class="node">
<title>HomotopyGroup_pi_prod</title>
<g id="a_node3"><a xlink:href="HomotopyGroup.html#pi_prod" xlink:title="pi_prod">
<ellipse fill="#f070d1" stroke="black" cx="981" cy="-355.08" rx="45.49" ry="18"/>
<ellipse fill="none" stroke="black" cx="981" cy="-355.08" rx="49.49" ry="22"/>
<ellipse fill="none" stroke="black" cx="981" cy="-355.08" rx="53.49" ry="26"/>
<text text-anchor="middle" x="981" y="-351.38" font-family="Times,serif" font-size="14.00">pi_prod</text>
</a>
</g>
</g>
<!-- HomotopyGroup_Pi -->
<g id="node16" class="node">
<title>HomotopyGroup_Pi</title>
<g id="a_node16"><a xlink:href="HomotopyGroup.html#Pi" xlink:title="Pi">
<ellipse fill="#f070d1" stroke="black" cx="909" cy="-201.08" rx="27" ry="18"/>
<text text-anchor="middle" x="909" y="-197.38" font-family="Times,serif" font-size="14.00">Pi</text>
</a>
</g>
</g>
<!-- HomotopyGroup_pi_prod&#45;&gt;HomotopyGroup_Pi -->
<g id="edge3" class="edge">
<title>HomotopyGroup_pi_prod&#45;&gt;HomotopyGroup_Pi</title>
<path fill="none" stroke="black" d="M969.43,-329.66C956.2,-301.73 934.64,-256.22 921.17,-227.77"/>
<polygon fill="black" stroke="black" points="924.21,-226.02 916.77,-218.48 917.89,-229.01 924.21,-226.02"/>
</g>
<!-- HomotopyGroup_groupiso_pi_functor -->
<g id="node4" class="node">
<title>HomotopyGroup_groupiso_pi_functor</title>
<g id="a_node4"><a xlink:href="HomotopyGroup.html#groupiso_pi_functor" xlink:title="groupiso_pi_functor">
<ellipse fill="#f070d1" stroke="black" cx="1680" cy="-820.08" rx="102.87" ry="18"/>
<ellipse fill="none" stroke="black" cx="1680" cy="-820.08" rx="106.88" ry="22"/>
<ellipse fill="none" stroke="black" cx="1680" cy="-820.08" rx="110.88" ry="26"/>
<text text-anchor="middle" x="1680" y="-816.38" font-family="Times,serif" font-size="14.00">groupiso_pi_functor</text>
</a>
</g>
</g>
<!-- HomotopyGroup_is1functor_pi -->
<g id="node7" class="node">
<title>HomotopyGroup_is1functor_pi</title>
<g id="a_node7"><a xlink:href="HomotopyGroup.html#is1functor_pi" xlink:title="is1functor_pi">
<ellipse fill="#f070d1" stroke="black" cx="1680" cy="-665.08" rx="71.49" ry="18"/>
<text text-anchor="middle" x="1680" y="-661.38" font-family="Times,serif" font-size="14.00">is1functor_pi</text>
</a>
</g>
</g>
<!-- HomotopyGroup_groupiso_pi_functor&#45;&gt;HomotopyGroup_is1functor_pi -->
<g id="edge4" class="edge">
<title>HomotopyGroup_groupiso_pi_functor&#45;&gt;HomotopyGroup_is1functor_pi</title>
<path fill="none" stroke="black" d="M1680,-793.81C1680,-766.12 1680,-721.84 1680,-693.37"/>
<polygon fill="black" stroke="black" points="1683.5,-693.3 1680,-683.3 1676.5,-693.3 1683.5,-693.3"/>
</g>
<!-- HomotopyGroup_fmap_pi_loops -->
<g id="node5" class="node">
<title>HomotopyGroup_fmap_pi_loops</title>
<g id="a_node5"><a xlink:href="HomotopyGroup.html#fmap_pi_loops" xlink:title="fmap_pi_loops">
<ellipse fill="#f070d1" stroke="black" cx="699" cy="-510.08" rx="76.08" ry="18"/>
<ellipse fill="none" stroke="black" cx="699" cy="-510.08" rx="80.08" ry="22"/>
<ellipse fill="none" stroke="black" cx="699" cy="-510.08" rx="84.09" ry="26"/>
<text text-anchor="middle" x="699" y="-506.38" font-family="Times,serif" font-size="14.00">fmap_pi_loops</text>
</a>
</g>
</g>
<!-- HomotopyGroup_pi_loops -->
<g id="node6" class="node">
<title>HomotopyGroup_pi_loops</title>
<g id="a_node6"><a xlink:href="HomotopyGroup.html#pi_loops" xlink:title="pi_loops">
<ellipse fill="#f070d1" stroke="black" cx="442" cy="-355.08" rx="48.19" ry="18"/>
<text text-anchor="middle" x="442" y="-351.38" font-family="Times,serif" font-size="14.00">pi_loops</text>
</a>
</g>
</g>
<!-- HomotopyGroup_fmap_pi_loops&#45;&gt;HomotopyGroup_pi_loops -->
<g id="edge5" class="edge">
<title>HomotopyGroup_fmap_pi_loops&#45;&gt;HomotopyGroup_pi_loops</title>
<path fill="none" stroke="black" d="M661.35,-486.67C611.19,-456.8 523.2,-404.42 475.32,-375.92"/>
<polygon fill="black" stroke="black" points="476.97,-372.83 466.59,-370.72 473.39,-378.84 476.97,-372.83"/>
</g>
<!-- HomotopyGroup_fmap_pi_loops&#45;&gt;HomotopyGroup_is0functor_pi -->
<g id="edge6" class="edge">
<title>HomotopyGroup_fmap_pi_loops&#45;&gt;HomotopyGroup_is0functor_pi</title>
<path fill="none" stroke="black" d="M777.4,-500.65C978.5,-478.74 1508.97,-419.08 1682,-381.08 1691.91,-378.9 1702.36,-376.06 1712.32,-373.07"/>
<polygon fill="black" stroke="black" points="1713.56,-376.35 1722.08,-370.05 1711.49,-369.66 1713.56,-376.35"/>
</g>
<!-- HomotopyGroup_is0functor_homotopygroup_type_ptype -->
<g id="node18" class="node">
<title>HomotopyGroup_is0functor_homotopygroup_type_ptype</title>
<g id="a_node18"><a xlink:href="HomotopyGroup.html#is0functor_homotopygroup_type_ptype" xlink:title="is0functor_homotopygroup_type_ptype">
<ellipse fill="#f070d1" stroke="black" cx="699" cy="-355.08" rx="191.17" ry="18"/>
<text text-anchor="middle" x="699" y="-351.38" font-family="Times,serif" font-size="14.00">is0functor_homotopygroup_type_ptype</text>
</a>
</g>
</g>
<!-- HomotopyGroup_fmap_pi_loops&#45;&gt;HomotopyGroup_is0functor_homotopygroup_type_ptype -->
<g id="edge7" class="edge">
<title>HomotopyGroup_fmap_pi_loops&#45;&gt;HomotopyGroup_is0functor_homotopygroup_type_ptype</title>
<path fill="none" stroke="black" d="M699,-483.81C699,-456.12 699,-411.84 699,-383.37"/>
<polygon fill="black" stroke="black" points="702.5,-383.3 699,-373.3 695.5,-383.3 702.5,-383.3"/>
</g>
<!-- HomotopyGroup_pi_loops&#45;&gt;HomotopyGroup_Pi -->
<g id="edge8" class="edge">
<title>HomotopyGroup_pi_loops&#45;&gt;HomotopyGroup_Pi</title>
<path fill="none" stroke="black" d="M471.03,-340.59C479.92,-336.67 489.79,-332.51 499,-329.08 635.76,-278.09 803.26,-230.78 874.4,-211.37"/>
<polygon fill="black" stroke="black" points="875.45,-214.71 884.18,-208.71 873.61,-207.96 875.45,-214.71"/>
</g>
<!-- HomotopyGroup_HomotopyGroup_type_ptype -->
<g id="node23" class="node">
<title>HomotopyGroup_HomotopyGroup_type_ptype</title>
<g id="a_node23"><a xlink:href="HomotopyGroup.html#HomotopyGroup_type_ptype" xlink:title="HomotopyGroup_type_ptype">
<ellipse fill="#f070d1" stroke="black" cx="442" cy="-201.08" rx="142.97" ry="18"/>
<text text-anchor="middle" x="442" y="-197.38" font-family="Times,serif" font-size="14.00">HomotopyGroup_type_ptype</text>
</a>
</g>
</g>
<!-- HomotopyGroup_pi_loops&#45;&gt;HomotopyGroup_HomotopyGroup_type_ptype -->
<g id="edge9" class="edge">
<title>HomotopyGroup_pi_loops&#45;&gt;HomotopyGroup_HomotopyGroup_type_ptype</title>
<path fill="none" stroke="black" d="M442,-336.94C442,-310.82 442,-260.82 442,-229.59"/>
<polygon fill="black" stroke="black" points="445.5,-229.39 442,-219.39 438.5,-229.39 445.5,-229.39"/>
</g>
<!-- HomotopyGroup_is1functor_pi1 -->
<g id="node8" class="node">
<title>HomotopyGroup_is1functor_pi1</title>
<g id="a_node8"><a xlink:href="HomotopyGroup.html#is1functor_pi1" xlink:title="is1functor_pi1">
<ellipse fill="#f070d1" stroke="black" cx="1776" cy="-510.08" rx="77.19" ry="18"/>
<text text-anchor="middle" x="1776" y="-506.38" font-family="Times,serif" font-size="14.00">is1functor_pi1</text>
</a>
</g>
</g>
<!-- HomotopyGroup_is1functor_pi&#45;&gt;HomotopyGroup_is1functor_pi1 -->
<g id="edge10" class="edge">
<title>HomotopyGroup_is1functor_pi&#45;&gt;HomotopyGroup_is1functor_pi1</title>
<path fill="none" stroke="black" d="M1690.64,-647.12C1707.44,-620.35 1740.2,-568.13 1759.89,-536.75"/>
<polygon fill="black" stroke="black" points="1762.96,-538.44 1765.31,-528.11 1757.03,-534.72 1762.96,-538.44"/>
</g>
<!-- HomotopyGroup_is1functor_pi&#45;&gt;HomotopyGroup_is0functor_pi -->
<g id="edge11" class="edge">
<title>HomotopyGroup_is1functor_pi&#45;&gt;HomotopyGroup_is0functor_pi</title>
<path fill="none" stroke="black" d="M1678.41,-646.77C1675.96,-614.17 1673.17,-541.77 1690,-484.08 1701.2,-445.71 1725.68,-406.34 1742.97,-381.58"/>
<polygon fill="black" stroke="black" points="1746.03,-383.32 1748.98,-373.15 1740.33,-379.26 1746.03,-383.32"/>
</g>
<!-- HomotopyGroup_is1cat_homotopygroup_type -->
<g id="node19" class="node">
<title>HomotopyGroup_is1cat_homotopygroup_type</title>
<g id="a_node19"><a xlink:href="HomotopyGroup.html#is1cat_homotopygroup_type" xlink:title="is1cat_homotopygroup_type">
<ellipse fill="#f070d1" stroke="black" cx="1132" cy="-510.08" rx="141.07" ry="18"/>
<text text-anchor="middle" x="1132" y="-506.38" font-family="Times,serif" font-size="14.00">is1cat_homotopygroup_type</text>
</a>
</g>
</g>
<!-- HomotopyGroup_is1functor_pi&#45;&gt;HomotopyGroup_is1cat_homotopygroup_type -->
<g id="edge12" class="edge">
<title>HomotopyGroup_is1functor_pi&#45;&gt;HomotopyGroup_is1cat_homotopygroup_type</title>
<path fill="none" stroke="black" d="M1633.75,-651.17C1536.44,-624 1310.27,-560.85 1197.86,-529.47"/>
<polygon fill="black" stroke="black" points="1198.57,-526.03 1188,-526.71 1196.69,-532.77 1198.57,-526.03"/>
</g>
<!-- HomotopyGroup_is0functor_pi1 -->
<g id="node11" class="node">
<title>HomotopyGroup_is0functor_pi1</title>
<g id="a_node11"><a xlink:href="HomotopyGroup.html#is0functor_pi1" xlink:title="is0functor_pi1">
<ellipse fill="#f070d1" stroke="black" cx="1762" cy="-201.08" rx="77.19" ry="18"/>
<text text-anchor="middle" x="1762" y="-197.38" font-family="Times,serif" font-size="14.00">is0functor_pi1</text>
</a>
</g>
</g>
<!-- HomotopyGroup_is1functor_pi1&#45;&gt;HomotopyGroup_is0functor_pi1 -->
<g id="edge13" class="edge">
<title>HomotopyGroup_is1functor_pi1&#45;&gt;HomotopyGroup_is0functor_pi1</title>
<path fill="none" stroke="black" d="M1789.82,-492.22C1813.98,-460.66 1859.68,-390.32 1842,-329.08 1830.68,-289.89 1803.29,-251.14 1783.72,-226.94"/>
<polygon fill="black" stroke="black" points="1786.23,-224.49 1777.16,-219.02 1780.84,-228.95 1786.23,-224.49"/>
</g>
<!-- HomotopyGroup_fmap_pi_succ -->
<g id="node9" class="node">
<title>HomotopyGroup_fmap_pi_succ</title>
<g id="a_node9"><a xlink:href="HomotopyGroup.html#fmap_pi_succ" xlink:title="fmap_pi_succ">
<ellipse fill="#f070d1" stroke="black" cx="1371" cy="-510.08" rx="72.27" ry="18"/>
<ellipse fill="none" stroke="black" cx="1371" cy="-510.08" rx="76.28" ry="22"/>
<ellipse fill="none" stroke="black" cx="1371" cy="-510.08" rx="80.29" ry="26"/>
<text text-anchor="middle" x="1371" y="-506.38" font-family="Times,serif" font-size="14.00">fmap_pi_succ</text>
</a>
</g>
</g>
<!-- HomotopyGroup_fmap_pi_succ&#45;&gt;HomotopyGroup_is0functor_pi -->
<g id="edge14" class="edge">
<title>HomotopyGroup_fmap_pi_succ&#45;&gt;HomotopyGroup_is0functor_pi</title>
<path fill="none" stroke="black" d="M1420.92,-489.55C1497.07,-459.75 1641.21,-403.34 1715.36,-374.33"/>
<polygon fill="black" stroke="black" points="1716.87,-377.5 1724.91,-370.59 1714.32,-370.98 1716.87,-377.5"/>
</g>
<!-- HomotopyGroup_is0functor_pi&#45;&gt;HomotopyGroup_is0functor_pi1 -->
<g id="edge15" class="edge">
<title>HomotopyGroup_is0functor_pi&#45;&gt;HomotopyGroup_is0functor_pi1</title>
<path fill="none" stroke="black" d="M1762,-336.94C1762,-310.82 1762,-260.82 1762,-229.59"/>
<polygon fill="black" stroke="black" points="1765.5,-229.39 1762,-219.39 1758.5,-229.39 1765.5,-229.39"/>
</g>
<!-- HomotopyGroup_is0functor_pi&#45;&gt;HomotopyGroup_Pi -->
<g id="edge16" class="edge">
<title>HomotopyGroup_is0functor_pi&#45;&gt;HomotopyGroup_Pi</title>
<path fill="none" stroke="black" d="M1721.61,-340.23C1709.03,-336.24 1695.03,-332.15 1682,-329.08 1405.06,-263.81 1330.53,-274.58 1050,-227.08 1014.09,-221 973.1,-213.69 944.61,-208.55"/>
<polygon fill="black" stroke="black" points="945.17,-205.09 934.71,-206.76 943.93,-211.98 945.17,-205.09"/>
</g>
<!-- HomotopyGroup_isgraph_homotopygroup_type -->
<g id="node22" class="node">
<title>HomotopyGroup_isgraph_homotopygroup_type</title>
<g id="a_node22"><a xlink:href="HomotopyGroup.html#isgraph_homotopygroup_type" xlink:title="isgraph_homotopygroup_type">
<ellipse fill="#f070d1" stroke="black" cx="1207" cy="-201.08" rx="148.37" ry="18"/>
<text text-anchor="middle" x="1207" y="-197.38" font-family="Times,serif" font-size="14.00">isgraph_homotopygroup_type</text>
</a>
</g>
</g>
<!-- HomotopyGroup_is0functor_pi&#45;&gt;HomotopyGroup_isgraph_homotopygroup_type -->
<g id="edge17" class="edge">
<title>HomotopyGroup_is0functor_pi&#45;&gt;HomotopyGroup_isgraph_homotopygroup_type</title>
<path fill="none" stroke="black" d="M1719.75,-340.52C1707.6,-336.71 1694.3,-332.64 1682,-329.08 1539.21,-287.7 1370.87,-243.85 1277.83,-220.03"/>
<polygon fill="black" stroke="black" points="1278.52,-216.6 1267.96,-217.51 1276.78,-223.38 1278.52,-216.6"/>
</g>
<!-- HomotopyGroup_is0functor_pi1&#45;&gt;HomotopyGroup_Pi1 -->
<g id="edge18" class="edge">
<title>HomotopyGroup_is0functor_pi1&#45;&gt;HomotopyGroup_Pi1</title>
<path fill="none" stroke="black" d="M1734.24,-184.13C1687.92,-157.53 1595.33,-104.35 1548.51,-77.46"/>
<polygon fill="black" stroke="black" points="1550.2,-74.39 1539.78,-72.44 1546.71,-80.46 1550.2,-74.39"/>
</g>
<!-- HomotopyGroup_pi_functor_type_pmap -->
<g id="node12" class="node">
<title>HomotopyGroup_pi_functor_type_pmap</title>
<g id="a_node12"><a xlink:href="HomotopyGroup.html#pi_functor_type_pmap" xlink:title="pi_functor_type_pmap">
<ellipse fill="#f070d1" stroke="black" cx="215" cy="-510.08" rx="112.38" ry="18"/>
<ellipse fill="none" stroke="black" cx="215" cy="-510.08" rx="116.38" ry="22"/>
<ellipse fill="none" stroke="black" cx="215" cy="-510.08" rx="120.38" ry="26"/>
<text text-anchor="middle" x="215" y="-506.38" font-family="Times,serif" font-size="14.00">pi_functor_type_pmap</text>
</a>
</g>
</g>
<!-- HomotopyGroup_pi_functor_type -->
<g id="node13" class="node">
<title>HomotopyGroup_pi_functor_type</title>
<g id="a_node13"><a xlink:href="HomotopyGroup.html#pi_functor_type" xlink:title="pi_functor_type">
<ellipse fill="#f070d1" stroke="black" cx="293" cy="-355.08" rx="82.59" ry="18"/>
<text text-anchor="middle" x="293" y="-351.38" font-family="Times,serif" font-size="14.00">pi_functor_type</text>
</a>
</g>
</g>
<!-- HomotopyGroup_pi_functor_type_pmap&#45;&gt;HomotopyGroup_pi_functor_type -->
<g id="edge19" class="edge">
<title>HomotopyGroup_pi_functor_type_pmap&#45;&gt;HomotopyGroup_pi_functor_type</title>
<path fill="none" stroke="black" d="M227.71,-484.16C241.98,-456.16 265.05,-410.91 279.6,-382.37"/>
<polygon fill="black" stroke="black" points="282.76,-383.88 284.18,-373.38 276.52,-380.7 282.76,-383.88"/>
</g>
<!-- HomotopyGroup_pi_functor_type_pmap&#45;&gt;HomotopyGroup_HomotopyGroup_type_ptype -->
<g id="edge20" class="edge">
<title>HomotopyGroup_pi_functor_type_pmap&#45;&gt;HomotopyGroup_HomotopyGroup_type_ptype</title>
<path fill="none" stroke="black" d="M159.35,-486.87C88.13,-455.16 -20.7,-393.56 27,-329.08 65.35,-277.24 237.92,-237.95 348.1,-217.6"/>
<polygon fill="black" stroke="black" points="349.02,-220.99 358.23,-215.75 347.77,-214.1 349.02,-220.99"/>
</g>
<!-- HomotopyGroup_pi_functor_type&#45;&gt;HomotopyGroup_Pi -->
<g id="edge21" class="edge">
<title>HomotopyGroup_pi_functor_type&#45;&gt;HomotopyGroup_Pi</title>
<path fill="none" stroke="black" d="M342.11,-340.46C355.96,-336.7 371.05,-332.66 385,-329.08 568.63,-281.89 789.72,-229.87 874.03,-210.2"/>
<polygon fill="black" stroke="black" points="874.91,-213.59 883.85,-207.91 873.32,-206.78 874.91,-213.59"/>
</g>
<!-- HomotopyGroup_isabgroup_pi -->
<g id="node14" class="node">
<title>HomotopyGroup_isabgroup_pi</title>
<g id="a_node14"><a xlink:href="HomotopyGroup.html#isabgroup_pi" xlink:title="isabgroup_pi">
<ellipse fill="#f070d1" stroke="black" cx="114" cy="-355.08" rx="70.37" ry="18"/>
<ellipse fill="none" stroke="black" cx="114" cy="-355.08" rx="74.38" ry="22"/>
<ellipse fill="none" stroke="black" cx="114" cy="-355.08" rx="78.39" ry="26"/>
<text text-anchor="middle" x="114" y="-351.38" font-family="Times,serif" font-size="14.00">isabgroup_pi</text>
</a>
</g>
</g>
<!-- HomotopyGroup_isabgroup_pi&#45;&gt;HomotopyGroup_Pi -->
<g id="edge22" class="edge">
<title>HomotopyGroup_isabgroup_pi&#45;&gt;HomotopyGroup_Pi</title>
<path fill="none" stroke="black" d="M170.41,-336.96C180.55,-334.15 191.05,-331.39 201,-329.08 455.88,-269.76 767.88,-222.46 872.71,-207.25"/>
<polygon fill="black" stroke="black" points="873.37,-210.69 882.77,-205.79 872.37,-203.76 873.37,-210.69"/>
</g>
<!-- HomotopyGroup_isabgroup_pi&#45;&gt;HomotopyGroup_HomotopyGroup_type_ptype -->
<g id="edge23" class="edge">
<title>HomotopyGroup_isabgroup_pi&#45;&gt;HomotopyGroup_HomotopyGroup_type_ptype</title>
<path fill="none" stroke="black" d="M158.24,-333.58C220.77,-304.6 334.4,-251.94 397.23,-222.83"/>
<polygon fill="black" stroke="black" points="398.89,-225.92 406.49,-218.54 395.94,-219.56 398.89,-225.92"/>
</g>
<!-- HomotopyGroup_pi_succ -->
<g id="node15" class="node">
<title>HomotopyGroup_pi_succ</title>
<g id="a_node15"><a xlink:href="HomotopyGroup.html#pi_succ" xlink:title="pi_succ">
<ellipse fill="#f070d1" stroke="black" cx="1020" cy="-665.08" rx="44.36" ry="18"/>
<ellipse fill="none" stroke="black" cx="1020" cy="-665.08" rx="48.38" ry="22"/>
<ellipse fill="none" stroke="black" cx="1020" cy="-665.08" rx="52.39" ry="26"/>
<text text-anchor="middle" x="1020" y="-661.38" font-family="Times,serif" font-size="14.00">pi_succ</text>
</a>
</g>
</g>
<!-- HomotopyGroup_pi_succ&#45;&gt;HomotopyGroup_Pi -->
<g id="edge24" class="edge">
<title>HomotopyGroup_pi_succ&#45;&gt;HomotopyGroup_Pi</title>
<path fill="none" stroke="black" d="M1008.45,-639.4C986.46,-591.08 938.99,-480.02 919,-381.08 908.31,-328.13 907.52,-264.71 908.12,-229.35"/>
<polygon fill="black" stroke="black" points="911.62,-229.39 908.34,-219.32 904.62,-229.24 911.62,-229.39"/>
</g>
<!-- HomotopyGroup_pi_succ&#45;&gt;HomotopyGroup_is1cat_homotopygroup_type -->
<g id="edge25" class="edge">
<title>HomotopyGroup_pi_succ&#45;&gt;HomotopyGroup_is1cat_homotopygroup_type</title>
<path fill="none" stroke="black" d="M1037.25,-640.51C1057.83,-612.4 1092.09,-565.6 1113.29,-536.64"/>
<polygon fill="black" stroke="black" points="1116.34,-538.4 1119.42,-528.27 1110.69,-534.27 1116.34,-538.4"/>
</g>
<!-- HomotopyGroup_Pi&#45;&gt;HomotopyGroup_Pi1 -->
<g id="edge26" class="edge">
<title>HomotopyGroup_Pi&#45;&gt;HomotopyGroup_Pi1</title>
<path fill="none" stroke="black" d="M934.09,-194.37C1029.92,-172.57 1373.02,-94.52 1484.64,-69.12"/>
<polygon fill="black" stroke="black" points="1485.73,-72.47 1494.7,-66.83 1484.17,-65.64 1485.73,-72.47"/>
</g>
<!-- HomotopyGroup_HomotopyGroup_type -->
<g id="node24" class="node">
<title>HomotopyGroup_HomotopyGroup_type</title>
<g id="a_node24"><a xlink:href="HomotopyGroup.html#HomotopyGroup_type" xlink:title="HomotopyGroup_type">
<ellipse fill="#f070d1" stroke="black" cx="909" cy="-60.08" rx="112.38" ry="18"/>
<text text-anchor="middle" x="909" y="-56.38" font-family="Times,serif" font-size="14.00">HomotopyGroup_type</text>
</a>
</g>
</g>
<!-- HomotopyGroup_Pi&#45;&gt;HomotopyGroup_HomotopyGroup_type -->
<g id="edge27" class="edge">
<title>HomotopyGroup_Pi&#45;&gt;HomotopyGroup_HomotopyGroup_type</title>
<path fill="none" stroke="black" d="M909,-183.03C909,-159.48 909,-116.72 909,-88.6"/>
<polygon fill="black" stroke="black" points="912.5,-88.26 909,-78.26 905.5,-88.26 912.5,-88.26"/>
</g>
<!-- HomotopyGroup_is0functor_homotopygroup_type_ptype&#45;&gt;HomotopyGroup_isgraph_homotopygroup_type -->
<g id="edge28" class="edge">
<title>HomotopyGroup_is0functor_homotopygroup_type_ptype&#45;&gt;HomotopyGroup_isgraph_homotopygroup_type</title>
<path fill="none" stroke="black" d="M753.36,-337.81C848.24,-309.43 1043.49,-251 1144.06,-220.91"/>
<polygon fill="black" stroke="black" points="1145.21,-224.22 1153.79,-218 1143.21,-217.51 1145.21,-224.22"/>
</g>
<!-- HomotopyGroup_is0functor_homotopygroup_type_ptype&#45;&gt;HomotopyGroup_HomotopyGroup_type_ptype -->
<g id="edge29" class="edge">
<title>HomotopyGroup_is0functor_homotopygroup_type_ptype&#45;&gt;HomotopyGroup_HomotopyGroup_type_ptype</title>
<path fill="none" stroke="black" d="M670.51,-337.23C623.79,-309.6 530.89,-254.65 479.09,-224.01"/>
<polygon fill="black" stroke="black" points="480.61,-220.85 470.22,-218.77 477.05,-226.87 480.61,-220.85"/>
</g>
<!-- HomotopyGroup_is01cat_homotopygroup_type -->
<g id="node20" class="node">
<title>HomotopyGroup_is01cat_homotopygroup_type</title>
<g id="a_node20"><a xlink:href="HomotopyGroup.html#is01cat_homotopygroup_type" xlink:title="is01cat_homotopygroup_type">
<ellipse fill="#f070d1" stroke="black" cx="1526" cy="-355.08" rx="146.77" ry="18"/>
<text text-anchor="middle" x="1526" y="-351.38" font-family="Times,serif" font-size="14.00">is01cat_homotopygroup_type</text>
</a>
</g>
</g>
<!-- HomotopyGroup_is1cat_homotopygroup_type&#45;&gt;HomotopyGroup_is01cat_homotopygroup_type -->
<g id="edge30" class="edge">
<title>HomotopyGroup_is1cat_homotopygroup_type&#45;&gt;HomotopyGroup_is01cat_homotopygroup_type</title>
<path fill="none" stroke="black" d="M1173.79,-492.85C1246.34,-464.68 1395.38,-406.8 1474.31,-376.15"/>
<polygon fill="black" stroke="black" points="1475.99,-379.25 1484.04,-372.37 1473.45,-372.73 1475.99,-379.25"/>
</g>
<!-- HomotopyGroup_is2graph_homotopygroup_type -->
<g id="node21" class="node">
<title>HomotopyGroup_is2graph_homotopygroup_type</title>
<g id="a_node21"><a xlink:href="HomotopyGroup.html#is2graph_homotopygroup_type" xlink:title="is2graph_homotopygroup_type">
<ellipse fill="#f070d1" stroke="black" cx="1207" cy="-355.08" rx="154.07" ry="18"/>
<text text-anchor="middle" x="1207" y="-351.38" font-family="Times,serif" font-size="14.00">is2graph_homotopygroup_type</text>
</a>
</g>
</g>
<!-- HomotopyGroup_is1cat_homotopygroup_type&#45;&gt;HomotopyGroup_is2graph_homotopygroup_type -->
<g id="edge31" class="edge">
<title>HomotopyGroup_is1cat_homotopygroup_type&#45;&gt;HomotopyGroup_is2graph_homotopygroup_type</title>
<path fill="none" stroke="black" d="M1140.46,-491.83C1153.51,-465.2 1178.66,-413.89 1194.03,-382.54"/>
<polygon fill="black" stroke="black" points="1197.2,-384.02 1198.46,-373.5 1190.91,-380.94 1197.2,-384.02"/>
</g>
<!-- HomotopyGroup_is01cat_homotopygroup_type&#45;&gt;HomotopyGroup_isgraph_homotopygroup_type -->
<g id="edge32" class="edge">
<title>HomotopyGroup_is01cat_homotopygroup_type&#45;&gt;HomotopyGroup_isgraph_homotopygroup_type</title>
<path fill="none" stroke="black" d="M1491.25,-337.52C1432.77,-309.66 1314.78,-253.44 1250.75,-222.92"/>
<polygon fill="black" stroke="black" points="1252.24,-219.76 1241.7,-218.61 1249.23,-226.08 1252.24,-219.76"/>
</g>
<!-- HomotopyGroup_is2graph_homotopygroup_type&#45;&gt;HomotopyGroup_isgraph_homotopygroup_type -->
<g id="edge33" class="edge">
<title>HomotopyGroup_is2graph_homotopygroup_type&#45;&gt;HomotopyGroup_isgraph_homotopygroup_type</title>
<path fill="none" stroke="black" d="M1207,-336.94C1207,-310.82 1207,-260.82 1207,-229.59"/>
<polygon fill="black" stroke="black" points="1210.5,-229.39 1207,-219.39 1203.5,-229.39 1210.5,-229.39"/>
</g>
<!-- HomotopyGroup_isgraph_homotopygroup_type&#45;&gt;HomotopyGroup_HomotopyGroup_type -->
<g id="edge34" class="edge">
<title>HomotopyGroup_isgraph_homotopygroup_type&#45;&gt;HomotopyGroup_HomotopyGroup_type</title>
<path fill="none" stroke="black" d="M1171.65,-183.59C1117.06,-158.13 1012.37,-109.3 952.98,-81.59"/>
<polygon fill="black" stroke="black" points="954.39,-78.39 943.85,-77.33 951.43,-84.73 954.39,-78.39"/>
</g>
<!-- HomotopyGroup_HomotopyGroup_type_ptype&#45;&gt;HomotopyGroup_HomotopyGroup_type -->
<g id="edge35" class="edge">
<title>HomotopyGroup_HomotopyGroup_type_ptype&#45;&gt;HomotopyGroup_HomotopyGroup_type</title>
<path fill="none" stroke="black" d="M495.12,-184.27C582.54,-158.25 756.2,-106.56 848.33,-79.14"/>
<polygon fill="black" stroke="black" points="849.48,-82.45 858.07,-76.24 847.48,-75.74 849.48,-82.45"/>
</g>
</g>
</svg>
