<?xml version="1.0" encoding="UTF-8" standalone="no"?>
<!DOCTYPE svg PUBLIC "-//W3C//DTD SVG 1.1//EN"
 "http://www.w3.org/Graphics/SVG/1.1/DTD/svg11.dtd">
<!-- Generated by graphviz version 2.43.0 (0)
 -->
<!-- Title: HoTT_Algebra_AbGroups_AbPushout Pages: 1 -->
<svg width="798pt" height="403pt"
 viewBox="0.00 0.00 798.00 403.00" xmlns="http://www.w3.org/2000/svg" xmlns:xlink="http://www.w3.org/1999/xlink">
<g id="graph0" class="graph" transform="scale(1 1) rotate(0) translate(4 399)">
<title>HoTT_Algebra_AbGroups_AbPushout</title>
<polygon fill="white" stroke="transparent" points="-4,4 -4,-399 794,-399 794,4 -4,4"/>
<g id="clust1" class="cluster">
<title>cluster_AbPushout</title>
<polygon fill="#ffffc3" stroke="black" points="11.9,-8 11.9,-387 778.1,-387 778.1,-8 11.9,-8"/>
<text text-anchor="middle" x="58.9" y="-371.8" font-family="Times,serif" font-size="14.00">AbPushout</text>
</g>
<!-- AbPushout_isequiv_ab_pushout_rec -->
<g id="node1" class="node">
<title>AbPushout_isequiv_ab_pushout_rec</title>
<g id="a_node1"><a xlink:href="AbPushout.html#isequiv_ab_pushout_rec" xlink:title="isequiv_ab_pushout_rec">
<ellipse fill="#f070d1" stroke="black" cx="391.75" cy="-330" rx="120.46" ry="18"/>
<ellipse fill="none" stroke="black" cx="391.75" cy="-330" rx="124.47" ry="22"/>
<ellipse fill="none" stroke="black" cx="391.75" cy="-330" rx="128.48" ry="26"/>
<text text-anchor="middle" x="391.75" y="-326.3" font-family="Times,serif" font-size="14.00">isequiv_ab_pushout_rec</text>
</a>
</g>
</g>
<!-- AbPushout_ab_pushout_rec_beta -->
<g id="node2" class="node">
<title>AbPushout_ab_pushout_rec_beta</title>
<g id="a_node2"><a xlink:href="AbPushout.html#ab_pushout_rec_beta" xlink:title="ab_pushout_rec_beta">
<ellipse fill="#f070d1" stroke="black" cx="184.75" cy="-250" rx="107.78" ry="18"/>
<text text-anchor="middle" x="184.75" y="-246.3" font-family="Times,serif" font-size="14.00">ab_pushout_rec_beta</text>
</a>
</g>
</g>
<!-- AbPushout_isequiv_ab_pushout_rec&#45;&gt;AbPushout_ab_pushout_rec_beta -->
<g id="edge1" class="edge">
<title>AbPushout_isequiv_ab_pushout_rec&#45;&gt;AbPushout_ab_pushout_rec_beta</title>
<path fill="none" stroke="black" d="M332.99,-306.86C302.38,-295.32 265.31,-281.36 235.9,-270.27"/>
<polygon fill="black" stroke="black" points="236.83,-266.88 226.24,-266.63 234.36,-273.43 236.83,-266.88"/>
</g>
<!-- AbPushout_ab_pushout_rec_uncurried -->
<g id="node6" class="node">
<title>AbPushout_ab_pushout_rec_uncurried</title>
<g id="a_node6"><a xlink:href="AbPushout.html#ab_pushout_rec_uncurried" xlink:title="ab_pushout_rec_uncurried">
<ellipse fill="#f070d1" stroke="black" cx="568.75" cy="-250" rx="132.68" ry="18"/>
<text text-anchor="middle" x="568.75" y="-246.3" font-family="Times,serif" font-size="14.00">ab_pushout_rec_uncurried</text>
</a>
</g>
</g>
<!-- AbPushout_isequiv_ab_pushout_rec&#45;&gt;AbPushout_ab_pushout_rec_uncurried -->
<g id="edge2" class="edge">
<title>AbPushout_isequiv_ab_pushout_rec&#45;&gt;AbPushout_ab_pushout_rec_uncurried</title>
<path fill="none" stroke="black" d="M443.9,-306.02C468.74,-295.07 498.22,-282.08 522.29,-271.47"/>
<polygon fill="black" stroke="black" points="523.82,-274.62 531.56,-267.39 521,-268.22 523.82,-274.62"/>
</g>
<!-- AbPushout_ab_pushout_commsq -->
<g id="node3" class="node">
<title>AbPushout_ab_pushout_commsq</title>
<g id="a_node3"><a xlink:href="AbPushout.html#ab_pushout_commsq" xlink:title="ab_pushout_commsq">
<ellipse fill="#f070d1" stroke="black" cx="184.75" cy="-178" rx="106.68" ry="18"/>
<text text-anchor="middle" x="184.75" y="-174.3" font-family="Times,serif" font-size="14.00">ab_pushout_commsq</text>
</a>
</g>
</g>
<!-- AbPushout_ab_pushout_rec_beta&#45;&gt;AbPushout_ab_pushout_commsq -->
<g id="edge3" class="edge">
<title>AbPushout_ab_pushout_rec_beta&#45;&gt;AbPushout_ab_pushout_commsq</title>
<path fill="none" stroke="black" d="M184.75,-231.7C184.75,-223.98 184.75,-214.71 184.75,-206.11"/>
<polygon fill="black" stroke="black" points="188.25,-206.1 184.75,-196.1 181.25,-206.1 188.25,-206.1"/>
</g>
<!-- AbPushout_ab_pushout_rec -->
<g id="node7" class="node">
<title>AbPushout_ab_pushout_rec</title>
<g id="a_node7"><a xlink:href="AbPushout.html#ab_pushout_rec" xlink:title="ab_pushout_rec">
<ellipse fill="#f070d1" stroke="black" cx="562.75" cy="-178" rx="83.39" ry="18"/>
<text text-anchor="middle" x="562.75" y="-174.3" font-family="Times,serif" font-size="14.00">ab_pushout_rec</text>
</a>
</g>
</g>
<!-- AbPushout_ab_pushout_rec_beta&#45;&gt;AbPushout_ab_pushout_rec -->
<g id="edge4" class="edge">
<title>AbPushout_ab_pushout_rec_beta&#45;&gt;AbPushout_ab_pushout_rec</title>
<path fill="none" stroke="black" d="M254.08,-236.16C321.49,-223.68 423.39,-204.81 491.46,-192.2"/>
<polygon fill="black" stroke="black" points="492.47,-195.57 501.67,-190.31 491.2,-188.69 492.47,-195.57"/>
</g>
<!-- AbPushout_ab_pushout_inr -->
<g id="node4" class="node">
<title>AbPushout_ab_pushout_inr</title>
<g id="a_node4"><a xlink:href="AbPushout.html#ab_pushout_inr" xlink:title="ab_pushout_inr">
<ellipse fill="#f070d1" stroke="black" cx="148.75" cy="-106" rx="81.49" ry="18"/>
<text text-anchor="middle" x="148.75" y="-102.3" font-family="Times,serif" font-size="14.00">ab_pushout_inr</text>
</a>
</g>
</g>
<!-- AbPushout_ab_pushout_commsq&#45;&gt;AbPushout_ab_pushout_inr -->
<g id="edge5" class="edge">
<title>AbPushout_ab_pushout_commsq&#45;&gt;AbPushout_ab_pushout_inr</title>
<path fill="none" stroke="black" d="M176.03,-160.05C171.9,-152.01 166.85,-142.2 162.24,-133.23"/>
<polygon fill="black" stroke="black" points="165.32,-131.57 157.63,-124.28 159.09,-134.77 165.32,-131.57"/>
</g>
<!-- AbPushout_ab_pushout_inl -->
<g id="node5" class="node">
<title>AbPushout_ab_pushout_inl</title>
<g id="a_node5"><a xlink:href="AbPushout.html#ab_pushout_inl" xlink:title="ab_pushout_inl">
<ellipse fill="#f070d1" stroke="black" cx="414.75" cy="-106" rx="79.89" ry="18"/>
<text text-anchor="middle" x="414.75" y="-102.3" font-family="Times,serif" font-size="14.00">ab_pushout_inl</text>
</a>
</g>
</g>
<!-- AbPushout_ab_pushout_commsq&#45;&gt;AbPushout_ab_pushout_inl -->
<g id="edge6" class="edge">
<title>AbPushout_ab_pushout_commsq&#45;&gt;AbPushout_ab_pushout_inl</title>
<path fill="none" stroke="black" d="M234.09,-161.98C270.8,-150.81 320.94,-135.55 359.09,-123.94"/>
<polygon fill="black" stroke="black" points="360.46,-127.18 369.01,-120.92 358.42,-120.48 360.46,-127.18"/>
</g>
<!-- AbPushout_ab_pushout -->
<g id="node8" class="node">
<title>AbPushout_ab_pushout</title>
<g id="a_node8"><a xlink:href="AbPushout.html#ab_pushout" xlink:title="ab_pushout">
<ellipse fill="#f070d1" stroke="black" cx="414.75" cy="-34" rx="63.89" ry="18"/>
<text text-anchor="middle" x="414.75" y="-30.3" font-family="Times,serif" font-size="14.00">ab_pushout</text>
</a>
</g>
</g>
<!-- AbPushout_ab_pushout_inr&#45;&gt;AbPushout_ab_pushout -->
<g id="edge7" class="edge">
<title>AbPushout_ab_pushout_inr&#45;&gt;AbPushout_ab_pushout</title>
<path fill="none" stroke="black" d="M199.09,-91.75C245.08,-79.65 312.89,-61.8 360.16,-49.37"/>
<polygon fill="black" stroke="black" points="361.14,-52.73 369.92,-46.8 359.36,-45.96 361.14,-52.73"/>
</g>
<!-- AbPushout_ab_pushout_inl&#45;&gt;AbPushout_ab_pushout -->
<g id="edge8" class="edge">
<title>AbPushout_ab_pushout_inl&#45;&gt;AbPushout_ab_pushout</title>
<path fill="none" stroke="black" d="M414.75,-87.7C414.75,-79.98 414.75,-70.71 414.75,-62.11"/>
<polygon fill="black" stroke="black" points="418.25,-62.1 414.75,-52.1 411.25,-62.1 418.25,-62.1"/>
</g>
<!-- AbPushout_ab_pushout_rec_uncurried&#45;&gt;AbPushout_ab_pushout_rec -->
<g id="edge9" class="edge">
<title>AbPushout_ab_pushout_rec_uncurried&#45;&gt;AbPushout_ab_pushout_rec</title>
<path fill="none" stroke="black" d="M567.27,-231.7C566.61,-223.98 565.81,-214.71 565.07,-206.11"/>
<polygon fill="black" stroke="black" points="568.56,-205.77 564.22,-196.1 561.58,-206.37 568.56,-205.77"/>
</g>
<!-- AbPushout_ab_pushout_rec&#45;&gt;AbPushout_ab_pushout -->
<g id="edge10" class="edge">
<title>AbPushout_ab_pushout_rec&#45;&gt;AbPushout_ab_pushout</title>
<path fill="none" stroke="black" d="M554.44,-159.95C544.44,-140.72 526.16,-109.36 503.75,-88 489.82,-74.73 471.98,-63.29 455.94,-54.47"/>
<polygon fill="black" stroke="black" points="457.22,-51.19 446.75,-49.59 453.94,-57.37 457.22,-51.19"/>
</g>
</g>
</svg>
