<?xml version="1.0" encoding="UTF-8" standalone="no"?>
<!DOCTYPE svg PUBLIC "-//W3C//DTD SVG 1.1//EN"
 "http://www.w3.org/Graphics/SVG/1.1/DTD/svg11.dtd">
<!-- Generated by graphviz version 2.43.0 (0)
 -->
<!-- Title: HoTT_Tactics Pages: 1 -->
<svg width="1363pt" height="686pt"
 viewBox="0.00 0.00 1363.00 685.50" xmlns="http://www.w3.org/2000/svg" xmlns:xlink="http://www.w3.org/1999/xlink">
<g id="graph0" class="graph" transform="scale(1 1) rotate(0) translate(4 681.5)">
<title>HoTT_Tactics</title>
<polygon fill="white" stroke="transparent" points="-4,4 -4,-681.5 1359,-681.5 1359,4 -4,4"/>
<g id="clust1" class="cluster">
<title>cluster_EvalIn</title>
<polygon fill="#ffffc3" stroke="black" points="858,-20.3 858,-657.2 1347,-657.2 1347,-20.3 858,-20.3"/>
<text text-anchor="middle" x="889" y="-642" font-family="Times,serif" font-size="14.00">EvalIn</text>
</g>
<g id="clust2" class="cluster">
<title>cluster_Tactics</title>
<polygon fill="#ffffc3" stroke="black" points="8,-20.3 8,-657.2 850,-657.2 850,-20.3 8,-20.3"/>
<text text-anchor="middle" x="41" y="-642" font-family="Times,serif" font-size="14.00">Tactics</text>
</g>
<!-- Tactics_match_eta2 -->
<g id="node1" class="node">
<title>Tactics_match_eta2</title>
<g id="a_node1"><a xlink:href="Tactics.html#match_eta2" xlink:title="match_eta2">
<ellipse fill="#f070d1" stroke="black" cx="770" cy="-512.3" rx="64.21" ry="18"/>
<ellipse fill="none" stroke="black" cx="770" cy="-512.3" rx="68.2" ry="22"/>
<ellipse fill="none" stroke="black" cx="770" cy="-512.3" rx="72.19" ry="26"/>
<text text-anchor="middle" x="770" y="-508.6" font-family="Times,serif" font-size="14.00">match_eta2</text>
</a>
</g>
</g>
<!-- Tactics_match_eta1 -->
<g id="node2" class="node">
<title>Tactics_match_eta1</title>
<g id="a_node2"><a xlink:href="Tactics.html#match_eta1" xlink:title="match_eta1">
<ellipse fill="#f070d1" stroke="black" cx="770" cy="-289.3" rx="64.19" ry="18"/>
<text text-anchor="middle" x="770" y="-285.6" font-family="Times,serif" font-size="14.00">match_eta1</text>
</a>
</g>
</g>
<!-- Tactics_match_eta2&#45;&gt;Tactics_match_eta1 -->
<g id="edge1" class="edge">
<title>Tactics_match_eta2&#45;&gt;Tactics_match_eta1</title>
<path fill="none" stroke="black" d="M770,-485.95C770,-444.04 770,-360.65 770,-317.53"/>
<polygon fill="black" stroke="black" points="773.5,-317.49 770,-307.49 766.5,-317.49 773.5,-317.49"/>
</g>
<!-- Tactics_match_eta -->
<g id="node3" class="node">
<title>Tactics_match_eta</title>
<g id="a_node3"><a xlink:href="Tactics.html#match_eta" xlink:title="match_eta">
<ellipse fill="#f070d1" stroke="black" cx="770" cy="-86.3" rx="58.49" ry="18"/>
<text text-anchor="middle" x="770" y="-82.6" font-family="Times,serif" font-size="14.00">match_eta</text>
</a>
</g>
</g>
<!-- Tactics_match_eta1&#45;&gt;Tactics_match_eta -->
<g id="edge2" class="edge">
<title>Tactics_match_eta1&#45;&gt;Tactics_match_eta</title>
<path fill="none" stroke="black" d="M770,-271.16C770,-236.23 770,-156.54 770,-114.47"/>
<polygon fill="black" stroke="black" points="773.5,-114.39 770,-104.39 766.5,-114.39 773.5,-114.39"/>
</g>
<!-- Tactics_path_forall_2_beta -->
<g id="node4" class="node">
<title>Tactics_path_forall_2_beta</title>
<g id="a_node4"><a xlink:href="Tactics.html#path_forall_2_beta" xlink:title="path_forall_2_beta">
<ellipse fill="#f070d1" stroke="black" cx="576" cy="-512.3" rx="95.58" ry="18"/>
<ellipse fill="none" stroke="black" cx="576" cy="-512.3" rx="99.58" ry="22"/>
<ellipse fill="none" stroke="black" cx="576" cy="-512.3" rx="103.58" ry="26"/>
<text text-anchor="middle" x="576" y="-508.6" font-family="Times,serif" font-size="14.00">path_forall_2_beta</text>
</a>
</g>
</g>
<!-- Tactics_path_forall_recr_beta -->
<g id="node6" class="node">
<title>Tactics_path_forall_recr_beta</title>
<g id="a_node6"><a xlink:href="Tactics.html#path_forall_recr_beta" xlink:title="path_forall_recr_beta">
<ellipse fill="#f070d1" stroke="black" cx="462" cy="-289.3" rx="108.58" ry="18"/>
<text text-anchor="middle" x="462" y="-285.6" font-family="Times,serif" font-size="14.00">path_forall_recr_beta</text>
</a>
</g>
</g>
<!-- Tactics_path_forall_2_beta&#45;&gt;Tactics_path_forall_recr_beta -->
<g id="edge3" class="edge">
<title>Tactics_path_forall_2_beta&#45;&gt;Tactics_path_forall_recr_beta</title>
<path fill="none" stroke="black" d="M563.14,-486.38C541.38,-444.19 497.5,-359.12 475.38,-316.24"/>
<polygon fill="black" stroke="black" points="478.45,-314.56 470.76,-307.28 472.23,-317.77 478.45,-314.56"/>
</g>
<!-- Tactics_path_forall_2_beta_ -->
<g id="node5" class="node">
<title>Tactics_path_forall_2_beta_</title>
<g id="a_node5"><a xlink:href="Tactics.html#path_forall_2_beta'" xlink:title="path_forall_2_beta&#39;">
<ellipse fill="#f070d1" stroke="black" cx="348" cy="-512.3" rx="98.27" ry="18"/>
<ellipse fill="none" stroke="black" cx="348" cy="-512.3" rx="102.28" ry="22"/>
<ellipse fill="none" stroke="black" cx="348" cy="-512.3" rx="106.28" ry="26"/>
<text text-anchor="middle" x="348" y="-508.6" font-family="Times,serif" font-size="14.00">path_forall_2_beta&#39;</text>
</a>
</g>
</g>
<!-- Tactics_path_forall_2_beta_&#45;&gt;Tactics_path_forall_recr_beta -->
<g id="edge4" class="edge">
<title>Tactics_path_forall_2_beta_&#45;&gt;Tactics_path_forall_recr_beta</title>
<path fill="none" stroke="black" d="M360.86,-486.38C382.62,-444.19 426.5,-359.12 448.62,-316.24"/>
<polygon fill="black" stroke="black" points="451.77,-317.77 453.24,-307.28 445.55,-314.56 451.77,-317.77"/>
</g>
<!-- Tactics_path_forall_recr_beta_ -->
<g id="node7" class="node">
<title>Tactics_path_forall_recr_beta_</title>
<g id="a_node7"><a xlink:href="Tactics.html#path_forall_recr_beta'" xlink:title="path_forall_recr_beta&#39;">
<ellipse fill="#f070d1" stroke="black" cx="462" cy="-86.3" rx="111.28" ry="18"/>
<text text-anchor="middle" x="462" y="-82.6" font-family="Times,serif" font-size="14.00">path_forall_recr_beta&#39;</text>
</a>
</g>
</g>
<!-- Tactics_path_forall_recr_beta&#45;&gt;Tactics_path_forall_recr_beta_ -->
<g id="edge5" class="edge">
<title>Tactics_path_forall_recr_beta&#45;&gt;Tactics_path_forall_recr_beta_</title>
<path fill="none" stroke="black" d="M462,-271.16C462,-236.23 462,-156.54 462,-114.47"/>
<polygon fill="black" stroke="black" points="465.5,-114.39 462,-104.39 458.5,-114.39 465.5,-114.39"/>
</g>
<!-- Tactics_path_forall_1_beta -->
<g id="node8" class="node">
<title>Tactics_path_forall_1_beta</title>
<g id="a_node8"><a xlink:href="Tactics.html#path_forall_1_beta" xlink:title="path_forall_1_beta">
<ellipse fill="#f070d1" stroke="black" cx="120" cy="-512.3" rx="95.58" ry="18"/>
<ellipse fill="none" stroke="black" cx="120" cy="-512.3" rx="99.58" ry="22"/>
<ellipse fill="none" stroke="black" cx="120" cy="-512.3" rx="103.58" ry="26"/>
<text text-anchor="middle" x="120" y="-508.6" font-family="Times,serif" font-size="14.00">path_forall_1_beta</text>
</a>
</g>
</g>
<!-- EvalIn_dummy_sind -->
<g id="node9" class="node">
<title>EvalIn_dummy_sind</title>
<g id="a_node9"><a xlink:href="EvalIn.html#dummy_sind" xlink:title="dummy_sind">
<ellipse fill="#f070d1" stroke="black" cx="1261" cy="-289.3" rx="69.58" ry="18"/>
<ellipse fill="none" stroke="black" cx="1261" cy="-289.3" rx="73.59" ry="22"/>
<ellipse fill="none" stroke="black" cx="1261" cy="-289.3" rx="77.59" ry="26"/>
<text text-anchor="middle" x="1261" y="-285.6" font-family="Times,serif" font-size="14.00">dummy_sind</text>
</a>
</g>
</g>
<!-- EvalIn_adummy -->
<g id="node13" class="node">
<title>EvalIn_adummy</title>
<g id="a_node13"><a xlink:href="EvalIn.html#adummy" xlink:title="adummy">
<ellipse fill="#7faaff" stroke="black" cx="1040" cy="-86.3" rx="50.89" ry="18"/>
<text text-anchor="middle" x="1040" y="-82.6" font-family="Times,serif" font-size="14.00">adummy</text>
</a>
</g>
</g>
<!-- EvalIn_dummy_sind&#45;&gt;EvalIn_adummy -->
<g id="edge6" class="edge">
<title>EvalIn_dummy_sind&#45;&gt;EvalIn_adummy</title>
<path fill="none" stroke="black" d="M1234.78,-264.45C1191.92,-225.47 1107.42,-148.62 1065.22,-110.24"/>
<polygon fill="black" stroke="black" points="1067.36,-107.45 1057.61,-103.31 1062.65,-112.63 1067.36,-107.45"/>
</g>
<!-- EvalIn_dummy -->
<g id="node14" class="node">
<title>EvalIn_dummy</title>
<g id="a_node14"><a xlink:href="EvalIn.html#dummy" xlink:title="dummy">
<ellipse fill="#e2cdfa" stroke="black" cx="1154" cy="-86.3" rx="45.49" ry="18"/>
<text text-anchor="middle" x="1154" y="-82.6" font-family="Times,serif" font-size="14.00">dummy</text>
</a>
</g>
</g>
<!-- EvalIn_dummy_sind&#45;&gt;EvalIn_dummy -->
<g id="edge7" class="edge">
<title>EvalIn_dummy_sind&#45;&gt;EvalIn_dummy</title>
<path fill="none" stroke="black" d="M1247.88,-263.65C1227.51,-225.38 1188.46,-152.03 1167.72,-113.08"/>
<polygon fill="black" stroke="black" points="1170.66,-111.14 1162.87,-103.96 1164.48,-114.43 1170.66,-111.14"/>
</g>
<!-- EvalIn_dummy_rec -->
<g id="node10" class="node">
<title>EvalIn_dummy_rec</title>
<g id="a_node10"><a xlink:href="EvalIn.html#dummy_rec" xlink:title="dummy_rec">
<ellipse fill="#f070d1" stroke="black" cx="1097" cy="-512.3" rx="64.21" ry="18"/>
<ellipse fill="none" stroke="black" cx="1097" cy="-512.3" rx="68.2" ry="22"/>
<ellipse fill="none" stroke="black" cx="1097" cy="-512.3" rx="72.19" ry="26"/>
<text text-anchor="middle" x="1097" y="-508.6" font-family="Times,serif" font-size="14.00">dummy_rec</text>
</a>
</g>
</g>
<!-- EvalIn_dummy_rect -->
<g id="node12" class="node">
<title>EvalIn_dummy_rect</title>
<g id="a_node12"><a xlink:href="EvalIn.html#dummy_rect" xlink:title="dummy_rect">
<ellipse fill="#f070d1" stroke="black" cx="1097" cy="-289.3" rx="68.49" ry="18"/>
<text text-anchor="middle" x="1097" y="-285.6" font-family="Times,serif" font-size="14.00">dummy_rect</text>
</a>
</g>
</g>
<!-- EvalIn_dummy_rec&#45;&gt;EvalIn_dummy_rect -->
<g id="edge8" class="edge">
<title>EvalIn_dummy_rec&#45;&gt;EvalIn_dummy_rect</title>
<path fill="none" stroke="black" d="M1097,-485.95C1097,-444.04 1097,-360.65 1097,-317.53"/>
<polygon fill="black" stroke="black" points="1100.5,-317.49 1097,-307.49 1093.5,-317.49 1100.5,-317.49"/>
</g>
<!-- EvalIn_dummy_ind -->
<g id="node11" class="node">
<title>EvalIn_dummy_ind</title>
<g id="a_node11"><a xlink:href="EvalIn.html#dummy_ind" xlink:title="dummy_ind">
<ellipse fill="#7fffd4" stroke="black" cx="938" cy="-289.3" rx="64.21" ry="18"/>
<ellipse fill="none" stroke="black" cx="938" cy="-289.3" rx="68.2" ry="22"/>
<ellipse fill="none" stroke="black" cx="938" cy="-289.3" rx="72.19" ry="26"/>
<text text-anchor="middle" x="938" y="-285.6" font-family="Times,serif" font-size="14.00">dummy_ind</text>
</a>
</g>
</g>
<!-- EvalIn_dummy_ind&#45;&gt;EvalIn_adummy -->
<g id="edge9" class="edge">
<title>EvalIn_dummy_ind&#45;&gt;EvalIn_adummy</title>
<path fill="none" stroke="black" d="M950.51,-263.65C969.88,-225.48 1006.96,-152.4 1026.77,-113.38"/>
<polygon fill="black" stroke="black" points="1030,-114.73 1031.41,-104.23 1023.76,-111.56 1030,-114.73"/>
</g>
<!-- EvalIn_dummy_ind&#45;&gt;EvalIn_dummy -->
<g id="edge10" class="edge">
<title>EvalIn_dummy_ind&#45;&gt;EvalIn_dummy</title>
<path fill="none" stroke="black" d="M963.2,-264.85C1005.02,-225.93 1088.23,-148.5 1129.55,-110.05"/>
<polygon fill="black" stroke="black" points="1132.06,-112.5 1136.99,-103.12 1127.29,-107.37 1132.06,-112.5"/>
</g>
<!-- EvalIn_dummy_rect&#45;&gt;EvalIn_adummy -->
<g id="edge11" class="edge">
<title>EvalIn_dummy_rect&#45;&gt;EvalIn_adummy</title>
<path fill="none" stroke="black" d="M1092.14,-271.16C1082.21,-236.15 1059.54,-156.2 1047.63,-114.2"/>
<polygon fill="black" stroke="black" points="1050.94,-113.06 1044.85,-104.39 1044.21,-114.97 1050.94,-113.06"/>
</g>
<!-- EvalIn_dummy_rect&#45;&gt;EvalIn_dummy -->
<g id="edge12" class="edge">
<title>EvalIn_dummy_rect&#45;&gt;EvalIn_dummy</title>
<path fill="none" stroke="black" d="M1101.86,-271.16C1111.79,-236.15 1134.46,-156.2 1146.37,-114.2"/>
<polygon fill="black" stroke="black" points="1149.79,-114.97 1149.15,-104.39 1143.06,-113.06 1149.79,-114.97"/>
</g>
</g>
</svg>
