<?xml version="1.0" encoding="UTF-8" standalone="no"?>
<!DOCTYPE svg PUBLIC "-//W3C//DTD SVG 1.1//EN"
 "http://www.w3.org/Graphics/SVG/1.1/DTD/svg11.dtd">
<!-- Generated by graphviz version 2.43.0 (0)
 -->
<!-- Title: HoTT_Pointed_pSusp Pages: 1 -->
<svg width="1457pt" height="733pt"
 viewBox="0.00 0.00 1457.00 732.50" xmlns="http://www.w3.org/2000/svg" xmlns:xlink="http://www.w3.org/1999/xlink">
<g id="graph0" class="graph" transform="scale(1 1) rotate(0) translate(4 728.5)">
<title>HoTT_Pointed_pSusp</title>
<polygon fill="white" stroke="transparent" points="-4,4 -4,-728.5 1453,-728.5 1453,4 -4,4"/>
<g id="clust1" class="cluster">
<title>cluster_pSusp</title>
<polygon fill="#ffffc3" stroke="black" points="8,-9.82 8,-714.68 1441,-714.68 1441,-9.82 8,-9.82"/>
<text text-anchor="middle" x="38.5" y="-699.48" font-family="Times,serif" font-size="14.00">pSusp</text>
</g>
<g id="clust2" class="cluster">
<title>cluster_pSusp_Book_Loop_Susp_Adjunction</title>
<polygon fill="#ffffa3" stroke="black" points="757,-186.65 757,-298.4 975,-298.4 975,-186.65 757,-186.65"/>
<text text-anchor="middle" x="866" y="-283.2" font-family="Times,serif" font-size="14.00">Book_Loop_Susp_Adjunction</text>
</g>
<!-- pSusp_Book_Loop_Susp_Adjunction_loop_susp_adjoint -->
<g id="node1" class="node">
<title>pSusp_Book_Loop_Susp_Adjunction_loop_susp_adjoint</title>
<g id="a_node1"><a xlink:href="pSusp.html#Book_Loop_Susp_Adjunction.loop_susp_adjoint" xlink:title="loop_susp_adjoint">
<ellipse fill="#f070d1" stroke="black" cx="866" cy="-228.82" rx="92.89" ry="18"/>
<ellipse fill="none" stroke="black" cx="866" cy="-228.82" rx="96.89" ry="22"/>
<ellipse fill="none" stroke="black" cx="866" cy="-228.82" rx="100.88" ry="26"/>
<text text-anchor="middle" x="866" y="-225.12" font-family="Times,serif" font-size="14.00">loop_susp_adjoint</text>
</a>
</g>
</g>
<!-- pSusp_psusp -->
<g id="node17" class="node">
<title>pSusp_psusp</title>
<g id="a_node17"><a xlink:href="pSusp.html#psusp" xlink:title="psusp">
<ellipse fill="#f070d1" stroke="black" cx="762" cy="-129.82" rx="38.19" ry="18"/>
<text text-anchor="middle" x="762" y="-126.12" font-family="Times,serif" font-size="14.00">psusp</text>
</a>
</g>
</g>
<!-- pSusp_Book_Loop_Susp_Adjunction_loop_susp_adjoint&#45;&gt;pSusp_psusp -->
<g id="edge1" class="edge">
<title>pSusp_Book_Loop_Susp_Adjunction_loop_susp_adjoint&#45;&gt;pSusp_psusp</title>
<path fill="none" stroke="black" d="M840.02,-203.6C823.48,-188.17 802.2,-168.32 786.04,-153.25"/>
<polygon fill="black" stroke="black" points="788.27,-150.54 778.57,-146.27 783.49,-155.65 788.27,-150.54"/>
</g>
<!-- pSusp_natequiv_loop_susp_adjoint_r -->
<g id="node2" class="node">
<title>pSusp_natequiv_loop_susp_adjoint_r</title>
<g id="a_node2"><a xlink:href="pSusp.html#natequiv_loop_susp_adjoint_r" xlink:title="natequiv_loop_susp_adjoint_r">
<ellipse fill="#f070d1" stroke="black" cx="902" cy="-644.82" rx="146.46" ry="18"/>
<ellipse fill="none" stroke="black" cx="902" cy="-644.82" rx="150.47" ry="22"/>
<ellipse fill="none" stroke="black" cx="902" cy="-644.82" rx="154.47" ry="26"/>
<text text-anchor="middle" x="902" y="-641.12" font-family="Times,serif" font-size="14.00">natequiv_loop_susp_adjoint_r</text>
</a>
</g>
</g>
<!-- pSusp_is1natural_loop_susp_adjoint_r -->
<g id="node3" class="node">
<title>pSusp_is1natural_loop_susp_adjoint_r</title>
<g id="a_node3"><a xlink:href="pSusp.html#is1natural_loop_susp_adjoint_r" xlink:title="is1natural_loop_susp_adjoint_r">
<ellipse fill="#f070d1" stroke="black" cx="902" cy="-536.82" rx="153.27" ry="18"/>
<text text-anchor="middle" x="902" y="-533.12" font-family="Times,serif" font-size="14.00">is1natural_loop_susp_adjoint_r</text>
</a>
</g>
</g>
<!-- pSusp_natequiv_loop_susp_adjoint_r&#45;&gt;pSusp_is1natural_loop_susp_adjoint_r -->
<g id="edge2" class="edge">
<title>pSusp_natequiv_loop_susp_adjoint_r&#45;&gt;pSusp_is1natural_loop_susp_adjoint_r</title>
<path fill="none" stroke="black" d="M902,-618.7C902,-602.53 902,-581.52 902,-564.97"/>
<polygon fill="black" stroke="black" points="905.5,-564.83 902,-554.83 898.5,-564.83 905.5,-564.83"/>
</g>
<!-- pSusp_loop_susp_adjoint -->
<g id="node6" class="node">
<title>pSusp_loop_susp_adjoint</title>
<g id="a_node6"><a xlink:href="pSusp.html#loop_susp_adjoint" xlink:title="loop_susp_adjoint">
<ellipse fill="#f070d1" stroke="black" cx="603" cy="-438.82" rx="92.88" ry="18"/>
<text text-anchor="middle" x="603" y="-435.12" font-family="Times,serif" font-size="14.00">loop_susp_adjoint</text>
</a>
</g>
</g>
<!-- pSusp_is1natural_loop_susp_adjoint_r&#45;&gt;pSusp_loop_susp_adjoint -->
<g id="edge3" class="edge">
<title>pSusp_is1natural_loop_susp_adjoint_r&#45;&gt;pSusp_loop_susp_adjoint</title>
<path fill="none" stroke="black" d="M851.95,-519.76C798.48,-502.58 713.92,-475.44 658.45,-457.63"/>
<polygon fill="black" stroke="black" points="659.38,-454.25 648.79,-454.53 657.24,-460.91 659.38,-454.25"/>
</g>
<!-- pSusp_loop_susp_adjoint_nat_l -->
<g id="node4" class="node">
<title>pSusp_loop_susp_adjoint_nat_l</title>
<g id="a_node4"><a xlink:href="pSusp.html#loop_susp_adjoint_nat_l" xlink:title="loop_susp_adjoint_nat_l">
<ellipse fill="#f070d1" stroke="black" cx="603" cy="-536.82" rx="119.67" ry="18"/>
<ellipse fill="none" stroke="black" cx="603" cy="-536.82" rx="123.68" ry="22"/>
<ellipse fill="none" stroke="black" cx="603" cy="-536.82" rx="127.68" ry="26"/>
<text text-anchor="middle" x="603" y="-533.12" font-family="Times,serif" font-size="14.00">loop_susp_adjoint_nat_l</text>
</a>
</g>
</g>
<!-- pSusp_loop_susp_adjoint_nat_l&#45;&gt;pSusp_loop_susp_adjoint -->
<g id="edge4" class="edge">
<title>pSusp_loop_susp_adjoint_nat_l&#45;&gt;pSusp_loop_susp_adjoint</title>
<path fill="none" stroke="black" d="M603,-510.6C603,-497.28 603,-480.9 603,-467.26"/>
<polygon fill="black" stroke="black" points="606.5,-467.01 603,-457.01 599.5,-467.01 606.5,-467.01"/>
</g>
<!-- pSusp_loop_susp_adjoint_nat_r -->
<g id="node5" class="node">
<title>pSusp_loop_susp_adjoint_nat_r</title>
<g id="a_node5"><a xlink:href="pSusp.html#loop_susp_adjoint_nat_r" xlink:title="loop_susp_adjoint_nat_r">
<ellipse fill="#f070d1" stroke="black" cx="329" cy="-536.82" rx="120.79" ry="18"/>
<ellipse fill="none" stroke="black" cx="329" cy="-536.82" rx="124.78" ry="22"/>
<ellipse fill="none" stroke="black" cx="329" cy="-536.82" rx="128.78" ry="26"/>
<text text-anchor="middle" x="329" y="-533.12" font-family="Times,serif" font-size="14.00">loop_susp_adjoint_nat_r</text>
</a>
</g>
</g>
<!-- pSusp_loop_susp_adjoint_nat_r&#45;&gt;pSusp_loop_susp_adjoint -->
<g id="edge5" class="edge">
<title>pSusp_loop_susp_adjoint_nat_r&#45;&gt;pSusp_loop_susp_adjoint</title>
<path fill="none" stroke="black" d="M391.17,-514.04C439.13,-497.24 504.73,-474.25 550.16,-458.34"/>
<polygon fill="black" stroke="black" points="551.54,-461.56 559.82,-454.95 549.23,-454.95 551.54,-461.56"/>
</g>
<!-- pSusp_loop_susp_triangle2 -->
<g id="node7" class="node">
<title>pSusp_loop_susp_triangle2</title>
<g id="a_node7"><a xlink:href="pSusp.html#loop_susp_triangle2" xlink:title="loop_susp_triangle2">
<ellipse fill="#f070d1" stroke="black" cx="841" cy="-339.82" rx="102.88" ry="18"/>
<text text-anchor="middle" x="841" y="-336.12" font-family="Times,serif" font-size="14.00">loop_susp_triangle2</text>
</a>
</g>
</g>
<!-- pSusp_loop_susp_adjoint&#45;&gt;pSusp_loop_susp_triangle2 -->
<g id="edge6" class="edge">
<title>pSusp_loop_susp_adjoint&#45;&gt;pSusp_loop_susp_triangle2</title>
<path fill="none" stroke="black" d="M640.97,-422.35C682.18,-405.55 748.06,-378.7 792.87,-360.44"/>
<polygon fill="black" stroke="black" points="794.43,-363.58 802.37,-356.57 791.79,-357.1 794.43,-363.58"/>
</g>
<!-- pSusp_loop_susp_triangle1 -->
<g id="node8" class="node">
<title>pSusp_loop_susp_triangle1</title>
<g id="a_node8"><a xlink:href="pSusp.html#loop_susp_triangle1" xlink:title="loop_susp_triangle1">
<ellipse fill="#f070d1" stroke="black" cx="1064" cy="-339.82" rx="102.88" ry="18"/>
<text text-anchor="middle" x="1064" y="-336.12" font-family="Times,serif" font-size="14.00">loop_susp_triangle1</text>
</a>
</g>
</g>
<!-- pSusp_loop_susp_adjoint&#45;&gt;pSusp_loop_susp_triangle1 -->
<g id="edge7" class="edge">
<title>pSusp_loop_susp_adjoint&#45;&gt;pSusp_loop_susp_triangle1</title>
<path fill="none" stroke="black" d="M665.35,-425.36C735.4,-411.28 852.48,-387.48 953,-365.82 966.36,-362.94 980.61,-359.8 994.29,-356.73"/>
<polygon fill="black" stroke="black" points="995.14,-360.13 1004.13,-354.52 993.61,-353.3 995.14,-360.13"/>
</g>
<!-- pSusp_loop_susp_counit_natural -->
<g id="node9" class="node">
<title>pSusp_loop_susp_counit_natural</title>
<g id="a_node9"><a xlink:href="pSusp.html#loop_susp_counit_natural" xlink:title="loop_susp_counit_natural">
<ellipse fill="#f070d1" stroke="black" cx="341" cy="-339.82" rx="127.28" ry="18"/>
<text text-anchor="middle" x="341" y="-336.12" font-family="Times,serif" font-size="14.00">loop_susp_counit_natural</text>
</a>
</g>
</g>
<!-- pSusp_loop_susp_adjoint&#45;&gt;pSusp_loop_susp_counit_natural -->
<g id="edge8" class="edge">
<title>pSusp_loop_susp_adjoint&#45;&gt;pSusp_loop_susp_counit_natural</title>
<path fill="none" stroke="black" d="M561.77,-422.56C516.38,-405.75 443.28,-378.69 393.74,-360.35"/>
<polygon fill="black" stroke="black" points="394.76,-356.99 384.16,-356.8 392.33,-363.56 394.76,-356.99"/>
</g>
<!-- pSusp_loop_susp_unit_natural -->
<g id="node11" class="node">
<title>pSusp_loop_susp_unit_natural</title>
<g id="a_node11"><a xlink:href="pSusp.html#loop_susp_unit_natural" xlink:title="loop_susp_unit_natural">
<ellipse fill="#f070d1" stroke="black" cx="603" cy="-339.82" rx="116.98" ry="18"/>
<text text-anchor="middle" x="603" y="-336.12" font-family="Times,serif" font-size="14.00">loop_susp_unit_natural</text>
</a>
</g>
</g>
<!-- pSusp_loop_susp_adjoint&#45;&gt;pSusp_loop_susp_unit_natural -->
<g id="edge9" class="edge">
<title>pSusp_loop_susp_adjoint&#45;&gt;pSusp_loop_susp_unit_natural</title>
<path fill="none" stroke="black" d="M603,-420.48C603,-406 603,-385.09 603,-368.32"/>
<polygon fill="black" stroke="black" points="606.5,-368.02 603,-358.02 599.5,-368.02 606.5,-368.02"/>
</g>
<!-- pSusp_is1functor_psusp -->
<g id="node15" class="node">
<title>pSusp_is1functor_psusp</title>
<g id="a_node15"><a xlink:href="pSusp.html#is1functor_psusp" xlink:title="is1functor_psusp">
<ellipse fill="#f070d1" stroke="black" cx="106" cy="-339.82" rx="89.88" ry="18"/>
<text text-anchor="middle" x="106" y="-336.12" font-family="Times,serif" font-size="14.00">is1functor_psusp</text>
</a>
</g>
</g>
<!-- pSusp_loop_susp_adjoint&#45;&gt;pSusp_is1functor_psusp -->
<g id="edge10" class="edge">
<title>pSusp_loop_susp_adjoint&#45;&gt;pSusp_is1functor_psusp</title>
<path fill="none" stroke="black" d="M533.69,-426.76C454.06,-413.71 319.61,-390.63 205,-365.82 192.83,-363.19 179.89,-360.12 167.52,-357.05"/>
<polygon fill="black" stroke="black" points="168.29,-353.64 157.74,-354.6 166.59,-360.43 168.29,-353.64"/>
</g>
<!-- pSusp_loop_susp_counit -->
<g id="node10" class="node">
<title>pSusp_loop_susp_counit</title>
<g id="a_node10"><a xlink:href="pSusp.html#loop_susp_counit" xlink:title="loop_susp_counit">
<ellipse fill="#f070d1" stroke="black" cx="658" cy="-228.82" rx="89.08" ry="18"/>
<text text-anchor="middle" x="658" y="-225.12" font-family="Times,serif" font-size="14.00">loop_susp_counit</text>
</a>
</g>
</g>
<!-- pSusp_loop_susp_triangle2&#45;&gt;pSusp_loop_susp_counit -->
<g id="edge11" class="edge">
<title>pSusp_loop_susp_triangle2&#45;&gt;pSusp_loop_susp_counit</title>
<path fill="none" stroke="black" d="M813.21,-322.27C781.36,-303.3 729.06,-272.15 694.09,-251.32"/>
<polygon fill="black" stroke="black" points="695.54,-248.11 685.16,-246 691.96,-254.12 695.54,-248.11"/>
</g>
<!-- pSusp_loop_susp_unit -->
<g id="node14" class="node">
<title>pSusp_loop_susp_unit</title>
<g id="a_node14"><a xlink:href="pSusp.html#loop_susp_unit" xlink:title="loop_susp_unit">
<ellipse fill="#f070d1" stroke="black" cx="1064" cy="-228.82" rx="79.09" ry="18"/>
<text text-anchor="middle" x="1064" y="-225.12" font-family="Times,serif" font-size="14.00">loop_susp_unit</text>
</a>
</g>
</g>
<!-- pSusp_loop_susp_triangle2&#45;&gt;pSusp_loop_susp_unit -->
<g id="edge12" class="edge">
<title>pSusp_loop_susp_triangle2&#45;&gt;pSusp_loop_susp_unit</title>
<path fill="none" stroke="black" d="M887.77,-323.69C915.01,-314.19 949.67,-300.9 979,-285.82 997.97,-276.08 1017.93,-263.08 1033.75,-252.06"/>
<polygon fill="black" stroke="black" points="1035.93,-254.8 1042.07,-246.17 1031.89,-249.09 1035.93,-254.8"/>
</g>
<!-- pSusp_is0functor_psusp -->
<g id="node16" class="node">
<title>pSusp_is0functor_psusp</title>
<g id="a_node16"><a xlink:href="pSusp.html#is0functor_psusp" xlink:title="is0functor_psusp">
<ellipse fill="#f070d1" stroke="black" cx="461" cy="-228.82" rx="89.88" ry="18"/>
<text text-anchor="middle" x="461" y="-225.12" font-family="Times,serif" font-size="14.00">is0functor_psusp</text>
</a>
</g>
</g>
<!-- pSusp_loop_susp_triangle2&#45;&gt;pSusp_is0functor_psusp -->
<g id="edge13" class="edge">
<title>pSusp_loop_susp_triangle2&#45;&gt;pSusp_is0functor_psusp</title>
<path fill="none" stroke="black" d="M782.13,-325.04C765.03,-321.21 746.31,-317.19 729,-313.82 654.26,-299.3 631.79,-311.18 560,-285.82 536.37,-277.48 511.84,-263.65 493.11,-251.82"/>
<polygon fill="black" stroke="black" points="494.97,-248.86 484.67,-246.38 491.18,-254.74 494.97,-248.86"/>
</g>
<!-- pSusp_loop_susp_triangle1&#45;&gt;pSusp_loop_susp_counit -->
<g id="edge14" class="edge">
<title>pSusp_loop_susp_triangle1&#45;&gt;pSusp_loop_susp_counit</title>
<path fill="none" stroke="black" d="M1006.29,-324.88C989.19,-321 970.39,-316.99 953,-313.82 864.7,-297.73 837.74,-315.41 753,-285.82 730.01,-277.8 706.41,-263.92 688.49,-251.99"/>
<polygon fill="black" stroke="black" points="690.41,-249.07 680.17,-246.33 686.47,-254.85 690.41,-249.07"/>
</g>
<!-- pSusp_loop_susp_triangle1&#45;&gt;pSusp_loop_susp_unit -->
<g id="edge15" class="edge">
<title>pSusp_loop_susp_triangle1&#45;&gt;pSusp_loop_susp_unit</title>
<path fill="none" stroke="black" d="M1064,-321.79C1064,-304.54 1064,-277.57 1064,-257.29"/>
<polygon fill="black" stroke="black" points="1067.5,-257.1 1064,-247.1 1060.5,-257.1 1067.5,-257.1"/>
</g>
<!-- pSusp_loop_susp_counit_natural&#45;&gt;pSusp_loop_susp_counit -->
<g id="edge16" class="edge">
<title>pSusp_loop_susp_counit_natural&#45;&gt;pSusp_loop_susp_counit</title>
<path fill="none" stroke="black" d="M418.91,-325.53C461.49,-316.89 514.65,-303.85 560,-285.82 582.69,-276.81 606.51,-263.3 624.99,-251.81"/>
<polygon fill="black" stroke="black" points="627.02,-254.66 633.6,-246.36 623.28,-248.75 627.02,-254.66"/>
</g>
<!-- pSusp_loop_susp_counit_natural&#45;&gt;pSusp_is0functor_psusp -->
<g id="edge17" class="edge">
<title>pSusp_loop_susp_counit_natural&#45;&gt;pSusp_is0functor_psusp</title>
<path fill="none" stroke="black" d="M359.75,-321.79C379.92,-303.47 412.13,-274.21 434.8,-253.62"/>
<polygon fill="black" stroke="black" points="437.33,-256.05 442.38,-246.74 432.63,-250.87 437.33,-256.05"/>
</g>
<!-- pSusp_loop_susp_counit&#45;&gt;pSusp_psusp -->
<g id="edge18" class="edge">
<title>pSusp_loop_susp_counit&#45;&gt;pSusp_psusp</title>
<path fill="none" stroke="black" d="M676.12,-210.93C693.23,-194.97 719,-170.93 737.85,-153.34"/>
<polygon fill="black" stroke="black" points="740.54,-155.63 745.46,-146.25 735.76,-150.51 740.54,-155.63"/>
</g>
<!-- pSusp_loop_susp_unit_natural&#45;&gt;pSusp_loop_susp_unit -->
<g id="edge19" class="edge">
<title>pSusp_loop_susp_unit_natural&#45;&gt;pSusp_loop_susp_unit</title>
<path fill="none" stroke="black" d="M668.21,-324.8C687.7,-320.9 709.17,-316.9 729,-313.82 839.49,-296.71 873.86,-323.85 979,-285.82 999.89,-278.27 1020.76,-264.63 1036.6,-252.7"/>
<polygon fill="black" stroke="black" points="1039.09,-255.2 1044.84,-246.3 1034.8,-249.67 1039.09,-255.2"/>
</g>
<!-- pSusp_loop_susp_unit_natural&#45;&gt;pSusp_is0functor_psusp -->
<g id="edge20" class="edge">
<title>pSusp_loop_susp_unit_natural&#45;&gt;pSusp_is0functor_psusp</title>
<path fill="none" stroke="black" d="M581.12,-322.03C556.87,-303.41 517.62,-273.28 490.62,-252.56"/>
<polygon fill="black" stroke="black" points="492.73,-249.77 482.67,-246.46 488.47,-255.32 492.73,-249.77"/>
</g>
<!-- pSusp_pequiv_ptr_loop_psusp -->
<g id="node12" class="node">
<title>pSusp_pequiv_ptr_loop_psusp</title>
<g id="a_node12"><a xlink:href="pSusp.html#pequiv_ptr_loop_psusp" xlink:title="pequiv_ptr_loop_psusp">
<ellipse fill="#f070d1" stroke="black" cx="1309" cy="-339.82" rx="116.19" ry="18"/>
<ellipse fill="none" stroke="black" cx="1309" cy="-339.82" rx="120.18" ry="22"/>
<ellipse fill="none" stroke="black" cx="1309" cy="-339.82" rx="124.18" ry="26"/>
<text text-anchor="middle" x="1309" y="-336.12" font-family="Times,serif" font-size="14.00">pequiv_ptr_loop_psusp</text>
</a>
</g>
</g>
<!-- pSusp_conn_map_loop_susp_unit -->
<g id="node13" class="node">
<title>pSusp_conn_map_loop_susp_unit</title>
<g id="a_node13"><a xlink:href="pSusp.html#conn_map_loop_susp_unit" xlink:title="conn_map_loop_susp_unit">
<ellipse fill="#f070d1" stroke="black" cx="1303" cy="-228.82" rx="129.98" ry="18"/>
<text text-anchor="middle" x="1303" y="-225.12" font-family="Times,serif" font-size="14.00">conn_map_loop_susp_unit</text>
</a>
</g>
</g>
<!-- pSusp_pequiv_ptr_loop_psusp&#45;&gt;pSusp_conn_map_loop_susp_unit -->
<g id="edge21" class="edge">
<title>pSusp_pequiv_ptr_loop_psusp&#45;&gt;pSusp_conn_map_loop_susp_unit</title>
<path fill="none" stroke="black" d="M1307.62,-313.82C1306.69,-296.85 1305.45,-274.42 1304.5,-257.01"/>
<polygon fill="black" stroke="black" points="1307.99,-256.7 1303.94,-246.91 1301,-257.09 1307.99,-256.7"/>
</g>
<!-- pSusp_pequiv_ptr_loop_psusp&#45;&gt;pSusp_loop_susp_unit -->
<g id="edge22" class="edge">
<title>pSusp_pequiv_ptr_loop_psusp&#45;&gt;pSusp_loop_susp_unit</title>
<path fill="none" stroke="black" d="M1243.86,-317.52C1218.56,-308.59 1189.58,-297.57 1164,-285.82 1141.78,-275.62 1117.85,-262.31 1098.97,-251.22"/>
<polygon fill="black" stroke="black" points="1100.52,-248.08 1090.14,-245.98 1096.95,-254.1 1100.52,-248.08"/>
</g>
<!-- pSusp_loop_susp_unit&#45;&gt;pSusp_psusp -->
<g id="edge23" class="edge">
<title>pSusp_loop_susp_unit&#45;&gt;pSusp_psusp</title>
<path fill="none" stroke="black" d="M1027.01,-212.69C1012.19,-206.83 994.88,-200.24 979,-194.82 918.99,-174.36 848.38,-154.26 804.39,-142.2"/>
<polygon fill="black" stroke="black" points="805.19,-138.79 794.62,-139.53 803.34,-145.54 805.19,-138.79"/>
</g>
<!-- pSusp_is1functor_psusp&#45;&gt;pSusp_is0functor_psusp -->
<g id="edge24" class="edge">
<title>pSusp_is1functor_psusp&#45;&gt;pSusp_is0functor_psusp</title>
<path fill="none" stroke="black" d="M152.78,-324.46C217.56,-304.57 334.47,-268.67 404.19,-247.27"/>
<polygon fill="black" stroke="black" points="405.59,-250.5 414.12,-244.22 403.53,-243.81 405.59,-250.5"/>
</g>
<!-- pSusp_is0functor_psusp&#45;&gt;pSusp_psusp -->
<g id="edge25" class="edge">
<title>pSusp_is0functor_psusp&#45;&gt;pSusp_psusp</title>
<path fill="none" stroke="black" d="M504.82,-213.06C522,-207.31 541.91,-200.7 560,-194.82 615.75,-176.7 680.37,-156.34 721.21,-143.55"/>
<polygon fill="black" stroke="black" points="722.31,-146.87 730.81,-140.55 720.22,-140.19 722.31,-146.87"/>
</g>
<!-- pSusp_ispointed_susp -->
<g id="node20" class="node">
<title>pSusp_ispointed_susp</title>
<g id="a_node20"><a xlink:href="pSusp.html#ispointed_susp" xlink:title="ispointed_susp">
<ellipse fill="#f070d1" stroke="black" cx="762" cy="-41.82" rx="79.09" ry="18"/>
<text text-anchor="middle" x="762" y="-38.12" font-family="Times,serif" font-size="14.00">ispointed_susp</text>
</a>
</g>
</g>
<!-- pSusp_psusp&#45;&gt;pSusp_ispointed_susp -->
<g id="edge26" class="edge">
<title>pSusp_psusp&#45;&gt;pSusp_ispointed_susp</title>
<path fill="none" stroke="black" d="M762,-111.42C762,-99.57 762,-83.64 762,-70.12"/>
<polygon fill="black" stroke="black" points="765.5,-69.91 762,-59.91 758.5,-69.91 765.5,-69.91"/>
</g>
<!-- pSusp_ispointed_path_susp_ -->
<g id="node18" class="node">
<title>pSusp_ispointed_path_susp_</title>
<g id="a_node18"><a xlink:href="pSusp.html#ispointed_path_susp'" xlink:title="ispointed_path_susp&#39;">
<ellipse fill="#f070d1" stroke="black" cx="555" cy="-644.82" rx="107.46" ry="18"/>
<ellipse fill="none" stroke="black" cx="555" cy="-644.82" rx="111.47" ry="22"/>
<ellipse fill="none" stroke="black" cx="555" cy="-644.82" rx="115.48" ry="26"/>
<text text-anchor="middle" x="555" y="-641.12" font-family="Times,serif" font-size="14.00">ispointed_path_susp&#39;</text>
</a>
</g>
</g>
<!-- pSusp_ispointed_path_susp -->
<g id="node19" class="node">
<title>pSusp_ispointed_path_susp</title>
<g id="a_node19"><a xlink:href="pSusp.html#ispointed_path_susp" xlink:title="ispointed_path_susp">
<ellipse fill="#f070d1" stroke="black" cx="189" cy="-644.82" rx="104.77" ry="18"/>
<ellipse fill="none" stroke="black" cx="189" cy="-644.82" rx="108.78" ry="22"/>
<ellipse fill="none" stroke="black" cx="189" cy="-644.82" rx="112.78" ry="26"/>
<text text-anchor="middle" x="189" y="-641.12" font-family="Times,serif" font-size="14.00">ispointed_path_susp</text>
</a>
</g>
</g>
</g>
</svg>
